<?xml version="1.0" encoding="utf-8"?>
<svg xmlns="http://www.w3.org/2000/svg" xmlns:xlink="http://www.w3.org/1999/xlink" width="4800" height="3200" viewBox="0 0 19200 12800">
<defs>
  <clipPath id="clip6600">
    <rect x="0" y="0" width="19200" height="12800"/>
  </clipPath>
</defs>
<path clip-path="url(#clip6600)" d="
M0 12800 L19200 12800 L19200 0 L0 0  Z
  " fill="#ffffff" fill-rule="evenodd" fill-opacity="1"/>
<defs>
  <clipPath id="clip6601">
    <rect x="3840" y="0" width="13441" height="12800"/>
  </clipPath>
</defs>
<path clip-path="url(#clip6600)" d="
M2123.74 11385.4 L18822 11385.4 L18822 987.777 L2123.74 987.777  Z
  " fill="#ffffff" fill-rule="evenodd" fill-opacity="1"/>
<defs>
  <clipPath id="clip6602">
    <rect x="2123" y="987" width="16699" height="10399"/>
  </clipPath>
</defs>
<polyline clip-path="url(#clip6602)" style="stroke:#000000; stroke-width:16; stroke-opacity:0.1; fill:none" points="
  2596.34,11385.4 2596.34,987.777 
  "/>
<polyline clip-path="url(#clip6602)" style="stroke:#000000; stroke-width:16; stroke-opacity:0.1; fill:none" points="
  5746.96,11385.4 5746.96,987.777 
  "/>
<polyline clip-path="url(#clip6602)" style="stroke:#000000; stroke-width:16; stroke-opacity:0.1; fill:none" points="
  8897.58,11385.4 8897.58,987.777 
  "/>
<polyline clip-path="url(#clip6602)" style="stroke:#000000; stroke-width:16; stroke-opacity:0.1; fill:none" points="
  12048.2,11385.4 12048.2,987.777 
  "/>
<polyline clip-path="url(#clip6602)" style="stroke:#000000; stroke-width:16; stroke-opacity:0.1; fill:none" points="
  15198.8,11385.4 15198.8,987.777 
  "/>
<polyline clip-path="url(#clip6602)" style="stroke:#000000; stroke-width:16; stroke-opacity:0.1; fill:none" points="
  18349.5,11385.4 18349.5,987.777 
  "/>
<polyline clip-path="url(#clip6602)" style="stroke:#000000; stroke-width:16; stroke-opacity:0.1; fill:none" points="
  18349.5,11385.4 18349.5,987.777 
  "/>
<polyline clip-path="url(#clip6602)" style="stroke:#000000; stroke-width:16; stroke-opacity:0.1; fill:none" points="
  2123.74,10593.6 18822,10593.6 
  "/>
<polyline clip-path="url(#clip6602)" style="stroke:#000000; stroke-width:16; stroke-opacity:0.1; fill:none" points="
  2123.74,7837.51 18822,7837.51 
  "/>
<polyline clip-path="url(#clip6602)" style="stroke:#000000; stroke-width:16; stroke-opacity:0.1; fill:none" points="
  2123.74,5081.42 18822,5081.42 
  "/>
<polyline clip-path="url(#clip6602)" style="stroke:#000000; stroke-width:16; stroke-opacity:0.1; fill:none" points="
  2123.74,2325.33 18822,2325.33 
  "/>
<polyline clip-path="url(#clip6600)" style="stroke:#000000; stroke-width:32; stroke-opacity:1; fill:none" points="
  2123.74,11385.4 18822,11385.4 
  "/>
<polyline clip-path="url(#clip6600)" style="stroke:#000000; stroke-width:32; stroke-opacity:1; fill:none" points="
  2123.74,11385.4 2123.74,987.777 
  "/>
<polyline clip-path="url(#clip6600)" style="stroke:#000000; stroke-width:32; stroke-opacity:1; fill:none" points="
  2596.34,11385.4 2596.34,11260.7 
  "/>
<polyline clip-path="url(#clip6600)" style="stroke:#000000; stroke-width:32; stroke-opacity:1; fill:none" points="
  5746.96,11385.4 5746.96,11260.7 
  "/>
<polyline clip-path="url(#clip6600)" style="stroke:#000000; stroke-width:32; stroke-opacity:1; fill:none" points="
  8897.58,11385.4 8897.58,11260.7 
  "/>
<polyline clip-path="url(#clip6600)" style="stroke:#000000; stroke-width:32; stroke-opacity:1; fill:none" points="
  12048.2,11385.4 12048.2,11260.7 
  "/>
<polyline clip-path="url(#clip6600)" style="stroke:#000000; stroke-width:32; stroke-opacity:1; fill:none" points="
  15198.8,11385.4 15198.8,11260.7 
  "/>
<polyline clip-path="url(#clip6600)" style="stroke:#000000; stroke-width:32; stroke-opacity:1; fill:none" points="
  18349.5,11385.4 18349.5,11260.7 
  "/>
<polyline clip-path="url(#clip6600)" style="stroke:#000000; stroke-width:32; stroke-opacity:1; fill:none" points="
  18349.5,11385.4 18349.5,11260.7 
  "/>
<polyline clip-path="url(#clip6600)" style="stroke:#000000; stroke-width:32; stroke-opacity:1; fill:none" points="
  2123.74,10593.6 2324.12,10593.6 
  "/>
<polyline clip-path="url(#clip6600)" style="stroke:#000000; stroke-width:32; stroke-opacity:1; fill:none" points="
  2123.74,7837.51 2324.12,7837.51 
  "/>
<polyline clip-path="url(#clip6600)" style="stroke:#000000; stroke-width:32; stroke-opacity:1; fill:none" points="
  2123.74,5081.42 2324.12,5081.42 
  "/>
<polyline clip-path="url(#clip6600)" style="stroke:#000000; stroke-width:32; stroke-opacity:1; fill:none" points="
  2123.74,2325.33 2324.12,2325.33 
  "/>
<path clip-path="url(#clip6600)" d="M 0 0 M2239.95 11561.4 Q2211.06 11561.4 2196.43 11589.9 Q2181.99 11618.2 2181.99 11675.3 Q2181.99 11732.1 2196.43 11760.6 Q2211.06 11789 2239.95 11789 Q2269.02 11789 2283.47 11760.6 Q2298.1 11732.1 2298.1 11675.3 Q2298.1 11618.2 2283.47 11589.9 Q2269.02 11561.4 2239.95 11561.4 M2239.95 11531.7 Q2286.43 11531.7 2310.88 11568.6 Q2335.5 11605.3 2335.5 11675.3 Q2335.5 11745.1 2310.88 11781.9 Q2286.43 11818.6 2239.95 11818.6 Q2193.47 11818.6 2168.84 11781.9 Q2144.39 11745.1 2144.39 11675.3 Q2144.39 11605.3 2168.84 11568.6 Q2193.47 11531.7 2239.95 11531.7 Z" fill="#000000" fill-rule="evenodd" fill-opacity="1" /><path clip-path="url(#clip6600)" d="M 0 0 M2376.06 11766.2 L2415.13 11766.2 L2415.13 11813.2 L2376.06 11813.2 L2376.06 11766.2 Z" fill="#000000" fill-rule="evenodd" fill-opacity="1" /><path clip-path="url(#clip6600)" d="M 0 0 M2456.06 11536.7 L2602.91 11536.7 L2602.91 11568.2 L2490.32 11568.2 L2490.32 11636 Q2498.47 11633.2 2506.61 11631.9 Q2514.76 11630.4 2522.91 11630.4 Q2569.21 11630.4 2596.24 11655.8 Q2623.28 11681.2 2623.28 11724.5 Q2623.28 11769.1 2595.5 11794 Q2567.73 11818.6 2517.17 11818.6 Q2499.76 11818.6 2481.61 11815.6 Q2463.65 11812.7 2444.39 11806.7 L2444.39 11769.1 Q2461.06 11778.2 2478.84 11782.7 Q2496.61 11787.1 2516.43 11787.1 Q2548.47 11787.1 2567.17 11770.3 Q2585.87 11753.4 2585.87 11724.5 Q2585.87 11695.6 2567.17 11678.8 Q2548.47 11661.9 2516.43 11661.9 Q2501.43 11661.9 2486.43 11665.3 Q2471.61 11668.6 2456.06 11675.6 L2456.06 11536.7 Z" fill="#000000" fill-rule="evenodd" fill-opacity="1" /><path clip-path="url(#clip6600)" d="M 0 0 M2654.39 11536.7 L2832.17 11536.7 L2832.17 11552.7 L2731.8 11813.2 L2692.72 11813.2 L2787.17 11568.2 L2654.39 11568.2 L2654.39 11536.7 Z" fill="#000000" fill-rule="evenodd" fill-opacity="1" /><path clip-path="url(#clip6600)" d="M 0 0 M2952.72 11561.4 Q2923.83 11561.4 2909.21 11589.9 Q2894.76 11618.2 2894.76 11675.3 Q2894.76 11732.1 2909.21 11760.6 Q2923.83 11789 2952.72 11789 Q2981.8 11789 2996.24 11760.6 Q3010.87 11732.1 3010.87 11675.3 Q3010.87 11618.2 2996.24 11589.9 Q2981.8 11561.4 2952.72 11561.4 M2952.72 11531.7 Q2999.2 11531.7 3023.65 11568.6 Q3048.28 11605.3 3048.28 11675.3 Q3048.28 11745.1 3023.65 11781.9 Q2999.2 11818.6 2952.72 11818.6 Q2906.24 11818.6 2881.61 11781.9 Q2857.17 11745.1 2857.17 11675.3 Q2857.17 11605.3 2881.61 11568.6 Q2906.24 11531.7 2952.72 11531.7 Z" fill="#000000" fill-rule="evenodd" fill-opacity="1" /><path clip-path="url(#clip6600)" d="M 0 0 M5396.96 11561.4 Q5368.07 11561.4 5353.44 11589.9 Q5339 11618.2 5339 11675.3 Q5339 11732.1 5353.44 11760.6 Q5368.07 11789 5396.96 11789 Q5426.04 11789 5440.48 11760.6 Q5455.11 11732.1 5455.11 11675.3 Q5455.11 11618.2 5440.48 11589.9 Q5426.04 11561.4 5396.96 11561.4 M5396.96 11531.7 Q5443.44 11531.7 5467.89 11568.6 Q5492.52 11605.3 5492.52 11675.3 Q5492.52 11745.1 5467.89 11781.9 Q5443.44 11818.6 5396.96 11818.6 Q5350.48 11818.6 5325.85 11781.9 Q5301.41 11745.1 5301.41 11675.3 Q5301.41 11605.3 5325.85 11568.6 Q5350.48 11531.7 5396.96 11531.7 Z" fill="#000000" fill-rule="evenodd" fill-opacity="1" /><path clip-path="url(#clip6600)" d="M 0 0 M5533.07 11766.2 L5572.15 11766.2 L5572.15 11813.2 L5533.07 11813.2 L5533.07 11766.2 Z" fill="#000000" fill-rule="evenodd" fill-opacity="1" /><path clip-path="url(#clip6600)" d="M 0 0 M5613.07 11536.7 L5759.92 11536.7 L5759.92 11568.2 L5647.33 11568.2 L5647.33 11636 Q5655.48 11633.2 5663.63 11631.9 Q5671.78 11630.4 5679.92 11630.4 Q5726.22 11630.4 5753.26 11655.8 Q5780.29 11681.2 5780.29 11724.5 Q5780.29 11769.1 5752.52 11794 Q5724.74 11818.6 5674.18 11818.6 Q5656.78 11818.6 5638.63 11815.6 Q5620.66 11812.7 5601.41 11806.7 L5601.41 11769.1 Q5618.07 11778.2 5635.85 11782.7 Q5653.63 11787.1 5673.44 11787.1 Q5705.48 11787.1 5724.18 11770.3 Q5742.89 11753.4 5742.89 11724.5 Q5742.89 11695.6 5724.18 11678.8 Q5705.48 11661.9 5673.44 11661.9 Q5658.44 11661.9 5643.44 11665.3 Q5628.63 11668.6 5613.07 11675.6 L5613.07 11536.7 Z" fill="#000000" fill-rule="evenodd" fill-opacity="1" /><path clip-path="url(#clip6600)" d="M 0 0 M5811.4 11536.7 L5989.18 11536.7 L5989.18 11552.7 L5888.81 11813.2 L5849.74 11813.2 L5944.18 11568.2 L5811.4 11568.2 L5811.4 11536.7 Z" fill="#000000" fill-rule="evenodd" fill-opacity="1" /><path clip-path="url(#clip6600)" d="M 0 0 M6061.96 11781.7 L6192.51 11781.7 L6192.51 11813.2 L6016.96 11813.2 L6016.96 11781.7 Q6038.25 11759.7 6074.92 11722.7 Q6111.77 11685.4 6121.22 11674.7 Q6139.18 11654.5 6146.22 11640.6 Q6153.44 11626.5 6153.44 11613 Q6153.44 11591 6137.88 11577.1 Q6122.51 11563.2 6097.7 11563.2 Q6080.11 11563.2 6060.48 11569.3 Q6041.03 11575.4 6018.81 11587.8 L6018.81 11550.1 Q6041.4 11541 6061.03 11536.4 Q6080.66 11531.7 6096.96 11531.7 Q6139.92 11531.7 6165.48 11553.2 Q6191.03 11574.7 6191.03 11610.6 Q6191.03 11627.7 6184.55 11643 Q6178.25 11658.2 6161.4 11679 Q6156.77 11684.3 6131.96 11710.1 Q6107.14 11735.6 6061.96 11781.7 Z" fill="#000000" fill-rule="evenodd" fill-opacity="1" /><path clip-path="url(#clip6600)" d="M 0 0 M8539.25 11561.4 Q8510.36 11561.4 8495.73 11589.9 Q8481.29 11618.2 8481.29 11675.3 Q8481.29 11732.1 8495.73 11760.6 Q8510.36 11789 8539.25 11789 Q8568.33 11789 8582.77 11760.6 Q8597.4 11732.1 8597.4 11675.3 Q8597.4 11618.2 8582.77 11589.9 Q8568.33 11561.4 8539.25 11561.4 M8539.25 11531.7 Q8585.73 11531.7 8610.18 11568.6 Q8634.81 11605.3 8634.81 11675.3 Q8634.81 11745.1 8610.18 11781.9 Q8585.73 11818.6 8539.25 11818.6 Q8492.77 11818.6 8468.14 11781.9 Q8443.7 11745.1 8443.7 11675.3 Q8443.7 11605.3 8468.14 11568.6 Q8492.77 11531.7 8539.25 11531.7 Z" fill="#000000" fill-rule="evenodd" fill-opacity="1" /><path clip-path="url(#clip6600)" d="M 0 0 M8675.36 11766.2 L8714.44 11766.2 L8714.44 11813.2 L8675.36 11813.2 L8675.36 11766.2 Z" fill="#000000" fill-rule="evenodd" fill-opacity="1" /><path clip-path="url(#clip6600)" d="M 0 0 M8755.36 11536.7 L8902.21 11536.7 L8902.21 11568.2 L8789.62 11568.2 L8789.62 11636 Q8797.77 11633.2 8805.92 11631.9 Q8814.07 11630.4 8822.21 11630.4 Q8868.51 11630.4 8895.55 11655.8 Q8922.58 11681.2 8922.58 11724.5 Q8922.58 11769.1 8894.81 11794 Q8867.03 11818.6 8816.47 11818.6 Q8799.07 11818.6 8780.92 11815.6 Q8762.95 11812.7 8743.7 11806.7 L8743.7 11769.1 Q8760.36 11778.2 8778.14 11782.7 Q8795.92 11787.1 8815.73 11787.1 Q8847.77 11787.1 8866.47 11770.3 Q8885.18 11753.4 8885.18 11724.5 Q8885.18 11695.6 8866.47 11678.8 Q8847.77 11661.9 8815.73 11661.9 Q8800.73 11661.9 8785.73 11665.3 Q8770.92 11668.6 8755.36 11675.6 L8755.36 11536.7 Z" fill="#000000" fill-rule="evenodd" fill-opacity="1" /><path clip-path="url(#clip6600)" d="M 0 0 M8953.69 11536.7 L9131.47 11536.7 L9131.47 11552.7 L9031.1 11813.2 L8992.03 11813.2 L9086.47 11568.2 L8953.69 11568.2 L8953.69 11536.7 Z" fill="#000000" fill-rule="evenodd" fill-opacity="1" /><path clip-path="url(#clip6600)" d="M 0 0 M9274.8 11569.3 L9180.36 11716.9 L9274.8 11716.9 L9274.8 11569.3 M9264.99 11536.7 L9312.03 11536.7 L9312.03 11716.9 L9351.47 11716.9 L9351.47 11748 L9312.03 11748 L9312.03 11813.2 L9274.8 11813.2 L9274.8 11748 L9149.99 11748 L9149.99 11711.9 L9264.99 11536.7 Z" fill="#000000" fill-rule="evenodd" fill-opacity="1" /><path clip-path="url(#clip6600)" d="M 0 0 M11691.2 11561.4 Q11662.3 11561.4 11647.7 11589.9 Q11633.2 11618.2 11633.2 11675.3 Q11633.2 11732.1 11647.7 11760.6 Q11662.3 11789 11691.2 11789 Q11720.2 11789 11734.7 11760.6 Q11749.3 11732.1 11749.3 11675.3 Q11749.3 11618.2 11734.7 11589.9 Q11720.2 11561.4 11691.2 11561.4 M11691.2 11531.7 Q11737.7 11531.7 11762.1 11568.6 Q11786.7 11605.3 11786.7 11675.3 Q11786.7 11745.1 11762.1 11781.9 Q11737.7 11818.6 11691.2 11818.6 Q11644.7 11818.6 11620.1 11781.9 Q11595.6 11745.1 11595.6 11675.3 Q11595.6 11605.3 11620.1 11568.6 Q11644.7 11531.7 11691.2 11531.7 Z" fill="#000000" fill-rule="evenodd" fill-opacity="1" /><path clip-path="url(#clip6600)" d="M 0 0 M11827.3 11766.2 L11866.4 11766.2 L11866.4 11813.2 L11827.3 11813.2 L11827.3 11766.2 Z" fill="#000000" fill-rule="evenodd" fill-opacity="1" /><path clip-path="url(#clip6600)" d="M 0 0 M11907.3 11536.7 L12054.1 11536.7 L12054.1 11568.2 L11941.5 11568.2 L11941.5 11636 Q11949.7 11633.2 11957.8 11631.9 Q11966 11630.4 11974.1 11630.4 Q12020.4 11630.4 12047.5 11655.8 Q12074.5 11681.2 12074.5 11724.5 Q12074.5 11769.1 12046.7 11794 Q12018.9 11818.6 11968.4 11818.6 Q11951 11818.6 11932.8 11815.6 Q11914.9 11812.7 11895.6 11806.7 L11895.6 11769.1 Q11912.3 11778.2 11930.1 11782.7 Q11947.8 11787.1 11967.7 11787.1 Q11999.7 11787.1 12018.4 11770.3 Q12037.1 11753.4 12037.1 11724.5 Q12037.1 11695.6 12018.4 11678.8 Q11999.7 11661.9 11967.7 11661.9 Q11952.7 11661.9 11937.7 11665.3 Q11922.8 11668.6 11907.3 11675.6 L11907.3 11536.7 Z" fill="#000000" fill-rule="evenodd" fill-opacity="1" /><path clip-path="url(#clip6600)" d="M 0 0 M12105.6 11536.7 L12283.4 11536.7 L12283.4 11552.7 L12183 11813.2 L12143.9 11813.2 L12238.4 11568.2 L12105.6 11568.2 L12105.6 11536.7 Z" fill="#000000" fill-rule="evenodd" fill-opacity="1" /><path clip-path="url(#clip6600)" d="M 0 0 M12408.6 11660.1 Q12383.4 11660.1 12368.6 11677.3 Q12353.9 11694.5 12353.9 11724.5 Q12353.9 11754.3 12368.6 11771.7 Q12383.4 11789 12408.6 11789 Q12433.8 11789 12448.4 11771.7 Q12463.2 11754.3 12463.2 11724.5 Q12463.2 11694.5 12448.4 11677.3 Q12433.8 11660.1 12408.6 11660.1 M12482.8 11542.8 L12482.8 11576.9 Q12468.8 11570.3 12454.3 11566.7 Q12440.1 11563.2 12426 11563.2 Q12388.9 11563.2 12369.3 11588.2 Q12349.9 11613.2 12347.1 11663.8 Q12358 11647.7 12374.5 11639.1 Q12391 11630.4 12410.8 11630.4 Q12452.5 11630.4 12476.5 11655.8 Q12500.8 11681 12500.8 11724.5 Q12500.8 11767.1 12475.6 11792.8 Q12450.4 11818.6 12408.6 11818.6 Q12360.6 11818.6 12335.2 11781.9 Q12309.9 11745.1 12309.9 11675.3 Q12309.9 11609.7 12341 11570.8 Q12372.1 11531.7 12424.5 11531.7 Q12438.6 11531.7 12452.8 11534.5 Q12467.3 11537.3 12482.8 11542.8 Z" fill="#000000" fill-rule="evenodd" fill-opacity="1" /><path clip-path="url(#clip6600)" d="M 0 0 M14842.8 11561.4 Q14813.9 11561.4 14799.3 11589.9 Q14784.9 11618.2 14784.9 11675.3 Q14784.9 11732.1 14799.3 11760.6 Q14813.9 11789 14842.8 11789 Q14871.9 11789 14886.3 11760.6 Q14901 11732.1 14901 11675.3 Q14901 11618.2 14886.3 11589.9 Q14871.9 11561.4 14842.8 11561.4 M14842.8 11531.7 Q14889.3 11531.7 14913.7 11568.6 Q14938.4 11605.3 14938.4 11675.3 Q14938.4 11745.1 14913.7 11781.9 Q14889.3 11818.6 14842.8 11818.6 Q14796.3 11818.6 14771.7 11781.9 Q14747.3 11745.1 14747.3 11675.3 Q14747.3 11605.3 14771.7 11568.6 Q14796.3 11531.7 14842.8 11531.7 Z" fill="#000000" fill-rule="evenodd" fill-opacity="1" /><path clip-path="url(#clip6600)" d="M 0 0 M14978.9 11766.2 L15018 11766.2 L15018 11813.2 L14978.9 11813.2 L14978.9 11766.2 Z" fill="#000000" fill-rule="evenodd" fill-opacity="1" /><path clip-path="url(#clip6600)" d="M 0 0 M15058.9 11536.7 L15205.8 11536.7 L15205.8 11568.2 L15093.2 11568.2 L15093.2 11636 Q15101.3 11633.2 15109.5 11631.9 Q15117.6 11630.4 15125.8 11630.4 Q15172.1 11630.4 15199.1 11655.8 Q15226.1 11681.2 15226.1 11724.5 Q15226.1 11769.1 15198.4 11794 Q15170.6 11818.6 15120 11818.6 Q15102.6 11818.6 15084.5 11815.6 Q15066.5 11812.7 15047.3 11806.7 L15047.3 11769.1 Q15063.9 11778.2 15081.7 11782.7 Q15099.5 11787.1 15119.3 11787.1 Q15151.3 11787.1 15170 11770.3 Q15188.7 11753.4 15188.7 11724.5 Q15188.7 11695.6 15170 11678.8 Q15151.3 11661.9 15119.3 11661.9 Q15104.3 11661.9 15089.3 11665.3 Q15074.5 11668.6 15058.9 11675.6 L15058.9 11536.7 Z" fill="#000000" fill-rule="evenodd" fill-opacity="1" /><path clip-path="url(#clip6600)" d="M 0 0 M15257.3 11536.7 L15435 11536.7 L15435 11552.7 L15334.7 11813.2 L15295.6 11813.2 L15390 11568.2 L15257.3 11568.2 L15257.3 11536.7 Z" fill="#000000" fill-rule="evenodd" fill-opacity="1" /><path clip-path="url(#clip6600)" d="M 0 0 M15555.6 11681.9 Q15528.9 11681.9 15513.6 11696.2 Q15498.4 11710.4 15498.4 11735.4 Q15498.4 11760.4 15513.6 11774.7 Q15528.9 11789 15555.6 11789 Q15582.3 11789 15597.6 11774.7 Q15613 11760.3 15613 11735.4 Q15613 11710.4 15597.6 11696.2 Q15582.4 11681.9 15555.6 11681.9 M15518.2 11666 Q15494.1 11660.1 15480.6 11643.6 Q15467.3 11627.1 15467.3 11603.4 Q15467.3 11570.3 15490.8 11551 Q15514.5 11531.7 15555.6 11531.7 Q15596.9 11531.7 15620.4 11551 Q15643.9 11570.3 15643.9 11603.4 Q15643.9 11627.1 15630.4 11643.6 Q15617.1 11660.1 15593.2 11666 Q15620.2 11672.3 15635.2 11690.6 Q15650.4 11709 15650.4 11735.4 Q15650.4 11775.6 15625.8 11797.1 Q15601.3 11818.6 15555.6 11818.6 Q15509.8 11818.6 15485.2 11797.1 Q15460.8 11775.6 15460.8 11735.4 Q15460.8 11709 15476 11690.6 Q15491.1 11672.3 15518.2 11666 M15504.5 11606.9 Q15504.5 11628.4 15517.8 11640.4 Q15531.3 11652.5 15555.6 11652.5 Q15579.7 11652.5 15593.2 11640.4 Q15606.9 11628.4 15606.9 11606.9 Q15606.9 11585.4 15593.2 11573.4 Q15579.7 11561.4 15555.6 11561.4 Q15531.3 11561.4 15517.8 11573.4 Q15504.5 11585.4 15504.5 11606.9 Z" fill="#000000" fill-rule="evenodd" fill-opacity="1" /><path clip-path="url(#clip6600)" d="M 0 0 M17989.8 11561.4 Q17960.9 11561.4 17946.3 11589.9 Q17931.9 11618.2 17931.9 11675.3 Q17931.9 11732.1 17946.3 11760.6 Q17960.9 11789 17989.8 11789 Q18018.9 11789 18033.3 11760.6 Q18048 11732.1 18048 11675.3 Q18048 11618.2 18033.3 11589.9 Q18018.9 11561.4 17989.8 11561.4 M17989.8 11531.7 Q18036.3 11531.7 18060.8 11568.6 Q18085.4 11605.3 18085.4 11675.3 Q18085.4 11745.1 18060.8 11781.9 Q18036.3 11818.6 17989.8 11818.6 Q17943.3 11818.6 17918.7 11781.9 Q17894.3 11745.1 17894.3 11675.3 Q17894.3 11605.3 17918.7 11568.6 Q17943.3 11531.7 17989.8 11531.7 Z" fill="#000000" fill-rule="evenodd" fill-opacity="1" /><path clip-path="url(#clip6600)" d="M 0 0 M18125.9 11766.2 L18165 11766.2 L18165 11813.2 L18125.9 11813.2 L18125.9 11766.2 Z" fill="#000000" fill-rule="evenodd" fill-opacity="1" /><path clip-path="url(#clip6600)" d="M 0 0 M18205.9 11536.7 L18352.8 11536.7 L18352.8 11568.2 L18240.2 11568.2 L18240.2 11636 Q18248.3 11633.2 18256.5 11631.9 Q18264.6 11630.4 18272.8 11630.4 Q18319.1 11630.4 18346.1 11655.8 Q18373.2 11681.2 18373.2 11724.5 Q18373.2 11769.1 18345.4 11794 Q18317.6 11818.6 18267 11818.6 Q18249.6 11818.6 18231.5 11815.6 Q18213.5 11812.7 18194.3 11806.7 L18194.3 11769.1 Q18210.9 11778.2 18228.7 11782.7 Q18246.5 11787.1 18266.3 11787.1 Q18298.3 11787.1 18317 11770.3 Q18335.8 11753.4 18335.8 11724.5 Q18335.8 11695.6 18317 11678.8 Q18298.3 11661.9 18266.3 11661.9 Q18251.3 11661.9 18236.3 11665.3 Q18221.5 11668.6 18205.9 11675.6 L18205.9 11536.7 Z" fill="#000000" fill-rule="evenodd" fill-opacity="1" /><path clip-path="url(#clip6600)" d="M 0 0 M18493.7 11681.9 Q18467 11681.9 18451.7 11696.2 Q18436.5 11710.4 18436.5 11735.4 Q18436.5 11760.4 18451.7 11774.7 Q18467 11789 18493.7 11789 Q18520.4 11789 18535.7 11774.7 Q18551.1 11760.3 18551.1 11735.4 Q18551.1 11710.4 18535.7 11696.2 Q18520.6 11681.9 18493.7 11681.9 M18456.3 11666 Q18432.2 11660.1 18418.7 11643.6 Q18405.4 11627.1 18405.4 11603.4 Q18405.4 11570.3 18428.9 11551 Q18452.6 11531.7 18493.7 11531.7 Q18535 11531.7 18558.5 11551 Q18582 11570.3 18582 11603.4 Q18582 11627.1 18568.5 11643.6 Q18555.2 11660.1 18531.3 11666 Q18558.3 11672.3 18573.3 11690.6 Q18588.5 11709 18588.5 11735.4 Q18588.5 11775.6 18563.9 11797.1 Q18539.5 11818.6 18493.7 11818.6 Q18448 11818.6 18423.3 11797.1 Q18398.9 11775.6 18398.9 11735.4 Q18398.9 11709 18414.1 11690.6 Q18429.3 11672.3 18456.3 11666 M18442.6 11606.9 Q18442.6 11628.4 18455.9 11640.4 Q18469.5 11652.5 18493.7 11652.5 Q18517.8 11652.5 18531.3 11640.4 Q18545 11628.4 18545 11606.9 Q18545 11585.4 18531.3 11573.4 Q18517.8 11561.4 18493.7 11561.4 Q18469.5 11561.4 18455.9 11573.4 Q18442.6 11585.4 18442.6 11606.9 Z" fill="#000000" fill-rule="evenodd" fill-opacity="1" /><path clip-path="url(#clip6600)" d="M 0 0 M18709.1 11561.4 Q18680.2 11561.4 18665.6 11589.9 Q18651.1 11618.2 18651.1 11675.3 Q18651.1 11732.1 18665.6 11760.6 Q18680.2 11789 18709.1 11789 Q18738.2 11789 18752.6 11760.6 Q18767.2 11732.1 18767.2 11675.3 Q18767.2 11618.2 18752.6 11589.9 Q18738.2 11561.4 18709.1 11561.4 M18709.1 11531.7 Q18755.6 11531.7 18780 11568.6 Q18804.6 11605.3 18804.6 11675.3 Q18804.6 11745.1 18780 11781.9 Q18755.6 11818.6 18709.1 11818.6 Q18662.6 11818.6 18638 11781.9 Q18613.5 11745.1 18613.5 11675.3 Q18613.5 11605.3 18638 11568.6 Q18662.6 11531.7 18709.1 11531.7 Z" fill="#000000" fill-rule="evenodd" fill-opacity="1" /><path clip-path="url(#clip6600)" d="M 0 0 M17989.8 11561.4 Q17960.9 11561.4 17946.3 11589.9 Q17931.9 11618.2 17931.9 11675.3 Q17931.9 11732.1 17946.3 11760.6 Q17960.9 11789 17989.8 11789 Q18018.9 11789 18033.3 11760.6 Q18048 11732.1 18048 11675.3 Q18048 11618.2 18033.3 11589.9 Q18018.9 11561.4 17989.8 11561.4 M17989.8 11531.7 Q18036.3 11531.7 18060.8 11568.6 Q18085.4 11605.3 18085.4 11675.3 Q18085.4 11745.1 18060.8 11781.9 Q18036.3 11818.6 17989.8 11818.6 Q17943.3 11818.6 17918.7 11781.9 Q17894.3 11745.1 17894.3 11675.3 Q17894.3 11605.3 17918.7 11568.6 Q17943.3 11531.7 17989.8 11531.7 Z" fill="#000000" fill-rule="evenodd" fill-opacity="1" /><path clip-path="url(#clip6600)" d="M 0 0 M18125.9 11766.2 L18165 11766.2 L18165 11813.2 L18125.9 11813.2 L18125.9 11766.2 Z" fill="#000000" fill-rule="evenodd" fill-opacity="1" /><path clip-path="url(#clip6600)" d="M 0 0 M18205.9 11536.7 L18352.8 11536.7 L18352.8 11568.2 L18240.2 11568.2 L18240.2 11636 Q18248.3 11633.2 18256.5 11631.9 Q18264.6 11630.4 18272.8 11630.4 Q18319.1 11630.4 18346.1 11655.8 Q18373.2 11681.2 18373.2 11724.5 Q18373.2 11769.1 18345.4 11794 Q18317.6 11818.6 18267 11818.6 Q18249.6 11818.6 18231.5 11815.6 Q18213.5 11812.7 18194.3 11806.7 L18194.3 11769.1 Q18210.9 11778.2 18228.7 11782.7 Q18246.5 11787.1 18266.3 11787.1 Q18298.3 11787.1 18317 11770.3 Q18335.8 11753.4 18335.8 11724.5 Q18335.8 11695.6 18317 11678.8 Q18298.3 11661.9 18266.3 11661.9 Q18251.3 11661.9 18236.3 11665.3 Q18221.5 11668.6 18205.9 11675.6 L18205.9 11536.7 Z" fill="#000000" fill-rule="evenodd" fill-opacity="1" /><path clip-path="url(#clip6600)" d="M 0 0 M18493.7 11681.9 Q18467 11681.9 18451.7 11696.2 Q18436.5 11710.4 18436.5 11735.4 Q18436.5 11760.4 18451.7 11774.7 Q18467 11789 18493.7 11789 Q18520.4 11789 18535.7 11774.7 Q18551.1 11760.3 18551.1 11735.4 Q18551.1 11710.4 18535.7 11696.2 Q18520.6 11681.9 18493.7 11681.9 M18456.3 11666 Q18432.2 11660.1 18418.7 11643.6 Q18405.4 11627.1 18405.4 11603.4 Q18405.4 11570.3 18428.9 11551 Q18452.6 11531.7 18493.7 11531.7 Q18535 11531.7 18558.5 11551 Q18582 11570.3 18582 11603.4 Q18582 11627.1 18568.5 11643.6 Q18555.2 11660.1 18531.3 11666 Q18558.3 11672.3 18573.3 11690.6 Q18588.5 11709 18588.5 11735.4 Q18588.5 11775.6 18563.9 11797.1 Q18539.5 11818.6 18493.7 11818.6 Q18448 11818.6 18423.3 11797.1 Q18398.9 11775.6 18398.9 11735.4 Q18398.9 11709 18414.1 11690.6 Q18429.3 11672.3 18456.3 11666 M18442.6 11606.9 Q18442.6 11628.4 18455.9 11640.4 Q18469.5 11652.5 18493.7 11652.5 Q18517.8 11652.5 18531.3 11640.4 Q18545 11628.4 18545 11606.9 Q18545 11585.4 18531.3 11573.4 Q18517.8 11561.4 18493.7 11561.4 Q18469.5 11561.4 18455.9 11573.4 Q18442.6 11585.4 18442.6 11606.9 Z" fill="#000000" fill-rule="evenodd" fill-opacity="1" /><path clip-path="url(#clip6600)" d="M 0 0 M18709.1 11561.4 Q18680.2 11561.4 18665.6 11589.9 Q18651.1 11618.2 18651.1 11675.3 Q18651.1 11732.1 18665.6 11760.6 Q18680.2 11789 18709.1 11789 Q18738.2 11789 18752.6 11760.6 Q18767.2 11732.1 18767.2 11675.3 Q18767.2 11618.2 18752.6 11589.9 Q18738.2 11561.4 18709.1 11561.4 M18709.1 11531.7 Q18755.6 11531.7 18780 11568.6 Q18804.6 11605.3 18804.6 11675.3 Q18804.6 11745.1 18780 11781.9 Q18755.6 11818.6 18709.1 11818.6 Q18662.6 11818.6 18638 11781.9 Q18613.5 11745.1 18613.5 11675.3 Q18613.5 11605.3 18638 11568.6 Q18662.6 11531.7 18709.1 11531.7 Z" fill="#000000" fill-rule="evenodd" fill-opacity="1" /><path clip-path="url(#clip6600)" d="M 0 0 M1111.01 10480 Q1082.12 10480 1067.49 10508.5 Q1053.04 10536.8 1053.04 10593.9 Q1053.04 10650.7 1067.49 10679.3 Q1082.12 10707.6 1111.01 10707.6 Q1140.08 10707.6 1154.52 10679.3 Q1169.15 10650.7 1169.15 10593.9 Q1169.15 10536.8 1154.52 10508.5 Q1140.08 10480 1111.01 10480 M1111.01 10450.4 Q1157.49 10450.4 1181.93 10487.2 Q1206.56 10523.9 1206.56 10593.9 Q1206.56 10663.7 1181.93 10700.6 Q1157.49 10737.2 1111.01 10737.2 Q1064.53 10737.2 1039.9 10700.6 Q1015.45 10663.7 1015.45 10593.9 Q1015.45 10523.9 1039.9 10487.2 Q1064.53 10450.4 1111.01 10450.4 Z" fill="#000000" fill-rule="evenodd" fill-opacity="1" /><path clip-path="url(#clip6600)" d="M 0 0 M1247.12 10684.8 L1286.19 10684.8 L1286.19 10731.8 L1247.12 10731.8 L1247.12 10684.8 Z" fill="#000000" fill-rule="evenodd" fill-opacity="1" /><path clip-path="url(#clip6600)" d="M 0 0 M1411.38 10578.7 Q1386.19 10578.7 1371.38 10595.9 Q1356.75 10613.1 1356.75 10643.1 Q1356.75 10673 1371.38 10690.4 Q1386.19 10707.6 1411.38 10707.6 Q1436.56 10707.6 1451.19 10690.4 Q1466 10673 1466 10643.1 Q1466 10613.1 1451.19 10595.9 Q1436.56 10578.7 1411.38 10578.7 M1485.63 10461.5 L1485.63 10495.6 Q1471.56 10488.9 1457.12 10485.4 Q1442.86 10481.8 1428.78 10481.8 Q1391.75 10481.8 1372.12 10506.8 Q1352.67 10531.8 1349.89 10582.4 Q1360.82 10566.3 1377.3 10557.8 Q1393.78 10549.1 1413.6 10549.1 Q1455.26 10549.1 1479.34 10574.4 Q1503.6 10599.6 1503.6 10643.1 Q1503.6 10685.7 1478.41 10711.5 Q1453.23 10737.2 1411.38 10737.2 Q1363.41 10737.2 1338.04 10700.6 Q1312.67 10663.7 1312.67 10593.9 Q1312.67 10528.3 1343.78 10489.4 Q1374.89 10450.4 1427.3 10450.4 Q1441.38 10450.4 1455.63 10453.1 Q1470.08 10455.9 1485.63 10461.5 Z" fill="#000000" fill-rule="evenodd" fill-opacity="1" /><path clip-path="url(#clip6600)" d="M 0 0 M1646.93 10488 L1552.49 10635.6 L1646.93 10635.6 L1646.93 10488 M1637.11 10455.4 L1684.15 10455.4 L1684.15 10635.6 L1723.6 10635.6 L1723.6 10666.7 L1684.15 10666.7 L1684.15 10731.8 L1646.93 10731.8 L1646.93 10666.7 L1522.12 10666.7 L1522.12 10630.6 L1637.11 10455.4 Z" fill="#000000" fill-rule="evenodd" fill-opacity="1" /><path clip-path="url(#clip6600)" d="M 0 0 M1764.52 10455.4 L1911.37 10455.4 L1911.37 10486.8 L1798.78 10486.8 L1798.78 10554.6 Q1806.93 10551.8 1815.08 10550.6 Q1823.23 10549.1 1831.37 10549.1 Q1877.67 10549.1 1904.71 10574.4 Q1931.74 10599.8 1931.74 10643.1 Q1931.74 10687.8 1903.97 10712.6 Q1876.19 10737.2 1825.63 10737.2 Q1808.23 10737.2 1790.08 10734.3 Q1772.11 10731.3 1752.86 10725.4 L1752.86 10687.8 Q1769.52 10696.8 1787.3 10701.3 Q1805.08 10705.7 1824.89 10705.7 Q1856.93 10705.7 1875.63 10688.9 Q1894.34 10672 1894.34 10643.1 Q1894.34 10614.3 1875.63 10597.4 Q1856.93 10580.6 1824.89 10580.6 Q1809.89 10580.6 1794.89 10583.9 Q1780.08 10587.2 1764.52 10594.3 L1764.52 10455.4 Z" fill="#000000" fill-rule="evenodd" fill-opacity="1" /><path clip-path="url(#clip6600)" d="M 0 0 M1114.9 7723.9 Q1086.01 7723.9 1071.38 7752.42 Q1056.93 7780.76 1056.93 7837.79 Q1056.93 7894.64 1071.38 7923.16 Q1086.01 7951.49 1114.9 7951.49 Q1143.97 7951.49 1158.41 7923.16 Q1173.04 7894.64 1173.04 7837.79 Q1173.04 7780.76 1158.41 7752.42 Q1143.97 7723.9 1114.9 7723.9 M1114.9 7694.27 Q1161.38 7694.27 1185.82 7731.13 Q1210.45 7767.79 1210.45 7837.79 Q1210.45 7907.61 1185.82 7944.46 Q1161.38 7981.12 1114.9 7981.12 Q1068.41 7981.12 1043.78 7944.46 Q1019.34 7907.61 1019.34 7837.79 Q1019.34 7767.79 1043.78 7731.13 Q1068.41 7694.27 1114.9 7694.27 Z" fill="#000000" fill-rule="evenodd" fill-opacity="1" /><path clip-path="url(#clip6600)" d="M 0 0 M1251.01 7928.72 L1290.08 7928.72 L1290.08 7975.75 L1251.01 7975.75 L1251.01 7928.72 Z" fill="#000000" fill-rule="evenodd" fill-opacity="1" /><path clip-path="url(#clip6600)" d="M 0 0 M1415.26 7822.61 Q1390.08 7822.61 1375.26 7839.83 Q1360.63 7857.05 1360.63 7887.05 Q1360.63 7916.87 1375.26 7934.27 Q1390.08 7951.49 1415.26 7951.49 Q1440.45 7951.49 1455.08 7934.27 Q1469.89 7916.87 1469.89 7887.05 Q1469.89 7857.05 1455.08 7839.83 Q1440.45 7822.61 1415.26 7822.61 M1489.52 7705.39 L1489.52 7739.46 Q1475.45 7732.79 1461 7729.27 Q1446.75 7725.76 1432.67 7725.76 Q1395.63 7725.76 1376.01 7750.76 Q1356.56 7775.76 1353.78 7826.31 Q1364.71 7810.2 1381.19 7801.68 Q1397.67 7792.98 1417.49 7792.98 Q1459.15 7792.98 1483.23 7818.35 Q1507.49 7843.53 1507.49 7887.05 Q1507.49 7929.64 1482.3 7955.38 Q1457.12 7981.12 1415.26 7981.12 Q1367.3 7981.12 1341.93 7944.46 Q1316.56 7907.61 1316.56 7837.79 Q1316.56 7772.24 1347.67 7733.35 Q1378.78 7694.27 1431.19 7694.27 Q1445.26 7694.27 1459.52 7697.05 Q1473.97 7699.83 1489.52 7705.39 Z" fill="#000000" fill-rule="evenodd" fill-opacity="1" /><path clip-path="url(#clip6600)" d="M 0 0 M1548.41 7699.27 L1695.26 7699.27 L1695.26 7730.76 L1582.67 7730.76 L1582.67 7798.53 Q1590.82 7795.75 1598.97 7794.46 Q1607.12 7792.98 1615.26 7792.98 Q1661.56 7792.98 1688.6 7818.35 Q1715.63 7843.72 1715.63 7887.05 Q1715.63 7931.68 1687.86 7956.49 Q1660.08 7981.12 1609.52 7981.12 Q1592.12 7981.12 1573.97 7978.16 Q1556 7975.2 1536.75 7969.27 L1536.75 7931.68 Q1553.41 7940.75 1571.19 7945.2 Q1588.97 7949.64 1608.78 7949.64 Q1640.82 7949.64 1659.52 7932.79 Q1678.23 7915.94 1678.23 7887.05 Q1678.23 7858.16 1659.52 7841.31 Q1640.82 7824.46 1608.78 7824.46 Q1593.78 7824.46 1578.78 7827.79 Q1563.97 7831.13 1548.41 7838.16 L1548.41 7699.27 Z" fill="#000000" fill-rule="evenodd" fill-opacity="1" /><path clip-path="url(#clip6600)" d="M 0 0 M1836.19 7723.9 Q1807.3 7723.9 1792.67 7752.42 Q1778.23 7780.76 1778.23 7837.79 Q1778.23 7894.64 1792.67 7923.16 Q1807.3 7951.49 1836.19 7951.49 Q1865.26 7951.49 1879.71 7923.16 Q1894.34 7894.64 1894.34 7837.79 Q1894.34 7780.76 1879.71 7752.42 Q1865.26 7723.9 1836.19 7723.9 M1836.19 7694.27 Q1882.67 7694.27 1907.11 7731.13 Q1931.74 7767.79 1931.74 7837.79 Q1931.74 7907.61 1907.11 7944.46 Q1882.67 7981.12 1836.19 7981.12 Q1789.71 7981.12 1765.08 7944.46 Q1740.63 7907.61 1740.63 7837.79 Q1740.63 7767.79 1765.08 7731.13 Q1789.71 7694.27 1836.19 7694.27 Z" fill="#000000" fill-rule="evenodd" fill-opacity="1" /><path clip-path="url(#clip6600)" d="M 0 0 M1122.86 4967.81 Q1093.97 4967.81 1079.34 4996.33 Q1064.9 5024.66 1064.9 5081.7 Q1064.9 5138.55 1079.34 5167.07 Q1093.97 5195.4 1122.86 5195.4 Q1151.93 5195.4 1166.38 5167.07 Q1181.01 5138.55 1181.01 5081.7 Q1181.01 5024.66 1166.38 4996.33 Q1151.93 4967.81 1122.86 4967.81 M1122.86 4938.18 Q1169.34 4938.18 1193.78 4975.03 Q1218.41 5011.7 1218.41 5081.7 Q1218.41 5151.51 1193.78 5188.36 Q1169.34 5225.03 1122.86 5225.03 Q1076.38 5225.03 1051.75 5188.36 Q1027.3 5151.51 1027.3 5081.7 Q1027.3 5011.7 1051.75 4975.03 Q1076.38 4938.18 1122.86 4938.18 Z" fill="#000000" fill-rule="evenodd" fill-opacity="1" /><path clip-path="url(#clip6600)" d="M 0 0 M1258.97 5172.62 L1298.04 5172.62 L1298.04 5219.66 L1258.97 5219.66 L1258.97 5172.62 Z" fill="#000000" fill-rule="evenodd" fill-opacity="1" /><path clip-path="url(#clip6600)" d="M 0 0 M1423.23 5066.51 Q1398.04 5066.51 1383.23 5083.73 Q1368.6 5100.96 1368.6 5130.96 Q1368.6 5160.77 1383.23 5178.18 Q1398.04 5195.4 1423.23 5195.4 Q1448.41 5195.4 1463.04 5178.18 Q1477.86 5160.77 1477.86 5130.96 Q1477.86 5100.96 1463.04 5083.73 Q1448.41 5066.51 1423.23 5066.51 M1497.49 4949.29 L1497.49 4983.36 Q1483.41 4976.7 1468.97 4973.18 Q1454.71 4969.66 1440.63 4969.66 Q1403.6 4969.66 1383.97 4994.66 Q1364.52 5019.66 1361.75 5070.22 Q1372.67 5054.1 1389.15 5045.59 Q1405.63 5036.88 1425.45 5036.88 Q1467.12 5036.88 1491.19 5062.25 Q1515.45 5087.44 1515.45 5130.96 Q1515.45 5173.55 1490.26 5199.29 Q1465.08 5225.03 1423.23 5225.03 Q1375.26 5225.03 1349.89 5188.36 Q1324.52 5151.51 1324.52 5081.7 Q1324.52 5016.14 1355.63 4977.25 Q1386.75 4938.18 1439.15 4938.18 Q1453.23 4938.18 1467.49 4940.96 Q1481.93 4943.74 1497.49 4949.29 Z" fill="#000000" fill-rule="evenodd" fill-opacity="1" /><path clip-path="url(#clip6600)" d="M 0 0 M1556.37 4943.18 L1703.23 4943.18 L1703.23 4974.66 L1590.63 4974.66 L1590.63 5042.44 Q1598.78 5039.66 1606.93 5038.36 Q1615.08 5036.88 1623.23 5036.88 Q1669.52 5036.88 1696.56 5062.25 Q1723.6 5087.62 1723.6 5130.96 Q1723.6 5175.59 1695.82 5200.4 Q1668.04 5225.03 1617.49 5225.03 Q1600.08 5225.03 1581.93 5222.07 Q1563.97 5219.1 1544.71 5213.18 L1544.71 5175.59 Q1561.37 5184.66 1579.15 5189.1 Q1596.93 5193.55 1616.74 5193.55 Q1648.78 5193.55 1667.49 5176.7 Q1686.19 5159.85 1686.19 5130.96 Q1686.19 5102.07 1667.49 5085.22 Q1648.78 5068.36 1616.74 5068.36 Q1601.74 5068.36 1586.74 5071.7 Q1571.93 5075.03 1556.37 5082.07 L1556.37 4943.18 Z" fill="#000000" fill-rule="evenodd" fill-opacity="1" /><path clip-path="url(#clip6600)" d="M 0 0 M1764.52 4943.18 L1911.37 4943.18 L1911.37 4974.66 L1798.78 4974.66 L1798.78 5042.44 Q1806.93 5039.66 1815.08 5038.36 Q1823.23 5036.88 1831.37 5036.88 Q1877.67 5036.88 1904.71 5062.25 Q1931.74 5087.62 1931.74 5130.96 Q1931.74 5175.59 1903.97 5200.4 Q1876.19 5225.03 1825.63 5225.03 Q1808.23 5225.03 1790.08 5222.07 Q1772.11 5219.1 1752.86 5213.18 L1752.86 5175.59 Q1769.52 5184.66 1787.3 5189.1 Q1805.08 5193.55 1824.89 5193.55 Q1856.93 5193.55 1875.63 5176.7 Q1894.34 5159.85 1894.34 5130.96 Q1894.34 5102.07 1875.63 5085.22 Q1856.93 5068.36 1824.89 5068.36 Q1809.89 5068.36 1794.89 5071.7 Q1780.08 5075.03 1764.52 5082.07 L1764.52 4943.18 Z" fill="#000000" fill-rule="evenodd" fill-opacity="1" /><path clip-path="url(#clip6600)" d="M 0 0 M1105.64 2211.71 Q1076.75 2211.71 1062.12 2240.23 Q1047.67 2268.57 1047.67 2325.6 Q1047.67 2382.45 1062.12 2410.97 Q1076.75 2439.31 1105.64 2439.31 Q1134.71 2439.31 1149.15 2410.97 Q1163.78 2382.45 1163.78 2325.6 Q1163.78 2268.57 1149.15 2240.23 Q1134.71 2211.71 1105.64 2211.71 M1105.64 2182.09 Q1152.12 2182.09 1176.56 2218.94 Q1201.19 2255.6 1201.19 2325.6 Q1201.19 2395.42 1176.56 2432.27 Q1152.12 2468.94 1105.64 2468.94 Q1059.16 2468.94 1034.53 2432.27 Q1010.08 2395.42 1010.08 2325.6 Q1010.08 2255.6 1034.53 2218.94 Q1059.16 2182.09 1105.64 2182.09 Z" fill="#000000" fill-rule="evenodd" fill-opacity="1" /><path clip-path="url(#clip6600)" d="M 0 0 M1241.75 2416.53 L1280.82 2416.53 L1280.82 2463.57 L1241.75 2463.57 L1241.75 2416.53 Z" fill="#000000" fill-rule="evenodd" fill-opacity="1" /><path clip-path="url(#clip6600)" d="M 0 0 M1406.01 2310.42 Q1380.82 2310.42 1366.01 2327.64 Q1351.38 2344.86 1351.38 2374.86 Q1351.38 2404.68 1366.01 2422.08 Q1380.82 2439.31 1406.01 2439.31 Q1431.19 2439.31 1445.82 2422.08 Q1460.63 2404.68 1460.63 2374.86 Q1460.63 2344.86 1445.82 2327.64 Q1431.19 2310.42 1406.01 2310.42 M1480.26 2193.2 L1480.26 2227.27 Q1466.19 2220.6 1451.75 2217.08 Q1437.49 2213.57 1423.41 2213.57 Q1386.38 2213.57 1366.75 2238.57 Q1347.3 2263.57 1344.52 2314.12 Q1355.45 2298.01 1371.93 2289.49 Q1388.41 2280.79 1408.23 2280.79 Q1449.89 2280.79 1473.97 2306.16 Q1498.23 2331.34 1498.23 2374.86 Q1498.23 2417.45 1473.04 2443.19 Q1447.86 2468.94 1406.01 2468.94 Q1358.04 2468.94 1332.67 2432.27 Q1307.3 2395.42 1307.3 2325.6 Q1307.3 2260.05 1338.41 2221.16 Q1369.52 2182.09 1421.93 2182.09 Q1436 2182.09 1450.26 2184.86 Q1464.71 2187.64 1480.26 2193.2 Z" fill="#000000" fill-rule="evenodd" fill-opacity="1" /><path clip-path="url(#clip6600)" d="M 0 0 M1623.41 2310.42 Q1598.23 2310.42 1583.41 2327.64 Q1568.78 2344.86 1568.78 2374.86 Q1568.78 2404.68 1583.41 2422.08 Q1598.23 2439.31 1623.41 2439.31 Q1648.6 2439.31 1663.23 2422.08 Q1678.04 2404.68 1678.04 2374.86 Q1678.04 2344.86 1663.23 2327.64 Q1648.6 2310.42 1623.41 2310.42 M1697.67 2193.2 L1697.67 2227.27 Q1683.6 2220.6 1669.15 2217.08 Q1654.89 2213.57 1640.82 2213.57 Q1603.78 2213.57 1584.15 2238.57 Q1564.71 2263.57 1561.93 2314.12 Q1572.86 2298.01 1589.34 2289.49 Q1605.82 2280.79 1625.63 2280.79 Q1667.3 2280.79 1691.37 2306.16 Q1715.63 2331.34 1715.63 2374.86 Q1715.63 2417.45 1690.45 2443.19 Q1665.26 2468.94 1623.41 2468.94 Q1575.45 2468.94 1550.08 2432.27 Q1524.71 2395.42 1524.71 2325.6 Q1524.71 2260.05 1555.82 2221.16 Q1586.93 2182.09 1639.34 2182.09 Q1653.41 2182.09 1667.67 2184.86 Q1682.11 2187.64 1697.67 2193.2 Z" fill="#000000" fill-rule="evenodd" fill-opacity="1" /><path clip-path="url(#clip6600)" d="M 0 0 M1836.19 2211.71 Q1807.3 2211.71 1792.67 2240.23 Q1778.23 2268.57 1778.23 2325.6 Q1778.23 2382.45 1792.67 2410.97 Q1807.3 2439.31 1836.19 2439.31 Q1865.26 2439.31 1879.71 2410.97 Q1894.34 2382.45 1894.34 2325.6 Q1894.34 2268.57 1879.71 2240.23 Q1865.26 2211.71 1836.19 2211.71 M1836.19 2182.09 Q1882.67 2182.09 1907.11 2218.94 Q1931.74 2255.6 1931.74 2325.6 Q1931.74 2395.42 1907.11 2432.27 Q1882.67 2468.94 1836.19 2468.94 Q1789.71 2468.94 1765.08 2432.27 Q1740.63 2395.42 1740.63 2325.6 Q1740.63 2255.6 1765.08 2218.94 Q1789.71 2182.09 1836.19 2182.09 Z" fill="#000000" fill-rule="evenodd" fill-opacity="1" /><path clip-path="url(#clip6600)" d="M 0 0 M6041.21 228.341 L6041.21 284.73 Q6015.93 271.767 5988.71 265.286 Q5961.48 258.804 5932.32 258.804 Q5887.92 258.804 5865.56 272.415 Q5843.52 286.026 5843.52 313.248 Q5843.52 333.989 5859.4 345.98 Q5875.28 357.646 5923.24 368.341 L5943.66 372.878 Q6007.18 386.489 6033.75 411.442 Q6060.65 436.072 6060.65 480.47 Q6060.65 531.025 6020.47 560.516 Q5980.6 590.006 5910.6 590.006 Q5881.44 590.006 5849.68 584.173 Q5818.24 578.664 5783.24 567.321 L5783.24 505.747 Q5816.3 522.923 5848.38 531.673 Q5880.47 540.099 5911.9 540.099 Q5954.03 540.099 5976.72 525.84 Q5999.4 511.257 5999.4 485.007 Q5999.4 460.701 5982.87 447.738 Q5966.67 434.775 5911.25 422.785 L5890.51 417.924 Q5835.1 406.257 5810.47 382.276 Q5785.84 357.97 5785.84 315.841 Q5785.84 264.637 5822.13 236.767 Q5858.43 208.897 5925.19 208.897 Q5958.24 208.897 5987.41 213.758 Q6016.58 218.619 6041.21 228.341 Z" fill="#000000" fill-rule="evenodd" fill-opacity="1" /><path clip-path="url(#clip6600)" d="M 0 0 M6123.2 217.647 L6182.83 217.647 L6182.83 580.608 L6123.2 580.608 L6123.2 217.647 M6123.2 76.3514 L6182.83 76.3514 L6182.83 151.86 L6123.2 151.86 L6123.2 76.3514 Z" fill="#000000" fill-rule="evenodd" fill-opacity="1" /><path clip-path="url(#clip6600)" d="M 0 0 M6219.45 217.647 L6502.68 217.647 L6502.68 272.091 L6278.43 532.969 L6502.68 532.969 L6502.68 580.608 L6211.34 580.608 L6211.34 526.164 L6435.6 265.286 L6219.45 265.286 L6219.45 217.647 Z" fill="#000000" fill-rule="evenodd" fill-opacity="1" /><path clip-path="url(#clip6600)" d="M 0 0 M6875.69 384.22 L6875.69 413.387 L6601.53 413.387 Q6605.42 474.96 6638.47 507.368 Q6671.85 539.451 6731.16 539.451 Q6765.51 539.451 6797.59 531.025 Q6830 522.599 6861.76 505.747 L6861.76 562.136 Q6829.67 575.747 6795.97 582.877 Q6762.27 590.006 6727.59 590.006 Q6640.74 590.006 6589.86 539.451 Q6539.31 488.896 6539.31 402.692 Q6539.31 313.572 6587.27 261.397 Q6635.55 208.897 6717.22 208.897 Q6790.46 208.897 6832.91 256.212 Q6875.69 303.202 6875.69 384.22 M6816.06 366.72 Q6815.41 317.785 6788.52 288.619 Q6761.94 259.452 6717.87 259.452 Q6667.96 259.452 6637.82 287.647 Q6608.01 315.841 6603.47 367.044 L6816.06 366.72 Z" fill="#000000" fill-rule="evenodd" fill-opacity="1" /><path clip-path="url(#clip6600)" d="M 0 0 M6953.47 498.294 L7021.85 498.294 L7021.85 580.608 L6953.47 580.608 L6953.47 498.294 M6953.47 237.415 L7021.85 237.415 L7021.85 319.73 L6953.47 319.73 L6953.47 237.415 Z" fill="#000000" fill-rule="evenodd" fill-opacity="1" /><path clip-path="url(#clip6600)" d="M 0 0 M7240.92 312.6 Q7196.85 312.6 7170.92 342.739 Q7145.32 372.878 7145.32 425.377 Q7145.32 477.553 7170.92 508.016 Q7196.85 538.155 7240.92 538.155 Q7285 538.155 7310.6 508.016 Q7336.52 477.553 7336.52 425.377 Q7336.52 372.878 7310.6 342.739 Q7285 312.6 7240.92 312.6 M7370.87 107.462 L7370.87 167.092 Q7346.25 155.425 7320.97 149.268 Q7296.01 143.11 7271.38 143.11 Q7206.57 143.11 7172.22 186.86 Q7138.19 230.61 7133.33 319.082 Q7152.45 290.887 7181.29 275.98 Q7210.13 260.749 7244.81 260.749 Q7317.73 260.749 7359.86 305.147 Q7402.31 349.22 7402.31 425.377 Q7402.31 499.914 7358.24 544.96 Q7314.16 590.006 7240.92 590.006 Q7156.99 590.006 7112.59 525.84 Q7068.19 461.349 7068.19 339.174 Q7068.19 224.453 7122.64 156.397 Q7177.08 88.018 7268.79 88.018 Q7293.42 88.018 7318.37 92.8791 Q7343.65 97.7402 7370.87 107.462 Z" fill="#000000" fill-rule="evenodd" fill-opacity="1" /><path clip-path="url(#clip6600)" d="M 0 0 M7480.09 498.294 L7548.47 498.294 L7548.47 554.034 L7495.32 657.737 L7453.51 657.737 L7480.09 554.034 L7480.09 498.294 Z" fill="#000000" fill-rule="evenodd" fill-opacity="1" /><path clip-path="url(#clip6600)" d="M 0 0 M7759.44 350.841 Q7712.77 350.841 7685.87 375.794 Q7659.3 400.748 7659.3 444.498 Q7659.3 488.247 7685.87 513.201 Q7712.77 538.155 7759.44 538.155 Q7806.1 538.155 7833 513.201 Q7859.9 487.923 7859.9 444.498 Q7859.9 400.748 7833 375.794 Q7806.43 350.841 7759.44 350.841 M7693.97 322.97 Q7651.85 312.6 7628.19 283.758 Q7604.85 254.915 7604.85 213.434 Q7604.85 155.425 7646.01 121.722 Q7687.49 88.018 7759.44 88.018 Q7831.71 88.018 7872.86 121.722 Q7914.02 155.425 7914.02 213.434 Q7914.02 254.915 7890.36 283.758 Q7867.03 312.6 7825.22 322.97 Q7872.54 333.989 7898.79 366.072 Q7925.36 398.155 7925.36 444.498 Q7925.36 514.821 7882.26 552.414 Q7839.48 590.006 7759.44 590.006 Q7679.39 590.006 7636.29 552.414 Q7593.51 514.821 7593.51 444.498 Q7593.51 398.155 7620.09 366.072 Q7646.66 333.989 7693.97 322.97 M7669.99 219.591 Q7669.99 257.184 7693.33 278.249 Q7716.98 299.313 7759.44 299.313 Q7801.57 299.313 7825.22 278.249 Q7849.21 257.184 7849.21 219.591 Q7849.21 181.999 7825.22 160.934 Q7801.57 139.87 7759.44 139.87 Q7716.98 139.87 7693.33 160.934 Q7669.99 181.999 7669.99 219.591 Z" fill="#000000" fill-rule="evenodd" fill-opacity="1" /><path clip-path="url(#clip6600)" d="M 0 0 M8003.14 498.294 L8071.52 498.294 L8071.52 554.034 L8018.37 657.737 L7976.57 657.737 L8003.14 554.034 L8003.14 498.294 Z" fill="#000000" fill-rule="evenodd" fill-opacity="1" /><path clip-path="url(#clip6600)" d="M 0 0 M8153.83 525.516 L8260.78 525.516 L8260.78 156.397 L8144.44 179.731 L8144.44 120.101 L8260.13 96.768 L8325.59 96.768 L8325.59 525.516 L8432.54 525.516 L8432.54 580.608 L8153.83 580.608 L8153.83 525.516 Z" fill="#000000" fill-rule="evenodd" fill-opacity="1" /><path clip-path="url(#clip6600)" d="M 0 0 M8643.51 139.87 Q8592.95 139.87 8567.35 189.777 Q8542.07 239.36 8542.07 339.174 Q8542.07 438.664 8567.35 488.571 Q8592.95 538.155 8643.51 538.155 Q8694.39 538.155 8719.66 488.571 Q8745.27 438.664 8745.27 339.174 Q8745.27 239.36 8719.66 189.777 Q8694.39 139.87 8643.51 139.87 M8643.51 88.018 Q8724.85 88.018 8767.63 152.508 Q8810.73 216.675 8810.73 339.174 Q8810.73 461.349 8767.63 525.84 Q8724.85 590.006 8643.51 590.006 Q8562.16 590.006 8519.06 525.84 Q8476.29 461.349 8476.29 339.174 Q8476.29 216.675 8519.06 152.508 Q8562.16 88.018 8643.51 88.018 Z" fill="#000000" fill-rule="evenodd" fill-opacity="1" /><path clip-path="url(#clip6600)" d="M 0 0 M8888.51 498.294 L8956.88 498.294 L8956.88 554.034 L8903.74 657.737 L8861.93 657.737 L8888.51 554.034 L8888.51 498.294 Z" fill="#000000" fill-rule="evenodd" fill-opacity="1" /><path clip-path="url(#clip6600)" d="M 0 0 M9039.2 525.516 L9146.14 525.516 L9146.14 156.397 L9029.8 179.731 L9029.8 120.101 L9145.49 96.768 L9210.96 96.768 L9210.96 525.516 L9317.9 525.516 L9317.9 580.608 L9039.2 580.608 L9039.2 525.516 Z" fill="#000000" fill-rule="evenodd" fill-opacity="1" /><path clip-path="url(#clip6600)" d="M 0 0 M9445.26 525.516 L9673.73 525.516 L9673.73 580.608 L9366.51 580.608 L9366.51 525.516 Q9403.78 486.951 9467.95 422.137 Q9532.44 356.998 9548.96 338.202 Q9580.4 302.878 9592.71 278.573 Q9605.35 253.943 9605.35 230.286 Q9605.35 191.721 9578.13 167.416 Q9551.23 143.11 9507.81 143.11 Q9477.02 143.11 9442.67 153.805 Q9408.64 164.499 9369.75 186.212 L9369.75 120.101 Q9409.29 104.222 9443.64 96.1199 Q9477.99 88.018 9506.51 88.018 Q9581.7 88.018 9626.42 125.61 Q9671.14 163.203 9671.14 226.073 Q9671.14 255.888 9659.8 282.786 Q9648.78 309.359 9619.29 345.656 Q9611.19 355.054 9567.76 400.1 Q9524.34 444.822 9445.26 525.516 Z" fill="#000000" fill-rule="evenodd" fill-opacity="1" /><path clip-path="url(#clip6600)" d="M 0 0 M9751.51 237.415 L9819.89 237.415 L9819.89 319.73 L9751.51 319.73 L9751.51 237.415 M9751.51 498.294 L9819.89 498.294 L9819.89 554.034 L9766.74 657.737 L9724.94 657.737 L9751.51 554.034 L9751.51 498.294 Z" fill="#000000" fill-rule="evenodd" fill-opacity="1" /><path clip-path="url(#clip6600)" d="M 0 0 M10292.4 141.166 Q10221.1 141.166 10179 194.314 Q10137.2 247.462 10137.2 339.174 Q10137.2 430.563 10179 483.71 Q10221.1 536.858 10292.4 536.858 Q10363.7 536.858 10405.2 483.71 Q10447 430.563 10447 339.174 Q10447 247.462 10405.2 194.314 Q10363.7 141.166 10292.4 141.166 M10384.1 571.858 L10470.3 666.163 L10391.2 666.163 L10319.6 588.71 Q10308.9 589.358 10303.1 589.682 Q10297.6 590.006 10292.4 590.006 Q10190.3 590.006 10129.1 521.951 Q10068.1 453.572 10068.1 339.174 Q10068.1 224.453 10129.1 156.397 Q10190.3 88.018 10292.4 88.018 Q10394.1 88.018 10455.1 156.397 Q10516 224.453 10516 339.174 Q10516 423.433 10482 483.386 Q10448.3 543.34 10384.1 571.858 Z" fill="#000000" fill-rule="evenodd" fill-opacity="1" /><path clip-path="url(#clip6600)" d="M 0 0 M10797.3 279.221 L11212.8 279.221 L11212.8 333.665 L10797.3 333.665 L10797.3 279.221 M10797.3 411.442 L11212.8 411.442 L11212.8 466.535 L10797.3 466.535 L10797.3 411.442 Z" fill="#000000" fill-rule="evenodd" fill-opacity="1" /><path clip-path="url(#clip6600)" d="M 0 0 M11506 525.516 L11613 525.516 L11613 156.397 L11496.6 179.731 L11496.6 120.101 L11612.3 96.768 L11677.8 96.768 L11677.8 525.516 L11784.7 525.516 L11784.7 580.608 L11506 580.608 L11506 525.516 Z" fill="#000000" fill-rule="evenodd" fill-opacity="1" /><path clip-path="url(#clip6600)" d="M 0 0 M12003.8 312.6 Q11959.7 312.6 11933.8 342.739 Q11908.2 372.878 11908.2 425.377 Q11908.2 477.553 11933.8 508.016 Q11959.7 538.155 12003.8 538.155 Q12047.9 538.155 12073.5 508.016 Q12099.4 477.553 12099.4 425.377 Q12099.4 372.878 12073.5 342.739 Q12047.9 312.6 12003.8 312.6 M12133.8 107.462 L12133.8 167.092 Q12109.1 155.425 12083.9 149.268 Q12058.9 143.11 12034.3 143.11 Q11969.5 143.11 11935.1 186.86 Q11901.1 230.61 11896.2 319.082 Q11915.3 290.887 11944.2 275.98 Q11973 260.749 12007.7 260.749 Q12080.6 260.749 12122.7 305.147 Q12165.2 349.22 12165.2 425.377 Q12165.2 499.914 12121.1 544.96 Q12077.1 590.006 12003.8 590.006 Q11919.9 590.006 11875.5 525.84 Q11831.1 461.349 11831.1 339.174 Q11831.1 224.453 11885.5 156.397 Q11940 88.018 12031.7 88.018 Q12056.3 88.018 12081.3 92.8791 Q12106.5 97.7402 12133.8 107.462 Z" fill="#000000" fill-rule="evenodd" fill-opacity="1" /><path clip-path="url(#clip6600)" d="M 0 0 M12243 237.415 L12311.4 237.415 L12311.4 319.73 L12243 319.73 L12243 237.415 M12243 498.294 L12311.4 498.294 L12311.4 554.034 L12258.2 657.737 L12216.4 657.737 L12243 554.034 L12243 498.294 Z" fill="#000000" fill-rule="evenodd" fill-opacity="1" /><path clip-path="url(#clip6600)" d="M 0 0 M12587.5 96.768 L12652.9 96.768 L12652.9 546.904 Q12652.9 634.404 12619.6 673.941 Q12586.5 713.478 12512.9 713.478 L12488 713.478 L12488 658.385 L12508.4 658.385 Q12551.8 658.385 12569.6 634.08 Q12587.5 609.775 12587.5 546.904 L12587.5 96.768 Z" fill="#000000" fill-rule="evenodd" fill-opacity="1" /><path clip-path="url(#clip6600)" d="M 0 0 M12991.3 690.793 L12991.3 737.135 L12646.4 737.135 L12646.4 690.793 L12991.3 690.793 Z" fill="#000000" fill-rule="evenodd" fill-opacity="1" /><path clip-path="url(#clip6600)" d="M 0 0 M13073.6 525.516 L13180.5 525.516 L13180.5 156.397 L13064.2 179.731 L13064.2 120.101 L13179.9 96.768 L13245.3 96.768 L13245.3 525.516 L13352.3 525.516 L13352.3 580.608 L13073.6 580.608 L13073.6 525.516 Z" fill="#000000" fill-rule="evenodd" fill-opacity="1" /><path clip-path="url(#clip6600)" d="M 0 0 M13633.6 279.221 L14049 279.221 L14049 333.665 L13633.6 333.665 L13633.6 279.221 M13633.6 411.442 L14049 411.442 L14049 466.535 L13633.6 466.535 L13633.6 411.442 Z" fill="#000000" fill-rule="evenodd" fill-opacity="1" /><path clip-path="url(#clip6600)" d="M 0 0 M14471 139.87 Q14420.4 139.87 14394.8 189.777 Q14369.5 239.36 14369.5 339.174 Q14369.5 438.664 14394.8 488.571 Q14420.4 538.155 14471 538.155 Q14521.9 538.155 14547.1 488.571 Q14572.7 438.664 14572.7 339.174 Q14572.7 239.36 14547.1 189.777 Q14521.9 139.87 14471 139.87 M14471 88.018 Q14552.3 88.018 14595.1 152.508 Q14638.2 216.675 14638.2 339.174 Q14638.2 461.349 14595.1 525.84 Q14552.3 590.006 14471 590.006 Q14389.6 590.006 14346.5 525.84 Q14303.8 461.349 14303.8 339.174 Q14303.8 216.675 14346.5 152.508 Q14389.6 88.018 14471 88.018 Z" fill="#000000" fill-rule="evenodd" fill-opacity="1" /><path clip-path="url(#clip6600)" d="M 0 0 M14709.2 498.294 L14777.5 498.294 L14777.5 580.608 L14709.2 580.608 L14709.2 498.294 Z" fill="#000000" fill-rule="evenodd" fill-opacity="1" /><path clip-path="url(#clip6600)" d="M 0 0 M15028.4 153.805 L14863.1 412.09 L15028.4 412.09 L15028.4 153.805 M15011.2 96.768 L15093.5 96.768 L15093.5 412.09 L15162.5 412.09 L15162.5 466.535 L15093.5 466.535 L15093.5 580.608 L15028.4 580.608 L15028.4 466.535 L14810 466.535 L14810 403.34 L15011.2 96.768 Z" fill="#000000" fill-rule="evenodd" fill-opacity="1" /><path clip-path="url(#clip6600)" d="M 0 0 M10312.1 12068.2 L10633.7 12068.2 L10633.7 12111.5 L10498.7 12111.5 L10498.7 12448.4 L10447.1 12448.4 L10447.1 12111.5 L10312.1 12111.5 L10312.1 12068.2 Z" fill="#000000" fill-rule="evenodd" fill-opacity="1" /><path clip-path="url(#clip6600)" d="M 0 0 M522.483 7641.94 L661.765 7641.94 L661.765 7559.44 Q661.765 7517.93 644.705 7498.07 Q627.39 7477.96 591.997 7477.96 Q556.349 7477.96 539.543 7498.07 Q522.483 7517.93 522.483 7559.44 L522.483 7641.94 M366.142 7641.94 L480.724 7641.94 L480.724 7565.8 Q480.724 7528.12 466.72 7509.78 Q452.461 7491.2 423.433 7491.2 Q394.66 7491.2 380.401 7509.78 Q366.142 7528.12 366.142 7565.8 L366.142 7641.94 M323.873 7693.37 L323.873 7561.98 Q323.873 7503.16 348.318 7471.33 Q372.762 7439.51 417.831 7439.51 Q452.715 7439.51 473.34 7455.8 Q493.965 7472.1 499.058 7503.67 Q507.206 7465.73 533.178 7444.85 Q558.895 7423.72 597.599 7423.72 Q648.524 7423.72 676.279 7458.35 Q704.033 7492.98 704.033 7556.89 L704.033 7693.37 L323.873 7693.37 Z" fill="#000000" fill-rule="evenodd" fill-opacity="1" /><path clip-path="url(#clip6600)" d="M 0 0 M418.85 7374.58 L418.85 7327.72 L704.033 7327.72 L704.033 7374.58 L418.85 7374.58 M307.832 7374.58 L307.832 7327.72 L367.16 7327.72 L367.16 7374.58 L307.832 7374.58 Z" fill="#000000" fill-rule="evenodd" fill-opacity="1" /><path clip-path="url(#clip6600)" d="M 0 0 M531.905 7041.52 L704.033 7041.52 L704.033 7088.37 L533.432 7088.37 Q492.946 7088.37 472.831 7104.16 Q452.715 7119.95 452.715 7151.52 Q452.715 7189.46 476.905 7211.36 Q501.095 7233.26 542.854 7233.26 L704.033 7233.26 L704.033 7280.36 L418.85 7280.36 L418.85 7233.26 L463.155 7233.26 Q437.437 7216.45 424.706 7193.79 Q411.975 7170.87 411.975 7141.08 Q411.975 7091.94 442.53 7066.73 Q472.831 7041.52 531.905 7041.52 Z" fill="#000000" fill-rule="evenodd" fill-opacity="1" /><path clip-path="url(#clip6600)" d="M 0 0 M462.136 6804.72 L307.832 6804.72 L307.832 6757.87 L704.033 6757.87 L704.033 6804.72 L661.256 6804.72 Q686.719 6819.49 699.195 6842.15 Q711.417 6864.56 711.417 6896.13 Q711.417 6947.82 670.168 6980.41 Q628.918 7012.75 561.696 7012.75 Q494.474 7012.75 453.224 6980.41 Q411.975 6947.82 411.975 6896.13 Q411.975 6864.56 424.451 6842.15 Q436.674 6819.49 462.136 6804.72 M561.696 6964.37 Q613.386 6964.37 642.922 6943.24 Q672.205 6921.85 672.205 6884.67 Q672.205 6847.5 642.922 6826.11 Q613.386 6804.72 561.696 6804.72 Q510.007 6804.72 480.724 6826.11 Q451.187 6847.5 451.187 6884.67 Q451.187 6921.85 480.724 6943.24 Q510.007 6964.37 561.696 6964.37 Z" fill="#000000" fill-rule="evenodd" fill-opacity="1" /><path clip-path="url(#clip6600)" d="M 0 0 M549.729 6464.79 L572.645 6464.79 L572.645 6680.2 Q621.024 6677.15 646.487 6651.18 Q671.695 6624.95 671.695 6578.35 Q671.695 6551.36 665.075 6526.15 Q658.455 6500.69 645.214 6475.74 L689.519 6475.74 Q700.214 6500.95 705.816 6527.43 Q711.417 6553.91 711.417 6581.15 Q711.417 6649.39 671.695 6689.37 Q631.973 6729.09 564.242 6729.09 Q494.22 6729.09 453.224 6691.41 Q411.975 6653.47 411.975 6589.3 Q411.975 6531.76 449.15 6498.4 Q486.071 6464.79 549.729 6464.79 M535.979 6511.64 Q497.53 6512.15 474.613 6533.28 Q451.697 6554.16 451.697 6588.79 Q451.697 6628.01 473.849 6651.69 Q496.002 6675.11 536.233 6678.68 L535.979 6511.64 Z" fill="#000000" fill-rule="evenodd" fill-opacity="1" /><path clip-path="url(#clip6600)" d="M 0 0 M462.646 6250.39 Q458.062 6258.29 456.025 6267.71 Q453.734 6276.87 453.734 6288.08 Q453.734 6327.8 479.706 6349.19 Q505.423 6370.32 553.803 6370.32 L704.033 6370.32 L704.033 6417.43 L418.85 6417.43 L418.85 6370.32 L463.155 6370.32 Q437.183 6355.55 424.706 6331.87 Q411.975 6308.19 411.975 6274.33 Q411.975 6269.49 412.739 6263.63 Q413.248 6257.78 414.521 6250.65 L462.646 6250.39 Z" fill="#000000" fill-rule="evenodd" fill-opacity="1" /><path clip-path="url(#clip6600)" d="M 0 0 M323.873 6156.94 L465.192 6156.94 L465.192 6200.23 L323.873 6200.23 L323.873 6156.94 Z" fill="#000000" fill-rule="evenodd" fill-opacity="1" /><path clip-path="url(#clip6600)" d="M 0 0 M427.252 5926 L471.558 5926 Q461.373 5945.86 456.28 5967.25 Q451.187 5988.63 451.187 6011.55 Q451.187 6046.44 461.882 6064 Q472.576 6081.32 493.965 6081.32 Q510.261 6081.32 519.682 6068.84 Q528.849 6056.37 537.252 6018.68 L540.817 6002.64 Q551.511 5952.73 571.117 5931.85 Q590.469 5910.72 625.353 5910.72 Q665.075 5910.72 688.246 5942.29 Q711.417 5973.61 711.417 6028.61 Q711.417 6051.53 706.834 6076.48 Q702.505 6101.18 693.594 6128.68 L645.214 6128.68 Q658.709 6102.71 665.584 6077.5 Q672.205 6052.29 672.205 6027.59 Q672.205 5994.49 661.001 5976.67 Q649.543 5958.84 628.918 5958.84 Q609.821 5958.84 599.636 5971.83 Q589.451 5984.56 580.029 6028.1 L576.21 6044.4 Q567.043 6087.94 548.201 6107.29 Q529.104 6126.64 496.002 6126.64 Q455.771 6126.64 433.873 6098.12 Q411.975 6069.61 411.975 6017.15 Q411.975 5991.18 415.794 5968.26 Q419.613 5945.35 427.252 5926 Z" fill="#000000" fill-rule="evenodd" fill-opacity="1" /><path clip-path="url(#clip6600)" d="M 0 0 M462.646 5530.56 Q458.062 5538.45 456.025 5547.87 Q453.734 5557.04 453.734 5568.24 Q453.734 5607.97 479.706 5629.35 Q505.423 5650.49 553.803 5650.49 L704.033 5650.49 L704.033 5697.59 L418.85 5697.59 L418.85 5650.49 L463.155 5650.49 Q437.183 5635.72 424.706 5612.04 Q411.975 5588.36 411.975 5554.49 Q411.975 5549.66 412.739 5543.8 Q413.248 5537.94 414.521 5530.81 L462.646 5530.56 Z" fill="#000000" fill-rule="evenodd" fill-opacity="1" /><path clip-path="url(#clip6600)" d="M 0 0 M560.678 5351.81 Q560.678 5408.59 573.664 5430.49 Q586.65 5452.39 617.969 5452.39 Q642.922 5452.39 657.691 5436.09 Q672.205 5419.54 672.205 5391.28 Q672.205 5352.32 644.705 5328.89 Q616.95 5305.21 571.117 5305.21 L560.678 5305.21 L560.678 5351.81 M541.326 5258.36 L704.033 5258.36 L704.033 5305.21 L660.746 5305.21 Q686.719 5321.25 699.195 5345.19 Q711.417 5369.12 711.417 5403.75 Q711.417 5447.55 686.973 5473.52 Q662.274 5499.24 621.024 5499.24 Q572.9 5499.24 548.455 5467.16 Q524.011 5434.82 524.011 5370.91 L524.011 5305.21 L519.428 5305.21 Q487.09 5305.21 469.521 5326.6 Q451.697 5347.74 451.697 5386.18 Q451.697 5410.63 457.553 5433.8 Q463.41 5456.97 475.122 5478.36 L431.836 5478.36 Q421.905 5452.64 417.067 5428.45 Q411.975 5404.26 411.975 5381.35 Q411.975 5319.47 444.058 5288.92 Q476.141 5258.36 541.326 5258.36 Z" fill="#000000" fill-rule="evenodd" fill-opacity="1" /><path clip-path="url(#clip6600)" d="M 0 0 M337.878 5162.87 L418.85 5162.87 L418.85 5066.37 L455.261 5066.37 L455.261 5162.87 L610.075 5162.87 Q644.96 5162.87 654.89 5153.45 Q664.821 5143.78 664.821 5114.5 L664.821 5066.37 L704.033 5066.37 L704.033 5114.5 Q704.033 5168.73 683.918 5189.36 Q663.547 5209.98 610.075 5209.98 L455.261 5209.98 L455.261 5244.36 L418.85 5244.36 L418.85 5209.98 L337.878 5209.98 L337.878 5162.87 Z" fill="#000000" fill-rule="evenodd" fill-opacity="1" /><path clip-path="url(#clip6600)" d="M 0 0 M418.85 5017.23 L418.85 4970.38 L704.033 4970.38 L704.033 5017.23 L418.85 5017.23 M307.832 5017.23 L307.832 4970.38 L367.16 4970.38 L367.16 5017.23 L307.832 5017.23 Z" fill="#000000" fill-rule="evenodd" fill-opacity="1" /><path clip-path="url(#clip6600)" d="M 0 0 M451.697 4810.72 Q451.697 4848.41 481.234 4870.31 Q510.516 4892.21 561.696 4892.21 Q612.876 4892.21 642.413 4870.56 Q671.695 4848.66 671.695 4810.72 Q671.695 4773.29 642.159 4751.4 Q612.622 4729.5 561.696 4729.5 Q511.025 4729.5 481.488 4751.4 Q451.697 4773.29 451.697 4810.72 M411.975 4810.72 Q411.975 4749.61 451.697 4714.73 Q491.419 4679.85 561.696 4679.85 Q631.719 4679.85 671.695 4714.73 Q711.417 4749.61 711.417 4810.72 Q711.417 4872.09 671.695 4906.97 Q631.719 4941.6 561.696 4941.6 Q491.419 4941.6 451.697 4906.97 Q411.975 4872.09 411.975 4810.72 Z" fill="#000000" fill-rule="evenodd" fill-opacity="1" /><polyline clip-path="url(#clip6602)" style="stroke:#009af9; stroke-width:32; stroke-opacity:1; fill:none" points="
  2596.34,2358.97 2917.83,2451.3 3239.32,2297.37 3560.81,2019.61 3882.31,2366.97 4203.8,2483.93 4525.29,2385.48 4846.78,2560.67 5168.27,2773.41 5489.77,1979.82 
  5811.26,3153.88 6132.75,3132.82 6454.24,3312.69 6775.73,3747.42 7097.23,2678.12 7418.72,2933.27 7740.21,3426.51 8061.7,3189.64 8383.2,3912.39 8704.69,3508.79 
  9026.18,3812.23 9347.67,3187.24 9669.16,3708.3 9990.66,3497.81 10312.1,3837.2 10633.6,3956.6 10955.1,3060.31 11276.6,3603.42 11598.1,4418.35 11919.6,4461.97 
  12241.1,4619.3 12562.6,4494.41 12884.1,4797.78 13205.6,4410.94 13527.1,4288.06 13848.6,4912.25 14170.1,4539.91 14491.5,4523.22 14813,4939.9 15134.5,4804.58 
  15456,5239.21 15777.5,5021.75 16099,5847.98 16420.5,4937.45 16742,5313.38 17063.5,5160.28 17385,7663.81 17706.5,5507.13 18028,7351.26 18349.5,6233.66 
  
  "/>
<polyline clip-path="url(#clip6602)" style="stroke:#e26f46; stroke-width:32; stroke-opacity:1; fill:none" points="
  2596.34,1970.61 2917.83,2242.34 3239.32,1935.24 3560.81,1512.1 3882.31,1650.1 4203.8,2318.24 4525.29,2577.88 4846.78,2294.52 5168.27,2426.66 5489.77,2047.47 
  5811.26,2673.25 6132.75,3331.66 6454.24,3023.58 6775.73,3069.46 7097.23,3140.21 7418.72,2511.42 7740.21,3808.96 8061.7,2764.68 8383.2,3443.13 8704.69,3309.56 
  9026.18,3786.29 9347.67,3686.77 9669.16,3837.3 9990.66,4014.23 10312.1,3813.44 10633.6,4647.12 10955.1,5048.79 11276.6,4448.79 11598.1,5169.44 11919.6,4617.39 
  12241.1,3937.78 12562.6,5914.11 12884.1,5603.42 13205.6,6556.03 13527.1,4931.8 13848.6,5219.33 14170.1,5733.85 14491.5,8709.83 14813,5351.99 15134.5,6054.45 
  15456,5949.15 15777.5,7720.35 16099,7059.76 16420.5,8584.38 16742,6673.42 17063.5,7845.5 17385,8622.98 17706.5,8025.19 18028,7545.07 18349.5,9775.13 
  
  "/>
<polyline clip-path="url(#clip6602)" style="stroke:#3da44d; stroke-width:32; stroke-opacity:1; fill:none" points="
  2596.34,1282.8 2917.83,1282.05 3239.32,1671.49 3560.81,1366.49 3882.31,1446.42 4203.8,1839.85 4525.29,1667.95 4846.78,2100.38 5168.27,2336.22 5489.77,2340.54 
  5811.26,1466.18 6132.75,2601.4 6454.24,2148.38 6775.73,3389.71 7097.23,2105.4 7418.72,3890.1 7740.21,2892.78 8061.7,2602.49 8383.2,3177.86 8704.69,2917.23 
  9026.18,4090.11 9347.67,3592.51 9669.16,3208.67 9990.66,3462.44 10312.1,6080.32 10633.6,4209.04 10955.1,3962.7 11276.6,4505.39 11598.1,3588.64 11919.6,5831.36 
  12241.1,5481.79 12562.6,6019.21 12884.1,6095.71 13205.6,6951.79 13527.1,6969.8 13848.6,5486.98 14170.1,6566.52 14491.5,7088.67 14813,6911.65 15134.5,9122.02 
  15456,7907.89 15777.5,9626.41 16099,7837.81 16420.5,10162.5 16742,7366.16 17063.5,10423.6 17385,8998.72 17706.5,10770.7 18028,10963.9 18349.5,11091.2 
  
  "/>
<path clip-path="url(#clip6600)" d="
M2699.74 10233.4 L5732.89 10233.4 L5732.89 8298.08 L2699.74 8298.08  Z
  " fill="#ffffff" fill-rule="evenodd" fill-opacity="1"/>
<polyline clip-path="url(#clip6600)" style="stroke:#000000; stroke-width:32; stroke-opacity:1; fill:none" points="
  2699.74,10233.4 5732.89,10233.4 5732.89,8298.08 2699.74,8298.08 2699.74,10233.4 
  "/>
<polyline clip-path="url(#clip6600)" style="stroke:#009af9; stroke-width:32; stroke-opacity:1; fill:none" points="
  2891.74,8781.92 4043.74,8781.92 
  "/>
<path clip-path="url(#clip6600)" d="M 0 0 M4235.74 8643.68 L4273.15 8643.68 L4273.15 8888.68 L4407.78 8888.68 L4407.78 8920.16 L4235.74 8920.16 L4235.74 8643.68 Z" fill="#000000" fill-rule="evenodd" fill-opacity="1" /><path clip-path="url(#clip6600)" d="M 0 0 M4568.52 8747.94 L4805.93 8747.94 L4805.93 8779.05 L4568.52 8779.05 L4568.52 8747.94 M4568.52 8823.49 L4805.93 8823.49 L4805.93 8854.97 L4568.52 8854.97 L4568.52 8823.49 Z" fill="#000000" fill-rule="evenodd" fill-opacity="1" /><path clip-path="url(#clip6600)" d="M 0 0 M5051.66 8767.01 Q5026.48 8767.01 5011.66 8784.23 Q4997.04 8801.46 4997.04 8831.46 Q4997.04 8861.27 5011.66 8878.68 Q5026.48 8895.9 5051.66 8895.9 Q5076.85 8895.9 5091.48 8878.68 Q5106.29 8861.27 5106.29 8831.46 Q5106.29 8801.46 5091.48 8784.23 Q5076.85 8767.01 5051.66 8767.01 M5125.92 8649.79 L5125.92 8683.86 Q5111.85 8677.2 5097.41 8673.68 Q5083.15 8670.16 5069.07 8670.16 Q5032.04 8670.16 5012.41 8695.16 Q4992.96 8720.16 4990.18 8770.72 Q5001.11 8754.6 5017.59 8746.09 Q5034.07 8737.38 5053.89 8737.38 Q5095.55 8737.38 5119.63 8762.75 Q5143.89 8787.94 5143.89 8831.46 Q5143.89 8874.05 5118.7 8899.79 Q5093.52 8925.53 5051.66 8925.53 Q5003.7 8925.53 4978.33 8888.86 Q4952.96 8852.01 4952.96 8782.2 Q4952.96 8716.64 4984.07 8677.75 Q5015.18 8638.68 5067.59 8638.68 Q5081.66 8638.68 5095.92 8641.46 Q5110.37 8644.23 5125.92 8649.79 Z" fill="#000000" fill-rule="evenodd" fill-opacity="1" /><polyline clip-path="url(#clip6600)" style="stroke:#e26f46; stroke-width:32; stroke-opacity:1; fill:none" points="
  2891.74,9265.76 4043.74,9265.76 
  "/>
<path clip-path="url(#clip6600)" d="M 0 0 M4235.74 9127.52 L4273.15 9127.52 L4273.15 9372.52 L4407.78 9372.52 L4407.78 9404 L4235.74 9404 L4235.74 9127.52 Z" fill="#000000" fill-rule="evenodd" fill-opacity="1" /><path clip-path="url(#clip6600)" d="M 0 0 M4568.52 9231.78 L4805.93 9231.78 L4805.93 9262.89 L4568.52 9262.89 L4568.52 9231.78 M4568.52 9307.33 L4805.93 9307.33 L4805.93 9338.81 L4568.52 9338.81 L4568.52 9307.33 Z" fill="#000000" fill-rule="evenodd" fill-opacity="1" /><path clip-path="url(#clip6600)" d="M 0 0 M5047.03 9272.7 Q5020.37 9272.7 5005 9286.96 Q4989.81 9301.22 4989.81 9326.22 Q4989.81 9351.22 5005 9365.48 Q5020.37 9379.74 5047.03 9379.74 Q5073.7 9379.74 5089.07 9365.48 Q5104.44 9351.04 5104.44 9326.22 Q5104.44 9301.22 5089.07 9286.96 Q5073.89 9272.7 5047.03 9272.7 M5009.63 9256.78 Q4985.55 9250.85 4972.04 9234.37 Q4958.7 9217.89 4958.7 9194.19 Q4958.7 9161.04 4982.22 9141.78 Q5005.92 9122.52 5047.03 9122.52 Q5088.33 9122.52 5111.85 9141.78 Q5135.37 9161.04 5135.37 9194.19 Q5135.37 9217.89 5121.85 9234.37 Q5108.52 9250.85 5084.63 9256.78 Q5111.66 9263.07 5126.66 9281.41 Q5141.85 9299.74 5141.85 9326.22 Q5141.85 9366.41 5117.22 9387.89 Q5092.78 9409.37 5047.03 9409.37 Q5001.29 9409.37 4976.66 9387.89 Q4952.22 9366.41 4952.22 9326.22 Q4952.22 9299.74 4967.41 9281.41 Q4982.59 9263.07 5009.63 9256.78 M4995.92 9197.7 Q4995.92 9219.18 5009.26 9231.22 Q5022.78 9243.26 5047.03 9243.26 Q5071.11 9243.26 5084.63 9231.22 Q5098.33 9219.18 5098.33 9197.7 Q5098.33 9176.22 5084.63 9164.19 Q5071.11 9152.15 5047.03 9152.15 Q5022.78 9152.15 5009.26 9164.19 Q4995.92 9176.22 4995.92 9197.7 Z" fill="#000000" fill-rule="evenodd" fill-opacity="1" /><polyline clip-path="url(#clip6600)" style="stroke:#3da44d; stroke-width:32; stroke-opacity:1; fill:none" points="
  2891.74,9749.6 4043.74,9749.6 
  "/>
<path clip-path="url(#clip6600)" d="M 0 0 M4235.74 9611.36 L4273.15 9611.36 L4273.15 9856.36 L4407.78 9856.36 L4407.78 9887.84 L4235.74 9887.84 L4235.74 9611.36 Z" fill="#000000" fill-rule="evenodd" fill-opacity="1" /><path clip-path="url(#clip6600)" d="M 0 0 M4568.52 9715.62 L4805.93 9715.62 L4805.93 9746.73 L4568.52 9746.73 L4568.52 9715.62 M4568.52 9791.17 L4805.93 9791.17 L4805.93 9822.65 L4568.52 9822.65 L4568.52 9791.17 Z" fill="#000000" fill-rule="evenodd" fill-opacity="1" /><path clip-path="url(#clip6600)" d="M 0 0 M4973.52 9856.36 L5034.63 9856.36 L5034.63 9645.43 L4968.15 9658.77 L4968.15 9624.69 L5034.26 9611.36 L5071.66 9611.36 L5071.66 9856.36 L5132.78 9856.36 L5132.78 9887.84 L4973.52 9887.84 L4973.52 9856.36 Z" fill="#000000" fill-rule="evenodd" fill-opacity="1" /><path clip-path="url(#clip6600)" d="M 0 0 M5253.33 9635.99 Q5224.44 9635.99 5209.81 9664.51 Q5195.37 9692.84 5195.37 9749.88 Q5195.37 9806.73 5209.81 9835.25 Q5224.44 9863.58 5253.33 9863.58 Q5282.4 9863.58 5296.85 9835.25 Q5311.48 9806.73 5311.48 9749.88 Q5311.48 9692.84 5296.85 9664.51 Q5282.4 9635.99 5253.33 9635.99 M5253.33 9606.36 Q5299.81 9606.36 5324.26 9643.21 Q5348.89 9679.88 5348.89 9749.88 Q5348.89 9819.69 5324.26 9856.54 Q5299.81 9893.21 5253.33 9893.21 Q5206.85 9893.21 5182.22 9856.54 Q5157.78 9819.69 5157.78 9749.88 Q5157.78 9679.88 5182.22 9643.21 Q5206.85 9606.36 5253.33 9606.36 Z" fill="#000000" fill-rule="evenodd" fill-opacity="1" /></svg>
