<?xml version="1.0" encoding="utf-8"?>
<svg xmlns="http://www.w3.org/2000/svg" xmlns:xlink="http://www.w3.org/1999/xlink" width="4800" height="3200" viewBox="0 0 19200 12800">
<defs>
  <clipPath id="clip5000">
    <rect x="0" y="0" width="19200" height="12800"/>
  </clipPath>
</defs>
<path clip-path="url(#clip5000)" d="
M0 12800 L19200 12800 L19200 0 L0 0  Z
  " fill="#ffffff" fill-rule="evenodd" fill-opacity="1"/>
<defs>
  <clipPath id="clip5001">
    <rect x="3840" y="0" width="13441" height="12800"/>
  </clipPath>
</defs>
<path clip-path="url(#clip5000)" d="
M1910.23 11385.4 L18822 11385.4 L18822 987.777 L1910.23 987.777  Z
  " fill="#ffffff" fill-rule="evenodd" fill-opacity="1"/>
<defs>
  <clipPath id="clip5002">
    <rect x="1910" y="987" width="16913" height="10399"/>
  </clipPath>
</defs>
<polyline clip-path="url(#clip5002)" style="stroke:#000000; stroke-width:16; stroke-opacity:0.1; fill:none" points="
  3984.32,11385.4 3984.32,987.777 
  "/>
<polyline clip-path="url(#clip5002)" style="stroke:#000000; stroke-width:16; stroke-opacity:0.1; fill:none" points="
  8770.68,11385.4 8770.68,987.777 
  "/>
<polyline clip-path="url(#clip5002)" style="stroke:#000000; stroke-width:16; stroke-opacity:0.1; fill:none" points="
  13557,11385.4 13557,987.777 
  "/>
<polyline clip-path="url(#clip5002)" style="stroke:#000000; stroke-width:16; stroke-opacity:0.1; fill:none" points="
  18343.4,11385.4 18343.4,987.777 
  "/>
<polyline clip-path="url(#clip5002)" style="stroke:#000000; stroke-width:16; stroke-opacity:0.1; fill:none" points="
  1910.23,11263.3 18822,11263.3 
  "/>
<polyline clip-path="url(#clip5002)" style="stroke:#000000; stroke-width:16; stroke-opacity:0.1; fill:none" points="
  1910.23,9580.91 18822,9580.91 
  "/>
<polyline clip-path="url(#clip5002)" style="stroke:#000000; stroke-width:16; stroke-opacity:0.1; fill:none" points="
  1910.23,7898.49 18822,7898.49 
  "/>
<polyline clip-path="url(#clip5002)" style="stroke:#000000; stroke-width:16; stroke-opacity:0.1; fill:none" points="
  1910.23,6216.08 18822,6216.08 
  "/>
<polyline clip-path="url(#clip5002)" style="stroke:#000000; stroke-width:16; stroke-opacity:0.1; fill:none" points="
  1910.23,4533.66 18822,4533.66 
  "/>
<polyline clip-path="url(#clip5002)" style="stroke:#000000; stroke-width:16; stroke-opacity:0.1; fill:none" points="
  1910.23,2851.25 18822,2851.25 
  "/>
<polyline clip-path="url(#clip5002)" style="stroke:#000000; stroke-width:16; stroke-opacity:0.1; fill:none" points="
  1910.23,1168.83 18822,1168.83 
  "/>
<polyline clip-path="url(#clip5000)" style="stroke:#000000; stroke-width:32; stroke-opacity:1; fill:none" points="
  1910.23,11385.4 18822,11385.4 
  "/>
<polyline clip-path="url(#clip5000)" style="stroke:#000000; stroke-width:32; stroke-opacity:1; fill:none" points="
  1910.23,11385.4 1910.23,987.777 
  "/>
<polyline clip-path="url(#clip5000)" style="stroke:#000000; stroke-width:32; stroke-opacity:1; fill:none" points="
  3984.32,11385.4 3984.32,11260.7 
  "/>
<polyline clip-path="url(#clip5000)" style="stroke:#000000; stroke-width:32; stroke-opacity:1; fill:none" points="
  8770.68,11385.4 8770.68,11260.7 
  "/>
<polyline clip-path="url(#clip5000)" style="stroke:#000000; stroke-width:32; stroke-opacity:1; fill:none" points="
  13557,11385.4 13557,11260.7 
  "/>
<polyline clip-path="url(#clip5000)" style="stroke:#000000; stroke-width:32; stroke-opacity:1; fill:none" points="
  18343.4,11385.4 18343.4,11260.7 
  "/>
<polyline clip-path="url(#clip5000)" style="stroke:#000000; stroke-width:32; stroke-opacity:1; fill:none" points="
  1910.23,11263.3 2113.17,11263.3 
  "/>
<polyline clip-path="url(#clip5000)" style="stroke:#000000; stroke-width:32; stroke-opacity:1; fill:none" points="
  1910.23,9580.91 2113.17,9580.91 
  "/>
<polyline clip-path="url(#clip5000)" style="stroke:#000000; stroke-width:32; stroke-opacity:1; fill:none" points="
  1910.23,7898.49 2113.17,7898.49 
  "/>
<polyline clip-path="url(#clip5000)" style="stroke:#000000; stroke-width:32; stroke-opacity:1; fill:none" points="
  1910.23,6216.08 2113.17,6216.08 
  "/>
<polyline clip-path="url(#clip5000)" style="stroke:#000000; stroke-width:32; stroke-opacity:1; fill:none" points="
  1910.23,4533.66 2113.17,4533.66 
  "/>
<polyline clip-path="url(#clip5000)" style="stroke:#000000; stroke-width:32; stroke-opacity:1; fill:none" points="
  1910.23,2851.25 2113.17,2851.25 
  "/>
<polyline clip-path="url(#clip5000)" style="stroke:#000000; stroke-width:32; stroke-opacity:1; fill:none" points="
  1910.23,1168.83 2113.17,1168.83 
  "/>
<path clip-path="url(#clip5000)" d="M 0 0 M3629.97 11561.4 Q3601.08 11561.4 3586.45 11589.9 Q3572 11618.2 3572 11675.3 Q3572 11732.1 3586.45 11760.6 Q3601.08 11789 3629.97 11789 Q3659.04 11789 3673.49 11760.6 Q3688.11 11732.1 3688.11 11675.3 Q3688.11 11618.2 3673.49 11589.9 Q3659.04 11561.4 3629.97 11561.4 M3629.97 11531.7 Q3676.45 11531.7 3700.89 11568.6 Q3725.52 11605.3 3725.52 11675.3 Q3725.52 11745.1 3700.89 11781.9 Q3676.45 11818.6 3629.97 11818.6 Q3583.49 11818.6 3558.86 11781.9 Q3534.41 11745.1 3534.41 11675.3 Q3534.41 11605.3 3558.86 11568.6 Q3583.49 11531.7 3629.97 11531.7 Z" fill="#000000" fill-rule="evenodd" fill-opacity="1" /><path clip-path="url(#clip5000)" d="M 0 0 M3766.08 11766.2 L3805.15 11766.2 L3805.15 11813.2 L3766.08 11813.2 L3766.08 11766.2 Z" fill="#000000" fill-rule="evenodd" fill-opacity="1" /><path clip-path="url(#clip5000)" d="M 0 0 M3846.08 11536.7 L3992.93 11536.7 L3992.93 11568.2 L3880.34 11568.2 L3880.34 11636 Q3888.48 11633.2 3896.63 11631.9 Q3904.78 11630.4 3912.93 11630.4 Q3959.22 11630.4 3986.26 11655.8 Q4013.3 11681.2 4013.3 11724.5 Q4013.3 11769.1 3985.52 11794 Q3957.74 11818.6 3907.19 11818.6 Q3889.78 11818.6 3871.63 11815.6 Q3853.67 11812.7 3834.41 11806.7 L3834.41 11769.1 Q3851.08 11778.2 3868.85 11782.7 Q3886.63 11787.1 3906.45 11787.1 Q3938.48 11787.1 3957.19 11770.3 Q3975.89 11753.4 3975.89 11724.5 Q3975.89 11695.6 3957.19 11678.8 Q3938.48 11661.9 3906.45 11661.9 Q3891.45 11661.9 3876.45 11665.3 Q3861.63 11668.6 3846.08 11675.6 L3846.08 11536.7 Z" fill="#000000" fill-rule="evenodd" fill-opacity="1" /><path clip-path="url(#clip5000)" d="M 0 0 M4054.96 11807.5 L4054.96 11773.4 Q4069.04 11780.1 4083.48 11783.6 Q4097.93 11787.1 4111.82 11787.1 Q4148.85 11787.1 4168.3 11762.3 Q4187.93 11737.3 4190.7 11686.5 Q4179.96 11702.5 4163.48 11711 Q4147 11719.5 4127 11719.5 Q4085.52 11719.5 4061.26 11694.5 Q4037.19 11669.3 4037.19 11625.8 Q4037.19 11583.2 4062.37 11557.5 Q4087.56 11531.7 4129.41 11531.7 Q4177.37 11531.7 4202.56 11568.6 Q4227.93 11605.3 4227.93 11675.3 Q4227.93 11740.6 4196.82 11779.7 Q4165.89 11818.6 4113.48 11818.6 Q4099.41 11818.6 4084.96 11815.8 Q4070.52 11813 4054.96 11807.5 M4129.41 11690.3 Q4154.59 11690.3 4169.22 11673 Q4184.04 11655.8 4184.04 11625.8 Q4184.04 11596 4169.22 11578.8 Q4154.59 11561.4 4129.41 11561.4 Q4104.22 11561.4 4089.41 11578.8 Q4074.78 11596 4074.78 11625.8 Q4074.78 11655.8 4089.41 11673 Q4104.22 11690.3 4129.41 11690.3 Z" fill="#000000" fill-rule="evenodd" fill-opacity="1" /><path clip-path="url(#clip5000)" d="M 0 0 M4274.96 11781.7 L4336.07 11781.7 L4336.07 11570.8 L4269.59 11584.1 L4269.59 11550.1 L4335.7 11536.7 L4373.11 11536.7 L4373.11 11781.7 L4434.22 11781.7 L4434.22 11813.2 L4274.96 11813.2 L4274.96 11781.7 Z" fill="#000000" fill-rule="evenodd" fill-opacity="1" /><path clip-path="url(#clip5000)" d="M 0 0 M8409.48 11561.4 Q8380.59 11561.4 8365.96 11589.9 Q8351.52 11618.2 8351.52 11675.3 Q8351.52 11732.1 8365.96 11760.6 Q8380.59 11789 8409.48 11789 Q8438.55 11789 8453 11760.6 Q8467.63 11732.1 8467.63 11675.3 Q8467.63 11618.2 8453 11589.9 Q8438.55 11561.4 8409.48 11561.4 M8409.48 11531.7 Q8455.96 11531.7 8480.41 11568.6 Q8505.03 11605.3 8505.03 11675.3 Q8505.03 11745.1 8480.41 11781.9 Q8455.96 11818.6 8409.48 11818.6 Q8363 11818.6 8338.37 11781.9 Q8313.92 11745.1 8313.92 11675.3 Q8313.92 11605.3 8338.37 11568.6 Q8363 11531.7 8409.48 11531.7 Z" fill="#000000" fill-rule="evenodd" fill-opacity="1" /><path clip-path="url(#clip5000)" d="M 0 0 M8545.59 11766.2 L8584.66 11766.2 L8584.66 11813.2 L8545.59 11813.2 L8545.59 11766.2 Z" fill="#000000" fill-rule="evenodd" fill-opacity="1" /><path clip-path="url(#clip5000)" d="M 0 0 M8625.59 11536.7 L8772.44 11536.7 L8772.44 11568.2 L8659.85 11568.2 L8659.85 11636 Q8668 11633.2 8676.15 11631.9 Q8684.29 11630.4 8692.44 11630.4 Q8738.74 11630.4 8765.77 11655.8 Q8792.81 11681.2 8792.81 11724.5 Q8792.81 11769.1 8765.03 11794 Q8737.26 11818.6 8686.7 11818.6 Q8669.29 11818.6 8651.15 11815.6 Q8633.18 11812.7 8613.92 11806.7 L8613.92 11769.1 Q8630.59 11778.2 8648.37 11782.7 Q8666.15 11787.1 8685.96 11787.1 Q8718 11787.1 8736.7 11770.3 Q8755.4 11753.4 8755.4 11724.5 Q8755.4 11695.6 8736.7 11678.8 Q8718 11661.9 8685.96 11661.9 Q8670.96 11661.9 8655.96 11665.3 Q8641.15 11668.6 8625.59 11675.6 L8625.59 11536.7 Z" fill="#000000" fill-rule="evenodd" fill-opacity="1" /><path clip-path="url(#clip5000)" d="M 0 0 M8834.48 11807.5 L8834.48 11773.4 Q8848.55 11780.1 8863 11783.6 Q8877.44 11787.1 8891.33 11787.1 Q8928.37 11787.1 8947.81 11762.3 Q8967.44 11737.3 8970.22 11686.5 Q8959.48 11702.5 8943 11711 Q8926.51 11719.5 8906.51 11719.5 Q8865.03 11719.5 8840.77 11694.5 Q8816.7 11669.3 8816.7 11625.8 Q8816.7 11583.2 8841.88 11557.5 Q8867.07 11531.7 8908.92 11531.7 Q8956.88 11531.7 8982.07 11568.6 Q9007.44 11605.3 9007.44 11675.3 Q9007.44 11740.6 8976.33 11779.7 Q8945.4 11818.6 8893 11818.6 Q8878.92 11818.6 8864.48 11815.8 Q8850.03 11813 8834.48 11807.5 M8908.92 11690.3 Q8934.11 11690.3 8948.74 11673 Q8963.55 11655.8 8963.55 11625.8 Q8963.55 11596 8948.74 11578.8 Q8934.11 11561.4 8908.92 11561.4 Q8883.74 11561.4 8868.92 11578.8 Q8854.29 11596 8854.29 11625.8 Q8854.29 11655.8 8868.92 11673 Q8883.74 11690.3 8908.92 11690.3 Z" fill="#000000" fill-rule="evenodd" fill-opacity="1" /><path clip-path="url(#clip5000)" d="M 0 0 M9150.77 11569.3 L9056.33 11716.9 L9150.77 11716.9 L9150.77 11569.3 M9140.96 11536.7 L9187.99 11536.7 L9187.99 11716.9 L9227.44 11716.9 L9227.44 11748 L9187.99 11748 L9187.99 11813.2 L9150.77 11813.2 L9150.77 11748 L9025.96 11748 L9025.96 11711.9 L9140.96 11536.7 Z" fill="#000000" fill-rule="evenodd" fill-opacity="1" /><path clip-path="url(#clip5000)" d="M 0 0 M13201.4 11561.4 Q13172.5 11561.4 13157.9 11589.9 Q13143.4 11618.2 13143.4 11675.3 Q13143.4 11732.1 13157.9 11760.6 Q13172.5 11789 13201.4 11789 Q13230.5 11789 13244.9 11760.6 Q13259.5 11732.1 13259.5 11675.3 Q13259.5 11618.2 13244.9 11589.9 Q13230.5 11561.4 13201.4 11561.4 M13201.4 11531.7 Q13247.9 11531.7 13272.3 11568.6 Q13297 11605.3 13297 11675.3 Q13297 11745.1 13272.3 11781.9 Q13247.9 11818.6 13201.4 11818.6 Q13154.9 11818.6 13130.3 11781.9 Q13105.8 11745.1 13105.8 11675.3 Q13105.8 11605.3 13130.3 11568.6 Q13154.9 11531.7 13201.4 11531.7 Z" fill="#000000" fill-rule="evenodd" fill-opacity="1" /><path clip-path="url(#clip5000)" d="M 0 0 M13337.5 11766.2 L13376.6 11766.2 L13376.6 11813.2 L13337.5 11813.2 L13337.5 11766.2 Z" fill="#000000" fill-rule="evenodd" fill-opacity="1" /><path clip-path="url(#clip5000)" d="M 0 0 M13417.5 11536.7 L13564.4 11536.7 L13564.4 11568.2 L13451.8 11568.2 L13451.8 11636 Q13459.9 11633.2 13468.1 11631.9 Q13476.2 11630.4 13484.4 11630.4 Q13530.7 11630.4 13557.7 11655.8 Q13584.7 11681.2 13584.7 11724.5 Q13584.7 11769.1 13557 11794 Q13529.2 11818.6 13478.6 11818.6 Q13461.2 11818.6 13443.1 11815.6 Q13425.1 11812.7 13405.8 11806.7 L13405.8 11769.1 Q13422.5 11778.2 13440.3 11782.7 Q13458.1 11787.1 13477.9 11787.1 Q13509.9 11787.1 13528.6 11770.3 Q13547.3 11753.4 13547.3 11724.5 Q13547.3 11695.6 13528.6 11678.8 Q13509.9 11661.9 13477.9 11661.9 Q13462.9 11661.9 13447.9 11665.3 Q13433.1 11668.6 13417.5 11675.6 L13417.5 11536.7 Z" fill="#000000" fill-rule="evenodd" fill-opacity="1" /><path clip-path="url(#clip5000)" d="M 0 0 M13626.4 11807.5 L13626.4 11773.4 Q13640.5 11780.1 13654.9 11783.6 Q13669.4 11787.1 13683.2 11787.1 Q13720.3 11787.1 13739.7 11762.3 Q13759.4 11737.3 13762.1 11686.5 Q13751.4 11702.5 13734.9 11711 Q13718.4 11719.5 13698.4 11719.5 Q13657 11719.5 13632.7 11694.5 Q13608.6 11669.3 13608.6 11625.8 Q13608.6 11583.2 13633.8 11557.5 Q13659 11531.7 13700.8 11531.7 Q13748.8 11531.7 13774 11568.6 Q13799.4 11605.3 13799.4 11675.3 Q13799.4 11740.6 13768.2 11779.7 Q13737.3 11818.6 13684.9 11818.6 Q13670.8 11818.6 13656.4 11815.8 Q13642 11813 13626.4 11807.5 M13700.8 11690.3 Q13726 11690.3 13740.7 11673 Q13755.5 11655.8 13755.5 11625.8 Q13755.5 11596 13740.7 11578.8 Q13726 11561.4 13700.8 11561.4 Q13675.7 11561.4 13660.8 11578.8 Q13646.2 11596 13646.2 11625.8 Q13646.2 11655.8 13660.8 11673 Q13675.7 11690.3 13700.8 11690.3 Z" fill="#000000" fill-rule="evenodd" fill-opacity="1" /><path clip-path="url(#clip5000)" d="M 0 0 M13830.5 11536.7 L14008.2 11536.7 L14008.2 11552.7 L13907.9 11813.2 L13868.8 11813.2 L13963.2 11568.2 L13830.5 11568.2 L13830.5 11536.7 Z" fill="#000000" fill-rule="evenodd" fill-opacity="1" /><path clip-path="url(#clip5000)" d="M 0 0 M17978.8 11561.4 Q17949.9 11561.4 17935.3 11589.9 Q17920.8 11618.2 17920.8 11675.3 Q17920.8 11732.1 17935.3 11760.6 Q17949.9 11789 17978.8 11789 Q18007.9 11789 18022.3 11760.6 Q18036.9 11732.1 18036.9 11675.3 Q18036.9 11618.2 18022.3 11589.9 Q18007.9 11561.4 17978.8 11561.4 M17978.8 11531.7 Q18025.3 11531.7 18049.7 11568.6 Q18074.3 11605.3 18074.3 11675.3 Q18074.3 11745.1 18049.7 11781.9 Q18025.3 11818.6 17978.8 11818.6 Q17932.3 11818.6 17907.7 11781.9 Q17883.2 11745.1 17883.2 11675.3 Q17883.2 11605.3 17907.7 11568.6 Q17932.3 11531.7 17978.8 11531.7 Z" fill="#000000" fill-rule="evenodd" fill-opacity="1" /><path clip-path="url(#clip5000)" d="M 0 0 M18114.9 11766.2 L18154 11766.2 L18154 11813.2 L18114.9 11813.2 L18114.9 11766.2 Z" fill="#000000" fill-rule="evenodd" fill-opacity="1" /><path clip-path="url(#clip5000)" d="M 0 0 M18279.2 11660.1 Q18254 11660.1 18239.2 11677.3 Q18224.5 11694.5 18224.5 11724.5 Q18224.5 11754.3 18239.2 11771.7 Q18254 11789 18279.2 11789 Q18304.3 11789 18319 11771.7 Q18333.8 11754.3 18333.8 11724.5 Q18333.8 11694.5 18319 11677.3 Q18304.3 11660.1 18279.2 11660.1 M18353.4 11542.8 L18353.4 11576.9 Q18339.3 11570.3 18324.9 11566.7 Q18310.6 11563.2 18296.6 11563.2 Q18259.5 11563.2 18239.9 11588.2 Q18220.4 11613.2 18217.7 11663.8 Q18228.6 11647.7 18245.1 11639.1 Q18261.6 11630.4 18281.4 11630.4 Q18323 11630.4 18347.1 11655.8 Q18371.4 11681 18371.4 11724.5 Q18371.4 11767.1 18346.2 11792.8 Q18321 11818.6 18279.2 11818.6 Q18231.2 11818.6 18205.8 11781.9 Q18180.4 11745.1 18180.4 11675.3 Q18180.4 11609.7 18211.6 11570.8 Q18242.7 11531.7 18295.1 11531.7 Q18309.2 11531.7 18323.4 11534.5 Q18337.9 11537.3 18353.4 11542.8 Z" fill="#000000" fill-rule="evenodd" fill-opacity="1" /><path clip-path="url(#clip5000)" d="M 0 0 M18491.9 11561.4 Q18463 11561.4 18448.4 11589.9 Q18434 11618.2 18434 11675.3 Q18434 11732.1 18448.4 11760.6 Q18463 11789 18491.9 11789 Q18521 11789 18535.4 11760.6 Q18550.1 11732.1 18550.1 11675.3 Q18550.1 11618.2 18535.4 11589.9 Q18521 11561.4 18491.9 11561.4 M18491.9 11531.7 Q18538.4 11531.7 18562.9 11568.6 Q18587.5 11605.3 18587.5 11675.3 Q18587.5 11745.1 18562.9 11781.9 Q18538.4 11818.6 18491.9 11818.6 Q18445.4 11818.6 18420.8 11781.9 Q18396.4 11745.1 18396.4 11675.3 Q18396.4 11605.3 18420.8 11568.6 Q18445.4 11531.7 18491.9 11531.7 Z" fill="#000000" fill-rule="evenodd" fill-opacity="1" /><path clip-path="url(#clip5000)" d="M 0 0 M18708 11561.4 Q18679.1 11561.4 18664.5 11589.9 Q18650.1 11618.2 18650.1 11675.3 Q18650.1 11732.1 18664.5 11760.6 Q18679.1 11789 18708 11789 Q18737.1 11789 18751.6 11760.6 Q18766.2 11732.1 18766.2 11675.3 Q18766.2 11618.2 18751.6 11589.9 Q18737.1 11561.4 18708 11561.4 M18708 11531.7 Q18754.5 11531.7 18779 11568.6 Q18803.6 11605.3 18803.6 11675.3 Q18803.6 11745.1 18779 11781.9 Q18754.5 11818.6 18708 11818.6 Q18661.6 11818.6 18636.9 11781.9 Q18612.5 11745.1 18612.5 11675.3 Q18612.5 11605.3 18636.9 11568.6 Q18661.6 11531.7 18708 11531.7 Z" fill="#000000" fill-rule="evenodd" fill-opacity="1" /><path clip-path="url(#clip5000)" d="M 0 0 M1109.53 11149.7 Q1080.64 11149.7 1066.01 11178.2 Q1051.56 11206.6 1051.56 11263.6 Q1051.56 11320.5 1066.01 11349 Q1080.64 11377.3 1109.53 11377.3 Q1138.6 11377.3 1153.04 11349 Q1167.67 11320.5 1167.67 11263.6 Q1167.67 11206.6 1153.04 11178.2 Q1138.6 11149.7 1109.53 11149.7 M1109.53 11120.1 Q1156.01 11120.1 1180.45 11156.9 Q1205.08 11193.6 1205.08 11263.6 Q1205.08 11333.4 1180.45 11370.3 Q1156.01 11406.9 1109.53 11406.9 Q1063.04 11406.9 1038.41 11370.3 Q1013.97 11333.4 1013.97 11263.6 Q1013.97 11193.6 1038.41 11156.9 Q1063.04 11120.1 1109.53 11120.1 Z" fill="#000000" fill-rule="evenodd" fill-opacity="1" /><path clip-path="url(#clip5000)" d="M 0 0 M1245.64 11354.5 L1284.71 11354.5 L1284.71 11401.6 L1245.64 11401.6 L1245.64 11354.5 Z" fill="#000000" fill-rule="evenodd" fill-opacity="1" /><path clip-path="url(#clip5000)" d="M 0 0 M1409.89 11248.4 Q1384.71 11248.4 1369.89 11265.6 Q1355.26 11282.9 1355.26 11312.9 Q1355.26 11342.7 1369.89 11360.1 Q1384.71 11377.3 1409.89 11377.3 Q1435.08 11377.3 1449.71 11360.1 Q1464.52 11342.7 1464.52 11312.9 Q1464.52 11282.9 1449.71 11265.6 Q1435.08 11248.4 1409.89 11248.4 M1484.15 11131.2 L1484.15 11165.3 Q1470.08 11158.6 1455.63 11155.1 Q1441.38 11151.6 1427.3 11151.6 Q1390.26 11151.6 1370.63 11176.6 Q1351.19 11201.6 1348.41 11252.1 Q1359.34 11236 1375.82 11227.5 Q1392.3 11218.8 1412.12 11218.8 Q1453.78 11218.8 1477.86 11244.2 Q1502.12 11269.3 1502.12 11312.9 Q1502.12 11355.5 1476.93 11381.2 Q1451.75 11406.9 1409.89 11406.9 Q1361.93 11406.9 1336.56 11370.3 Q1311.19 11333.4 1311.19 11263.6 Q1311.19 11198 1342.3 11159.2 Q1373.41 11120.1 1425.82 11120.1 Q1439.89 11120.1 1454.15 11122.9 Q1468.6 11125.6 1484.15 11131.2 Z" fill="#000000" fill-rule="evenodd" fill-opacity="1" /><path clip-path="url(#clip5000)" d="M 0 0 M1622.67 11149.7 Q1593.78 11149.7 1579.15 11178.2 Q1564.71 11206.6 1564.71 11263.6 Q1564.71 11320.5 1579.15 11349 Q1593.78 11377.3 1622.67 11377.3 Q1651.74 11377.3 1666.19 11349 Q1680.82 11320.5 1680.82 11263.6 Q1680.82 11206.6 1666.19 11178.2 Q1651.74 11149.7 1622.67 11149.7 M1622.67 11120.1 Q1669.15 11120.1 1693.6 11156.9 Q1718.23 11193.6 1718.23 11263.6 Q1718.23 11333.4 1693.6 11370.3 Q1669.15 11406.9 1622.67 11406.9 Q1576.19 11406.9 1551.56 11370.3 Q1527.12 11333.4 1527.12 11263.6 Q1527.12 11193.6 1551.56 11156.9 Q1576.19 11120.1 1622.67 11120.1 Z" fill="#000000" fill-rule="evenodd" fill-opacity="1" /><path clip-path="url(#clip5000)" d="M 0 0 M1119.34 9467.3 Q1090.45 9467.3 1075.82 9495.82 Q1061.38 9524.15 1061.38 9581.19 Q1061.38 9638.04 1075.82 9666.56 Q1090.45 9694.89 1119.34 9694.89 Q1148.41 9694.89 1162.86 9666.56 Q1177.49 9638.04 1177.49 9581.19 Q1177.49 9524.15 1162.86 9495.82 Q1148.41 9467.3 1119.34 9467.3 M1119.34 9437.67 Q1165.82 9437.67 1190.27 9474.52 Q1214.89 9511.19 1214.89 9581.19 Q1214.89 9651 1190.27 9687.85 Q1165.82 9724.52 1119.34 9724.52 Q1072.86 9724.52 1048.23 9687.85 Q1023.78 9651 1023.78 9581.19 Q1023.78 9511.19 1048.23 9474.52 Q1072.86 9437.67 1119.34 9437.67 Z" fill="#000000" fill-rule="evenodd" fill-opacity="1" /><path clip-path="url(#clip5000)" d="M 0 0 M1255.45 9672.11 L1294.52 9672.11 L1294.52 9719.15 L1255.45 9719.15 L1255.45 9672.11 Z" fill="#000000" fill-rule="evenodd" fill-opacity="1" /><path clip-path="url(#clip5000)" d="M 0 0 M1419.71 9566 Q1394.52 9566 1379.71 9583.23 Q1365.08 9600.45 1365.08 9630.45 Q1365.08 9660.26 1379.71 9677.67 Q1394.52 9694.89 1419.71 9694.89 Q1444.89 9694.89 1459.52 9677.67 Q1474.34 9660.26 1474.34 9630.45 Q1474.34 9600.45 1459.52 9583.23 Q1444.89 9566 1419.71 9566 M1493.97 9448.78 L1493.97 9482.86 Q1479.89 9476.19 1465.45 9472.67 Q1451.19 9469.15 1437.12 9469.15 Q1400.08 9469.15 1380.45 9494.15 Q1361.01 9519.15 1358.23 9569.71 Q1369.15 9553.6 1385.63 9545.08 Q1402.12 9536.37 1421.93 9536.37 Q1463.6 9536.37 1487.67 9561.74 Q1511.93 9586.93 1511.93 9630.45 Q1511.93 9673.04 1486.75 9698.78 Q1461.56 9724.52 1419.71 9724.52 Q1371.75 9724.52 1346.38 9687.85 Q1321.01 9651 1321.01 9581.19 Q1321.01 9515.63 1352.12 9476.74 Q1383.23 9437.67 1435.63 9437.67 Q1449.71 9437.67 1463.97 9440.45 Q1478.41 9443.23 1493.97 9448.78 Z" fill="#000000" fill-rule="evenodd" fill-opacity="1" /><path clip-path="url(#clip5000)" d="M 0 0 M1558.97 9687.67 L1620.08 9687.67 L1620.08 9476.74 L1553.6 9490.08 L1553.6 9456 L1619.71 9442.67 L1657.11 9442.67 L1657.11 9687.67 L1718.23 9687.67 L1718.23 9719.15 L1558.97 9719.15 L1558.97 9687.67 Z" fill="#000000" fill-rule="evenodd" fill-opacity="1" /><path clip-path="url(#clip5000)" d="M 0 0 M1122.3 7784.88 Q1093.41 7784.88 1078.78 7813.4 Q1064.34 7841.74 1064.34 7898.77 Q1064.34 7955.62 1078.78 7984.14 Q1093.41 8012.48 1122.3 8012.48 Q1151.38 8012.48 1165.82 7984.14 Q1180.45 7955.62 1180.45 7898.77 Q1180.45 7841.74 1165.82 7813.4 Q1151.38 7784.88 1122.3 7784.88 M1122.3 7755.25 Q1168.78 7755.25 1193.23 7792.11 Q1217.86 7828.77 1217.86 7898.77 Q1217.86 7968.59 1193.23 8005.44 Q1168.78 8042.11 1122.3 8042.11 Q1075.82 8042.11 1051.19 8005.44 Q1026.75 7968.59 1026.75 7898.77 Q1026.75 7828.77 1051.19 7792.11 Q1075.82 7755.25 1122.3 7755.25 Z" fill="#000000" fill-rule="evenodd" fill-opacity="1" /><path clip-path="url(#clip5000)" d="M 0 0 M1258.41 7989.7 L1297.49 7989.7 L1297.49 8036.73 L1258.41 8036.73 L1258.41 7989.7 Z" fill="#000000" fill-rule="evenodd" fill-opacity="1" /><path clip-path="url(#clip5000)" d="M 0 0 M1422.67 7883.59 Q1397.49 7883.59 1382.67 7900.81 Q1368.04 7918.03 1368.04 7948.03 Q1368.04 7977.85 1382.67 7995.25 Q1397.49 8012.48 1422.67 8012.48 Q1447.86 8012.48 1462.49 7995.25 Q1477.3 7977.85 1477.3 7948.03 Q1477.3 7918.03 1462.49 7900.81 Q1447.86 7883.59 1422.67 7883.59 M1496.93 7766.37 L1496.93 7800.44 Q1482.86 7793.77 1468.41 7790.25 Q1454.15 7786.74 1440.08 7786.74 Q1403.04 7786.74 1383.41 7811.74 Q1363.97 7836.74 1361.19 7887.29 Q1372.12 7871.18 1388.6 7862.66 Q1405.08 7853.96 1424.89 7853.96 Q1466.56 7853.96 1490.63 7879.33 Q1514.89 7904.51 1514.89 7948.03 Q1514.89 7990.62 1489.71 8016.36 Q1464.52 8042.11 1422.67 8042.11 Q1374.71 8042.11 1349.34 8005.44 Q1323.97 7968.59 1323.97 7898.77 Q1323.97 7833.22 1355.08 7794.33 Q1386.19 7755.25 1438.6 7755.25 Q1452.67 7755.25 1466.93 7758.03 Q1481.38 7760.81 1496.93 7766.37 Z" fill="#000000" fill-rule="evenodd" fill-opacity="1" /><path clip-path="url(#clip5000)" d="M 0 0 M1587.67 8005.25 L1718.23 8005.25 L1718.23 8036.73 L1542.67 8036.73 L1542.67 8005.25 Q1563.97 7983.22 1600.63 7946.18 Q1637.49 7908.96 1646.93 7898.22 Q1664.89 7878.03 1671.93 7864.14 Q1679.15 7850.07 1679.15 7836.55 Q1679.15 7814.51 1663.6 7800.62 Q1648.23 7786.74 1623.41 7786.74 Q1605.82 7786.74 1586.19 7792.85 Q1566.74 7798.96 1544.52 7811.37 L1544.52 7773.59 Q1567.12 7764.51 1586.74 7759.88 Q1606.37 7755.25 1622.67 7755.25 Q1665.63 7755.25 1691.19 7776.74 Q1716.74 7798.22 1716.74 7834.14 Q1716.74 7851.18 1710.26 7866.55 Q1703.97 7881.74 1687.11 7902.48 Q1682.49 7907.85 1657.67 7933.59 Q1632.86 7959.14 1587.67 8005.25 Z" fill="#000000" fill-rule="evenodd" fill-opacity="1" /><path clip-path="url(#clip5000)" d="M 0 0 M1114.71 6102.47 Q1085.82 6102.47 1071.19 6130.99 Q1056.75 6159.32 1056.75 6216.36 Q1056.75 6273.21 1071.19 6301.73 Q1085.82 6330.06 1114.71 6330.06 Q1143.78 6330.06 1158.23 6301.73 Q1172.86 6273.21 1172.86 6216.36 Q1172.86 6159.32 1158.23 6130.99 Q1143.78 6102.47 1114.71 6102.47 M1114.71 6072.84 Q1161.19 6072.84 1185.64 6109.69 Q1210.27 6146.36 1210.27 6216.36 Q1210.27 6286.17 1185.64 6323.02 Q1161.19 6359.69 1114.71 6359.69 Q1068.23 6359.69 1043.6 6323.02 Q1019.16 6286.17 1019.16 6216.36 Q1019.16 6146.36 1043.6 6109.69 Q1068.23 6072.84 1114.71 6072.84 Z" fill="#000000" fill-rule="evenodd" fill-opacity="1" /><path clip-path="url(#clip5000)" d="M 0 0 M1250.82 6307.28 L1289.89 6307.28 L1289.89 6354.32 L1250.82 6354.32 L1250.82 6307.28 Z" fill="#000000" fill-rule="evenodd" fill-opacity="1" /><path clip-path="url(#clip5000)" d="M 0 0 M1415.08 6201.17 Q1389.89 6201.17 1375.08 6218.39 Q1360.45 6235.62 1360.45 6265.62 Q1360.45 6295.43 1375.08 6312.84 Q1389.89 6330.06 1415.08 6330.06 Q1440.26 6330.06 1454.89 6312.84 Q1469.71 6295.43 1469.71 6265.62 Q1469.71 6235.62 1454.89 6218.39 Q1440.26 6201.17 1415.08 6201.17 M1489.34 6083.95 L1489.34 6118.02 Q1475.26 6111.36 1460.82 6107.84 Q1446.56 6104.32 1432.49 6104.32 Q1395.45 6104.32 1375.82 6129.32 Q1356.38 6154.32 1353.6 6204.88 Q1364.52 6188.76 1381.01 6180.25 Q1397.49 6171.54 1417.3 6171.54 Q1458.97 6171.54 1483.04 6196.91 Q1507.3 6222.1 1507.3 6265.62 Q1507.3 6308.21 1482.12 6333.95 Q1456.93 6359.69 1415.08 6359.69 Q1367.12 6359.69 1341.75 6323.02 Q1316.38 6286.17 1316.38 6216.36 Q1316.38 6150.8 1347.49 6111.91 Q1378.6 6072.84 1431 6072.84 Q1445.08 6072.84 1459.34 6075.62 Q1473.78 6078.39 1489.34 6083.95 Z" fill="#000000" fill-rule="evenodd" fill-opacity="1" /><path clip-path="url(#clip5000)" d="M 0 0 M1661.19 6205.25 Q1688.04 6210.99 1703.04 6229.13 Q1718.23 6247.28 1718.23 6273.95 Q1718.23 6314.87 1690.08 6337.28 Q1661.93 6359.69 1610.08 6359.69 Q1592.67 6359.69 1574.15 6356.17 Q1555.82 6352.84 1536.19 6345.99 L1536.19 6309.87 Q1551.75 6318.95 1570.26 6323.58 Q1588.78 6328.21 1608.97 6328.21 Q1644.15 6328.21 1662.49 6314.32 Q1681 6300.43 1681 6273.95 Q1681 6249.5 1663.78 6235.8 Q1646.74 6221.91 1616.19 6221.91 L1583.97 6221.91 L1583.97 6191.17 L1617.67 6191.17 Q1645.26 6191.17 1659.89 6180.25 Q1674.52 6169.13 1674.52 6148.39 Q1674.52 6127.1 1659.34 6115.8 Q1644.34 6104.32 1616.19 6104.32 Q1600.82 6104.32 1583.23 6107.65 Q1565.63 6110.99 1544.52 6118.02 L1544.52 6084.69 Q1565.82 6078.76 1584.34 6075.8 Q1603.04 6072.84 1619.52 6072.84 Q1662.11 6072.84 1686.93 6092.28 Q1711.74 6111.54 1711.74 6144.51 Q1711.74 6167.47 1698.6 6183.39 Q1685.45 6199.13 1661.19 6205.25 Z" fill="#000000" fill-rule="evenodd" fill-opacity="1" /><path clip-path="url(#clip5000)" d="M 0 0 M1105.64 4420.05 Q1076.75 4420.05 1062.12 4448.57 Q1047.67 4476.9 1047.67 4533.94 Q1047.67 4590.79 1062.12 4619.31 Q1076.75 4647.64 1105.64 4647.64 Q1134.71 4647.64 1149.15 4619.31 Q1163.78 4590.79 1163.78 4533.94 Q1163.78 4476.9 1149.15 4448.57 Q1134.71 4420.05 1105.64 4420.05 M1105.64 4390.42 Q1152.12 4390.42 1176.56 4427.27 Q1201.19 4463.94 1201.19 4533.94 Q1201.19 4603.76 1176.56 4640.61 Q1152.12 4677.27 1105.64 4677.27 Q1059.16 4677.27 1034.53 4640.61 Q1010.08 4603.76 1010.08 4533.94 Q1010.08 4463.94 1034.53 4427.27 Q1059.16 4390.42 1105.64 4390.42 Z" fill="#000000" fill-rule="evenodd" fill-opacity="1" /><path clip-path="url(#clip5000)" d="M 0 0 M1241.75 4624.87 L1280.82 4624.87 L1280.82 4671.9 L1241.75 4671.9 L1241.75 4624.87 Z" fill="#000000" fill-rule="evenodd" fill-opacity="1" /><path clip-path="url(#clip5000)" d="M 0 0 M1406.01 4518.76 Q1380.82 4518.76 1366.01 4535.98 Q1351.38 4553.2 1351.38 4583.2 Q1351.38 4613.01 1366.01 4630.42 Q1380.82 4647.64 1406.01 4647.64 Q1431.19 4647.64 1445.82 4630.42 Q1460.63 4613.01 1460.63 4583.2 Q1460.63 4553.2 1445.82 4535.98 Q1431.19 4518.76 1406.01 4518.76 M1480.26 4401.53 L1480.26 4435.61 Q1466.19 4428.94 1451.75 4425.42 Q1437.49 4421.9 1423.41 4421.9 Q1386.38 4421.9 1366.75 4446.9 Q1347.3 4471.9 1344.52 4522.46 Q1355.45 4506.35 1371.93 4497.83 Q1388.41 4489.13 1408.23 4489.13 Q1449.89 4489.13 1473.97 4514.5 Q1498.23 4539.68 1498.23 4583.2 Q1498.23 4625.79 1473.04 4651.53 Q1447.86 4677.27 1406.01 4677.27 Q1358.04 4677.27 1332.67 4640.61 Q1307.3 4603.76 1307.3 4533.94 Q1307.3 4468.39 1338.41 4429.5 Q1369.52 4390.42 1421.93 4390.42 Q1436 4390.42 1450.26 4393.2 Q1464.71 4395.98 1480.26 4401.53 Z" fill="#000000" fill-rule="evenodd" fill-opacity="1" /><path clip-path="url(#clip5000)" d="M 0 0 M1641.56 4428.02 L1547.12 4575.61 L1641.56 4575.61 L1641.56 4428.02 M1631.74 4395.42 L1678.78 4395.42 L1678.78 4575.61 L1718.23 4575.61 L1718.23 4606.72 L1678.78 4606.72 L1678.78 4671.9 L1641.56 4671.9 L1641.56 4606.72 L1516.75 4606.72 L1516.75 4570.61 L1631.74 4395.42 Z" fill="#000000" fill-rule="evenodd" fill-opacity="1" /><path clip-path="url(#clip5000)" d="M 0 0 M1117.49 2737.64 Q1088.6 2737.64 1073.97 2766.15 Q1059.53 2794.49 1059.53 2851.52 Q1059.53 2908.38 1073.97 2936.89 Q1088.6 2965.23 1117.49 2965.23 Q1146.56 2965.23 1161.01 2936.89 Q1175.64 2908.38 1175.64 2851.52 Q1175.64 2794.49 1161.01 2766.15 Q1146.56 2737.64 1117.49 2737.64 M1117.49 2708.01 Q1163.97 2708.01 1188.41 2744.86 Q1213.04 2781.53 1213.04 2851.52 Q1213.04 2921.34 1188.41 2958.19 Q1163.97 2994.86 1117.49 2994.86 Q1071.01 2994.86 1046.38 2958.19 Q1021.93 2921.34 1021.93 2851.52 Q1021.93 2781.53 1046.38 2744.86 Q1071.01 2708.01 1117.49 2708.01 Z" fill="#000000" fill-rule="evenodd" fill-opacity="1" /><path clip-path="url(#clip5000)" d="M 0 0 M1253.6 2942.45 L1292.67 2942.45 L1292.67 2989.49 L1253.6 2989.49 L1253.6 2942.45 Z" fill="#000000" fill-rule="evenodd" fill-opacity="1" /><path clip-path="url(#clip5000)" d="M 0 0 M1417.86 2836.34 Q1392.67 2836.34 1377.86 2853.56 Q1363.23 2870.78 1363.23 2900.78 Q1363.23 2930.6 1377.86 2948.01 Q1392.67 2965.23 1417.86 2965.23 Q1443.04 2965.23 1457.67 2948.01 Q1472.49 2930.6 1472.49 2900.78 Q1472.49 2870.78 1457.67 2853.56 Q1443.04 2836.34 1417.86 2836.34 M1492.12 2719.12 L1492.12 2753.19 Q1478.04 2746.53 1463.6 2743.01 Q1449.34 2739.49 1435.26 2739.49 Q1398.23 2739.49 1378.6 2764.49 Q1359.15 2789.49 1356.38 2840.04 Q1367.3 2823.93 1383.78 2815.41 Q1400.26 2806.71 1420.08 2806.71 Q1461.75 2806.71 1485.82 2832.08 Q1510.08 2857.27 1510.08 2900.78 Q1510.08 2943.38 1484.89 2969.12 Q1459.71 2994.86 1417.86 2994.86 Q1369.89 2994.86 1344.52 2958.19 Q1319.15 2921.34 1319.15 2851.52 Q1319.15 2785.97 1350.26 2747.08 Q1381.38 2708.01 1433.78 2708.01 Q1447.86 2708.01 1462.12 2710.78 Q1476.56 2713.56 1492.12 2719.12 Z" fill="#000000" fill-rule="evenodd" fill-opacity="1" /><path clip-path="url(#clip5000)" d="M 0 0 M1551 2713.01 L1697.86 2713.01 L1697.86 2744.49 L1585.26 2744.49 L1585.26 2812.27 Q1593.41 2809.49 1601.56 2808.19 Q1609.71 2806.71 1617.86 2806.71 Q1664.15 2806.71 1691.19 2832.08 Q1718.23 2857.45 1718.23 2900.78 Q1718.23 2945.41 1690.45 2970.23 Q1662.67 2994.86 1612.12 2994.86 Q1594.71 2994.86 1576.56 2991.89 Q1558.6 2988.93 1539.34 2983.01 L1539.34 2945.41 Q1556 2954.49 1573.78 2958.93 Q1591.56 2963.38 1611.37 2963.38 Q1643.41 2963.38 1662.11 2946.52 Q1680.82 2929.67 1680.82 2900.78 Q1680.82 2871.89 1662.11 2855.04 Q1643.41 2838.19 1611.37 2838.19 Q1596.37 2838.19 1581.37 2841.52 Q1566.56 2844.86 1551 2851.89 L1551 2713.01 Z" fill="#000000" fill-rule="evenodd" fill-opacity="1" /><path clip-path="url(#clip5000)" d="M 0 0 M1108.23 1055.22 Q1079.34 1055.22 1064.71 1083.74 Q1050.27 1112.07 1050.27 1169.11 Q1050.27 1225.96 1064.71 1254.48 Q1079.34 1282.81 1108.23 1282.81 Q1137.3 1282.81 1151.75 1254.48 Q1166.38 1225.96 1166.38 1169.11 Q1166.38 1112.07 1151.75 1083.74 Q1137.3 1055.22 1108.23 1055.22 M1108.23 1025.59 Q1154.71 1025.59 1179.15 1062.44 Q1203.78 1099.11 1203.78 1169.11 Q1203.78 1238.92 1179.15 1275.77 Q1154.71 1312.44 1108.23 1312.44 Q1061.75 1312.44 1037.12 1275.77 Q1012.67 1238.92 1012.67 1169.11 Q1012.67 1099.11 1037.12 1062.44 Q1061.75 1025.59 1108.23 1025.59 Z" fill="#000000" fill-rule="evenodd" fill-opacity="1" /><path clip-path="url(#clip5000)" d="M 0 0 M1244.34 1260.03 L1283.41 1260.03 L1283.41 1307.07 L1244.34 1307.07 L1244.34 1260.03 Z" fill="#000000" fill-rule="evenodd" fill-opacity="1" /><path clip-path="url(#clip5000)" d="M 0 0 M1408.6 1153.92 Q1383.41 1153.92 1368.6 1171.15 Q1353.97 1188.37 1353.97 1218.37 Q1353.97 1248.18 1368.6 1265.59 Q1383.41 1282.81 1408.6 1282.81 Q1433.78 1282.81 1448.41 1265.59 Q1463.23 1248.18 1463.23 1218.37 Q1463.23 1188.37 1448.41 1171.15 Q1433.78 1153.92 1408.6 1153.92 M1482.86 1036.7 L1482.86 1070.78 Q1468.78 1064.11 1454.34 1060.59 Q1440.08 1057.07 1426 1057.07 Q1388.97 1057.07 1369.34 1082.07 Q1349.89 1107.07 1347.12 1157.63 Q1358.04 1141.52 1374.52 1133 Q1391.01 1124.29 1410.82 1124.29 Q1452.49 1124.29 1476.56 1149.66 Q1500.82 1174.85 1500.82 1218.37 Q1500.82 1260.96 1475.63 1286.7 Q1450.45 1312.44 1408.6 1312.44 Q1360.63 1312.44 1335.26 1275.77 Q1309.89 1238.92 1309.89 1169.11 Q1309.89 1103.55 1341.01 1064.66 Q1372.12 1025.59 1424.52 1025.59 Q1438.6 1025.59 1452.86 1028.37 Q1467.3 1031.15 1482.86 1036.7 Z" fill="#000000" fill-rule="evenodd" fill-opacity="1" /><path clip-path="url(#clip5000)" d="M 0 0 M1626 1153.92 Q1600.82 1153.92 1586 1171.15 Q1571.37 1188.37 1571.37 1218.37 Q1571.37 1248.18 1586 1265.59 Q1600.82 1282.81 1626 1282.81 Q1651.19 1282.81 1665.82 1265.59 Q1680.63 1248.18 1680.63 1218.37 Q1680.63 1188.37 1665.82 1171.15 Q1651.19 1153.92 1626 1153.92 M1700.26 1036.7 L1700.26 1070.78 Q1686.19 1064.11 1671.74 1060.59 Q1657.49 1057.07 1643.41 1057.07 Q1606.37 1057.07 1586.74 1082.07 Q1567.3 1107.07 1564.52 1157.63 Q1575.45 1141.52 1591.93 1133 Q1608.41 1124.29 1628.23 1124.29 Q1669.89 1124.29 1693.97 1149.66 Q1718.23 1174.85 1718.23 1218.37 Q1718.23 1260.96 1693.04 1286.7 Q1667.86 1312.44 1626 1312.44 Q1578.04 1312.44 1552.67 1275.77 Q1527.3 1238.92 1527.3 1169.11 Q1527.3 1103.55 1558.41 1064.66 Q1589.52 1025.59 1641.93 1025.59 Q1656 1025.59 1670.26 1028.37 Q1684.71 1031.15 1700.26 1036.7 Z" fill="#000000" fill-rule="evenodd" fill-opacity="1" /><path clip-path="url(#clip5000)" d="M 0 0 M5766.9 228.341 L5766.9 284.73 Q5741.62 271.767 5714.4 265.286 Q5687.18 258.804 5658.01 258.804 Q5613.62 258.804 5591.25 272.415 Q5569.22 286.026 5569.22 313.248 Q5569.22 333.989 5585.1 345.98 Q5600.98 357.646 5648.94 368.341 L5669.36 372.878 Q5732.87 386.489 5759.45 411.442 Q5786.35 436.072 5786.35 480.47 Q5786.35 531.025 5746.16 560.516 Q5706.3 590.006 5636.3 590.006 Q5607.13 590.006 5575.38 584.173 Q5543.94 578.664 5508.94 567.321 L5508.94 505.747 Q5542 522.923 5574.08 531.673 Q5606.16 540.099 5637.6 540.099 Q5679.73 540.099 5702.41 525.84 Q5725.1 511.257 5725.1 485.007 Q5725.1 460.701 5708.57 447.738 Q5692.37 434.775 5636.95 422.785 L5616.21 417.924 Q5560.79 406.257 5536.16 382.276 Q5511.53 357.97 5511.53 315.841 Q5511.53 264.637 5547.83 236.767 Q5584.13 208.897 5650.88 208.897 Q5683.94 208.897 5713.11 213.758 Q5742.27 218.619 5766.9 228.341 Z" fill="#000000" fill-rule="evenodd" fill-opacity="1" /><path clip-path="url(#clip5000)" d="M 0 0 M5848.89 217.647 L5908.52 217.647 L5908.52 580.608 L5848.89 580.608 L5848.89 217.647 M5848.89 76.3514 L5908.52 76.3514 L5908.52 151.86 L5848.89 151.86 L5848.89 76.3514 Z" fill="#000000" fill-rule="evenodd" fill-opacity="1" /><path clip-path="url(#clip5000)" d="M 0 0 M5945.14 217.647 L6228.38 217.647 L6228.38 272.091 L6004.12 532.969 L6228.38 532.969 L6228.38 580.608 L5937.04 580.608 L5937.04 526.164 L6161.3 265.286 L5945.14 265.286 L5945.14 217.647 Z" fill="#000000" fill-rule="evenodd" fill-opacity="1" /><path clip-path="url(#clip5000)" d="M 0 0 M6601.39 384.22 L6601.39 413.387 L6327.22 413.387 Q6331.11 474.96 6364.17 507.368 Q6397.55 539.451 6456.85 539.451 Q6491.2 539.451 6523.29 531.025 Q6555.69 522.599 6587.45 505.747 L6587.45 562.136 Q6555.37 575.747 6521.67 582.877 Q6487.96 590.006 6453.29 590.006 Q6366.44 590.006 6315.56 539.451 Q6265 488.896 6265 402.692 Q6265 313.572 6312.96 261.397 Q6361.25 208.897 6442.92 208.897 Q6516.16 208.897 6558.61 256.212 Q6601.39 303.202 6601.39 384.22 M6541.76 366.72 Q6541.11 317.785 6514.21 288.619 Q6487.64 259.452 6443.56 259.452 Q6393.66 259.452 6363.52 287.647 Q6333.7 315.841 6329.17 367.044 L6541.76 366.72 Z" fill="#000000" fill-rule="evenodd" fill-opacity="1" /><path clip-path="url(#clip5000)" d="M 0 0 M6679.17 498.294 L6747.54 498.294 L6747.54 580.608 L6679.17 580.608 L6679.17 498.294 M6679.17 237.415 L6747.54 237.415 L6747.54 319.73 L6679.17 319.73 L6679.17 237.415 Z" fill="#000000" fill-rule="evenodd" fill-opacity="1" /><path clip-path="url(#clip5000)" d="M 0 0 M6966.62 312.6 Q6922.54 312.6 6896.62 342.739 Q6871.02 372.878 6871.02 425.377 Q6871.02 477.553 6896.62 508.016 Q6922.54 538.155 6966.62 538.155 Q7010.69 538.155 7036.29 508.016 Q7062.22 477.553 7062.22 425.377 Q7062.22 372.878 7036.29 342.739 Q7010.69 312.6 6966.62 312.6 M7096.57 107.462 L7096.57 167.092 Q7071.94 155.425 7046.66 149.268 Q7021.71 143.11 6997.08 143.11 Q6932.27 143.11 6897.91 186.86 Q6863.89 230.61 6859.03 319.082 Q6878.15 290.887 6906.99 275.98 Q6935.83 260.749 6970.51 260.749 Q7043.42 260.749 7085.55 305.147 Q7128.01 349.22 7128.01 425.377 Q7128.01 499.914 7083.93 544.96 Q7039.86 590.006 6966.62 590.006 Q6882.68 590.006 6838.28 525.84 Q6793.89 461.349 6793.89 339.174 Q6793.89 224.453 6848.33 156.397 Q6902.78 88.018 6994.49 88.018 Q7019.12 88.018 7044.07 92.8791 Q7069.35 97.7402 7096.57 107.462 Z" fill="#000000" fill-rule="evenodd" fill-opacity="1" /><path clip-path="url(#clip5000)" d="M 0 0 M7205.78 498.294 L7274.16 498.294 L7274.16 554.034 L7221.01 657.737 L7179.21 657.737 L7205.78 554.034 L7205.78 498.294 Z" fill="#000000" fill-rule="evenodd" fill-opacity="1" /><path clip-path="url(#clip5000)" d="M 0 0 M7485.13 350.841 Q7438.47 350.841 7411.57 375.794 Q7384.99 400.748 7384.99 444.498 Q7384.99 488.247 7411.57 513.201 Q7438.47 538.155 7485.13 538.155 Q7531.8 538.155 7558.7 513.201 Q7585.6 487.923 7585.6 444.498 Q7585.6 400.748 7558.7 375.794 Q7532.12 350.841 7485.13 350.841 M7419.67 322.97 Q7377.54 312.6 7353.88 283.758 Q7330.55 254.915 7330.55 213.434 Q7330.55 155.425 7371.71 121.722 Q7413.19 88.018 7485.13 88.018 Q7557.4 88.018 7598.56 121.722 Q7639.72 155.425 7639.72 213.434 Q7639.72 254.915 7616.06 283.758 Q7592.73 312.6 7550.92 322.97 Q7598.23 333.989 7624.48 366.072 Q7651.06 398.155 7651.06 444.498 Q7651.06 514.821 7607.96 552.414 Q7565.18 590.006 7485.13 590.006 Q7405.09 590.006 7361.99 552.414 Q7319.21 514.821 7319.21 444.498 Q7319.21 398.155 7345.78 366.072 Q7372.36 333.989 7419.67 322.97 M7395.69 219.591 Q7395.69 257.184 7419.02 278.249 Q7442.68 299.313 7485.13 299.313 Q7527.26 299.313 7550.92 278.249 Q7574.9 257.184 7574.9 219.591 Q7574.9 181.999 7550.92 160.934 Q7527.26 139.87 7485.13 139.87 Q7442.68 139.87 7419.02 160.934 Q7395.69 181.999 7395.69 219.591 Z" fill="#000000" fill-rule="evenodd" fill-opacity="1" /><path clip-path="url(#clip5000)" d="M 0 0 M7728.84 498.294 L7797.22 498.294 L7797.22 554.034 L7744.07 657.737 L7702.26 657.737 L7728.84 554.034 L7728.84 498.294 Z" fill="#000000" fill-rule="evenodd" fill-opacity="1" /><path clip-path="url(#clip5000)" d="M 0 0 M7879.53 525.516 L7986.47 525.516 L7986.47 156.397 L7870.13 179.731 L7870.13 120.101 L7985.83 96.768 L8051.29 96.768 L8051.29 525.516 L8158.23 525.516 L8158.23 580.608 L7879.53 580.608 L7879.53 525.516 Z" fill="#000000" fill-rule="evenodd" fill-opacity="1" /><path clip-path="url(#clip5000)" d="M 0 0 M8369.2 139.87 Q8318.65 139.87 8293.05 189.777 Q8267.77 239.36 8267.77 339.174 Q8267.77 438.664 8293.05 488.571 Q8318.65 538.155 8369.2 538.155 Q8420.08 538.155 8445.36 488.571 Q8470.96 438.664 8470.96 339.174 Q8470.96 239.36 8445.36 189.777 Q8420.08 139.87 8369.2 139.87 M8369.2 88.018 Q8450.54 88.018 8493.32 152.508 Q8536.42 216.675 8536.42 339.174 Q8536.42 461.349 8493.32 525.84 Q8450.54 590.006 8369.2 590.006 Q8287.86 590.006 8244.76 525.84 Q8201.98 461.349 8201.98 339.174 Q8201.98 216.675 8244.76 152.508 Q8287.86 88.018 8369.2 88.018 Z" fill="#000000" fill-rule="evenodd" fill-opacity="1" /><path clip-path="url(#clip5000)" d="M 0 0 M8614.2 498.294 L8682.58 498.294 L8682.58 554.034 L8629.43 657.737 L8587.63 657.737 L8614.2 554.034 L8614.2 498.294 Z" fill="#000000" fill-rule="evenodd" fill-opacity="1" /><path clip-path="url(#clip5000)" d="M 0 0 M8764.9 525.516 L8871.84 525.516 L8871.84 156.397 L8755.5 179.731 L8755.5 120.101 L8871.19 96.768 L8936.65 96.768 L8936.65 525.516 L9043.6 525.516 L9043.6 580.608 L8764.9 580.608 L8764.9 525.516 Z" fill="#000000" fill-rule="evenodd" fill-opacity="1" /><path clip-path="url(#clip5000)" d="M 0 0 M9170.96 525.516 L9399.43 525.516 L9399.43 580.608 L9092.21 580.608 L9092.21 525.516 Q9129.48 486.951 9193.64 422.137 Q9258.13 356.998 9274.66 338.202 Q9306.1 302.878 9318.41 278.573 Q9331.05 253.943 9331.05 230.286 Q9331.05 191.721 9303.83 167.416 Q9276.93 143.11 9233.5 143.11 Q9202.72 143.11 9168.37 153.805 Q9134.34 164.499 9095.45 186.212 L9095.45 120.101 Q9134.99 104.222 9169.34 96.1199 Q9203.69 88.018 9232.21 88.018 Q9307.39 88.018 9352.11 125.61 Q9396.84 163.203 9396.84 226.073 Q9396.84 255.888 9385.49 282.786 Q9374.48 309.359 9344.98 345.656 Q9336.88 355.054 9293.46 400.1 Q9250.03 444.822 9170.96 525.516 Z" fill="#000000" fill-rule="evenodd" fill-opacity="1" /><path clip-path="url(#clip5000)" d="M 0 0 M9477.21 237.415 L9545.59 237.415 L9545.59 319.73 L9477.21 319.73 L9477.21 237.415 M9477.21 498.294 L9545.59 498.294 L9545.59 554.034 L9492.44 657.737 L9450.63 657.737 L9477.21 554.034 L9477.21 498.294 Z" fill="#000000" fill-rule="evenodd" fill-opacity="1" /><path clip-path="url(#clip5000)" d="M 0 0 M10018.1 141.166 Q9946.79 141.166 9904.66 194.314 Q9862.85 247.462 9862.85 339.174 Q9862.85 430.563 9904.66 483.71 Q9946.79 536.858 10018.1 536.858 Q10089.4 536.858 10130.9 483.71 Q10172.7 430.563 10172.7 339.174 Q10172.7 247.462 10130.9 194.314 Q10089.4 141.166 10018.1 141.166 M10109.8 571.858 L10196 666.163 L10116.9 666.163 L10045.3 588.71 Q10034.6 589.358 10028.8 589.682 Q10023.3 590.006 10018.1 590.006 Q9916 590.006 9854.75 521.951 Q9793.82 453.572 9793.82 339.174 Q9793.82 224.453 9854.75 156.397 Q9916 88.018 10018.1 88.018 Q10119.8 88.018 10180.8 156.397 Q10241.7 224.453 10241.7 339.174 Q10241.7 423.433 10207.7 483.386 Q10174 543.34 10109.8 571.858 Z" fill="#000000" fill-rule="evenodd" fill-opacity="1" /><path clip-path="url(#clip5000)" d="M 0 0 M10523 279.221 L10938.4 279.221 L10938.4 333.665 L10523 333.665 L10523 279.221 M10523 411.442 L10938.4 411.442 L10938.4 466.535 L10523 466.535 L10523 411.442 Z" fill="#000000" fill-rule="evenodd" fill-opacity="1" /><path clip-path="url(#clip5000)" d="M 0 0 M11231.7 525.516 L11338.7 525.516 L11338.7 156.397 L11222.3 179.731 L11222.3 120.101 L11338 96.768 L11403.5 96.768 L11403.5 525.516 L11510.4 525.516 L11510.4 580.608 L11231.7 580.608 L11231.7 525.516 Z" fill="#000000" fill-rule="evenodd" fill-opacity="1" /><path clip-path="url(#clip5000)" d="M 0 0 M11729.5 312.6 Q11685.4 312.6 11659.5 342.739 Q11633.9 372.878 11633.9 425.377 Q11633.9 477.553 11659.5 508.016 Q11685.4 538.155 11729.5 538.155 Q11773.6 538.155 11799.2 508.016 Q11825.1 477.553 11825.1 425.377 Q11825.1 372.878 11799.2 342.739 Q11773.6 312.6 11729.5 312.6 M11859.5 107.462 L11859.5 167.092 Q11834.8 155.425 11809.6 149.268 Q11784.6 143.11 11760 143.11 Q11695.2 143.11 11660.8 186.86 Q11626.8 230.61 11621.9 319.082 Q11641 290.887 11669.9 275.98 Q11698.7 260.749 11733.4 260.749 Q11806.3 260.749 11848.4 305.147 Q11890.9 349.22 11890.9 425.377 Q11890.9 499.914 11846.8 544.96 Q11802.7 590.006 11729.5 590.006 Q11645.6 590.006 11601.2 525.84 Q11556.8 461.349 11556.8 339.174 Q11556.8 224.453 11611.2 156.397 Q11665.7 88.018 11757.4 88.018 Q11782 88.018 11807 92.8791 Q11832.2 97.7402 11859.5 107.462 Z" fill="#000000" fill-rule="evenodd" fill-opacity="1" /><path clip-path="url(#clip5000)" d="M 0 0 M11968.7 237.415 L12037.1 237.415 L12037.1 319.73 L11968.7 319.73 L11968.7 237.415 M11968.7 498.294 L12037.1 498.294 L12037.1 554.034 L11983.9 657.737 L11942.1 657.737 L11968.7 554.034 L11968.7 498.294 Z" fill="#000000" fill-rule="evenodd" fill-opacity="1" /><path clip-path="url(#clip5000)" d="M 0 0 M12313.2 96.768 L12378.6 96.768 L12378.6 546.904 Q12378.6 634.404 12345.2 673.941 Q12312.2 713.478 12238.6 713.478 L12213.7 713.478 L12213.7 658.385 L12234.1 658.385 Q12277.5 658.385 12295.3 634.08 Q12313.2 609.775 12313.2 546.904 L12313.2 96.768 Z" fill="#000000" fill-rule="evenodd" fill-opacity="1" /><path clip-path="url(#clip5000)" d="M 0 0 M12717 690.793 L12717 737.135 L12372.1 737.135 L12372.1 690.793 L12717 690.793 Z" fill="#000000" fill-rule="evenodd" fill-opacity="1" /><path clip-path="url(#clip5000)" d="M 0 0 M12799.3 525.516 L12906.2 525.516 L12906.2 156.397 L12789.9 179.731 L12789.9 120.101 L12905.6 96.768 L12971 96.768 L12971 525.516 L13078 525.516 L13078 580.608 L12799.3 580.608 L12799.3 525.516 Z" fill="#000000" fill-rule="evenodd" fill-opacity="1" /><path clip-path="url(#clip5000)" d="M 0 0 M13359.3 279.221 L13774.7 279.221 L13774.7 333.665 L13359.3 333.665 L13359.3 279.221 M13359.3 411.442 L13774.7 411.442 L13774.7 466.535 L13359.3 466.535 L13359.3 411.442 Z" fill="#000000" fill-rule="evenodd" fill-opacity="1" /><path clip-path="url(#clip5000)" d="M 0 0 M14196.7 139.87 Q14146.1 139.87 14120.5 189.777 Q14095.2 239.36 14095.2 339.174 Q14095.2 438.664 14120.5 488.571 Q14146.1 538.155 14196.7 538.155 Q14247.6 538.155 14272.8 488.571 Q14298.4 438.664 14298.4 339.174 Q14298.4 239.36 14272.8 189.777 Q14247.6 139.87 14196.7 139.87 M14196.7 88.018 Q14278 88.018 14320.8 152.508 Q14363.9 216.675 14363.9 339.174 Q14363.9 461.349 14320.8 525.84 Q14278 590.006 14196.7 590.006 Q14115.3 590.006 14072.2 525.84 Q14029.5 461.349 14029.5 339.174 Q14029.5 216.675 14072.2 152.508 Q14115.3 88.018 14196.7 88.018 Z" fill="#000000" fill-rule="evenodd" fill-opacity="1" /><path clip-path="url(#clip5000)" d="M 0 0 M14434.9 498.294 L14503.2 498.294 L14503.2 580.608 L14434.9 580.608 L14434.9 498.294 Z" fill="#000000" fill-rule="evenodd" fill-opacity="1" /><path clip-path="url(#clip5000)" d="M 0 0 M14630.6 525.516 L14859.1 525.516 L14859.1 580.608 L14551.9 580.608 L14551.9 525.516 Q14589.1 486.951 14653.3 422.137 Q14717.8 356.998 14734.3 338.202 Q14765.7 302.878 14778.1 278.573 Q14790.7 253.943 14790.7 230.286 Q14790.7 191.721 14763.5 167.416 Q14736.6 143.11 14693.2 143.11 Q14662.4 143.11 14628 153.805 Q14594 164.499 14555.1 186.212 L14555.1 120.101 Q14594.6 104.222 14629 96.1199 Q14663.3 88.018 14691.9 88.018 Q14767 88.018 14811.8 125.61 Q14856.5 163.203 14856.5 226.073 Q14856.5 255.888 14845.1 282.786 Q14834.1 309.359 14804.6 345.656 Q14796.5 355.054 14753.1 400.1 Q14709.7 444.822 14630.6 525.516 Z" fill="#000000" fill-rule="evenodd" fill-opacity="1" /><path clip-path="url(#clip5000)" d="M 0 0 M14930.7 96.768 L15187.7 96.768 L15187.7 151.86 L14990.6 151.86 L14990.6 270.471 Q15004.9 265.61 15019.2 263.341 Q15033.4 260.749 15047.7 260.749 Q15128.7 260.749 15176 305.147 Q15223.3 349.544 15223.3 425.377 Q15223.3 503.479 15174.7 546.904 Q15126.1 590.006 15037.6 590.006 Q15007.2 590.006 14975.4 584.821 Q14944 579.636 14910.3 569.265 L14910.3 503.479 Q14939.4 519.358 14970.6 527.136 Q15001.7 534.914 15036.3 534.914 Q15092.4 534.914 15125.1 505.423 Q15157.9 475.933 15157.9 425.377 Q15157.9 374.822 15125.1 345.331 Q15092.4 315.841 15036.3 315.841 Q15010.1 315.841 14983.8 321.674 Q14957.9 327.508 14930.7 339.822 L14930.7 96.768 Z" fill="#000000" fill-rule="evenodd" fill-opacity="1" /><path clip-path="url(#clip5000)" d="M 0 0 M10205.3 12068.2 L10526.9 12068.2 L10526.9 12111.5 L10392 12111.5 L10392 12448.4 L10340.3 12448.4 L10340.3 12111.5 L10205.3 12111.5 L10205.3 12068.2 Z" fill="#000000" fill-rule="evenodd" fill-opacity="1" /><path clip-path="url(#clip5000)" d="M 0 0 M522.483 7641.94 L661.765 7641.94 L661.765 7559.44 Q661.765 7517.93 644.705 7498.07 Q627.39 7477.96 591.997 7477.96 Q556.349 7477.96 539.543 7498.07 Q522.483 7517.93 522.483 7559.44 L522.483 7641.94 M366.142 7641.94 L480.724 7641.94 L480.724 7565.8 Q480.724 7528.12 466.72 7509.78 Q452.461 7491.2 423.433 7491.2 Q394.66 7491.2 380.401 7509.78 Q366.142 7528.12 366.142 7565.8 L366.142 7641.94 M323.873 7693.37 L323.873 7561.98 Q323.873 7503.16 348.318 7471.33 Q372.762 7439.51 417.831 7439.51 Q452.715 7439.51 473.34 7455.8 Q493.965 7472.1 499.058 7503.67 Q507.206 7465.73 533.178 7444.85 Q558.895 7423.72 597.599 7423.72 Q648.524 7423.72 676.279 7458.35 Q704.033 7492.98 704.033 7556.89 L704.033 7693.37 L323.873 7693.37 Z" fill="#000000" fill-rule="evenodd" fill-opacity="1" /><path clip-path="url(#clip5000)" d="M 0 0 M418.85 7374.58 L418.85 7327.72 L704.033 7327.72 L704.033 7374.58 L418.85 7374.58 M307.832 7374.58 L307.832 7327.72 L367.16 7327.72 L367.16 7374.58 L307.832 7374.58 Z" fill="#000000" fill-rule="evenodd" fill-opacity="1" /><path clip-path="url(#clip5000)" d="M 0 0 M531.905 7041.52 L704.033 7041.52 L704.033 7088.37 L533.432 7088.37 Q492.946 7088.37 472.831 7104.16 Q452.715 7119.95 452.715 7151.52 Q452.715 7189.46 476.905 7211.36 Q501.095 7233.26 542.854 7233.26 L704.033 7233.26 L704.033 7280.36 L418.85 7280.36 L418.85 7233.26 L463.155 7233.26 Q437.437 7216.45 424.706 7193.79 Q411.975 7170.87 411.975 7141.08 Q411.975 7091.94 442.53 7066.73 Q472.831 7041.52 531.905 7041.52 Z" fill="#000000" fill-rule="evenodd" fill-opacity="1" /><path clip-path="url(#clip5000)" d="M 0 0 M462.136 6804.72 L307.832 6804.72 L307.832 6757.87 L704.033 6757.87 L704.033 6804.72 L661.256 6804.72 Q686.719 6819.49 699.195 6842.15 Q711.417 6864.56 711.417 6896.13 Q711.417 6947.82 670.168 6980.41 Q628.918 7012.75 561.696 7012.75 Q494.474 7012.75 453.224 6980.41 Q411.975 6947.82 411.975 6896.13 Q411.975 6864.56 424.451 6842.15 Q436.674 6819.49 462.136 6804.72 M561.696 6964.37 Q613.386 6964.37 642.922 6943.24 Q672.205 6921.85 672.205 6884.67 Q672.205 6847.5 642.922 6826.11 Q613.386 6804.72 561.696 6804.72 Q510.007 6804.72 480.724 6826.11 Q451.187 6847.5 451.187 6884.67 Q451.187 6921.85 480.724 6943.24 Q510.007 6964.37 561.696 6964.37 Z" fill="#000000" fill-rule="evenodd" fill-opacity="1" /><path clip-path="url(#clip5000)" d="M 0 0 M549.729 6464.79 L572.645 6464.79 L572.645 6680.2 Q621.024 6677.15 646.487 6651.18 Q671.695 6624.95 671.695 6578.35 Q671.695 6551.36 665.075 6526.15 Q658.455 6500.69 645.214 6475.74 L689.519 6475.74 Q700.214 6500.95 705.816 6527.43 Q711.417 6553.91 711.417 6581.15 Q711.417 6649.39 671.695 6689.37 Q631.973 6729.09 564.242 6729.09 Q494.22 6729.09 453.224 6691.41 Q411.975 6653.47 411.975 6589.3 Q411.975 6531.76 449.15 6498.4 Q486.071 6464.79 549.729 6464.79 M535.979 6511.64 Q497.53 6512.15 474.613 6533.28 Q451.697 6554.16 451.697 6588.79 Q451.697 6628.01 473.849 6651.69 Q496.002 6675.11 536.233 6678.68 L535.979 6511.64 Z" fill="#000000" fill-rule="evenodd" fill-opacity="1" /><path clip-path="url(#clip5000)" d="M 0 0 M462.646 6250.39 Q458.062 6258.29 456.025 6267.71 Q453.734 6276.87 453.734 6288.08 Q453.734 6327.8 479.706 6349.19 Q505.423 6370.32 553.803 6370.32 L704.033 6370.32 L704.033 6417.43 L418.85 6417.43 L418.85 6370.32 L463.155 6370.32 Q437.183 6355.55 424.706 6331.87 Q411.975 6308.19 411.975 6274.33 Q411.975 6269.49 412.739 6263.63 Q413.248 6257.78 414.521 6250.65 L462.646 6250.39 Z" fill="#000000" fill-rule="evenodd" fill-opacity="1" /><path clip-path="url(#clip5000)" d="M 0 0 M323.873 6156.94 L465.192 6156.94 L465.192 6200.23 L323.873 6200.23 L323.873 6156.94 Z" fill="#000000" fill-rule="evenodd" fill-opacity="1" /><path clip-path="url(#clip5000)" d="M 0 0 M427.252 5926 L471.558 5926 Q461.373 5945.86 456.28 5967.25 Q451.187 5988.63 451.187 6011.55 Q451.187 6046.44 461.882 6064 Q472.576 6081.32 493.965 6081.32 Q510.261 6081.32 519.682 6068.84 Q528.849 6056.37 537.252 6018.68 L540.817 6002.64 Q551.511 5952.73 571.117 5931.85 Q590.469 5910.72 625.353 5910.72 Q665.075 5910.72 688.246 5942.29 Q711.417 5973.61 711.417 6028.61 Q711.417 6051.53 706.834 6076.48 Q702.505 6101.18 693.594 6128.68 L645.214 6128.68 Q658.709 6102.71 665.584 6077.5 Q672.205 6052.29 672.205 6027.59 Q672.205 5994.49 661.001 5976.67 Q649.543 5958.84 628.918 5958.84 Q609.821 5958.84 599.636 5971.83 Q589.451 5984.56 580.029 6028.1 L576.21 6044.4 Q567.043 6087.94 548.201 6107.29 Q529.104 6126.64 496.002 6126.64 Q455.771 6126.64 433.873 6098.12 Q411.975 6069.61 411.975 6017.15 Q411.975 5991.18 415.794 5968.26 Q419.613 5945.35 427.252 5926 Z" fill="#000000" fill-rule="evenodd" fill-opacity="1" /><path clip-path="url(#clip5000)" d="M 0 0 M462.646 5530.56 Q458.062 5538.45 456.025 5547.87 Q453.734 5557.04 453.734 5568.24 Q453.734 5607.97 479.706 5629.35 Q505.423 5650.49 553.803 5650.49 L704.033 5650.49 L704.033 5697.59 L418.85 5697.59 L418.85 5650.49 L463.155 5650.49 Q437.183 5635.72 424.706 5612.04 Q411.975 5588.36 411.975 5554.49 Q411.975 5549.66 412.739 5543.8 Q413.248 5537.94 414.521 5530.81 L462.646 5530.56 Z" fill="#000000" fill-rule="evenodd" fill-opacity="1" /><path clip-path="url(#clip5000)" d="M 0 0 M560.678 5351.81 Q560.678 5408.59 573.664 5430.49 Q586.65 5452.39 617.969 5452.39 Q642.922 5452.39 657.691 5436.09 Q672.205 5419.54 672.205 5391.28 Q672.205 5352.32 644.705 5328.89 Q616.95 5305.21 571.117 5305.21 L560.678 5305.21 L560.678 5351.81 M541.326 5258.36 L704.033 5258.36 L704.033 5305.21 L660.746 5305.21 Q686.719 5321.25 699.195 5345.19 Q711.417 5369.12 711.417 5403.75 Q711.417 5447.55 686.973 5473.52 Q662.274 5499.24 621.024 5499.24 Q572.9 5499.24 548.455 5467.16 Q524.011 5434.82 524.011 5370.91 L524.011 5305.21 L519.428 5305.21 Q487.09 5305.21 469.521 5326.6 Q451.697 5347.74 451.697 5386.18 Q451.697 5410.63 457.553 5433.8 Q463.41 5456.97 475.122 5478.36 L431.836 5478.36 Q421.905 5452.64 417.067 5428.45 Q411.975 5404.26 411.975 5381.35 Q411.975 5319.47 444.058 5288.92 Q476.141 5258.36 541.326 5258.36 Z" fill="#000000" fill-rule="evenodd" fill-opacity="1" /><path clip-path="url(#clip5000)" d="M 0 0 M337.878 5162.87 L418.85 5162.87 L418.85 5066.37 L455.261 5066.37 L455.261 5162.87 L610.075 5162.87 Q644.96 5162.87 654.89 5153.45 Q664.821 5143.78 664.821 5114.5 L664.821 5066.37 L704.033 5066.37 L704.033 5114.5 Q704.033 5168.73 683.918 5189.36 Q663.547 5209.98 610.075 5209.98 L455.261 5209.98 L455.261 5244.36 L418.85 5244.36 L418.85 5209.98 L337.878 5209.98 L337.878 5162.87 Z" fill="#000000" fill-rule="evenodd" fill-opacity="1" /><path clip-path="url(#clip5000)" d="M 0 0 M418.85 5017.23 L418.85 4970.38 L704.033 4970.38 L704.033 5017.23 L418.85 5017.23 M307.832 5017.23 L307.832 4970.38 L367.16 4970.38 L367.16 5017.23 L307.832 5017.23 Z" fill="#000000" fill-rule="evenodd" fill-opacity="1" /><path clip-path="url(#clip5000)" d="M 0 0 M451.697 4810.72 Q451.697 4848.41 481.234 4870.31 Q510.516 4892.21 561.696 4892.21 Q612.876 4892.21 642.413 4870.56 Q671.695 4848.66 671.695 4810.72 Q671.695 4773.29 642.159 4751.4 Q612.622 4729.5 561.696 4729.5 Q511.025 4729.5 481.488 4751.4 Q451.697 4773.29 451.697 4810.72 M411.975 4810.72 Q411.975 4749.61 451.697 4714.73 Q491.419 4679.85 561.696 4679.85 Q631.719 4679.85 671.695 4714.73 Q711.417 4749.61 711.417 4810.72 Q711.417 4872.09 671.695 4906.97 Q631.719 4941.6 561.696 4941.6 Q491.419 4941.6 451.697 4906.97 Q411.975 4872.09 411.975 4810.72 Z" fill="#000000" fill-rule="evenodd" fill-opacity="1" /><polyline clip-path="url(#clip5002)" style="stroke:#009af9; stroke-width:32; stroke-opacity:1; fill:none" points="
  2388.86,1604.12 2714.47,2029.61 3040.07,1879.43 3365.67,1602.23 3691.27,1659.78 4016.88,2207.54 4342.48,2018.68 4668.08,1869.13 4993.69,2006.14 5319.29,1933.04 
  5644.89,2348.54 5970.5,2191.39 6296.1,2400.08 6621.7,2178.31 6947.3,2367.79 7272.91,1880.15 7598.51,2123.31 7924.11,2647.38 8249.72,2560.8 8575.32,2372.07 
  8900.92,2792.5 9226.53,2425.67 9552.13,2460.54 9877.73,2442.42 10203.3,2764.12 10528.9,2896 10854.5,2812.79 11180.1,2849.24 11505.7,3108.14 11831.4,3152.1 
  12157,3301.25 12482.6,3357.43 12808.2,3529.46 13133.8,2817.02 13459.4,3118.95 13785,3340.2 14110.6,3473.94 14436.2,4105.7 14761.8,3326.53 15087.4,3997.3 
  15413,3338.82 15738.6,3954.42 16064.2,3532.11 16389.8,3987.99 16715.4,4055.22 17041,4666.1 17366.6,3826.29 17692.2,4044.9 18017.8,4363.88 18343.4,3957.48 
  
  "/>
<polyline clip-path="url(#clip5002)" style="stroke:#e26f46; stroke-width:32; stroke-opacity:1; fill:none" points="
  2388.86,2101.94 2714.47,2176.12 3040.07,1889.93 3365.67,1563.33 3691.27,2023.7 4016.88,1736.67 4342.48,1802.9 4668.08,1682.97 4993.69,2072.76 5319.29,2564.06 
  5644.89,2013.7 5970.5,1665.67 6296.1,2696.08 6621.7,2102.46 6947.3,1866.76 7272.91,1895.06 7598.51,2463.09 7924.11,2403.73 8249.72,2721.26 8575.32,2666.35 
  8900.92,2636.02 9226.53,3405.83 9552.13,4624.12 9877.73,3649.53 10203.3,3369.66 10528.9,3012.13 10854.5,3927.2 11180.1,4078.24 11505.7,3033.47 11831.4,3578.64 
  12157,4397.46 12482.6,3872 12808.2,3753.19 13133.8,2995.99 13459.4,4814.4 13785,3856.81 14110.6,4813.79 14436.2,4333.43 14761.8,5045.59 15087.4,5848.77 
  15413,5262.38 15738.6,6292.95 16064.2,5895.53 16389.8,5128.72 16715.4,5877.4 17041,5675.14 17366.6,7060.48 17692.2,6034.99 18017.8,6242.36 18343.4,7598.88 
  
  "/>
<polyline clip-path="url(#clip5002)" style="stroke:#3da44d; stroke-width:32; stroke-opacity:1; fill:none" points="
  2388.86,1282.05 2714.47,1774.83 3040.07,1618.87 3365.67,1489.06 3691.27,1727.32 4016.88,1588.5 4342.48,2361.78 4668.08,1903.93 4993.69,1384.57 5319.29,2258.57 
  5644.89,2740.11 5970.5,2312.63 6296.1,2286.29 6621.7,2245.42 6947.3,2009.22 7272.91,2411.8 7598.51,2523.97 7924.11,1891.37 8249.72,2706.24 8575.32,2887.92 
  8900.92,3795.35 9226.53,3004.59 9552.13,3328.74 9877.73,3054.08 10203.3,2711.42 10528.9,3499.65 10854.5,4440.81 11180.1,4349.73 11505.7,3864.5 11831.4,5035.87 
  12157,5089.09 12482.6,5590.7 12808.2,3502.31 13133.8,5990.95 13459.4,6937.84 13785,5233.18 14110.6,5620.99 14436.2,6628.22 14761.8,8095.03 15087.4,8577.2 
  15413,8693.42 15738.6,7393.57 16064.2,8813.06 16389.8,9316.12 16715.4,8543.38 17041,7811.87 17366.6,11090.7 17692.2,11091.2 18017.8,9269.66 18343.4,8749.48 
  
  "/>
<path clip-path="url(#clip5000)" d="
M2486.23 10233.4 L5519.37 10233.4 L5519.37 8298.08 L2486.23 8298.08  Z
  " fill="#ffffff" fill-rule="evenodd" fill-opacity="1"/>
<polyline clip-path="url(#clip5000)" style="stroke:#000000; stroke-width:32; stroke-opacity:1; fill:none" points="
  2486.23,10233.4 5519.37,10233.4 5519.37,8298.08 2486.23,8298.08 2486.23,10233.4 
  "/>
<polyline clip-path="url(#clip5000)" style="stroke:#009af9; stroke-width:32; stroke-opacity:1; fill:none" points="
  2678.23,8781.92 3830.23,8781.92 
  "/>
<path clip-path="url(#clip5000)" d="M 0 0 M4022.23 8643.68 L4059.63 8643.68 L4059.63 8888.68 L4194.26 8888.68 L4194.26 8920.16 L4022.23 8920.16 L4022.23 8643.68 Z" fill="#000000" fill-rule="evenodd" fill-opacity="1" /><path clip-path="url(#clip5000)" d="M 0 0 M4355 8747.94 L4592.41 8747.94 L4592.41 8779.05 L4355 8779.05 L4355 8747.94 M4355 8823.49 L4592.41 8823.49 L4592.41 8854.97 L4355 8854.97 L4355 8823.49 Z" fill="#000000" fill-rule="evenodd" fill-opacity="1" /><path clip-path="url(#clip5000)" d="M 0 0 M4838.15 8767.01 Q4812.96 8767.01 4798.15 8784.23 Q4783.52 8801.46 4783.52 8831.46 Q4783.52 8861.27 4798.15 8878.68 Q4812.96 8895.9 4838.15 8895.9 Q4863.33 8895.9 4877.96 8878.68 Q4892.78 8861.27 4892.78 8831.46 Q4892.78 8801.46 4877.96 8784.23 Q4863.33 8767.01 4838.15 8767.01 M4912.41 8649.79 L4912.41 8683.86 Q4898.33 8677.2 4883.89 8673.68 Q4869.63 8670.16 4855.55 8670.16 Q4818.52 8670.16 4798.89 8695.16 Q4779.44 8720.16 4776.67 8770.72 Q4787.59 8754.6 4804.07 8746.09 Q4820.55 8737.38 4840.37 8737.38 Q4882.04 8737.38 4906.11 8762.75 Q4930.37 8787.94 4930.37 8831.46 Q4930.37 8874.05 4905.18 8899.79 Q4880 8925.53 4838.15 8925.53 Q4790.18 8925.53 4764.81 8888.86 Q4739.44 8852.01 4739.44 8782.2 Q4739.44 8716.64 4770.55 8677.75 Q4801.67 8638.68 4854.07 8638.68 Q4868.15 8638.68 4882.41 8641.46 Q4896.85 8644.23 4912.41 8649.79 Z" fill="#000000" fill-rule="evenodd" fill-opacity="1" /><polyline clip-path="url(#clip5000)" style="stroke:#e26f46; stroke-width:32; stroke-opacity:1; fill:none" points="
  2678.23,9265.76 3830.23,9265.76 
  "/>
<path clip-path="url(#clip5000)" d="M 0 0 M4022.23 9127.52 L4059.63 9127.52 L4059.63 9372.52 L4194.26 9372.52 L4194.26 9404 L4022.23 9404 L4022.23 9127.52 Z" fill="#000000" fill-rule="evenodd" fill-opacity="1" /><path clip-path="url(#clip5000)" d="M 0 0 M4355 9231.78 L4592.41 9231.78 L4592.41 9262.89 L4355 9262.89 L4355 9231.78 M4355 9307.33 L4592.41 9307.33 L4592.41 9338.81 L4355 9338.81 L4355 9307.33 Z" fill="#000000" fill-rule="evenodd" fill-opacity="1" /><path clip-path="url(#clip5000)" d="M 0 0 M4833.52 9272.7 Q4806.85 9272.7 4791.48 9286.96 Q4776.3 9301.22 4776.3 9326.22 Q4776.3 9351.22 4791.48 9365.48 Q4806.85 9379.74 4833.52 9379.74 Q4860.18 9379.74 4875.55 9365.48 Q4890.92 9351.04 4890.92 9326.22 Q4890.92 9301.22 4875.55 9286.96 Q4860.37 9272.7 4833.52 9272.7 M4796.11 9256.78 Q4772.04 9250.85 4758.52 9234.37 Q4745.18 9217.89 4745.18 9194.19 Q4745.18 9161.04 4768.7 9141.78 Q4792.41 9122.52 4833.52 9122.52 Q4874.81 9122.52 4898.33 9141.78 Q4921.85 9161.04 4921.85 9194.19 Q4921.85 9217.89 4908.33 9234.37 Q4895 9250.85 4871.11 9256.78 Q4898.15 9263.07 4913.15 9281.41 Q4928.33 9299.74 4928.33 9326.22 Q4928.33 9366.41 4903.7 9387.89 Q4879.26 9409.37 4833.52 9409.37 Q4787.78 9409.37 4763.15 9387.89 Q4738.7 9366.41 4738.7 9326.22 Q4738.7 9299.74 4753.89 9281.41 Q4769.07 9263.07 4796.11 9256.78 M4782.41 9197.7 Q4782.41 9219.18 4795.74 9231.22 Q4809.26 9243.26 4833.52 9243.26 Q4857.59 9243.26 4871.11 9231.22 Q4884.81 9219.18 4884.81 9197.7 Q4884.81 9176.22 4871.11 9164.19 Q4857.59 9152.15 4833.52 9152.15 Q4809.26 9152.15 4795.74 9164.19 Q4782.41 9176.22 4782.41 9197.7 Z" fill="#000000" fill-rule="evenodd" fill-opacity="1" /><polyline clip-path="url(#clip5000)" style="stroke:#3da44d; stroke-width:32; stroke-opacity:1; fill:none" points="
  2678.23,9749.6 3830.23,9749.6 
  "/>
<path clip-path="url(#clip5000)" d="M 0 0 M4022.23 9611.36 L4059.63 9611.36 L4059.63 9856.36 L4194.26 9856.36 L4194.26 9887.84 L4022.23 9887.84 L4022.23 9611.36 Z" fill="#000000" fill-rule="evenodd" fill-opacity="1" /><path clip-path="url(#clip5000)" d="M 0 0 M4355 9715.62 L4592.41 9715.62 L4592.41 9746.73 L4355 9746.73 L4355 9715.62 M4355 9791.17 L4592.41 9791.17 L4592.41 9822.65 L4355 9822.65 L4355 9791.17 Z" fill="#000000" fill-rule="evenodd" fill-opacity="1" /><path clip-path="url(#clip5000)" d="M 0 0 M4760 9856.36 L4821.11 9856.36 L4821.11 9645.43 L4754.63 9658.77 L4754.63 9624.69 L4820.74 9611.36 L4858.15 9611.36 L4858.15 9856.36 L4919.26 9856.36 L4919.26 9887.84 L4760 9887.84 L4760 9856.36 Z" fill="#000000" fill-rule="evenodd" fill-opacity="1" /><path clip-path="url(#clip5000)" d="M 0 0 M5039.81 9635.99 Q5010.92 9635.99 4996.29 9664.51 Q4981.85 9692.84 4981.85 9749.88 Q4981.85 9806.73 4996.29 9835.25 Q5010.92 9863.58 5039.81 9863.58 Q5068.89 9863.58 5083.33 9835.25 Q5097.96 9806.73 5097.96 9749.88 Q5097.96 9692.84 5083.33 9664.51 Q5068.89 9635.99 5039.81 9635.99 M5039.81 9606.36 Q5086.29 9606.36 5110.74 9643.21 Q5135.37 9679.88 5135.37 9749.88 Q5135.37 9819.69 5110.74 9856.54 Q5086.29 9893.21 5039.81 9893.21 Q4993.33 9893.21 4968.7 9856.54 Q4944.26 9819.69 4944.26 9749.88 Q4944.26 9679.88 4968.7 9643.21 Q4993.33 9606.36 5039.81 9606.36 Z" fill="#000000" fill-rule="evenodd" fill-opacity="1" /></svg>
