<?xml version="1.0" encoding="utf-8"?>
<svg xmlns="http://www.w3.org/2000/svg" xmlns:xlink="http://www.w3.org/1999/xlink" width="4800" height="3200" viewBox="0 0 19200 12800">
<defs>
  <clipPath id="clip5800">
    <rect x="0" y="0" width="19200" height="12800"/>
  </clipPath>
</defs>
<path clip-path="url(#clip5800)" d="
M0 12800 L19200 12800 L19200 0 L0 0  Z
  " fill="#ffffff" fill-rule="evenodd" fill-opacity="1"/>
<defs>
  <clipPath id="clip5801">
    <rect x="3840" y="0" width="13441" height="12800"/>
  </clipPath>
</defs>
<path clip-path="url(#clip5800)" d="
M2330.59 11385.4 L18822 11385.4 L18822 987.777 L2330.59 987.777  Z
  " fill="#ffffff" fill-rule="evenodd" fill-opacity="1"/>
<defs>
  <clipPath id="clip5802">
    <rect x="2330" y="987" width="16492" height="10399"/>
  </clipPath>
</defs>
<polyline clip-path="url(#clip5802)" style="stroke:#000000; stroke-width:16; stroke-opacity:0.1; fill:none" points="
  5908.93,11385.4 5908.93,987.777 
  "/>
<polyline clip-path="url(#clip5802)" style="stroke:#000000; stroke-width:16; stroke-opacity:0.1; fill:none" points="
  10576.3,11385.4 10576.3,987.777 
  "/>
<polyline clip-path="url(#clip5802)" style="stroke:#000000; stroke-width:16; stroke-opacity:0.1; fill:none" points="
  15243.7,11385.4 15243.7,987.777 
  "/>
<polyline clip-path="url(#clip5802)" style="stroke:#000000; stroke-width:16; stroke-opacity:0.1; fill:none" points="
  18355.3,11385.4 18355.3,987.777 
  "/>
<polyline clip-path="url(#clip5802)" style="stroke:#000000; stroke-width:16; stroke-opacity:0.1; fill:none" points="
  2330.59,10698.1 18822,10698.1 
  "/>
<polyline clip-path="url(#clip5802)" style="stroke:#000000; stroke-width:16; stroke-opacity:0.1; fill:none" points="
  2330.59,8617.14 18822,8617.14 
  "/>
<polyline clip-path="url(#clip5802)" style="stroke:#000000; stroke-width:16; stroke-opacity:0.1; fill:none" points="
  2330.59,6536.19 18822,6536.19 
  "/>
<polyline clip-path="url(#clip5802)" style="stroke:#000000; stroke-width:16; stroke-opacity:0.1; fill:none" points="
  2330.59,4455.23 18822,4455.23 
  "/>
<polyline clip-path="url(#clip5802)" style="stroke:#000000; stroke-width:16; stroke-opacity:0.1; fill:none" points="
  2330.59,2374.27 18822,2374.27 
  "/>
<polyline clip-path="url(#clip5800)" style="stroke:#000000; stroke-width:32; stroke-opacity:1; fill:none" points="
  2330.59,11385.4 18822,11385.4 
  "/>
<polyline clip-path="url(#clip5800)" style="stroke:#000000; stroke-width:32; stroke-opacity:1; fill:none" points="
  2330.59,11385.4 2330.59,987.777 
  "/>
<polyline clip-path="url(#clip5800)" style="stroke:#000000; stroke-width:32; stroke-opacity:1; fill:none" points="
  5908.93,11385.4 5908.93,11260.7 
  "/>
<polyline clip-path="url(#clip5800)" style="stroke:#000000; stroke-width:32; stroke-opacity:1; fill:none" points="
  10576.3,11385.4 10576.3,11260.7 
  "/>
<polyline clip-path="url(#clip5800)" style="stroke:#000000; stroke-width:32; stroke-opacity:1; fill:none" points="
  15243.7,11385.4 15243.7,11260.7 
  "/>
<polyline clip-path="url(#clip5800)" style="stroke:#000000; stroke-width:32; stroke-opacity:1; fill:none" points="
  18355.3,11385.4 18355.3,11260.7 
  "/>
<polyline clip-path="url(#clip5800)" style="stroke:#000000; stroke-width:32; stroke-opacity:1; fill:none" points="
  2330.59,10698.1 2528.49,10698.1 
  "/>
<polyline clip-path="url(#clip5800)" style="stroke:#000000; stroke-width:32; stroke-opacity:1; fill:none" points="
  2330.59,8617.14 2528.49,8617.14 
  "/>
<polyline clip-path="url(#clip5800)" style="stroke:#000000; stroke-width:32; stroke-opacity:1; fill:none" points="
  2330.59,6536.19 2528.49,6536.19 
  "/>
<polyline clip-path="url(#clip5800)" style="stroke:#000000; stroke-width:32; stroke-opacity:1; fill:none" points="
  2330.59,4455.23 2528.49,4455.23 
  "/>
<polyline clip-path="url(#clip5800)" style="stroke:#000000; stroke-width:32; stroke-opacity:1; fill:none" points="
  2330.59,2374.27 2528.49,2374.27 
  "/>
<path clip-path="url(#clip5800)" d="M 0 0 M5555.6 11561.4 Q5526.71 11561.4 5512.08 11589.9 Q5497.63 11618.2 5497.63 11675.3 Q5497.63 11732.1 5512.08 11760.6 Q5526.71 11789 5555.6 11789 Q5584.67 11789 5599.11 11760.6 Q5613.74 11732.1 5613.74 11675.3 Q5613.74 11618.2 5599.11 11589.9 Q5584.67 11561.4 5555.6 11561.4 M5555.6 11531.7 Q5602.08 11531.7 5626.52 11568.6 Q5651.15 11605.3 5651.15 11675.3 Q5651.15 11745.1 5626.52 11781.9 Q5602.08 11818.6 5555.6 11818.6 Q5509.12 11818.6 5484.49 11781.9 Q5460.04 11745.1 5460.04 11675.3 Q5460.04 11605.3 5484.49 11568.6 Q5509.12 11531.7 5555.6 11531.7 Z" fill="#000000" fill-rule="evenodd" fill-opacity="1" /><path clip-path="url(#clip5800)" d="M 0 0 M5691.71 11766.2 L5730.78 11766.2 L5730.78 11813.2 L5691.71 11813.2 L5691.71 11766.2 Z" fill="#000000" fill-rule="evenodd" fill-opacity="1" /><path clip-path="url(#clip5800)" d="M 0 0 M5855.97 11660.1 Q5830.78 11660.1 5815.97 11677.3 Q5801.34 11694.5 5801.34 11724.5 Q5801.34 11754.3 5815.97 11771.7 Q5830.78 11789 5855.97 11789 Q5881.15 11789 5895.78 11771.7 Q5910.59 11754.3 5910.59 11724.5 Q5910.59 11694.5 5895.78 11677.3 Q5881.15 11660.1 5855.97 11660.1 M5930.22 11542.8 L5930.22 11576.9 Q5916.15 11570.3 5901.71 11566.7 Q5887.45 11563.2 5873.37 11563.2 Q5836.34 11563.2 5816.71 11588.2 Q5797.26 11613.2 5794.48 11663.8 Q5805.41 11647.7 5821.89 11639.1 Q5838.37 11630.4 5858.19 11630.4 Q5899.85 11630.4 5923.93 11655.8 Q5948.19 11681 5948.19 11724.5 Q5948.19 11767.1 5923 11792.8 Q5897.82 11818.6 5855.97 11818.6 Q5808 11818.6 5782.63 11781.9 Q5757.26 11745.1 5757.26 11675.3 Q5757.26 11609.7 5788.37 11570.8 Q5819.48 11531.7 5871.89 11531.7 Q5885.97 11531.7 5900.22 11534.5 Q5914.67 11537.3 5930.22 11542.8 Z" fill="#000000" fill-rule="evenodd" fill-opacity="1" /><path clip-path="url(#clip5800)" d="M 0 0 M5995.22 11781.7 L6056.33 11781.7 L6056.33 11570.8 L5989.85 11584.1 L5989.85 11550.1 L6055.96 11536.7 L6093.37 11536.7 L6093.37 11781.7 L6154.48 11781.7 L6154.48 11813.2 L5995.22 11813.2 L5995.22 11781.7 Z" fill="#000000" fill-rule="evenodd" fill-opacity="1" /><path clip-path="url(#clip5800)" d="M 0 0 M6227.26 11781.7 L6357.81 11781.7 L6357.81 11813.2 L6182.26 11813.2 L6182.26 11781.7 Q6203.56 11759.7 6240.22 11722.7 Q6277.07 11685.4 6286.52 11674.7 Q6304.48 11654.5 6311.52 11640.6 Q6318.74 11626.5 6318.74 11613 Q6318.74 11591 6303.19 11577.1 Q6287.81 11563.2 6263 11563.2 Q6245.41 11563.2 6225.78 11569.3 Q6206.33 11575.4 6184.11 11587.8 L6184.11 11550.1 Q6206.7 11541 6226.33 11536.4 Q6245.96 11531.7 6262.26 11531.7 Q6305.22 11531.7 6330.78 11553.2 Q6356.33 11574.7 6356.33 11610.6 Q6356.33 11627.7 6349.85 11643 Q6343.56 11658.2 6326.7 11679 Q6322.07 11684.3 6297.26 11710.1 Q6272.44 11735.6 6227.26 11781.7 Z" fill="#000000" fill-rule="evenodd" fill-opacity="1" /><path clip-path="url(#clip5800)" d="M 0 0 M10220.6 11561.4 Q10191.7 11561.4 10177.1 11589.9 Q10162.6 11618.2 10162.6 11675.3 Q10162.6 11732.1 10177.1 11760.6 Q10191.7 11789 10220.6 11789 Q10249.7 11789 10264.1 11760.6 Q10278.7 11732.1 10278.7 11675.3 Q10278.7 11618.2 10264.1 11589.9 Q10249.7 11561.4 10220.6 11561.4 M10220.6 11531.7 Q10267.1 11531.7 10291.5 11568.6 Q10316.1 11605.3 10316.1 11675.3 Q10316.1 11745.1 10291.5 11781.9 Q10267.1 11818.6 10220.6 11818.6 Q10174.1 11818.6 10149.5 11781.9 Q10125 11745.1 10125 11675.3 Q10125 11605.3 10149.5 11568.6 Q10174.1 11531.7 10220.6 11531.7 Z" fill="#000000" fill-rule="evenodd" fill-opacity="1" /><path clip-path="url(#clip5800)" d="M 0 0 M10356.7 11766.2 L10395.8 11766.2 L10395.8 11813.2 L10356.7 11813.2 L10356.7 11766.2 Z" fill="#000000" fill-rule="evenodd" fill-opacity="1" /><path clip-path="url(#clip5800)" d="M 0 0 M10521 11660.1 Q10495.8 11660.1 10481 11677.3 Q10466.3 11694.5 10466.3 11724.5 Q10466.3 11754.3 10481 11771.7 Q10495.8 11789 10521 11789 Q10546.1 11789 10560.8 11771.7 Q10575.6 11754.3 10575.6 11724.5 Q10575.6 11694.5 10560.8 11677.3 Q10546.1 11660.1 10521 11660.1 M10595.2 11542.8 L10595.2 11576.9 Q10581.1 11570.3 10566.7 11566.7 Q10552.4 11563.2 10538.4 11563.2 Q10501.3 11563.2 10481.7 11588.2 Q10462.2 11613.2 10459.5 11663.8 Q10470.4 11647.7 10486.9 11639.1 Q10503.4 11630.4 10523.2 11630.4 Q10564.8 11630.4 10588.9 11655.8 Q10613.2 11681 10613.2 11724.5 Q10613.2 11767.1 10588 11792.8 Q10562.8 11818.6 10521 11818.6 Q10473 11818.6 10447.6 11781.9 Q10422.2 11745.1 10422.2 11675.3 Q10422.2 11609.7 10453.4 11570.8 Q10484.5 11531.7 10536.9 11531.7 Q10551 11531.7 10565.2 11534.5 Q10579.7 11537.3 10595.2 11542.8 Z" fill="#000000" fill-rule="evenodd" fill-opacity="1" /><path clip-path="url(#clip5800)" d="M 0 0 M10660.2 11781.7 L10721.3 11781.7 L10721.3 11570.8 L10654.8 11584.1 L10654.8 11550.1 L10720.9 11536.7 L10758.4 11536.7 L10758.4 11781.7 L10819.5 11781.7 L10819.5 11813.2 L10660.2 11813.2 L10660.2 11781.7 Z" fill="#000000" fill-rule="evenodd" fill-opacity="1" /><path clip-path="url(#clip5800)" d="M 0 0 M10860.4 11536.7 L11007.2 11536.7 L11007.2 11568.2 L10894.7 11568.2 L10894.7 11636 Q10902.8 11633.2 10910.9 11631.9 Q10919.1 11630.4 10927.2 11630.4 Q10973.5 11630.4 11000.6 11655.8 Q11027.6 11681.2 11027.6 11724.5 Q11027.6 11769.1 10999.8 11794 Q10972.1 11818.6 10921.5 11818.6 Q10904.1 11818.6 10885.9 11815.6 Q10868 11812.7 10848.7 11806.7 L10848.7 11769.1 Q10865.4 11778.2 10883.2 11782.7 Q10900.9 11787.1 10920.8 11787.1 Q10952.8 11787.1 10971.5 11770.3 Q10990.2 11753.4 10990.2 11724.5 Q10990.2 11695.6 10971.5 11678.8 Q10952.8 11661.9 10920.8 11661.9 Q10905.8 11661.9 10890.8 11665.3 Q10875.9 11668.6 10860.4 11675.6 L10860.4 11536.7 Z" fill="#000000" fill-rule="evenodd" fill-opacity="1" /><path clip-path="url(#clip5800)" d="M 0 0 M14884.4 11561.4 Q14855.5 11561.4 14840.8 11589.9 Q14826.4 11618.2 14826.4 11675.3 Q14826.4 11732.1 14840.8 11760.6 Q14855.5 11789 14884.4 11789 Q14913.4 11789 14927.9 11760.6 Q14942.5 11732.1 14942.5 11675.3 Q14942.5 11618.2 14927.9 11589.9 Q14913.4 11561.4 14884.4 11561.4 M14884.4 11531.7 Q14930.8 11531.7 14955.3 11568.6 Q14979.9 11605.3 14979.9 11675.3 Q14979.9 11745.1 14955.3 11781.9 Q14930.8 11818.6 14884.4 11818.6 Q14837.9 11818.6 14813.3 11781.9 Q14788.8 11745.1 14788.8 11675.3 Q14788.8 11605.3 14813.3 11568.6 Q14837.9 11531.7 14884.4 11531.7 Z" fill="#000000" fill-rule="evenodd" fill-opacity="1" /><path clip-path="url(#clip5800)" d="M 0 0 M15020.5 11766.2 L15059.5 11766.2 L15059.5 11813.2 L15020.5 11813.2 L15020.5 11766.2 Z" fill="#000000" fill-rule="evenodd" fill-opacity="1" /><path clip-path="url(#clip5800)" d="M 0 0 M15184.7 11660.1 Q15159.5 11660.1 15144.7 11677.3 Q15130.1 11694.5 15130.1 11724.5 Q15130.1 11754.3 15144.7 11771.7 Q15159.5 11789 15184.7 11789 Q15209.9 11789 15224.5 11771.7 Q15239.4 11754.3 15239.4 11724.5 Q15239.4 11694.5 15224.5 11677.3 Q15209.9 11660.1 15184.7 11660.1 M15259 11542.8 L15259 11576.9 Q15244.9 11570.3 15230.5 11566.7 Q15216.2 11563.2 15202.1 11563.2 Q15165.1 11563.2 15145.5 11588.2 Q15126 11613.2 15123.3 11663.8 Q15134.2 11647.7 15150.7 11639.1 Q15167.1 11630.4 15187 11630.4 Q15228.6 11630.4 15252.7 11655.8 Q15277 11681 15277 11724.5 Q15277 11767.1 15251.8 11792.8 Q15226.6 11818.6 15184.7 11818.6 Q15136.8 11818.6 15111.4 11781.9 Q15086 11745.1 15086 11675.3 Q15086 11609.7 15117.1 11570.8 Q15148.3 11531.7 15200.7 11531.7 Q15214.7 11531.7 15229 11534.5 Q15243.4 11537.3 15259 11542.8 Z" fill="#000000" fill-rule="evenodd" fill-opacity="1" /><path clip-path="url(#clip5800)" d="M 0 0 M15324 11781.7 L15385.1 11781.7 L15385.1 11570.8 L15318.6 11584.1 L15318.6 11550.1 L15384.7 11536.7 L15422.1 11536.7 L15422.1 11781.7 L15483.2 11781.7 L15483.2 11813.2 L15324 11813.2 L15324 11781.7 Z" fill="#000000" fill-rule="evenodd" fill-opacity="1" /><path clip-path="url(#clip5800)" d="M 0 0 M15603.8 11681.9 Q15577.1 11681.9 15561.8 11696.2 Q15546.6 11710.4 15546.6 11735.4 Q15546.6 11760.4 15561.8 11774.7 Q15577.1 11789 15603.8 11789 Q15630.5 11789 15645.8 11774.7 Q15661.2 11760.3 15661.2 11735.4 Q15661.2 11710.4 15645.8 11696.2 Q15630.7 11681.9 15603.8 11681.9 M15566.4 11666 Q15542.3 11660.1 15528.8 11643.6 Q15515.5 11627.1 15515.5 11603.4 Q15515.5 11570.3 15539 11551 Q15562.7 11531.7 15603.8 11531.7 Q15645.1 11531.7 15668.6 11551 Q15692.1 11570.3 15692.1 11603.4 Q15692.1 11627.1 15678.6 11643.6 Q15665.3 11660.1 15641.4 11666 Q15668.4 11672.3 15683.4 11690.6 Q15698.6 11709 15698.6 11735.4 Q15698.6 11775.6 15674 11797.1 Q15649.5 11818.6 15603.8 11818.6 Q15558.1 11818.6 15533.4 11797.1 Q15509 11775.6 15509 11735.4 Q15509 11709 15524.2 11690.6 Q15539.4 11672.3 15566.4 11666 M15552.7 11606.9 Q15552.7 11628.4 15566 11640.4 Q15579.5 11652.5 15603.8 11652.5 Q15627.9 11652.5 15641.4 11640.4 Q15655.1 11628.4 15655.1 11606.9 Q15655.1 11585.4 15641.4 11573.4 Q15627.9 11561.4 15603.8 11561.4 Q15579.5 11561.4 15566 11573.4 Q15552.7 11585.4 15552.7 11606.9 Z" fill="#000000" fill-rule="evenodd" fill-opacity="1" /><path clip-path="url(#clip5800)" d="M 0 0 M17997.1 11561.4 Q17968.2 11561.4 17953.6 11589.9 Q17939.1 11618.2 17939.1 11675.3 Q17939.1 11732.1 17953.6 11760.6 Q17968.2 11789 17997.1 11789 Q18026.1 11789 18040.6 11760.6 Q18055.2 11732.1 18055.2 11675.3 Q18055.2 11618.2 18040.6 11589.9 Q18026.1 11561.4 17997.1 11561.4 M17997.1 11531.7 Q18043.6 11531.7 18068 11568.6 Q18092.6 11605.3 18092.6 11675.3 Q18092.6 11745.1 18068 11781.9 Q18043.6 11818.6 17997.1 11818.6 Q17950.6 11818.6 17926 11781.9 Q17901.5 11745.1 17901.5 11675.3 Q17901.5 11605.3 17926 11568.6 Q17950.6 11531.7 17997.1 11531.7 Z" fill="#000000" fill-rule="evenodd" fill-opacity="1" /><path clip-path="url(#clip5800)" d="M 0 0 M18133.2 11766.2 L18172.3 11766.2 L18172.3 11813.2 L18133.2 11813.2 L18133.2 11766.2 Z" fill="#000000" fill-rule="evenodd" fill-opacity="1" /><path clip-path="url(#clip5800)" d="M 0 0 M18297.4 11660.1 Q18272.3 11660.1 18257.4 11677.3 Q18242.8 11694.5 18242.8 11724.5 Q18242.8 11754.3 18257.4 11771.7 Q18272.3 11789 18297.4 11789 Q18322.6 11789 18337.3 11771.7 Q18352.1 11754.3 18352.1 11724.5 Q18352.1 11694.5 18337.3 11677.3 Q18322.6 11660.1 18297.4 11660.1 M18371.7 11542.8 L18371.7 11576.9 Q18357.6 11570.3 18343.2 11566.7 Q18328.9 11563.2 18314.8 11563.2 Q18277.8 11563.2 18258.2 11588.2 Q18238.7 11613.2 18236 11663.8 Q18246.9 11647.7 18263.4 11639.1 Q18279.8 11630.4 18299.7 11630.4 Q18341.3 11630.4 18365.4 11655.8 Q18389.7 11681 18389.7 11724.5 Q18389.7 11767.1 18364.5 11792.8 Q18339.3 11818.6 18297.4 11818.6 Q18249.5 11818.6 18224.1 11781.9 Q18198.7 11745.1 18198.7 11675.3 Q18198.7 11609.7 18229.8 11570.8 Q18261 11531.7 18313.4 11531.7 Q18327.4 11531.7 18341.7 11534.5 Q18356.1 11537.3 18371.7 11542.8 Z" fill="#000000" fill-rule="evenodd" fill-opacity="1" /><path clip-path="url(#clip5800)" d="M 0 0 M18462.4 11781.7 L18593 11781.7 L18593 11813.2 L18417.4 11813.2 L18417.4 11781.7 Q18438.7 11759.7 18475.4 11722.7 Q18512.3 11685.4 18521.7 11674.7 Q18539.7 11654.5 18546.7 11640.6 Q18553.9 11626.5 18553.9 11613 Q18553.9 11591 18538.4 11577.1 Q18523 11563.2 18498.2 11563.2 Q18480.6 11563.2 18461 11569.3 Q18441.5 11575.4 18419.3 11587.8 L18419.3 11550.1 Q18441.9 11541 18461.5 11536.4 Q18481.1 11531.7 18497.4 11531.7 Q18540.4 11531.7 18566 11553.2 Q18591.5 11574.7 18591.5 11610.6 Q18591.5 11627.7 18585 11643 Q18578.7 11658.2 18561.9 11679 Q18557.3 11684.3 18532.4 11710.1 Q18507.6 11735.6 18462.4 11781.7 Z" fill="#000000" fill-rule="evenodd" fill-opacity="1" /><path clip-path="url(#clip5800)" d="M 0 0 M18713.5 11561.4 Q18684.7 11561.4 18670 11589.9 Q18655.6 11618.2 18655.6 11675.3 Q18655.6 11732.1 18670 11760.6 Q18684.7 11789 18713.5 11789 Q18742.6 11789 18757.1 11760.6 Q18771.7 11732.1 18771.7 11675.3 Q18771.7 11618.2 18757.1 11589.9 Q18742.6 11561.4 18713.5 11561.4 M18713.5 11531.7 Q18760 11531.7 18784.5 11568.6 Q18809.1 11605.3 18809.1 11675.3 Q18809.1 11745.1 18784.5 11781.9 Q18760 11818.6 18713.5 11818.6 Q18667.1 11818.6 18642.4 11781.9 Q18618 11745.1 18618 11675.3 Q18618 11605.3 18642.4 11568.6 Q18667.1 11531.7 18713.5 11531.7 Z" fill="#000000" fill-rule="evenodd" fill-opacity="1" /><path clip-path="url(#clip5800)" d="M 0 0 M1108.97 10584.5 Q1080.08 10584.5 1065.45 10613 Q1051.01 10641.3 1051.01 10698.4 Q1051.01 10755.2 1065.45 10783.7 Q1080.08 10812.1 1108.97 10812.1 Q1138.04 10812.1 1152.49 10783.7 Q1167.12 10755.2 1167.12 10698.4 Q1167.12 10641.3 1152.49 10613 Q1138.04 10584.5 1108.97 10584.5 M1108.97 10554.9 Q1155.45 10554.9 1179.9 10591.7 Q1204.52 10628.4 1204.52 10698.4 Q1204.52 10768.2 1179.9 10805 Q1155.45 10841.7 1108.97 10841.7 Q1062.49 10841.7 1037.86 10805 Q1013.41 10768.2 1013.41 10698.4 Q1013.41 10628.4 1037.86 10591.7 Q1062.49 10554.9 1108.97 10554.9 Z" fill="#000000" fill-rule="evenodd" fill-opacity="1" /><path clip-path="url(#clip5800)" d="M 0 0 M1245.08 10789.3 L1284.15 10789.3 L1284.15 10836.3 L1245.08 10836.3 L1245.08 10789.3 Z" fill="#000000" fill-rule="evenodd" fill-opacity="1" /><path clip-path="url(#clip5800)" d="M 0 0 M1409.34 10683.2 Q1384.15 10683.2 1369.34 10700.4 Q1354.71 10717.6 1354.71 10747.6 Q1354.71 10777.5 1369.34 10794.9 Q1384.15 10812.1 1409.34 10812.1 Q1434.52 10812.1 1449.15 10794.9 Q1463.97 10777.5 1463.97 10747.6 Q1463.97 10717.6 1449.15 10700.4 Q1434.52 10683.2 1409.34 10683.2 M1483.6 10566 L1483.6 10600 Q1469.52 10593.4 1455.08 10589.9 Q1440.82 10586.3 1426.75 10586.3 Q1389.71 10586.3 1370.08 10611.3 Q1350.63 10636.3 1347.86 10686.9 Q1358.78 10670.8 1375.26 10662.3 Q1391.75 10653.6 1411.56 10653.6 Q1453.23 10653.6 1477.3 10678.9 Q1501.56 10704.1 1501.56 10747.6 Q1501.56 10790.2 1476.38 10816 Q1451.19 10841.7 1409.34 10841.7 Q1361.38 10841.7 1336.01 10805 Q1310.64 10768.2 1310.64 10698.4 Q1310.64 10632.8 1341.75 10593.9 Q1372.86 10554.9 1425.26 10554.9 Q1439.34 10554.9 1453.6 10557.6 Q1468.04 10560.4 1483.6 10566 Z" fill="#000000" fill-rule="evenodd" fill-opacity="1" /><path clip-path="url(#clip5800)" d="M 0 0 M1644.89 10592.5 L1550.45 10740 L1644.89 10740 L1644.89 10592.5 M1635.08 10559.9 L1682.11 10559.9 L1682.11 10740 L1721.56 10740 L1721.56 10771.2 L1682.11 10771.2 L1682.11 10836.3 L1644.89 10836.3 L1644.89 10771.2 L1520.08 10771.2 L1520.08 10735 L1635.08 10559.9 Z" fill="#000000" fill-rule="evenodd" fill-opacity="1" /><path clip-path="url(#clip5800)" d="M 0 0 M1752.67 10559.9 L1930.45 10559.9 L1930.45 10575.8 L1830.08 10836.3 L1791 10836.3 L1885.45 10591.3 L1752.67 10591.3 L1752.67 10559.9 Z" fill="#000000" fill-rule="evenodd" fill-opacity="1" /><path clip-path="url(#clip5800)" d="M 0 0 M1971.37 10559.9 L2118.22 10559.9 L2118.22 10591.3 L2005.63 10591.3 L2005.63 10659.1 Q2013.78 10656.3 2021.93 10655 Q2030.08 10653.6 2038.22 10653.6 Q2084.52 10653.6 2111.56 10678.9 Q2138.59 10704.3 2138.59 10747.6 Q2138.59 10792.3 2110.82 10817.1 Q2083.04 10841.7 2032.48 10841.7 Q2015.08 10841.7 1996.93 10838.7 Q1978.96 10835.8 1959.71 10829.9 L1959.71 10792.3 Q1976.37 10801.3 1994.15 10805.8 Q2011.93 10810.2 2031.74 10810.2 Q2063.78 10810.2 2082.48 10793.4 Q2101.19 10776.5 2101.19 10747.6 Q2101.19 10718.7 2082.48 10701.9 Q2063.78 10685 2031.74 10685 Q2016.74 10685 2001.74 10688.4 Q1986.93 10691.7 1971.37 10698.7 L1971.37 10559.9 Z" fill="#000000" fill-rule="evenodd" fill-opacity="1" /><path clip-path="url(#clip5800)" d="M 0 0 M1105.64 8503.53 Q1076.75 8503.53 1062.12 8532.05 Q1047.67 8560.39 1047.67 8617.42 Q1047.67 8674.27 1062.12 8702.79 Q1076.75 8731.13 1105.64 8731.13 Q1134.71 8731.13 1149.15 8702.79 Q1163.78 8674.27 1163.78 8617.42 Q1163.78 8560.39 1149.15 8532.05 Q1134.71 8503.53 1105.64 8503.53 M1105.64 8473.9 Q1152.12 8473.9 1176.56 8510.76 Q1201.19 8547.42 1201.19 8617.42 Q1201.19 8687.24 1176.56 8724.09 Q1152.12 8760.76 1105.64 8760.76 Q1059.16 8760.76 1034.53 8724.09 Q1010.08 8687.24 1010.08 8617.42 Q1010.08 8547.42 1034.53 8510.76 Q1059.16 8473.9 1105.64 8473.9 Z" fill="#000000" fill-rule="evenodd" fill-opacity="1" /><path clip-path="url(#clip5800)" d="M 0 0 M1241.75 8708.35 L1280.82 8708.35 L1280.82 8755.38 L1241.75 8755.38 L1241.75 8708.35 Z" fill="#000000" fill-rule="evenodd" fill-opacity="1" /><path clip-path="url(#clip5800)" d="M 0 0 M1406.01 8602.24 Q1380.82 8602.24 1366.01 8619.46 Q1351.38 8636.68 1351.38 8666.68 Q1351.38 8696.5 1366.01 8713.9 Q1380.82 8731.13 1406.01 8731.13 Q1431.19 8731.13 1445.82 8713.9 Q1460.63 8696.5 1460.63 8666.68 Q1460.63 8636.68 1445.82 8619.46 Q1431.19 8602.24 1406.01 8602.24 M1480.26 8485.02 L1480.26 8519.09 Q1466.19 8512.42 1451.75 8508.9 Q1437.49 8505.39 1423.41 8505.39 Q1386.38 8505.39 1366.75 8530.39 Q1347.3 8555.39 1344.52 8605.94 Q1355.45 8589.83 1371.93 8581.31 Q1388.41 8572.61 1408.23 8572.61 Q1449.89 8572.61 1473.97 8597.98 Q1498.23 8623.16 1498.23 8666.68 Q1498.23 8709.27 1473.04 8735.01 Q1447.86 8760.76 1406.01 8760.76 Q1358.04 8760.76 1332.67 8724.09 Q1307.3 8687.24 1307.3 8617.42 Q1307.3 8551.87 1338.41 8512.98 Q1369.52 8473.9 1421.93 8473.9 Q1436 8473.9 1450.26 8476.68 Q1464.71 8479.46 1480.26 8485.02 Z" fill="#000000" fill-rule="evenodd" fill-opacity="1" /><path clip-path="url(#clip5800)" d="M 0 0 M1539.15 8478.9 L1686 8478.9 L1686 8510.39 L1573.41 8510.39 L1573.41 8578.16 Q1581.56 8575.39 1589.71 8574.09 Q1597.86 8572.61 1606 8572.61 Q1652.3 8572.61 1679.34 8597.98 Q1706.37 8623.35 1706.37 8666.68 Q1706.37 8711.31 1678.6 8736.13 Q1650.82 8760.76 1600.26 8760.76 Q1582.86 8760.76 1564.71 8757.79 Q1546.75 8754.83 1527.49 8748.9 L1527.49 8711.31 Q1544.15 8720.39 1561.93 8724.83 Q1579.71 8729.27 1599.52 8729.27 Q1631.56 8729.27 1650.26 8712.42 Q1668.97 8695.57 1668.97 8666.68 Q1668.97 8637.79 1650.26 8620.94 Q1631.56 8604.09 1599.52 8604.09 Q1584.52 8604.09 1569.52 8607.42 Q1554.71 8610.76 1539.15 8617.79 L1539.15 8478.9 Z" fill="#000000" fill-rule="evenodd" fill-opacity="1" /><path clip-path="url(#clip5800)" d="M 0 0 M1826.93 8503.53 Q1798.04 8503.53 1783.41 8532.05 Q1768.97 8560.39 1768.97 8617.42 Q1768.97 8674.27 1783.41 8702.79 Q1798.04 8731.13 1826.93 8731.13 Q1856 8731.13 1870.45 8702.79 Q1885.08 8674.27 1885.08 8617.42 Q1885.08 8560.39 1870.45 8532.05 Q1856 8503.53 1826.93 8503.53 M1826.93 8473.9 Q1873.41 8473.9 1897.85 8510.76 Q1922.48 8547.42 1922.48 8617.42 Q1922.48 8687.24 1897.85 8724.09 Q1873.41 8760.76 1826.93 8760.76 Q1780.45 8760.76 1755.82 8724.09 Q1731.37 8687.24 1731.37 8617.42 Q1731.37 8547.42 1755.82 8510.76 Q1780.45 8473.9 1826.93 8473.9 Z" fill="#000000" fill-rule="evenodd" fill-opacity="1" /><path clip-path="url(#clip5800)" d="M 0 0 M2043.04 8503.53 Q2014.15 8503.53 1999.52 8532.05 Q1985.08 8560.39 1985.08 8617.42 Q1985.08 8674.27 1999.52 8702.79 Q2014.15 8731.13 2043.04 8731.13 Q2072.11 8731.13 2086.56 8702.79 Q2101.19 8674.27 2101.19 8617.42 Q2101.19 8560.39 2086.56 8532.05 Q2072.11 8503.53 2043.04 8503.53 M2043.04 8473.9 Q2089.52 8473.9 2113.96 8510.76 Q2138.59 8547.42 2138.59 8617.42 Q2138.59 8687.24 2113.96 8724.09 Q2089.52 8760.76 2043.04 8760.76 Q1996.56 8760.76 1971.93 8724.09 Q1947.48 8687.24 1947.48 8617.42 Q1947.48 8547.42 1971.93 8510.76 Q1996.56 8473.9 2043.04 8473.9 Z" fill="#000000" fill-rule="evenodd" fill-opacity="1" /><path clip-path="url(#clip5800)" d="M 0 0 M1126.38 6422.58 Q1097.49 6422.58 1082.86 6451.1 Q1068.41 6479.43 1068.41 6536.47 Q1068.41 6593.32 1082.86 6621.84 Q1097.49 6650.17 1126.38 6650.17 Q1155.45 6650.17 1169.9 6621.84 Q1184.52 6593.32 1184.52 6536.47 Q1184.52 6479.43 1169.9 6451.1 Q1155.45 6422.58 1126.38 6422.58 M1126.38 6392.95 Q1172.86 6392.95 1197.3 6429.8 Q1221.93 6466.47 1221.93 6536.47 Q1221.93 6606.28 1197.3 6643.13 Q1172.86 6679.8 1126.38 6679.8 Q1079.9 6679.8 1055.27 6643.13 Q1030.82 6606.28 1030.82 6536.47 Q1030.82 6466.47 1055.27 6429.8 Q1079.9 6392.95 1126.38 6392.95 Z" fill="#000000" fill-rule="evenodd" fill-opacity="1" /><path clip-path="url(#clip5800)" d="M 0 0 M1262.49 6627.39 L1301.56 6627.39 L1301.56 6674.43 L1262.49 6674.43 L1262.49 6627.39 Z" fill="#000000" fill-rule="evenodd" fill-opacity="1" /><path clip-path="url(#clip5800)" d="M 0 0 M1426.75 6521.28 Q1401.56 6521.28 1386.75 6538.5 Q1372.12 6555.72 1372.12 6585.72 Q1372.12 6615.54 1386.75 6632.95 Q1401.56 6650.17 1426.75 6650.17 Q1451.93 6650.17 1466.56 6632.95 Q1481.38 6615.54 1481.38 6585.72 Q1481.38 6555.72 1466.56 6538.5 Q1451.93 6521.28 1426.75 6521.28 M1501 6404.06 L1501 6438.13 Q1486.93 6431.47 1472.49 6427.95 Q1458.23 6424.43 1444.15 6424.43 Q1407.12 6424.43 1387.49 6449.43 Q1368.04 6474.43 1365.26 6524.98 Q1376.19 6508.87 1392.67 6500.35 Q1409.15 6491.65 1428.97 6491.65 Q1470.63 6491.65 1494.71 6517.02 Q1518.97 6542.21 1518.97 6585.72 Q1518.97 6628.32 1493.78 6654.06 Q1468.6 6679.8 1426.75 6679.8 Q1378.78 6679.8 1353.41 6643.13 Q1328.04 6606.28 1328.04 6536.47 Q1328.04 6470.91 1359.15 6432.02 Q1390.26 6392.95 1442.67 6392.95 Q1456.75 6392.95 1471 6395.73 Q1485.45 6398.5 1501 6404.06 Z" fill="#000000" fill-rule="evenodd" fill-opacity="1" /><path clip-path="url(#clip5800)" d="M 0 0 M1559.89 6397.95 L1706.74 6397.95 L1706.74 6429.43 L1594.15 6429.43 L1594.15 6497.21 Q1602.3 6494.43 1610.45 6493.13 Q1618.6 6491.65 1626.74 6491.65 Q1673.04 6491.65 1700.08 6517.02 Q1727.11 6542.39 1727.11 6585.72 Q1727.11 6630.35 1699.34 6655.17 Q1671.56 6679.8 1621 6679.8 Q1603.6 6679.8 1585.45 6676.84 Q1567.49 6673.87 1548.23 6667.95 L1548.23 6630.35 Q1564.89 6639.43 1582.67 6643.87 Q1600.45 6648.32 1620.26 6648.32 Q1652.3 6648.32 1671 6631.47 Q1689.71 6614.61 1689.71 6585.72 Q1689.71 6556.84 1671 6539.98 Q1652.3 6523.13 1620.26 6523.13 Q1605.26 6523.13 1590.26 6526.47 Q1575.45 6529.8 1559.89 6536.84 L1559.89 6397.95 Z" fill="#000000" fill-rule="evenodd" fill-opacity="1" /><path clip-path="url(#clip5800)" d="M 0 0 M1799.89 6642.95 L1930.45 6642.95 L1930.45 6674.43 L1754.89 6674.43 L1754.89 6642.95 Q1776.19 6620.91 1812.85 6583.87 Q1849.71 6546.65 1859.15 6535.91 Q1877.11 6515.73 1884.15 6501.84 Q1891.37 6487.76 1891.37 6474.24 Q1891.37 6452.21 1875.82 6438.32 Q1860.45 6424.43 1835.63 6424.43 Q1818.04 6424.43 1798.41 6430.54 Q1778.97 6436.65 1756.74 6449.06 L1756.74 6411.28 Q1779.34 6402.21 1798.97 6397.58 Q1818.6 6392.95 1834.89 6392.95 Q1877.85 6392.95 1903.41 6414.43 Q1928.97 6435.91 1928.97 6471.84 Q1928.97 6488.87 1922.48 6504.24 Q1916.19 6519.43 1899.34 6540.17 Q1894.71 6545.54 1869.89 6571.28 Q1845.08 6596.84 1799.89 6642.95 Z" fill="#000000" fill-rule="evenodd" fill-opacity="1" /><path clip-path="url(#clip5800)" d="M 0 0 M1971.37 6397.95 L2118.22 6397.95 L2118.22 6429.43 L2005.63 6429.43 L2005.63 6497.21 Q2013.78 6494.43 2021.93 6493.13 Q2030.08 6491.65 2038.22 6491.65 Q2084.52 6491.65 2111.56 6517.02 Q2138.59 6542.39 2138.59 6585.72 Q2138.59 6630.35 2110.82 6655.17 Q2083.04 6679.8 2032.48 6679.8 Q2015.08 6679.8 1996.93 6676.84 Q1978.96 6673.87 1959.71 6667.95 L1959.71 6630.35 Q1976.37 6639.43 1994.15 6643.87 Q2011.93 6648.32 2031.74 6648.32 Q2063.78 6648.32 2082.48 6631.47 Q2101.19 6614.61 2101.19 6585.72 Q2101.19 6556.84 2082.48 6539.98 Q2063.78 6523.13 2031.74 6523.13 Q2016.74 6523.13 2001.74 6526.47 Q1986.93 6529.8 1971.37 6536.84 L1971.37 6397.95 Z" fill="#000000" fill-rule="evenodd" fill-opacity="1" /><path clip-path="url(#clip5800)" d="M 0 0 M1113.6 4341.62 Q1084.71 4341.62 1070.08 4370.14 Q1055.64 4398.47 1055.64 4455.51 Q1055.64 4512.36 1070.08 4540.88 Q1084.71 4569.21 1113.6 4569.21 Q1142.67 4569.21 1157.12 4540.88 Q1171.75 4512.36 1171.75 4455.51 Q1171.75 4398.47 1157.12 4370.14 Q1142.67 4341.62 1113.6 4341.62 M1113.6 4311.99 Q1160.08 4311.99 1184.52 4348.84 Q1209.15 4385.51 1209.15 4455.51 Q1209.15 4525.32 1184.52 4562.17 Q1160.08 4598.84 1113.6 4598.84 Q1067.12 4598.84 1042.49 4562.17 Q1018.04 4525.32 1018.04 4455.51 Q1018.04 4385.51 1042.49 4348.84 Q1067.12 4311.99 1113.6 4311.99 Z" fill="#000000" fill-rule="evenodd" fill-opacity="1" /><path clip-path="url(#clip5800)" d="M 0 0 M1249.71 4546.43 L1288.78 4546.43 L1288.78 4593.47 L1249.71 4593.47 L1249.71 4546.43 Z" fill="#000000" fill-rule="evenodd" fill-opacity="1" /><path clip-path="url(#clip5800)" d="M 0 0 M1413.97 4440.32 Q1388.78 4440.32 1373.97 4457.55 Q1359.34 4474.77 1359.34 4504.77 Q1359.34 4534.58 1373.97 4551.99 Q1388.78 4569.21 1413.97 4569.21 Q1439.15 4569.21 1453.78 4551.99 Q1468.6 4534.58 1468.6 4504.77 Q1468.6 4474.77 1453.78 4457.55 Q1439.15 4440.32 1413.97 4440.32 M1488.23 4323.1 L1488.23 4357.18 Q1474.15 4350.51 1459.71 4346.99 Q1445.45 4343.47 1431.38 4343.47 Q1394.34 4343.47 1374.71 4368.47 Q1355.26 4393.47 1352.49 4444.03 Q1363.41 4427.92 1379.89 4419.4 Q1396.38 4410.69 1416.19 4410.69 Q1457.86 4410.69 1481.93 4436.06 Q1506.19 4461.25 1506.19 4504.77 Q1506.19 4547.36 1481 4573.1 Q1455.82 4598.84 1413.97 4598.84 Q1366.01 4598.84 1340.64 4562.17 Q1315.26 4525.32 1315.26 4455.51 Q1315.26 4389.95 1346.38 4351.06 Q1377.49 4311.99 1429.89 4311.99 Q1443.97 4311.99 1458.23 4314.77 Q1472.67 4317.55 1488.23 4323.1 Z" fill="#000000" fill-rule="evenodd" fill-opacity="1" /><path clip-path="url(#clip5800)" d="M 0 0 M1547.12 4316.99 L1693.97 4316.99 L1693.97 4348.47 L1581.37 4348.47 L1581.37 4416.25 Q1589.52 4413.47 1597.67 4412.18 Q1605.82 4410.69 1613.97 4410.69 Q1660.26 4410.69 1687.3 4436.06 Q1714.34 4461.43 1714.34 4504.77 Q1714.34 4549.4 1686.56 4574.21 Q1658.78 4598.84 1608.23 4598.84 Q1590.82 4598.84 1572.67 4595.88 Q1554.71 4592.92 1535.45 4586.99 L1535.45 4549.4 Q1552.12 4558.47 1569.89 4562.92 Q1587.67 4567.36 1607.49 4567.36 Q1639.52 4567.36 1658.23 4550.51 Q1676.93 4533.66 1676.93 4504.77 Q1676.93 4475.88 1658.23 4459.03 Q1639.52 4442.18 1607.49 4442.18 Q1592.49 4442.18 1577.49 4445.51 Q1562.67 4448.84 1547.12 4455.88 L1547.12 4316.99 Z" fill="#000000" fill-rule="evenodd" fill-opacity="1" /><path clip-path="url(#clip5800)" d="M 0 0 M1755.26 4316.99 L1902.11 4316.99 L1902.11 4348.47 L1789.52 4348.47 L1789.52 4416.25 Q1797.67 4413.47 1805.82 4412.18 Q1813.97 4410.69 1822.11 4410.69 Q1868.41 4410.69 1895.45 4436.06 Q1922.48 4461.43 1922.48 4504.77 Q1922.48 4549.4 1894.71 4574.21 Q1866.93 4598.84 1816.37 4598.84 Q1798.97 4598.84 1780.82 4595.88 Q1762.86 4592.92 1743.6 4586.99 L1743.6 4549.4 Q1760.26 4558.47 1778.04 4562.92 Q1795.82 4567.36 1815.63 4567.36 Q1847.67 4567.36 1866.37 4550.51 Q1885.08 4533.66 1885.08 4504.77 Q1885.08 4475.88 1866.37 4459.03 Q1847.67 4442.18 1815.63 4442.18 Q1800.63 4442.18 1785.63 4445.51 Q1770.82 4448.84 1755.26 4455.88 L1755.26 4316.99 Z" fill="#000000" fill-rule="evenodd" fill-opacity="1" /><path clip-path="url(#clip5800)" d="M 0 0 M2043.04 4341.62 Q2014.15 4341.62 1999.52 4370.14 Q1985.08 4398.47 1985.08 4455.51 Q1985.08 4512.36 1999.52 4540.88 Q2014.15 4569.21 2043.04 4569.21 Q2072.11 4569.21 2086.56 4540.88 Q2101.19 4512.36 2101.19 4455.51 Q2101.19 4398.47 2086.56 4370.14 Q2072.11 4341.62 2043.04 4341.62 M2043.04 4311.99 Q2089.52 4311.99 2113.96 4348.84 Q2138.59 4385.51 2138.59 4455.51 Q2138.59 4525.32 2113.96 4562.17 Q2089.52 4598.84 2043.04 4598.84 Q1996.56 4598.84 1971.93 4562.17 Q1947.48 4525.32 1947.48 4455.51 Q1947.48 4385.51 1971.93 4348.84 Q1996.56 4311.99 2043.04 4311.99 Z" fill="#000000" fill-rule="evenodd" fill-opacity="1" /><path clip-path="url(#clip5800)" d="M 0 0 M1120.82 2260.66 Q1091.93 2260.66 1077.3 2289.18 Q1062.86 2317.51 1062.86 2374.55 Q1062.86 2431.4 1077.3 2459.92 Q1091.93 2488.25 1120.82 2488.25 Q1149.9 2488.25 1164.34 2459.92 Q1178.97 2431.4 1178.97 2374.55 Q1178.97 2317.51 1164.34 2289.18 Q1149.9 2260.66 1120.82 2260.66 M1120.82 2231.03 Q1167.3 2231.03 1191.75 2267.89 Q1216.38 2304.55 1216.38 2374.55 Q1216.38 2444.37 1191.75 2481.22 Q1167.3 2517.88 1120.82 2517.88 Q1074.34 2517.88 1049.71 2481.22 Q1025.27 2444.37 1025.27 2374.55 Q1025.27 2304.55 1049.71 2267.89 Q1074.34 2231.03 1120.82 2231.03 Z" fill="#000000" fill-rule="evenodd" fill-opacity="1" /><path clip-path="url(#clip5800)" d="M 0 0 M1256.93 2465.48 L1296.01 2465.48 L1296.01 2512.51 L1256.93 2512.51 L1256.93 2465.48 Z" fill="#000000" fill-rule="evenodd" fill-opacity="1" /><path clip-path="url(#clip5800)" d="M 0 0 M1421.19 2359.37 Q1396.01 2359.37 1381.19 2376.59 Q1366.56 2393.81 1366.56 2423.81 Q1366.56 2453.63 1381.19 2471.03 Q1396.01 2488.25 1421.19 2488.25 Q1446.38 2488.25 1461 2471.03 Q1475.82 2453.63 1475.82 2423.81 Q1475.82 2393.81 1461 2376.59 Q1446.38 2359.37 1421.19 2359.37 M1495.45 2242.14 L1495.45 2276.22 Q1481.38 2269.55 1466.93 2266.03 Q1452.67 2262.52 1438.6 2262.52 Q1401.56 2262.52 1381.93 2287.52 Q1362.49 2312.51 1359.71 2363.07 Q1370.63 2346.96 1387.12 2338.44 Q1403.6 2329.74 1423.41 2329.74 Q1465.08 2329.74 1489.15 2355.11 Q1513.41 2380.29 1513.41 2423.81 Q1513.41 2466.4 1488.23 2492.14 Q1463.04 2517.88 1421.19 2517.88 Q1373.23 2517.88 1347.86 2481.22 Q1322.49 2444.37 1322.49 2374.55 Q1322.49 2309 1353.6 2270.11 Q1384.71 2231.03 1437.12 2231.03 Q1451.19 2231.03 1465.45 2233.81 Q1479.89 2236.59 1495.45 2242.14 Z" fill="#000000" fill-rule="evenodd" fill-opacity="1" /><path clip-path="url(#clip5800)" d="M 0 0 M1554.34 2236.03 L1701.19 2236.03 L1701.19 2267.52 L1588.6 2267.52 L1588.6 2335.29 Q1596.74 2332.51 1604.89 2331.22 Q1613.04 2329.74 1621.19 2329.74 Q1667.49 2329.74 1694.52 2355.11 Q1721.56 2380.48 1721.56 2423.81 Q1721.56 2468.44 1693.78 2493.25 Q1666 2517.88 1615.45 2517.88 Q1598.04 2517.88 1579.89 2514.92 Q1561.93 2511.96 1542.67 2506.03 L1542.67 2468.44 Q1559.34 2477.51 1577.12 2481.96 Q1594.89 2486.4 1614.71 2486.4 Q1646.74 2486.4 1665.45 2469.55 Q1684.15 2452.7 1684.15 2423.81 Q1684.15 2394.92 1665.45 2378.07 Q1646.74 2361.22 1614.71 2361.22 Q1599.71 2361.22 1584.71 2364.55 Q1569.89 2367.89 1554.34 2374.92 L1554.34 2236.03 Z" fill="#000000" fill-rule="evenodd" fill-opacity="1" /><path clip-path="url(#clip5800)" d="M 0 0 M1752.67 2236.03 L1930.45 2236.03 L1930.45 2251.96 L1830.08 2512.51 L1791 2512.51 L1885.45 2267.52 L1752.67 2267.52 L1752.67 2236.03 Z" fill="#000000" fill-rule="evenodd" fill-opacity="1" /><path clip-path="url(#clip5800)" d="M 0 0 M1971.37 2236.03 L2118.22 2236.03 L2118.22 2267.52 L2005.63 2267.52 L2005.63 2335.29 Q2013.78 2332.51 2021.93 2331.22 Q2030.08 2329.74 2038.22 2329.74 Q2084.52 2329.74 2111.56 2355.11 Q2138.59 2380.48 2138.59 2423.81 Q2138.59 2468.44 2110.82 2493.25 Q2083.04 2517.88 2032.48 2517.88 Q2015.08 2517.88 1996.93 2514.92 Q1978.96 2511.96 1959.71 2506.03 L1959.71 2468.44 Q1976.37 2477.51 1994.15 2481.96 Q2011.93 2486.4 2031.74 2486.4 Q2063.78 2486.4 2082.48 2469.55 Q2101.19 2452.7 2101.19 2423.81 Q2101.19 2394.92 2082.48 2378.07 Q2063.78 2361.22 2031.74 2361.22 Q2016.74 2361.22 2001.74 2364.55 Q1986.93 2367.89 1971.37 2374.92 L1971.37 2236.03 Z" fill="#000000" fill-rule="evenodd" fill-opacity="1" /><path clip-path="url(#clip5800)" d="M 0 0 M5972.22 228.341 L5972.22 284.73 Q5946.95 271.767 5919.73 265.286 Q5892.5 258.804 5863.34 258.804 Q5818.94 258.804 5796.58 272.415 Q5774.54 286.026 5774.54 313.248 Q5774.54 333.989 5790.42 345.98 Q5806.3 357.646 5854.26 368.341 L5874.68 372.878 Q5938.2 386.489 5964.77 411.442 Q5991.67 436.072 5991.67 480.47 Q5991.67 531.025 5951.48 560.516 Q5911.62 590.006 5841.62 590.006 Q5812.46 590.006 5780.7 584.173 Q5749.26 578.664 5714.26 567.321 L5714.26 505.747 Q5747.32 522.923 5779.4 531.673 Q5811.48 540.099 5842.92 540.099 Q5885.05 540.099 5907.73 525.84 Q5930.42 511.257 5930.42 485.007 Q5930.42 460.701 5913.89 447.738 Q5897.69 434.775 5842.27 422.785 L5821.53 417.924 Q5766.11 406.257 5741.49 382.276 Q5716.86 357.97 5716.86 315.841 Q5716.86 264.637 5753.15 236.767 Q5789.45 208.897 5856.21 208.897 Q5889.26 208.897 5918.43 213.758 Q5947.6 218.619 5972.22 228.341 Z" fill="#000000" fill-rule="evenodd" fill-opacity="1" /><path clip-path="url(#clip5800)" d="M 0 0 M6054.22 217.647 L6113.84 217.647 L6113.84 580.608 L6054.22 580.608 L6054.22 217.647 M6054.22 76.3514 L6113.84 76.3514 L6113.84 151.86 L6054.22 151.86 L6054.22 76.3514 Z" fill="#000000" fill-rule="evenodd" fill-opacity="1" /><path clip-path="url(#clip5800)" d="M 0 0 M6150.46 217.647 L6433.7 217.647 L6433.7 272.091 L6209.45 532.969 L6433.7 532.969 L6433.7 580.608 L6142.36 580.608 L6142.36 526.164 L6366.62 265.286 L6150.46 265.286 L6150.46 217.647 Z" fill="#000000" fill-rule="evenodd" fill-opacity="1" /><path clip-path="url(#clip5800)" d="M 0 0 M6806.71 384.22 L6806.71 413.387 L6532.55 413.387 Q6536.43 474.96 6569.49 507.368 Q6602.87 539.451 6662.17 539.451 Q6696.53 539.451 6728.61 531.025 Q6761.02 522.599 6792.78 505.747 L6792.78 562.136 Q6760.69 575.747 6726.99 582.877 Q6693.29 590.006 6658.61 590.006 Q6571.76 590.006 6520.88 539.451 Q6470.32 488.896 6470.32 402.692 Q6470.32 313.572 6518.29 261.397 Q6566.57 208.897 6648.24 208.897 Q6721.48 208.897 6763.93 256.212 Q6806.71 303.202 6806.71 384.22 M6747.08 366.72 Q6746.43 317.785 6719.54 288.619 Q6692.96 259.452 6648.89 259.452 Q6598.98 259.452 6568.84 287.647 Q6539.03 315.841 6534.49 367.044 L6747.08 366.72 Z" fill="#000000" fill-rule="evenodd" fill-opacity="1" /><path clip-path="url(#clip5800)" d="M 0 0 M6884.49 498.294 L6952.87 498.294 L6952.87 580.608 L6884.49 580.608 L6884.49 498.294 M6884.49 237.415 L6952.87 237.415 L6952.87 319.73 L6884.49 319.73 L6884.49 237.415 Z" fill="#000000" fill-rule="evenodd" fill-opacity="1" /><path clip-path="url(#clip5800)" d="M 0 0 M7171.94 312.6 Q7127.87 312.6 7101.94 342.739 Q7076.34 372.878 7076.34 425.377 Q7076.34 477.553 7101.94 508.016 Q7127.87 538.155 7171.94 538.155 Q7216.01 538.155 7241.62 508.016 Q7267.54 477.553 7267.54 425.377 Q7267.54 372.878 7241.62 342.739 Q7216.01 312.6 7171.94 312.6 M7301.89 107.462 L7301.89 167.092 Q7277.26 155.425 7251.99 149.268 Q7227.03 143.11 7202.4 143.11 Q7137.59 143.11 7103.24 186.86 Q7069.21 230.61 7064.35 319.082 Q7083.47 290.887 7112.31 275.98 Q7141.15 260.749 7175.83 260.749 Q7248.75 260.749 7290.88 305.147 Q7333.33 349.22 7333.33 425.377 Q7333.33 499.914 7289.25 544.96 Q7245.18 590.006 7171.94 590.006 Q7088.01 590.006 7043.61 525.84 Q6999.21 461.349 6999.21 339.174 Q6999.21 224.453 7053.65 156.397 Q7108.1 88.018 7199.81 88.018 Q7224.44 88.018 7249.39 92.8791 Q7274.67 97.7402 7301.89 107.462 Z" fill="#000000" fill-rule="evenodd" fill-opacity="1" /><path clip-path="url(#clip5800)" d="M 0 0 M7411.11 498.294 L7479.49 498.294 L7479.49 554.034 L7426.34 657.737 L7384.53 657.737 L7411.11 554.034 L7411.11 498.294 Z" fill="#000000" fill-rule="evenodd" fill-opacity="1" /><path clip-path="url(#clip5800)" d="M 0 0 M7690.46 350.841 Q7643.79 350.841 7616.89 375.794 Q7590.32 400.748 7590.32 444.498 Q7590.32 488.247 7616.89 513.201 Q7643.79 538.155 7690.46 538.155 Q7737.12 538.155 7764.02 513.201 Q7790.92 487.923 7790.92 444.498 Q7790.92 400.748 7764.02 375.794 Q7737.45 350.841 7690.46 350.841 M7624.99 322.97 Q7582.86 312.6 7559.21 283.758 Q7535.87 254.915 7535.87 213.434 Q7535.87 155.425 7577.03 121.722 Q7618.51 88.018 7690.46 88.018 Q7762.72 88.018 7803.88 121.722 Q7845.04 155.425 7845.04 213.434 Q7845.04 254.915 7821.38 283.758 Q7798.05 312.6 7756.24 322.97 Q7803.56 333.989 7829.81 366.072 Q7856.38 398.155 7856.38 444.498 Q7856.38 514.821 7813.28 552.414 Q7770.5 590.006 7690.46 590.006 Q7610.41 590.006 7567.31 552.414 Q7524.53 514.821 7524.53 444.498 Q7524.53 398.155 7551.11 366.072 Q7577.68 333.989 7624.99 322.97 M7601.01 219.591 Q7601.01 257.184 7624.35 278.249 Q7648 299.313 7690.46 299.313 Q7732.59 299.313 7756.24 278.249 Q7780.22 257.184 7780.22 219.591 Q7780.22 181.999 7756.24 160.934 Q7732.59 139.87 7690.46 139.87 Q7648 139.87 7624.35 160.934 Q7601.01 181.999 7601.01 219.591 Z" fill="#000000" fill-rule="evenodd" fill-opacity="1" /><path clip-path="url(#clip5800)" d="M 0 0 M7934.16 498.294 L8002.54 498.294 L8002.54 554.034 L7949.39 657.737 L7907.58 657.737 L7934.16 554.034 L7934.16 498.294 Z" fill="#000000" fill-rule="evenodd" fill-opacity="1" /><path clip-path="url(#clip5800)" d="M 0 0 M8084.85 525.516 L8191.8 525.516 L8191.8 156.397 L8075.45 179.731 L8075.45 120.101 L8191.15 96.768 L8256.61 96.768 L8256.61 525.516 L8363.55 525.516 L8363.55 580.608 L8084.85 580.608 L8084.85 525.516 Z" fill="#000000" fill-rule="evenodd" fill-opacity="1" /><path clip-path="url(#clip5800)" d="M 0 0 M8574.53 139.87 Q8523.97 139.87 8498.37 189.777 Q8473.09 239.36 8473.09 339.174 Q8473.09 438.664 8498.37 488.571 Q8523.97 538.155 8574.53 538.155 Q8625.41 538.155 8650.68 488.571 Q8676.28 438.664 8676.28 339.174 Q8676.28 239.36 8650.68 189.777 Q8625.41 139.87 8574.53 139.87 M8574.53 88.018 Q8655.87 88.018 8698.65 152.508 Q8741.75 216.675 8741.75 339.174 Q8741.75 461.349 8698.65 525.84 Q8655.87 590.006 8574.53 590.006 Q8493.18 590.006 8450.08 525.84 Q8407.3 461.349 8407.3 339.174 Q8407.3 216.675 8450.08 152.508 Q8493.18 88.018 8574.53 88.018 Z" fill="#000000" fill-rule="evenodd" fill-opacity="1" /><path clip-path="url(#clip5800)" d="M 0 0 M8819.52 498.294 L8887.9 498.294 L8887.9 554.034 L8834.76 657.737 L8792.95 657.737 L8819.52 554.034 L8819.52 498.294 Z" fill="#000000" fill-rule="evenodd" fill-opacity="1" /><path clip-path="url(#clip5800)" d="M 0 0 M8970.22 525.516 L9077.16 525.516 L9077.16 156.397 L8960.82 179.731 L8960.82 120.101 L9076.51 96.768 L9141.98 96.768 L9141.98 525.516 L9248.92 525.516 L9248.92 580.608 L8970.22 580.608 L8970.22 525.516 Z" fill="#000000" fill-rule="evenodd" fill-opacity="1" /><path clip-path="url(#clip5800)" d="M 0 0 M9376.28 525.516 L9604.75 525.516 L9604.75 580.608 L9297.53 580.608 L9297.53 525.516 Q9334.8 486.951 9398.97 422.137 Q9463.46 356.998 9479.98 338.202 Q9511.42 302.878 9523.73 278.573 Q9536.37 253.943 9536.37 230.286 Q9536.37 191.721 9509.15 167.416 Q9482.25 143.11 9438.83 143.11 Q9408.04 143.11 9373.69 153.805 Q9339.66 164.499 9300.77 186.212 L9300.77 120.101 Q9340.31 104.222 9374.66 96.1199 Q9409.01 88.018 9437.53 88.018 Q9512.72 88.018 9557.44 125.61 Q9602.16 163.203 9602.16 226.073 Q9602.16 255.888 9590.82 282.786 Q9579.8 309.359 9550.31 345.656 Q9542.21 355.054 9498.78 400.1 Q9455.35 444.822 9376.28 525.516 Z" fill="#000000" fill-rule="evenodd" fill-opacity="1" /><path clip-path="url(#clip5800)" d="M 0 0 M9682.53 237.415 L9750.91 237.415 L9750.91 319.73 L9682.53 319.73 L9682.53 237.415 M9682.53 498.294 L9750.91 498.294 L9750.91 554.034 L9697.76 657.737 L9655.96 657.737 L9682.53 554.034 L9682.53 498.294 Z" fill="#000000" fill-rule="evenodd" fill-opacity="1" /><path clip-path="url(#clip5800)" d="M 0 0 M10223.4 141.166 Q10152.1 141.166 10110 194.314 Q10068.2 247.462 10068.2 339.174 Q10068.2 430.563 10110 483.71 Q10152.1 536.858 10223.4 536.858 Q10294.7 536.858 10336.2 483.71 Q10378 430.563 10378 339.174 Q10378 247.462 10336.2 194.314 Q10294.7 141.166 10223.4 141.166 M10315.1 571.858 L10401.3 666.163 L10322.2 666.163 L10250.6 588.71 Q10239.9 589.358 10234.1 589.682 Q10228.6 590.006 10223.4 590.006 Q10121.3 590.006 10060.1 521.951 Q9999.15 453.572 9999.15 339.174 Q9999.15 224.453 10060.1 156.397 Q10121.3 88.018 10223.4 88.018 Q10325.2 88.018 10386.1 156.397 Q10447 224.453 10447 339.174 Q10447 423.433 10413 483.386 Q10379.3 543.34 10315.1 571.858 Z" fill="#000000" fill-rule="evenodd" fill-opacity="1" /><path clip-path="url(#clip5800)" d="M 0 0 M10728.3 279.221 L11143.8 279.221 L11143.8 333.665 L10728.3 333.665 L10728.3 279.221 M10728.3 411.442 L11143.8 411.442 L11143.8 466.535 L10728.3 466.535 L10728.3 411.442 Z" fill="#000000" fill-rule="evenodd" fill-opacity="1" /><path clip-path="url(#clip5800)" d="M 0 0 M11437.1 525.516 L11544 525.516 L11544 156.397 L11427.7 179.731 L11427.7 120.101 L11543.4 96.768 L11608.8 96.768 L11608.8 525.516 L11715.8 525.516 L11715.8 580.608 L11437.1 580.608 L11437.1 525.516 Z" fill="#000000" fill-rule="evenodd" fill-opacity="1" /><path clip-path="url(#clip5800)" d="M 0 0 M11934.8 312.6 Q11890.8 312.6 11864.8 342.739 Q11839.2 372.878 11839.2 425.377 Q11839.2 477.553 11864.8 508.016 Q11890.8 538.155 11934.8 538.155 Q11978.9 538.155 12004.5 508.016 Q12030.4 477.553 12030.4 425.377 Q12030.4 372.878 12004.5 342.739 Q11978.9 312.6 11934.8 312.6 M12064.8 107.462 L12064.8 167.092 Q12040.2 155.425 12014.9 149.268 Q11989.9 143.11 11965.3 143.11 Q11900.5 143.11 11866.1 186.86 Q11832.1 230.61 11827.2 319.082 Q11846.4 290.887 11875.2 275.98 Q11904 260.749 11938.7 260.749 Q12011.6 260.749 12053.8 305.147 Q12096.2 349.22 12096.2 425.377 Q12096.2 499.914 12052.1 544.96 Q12008.1 590.006 11934.8 590.006 Q11850.9 590.006 11806.5 525.84 Q11762.1 461.349 11762.1 339.174 Q11762.1 224.453 11816.5 156.397 Q11871 88.018 11962.7 88.018 Q11987.3 88.018 12012.3 92.8791 Q12037.6 97.7402 12064.8 107.462 Z" fill="#000000" fill-rule="evenodd" fill-opacity="1" /><path clip-path="url(#clip5800)" d="M 0 0 M12174 237.415 L12242.4 237.415 L12242.4 319.73 L12174 319.73 L12174 237.415 M12174 498.294 L12242.4 498.294 L12242.4 554.034 L12189.2 657.737 L12147.4 657.737 L12174 554.034 L12174 498.294 Z" fill="#000000" fill-rule="evenodd" fill-opacity="1" /><path clip-path="url(#clip5800)" d="M 0 0 M12518.5 96.768 L12583.9 96.768 L12583.9 546.904 Q12583.9 634.404 12550.6 673.941 Q12517.5 713.478 12443.9 713.478 L12419 713.478 L12419 658.385 L12439.4 658.385 Q12482.8 658.385 12500.7 634.08 Q12518.5 609.775 12518.5 546.904 L12518.5 96.768 Z" fill="#000000" fill-rule="evenodd" fill-opacity="1" /><path clip-path="url(#clip5800)" d="M 0 0 M12922.3 690.793 L12922.3 737.135 L12577.5 737.135 L12577.5 690.793 L12922.3 690.793 Z" fill="#000000" fill-rule="evenodd" fill-opacity="1" /><path clip-path="url(#clip5800)" d="M 0 0 M13004.6 525.516 L13111.5 525.516 L13111.5 156.397 L12995.2 179.731 L12995.2 120.101 L13110.9 96.768 L13176.4 96.768 L13176.4 525.516 L13283.3 525.516 L13283.3 580.608 L13004.6 580.608 L13004.6 525.516 Z" fill="#000000" fill-rule="evenodd" fill-opacity="1" /><path clip-path="url(#clip5800)" d="M 0 0 M13564.6 279.221 L13980.1 279.221 L13980.1 333.665 L13564.6 333.665 L13564.6 279.221 M13564.6 411.442 L13980.1 411.442 L13980.1 466.535 L13564.6 466.535 L13564.6 411.442 Z" fill="#000000" fill-rule="evenodd" fill-opacity="1" /><path clip-path="url(#clip5800)" d="M 0 0 M14402 139.87 Q14351.4 139.87 14325.8 189.777 Q14300.6 239.36 14300.6 339.174 Q14300.6 438.664 14325.8 488.571 Q14351.4 538.155 14402 538.155 Q14452.9 538.155 14478.2 488.571 Q14503.8 438.664 14503.8 339.174 Q14503.8 239.36 14478.2 189.777 Q14452.9 139.87 14402 139.87 M14402 88.018 Q14483.3 88.018 14526.1 152.508 Q14569.2 216.675 14569.2 339.174 Q14569.2 461.349 14526.1 525.84 Q14483.3 590.006 14402 590.006 Q14320.7 590.006 14277.6 525.84 Q14234.8 461.349 14234.8 339.174 Q14234.8 216.675 14277.6 152.508 Q14320.7 88.018 14402 88.018 Z" fill="#000000" fill-rule="evenodd" fill-opacity="1" /><path clip-path="url(#clip5800)" d="M 0 0 M14640.2 498.294 L14708.6 498.294 L14708.6 580.608 L14640.2 580.608 L14640.2 498.294 Z" fill="#000000" fill-rule="evenodd" fill-opacity="1" /><path clip-path="url(#clip5800)" d="M 0 0 M14763 96.768 L15074.1 96.768 L15074.1 124.638 L14898.5 580.608 L14830.1 580.608 L14995.4 151.86 L14763 151.86 L14763 96.768 Z" fill="#000000" fill-rule="evenodd" fill-opacity="1" /><path clip-path="url(#clip5800)" d="M 0 0 M15145.7 96.768 L15402.7 96.768 L15402.7 151.86 L15205.7 151.86 L15205.7 270.471 Q15220 265.61 15234.2 263.341 Q15248.5 260.749 15262.7 260.749 Q15343.7 260.749 15391.1 305.147 Q15438.4 349.544 15438.4 425.377 Q15438.4 503.479 15389.8 546.904 Q15341.2 590.006 15252.7 590.006 Q15222.2 590.006 15190.5 584.821 Q15159 579.636 15125.3 569.265 L15125.3 503.479 Q15154.5 519.358 15185.6 527.136 Q15216.7 534.914 15251.4 534.914 Q15307.5 534.914 15340.2 505.423 Q15372.9 475.933 15372.9 425.377 Q15372.9 374.822 15340.2 345.331 Q15307.5 315.841 15251.4 315.841 Q15225.1 315.841 15198.9 321.674 Q15173 327.508 15145.7 339.822 L15145.7 96.768 Z" fill="#000000" fill-rule="evenodd" fill-opacity="1" /><path clip-path="url(#clip5800)" d="M 0 0 M10415.5 12068.2 L10737.1 12068.2 L10737.1 12111.5 L10602.2 12111.5 L10602.2 12448.4 L10550.5 12448.4 L10550.5 12111.5 L10415.5 12111.5 L10415.5 12068.2 Z" fill="#000000" fill-rule="evenodd" fill-opacity="1" /><path clip-path="url(#clip5800)" d="M 0 0 M522.483 7641.94 L661.765 7641.94 L661.765 7559.44 Q661.765 7517.93 644.705 7498.07 Q627.39 7477.96 591.997 7477.96 Q556.349 7477.96 539.543 7498.07 Q522.483 7517.93 522.483 7559.44 L522.483 7641.94 M366.142 7641.94 L480.724 7641.94 L480.724 7565.8 Q480.724 7528.12 466.72 7509.78 Q452.461 7491.2 423.433 7491.2 Q394.66 7491.2 380.401 7509.78 Q366.142 7528.12 366.142 7565.8 L366.142 7641.94 M323.873 7693.37 L323.873 7561.98 Q323.873 7503.16 348.318 7471.33 Q372.762 7439.51 417.831 7439.51 Q452.715 7439.51 473.34 7455.8 Q493.965 7472.1 499.058 7503.67 Q507.206 7465.73 533.178 7444.85 Q558.895 7423.72 597.599 7423.72 Q648.524 7423.72 676.279 7458.35 Q704.033 7492.98 704.033 7556.89 L704.033 7693.37 L323.873 7693.37 Z" fill="#000000" fill-rule="evenodd" fill-opacity="1" /><path clip-path="url(#clip5800)" d="M 0 0 M418.85 7374.58 L418.85 7327.72 L704.033 7327.72 L704.033 7374.58 L418.85 7374.58 M307.832 7374.58 L307.832 7327.72 L367.16 7327.72 L367.16 7374.58 L307.832 7374.58 Z" fill="#000000" fill-rule="evenodd" fill-opacity="1" /><path clip-path="url(#clip5800)" d="M 0 0 M531.905 7041.52 L704.033 7041.52 L704.033 7088.37 L533.432 7088.37 Q492.946 7088.37 472.831 7104.16 Q452.715 7119.95 452.715 7151.52 Q452.715 7189.46 476.905 7211.36 Q501.095 7233.26 542.854 7233.26 L704.033 7233.26 L704.033 7280.36 L418.85 7280.36 L418.85 7233.26 L463.155 7233.26 Q437.437 7216.45 424.706 7193.79 Q411.975 7170.87 411.975 7141.08 Q411.975 7091.94 442.53 7066.73 Q472.831 7041.52 531.905 7041.52 Z" fill="#000000" fill-rule="evenodd" fill-opacity="1" /><path clip-path="url(#clip5800)" d="M 0 0 M462.136 6804.72 L307.832 6804.72 L307.832 6757.87 L704.033 6757.87 L704.033 6804.72 L661.256 6804.72 Q686.719 6819.49 699.195 6842.15 Q711.417 6864.56 711.417 6896.13 Q711.417 6947.82 670.168 6980.41 Q628.918 7012.75 561.696 7012.75 Q494.474 7012.75 453.224 6980.41 Q411.975 6947.82 411.975 6896.13 Q411.975 6864.56 424.451 6842.15 Q436.674 6819.49 462.136 6804.72 M561.696 6964.37 Q613.386 6964.37 642.922 6943.24 Q672.205 6921.85 672.205 6884.67 Q672.205 6847.5 642.922 6826.11 Q613.386 6804.72 561.696 6804.72 Q510.007 6804.72 480.724 6826.11 Q451.187 6847.5 451.187 6884.67 Q451.187 6921.85 480.724 6943.24 Q510.007 6964.37 561.696 6964.37 Z" fill="#000000" fill-rule="evenodd" fill-opacity="1" /><path clip-path="url(#clip5800)" d="M 0 0 M549.729 6464.79 L572.645 6464.79 L572.645 6680.2 Q621.024 6677.15 646.487 6651.18 Q671.695 6624.95 671.695 6578.35 Q671.695 6551.36 665.075 6526.15 Q658.455 6500.69 645.214 6475.74 L689.519 6475.74 Q700.214 6500.95 705.816 6527.43 Q711.417 6553.91 711.417 6581.15 Q711.417 6649.39 671.695 6689.37 Q631.973 6729.09 564.242 6729.09 Q494.22 6729.09 453.224 6691.41 Q411.975 6653.47 411.975 6589.3 Q411.975 6531.76 449.15 6498.4 Q486.071 6464.79 549.729 6464.79 M535.979 6511.64 Q497.53 6512.15 474.613 6533.28 Q451.697 6554.16 451.697 6588.79 Q451.697 6628.01 473.849 6651.69 Q496.002 6675.11 536.233 6678.68 L535.979 6511.64 Z" fill="#000000" fill-rule="evenodd" fill-opacity="1" /><path clip-path="url(#clip5800)" d="M 0 0 M462.646 6250.39 Q458.062 6258.29 456.025 6267.71 Q453.734 6276.87 453.734 6288.08 Q453.734 6327.8 479.706 6349.19 Q505.423 6370.32 553.803 6370.32 L704.033 6370.32 L704.033 6417.43 L418.85 6417.43 L418.85 6370.32 L463.155 6370.32 Q437.183 6355.55 424.706 6331.87 Q411.975 6308.19 411.975 6274.33 Q411.975 6269.49 412.739 6263.63 Q413.248 6257.78 414.521 6250.65 L462.646 6250.39 Z" fill="#000000" fill-rule="evenodd" fill-opacity="1" /><path clip-path="url(#clip5800)" d="M 0 0 M323.873 6156.94 L465.192 6156.94 L465.192 6200.23 L323.873 6200.23 L323.873 6156.94 Z" fill="#000000" fill-rule="evenodd" fill-opacity="1" /><path clip-path="url(#clip5800)" d="M 0 0 M427.252 5926 L471.558 5926 Q461.373 5945.86 456.28 5967.25 Q451.187 5988.63 451.187 6011.55 Q451.187 6046.44 461.882 6064 Q472.576 6081.32 493.965 6081.32 Q510.261 6081.32 519.682 6068.84 Q528.849 6056.37 537.252 6018.68 L540.817 6002.64 Q551.511 5952.73 571.117 5931.85 Q590.469 5910.72 625.353 5910.72 Q665.075 5910.72 688.246 5942.29 Q711.417 5973.61 711.417 6028.61 Q711.417 6051.53 706.834 6076.48 Q702.505 6101.18 693.594 6128.68 L645.214 6128.68 Q658.709 6102.71 665.584 6077.5 Q672.205 6052.29 672.205 6027.59 Q672.205 5994.49 661.001 5976.67 Q649.543 5958.84 628.918 5958.84 Q609.821 5958.84 599.636 5971.83 Q589.451 5984.56 580.029 6028.1 L576.21 6044.4 Q567.043 6087.94 548.201 6107.29 Q529.104 6126.64 496.002 6126.64 Q455.771 6126.64 433.873 6098.12 Q411.975 6069.61 411.975 6017.15 Q411.975 5991.18 415.794 5968.26 Q419.613 5945.35 427.252 5926 Z" fill="#000000" fill-rule="evenodd" fill-opacity="1" /><path clip-path="url(#clip5800)" d="M 0 0 M462.646 5530.56 Q458.062 5538.45 456.025 5547.87 Q453.734 5557.04 453.734 5568.24 Q453.734 5607.97 479.706 5629.35 Q505.423 5650.49 553.803 5650.49 L704.033 5650.49 L704.033 5697.59 L418.85 5697.59 L418.85 5650.49 L463.155 5650.49 Q437.183 5635.72 424.706 5612.04 Q411.975 5588.36 411.975 5554.49 Q411.975 5549.66 412.739 5543.8 Q413.248 5537.94 414.521 5530.81 L462.646 5530.56 Z" fill="#000000" fill-rule="evenodd" fill-opacity="1" /><path clip-path="url(#clip5800)" d="M 0 0 M560.678 5351.81 Q560.678 5408.59 573.664 5430.49 Q586.65 5452.39 617.969 5452.39 Q642.922 5452.39 657.691 5436.09 Q672.205 5419.54 672.205 5391.28 Q672.205 5352.32 644.705 5328.89 Q616.95 5305.21 571.117 5305.21 L560.678 5305.21 L560.678 5351.81 M541.326 5258.36 L704.033 5258.36 L704.033 5305.21 L660.746 5305.21 Q686.719 5321.25 699.195 5345.19 Q711.417 5369.12 711.417 5403.75 Q711.417 5447.55 686.973 5473.52 Q662.274 5499.24 621.024 5499.24 Q572.9 5499.24 548.455 5467.16 Q524.011 5434.82 524.011 5370.91 L524.011 5305.21 L519.428 5305.21 Q487.09 5305.21 469.521 5326.6 Q451.697 5347.74 451.697 5386.18 Q451.697 5410.63 457.553 5433.8 Q463.41 5456.97 475.122 5478.36 L431.836 5478.36 Q421.905 5452.64 417.067 5428.45 Q411.975 5404.26 411.975 5381.35 Q411.975 5319.47 444.058 5288.92 Q476.141 5258.36 541.326 5258.36 Z" fill="#000000" fill-rule="evenodd" fill-opacity="1" /><path clip-path="url(#clip5800)" d="M 0 0 M337.878 5162.87 L418.85 5162.87 L418.85 5066.37 L455.261 5066.37 L455.261 5162.87 L610.075 5162.87 Q644.96 5162.87 654.89 5153.45 Q664.821 5143.78 664.821 5114.5 L664.821 5066.37 L704.033 5066.37 L704.033 5114.5 Q704.033 5168.73 683.918 5189.36 Q663.547 5209.98 610.075 5209.98 L455.261 5209.98 L455.261 5244.36 L418.85 5244.36 L418.85 5209.98 L337.878 5209.98 L337.878 5162.87 Z" fill="#000000" fill-rule="evenodd" fill-opacity="1" /><path clip-path="url(#clip5800)" d="M 0 0 M418.85 5017.23 L418.85 4970.38 L704.033 4970.38 L704.033 5017.23 L418.85 5017.23 M307.832 5017.23 L307.832 4970.38 L367.16 4970.38 L367.16 5017.23 L307.832 5017.23 Z" fill="#000000" fill-rule="evenodd" fill-opacity="1" /><path clip-path="url(#clip5800)" d="M 0 0 M451.697 4810.72 Q451.697 4848.41 481.234 4870.31 Q510.516 4892.21 561.696 4892.21 Q612.876 4892.21 642.413 4870.56 Q671.695 4848.66 671.695 4810.72 Q671.695 4773.29 642.159 4751.4 Q612.622 4729.5 561.696 4729.5 Q511.025 4729.5 481.488 4751.4 Q451.697 4773.29 451.697 4810.72 M411.975 4810.72 Q411.975 4749.61 451.697 4714.73 Q491.419 4679.85 561.696 4679.85 Q631.719 4679.85 671.695 4714.73 Q711.417 4749.61 711.417 4810.72 Q711.417 4872.09 671.695 4906.97 Q631.719 4941.6 561.696 4941.6 Q491.419 4941.6 451.697 4906.97 Q411.975 4872.09 411.975 4810.72 Z" fill="#000000" fill-rule="evenodd" fill-opacity="1" /><polyline clip-path="url(#clip5802)" style="stroke:#009af9; stroke-width:32; stroke-opacity:1; fill:none" points="
  2797.33,1353.51 3114.84,1860.3 3432.35,1368.24 3749.86,1282.05 4067.37,1681.43 4384.88,1716.43 4702.39,1748.57 5019.9,1952.81 5337.41,1553.18 5654.92,2212.29 
  5972.43,1904.16 6289.94,2649.1 6607.45,2371.05 6924.96,1848.22 7242.47,1658.85 7559.98,2122.74 7877.49,2119.21 8195,2157.43 8512.51,2505.29 8830.02,2908.95 
  9147.53,2708.89 9465.04,2771.46 9782.55,2954.13 10100.1,3032.82 10417.6,3348.68 10735.1,2340.83 11052.6,2908.76 11370.1,2707.92 11687.6,3338.99 12005.1,3703.76 
  12322.6,3030.22 12640.1,3421.44 12957.6,3748.39 13275.2,3337.22 13592.7,4214.03 13910.2,3760.36 14227.7,3726.91 14545.2,4080.88 14862.7,3833.05 15180.2,3791.65 
  15497.7,3993.78 15815.2,3594.98 16132.7,4637.01 16450.2,4771.79 16767.8,3600.92 17085.3,4147.82 17402.8,4111.01 17720.3,4781.97 18037.8,5021.94 18355.3,4648.9 
  
  "/>
<polyline clip-path="url(#clip5802)" style="stroke:#e26f46; stroke-width:32; stroke-opacity:1; fill:none" points="
  2797.33,2026.05 3114.84,2238.74 3432.35,2366.88 3749.86,1910.45 4067.37,2754.85 4384.88,3247.2 4702.39,2365.78 5019.9,2982.42 5337.41,2307.31 5654.92,3118.89 
  5972.43,3363.7 6289.94,3585.07 6607.45,3376.4 6924.96,3879.21 7242.47,3664.28 7559.98,4277.26 7877.49,3317.35 8195,3932.05 8512.51,4382.29 8830.02,4131.8 
  9147.53,3559.04 9465.04,3586.37 9782.55,4762.74 10100.1,3611.46 10417.6,4288.45 10735.1,4757.92 11052.6,5085.29 11370.1,4229.96 11687.6,4722.89 12005.1,5328.73 
  12322.6,5323.71 12640.1,4688.26 12957.6,5635.77 13275.2,5939.65 13592.7,5575.01 13910.2,5661.97 14227.7,5892.9 14545.2,6047.7 14862.7,6428.44 15180.2,5524.11 
  15497.7,6219.05 15815.2,7216.17 16132.7,6703.26 16450.2,6903.07 16767.8,6755.83 17085.3,7129.04 17402.8,6399.5 17720.3,6566.68 18037.8,6042.86 18355.3,7356.92 
  
  "/>
<polyline clip-path="url(#clip5802)" style="stroke:#3da44d; stroke-width:32; stroke-opacity:1; fill:none" points="
  2797.33,2675.55 3114.84,3533.92 3432.35,3347.35 3749.86,3745.45 4067.37,3935.39 4384.88,4118.79 4702.39,4138.26 5019.9,3873.59 5337.41,3750.09 5654.92,4179.89 
  5972.43,4246.16 6289.94,4226.89 6607.45,4607.68 6924.96,4944.22 7242.47,4498.52 7559.98,4842.5 7877.49,4258.98 8195,4925.88 8512.51,4592.13 8830.02,5798.1 
  9147.53,5336.33 9465.04,5728.89 9782.55,5603.18 10100.1,6316.64 10417.6,6266 10735.1,5896.99 11052.6,6335.4 11370.1,5629.8 11687.6,6143.65 12005.1,6684.21 
  12322.6,6703.92 12640.1,8345.16 12957.6,7531.32 13275.2,8045.39 13592.7,8325.21 13910.2,7415.49 14227.7,7502.73 14545.2,8742.81 14862.7,8817.75 15180.2,8269.44 
  15497.7,9048.34 15815.2,8596.27 16132.7,8694.95 16450.2,8236.91 16767.8,9955.38 17085.3,8983.33 17402.8,8958.57 17720.3,10568.4 18037.8,11091.2 18355.3,9565.85 
  
  "/>
<path clip-path="url(#clip5800)" d="
M2906.59 10233.4 L5939.74 10233.4 L5939.74 8298.08 L2906.59 8298.08  Z
  " fill="#ffffff" fill-rule="evenodd" fill-opacity="1"/>
<polyline clip-path="url(#clip5800)" style="stroke:#000000; stroke-width:32; stroke-opacity:1; fill:none" points="
  2906.59,10233.4 5939.74,10233.4 5939.74,8298.08 2906.59,8298.08 2906.59,10233.4 
  "/>
<polyline clip-path="url(#clip5800)" style="stroke:#009af9; stroke-width:32; stroke-opacity:1; fill:none" points="
  3098.59,8781.92 4250.59,8781.92 
  "/>
<path clip-path="url(#clip5800)" d="M 0 0 M4442.59 8643.68 L4480 8643.68 L4480 8888.68 L4614.63 8888.68 L4614.63 8920.16 L4442.59 8920.16 L4442.59 8643.68 Z" fill="#000000" fill-rule="evenodd" fill-opacity="1" /><path clip-path="url(#clip5800)" d="M 0 0 M4775.37 8747.94 L5012.78 8747.94 L5012.78 8779.05 L4775.37 8779.05 L4775.37 8747.94 M4775.37 8823.49 L5012.78 8823.49 L5012.78 8854.97 L4775.37 8854.97 L4775.37 8823.49 Z" fill="#000000" fill-rule="evenodd" fill-opacity="1" /><path clip-path="url(#clip5800)" d="M 0 0 M5258.52 8767.01 Q5233.33 8767.01 5218.52 8784.23 Q5203.89 8801.46 5203.89 8831.46 Q5203.89 8861.27 5218.52 8878.68 Q5233.33 8895.9 5258.52 8895.9 Q5283.7 8895.9 5298.33 8878.68 Q5313.14 8861.27 5313.14 8831.46 Q5313.14 8801.46 5298.33 8784.23 Q5283.7 8767.01 5258.52 8767.01 M5332.77 8649.79 L5332.77 8683.86 Q5318.7 8677.2 5304.26 8673.68 Q5290 8670.16 5275.92 8670.16 Q5238.89 8670.16 5219.26 8695.16 Q5199.81 8720.16 5197.03 8770.72 Q5207.96 8754.6 5224.44 8746.09 Q5240.92 8737.38 5260.74 8737.38 Q5302.4 8737.38 5326.48 8762.75 Q5350.74 8787.94 5350.74 8831.46 Q5350.74 8874.05 5325.55 8899.79 Q5300.37 8925.53 5258.52 8925.53 Q5210.55 8925.53 5185.18 8888.86 Q5159.81 8852.01 5159.81 8782.2 Q5159.81 8716.64 5190.92 8677.75 Q5222.03 8638.68 5274.44 8638.68 Q5288.52 8638.68 5302.77 8641.46 Q5317.22 8644.23 5332.77 8649.79 Z" fill="#000000" fill-rule="evenodd" fill-opacity="1" /><polyline clip-path="url(#clip5800)" style="stroke:#e26f46; stroke-width:32; stroke-opacity:1; fill:none" points="
  3098.59,9265.76 4250.59,9265.76 
  "/>
<path clip-path="url(#clip5800)" d="M 0 0 M4442.59 9127.52 L4480 9127.52 L4480 9372.52 L4614.63 9372.52 L4614.63 9404 L4442.59 9404 L4442.59 9127.52 Z" fill="#000000" fill-rule="evenodd" fill-opacity="1" /><path clip-path="url(#clip5800)" d="M 0 0 M4775.37 9231.78 L5012.78 9231.78 L5012.78 9262.89 L4775.37 9262.89 L4775.37 9231.78 M4775.37 9307.33 L5012.78 9307.33 L5012.78 9338.81 L4775.37 9338.81 L4775.37 9307.33 Z" fill="#000000" fill-rule="evenodd" fill-opacity="1" /><path clip-path="url(#clip5800)" d="M 0 0 M5253.89 9272.7 Q5227.22 9272.7 5211.85 9286.96 Q5196.66 9301.22 5196.66 9326.22 Q5196.66 9351.22 5211.85 9365.48 Q5227.22 9379.74 5253.89 9379.74 Q5280.55 9379.74 5295.92 9365.48 Q5311.29 9351.04 5311.29 9326.22 Q5311.29 9301.22 5295.92 9286.96 Q5280.74 9272.7 5253.89 9272.7 M5216.48 9256.78 Q5192.4 9250.85 5178.89 9234.37 Q5165.55 9217.89 5165.55 9194.19 Q5165.55 9161.04 5189.07 9141.78 Q5212.77 9122.52 5253.89 9122.52 Q5295.18 9122.52 5318.7 9141.78 Q5342.22 9161.04 5342.22 9194.19 Q5342.22 9217.89 5328.7 9234.37 Q5315.37 9250.85 5291.48 9256.78 Q5318.51 9263.07 5333.51 9281.41 Q5348.7 9299.74 5348.7 9326.22 Q5348.7 9366.41 5324.07 9387.89 Q5299.63 9409.37 5253.89 9409.37 Q5208.15 9409.37 5183.52 9387.89 Q5159.07 9366.41 5159.07 9326.22 Q5159.07 9299.74 5174.26 9281.41 Q5189.44 9263.07 5216.48 9256.78 M5202.77 9197.7 Q5202.77 9219.18 5216.11 9231.22 Q5229.63 9243.26 5253.89 9243.26 Q5277.96 9243.26 5291.48 9231.22 Q5305.18 9219.18 5305.18 9197.7 Q5305.18 9176.22 5291.48 9164.19 Q5277.96 9152.15 5253.89 9152.15 Q5229.63 9152.15 5216.11 9164.19 Q5202.77 9176.22 5202.77 9197.7 Z" fill="#000000" fill-rule="evenodd" fill-opacity="1" /><polyline clip-path="url(#clip5800)" style="stroke:#3da44d; stroke-width:32; stroke-opacity:1; fill:none" points="
  3098.59,9749.6 4250.59,9749.6 
  "/>
<path clip-path="url(#clip5800)" d="M 0 0 M4442.59 9611.36 L4480 9611.36 L4480 9856.36 L4614.63 9856.36 L4614.63 9887.84 L4442.59 9887.84 L4442.59 9611.36 Z" fill="#000000" fill-rule="evenodd" fill-opacity="1" /><path clip-path="url(#clip5800)" d="M 0 0 M4775.37 9715.62 L5012.78 9715.62 L5012.78 9746.73 L4775.37 9746.73 L4775.37 9715.62 M4775.37 9791.17 L5012.78 9791.17 L5012.78 9822.65 L4775.37 9822.65 L4775.37 9791.17 Z" fill="#000000" fill-rule="evenodd" fill-opacity="1" /><path clip-path="url(#clip5800)" d="M 0 0 M5180.37 9856.36 L5241.48 9856.36 L5241.48 9645.43 L5175 9658.77 L5175 9624.69 L5241.11 9611.36 L5278.52 9611.36 L5278.52 9856.36 L5339.63 9856.36 L5339.63 9887.84 L5180.37 9887.84 L5180.37 9856.36 Z" fill="#000000" fill-rule="evenodd" fill-opacity="1" /><path clip-path="url(#clip5800)" d="M 0 0 M5460.18 9635.99 Q5431.29 9635.99 5416.66 9664.51 Q5402.22 9692.84 5402.22 9749.88 Q5402.22 9806.73 5416.66 9835.25 Q5431.29 9863.58 5460.18 9863.58 Q5489.25 9863.58 5503.7 9835.25 Q5518.33 9806.73 5518.33 9749.88 Q5518.33 9692.84 5503.7 9664.51 Q5489.25 9635.99 5460.18 9635.99 M5460.18 9606.36 Q5506.66 9606.36 5531.11 9643.21 Q5555.74 9679.88 5555.74 9749.88 Q5555.74 9819.69 5531.11 9856.54 Q5506.66 9893.21 5460.18 9893.21 Q5413.7 9893.21 5389.07 9856.54 Q5364.63 9819.69 5364.63 9749.88 Q5364.63 9679.88 5389.07 9643.21 Q5413.7 9606.36 5460.18 9606.36 Z" fill="#000000" fill-rule="evenodd" fill-opacity="1" /></svg>
