<?xml version="1.0" encoding="utf-8"?>
<svg xmlns="http://www.w3.org/2000/svg" xmlns:xlink="http://www.w3.org/1999/xlink" width="4800" height="3200" viewBox="0 0 19200 12800">
<defs>
  <clipPath id="clip3400">
    <rect x="0" y="0" width="19200" height="12800"/>
  </clipPath>
</defs>
<path clip-path="url(#clip3400)" d="
M0 12800 L19200 12800 L19200 0 L0 0  Z
  " fill="#ffffff" fill-rule="evenodd" fill-opacity="1"/>
<defs>
  <clipPath id="clip3401">
    <rect x="3840" y="0" width="13441" height="12800"/>
  </clipPath>
</defs>
<path clip-path="url(#clip3400)" d="
M1512.82 11385.4 L18822 11385.4 L18822 987.777 L1512.82 987.777  Z
  " fill="#ffffff" fill-rule="evenodd" fill-opacity="1"/>
<defs>
  <clipPath id="clip3402">
    <rect x="1512" y="987" width="17310" height="10399"/>
  </clipPath>
</defs>
<polyline clip-path="url(#clip3402)" style="stroke:#000000; stroke-width:16; stroke-opacity:0.1; fill:none" points="
  4335.48,11385.4 4335.48,987.777 
  "/>
<polyline clip-path="url(#clip3402)" style="stroke:#000000; stroke-width:16; stroke-opacity:0.1; fill:none" points="
  9001.04,11385.4 9001.04,987.777 
  "/>
<polyline clip-path="url(#clip3402)" style="stroke:#000000; stroke-width:16; stroke-opacity:0.1; fill:none" points="
  13666.6,11385.4 13666.6,987.777 
  "/>
<polyline clip-path="url(#clip3402)" style="stroke:#000000; stroke-width:16; stroke-opacity:0.1; fill:none" points="
  18332.2,11385.4 18332.2,987.777 
  "/>
<polyline clip-path="url(#clip3402)" style="stroke:#000000; stroke-width:16; stroke-opacity:0.1; fill:none" points="
  1512.82,9523.8 18822,9523.8 
  "/>
<polyline clip-path="url(#clip3402)" style="stroke:#000000; stroke-width:16; stroke-opacity:0.1; fill:none" points="
  1512.82,7276.05 18822,7276.05 
  "/>
<polyline clip-path="url(#clip3402)" style="stroke:#000000; stroke-width:16; stroke-opacity:0.1; fill:none" points="
  1512.82,5028.3 18822,5028.3 
  "/>
<polyline clip-path="url(#clip3402)" style="stroke:#000000; stroke-width:16; stroke-opacity:0.1; fill:none" points="
  1512.82,2780.55 18822,2780.55 
  "/>
<polyline clip-path="url(#clip3400)" style="stroke:#000000; stroke-width:32; stroke-opacity:1; fill:none" points="
  1512.82,11385.4 18822,11385.4 
  "/>
<polyline clip-path="url(#clip3400)" style="stroke:#000000; stroke-width:32; stroke-opacity:1; fill:none" points="
  1512.82,11385.4 1512.82,987.777 
  "/>
<polyline clip-path="url(#clip3400)" style="stroke:#000000; stroke-width:32; stroke-opacity:1; fill:none" points="
  4335.48,11385.4 4335.48,11260.7 
  "/>
<polyline clip-path="url(#clip3400)" style="stroke:#000000; stroke-width:32; stroke-opacity:1; fill:none" points="
  9001.04,11385.4 9001.04,11260.7 
  "/>
<polyline clip-path="url(#clip3400)" style="stroke:#000000; stroke-width:32; stroke-opacity:1; fill:none" points="
  13666.6,11385.4 13666.6,11260.7 
  "/>
<polyline clip-path="url(#clip3400)" style="stroke:#000000; stroke-width:32; stroke-opacity:1; fill:none" points="
  18332.2,11385.4 18332.2,11260.7 
  "/>
<polyline clip-path="url(#clip3400)" style="stroke:#000000; stroke-width:32; stroke-opacity:1; fill:none" points="
  1512.82,9523.8 1720.53,9523.8 
  "/>
<polyline clip-path="url(#clip3400)" style="stroke:#000000; stroke-width:32; stroke-opacity:1; fill:none" points="
  1512.82,7276.05 1720.53,7276.05 
  "/>
<polyline clip-path="url(#clip3400)" style="stroke:#000000; stroke-width:32; stroke-opacity:1; fill:none" points="
  1512.82,5028.3 1720.53,5028.3 
  "/>
<polyline clip-path="url(#clip3400)" style="stroke:#000000; stroke-width:32; stroke-opacity:1; fill:none" points="
  1512.82,2780.55 1720.53,2780.55 
  "/>
<path clip-path="url(#clip3400)" d="M 0 0 M4185.67 11561.4 Q4156.78 11561.4 4142.15 11589.9 Q4127.71 11618.2 4127.71 11675.3 Q4127.71 11732.1 4142.15 11760.6 Q4156.78 11789 4185.67 11789 Q4214.74 11789 4229.19 11760.6 Q4243.82 11732.1 4243.82 11675.3 Q4243.82 11618.2 4229.19 11589.9 Q4214.74 11561.4 4185.67 11561.4 M4185.67 11531.7 Q4232.15 11531.7 4256.6 11568.6 Q4281.23 11605.3 4281.23 11675.3 Q4281.23 11745.1 4256.6 11781.9 Q4232.15 11818.6 4185.67 11818.6 Q4139.19 11818.6 4114.56 11781.9 Q4090.11 11745.1 4090.11 11675.3 Q4090.11 11605.3 4114.56 11568.6 Q4139.19 11531.7 4185.67 11531.7 Z" fill="#000000" fill-rule="evenodd" fill-opacity="1" /><path clip-path="url(#clip3400)" d="M 0 0 M4321.78 11766.2 L4360.85 11766.2 L4360.85 11813.2 L4321.78 11813.2 L4321.78 11766.2 Z" fill="#000000" fill-rule="evenodd" fill-opacity="1" /><path clip-path="url(#clip3400)" d="M 0 0 M4504.19 11569.3 L4409.74 11716.9 L4504.19 11716.9 L4504.19 11569.3 M4494.37 11536.7 L4541.41 11536.7 L4541.41 11716.9 L4580.85 11716.9 L4580.85 11748 L4541.41 11748 L4541.41 11813.2 L4504.19 11813.2 L4504.19 11748 L4379.37 11748 L4379.37 11711.9 L4494.37 11536.7 Z" fill="#000000" fill-rule="evenodd" fill-opacity="1" /><path clip-path="url(#clip3400)" d="M 0 0 M8852.53 11561.4 Q8823.64 11561.4 8809.01 11589.9 Q8794.56 11618.2 8794.56 11675.3 Q8794.56 11732.1 8809.01 11760.6 Q8823.64 11789 8852.53 11789 Q8881.6 11789 8896.04 11760.6 Q8910.67 11732.1 8910.67 11675.3 Q8910.67 11618.2 8896.04 11589.9 Q8881.6 11561.4 8852.53 11561.4 M8852.53 11531.7 Q8899.01 11531.7 8923.45 11568.6 Q8948.08 11605.3 8948.08 11675.3 Q8948.08 11745.1 8923.45 11781.9 Q8899.01 11818.6 8852.53 11818.6 Q8806.04 11818.6 8781.42 11781.9 Q8756.97 11745.1 8756.97 11675.3 Q8756.97 11605.3 8781.42 11568.6 Q8806.04 11531.7 8852.53 11531.7 Z" fill="#000000" fill-rule="evenodd" fill-opacity="1" /><path clip-path="url(#clip3400)" d="M 0 0 M8988.64 11766.2 L9027.71 11766.2 L9027.71 11813.2 L8988.64 11813.2 L8988.64 11766.2 Z" fill="#000000" fill-rule="evenodd" fill-opacity="1" /><path clip-path="url(#clip3400)" d="M 0 0 M9152.89 11660.1 Q9127.71 11660.1 9112.9 11677.3 Q9098.27 11694.5 9098.27 11724.5 Q9098.27 11754.3 9112.9 11771.7 Q9127.71 11789 9152.89 11789 Q9178.08 11789 9192.71 11771.7 Q9207.52 11754.3 9207.52 11724.5 Q9207.52 11694.5 9192.71 11677.3 Q9178.08 11660.1 9152.89 11660.1 M9227.15 11542.8 L9227.15 11576.9 Q9213.08 11570.3 9198.64 11566.7 Q9184.38 11563.2 9170.3 11563.2 Q9133.27 11563.2 9113.64 11588.2 Q9094.19 11613.2 9091.41 11663.8 Q9102.34 11647.7 9118.82 11639.1 Q9135.3 11630.4 9155.12 11630.4 Q9196.78 11630.4 9220.86 11655.8 Q9245.12 11681 9245.12 11724.5 Q9245.12 11767.1 9219.93 11792.8 Q9194.75 11818.6 9152.89 11818.6 Q9104.93 11818.6 9079.56 11781.9 Q9054.19 11745.1 9054.19 11675.3 Q9054.19 11609.7 9085.3 11570.8 Q9116.41 11531.7 9168.82 11531.7 Q9182.89 11531.7 9197.15 11534.5 Q9211.6 11537.3 9227.15 11542.8 Z" fill="#000000" fill-rule="evenodd" fill-opacity="1" /><path clip-path="url(#clip3400)" d="M 0 0 M13519.1 11561.4 Q13490.2 11561.4 13475.6 11589.9 Q13461.1 11618.2 13461.1 11675.3 Q13461.1 11732.1 13475.6 11760.6 Q13490.2 11789 13519.1 11789 Q13548.2 11789 13562.6 11760.6 Q13577.3 11732.1 13577.3 11675.3 Q13577.3 11618.2 13562.6 11589.9 Q13548.2 11561.4 13519.1 11561.4 M13519.1 11531.7 Q13565.6 11531.7 13590 11568.6 Q13614.7 11605.3 13614.7 11675.3 Q13614.7 11745.1 13590 11781.9 Q13565.6 11818.6 13519.1 11818.6 Q13472.6 11818.6 13448 11781.9 Q13423.5 11745.1 13423.5 11675.3 Q13423.5 11605.3 13448 11568.6 Q13472.6 11531.7 13519.1 11531.7 Z" fill="#000000" fill-rule="evenodd" fill-opacity="1" /><path clip-path="url(#clip3400)" d="M 0 0 M13655.2 11766.2 L13694.3 11766.2 L13694.3 11813.2 L13655.2 11813.2 L13655.2 11766.2 Z" fill="#000000" fill-rule="evenodd" fill-opacity="1" /><path clip-path="url(#clip3400)" d="M 0 0 M13814.8 11681.9 Q13788.2 11681.9 13772.8 11696.2 Q13757.6 11710.4 13757.6 11735.4 Q13757.6 11760.4 13772.8 11774.7 Q13788.2 11789 13814.8 11789 Q13841.5 11789 13856.9 11774.7 Q13872.3 11760.3 13872.3 11735.4 Q13872.3 11710.4 13856.9 11696.2 Q13841.7 11681.9 13814.8 11681.9 M13777.4 11666 Q13753.4 11660.1 13739.8 11643.6 Q13726.5 11627.1 13726.5 11603.4 Q13726.5 11570.3 13750 11551 Q13773.7 11531.7 13814.8 11531.7 Q13856.1 11531.7 13879.7 11551 Q13903.2 11570.3 13903.2 11603.4 Q13903.2 11627.1 13889.7 11643.6 Q13876.3 11660.1 13852.4 11666 Q13879.5 11672.3 13894.5 11690.6 Q13909.7 11709 13909.7 11735.4 Q13909.7 11775.6 13885 11797.1 Q13860.6 11818.6 13814.8 11818.6 Q13769.1 11818.6 13744.5 11797.1 Q13720 11775.6 13720 11735.4 Q13720 11709 13735.2 11690.6 Q13750.4 11672.3 13777.4 11666 M13763.7 11606.9 Q13763.7 11628.4 13777.1 11640.4 Q13790.6 11652.5 13814.8 11652.5 Q13838.9 11652.5 13852.4 11640.4 Q13866.1 11628.4 13866.1 11606.9 Q13866.1 11585.4 13852.4 11573.4 Q13838.9 11561.4 13814.8 11561.4 Q13790.6 11561.4 13777.1 11573.4 Q13763.7 11585.4 13763.7 11606.9 Z" fill="#000000" fill-rule="evenodd" fill-opacity="1" /><path clip-path="url(#clip3400)" d="M 0 0 M18107.3 11781.7 L18168.5 11781.7 L18168.5 11570.8 L18102 11584.1 L18102 11550.1 L18168.1 11536.7 L18205.5 11536.7 L18205.5 11781.7 L18266.6 11781.7 L18266.6 11813.2 L18107.3 11813.2 L18107.3 11781.7 Z" fill="#000000" fill-rule="evenodd" fill-opacity="1" /><path clip-path="url(#clip3400)" d="M 0 0 M18307.2 11766.2 L18346.2 11766.2 L18346.2 11813.2 L18307.2 11813.2 L18307.2 11766.2 Z" fill="#000000" fill-rule="evenodd" fill-opacity="1" /><path clip-path="url(#clip3400)" d="M 0 0 M18466.8 11561.4 Q18437.9 11561.4 18423.3 11589.9 Q18408.8 11618.2 18408.8 11675.3 Q18408.8 11732.1 18423.3 11760.6 Q18437.9 11789 18466.8 11789 Q18495.9 11789 18510.3 11760.6 Q18524.9 11732.1 18524.9 11675.3 Q18524.9 11618.2 18510.3 11589.9 Q18495.9 11561.4 18466.8 11561.4 M18466.8 11531.7 Q18513.3 11531.7 18537.7 11568.6 Q18562.3 11605.3 18562.3 11675.3 Q18562.3 11745.1 18537.7 11781.9 Q18513.3 11818.6 18466.8 11818.6 Q18420.3 11818.6 18395.7 11781.9 Q18371.2 11745.1 18371.2 11675.3 Q18371.2 11605.3 18395.7 11568.6 Q18420.3 11531.7 18466.8 11531.7 Z" fill="#000000" fill-rule="evenodd" fill-opacity="1" /><path clip-path="url(#clip3400)" d="M 0 0 M1010.08 9542.97 L1109.9 9542.97 L1109.9 9573.34 L1010.08 9573.34 L1010.08 9542.97 Z" fill="#000000" fill-rule="evenodd" fill-opacity="1" /><path clip-path="url(#clip3400)" d="M 0 0 M1263.78 9512.97 Q1290.64 9518.71 1305.64 9536.86 Q1320.82 9555.01 1320.82 9581.67 Q1320.82 9622.6 1292.67 9645.01 Q1264.52 9667.41 1212.67 9667.41 Q1195.27 9667.41 1176.75 9663.89 Q1158.41 9660.56 1138.78 9653.71 L1138.78 9617.6 Q1154.34 9626.67 1172.86 9631.3 Q1191.38 9635.93 1211.56 9635.93 Q1246.75 9635.93 1265.08 9622.04 Q1283.6 9608.15 1283.6 9581.67 Q1283.6 9557.23 1266.38 9543.52 Q1249.34 9529.64 1218.78 9529.64 L1186.56 9529.64 L1186.56 9498.89 L1220.27 9498.89 Q1247.86 9498.89 1262.49 9487.97 Q1277.12 9476.86 1277.12 9456.12 Q1277.12 9434.82 1261.93 9423.52 Q1246.93 9412.04 1218.78 9412.04 Q1203.41 9412.04 1185.82 9415.38 Q1168.23 9418.71 1147.12 9425.75 L1147.12 9392.41 Q1168.41 9386.49 1186.93 9383.53 Q1205.64 9380.56 1222.12 9380.56 Q1264.71 9380.56 1289.52 9400.01 Q1314.34 9419.27 1314.34 9452.23 Q1314.34 9475.19 1301.19 9491.12 Q1288.04 9506.86 1263.78 9512.97 Z" fill="#000000" fill-rule="evenodd" fill-opacity="1" /><path clip-path="url(#clip3400)" d="M 0 0 M1017.67 7295.22 L1117.49 7295.22 L1117.49 7325.59 L1017.67 7325.59 L1017.67 7295.22 Z" fill="#000000" fill-rule="evenodd" fill-opacity="1" /><path clip-path="url(#clip3400)" d="M 0 0 M1190.27 7382.81 L1320.82 7382.81 L1320.82 7414.29 L1145.27 7414.29 L1145.27 7382.81 Q1166.56 7360.77 1203.23 7323.74 Q1240.08 7286.51 1249.52 7275.77 Q1267.49 7255.59 1274.52 7241.7 Q1281.75 7227.63 1281.75 7214.11 Q1281.75 7192.07 1266.19 7178.18 Q1250.82 7164.29 1226.01 7164.29 Q1208.41 7164.29 1188.78 7170.4 Q1169.34 7176.52 1147.12 7188.92 L1147.12 7151.14 Q1169.71 7142.07 1189.34 7137.44 Q1208.97 7132.81 1225.27 7132.81 Q1268.23 7132.81 1293.78 7154.29 Q1319.34 7175.77 1319.34 7211.7 Q1319.34 7228.74 1312.86 7244.11 Q1306.56 7259.29 1289.71 7280.03 Q1285.08 7285.4 1260.27 7311.14 Q1235.45 7336.7 1190.27 7382.81 Z" fill="#000000" fill-rule="evenodd" fill-opacity="1" /><path clip-path="url(#clip3400)" d="M 0 0 M1014.71 5047.47 L1114.53 5047.47 L1114.53 5077.84 L1014.71 5077.84 L1014.71 5047.47 Z" fill="#000000" fill-rule="evenodd" fill-opacity="1" /><path clip-path="url(#clip3400)" d="M 0 0 M1161.56 5135.06 L1222.67 5135.06 L1222.67 4924.14 L1156.19 4937.47 L1156.19 4903.39 L1222.3 4890.06 L1259.71 4890.06 L1259.71 5135.06 L1320.82 5135.06 L1320.82 5166.54 L1161.56 5166.54 L1161.56 5135.06 Z" fill="#000000" fill-rule="evenodd" fill-opacity="1" /><path clip-path="url(#clip3400)" d="M 0 0 M1225.27 2666.94 Q1196.38 2666.94 1181.75 2695.46 Q1167.3 2723.79 1167.3 2780.83 Q1167.3 2837.68 1181.75 2866.2 Q1196.38 2894.53 1225.27 2894.53 Q1254.34 2894.53 1268.78 2866.2 Q1283.41 2837.68 1283.41 2780.83 Q1283.41 2723.79 1268.78 2695.46 Q1254.34 2666.94 1225.27 2666.94 M1225.27 2637.31 Q1271.75 2637.31 1296.19 2674.16 Q1320.82 2710.83 1320.82 2780.83 Q1320.82 2850.64 1296.19 2887.49 Q1271.75 2924.16 1225.27 2924.16 Q1178.78 2924.16 1154.15 2887.49 Q1129.71 2850.64 1129.71 2780.83 Q1129.71 2710.83 1154.15 2674.16 Q1178.78 2637.31 1225.27 2637.31 Z" fill="#000000" fill-rule="evenodd" fill-opacity="1" /><path clip-path="url(#clip3400)" d="M 0 0 M6292.34 349.544 L6292.34 526.812 L6397.34 526.812 Q6450.16 526.812 6475.44 505.099 Q6501.04 483.062 6501.04 438.016 Q6501.04 392.646 6475.44 371.257 Q6450.16 349.544 6397.34 349.544 L6292.34 349.544 M6292.34 150.564 L6292.34 296.397 L6389.24 296.397 Q6437.2 296.397 6460.53 278.573 Q6484.19 260.425 6484.19 223.48 Q6484.19 186.86 6460.53 168.712 Q6437.2 150.564 6389.24 150.564 L6292.34 150.564 M6226.88 96.768 L6394.1 96.768 Q6468.96 96.768 6509.47 127.879 Q6549.98 158.99 6549.98 216.351 Q6549.98 260.749 6529.24 286.998 Q6508.5 313.248 6468.31 319.73 Q6516.6 330.1 6543.17 363.155 Q6570.07 395.887 6570.07 445.146 Q6570.07 509.96 6525.99 545.284 Q6481.92 580.608 6400.58 580.608 L6226.88 580.608 L6226.88 96.768 Z" fill="#000000" fill-rule="evenodd" fill-opacity="1" /><path clip-path="url(#clip3400)" d="M 0 0 M6858.82 498.294 L6927.2 498.294 L6927.2 580.608 L6858.82 580.608 L6858.82 498.294 M6858.82 237.415 L6927.2 237.415 L6927.2 319.73 L6858.82 319.73 L6858.82 237.415 Z" fill="#000000" fill-rule="evenodd" fill-opacity="1" /><path clip-path="url(#clip3400)" d="M 0 0 M7349.14 350.841 Q7302.47 350.841 7275.57 375.794 Q7249 400.748 7249 444.498 Q7249 488.247 7275.57 513.201 Q7302.47 538.155 7349.14 538.155 Q7395.81 538.155 7422.7 513.201 Q7449.6 487.923 7449.6 444.498 Q7449.6 400.748 7422.7 375.794 Q7396.13 350.841 7349.14 350.841 M7283.68 322.97 Q7241.55 312.6 7217.89 283.758 Q7194.56 254.915 7194.56 213.434 Q7194.56 155.425 7235.71 121.722 Q7277.19 88.018 7349.14 88.018 Q7421.41 88.018 7462.56 121.722 Q7503.72 155.425 7503.72 213.434 Q7503.72 254.915 7480.06 283.758 Q7456.73 312.6 7414.93 322.97 Q7462.24 333.989 7488.49 366.072 Q7515.06 398.155 7515.06 444.498 Q7515.06 514.821 7471.96 552.414 Q7429.18 590.006 7349.14 590.006 Q7269.09 590.006 7225.99 552.414 Q7183.21 514.821 7183.21 444.498 Q7183.21 398.155 7209.79 366.072 Q7236.36 333.989 7283.68 322.97 M7259.69 219.591 Q7259.69 257.184 7283.03 278.249 Q7306.69 299.313 7349.14 299.313 Q7391.27 299.313 7414.93 278.249 Q7438.91 257.184 7438.91 219.591 Q7438.91 181.999 7414.93 160.934 Q7391.27 139.87 7349.14 139.87 Q7306.69 139.87 7283.03 160.934 Q7259.69 181.999 7259.69 219.591 Z" fill="#000000" fill-rule="evenodd" fill-opacity="1" /><path clip-path="url(#clip3400)" d="M 0 0 M8038.12 176.49 L7921.77 239.36 L8038.12 302.554 L8019.32 334.313 L7910.43 268.526 L7910.43 390.702 L7873.49 390.702 L7873.49 268.526 L7764.6 334.313 L7745.8 302.554 L7862.15 239.36 L7745.8 176.49 L7764.6 144.407 L7873.49 210.193 L7873.49 88.018 L7910.43 88.018 L7910.43 210.193 L8019.32 144.407 L8038.12 176.49 Z" fill="#000000" fill-rule="evenodd" fill-opacity="1" /><path clip-path="url(#clip3400)" d="M 0 0 M8460.06 350.841 Q8413.39 350.841 8386.49 375.794 Q8359.92 400.748 8359.92 444.498 Q8359.92 488.247 8386.49 513.201 Q8413.39 538.155 8460.06 538.155 Q8506.73 538.155 8533.62 513.201 Q8560.52 487.923 8560.52 444.498 Q8560.52 400.748 8533.62 375.794 Q8507.05 350.841 8460.06 350.841 M8394.6 322.97 Q8352.47 312.6 8328.81 283.758 Q8305.48 254.915 8305.48 213.434 Q8305.48 155.425 8346.63 121.722 Q8388.11 88.018 8460.06 88.018 Q8532.33 88.018 8573.48 121.722 Q8614.64 155.425 8614.64 213.434 Q8614.64 254.915 8590.98 283.758 Q8567.65 312.6 8525.85 322.97 Q8573.16 333.989 8599.41 366.072 Q8625.98 398.155 8625.98 444.498 Q8625.98 514.821 8582.88 552.414 Q8540.1 590.006 8460.06 590.006 Q8380.01 590.006 8336.91 552.414 Q8294.13 514.821 8294.13 444.498 Q8294.13 398.155 8320.71 366.072 Q8347.28 333.989 8394.6 322.97 M8370.61 219.591 Q8370.61 257.184 8393.95 278.249 Q8417.61 299.313 8460.06 299.313 Q8502.19 299.313 8525.85 278.249 Q8549.83 257.184 8549.83 219.591 Q8549.83 181.999 8525.85 160.934 Q8502.19 139.87 8460.06 139.87 Q8417.61 139.87 8393.95 160.934 Q8370.61 181.999 8370.61 219.591 Z" fill="#000000" fill-rule="evenodd" fill-opacity="1" /><path clip-path="url(#clip3400)" d="M 0 0 M8703.76 498.294 L8772.14 498.294 L8772.14 554.034 L8718.99 657.737 L8677.19 657.737 L8703.76 554.034 L8703.76 498.294 Z" fill="#000000" fill-rule="evenodd" fill-opacity="1" /><path clip-path="url(#clip3400)" d="M 0 0 M9244.64 141.166 Q9173.34 141.166 9131.21 194.314 Q9089.41 247.462 9089.41 339.174 Q9089.41 430.563 9131.21 483.71 Q9173.34 536.858 9244.64 536.858 Q9315.93 536.858 9357.41 483.71 Q9399.22 430.563 9399.22 339.174 Q9399.22 247.462 9357.41 194.314 Q9315.93 141.166 9244.64 141.166 M9336.35 571.858 L9422.55 666.163 L9343.48 666.163 L9271.86 588.71 Q9261.17 589.358 9255.33 589.682 Q9249.82 590.006 9244.64 590.006 Q9142.56 590.006 9081.31 521.951 Q9020.38 453.572 9020.38 339.174 Q9020.38 224.453 9081.31 156.397 Q9142.56 88.018 9244.64 88.018 Q9346.4 88.018 9407.32 156.397 Q9468.25 224.453 9468.25 339.174 Q9468.25 423.433 9434.22 483.386 Q9400.52 543.34 9336.35 571.858 Z" fill="#000000" fill-rule="evenodd" fill-opacity="1" /><path clip-path="url(#clip3400)" d="M 0 0 M9749.54 279.221 L10165 279.221 L10165 333.665 L9749.54 333.665 L9749.54 279.221 M9749.54 411.442 L10165 411.442 L10165 466.535 L9749.54 466.535 L9749.54 411.442 Z" fill="#000000" fill-rule="evenodd" fill-opacity="1" /><path clip-path="url(#clip3400)" d="M 0 0 M10458.3 525.516 L10565.2 525.516 L10565.2 156.397 L10448.9 179.731 L10448.9 120.101 L10564.6 96.768 L10630 96.768 L10630 525.516 L10737 525.516 L10737 580.608 L10458.3 580.608 L10458.3 525.516 Z" fill="#000000" fill-rule="evenodd" fill-opacity="1" /><path clip-path="url(#clip3400)" d="M 0 0 M10956.1 312.6 Q10912 312.6 10886.1 342.739 Q10860.5 372.878 10860.5 425.377 Q10860.5 477.553 10886.1 508.016 Q10912 538.155 10956.1 538.155 Q11000.1 538.155 11025.7 508.016 Q11051.7 477.553 11051.7 425.377 Q11051.7 372.878 11025.7 342.739 Q11000.1 312.6 10956.1 312.6 M11086 107.462 L11086 167.092 Q11061.4 155.425 11036.1 149.268 Q11011.2 143.11 10986.5 143.11 Q10921.7 143.11 10887.4 186.86 Q10853.3 230.61 10848.5 319.082 Q10867.6 290.887 10896.4 275.98 Q10925.3 260.749 10960 260.749 Q11032.9 260.749 11075 305.147 Q11117.5 349.22 11117.5 425.377 Q11117.5 499.914 11073.4 544.96 Q11029.3 590.006 10956.1 590.006 Q10872.1 590.006 10827.7 525.84 Q10783.3 461.349 10783.3 339.174 Q10783.3 224.453 10837.8 156.397 Q10892.2 88.018 10983.9 88.018 Q11008.6 88.018 11033.5 92.8791 Q11058.8 97.7402 11086 107.462 Z" fill="#000000" fill-rule="evenodd" fill-opacity="1" /><path clip-path="url(#clip3400)" d="M 0 0 M11195.2 498.294 L11263.6 498.294 L11263.6 554.034 L11210.5 657.737 L11168.7 657.737 L11195.2 554.034 L11195.2 498.294 Z" fill="#000000" fill-rule="evenodd" fill-opacity="1" /><path clip-path="url(#clip3400)" d="M 0 0 M11539.7 96.768 L11605.2 96.768 L11605.2 546.904 Q11605.2 634.404 11571.8 673.941 Q11538.7 713.478 11465.2 713.478 L11440.2 713.478 L11440.2 658.385 L11460.6 658.385 Q11504.1 658.385 11521.9 634.08 Q11539.7 609.775 11539.7 546.904 L11539.7 96.768 Z" fill="#000000" fill-rule="evenodd" fill-opacity="1" /><path clip-path="url(#clip3400)" d="M 0 0 M11943.5 690.793 L11943.5 737.135 L11598.7 737.135 L11598.7 690.793 L11943.5 690.793 Z" fill="#000000" fill-rule="evenodd" fill-opacity="1" /><path clip-path="url(#clip3400)" d="M 0 0 M12154.5 139.87 Q12103.9 139.87 12078.3 189.777 Q12053 239.36 12053 339.174 Q12053 438.664 12078.3 488.571 Q12103.9 538.155 12154.5 538.155 Q12205.4 538.155 12230.6 488.571 Q12256.2 438.664 12256.2 339.174 Q12256.2 239.36 12230.6 189.777 Q12205.4 139.87 12154.5 139.87 M12154.5 88.018 Q12235.8 88.018 12278.6 152.508 Q12321.7 216.675 12321.7 339.174 Q12321.7 461.349 12278.6 525.84 Q12235.8 590.006 12154.5 590.006 Q12073.1 590.006 12030 525.84 Q11987.3 461.349 11987.3 339.174 Q11987.3 216.675 12030 152.508 Q12073.1 88.018 12154.5 88.018 Z" fill="#000000" fill-rule="evenodd" fill-opacity="1" /><path clip-path="url(#clip3400)" d="M 0 0 M12603 279.221 L13018.5 279.221 L13018.5 333.665 L12603 333.665 L12603 279.221 M12603 411.442 L13018.5 411.442 L13018.5 466.535 L12603 466.535 L12603 411.442 Z" fill="#000000" fill-rule="evenodd" fill-opacity="1" /><path clip-path="url(#clip3400)" d="M 0 0 M13311.7 525.516 L13418.7 525.516 L13418.7 156.397 L13302.3 179.731 L13302.3 120.101 L13418 96.768 L13483.5 96.768 L13483.5 525.516 L13590.4 525.516 L13590.4 580.608 L13311.7 580.608 L13311.7 525.516 Z" fill="#000000" fill-rule="evenodd" fill-opacity="1" /><path clip-path="url(#clip3400)" d="M 0 0 M13661.4 498.294 L13729.8 498.294 L13729.8 580.608 L13661.4 580.608 L13661.4 498.294 Z" fill="#000000" fill-rule="evenodd" fill-opacity="1" /><path clip-path="url(#clip3400)" d="M 0 0 M13940.8 139.87 Q13890.2 139.87 13864.6 189.777 Q13839.3 239.36 13839.3 339.174 Q13839.3 438.664 13864.6 488.571 Q13890.2 538.155 13940.8 538.155 Q13991.6 538.155 14016.9 488.571 Q14042.5 438.664 14042.5 339.174 Q14042.5 239.36 14016.9 189.777 Q13991.6 139.87 13940.8 139.87 M13940.8 88.018 Q14022.1 88.018 14064.9 152.508 Q14108 216.675 14108 339.174 Q14108 461.349 14064.9 525.84 Q14022.1 590.006 13940.8 590.006 Q13859.4 590.006 13816.3 525.84 Q13773.5 461.349 13773.5 339.174 Q13773.5 216.675 13816.3 152.508 Q13859.4 88.018 13940.8 88.018 Z" fill="#000000" fill-rule="evenodd" fill-opacity="1" /><path clip-path="url(#clip3400)" d="M 0 0 M10006.6 12068.2 L10328.2 12068.2 L10328.2 12111.5 L10193.3 12111.5 L10193.3 12448.4 L10141.6 12448.4 L10141.6 12111.5 L10006.6 12111.5 L10006.6 12068.2 Z" fill="#000000" fill-rule="evenodd" fill-opacity="1" /><path clip-path="url(#clip3400)" d="M 0 0 M522.483 6270 L661.765 6270 L661.765 6187.5 Q661.765 6145.99 644.705 6126.13 Q627.39 6106.02 591.997 6106.02 Q556.349 6106.02 539.543 6126.13 Q522.483 6145.99 522.483 6187.5 L522.483 6270 M366.142 6270 L480.724 6270 L480.724 6193.86 Q480.724 6156.18 466.72 6137.85 Q452.461 6119.26 423.433 6119.26 Q394.66 6119.26 380.401 6137.85 Q366.142 6156.18 366.142 6193.86 L366.142 6270 M323.873 6321.43 L323.873 6190.05 Q323.873 6131.23 348.318 6099.4 Q372.762 6067.57 417.831 6067.57 Q452.715 6067.57 473.34 6083.87 Q493.965 6100.16 499.058 6131.74 Q507.206 6093.8 533.178 6072.92 Q558.895 6051.78 597.599 6051.78 Q648.524 6051.78 676.279 6086.41 Q704.033 6121.04 704.033 6184.95 L704.033 6321.43 L323.873 6321.43 Z" fill="#000000" fill-rule="evenodd" fill-opacity="1" /><polyline clip-path="url(#clip3402)" style="stroke:#009af9; stroke-width:32; stroke-opacity:1; fill:none" points="
  2002.7,1282.05 2335.96,1282.05 2669.21,1282.05 3002.47,1282.05 3335.72,1282.05 3668.98,1282.05 4002.23,1282.06 4335.48,1282.06 4668.74,1282.06 5001.99,1282.07 
  5335.25,1282.08 5668.5,1282.09 6001.76,1282.11 6335.01,1282.14 6668.26,1282.17 7001.52,1282.22 7334.77,1282.3 7668.03,1282.42 8001.28,1282.61 8334.54,1282.93 
  8667.79,1283.71 9001.04,1299.05 9334.3,1855.24 9667.55,2126.36 10000.8,3918 10334.1,11091.2 10667.3,9116.48 11000.6,4656.96 11333.8,3847.98 11667.1,3510.69 
  12000.3,3230.78 12333.6,3309.17 12666.8,3067.91 13000.1,3062.17 13333.3,2982.13 13666.6,2983.74 13999.9,2961.4 14333.1,2826.17 14666.4,2988.74 14999.6,2922.44 
  15332.9,2833.39 15666.1,2865.38 15999.4,2783.36 16332.6,2810.89 16665.9,2746.19 16999.1,2857.52 17332.4,2793.54 17665.7,2848.83 17998.9,2807.21 18332.2,2917.24 
  
  "/>
<polyline clip-path="url(#clip3402)" style="stroke:#e26f46; stroke-width:32; stroke-opacity:1; fill:none" points="
  2002.7,1282.05 2335.96,1282.05 2669.21,1282.05 3002.47,1282.05 3335.72,1282.05 3668.98,1282.05 4002.23,1282.06 4335.48,1282.06 4668.74,1282.06 5001.99,1282.07 
  5335.25,1282.08 5668.5,1282.09 6001.76,1282.11 6335.01,1282.14 6668.26,1282.17 7001.52,1282.23 7334.77,1282.34 7668.03,1282.51 8001.28,1282.77 8334.54,1283.54 
  8667.79,2362.13 9001.04,1954.65 9334.3,2616.03 9667.55,6034.05 10000.8,5544.52 10334.1,4703.59 10667.3,4206.23 11000.6,3950.68 11333.8,3627.74 11667.1,3054.66 
  12000.3,3296.69 12333.6,2921.45 12666.8,3157.16 13000.1,3000.57 13333.3,2964.41 13666.6,2934.58 13999.9,2803.06 14333.1,2850.09 14666.4,2962.4 14999.6,2891.3 
  15332.9,2946.75 15666.1,2880.39 15999.4,2776.53 16332.6,2831.67 16665.9,2934.52 16999.1,2849.58 17332.4,2874.67 17665.7,2720.53 17998.9,2749.44 18332.2,2811.87 
  
  "/>
<polyline clip-path="url(#clip3402)" style="stroke:#3da44d; stroke-width:32; stroke-opacity:1; fill:none" points="
  2002.7,1282.05 2335.96,1282.05 2669.21,1282.05 3002.47,1282.05 3335.72,1282.05 3668.98,1282.06 4002.23,1282.06 4335.48,1282.06 4668.74,1282.07 5001.99,1282.09 
  5335.25,1301.75 5668.5,1439.21 6001.76,1481.04 6335.01,1343.92 6668.26,1313.71 7001.52,2244.68 7334.77,1434.97 7668.03,3493.43 8001.28,1911.82 8334.54,2026.71 
  8667.79,2032.5 9001.04,2243.77 9334.3,2751.58 9667.55,3043.66 10000.8,3319.24 10334.1,3470.44 10667.3,3554.86 11000.6,3579.47 11333.8,3379.06 11667.1,3189.82 
  12000.3,3269.71 12333.6,3148.22 12666.8,3010.28 13000.1,2981.2 13333.3,2909.86 13666.6,2971 13999.9,2853.27 14333.1,2951.85 14666.4,2824.85 14999.6,2769.89 
  15332.9,2998.75 15666.1,2899.56 15999.4,2748.32 16332.6,2824.92 16665.9,2845.27 16999.1,2775.63 17332.4,2878.21 17665.7,2785.29 17998.9,2784.91 18332.2,2840.46 
  
  "/>
<polyline clip-path="url(#clip3402)" style="stroke:#c271d2; stroke-width:32; stroke-opacity:1; fill:none" points="
  2002.7,2037.51 2335.96,1942.68 2669.21,1794.27 3002.47,1819.24 3335.72,1887.19 3668.98,2142.78 4002.23,1822.08 4335.48,1832.17 4668.74,1638.39 5001.99,2065.85 
  5335.25,1921.82 5668.5,1759.96 6001.76,1716.13 6335.01,1797.48 6668.26,1786.65 7001.52,1957.76 7334.77,1886.74 7668.03,1825.74 8001.28,1972.01 8334.54,1896.92 
  8667.79,1948.42 9001.04,1944.92 9334.3,1951.48 9667.55,2038.85 10000.8,2069 10334.1,2156.48 10667.3,2433 11000.6,2644.91 11333.8,2843.05 11667.1,3105.17 
  12000.3,3087.36 12333.6,3221.13 12666.8,3157.78 13000.1,3259.62 13333.3,3239.89 13666.6,3212.8 13999.9,3190.5 14333.1,2976.51 14666.4,2922.59 14999.6,3053.23 
  15332.9,2896.56 15666.1,2920.96 15999.4,2848.24 16332.6,2918.07 16665.9,2834.07 16999.1,3014.77 17332.4,2739.05 17665.7,2874.79 17998.9,2782.14 18332.2,2838.52 
  
  "/>
<polyline clip-path="url(#clip3402)" style="stroke:#ac8d18; stroke-width:32; stroke-opacity:1; fill:none" points="
  2002.7,1925.54 2335.96,1833.43 2669.21,2035.41 3002.47,1981.13 3335.72,2108.76 3668.98,1986.7 4002.23,2254.56 4335.48,1766.48 4668.74,1750.64 5001.99,2073.77 
  5335.25,1871.86 5668.5,1812.15 6001.76,2033.36 6335.01,1881.99 6668.26,1958.2 7001.52,1978.28 7334.77,1955.39 7668.03,1834.05 8001.28,2112.91 8334.54,2193.52 
  8667.79,1810.54 9001.04,2043.1 9334.3,1913.7 9667.55,1900.07 10000.8,2004.02 10334.1,1979.86 10667.3,1954.34 11000.6,1984.39 11333.8,2006.26 11667.1,2016.85 
  12000.3,2053.42 12333.6,2145.62 12666.8,2139.16 13000.1,2334.22 13333.3,2518.66 13666.6,2614.09 13999.9,2848.49 14333.1,2797.48 14666.4,2973.34 14999.6,2883.38 
  15332.9,2996.31 15666.1,3051.29 15999.4,3018.69 16332.6,3029.24 16665.9,3126.72 16999.1,2970.47 17332.4,2976.44 17665.7,3035.84 17998.9,2949.22 18332.2,2988.72 
  
  "/>
<path clip-path="url(#clip3400)" d="
M14794 10233.4 L18246 10233.4 L18246 7330.4 L14794 7330.4  Z
  " fill="#ffffff" fill-rule="evenodd" fill-opacity="1"/>
<polyline clip-path="url(#clip3400)" style="stroke:#000000; stroke-width:32; stroke-opacity:1; fill:none" points="
  14794,10233.4 18246,10233.4 18246,7330.4 14794,7330.4 14794,10233.4 
  "/>
<polyline clip-path="url(#clip3400)" style="stroke:#009af9; stroke-width:32; stroke-opacity:1; fill:none" points="
  14986,7814.24 16138,7814.24 
  "/>
<path clip-path="url(#clip3400)" d="M 0 0 M16386.9 7676 L16424.3 7676 L16424.3 7933.22 Q16424.3 7983.22 16405.2 8005.81 Q16386.3 8028.4 16344.3 8028.4 L16330 8028.4 L16330 7996.92 L16341.7 7996.92 Q16366.5 7996.92 16376.7 7983.03 Q16386.9 7969.15 16386.9 7933.22 L16386.9 7676 Z" fill="#000000" fill-rule="evenodd" fill-opacity="1" /><path clip-path="url(#clip3400)" d="M 0 0 M16471.3 7921 L16532.4 7921 L16532.4 7710.07 L16465.9 7723.41 L16465.9 7689.33 L16532.1 7676 L16569.5 7676 L16569.5 7921 L16630.6 7921 L16630.6 7952.48 L16471.3 7952.48 L16471.3 7921 Z" fill="#000000" fill-rule="evenodd" fill-opacity="1" /><path clip-path="url(#clip3400)" d="M 0 0 M16791.3 7780.26 L17028.7 7780.26 L17028.7 7811.37 L16791.3 7811.37 L16791.3 7780.26 M16791.3 7855.81 L17028.7 7855.81 L17028.7 7887.29 L16791.3 7887.29 L16791.3 7855.81 Z" fill="#000000" fill-rule="evenodd" fill-opacity="1" /><path clip-path="url(#clip3400)" d="M 0 0 M17269.8 7700.63 Q17240.9 7700.63 17226.3 7729.15 Q17211.9 7757.48 17211.9 7814.52 Q17211.9 7871.37 17226.3 7899.89 Q17240.9 7928.22 17269.8 7928.22 Q17298.9 7928.22 17313.3 7899.89 Q17328 7871.37 17328 7814.52 Q17328 7757.48 17313.3 7729.15 Q17298.9 7700.63 17269.8 7700.63 M17269.8 7671 Q17316.3 7671 17340.8 7707.85 Q17365.4 7744.52 17365.4 7814.52 Q17365.4 7884.33 17340.8 7921.18 Q17316.3 7957.85 17269.8 7957.85 Q17223.3 7957.85 17198.7 7921.18 Q17174.3 7884.33 17174.3 7814.52 Q17174.3 7744.52 17198.7 7707.85 Q17223.3 7671 17269.8 7671 Z" fill="#000000" fill-rule="evenodd" fill-opacity="1" /><path clip-path="url(#clip3400)" d="M 0 0 M17405.9 7905.44 L17445 7905.44 L17445 7952.48 L17405.9 7952.48 L17405.9 7905.44 Z" fill="#000000" fill-rule="evenodd" fill-opacity="1" /><path clip-path="url(#clip3400)" d="M 0 0 M17565.6 7700.63 Q17536.7 7700.63 17522 7729.15 Q17507.6 7757.48 17507.6 7814.52 Q17507.6 7871.37 17522 7899.89 Q17536.7 7928.22 17565.6 7928.22 Q17594.6 7928.22 17609.1 7899.89 Q17623.7 7871.37 17623.7 7814.52 Q17623.7 7757.48 17609.1 7729.15 Q17594.6 7700.63 17565.6 7700.63 M17565.6 7671 Q17612 7671 17636.5 7707.85 Q17661.1 7744.52 17661.1 7814.52 Q17661.1 7884.33 17636.5 7921.18 Q17612 7957.85 17565.6 7957.85 Q17519.1 7957.85 17494.5 7921.18 Q17470 7884.33 17470 7814.52 Q17470 7744.52 17494.5 7707.85 Q17519.1 7671 17565.6 7671 Z" fill="#000000" fill-rule="evenodd" fill-opacity="1" /><polyline clip-path="url(#clip3400)" style="stroke:#e26f46; stroke-width:32; stroke-opacity:1; fill:none" points="
  14986,8298.08 16138,8298.08 
  "/>
<path clip-path="url(#clip3400)" d="M 0 0 M16386.9 8159.84 L16424.3 8159.84 L16424.3 8417.06 Q16424.3 8467.06 16405.2 8489.65 Q16386.3 8512.24 16344.3 8512.24 L16330 8512.24 L16330 8480.76 L16341.7 8480.76 Q16366.5 8480.76 16376.7 8466.87 Q16386.9 8452.99 16386.9 8417.06 L16386.9 8159.84 Z" fill="#000000" fill-rule="evenodd" fill-opacity="1" /><path clip-path="url(#clip3400)" d="M 0 0 M16471.3 8404.84 L16532.4 8404.84 L16532.4 8193.91 L16465.9 8207.25 L16465.9 8173.17 L16532.1 8159.84 L16569.5 8159.84 L16569.5 8404.84 L16630.6 8404.84 L16630.6 8436.32 L16471.3 8436.32 L16471.3 8404.84 Z" fill="#000000" fill-rule="evenodd" fill-opacity="1" /><path clip-path="url(#clip3400)" d="M 0 0 M16791.3 8264.1 L17028.7 8264.1 L17028.7 8295.21 L16791.3 8295.21 L16791.3 8264.1 M16791.3 8339.65 L17028.7 8339.65 L17028.7 8371.13 L16791.3 8371.13 L16791.3 8339.65 Z" fill="#000000" fill-rule="evenodd" fill-opacity="1" /><path clip-path="url(#clip3400)" d="M 0 0 M17269.8 8184.47 Q17240.9 8184.47 17226.3 8212.99 Q17211.9 8241.32 17211.9 8298.36 Q17211.9 8355.21 17226.3 8383.73 Q17240.9 8412.06 17269.8 8412.06 Q17298.9 8412.06 17313.3 8383.73 Q17328 8355.21 17328 8298.36 Q17328 8241.32 17313.3 8212.99 Q17298.9 8184.47 17269.8 8184.47 M17269.8 8154.84 Q17316.3 8154.84 17340.8 8191.69 Q17365.4 8228.36 17365.4 8298.36 Q17365.4 8368.17 17340.8 8405.02 Q17316.3 8441.69 17269.8 8441.69 Q17223.3 8441.69 17198.7 8405.02 Q17174.3 8368.17 17174.3 8298.36 Q17174.3 8228.36 17198.7 8191.69 Q17223.3 8154.84 17269.8 8154.84 Z" fill="#000000" fill-rule="evenodd" fill-opacity="1" /><path clip-path="url(#clip3400)" d="M 0 0 M17405.9 8389.28 L17445 8389.28 L17445 8436.32 L17405.9 8436.32 L17405.9 8389.28 Z" fill="#000000" fill-rule="evenodd" fill-opacity="1" /><path clip-path="url(#clip3400)" d="M 0 0 M17517.8 8404.84 L17648.3 8404.84 L17648.3 8436.32 L17472.8 8436.32 L17472.8 8404.84 Q17494.1 8382.8 17530.8 8345.76 Q17567.6 8308.54 17577 8297.8 Q17595 8277.62 17602 8263.73 Q17609.3 8249.65 17609.3 8236.13 Q17609.3 8214.1 17593.7 8200.21 Q17578.3 8186.32 17553.5 8186.32 Q17535.9 8186.32 17516.3 8192.43 Q17496.9 8198.54 17474.6 8210.95 L17474.6 8173.17 Q17497.2 8164.1 17516.9 8159.47 Q17536.5 8154.84 17552.8 8154.84 Q17595.8 8154.84 17621.3 8176.32 Q17646.9 8197.8 17646.9 8233.73 Q17646.9 8250.76 17640.4 8266.13 Q17634.1 8281.32 17617.2 8302.06 Q17612.6 8307.43 17587.8 8333.17 Q17563 8358.73 17517.8 8404.84 Z" fill="#000000" fill-rule="evenodd" fill-opacity="1" /><path clip-path="url(#clip3400)" d="M 0 0 M17689.3 8159.84 L17836.1 8159.84 L17836.1 8191.32 L17723.5 8191.32 L17723.5 8259.1 Q17731.7 8256.32 17739.8 8255.02 Q17748 8253.54 17756.1 8253.54 Q17802.4 8253.54 17829.5 8278.91 Q17856.5 8304.28 17856.5 8347.62 Q17856.5 8392.24 17828.7 8417.06 Q17800.9 8441.69 17750.4 8441.69 Q17733 8441.69 17714.8 8438.73 Q17696.9 8435.76 17677.6 8429.84 L17677.6 8392.24 Q17694.3 8401.32 17712 8405.76 Q17729.8 8410.21 17749.6 8410.21 Q17781.7 8410.21 17800.4 8393.36 Q17819.1 8376.5 17819.1 8347.62 Q17819.1 8318.73 17800.4 8301.88 Q17781.7 8285.02 17749.6 8285.02 Q17734.6 8285.02 17719.6 8288.36 Q17704.8 8291.69 17689.3 8298.73 L17689.3 8159.84 Z" fill="#000000" fill-rule="evenodd" fill-opacity="1" /><polyline clip-path="url(#clip3400)" style="stroke:#3da44d; stroke-width:32; stroke-opacity:1; fill:none" points="
  14986,8781.92 16138,8781.92 
  "/>
<path clip-path="url(#clip3400)" d="M 0 0 M16386.9 8643.68 L16424.3 8643.68 L16424.3 8900.9 Q16424.3 8950.9 16405.2 8973.49 Q16386.3 8996.08 16344.3 8996.08 L16330 8996.08 L16330 8964.6 L16341.7 8964.6 Q16366.5 8964.6 16376.7 8950.71 Q16386.9 8936.83 16386.9 8900.9 L16386.9 8643.68 Z" fill="#000000" fill-rule="evenodd" fill-opacity="1" /><path clip-path="url(#clip3400)" d="M 0 0 M16471.3 8888.68 L16532.4 8888.68 L16532.4 8677.75 L16465.9 8691.09 L16465.9 8657.01 L16532.1 8643.68 L16569.5 8643.68 L16569.5 8888.68 L16630.6 8888.68 L16630.6 8920.16 L16471.3 8920.16 L16471.3 8888.68 Z" fill="#000000" fill-rule="evenodd" fill-opacity="1" /><path clip-path="url(#clip3400)" d="M 0 0 M16791.3 8747.94 L17028.7 8747.94 L17028.7 8779.05 L16791.3 8779.05 L16791.3 8747.94 M16791.3 8823.49 L17028.7 8823.49 L17028.7 8854.97 L16791.3 8854.97 L16791.3 8823.49 Z" fill="#000000" fill-rule="evenodd" fill-opacity="1" /><path clip-path="url(#clip3400)" d="M 0 0 M17269.8 8668.31 Q17240.9 8668.31 17226.3 8696.83 Q17211.9 8725.16 17211.9 8782.2 Q17211.9 8839.05 17226.3 8867.57 Q17240.9 8895.9 17269.8 8895.9 Q17298.9 8895.9 17313.3 8867.57 Q17328 8839.05 17328 8782.2 Q17328 8725.16 17313.3 8696.83 Q17298.9 8668.31 17269.8 8668.31 M17269.8 8638.68 Q17316.3 8638.68 17340.8 8675.53 Q17365.4 8712.2 17365.4 8782.2 Q17365.4 8852.01 17340.8 8888.86 Q17316.3 8925.53 17269.8 8925.53 Q17223.3 8925.53 17198.7 8888.86 Q17174.3 8852.01 17174.3 8782.2 Q17174.3 8712.2 17198.7 8675.53 Q17223.3 8638.68 17269.8 8638.68 Z" fill="#000000" fill-rule="evenodd" fill-opacity="1" /><path clip-path="url(#clip3400)" d="M 0 0 M17405.9 8873.12 L17445 8873.12 L17445 8920.16 L17405.9 8920.16 L17405.9 8873.12 Z" fill="#000000" fill-rule="evenodd" fill-opacity="1" /><path clip-path="url(#clip3400)" d="M 0 0 M17485.9 8643.68 L17632.8 8643.68 L17632.8 8675.16 L17520.2 8675.16 L17520.2 8742.94 Q17528.3 8740.16 17536.5 8738.86 Q17544.6 8737.38 17552.8 8737.38 Q17599.1 8737.38 17626.1 8762.75 Q17653.2 8788.12 17653.2 8831.46 Q17653.2 8876.08 17625.4 8900.9 Q17597.6 8925.53 17547 8925.53 Q17529.6 8925.53 17511.5 8922.57 Q17493.5 8919.6 17474.3 8913.68 L17474.3 8876.08 Q17490.9 8885.16 17508.7 8889.6 Q17526.5 8894.05 17546.3 8894.05 Q17578.3 8894.05 17597 8877.2 Q17615.8 8860.34 17615.8 8831.46 Q17615.8 8802.57 17597 8785.72 Q17578.3 8768.86 17546.3 8768.86 Q17531.3 8768.86 17516.3 8772.2 Q17501.5 8775.53 17485.9 8782.57 L17485.9 8643.68 Z" fill="#000000" fill-rule="evenodd" fill-opacity="1" /><polyline clip-path="url(#clip3400)" style="stroke:#c271d2; stroke-width:32; stroke-opacity:1; fill:none" points="
  14986,9265.76 16138,9265.76 
  "/>
<path clip-path="url(#clip3400)" d="M 0 0 M16386.9 9127.52 L16424.3 9127.52 L16424.3 9384.74 Q16424.3 9434.74 16405.2 9457.33 Q16386.3 9479.92 16344.3 9479.92 L16330 9479.92 L16330 9448.44 L16341.7 9448.44 Q16366.5 9448.44 16376.7 9434.55 Q16386.9 9420.67 16386.9 9384.74 L16386.9 9127.52 Z" fill="#000000" fill-rule="evenodd" fill-opacity="1" /><path clip-path="url(#clip3400)" d="M 0 0 M16471.3 9372.52 L16532.4 9372.52 L16532.4 9161.59 L16465.9 9174.93 L16465.9 9140.85 L16532.1 9127.52 L16569.5 9127.52 L16569.5 9372.52 L16630.6 9372.52 L16630.6 9404 L16471.3 9404 L16471.3 9372.52 Z" fill="#000000" fill-rule="evenodd" fill-opacity="1" /><path clip-path="url(#clip3400)" d="M 0 0 M16791.3 9231.78 L17028.7 9231.78 L17028.7 9262.89 L16791.3 9262.89 L16791.3 9231.78 M16791.3 9307.33 L17028.7 9307.33 L17028.7 9338.81 L16791.3 9338.81 L16791.3 9307.33 Z" fill="#000000" fill-rule="evenodd" fill-opacity="1" /><path clip-path="url(#clip3400)" d="M 0 0 M17269.8 9152.15 Q17240.9 9152.15 17226.3 9180.67 Q17211.9 9209 17211.9 9266.04 Q17211.9 9322.89 17226.3 9351.41 Q17240.9 9379.74 17269.8 9379.74 Q17298.9 9379.74 17313.3 9351.41 Q17328 9322.89 17328 9266.04 Q17328 9209 17313.3 9180.67 Q17298.9 9152.15 17269.8 9152.15 M17269.8 9122.52 Q17316.3 9122.52 17340.8 9159.37 Q17365.4 9196.04 17365.4 9266.04 Q17365.4 9335.85 17340.8 9372.7 Q17316.3 9409.37 17269.8 9409.37 Q17223.3 9409.37 17198.7 9372.7 Q17174.3 9335.85 17174.3 9266.04 Q17174.3 9196.04 17198.7 9159.37 Q17223.3 9122.52 17269.8 9122.52 Z" fill="#000000" fill-rule="evenodd" fill-opacity="1" /><path clip-path="url(#clip3400)" d="M 0 0 M17405.9 9356.96 L17445 9356.96 L17445 9404 L17405.9 9404 L17405.9 9356.96 Z" fill="#000000" fill-rule="evenodd" fill-opacity="1" /><path clip-path="url(#clip3400)" d="M 0 0 M17476.1 9127.52 L17653.9 9127.52 L17653.9 9143.44 L17553.5 9404 L17514.5 9404 L17608.9 9159 L17476.1 9159 L17476.1 9127.52 Z" fill="#000000" fill-rule="evenodd" fill-opacity="1" /><path clip-path="url(#clip3400)" d="M 0 0 M17694.8 9127.52 L17841.7 9127.52 L17841.7 9159 L17729.1 9159 L17729.1 9226.78 Q17737.2 9224 17745.4 9222.7 Q17753.5 9221.22 17761.7 9221.22 Q17808 9221.22 17835 9246.59 Q17862 9271.96 17862 9315.3 Q17862 9359.92 17834.3 9384.74 Q17806.5 9409.37 17755.9 9409.37 Q17738.5 9409.37 17720.4 9406.41 Q17702.4 9403.44 17683.2 9397.52 L17683.2 9359.92 Q17699.8 9369 17717.6 9373.44 Q17735.4 9377.89 17755.2 9377.89 Q17787.2 9377.89 17805.9 9361.04 Q17824.6 9344.18 17824.6 9315.3 Q17824.6 9286.41 17805.9 9269.56 Q17787.2 9252.7 17755.2 9252.7 Q17740.2 9252.7 17725.2 9256.04 Q17710.4 9259.37 17694.8 9266.41 L17694.8 9127.52 Z" fill="#000000" fill-rule="evenodd" fill-opacity="1" /><polyline clip-path="url(#clip3400)" style="stroke:#ac8d18; stroke-width:32; stroke-opacity:1; fill:none" points="
  14986,9749.6 16138,9749.6 
  "/>
<path clip-path="url(#clip3400)" d="M 0 0 M16386.9 9611.36 L16424.3 9611.36 L16424.3 9868.58 Q16424.3 9918.58 16405.2 9941.17 Q16386.3 9963.76 16344.3 9963.76 L16330 9963.76 L16330 9932.28 L16341.7 9932.28 Q16366.5 9932.28 16376.7 9918.39 Q16386.9 9904.51 16386.9 9868.58 L16386.9 9611.36 Z" fill="#000000" fill-rule="evenodd" fill-opacity="1" /><path clip-path="url(#clip3400)" d="M 0 0 M16471.3 9856.36 L16532.4 9856.36 L16532.4 9645.43 L16465.9 9658.77 L16465.9 9624.69 L16532.1 9611.36 L16569.5 9611.36 L16569.5 9856.36 L16630.6 9856.36 L16630.6 9887.84 L16471.3 9887.84 L16471.3 9856.36 Z" fill="#000000" fill-rule="evenodd" fill-opacity="1" /><path clip-path="url(#clip3400)" d="M 0 0 M16791.3 9715.62 L17028.7 9715.62 L17028.7 9746.73 L16791.3 9746.73 L16791.3 9715.62 M16791.3 9791.17 L17028.7 9791.17 L17028.7 9822.65 L16791.3 9822.65 L16791.3 9791.17 Z" fill="#000000" fill-rule="evenodd" fill-opacity="1" /><path clip-path="url(#clip3400)" d="M 0 0 M17196.3 9856.36 L17257.4 9856.36 L17257.4 9645.43 L17190.9 9658.77 L17190.9 9624.69 L17257.1 9611.36 L17294.5 9611.36 L17294.5 9856.36 L17355.6 9856.36 L17355.6 9887.84 L17196.3 9887.84 L17196.3 9856.36 Z" fill="#000000" fill-rule="evenodd" fill-opacity="1" /><path clip-path="url(#clip3400)" d="M 0 0 M17396.1 9840.8 L17435.2 9840.8 L17435.2 9887.84 L17396.1 9887.84 L17396.1 9840.8 Z" fill="#000000" fill-rule="evenodd" fill-opacity="1" /><path clip-path="url(#clip3400)" d="M 0 0 M17555.8 9635.99 Q17526.9 9635.99 17512.2 9664.51 Q17497.8 9692.84 17497.8 9749.88 Q17497.8 9806.73 17512.2 9835.25 Q17526.9 9863.58 17555.8 9863.58 Q17584.8 9863.58 17599.3 9835.25 Q17613.9 9806.73 17613.9 9749.88 Q17613.9 9692.84 17599.3 9664.51 Q17584.8 9635.99 17555.8 9635.99 M17555.8 9606.36 Q17602.2 9606.36 17626.7 9643.21 Q17651.3 9679.88 17651.3 9749.88 Q17651.3 9819.69 17626.7 9856.54 Q17602.2 9893.21 17555.8 9893.21 Q17509.3 9893.21 17484.6 9856.54 Q17460.2 9819.69 17460.2 9749.88 Q17460.2 9679.88 17484.6 9643.21 Q17509.3 9606.36 17555.8 9606.36 Z" fill="#000000" fill-rule="evenodd" fill-opacity="1" /></svg>
