<?xml version="1.0" encoding="utf-8"?>
<svg xmlns="http://www.w3.org/2000/svg" xmlns:xlink="http://www.w3.org/1999/xlink" width="4800" height="3200" viewBox="0 0 19200 12800">
<defs>
  <clipPath id="clip7500">
    <rect x="0" y="0" width="19200" height="12800"/>
  </clipPath>
</defs>
<path clip-path="url(#clip7500)" d="
M0 12800 L19200 12800 L19200 0 L0 0  Z
  " fill="#ffffff" fill-rule="evenodd" fill-opacity="1"/>
<defs>
  <clipPath id="clip7501">
    <rect x="3840" y="0" width="13441" height="12800"/>
  </clipPath>
</defs>
<path clip-path="url(#clip7500)" d="
M2021.89 11385.4 L18822 11385.4 L18822 987.777 L2021.89 987.777  Z
  " fill="#ffffff" fill-rule="evenodd" fill-opacity="1"/>
<defs>
  <clipPath id="clip7502">
    <rect x="2021" y="987" width="16801" height="10399"/>
  </clipPath>
</defs>
<polyline clip-path="url(#clip7502)" style="stroke:#000000; stroke-width:16; stroke-opacity:0.1; fill:none" points="
  2497.37,11385.4 2497.37,987.777 
  "/>
<polyline clip-path="url(#clip7502)" style="stroke:#000000; stroke-width:16; stroke-opacity:0.1; fill:none" points="
  6099.46,11385.4 6099.46,987.777 
  "/>
<polyline clip-path="url(#clip7502)" style="stroke:#000000; stroke-width:16; stroke-opacity:0.1; fill:none" points="
  9701.55,11385.4 9701.55,987.777 
  "/>
<polyline clip-path="url(#clip7502)" style="stroke:#000000; stroke-width:16; stroke-opacity:0.1; fill:none" points="
  13303.6,11385.4 13303.6,987.777 
  "/>
<polyline clip-path="url(#clip7502)" style="stroke:#000000; stroke-width:16; stroke-opacity:0.1; fill:none" points="
  16905.7,11385.4 16905.7,987.777 
  "/>
<polyline clip-path="url(#clip7502)" style="stroke:#000000; stroke-width:16; stroke-opacity:0.1; fill:none" points="
  2021.89,9892.36 18822,9892.36 
  "/>
<polyline clip-path="url(#clip7502)" style="stroke:#000000; stroke-width:16; stroke-opacity:0.1; fill:none" points="
  2021.89,8372.89 18822,8372.89 
  "/>
<polyline clip-path="url(#clip7502)" style="stroke:#000000; stroke-width:16; stroke-opacity:0.1; fill:none" points="
  2021.89,6853.43 18822,6853.43 
  "/>
<polyline clip-path="url(#clip7502)" style="stroke:#000000; stroke-width:16; stroke-opacity:0.1; fill:none" points="
  2021.89,5333.96 18822,5333.96 
  "/>
<polyline clip-path="url(#clip7502)" style="stroke:#000000; stroke-width:16; stroke-opacity:0.1; fill:none" points="
  2021.89,3814.49 18822,3814.49 
  "/>
<polyline clip-path="url(#clip7502)" style="stroke:#000000; stroke-width:16; stroke-opacity:0.1; fill:none" points="
  2021.89,2295.03 18822,2295.03 
  "/>
<polyline clip-path="url(#clip7500)" style="stroke:#000000; stroke-width:32; stroke-opacity:1; fill:none" points="
  2021.89,11385.4 18822,11385.4 
  "/>
<polyline clip-path="url(#clip7500)" style="stroke:#000000; stroke-width:32; stroke-opacity:1; fill:none" points="
  2021.89,11385.4 2021.89,987.777 
  "/>
<polyline clip-path="url(#clip7500)" style="stroke:#000000; stroke-width:32; stroke-opacity:1; fill:none" points="
  2497.37,11385.4 2497.37,11260.7 
  "/>
<polyline clip-path="url(#clip7500)" style="stroke:#000000; stroke-width:32; stroke-opacity:1; fill:none" points="
  6099.46,11385.4 6099.46,11260.7 
  "/>
<polyline clip-path="url(#clip7500)" style="stroke:#000000; stroke-width:32; stroke-opacity:1; fill:none" points="
  9701.55,11385.4 9701.55,11260.7 
  "/>
<polyline clip-path="url(#clip7500)" style="stroke:#000000; stroke-width:32; stroke-opacity:1; fill:none" points="
  13303.6,11385.4 13303.6,11260.7 
  "/>
<polyline clip-path="url(#clip7500)" style="stroke:#000000; stroke-width:32; stroke-opacity:1; fill:none" points="
  16905.7,11385.4 16905.7,11260.7 
  "/>
<polyline clip-path="url(#clip7500)" style="stroke:#000000; stroke-width:32; stroke-opacity:1; fill:none" points="
  2021.89,9892.36 2223.49,9892.36 
  "/>
<polyline clip-path="url(#clip7500)" style="stroke:#000000; stroke-width:32; stroke-opacity:1; fill:none" points="
  2021.89,8372.89 2223.49,8372.89 
  "/>
<polyline clip-path="url(#clip7500)" style="stroke:#000000; stroke-width:32; stroke-opacity:1; fill:none" points="
  2021.89,6853.43 2223.49,6853.43 
  "/>
<polyline clip-path="url(#clip7500)" style="stroke:#000000; stroke-width:32; stroke-opacity:1; fill:none" points="
  2021.89,5333.96 2223.49,5333.96 
  "/>
<polyline clip-path="url(#clip7500)" style="stroke:#000000; stroke-width:32; stroke-opacity:1; fill:none" points="
  2021.89,3814.49 2223.49,3814.49 
  "/>
<polyline clip-path="url(#clip7500)" style="stroke:#000000; stroke-width:32; stroke-opacity:1; fill:none" points="
  2021.89,2295.03 2223.49,2295.03 
  "/>
<path clip-path="url(#clip7500)" d="M 0 0 M2244.78 11561.4 Q2215.89 11561.4 2201.26 11589.9 Q2186.81 11618.2 2186.81 11675.3 Q2186.81 11732.1 2201.26 11760.6 Q2215.89 11789 2244.78 11789 Q2273.85 11789 2288.29 11760.6 Q2302.92 11732.1 2302.92 11675.3 Q2302.92 11618.2 2288.29 11589.9 Q2273.85 11561.4 2244.78 11561.4 M2244.78 11531.7 Q2291.26 11531.7 2315.7 11568.6 Q2340.33 11605.3 2340.33 11675.3 Q2340.33 11745.1 2315.7 11781.9 Q2291.26 11818.6 2244.78 11818.6 Q2198.3 11818.6 2173.67 11781.9 Q2149.22 11745.1 2149.22 11675.3 Q2149.22 11605.3 2173.67 11568.6 Q2198.3 11531.7 2244.78 11531.7 Z" fill="#000000" fill-rule="evenodd" fill-opacity="1" /><path clip-path="url(#clip7500)" d="M 0 0 M2380.89 11766.2 L2419.96 11766.2 L2419.96 11813.2 L2380.89 11813.2 L2380.89 11766.2 Z" fill="#000000" fill-rule="evenodd" fill-opacity="1" /><path clip-path="url(#clip7500)" d="M 0 0 M2460.89 11536.7 L2607.74 11536.7 L2607.74 11568.2 L2495.15 11568.2 L2495.15 11636 Q2503.29 11633.2 2511.44 11631.9 Q2519.59 11630.4 2527.74 11630.4 Q2574.03 11630.4 2601.07 11655.8 Q2628.11 11681.2 2628.11 11724.5 Q2628.11 11769.1 2600.33 11794 Q2572.55 11818.6 2522 11818.6 Q2504.59 11818.6 2486.44 11815.6 Q2468.48 11812.7 2449.22 11806.7 L2449.22 11769.1 Q2465.89 11778.2 2483.66 11782.7 Q2501.44 11787.1 2521.26 11787.1 Q2553.29 11787.1 2572 11770.3 Q2590.7 11753.4 2590.7 11724.5 Q2590.7 11695.6 2572 11678.8 Q2553.29 11661.9 2521.26 11661.9 Q2506.26 11661.9 2491.26 11665.3 Q2476.44 11668.6 2460.89 11675.6 L2460.89 11536.7 Z" fill="#000000" fill-rule="evenodd" fill-opacity="1" /><path clip-path="url(#clip7500)" d="M 0 0 M2753.29 11660.1 Q2728.11 11660.1 2713.29 11677.3 Q2698.66 11694.5 2698.66 11724.5 Q2698.66 11754.3 2713.29 11771.7 Q2728.11 11789 2753.29 11789 Q2778.48 11789 2793.11 11771.7 Q2807.92 11754.3 2807.92 11724.5 Q2807.92 11694.5 2793.11 11677.3 Q2778.48 11660.1 2753.29 11660.1 M2827.55 11542.8 L2827.55 11576.9 Q2813.48 11570.3 2799.03 11566.7 Q2784.77 11563.2 2770.7 11563.2 Q2733.66 11563.2 2714.03 11588.2 Q2694.59 11613.2 2691.81 11663.8 Q2702.74 11647.7 2719.22 11639.1 Q2735.7 11630.4 2755.51 11630.4 Q2797.18 11630.4 2821.25 11655.8 Q2845.51 11681 2845.51 11724.5 Q2845.51 11767.1 2820.33 11792.8 Q2795.14 11818.6 2753.29 11818.6 Q2705.33 11818.6 2679.96 11781.9 Q2654.59 11745.1 2654.59 11675.3 Q2654.59 11609.7 2685.7 11570.8 Q2716.81 11531.7 2769.22 11531.7 Q2783.29 11531.7 2797.55 11534.5 Q2812 11537.3 2827.55 11542.8 Z" fill="#000000" fill-rule="evenodd" fill-opacity="1" /><path clip-path="url(#clip7500)" d="M 0 0 M5847.89 11561.4 Q5819 11561.4 5804.37 11589.9 Q5789.92 11618.2 5789.92 11675.3 Q5789.92 11732.1 5804.37 11760.6 Q5819 11789 5847.89 11789 Q5876.96 11789 5891.41 11760.6 Q5906.03 11732.1 5906.03 11675.3 Q5906.03 11618.2 5891.41 11589.9 Q5876.96 11561.4 5847.89 11561.4 M5847.89 11531.7 Q5894.37 11531.7 5918.81 11568.6 Q5943.44 11605.3 5943.44 11675.3 Q5943.44 11745.1 5918.81 11781.9 Q5894.37 11818.6 5847.89 11818.6 Q5801.41 11818.6 5776.78 11781.9 Q5752.33 11745.1 5752.33 11675.3 Q5752.33 11605.3 5776.78 11568.6 Q5801.41 11531.7 5847.89 11531.7 Z" fill="#000000" fill-rule="evenodd" fill-opacity="1" /><path clip-path="url(#clip7500)" d="M 0 0 M5984 11766.2 L6023.07 11766.2 L6023.07 11813.2 L5984 11813.2 L5984 11766.2 Z" fill="#000000" fill-rule="evenodd" fill-opacity="1" /><path clip-path="url(#clip7500)" d="M 0 0 M6064 11536.7 L6210.85 11536.7 L6210.85 11568.2 L6098.26 11568.2 L6098.26 11636 Q6106.4 11633.2 6114.55 11631.9 Q6122.7 11630.4 6130.85 11630.4 Q6177.14 11630.4 6204.18 11655.8 Q6231.22 11681.2 6231.22 11724.5 Q6231.22 11769.1 6203.44 11794 Q6175.66 11818.6 6125.11 11818.6 Q6107.7 11818.6 6089.55 11815.6 Q6071.59 11812.7 6052.33 11806.7 L6052.33 11769.1 Q6069 11778.2 6086.77 11782.7 Q6104.55 11787.1 6124.37 11787.1 Q6156.4 11787.1 6175.11 11770.3 Q6193.81 11753.4 6193.81 11724.5 Q6193.81 11695.6 6175.11 11678.8 Q6156.4 11661.9 6124.37 11661.9 Q6109.37 11661.9 6094.37 11665.3 Q6079.55 11668.6 6064 11675.6 L6064 11536.7 Z" fill="#000000" fill-rule="evenodd" fill-opacity="1" /><path clip-path="url(#clip7500)" d="M 0 0 M6351.77 11681.9 Q6325.11 11681.9 6309.74 11696.2 Q6294.55 11710.4 6294.55 11735.4 Q6294.55 11760.4 6309.74 11774.7 Q6325.11 11789 6351.77 11789 Q6378.44 11789 6393.81 11774.7 Q6409.18 11760.3 6409.18 11735.4 Q6409.18 11710.4 6393.81 11696.2 Q6378.62 11681.9 6351.77 11681.9 M6314.37 11666 Q6290.29 11660.1 6276.77 11643.6 Q6263.44 11627.1 6263.44 11603.4 Q6263.44 11570.3 6286.96 11551 Q6310.66 11531.7 6351.77 11531.7 Q6393.07 11531.7 6416.59 11551 Q6440.11 11570.3 6440.11 11603.4 Q6440.11 11627.1 6426.59 11643.6 Q6413.25 11660.1 6389.37 11666 Q6416.4 11672.3 6431.4 11690.6 Q6446.59 11709 6446.59 11735.4 Q6446.59 11775.6 6421.96 11797.1 Q6397.51 11818.6 6351.77 11818.6 Q6306.03 11818.6 6281.4 11797.1 Q6256.96 11775.6 6256.96 11735.4 Q6256.96 11709 6272.14 11690.6 Q6287.33 11672.3 6314.37 11666 M6300.66 11606.9 Q6300.66 11628.4 6314 11640.4 Q6327.51 11652.5 6351.77 11652.5 Q6375.85 11652.5 6389.37 11640.4 Q6403.07 11628.4 6403.07 11606.9 Q6403.07 11585.4 6389.37 11573.4 Q6375.85 11561.4 6351.77 11561.4 Q6327.51 11561.4 6314 11573.4 Q6300.66 11585.4 6300.66 11606.9 Z" fill="#000000" fill-rule="evenodd" fill-opacity="1" /><path clip-path="url(#clip7500)" d="M 0 0 M9444.98 11561.4 Q9416.09 11561.4 9401.46 11589.9 Q9387.02 11618.2 9387.02 11675.3 Q9387.02 11732.1 9401.46 11760.6 Q9416.09 11789 9444.98 11789 Q9474.05 11789 9488.5 11760.6 Q9503.13 11732.1 9503.13 11675.3 Q9503.13 11618.2 9488.5 11589.9 Q9474.05 11561.4 9444.98 11561.4 M9444.98 11531.7 Q9491.46 11531.7 9515.9 11568.6 Q9540.53 11605.3 9540.53 11675.3 Q9540.53 11745.1 9515.9 11781.9 Q9491.46 11818.6 9444.98 11818.6 Q9398.5 11818.6 9373.87 11781.9 Q9349.42 11745.1 9349.42 11675.3 Q9349.42 11605.3 9373.87 11568.6 Q9398.5 11531.7 9444.98 11531.7 Z" fill="#000000" fill-rule="evenodd" fill-opacity="1" /><path clip-path="url(#clip7500)" d="M 0 0 M9581.09 11766.2 L9620.16 11766.2 L9620.16 11813.2 L9581.09 11813.2 L9581.09 11766.2 Z" fill="#000000" fill-rule="evenodd" fill-opacity="1" /><path clip-path="url(#clip7500)" d="M 0 0 M9745.35 11660.1 Q9720.16 11660.1 9705.35 11677.3 Q9690.72 11694.5 9690.72 11724.5 Q9690.72 11754.3 9705.35 11771.7 Q9720.16 11789 9745.35 11789 Q9770.53 11789 9785.16 11771.7 Q9799.98 11754.3 9799.98 11724.5 Q9799.98 11694.5 9785.16 11677.3 Q9770.53 11660.1 9745.35 11660.1 M9819.61 11542.8 L9819.61 11576.9 Q9805.53 11570.3 9791.09 11566.7 Q9776.83 11563.2 9762.75 11563.2 Q9725.72 11563.2 9706.09 11588.2 Q9686.64 11613.2 9683.87 11663.8 Q9694.79 11647.7 9711.27 11639.1 Q9727.75 11630.4 9747.57 11630.4 Q9789.24 11630.4 9813.31 11655.8 Q9837.57 11681 9837.57 11724.5 Q9837.57 11767.1 9812.38 11792.8 Q9787.2 11818.6 9745.35 11818.6 Q9697.38 11818.6 9672.01 11781.9 Q9646.64 11745.1 9646.64 11675.3 Q9646.64 11609.7 9677.75 11570.8 Q9708.87 11531.7 9761.27 11531.7 Q9775.35 11531.7 9789.61 11534.5 Q9804.05 11537.3 9819.61 11542.8 Z" fill="#000000" fill-rule="evenodd" fill-opacity="1" /><path clip-path="url(#clip7500)" d="M 0 0 M9958.12 11561.4 Q9929.24 11561.4 9914.61 11589.9 Q9900.16 11618.2 9900.16 11675.3 Q9900.16 11732.1 9914.61 11760.6 Q9929.24 11789 9958.12 11789 Q9987.2 11789 10001.6 11760.6 Q10016.3 11732.1 10016.3 11675.3 Q10016.3 11618.2 10001.6 11589.9 Q9987.2 11561.4 9958.12 11561.4 M9958.12 11531.7 Q10004.6 11531.7 10029 11568.6 Q10053.7 11605.3 10053.7 11675.3 Q10053.7 11745.1 10029 11781.9 Q10004.6 11818.6 9958.12 11818.6 Q9911.64 11818.6 9887.01 11781.9 Q9862.57 11745.1 9862.57 11675.3 Q9862.57 11605.3 9887.01 11568.6 Q9911.64 11531.7 9958.12 11531.7 Z" fill="#000000" fill-rule="evenodd" fill-opacity="1" /><path clip-path="url(#clip7500)" d="M 0 0 M13053.5 11561.4 Q13024.6 11561.4 13009.9 11589.9 Q12995.5 11618.2 12995.5 11675.3 Q12995.5 11732.1 13009.9 11760.6 Q13024.6 11789 13053.5 11789 Q13082.5 11789 13097 11760.6 Q13111.6 11732.1 13111.6 11675.3 Q13111.6 11618.2 13097 11589.9 Q13082.5 11561.4 13053.5 11561.4 M13053.5 11531.7 Q13099.9 11531.7 13124.4 11568.6 Q13149 11605.3 13149 11675.3 Q13149 11745.1 13124.4 11781.9 Q13099.9 11818.6 13053.5 11818.6 Q13007 11818.6 12982.3 11781.9 Q12957.9 11745.1 12957.9 11675.3 Q12957.9 11605.3 12982.3 11568.6 Q13007 11531.7 13053.5 11531.7 Z" fill="#000000" fill-rule="evenodd" fill-opacity="1" /><path clip-path="url(#clip7500)" d="M 0 0 M13189.6 11766.2 L13228.6 11766.2 L13228.6 11813.2 L13189.6 11813.2 L13189.6 11766.2 Z" fill="#000000" fill-rule="evenodd" fill-opacity="1" /><path clip-path="url(#clip7500)" d="M 0 0 M13353.8 11660.1 Q13328.6 11660.1 13313.8 11677.3 Q13299.2 11694.5 13299.2 11724.5 Q13299.2 11754.3 13313.8 11771.7 Q13328.6 11789 13353.8 11789 Q13379 11789 13393.6 11771.7 Q13408.5 11754.3 13408.5 11724.5 Q13408.5 11694.5 13393.6 11677.3 Q13379 11660.1 13353.8 11660.1 M13428.1 11542.8 L13428.1 11576.9 Q13414 11570.3 13399.6 11566.7 Q13385.3 11563.2 13371.2 11563.2 Q13334.2 11563.2 13314.6 11588.2 Q13295.1 11613.2 13292.3 11663.8 Q13303.3 11647.7 13319.8 11639.1 Q13336.2 11630.4 13356 11630.4 Q13397.7 11630.4 13421.8 11655.8 Q13446 11681 13446 11724.5 Q13446 11767.1 13420.9 11792.8 Q13395.7 11818.6 13353.8 11818.6 Q13305.9 11818.6 13280.5 11781.9 Q13255.1 11745.1 13255.1 11675.3 Q13255.1 11609.7 13286.2 11570.8 Q13317.3 11531.7 13369.8 11531.7 Q13383.8 11531.7 13398.1 11534.5 Q13412.5 11537.3 13428.1 11542.8 Z" fill="#000000" fill-rule="evenodd" fill-opacity="1" /><path clip-path="url(#clip7500)" d="M 0 0 M13518.8 11781.7 L13649.4 11781.7 L13649.4 11813.2 L13473.8 11813.2 L13473.8 11781.7 Q13495.1 11759.7 13531.8 11722.7 Q13568.6 11685.4 13578.1 11674.7 Q13596 11654.5 13603.1 11640.6 Q13610.3 11626.5 13610.3 11613 Q13610.3 11591 13594.8 11577.1 Q13579.4 11563.2 13554.6 11563.2 Q13537 11563.2 13517.3 11569.3 Q13497.9 11575.4 13475.7 11587.8 L13475.7 11550.1 Q13498.3 11541 13517.9 11536.4 Q13537.5 11531.7 13553.8 11531.7 Q13596.8 11531.7 13622.3 11553.2 Q13647.9 11574.7 13647.9 11610.6 Q13647.9 11627.7 13641.4 11643 Q13635.1 11658.2 13618.3 11679 Q13613.6 11684.3 13588.8 11710.1 Q13564 11735.6 13518.8 11781.7 Z" fill="#000000" fill-rule="evenodd" fill-opacity="1" /><path clip-path="url(#clip7500)" d="M 0 0 M16647.2 11561.4 Q16618.3 11561.4 16603.7 11589.9 Q16589.3 11618.2 16589.3 11675.3 Q16589.3 11732.1 16603.7 11760.6 Q16618.3 11789 16647.2 11789 Q16676.3 11789 16690.7 11760.6 Q16705.4 11732.1 16705.4 11675.3 Q16705.4 11618.2 16690.7 11589.9 Q16676.3 11561.4 16647.2 11561.4 M16647.2 11531.7 Q16693.7 11531.7 16718.1 11568.6 Q16742.8 11605.3 16742.8 11675.3 Q16742.8 11745.1 16718.1 11781.9 Q16693.7 11818.6 16647.2 11818.6 Q16600.7 11818.6 16576.1 11781.9 Q16551.7 11745.1 16551.7 11675.3 Q16551.7 11605.3 16576.1 11568.6 Q16600.7 11531.7 16647.2 11531.7 Z" fill="#000000" fill-rule="evenodd" fill-opacity="1" /><path clip-path="url(#clip7500)" d="M 0 0 M16783.3 11766.2 L16822.4 11766.2 L16822.4 11813.2 L16783.3 11813.2 L16783.3 11766.2 Z" fill="#000000" fill-rule="evenodd" fill-opacity="1" /><path clip-path="url(#clip7500)" d="M 0 0 M16947.6 11660.1 Q16922.4 11660.1 16907.6 11677.3 Q16893 11694.5 16893 11724.5 Q16893 11754.3 16907.6 11771.7 Q16922.4 11789 16947.6 11789 Q16972.8 11789 16987.4 11771.7 Q17002.2 11754.3 17002.2 11724.5 Q17002.2 11694.5 16987.4 11677.3 Q16972.8 11660.1 16947.6 11660.1 M17021.8 11542.8 L17021.8 11576.9 Q17007.8 11570.3 16993.3 11566.7 Q16979.1 11563.2 16965 11563.2 Q16928 11563.2 16908.3 11588.2 Q16888.9 11613.2 16886.1 11663.8 Q16897 11647.7 16913.5 11639.1 Q16930 11630.4 16949.8 11630.4 Q16991.5 11630.4 17015.5 11655.8 Q17039.8 11681 17039.8 11724.5 Q17039.8 11767.1 17014.6 11792.8 Q16989.4 11818.6 16947.6 11818.6 Q16899.6 11818.6 16874.3 11781.9 Q16848.9 11745.1 16848.9 11675.3 Q16848.9 11609.7 16880 11570.8 Q16911.1 11531.7 16963.5 11531.7 Q16977.6 11531.7 16991.8 11534.5 Q17006.3 11537.3 17021.8 11542.8 Z" fill="#000000" fill-rule="evenodd" fill-opacity="1" /><path clip-path="url(#clip7500)" d="M 0 0 M17183.1 11569.3 L17088.7 11716.9 L17183.1 11716.9 L17183.1 11569.3 M17173.3 11536.7 L17220.4 11536.7 L17220.4 11716.9 L17259.8 11716.9 L17259.8 11748 L17220.4 11748 L17220.4 11813.2 L17183.1 11813.2 L17183.1 11748 L17058.3 11748 L17058.3 11711.9 L17173.3 11536.7 Z" fill="#000000" fill-rule="evenodd" fill-opacity="1" /><path clip-path="url(#clip7500)" d="M 0 0 M1017.3 9911.52 L1117.12 9911.52 L1117.12 9941.89 L1017.3 9941.89 L1017.3 9911.52 Z" fill="#000000" fill-rule="evenodd" fill-opacity="1" /><path clip-path="url(#clip7500)" d="M 0 0 M1237.67 9778.75 Q1208.78 9778.75 1194.15 9807.26 Q1179.71 9835.6 1179.71 9892.63 Q1179.71 9949.49 1194.15 9978 Q1208.78 10006.3 1237.67 10006.3 Q1266.75 10006.3 1281.19 9978 Q1295.82 9949.49 1295.82 9892.63 Q1295.82 9835.6 1281.19 9807.26 Q1266.75 9778.75 1237.67 9778.75 M1237.67 9749.12 Q1284.15 9749.12 1308.6 9785.97 Q1333.23 9822.63 1333.23 9892.63 Q1333.23 9962.45 1308.6 9999.3 Q1284.15 10036 1237.67 10036 Q1191.19 10036 1166.56 9999.3 Q1142.12 9962.45 1142.12 9892.63 Q1142.12 9822.63 1166.56 9785.97 Q1191.19 9749.12 1237.67 9749.12 Z" fill="#000000" fill-rule="evenodd" fill-opacity="1" /><path clip-path="url(#clip7500)" d="M 0 0 M1373.78 9983.56 L1412.86 9983.56 L1412.86 10030.6 L1373.78 10030.6 L1373.78 9983.56 Z" fill="#000000" fill-rule="evenodd" fill-opacity="1" /><path clip-path="url(#clip7500)" d="M 0 0 M1443.97 9754.12 L1621.74 9754.12 L1621.74 9770.04 L1521.37 10030.6 L1482.3 10030.6 L1576.74 9785.6 L1443.97 9785.6 L1443.97 9754.12 Z" fill="#000000" fill-rule="evenodd" fill-opacity="1" /><path clip-path="url(#clip7500)" d="M 0 0 M1662.67 9754.12 L1809.52 9754.12 L1809.52 9785.6 L1696.93 9785.6 L1696.93 9853.38 Q1705.08 9850.6 1713.23 9849.3 Q1721.37 9847.82 1729.52 9847.82 Q1775.82 9847.82 1802.85 9873.19 Q1829.89 9898.56 1829.89 9941.89 Q1829.89 9986.52 1802.11 10011.3 Q1774.34 10036 1723.78 10036 Q1706.37 10036 1688.23 10033 Q1670.26 10030 1651 10024.1 L1651 9986.52 Q1667.67 9995.6 1685.45 10000 Q1703.23 10004.5 1723.04 10004.5 Q1755.08 10004.5 1773.78 9987.63 Q1792.48 9970.78 1792.48 9941.89 Q1792.48 9913 1773.78 9896.15 Q1755.08 9879.3 1723.04 9879.3 Q1708.04 9879.3 1693.04 9882.63 Q1678.23 9885.97 1662.67 9893 L1662.67 9754.12 Z" fill="#000000" fill-rule="evenodd" fill-opacity="1" /><path clip-path="url(#clip7500)" d="M 0 0 M1010.08 8392.06 L1109.9 8392.06 L1109.9 8422.43 L1010.08 8422.43 L1010.08 8392.06 Z" fill="#000000" fill-rule="evenodd" fill-opacity="1" /><path clip-path="url(#clip7500)" d="M 0 0 M1230.45 8259.28 Q1201.56 8259.28 1186.93 8287.8 Q1172.49 8316.13 1172.49 8373.17 Q1172.49 8430.02 1186.93 8458.54 Q1201.56 8486.87 1230.45 8486.87 Q1259.52 8486.87 1273.97 8458.54 Q1288.6 8430.02 1288.6 8373.17 Q1288.6 8316.13 1273.97 8287.8 Q1259.52 8259.28 1230.45 8259.28 M1230.45 8229.65 Q1276.93 8229.65 1301.38 8266.5 Q1326.01 8303.17 1326.01 8373.17 Q1326.01 8442.98 1301.38 8479.83 Q1276.93 8516.5 1230.45 8516.5 Q1183.97 8516.5 1159.34 8479.83 Q1134.9 8442.98 1134.9 8373.17 Q1134.9 8303.17 1159.34 8266.5 Q1183.97 8229.65 1230.45 8229.65 Z" fill="#000000" fill-rule="evenodd" fill-opacity="1" /><path clip-path="url(#clip7500)" d="M 0 0 M1366.56 8464.09 L1405.63 8464.09 L1405.63 8511.13 L1366.56 8511.13 L1366.56 8464.09 Z" fill="#000000" fill-rule="evenodd" fill-opacity="1" /><path clip-path="url(#clip7500)" d="M 0 0 M1446.56 8234.65 L1593.41 8234.65 L1593.41 8266.13 L1480.82 8266.13 L1480.82 8333.91 Q1488.97 8331.13 1497.12 8329.84 Q1505.26 8328.35 1513.41 8328.35 Q1559.71 8328.35 1586.74 8353.72 Q1613.78 8379.09 1613.78 8422.43 Q1613.78 8467.06 1586 8491.87 Q1558.23 8516.5 1507.67 8516.5 Q1490.26 8516.5 1472.12 8513.54 Q1454.15 8510.58 1434.89 8504.65 L1434.89 8467.06 Q1451.56 8476.13 1469.34 8480.58 Q1487.12 8485.02 1506.93 8485.02 Q1538.97 8485.02 1557.67 8468.17 Q1576.37 8451.32 1576.37 8422.43 Q1576.37 8393.54 1557.67 8376.69 Q1538.97 8359.84 1506.93 8359.84 Q1491.93 8359.84 1476.93 8363.17 Q1462.12 8366.5 1446.56 8373.54 L1446.56 8234.65 Z" fill="#000000" fill-rule="evenodd" fill-opacity="1" /><path clip-path="url(#clip7500)" d="M 0 0 M1734.34 8259.28 Q1705.45 8259.28 1690.82 8287.8 Q1676.37 8316.13 1676.37 8373.17 Q1676.37 8430.02 1690.82 8458.54 Q1705.45 8486.87 1734.34 8486.87 Q1763.41 8486.87 1777.85 8458.54 Q1792.48 8430.02 1792.48 8373.17 Q1792.48 8316.13 1777.85 8287.8 Q1763.41 8259.28 1734.34 8259.28 M1734.34 8229.65 Q1780.82 8229.65 1805.26 8266.5 Q1829.89 8303.17 1829.89 8373.17 Q1829.89 8442.98 1805.26 8479.83 Q1780.82 8516.5 1734.34 8516.5 Q1687.86 8516.5 1663.23 8479.83 Q1638.78 8442.98 1638.78 8373.17 Q1638.78 8303.17 1663.23 8266.5 Q1687.86 8229.65 1734.34 8229.65 Z" fill="#000000" fill-rule="evenodd" fill-opacity="1" /><path clip-path="url(#clip7500)" d="M 0 0 M1022.86 6872.59 L1122.67 6872.59 L1122.67 6902.96 L1022.86 6902.96 L1022.86 6872.59 Z" fill="#000000" fill-rule="evenodd" fill-opacity="1" /><path clip-path="url(#clip7500)" d="M 0 0 M1243.23 6739.81 Q1214.34 6739.81 1199.71 6768.33 Q1185.27 6796.67 1185.27 6853.7 Q1185.27 6910.55 1199.71 6939.07 Q1214.34 6967.41 1243.23 6967.41 Q1272.3 6967.41 1286.75 6939.07 Q1301.38 6910.55 1301.38 6853.7 Q1301.38 6796.67 1286.75 6768.33 Q1272.3 6739.81 1243.23 6739.81 M1243.23 6710.19 Q1289.71 6710.19 1314.15 6747.04 Q1338.78 6783.7 1338.78 6853.7 Q1338.78 6923.52 1314.15 6960.37 Q1289.71 6997.04 1243.23 6997.04 Q1196.75 6997.04 1172.12 6960.37 Q1147.67 6923.52 1147.67 6853.7 Q1147.67 6783.7 1172.12 6747.04 Q1196.75 6710.19 1243.23 6710.19 Z" fill="#000000" fill-rule="evenodd" fill-opacity="1" /><path clip-path="url(#clip7500)" d="M 0 0 M1379.34 6944.63 L1418.41 6944.63 L1418.41 6991.67 L1379.34 6991.67 L1379.34 6944.63 Z" fill="#000000" fill-rule="evenodd" fill-opacity="1" /><path clip-path="url(#clip7500)" d="M 0 0 M1491.19 6960.18 L1621.74 6960.18 L1621.74 6991.67 L1446.19 6991.67 L1446.19 6960.18 Q1467.49 6938.15 1504.15 6901.11 Q1541 6863.89 1550.45 6853.15 Q1568.41 6832.96 1575.45 6819.07 Q1582.67 6805 1582.67 6791.48 Q1582.67 6769.44 1567.12 6755.56 Q1551.75 6741.67 1526.93 6741.67 Q1509.34 6741.67 1489.71 6747.78 Q1470.26 6753.89 1448.04 6766.3 L1448.04 6728.52 Q1470.63 6719.44 1490.26 6714.81 Q1509.89 6710.19 1526.19 6710.19 Q1569.15 6710.19 1594.71 6731.67 Q1620.26 6753.15 1620.26 6789.07 Q1620.26 6806.11 1613.78 6821.48 Q1607.49 6836.67 1590.63 6857.41 Q1586 6862.78 1561.19 6888.52 Q1536.37 6914.07 1491.19 6960.18 Z" fill="#000000" fill-rule="evenodd" fill-opacity="1" /><path clip-path="url(#clip7500)" d="M 0 0 M1662.67 6715.19 L1809.52 6715.19 L1809.52 6746.67 L1696.93 6746.67 L1696.93 6814.44 Q1705.08 6811.67 1713.23 6810.37 Q1721.37 6808.89 1729.52 6808.89 Q1775.82 6808.89 1802.85 6834.26 Q1829.89 6859.63 1829.89 6902.96 Q1829.89 6947.59 1802.11 6972.41 Q1774.34 6997.04 1723.78 6997.04 Q1706.37 6997.04 1688.23 6994.07 Q1670.26 6991.11 1651 6985.18 L1651 6947.59 Q1667.67 6956.67 1685.45 6961.11 Q1703.23 6965.55 1723.04 6965.55 Q1755.08 6965.55 1773.78 6948.7 Q1792.48 6931.85 1792.48 6902.96 Q1792.48 6874.07 1773.78 6857.22 Q1755.08 6840.37 1723.04 6840.37 Q1708.04 6840.37 1693.04 6843.7 Q1678.23 6847.04 1662.67 6854.07 L1662.67 6715.19 Z" fill="#000000" fill-rule="evenodd" fill-opacity="1" /><path clip-path="url(#clip7500)" d="M 0 0 M1222.49 5220.35 Q1193.6 5220.35 1178.97 5248.87 Q1164.52 5277.2 1164.52 5334.24 Q1164.52 5391.09 1178.97 5419.61 Q1193.6 5447.94 1222.49 5447.94 Q1251.56 5447.94 1266.01 5419.61 Q1280.64 5391.09 1280.64 5334.24 Q1280.64 5277.2 1266.01 5248.87 Q1251.56 5220.35 1222.49 5220.35 M1222.49 5190.72 Q1268.97 5190.72 1293.41 5227.57 Q1318.04 5264.24 1318.04 5334.24 Q1318.04 5404.05 1293.41 5440.9 Q1268.97 5477.57 1222.49 5477.57 Q1176.01 5477.57 1151.38 5440.9 Q1126.93 5404.05 1126.93 5334.24 Q1126.93 5264.24 1151.38 5227.57 Q1176.01 5190.72 1222.49 5190.72 Z" fill="#000000" fill-rule="evenodd" fill-opacity="1" /><path clip-path="url(#clip7500)" d="M 0 0 M1358.6 5425.16 L1397.67 5425.16 L1397.67 5472.2 L1358.6 5472.2 L1358.6 5425.16 Z" fill="#000000" fill-rule="evenodd" fill-opacity="1" /><path clip-path="url(#clip7500)" d="M 0 0 M1518.23 5220.35 Q1489.34 5220.35 1474.71 5248.87 Q1460.26 5277.2 1460.26 5334.24 Q1460.26 5391.09 1474.71 5419.61 Q1489.34 5447.94 1518.23 5447.94 Q1547.3 5447.94 1561.74 5419.61 Q1576.37 5391.09 1576.37 5334.24 Q1576.37 5277.2 1561.74 5248.87 Q1547.3 5220.35 1518.23 5220.35 M1518.23 5190.72 Q1564.71 5190.72 1589.15 5227.57 Q1613.78 5264.24 1613.78 5334.24 Q1613.78 5404.05 1589.15 5440.9 Q1564.71 5477.57 1518.23 5477.57 Q1471.75 5477.57 1447.12 5440.9 Q1422.67 5404.05 1422.67 5334.24 Q1422.67 5264.24 1447.12 5227.57 Q1471.75 5190.72 1518.23 5190.72 Z" fill="#000000" fill-rule="evenodd" fill-opacity="1" /><path clip-path="url(#clip7500)" d="M 0 0 M1734.34 5220.35 Q1705.45 5220.35 1690.82 5248.87 Q1676.37 5277.2 1676.37 5334.24 Q1676.37 5391.09 1690.82 5419.61 Q1705.45 5447.94 1734.34 5447.94 Q1763.41 5447.94 1777.85 5419.61 Q1792.48 5391.09 1792.48 5334.24 Q1792.48 5277.2 1777.85 5248.87 Q1763.41 5220.35 1734.34 5220.35 M1734.34 5190.72 Q1780.82 5190.72 1805.26 5227.57 Q1829.89 5264.24 1829.89 5334.24 Q1829.89 5404.05 1805.26 5440.9 Q1780.82 5477.57 1734.34 5477.57 Q1687.86 5477.57 1663.23 5440.9 Q1638.78 5404.05 1638.78 5334.24 Q1638.78 5264.24 1663.23 5227.57 Q1687.86 5190.72 1734.34 5190.72 Z" fill="#000000" fill-rule="evenodd" fill-opacity="1" /><path clip-path="url(#clip7500)" d="M 0 0 M1243.23 3700.88 Q1214.34 3700.88 1199.71 3729.4 Q1185.27 3757.73 1185.27 3814.77 Q1185.27 3871.62 1199.71 3900.14 Q1214.34 3928.47 1243.23 3928.47 Q1272.3 3928.47 1286.75 3900.14 Q1301.38 3871.62 1301.38 3814.77 Q1301.38 3757.73 1286.75 3729.4 Q1272.3 3700.88 1243.23 3700.88 M1243.23 3671.25 Q1289.71 3671.25 1314.15 3708.11 Q1338.78 3744.77 1338.78 3814.77 Q1338.78 3884.59 1314.15 3921.44 Q1289.71 3958.1 1243.23 3958.1 Q1196.75 3958.1 1172.12 3921.44 Q1147.67 3884.59 1147.67 3814.77 Q1147.67 3744.77 1172.12 3708.11 Q1196.75 3671.25 1243.23 3671.25 Z" fill="#000000" fill-rule="evenodd" fill-opacity="1" /><path clip-path="url(#clip7500)" d="M 0 0 M1379.34 3905.7 L1418.41 3905.7 L1418.41 3952.73 L1379.34 3952.73 L1379.34 3905.7 Z" fill="#000000" fill-rule="evenodd" fill-opacity="1" /><path clip-path="url(#clip7500)" d="M 0 0 M1491.19 3921.25 L1621.74 3921.25 L1621.74 3952.73 L1446.19 3952.73 L1446.19 3921.25 Q1467.49 3899.22 1504.15 3862.18 Q1541 3824.96 1550.45 3814.22 Q1568.41 3794.03 1575.45 3780.14 Q1582.67 3766.07 1582.67 3752.55 Q1582.67 3730.51 1567.12 3716.62 Q1551.75 3702.73 1526.93 3702.73 Q1509.34 3702.73 1489.71 3708.85 Q1470.26 3714.96 1448.04 3727.36 L1448.04 3689.59 Q1470.63 3680.51 1490.26 3675.88 Q1509.89 3671.25 1526.19 3671.25 Q1569.15 3671.25 1594.71 3692.73 Q1620.26 3714.22 1620.26 3750.14 Q1620.26 3767.18 1613.78 3782.55 Q1607.49 3797.73 1590.63 3818.47 Q1586 3823.85 1561.19 3849.59 Q1536.37 3875.14 1491.19 3921.25 Z" fill="#000000" fill-rule="evenodd" fill-opacity="1" /><path clip-path="url(#clip7500)" d="M 0 0 M1662.67 3676.25 L1809.52 3676.25 L1809.52 3707.73 L1696.93 3707.73 L1696.93 3775.51 Q1705.08 3772.73 1713.23 3771.44 Q1721.37 3769.96 1729.52 3769.96 Q1775.82 3769.96 1802.85 3795.33 Q1829.89 3820.7 1829.89 3864.03 Q1829.89 3908.66 1802.11 3933.47 Q1774.34 3958.1 1723.78 3958.1 Q1706.37 3958.1 1688.23 3955.14 Q1670.26 3952.18 1651 3946.25 L1651 3908.66 Q1667.67 3917.73 1685.45 3922.18 Q1703.23 3926.62 1723.04 3926.62 Q1755.08 3926.62 1773.78 3909.77 Q1792.48 3892.92 1792.48 3864.03 Q1792.48 3835.14 1773.78 3818.29 Q1755.08 3801.44 1723.04 3801.44 Q1708.04 3801.44 1693.04 3804.77 Q1678.23 3808.1 1662.67 3815.14 L1662.67 3676.25 Z" fill="#000000" fill-rule="evenodd" fill-opacity="1" /><path clip-path="url(#clip7500)" d="M 0 0 M1230.45 2181.42 Q1201.56 2181.42 1186.93 2209.94 Q1172.49 2238.27 1172.49 2295.31 Q1172.49 2352.16 1186.93 2380.68 Q1201.56 2409.01 1230.45 2409.01 Q1259.52 2409.01 1273.97 2380.68 Q1288.6 2352.16 1288.6 2295.31 Q1288.6 2238.27 1273.97 2209.94 Q1259.52 2181.42 1230.45 2181.42 M1230.45 2151.79 Q1276.93 2151.79 1301.38 2188.64 Q1326.01 2225.31 1326.01 2295.31 Q1326.01 2365.12 1301.38 2401.97 Q1276.93 2438.64 1230.45 2438.64 Q1183.97 2438.64 1159.34 2401.97 Q1134.9 2365.12 1134.9 2295.31 Q1134.9 2225.31 1159.34 2188.64 Q1183.97 2151.79 1230.45 2151.79 Z" fill="#000000" fill-rule="evenodd" fill-opacity="1" /><path clip-path="url(#clip7500)" d="M 0 0 M1366.56 2386.23 L1405.63 2386.23 L1405.63 2433.27 L1366.56 2433.27 L1366.56 2386.23 Z" fill="#000000" fill-rule="evenodd" fill-opacity="1" /><path clip-path="url(#clip7500)" d="M 0 0 M1446.56 2156.79 L1593.41 2156.79 L1593.41 2188.27 L1480.82 2188.27 L1480.82 2256.05 Q1488.97 2253.27 1497.12 2251.97 Q1505.26 2250.49 1513.41 2250.49 Q1559.71 2250.49 1586.74 2275.86 Q1613.78 2301.23 1613.78 2344.56 Q1613.78 2389.19 1586 2414.01 Q1558.23 2438.64 1507.67 2438.64 Q1490.26 2438.64 1472.12 2435.68 Q1454.15 2432.71 1434.89 2426.79 L1434.89 2389.19 Q1451.56 2398.27 1469.34 2402.71 Q1487.12 2407.16 1506.93 2407.16 Q1538.97 2407.16 1557.67 2390.3 Q1576.37 2373.45 1576.37 2344.56 Q1576.37 2315.68 1557.67 2298.82 Q1538.97 2281.97 1506.93 2281.97 Q1491.93 2281.97 1476.93 2285.31 Q1462.12 2288.64 1446.56 2295.68 L1446.56 2156.79 Z" fill="#000000" fill-rule="evenodd" fill-opacity="1" /><path clip-path="url(#clip7500)" d="M 0 0 M1734.34 2181.42 Q1705.45 2181.42 1690.82 2209.94 Q1676.37 2238.27 1676.37 2295.31 Q1676.37 2352.16 1690.82 2380.68 Q1705.45 2409.01 1734.34 2409.01 Q1763.41 2409.01 1777.85 2380.68 Q1792.48 2352.16 1792.48 2295.31 Q1792.48 2238.27 1777.85 2209.94 Q1763.41 2181.42 1734.34 2181.42 M1734.34 2151.79 Q1780.82 2151.79 1805.26 2188.64 Q1829.89 2225.31 1829.89 2295.31 Q1829.89 2365.12 1805.26 2401.97 Q1780.82 2438.64 1734.34 2438.64 Q1687.86 2438.64 1663.23 2401.97 Q1638.78 2365.12 1638.78 2295.31 Q1638.78 2225.31 1663.23 2188.64 Q1687.86 2151.79 1734.34 2151.79 Z" fill="#000000" fill-rule="evenodd" fill-opacity="1" /><path clip-path="url(#clip7500)" d="M 0 0 M6546.87 349.544 L6546.87 526.812 L6651.87 526.812 Q6704.7 526.812 6729.98 505.099 Q6755.58 483.062 6755.58 438.016 Q6755.58 392.646 6729.98 371.257 Q6704.7 349.544 6651.87 349.544 L6546.87 349.544 M6546.87 150.564 L6546.87 296.397 L6643.77 296.397 Q6691.73 296.397 6715.07 278.573 Q6738.73 260.425 6738.73 223.48 Q6738.73 186.86 6715.07 168.712 Q6691.73 150.564 6643.77 150.564 L6546.87 150.564 M6481.41 96.768 L6648.63 96.768 Q6723.49 96.768 6764 127.879 Q6804.51 158.99 6804.51 216.351 Q6804.51 260.749 6783.77 286.998 Q6763.03 313.248 6722.85 319.73 Q6771.13 330.1 6797.71 363.155 Q6824.6 395.887 6824.6 445.146 Q6824.6 509.96 6780.53 545.284 Q6736.46 580.608 6655.11 580.608 L6481.41 580.608 L6481.41 96.768 Z" fill="#000000" fill-rule="evenodd" fill-opacity="1" /><path clip-path="url(#clip7500)" d="M 0 0 M7113.35 498.294 L7181.73 498.294 L7181.73 580.608 L7113.35 580.608 L7113.35 498.294 M7113.35 237.415 L7181.73 237.415 L7181.73 319.73 L7113.35 319.73 L7113.35 237.415 Z" fill="#000000" fill-rule="evenodd" fill-opacity="1" /><path clip-path="url(#clip7500)" d="M 0 0 M7603.67 350.841 Q7557.01 350.841 7530.11 375.794 Q7503.54 400.748 7503.54 444.498 Q7503.54 488.247 7530.11 513.201 Q7557.01 538.155 7603.67 538.155 Q7650.34 538.155 7677.24 513.201 Q7704.14 487.923 7704.14 444.498 Q7704.14 400.748 7677.24 375.794 Q7650.66 350.841 7603.67 350.841 M7538.21 322.97 Q7496.08 312.6 7472.43 283.758 Q7449.09 254.915 7449.09 213.434 Q7449.09 155.425 7490.25 121.722 Q7531.73 88.018 7603.67 88.018 Q7675.94 88.018 7717.1 121.722 Q7758.26 155.425 7758.26 213.434 Q7758.26 254.915 7734.6 283.758 Q7711.27 312.6 7669.46 322.97 Q7716.78 333.989 7743.03 366.072 Q7769.6 398.155 7769.6 444.498 Q7769.6 514.821 7726.5 552.414 Q7683.72 590.006 7603.67 590.006 Q7523.63 590.006 7480.53 552.414 Q7437.75 514.821 7437.75 444.498 Q7437.75 398.155 7464.32 366.072 Q7490.9 333.989 7538.21 322.97 M7514.23 219.591 Q7514.23 257.184 7537.56 278.249 Q7561.22 299.313 7603.67 299.313 Q7645.8 299.313 7669.46 278.249 Q7693.44 257.184 7693.44 219.591 Q7693.44 181.999 7669.46 160.934 Q7645.8 139.87 7603.67 139.87 Q7561.22 139.87 7537.56 160.934 Q7514.23 181.999 7514.23 219.591 Z" fill="#000000" fill-rule="evenodd" fill-opacity="1" /><path clip-path="url(#clip7500)" d="M 0 0 M8292.65 176.49 L8176.31 239.36 L8292.65 302.554 L8273.86 334.313 L8164.97 268.526 L8164.97 390.702 L8128.02 390.702 L8128.02 268.526 L8019.14 334.313 L8000.34 302.554 L8116.68 239.36 L8000.34 176.49 L8019.14 144.407 L8128.02 210.193 L8128.02 88.018 L8164.97 88.018 L8164.97 210.193 L8273.86 144.407 L8292.65 176.49 Z" fill="#000000" fill-rule="evenodd" fill-opacity="1" /><path clip-path="url(#clip7500)" d="M 0 0 M8714.59 350.841 Q8667.93 350.841 8641.03 375.794 Q8614.46 400.748 8614.46 444.498 Q8614.46 488.247 8641.03 513.201 Q8667.93 538.155 8714.59 538.155 Q8761.26 538.155 8788.16 513.201 Q8815.06 487.923 8815.06 444.498 Q8815.06 400.748 8788.16 375.794 Q8761.58 350.841 8714.59 350.841 M8649.13 322.97 Q8607 312.6 8583.35 283.758 Q8560.01 254.915 8560.01 213.434 Q8560.01 155.425 8601.17 121.722 Q8642.65 88.018 8714.59 88.018 Q8786.86 88.018 8828.02 121.722 Q8869.18 155.425 8869.18 213.434 Q8869.18 254.915 8845.52 283.758 Q8822.19 312.6 8780.38 322.97 Q8827.7 333.989 8853.95 366.072 Q8880.52 398.155 8880.52 444.498 Q8880.52 514.821 8837.42 552.414 Q8794.64 590.006 8714.59 590.006 Q8634.55 590.006 8591.45 552.414 Q8548.67 514.821 8548.67 444.498 Q8548.67 398.155 8575.24 366.072 Q8601.82 333.989 8649.13 322.97 M8625.15 219.591 Q8625.15 257.184 8648.48 278.249 Q8672.14 299.313 8714.59 299.313 Q8756.72 299.313 8780.38 278.249 Q8804.36 257.184 8804.36 219.591 Q8804.36 181.999 8780.38 160.934 Q8756.72 139.87 8714.59 139.87 Q8672.14 139.87 8648.48 160.934 Q8625.15 181.999 8625.15 219.591 Z" fill="#000000" fill-rule="evenodd" fill-opacity="1" /><path clip-path="url(#clip7500)" d="M 0 0 M8958.3 498.294 L9026.68 498.294 L9026.68 554.034 L8973.53 657.737 L8931.72 657.737 L8958.3 554.034 L8958.3 498.294 Z" fill="#000000" fill-rule="evenodd" fill-opacity="1" /><path clip-path="url(#clip7500)" d="M 0 0 M9499.17 141.166 Q9427.88 141.166 9385.75 194.314 Q9343.94 247.462 9343.94 339.174 Q9343.94 430.563 9385.75 483.71 Q9427.88 536.858 9499.17 536.858 Q9570.47 536.858 9611.95 483.71 Q9653.76 430.563 9653.76 339.174 Q9653.76 247.462 9611.95 194.314 Q9570.47 141.166 9499.17 141.166 M9590.89 571.858 L9677.09 666.163 L9598.02 666.163 L9526.4 588.71 Q9515.7 589.358 9509.87 589.682 Q9504.36 590.006 9499.17 590.006 Q9397.09 590.006 9335.84 521.951 Q9274.92 453.572 9274.92 339.174 Q9274.92 224.453 9335.84 156.397 Q9397.09 88.018 9499.17 88.018 Q9600.93 88.018 9661.86 156.397 Q9722.78 224.453 9722.78 339.174 Q9722.78 423.433 9688.76 483.386 Q9655.05 543.34 9590.89 571.858 Z" fill="#000000" fill-rule="evenodd" fill-opacity="1" /><path clip-path="url(#clip7500)" d="M 0 0 M10004.1 279.221 L10419.5 279.221 L10419.5 333.665 L10004.1 333.665 L10004.1 279.221 M10004.1 411.442 L10419.5 411.442 L10419.5 466.535 L10004.1 466.535 L10004.1 411.442 Z" fill="#000000" fill-rule="evenodd" fill-opacity="1" /><path clip-path="url(#clip7500)" d="M 0 0 M10712.8 525.516 L10819.8 525.516 L10819.8 156.397 L10703.4 179.731 L10703.4 120.101 L10819.1 96.768 L10884.6 96.768 L10884.6 525.516 L10991.5 525.516 L10991.5 580.608 L10712.8 580.608 L10712.8 525.516 Z" fill="#000000" fill-rule="evenodd" fill-opacity="1" /><path clip-path="url(#clip7500)" d="M 0 0 M11210.6 312.6 Q11166.5 312.6 11140.6 342.739 Q11115 372.878 11115 425.377 Q11115 477.553 11140.6 508.016 Q11166.5 538.155 11210.6 538.155 Q11254.7 538.155 11280.3 508.016 Q11306.2 477.553 11306.2 425.377 Q11306.2 372.878 11280.3 342.739 Q11254.7 312.6 11210.6 312.6 M11340.6 107.462 L11340.6 167.092 Q11315.9 155.425 11290.6 149.268 Q11265.7 143.11 11241.1 143.11 Q11176.2 143.11 11141.9 186.86 Q11107.9 230.61 11103 319.082 Q11122.1 290.887 11151 275.98 Q11179.8 260.749 11214.5 260.749 Q11287.4 260.749 11329.5 305.147 Q11372 349.22 11372 425.377 Q11372 499.914 11327.9 544.96 Q11283.8 590.006 11210.6 590.006 Q11126.7 590.006 11082.3 525.84 Q11037.9 461.349 11037.9 339.174 Q11037.9 224.453 11092.3 156.397 Q11146.8 88.018 11238.5 88.018 Q11263.1 88.018 11288.1 92.8791 Q11313.3 97.7402 11340.6 107.462 Z" fill="#000000" fill-rule="evenodd" fill-opacity="1" /><path clip-path="url(#clip7500)" d="M 0 0 M11449.8 498.294 L11518.1 498.294 L11518.1 554.034 L11465 657.737 L11423.2 657.737 L11449.8 554.034 L11449.8 498.294 Z" fill="#000000" fill-rule="evenodd" fill-opacity="1" /><path clip-path="url(#clip7500)" d="M 0 0 M11794.3 96.768 L11859.7 96.768 L11859.7 546.904 Q11859.7 634.404 11826.3 673.941 Q11793.3 713.478 11719.7 713.478 L11694.8 713.478 L11694.8 658.385 L11715.2 658.385 Q11758.6 658.385 11776.4 634.08 Q11794.3 609.775 11794.3 546.904 L11794.3 96.768 Z" fill="#000000" fill-rule="evenodd" fill-opacity="1" /><path clip-path="url(#clip7500)" d="M 0 0 M12198 690.793 L12198 737.135 L11853.2 737.135 L11853.2 690.793 L12198 690.793 Z" fill="#000000" fill-rule="evenodd" fill-opacity="1" /><path clip-path="url(#clip7500)" d="M 0 0 M12409 139.87 Q12358.5 139.87 12332.9 189.777 Q12307.6 239.36 12307.6 339.174 Q12307.6 438.664 12332.9 488.571 Q12358.5 538.155 12409 538.155 Q12459.9 538.155 12485.2 488.571 Q12510.8 438.664 12510.8 339.174 Q12510.8 239.36 12485.2 189.777 Q12459.9 139.87 12409 139.87 M12409 88.018 Q12490.4 88.018 12533.1 152.508 Q12576.2 216.675 12576.2 339.174 Q12576.2 461.349 12533.1 525.84 Q12490.4 590.006 12409 590.006 Q12327.7 590.006 12284.6 525.84 Q12241.8 461.349 12241.8 339.174 Q12241.8 216.675 12284.6 152.508 Q12327.7 88.018 12409 88.018 Z" fill="#000000" fill-rule="evenodd" fill-opacity="1" /><path clip-path="url(#clip7500)" d="M 0 0 M12857.5 279.221 L13273 279.221 L13273 333.665 L12857.5 333.665 L12857.5 279.221 M12857.5 411.442 L13273 411.442 L13273 466.535 L12857.5 466.535 L12857.5 411.442 Z" fill="#000000" fill-rule="evenodd" fill-opacity="1" /><path clip-path="url(#clip7500)" d="M 0 0 M13566.3 525.516 L13673.2 525.516 L13673.2 156.397 L13556.9 179.731 L13556.9 120.101 L13672.6 96.768 L13738 96.768 L13738 525.516 L13845 525.516 L13845 580.608 L13566.3 580.608 L13566.3 525.516 Z" fill="#000000" fill-rule="evenodd" fill-opacity="1" /><path clip-path="url(#clip7500)" d="M 0 0 M13916 498.294 L13984.3 498.294 L13984.3 580.608 L13916 580.608 L13916 498.294 Z" fill="#000000" fill-rule="evenodd" fill-opacity="1" /><path clip-path="url(#clip7500)" d="M 0 0 M14195.3 139.87 Q14144.8 139.87 14119.1 189.777 Q14093.9 239.36 14093.9 339.174 Q14093.9 438.664 14119.1 488.571 Q14144.8 538.155 14195.3 538.155 Q14246.2 538.155 14271.5 488.571 Q14297.1 438.664 14297.1 339.174 Q14297.1 239.36 14271.5 189.777 Q14246.2 139.87 14195.3 139.87 M14195.3 88.018 Q14276.6 88.018 14319.4 152.508 Q14362.5 216.675 14362.5 339.174 Q14362.5 461.349 14319.4 525.84 Q14276.6 590.006 14195.3 590.006 Q14114 590.006 14070.9 525.84 Q14028.1 461.349 14028.1 339.174 Q14028.1 216.675 14070.9 152.508 Q14114 88.018 14195.3 88.018 Z" fill="#000000" fill-rule="evenodd" fill-opacity="1" /><path clip-path="url(#clip7500)" d="M 0 0 M10261.2 12068.2 L10582.8 12068.2 L10582.8 12111.5 L10447.8 12111.5 L10447.8 12448.4 L10396.1 12448.4 L10396.1 12111.5 L10261.2 12111.5 L10261.2 12068.2 Z" fill="#000000" fill-rule="evenodd" fill-opacity="1" /><path clip-path="url(#clip7500)" d="M 0 0 M522.483 6270 L661.765 6270 L661.765 6187.5 Q661.765 6145.99 644.705 6126.13 Q627.39 6106.02 591.997 6106.02 Q556.349 6106.02 539.543 6126.13 Q522.483 6145.99 522.483 6187.5 L522.483 6270 M366.142 6270 L480.724 6270 L480.724 6193.86 Q480.724 6156.18 466.72 6137.85 Q452.461 6119.26 423.433 6119.26 Q394.66 6119.26 380.401 6137.85 Q366.142 6156.18 366.142 6193.86 L366.142 6270 M323.873 6321.43 L323.873 6190.05 Q323.873 6131.23 348.318 6099.4 Q372.762 6067.57 417.831 6067.57 Q452.715 6067.57 473.34 6083.87 Q493.965 6100.16 499.058 6131.74 Q507.206 6093.8 533.178 6072.92 Q558.895 6051.78 597.599 6051.78 Q648.524 6051.78 676.279 6086.41 Q704.033 6121.04 704.033 6184.95 L704.033 6321.43 L323.873 6321.43 Z" fill="#000000" fill-rule="evenodd" fill-opacity="1" /><polyline clip-path="url(#clip7502)" style="stroke:#009af9; stroke-width:32; stroke-opacity:1; fill:none" points="
  2497.37,1282.05 2820.82,1282.05 3144.27,1282.07 3467.73,1282.06 3791.18,1282.05 4114.63,1282.06 4438.09,1282.06 4761.54,1282.09 5084.99,1282.09 5408.45,1282.1 
  5731.9,1282.05 6055.35,1282.1 6378.81,1282.28 6702.26,1282.23 7025.71,1282.19 7349.16,1282.18 7672.62,1282.23 7996.07,1282.19 8319.52,1282.51 8642.98,1282.4 
  8966.43,1282.48 9289.88,1282.53 9613.34,1282.48 9936.79,1282.78 10260.2,1282.94 10583.7,1283.48 10907.1,1283.27 11230.6,1283.7 11554.1,1283.45 11877.5,1283.67 
  12201,1284.31 12524.4,1286.43 12847.9,1285.24 13171.3,1287.09 13494.8,1285.01 13818.2,1286.39 14141.7,1286.46 14465.1,1287.7 14788.6,1288.16 15112,1292.58 
  15435.5,1291.04 15758.9,1296 16082.4,1293.3 16405.9,1296.17 16729.3,1296.74 17052.8,1298.3 17376.2,1303.86 17699.7,1328.27 18023.1,1327.78 18346.6,1330.79 
  
  "/>
<polyline clip-path="url(#clip7502)" style="stroke:#e26f46; stroke-width:32; stroke-opacity:1; fill:none" points="
  2497.37,1282.07 2820.82,1282.06 3144.27,1282.06 3467.73,1282.05 3791.18,1282.06 4114.63,1282.06 4438.09,1282.06 4761.54,1282.14 5084.99,1282.1 5408.45,1282.46 
  5731.9,1282.16 6055.35,1282.07 6378.81,1282.16 6702.26,1282.24 7025.71,1282.09 7349.16,1282.36 7672.62,1282.22 7996.07,1282.32 8319.52,1282.41 8642.98,1282.56 
  8966.43,1282.37 9289.88,1282.71 9613.34,1283.29 9936.79,1283.2 10260.2,1283.35 10583.7,1282.8 10907.1,1283.85 11230.6,1283.79 11554.1,1284.41 11877.5,1284.85 
  12201,1285.48 12524.4,1286.43 12847.9,1285.94 13171.3,1287.71 13494.8,1286.9 13818.2,1287.21 14141.7,1287.21 14465.1,1289.99 14788.6,1293.97 15112,1290.84 
  15435.5,1301.46 15758.9,1303.07 16082.4,1303.93 16405.9,1301.59 16729.3,1312.54 17052.8,1618.98 17376.2,1500.81 17699.7,11091.2 18023.1,2203.87 18346.6,3843.86 
  
  "/>
<polyline clip-path="url(#clip7502)" style="stroke:#3da44d; stroke-width:32; stroke-opacity:1; fill:none" points="
  2497.37,1282.07 2820.82,1282.11 3144.27,1282.1 3467.73,1282.12 3791.18,1282.14 4114.63,1282.15 4438.09,1282.19 4761.54,1282.24 5084.99,1282.87 5408.45,1282.29 
  5731.9,1282.26 6055.35,1282.44 6378.81,1282.53 6702.26,1282.36 7025.71,1282.47 7349.16,1282.71 7672.62,1282.72 7996.07,1283.07 8319.52,1507.43 8642.98,1287.49 
  8966.43,1285.92 9289.88,1291.33 9613.34,1298.18 9936.79,1498.97 10260.2,1473.55 10583.7,1490.59 10907.1,4046.96 11230.6,1624.07 11554.1,1634.23 11877.5,1290.24 
  12201,1298.7 12524.4,4867.65 12847.9,1387.14 13171.3,3214.82 13494.8,1474.13 13818.2,5251.56 14141.7,3006.64 14465.1,3924.52 14788.6,5105.69 15112,4228.01 
  15435.5,2414.24 15758.9,2349.64 16082.4,3195.31 16405.9,2491 16729.3,2830.95 17052.8,2092.28 17376.2,3671.75 17699.7,4045.22 18023.1,4217.37 18346.6,2542.09 
  
  "/>
<polyline clip-path="url(#clip7502)" style="stroke:#c271d2; stroke-width:32; stroke-opacity:1; fill:none" points="
  2497.37,1603.87 2820.82,2390.59 3144.27,1922.58 3467.73,2807.27 3791.18,2145.46 4114.63,1570.88 4438.09,7424 4761.54,1393.21 5084.99,1538.29 5408.45,1355.24 
  5731.9,1777.84 6055.35,3420.8 6378.81,4485.47 6702.26,1988.64 7025.71,3484.6 7349.16,6404.36 7672.62,2850.95 7996.07,2497.13 8319.52,2842.39 8642.98,2605.04 
  8966.43,4218.98 9289.88,2927.59 9613.34,2540.36 9936.79,2938.04 10260.2,3118.63 10583.7,2763.15 10907.1,1809.33 11230.6,5394.96 11554.1,3386.28 11877.5,2698.99 
  12201,5413.05 12524.4,2697.49 12847.9,3113.21 13171.3,3896.63 13494.8,2102.79 13818.2,5628.66 14141.7,2602.99 14465.1,2399.87 14788.6,2632.15 15112,3703.02 
  15435.5,3430.59 15758.9,3249.81 16082.4,2707.89 16405.9,2520.64 16729.3,3342.95 17052.8,3640.81 17376.2,2458.17 17699.7,3953.2 18023.1,2637.92 18346.6,2830.18 
  
  "/>
<polyline clip-path="url(#clip7502)" style="stroke:#ac8d18; stroke-width:32; stroke-opacity:1; fill:none" points="
  2497.37,2840.33 2820.82,3889.52 3144.27,5296.14 3467.73,2331.94 3791.18,2348.29 4114.63,3619.03 4438.09,1974.12 4761.54,2402.63 5084.99,3737.83 5408.45,1901.53 
  5731.9,3131.5 6055.35,2302.69 6378.81,2427.57 6702.26,3869.2 7025.71,2040.84 7349.16,3832.6 7672.62,3865.2 7996.07,3337.6 8319.52,3479.76 8642.98,2607.26 
  8966.43,2373.51 9289.88,3049.28 9613.34,2368.2 9936.79,4478.11 10260.2,3226.16 10583.7,2794.1 10907.1,3489 11230.6,2380.57 11554.1,2210.41 11877.5,3245.8 
  12201,5423.8 12524.4,2802.39 12847.9,3986.72 13171.3,4366.86 13494.8,3361.72 13818.2,2910.1 14141.7,4885.68 14465.1,4045.83 14788.6,3165.3 15112,3076.42 
  15435.5,4629.45 15758.9,4026.47 16082.4,2401.64 16405.9,2726.29 16729.3,2052.17 17052.8,3816.11 17376.2,2468.64 17699.7,2478.91 18023.1,3743.42 18346.6,2631.75 
  
  "/>
<path clip-path="url(#clip7500)" d="
M13896.4 10233.4 L18246 10233.4 L18246 7330.4 L13896.4 7330.4  Z
  " fill="#ffffff" fill-rule="evenodd" fill-opacity="1"/>
<polyline clip-path="url(#clip7500)" style="stroke:#000000; stroke-width:32; stroke-opacity:1; fill:none" points="
  13896.4,10233.4 18246,10233.4 18246,7330.4 13896.4,7330.4 13896.4,10233.4 
  "/>
<polyline clip-path="url(#clip7500)" style="stroke:#009af9; stroke-width:32; stroke-opacity:1; fill:none" points="
  14088.4,7814.24 15240.4,7814.24 
  "/>
<path clip-path="url(#clip7500)" d="M 0 0 M15489.3 7676 L15526.7 7676 L15526.7 7933.22 Q15526.7 7983.22 15507.6 8005.81 Q15488.7 8028.4 15446.7 8028.4 L15432.4 8028.4 L15432.4 7996.92 L15444.1 7996.92 Q15468.9 7996.92 15479.1 7983.03 Q15489.3 7969.15 15489.3 7933.22 L15489.3 7676 Z" fill="#000000" fill-rule="evenodd" fill-opacity="1" /><path clip-path="url(#clip7500)" d="M 0 0 M15573.7 7921 L15634.8 7921 L15634.8 7710.07 L15568.4 7723.41 L15568.4 7689.33 L15634.5 7676 L15671.9 7676 L15671.9 7921 L15733 7921 L15733 7952.48 L15573.7 7952.48 L15573.7 7921 Z" fill="#000000" fill-rule="evenodd" fill-opacity="1" /><path clip-path="url(#clip7500)" d="M 0 0 M15893.7 7780.26 L16131.1 7780.26 L16131.1 7811.37 L15893.7 7811.37 L15893.7 7780.26 M15893.7 7855.81 L16131.1 7855.81 L16131.1 7887.29 L15893.7 7887.29 L15893.7 7855.81 Z" fill="#000000" fill-rule="evenodd" fill-opacity="1" /><path clip-path="url(#clip7500)" d="M 0 0 M16372.2 7700.63 Q16343.4 7700.63 16328.7 7729.15 Q16314.3 7757.48 16314.3 7814.52 Q16314.3 7871.37 16328.7 7899.89 Q16343.4 7928.22 16372.2 7928.22 Q16401.3 7928.22 16415.8 7899.89 Q16430.4 7871.37 16430.4 7814.52 Q16430.4 7757.48 16415.8 7729.15 Q16401.3 7700.63 16372.2 7700.63 M16372.2 7671 Q16418.7 7671 16443.2 7707.85 Q16467.8 7744.52 16467.8 7814.52 Q16467.8 7884.33 16443.2 7921.18 Q16418.7 7957.85 16372.2 7957.85 Q16325.8 7957.85 16301.1 7921.18 Q16276.7 7884.33 16276.7 7814.52 Q16276.7 7744.52 16301.1 7707.85 Q16325.8 7671 16372.2 7671 Z" fill="#000000" fill-rule="evenodd" fill-opacity="1" /><path clip-path="url(#clip7500)" d="M 0 0 M16508.4 7905.44 L16547.4 7905.44 L16547.4 7952.48 L16508.4 7952.48 L16508.4 7905.44 Z" fill="#000000" fill-rule="evenodd" fill-opacity="1" /><path clip-path="url(#clip7500)" d="M 0 0 M16668 7700.63 Q16639.1 7700.63 16624.5 7729.15 Q16610 7757.48 16610 7814.52 Q16610 7871.37 16624.5 7899.89 Q16639.1 7928.22 16668 7928.22 Q16697.1 7928.22 16711.5 7899.89 Q16726.1 7871.37 16726.1 7814.52 Q16726.1 7757.48 16711.5 7729.15 Q16697.1 7700.63 16668 7700.63 M16668 7671 Q16714.5 7671 16738.9 7707.85 Q16763.5 7744.52 16763.5 7814.52 Q16763.5 7884.33 16738.9 7921.18 Q16714.5 7957.85 16668 7957.85 Q16621.5 7957.85 16596.9 7921.18 Q16572.4 7884.33 16572.4 7814.52 Q16572.4 7744.52 16596.9 7707.85 Q16621.5 7671 16668 7671 Z" fill="#000000" fill-rule="evenodd" fill-opacity="1" /><path clip-path="url(#clip7500)" d="M 0 0 M16956.9 8015.44 L16956.9 8041.92 L16759.8 8041.92 L16759.8 8015.44 L16956.9 8015.44 Z" fill="#000000" fill-rule="evenodd" fill-opacity="1" /><path clip-path="url(#clip7500)" d="M 0 0 M16994.1 7676 L17031.5 7676 L17031.5 7921 L17166.1 7921 L17166.1 7952.48 L16994.1 7952.48 L16994.1 7676 Z" fill="#000000" fill-rule="evenodd" fill-opacity="1" /><path clip-path="url(#clip7500)" d="M 0 0 M17206.3 7780.26 L17443.7 7780.26 L17443.7 7811.37 L17206.3 7811.37 L17206.3 7780.26 M17206.3 7855.81 L17443.7 7855.81 L17443.7 7887.29 L17206.3 7887.29 L17206.3 7855.81 Z" fill="#000000" fill-rule="evenodd" fill-opacity="1" /><path clip-path="url(#clip7500)" d="M 0 0 M17568.9 7799.33 Q17543.7 7799.33 17528.9 7816.55 Q17514.3 7833.78 17514.3 7863.78 Q17514.3 7893.59 17528.9 7911 Q17543.7 7928.22 17568.9 7928.22 Q17594.1 7928.22 17608.7 7911 Q17623.5 7893.59 17623.5 7863.78 Q17623.5 7833.78 17608.7 7816.55 Q17594.1 7799.33 17568.9 7799.33 M17643.2 7682.11 L17643.2 7716.18 Q17629.1 7709.52 17614.6 7706 Q17600.4 7702.48 17586.3 7702.48 Q17549.3 7702.48 17529.6 7727.48 Q17510.2 7752.48 17507.4 7803.04 Q17518.3 7786.92 17534.8 7778.41 Q17551.3 7769.7 17571.1 7769.7 Q17612.8 7769.7 17636.9 7795.07 Q17661.1 7820.26 17661.1 7863.78 Q17661.1 7906.37 17635.9 7932.11 Q17610.8 7957.85 17568.9 7957.85 Q17520.9 7957.85 17495.6 7921.18 Q17470.2 7884.33 17470.2 7814.52 Q17470.2 7748.96 17501.3 7710.07 Q17532.4 7671 17584.8 7671 Q17598.9 7671 17613.2 7673.78 Q17627.6 7676.55 17643.2 7682.11 Z" fill="#000000" fill-rule="evenodd" fill-opacity="1" /><polyline clip-path="url(#clip7500)" style="stroke:#e26f46; stroke-width:32; stroke-opacity:1; fill:none" points="
  14088.4,8298.08 15240.4,8298.08 
  "/>
<path clip-path="url(#clip7500)" d="M 0 0 M15489.3 8159.84 L15526.7 8159.84 L15526.7 8417.06 Q15526.7 8467.06 15507.6 8489.65 Q15488.7 8512.24 15446.7 8512.24 L15432.4 8512.24 L15432.4 8480.76 L15444.1 8480.76 Q15468.9 8480.76 15479.1 8466.87 Q15489.3 8452.99 15489.3 8417.06 L15489.3 8159.84 Z" fill="#000000" fill-rule="evenodd" fill-opacity="1" /><path clip-path="url(#clip7500)" d="M 0 0 M15573.7 8404.84 L15634.8 8404.84 L15634.8 8193.91 L15568.4 8207.25 L15568.4 8173.17 L15634.5 8159.84 L15671.9 8159.84 L15671.9 8404.84 L15733 8404.84 L15733 8436.32 L15573.7 8436.32 L15573.7 8404.84 Z" fill="#000000" fill-rule="evenodd" fill-opacity="1" /><path clip-path="url(#clip7500)" d="M 0 0 M15893.7 8264.1 L16131.1 8264.1 L16131.1 8295.21 L15893.7 8295.21 L15893.7 8264.1 M15893.7 8339.65 L16131.1 8339.65 L16131.1 8371.13 L15893.7 8371.13 L15893.7 8339.65 Z" fill="#000000" fill-rule="evenodd" fill-opacity="1" /><path clip-path="url(#clip7500)" d="M 0 0 M16372.2 8184.47 Q16343.4 8184.47 16328.7 8212.99 Q16314.3 8241.32 16314.3 8298.36 Q16314.3 8355.21 16328.7 8383.73 Q16343.4 8412.06 16372.2 8412.06 Q16401.3 8412.06 16415.8 8383.73 Q16430.4 8355.21 16430.4 8298.36 Q16430.4 8241.32 16415.8 8212.99 Q16401.3 8184.47 16372.2 8184.47 M16372.2 8154.84 Q16418.7 8154.84 16443.2 8191.69 Q16467.8 8228.36 16467.8 8298.36 Q16467.8 8368.17 16443.2 8405.02 Q16418.7 8441.69 16372.2 8441.69 Q16325.8 8441.69 16301.1 8405.02 Q16276.7 8368.17 16276.7 8298.36 Q16276.7 8228.36 16301.1 8191.69 Q16325.8 8154.84 16372.2 8154.84 Z" fill="#000000" fill-rule="evenodd" fill-opacity="1" /><path clip-path="url(#clip7500)" d="M 0 0 M16508.4 8389.28 L16547.4 8389.28 L16547.4 8436.32 L16508.4 8436.32 L16508.4 8389.28 Z" fill="#000000" fill-rule="evenodd" fill-opacity="1" /><path clip-path="url(#clip7500)" d="M 0 0 M16620.2 8404.84 L16750.8 8404.84 L16750.8 8436.32 L16575.2 8436.32 L16575.2 8404.84 Q16596.5 8382.8 16633.2 8345.76 Q16670 8308.54 16679.5 8297.8 Q16697.4 8277.62 16704.5 8263.73 Q16711.7 8249.65 16711.7 8236.13 Q16711.7 8214.1 16696.1 8200.21 Q16680.8 8186.32 16655.9 8186.32 Q16638.4 8186.32 16618.7 8192.43 Q16599.3 8198.54 16577.1 8210.95 L16577.1 8173.17 Q16599.6 8164.1 16619.3 8159.47 Q16638.9 8154.84 16655.2 8154.84 Q16698.2 8154.84 16723.7 8176.32 Q16749.3 8197.8 16749.3 8233.73 Q16749.3 8250.76 16742.8 8266.13 Q16736.5 8281.32 16719.6 8302.06 Q16715 8307.43 16690.2 8333.17 Q16665.4 8358.73 16620.2 8404.84 Z" fill="#000000" fill-rule="evenodd" fill-opacity="1" /><path clip-path="url(#clip7500)" d="M 0 0 M16791.7 8159.84 L16938.5 8159.84 L16938.5 8191.32 L16825.9 8191.32 L16825.9 8259.1 Q16834.1 8256.32 16842.2 8255.02 Q16850.4 8253.54 16858.5 8253.54 Q16904.8 8253.54 16931.9 8278.91 Q16958.9 8304.28 16958.9 8347.62 Q16958.9 8392.24 16931.1 8417.06 Q16903.3 8441.69 16852.8 8441.69 Q16835.4 8441.69 16817.2 8438.73 Q16799.3 8435.76 16780 8429.84 L16780 8392.24 Q16796.7 8401.32 16814.5 8405.76 Q16832.2 8410.21 16852.1 8410.21 Q16884.1 8410.21 16902.8 8393.36 Q16921.5 8376.5 16921.5 8347.62 Q16921.5 8318.73 16902.8 8301.88 Q16884.1 8285.02 16852.1 8285.02 Q16837.1 8285.02 16822.1 8288.36 Q16807.2 8291.69 16791.7 8298.73 L16791.7 8159.84 Z" fill="#000000" fill-rule="evenodd" fill-opacity="1" /><path clip-path="url(#clip7500)" d="M 0 0 M17152.2 8499.28 L17152.2 8525.76 L16955.2 8525.76 L16955.2 8499.28 L17152.2 8499.28 Z" fill="#000000" fill-rule="evenodd" fill-opacity="1" /><path clip-path="url(#clip7500)" d="M 0 0 M17189.5 8159.84 L17226.9 8159.84 L17226.9 8404.84 L17361.5 8404.84 L17361.5 8436.32 L17189.5 8436.32 L17189.5 8159.84 Z" fill="#000000" fill-rule="evenodd" fill-opacity="1" /><path clip-path="url(#clip7500)" d="M 0 0 M17401.7 8264.1 L17639.1 8264.1 L17639.1 8295.21 L17401.7 8295.21 L17401.7 8264.1 M17401.7 8339.65 L17639.1 8339.65 L17639.1 8371.13 L17401.7 8371.13 L17401.7 8339.65 Z" fill="#000000" fill-rule="evenodd" fill-opacity="1" /><path clip-path="url(#clip7500)" d="M 0 0 M17764.3 8283.17 Q17739.1 8283.17 17724.3 8300.39 Q17709.6 8317.62 17709.6 8347.62 Q17709.6 8377.43 17724.3 8394.84 Q17739.1 8412.06 17764.3 8412.06 Q17789.5 8412.06 17804.1 8394.84 Q17818.9 8377.43 17818.9 8347.62 Q17818.9 8317.62 17804.1 8300.39 Q17789.5 8283.17 17764.3 8283.17 M17838.5 8165.95 L17838.5 8200.02 Q17824.5 8193.36 17810 8189.84 Q17795.8 8186.32 17781.7 8186.32 Q17744.6 8186.32 17725 8211.32 Q17705.6 8236.32 17702.8 8286.88 Q17713.7 8270.76 17730.2 8262.25 Q17746.7 8253.54 17766.5 8253.54 Q17808.2 8253.54 17832.2 8278.91 Q17856.5 8304.1 17856.5 8347.62 Q17856.5 8390.21 17831.3 8415.95 Q17806.1 8441.69 17764.3 8441.69 Q17716.3 8441.69 17690.9 8405.02 Q17665.6 8368.17 17665.6 8298.36 Q17665.6 8232.8 17696.7 8193.91 Q17727.8 8154.84 17780.2 8154.84 Q17794.3 8154.84 17808.5 8157.62 Q17823 8160.39 17838.5 8165.95 Z" fill="#000000" fill-rule="evenodd" fill-opacity="1" /><polyline clip-path="url(#clip7500)" style="stroke:#3da44d; stroke-width:32; stroke-opacity:1; fill:none" points="
  14088.4,8781.92 15240.4,8781.92 
  "/>
<path clip-path="url(#clip7500)" d="M 0 0 M15489.3 8643.68 L15526.7 8643.68 L15526.7 8900.9 Q15526.7 8950.9 15507.6 8973.49 Q15488.7 8996.08 15446.7 8996.08 L15432.4 8996.08 L15432.4 8964.6 L15444.1 8964.6 Q15468.9 8964.6 15479.1 8950.71 Q15489.3 8936.83 15489.3 8900.9 L15489.3 8643.68 Z" fill="#000000" fill-rule="evenodd" fill-opacity="1" /><path clip-path="url(#clip7500)" d="M 0 0 M15573.7 8888.68 L15634.8 8888.68 L15634.8 8677.75 L15568.4 8691.09 L15568.4 8657.01 L15634.5 8643.68 L15671.9 8643.68 L15671.9 8888.68 L15733 8888.68 L15733 8920.16 L15573.7 8920.16 L15573.7 8888.68 Z" fill="#000000" fill-rule="evenodd" fill-opacity="1" /><path clip-path="url(#clip7500)" d="M 0 0 M15893.7 8747.94 L16131.1 8747.94 L16131.1 8779.05 L15893.7 8779.05 L15893.7 8747.94 M15893.7 8823.49 L16131.1 8823.49 L16131.1 8854.97 L15893.7 8854.97 L15893.7 8823.49 Z" fill="#000000" fill-rule="evenodd" fill-opacity="1" /><path clip-path="url(#clip7500)" d="M 0 0 M16372.2 8668.31 Q16343.4 8668.31 16328.7 8696.83 Q16314.3 8725.16 16314.3 8782.2 Q16314.3 8839.05 16328.7 8867.57 Q16343.4 8895.9 16372.2 8895.9 Q16401.3 8895.9 16415.8 8867.57 Q16430.4 8839.05 16430.4 8782.2 Q16430.4 8725.16 16415.8 8696.83 Q16401.3 8668.31 16372.2 8668.31 M16372.2 8638.68 Q16418.7 8638.68 16443.2 8675.53 Q16467.8 8712.2 16467.8 8782.2 Q16467.8 8852.01 16443.2 8888.86 Q16418.7 8925.53 16372.2 8925.53 Q16325.8 8925.53 16301.1 8888.86 Q16276.7 8852.01 16276.7 8782.2 Q16276.7 8712.2 16301.1 8675.53 Q16325.8 8638.68 16372.2 8638.68 Z" fill="#000000" fill-rule="evenodd" fill-opacity="1" /><path clip-path="url(#clip7500)" d="M 0 0 M16508.4 8873.12 L16547.4 8873.12 L16547.4 8920.16 L16508.4 8920.16 L16508.4 8873.12 Z" fill="#000000" fill-rule="evenodd" fill-opacity="1" /><path clip-path="url(#clip7500)" d="M 0 0 M16588.4 8643.68 L16735.2 8643.68 L16735.2 8675.16 L16622.6 8675.16 L16622.6 8742.94 Q16630.8 8740.16 16638.9 8738.86 Q16647.1 8737.38 16655.2 8737.38 Q16701.5 8737.38 16728.5 8762.75 Q16755.6 8788.12 16755.6 8831.46 Q16755.6 8876.08 16727.8 8900.9 Q16700 8925.53 16649.5 8925.53 Q16632.1 8925.53 16613.9 8922.57 Q16595.9 8919.6 16576.7 8913.68 L16576.7 8876.08 Q16593.4 8885.16 16611.1 8889.6 Q16628.9 8894.05 16648.7 8894.05 Q16680.8 8894.05 16699.5 8877.2 Q16718.2 8860.34 16718.2 8831.46 Q16718.2 8802.57 16699.5 8785.72 Q16680.8 8768.86 16648.7 8768.86 Q16633.7 8768.86 16618.7 8772.2 Q16603.9 8775.53 16588.4 8782.57 L16588.4 8643.68 Z" fill="#000000" fill-rule="evenodd" fill-opacity="1" /><path clip-path="url(#clip7500)" d="M 0 0 M16948.9 8983.12 L16948.9 9009.6 L16751.9 9009.6 L16751.9 8983.12 L16948.9 8983.12 Z" fill="#000000" fill-rule="evenodd" fill-opacity="1" /><path clip-path="url(#clip7500)" d="M 0 0 M16986.1 8643.68 L17023.5 8643.68 L17023.5 8888.68 L17158.2 8888.68 L17158.2 8920.16 L16986.1 8920.16 L16986.1 8643.68 Z" fill="#000000" fill-rule="evenodd" fill-opacity="1" /><path clip-path="url(#clip7500)" d="M 0 0 M17198.3 8747.94 L17435.8 8747.94 L17435.8 8779.05 L17198.3 8779.05 L17198.3 8747.94 M17198.3 8823.49 L17435.8 8823.49 L17435.8 8854.97 L17198.3 8854.97 L17198.3 8823.49 Z" fill="#000000" fill-rule="evenodd" fill-opacity="1" /><path clip-path="url(#clip7500)" d="M 0 0 M17560.9 8767.01 Q17535.8 8767.01 17520.9 8784.23 Q17506.3 8801.46 17506.3 8831.46 Q17506.3 8861.27 17520.9 8878.68 Q17535.8 8895.9 17560.9 8895.9 Q17586.1 8895.9 17600.8 8878.68 Q17615.6 8861.27 17615.6 8831.46 Q17615.6 8801.46 17600.8 8784.23 Q17586.1 8767.01 17560.9 8767.01 M17635.2 8649.79 L17635.2 8683.86 Q17621.1 8677.2 17606.7 8673.68 Q17592.4 8670.16 17578.3 8670.16 Q17541.3 8670.16 17521.7 8695.16 Q17502.2 8720.16 17499.5 8770.72 Q17510.4 8754.6 17526.9 8746.09 Q17543.3 8737.38 17563.2 8737.38 Q17604.8 8737.38 17628.9 8762.75 Q17653.2 8787.94 17653.2 8831.46 Q17653.2 8874.05 17628 8899.79 Q17602.8 8925.53 17560.9 8925.53 Q17513 8925.53 17487.6 8888.86 Q17462.2 8852.01 17462.2 8782.2 Q17462.2 8716.64 17493.3 8677.75 Q17524.5 8638.68 17576.9 8638.68 Q17590.9 8638.68 17605.2 8641.46 Q17619.6 8644.23 17635.2 8649.79 Z" fill="#000000" fill-rule="evenodd" fill-opacity="1" /><polyline clip-path="url(#clip7500)" style="stroke:#c271d2; stroke-width:32; stroke-opacity:1; fill:none" points="
  14088.4,9265.76 15240.4,9265.76 
  "/>
<path clip-path="url(#clip7500)" d="M 0 0 M15489.3 9127.52 L15526.7 9127.52 L15526.7 9384.74 Q15526.7 9434.74 15507.6 9457.33 Q15488.7 9479.92 15446.7 9479.92 L15432.4 9479.92 L15432.4 9448.44 L15444.1 9448.44 Q15468.9 9448.44 15479.1 9434.55 Q15489.3 9420.67 15489.3 9384.74 L15489.3 9127.52 Z" fill="#000000" fill-rule="evenodd" fill-opacity="1" /><path clip-path="url(#clip7500)" d="M 0 0 M15573.7 9372.52 L15634.8 9372.52 L15634.8 9161.59 L15568.4 9174.93 L15568.4 9140.85 L15634.5 9127.52 L15671.9 9127.52 L15671.9 9372.52 L15733 9372.52 L15733 9404 L15573.7 9404 L15573.7 9372.52 Z" fill="#000000" fill-rule="evenodd" fill-opacity="1" /><path clip-path="url(#clip7500)" d="M 0 0 M15893.7 9231.78 L16131.1 9231.78 L16131.1 9262.89 L15893.7 9262.89 L15893.7 9231.78 M15893.7 9307.33 L16131.1 9307.33 L16131.1 9338.81 L15893.7 9338.81 L15893.7 9307.33 Z" fill="#000000" fill-rule="evenodd" fill-opacity="1" /><path clip-path="url(#clip7500)" d="M 0 0 M16372.2 9152.15 Q16343.4 9152.15 16328.7 9180.67 Q16314.3 9209 16314.3 9266.04 Q16314.3 9322.89 16328.7 9351.41 Q16343.4 9379.74 16372.2 9379.74 Q16401.3 9379.74 16415.8 9351.41 Q16430.4 9322.89 16430.4 9266.04 Q16430.4 9209 16415.8 9180.67 Q16401.3 9152.15 16372.2 9152.15 M16372.2 9122.52 Q16418.7 9122.52 16443.2 9159.37 Q16467.8 9196.04 16467.8 9266.04 Q16467.8 9335.85 16443.2 9372.7 Q16418.7 9409.37 16372.2 9409.37 Q16325.8 9409.37 16301.1 9372.7 Q16276.7 9335.85 16276.7 9266.04 Q16276.7 9196.04 16301.1 9159.37 Q16325.8 9122.52 16372.2 9122.52 Z" fill="#000000" fill-rule="evenodd" fill-opacity="1" /><path clip-path="url(#clip7500)" d="M 0 0 M16508.4 9356.96 L16547.4 9356.96 L16547.4 9404 L16508.4 9404 L16508.4 9356.96 Z" fill="#000000" fill-rule="evenodd" fill-opacity="1" /><path clip-path="url(#clip7500)" d="M 0 0 M16578.5 9127.52 L16756.3 9127.52 L16756.3 9143.44 L16655.9 9404 L16616.9 9404 L16711.3 9159 L16578.5 9159 L16578.5 9127.52 Z" fill="#000000" fill-rule="evenodd" fill-opacity="1" /><path clip-path="url(#clip7500)" d="M 0 0 M16797.2 9127.52 L16944.1 9127.52 L16944.1 9159 L16831.5 9159 L16831.5 9226.78 Q16839.6 9224 16847.8 9222.7 Q16855.9 9221.22 16864.1 9221.22 Q16910.4 9221.22 16937.4 9246.59 Q16964.5 9271.96 16964.5 9315.3 Q16964.5 9359.92 16936.7 9384.74 Q16908.9 9409.37 16858.3 9409.37 Q16840.9 9409.37 16822.8 9406.41 Q16804.8 9403.44 16785.6 9397.52 L16785.6 9359.92 Q16802.2 9369 16820 9373.44 Q16837.8 9377.89 16857.6 9377.89 Q16889.6 9377.89 16908.3 9361.04 Q16927.1 9344.18 16927.1 9315.3 Q16927.1 9286.41 16908.3 9269.56 Q16889.6 9252.7 16857.6 9252.7 Q16842.6 9252.7 16827.6 9256.04 Q16812.8 9259.37 16797.2 9266.41 L16797.2 9127.52 Z" fill="#000000" fill-rule="evenodd" fill-opacity="1" /><path clip-path="url(#clip7500)" d="M 0 0 M17157.8 9466.96 L17157.8 9493.44 L16960.8 9493.44 L16960.8 9466.96 L17157.8 9466.96 Z" fill="#000000" fill-rule="evenodd" fill-opacity="1" /><path clip-path="url(#clip7500)" d="M 0 0 M17195 9127.52 L17232.4 9127.52 L17232.4 9372.52 L17367 9372.52 L17367 9404 L17195 9404 L17195 9127.52 Z" fill="#000000" fill-rule="evenodd" fill-opacity="1" /><path clip-path="url(#clip7500)" d="M 0 0 M17407.2 9231.78 L17644.6 9231.78 L17644.6 9262.89 L17407.2 9262.89 L17407.2 9231.78 M17407.2 9307.33 L17644.6 9307.33 L17644.6 9338.81 L17407.2 9338.81 L17407.2 9307.33 Z" fill="#000000" fill-rule="evenodd" fill-opacity="1" /><path clip-path="url(#clip7500)" d="M 0 0 M17769.8 9250.85 Q17744.6 9250.85 17729.8 9268.07 Q17715.2 9285.3 17715.2 9315.3 Q17715.2 9345.11 17729.8 9362.52 Q17744.6 9379.74 17769.8 9379.74 Q17795 9379.74 17809.6 9362.52 Q17824.5 9345.11 17824.5 9315.3 Q17824.5 9285.3 17809.6 9268.07 Q17795 9250.85 17769.8 9250.85 M17844.1 9133.63 L17844.1 9167.7 Q17830 9161.04 17815.6 9157.52 Q17801.3 9154 17787.2 9154 Q17750.2 9154 17730.6 9179 Q17711.1 9204 17708.3 9254.56 Q17719.3 9238.44 17735.8 9229.93 Q17752.2 9221.22 17772 9221.22 Q17813.7 9221.22 17837.8 9246.59 Q17862 9271.78 17862 9315.3 Q17862 9357.89 17836.9 9383.63 Q17811.7 9409.37 17769.8 9409.37 Q17721.9 9409.37 17696.5 9372.7 Q17671.1 9335.85 17671.1 9266.04 Q17671.1 9200.48 17702.2 9161.59 Q17733.3 9122.52 17785.8 9122.52 Q17799.8 9122.52 17814.1 9125.3 Q17828.5 9128.07 17844.1 9133.63 Z" fill="#000000" fill-rule="evenodd" fill-opacity="1" /><polyline clip-path="url(#clip7500)" style="stroke:#ac8d18; stroke-width:32; stroke-opacity:1; fill:none" points="
  14088.4,9749.6 15240.4,9749.6 
  "/>
<path clip-path="url(#clip7500)" d="M 0 0 M15489.3 9611.36 L15526.7 9611.36 L15526.7 9868.58 Q15526.7 9918.58 15507.6 9941.17 Q15488.7 9963.76 15446.7 9963.76 L15432.4 9963.76 L15432.4 9932.28 L15444.1 9932.28 Q15468.9 9932.28 15479.1 9918.39 Q15489.3 9904.51 15489.3 9868.58 L15489.3 9611.36 Z" fill="#000000" fill-rule="evenodd" fill-opacity="1" /><path clip-path="url(#clip7500)" d="M 0 0 M15573.7 9856.36 L15634.8 9856.36 L15634.8 9645.43 L15568.4 9658.77 L15568.4 9624.69 L15634.5 9611.36 L15671.9 9611.36 L15671.9 9856.36 L15733 9856.36 L15733 9887.84 L15573.7 9887.84 L15573.7 9856.36 Z" fill="#000000" fill-rule="evenodd" fill-opacity="1" /><path clip-path="url(#clip7500)" d="M 0 0 M15893.7 9715.62 L16131.1 9715.62 L16131.1 9746.73 L15893.7 9746.73 L15893.7 9715.62 M15893.7 9791.17 L16131.1 9791.17 L16131.1 9822.65 L15893.7 9822.65 L15893.7 9791.17 Z" fill="#000000" fill-rule="evenodd" fill-opacity="1" /><path clip-path="url(#clip7500)" d="M 0 0 M16298.7 9856.36 L16359.8 9856.36 L16359.8 9645.43 L16293.4 9658.77 L16293.4 9624.69 L16359.5 9611.36 L16396.9 9611.36 L16396.9 9856.36 L16458 9856.36 L16458 9887.84 L16298.7 9887.84 L16298.7 9856.36 Z" fill="#000000" fill-rule="evenodd" fill-opacity="1" /><path clip-path="url(#clip7500)" d="M 0 0 M16498.5 9840.8 L16537.6 9840.8 L16537.6 9887.84 L16498.5 9887.84 L16498.5 9840.8 Z" fill="#000000" fill-rule="evenodd" fill-opacity="1" /><path clip-path="url(#clip7500)" d="M 0 0 M16658.2 9635.99 Q16629.3 9635.99 16614.6 9664.51 Q16600.2 9692.84 16600.2 9749.88 Q16600.2 9806.73 16614.6 9835.25 Q16629.3 9863.58 16658.2 9863.58 Q16687.2 9863.58 16701.7 9835.25 Q16716.3 9806.73 16716.3 9749.88 Q16716.3 9692.84 16701.7 9664.51 Q16687.2 9635.99 16658.2 9635.99 M16658.2 9606.36 Q16704.6 9606.36 16729.1 9643.21 Q16753.7 9679.88 16753.7 9749.88 Q16753.7 9819.69 16729.1 9856.54 Q16704.6 9893.21 16658.2 9893.21 Q16611.7 9893.21 16587.1 9856.54 Q16562.6 9819.69 16562.6 9749.88 Q16562.6 9679.88 16587.1 9643.21 Q16611.7 9606.36 16658.2 9606.36 Z" fill="#000000" fill-rule="evenodd" fill-opacity="1" /><path clip-path="url(#clip7500)" d="M 0 0 M16947.1 9950.8 L16947.1 9977.28 L16750 9977.28 L16750 9950.8 L16947.1 9950.8 Z" fill="#000000" fill-rule="evenodd" fill-opacity="1" /><path clip-path="url(#clip7500)" d="M 0 0 M16984.3 9611.36 L17021.7 9611.36 L17021.7 9856.36 L17156.3 9856.36 L17156.3 9887.84 L16984.3 9887.84 L16984.3 9611.36 Z" fill="#000000" fill-rule="evenodd" fill-opacity="1" /><path clip-path="url(#clip7500)" d="M 0 0 M17196.5 9715.62 L17433.9 9715.62 L17433.9 9746.73 L17196.5 9746.73 L17196.5 9715.62 M17196.5 9791.17 L17433.9 9791.17 L17433.9 9822.65 L17196.5 9822.65 L17196.5 9791.17 Z" fill="#000000" fill-rule="evenodd" fill-opacity="1" /><path clip-path="url(#clip7500)" d="M 0 0 M17559.1 9734.69 Q17533.9 9734.69 17519.1 9751.91 Q17504.5 9769.14 17504.5 9799.14 Q17504.5 9828.95 17519.1 9846.36 Q17533.9 9863.58 17559.1 9863.58 Q17584.3 9863.58 17598.9 9846.36 Q17613.7 9828.95 17613.7 9799.14 Q17613.7 9769.14 17598.9 9751.91 Q17584.3 9734.69 17559.1 9734.69 M17633.3 9617.47 L17633.3 9651.54 Q17619.3 9644.88 17604.8 9641.36 Q17590.6 9637.84 17576.5 9637.84 Q17539.5 9637.84 17519.8 9662.84 Q17500.4 9687.84 17497.6 9738.4 Q17508.5 9722.28 17525 9713.77 Q17541.5 9705.06 17561.3 9705.06 Q17603 9705.06 17627 9730.43 Q17651.3 9755.62 17651.3 9799.14 Q17651.3 9841.73 17626.1 9867.47 Q17600.9 9893.21 17559.1 9893.21 Q17511.1 9893.21 17485.8 9856.54 Q17460.4 9819.69 17460.4 9749.88 Q17460.4 9684.32 17491.5 9645.43 Q17522.6 9606.36 17575 9606.36 Q17589.1 9606.36 17603.3 9609.14 Q17617.8 9611.91 17633.3 9617.47 Z" fill="#000000" fill-rule="evenodd" fill-opacity="1" /></svg>
