<?xml version="1.0" encoding="utf-8"?>
<svg xmlns="http://www.w3.org/2000/svg" xmlns:xlink="http://www.w3.org/1999/xlink" width="4800" height="3200" viewBox="0 0 19200 12800">
<defs>
  <clipPath id="clip860">
    <rect x="0" y="0" width="19200" height="12800"/>
  </clipPath>
</defs>
<path clip-path="url(#clip860)" d="
M0 12800 L19200 12800 L19200 0 L0 0  Z
  " fill="#ffffff" fill-rule="evenodd" fill-opacity="1"/>
<defs>
  <clipPath id="clip861">
    <rect x="3840" y="0" width="13441" height="12800"/>
  </clipPath>
</defs>
<path clip-path="url(#clip860)" d="
M1512.82 11385.4 L18822 11385.4 L18822 987.777 L1512.82 987.777  Z
  " fill="#ffffff" fill-rule="evenodd" fill-opacity="1"/>
<defs>
  <clipPath id="clip862">
    <rect x="1512" y="987" width="17310" height="10399"/>
  </clipPath>
</defs>
<polyline clip-path="url(#clip862)" style="stroke:#000000; stroke-width:16; stroke-opacity:0.1; fill:none" points="
  4335.48,11385.4 4335.48,987.777 
  "/>
<polyline clip-path="url(#clip862)" style="stroke:#000000; stroke-width:16; stroke-opacity:0.1; fill:none" points="
  9001.04,11385.4 9001.04,987.777 
  "/>
<polyline clip-path="url(#clip862)" style="stroke:#000000; stroke-width:16; stroke-opacity:0.1; fill:none" points="
  13666.6,11385.4 13666.6,987.777 
  "/>
<polyline clip-path="url(#clip862)" style="stroke:#000000; stroke-width:16; stroke-opacity:0.1; fill:none" points="
  18332.2,11385.4 18332.2,987.777 
  "/>
<polyline clip-path="url(#clip862)" style="stroke:#000000; stroke-width:16; stroke-opacity:0.1; fill:none" points="
  1512.82,9523.8 18822,9523.8 
  "/>
<polyline clip-path="url(#clip862)" style="stroke:#000000; stroke-width:16; stroke-opacity:0.1; fill:none" points="
  1512.82,7276.05 18822,7276.05 
  "/>
<polyline clip-path="url(#clip862)" style="stroke:#000000; stroke-width:16; stroke-opacity:0.1; fill:none" points="
  1512.82,5028.3 18822,5028.3 
  "/>
<polyline clip-path="url(#clip862)" style="stroke:#000000; stroke-width:16; stroke-opacity:0.1; fill:none" points="
  1512.82,2780.55 18822,2780.55 
  "/>
<polyline clip-path="url(#clip860)" style="stroke:#000000; stroke-width:32; stroke-opacity:1; fill:none" points="
  1512.82,11385.4 18822,11385.4 
  "/>
<polyline clip-path="url(#clip860)" style="stroke:#000000; stroke-width:32; stroke-opacity:1; fill:none" points="
  1512.82,11385.4 1512.82,987.777 
  "/>
<polyline clip-path="url(#clip860)" style="stroke:#000000; stroke-width:32; stroke-opacity:1; fill:none" points="
  4335.48,11385.4 4335.48,11260.7 
  "/>
<polyline clip-path="url(#clip860)" style="stroke:#000000; stroke-width:32; stroke-opacity:1; fill:none" points="
  9001.04,11385.4 9001.04,11260.7 
  "/>
<polyline clip-path="url(#clip860)" style="stroke:#000000; stroke-width:32; stroke-opacity:1; fill:none" points="
  13666.6,11385.4 13666.6,11260.7 
  "/>
<polyline clip-path="url(#clip860)" style="stroke:#000000; stroke-width:32; stroke-opacity:1; fill:none" points="
  18332.2,11385.4 18332.2,11260.7 
  "/>
<polyline clip-path="url(#clip860)" style="stroke:#000000; stroke-width:32; stroke-opacity:1; fill:none" points="
  1512.82,9523.8 1720.53,9523.8 
  "/>
<polyline clip-path="url(#clip860)" style="stroke:#000000; stroke-width:32; stroke-opacity:1; fill:none" points="
  1512.82,7276.05 1720.53,7276.05 
  "/>
<polyline clip-path="url(#clip860)" style="stroke:#000000; stroke-width:32; stroke-opacity:1; fill:none" points="
  1512.82,5028.3 1720.53,5028.3 
  "/>
<polyline clip-path="url(#clip860)" style="stroke:#000000; stroke-width:32; stroke-opacity:1; fill:none" points="
  1512.82,2780.55 1720.53,2780.55 
  "/>
<path clip-path="url(#clip860)" d="M 0 0 M4185.67 11561.4 Q4156.78 11561.4 4142.15 11589.9 Q4127.71 11618.2 4127.71 11675.3 Q4127.71 11732.1 4142.15 11760.6 Q4156.78 11789 4185.67 11789 Q4214.74 11789 4229.19 11760.6 Q4243.82 11732.1 4243.82 11675.3 Q4243.82 11618.2 4229.19 11589.9 Q4214.74 11561.4 4185.67 11561.4 M4185.67 11531.7 Q4232.15 11531.7 4256.6 11568.6 Q4281.23 11605.3 4281.23 11675.3 Q4281.23 11745.1 4256.6 11781.9 Q4232.15 11818.6 4185.67 11818.6 Q4139.19 11818.6 4114.56 11781.9 Q4090.11 11745.1 4090.11 11675.3 Q4090.11 11605.3 4114.56 11568.6 Q4139.19 11531.7 4185.67 11531.7 Z" fill="#000000" fill-rule="evenodd" fill-opacity="1" /><path clip-path="url(#clip860)" d="M 0 0 M4321.78 11766.2 L4360.85 11766.2 L4360.85 11813.2 L4321.78 11813.2 L4321.78 11766.2 Z" fill="#000000" fill-rule="evenodd" fill-opacity="1" /><path clip-path="url(#clip860)" d="M 0 0 M4504.19 11569.3 L4409.74 11716.9 L4504.19 11716.9 L4504.19 11569.3 M4494.37 11536.7 L4541.41 11536.7 L4541.41 11716.9 L4580.85 11716.9 L4580.85 11748 L4541.41 11748 L4541.41 11813.2 L4504.19 11813.2 L4504.19 11748 L4379.37 11748 L4379.37 11711.9 L4494.37 11536.7 Z" fill="#000000" fill-rule="evenodd" fill-opacity="1" /><path clip-path="url(#clip860)" d="M 0 0 M8852.53 11561.4 Q8823.64 11561.4 8809.01 11589.9 Q8794.56 11618.2 8794.56 11675.3 Q8794.56 11732.1 8809.01 11760.6 Q8823.64 11789 8852.53 11789 Q8881.6 11789 8896.04 11760.6 Q8910.67 11732.1 8910.67 11675.3 Q8910.67 11618.2 8896.04 11589.9 Q8881.6 11561.4 8852.53 11561.4 M8852.53 11531.7 Q8899.01 11531.7 8923.45 11568.6 Q8948.08 11605.3 8948.08 11675.3 Q8948.08 11745.1 8923.45 11781.9 Q8899.01 11818.6 8852.53 11818.6 Q8806.04 11818.6 8781.42 11781.9 Q8756.97 11745.1 8756.97 11675.3 Q8756.97 11605.3 8781.42 11568.6 Q8806.04 11531.7 8852.53 11531.7 Z" fill="#000000" fill-rule="evenodd" fill-opacity="1" /><path clip-path="url(#clip860)" d="M 0 0 M8988.64 11766.2 L9027.71 11766.2 L9027.71 11813.2 L8988.64 11813.2 L8988.64 11766.2 Z" fill="#000000" fill-rule="evenodd" fill-opacity="1" /><path clip-path="url(#clip860)" d="M 0 0 M9152.89 11660.1 Q9127.71 11660.1 9112.9 11677.3 Q9098.27 11694.5 9098.27 11724.5 Q9098.27 11754.3 9112.9 11771.7 Q9127.71 11789 9152.89 11789 Q9178.08 11789 9192.71 11771.7 Q9207.52 11754.3 9207.52 11724.5 Q9207.52 11694.5 9192.71 11677.3 Q9178.08 11660.1 9152.89 11660.1 M9227.15 11542.8 L9227.15 11576.9 Q9213.08 11570.3 9198.64 11566.7 Q9184.38 11563.2 9170.3 11563.2 Q9133.27 11563.2 9113.64 11588.2 Q9094.19 11613.2 9091.41 11663.8 Q9102.34 11647.7 9118.82 11639.1 Q9135.3 11630.4 9155.12 11630.4 Q9196.78 11630.4 9220.86 11655.8 Q9245.12 11681 9245.12 11724.5 Q9245.12 11767.1 9219.93 11792.8 Q9194.75 11818.6 9152.89 11818.6 Q9104.93 11818.6 9079.56 11781.9 Q9054.19 11745.1 9054.19 11675.3 Q9054.19 11609.7 9085.3 11570.8 Q9116.41 11531.7 9168.82 11531.7 Q9182.89 11531.7 9197.15 11534.5 Q9211.6 11537.3 9227.15 11542.8 Z" fill="#000000" fill-rule="evenodd" fill-opacity="1" /><path clip-path="url(#clip860)" d="M 0 0 M13519.1 11561.4 Q13490.2 11561.4 13475.6 11589.9 Q13461.1 11618.2 13461.1 11675.3 Q13461.1 11732.1 13475.6 11760.6 Q13490.2 11789 13519.1 11789 Q13548.2 11789 13562.6 11760.6 Q13577.3 11732.1 13577.3 11675.3 Q13577.3 11618.2 13562.6 11589.9 Q13548.2 11561.4 13519.1 11561.4 M13519.1 11531.7 Q13565.6 11531.7 13590 11568.6 Q13614.7 11605.3 13614.7 11675.3 Q13614.7 11745.1 13590 11781.9 Q13565.6 11818.6 13519.1 11818.6 Q13472.6 11818.6 13448 11781.9 Q13423.5 11745.1 13423.5 11675.3 Q13423.5 11605.3 13448 11568.6 Q13472.6 11531.7 13519.1 11531.7 Z" fill="#000000" fill-rule="evenodd" fill-opacity="1" /><path clip-path="url(#clip860)" d="M 0 0 M13655.2 11766.2 L13694.3 11766.2 L13694.3 11813.2 L13655.2 11813.2 L13655.2 11766.2 Z" fill="#000000" fill-rule="evenodd" fill-opacity="1" /><path clip-path="url(#clip860)" d="M 0 0 M13814.8 11681.9 Q13788.2 11681.9 13772.8 11696.2 Q13757.6 11710.4 13757.6 11735.4 Q13757.6 11760.4 13772.8 11774.7 Q13788.2 11789 13814.8 11789 Q13841.5 11789 13856.9 11774.7 Q13872.3 11760.3 13872.3 11735.4 Q13872.3 11710.4 13856.9 11696.2 Q13841.7 11681.9 13814.8 11681.9 M13777.4 11666 Q13753.4 11660.1 13739.8 11643.6 Q13726.5 11627.1 13726.5 11603.4 Q13726.5 11570.3 13750 11551 Q13773.7 11531.7 13814.8 11531.7 Q13856.1 11531.7 13879.7 11551 Q13903.2 11570.3 13903.2 11603.4 Q13903.2 11627.1 13889.7 11643.6 Q13876.3 11660.1 13852.4 11666 Q13879.5 11672.3 13894.5 11690.6 Q13909.7 11709 13909.7 11735.4 Q13909.7 11775.6 13885 11797.1 Q13860.6 11818.6 13814.8 11818.6 Q13769.1 11818.6 13744.5 11797.1 Q13720 11775.6 13720 11735.4 Q13720 11709 13735.2 11690.6 Q13750.4 11672.3 13777.4 11666 M13763.7 11606.9 Q13763.7 11628.4 13777.1 11640.4 Q13790.6 11652.5 13814.8 11652.5 Q13838.9 11652.5 13852.4 11640.4 Q13866.1 11628.4 13866.1 11606.9 Q13866.1 11585.4 13852.4 11573.4 Q13838.9 11561.4 13814.8 11561.4 Q13790.6 11561.4 13777.1 11573.4 Q13763.7 11585.4 13763.7 11606.9 Z" fill="#000000" fill-rule="evenodd" fill-opacity="1" /><path clip-path="url(#clip860)" d="M 0 0 M18107.3 11781.7 L18168.5 11781.7 L18168.5 11570.8 L18102 11584.1 L18102 11550.1 L18168.1 11536.7 L18205.5 11536.7 L18205.5 11781.7 L18266.6 11781.7 L18266.6 11813.2 L18107.3 11813.2 L18107.3 11781.7 Z" fill="#000000" fill-rule="evenodd" fill-opacity="1" /><path clip-path="url(#clip860)" d="M 0 0 M18307.2 11766.2 L18346.2 11766.2 L18346.2 11813.2 L18307.2 11813.2 L18307.2 11766.2 Z" fill="#000000" fill-rule="evenodd" fill-opacity="1" /><path clip-path="url(#clip860)" d="M 0 0 M18466.8 11561.4 Q18437.9 11561.4 18423.3 11589.9 Q18408.8 11618.2 18408.8 11675.3 Q18408.8 11732.1 18423.3 11760.6 Q18437.9 11789 18466.8 11789 Q18495.9 11789 18510.3 11760.6 Q18524.9 11732.1 18524.9 11675.3 Q18524.9 11618.2 18510.3 11589.9 Q18495.9 11561.4 18466.8 11561.4 M18466.8 11531.7 Q18513.3 11531.7 18537.7 11568.6 Q18562.3 11605.3 18562.3 11675.3 Q18562.3 11745.1 18537.7 11781.9 Q18513.3 11818.6 18466.8 11818.6 Q18420.3 11818.6 18395.7 11781.9 Q18371.2 11745.1 18371.2 11675.3 Q18371.2 11605.3 18395.7 11568.6 Q18420.3 11531.7 18466.8 11531.7 Z" fill="#000000" fill-rule="evenodd" fill-opacity="1" /><path clip-path="url(#clip860)" d="M 0 0 M1010.08 9542.97 L1109.9 9542.97 L1109.9 9573.34 L1010.08 9573.34 L1010.08 9542.97 Z" fill="#000000" fill-rule="evenodd" fill-opacity="1" /><path clip-path="url(#clip860)" d="M 0 0 M1263.78 9512.97 Q1290.64 9518.71 1305.64 9536.86 Q1320.82 9555.01 1320.82 9581.67 Q1320.82 9622.6 1292.67 9645.01 Q1264.52 9667.41 1212.67 9667.41 Q1195.27 9667.41 1176.75 9663.89 Q1158.41 9660.56 1138.78 9653.71 L1138.78 9617.6 Q1154.34 9626.67 1172.86 9631.3 Q1191.38 9635.93 1211.56 9635.93 Q1246.75 9635.93 1265.08 9622.04 Q1283.6 9608.15 1283.6 9581.67 Q1283.6 9557.23 1266.38 9543.52 Q1249.34 9529.64 1218.78 9529.64 L1186.56 9529.64 L1186.56 9498.89 L1220.27 9498.89 Q1247.86 9498.89 1262.49 9487.97 Q1277.12 9476.86 1277.12 9456.12 Q1277.12 9434.82 1261.93 9423.52 Q1246.93 9412.04 1218.78 9412.04 Q1203.41 9412.04 1185.82 9415.38 Q1168.23 9418.71 1147.12 9425.75 L1147.12 9392.41 Q1168.41 9386.49 1186.93 9383.53 Q1205.64 9380.56 1222.12 9380.56 Q1264.71 9380.56 1289.52 9400.01 Q1314.34 9419.27 1314.34 9452.23 Q1314.34 9475.19 1301.19 9491.12 Q1288.04 9506.86 1263.78 9512.97 Z" fill="#000000" fill-rule="evenodd" fill-opacity="1" /><path clip-path="url(#clip860)" d="M 0 0 M1017.67 7295.22 L1117.49 7295.22 L1117.49 7325.59 L1017.67 7325.59 L1017.67 7295.22 Z" fill="#000000" fill-rule="evenodd" fill-opacity="1" /><path clip-path="url(#clip860)" d="M 0 0 M1190.27 7382.81 L1320.82 7382.81 L1320.82 7414.29 L1145.27 7414.29 L1145.27 7382.81 Q1166.56 7360.77 1203.23 7323.74 Q1240.08 7286.51 1249.52 7275.77 Q1267.49 7255.59 1274.52 7241.7 Q1281.75 7227.63 1281.75 7214.11 Q1281.75 7192.07 1266.19 7178.18 Q1250.82 7164.29 1226.01 7164.29 Q1208.41 7164.29 1188.78 7170.4 Q1169.34 7176.52 1147.12 7188.92 L1147.12 7151.14 Q1169.71 7142.07 1189.34 7137.44 Q1208.97 7132.81 1225.27 7132.81 Q1268.23 7132.81 1293.78 7154.29 Q1319.34 7175.77 1319.34 7211.7 Q1319.34 7228.74 1312.86 7244.11 Q1306.56 7259.29 1289.71 7280.03 Q1285.08 7285.4 1260.27 7311.14 Q1235.45 7336.7 1190.27 7382.81 Z" fill="#000000" fill-rule="evenodd" fill-opacity="1" /><path clip-path="url(#clip860)" d="M 0 0 M1014.71 5047.47 L1114.53 5047.47 L1114.53 5077.84 L1014.71 5077.84 L1014.71 5047.47 Z" fill="#000000" fill-rule="evenodd" fill-opacity="1" /><path clip-path="url(#clip860)" d="M 0 0 M1161.56 5135.06 L1222.67 5135.06 L1222.67 4924.14 L1156.19 4937.47 L1156.19 4903.39 L1222.3 4890.06 L1259.71 4890.06 L1259.71 5135.06 L1320.82 5135.06 L1320.82 5166.54 L1161.56 5166.54 L1161.56 5135.06 Z" fill="#000000" fill-rule="evenodd" fill-opacity="1" /><path clip-path="url(#clip860)" d="M 0 0 M1225.27 2666.94 Q1196.38 2666.94 1181.75 2695.46 Q1167.3 2723.79 1167.3 2780.83 Q1167.3 2837.68 1181.75 2866.2 Q1196.38 2894.53 1225.27 2894.53 Q1254.34 2894.53 1268.78 2866.2 Q1283.41 2837.68 1283.41 2780.83 Q1283.41 2723.79 1268.78 2695.46 Q1254.34 2666.94 1225.27 2666.94 M1225.27 2637.31 Q1271.75 2637.31 1296.19 2674.16 Q1320.82 2710.83 1320.82 2780.83 Q1320.82 2850.64 1296.19 2887.49 Q1271.75 2924.16 1225.27 2924.16 Q1178.78 2924.16 1154.15 2887.49 Q1129.71 2850.64 1129.71 2780.83 Q1129.71 2710.83 1154.15 2674.16 Q1178.78 2637.31 1225.27 2637.31 Z" fill="#000000" fill-rule="evenodd" fill-opacity="1" /><path clip-path="url(#clip860)" d="M 0 0 M6292.34 349.544 L6292.34 526.812 L6397.34 526.812 Q6450.16 526.812 6475.44 505.099 Q6501.04 483.062 6501.04 438.016 Q6501.04 392.646 6475.44 371.257 Q6450.16 349.544 6397.34 349.544 L6292.34 349.544 M6292.34 150.564 L6292.34 296.397 L6389.24 296.397 Q6437.2 296.397 6460.53 278.573 Q6484.19 260.425 6484.19 223.48 Q6484.19 186.86 6460.53 168.712 Q6437.2 150.564 6389.24 150.564 L6292.34 150.564 M6226.88 96.768 L6394.1 96.768 Q6468.96 96.768 6509.47 127.879 Q6549.98 158.99 6549.98 216.351 Q6549.98 260.749 6529.24 286.998 Q6508.5 313.248 6468.31 319.73 Q6516.6 330.1 6543.17 363.155 Q6570.07 395.887 6570.07 445.146 Q6570.07 509.96 6525.99 545.284 Q6481.92 580.608 6400.58 580.608 L6226.88 580.608 L6226.88 96.768 Z" fill="#000000" fill-rule="evenodd" fill-opacity="1" /><path clip-path="url(#clip860)" d="M 0 0 M6858.82 498.294 L6927.2 498.294 L6927.2 580.608 L6858.82 580.608 L6858.82 498.294 M6858.82 237.415 L6927.2 237.415 L6927.2 319.73 L6858.82 319.73 L6858.82 237.415 Z" fill="#000000" fill-rule="evenodd" fill-opacity="1" /><path clip-path="url(#clip860)" d="M 0 0 M7349.14 350.841 Q7302.47 350.841 7275.57 375.794 Q7249 400.748 7249 444.498 Q7249 488.247 7275.57 513.201 Q7302.47 538.155 7349.14 538.155 Q7395.81 538.155 7422.7 513.201 Q7449.6 487.923 7449.6 444.498 Q7449.6 400.748 7422.7 375.794 Q7396.13 350.841 7349.14 350.841 M7283.68 322.97 Q7241.55 312.6 7217.89 283.758 Q7194.56 254.915 7194.56 213.434 Q7194.56 155.425 7235.71 121.722 Q7277.19 88.018 7349.14 88.018 Q7421.41 88.018 7462.56 121.722 Q7503.72 155.425 7503.72 213.434 Q7503.72 254.915 7480.06 283.758 Q7456.73 312.6 7414.93 322.97 Q7462.24 333.989 7488.49 366.072 Q7515.06 398.155 7515.06 444.498 Q7515.06 514.821 7471.96 552.414 Q7429.18 590.006 7349.14 590.006 Q7269.09 590.006 7225.99 552.414 Q7183.21 514.821 7183.21 444.498 Q7183.21 398.155 7209.79 366.072 Q7236.36 333.989 7283.68 322.97 M7259.69 219.591 Q7259.69 257.184 7283.03 278.249 Q7306.69 299.313 7349.14 299.313 Q7391.27 299.313 7414.93 278.249 Q7438.91 257.184 7438.91 219.591 Q7438.91 181.999 7414.93 160.934 Q7391.27 139.87 7349.14 139.87 Q7306.69 139.87 7283.03 160.934 Q7259.69 181.999 7259.69 219.591 Z" fill="#000000" fill-rule="evenodd" fill-opacity="1" /><path clip-path="url(#clip860)" d="M 0 0 M8038.12 176.49 L7921.77 239.36 L8038.12 302.554 L8019.32 334.313 L7910.43 268.526 L7910.43 390.702 L7873.49 390.702 L7873.49 268.526 L7764.6 334.313 L7745.8 302.554 L7862.15 239.36 L7745.8 176.49 L7764.6 144.407 L7873.49 210.193 L7873.49 88.018 L7910.43 88.018 L7910.43 210.193 L8019.32 144.407 L8038.12 176.49 Z" fill="#000000" fill-rule="evenodd" fill-opacity="1" /><path clip-path="url(#clip860)" d="M 0 0 M8460.06 350.841 Q8413.39 350.841 8386.49 375.794 Q8359.92 400.748 8359.92 444.498 Q8359.92 488.247 8386.49 513.201 Q8413.39 538.155 8460.06 538.155 Q8506.73 538.155 8533.62 513.201 Q8560.52 487.923 8560.52 444.498 Q8560.52 400.748 8533.62 375.794 Q8507.05 350.841 8460.06 350.841 M8394.6 322.97 Q8352.47 312.6 8328.81 283.758 Q8305.48 254.915 8305.48 213.434 Q8305.48 155.425 8346.63 121.722 Q8388.11 88.018 8460.06 88.018 Q8532.33 88.018 8573.48 121.722 Q8614.64 155.425 8614.64 213.434 Q8614.64 254.915 8590.98 283.758 Q8567.65 312.6 8525.85 322.97 Q8573.16 333.989 8599.41 366.072 Q8625.98 398.155 8625.98 444.498 Q8625.98 514.821 8582.88 552.414 Q8540.1 590.006 8460.06 590.006 Q8380.01 590.006 8336.91 552.414 Q8294.13 514.821 8294.13 444.498 Q8294.13 398.155 8320.71 366.072 Q8347.28 333.989 8394.6 322.97 M8370.61 219.591 Q8370.61 257.184 8393.95 278.249 Q8417.61 299.313 8460.06 299.313 Q8502.19 299.313 8525.85 278.249 Q8549.83 257.184 8549.83 219.591 Q8549.83 181.999 8525.85 160.934 Q8502.19 139.87 8460.06 139.87 Q8417.61 139.87 8393.95 160.934 Q8370.61 181.999 8370.61 219.591 Z" fill="#000000" fill-rule="evenodd" fill-opacity="1" /><path clip-path="url(#clip860)" d="M 0 0 M8703.76 498.294 L8772.14 498.294 L8772.14 554.034 L8718.99 657.737 L8677.19 657.737 L8703.76 554.034 L8703.76 498.294 Z" fill="#000000" fill-rule="evenodd" fill-opacity="1" /><path clip-path="url(#clip860)" d="M 0 0 M9244.64 141.166 Q9173.34 141.166 9131.21 194.314 Q9089.41 247.462 9089.41 339.174 Q9089.41 430.563 9131.21 483.71 Q9173.34 536.858 9244.64 536.858 Q9315.93 536.858 9357.41 483.71 Q9399.22 430.563 9399.22 339.174 Q9399.22 247.462 9357.41 194.314 Q9315.93 141.166 9244.64 141.166 M9336.35 571.858 L9422.55 666.163 L9343.48 666.163 L9271.86 588.71 Q9261.17 589.358 9255.33 589.682 Q9249.82 590.006 9244.64 590.006 Q9142.56 590.006 9081.31 521.951 Q9020.38 453.572 9020.38 339.174 Q9020.38 224.453 9081.31 156.397 Q9142.56 88.018 9244.64 88.018 Q9346.4 88.018 9407.32 156.397 Q9468.25 224.453 9468.25 339.174 Q9468.25 423.433 9434.22 483.386 Q9400.52 543.34 9336.35 571.858 Z" fill="#000000" fill-rule="evenodd" fill-opacity="1" /><path clip-path="url(#clip860)" d="M 0 0 M9749.54 279.221 L10165 279.221 L10165 333.665 L9749.54 333.665 L9749.54 279.221 M9749.54 411.442 L10165 411.442 L10165 466.535 L9749.54 466.535 L9749.54 411.442 Z" fill="#000000" fill-rule="evenodd" fill-opacity="1" /><path clip-path="url(#clip860)" d="M 0 0 M10458.3 525.516 L10565.2 525.516 L10565.2 156.397 L10448.9 179.731 L10448.9 120.101 L10564.6 96.768 L10630 96.768 L10630 525.516 L10737 525.516 L10737 580.608 L10458.3 580.608 L10458.3 525.516 Z" fill="#000000" fill-rule="evenodd" fill-opacity="1" /><path clip-path="url(#clip860)" d="M 0 0 M10956.1 312.6 Q10912 312.6 10886.1 342.739 Q10860.5 372.878 10860.5 425.377 Q10860.5 477.553 10886.1 508.016 Q10912 538.155 10956.1 538.155 Q11000.1 538.155 11025.7 508.016 Q11051.7 477.553 11051.7 425.377 Q11051.7 372.878 11025.7 342.739 Q11000.1 312.6 10956.1 312.6 M11086 107.462 L11086 167.092 Q11061.4 155.425 11036.1 149.268 Q11011.2 143.11 10986.5 143.11 Q10921.7 143.11 10887.4 186.86 Q10853.3 230.61 10848.5 319.082 Q10867.6 290.887 10896.4 275.98 Q10925.3 260.749 10960 260.749 Q11032.9 260.749 11075 305.147 Q11117.5 349.22 11117.5 425.377 Q11117.5 499.914 11073.4 544.96 Q11029.3 590.006 10956.1 590.006 Q10872.1 590.006 10827.7 525.84 Q10783.3 461.349 10783.3 339.174 Q10783.3 224.453 10837.8 156.397 Q10892.2 88.018 10983.9 88.018 Q11008.6 88.018 11033.5 92.8791 Q11058.8 97.7402 11086 107.462 Z" fill="#000000" fill-rule="evenodd" fill-opacity="1" /><path clip-path="url(#clip860)" d="M 0 0 M11195.2 498.294 L11263.6 498.294 L11263.6 554.034 L11210.5 657.737 L11168.7 657.737 L11195.2 554.034 L11195.2 498.294 Z" fill="#000000" fill-rule="evenodd" fill-opacity="1" /><path clip-path="url(#clip860)" d="M 0 0 M11539.7 96.768 L11605.2 96.768 L11605.2 546.904 Q11605.2 634.404 11571.8 673.941 Q11538.7 713.478 11465.2 713.478 L11440.2 713.478 L11440.2 658.385 L11460.6 658.385 Q11504.1 658.385 11521.9 634.08 Q11539.7 609.775 11539.7 546.904 L11539.7 96.768 Z" fill="#000000" fill-rule="evenodd" fill-opacity="1" /><path clip-path="url(#clip860)" d="M 0 0 M11943.5 690.793 L11943.5 737.135 L11598.7 737.135 L11598.7 690.793 L11943.5 690.793 Z" fill="#000000" fill-rule="evenodd" fill-opacity="1" /><path clip-path="url(#clip860)" d="M 0 0 M12154.5 139.87 Q12103.9 139.87 12078.3 189.777 Q12053 239.36 12053 339.174 Q12053 438.664 12078.3 488.571 Q12103.9 538.155 12154.5 538.155 Q12205.4 538.155 12230.6 488.571 Q12256.2 438.664 12256.2 339.174 Q12256.2 239.36 12230.6 189.777 Q12205.4 139.87 12154.5 139.87 M12154.5 88.018 Q12235.8 88.018 12278.6 152.508 Q12321.7 216.675 12321.7 339.174 Q12321.7 461.349 12278.6 525.84 Q12235.8 590.006 12154.5 590.006 Q12073.1 590.006 12030 525.84 Q11987.3 461.349 11987.3 339.174 Q11987.3 216.675 12030 152.508 Q12073.1 88.018 12154.5 88.018 Z" fill="#000000" fill-rule="evenodd" fill-opacity="1" /><path clip-path="url(#clip860)" d="M 0 0 M12603 279.221 L13018.5 279.221 L13018.5 333.665 L12603 333.665 L12603 279.221 M12603 411.442 L13018.5 411.442 L13018.5 466.535 L12603 466.535 L12603 411.442 Z" fill="#000000" fill-rule="evenodd" fill-opacity="1" /><path clip-path="url(#clip860)" d="M 0 0 M13311.7 525.516 L13418.7 525.516 L13418.7 156.397 L13302.3 179.731 L13302.3 120.101 L13418 96.768 L13483.5 96.768 L13483.5 525.516 L13590.4 525.516 L13590.4 580.608 L13311.7 580.608 L13311.7 525.516 Z" fill="#000000" fill-rule="evenodd" fill-opacity="1" /><path clip-path="url(#clip860)" d="M 0 0 M13661.4 498.294 L13729.8 498.294 L13729.8 580.608 L13661.4 580.608 L13661.4 498.294 Z" fill="#000000" fill-rule="evenodd" fill-opacity="1" /><path clip-path="url(#clip860)" d="M 0 0 M13940.8 139.87 Q13890.2 139.87 13864.6 189.777 Q13839.3 239.36 13839.3 339.174 Q13839.3 438.664 13864.6 488.571 Q13890.2 538.155 13940.8 538.155 Q13991.6 538.155 14016.9 488.571 Q14042.5 438.664 14042.5 339.174 Q14042.5 239.36 14016.9 189.777 Q13991.6 139.87 13940.8 139.87 M13940.8 88.018 Q14022.1 88.018 14064.9 152.508 Q14108 216.675 14108 339.174 Q14108 461.349 14064.9 525.84 Q14022.1 590.006 13940.8 590.006 Q13859.4 590.006 13816.3 525.84 Q13773.5 461.349 13773.5 339.174 Q13773.5 216.675 13816.3 152.508 Q13859.4 88.018 13940.8 88.018 Z" fill="#000000" fill-rule="evenodd" fill-opacity="1" /><path clip-path="url(#clip860)" d="M 0 0 M10006.6 12068.2 L10328.2 12068.2 L10328.2 12111.5 L10193.3 12111.5 L10193.3 12448.4 L10141.6 12448.4 L10141.6 12111.5 L10006.6 12111.5 L10006.6 12068.2 Z" fill="#000000" fill-rule="evenodd" fill-opacity="1" /><path clip-path="url(#clip860)" d="M 0 0 M522.483 6270 L661.765 6270 L661.765 6187.5 Q661.765 6145.99 644.705 6126.13 Q627.39 6106.02 591.997 6106.02 Q556.349 6106.02 539.543 6126.13 Q522.483 6145.99 522.483 6187.5 L522.483 6270 M366.142 6270 L480.724 6270 L480.724 6193.86 Q480.724 6156.18 466.72 6137.85 Q452.461 6119.26 423.433 6119.26 Q394.66 6119.26 380.401 6137.85 Q366.142 6156.18 366.142 6193.86 L366.142 6270 M323.873 6321.43 L323.873 6190.05 Q323.873 6131.23 348.318 6099.4 Q372.762 6067.57 417.831 6067.57 Q452.715 6067.57 473.34 6083.87 Q493.965 6100.16 499.058 6131.74 Q507.206 6093.8 533.178 6072.92 Q558.895 6051.78 597.599 6051.78 Q648.524 6051.78 676.279 6086.41 Q704.033 6121.04 704.033 6184.95 L704.033 6321.43 L323.873 6321.43 Z" fill="#000000" fill-rule="evenodd" fill-opacity="1" /><polyline clip-path="url(#clip862)" style="stroke:#009af9; stroke-width:32; stroke-opacity:1; fill:none" points="
  2002.7,1282.05 2335.96,1282.05 2669.21,1282.05 3002.47,1282.05 3335.72,1282.05 3668.98,1282.05 4002.23,1282.06 4335.48,1282.06 4668.74,1282.06 5001.99,1282.07 
  5335.25,1282.08 5668.5,1282.09 6001.76,1282.11 6335.01,1282.14 6668.26,1282.17 7001.52,1282.22 7334.77,1282.3 7668.03,1282.42 8001.28,1282.61 8334.54,1282.93 
  8667.79,1283.71 9001.04,1299.05 9334.3,1855.24 9667.55,2126.36 10000.8,3918 10334.1,11091.2 10667.3,9116.48 11000.6,4656.96 11333.8,3847.98 11667.1,3510.69 
  12000.3,3230.78 12333.6,3309.17 12666.8,3067.91 13000.1,3062.17 13333.3,2982.13 13666.6,2983.74 13999.9,2961.4 14333.1,2826.17 14666.4,2988.74 14999.6,2922.44 
  15332.9,2833.39 15666.1,2865.38 15999.4,2783.36 16332.6,2810.89 16665.9,2746.19 16999.1,2857.52 17332.4,2793.54 17665.7,2848.83 17998.9,2807.21 18332.2,2917.24 
  
  "/>
<polyline clip-path="url(#clip862)" style="stroke:#e26f46; stroke-width:32; stroke-opacity:1; fill:none" points="
  2002.7,1282.05 2335.96,1282.05 2669.21,1282.05 3002.47,1282.05 3335.72,1282.05 3668.98,1282.05 4002.23,1282.06 4335.48,1282.06 4668.74,1282.06 5001.99,1282.07 
  5335.25,1282.08 5668.5,1282.09 6001.76,1282.11 6335.01,1282.14 6668.26,1282.17 7001.52,1282.23 7334.77,1282.34 7668.03,1282.51 8001.28,1282.77 8334.54,1283.54 
  8667.79,2362.13 9001.04,1954.65 9334.3,2616.03 9667.55,6034.05 10000.8,5544.52 10334.1,4703.59 10667.3,4206.23 11000.6,3950.68 11333.8,3627.74 11667.1,3054.66 
  12000.3,3296.69 12333.6,2921.45 12666.8,3157.16 13000.1,3000.57 13333.3,2964.41 13666.6,2934.58 13999.9,2803.06 14333.1,2850.09 14666.4,2962.4 14999.6,2891.3 
  15332.9,2946.75 15666.1,2880.39 15999.4,2776.53 16332.6,2831.67 16665.9,2934.52 16999.1,2849.58 17332.4,2874.67 17665.7,2720.53 17998.9,2749.44 18332.2,2811.87 
  
  "/>
<polyline clip-path="url(#clip862)" style="stroke:#3da44d; stroke-width:32; stroke-opacity:1; fill:none" points="
  2002.7,1282.05 2335.96,1282.05 2669.21,1282.05 3002.47,1282.05 3335.72,1282.05 3668.98,1282.06 4002.23,1282.06 4335.48,1282.06 4668.74,1282.07 5001.99,1282.09 
  5335.25,1301.75 5668.5,1439.21 6001.76,1481.04 6335.01,1343.92 6668.26,1313.71 7001.52,2244.68 7334.77,1434.97 7668.03,3493.43 8001.28,1911.82 8334.54,2026.71 
  8667.79,2032.5 9001.04,2243.77 9334.3,2751.58 9667.55,3043.66 10000.8,3319.24 10334.1,3470.44 10667.3,3554.86 11000.6,3579.47 11333.8,3379.06 11667.1,3189.82 
  12000.3,3269.71 12333.6,3148.22 12666.8,3010.28 13000.1,2981.2 13333.3,2909.86 13666.6,2971 13999.9,2853.27 14333.1,2951.85 14666.4,2824.85 14999.6,2769.89 
  15332.9,2998.75 15666.1,2899.56 15999.4,2748.32 16332.6,2824.92 16665.9,2845.27 16999.1,2775.63 17332.4,2878.21 17665.7,2785.29 17998.9,2784.91 18332.2,2840.46 
  
  "/>
<polyline clip-path="url(#clip862)" style="stroke:#c271d2; stroke-width:32; stroke-opacity:1; fill:none" points="
  2002.7,2037.51 2335.96,1942.68 2669.21,1794.27 3002.47,1819.24 3335.72,1887.19 3668.98,2142.78 4002.23,1822.08 4335.48,1832.17 4668.74,1638.39 5001.99,2065.85 
  5335.25,1921.82 5668.5,1759.96 6001.76,1716.13 6335.01,1797.48 6668.26,1786.65 7001.52,1957.76 7334.77,1886.74 7668.03,1825.74 8001.28,1972.01 8334.54,1896.92 
  8667.79,1948.42 9001.04,1944.92 9334.3,1951.48 9667.55,2038.85 10000.8,2069 10334.1,2156.48 10667.3,2433 11000.6,2644.91 11333.8,2843.05 11667.1,3105.17 
  12000.3,3087.36 12333.6,3221.13 12666.8,3157.78 13000.1,3259.62 13333.3,3239.89 13666.6,3212.8 13999.9,3190.5 14333.1,2976.51 14666.4,2922.59 14999.6,3053.23 
  15332.9,2896.56 15666.1,2920.96 15999.4,2848.24 16332.6,2918.07 16665.9,2834.07 16999.1,3014.77 17332.4,2739.05 17665.7,2874.79 17998.9,2782.14 18332.2,2838.52 
  
  "/>
<polyline clip-path="url(#clip862)" style="stroke:#ac8d18; stroke-width:32; stroke-opacity:1; fill:none" points="
  2002.7,1925.54 2335.96,1833.43 2669.21,2035.41 3002.47,1981.13 3335.72,2108.76 3668.98,1986.7 4002.23,2254.56 4335.48,1766.48 4668.74,1750.64 5001.99,2073.77 
  5335.25,1871.86 5668.5,1812.15 6001.76,2033.36 6335.01,1881.99 6668.26,1958.2 7001.52,1978.28 7334.77,1955.39 7668.03,1834.05 8001.28,2112.91 8334.54,2193.52 
  8667.79,1810.54 9001.04,2043.1 9334.3,1913.7 9667.55,1900.07 10000.8,2004.02 10334.1,1979.86 10667.3,1954.34 11000.6,1984.39 11333.8,2006.26 11667.1,2016.85 
  12000.3,2053.42 12333.6,2145.62 12666.8,2139.16 13000.1,2334.22 13333.3,2518.66 13666.6,2614.09 13999.9,2848.49 14333.1,2797.48 14666.4,2973.34 14999.6,2883.38 
  15332.9,2996.31 15666.1,3051.29 15999.4,3018.69 16332.6,3029.24 16665.9,3126.72 16999.1,2970.47 17332.4,2976.44 17665.7,3035.84 17998.9,2949.22 18332.2,2988.72 
  
  "/>
<path clip-path="url(#clip860)" d="
M15370 11038.9 L18822 11038.9 L18822 8135.81 L15370 8135.81  Z
  " fill="#ffffff" fill-rule="evenodd" fill-opacity="1"/>
<polyline clip-path="url(#clip860)" style="stroke:#000000; stroke-width:32; stroke-opacity:1; fill:none" points="
  15370,11038.9 18822,11038.9 18822,8135.81 15370,8135.81 15370,11038.9 
  "/>
<polyline clip-path="url(#clip860)" style="stroke:#009af9; stroke-width:32; stroke-opacity:1; fill:none" points="
  15562,8619.65 16714,8619.65 
  "/>
<path clip-path="url(#clip860)" d="M 0 0 M16962.9 8481.41 L17000.3 8481.41 L17000.3 8738.63 Q17000.3 8788.63 16981.2 8811.22 Q16962.3 8833.82 16920.3 8833.82 L16906 8833.82 L16906 8802.33 L16917.7 8802.33 Q16942.5 8802.33 16952.7 8788.45 Q16962.9 8774.56 16962.9 8738.63 L16962.9 8481.41 Z" fill="#000000" fill-rule="evenodd" fill-opacity="1" /><path clip-path="url(#clip860)" d="M 0 0 M17047.3 8726.41 L17108.4 8726.41 L17108.4 8515.48 L17041.9 8528.82 L17041.9 8494.74 L17108.1 8481.41 L17145.5 8481.41 L17145.5 8726.41 L17206.6 8726.41 L17206.6 8757.89 L17047.3 8757.89 L17047.3 8726.41 Z" fill="#000000" fill-rule="evenodd" fill-opacity="1" /><path clip-path="url(#clip860)" d="M 0 0 M17367.3 8585.67 L17604.7 8585.67 L17604.7 8616.78 L17367.3 8616.78 L17367.3 8585.67 M17367.3 8661.22 L17604.7 8661.22 L17604.7 8692.71 L17367.3 8692.71 L17367.3 8661.22 Z" fill="#000000" fill-rule="evenodd" fill-opacity="1" /><path clip-path="url(#clip860)" d="M 0 0 M17845.8 8506.04 Q17816.9 8506.04 17802.3 8534.56 Q17787.9 8562.89 17787.9 8619.93 Q17787.9 8676.78 17802.3 8705.3 Q17816.9 8733.63 17845.8 8733.63 Q17874.9 8733.63 17889.3 8705.3 Q17904 8676.78 17904 8619.93 Q17904 8562.89 17889.3 8534.56 Q17874.9 8506.04 17845.8 8506.04 M17845.8 8476.41 Q17892.3 8476.41 17916.8 8513.26 Q17941.4 8549.93 17941.4 8619.93 Q17941.4 8689.74 17916.8 8726.59 Q17892.3 8763.26 17845.8 8763.26 Q17799.3 8763.26 17774.7 8726.59 Q17750.3 8689.74 17750.3 8619.93 Q17750.3 8549.93 17774.7 8513.26 Q17799.3 8476.41 17845.8 8476.41 Z" fill="#000000" fill-rule="evenodd" fill-opacity="1" /><path clip-path="url(#clip860)" d="M 0 0 M17981.9 8710.85 L18021 8710.85 L18021 8757.89 L17981.9 8757.89 L17981.9 8710.85 Z" fill="#000000" fill-rule="evenodd" fill-opacity="1" /><path clip-path="url(#clip860)" d="M 0 0 M18141.6 8506.04 Q18112.7 8506.04 18098 8534.56 Q18083.6 8562.89 18083.6 8619.93 Q18083.6 8676.78 18098 8705.3 Q18112.7 8733.63 18141.6 8733.63 Q18170.6 8733.63 18185.1 8705.3 Q18199.7 8676.78 18199.7 8619.93 Q18199.7 8562.89 18185.1 8534.56 Q18170.6 8506.04 18141.6 8506.04 M18141.6 8476.41 Q18188 8476.41 18212.5 8513.26 Q18237.1 8549.93 18237.1 8619.93 Q18237.1 8689.74 18212.5 8726.59 Q18188 8763.26 18141.6 8763.26 Q18095.1 8763.26 18070.5 8726.59 Q18046 8689.74 18046 8619.93 Q18046 8549.93 18070.5 8513.26 Q18095.1 8476.41 18141.6 8476.41 Z" fill="#000000" fill-rule="evenodd" fill-opacity="1" /><polyline clip-path="url(#clip860)" style="stroke:#e26f46; stroke-width:32; stroke-opacity:1; fill:none" points="
  15562,9103.49 16714,9103.49 
  "/>
<path clip-path="url(#clip860)" d="M 0 0 M16962.9 8965.25 L17000.3 8965.25 L17000.3 9222.47 Q17000.3 9272.47 16981.2 9295.06 Q16962.3 9317.66 16920.3 9317.66 L16906 9317.66 L16906 9286.17 L16917.7 9286.17 Q16942.5 9286.17 16952.7 9272.29 Q16962.9 9258.4 16962.9 9222.47 L16962.9 8965.25 Z" fill="#000000" fill-rule="evenodd" fill-opacity="1" /><path clip-path="url(#clip860)" d="M 0 0 M17047.3 9210.25 L17108.4 9210.25 L17108.4 8999.32 L17041.9 9012.66 L17041.9 8978.58 L17108.1 8965.25 L17145.5 8965.25 L17145.5 9210.25 L17206.6 9210.25 L17206.6 9241.73 L17047.3 9241.73 L17047.3 9210.25 Z" fill="#000000" fill-rule="evenodd" fill-opacity="1" /><path clip-path="url(#clip860)" d="M 0 0 M17367.3 9069.51 L17604.7 9069.51 L17604.7 9100.62 L17367.3 9100.62 L17367.3 9069.51 M17367.3 9145.06 L17604.7 9145.06 L17604.7 9176.55 L17367.3 9176.55 L17367.3 9145.06 Z" fill="#000000" fill-rule="evenodd" fill-opacity="1" /><path clip-path="url(#clip860)" d="M 0 0 M17845.8 8989.88 Q17816.9 8989.88 17802.3 9018.4 Q17787.9 9046.73 17787.9 9103.77 Q17787.9 9160.62 17802.3 9189.14 Q17816.9 9217.47 17845.8 9217.47 Q17874.9 9217.47 17889.3 9189.14 Q17904 9160.62 17904 9103.77 Q17904 9046.73 17889.3 9018.4 Q17874.9 8989.88 17845.8 8989.88 M17845.8 8960.25 Q17892.3 8960.25 17916.8 8997.1 Q17941.4 9033.77 17941.4 9103.77 Q17941.4 9173.58 17916.8 9210.43 Q17892.3 9247.1 17845.8 9247.1 Q17799.3 9247.1 17774.7 9210.43 Q17750.3 9173.58 17750.3 9103.77 Q17750.3 9033.77 17774.7 8997.1 Q17799.3 8960.25 17845.8 8960.25 Z" fill="#000000" fill-rule="evenodd" fill-opacity="1" /><path clip-path="url(#clip860)" d="M 0 0 M17981.9 9194.69 L18021 9194.69 L18021 9241.73 L17981.9 9241.73 L17981.9 9194.69 Z" fill="#000000" fill-rule="evenodd" fill-opacity="1" /><path clip-path="url(#clip860)" d="M 0 0 M18093.8 9210.25 L18224.3 9210.25 L18224.3 9241.73 L18048.8 9241.73 L18048.8 9210.25 Q18070.1 9188.21 18106.8 9151.17 Q18143.6 9113.95 18153 9103.21 Q18171 9083.03 18178 9069.14 Q18185.3 9055.06 18185.3 9041.55 Q18185.3 9019.51 18169.7 9005.62 Q18154.3 8991.73 18129.5 8991.73 Q18111.9 8991.73 18092.3 8997.84 Q18072.9 9003.95 18050.6 9016.36 L18050.6 8978.58 Q18073.2 8969.51 18092.9 8964.88 Q18112.5 8960.25 18128.8 8960.25 Q18171.8 8960.25 18197.3 8981.73 Q18222.9 9003.21 18222.9 9039.14 Q18222.9 9056.18 18216.4 9071.55 Q18210.1 9086.73 18193.2 9107.47 Q18188.6 9112.84 18163.8 9138.58 Q18139 9164.14 18093.8 9210.25 Z" fill="#000000" fill-rule="evenodd" fill-opacity="1" /><path clip-path="url(#clip860)" d="M 0 0 M18265.3 8965.25 L18412.1 8965.25 L18412.1 8996.73 L18299.5 8996.73 L18299.5 9064.51 Q18307.7 9061.73 18315.8 9060.43 Q18324 9058.95 18332.1 9058.95 Q18378.4 9058.95 18405.5 9084.32 Q18432.5 9109.69 18432.5 9153.03 Q18432.5 9197.66 18404.7 9222.47 Q18376.9 9247.1 18326.4 9247.1 Q18309 9247.1 18290.8 9244.14 Q18272.9 9241.17 18253.6 9235.25 L18253.6 9197.66 Q18270.3 9206.73 18288 9211.17 Q18305.8 9215.62 18325.6 9215.62 Q18357.7 9215.62 18376.4 9198.77 Q18395.1 9181.92 18395.1 9153.03 Q18395.1 9124.14 18376.4 9107.29 Q18357.7 9090.43 18325.6 9090.43 Q18310.6 9090.43 18295.6 9093.77 Q18280.8 9097.1 18265.3 9104.14 L18265.3 8965.25 Z" fill="#000000" fill-rule="evenodd" fill-opacity="1" /><polyline clip-path="url(#clip860)" style="stroke:#3da44d; stroke-width:32; stroke-opacity:1; fill:none" points="
  15562,9587.33 16714,9587.33 
  "/>
<path clip-path="url(#clip860)" d="M 0 0 M16962.9 9449.09 L17000.3 9449.09 L17000.3 9706.31 Q17000.3 9756.31 16981.2 9778.9 Q16962.3 9801.5 16920.3 9801.5 L16906 9801.5 L16906 9770.01 L16917.7 9770.01 Q16942.5 9770.01 16952.7 9756.13 Q16962.9 9742.24 16962.9 9706.31 L16962.9 9449.09 Z" fill="#000000" fill-rule="evenodd" fill-opacity="1" /><path clip-path="url(#clip860)" d="M 0 0 M17047.3 9694.09 L17108.4 9694.09 L17108.4 9483.16 L17041.9 9496.5 L17041.9 9462.42 L17108.1 9449.09 L17145.5 9449.09 L17145.5 9694.09 L17206.6 9694.09 L17206.6 9725.57 L17047.3 9725.57 L17047.3 9694.09 Z" fill="#000000" fill-rule="evenodd" fill-opacity="1" /><path clip-path="url(#clip860)" d="M 0 0 M17367.3 9553.35 L17604.7 9553.35 L17604.7 9584.46 L17367.3 9584.46 L17367.3 9553.35 M17367.3 9628.9 L17604.7 9628.9 L17604.7 9660.39 L17367.3 9660.39 L17367.3 9628.9 Z" fill="#000000" fill-rule="evenodd" fill-opacity="1" /><path clip-path="url(#clip860)" d="M 0 0 M17845.8 9473.72 Q17816.9 9473.72 17802.3 9502.24 Q17787.9 9530.57 17787.9 9587.61 Q17787.9 9644.46 17802.3 9672.98 Q17816.9 9701.31 17845.8 9701.31 Q17874.9 9701.31 17889.3 9672.98 Q17904 9644.46 17904 9587.61 Q17904 9530.57 17889.3 9502.24 Q17874.9 9473.72 17845.8 9473.72 M17845.8 9444.09 Q17892.3 9444.09 17916.8 9480.94 Q17941.4 9517.61 17941.4 9587.61 Q17941.4 9657.42 17916.8 9694.27 Q17892.3 9730.94 17845.8 9730.94 Q17799.3 9730.94 17774.7 9694.27 Q17750.3 9657.42 17750.3 9587.61 Q17750.3 9517.61 17774.7 9480.94 Q17799.3 9444.09 17845.8 9444.09 Z" fill="#000000" fill-rule="evenodd" fill-opacity="1" /><path clip-path="url(#clip860)" d="M 0 0 M17981.9 9678.53 L18021 9678.53 L18021 9725.57 L17981.9 9725.57 L17981.9 9678.53 Z" fill="#000000" fill-rule="evenodd" fill-opacity="1" /><path clip-path="url(#clip860)" d="M 0 0 M18061.9 9449.09 L18208.8 9449.09 L18208.8 9480.57 L18096.2 9480.57 L18096.2 9548.35 Q18104.3 9545.57 18112.5 9544.27 Q18120.6 9542.79 18128.8 9542.79 Q18175.1 9542.79 18202.1 9568.16 Q18229.2 9593.53 18229.2 9636.87 Q18229.2 9681.5 18201.4 9706.31 Q18173.6 9730.94 18123 9730.94 Q18105.6 9730.94 18087.5 9727.98 Q18069.5 9725.01 18050.3 9719.09 L18050.3 9681.5 Q18066.9 9690.57 18084.7 9695.01 Q18102.5 9699.46 18122.3 9699.46 Q18154.3 9699.46 18173 9682.61 Q18191.8 9665.76 18191.8 9636.87 Q18191.8 9607.98 18173 9591.13 Q18154.3 9574.27 18122.3 9574.27 Q18107.3 9574.27 18092.3 9577.61 Q18077.5 9580.94 18061.9 9587.98 L18061.9 9449.09 Z" fill="#000000" fill-rule="evenodd" fill-opacity="1" /><polyline clip-path="url(#clip860)" style="stroke:#c271d2; stroke-width:32; stroke-opacity:1; fill:none" points="
  15562,10071.2 16714,10071.2 
  "/>
<path clip-path="url(#clip860)" d="M 0 0 M16962.9 9932.93 L17000.3 9932.93 L17000.3 10190.2 Q17000.3 10240.2 16981.2 10262.7 Q16962.3 10285.3 16920.3 10285.3 L16906 10285.3 L16906 10253.9 L16917.7 10253.9 Q16942.5 10253.9 16952.7 10240 Q16962.9 10226.1 16962.9 10190.2 L16962.9 9932.93 Z" fill="#000000" fill-rule="evenodd" fill-opacity="1" /><path clip-path="url(#clip860)" d="M 0 0 M17047.3 10177.9 L17108.4 10177.9 L17108.4 9967 L17041.9 9980.34 L17041.9 9946.26 L17108.1 9932.93 L17145.5 9932.93 L17145.5 10177.9 L17206.6 10177.9 L17206.6 10209.4 L17047.3 10209.4 L17047.3 10177.9 Z" fill="#000000" fill-rule="evenodd" fill-opacity="1" /><path clip-path="url(#clip860)" d="M 0 0 M17367.3 10037.2 L17604.7 10037.2 L17604.7 10068.3 L17367.3 10068.3 L17367.3 10037.2 M17367.3 10112.7 L17604.7 10112.7 L17604.7 10144.2 L17367.3 10144.2 L17367.3 10112.7 Z" fill="#000000" fill-rule="evenodd" fill-opacity="1" /><path clip-path="url(#clip860)" d="M 0 0 M17845.8 9957.56 Q17816.9 9957.56 17802.3 9986.08 Q17787.9 10014.4 17787.9 10071.4 Q17787.9 10128.3 17802.3 10156.8 Q17816.9 10185.2 17845.8 10185.2 Q17874.9 10185.2 17889.3 10156.8 Q17904 10128.3 17904 10071.4 Q17904 10014.4 17889.3 9986.08 Q17874.9 9957.56 17845.8 9957.56 M17845.8 9927.93 Q17892.3 9927.93 17916.8 9964.78 Q17941.4 10001.4 17941.4 10071.4 Q17941.4 10141.3 17916.8 10178.1 Q17892.3 10214.8 17845.8 10214.8 Q17799.3 10214.8 17774.7 10178.1 Q17750.3 10141.3 17750.3 10071.4 Q17750.3 10001.4 17774.7 9964.78 Q17799.3 9927.93 17845.8 9927.93 Z" fill="#000000" fill-rule="evenodd" fill-opacity="1" /><path clip-path="url(#clip860)" d="M 0 0 M17981.9 10162.4 L18021 10162.4 L18021 10209.4 L17981.9 10209.4 L17981.9 10162.4 Z" fill="#000000" fill-rule="evenodd" fill-opacity="1" /><path clip-path="url(#clip860)" d="M 0 0 M18052.1 9932.93 L18229.9 9932.93 L18229.9 9948.86 L18129.5 10209.4 L18090.5 10209.4 L18184.9 9964.41 L18052.1 9964.41 L18052.1 9932.93 Z" fill="#000000" fill-rule="evenodd" fill-opacity="1" /><path clip-path="url(#clip860)" d="M 0 0 M18270.8 9932.93 L18417.7 9932.93 L18417.7 9964.41 L18305.1 9964.41 L18305.1 10032.2 Q18313.2 10029.4 18321.4 10028.1 Q18329.5 10026.6 18337.7 10026.6 Q18384 10026.6 18411 10052 Q18438 10077.4 18438 10120.7 Q18438 10165.3 18410.3 10190.2 Q18382.5 10214.8 18331.9 10214.8 Q18314.5 10214.8 18296.4 10211.8 Q18278.4 10208.9 18259.2 10202.9 L18259.2 10165.3 Q18275.8 10174.4 18293.6 10178.9 Q18311.4 10183.3 18331.2 10183.3 Q18363.2 10183.3 18381.9 10166.4 Q18400.6 10149.6 18400.6 10120.7 Q18400.6 10091.8 18381.9 10075 Q18363.2 10058.1 18331.2 10058.1 Q18316.2 10058.1 18301.2 10061.4 Q18286.4 10064.8 18270.8 10071.8 L18270.8 9932.93 Z" fill="#000000" fill-rule="evenodd" fill-opacity="1" /><polyline clip-path="url(#clip860)" style="stroke:#ac8d18; stroke-width:32; stroke-opacity:1; fill:none" points="
  15562,10555 16714,10555 
  "/>
<path clip-path="url(#clip860)" d="M 0 0 M16962.9 10416.8 L17000.3 10416.8 L17000.3 10674 Q17000.3 10724 16981.2 10746.6 Q16962.3 10769.2 16920.3 10769.2 L16906 10769.2 L16906 10737.7 L16917.7 10737.7 Q16942.5 10737.7 16952.7 10723.8 Q16962.9 10709.9 16962.9 10674 L16962.9 10416.8 Z" fill="#000000" fill-rule="evenodd" fill-opacity="1" /><path clip-path="url(#clip860)" d="M 0 0 M17047.3 10661.8 L17108.4 10661.8 L17108.4 10450.8 L17041.9 10464.2 L17041.9 10430.1 L17108.1 10416.8 L17145.5 10416.8 L17145.5 10661.8 L17206.6 10661.8 L17206.6 10693.3 L17047.3 10693.3 L17047.3 10661.8 Z" fill="#000000" fill-rule="evenodd" fill-opacity="1" /><path clip-path="url(#clip860)" d="M 0 0 M17367.3 10521 L17604.7 10521 L17604.7 10552.1 L17367.3 10552.1 L17367.3 10521 M17367.3 10596.6 L17604.7 10596.6 L17604.7 10628.1 L17367.3 10628.1 L17367.3 10596.6 Z" fill="#000000" fill-rule="evenodd" fill-opacity="1" /><path clip-path="url(#clip860)" d="M 0 0 M17772.3 10661.8 L17833.4 10661.8 L17833.4 10450.8 L17766.9 10464.2 L17766.9 10430.1 L17833.1 10416.8 L17870.5 10416.8 L17870.5 10661.8 L17931.6 10661.8 L17931.6 10693.3 L17772.3 10693.3 L17772.3 10661.8 Z" fill="#000000" fill-rule="evenodd" fill-opacity="1" /><path clip-path="url(#clip860)" d="M 0 0 M17972.1 10646.2 L18011.2 10646.2 L18011.2 10693.3 L17972.1 10693.3 L17972.1 10646.2 Z" fill="#000000" fill-rule="evenodd" fill-opacity="1" /><path clip-path="url(#clip860)" d="M 0 0 M18131.8 10441.4 Q18102.9 10441.4 18088.2 10469.9 Q18073.8 10498.3 18073.8 10555.3 Q18073.8 10612.1 18088.2 10640.7 Q18102.9 10669 18131.8 10669 Q18160.8 10669 18175.3 10640.7 Q18189.9 10612.1 18189.9 10555.3 Q18189.9 10498.3 18175.3 10469.9 Q18160.8 10441.4 18131.8 10441.4 M18131.8 10411.8 Q18178.2 10411.8 18202.7 10448.6 Q18227.3 10485.3 18227.3 10555.3 Q18227.3 10625.1 18202.7 10662 Q18178.2 10698.6 18131.8 10698.6 Q18085.3 10698.6 18060.6 10662 Q18036.2 10625.1 18036.2 10555.3 Q18036.2 10485.3 18060.6 10448.6 Q18085.3 10411.8 18131.8 10411.8 Z" fill="#000000" fill-rule="evenodd" fill-opacity="1" /></svg>
