<?xml version="1.0" encoding="utf-8"?>
<svg xmlns="http://www.w3.org/2000/svg" xmlns:xlink="http://www.w3.org/1999/xlink" width="4800" height="3200" viewBox="0 0 19200 12800">
<defs>
  <clipPath id="clip5400">
    <rect x="0" y="0" width="19200" height="12800"/>
  </clipPath>
</defs>
<path clip-path="url(#clip5400)" d="
M0 12800 L19200 12800 L19200 0 L0 0  Z
  " fill="#ffffff" fill-rule="evenodd" fill-opacity="1"/>
<defs>
  <clipPath id="clip5401">
    <rect x="3840" y="0" width="13441" height="12800"/>
  </clipPath>
</defs>
<path clip-path="url(#clip5400)" d="
M1692.82 11385.4 L18822 11385.4 L18822 987.777 L1692.82 987.777  Z
  " fill="#ffffff" fill-rule="evenodd" fill-opacity="1"/>
<defs>
  <clipPath id="clip5402">
    <rect x="1692" y="987" width="17130" height="10399"/>
  </clipPath>
</defs>
<polyline clip-path="url(#clip5402)" style="stroke:#000000; stroke-width:16; stroke-opacity:0.1; fill:none" points="
  2177.61,11385.4 2177.61,987.777 
  "/>
<polyline clip-path="url(#clip5402)" style="stroke:#000000; stroke-width:16; stroke-opacity:0.1; fill:none" points="
  5850.26,11385.4 5850.26,987.777 
  "/>
<polyline clip-path="url(#clip5402)" style="stroke:#000000; stroke-width:16; stroke-opacity:0.1; fill:none" points="
  9522.9,11385.4 9522.9,987.777 
  "/>
<polyline clip-path="url(#clip5402)" style="stroke:#000000; stroke-width:16; stroke-opacity:0.1; fill:none" points="
  13195.6,11385.4 13195.6,987.777 
  "/>
<polyline clip-path="url(#clip5402)" style="stroke:#000000; stroke-width:16; stroke-opacity:0.1; fill:none" points="
  16868.2,11385.4 16868.2,987.777 
  "/>
<polyline clip-path="url(#clip5402)" style="stroke:#000000; stroke-width:16; stroke-opacity:0.1; fill:none" points="
  1692.82,10741.4 18822,10741.4 
  "/>
<polyline clip-path="url(#clip5402)" style="stroke:#000000; stroke-width:16; stroke-opacity:0.1; fill:none" points="
  1692.82,8160.26 18822,8160.26 
  "/>
<polyline clip-path="url(#clip5402)" style="stroke:#000000; stroke-width:16; stroke-opacity:0.1; fill:none" points="
  1692.82,5579.14 18822,5579.14 
  "/>
<polyline clip-path="url(#clip5402)" style="stroke:#000000; stroke-width:16; stroke-opacity:0.1; fill:none" points="
  1692.82,2998.01 18822,2998.01 
  "/>
<polyline clip-path="url(#clip5400)" style="stroke:#000000; stroke-width:32; stroke-opacity:1; fill:none" points="
  1692.82,11385.4 18822,11385.4 
  "/>
<polyline clip-path="url(#clip5400)" style="stroke:#000000; stroke-width:32; stroke-opacity:1; fill:none" points="
  1692.82,11385.4 1692.82,987.777 
  "/>
<polyline clip-path="url(#clip5400)" style="stroke:#000000; stroke-width:32; stroke-opacity:1; fill:none" points="
  2177.61,11385.4 2177.61,11260.7 
  "/>
<polyline clip-path="url(#clip5400)" style="stroke:#000000; stroke-width:32; stroke-opacity:1; fill:none" points="
  5850.26,11385.4 5850.26,11260.7 
  "/>
<polyline clip-path="url(#clip5400)" style="stroke:#000000; stroke-width:32; stroke-opacity:1; fill:none" points="
  9522.9,11385.4 9522.9,11260.7 
  "/>
<polyline clip-path="url(#clip5400)" style="stroke:#000000; stroke-width:32; stroke-opacity:1; fill:none" points="
  13195.6,11385.4 13195.6,11260.7 
  "/>
<polyline clip-path="url(#clip5400)" style="stroke:#000000; stroke-width:32; stroke-opacity:1; fill:none" points="
  16868.2,11385.4 16868.2,11260.7 
  "/>
<polyline clip-path="url(#clip5400)" style="stroke:#000000; stroke-width:32; stroke-opacity:1; fill:none" points="
  1692.82,10741.4 1898.37,10741.4 
  "/>
<polyline clip-path="url(#clip5400)" style="stroke:#000000; stroke-width:32; stroke-opacity:1; fill:none" points="
  1692.82,8160.26 1898.37,8160.26 
  "/>
<polyline clip-path="url(#clip5400)" style="stroke:#000000; stroke-width:32; stroke-opacity:1; fill:none" points="
  1692.82,5579.14 1898.37,5579.14 
  "/>
<polyline clip-path="url(#clip5400)" style="stroke:#000000; stroke-width:32; stroke-opacity:1; fill:none" points="
  1692.82,2998.01 1898.37,2998.01 
  "/>
<path clip-path="url(#clip5400)" d="M 0 0 M1925.02 11561.4 Q1896.13 11561.4 1881.5 11589.9 Q1867.05 11618.2 1867.05 11675.3 Q1867.05 11732.1 1881.5 11760.6 Q1896.13 11789 1925.02 11789 Q1954.09 11789 1968.54 11760.6 Q1983.17 11732.1 1983.17 11675.3 Q1983.17 11618.2 1968.54 11589.9 Q1954.09 11561.4 1925.02 11561.4 M1925.02 11531.7 Q1971.5 11531.7 1995.94 11568.6 Q2020.57 11605.3 2020.57 11675.3 Q2020.57 11745.1 1995.94 11781.9 Q1971.5 11818.6 1925.02 11818.6 Q1878.54 11818.6 1853.91 11781.9 Q1829.46 11745.1 1829.46 11675.3 Q1829.46 11605.3 1853.91 11568.6 Q1878.54 11531.7 1925.02 11531.7 Z" fill="#000000" fill-rule="evenodd" fill-opacity="1" /><path clip-path="url(#clip5400)" d="M 0 0 M2061.13 11766.2 L2100.2 11766.2 L2100.2 11813.2 L2061.13 11813.2 L2061.13 11766.2 Z" fill="#000000" fill-rule="evenodd" fill-opacity="1" /><path clip-path="url(#clip5400)" d="M 0 0 M2141.13 11536.7 L2287.98 11536.7 L2287.98 11568.2 L2175.39 11568.2 L2175.39 11636 Q2183.53 11633.2 2191.68 11631.9 Q2199.83 11630.4 2207.98 11630.4 Q2254.28 11630.4 2281.31 11655.8 Q2308.35 11681.2 2308.35 11724.5 Q2308.35 11769.1 2280.57 11794 Q2252.79 11818.6 2202.24 11818.6 Q2184.83 11818.6 2166.68 11815.6 Q2148.72 11812.7 2129.46 11806.7 L2129.46 11769.1 Q2146.13 11778.2 2163.91 11782.7 Q2181.68 11787.1 2201.5 11787.1 Q2233.53 11787.1 2252.24 11770.3 Q2270.94 11753.4 2270.94 11724.5 Q2270.94 11695.6 2252.24 11678.8 Q2233.53 11661.9 2201.5 11661.9 Q2186.5 11661.9 2171.5 11665.3 Q2156.68 11668.6 2141.13 11675.6 L2141.13 11536.7 Z" fill="#000000" fill-rule="evenodd" fill-opacity="1" /><path clip-path="url(#clip5400)" d="M 0 0 M2433.53 11660.1 Q2408.35 11660.1 2393.53 11677.3 Q2378.9 11694.5 2378.9 11724.5 Q2378.9 11754.3 2393.53 11771.7 Q2408.35 11789 2433.53 11789 Q2458.72 11789 2473.35 11771.7 Q2488.16 11754.3 2488.16 11724.5 Q2488.16 11694.5 2473.35 11677.3 Q2458.72 11660.1 2433.53 11660.1 M2507.79 11542.8 L2507.79 11576.9 Q2493.72 11570.3 2479.27 11566.7 Q2465.01 11563.2 2450.94 11563.2 Q2413.9 11563.2 2394.27 11588.2 Q2374.83 11613.2 2372.05 11663.8 Q2382.98 11647.7 2399.46 11639.1 Q2415.94 11630.4 2435.76 11630.4 Q2477.42 11630.4 2501.5 11655.8 Q2525.76 11681 2525.76 11724.5 Q2525.76 11767.1 2500.57 11792.8 Q2475.39 11818.6 2433.53 11818.6 Q2385.57 11818.6 2360.2 11781.9 Q2334.83 11745.1 2334.83 11675.3 Q2334.83 11609.7 2365.94 11570.8 Q2397.05 11531.7 2449.46 11531.7 Q2463.53 11531.7 2477.79 11534.5 Q2492.24 11537.3 2507.79 11542.8 Z" fill="#000000" fill-rule="evenodd" fill-opacity="1" /><path clip-path="url(#clip5400)" d="M 0 0 M5598.68 11561.4 Q5569.79 11561.4 5555.17 11589.9 Q5540.72 11618.2 5540.72 11675.3 Q5540.72 11732.1 5555.17 11760.6 Q5569.79 11789 5598.68 11789 Q5627.76 11789 5642.2 11760.6 Q5656.83 11732.1 5656.83 11675.3 Q5656.83 11618.2 5642.2 11589.9 Q5627.76 11561.4 5598.68 11561.4 M5598.68 11531.7 Q5645.16 11531.7 5669.61 11568.6 Q5694.24 11605.3 5694.24 11675.3 Q5694.24 11745.1 5669.61 11781.9 Q5645.16 11818.6 5598.68 11818.6 Q5552.2 11818.6 5527.57 11781.9 Q5503.13 11745.1 5503.13 11675.3 Q5503.13 11605.3 5527.57 11568.6 Q5552.2 11531.7 5598.68 11531.7 Z" fill="#000000" fill-rule="evenodd" fill-opacity="1" /><path clip-path="url(#clip5400)" d="M 0 0 M5734.79 11766.2 L5773.87 11766.2 L5773.87 11813.2 L5734.79 11813.2 L5734.79 11766.2 Z" fill="#000000" fill-rule="evenodd" fill-opacity="1" /><path clip-path="url(#clip5400)" d="M 0 0 M5814.79 11536.7 L5961.64 11536.7 L5961.64 11568.2 L5849.05 11568.2 L5849.05 11636 Q5857.2 11633.2 5865.35 11631.9 Q5873.5 11630.4 5881.65 11630.4 Q5927.94 11630.4 5954.98 11655.8 Q5982.01 11681.2 5982.01 11724.5 Q5982.01 11769.1 5954.24 11794 Q5926.46 11818.6 5875.9 11818.6 Q5858.5 11818.6 5840.35 11815.6 Q5822.39 11812.7 5803.13 11806.7 L5803.13 11769.1 Q5819.79 11778.2 5837.57 11782.7 Q5855.35 11787.1 5875.16 11787.1 Q5907.2 11787.1 5925.9 11770.3 Q5944.61 11753.4 5944.61 11724.5 Q5944.61 11695.6 5925.9 11678.8 Q5907.2 11661.9 5875.16 11661.9 Q5860.16 11661.9 5845.16 11665.3 Q5830.35 11668.6 5814.79 11675.6 L5814.79 11536.7 Z" fill="#000000" fill-rule="evenodd" fill-opacity="1" /><path clip-path="url(#clip5400)" d="M 0 0 M6102.57 11681.9 Q6075.9 11681.9 6060.53 11696.2 Q6045.35 11710.4 6045.35 11735.4 Q6045.35 11760.4 6060.53 11774.7 Q6075.9 11789 6102.57 11789 Q6129.24 11789 6144.61 11774.7 Q6159.98 11760.3 6159.98 11735.4 Q6159.98 11710.4 6144.61 11696.2 Q6129.42 11681.9 6102.57 11681.9 M6065.16 11666 Q6041.09 11660.1 6027.57 11643.6 Q6014.24 11627.1 6014.24 11603.4 Q6014.24 11570.3 6037.76 11551 Q6061.46 11531.7 6102.57 11531.7 Q6143.87 11531.7 6167.38 11551 Q6190.9 11570.3 6190.9 11603.4 Q6190.9 11627.1 6177.38 11643.6 Q6164.05 11660.1 6140.16 11666 Q6167.2 11672.3 6182.2 11690.6 Q6197.38 11709 6197.38 11735.4 Q6197.38 11775.6 6172.75 11797.1 Q6148.31 11818.6 6102.57 11818.6 Q6056.83 11818.6 6032.2 11797.1 Q6007.76 11775.6 6007.76 11735.4 Q6007.76 11709 6022.94 11690.6 Q6038.13 11672.3 6065.16 11666 M6051.46 11606.9 Q6051.46 11628.4 6064.79 11640.4 Q6078.31 11652.5 6102.57 11652.5 Q6126.64 11652.5 6140.16 11640.4 Q6153.87 11628.4 6153.87 11606.9 Q6153.87 11585.4 6140.16 11573.4 Q6126.64 11561.4 6102.57 11561.4 Q6078.31 11561.4 6064.79 11573.4 Q6051.46 11585.4 6051.46 11606.9 Z" fill="#000000" fill-rule="evenodd" fill-opacity="1" /><path clip-path="url(#clip5400)" d="M 0 0 M9266.33 11561.4 Q9237.44 11561.4 9222.81 11589.9 Q9208.37 11618.2 9208.37 11675.3 Q9208.37 11732.1 9222.81 11760.6 Q9237.44 11789 9266.33 11789 Q9295.41 11789 9309.85 11760.6 Q9324.48 11732.1 9324.48 11675.3 Q9324.48 11618.2 9309.85 11589.9 Q9295.41 11561.4 9266.33 11561.4 M9266.33 11531.7 Q9312.81 11531.7 9337.26 11568.6 Q9361.89 11605.3 9361.89 11675.3 Q9361.89 11745.1 9337.26 11781.9 Q9312.81 11818.6 9266.33 11818.6 Q9219.85 11818.6 9195.22 11781.9 Q9170.78 11745.1 9170.78 11675.3 Q9170.78 11605.3 9195.22 11568.6 Q9219.85 11531.7 9266.33 11531.7 Z" fill="#000000" fill-rule="evenodd" fill-opacity="1" /><path clip-path="url(#clip5400)" d="M 0 0 M9402.44 11766.2 L9441.52 11766.2 L9441.52 11813.2 L9402.44 11813.2 L9402.44 11766.2 Z" fill="#000000" fill-rule="evenodd" fill-opacity="1" /><path clip-path="url(#clip5400)" d="M 0 0 M9566.7 11660.1 Q9541.51 11660.1 9526.7 11677.3 Q9512.07 11694.5 9512.07 11724.5 Q9512.07 11754.3 9526.7 11771.7 Q9541.51 11789 9566.7 11789 Q9591.88 11789 9606.51 11771.7 Q9621.33 11754.3 9621.33 11724.5 Q9621.33 11694.5 9606.51 11677.3 Q9591.88 11660.1 9566.7 11660.1 M9640.96 11542.8 L9640.96 11576.9 Q9626.88 11570.3 9612.44 11566.7 Q9598.18 11563.2 9584.11 11563.2 Q9547.07 11563.2 9527.44 11588.2 Q9508 11613.2 9505.22 11663.8 Q9516.14 11647.7 9532.63 11639.1 Q9549.11 11630.4 9568.92 11630.4 Q9610.59 11630.4 9634.66 11655.8 Q9658.92 11681 9658.92 11724.5 Q9658.92 11767.1 9633.74 11792.8 Q9608.55 11818.6 9566.7 11818.6 Q9518.74 11818.6 9493.37 11781.9 Q9468 11745.1 9468 11675.3 Q9468 11609.7 9499.11 11570.8 Q9530.22 11531.7 9582.63 11531.7 Q9596.7 11531.7 9610.96 11534.5 Q9625.4 11537.3 9640.96 11542.8 Z" fill="#000000" fill-rule="evenodd" fill-opacity="1" /><path clip-path="url(#clip5400)" d="M 0 0 M9779.48 11561.4 Q9750.59 11561.4 9735.96 11589.9 Q9721.51 11618.2 9721.51 11675.3 Q9721.51 11732.1 9735.96 11760.6 Q9750.59 11789 9779.48 11789 Q9808.55 11789 9822.99 11760.6 Q9837.62 11732.1 9837.62 11675.3 Q9837.62 11618.2 9822.99 11589.9 Q9808.55 11561.4 9779.48 11561.4 M9779.48 11531.7 Q9825.96 11531.7 9850.4 11568.6 Q9875.03 11605.3 9875.03 11675.3 Q9875.03 11745.1 9850.4 11781.9 Q9825.96 11818.6 9779.48 11818.6 Q9733 11818.6 9708.37 11781.9 Q9683.92 11745.1 9683.92 11675.3 Q9683.92 11605.3 9708.37 11568.6 Q9733 11531.7 9779.48 11531.7 Z" fill="#000000" fill-rule="evenodd" fill-opacity="1" /><path clip-path="url(#clip5400)" d="M 0 0 M12945.4 11561.4 Q12916.5 11561.4 12901.8 11589.9 Q12887.4 11618.2 12887.4 11675.3 Q12887.4 11732.1 12901.8 11760.6 Q12916.5 11789 12945.4 11789 Q12974.4 11789 12988.9 11760.6 Q13003.5 11732.1 13003.5 11675.3 Q13003.5 11618.2 12988.9 11589.9 Q12974.4 11561.4 12945.4 11561.4 M12945.4 11531.7 Q12991.8 11531.7 13016.3 11568.6 Q13040.9 11605.3 13040.9 11675.3 Q13040.9 11745.1 13016.3 11781.9 Q12991.8 11818.6 12945.4 11818.6 Q12898.9 11818.6 12874.3 11781.9 Q12849.8 11745.1 12849.8 11675.3 Q12849.8 11605.3 12874.3 11568.6 Q12898.9 11531.7 12945.4 11531.7 Z" fill="#000000" fill-rule="evenodd" fill-opacity="1" /><path clip-path="url(#clip5400)" d="M 0 0 M13081.5 11766.2 L13120.6 11766.2 L13120.6 11813.2 L13081.5 11813.2 L13081.5 11766.2 Z" fill="#000000" fill-rule="evenodd" fill-opacity="1" /><path clip-path="url(#clip5400)" d="M 0 0 M13245.7 11660.1 Q13220.6 11660.1 13205.7 11677.3 Q13191.1 11694.5 13191.1 11724.5 Q13191.1 11754.3 13205.7 11771.7 Q13220.6 11789 13245.7 11789 Q13270.9 11789 13285.6 11771.7 Q13300.4 11754.3 13300.4 11724.5 Q13300.4 11694.5 13285.6 11677.3 Q13270.9 11660.1 13245.7 11660.1 M13320 11542.8 L13320 11576.9 Q13305.9 11570.3 13291.5 11566.7 Q13277.2 11563.2 13263.1 11563.2 Q13226.1 11563.2 13206.5 11588.2 Q13187 11613.2 13184.3 11663.8 Q13195.2 11647.7 13211.7 11639.1 Q13228.1 11630.4 13248 11630.4 Q13289.6 11630.4 13313.7 11655.8 Q13338 11681 13338 11724.5 Q13338 11767.1 13312.8 11792.8 Q13287.6 11818.6 13245.7 11818.6 Q13197.8 11818.6 13172.4 11781.9 Q13147 11745.1 13147 11675.3 Q13147 11609.7 13178.1 11570.8 Q13209.3 11531.7 13261.7 11531.7 Q13275.7 11531.7 13290 11534.5 Q13304.4 11537.3 13320 11542.8 Z" fill="#000000" fill-rule="evenodd" fill-opacity="1" /><path clip-path="url(#clip5400)" d="M 0 0 M13410.7 11781.7 L13541.3 11781.7 L13541.3 11813.2 L13365.7 11813.2 L13365.7 11781.7 Q13387 11759.7 13423.7 11722.7 Q13460.5 11685.4 13470 11674.7 Q13488 11654.5 13495 11640.6 Q13502.2 11626.5 13502.2 11613 Q13502.2 11591 13486.7 11577.1 Q13471.3 11563.2 13446.5 11563.2 Q13428.9 11563.2 13409.3 11569.3 Q13389.8 11575.4 13367.6 11587.8 L13367.6 11550.1 Q13390.2 11541 13409.8 11536.4 Q13429.4 11531.7 13445.7 11531.7 Q13488.7 11531.7 13514.3 11553.2 Q13539.8 11574.7 13539.8 11610.6 Q13539.8 11627.7 13533.3 11643 Q13527 11658.2 13510.2 11679 Q13505.5 11684.3 13480.7 11710.1 Q13455.9 11735.6 13410.7 11781.7 Z" fill="#000000" fill-rule="evenodd" fill-opacity="1" /><path clip-path="url(#clip5400)" d="M 0 0 M16609.7 11561.4 Q16580.8 11561.4 16566.2 11589.9 Q16551.7 11618.2 16551.7 11675.3 Q16551.7 11732.1 16566.2 11760.6 Q16580.8 11789 16609.7 11789 Q16638.8 11789 16653.2 11760.6 Q16667.8 11732.1 16667.8 11675.3 Q16667.8 11618.2 16653.2 11589.9 Q16638.8 11561.4 16609.7 11561.4 M16609.7 11531.7 Q16656.2 11531.7 16680.6 11568.6 Q16705.2 11605.3 16705.2 11675.3 Q16705.2 11745.1 16680.6 11781.9 Q16656.2 11818.6 16609.7 11818.6 Q16563.2 11818.6 16538.6 11781.9 Q16514.1 11745.1 16514.1 11675.3 Q16514.1 11605.3 16538.6 11568.6 Q16563.2 11531.7 16609.7 11531.7 Z" fill="#000000" fill-rule="evenodd" fill-opacity="1" /><path clip-path="url(#clip5400)" d="M 0 0 M16745.8 11766.2 L16784.9 11766.2 L16784.9 11813.2 L16745.8 11813.2 L16745.8 11766.2 Z" fill="#000000" fill-rule="evenodd" fill-opacity="1" /><path clip-path="url(#clip5400)" d="M 0 0 M16910.1 11660.1 Q16884.9 11660.1 16870.1 11677.3 Q16855.4 11694.5 16855.4 11724.5 Q16855.4 11754.3 16870.1 11771.7 Q16884.9 11789 16910.1 11789 Q16935.2 11789 16949.9 11771.7 Q16964.7 11754.3 16964.7 11724.5 Q16964.7 11694.5 16949.9 11677.3 Q16935.2 11660.1 16910.1 11660.1 M16984.3 11542.8 L16984.3 11576.9 Q16970.2 11570.3 16955.8 11566.7 Q16941.5 11563.2 16927.5 11563.2 Q16890.4 11563.2 16870.8 11588.2 Q16851.3 11613.2 16848.6 11663.8 Q16859.5 11647.7 16876 11639.1 Q16892.5 11630.4 16912.3 11630.4 Q16953.9 11630.4 16978 11655.8 Q17002.3 11681 17002.3 11724.5 Q17002.3 11767.1 16977.1 11792.8 Q16951.9 11818.6 16910.1 11818.6 Q16862.1 11818.6 16836.7 11781.9 Q16811.3 11745.1 16811.3 11675.3 Q16811.3 11609.7 16842.5 11570.8 Q16873.6 11531.7 16926 11531.7 Q16940.1 11531.7 16954.3 11534.5 Q16968.8 11537.3 16984.3 11542.8 Z" fill="#000000" fill-rule="evenodd" fill-opacity="1" /><path clip-path="url(#clip5400)" d="M 0 0 M17145.6 11569.3 L17051.2 11716.9 L17145.6 11716.9 L17145.6 11569.3 M17135.8 11536.7 L17182.8 11536.7 L17182.8 11716.9 L17222.3 11716.9 L17222.3 11748 L17182.8 11748 L17182.8 11813.2 L17145.6 11813.2 L17145.6 11748 L17020.8 11748 L17020.8 11711.9 L17135.8 11536.7 Z" fill="#000000" fill-rule="evenodd" fill-opacity="1" /><path clip-path="url(#clip5400)" d="M 0 0 M1114.71 10627.8 Q1085.82 10627.8 1071.19 10656.3 Q1056.75 10684.6 1056.75 10741.7 Q1056.75 10798.5 1071.19 10827 Q1085.82 10855.4 1114.71 10855.4 Q1143.78 10855.4 1158.23 10827 Q1172.86 10798.5 1172.86 10741.7 Q1172.86 10684.6 1158.23 10656.3 Q1143.78 10627.8 1114.71 10627.8 M1114.71 10598.2 Q1161.19 10598.2 1185.64 10635 Q1210.27 10671.7 1210.27 10741.7 Q1210.27 10811.5 1185.64 10848.3 Q1161.19 10885 1114.71 10885 Q1068.23 10885 1043.6 10848.3 Q1019.16 10811.5 1019.16 10741.7 Q1019.16 10671.7 1043.6 10635 Q1068.23 10598.2 1114.71 10598.2 Z" fill="#000000" fill-rule="evenodd" fill-opacity="1" /><path clip-path="url(#clip5400)" d="M 0 0 M1250.82 10832.6 L1289.89 10832.6 L1289.89 10879.6 L1250.82 10879.6 L1250.82 10832.6 Z" fill="#000000" fill-rule="evenodd" fill-opacity="1" /><path clip-path="url(#clip5400)" d="M 0 0 M1443.78 10730.6 Q1470.63 10736.3 1485.63 10754.4 Q1500.82 10772.6 1500.82 10799.3 Q1500.82 10840.2 1472.67 10862.6 Q1444.52 10885 1392.67 10885 Q1375.26 10885 1356.75 10881.5 Q1338.41 10878.1 1318.78 10871.3 L1318.78 10835.2 Q1334.34 10844.3 1352.86 10848.9 Q1371.38 10853.5 1391.56 10853.5 Q1426.75 10853.5 1445.08 10839.6 Q1463.6 10825.7 1463.6 10799.3 Q1463.6 10774.8 1446.38 10761.1 Q1429.34 10747.2 1398.78 10747.2 L1366.56 10747.2 L1366.56 10716.5 L1400.26 10716.5 Q1427.86 10716.5 1442.49 10705.6 Q1457.12 10694.4 1457.12 10673.7 Q1457.12 10652.4 1441.93 10641.1 Q1426.93 10629.6 1398.78 10629.6 Q1383.41 10629.6 1365.82 10633 Q1348.23 10636.3 1327.12 10643.3 L1327.12 10610 Q1348.41 10604.1 1366.93 10601.1 Q1385.63 10598.2 1402.12 10598.2 Q1444.71 10598.2 1469.52 10617.6 Q1494.34 10636.9 1494.34 10669.8 Q1494.34 10692.8 1481.19 10708.7 Q1468.04 10724.4 1443.78 10730.6 Z" fill="#000000" fill-rule="evenodd" fill-opacity="1" /><path clip-path="url(#clip5400)" d="M 0 0 M1105.64 8046.65 Q1076.75 8046.65 1062.12 8075.17 Q1047.67 8103.5 1047.67 8160.54 Q1047.67 8217.39 1062.12 8245.91 Q1076.75 8274.24 1105.64 8274.24 Q1134.71 8274.24 1149.15 8245.91 Q1163.78 8217.39 1163.78 8160.54 Q1163.78 8103.5 1149.15 8075.17 Q1134.71 8046.65 1105.64 8046.65 M1105.64 8017.02 Q1152.12 8017.02 1176.56 8053.88 Q1201.19 8090.54 1201.19 8160.54 Q1201.19 8230.36 1176.56 8267.21 Q1152.12 8303.87 1105.64 8303.87 Q1059.16 8303.87 1034.53 8267.21 Q1010.08 8230.36 1010.08 8160.54 Q1010.08 8090.54 1034.53 8053.88 Q1059.16 8017.02 1105.64 8017.02 Z" fill="#000000" fill-rule="evenodd" fill-opacity="1" /><path clip-path="url(#clip5400)" d="M 0 0 M1241.75 8251.47 L1280.82 8251.47 L1280.82 8298.5 L1241.75 8298.5 L1241.75 8251.47 Z" fill="#000000" fill-rule="evenodd" fill-opacity="1" /><path clip-path="url(#clip5400)" d="M 0 0 M1424.15 8054.62 L1329.71 8202.21 L1424.15 8202.21 L1424.15 8054.62 M1414.34 8022.02 L1461.38 8022.02 L1461.38 8202.21 L1500.82 8202.21 L1500.82 8233.32 L1461.38 8233.32 L1461.38 8298.5 L1424.15 8298.5 L1424.15 8233.32 L1299.34 8233.32 L1299.34 8197.21 L1414.34 8022.02 Z" fill="#000000" fill-rule="evenodd" fill-opacity="1" /><path clip-path="url(#clip5400)" d="M 0 0 M1117.49 5465.53 Q1088.6 5465.53 1073.97 5494.04 Q1059.53 5522.38 1059.53 5579.41 Q1059.53 5636.27 1073.97 5664.78 Q1088.6 5693.12 1117.49 5693.12 Q1146.56 5693.12 1161.01 5664.78 Q1175.64 5636.27 1175.64 5579.41 Q1175.64 5522.38 1161.01 5494.04 Q1146.56 5465.53 1117.49 5465.53 M1117.49 5435.9 Q1163.97 5435.9 1188.41 5472.75 Q1213.04 5509.41 1213.04 5579.41 Q1213.04 5649.23 1188.41 5686.08 Q1163.97 5722.75 1117.49 5722.75 Q1071.01 5722.75 1046.38 5686.08 Q1021.93 5649.23 1021.93 5579.41 Q1021.93 5509.41 1046.38 5472.75 Q1071.01 5435.9 1117.49 5435.9 Z" fill="#000000" fill-rule="evenodd" fill-opacity="1" /><path clip-path="url(#clip5400)" d="M 0 0 M1253.6 5670.34 L1292.67 5670.34 L1292.67 5717.38 L1253.6 5717.38 L1253.6 5670.34 Z" fill="#000000" fill-rule="evenodd" fill-opacity="1" /><path clip-path="url(#clip5400)" d="M 0 0 M1333.6 5440.9 L1480.45 5440.9 L1480.45 5472.38 L1367.86 5472.38 L1367.86 5540.16 Q1376.01 5537.38 1384.15 5536.08 Q1392.3 5534.6 1400.45 5534.6 Q1446.75 5534.6 1473.78 5559.97 Q1500.82 5585.34 1500.82 5628.67 Q1500.82 5673.3 1473.04 5698.12 Q1445.26 5722.75 1394.71 5722.75 Q1377.3 5722.75 1359.15 5719.78 Q1341.19 5716.82 1321.93 5710.9 L1321.93 5673.3 Q1338.6 5682.38 1356.38 5686.82 Q1374.15 5691.27 1393.97 5691.27 Q1426 5691.27 1444.71 5674.41 Q1463.41 5657.56 1463.41 5628.67 Q1463.41 5599.78 1444.71 5582.93 Q1426 5566.08 1393.97 5566.08 Q1378.97 5566.08 1363.97 5569.41 Q1349.15 5572.75 1333.6 5579.78 L1333.6 5440.9 Z" fill="#000000" fill-rule="evenodd" fill-opacity="1" /><path clip-path="url(#clip5400)" d="M 0 0 M1108.23 2884.4 Q1079.34 2884.4 1064.71 2912.92 Q1050.27 2941.25 1050.27 2998.29 Q1050.27 3055.14 1064.71 3083.66 Q1079.34 3111.99 1108.23 3111.99 Q1137.3 3111.99 1151.75 3083.66 Q1166.38 3055.14 1166.38 2998.29 Q1166.38 2941.25 1151.75 2912.92 Q1137.3 2884.4 1108.23 2884.4 M1108.23 2854.77 Q1154.71 2854.77 1179.15 2891.62 Q1203.78 2928.29 1203.78 2998.29 Q1203.78 3068.1 1179.15 3104.95 Q1154.71 3141.62 1108.23 3141.62 Q1061.75 3141.62 1037.12 3104.95 Q1012.67 3068.1 1012.67 2998.29 Q1012.67 2928.29 1037.12 2891.62 Q1061.75 2854.77 1108.23 2854.77 Z" fill="#000000" fill-rule="evenodd" fill-opacity="1" /><path clip-path="url(#clip5400)" d="M 0 0 M1244.34 3089.21 L1283.41 3089.21 L1283.41 3136.25 L1244.34 3136.25 L1244.34 3089.21 Z" fill="#000000" fill-rule="evenodd" fill-opacity="1" /><path clip-path="url(#clip5400)" d="M 0 0 M1408.6 2983.1 Q1383.41 2983.1 1368.6 3000.32 Q1353.97 3017.55 1353.97 3047.55 Q1353.97 3077.36 1368.6 3094.77 Q1383.41 3111.99 1408.6 3111.99 Q1433.78 3111.99 1448.41 3094.77 Q1463.23 3077.36 1463.23 3047.55 Q1463.23 3017.55 1448.41 3000.32 Q1433.78 2983.1 1408.6 2983.1 M1482.86 2865.88 L1482.86 2899.95 Q1468.78 2893.29 1454.34 2889.77 Q1440.08 2886.25 1426 2886.25 Q1388.97 2886.25 1369.34 2911.25 Q1349.89 2936.25 1347.12 2986.81 Q1358.04 2970.69 1374.52 2962.18 Q1391.01 2953.47 1410.82 2953.47 Q1452.49 2953.47 1476.56 2978.84 Q1500.82 3004.03 1500.82 3047.55 Q1500.82 3090.14 1475.63 3115.88 Q1450.45 3141.62 1408.6 3141.62 Q1360.63 3141.62 1335.26 3104.95 Q1309.89 3068.1 1309.89 2998.29 Q1309.89 2932.73 1341.01 2893.84 Q1372.12 2854.77 1424.52 2854.77 Q1438.6 2854.77 1452.86 2857.55 Q1467.3 2860.32 1482.86 2865.88 Z" fill="#000000" fill-rule="evenodd" fill-opacity="1" /><path clip-path="url(#clip5400)" d="M 0 0 M6382.34 349.544 L6382.34 526.812 L6487.34 526.812 Q6540.16 526.812 6565.44 505.099 Q6591.04 483.062 6591.04 438.016 Q6591.04 392.646 6565.44 371.257 Q6540.16 349.544 6487.34 349.544 L6382.34 349.544 M6382.34 150.564 L6382.34 296.397 L6479.24 296.397 Q6527.2 296.397 6550.53 278.573 Q6574.19 260.425 6574.19 223.48 Q6574.19 186.86 6550.53 168.712 Q6527.2 150.564 6479.24 150.564 L6382.34 150.564 M6316.88 96.768 L6484.1 96.768 Q6558.96 96.768 6599.47 127.879 Q6639.98 158.99 6639.98 216.351 Q6639.98 260.749 6619.24 286.998 Q6598.49 313.248 6558.31 319.73 Q6606.6 330.1 6633.17 363.155 Q6660.07 395.887 6660.07 445.146 Q6660.07 509.96 6615.99 545.284 Q6571.92 580.608 6490.58 580.608 L6316.88 580.608 L6316.88 96.768 Z" fill="#000000" fill-rule="evenodd" fill-opacity="1" /><path clip-path="url(#clip5400)" d="M 0 0 M6948.82 498.294 L7017.2 498.294 L7017.2 580.608 L6948.82 580.608 L6948.82 498.294 M6948.82 237.415 L7017.2 237.415 L7017.2 319.73 L6948.82 319.73 L6948.82 237.415 Z" fill="#000000" fill-rule="evenodd" fill-opacity="1" /><path clip-path="url(#clip5400)" d="M 0 0 M7439.14 350.841 Q7392.47 350.841 7365.57 375.794 Q7339 400.748 7339 444.498 Q7339 488.247 7365.57 513.201 Q7392.47 538.155 7439.14 538.155 Q7485.8 538.155 7512.7 513.201 Q7539.6 487.923 7539.6 444.498 Q7539.6 400.748 7512.7 375.794 Q7486.13 350.841 7439.14 350.841 M7373.68 322.97 Q7331.55 312.6 7307.89 283.758 Q7284.56 254.915 7284.56 213.434 Q7284.56 155.425 7325.71 121.722 Q7367.19 88.018 7439.14 88.018 Q7511.41 88.018 7552.56 121.722 Q7593.72 155.425 7593.72 213.434 Q7593.72 254.915 7570.06 283.758 Q7546.73 312.6 7504.92 322.97 Q7552.24 333.989 7578.49 366.072 Q7605.06 398.155 7605.06 444.498 Q7605.06 514.821 7561.96 552.414 Q7519.18 590.006 7439.14 590.006 Q7359.09 590.006 7315.99 552.414 Q7273.21 514.821 7273.21 444.498 Q7273.21 398.155 7299.79 366.072 Q7326.36 333.989 7373.68 322.97 M7349.69 219.591 Q7349.69 257.184 7373.03 278.249 Q7396.68 299.313 7439.14 299.313 Q7481.27 299.313 7504.92 278.249 Q7528.91 257.184 7528.91 219.591 Q7528.91 181.999 7504.92 160.934 Q7481.27 139.87 7439.14 139.87 Q7396.68 139.87 7373.03 160.934 Q7349.69 181.999 7349.69 219.591 Z" fill="#000000" fill-rule="evenodd" fill-opacity="1" /><path clip-path="url(#clip5400)" d="M 0 0 M8128.12 176.49 L8011.77 239.36 L8128.12 302.554 L8109.32 334.313 L8000.43 268.526 L8000.43 390.702 L7963.49 390.702 L7963.49 268.526 L7854.6 334.313 L7835.8 302.554 L7952.14 239.36 L7835.8 176.49 L7854.6 144.407 L7963.49 210.193 L7963.49 88.018 L8000.43 88.018 L8000.43 210.193 L8109.32 144.407 L8128.12 176.49 Z" fill="#000000" fill-rule="evenodd" fill-opacity="1" /><path clip-path="url(#clip5400)" d="M 0 0 M8550.06 350.841 Q8503.39 350.841 8476.49 375.794 Q8449.92 400.748 8449.92 444.498 Q8449.92 488.247 8476.49 513.201 Q8503.39 538.155 8550.06 538.155 Q8596.72 538.155 8623.62 513.201 Q8650.52 487.923 8650.52 444.498 Q8650.52 400.748 8623.62 375.794 Q8597.05 350.841 8550.06 350.841 M8484.6 322.97 Q8442.47 312.6 8418.81 283.758 Q8395.48 254.915 8395.48 213.434 Q8395.48 155.425 8436.63 121.722 Q8478.11 88.018 8550.06 88.018 Q8622.33 88.018 8663.48 121.722 Q8704.64 155.425 8704.64 213.434 Q8704.64 254.915 8680.98 283.758 Q8657.65 312.6 8615.84 322.97 Q8663.16 333.989 8689.41 366.072 Q8715.98 398.155 8715.98 444.498 Q8715.98 514.821 8672.88 552.414 Q8630.1 590.006 8550.06 590.006 Q8470.01 590.006 8426.91 552.414 Q8384.13 514.821 8384.13 444.498 Q8384.13 398.155 8410.71 366.072 Q8437.28 333.989 8484.6 322.97 M8460.61 219.591 Q8460.61 257.184 8483.95 278.249 Q8507.6 299.313 8550.06 299.313 Q8592.19 299.313 8615.84 278.249 Q8639.83 257.184 8639.83 219.591 Q8639.83 181.999 8615.84 160.934 Q8592.19 139.87 8550.06 139.87 Q8507.6 139.87 8483.95 160.934 Q8460.61 181.999 8460.61 219.591 Z" fill="#000000" fill-rule="evenodd" fill-opacity="1" /><path clip-path="url(#clip5400)" d="M 0 0 M8793.76 498.294 L8862.14 498.294 L8862.14 554.034 L8808.99 657.737 L8767.19 657.737 L8793.76 554.034 L8793.76 498.294 Z" fill="#000000" fill-rule="evenodd" fill-opacity="1" /><path clip-path="url(#clip5400)" d="M 0 0 M9334.64 141.166 Q9263.34 141.166 9221.21 194.314 Q9179.41 247.462 9179.41 339.174 Q9179.41 430.563 9221.21 483.71 Q9263.34 536.858 9334.64 536.858 Q9405.93 536.858 9447.41 483.71 Q9489.22 430.563 9489.22 339.174 Q9489.22 247.462 9447.41 194.314 Q9405.93 141.166 9334.64 141.166 M9426.35 571.858 L9512.55 666.163 L9433.48 666.163 L9361.86 588.71 Q9351.17 589.358 9345.33 589.682 Q9339.82 590.006 9334.64 590.006 Q9232.55 590.006 9171.3 521.951 Q9110.38 453.572 9110.38 339.174 Q9110.38 224.453 9171.3 156.397 Q9232.55 88.018 9334.64 88.018 Q9436.4 88.018 9497.32 156.397 Q9558.25 224.453 9558.25 339.174 Q9558.25 423.433 9524.22 483.386 Q9490.52 543.34 9426.35 571.858 Z" fill="#000000" fill-rule="evenodd" fill-opacity="1" /><path clip-path="url(#clip5400)" d="M 0 0 M9839.54 279.221 L10255 279.221 L10255 333.665 L9839.54 333.665 L9839.54 279.221 M9839.54 411.442 L10255 411.442 L10255 466.535 L9839.54 466.535 L9839.54 411.442 Z" fill="#000000" fill-rule="evenodd" fill-opacity="1" /><path clip-path="url(#clip5400)" d="M 0 0 M10548.3 525.516 L10655.2 525.516 L10655.2 156.397 L10538.9 179.731 L10538.9 120.101 L10654.6 96.768 L10720 96.768 L10720 525.516 L10827 525.516 L10827 580.608 L10548.3 580.608 L10548.3 525.516 Z" fill="#000000" fill-rule="evenodd" fill-opacity="1" /><path clip-path="url(#clip5400)" d="M 0 0 M11046.1 312.6 Q11002 312.6 10976.1 342.739 Q10950.5 372.878 10950.5 425.377 Q10950.5 477.553 10976.1 508.016 Q11002 538.155 11046.1 538.155 Q11090.1 538.155 11115.7 508.016 Q11141.7 477.553 11141.7 425.377 Q11141.7 372.878 11115.7 342.739 Q11090.1 312.6 11046.1 312.6 M11176 107.462 L11176 167.092 Q11151.4 155.425 11126.1 149.268 Q11101.2 143.11 11076.5 143.11 Q11011.7 143.11 10977.4 186.86 Q10943.3 230.61 10938.5 319.082 Q10957.6 290.887 10986.4 275.98 Q11015.3 260.749 11050 260.749 Q11122.9 260.749 11165 305.147 Q11207.5 349.22 11207.5 425.377 Q11207.5 499.914 11163.4 544.96 Q11119.3 590.006 11046.1 590.006 Q10962.1 590.006 10917.7 525.84 Q10873.3 461.349 10873.3 339.174 Q10873.3 224.453 10927.8 156.397 Q10982.2 88.018 11073.9 88.018 Q11098.6 88.018 11123.5 92.8791 Q11148.8 97.7402 11176 107.462 Z" fill="#000000" fill-rule="evenodd" fill-opacity="1" /><path clip-path="url(#clip5400)" d="M 0 0 M11285.2 498.294 L11353.6 498.294 L11353.6 554.034 L11300.5 657.737 L11258.7 657.737 L11285.2 554.034 L11285.2 498.294 Z" fill="#000000" fill-rule="evenodd" fill-opacity="1" /><path clip-path="url(#clip5400)" d="M 0 0 M11629.7 96.768 L11695.2 96.768 L11695.2 546.904 Q11695.2 634.404 11661.8 673.941 Q11628.7 713.478 11555.2 713.478 L11530.2 713.478 L11530.2 658.385 L11550.6 658.385 Q11594.1 658.385 11611.9 634.08 Q11629.7 609.775 11629.7 546.904 L11629.7 96.768 Z" fill="#000000" fill-rule="evenodd" fill-opacity="1" /><path clip-path="url(#clip5400)" d="M 0 0 M12033.5 690.793 L12033.5 737.135 L11688.7 737.135 L11688.7 690.793 L12033.5 690.793 Z" fill="#000000" fill-rule="evenodd" fill-opacity="1" /><path clip-path="url(#clip5400)" d="M 0 0 M12244.5 139.87 Q12193.9 139.87 12168.3 189.777 Q12143 239.36 12143 339.174 Q12143 438.664 12168.3 488.571 Q12193.9 538.155 12244.5 538.155 Q12295.4 538.155 12320.6 488.571 Q12346.2 438.664 12346.2 339.174 Q12346.2 239.36 12320.6 189.777 Q12295.4 139.87 12244.5 139.87 M12244.5 88.018 Q12325.8 88.018 12368.6 152.508 Q12411.7 216.675 12411.7 339.174 Q12411.7 461.349 12368.6 525.84 Q12325.8 590.006 12244.5 590.006 Q12163.1 590.006 12120 525.84 Q12077.3 461.349 12077.3 339.174 Q12077.3 216.675 12120 152.508 Q12163.1 88.018 12244.5 88.018 Z" fill="#000000" fill-rule="evenodd" fill-opacity="1" /><path clip-path="url(#clip5400)" d="M 0 0 M12693 279.221 L13108.5 279.221 L13108.5 333.665 L12693 333.665 L12693 279.221 M12693 411.442 L13108.5 411.442 L13108.5 466.535 L12693 466.535 L12693 411.442 Z" fill="#000000" fill-rule="evenodd" fill-opacity="1" /><path clip-path="url(#clip5400)" d="M 0 0 M13401.7 525.516 L13508.7 525.516 L13508.7 156.397 L13392.3 179.731 L13392.3 120.101 L13508 96.768 L13573.5 96.768 L13573.5 525.516 L13680.4 525.516 L13680.4 580.608 L13401.7 580.608 L13401.7 525.516 Z" fill="#000000" fill-rule="evenodd" fill-opacity="1" /><path clip-path="url(#clip5400)" d="M 0 0 M13751.4 498.294 L13819.8 498.294 L13819.8 580.608 L13751.4 580.608 L13751.4 498.294 Z" fill="#000000" fill-rule="evenodd" fill-opacity="1" /><path clip-path="url(#clip5400)" d="M 0 0 M14030.8 139.87 Q13980.2 139.87 13954.6 189.777 Q13929.3 239.36 13929.3 339.174 Q13929.3 438.664 13954.6 488.571 Q13980.2 538.155 14030.8 538.155 Q14081.6 538.155 14106.9 488.571 Q14132.5 438.664 14132.5 339.174 Q14132.5 239.36 14106.9 189.777 Q14081.6 139.87 14030.8 139.87 M14030.8 88.018 Q14112.1 88.018 14154.9 152.508 Q14198 216.675 14198 339.174 Q14198 461.349 14154.9 525.84 Q14112.1 590.006 14030.8 590.006 Q13949.4 590.006 13906.3 525.84 Q13863.5 461.349 13863.5 339.174 Q13863.5 216.675 13906.3 152.508 Q13949.4 88.018 14030.8 88.018 Z" fill="#000000" fill-rule="evenodd" fill-opacity="1" /><path clip-path="url(#clip5400)" d="M 0 0 M10096.6 12068.2 L10418.2 12068.2 L10418.2 12111.5 L10283.3 12111.5 L10283.3 12448.4 L10231.6 12448.4 L10231.6 12111.5 L10096.6 12111.5 L10096.6 12068.2 Z" fill="#000000" fill-rule="evenodd" fill-opacity="1" /><path clip-path="url(#clip5400)" d="M 0 0 M522.483 6270 L661.765 6270 L661.765 6187.5 Q661.765 6145.99 644.705 6126.13 Q627.39 6106.02 591.997 6106.02 Q556.349 6106.02 539.543 6126.13 Q522.483 6145.99 522.483 6187.5 L522.483 6270 M366.142 6270 L480.724 6270 L480.724 6193.86 Q480.724 6156.18 466.72 6137.85 Q452.461 6119.26 423.433 6119.26 Q394.66 6119.26 380.401 6137.85 Q366.142 6156.18 366.142 6193.86 L366.142 6270 M323.873 6321.43 L323.873 6190.05 Q323.873 6131.23 348.318 6099.4 Q372.762 6067.57 417.831 6067.57 Q452.715 6067.57 473.34 6083.87 Q493.965 6100.16 499.058 6131.74 Q507.206 6093.8 533.178 6072.92 Q558.895 6051.78 597.599 6051.78 Q648.524 6051.78 676.279 6086.41 Q704.033 6121.04 704.033 6184.95 L704.033 6321.43 L323.873 6321.43 Z" fill="#000000" fill-rule="evenodd" fill-opacity="1" /><polyline clip-path="url(#clip5402)" style="stroke:#009af9; stroke-width:32; stroke-opacity:1; fill:none" points="
  2177.61,1288.27 2507.4,1290.11 2837.19,1290.27 3166.98,1293.83 3496.76,1292.66 3826.55,1294.58 4156.34,1298.03 4486.13,1296.04 4815.92,1294.45 5145.71,1300.4 
  5475.5,1302.58 5805.29,1305.1 6135.07,1311.19 6464.86,1315.42 6794.65,1308.3 7124.44,1314.28 7454.23,1322.66 7784.02,1321.23 8113.81,1335.04 8443.6,1326 
  8773.38,1362.5 9103.17,1350.75 9432.96,1363.76 9762.75,1393.34 10092.5,1348.66 10422.3,1396.05 10752.1,1422.91 11081.9,1457.01 11411.7,1477.27 11741.5,1560.03 
  12071.3,1577.37 12401.1,1702.16 12730.8,1640.33 13060.6,1779.45 13390.4,1781.25 13720.2,1948.52 14050,1963.03 14379.8,2259.01 14709.6,2208.35 15039.4,2643.91 
  15369.2,2738.12 15698.9,2858.94 16028.7,3219.57 16358.5,4155.68 16688.3,3969.35 17018.1,4331.31 17347.9,4693.92 17677.7,5029.82 18007.5,5890.46 18337.3,7122.1 
  
  "/>
<polyline clip-path="url(#clip5402)" style="stroke:#e26f46; stroke-width:32; stroke-opacity:1; fill:none" points="
  2177.61,1296.7 2507.4,1304.25 2837.19,1301.37 3166.98,1309.41 3496.76,1320.26 3826.55,1316.54 4156.34,1322.66 4486.13,1333.8 4815.92,1346.4 5145.71,1334.65 
  5475.5,1351.05 5805.29,1358.1 6135.07,1353.82 6464.86,1389.62 6794.65,1421.87 7124.44,1446.05 7454.23,1465.23 7784.02,1465.5 8113.81,1553.49 8443.6,1655.1 
  8773.38,1596.93 9103.17,1773.47 9432.96,1767.18 9762.75,1880.77 10092.5,2073.83 10422.3,2024.36 10752.1,2105.89 11081.9,2318.73 11411.7,2473.84 11741.5,2781.08 
  12071.3,3068.56 12401.1,3432.23 12730.8,3532.19 13060.6,4125.74 13390.4,4466.05 13720.2,4613.63 14050,5305.63 14379.8,5850.66 14709.6,6462.2 15039.4,6458.62 
  15369.2,7311.79 15698.9,7583.51 16028.7,7930.5 16358.5,9402.63 16688.3,9546.28 17018.1,9843.8 17347.9,10493.7 17677.7,10905.1 18007.5,11088.1 18337.3,11091.2 
  
  "/>
<polyline clip-path="url(#clip5402)" style="stroke:#3da44d; stroke-width:32; stroke-opacity:1; fill:none" points="
  2177.61,1377.49 2507.4,1390.82 2837.19,1399.5 3166.98,1407.14 3496.76,1424.48 3826.55,1427.49 4156.34,1465.06 4486.13,1522.63 4815.92,1521.03 5145.71,1551.16 
  5475.5,1548.83 5805.29,1636.33 6135.07,1715.01 6464.86,1675.22 6794.65,1756.31 7124.44,1768.8 7454.23,1777.75 7784.02,1931.86 8113.81,1983.43 8443.6,2045.7 
  8773.38,2060.05 9103.17,2151.87 9432.96,2248.62 9762.75,2321.06 10092.5,2508.51 10422.3,2507.53 10752.1,2725.52 11081.9,2692.64 11411.7,2954.36 11741.5,2994.76 
  12071.3,3199.8 12401.1,3261.31 12730.8,3396.89 13060.6,3552.99 13390.4,3726.96 13720.2,3830.52 14050,3979.29 14379.8,4113.81 14709.6,4175.72 15039.4,4468.87 
  15369.2,4468.32 15698.9,4626.18 16028.7,4618.72 16358.5,4867.44 16688.3,4767.69 17018.1,4936.38 17347.9,4943 17677.7,5091.91 18007.5,5078.54 18337.3,5178.53 
  
  "/>
<polyline clip-path="url(#clip5402)" style="stroke:#c271d2; stroke-width:32; stroke-opacity:1; fill:none" points="
  2177.61,1299.69 2507.4,1303.53 2837.19,1303.29 3166.98,1305.21 3496.76,1305.81 3826.55,1304.93 4156.34,1310.8 4486.13,1317.3 4815.92,1313.07 5145.71,1321.23 
  5475.5,1320.78 5805.29,1329.23 6135.07,1327.79 6464.86,1331.41 6794.65,1339.23 7124.44,1335.96 7454.23,1358.63 7784.02,1346.35 8113.81,1357.38 8443.6,1366.14 
  8773.38,1357.01 9103.17,1372.23 9432.96,1385.08 9762.75,1384.63 10092.5,1400.9 10422.3,1404.33 10752.1,1399.54 11081.9,1432.22 11411.7,1446.87 11741.5,1463.17 
  12071.3,1455.48 12401.1,1472.48 12730.8,1501.62 13060.6,1503.27 13390.4,1543.06 13720.2,1544.95 14050,1542.05 14379.8,1595.94 14709.6,1603.17 15039.4,1624.39 
  15369.2,1656.41 15698.9,1673.39 16028.7,1683.15 16358.5,1735.99 16688.3,1739.33 17018.1,1794.6 17347.9,1787.5 17677.7,1836.07 18007.5,1875.41 18337.3,1906.03 
  
  "/>
<polyline clip-path="url(#clip5402)" style="stroke:#ac8d18; stroke-width:32; stroke-opacity:1; fill:none" points="
  2177.61,1282.05 2507.4,1282.52 2837.19,1282.23 3166.98,1282.32 3496.76,1282.35 3826.55,1282.98 4156.34,1282.75 4486.13,1283.36 4815.92,1283.01 5145.71,1283.31 
  5475.5,1283.83 5805.29,1284.24 6135.07,1283.98 6464.86,1284.46 6794.65,1284.96 7124.44,1285.01 7454.23,1285.87 7784.02,1285.7 8113.81,1286.31 8443.6,1286.1 
  8773.38,1288.47 9103.17,1288.59 9432.96,1287.74 9762.75,1287.85 10092.5,1289.91 10422.3,1289.76 10752.1,1290.74 11081.9,1290.63 11411.7,1290.81 11741.5,1290.93 
  12071.3,1293.38 12401.1,1291.79 12730.8,1296.44 13060.6,1294.93 13390.4,1297.49 13720.2,1295.36 14050,1297.37 14379.8,1299.17 14709.6,1302.93 15039.4,1301.91 
  15369.2,1303.49 15698.9,1302.86 16028.7,1305.07 16358.5,1305.34 16688.3,1306.59 17018.1,1310.26 17347.9,1312.44 17677.7,1313.38 18007.5,1316.33 18337.3,1320.49 
  
  "/>
<polyline clip-path="url(#clip5402)" style="stroke:#00a9ad; stroke-width:32; stroke-opacity:1; fill:none" points="
  2177.61,1335.69 2507.4,1355.62 2837.19,1365.58 3166.98,1373.44 3496.76,1374.78 3826.55,1402.85 4156.34,1424.37 4486.13,1449.78 4815.92,1456.87 5145.71,1485.51 
  5475.5,1526.42 5805.29,1573.33 6135.07,1592.79 6464.86,1704.01 6794.65,1708.07 7124.44,1721.54 7454.23,1810.67 7784.02,2078.76 8113.81,2025.32 8443.6,2194.01 
  8773.38,2325.31 9103.17,2329.63 9432.96,2585.17 9762.75,2758.91 10092.5,2762.7 10422.3,3103.17 10752.1,3256.33 11081.9,3412.89 11411.7,3635.19 11741.5,3915.5 
  12071.3,4088.73 12401.1,4239.73 12730.8,4631.71 13060.6,4729.95 13390.4,5238.99 13720.2,5313.98 14050,5590.16 14379.8,5846.79 14709.6,6253.89 15039.4,6241.1 
  15369.2,6420.8 15698.9,6565.93 16028.7,6703.51 16358.5,6900.7 16688.3,6805.92 17018.1,6892.77 17347.9,6979.91 17677.7,7060.66 18007.5,7019.83 18337.3,6807.84 
  
  "/>
<polyline clip-path="url(#clip5402)" style="stroke:#ed5d92; stroke-width:32; stroke-opacity:1; fill:none" points="
  2177.61,1354.08 2507.4,1372.02 2837.19,1389.97 3166.98,1402.05 3496.76,1394.07 3826.55,1434.53 4156.34,1462.22 4486.13,1491.86 4815.92,1537.74 5145.71,1560.08 
  5475.5,1562.12 5805.29,1640.21 6135.07,1659.99 6464.86,1700.6 6794.65,1793.51 7124.44,1839.17 7454.23,1893.76 7784.02,2095.28 8113.81,2070.38 8443.6,2155.3 
  8773.38,2230.78 9103.17,2432.22 9432.96,2490.89 9762.75,2569.11 10092.5,2659.08 10422.3,2857.49 10752.1,3117.7 11081.9,3207.39 11411.7,3401.48 11741.5,3505.7 
  12071.3,3871.62 12401.1,3986.45 12730.8,4178.86 13060.6,4249.73 13390.4,4473.37 13720.2,4564.58 14050,4770.5 14379.8,5071.33 14709.6,5131.01 15039.4,5234.63 
  15369.2,5524.19 15698.9,5591.25 16028.7,5555.99 16358.5,5681.14 16688.3,5750.97 17018.1,5821.78 17347.9,5837.53 17677.7,5867.51 18007.5,6070.02 18337.3,6089.19 
  
  "/>
<path clip-path="url(#clip5400)" d="
M14782.9 10233.4 L18246 10233.4 L18246 6362.72 L14782.9 6362.72  Z
  " fill="#ffffff" fill-rule="evenodd" fill-opacity="1"/>
<polyline clip-path="url(#clip5400)" style="stroke:#000000; stroke-width:32; stroke-opacity:1; fill:none" points="
  14782.9,10233.4 18246,10233.4 18246,6362.72 14782.9,6362.72 14782.9,10233.4 
  "/>
<polyline clip-path="url(#clip5400)" style="stroke:#009af9; stroke-width:32; stroke-opacity:1; fill:none" points="
  14974.9,6846.56 16126.9,6846.56 
  "/>
<path clip-path="url(#clip5400)" d="M 0 0 M16375.8 6708.32 L16413.2 6708.32 L16413.2 6965.54 Q16413.2 7015.54 16394.1 7038.13 Q16375.2 7060.72 16333.2 7060.72 L16318.9 7060.72 L16318.9 7029.24 L16330.6 7029.24 Q16355.4 7029.24 16365.6 7015.35 Q16375.8 7001.47 16375.8 6965.54 L16375.8 6708.32 Z" fill="#000000" fill-rule="evenodd" fill-opacity="1" /><path clip-path="url(#clip5400)" d="M 0 0 M16460.2 6953.32 L16521.3 6953.32 L16521.3 6742.39 L16454.8 6755.73 L16454.8 6721.65 L16520.9 6708.32 L16558.4 6708.32 L16558.4 6953.32 L16619.5 6953.32 L16619.5 6984.8 L16460.2 6984.8 L16460.2 6953.32 Z" fill="#000000" fill-rule="evenodd" fill-opacity="1" /><path clip-path="url(#clip5400)" d="M 0 0 M16780.2 6812.58 L17017.6 6812.58 L17017.6 6843.69 L16780.2 6843.69 L16780.2 6812.58 M16780.2 6888.13 L17017.6 6888.13 L17017.6 6919.61 L16780.2 6919.61 L16780.2 6888.13 Z" fill="#000000" fill-rule="evenodd" fill-opacity="1" /><path clip-path="url(#clip5400)" d="M 0 0 M17258.7 6732.95 Q17229.8 6732.95 17215.2 6761.47 Q17200.8 6789.8 17200.8 6846.84 Q17200.8 6903.69 17215.2 6932.21 Q17229.8 6960.54 17258.7 6960.54 Q17287.8 6960.54 17302.2 6932.21 Q17316.9 6903.69 17316.9 6846.84 Q17316.9 6789.8 17302.2 6761.47 Q17287.8 6732.95 17258.7 6732.95 M17258.7 6703.32 Q17305.2 6703.32 17329.6 6740.17 Q17354.3 6776.84 17354.3 6846.84 Q17354.3 6916.65 17329.6 6953.5 Q17305.2 6990.17 17258.7 6990.17 Q17212.2 6990.17 17187.6 6953.5 Q17163.2 6916.65 17163.2 6846.84 Q17163.2 6776.84 17187.6 6740.17 Q17212.2 6703.32 17258.7 6703.32 Z" fill="#000000" fill-rule="evenodd" fill-opacity="1" /><path clip-path="url(#clip5400)" d="M 0 0 M17394.8 6937.76 L17433.9 6937.76 L17433.9 6984.8 L17394.8 6984.8 L17394.8 6937.76 Z" fill="#000000" fill-rule="evenodd" fill-opacity="1" /><path clip-path="url(#clip5400)" d="M 0 0 M17554.5 6732.95 Q17525.6 6732.95 17510.9 6761.47 Q17496.5 6789.8 17496.5 6846.84 Q17496.5 6903.69 17510.9 6932.21 Q17525.6 6960.54 17554.5 6960.54 Q17583.5 6960.54 17598 6932.21 Q17612.6 6903.69 17612.6 6846.84 Q17612.6 6789.8 17598 6761.47 Q17583.5 6732.95 17554.5 6732.95 M17554.5 6703.32 Q17600.9 6703.32 17625.4 6740.17 Q17650 6776.84 17650 6846.84 Q17650 6916.65 17625.4 6953.5 Q17600.9 6990.17 17554.5 6990.17 Q17508 6990.17 17483.3 6953.5 Q17458.9 6916.65 17458.9 6846.84 Q17458.9 6776.84 17483.3 6740.17 Q17508 6703.32 17554.5 6703.32 Z" fill="#000000" fill-rule="evenodd" fill-opacity="1" /><polyline clip-path="url(#clip5400)" style="stroke:#e26f46; stroke-width:32; stroke-opacity:1; fill:none" points="
  14974.9,7330.4 16126.9,7330.4 
  "/>
<path clip-path="url(#clip5400)" d="M 0 0 M16375.8 7192.16 L16413.2 7192.16 L16413.2 7449.38 Q16413.2 7499.38 16394.1 7521.97 Q16375.2 7544.56 16333.2 7544.56 L16318.9 7544.56 L16318.9 7513.08 L16330.6 7513.08 Q16355.4 7513.08 16365.6 7499.19 Q16375.8 7485.31 16375.8 7449.38 L16375.8 7192.16 Z" fill="#000000" fill-rule="evenodd" fill-opacity="1" /><path clip-path="url(#clip5400)" d="M 0 0 M16460.2 7437.16 L16521.3 7437.16 L16521.3 7226.23 L16454.8 7239.57 L16454.8 7205.49 L16520.9 7192.16 L16558.4 7192.16 L16558.4 7437.16 L16619.5 7437.16 L16619.5 7468.64 L16460.2 7468.64 L16460.2 7437.16 Z" fill="#000000" fill-rule="evenodd" fill-opacity="1" /><path clip-path="url(#clip5400)" d="M 0 0 M16780.2 7296.42 L17017.6 7296.42 L17017.6 7327.53 L16780.2 7327.53 L16780.2 7296.42 M16780.2 7371.97 L17017.6 7371.97 L17017.6 7403.45 L16780.2 7403.45 L16780.2 7371.97 Z" fill="#000000" fill-rule="evenodd" fill-opacity="1" /><path clip-path="url(#clip5400)" d="M 0 0 M17258.7 7216.79 Q17229.8 7216.79 17215.2 7245.31 Q17200.8 7273.64 17200.8 7330.68 Q17200.8 7387.53 17215.2 7416.05 Q17229.8 7444.38 17258.7 7444.38 Q17287.8 7444.38 17302.2 7416.05 Q17316.9 7387.53 17316.9 7330.68 Q17316.9 7273.64 17302.2 7245.31 Q17287.8 7216.79 17258.7 7216.79 M17258.7 7187.16 Q17305.2 7187.16 17329.6 7224.01 Q17354.3 7260.68 17354.3 7330.68 Q17354.3 7400.49 17329.6 7437.34 Q17305.2 7474.01 17258.7 7474.01 Q17212.2 7474.01 17187.6 7437.34 Q17163.2 7400.49 17163.2 7330.68 Q17163.2 7260.68 17187.6 7224.01 Q17212.2 7187.16 17258.7 7187.16 Z" fill="#000000" fill-rule="evenodd" fill-opacity="1" /><path clip-path="url(#clip5400)" d="M 0 0 M17394.8 7421.6 L17433.9 7421.6 L17433.9 7468.64 L17394.8 7468.64 L17394.8 7421.6 Z" fill="#000000" fill-rule="evenodd" fill-opacity="1" /><path clip-path="url(#clip5400)" d="M 0 0 M17506.7 7437.16 L17637.2 7437.16 L17637.2 7468.64 L17461.7 7468.64 L17461.7 7437.16 Q17483 7415.12 17519.6 7378.08 Q17556.5 7340.86 17565.9 7330.12 Q17583.9 7309.94 17590.9 7296.05 Q17598.2 7281.97 17598.2 7268.45 Q17598.2 7246.42 17582.6 7232.53 Q17567.2 7218.64 17542.4 7218.64 Q17524.8 7218.64 17505.2 7224.75 Q17485.8 7230.86 17463.5 7243.27 L17463.5 7205.49 Q17486.1 7196.42 17505.8 7191.79 Q17525.4 7187.16 17541.7 7187.16 Q17584.6 7187.16 17610.2 7208.64 Q17635.8 7230.12 17635.8 7266.05 Q17635.8 7283.08 17629.3 7298.45 Q17623 7313.64 17606.1 7334.38 Q17601.5 7339.75 17576.7 7365.49 Q17551.9 7391.05 17506.7 7437.16 Z" fill="#000000" fill-rule="evenodd" fill-opacity="1" /><path clip-path="url(#clip5400)" d="M 0 0 M17678.2 7192.16 L17825 7192.16 L17825 7223.64 L17712.4 7223.64 L17712.4 7291.42 Q17720.6 7288.64 17728.7 7287.34 Q17736.9 7285.86 17745 7285.86 Q17791.3 7285.86 17818.3 7311.23 Q17845.4 7336.6 17845.4 7379.94 Q17845.4 7424.56 17817.6 7449.38 Q17789.8 7474.01 17739.3 7474.01 Q17721.9 7474.01 17703.7 7471.05 Q17685.8 7468.08 17666.5 7462.16 L17666.5 7424.56 Q17683.2 7433.64 17700.9 7438.08 Q17718.7 7442.53 17738.5 7442.53 Q17770.6 7442.53 17789.3 7425.68 Q17808 7408.82 17808 7379.94 Q17808 7351.05 17789.3 7334.2 Q17770.6 7317.34 17738.5 7317.34 Q17723.5 7317.34 17708.5 7320.68 Q17693.7 7324.01 17678.2 7331.05 L17678.2 7192.16 Z" fill="#000000" fill-rule="evenodd" fill-opacity="1" /><polyline clip-path="url(#clip5400)" style="stroke:#3da44d; stroke-width:32; stroke-opacity:1; fill:none" points="
  14974.9,7814.24 16126.9,7814.24 
  "/>
<path clip-path="url(#clip5400)" d="M 0 0 M16375.8 7676 L16413.2 7676 L16413.2 7933.22 Q16413.2 7983.22 16394.1 8005.81 Q16375.2 8028.4 16333.2 8028.4 L16318.9 8028.4 L16318.9 7996.92 L16330.6 7996.92 Q16355.4 7996.92 16365.6 7983.03 Q16375.8 7969.15 16375.8 7933.22 L16375.8 7676 Z" fill="#000000" fill-rule="evenodd" fill-opacity="1" /><path clip-path="url(#clip5400)" d="M 0 0 M16460.2 7921 L16521.3 7921 L16521.3 7710.07 L16454.8 7723.41 L16454.8 7689.33 L16520.9 7676 L16558.4 7676 L16558.4 7921 L16619.5 7921 L16619.5 7952.48 L16460.2 7952.48 L16460.2 7921 Z" fill="#000000" fill-rule="evenodd" fill-opacity="1" /><path clip-path="url(#clip5400)" d="M 0 0 M16780.2 7780.26 L17017.6 7780.26 L17017.6 7811.37 L16780.2 7811.37 L16780.2 7780.26 M16780.2 7855.81 L17017.6 7855.81 L17017.6 7887.29 L16780.2 7887.29 L16780.2 7855.81 Z" fill="#000000" fill-rule="evenodd" fill-opacity="1" /><path clip-path="url(#clip5400)" d="M 0 0 M17258.7 7700.63 Q17229.8 7700.63 17215.2 7729.15 Q17200.8 7757.48 17200.8 7814.52 Q17200.8 7871.37 17215.2 7899.89 Q17229.8 7928.22 17258.7 7928.22 Q17287.8 7928.22 17302.2 7899.89 Q17316.9 7871.37 17316.9 7814.52 Q17316.9 7757.48 17302.2 7729.15 Q17287.8 7700.63 17258.7 7700.63 M17258.7 7671 Q17305.2 7671 17329.6 7707.85 Q17354.3 7744.52 17354.3 7814.52 Q17354.3 7884.33 17329.6 7921.18 Q17305.2 7957.85 17258.7 7957.85 Q17212.2 7957.85 17187.6 7921.18 Q17163.2 7884.33 17163.2 7814.52 Q17163.2 7744.52 17187.6 7707.85 Q17212.2 7671 17258.7 7671 Z" fill="#000000" fill-rule="evenodd" fill-opacity="1" /><path clip-path="url(#clip5400)" d="M 0 0 M17394.8 7905.44 L17433.9 7905.44 L17433.9 7952.48 L17394.8 7952.48 L17394.8 7905.44 Z" fill="#000000" fill-rule="evenodd" fill-opacity="1" /><path clip-path="url(#clip5400)" d="M 0 0 M17474.8 7676 L17621.7 7676 L17621.7 7707.48 L17509.1 7707.48 L17509.1 7775.26 Q17517.2 7772.48 17525.4 7771.18 Q17533.5 7769.7 17541.7 7769.7 Q17588 7769.7 17615 7795.07 Q17642 7820.44 17642 7863.78 Q17642 7908.4 17614.3 7933.22 Q17586.5 7957.85 17535.9 7957.85 Q17518.5 7957.85 17500.4 7954.89 Q17482.4 7951.92 17463.2 7946 L17463.2 7908.4 Q17479.8 7917.48 17497.6 7921.92 Q17515.4 7926.37 17535.2 7926.37 Q17567.2 7926.37 17585.9 7909.52 Q17604.6 7892.66 17604.6 7863.78 Q17604.6 7834.89 17585.9 7818.04 Q17567.2 7801.18 17535.2 7801.18 Q17520.2 7801.18 17505.2 7804.52 Q17490.4 7807.85 17474.8 7814.89 L17474.8 7676 Z" fill="#000000" fill-rule="evenodd" fill-opacity="1" /><polyline clip-path="url(#clip5400)" style="stroke:#c271d2; stroke-width:32; stroke-opacity:1; fill:none" points="
  14974.9,8298.08 16126.9,8298.08 
  "/>
<path clip-path="url(#clip5400)" d="M 0 0 M16375.8 8159.84 L16413.2 8159.84 L16413.2 8417.06 Q16413.2 8467.06 16394.1 8489.65 Q16375.2 8512.24 16333.2 8512.24 L16318.9 8512.24 L16318.9 8480.76 L16330.6 8480.76 Q16355.4 8480.76 16365.6 8466.87 Q16375.8 8452.99 16375.8 8417.06 L16375.8 8159.84 Z" fill="#000000" fill-rule="evenodd" fill-opacity="1" /><path clip-path="url(#clip5400)" d="M 0 0 M16460.2 8404.84 L16521.3 8404.84 L16521.3 8193.91 L16454.8 8207.25 L16454.8 8173.17 L16520.9 8159.84 L16558.4 8159.84 L16558.4 8404.84 L16619.5 8404.84 L16619.5 8436.32 L16460.2 8436.32 L16460.2 8404.84 Z" fill="#000000" fill-rule="evenodd" fill-opacity="1" /><path clip-path="url(#clip5400)" d="M 0 0 M16780.2 8264.1 L17017.6 8264.1 L17017.6 8295.21 L16780.2 8295.21 L16780.2 8264.1 M16780.2 8339.65 L17017.6 8339.65 L17017.6 8371.13 L16780.2 8371.13 L16780.2 8339.65 Z" fill="#000000" fill-rule="evenodd" fill-opacity="1" /><path clip-path="url(#clip5400)" d="M 0 0 M17258.7 8184.47 Q17229.8 8184.47 17215.2 8212.99 Q17200.8 8241.32 17200.8 8298.36 Q17200.8 8355.21 17215.2 8383.73 Q17229.8 8412.06 17258.7 8412.06 Q17287.8 8412.06 17302.2 8383.73 Q17316.9 8355.21 17316.9 8298.36 Q17316.9 8241.32 17302.2 8212.99 Q17287.8 8184.47 17258.7 8184.47 M17258.7 8154.84 Q17305.2 8154.84 17329.6 8191.69 Q17354.3 8228.36 17354.3 8298.36 Q17354.3 8368.17 17329.6 8405.02 Q17305.2 8441.69 17258.7 8441.69 Q17212.2 8441.69 17187.6 8405.02 Q17163.2 8368.17 17163.2 8298.36 Q17163.2 8228.36 17187.6 8191.69 Q17212.2 8154.84 17258.7 8154.84 Z" fill="#000000" fill-rule="evenodd" fill-opacity="1" /><path clip-path="url(#clip5400)" d="M 0 0 M17394.8 8389.28 L17433.9 8389.28 L17433.9 8436.32 L17394.8 8436.32 L17394.8 8389.28 Z" fill="#000000" fill-rule="evenodd" fill-opacity="1" /><path clip-path="url(#clip5400)" d="M 0 0 M17465 8159.84 L17642.8 8159.84 L17642.8 8175.76 L17542.4 8436.32 L17503.3 8436.32 L17597.8 8191.32 L17465 8191.32 L17465 8159.84 Z" fill="#000000" fill-rule="evenodd" fill-opacity="1" /><path clip-path="url(#clip5400)" d="M 0 0 M17683.7 8159.84 L17830.6 8159.84 L17830.6 8191.32 L17718 8191.32 L17718 8259.1 Q17726.1 8256.32 17734.3 8255.02 Q17742.4 8253.54 17750.6 8253.54 Q17796.9 8253.54 17823.9 8278.91 Q17850.9 8304.28 17850.9 8347.62 Q17850.9 8392.24 17823.2 8417.06 Q17795.4 8441.69 17744.8 8441.69 Q17727.4 8441.69 17709.3 8438.73 Q17691.3 8435.76 17672 8429.84 L17672 8392.24 Q17688.7 8401.32 17706.5 8405.76 Q17724.3 8410.21 17744.1 8410.21 Q17776.1 8410.21 17794.8 8393.36 Q17813.5 8376.5 17813.5 8347.62 Q17813.5 8318.73 17794.8 8301.88 Q17776.1 8285.02 17744.1 8285.02 Q17729.1 8285.02 17714.1 8288.36 Q17699.3 8291.69 17683.7 8298.73 L17683.7 8159.84 Z" fill="#000000" fill-rule="evenodd" fill-opacity="1" /><polyline clip-path="url(#clip5400)" style="stroke:#ac8d18; stroke-width:32; stroke-opacity:1; fill:none" points="
  14974.9,8781.92 16126.9,8781.92 
  "/>
<path clip-path="url(#clip5400)" d="M 0 0 M16375.8 8643.68 L16413.2 8643.68 L16413.2 8900.9 Q16413.2 8950.9 16394.1 8973.49 Q16375.2 8996.08 16333.2 8996.08 L16318.9 8996.08 L16318.9 8964.6 L16330.6 8964.6 Q16355.4 8964.6 16365.6 8950.71 Q16375.8 8936.83 16375.8 8900.9 L16375.8 8643.68 Z" fill="#000000" fill-rule="evenodd" fill-opacity="1" /><path clip-path="url(#clip5400)" d="M 0 0 M16460.2 8888.68 L16521.3 8888.68 L16521.3 8677.75 L16454.8 8691.09 L16454.8 8657.01 L16520.9 8643.68 L16558.4 8643.68 L16558.4 8888.68 L16619.5 8888.68 L16619.5 8920.16 L16460.2 8920.16 L16460.2 8888.68 Z" fill="#000000" fill-rule="evenodd" fill-opacity="1" /><path clip-path="url(#clip5400)" d="M 0 0 M16780.2 8747.94 L17017.6 8747.94 L17017.6 8779.05 L16780.2 8779.05 L16780.2 8747.94 M16780.2 8823.49 L17017.6 8823.49 L17017.6 8854.97 L16780.2 8854.97 L16780.2 8823.49 Z" fill="#000000" fill-rule="evenodd" fill-opacity="1" /><path clip-path="url(#clip5400)" d="M 0 0 M17185.2 8888.68 L17246.3 8888.68 L17246.3 8677.75 L17179.8 8691.09 L17179.8 8657.01 L17245.9 8643.68 L17283.3 8643.68 L17283.3 8888.68 L17344.5 8888.68 L17344.5 8920.16 L17185.2 8920.16 L17185.2 8888.68 Z" fill="#000000" fill-rule="evenodd" fill-opacity="1" /><path clip-path="url(#clip5400)" d="M 0 0 M17385 8873.12 L17424.1 8873.12 L17424.1 8920.16 L17385 8920.16 L17385 8873.12 Z" fill="#000000" fill-rule="evenodd" fill-opacity="1" /><path clip-path="url(#clip5400)" d="M 0 0 M17544.6 8668.31 Q17515.8 8668.31 17501.1 8696.83 Q17486.7 8725.16 17486.7 8782.2 Q17486.7 8839.05 17501.1 8867.57 Q17515.8 8895.9 17544.6 8895.9 Q17573.7 8895.9 17588.2 8867.57 Q17602.8 8839.05 17602.8 8782.2 Q17602.8 8725.16 17588.2 8696.83 Q17573.7 8668.31 17544.6 8668.31 M17544.6 8638.68 Q17591.1 8638.68 17615.6 8675.53 Q17640.2 8712.2 17640.2 8782.2 Q17640.2 8852.01 17615.6 8888.86 Q17591.1 8925.53 17544.6 8925.53 Q17498.2 8925.53 17473.5 8888.86 Q17449.1 8852.01 17449.1 8782.2 Q17449.1 8712.2 17473.5 8675.53 Q17498.2 8638.68 17544.6 8638.68 Z" fill="#000000" fill-rule="evenodd" fill-opacity="1" /><polyline clip-path="url(#clip5400)" style="stroke:#00a9ad; stroke-width:32; stroke-opacity:1; fill:none" points="
  14974.9,9265.76 16126.9,9265.76 
  "/>
<path clip-path="url(#clip5400)" d="M 0 0 M16375.8 9127.52 L16413.2 9127.52 L16413.2 9384.74 Q16413.2 9434.74 16394.1 9457.33 Q16375.2 9479.92 16333.2 9479.92 L16318.9 9479.92 L16318.9 9448.44 L16330.6 9448.44 Q16355.4 9448.44 16365.6 9434.55 Q16375.8 9420.67 16375.8 9384.74 L16375.8 9127.52 Z" fill="#000000" fill-rule="evenodd" fill-opacity="1" /><path clip-path="url(#clip5400)" d="M 0 0 M16460.2 9372.52 L16521.3 9372.52 L16521.3 9161.59 L16454.8 9174.93 L16454.8 9140.85 L16520.9 9127.52 L16558.4 9127.52 L16558.4 9372.52 L16619.5 9372.52 L16619.5 9404 L16460.2 9404 L16460.2 9372.52 Z" fill="#000000" fill-rule="evenodd" fill-opacity="1" /><path clip-path="url(#clip5400)" d="M 0 0 M16780.2 9231.78 L17017.6 9231.78 L17017.6 9262.89 L16780.2 9262.89 L16780.2 9231.78 M16780.2 9307.33 L17017.6 9307.33 L17017.6 9338.81 L16780.2 9338.81 L16780.2 9307.33 Z" fill="#000000" fill-rule="evenodd" fill-opacity="1" /><path clip-path="url(#clip5400)" d="M 0 0 M17258.7 9152.15 Q17229.8 9152.15 17215.2 9180.67 Q17200.8 9209 17200.8 9266.04 Q17200.8 9322.89 17215.2 9351.41 Q17229.8 9379.74 17258.7 9379.74 Q17287.8 9379.74 17302.2 9351.41 Q17316.9 9322.89 17316.9 9266.04 Q17316.9 9209 17302.2 9180.67 Q17287.8 9152.15 17258.7 9152.15 M17258.7 9122.52 Q17305.2 9122.52 17329.6 9159.37 Q17354.3 9196.04 17354.3 9266.04 Q17354.3 9335.85 17329.6 9372.7 Q17305.2 9409.37 17258.7 9409.37 Q17212.2 9409.37 17187.6 9372.7 Q17163.2 9335.85 17163.2 9266.04 Q17163.2 9196.04 17187.6 9159.37 Q17212.2 9122.52 17258.7 9122.52 Z" fill="#000000" fill-rule="evenodd" fill-opacity="1" /><path clip-path="url(#clip5400)" d="M 0 0 M17394.8 9356.96 L17433.9 9356.96 L17433.9 9404 L17394.8 9404 L17394.8 9356.96 Z" fill="#000000" fill-rule="evenodd" fill-opacity="1" /><path clip-path="url(#clip5400)" d="M 0 0 M17577.2 9160.11 L17482.8 9307.7 L17577.2 9307.7 L17577.2 9160.11 M17567.4 9127.52 L17614.5 9127.52 L17614.5 9307.7 L17653.9 9307.7 L17653.9 9338.81 L17614.5 9338.81 L17614.5 9404 L17577.2 9404 L17577.2 9338.81 L17452.4 9338.81 L17452.4 9302.7 L17567.4 9127.52 Z" fill="#000000" fill-rule="evenodd" fill-opacity="1" /><polyline clip-path="url(#clip5400)" style="stroke:#ed5d92; stroke-width:32; stroke-opacity:1; fill:none" points="
  14974.9,9749.6 16126.9,9749.6 
  "/>
<path clip-path="url(#clip5400)" d="M 0 0 M16375.8 9611.36 L16413.2 9611.36 L16413.2 9868.58 Q16413.2 9918.58 16394.1 9941.17 Q16375.2 9963.76 16333.2 9963.76 L16318.9 9963.76 L16318.9 9932.28 L16330.6 9932.28 Q16355.4 9932.28 16365.6 9918.39 Q16375.8 9904.51 16375.8 9868.58 L16375.8 9611.36 Z" fill="#000000" fill-rule="evenodd" fill-opacity="1" /><path clip-path="url(#clip5400)" d="M 0 0 M16460.2 9856.36 L16521.3 9856.36 L16521.3 9645.43 L16454.8 9658.77 L16454.8 9624.69 L16520.9 9611.36 L16558.4 9611.36 L16558.4 9856.36 L16619.5 9856.36 L16619.5 9887.84 L16460.2 9887.84 L16460.2 9856.36 Z" fill="#000000" fill-rule="evenodd" fill-opacity="1" /><path clip-path="url(#clip5400)" d="M 0 0 M16780.2 9715.62 L17017.6 9715.62 L17017.6 9746.73 L16780.2 9746.73 L16780.2 9715.62 M16780.2 9791.17 L17017.6 9791.17 L17017.6 9822.65 L16780.2 9822.65 L16780.2 9791.17 Z" fill="#000000" fill-rule="evenodd" fill-opacity="1" /><path clip-path="url(#clip5400)" d="M 0 0 M17258.7 9635.99 Q17229.8 9635.99 17215.2 9664.51 Q17200.8 9692.84 17200.8 9749.88 Q17200.8 9806.73 17215.2 9835.25 Q17229.8 9863.58 17258.7 9863.58 Q17287.8 9863.58 17302.2 9835.25 Q17316.9 9806.73 17316.9 9749.88 Q17316.9 9692.84 17302.2 9664.51 Q17287.8 9635.99 17258.7 9635.99 M17258.7 9606.36 Q17305.2 9606.36 17329.6 9643.21 Q17354.3 9679.88 17354.3 9749.88 Q17354.3 9819.69 17329.6 9856.54 Q17305.2 9893.21 17258.7 9893.21 Q17212.2 9893.21 17187.6 9856.54 Q17163.2 9819.69 17163.2 9749.88 Q17163.2 9679.88 17187.6 9643.21 Q17212.2 9606.36 17258.7 9606.36 Z" fill="#000000" fill-rule="evenodd" fill-opacity="1" /><path clip-path="url(#clip5400)" d="M 0 0 M17394.8 9840.8 L17433.9 9840.8 L17433.9 9887.84 L17394.8 9887.84 L17394.8 9840.8 Z" fill="#000000" fill-rule="evenodd" fill-opacity="1" /><path clip-path="url(#clip5400)" d="M 0 0 M17577.2 9643.95 L17482.8 9791.54 L17577.2 9791.54 L17577.2 9643.95 M17567.4 9611.36 L17614.5 9611.36 L17614.5 9791.54 L17653.9 9791.54 L17653.9 9822.65 L17614.5 9822.65 L17614.5 9887.84 L17577.2 9887.84 L17577.2 9822.65 L17452.4 9822.65 L17452.4 9786.54 L17567.4 9611.36 Z" fill="#000000" fill-rule="evenodd" fill-opacity="1" /><path clip-path="url(#clip5400)" d="M 0 0 M17694.8 9611.36 L17841.7 9611.36 L17841.7 9642.84 L17729.1 9642.84 L17729.1 9710.62 Q17737.2 9707.84 17745.4 9706.54 Q17753.5 9705.06 17761.7 9705.06 Q17808 9705.06 17835 9730.43 Q17862 9755.8 17862 9799.14 Q17862 9843.76 17834.3 9868.58 Q17806.5 9893.21 17755.9 9893.21 Q17738.5 9893.21 17720.4 9890.25 Q17702.4 9887.28 17683.2 9881.36 L17683.2 9843.76 Q17699.8 9852.84 17717.6 9857.28 Q17735.4 9861.73 17755.2 9861.73 Q17787.2 9861.73 17805.9 9844.88 Q17824.6 9828.02 17824.6 9799.14 Q17824.6 9770.25 17805.9 9753.4 Q17787.2 9736.54 17755.2 9736.54 Q17740.2 9736.54 17725.2 9739.88 Q17710.4 9743.21 17694.8 9750.25 L17694.8 9611.36 Z" fill="#000000" fill-rule="evenodd" fill-opacity="1" /></svg>
