<?xml version="1.0" encoding="utf-8"?>
<svg xmlns="http://www.w3.org/2000/svg" xmlns:xlink="http://www.w3.org/1999/xlink" width="4800" height="3200" viewBox="0 0 19200 12800">
<defs>
  <clipPath id="clip7100">
    <rect x="0" y="0" width="19200" height="12800"/>
  </clipPath>
</defs>
<path clip-path="url(#clip7100)" d="
M0 12800 L19200 12800 L19200 0 L0 0  Z
  " fill="#ffffff" fill-rule="evenodd" fill-opacity="1"/>
<defs>
  <clipPath id="clip7101">
    <rect x="3840" y="0" width="13441" height="12800"/>
  </clipPath>
</defs>
<path clip-path="url(#clip7100)" d="
M1403.56 11385.4 L18822 11385.4 L18822 987.777 L1403.56 987.777  Z
  " fill="#ffffff" fill-rule="evenodd" fill-opacity="1"/>
<defs>
  <clipPath id="clip7102">
    <rect x="1403" y="987" width="17419" height="10399"/>
  </clipPath>
</defs>
<polyline clip-path="url(#clip7102)" style="stroke:#000000; stroke-width:16; stroke-opacity:0.1; fill:none" points="
  1896.54,11385.4 1896.54,987.777 
  "/>
<polyline clip-path="url(#clip7102)" style="stroke:#000000; stroke-width:16; stroke-opacity:0.1; fill:none" points="
  5631.2,11385.4 5631.2,987.777 
  "/>
<polyline clip-path="url(#clip7102)" style="stroke:#000000; stroke-width:16; stroke-opacity:0.1; fill:none" points="
  9365.87,11385.4 9365.87,987.777 
  "/>
<polyline clip-path="url(#clip7102)" style="stroke:#000000; stroke-width:16; stroke-opacity:0.1; fill:none" points="
  13100.5,11385.4 13100.5,987.777 
  "/>
<polyline clip-path="url(#clip7102)" style="stroke:#000000; stroke-width:16; stroke-opacity:0.1; fill:none" points="
  16835.2,11385.4 16835.2,987.777 
  "/>
<polyline clip-path="url(#clip7102)" style="stroke:#000000; stroke-width:16; stroke-opacity:0.1; fill:none" points="
  1403.56,11091.2 18822,11091.2 
  "/>
<polyline clip-path="url(#clip7102)" style="stroke:#000000; stroke-width:16; stroke-opacity:0.1; fill:none" points="
  1403.56,9253.82 18822,9253.82 
  "/>
<polyline clip-path="url(#clip7102)" style="stroke:#000000; stroke-width:16; stroke-opacity:0.1; fill:none" points="
  1403.56,7416.47 18822,7416.47 
  "/>
<polyline clip-path="url(#clip7102)" style="stroke:#000000; stroke-width:16; stroke-opacity:0.1; fill:none" points="
  1403.56,5579.13 18822,5579.13 
  "/>
<polyline clip-path="url(#clip7102)" style="stroke:#000000; stroke-width:16; stroke-opacity:0.1; fill:none" points="
  1403.56,3741.78 18822,3741.78 
  "/>
<polyline clip-path="url(#clip7102)" style="stroke:#000000; stroke-width:16; stroke-opacity:0.1; fill:none" points="
  1403.56,1904.44 18822,1904.44 
  "/>
<polyline clip-path="url(#clip7100)" style="stroke:#000000; stroke-width:32; stroke-opacity:1; fill:none" points="
  1403.56,11385.4 18822,11385.4 
  "/>
<polyline clip-path="url(#clip7100)" style="stroke:#000000; stroke-width:32; stroke-opacity:1; fill:none" points="
  1403.56,11385.4 1403.56,987.777 
  "/>
<polyline clip-path="url(#clip7100)" style="stroke:#000000; stroke-width:32; stroke-opacity:1; fill:none" points="
  1896.54,11385.4 1896.54,11260.7 
  "/>
<polyline clip-path="url(#clip7100)" style="stroke:#000000; stroke-width:32; stroke-opacity:1; fill:none" points="
  5631.2,11385.4 5631.2,11260.7 
  "/>
<polyline clip-path="url(#clip7100)" style="stroke:#000000; stroke-width:32; stroke-opacity:1; fill:none" points="
  9365.87,11385.4 9365.87,11260.7 
  "/>
<polyline clip-path="url(#clip7100)" style="stroke:#000000; stroke-width:32; stroke-opacity:1; fill:none" points="
  13100.5,11385.4 13100.5,11260.7 
  "/>
<polyline clip-path="url(#clip7100)" style="stroke:#000000; stroke-width:32; stroke-opacity:1; fill:none" points="
  16835.2,11385.4 16835.2,11260.7 
  "/>
<polyline clip-path="url(#clip7100)" style="stroke:#000000; stroke-width:32; stroke-opacity:1; fill:none" points="
  1403.56,11091.2 1612.58,11091.2 
  "/>
<polyline clip-path="url(#clip7100)" style="stroke:#000000; stroke-width:32; stroke-opacity:1; fill:none" points="
  1403.56,9253.82 1612.58,9253.82 
  "/>
<polyline clip-path="url(#clip7100)" style="stroke:#000000; stroke-width:32; stroke-opacity:1; fill:none" points="
  1403.56,7416.47 1612.58,7416.47 
  "/>
<polyline clip-path="url(#clip7100)" style="stroke:#000000; stroke-width:32; stroke-opacity:1; fill:none" points="
  1403.56,5579.13 1612.58,5579.13 
  "/>
<polyline clip-path="url(#clip7100)" style="stroke:#000000; stroke-width:32; stroke-opacity:1; fill:none" points="
  1403.56,3741.78 1612.58,3741.78 
  "/>
<polyline clip-path="url(#clip7100)" style="stroke:#000000; stroke-width:32; stroke-opacity:1; fill:none" points="
  1403.56,1904.44 1612.58,1904.44 
  "/>
<path clip-path="url(#clip7100)" d="M 0 0 M1643.95 11561.4 Q1615.06 11561.4 1600.43 11589.9 Q1585.98 11618.2 1585.98 11675.3 Q1585.98 11732.1 1600.43 11760.6 Q1615.06 11789 1643.95 11789 Q1673.02 11789 1687.46 11760.6 Q1702.09 11732.1 1702.09 11675.3 Q1702.09 11618.2 1687.46 11589.9 Q1673.02 11561.4 1643.95 11561.4 M1643.95 11531.7 Q1690.43 11531.7 1714.87 11568.6 Q1739.5 11605.3 1739.5 11675.3 Q1739.5 11745.1 1714.87 11781.9 Q1690.43 11818.6 1643.95 11818.6 Q1597.47 11818.6 1572.84 11781.9 Q1548.39 11745.1 1548.39 11675.3 Q1548.39 11605.3 1572.84 11568.6 Q1597.47 11531.7 1643.95 11531.7 Z" fill="#000000" fill-rule="evenodd" fill-opacity="1" /><path clip-path="url(#clip7100)" d="M 0 0 M1780.06 11766.2 L1819.13 11766.2 L1819.13 11813.2 L1780.06 11813.2 L1780.06 11766.2 Z" fill="#000000" fill-rule="evenodd" fill-opacity="1" /><path clip-path="url(#clip7100)" d="M 0 0 M1860.06 11536.7 L2006.91 11536.7 L2006.91 11568.2 L1894.32 11568.2 L1894.32 11636 Q1902.46 11633.2 1910.61 11631.9 Q1918.76 11630.4 1926.91 11630.4 Q1973.2 11630.4 2000.24 11655.8 Q2027.28 11681.2 2027.28 11724.5 Q2027.28 11769.1 1999.5 11794 Q1971.72 11818.6 1921.17 11818.6 Q1903.76 11818.6 1885.61 11815.6 Q1867.65 11812.7 1848.39 11806.7 L1848.39 11769.1 Q1865.06 11778.2 1882.83 11782.7 Q1900.61 11787.1 1920.43 11787.1 Q1952.46 11787.1 1971.17 11770.3 Q1989.87 11753.4 1989.87 11724.5 Q1989.87 11695.6 1971.17 11678.8 Q1952.46 11661.9 1920.43 11661.9 Q1905.43 11661.9 1890.43 11665.3 Q1875.61 11668.6 1860.06 11675.6 L1860.06 11536.7 Z" fill="#000000" fill-rule="evenodd" fill-opacity="1" /><path clip-path="url(#clip7100)" d="M 0 0 M2152.46 11660.1 Q2127.28 11660.1 2112.46 11677.3 Q2097.83 11694.5 2097.83 11724.5 Q2097.83 11754.3 2112.46 11771.7 Q2127.28 11789 2152.46 11789 Q2177.65 11789 2192.28 11771.7 Q2207.09 11754.3 2207.09 11724.5 Q2207.09 11694.5 2192.28 11677.3 Q2177.65 11660.1 2152.46 11660.1 M2226.72 11542.8 L2226.72 11576.9 Q2212.65 11570.3 2198.2 11566.7 Q2183.94 11563.2 2169.87 11563.2 Q2132.83 11563.2 2113.2 11588.2 Q2093.76 11613.2 2090.98 11663.8 Q2101.91 11647.7 2118.39 11639.1 Q2134.87 11630.4 2154.68 11630.4 Q2196.35 11630.4 2220.42 11655.8 Q2244.68 11681 2244.68 11724.5 Q2244.68 11767.1 2219.5 11792.8 Q2194.31 11818.6 2152.46 11818.6 Q2104.5 11818.6 2079.13 11781.9 Q2053.76 11745.1 2053.76 11675.3 Q2053.76 11609.7 2084.87 11570.8 Q2115.98 11531.7 2168.39 11531.7 Q2182.46 11531.7 2196.72 11534.5 Q2211.17 11537.3 2226.72 11542.8 Z" fill="#000000" fill-rule="evenodd" fill-opacity="1" /><path clip-path="url(#clip7100)" d="M 0 0 M5379.63 11561.4 Q5350.74 11561.4 5336.11 11589.9 Q5321.67 11618.2 5321.67 11675.3 Q5321.67 11732.1 5336.11 11760.6 Q5350.74 11789 5379.63 11789 Q5408.71 11789 5423.15 11760.6 Q5437.78 11732.1 5437.78 11675.3 Q5437.78 11618.2 5423.15 11589.9 Q5408.71 11561.4 5379.63 11561.4 M5379.63 11531.7 Q5426.11 11531.7 5450.56 11568.6 Q5475.19 11605.3 5475.19 11675.3 Q5475.19 11745.1 5450.56 11781.9 Q5426.11 11818.6 5379.63 11818.6 Q5333.15 11818.6 5308.52 11781.9 Q5284.08 11745.1 5284.08 11675.3 Q5284.08 11605.3 5308.52 11568.6 Q5333.15 11531.7 5379.63 11531.7 Z" fill="#000000" fill-rule="evenodd" fill-opacity="1" /><path clip-path="url(#clip7100)" d="M 0 0 M5515.74 11766.2 L5554.82 11766.2 L5554.82 11813.2 L5515.74 11813.2 L5515.74 11766.2 Z" fill="#000000" fill-rule="evenodd" fill-opacity="1" /><path clip-path="url(#clip7100)" d="M 0 0 M5595.74 11536.7 L5742.59 11536.7 L5742.59 11568.2 L5630 11568.2 L5630 11636 Q5638.15 11633.2 5646.3 11631.9 Q5654.45 11630.4 5662.59 11630.4 Q5708.89 11630.4 5735.93 11655.8 Q5762.96 11681.2 5762.96 11724.5 Q5762.96 11769.1 5735.19 11794 Q5707.41 11818.6 5656.85 11818.6 Q5639.45 11818.6 5621.3 11815.6 Q5603.33 11812.7 5584.08 11806.7 L5584.08 11769.1 Q5600.74 11778.2 5618.52 11782.7 Q5636.3 11787.1 5656.11 11787.1 Q5688.15 11787.1 5706.85 11770.3 Q5725.56 11753.4 5725.56 11724.5 Q5725.56 11695.6 5706.85 11678.8 Q5688.15 11661.9 5656.11 11661.9 Q5641.11 11661.9 5626.11 11665.3 Q5611.3 11668.6 5595.74 11675.6 L5595.74 11536.7 Z" fill="#000000" fill-rule="evenodd" fill-opacity="1" /><path clip-path="url(#clip7100)" d="M 0 0 M5883.52 11681.9 Q5856.85 11681.9 5841.48 11696.2 Q5826.3 11710.4 5826.3 11735.4 Q5826.3 11760.4 5841.48 11774.7 Q5856.85 11789 5883.52 11789 Q5910.18 11789 5925.55 11774.7 Q5940.92 11760.3 5940.92 11735.4 Q5940.92 11710.4 5925.55 11696.2 Q5910.37 11681.9 5883.52 11681.9 M5846.11 11666 Q5822.04 11660.1 5808.52 11643.6 Q5795.18 11627.1 5795.18 11603.4 Q5795.18 11570.3 5818.7 11551 Q5842.41 11531.7 5883.52 11531.7 Q5924.81 11531.7 5948.33 11551 Q5971.85 11570.3 5971.85 11603.4 Q5971.85 11627.1 5958.33 11643.6 Q5945 11660.1 5921.11 11666 Q5948.15 11672.3 5963.15 11690.6 Q5978.33 11709 5978.33 11735.4 Q5978.33 11775.6 5953.7 11797.1 Q5929.26 11818.6 5883.52 11818.6 Q5837.78 11818.6 5813.15 11797.1 Q5788.7 11775.6 5788.7 11735.4 Q5788.7 11709 5803.89 11690.6 Q5819.07 11672.3 5846.11 11666 M5832.41 11606.9 Q5832.41 11628.4 5845.74 11640.4 Q5859.26 11652.5 5883.52 11652.5 Q5907.59 11652.5 5921.11 11640.4 Q5934.81 11628.4 5934.81 11606.9 Q5934.81 11585.4 5921.11 11573.4 Q5907.59 11561.4 5883.52 11561.4 Q5859.26 11561.4 5845.74 11573.4 Q5832.41 11585.4 5832.41 11606.9 Z" fill="#000000" fill-rule="evenodd" fill-opacity="1" /><path clip-path="url(#clip7100)" d="M 0 0 M9109.3 11561.4 Q9080.41 11561.4 9065.78 11589.9 Q9051.34 11618.2 9051.34 11675.3 Q9051.34 11732.1 9065.78 11760.6 Q9080.41 11789 9109.3 11789 Q9138.37 11789 9152.82 11760.6 Q9167.45 11732.1 9167.45 11675.3 Q9167.45 11618.2 9152.82 11589.9 Q9138.37 11561.4 9109.3 11561.4 M9109.3 11531.7 Q9155.78 11531.7 9180.22 11568.6 Q9204.85 11605.3 9204.85 11675.3 Q9204.85 11745.1 9180.22 11781.9 Q9155.78 11818.6 9109.3 11818.6 Q9062.82 11818.6 9038.19 11781.9 Q9013.74 11745.1 9013.74 11675.3 Q9013.74 11605.3 9038.19 11568.6 Q9062.82 11531.7 9109.3 11531.7 Z" fill="#000000" fill-rule="evenodd" fill-opacity="1" /><path clip-path="url(#clip7100)" d="M 0 0 M9245.41 11766.2 L9284.48 11766.2 L9284.48 11813.2 L9245.41 11813.2 L9245.41 11766.2 Z" fill="#000000" fill-rule="evenodd" fill-opacity="1" /><path clip-path="url(#clip7100)" d="M 0 0 M9409.67 11660.1 Q9384.48 11660.1 9369.67 11677.3 Q9355.04 11694.5 9355.04 11724.5 Q9355.04 11754.3 9369.67 11771.7 Q9384.48 11789 9409.67 11789 Q9434.85 11789 9449.48 11771.7 Q9464.3 11754.3 9464.3 11724.5 Q9464.3 11694.5 9449.48 11677.3 Q9434.85 11660.1 9409.67 11660.1 M9483.93 11542.8 L9483.93 11576.9 Q9469.85 11570.3 9455.41 11566.7 Q9441.15 11563.2 9427.07 11563.2 Q9390.04 11563.2 9370.41 11588.2 Q9350.96 11613.2 9348.19 11663.8 Q9359.11 11647.7 9375.59 11639.1 Q9392.07 11630.4 9411.89 11630.4 Q9453.56 11630.4 9477.63 11655.8 Q9501.89 11681 9501.89 11724.5 Q9501.89 11767.1 9476.7 11792.8 Q9451.52 11818.6 9409.67 11818.6 Q9361.7 11818.6 9336.33 11781.9 Q9310.96 11745.1 9310.96 11675.3 Q9310.96 11609.7 9342.07 11570.8 Q9373.19 11531.7 9425.59 11531.7 Q9439.67 11531.7 9453.93 11534.5 Q9468.37 11537.3 9483.93 11542.8 Z" fill="#000000" fill-rule="evenodd" fill-opacity="1" /><path clip-path="url(#clip7100)" d="M 0 0 M9622.44 11561.4 Q9593.56 11561.4 9578.93 11589.9 Q9564.48 11618.2 9564.48 11675.3 Q9564.48 11732.1 9578.93 11760.6 Q9593.56 11789 9622.44 11789 Q9651.52 11789 9665.96 11760.6 Q9680.59 11732.1 9680.59 11675.3 Q9680.59 11618.2 9665.96 11589.9 Q9651.52 11561.4 9622.44 11561.4 M9622.44 11531.7 Q9668.93 11531.7 9693.37 11568.6 Q9718 11605.3 9718 11675.3 Q9718 11745.1 9693.37 11781.9 Q9668.93 11818.6 9622.44 11818.6 Q9575.96 11818.6 9551.33 11781.9 Q9526.89 11745.1 9526.89 11675.3 Q9526.89 11605.3 9551.33 11568.6 Q9575.96 11531.7 9622.44 11531.7 Z" fill="#000000" fill-rule="evenodd" fill-opacity="1" /><path clip-path="url(#clip7100)" d="M 0 0 M12850.4 11561.4 Q12821.5 11561.4 12806.8 11589.9 Q12792.4 11618.2 12792.4 11675.3 Q12792.4 11732.1 12806.8 11760.6 Q12821.5 11789 12850.4 11789 Q12879.4 11789 12893.9 11760.6 Q12908.5 11732.1 12908.5 11675.3 Q12908.5 11618.2 12893.9 11589.9 Q12879.4 11561.4 12850.4 11561.4 M12850.4 11531.7 Q12896.8 11531.7 12921.3 11568.6 Q12945.9 11605.3 12945.9 11675.3 Q12945.9 11745.1 12921.3 11781.9 Q12896.8 11818.6 12850.4 11818.6 Q12803.9 11818.6 12779.2 11781.9 Q12754.8 11745.1 12754.8 11675.3 Q12754.8 11605.3 12779.2 11568.6 Q12803.9 11531.7 12850.4 11531.7 Z" fill="#000000" fill-rule="evenodd" fill-opacity="1" /><path clip-path="url(#clip7100)" d="M 0 0 M12986.5 11766.2 L13025.5 11766.2 L13025.5 11813.2 L12986.5 11813.2 L12986.5 11766.2 Z" fill="#000000" fill-rule="evenodd" fill-opacity="1" /><path clip-path="url(#clip7100)" d="M 0 0 M13150.7 11660.1 Q13125.5 11660.1 13110.7 11677.3 Q13096.1 11694.5 13096.1 11724.5 Q13096.1 11754.3 13110.7 11771.7 Q13125.5 11789 13150.7 11789 Q13175.9 11789 13190.5 11771.7 Q13205.4 11754.3 13205.4 11724.5 Q13205.4 11694.5 13190.5 11677.3 Q13175.9 11660.1 13150.7 11660.1 M13225 11542.8 L13225 11576.9 Q13210.9 11570.3 13196.5 11566.7 Q13182.2 11563.2 13168.1 11563.2 Q13131.1 11563.2 13111.5 11588.2 Q13092 11613.2 13089.2 11663.8 Q13100.2 11647.7 13116.6 11639.1 Q13133.1 11630.4 13152.9 11630.4 Q13194.6 11630.4 13218.7 11655.8 Q13242.9 11681 13242.9 11724.5 Q13242.9 11767.1 13217.8 11792.8 Q13192.6 11818.6 13150.7 11818.6 Q13102.8 11818.6 13077.4 11781.9 Q13052 11745.1 13052 11675.3 Q13052 11609.7 13083.1 11570.8 Q13114.2 11531.7 13166.6 11531.7 Q13180.7 11531.7 13195 11534.5 Q13209.4 11537.3 13225 11542.8 Z" fill="#000000" fill-rule="evenodd" fill-opacity="1" /><path clip-path="url(#clip7100)" d="M 0 0 M13315.7 11781.7 L13446.3 11781.7 L13446.3 11813.2 L13270.7 11813.2 L13270.7 11781.7 Q13292 11759.7 13328.7 11722.7 Q13365.5 11685.4 13375 11674.7 Q13392.9 11654.5 13400 11640.6 Q13407.2 11626.5 13407.2 11613 Q13407.2 11591 13391.6 11577.1 Q13376.3 11563.2 13351.5 11563.2 Q13333.9 11563.2 13314.2 11569.3 Q13294.8 11575.4 13272.6 11587.8 L13272.6 11550.1 Q13295.2 11541 13314.8 11536.4 Q13334.4 11531.7 13350.7 11531.7 Q13393.7 11531.7 13419.2 11553.2 Q13444.8 11574.7 13444.8 11610.6 Q13444.8 11627.7 13438.3 11643 Q13432 11658.2 13415.2 11679 Q13410.5 11684.3 13385.7 11710.1 Q13360.9 11735.6 13315.7 11781.7 Z" fill="#000000" fill-rule="evenodd" fill-opacity="1" /><path clip-path="url(#clip7100)" d="M 0 0 M16576.7 11561.4 Q16547.8 11561.4 16533.2 11589.9 Q16518.7 11618.2 16518.7 11675.3 Q16518.7 11732.1 16533.2 11760.6 Q16547.8 11789 16576.7 11789 Q16605.8 11789 16620.2 11760.6 Q16634.8 11732.1 16634.8 11675.3 Q16634.8 11618.2 16620.2 11589.9 Q16605.8 11561.4 16576.7 11561.4 M16576.7 11531.7 Q16623.2 11531.7 16647.6 11568.6 Q16672.2 11605.3 16672.2 11675.3 Q16672.2 11745.1 16647.6 11781.9 Q16623.2 11818.6 16576.7 11818.6 Q16530.2 11818.6 16505.6 11781.9 Q16481.1 11745.1 16481.1 11675.3 Q16481.1 11605.3 16505.6 11568.6 Q16530.2 11531.7 16576.7 11531.7 Z" fill="#000000" fill-rule="evenodd" fill-opacity="1" /><path clip-path="url(#clip7100)" d="M 0 0 M16712.8 11766.2 L16751.9 11766.2 L16751.9 11813.2 L16712.8 11813.2 L16712.8 11766.2 Z" fill="#000000" fill-rule="evenodd" fill-opacity="1" /><path clip-path="url(#clip7100)" d="M 0 0 M16877.1 11660.1 Q16851.9 11660.1 16837.1 11677.3 Q16822.4 11694.5 16822.4 11724.5 Q16822.4 11754.3 16837.1 11771.7 Q16851.9 11789 16877.1 11789 Q16902.2 11789 16916.9 11771.7 Q16931.7 11754.3 16931.7 11724.5 Q16931.7 11694.5 16916.9 11677.3 Q16902.2 11660.1 16877.1 11660.1 M16951.3 11542.8 L16951.3 11576.9 Q16937.2 11570.3 16922.8 11566.7 Q16908.5 11563.2 16894.5 11563.2 Q16857.4 11563.2 16837.8 11588.2 Q16818.4 11613.2 16815.6 11663.8 Q16826.5 11647.7 16843 11639.1 Q16859.5 11630.4 16879.3 11630.4 Q16920.9 11630.4 16945 11655.8 Q16969.3 11681 16969.3 11724.5 Q16969.3 11767.1 16944.1 11792.8 Q16918.9 11818.6 16877.1 11818.6 Q16829.1 11818.6 16803.7 11781.9 Q16778.4 11745.1 16778.4 11675.3 Q16778.4 11609.7 16809.5 11570.8 Q16840.6 11531.7 16893 11531.7 Q16907.1 11531.7 16921.3 11534.5 Q16935.8 11537.3 16951.3 11542.8 Z" fill="#000000" fill-rule="evenodd" fill-opacity="1" /><path clip-path="url(#clip7100)" d="M 0 0 M17112.6 11569.3 L17018.2 11716.9 L17112.6 11716.9 L17112.6 11569.3 M17102.8 11536.7 L17149.8 11536.7 L17149.8 11716.9 L17189.3 11716.9 L17189.3 11748 L17149.8 11748 L17149.8 11813.2 L17112.6 11813.2 L17112.6 11748 L16987.8 11748 L16987.8 11711.9 L17102.8 11536.7 Z" fill="#000000" fill-rule="evenodd" fill-opacity="1" /><path clip-path="url(#clip7100)" d="M 0 0 M1116.01 10977.6 Q1087.12 10977.6 1072.49 11006.1 Q1058.04 11034.4 1058.04 11091.4 Q1058.04 11148.3 1072.49 11176.8 Q1087.12 11205.1 1116.01 11205.1 Q1145.08 11205.1 1159.52 11176.8 Q1174.15 11148.3 1174.15 11091.4 Q1174.15 11034.4 1159.52 11006.1 Q1145.08 10977.6 1116.01 10977.6 M1116.01 10947.9 Q1162.49 10947.9 1186.93 10984.8 Q1211.56 11021.4 1211.56 11091.4 Q1211.56 11161.3 1186.93 11198.1 Q1162.49 11234.8 1116.01 11234.8 Q1069.53 11234.8 1044.9 11198.1 Q1020.45 11161.3 1020.45 11091.4 Q1020.45 11021.4 1044.9 10984.8 Q1069.53 10947.9 1116.01 10947.9 Z" fill="#000000" fill-rule="evenodd" fill-opacity="1" /><path clip-path="url(#clip7100)" d="M 0 0 M1052.3 9360.58 L1113.41 9360.58 L1113.41 9149.65 L1046.93 9162.99 L1046.93 9128.91 L1113.04 9115.58 L1150.45 9115.58 L1150.45 9360.58 L1211.56 9360.58 L1211.56 9392.06 L1052.3 9392.06 L1052.3 9360.58 Z" fill="#000000" fill-rule="evenodd" fill-opacity="1" /><path clip-path="url(#clip7100)" d="M 0 0 M1081.01 7523.23 L1211.56 7523.23 L1211.56 7554.71 L1036.01 7554.71 L1036.01 7523.23 Q1057.3 7501.2 1093.97 7464.16 Q1130.82 7426.94 1140.27 7416.2 Q1158.23 7396.01 1165.27 7382.12 Q1172.49 7368.05 1172.49 7354.53 Q1172.49 7332.49 1156.93 7318.6 Q1141.56 7304.71 1116.75 7304.71 Q1099.15 7304.71 1079.53 7310.83 Q1060.08 7316.94 1037.86 7329.34 L1037.86 7291.57 Q1060.45 7282.49 1080.08 7277.86 Q1099.71 7273.23 1116.01 7273.23 Q1158.97 7273.23 1184.52 7294.71 Q1210.08 7316.2 1210.08 7352.12 Q1210.08 7369.16 1203.6 7384.53 Q1197.3 7399.71 1180.45 7420.46 Q1175.82 7425.83 1151.01 7451.57 Q1126.19 7477.12 1081.01 7523.23 Z" fill="#000000" fill-rule="evenodd" fill-opacity="1" /><path clip-path="url(#clip7100)" d="M 0 0 M1154.52 5568.29 Q1181.38 5574.04 1196.38 5592.18 Q1211.56 5610.33 1211.56 5637 Q1211.56 5677.92 1183.41 5700.33 Q1155.27 5722.74 1103.41 5722.74 Q1086.01 5722.74 1067.49 5719.22 Q1049.16 5715.89 1029.53 5709.03 L1029.53 5672.92 Q1045.08 5682 1063.6 5686.63 Q1082.12 5691.26 1102.3 5691.26 Q1137.49 5691.26 1155.82 5677.37 Q1174.34 5663.48 1174.34 5637 Q1174.34 5612.55 1157.12 5598.85 Q1140.08 5584.96 1109.53 5584.96 L1077.3 5584.96 L1077.3 5554.22 L1111.01 5554.22 Q1138.6 5554.22 1153.23 5543.29 Q1167.86 5532.18 1167.86 5511.44 Q1167.86 5490.15 1152.67 5478.85 Q1137.67 5467.37 1109.53 5467.37 Q1094.15 5467.37 1076.56 5470.7 Q1058.97 5474.04 1037.86 5481.07 L1037.86 5447.74 Q1059.16 5441.81 1077.67 5438.85 Q1096.38 5435.89 1112.86 5435.89 Q1155.45 5435.89 1180.27 5455.33 Q1205.08 5474.59 1205.08 5507.55 Q1205.08 5530.52 1191.93 5546.44 Q1178.78 5562.18 1154.52 5568.29 Z" fill="#000000" fill-rule="evenodd" fill-opacity="1" /><path clip-path="url(#clip7100)" d="M 0 0 M1134.9 3636.13 L1040.45 3783.73 L1134.9 3783.73 L1134.9 3636.13 M1125.08 3603.54 L1172.12 3603.54 L1172.12 3783.73 L1211.56 3783.73 L1211.56 3814.84 L1172.12 3814.84 L1172.12 3880.02 L1134.9 3880.02 L1134.9 3814.84 L1010.08 3814.84 L1010.08 3778.73 L1125.08 3603.54 Z" fill="#000000" fill-rule="evenodd" fill-opacity="1" /><path clip-path="url(#clip7100)" d="M 0 0 M1044.34 1766.2 L1191.19 1766.2 L1191.19 1797.68 L1078.6 1797.68 L1078.6 1865.45 Q1086.75 1862.68 1094.9 1861.38 Q1103.04 1859.9 1111.19 1859.9 Q1157.49 1859.9 1184.52 1885.27 Q1211.56 1910.64 1211.56 1953.97 Q1211.56 1998.6 1183.78 2023.42 Q1156.01 2048.05 1105.45 2048.05 Q1088.04 2048.05 1069.9 2045.08 Q1051.93 2042.12 1032.67 2036.19 L1032.67 1998.6 Q1049.34 2007.68 1067.12 2012.12 Q1084.9 2016.57 1104.71 2016.57 Q1136.75 2016.57 1155.45 1999.71 Q1174.15 1982.86 1174.15 1953.97 Q1174.15 1925.08 1155.45 1908.23 Q1136.75 1891.38 1104.71 1891.38 Q1089.71 1891.38 1074.71 1894.71 Q1059.9 1898.05 1044.34 1905.08 L1044.34 1766.2 Z" fill="#000000" fill-rule="evenodd" fill-opacity="1" /><path clip-path="url(#clip7100)" d="M 0 0 M5843.31 134.036 L5843.31 203.064 Q5810.26 172.277 5772.67 157.045 Q5735.4 141.814 5693.27 141.814 Q5610.31 141.814 5566.23 192.693 Q5522.16 243.249 5522.16 339.174 Q5522.16 434.775 5566.23 485.655 Q5610.31 536.21 5693.27 536.21 Q5735.4 536.21 5772.67 520.979 Q5810.26 505.747 5843.31 474.96 L5843.31 543.34 Q5808.96 566.673 5770.4 578.339 Q5732.16 590.006 5689.38 590.006 Q5579.52 590.006 5516.32 522.923 Q5453.13 455.516 5453.13 339.174 Q5453.13 222.508 5516.32 155.425 Q5579.52 88.018 5689.38 88.018 Q5732.8 88.018 5771.05 99.6847 Q5809.61 111.027 5843.31 134.036 Z" fill="#000000" fill-rule="evenodd" fill-opacity="1" /><path clip-path="url(#clip7100)" d="M 0 0 M6181.64 690.793 L6181.64 737.135 L5836.83 737.135 L5836.83 690.793 L6181.64 690.793 Z" fill="#000000" fill-rule="evenodd" fill-opacity="1" /><path clip-path="url(#clip7100)" d="M 0 0 M6475.58 228.341 L6475.58 284.73 Q6450.3 271.767 6423.08 265.286 Q6395.86 258.804 6366.69 258.804 Q6322.29 258.804 6299.93 272.415 Q6277.89 286.026 6277.89 313.248 Q6277.89 333.989 6293.77 345.98 Q6309.65 357.646 6357.62 368.341 L6378.03 372.878 Q6441.55 386.489 6468.12 411.442 Q6495.02 436.072 6495.02 480.47 Q6495.02 531.025 6454.84 560.516 Q6414.98 590.006 6344.98 590.006 Q6315.81 590.006 6284.05 584.173 Q6252.62 578.664 6217.62 567.321 L6217.62 505.747 Q6250.67 522.923 6282.76 531.673 Q6314.84 540.099 6346.27 540.099 Q6388.4 540.099 6411.09 525.84 Q6433.77 511.257 6433.77 485.007 Q6433.77 460.701 6417.25 447.738 Q6401.04 434.775 6345.63 422.785 L6324.88 417.924 Q6269.47 406.257 6244.84 382.276 Q6220.21 357.97 6220.21 315.841 Q6220.21 264.637 6256.51 236.767 Q6292.8 208.897 6359.56 208.897 Q6392.62 208.897 6421.78 213.758 Q6450.95 218.619 6475.58 228.341 Z" fill="#000000" fill-rule="evenodd" fill-opacity="1" /><path clip-path="url(#clip7100)" d="M 0 0 M6557.57 217.647 L6617.2 217.647 L6617.2 580.608 L6557.57 580.608 L6557.57 217.647 M6557.57 76.3514 L6617.2 76.3514 L6617.2 151.86 L6557.57 151.86 L6557.57 76.3514 Z" fill="#000000" fill-rule="evenodd" fill-opacity="1" /><path clip-path="url(#clip7100)" d="M 0 0 M6738.73 114.592 L6738.73 217.647 L6861.55 217.647 L6861.55 263.989 L6738.73 263.989 L6738.73 461.025 Q6738.73 505.423 6750.72 518.062 Q6763.03 530.701 6800.3 530.701 L6861.55 530.701 L6861.55 580.608 L6800.3 580.608 Q6731.27 580.608 6705.02 555.006 Q6678.77 529.08 6678.77 461.025 L6678.77 263.989 L6635.02 263.989 L6635.02 217.647 L6678.77 217.647 L6678.77 114.592 L6738.73 114.592 Z" fill="#000000" fill-rule="evenodd" fill-opacity="1" /><path clip-path="url(#clip7100)" d="M 0 0 M7234.56 384.22 L7234.56 413.387 L6960.39 413.387 Q6964.28 474.96 6997.34 507.368 Q7030.71 539.451 7090.02 539.451 Q7124.37 539.451 7156.45 531.025 Q7188.86 522.599 7220.62 505.747 L7220.62 562.136 Q7188.54 575.747 7154.83 582.877 Q7121.13 590.006 7086.45 590.006 Q6999.6 590.006 6948.72 539.451 Q6898.17 488.896 6898.17 402.692 Q6898.17 313.572 6946.13 261.397 Q6994.42 208.897 7076.08 208.897 Q7149.32 208.897 7191.78 256.212 Q7234.56 303.202 7234.56 384.22 M7174.93 366.72 Q7174.28 317.785 7147.38 288.619 Q7120.81 259.452 7076.73 259.452 Q7026.83 259.452 6996.69 287.647 Q6966.87 315.841 6962.34 367.044 L7174.93 366.72 Z" fill="#000000" fill-rule="evenodd" fill-opacity="1" /><path clip-path="url(#clip7100)" d="M 0 0 M7523.3 498.294 L7591.68 498.294 L7591.68 580.608 L7523.3 580.608 L7523.3 498.294 M7523.3 237.415 L7591.68 237.415 L7591.68 319.73 L7523.3 319.73 L7523.3 237.415 Z" fill="#000000" fill-rule="evenodd" fill-opacity="1" /><path clip-path="url(#clip7100)" d="M 0 0 M8013.63 350.841 Q7966.96 350.841 7940.06 375.794 Q7913.49 400.748 7913.49 444.498 Q7913.49 488.247 7940.06 513.201 Q7966.96 538.155 8013.63 538.155 Q8060.29 538.155 8087.19 513.201 Q8114.09 487.923 8114.09 444.498 Q8114.09 400.748 8087.19 375.794 Q8060.62 350.841 8013.63 350.841 M7948.16 322.97 Q7906.03 312.6 7882.38 283.758 Q7859.04 254.915 7859.04 213.434 Q7859.04 155.425 7900.2 121.722 Q7941.68 88.018 8013.63 88.018 Q8085.89 88.018 8127.05 121.722 Q8168.21 155.425 8168.21 213.434 Q8168.21 254.915 8144.55 283.758 Q8121.22 312.6 8079.41 322.97 Q8126.73 333.989 8152.98 366.072 Q8179.55 398.155 8179.55 444.498 Q8179.55 514.821 8136.45 552.414 Q8093.67 590.006 8013.63 590.006 Q7933.58 590.006 7890.48 552.414 Q7847.7 514.821 7847.7 444.498 Q7847.7 398.155 7874.27 366.072 Q7900.85 333.989 7948.16 322.97 M7924.18 219.591 Q7924.18 257.184 7947.52 278.249 Q7971.17 299.313 8013.63 299.313 Q8055.76 299.313 8079.41 278.249 Q8103.39 257.184 8103.39 219.591 Q8103.39 181.999 8079.41 160.934 Q8055.76 139.87 8013.63 139.87 Q7971.17 139.87 7947.52 160.934 Q7924.18 181.999 7924.18 219.591 Z" fill="#000000" fill-rule="evenodd" fill-opacity="1" /><path clip-path="url(#clip7100)" d="M 0 0 M8702.6 176.49 L8586.26 239.36 L8702.6 302.554 L8683.81 334.313 L8574.92 268.526 L8574.92 390.702 L8537.97 390.702 L8537.97 268.526 L8429.09 334.313 L8410.29 302.554 L8526.63 239.36 L8410.29 176.49 L8429.09 144.407 L8537.97 210.193 L8537.97 88.018 L8574.92 88.018 L8574.92 210.193 L8683.81 144.407 L8702.6 176.49 Z" fill="#000000" fill-rule="evenodd" fill-opacity="1" /><path clip-path="url(#clip7100)" d="M 0 0 M9124.55 350.841 Q9077.88 350.841 9050.98 375.794 Q9024.41 400.748 9024.41 444.498 Q9024.41 488.247 9050.98 513.201 Q9077.88 538.155 9124.55 538.155 Q9171.21 538.155 9198.11 513.201 Q9225.01 487.923 9225.01 444.498 Q9225.01 400.748 9198.11 375.794 Q9171.54 350.841 9124.55 350.841 M9059.08 322.97 Q9016.95 312.6 8993.3 283.758 Q8969.96 254.915 8969.96 213.434 Q8969.96 155.425 9011.12 121.722 Q9052.6 88.018 9124.55 88.018 Q9196.81 88.018 9237.97 121.722 Q9279.13 155.425 9279.13 213.434 Q9279.13 254.915 9255.47 283.758 Q9232.14 312.6 9190.33 322.97 Q9237.65 333.989 9263.9 366.072 Q9290.47 398.155 9290.47 444.498 Q9290.47 514.821 9247.37 552.414 Q9204.59 590.006 9124.55 590.006 Q9044.5 590.006 9001.4 552.414 Q8958.62 514.821 8958.62 444.498 Q8958.62 398.155 8985.19 366.072 Q9011.77 333.989 9059.08 322.97 M9035.1 219.591 Q9035.1 257.184 9058.44 278.249 Q9082.09 299.313 9124.55 299.313 Q9166.68 299.313 9190.33 278.249 Q9214.31 257.184 9214.31 219.591 Q9214.31 181.999 9190.33 160.934 Q9166.68 139.87 9124.55 139.87 Q9082.09 139.87 9058.44 160.934 Q9035.1 181.999 9035.1 219.591 Z" fill="#000000" fill-rule="evenodd" fill-opacity="1" /><path clip-path="url(#clip7100)" d="M 0 0 M9368.25 498.294 L9436.63 498.294 L9436.63 554.034 L9383.48 657.737 L9341.67 657.737 L9368.25 554.034 L9368.25 498.294 Z" fill="#000000" fill-rule="evenodd" fill-opacity="1" /><path clip-path="url(#clip7100)" d="M 0 0 M9909.12 141.166 Q9837.83 141.166 9795.7 194.314 Q9753.89 247.462 9753.89 339.174 Q9753.89 430.563 9795.7 483.71 Q9837.83 536.858 9909.12 536.858 Q9980.42 536.858 10021.9 483.71 Q10063.7 430.563 10063.7 339.174 Q10063.7 247.462 10021.9 194.314 Q9980.42 141.166 9909.12 141.166 M10000.8 571.858 L10087 666.163 L10008 666.163 L9936.35 588.71 Q9925.65 589.358 9919.82 589.682 Q9914.31 590.006 9909.12 590.006 Q9807.04 590.006 9745.79 521.951 Q9684.87 453.572 9684.87 339.174 Q9684.87 224.453 9745.79 156.397 Q9807.04 88.018 9909.12 88.018 Q10010.9 88.018 10071.8 156.397 Q10132.7 224.453 10132.7 339.174 Q10132.7 423.433 10098.7 483.386 Q10065 543.34 10000.8 571.858 Z" fill="#000000" fill-rule="evenodd" fill-opacity="1" /><path clip-path="url(#clip7100)" d="M 0 0 M10414 279.221 L10829.5 279.221 L10829.5 333.665 L10414 333.665 L10414 279.221 M10414 411.442 L10829.5 411.442 L10829.5 466.535 L10414 466.535 L10414 411.442 Z" fill="#000000" fill-rule="evenodd" fill-opacity="1" /><path clip-path="url(#clip7100)" d="M 0 0 M11122.8 525.516 L11229.7 525.516 L11229.7 156.397 L11113.4 179.731 L11113.4 120.101 L11229.1 96.768 L11294.5 96.768 L11294.5 525.516 L11401.5 525.516 L11401.5 580.608 L11122.8 580.608 L11122.8 525.516 Z" fill="#000000" fill-rule="evenodd" fill-opacity="1" /><path clip-path="url(#clip7100)" d="M 0 0 M11620.6 312.6 Q11576.5 312.6 11550.6 342.739 Q11524.9 372.878 11524.9 425.377 Q11524.9 477.553 11550.6 508.016 Q11576.5 538.155 11620.6 538.155 Q11664.6 538.155 11690.2 508.016 Q11716.2 477.553 11716.2 425.377 Q11716.2 372.878 11690.2 342.739 Q11664.6 312.6 11620.6 312.6 M11750.5 107.462 L11750.5 167.092 Q11725.9 155.425 11700.6 149.268 Q11675.6 143.11 11651 143.11 Q11586.2 143.11 11551.8 186.86 Q11517.8 230.61 11513 319.082 Q11532.1 290.887 11560.9 275.98 Q11589.8 260.749 11624.4 260.749 Q11697.4 260.749 11739.5 305.147 Q11781.9 349.22 11781.9 425.377 Q11781.9 499.914 11737.9 544.96 Q11693.8 590.006 11620.6 590.006 Q11536.6 590.006 11492.2 525.84 Q11447.8 461.349 11447.8 339.174 Q11447.8 224.453 11502.3 156.397 Q11556.7 88.018 11648.4 88.018 Q11673.1 88.018 11698 92.8791 Q11723.3 97.7402 11750.5 107.462 Z" fill="#000000" fill-rule="evenodd" fill-opacity="1" /><path clip-path="url(#clip7100)" d="M 0 0 M11859.7 498.294 L11928.1 498.294 L11928.1 554.034 L11874.9 657.737 L11833.1 657.737 L11859.7 554.034 L11859.7 498.294 Z" fill="#000000" fill-rule="evenodd" fill-opacity="1" /><path clip-path="url(#clip7100)" d="M 0 0 M12204.2 96.768 L12269.7 96.768 L12269.7 546.904 Q12269.7 634.404 12236.3 673.941 Q12203.2 713.478 12129.7 713.478 L12104.7 713.478 L12104.7 658.385 L12125.1 658.385 Q12168.6 658.385 12186.4 634.08 Q12204.2 609.775 12204.2 546.904 L12204.2 96.768 Z" fill="#000000" fill-rule="evenodd" fill-opacity="1" /><path clip-path="url(#clip7100)" d="M 0 0 M12608 690.793 L12608 737.135 L12263.2 737.135 L12263.2 690.793 L12608 690.793 Z" fill="#000000" fill-rule="evenodd" fill-opacity="1" /><path clip-path="url(#clip7100)" d="M 0 0 M12819 139.87 Q12768.4 139.87 12742.8 189.777 Q12717.5 239.36 12717.5 339.174 Q12717.5 438.664 12742.8 488.571 Q12768.4 538.155 12819 538.155 Q12869.8 538.155 12895.1 488.571 Q12920.7 438.664 12920.7 339.174 Q12920.7 239.36 12895.1 189.777 Q12869.8 139.87 12819 139.87 M12819 88.018 Q12900.3 88.018 12943.1 152.508 Q12986.2 216.675 12986.2 339.174 Q12986.2 461.349 12943.1 525.84 Q12900.3 590.006 12819 590.006 Q12737.6 590.006 12694.5 525.84 Q12651.7 461.349 12651.7 339.174 Q12651.7 216.675 12694.5 152.508 Q12737.6 88.018 12819 88.018 Z" fill="#000000" fill-rule="evenodd" fill-opacity="1" /><path clip-path="url(#clip7100)" d="M 0 0 M13267.5 279.221 L13682.9 279.221 L13682.9 333.665 L13267.5 333.665 L13267.5 279.221 M13267.5 411.442 L13682.9 411.442 L13682.9 466.535 L13267.5 466.535 L13267.5 411.442 Z" fill="#000000" fill-rule="evenodd" fill-opacity="1" /><path clip-path="url(#clip7100)" d="M 0 0 M13976.2 525.516 L14083.2 525.516 L14083.2 156.397 L13966.8 179.731 L13966.8 120.101 L14082.5 96.768 L14148 96.768 L14148 525.516 L14254.9 525.516 L14254.9 580.608 L13976.2 580.608 L13976.2 525.516 Z" fill="#000000" fill-rule="evenodd" fill-opacity="1" /><path clip-path="url(#clip7100)" d="M 0 0 M14325.9 498.294 L14394.3 498.294 L14394.3 580.608 L14325.9 580.608 L14325.9 498.294 Z" fill="#000000" fill-rule="evenodd" fill-opacity="1" /><path clip-path="url(#clip7100)" d="M 0 0 M14605.3 139.87 Q14554.7 139.87 14529.1 189.777 Q14503.8 239.36 14503.8 339.174 Q14503.8 438.664 14529.1 488.571 Q14554.7 538.155 14605.3 538.155 Q14656.1 538.155 14681.4 488.571 Q14707 438.664 14707 339.174 Q14707 239.36 14681.4 189.777 Q14656.1 139.87 14605.3 139.87 M14605.3 88.018 Q14686.6 88.018 14729.4 152.508 Q14772.5 216.675 14772.5 339.174 Q14772.5 461.349 14729.4 525.84 Q14686.6 590.006 14605.3 590.006 Q14523.9 590.006 14480.8 525.84 Q14438 461.349 14438 339.174 Q14438 216.675 14480.8 152.508 Q14523.9 88.018 14605.3 88.018 Z" fill="#000000" fill-rule="evenodd" fill-opacity="1" /><path clip-path="url(#clip7100)" d="M 0 0 M9952.01 12068.2 L10273.6 12068.2 L10273.6 12111.5 L10138.6 12111.5 L10138.6 12448.4 L10087 12448.4 L10087 12111.5 L9952.01 12111.5 L9952.01 12068.2 Z" fill="#000000" fill-rule="evenodd" fill-opacity="1" /><path clip-path="url(#clip7100)" d="M 0 0 M353.156 6579.88 L407.391 6579.88 Q383.202 6605.85 371.234 6635.39 Q359.267 6664.67 359.267 6697.77 Q359.267 6762.96 399.243 6797.59 Q438.965 6832.22 514.335 6832.22 Q589.451 6832.22 629.427 6797.59 Q669.149 6762.96 669.149 6697.77 Q669.149 6664.67 657.182 6635.39 Q645.214 6605.85 621.024 6579.88 L674.751 6579.88 Q693.084 6606.87 702.251 6637.17 Q711.417 6667.22 711.417 6700.83 Q711.417 6787.15 658.709 6836.8 Q605.747 6886.45 514.335 6886.45 Q422.669 6886.45 369.961 6836.8 Q316.998 6787.15 316.998 6700.83 Q316.998 6666.71 326.165 6636.66 Q335.077 6606.36 353.156 6579.88 Z" fill="#000000" fill-rule="evenodd" fill-opacity="1" /><path clip-path="url(#clip7100)" d="M 0 0 M790.607 6314.05 L827.019 6314.05 L827.019 6584.97 L790.607 6584.97 L790.607 6314.05 Z" fill="#000000" fill-rule="evenodd" fill-opacity="1" /><path clip-path="url(#clip7100)" d="M 0 0 M427.252 6083.1 L471.558 6083.1 Q461.373 6102.96 456.28 6124.35 Q451.187 6145.74 451.187 6168.66 Q451.187 6203.54 461.882 6221.11 Q472.576 6238.42 493.965 6238.42 Q510.261 6238.42 519.682 6225.95 Q528.849 6213.47 537.252 6175.79 L540.817 6159.74 Q551.511 6109.84 571.117 6088.96 Q590.469 6067.82 625.353 6067.82 Q665.075 6067.82 688.246 6099.4 Q711.417 6130.72 711.417 6185.72 Q711.417 6208.63 706.834 6233.59 Q702.505 6258.29 693.594 6285.79 L645.214 6285.79 Q658.709 6259.81 665.584 6234.61 Q672.205 6209.4 672.205 6184.7 Q672.205 6151.6 661.001 6133.77 Q649.543 6115.95 628.918 6115.95 Q609.821 6115.95 599.636 6128.93 Q589.451 6141.67 580.029 6185.21 L576.21 6201.5 Q567.043 6245.05 548.201 6264.4 Q529.104 6283.75 496.002 6283.75 Q455.771 6283.75 433.873 6255.23 Q411.975 6226.71 411.975 6174.26 Q411.975 6148.29 415.794 6125.37 Q419.613 6102.45 427.252 6083.1 Z" fill="#000000" fill-rule="evenodd" fill-opacity="1" /><path clip-path="url(#clip7100)" d="M 0 0 M418.85 6018.68 L418.85 5971.83 L704.033 5971.83 L704.033 6018.68 L418.85 6018.68 M307.832 6018.68 L307.832 5971.83 L367.16 5971.83 L367.16 6018.68 L307.832 6018.68 Z" fill="#000000" fill-rule="evenodd" fill-opacity="1" /><path clip-path="url(#clip7100)" d="M 0 0 M337.878 5876.34 L418.85 5876.34 L418.85 5779.84 L455.261 5779.84 L455.261 5876.34 L610.075 5876.34 Q644.96 5876.34 654.89 5866.92 Q664.821 5857.25 664.821 5827.96 L664.821 5779.84 L704.033 5779.84 L704.033 5827.96 Q704.033 5882.2 683.918 5902.82 Q663.547 5923.45 610.075 5923.45 L455.261 5923.45 L455.261 5957.82 L418.85 5957.82 L418.85 5923.45 L337.878 5923.45 L337.878 5876.34 Z" fill="#000000" fill-rule="evenodd" fill-opacity="1" /><path clip-path="url(#clip7100)" d="M 0 0 M549.729 5486.76 L572.645 5486.76 L572.645 5702.18 Q621.024 5699.12 646.487 5673.15 Q671.695 5646.92 671.695 5600.33 Q671.695 5573.34 665.075 5548.13 Q658.455 5522.66 645.214 5497.71 L689.519 5497.71 Q700.214 5522.92 705.816 5549.4 Q711.417 5575.88 711.417 5603.13 Q711.417 5671.37 671.695 5711.34 Q631.973 5751.07 564.242 5751.07 Q494.22 5751.07 453.224 5713.38 Q411.975 5675.44 411.975 5611.28 Q411.975 5553.73 449.15 5520.37 Q486.071 5486.76 549.729 5486.76 M535.979 5533.61 Q497.53 5534.12 474.613 5555.26 Q451.697 5576.14 451.697 5610.77 Q451.697 5649.98 473.849 5673.66 Q496.002 5697.09 536.233 5700.65 L535.979 5533.61 Z" fill="#000000" fill-rule="evenodd" fill-opacity="1" /><polyline clip-path="url(#clip7102)" style="stroke:#009af9; stroke-width:32; stroke-opacity:1; fill:none" points="
  1896.54,11091.2 2231.9,11084 2567.25,11085.7 2902.61,11086 3237.97,11087.5 3573.33,11084.1 3908.68,11083.4 4244.04,11066.7 4579.4,11064.8 4914.76,11064 
  5250.12,11080.9 5585.47,11061.8 5920.83,10997.7 6256.19,10944.4 6591.55,11022.9 6926.91,11019.1 7262.26,10999.2 7597.62,11030.6 7932.98,10929.9 8268.34,10944.1 
  8603.69,10940.7 8939.05,10922.6 9274.41,10885.3 9609.77,10810.1 9945.13,10828.3 10280.5,10687.1 10615.8,10744 10951.2,10641.7 11286.6,10736.9 11621.9,10644.7 
  11957.3,10547.8 12292.6,10293.1 12628,10427.3 12963.3,10196.2 13298.7,10481.8 13634.1,10092.3 13969.4,10185.9 14304.8,10041.6 14640.1,9950.91 14975.5,9721.4 
  15310.9,9586.91 15646.2,8985.69 15981.6,9364.62 16316.9,9323.12 16652.3,9037.74 16987.6,8973.12 17323,8218.8 17658.4,7315.13 17993.7,6016.08 18329.1,6737.35 
  
  "/>
<polyline clip-path="url(#clip7102)" style="stroke:#e26f46; stroke-width:32; stroke-opacity:1; fill:none" points="
  1896.54,11068.6 2231.9,11068.6 2567.25,11060.7 2902.61,11069.3 3237.97,11064 3573.33,11070.6 3908.68,11060 4244.04,10996 4579.4,11004.2 4914.76,10976.2 
  5250.12,10983.2 5585.47,11022.4 5920.83,10962.2 6256.19,10966.4 6591.55,11016.9 6926.91,10900.6 7262.26,10945.7 7597.62,10859.4 7932.98,10825.1 8268.34,10719.4 
  8603.69,10836.6 8939.05,10738.1 9274.41,10509 9609.77,10623.2 9945.13,10630.8 10280.5,10691 10615.8,10518.9 10951.2,10505.6 11286.6,10282.1 11621.9,10197.5 
  11957.3,10063 12292.6,9977.2 12628,10010.7 12963.3,9576.91 13298.7,9797.39 13634.1,9882.58 13969.4,9676.41 14304.8,9462.15 14640.1,8276.88 14975.5,9050.51 
  15310.9,8047.05 15646.2,7751.62 15981.6,7838.3 16316.9,7947.46 16652.3,7521.9 16987.6,3003.12 17323,1958.63 17658.4,4232.91 17993.7,1361.84 18329.1,1282.05 
  
  "/>
<polyline clip-path="url(#clip7102)" style="stroke:#3da44d; stroke-width:32; stroke-opacity:1; fill:none" points="
  1896.54,11008.6 2231.9,10906.9 2567.25,10896.5 2902.61,10931.3 3237.97,10867.9 3573.33,10898.4 3908.68,10716.3 4244.04,10786.5 4579.4,10411.4 4914.76,10731.8 
  5250.12,10728.9 5585.47,10639.1 5920.83,10528.9 6256.19,10602.6 6591.55,10542.8 6926.91,10351.5 7262.26,10453.7 7597.62,10257 7932.98,9547.53 8268.34,9079.07 
  8603.69,9351.97 8939.05,8333.79 9274.41,9145.87 9609.77,8353.78 9945.13,8676.07 10280.5,8522.45 10615.8,8740.89 10951.2,8007.76 11286.6,7732.1 11621.9,8902.44 
  11957.3,7661.72 12292.6,6536.71 12628,7752.44 12963.3,6512.79 13298.7,6458.55 13634.1,5965.5 13969.4,6272.74 14304.8,5261.56 14640.1,5856.94 14975.5,5537.56 
  15310.9,5983.7 15646.2,5623.52 15981.6,5109.32 16316.9,5618.94 16652.3,3469.06 16987.6,5075.32 17323,4561.95 17658.4,5351.48 17993.7,5617.71 18329.1,5739.48 
  
  "/>
<polyline clip-path="url(#clip7102)" style="stroke:#c271d2; stroke-width:32; stroke-opacity:1; fill:none" points="
  1896.54,9136.92 2231.9,9413.6 2567.25,9475.82 2902.61,9346.11 3237.97,9330.77 3573.33,9620.77 3908.68,9717.85 4244.04,9848.26 4579.4,9856.88 4914.76,9960.41 
  5250.12,9786.77 5585.47,9764.78 5920.83,9851.75 6256.19,9839.1 6591.55,9899.01 6926.91,9748.06 7262.26,10057.2 7597.62,9965.43 7932.98,9941.59 8268.34,9825.77 
  8603.69,9865.63 8939.05,9850.56 9274.41,9715.68 9609.77,9872.09 9945.13,9742.96 10280.5,9894.11 10615.8,9698.58 10951.2,9586.61 11286.6,9384.67 11621.9,9582.01 
  11957.3,9509.81 12292.6,9540.13 12628,9458.48 12963.3,9340.78 13298.7,9226.02 13634.1,9267.86 13969.4,9163.77 14304.8,9186.39 14640.1,9175.4 14975.5,8896.28 
  15310.9,8888.47 15646.2,8675.99 15981.6,8710.46 16316.9,8455.77 16652.3,8425.21 16987.6,8558.63 17323,8658.83 17658.4,8242.13 17993.7,7928.52 18329.1,8172.79 
  
  "/>
<polyline clip-path="url(#clip7102)" style="stroke:#ac8d18; stroke-width:32; stroke-opacity:1; fill:none" points="
  1896.54,10867 2231.9,10789.9 2567.25,10795.3 2902.61,10837.3 3237.97,10816.3 3573.33,10772.8 3908.68,10764 4244.04,10739.2 4579.4,10761.7 4914.76,10779 
  5250.12,10701.4 5585.47,10707 5920.83,10625.2 6256.19,10678.8 6591.55,10601.7 6926.91,10613.5 7262.26,10625.6 7597.62,10524.3 7932.98,10528.7 8268.34,10574.6 
  8603.69,10570.5 8939.05,10490.6 9274.41,10425.9 9609.77,10471.1 9945.13,10393.7 10280.5,10371.5 10615.8,10318.3 10951.2,10367.8 11286.6,10349.3 11621.9,10258.2 
  11957.3,10193.6 12292.6,10172.4 12628,10055.2 12963.3,10149.4 13298.7,10037.5 13634.1,9933.98 13969.4,9966.97 14304.8,9966.35 14640.1,9965.24 14975.5,9791.3 
  15310.9,9810.29 15646.2,9706.51 15981.6,9807.45 16316.9,9813.89 16652.3,9804.48 16987.6,9660.65 17323,9733.61 17658.4,9516.13 17993.7,9426.97 18329.1,9469.5 
  
  "/>
<path clip-path="url(#clip7100)" d="
M1979.56 4558.98 L5431.59 4558.98 L5431.59 1655.94 L1979.56 1655.94  Z
  " fill="#ffffff" fill-rule="evenodd" fill-opacity="1"/>
<polyline clip-path="url(#clip7100)" style="stroke:#000000; stroke-width:32; stroke-opacity:1; fill:none" points="
  1979.56,4558.98 5431.59,4558.98 5431.59,1655.94 1979.56,1655.94 1979.56,4558.98 
  "/>
<polyline clip-path="url(#clip7100)" style="stroke:#009af9; stroke-width:32; stroke-opacity:1; fill:none" points="
  2171.56,2139.78 3323.56,2139.78 
  "/>
<path clip-path="url(#clip7100)" d="M 0 0 M3572.41 2001.54 L3609.82 2001.54 L3609.82 2258.76 Q3609.82 2308.76 3590.75 2331.35 Q3571.86 2353.94 3529.82 2353.94 L3515.56 2353.94 L3515.56 2322.46 L3527.23 2322.46 Q3552.04 2322.46 3562.23 2308.57 Q3572.41 2294.68 3572.41 2258.76 L3572.41 2001.54 Z" fill="#000000" fill-rule="evenodd" fill-opacity="1" /><path clip-path="url(#clip7100)" d="M 0 0 M3656.86 2246.54 L3717.97 2246.54 L3717.97 2035.61 L3651.49 2048.94 L3651.49 2014.87 L3717.6 2001.54 L3755 2001.54 L3755 2246.54 L3816.12 2246.54 L3816.12 2278.02 L3656.86 2278.02 L3656.86 2246.54 Z" fill="#000000" fill-rule="evenodd" fill-opacity="1" /><path clip-path="url(#clip7100)" d="M 0 0 M3976.86 2105.8 L4214.26 2105.8 L4214.26 2136.91 L3976.86 2136.91 L3976.86 2105.8 M3976.86 2181.35 L4214.26 2181.35 L4214.26 2212.83 L3976.86 2212.83 L3976.86 2181.35 Z" fill="#000000" fill-rule="evenodd" fill-opacity="1" /><path clip-path="url(#clip7100)" d="M 0 0 M4455.37 2026.17 Q4426.48 2026.17 4411.85 2054.68 Q4397.41 2083.02 4397.41 2140.05 Q4397.41 2196.91 4411.85 2225.42 Q4426.48 2253.76 4455.37 2253.76 Q4484.45 2253.76 4498.89 2225.42 Q4513.52 2196.91 4513.52 2140.05 Q4513.52 2083.02 4498.89 2054.68 Q4484.45 2026.17 4455.37 2026.17 M4455.37 1996.54 Q4501.85 1996.54 4526.3 2033.39 Q4550.93 2070.06 4550.93 2140.05 Q4550.93 2209.87 4526.3 2246.72 Q4501.85 2283.39 4455.37 2283.39 Q4408.89 2283.39 4384.26 2246.72 Q4359.82 2209.87 4359.82 2140.05 Q4359.82 2070.06 4384.26 2033.39 Q4408.89 1996.54 4455.37 1996.54 Z" fill="#000000" fill-rule="evenodd" fill-opacity="1" /><path clip-path="url(#clip7100)" d="M 0 0 M4591.48 2230.98 L4630.56 2230.98 L4630.56 2278.02 L4591.48 2278.02 L4591.48 2230.98 Z" fill="#000000" fill-rule="evenodd" fill-opacity="1" /><path clip-path="url(#clip7100)" d="M 0 0 M4751.11 2026.17 Q4722.22 2026.17 4707.59 2054.68 Q4693.15 2083.02 4693.15 2140.05 Q4693.15 2196.91 4707.59 2225.42 Q4722.22 2253.76 4751.11 2253.76 Q4780.18 2253.76 4794.63 2225.42 Q4809.26 2196.91 4809.26 2140.05 Q4809.26 2083.02 4794.63 2054.68 Q4780.18 2026.17 4751.11 2026.17 M4751.11 1996.54 Q4797.59 1996.54 4822.04 2033.39 Q4846.67 2070.06 4846.67 2140.05 Q4846.67 2209.87 4822.04 2246.72 Q4797.59 2283.39 4751.11 2283.39 Q4704.63 2283.39 4680 2246.72 Q4655.56 2209.87 4655.56 2140.05 Q4655.56 2070.06 4680 2033.39 Q4704.63 1996.54 4751.11 1996.54 Z" fill="#000000" fill-rule="evenodd" fill-opacity="1" /><polyline clip-path="url(#clip7100)" style="stroke:#e26f46; stroke-width:32; stroke-opacity:1; fill:none" points="
  2171.56,2623.62 3323.56,2623.62 
  "/>
<path clip-path="url(#clip7100)" d="M 0 0 M3572.41 2485.38 L3609.82 2485.38 L3609.82 2742.6 Q3609.82 2792.6 3590.75 2815.19 Q3571.86 2837.78 3529.82 2837.78 L3515.56 2837.78 L3515.56 2806.3 L3527.23 2806.3 Q3552.04 2806.3 3562.23 2792.41 Q3572.41 2778.52 3572.41 2742.6 L3572.41 2485.38 Z" fill="#000000" fill-rule="evenodd" fill-opacity="1" /><path clip-path="url(#clip7100)" d="M 0 0 M3656.86 2730.38 L3717.97 2730.38 L3717.97 2519.45 L3651.49 2532.78 L3651.49 2498.71 L3717.6 2485.38 L3755 2485.38 L3755 2730.38 L3816.12 2730.38 L3816.12 2761.86 L3656.86 2761.86 L3656.86 2730.38 Z" fill="#000000" fill-rule="evenodd" fill-opacity="1" /><path clip-path="url(#clip7100)" d="M 0 0 M3976.86 2589.64 L4214.26 2589.64 L4214.26 2620.75 L3976.86 2620.75 L3976.86 2589.64 M3976.86 2665.19 L4214.26 2665.19 L4214.26 2696.67 L3976.86 2696.67 L3976.86 2665.19 Z" fill="#000000" fill-rule="evenodd" fill-opacity="1" /><path clip-path="url(#clip7100)" d="M 0 0 M4455.37 2510.01 Q4426.48 2510.01 4411.85 2538.52 Q4397.41 2566.86 4397.41 2623.89 Q4397.41 2680.75 4411.85 2709.26 Q4426.48 2737.6 4455.37 2737.6 Q4484.45 2737.6 4498.89 2709.26 Q4513.52 2680.75 4513.52 2623.89 Q4513.52 2566.86 4498.89 2538.52 Q4484.45 2510.01 4455.37 2510.01 M4455.37 2480.38 Q4501.85 2480.38 4526.3 2517.23 Q4550.93 2553.9 4550.93 2623.89 Q4550.93 2693.71 4526.3 2730.56 Q4501.85 2767.23 4455.37 2767.23 Q4408.89 2767.23 4384.26 2730.56 Q4359.82 2693.71 4359.82 2623.89 Q4359.82 2553.9 4384.26 2517.23 Q4408.89 2480.38 4455.37 2480.38 Z" fill="#000000" fill-rule="evenodd" fill-opacity="1" /><path clip-path="url(#clip7100)" d="M 0 0 M4591.48 2714.82 L4630.56 2714.82 L4630.56 2761.86 L4591.48 2761.86 L4591.48 2714.82 Z" fill="#000000" fill-rule="evenodd" fill-opacity="1" /><path clip-path="url(#clip7100)" d="M 0 0 M4703.33 2730.38 L4833.89 2730.38 L4833.89 2761.86 L4658.33 2761.86 L4658.33 2730.38 Q4679.63 2708.34 4716.3 2671.3 Q4753.15 2634.08 4762.59 2623.34 Q4780.55 2603.15 4787.59 2589.27 Q4794.81 2575.19 4794.81 2561.67 Q4794.81 2539.64 4779.26 2525.75 Q4763.89 2511.86 4739.07 2511.86 Q4721.48 2511.86 4701.85 2517.97 Q4682.41 2524.08 4660.19 2536.49 L4660.19 2498.71 Q4682.78 2489.64 4702.41 2485.01 Q4722.04 2480.38 4738.33 2480.38 Q4781.3 2480.38 4806.85 2501.86 Q4832.41 2523.34 4832.41 2559.27 Q4832.41 2576.3 4825.93 2591.67 Q4819.63 2606.86 4802.78 2627.6 Q4798.15 2632.97 4773.33 2658.71 Q4748.52 2684.26 4703.33 2730.38 Z" fill="#000000" fill-rule="evenodd" fill-opacity="1" /><path clip-path="url(#clip7100)" d="M 0 0 M4874.81 2485.38 L5021.66 2485.38 L5021.66 2516.86 L4909.07 2516.86 L4909.07 2584.64 Q4917.22 2581.86 4925.37 2580.56 Q4933.52 2579.08 4941.67 2579.08 Q4987.96 2579.08 5015 2604.45 Q5042.03 2629.82 5042.03 2673.15 Q5042.03 2717.78 5014.26 2742.6 Q4986.48 2767.23 4935.92 2767.23 Q4918.52 2767.23 4900.37 2764.26 Q4882.41 2761.3 4863.15 2755.38 L4863.15 2717.78 Q4879.81 2726.86 4897.59 2731.3 Q4915.37 2735.75 4935.18 2735.75 Q4967.22 2735.75 4985.92 2718.89 Q5004.63 2702.04 5004.63 2673.15 Q5004.63 2644.27 4985.92 2627.41 Q4967.22 2610.56 4935.18 2610.56 Q4920.18 2610.56 4905.18 2613.89 Q4890.37 2617.23 4874.81 2624.27 L4874.81 2485.38 Z" fill="#000000" fill-rule="evenodd" fill-opacity="1" /><polyline clip-path="url(#clip7100)" style="stroke:#3da44d; stroke-width:32; stroke-opacity:1; fill:none" points="
  2171.56,3107.46 3323.56,3107.46 
  "/>
<path clip-path="url(#clip7100)" d="M 0 0 M3572.41 2969.22 L3609.82 2969.22 L3609.82 3226.44 Q3609.82 3276.44 3590.75 3299.03 Q3571.86 3321.62 3529.82 3321.62 L3515.56 3321.62 L3515.56 3290.14 L3527.23 3290.14 Q3552.04 3290.14 3562.23 3276.25 Q3572.41 3262.36 3572.41 3226.44 L3572.41 2969.22 Z" fill="#000000" fill-rule="evenodd" fill-opacity="1" /><path clip-path="url(#clip7100)" d="M 0 0 M3656.86 3214.22 L3717.97 3214.22 L3717.97 3003.29 L3651.49 3016.62 L3651.49 2982.55 L3717.6 2969.22 L3755 2969.22 L3755 3214.22 L3816.12 3214.22 L3816.12 3245.7 L3656.86 3245.7 L3656.86 3214.22 Z" fill="#000000" fill-rule="evenodd" fill-opacity="1" /><path clip-path="url(#clip7100)" d="M 0 0 M3976.86 3073.48 L4214.26 3073.48 L4214.26 3104.59 L3976.86 3104.59 L3976.86 3073.48 M3976.86 3149.03 L4214.26 3149.03 L4214.26 3180.51 L3976.86 3180.51 L3976.86 3149.03 Z" fill="#000000" fill-rule="evenodd" fill-opacity="1" /><path clip-path="url(#clip7100)" d="M 0 0 M4455.37 2993.85 Q4426.48 2993.85 4411.85 3022.36 Q4397.41 3050.7 4397.41 3107.73 Q4397.41 3164.59 4411.85 3193.1 Q4426.48 3221.44 4455.37 3221.44 Q4484.45 3221.44 4498.89 3193.1 Q4513.52 3164.59 4513.52 3107.73 Q4513.52 3050.7 4498.89 3022.36 Q4484.45 2993.85 4455.37 2993.85 M4455.37 2964.22 Q4501.85 2964.22 4526.3 3001.07 Q4550.93 3037.74 4550.93 3107.73 Q4550.93 3177.55 4526.3 3214.4 Q4501.85 3251.07 4455.37 3251.07 Q4408.89 3251.07 4384.26 3214.4 Q4359.82 3177.55 4359.82 3107.73 Q4359.82 3037.74 4384.26 3001.07 Q4408.89 2964.22 4455.37 2964.22 Z" fill="#000000" fill-rule="evenodd" fill-opacity="1" /><path clip-path="url(#clip7100)" d="M 0 0 M4591.48 3198.66 L4630.56 3198.66 L4630.56 3245.7 L4591.48 3245.7 L4591.48 3198.66 Z" fill="#000000" fill-rule="evenodd" fill-opacity="1" /><path clip-path="url(#clip7100)" d="M 0 0 M4671.48 2969.22 L4818.33 2969.22 L4818.33 3000.7 L4705.74 3000.7 L4705.74 3068.48 Q4713.89 3065.7 4722.04 3064.4 Q4730.18 3062.92 4738.33 3062.92 Q4784.63 3062.92 4811.67 3088.29 Q4838.7 3113.66 4838.7 3156.99 Q4838.7 3201.62 4810.93 3226.44 Q4783.15 3251.07 4732.59 3251.07 Q4715.18 3251.07 4697.04 3248.1 Q4679.07 3245.14 4659.81 3239.22 L4659.81 3201.62 Q4676.48 3210.7 4694.26 3215.14 Q4712.04 3219.59 4731.85 3219.59 Q4763.89 3219.59 4782.59 3202.73 Q4801.3 3185.88 4801.3 3156.99 Q4801.3 3128.11 4782.59 3111.25 Q4763.89 3094.4 4731.85 3094.4 Q4716.85 3094.4 4701.85 3097.73 Q4687.04 3101.07 4671.48 3108.11 L4671.48 2969.22 Z" fill="#000000" fill-rule="evenodd" fill-opacity="1" /><polyline clip-path="url(#clip7100)" style="stroke:#c271d2; stroke-width:32; stroke-opacity:1; fill:none" points="
  2171.56,3591.3 3323.56,3591.3 
  "/>
<path clip-path="url(#clip7100)" d="M 0 0 M3572.41 3453.06 L3609.82 3453.06 L3609.82 3710.28 Q3609.82 3760.28 3590.75 3782.87 Q3571.86 3805.46 3529.82 3805.46 L3515.56 3805.46 L3515.56 3773.98 L3527.23 3773.98 Q3552.04 3773.98 3562.23 3760.09 Q3572.41 3746.2 3572.41 3710.28 L3572.41 3453.06 Z" fill="#000000" fill-rule="evenodd" fill-opacity="1" /><path clip-path="url(#clip7100)" d="M 0 0 M3656.86 3698.06 L3717.97 3698.06 L3717.97 3487.13 L3651.49 3500.46 L3651.49 3466.39 L3717.6 3453.06 L3755 3453.06 L3755 3698.06 L3816.12 3698.06 L3816.12 3729.54 L3656.86 3729.54 L3656.86 3698.06 Z" fill="#000000" fill-rule="evenodd" fill-opacity="1" /><path clip-path="url(#clip7100)" d="M 0 0 M3976.86 3557.32 L4214.26 3557.32 L4214.26 3588.43 L3976.86 3588.43 L3976.86 3557.32 M3976.86 3632.87 L4214.26 3632.87 L4214.26 3664.35 L3976.86 3664.35 L3976.86 3632.87 Z" fill="#000000" fill-rule="evenodd" fill-opacity="1" /><path clip-path="url(#clip7100)" d="M 0 0 M4455.37 3477.69 Q4426.48 3477.69 4411.85 3506.2 Q4397.41 3534.54 4397.41 3591.57 Q4397.41 3648.43 4411.85 3676.94 Q4426.48 3705.28 4455.37 3705.28 Q4484.45 3705.28 4498.89 3676.94 Q4513.52 3648.43 4513.52 3591.57 Q4513.52 3534.54 4498.89 3506.2 Q4484.45 3477.69 4455.37 3477.69 M4455.37 3448.06 Q4501.85 3448.06 4526.3 3484.91 Q4550.93 3521.58 4550.93 3591.57 Q4550.93 3661.39 4526.3 3698.24 Q4501.85 3734.91 4455.37 3734.91 Q4408.89 3734.91 4384.26 3698.24 Q4359.82 3661.39 4359.82 3591.57 Q4359.82 3521.58 4384.26 3484.91 Q4408.89 3448.06 4455.37 3448.06 Z" fill="#000000" fill-rule="evenodd" fill-opacity="1" /><path clip-path="url(#clip7100)" d="M 0 0 M4591.48 3682.5 L4630.56 3682.5 L4630.56 3729.54 L4591.48 3729.54 L4591.48 3682.5 Z" fill="#000000" fill-rule="evenodd" fill-opacity="1" /><path clip-path="url(#clip7100)" d="M 0 0 M4661.67 3453.06 L4839.44 3453.06 L4839.44 3468.98 L4739.07 3729.54 L4700 3729.54 L4794.44 3484.54 L4661.67 3484.54 L4661.67 3453.06 Z" fill="#000000" fill-rule="evenodd" fill-opacity="1" /><path clip-path="url(#clip7100)" d="M 0 0 M4880.37 3453.06 L5027.22 3453.06 L5027.22 3484.54 L4914.63 3484.54 L4914.63 3552.32 Q4922.78 3549.54 4930.92 3548.24 Q4939.07 3546.76 4947.22 3546.76 Q4993.52 3546.76 5020.55 3572.13 Q5047.59 3597.5 5047.59 3640.83 Q5047.59 3685.46 5019.81 3710.28 Q4992.04 3734.91 4941.48 3734.91 Q4924.07 3734.91 4905.92 3731.94 Q4887.96 3728.98 4868.7 3723.06 L4868.7 3685.46 Q4885.37 3694.54 4903.15 3698.98 Q4920.92 3703.43 4940.74 3703.43 Q4972.78 3703.43 4991.48 3686.57 Q5010.18 3669.72 5010.18 3640.83 Q5010.18 3611.95 4991.48 3595.09 Q4972.78 3578.24 4940.74 3578.24 Q4925.74 3578.24 4910.74 3581.57 Q4895.92 3584.91 4880.37 3591.95 L4880.37 3453.06 Z" fill="#000000" fill-rule="evenodd" fill-opacity="1" /><polyline clip-path="url(#clip7100)" style="stroke:#ac8d18; stroke-width:32; stroke-opacity:1; fill:none" points="
  2171.56,4075.14 3323.56,4075.14 
  "/>
<path clip-path="url(#clip7100)" d="M 0 0 M3572.41 3936.9 L3609.82 3936.9 L3609.82 4194.12 Q3609.82 4244.12 3590.75 4266.71 Q3571.86 4289.3 3529.82 4289.3 L3515.56 4289.3 L3515.56 4257.82 L3527.23 4257.82 Q3552.04 4257.82 3562.23 4243.93 Q3572.41 4230.04 3572.41 4194.12 L3572.41 3936.9 Z" fill="#000000" fill-rule="evenodd" fill-opacity="1" /><path clip-path="url(#clip7100)" d="M 0 0 M3656.86 4181.9 L3717.97 4181.9 L3717.97 3970.97 L3651.49 3984.3 L3651.49 3950.23 L3717.6 3936.9 L3755 3936.9 L3755 4181.9 L3816.12 4181.9 L3816.12 4213.38 L3656.86 4213.38 L3656.86 4181.9 Z" fill="#000000" fill-rule="evenodd" fill-opacity="1" /><path clip-path="url(#clip7100)" d="M 0 0 M3976.86 4041.16 L4214.26 4041.16 L4214.26 4072.27 L3976.86 4072.27 L3976.86 4041.16 M3976.86 4116.71 L4214.26 4116.71 L4214.26 4148.19 L3976.86 4148.19 L3976.86 4116.71 Z" fill="#000000" fill-rule="evenodd" fill-opacity="1" /><path clip-path="url(#clip7100)" d="M 0 0 M4381.85 4181.9 L4442.96 4181.9 L4442.96 3970.97 L4376.48 3984.3 L4376.48 3950.23 L4442.59 3936.9 L4480 3936.9 L4480 4181.9 L4541.11 4181.9 L4541.11 4213.38 L4381.85 4213.38 L4381.85 4181.9 Z" fill="#000000" fill-rule="evenodd" fill-opacity="1" /><path clip-path="url(#clip7100)" d="M 0 0 M4581.67 4166.34 L4620.74 4166.34 L4620.74 4213.38 L4581.67 4213.38 L4581.67 4166.34 Z" fill="#000000" fill-rule="evenodd" fill-opacity="1" /><path clip-path="url(#clip7100)" d="M 0 0 M4741.3 3961.53 Q4712.41 3961.53 4697.78 3990.04 Q4683.33 4018.38 4683.33 4075.41 Q4683.33 4132.27 4697.78 4160.78 Q4712.41 4189.12 4741.3 4189.12 Q4770.37 4189.12 4784.81 4160.78 Q4799.44 4132.27 4799.44 4075.41 Q4799.44 4018.38 4784.81 3990.04 Q4770.37 3961.53 4741.3 3961.53 M4741.3 3931.9 Q4787.78 3931.9 4812.22 3968.75 Q4836.85 4005.42 4836.85 4075.41 Q4836.85 4145.23 4812.22 4182.08 Q4787.78 4218.75 4741.3 4218.75 Q4694.81 4218.75 4670.19 4182.08 Q4645.74 4145.23 4645.74 4075.41 Q4645.74 4005.42 4670.19 3968.75 Q4694.81 3931.9 4741.3 3931.9 Z" fill="#000000" fill-rule="evenodd" fill-opacity="1" /></svg>
