<?xml version="1.0" encoding="utf-8"?>
<svg xmlns="http://www.w3.org/2000/svg" xmlns:xlink="http://www.w3.org/1999/xlink" width="4800" height="3200" viewBox="0 0 19200 12800">
<defs>
  <clipPath id="clip1800">
    <rect x="0" y="0" width="19200" height="12800"/>
  </clipPath>
</defs>
<path clip-path="url(#clip1800)" d="
M0 12800 L19200 12800 L19200 0 L0 0  Z
  " fill="#ffffff" fill-rule="evenodd" fill-opacity="1"/>
<defs>
  <clipPath id="clip1801">
    <rect x="3840" y="0" width="13441" height="12800"/>
  </clipPath>
</defs>
<path clip-path="url(#clip1800)" d="
M1835.78 11385.4 L18822 11385.4 L18822 987.777 L1835.78 987.777  Z
  " fill="#ffffff" fill-rule="evenodd" fill-opacity="1"/>
<defs>
  <clipPath id="clip1802">
    <rect x="1835" y="987" width="16987" height="10399"/>
  </clipPath>
</defs>
<polyline clip-path="url(#clip1802)" style="stroke:#000000; stroke-width:16; stroke-opacity:0.1; fill:none" points="
  2208.98,11385.4 2208.98,987.777 
  "/>
<polyline clip-path="url(#clip1802)" style="stroke:#000000; stroke-width:16; stroke-opacity:0.1; fill:none" points="
  7586.42,11385.4 7586.42,987.777 
  "/>
<polyline clip-path="url(#clip1802)" style="stroke:#000000; stroke-width:16; stroke-opacity:0.1; fill:none" points="
  12963.9,11385.4 12963.9,987.777 
  "/>
<polyline clip-path="url(#clip1802)" style="stroke:#000000; stroke-width:16; stroke-opacity:0.1; fill:none" points="
  18341.3,11385.4 18341.3,987.777 
  "/>
<polyline clip-path="url(#clip1802)" style="stroke:#000000; stroke-width:16; stroke-opacity:0.1; fill:none" points="
  1835.78,11091.2 18822,11091.2 
  "/>
<polyline clip-path="url(#clip1802)" style="stroke:#000000; stroke-width:16; stroke-opacity:0.1; fill:none" points="
  1835.78,8781.85 18822,8781.85 
  "/>
<polyline clip-path="url(#clip1802)" style="stroke:#000000; stroke-width:16; stroke-opacity:0.1; fill:none" points="
  1835.78,6472.53 18822,6472.53 
  "/>
<polyline clip-path="url(#clip1802)" style="stroke:#000000; stroke-width:16; stroke-opacity:0.1; fill:none" points="
  1835.78,4163.22 18822,4163.22 
  "/>
<polyline clip-path="url(#clip1802)" style="stroke:#000000; stroke-width:16; stroke-opacity:0.1; fill:none" points="
  1835.78,1853.9 18822,1853.9 
  "/>
<polyline clip-path="url(#clip1800)" style="stroke:#000000; stroke-width:32; stroke-opacity:1; fill:none" points="
  1835.78,11385.4 18822,11385.4 
  "/>
<polyline clip-path="url(#clip1800)" style="stroke:#000000; stroke-width:32; stroke-opacity:1; fill:none" points="
  1835.78,11385.4 1835.78,987.777 
  "/>
<polyline clip-path="url(#clip1800)" style="stroke:#000000; stroke-width:32; stroke-opacity:1; fill:none" points="
  2208.98,11385.4 2208.98,11260.7 
  "/>
<polyline clip-path="url(#clip1800)" style="stroke:#000000; stroke-width:32; stroke-opacity:1; fill:none" points="
  7586.42,11385.4 7586.42,11260.7 
  "/>
<polyline clip-path="url(#clip1800)" style="stroke:#000000; stroke-width:32; stroke-opacity:1; fill:none" points="
  12963.9,11385.4 12963.9,11260.7 
  "/>
<polyline clip-path="url(#clip1800)" style="stroke:#000000; stroke-width:32; stroke-opacity:1; fill:none" points="
  18341.3,11385.4 18341.3,11260.7 
  "/>
<polyline clip-path="url(#clip1800)" style="stroke:#000000; stroke-width:32; stroke-opacity:1; fill:none" points="
  1835.78,11091.2 2039.62,11091.2 
  "/>
<polyline clip-path="url(#clip1800)" style="stroke:#000000; stroke-width:32; stroke-opacity:1; fill:none" points="
  1835.78,8781.85 2039.62,8781.85 
  "/>
<polyline clip-path="url(#clip1800)" style="stroke:#000000; stroke-width:32; stroke-opacity:1; fill:none" points="
  1835.78,6472.53 2039.62,6472.53 
  "/>
<polyline clip-path="url(#clip1800)" style="stroke:#000000; stroke-width:32; stroke-opacity:1; fill:none" points="
  1835.78,4163.22 2039.62,4163.22 
  "/>
<polyline clip-path="url(#clip1800)" style="stroke:#000000; stroke-width:32; stroke-opacity:1; fill:none" points="
  1835.78,1853.9 2039.62,1853.9 
  "/>
<path clip-path="url(#clip1800)" d="M 0 0 M2061.11 11561.4 Q2032.22 11561.4 2017.59 11589.9 Q2003.14 11618.2 2003.14 11675.3 Q2003.14 11732.1 2017.59 11760.6 Q2032.22 11789 2061.11 11789 Q2090.18 11789 2104.62 11760.6 Q2119.25 11732.1 2119.25 11675.3 Q2119.25 11618.2 2104.62 11589.9 Q2090.18 11561.4 2061.11 11561.4 M2061.11 11531.7 Q2107.59 11531.7 2132.03 11568.6 Q2156.66 11605.3 2156.66 11675.3 Q2156.66 11745.1 2132.03 11781.9 Q2107.59 11818.6 2061.11 11818.6 Q2014.63 11818.6 1990 11781.9 Q1965.55 11745.1 1965.55 11675.3 Q1965.55 11605.3 1990 11568.6 Q2014.63 11531.7 2061.11 11531.7 Z" fill="#000000" fill-rule="evenodd" fill-opacity="1" /><path clip-path="url(#clip1800)" d="M 0 0 M2197.22 11766.2 L2236.29 11766.2 L2236.29 11813.2 L2197.22 11813.2 L2197.22 11766.2 Z" fill="#000000" fill-rule="evenodd" fill-opacity="1" /><path clip-path="url(#clip1800)" d="M 0 0 M2356.85 11561.4 Q2327.96 11561.4 2313.33 11589.9 Q2298.88 11618.2 2298.88 11675.3 Q2298.88 11732.1 2313.33 11760.6 Q2327.96 11789 2356.85 11789 Q2385.92 11789 2400.36 11760.6 Q2414.99 11732.1 2414.99 11675.3 Q2414.99 11618.2 2400.36 11589.9 Q2385.92 11561.4 2356.85 11561.4 M2356.85 11531.7 Q2403.33 11531.7 2427.77 11568.6 Q2452.4 11605.3 2452.4 11675.3 Q2452.4 11745.1 2427.77 11781.9 Q2403.33 11818.6 2356.85 11818.6 Q2310.36 11818.6 2285.73 11781.9 Q2261.29 11745.1 2261.29 11675.3 Q2261.29 11605.3 2285.73 11568.6 Q2310.36 11531.7 2356.85 11531.7 Z" fill="#000000" fill-rule="evenodd" fill-opacity="1" /><path clip-path="url(#clip1800)" d="M 0 0 M7442.53 11561.4 Q7413.64 11561.4 7399.01 11589.9 Q7384.57 11618.2 7384.57 11675.3 Q7384.57 11732.1 7399.01 11760.6 Q7413.64 11789 7442.53 11789 Q7471.6 11789 7486.05 11760.6 Q7500.68 11732.1 7500.68 11675.3 Q7500.68 11618.2 7486.05 11589.9 Q7471.6 11561.4 7442.53 11561.4 M7442.53 11531.7 Q7489.01 11531.7 7513.46 11568.6 Q7538.09 11605.3 7538.09 11675.3 Q7538.09 11745.1 7513.46 11781.9 Q7489.01 11818.6 7442.53 11818.6 Q7396.05 11818.6 7371.42 11781.9 Q7346.98 11745.1 7346.98 11675.3 Q7346.98 11605.3 7371.42 11568.6 Q7396.05 11531.7 7442.53 11531.7 Z" fill="#000000" fill-rule="evenodd" fill-opacity="1" /><path clip-path="url(#clip1800)" d="M 0 0 M7578.64 11766.2 L7617.71 11766.2 L7617.71 11813.2 L7578.64 11813.2 L7578.64 11766.2 Z" fill="#000000" fill-rule="evenodd" fill-opacity="1" /><path clip-path="url(#clip1800)" d="M 0 0 M7658.64 11536.7 L7805.49 11536.7 L7805.49 11568.2 L7692.9 11568.2 L7692.9 11636 Q7701.05 11633.2 7709.2 11631.9 Q7717.34 11630.4 7725.49 11630.4 Q7771.79 11630.4 7798.82 11655.8 Q7825.86 11681.2 7825.86 11724.5 Q7825.86 11769.1 7798.08 11794 Q7770.31 11818.6 7719.75 11818.6 Q7702.34 11818.6 7684.2 11815.6 Q7666.23 11812.7 7646.97 11806.7 L7646.97 11769.1 Q7663.64 11778.2 7681.42 11782.7 Q7699.2 11787.1 7719.01 11787.1 Q7751.05 11787.1 7769.75 11770.3 Q7788.45 11753.4 7788.45 11724.5 Q7788.45 11695.6 7769.75 11678.8 Q7751.05 11661.9 7719.01 11661.9 Q7704.01 11661.9 7689.01 11665.3 Q7674.2 11668.6 7658.64 11675.6 L7658.64 11536.7 Z" fill="#000000" fill-rule="evenodd" fill-opacity="1" /><path clip-path="url(#clip1800)" d="M 0 0 M12739 11781.7 L12800.2 11781.7 L12800.2 11570.8 L12733.7 11584.1 L12733.7 11550.1 L12799.8 11536.7 L12837.2 11536.7 L12837.2 11781.7 L12898.3 11781.7 L12898.3 11813.2 L12739 11813.2 L12739 11781.7 Z" fill="#000000" fill-rule="evenodd" fill-opacity="1" /><path clip-path="url(#clip1800)" d="M 0 0 M12938.9 11766.2 L12977.9 11766.2 L12977.9 11813.2 L12938.9 11813.2 L12938.9 11766.2 Z" fill="#000000" fill-rule="evenodd" fill-opacity="1" /><path clip-path="url(#clip1800)" d="M 0 0 M13098.5 11561.4 Q13069.6 11561.4 13055 11589.9 Q13040.5 11618.2 13040.5 11675.3 Q13040.5 11732.1 13055 11760.6 Q13069.6 11789 13098.5 11789 Q13127.6 11789 13142 11760.6 Q13156.6 11732.1 13156.6 11675.3 Q13156.6 11618.2 13142 11589.9 Q13127.6 11561.4 13098.5 11561.4 M13098.5 11531.7 Q13145 11531.7 13169.4 11568.6 Q13194 11605.3 13194 11675.3 Q13194 11745.1 13169.4 11781.9 Q13145 11818.6 13098.5 11818.6 Q13052 11818.6 13027.4 11781.9 Q13002.9 11745.1 13002.9 11675.3 Q13002.9 11605.3 13027.4 11568.6 Q13052 11531.7 13098.5 11531.7 Z" fill="#000000" fill-rule="evenodd" fill-opacity="1" /><path clip-path="url(#clip1800)" d="M 0 0 M18120.5 11781.7 L18181.6 11781.7 L18181.6 11570.8 L18115.1 11584.1 L18115.1 11550.1 L18181.2 11536.7 L18218.6 11536.7 L18218.6 11781.7 L18279.7 11781.7 L18279.7 11813.2 L18120.5 11813.2 L18120.5 11781.7 Z" fill="#000000" fill-rule="evenodd" fill-opacity="1" /><path clip-path="url(#clip1800)" d="M 0 0 M18320.3 11766.2 L18359.4 11766.2 L18359.4 11813.2 L18320.3 11813.2 L18320.3 11766.2 Z" fill="#000000" fill-rule="evenodd" fill-opacity="1" /><path clip-path="url(#clip1800)" d="M 0 0 M18400.3 11536.7 L18547.1 11536.7 L18547.1 11568.2 L18434.5 11568.2 L18434.5 11636 Q18442.7 11633.2 18450.8 11631.9 Q18459 11630.4 18467.1 11630.4 Q18513.4 11630.4 18540.5 11655.8 Q18567.5 11681.2 18567.5 11724.5 Q18567.5 11769.1 18539.7 11794 Q18512 11818.6 18461.4 11818.6 Q18444 11818.6 18425.8 11815.6 Q18407.9 11812.7 18388.6 11806.7 L18388.6 11769.1 Q18405.3 11778.2 18423.1 11782.7 Q18440.8 11787.1 18460.7 11787.1 Q18492.7 11787.1 18511.4 11770.3 Q18530.1 11753.4 18530.1 11724.5 Q18530.1 11695.6 18511.4 11678.8 Q18492.7 11661.9 18460.7 11661.9 Q18445.7 11661.9 18430.7 11665.3 Q18415.8 11668.6 18400.3 11675.6 L18400.3 11536.7 Z" fill="#000000" fill-rule="evenodd" fill-opacity="1" /><path clip-path="url(#clip1800)" d="M 0 0 M1548.23 10977.6 Q1519.34 10977.6 1504.71 11006.1 Q1490.26 11034.4 1490.26 11091.4 Q1490.26 11148.3 1504.71 11176.8 Q1519.34 11205.1 1548.23 11205.1 Q1577.3 11205.1 1591.74 11176.8 Q1606.37 11148.3 1606.37 11091.4 Q1606.37 11034.4 1591.74 11006.1 Q1577.3 10977.6 1548.23 10977.6 M1548.23 10947.9 Q1594.71 10947.9 1619.15 10984.8 Q1643.78 11021.4 1643.78 11091.4 Q1643.78 11161.3 1619.15 11198.1 Q1594.71 11234.8 1548.23 11234.8 Q1501.75 11234.8 1477.12 11198.1 Q1452.67 11161.3 1452.67 11091.4 Q1452.67 11021.4 1477.12 10984.8 Q1501.75 10947.9 1548.23 10947.9 Z" fill="#000000" fill-rule="evenodd" fill-opacity="1" /><path clip-path="url(#clip1800)" d="M 0 0 M1052.3 8888.61 L1113.41 8888.61 L1113.41 8677.68 L1046.93 8691.02 L1046.93 8656.94 L1113.04 8643.61 L1150.45 8643.61 L1150.45 8888.61 L1211.56 8888.61 L1211.56 8920.09 L1052.3 8920.09 L1052.3 8888.61 Z" fill="#000000" fill-rule="evenodd" fill-opacity="1" /><path clip-path="url(#clip1800)" d="M 0 0 M1332.12 8668.24 Q1303.23 8668.24 1288.6 8696.76 Q1274.15 8725.09 1274.15 8782.13 Q1274.15 8838.98 1288.6 8867.5 Q1303.23 8895.83 1332.12 8895.83 Q1361.19 8895.83 1375.63 8867.5 Q1390.26 8838.98 1390.26 8782.13 Q1390.26 8725.09 1375.63 8696.76 Q1361.19 8668.24 1332.12 8668.24 M1332.12 8638.61 Q1378.6 8638.61 1403.04 8675.46 Q1427.67 8712.13 1427.67 8782.13 Q1427.67 8851.94 1403.04 8888.79 Q1378.6 8925.46 1332.12 8925.46 Q1285.64 8925.46 1261.01 8888.79 Q1236.56 8851.94 1236.56 8782.13 Q1236.56 8712.13 1261.01 8675.46 Q1285.64 8638.61 1332.12 8638.61 Z" fill="#000000" fill-rule="evenodd" fill-opacity="1" /><path clip-path="url(#clip1800)" d="M 0 0 M1548.23 8668.24 Q1519.34 8668.24 1504.71 8696.76 Q1490.26 8725.09 1490.26 8782.13 Q1490.26 8838.98 1504.71 8867.5 Q1519.34 8895.83 1548.23 8895.83 Q1577.3 8895.83 1591.74 8867.5 Q1606.37 8838.98 1606.37 8782.13 Q1606.37 8725.09 1591.74 8696.76 Q1577.3 8668.24 1548.23 8668.24 M1548.23 8638.61 Q1594.71 8638.61 1619.15 8675.46 Q1643.78 8712.13 1643.78 8782.13 Q1643.78 8851.94 1619.15 8888.79 Q1594.71 8925.46 1548.23 8925.46 Q1501.75 8925.46 1477.12 8888.79 Q1452.67 8851.94 1452.67 8782.13 Q1452.67 8712.13 1477.12 8675.46 Q1501.75 8638.61 1548.23 8638.61 Z" fill="#000000" fill-rule="evenodd" fill-opacity="1" /><path clip-path="url(#clip1800)" d="M 0 0 M1081.01 6579.29 L1211.56 6579.29 L1211.56 6610.77 L1036.01 6610.77 L1036.01 6579.29 Q1057.3 6557.25 1093.97 6520.22 Q1130.82 6482.99 1140.27 6472.25 Q1158.23 6452.07 1165.27 6438.18 Q1172.49 6424.11 1172.49 6410.59 Q1172.49 6388.55 1156.93 6374.66 Q1141.56 6360.77 1116.75 6360.77 Q1099.15 6360.77 1079.53 6366.88 Q1060.08 6373 1037.86 6385.4 L1037.86 6347.63 Q1060.45 6338.55 1080.08 6333.92 Q1099.71 6329.29 1116.01 6329.29 Q1158.97 6329.29 1184.52 6350.77 Q1210.08 6372.25 1210.08 6408.18 Q1210.08 6425.22 1203.6 6440.59 Q1197.3 6455.77 1180.45 6476.51 Q1175.82 6481.88 1151.01 6507.62 Q1126.19 6533.18 1081.01 6579.29 Z" fill="#000000" fill-rule="evenodd" fill-opacity="1" /><path clip-path="url(#clip1800)" d="M 0 0 M1332.12 6358.92 Q1303.23 6358.92 1288.6 6387.44 Q1274.15 6415.77 1274.15 6472.81 Q1274.15 6529.66 1288.6 6558.18 Q1303.23 6586.51 1332.12 6586.51 Q1361.19 6586.51 1375.63 6558.18 Q1390.26 6529.66 1390.26 6472.81 Q1390.26 6415.77 1375.63 6387.44 Q1361.19 6358.92 1332.12 6358.92 M1332.12 6329.29 Q1378.6 6329.29 1403.04 6366.14 Q1427.67 6402.81 1427.67 6472.81 Q1427.67 6542.62 1403.04 6579.48 Q1378.6 6616.14 1332.12 6616.14 Q1285.64 6616.14 1261.01 6579.48 Q1236.56 6542.62 1236.56 6472.81 Q1236.56 6402.81 1261.01 6366.14 Q1285.64 6329.29 1332.12 6329.29 Z" fill="#000000" fill-rule="evenodd" fill-opacity="1" /><path clip-path="url(#clip1800)" d="M 0 0 M1548.23 6358.92 Q1519.34 6358.92 1504.71 6387.44 Q1490.26 6415.77 1490.26 6472.81 Q1490.26 6529.66 1504.71 6558.18 Q1519.34 6586.51 1548.23 6586.51 Q1577.3 6586.51 1591.74 6558.18 Q1606.37 6529.66 1606.37 6472.81 Q1606.37 6415.77 1591.74 6387.44 Q1577.3 6358.92 1548.23 6358.92 M1548.23 6329.29 Q1594.71 6329.29 1619.15 6366.14 Q1643.78 6402.81 1643.78 6472.81 Q1643.78 6542.62 1619.15 6579.48 Q1594.71 6616.14 1548.23 6616.14 Q1501.75 6616.14 1477.12 6579.48 Q1452.67 6542.62 1452.67 6472.81 Q1452.67 6402.81 1477.12 6366.14 Q1501.75 6329.29 1548.23 6329.29 Z" fill="#000000" fill-rule="evenodd" fill-opacity="1" /><path clip-path="url(#clip1800)" d="M 0 0 M1154.52 4152.38 Q1181.38 4158.12 1196.38 4176.27 Q1211.56 4194.42 1211.56 4221.09 Q1211.56 4262.01 1183.41 4284.42 Q1155.27 4306.83 1103.41 4306.83 Q1086.01 4306.83 1067.49 4303.31 Q1049.16 4299.97 1029.53 4293.12 L1029.53 4257.01 Q1045.08 4266.09 1063.6 4270.71 Q1082.12 4275.34 1102.3 4275.34 Q1137.49 4275.34 1155.82 4261.46 Q1174.34 4247.57 1174.34 4221.09 Q1174.34 4196.64 1157.12 4182.94 Q1140.08 4169.05 1109.53 4169.05 L1077.3 4169.05 L1077.3 4138.31 L1111.01 4138.31 Q1138.6 4138.31 1153.23 4127.38 Q1167.86 4116.27 1167.86 4095.53 Q1167.86 4074.23 1152.67 4062.94 Q1137.67 4051.46 1109.53 4051.46 Q1094.15 4051.46 1076.56 4054.79 Q1058.97 4058.12 1037.86 4065.16 L1037.86 4031.83 Q1059.16 4025.9 1077.67 4022.94 Q1096.38 4019.98 1112.86 4019.98 Q1155.45 4019.98 1180.27 4039.42 Q1205.08 4058.68 1205.08 4091.64 Q1205.08 4114.6 1191.93 4130.53 Q1178.78 4146.27 1154.52 4152.38 Z" fill="#000000" fill-rule="evenodd" fill-opacity="1" /><path clip-path="url(#clip1800)" d="M 0 0 M1332.12 4049.6 Q1303.23 4049.6 1288.6 4078.12 Q1274.15 4106.46 1274.15 4163.49 Q1274.15 4220.34 1288.6 4248.86 Q1303.23 4277.2 1332.12 4277.2 Q1361.19 4277.2 1375.63 4248.86 Q1390.26 4220.34 1390.26 4163.49 Q1390.26 4106.46 1375.63 4078.12 Q1361.19 4049.6 1332.12 4049.6 M1332.12 4019.98 Q1378.6 4019.98 1403.04 4056.83 Q1427.67 4093.49 1427.67 4163.49 Q1427.67 4233.31 1403.04 4270.16 Q1378.6 4306.83 1332.12 4306.83 Q1285.64 4306.83 1261.01 4270.16 Q1236.56 4233.31 1236.56 4163.49 Q1236.56 4093.49 1261.01 4056.83 Q1285.64 4019.98 1332.12 4019.98 Z" fill="#000000" fill-rule="evenodd" fill-opacity="1" /><path clip-path="url(#clip1800)" d="M 0 0 M1548.23 4049.6 Q1519.34 4049.6 1504.71 4078.12 Q1490.26 4106.46 1490.26 4163.49 Q1490.26 4220.34 1504.71 4248.86 Q1519.34 4277.2 1548.23 4277.2 Q1577.3 4277.2 1591.74 4248.86 Q1606.37 4220.34 1606.37 4163.49 Q1606.37 4106.46 1591.74 4078.12 Q1577.3 4049.6 1548.23 4049.6 M1548.23 4019.98 Q1594.71 4019.98 1619.15 4056.83 Q1643.78 4093.49 1643.78 4163.49 Q1643.78 4233.31 1619.15 4270.16 Q1594.71 4306.83 1548.23 4306.83 Q1501.75 4306.83 1477.12 4270.16 Q1452.67 4233.31 1452.67 4163.49 Q1452.67 4093.49 1477.12 4056.83 Q1501.75 4019.98 1548.23 4019.98 Z" fill="#000000" fill-rule="evenodd" fill-opacity="1" /><path clip-path="url(#clip1800)" d="M 0 0 M1134.9 1748.25 L1040.45 1895.84 L1134.9 1895.84 L1134.9 1748.25 M1125.08 1715.66 L1172.12 1715.66 L1172.12 1895.84 L1211.56 1895.84 L1211.56 1926.95 L1172.12 1926.95 L1172.12 1992.14 L1134.9 1992.14 L1134.9 1926.95 L1010.08 1926.95 L1010.08 1890.84 L1125.08 1715.66 Z" fill="#000000" fill-rule="evenodd" fill-opacity="1" /><path clip-path="url(#clip1800)" d="M 0 0 M1332.12 1740.29 Q1303.23 1740.29 1288.6 1768.81 Q1274.15 1797.14 1274.15 1854.18 Q1274.15 1911.03 1288.6 1939.55 Q1303.23 1967.88 1332.12 1967.88 Q1361.19 1967.88 1375.63 1939.55 Q1390.26 1911.03 1390.26 1854.18 Q1390.26 1797.14 1375.63 1768.81 Q1361.19 1740.29 1332.12 1740.29 M1332.12 1710.66 Q1378.6 1710.66 1403.04 1747.51 Q1427.67 1784.18 1427.67 1854.18 Q1427.67 1923.99 1403.04 1960.84 Q1378.6 1997.51 1332.12 1997.51 Q1285.64 1997.51 1261.01 1960.84 Q1236.56 1923.99 1236.56 1854.18 Q1236.56 1784.18 1261.01 1747.51 Q1285.64 1710.66 1332.12 1710.66 Z" fill="#000000" fill-rule="evenodd" fill-opacity="1" /><path clip-path="url(#clip1800)" d="M 0 0 M1548.23 1740.29 Q1519.34 1740.29 1504.71 1768.81 Q1490.26 1797.14 1490.26 1854.18 Q1490.26 1911.03 1504.71 1939.55 Q1519.34 1967.88 1548.23 1967.88 Q1577.3 1967.88 1591.74 1939.55 Q1606.37 1911.03 1606.37 1854.18 Q1606.37 1797.14 1591.74 1768.81 Q1577.3 1740.29 1548.23 1740.29 M1548.23 1710.66 Q1594.71 1710.66 1619.15 1747.51 Q1643.78 1784.18 1643.78 1854.18 Q1643.78 1923.99 1619.15 1960.84 Q1594.71 1997.51 1548.23 1997.51 Q1501.75 1997.51 1477.12 1960.84 Q1452.67 1923.99 1452.67 1854.18 Q1452.67 1784.18 1477.12 1747.51 Q1501.75 1710.66 1548.23 1710.66 Z" fill="#000000" fill-rule="evenodd" fill-opacity="1" /><path clip-path="url(#clip1800)" d="M 0 0 M5703.11 134.036 L5703.11 203.064 Q5670.05 172.277 5632.46 157.045 Q5595.19 141.814 5553.06 141.814 Q5470.1 141.814 5426.02 192.693 Q5381.95 243.249 5381.95 339.174 Q5381.95 434.775 5426.02 485.655 Q5470.1 536.21 5553.06 536.21 Q5595.19 536.21 5632.46 520.979 Q5670.05 505.747 5703.11 474.96 L5703.11 543.34 Q5668.75 566.673 5630.19 578.339 Q5591.95 590.006 5549.17 590.006 Q5439.31 590.006 5376.12 522.923 Q5312.92 455.516 5312.92 339.174 Q5312.92 222.508 5376.12 155.425 Q5439.31 88.018 5549.17 88.018 Q5592.6 88.018 5630.84 99.6847 Q5669.4 111.027 5703.11 134.036 Z" fill="#000000" fill-rule="evenodd" fill-opacity="1" /><path clip-path="url(#clip1800)" d="M 0 0 M6041.44 690.793 L6041.44 737.135 L5696.62 737.135 L5696.62 690.793 L6041.44 690.793 Z" fill="#000000" fill-rule="evenodd" fill-opacity="1" /><path clip-path="url(#clip1800)" d="M 0 0 M6335.37 228.341 L6335.37 284.73 Q6310.09 271.767 6282.87 265.286 Q6255.65 258.804 6226.48 258.804 Q6182.08 258.804 6159.72 272.415 Q6137.69 286.026 6137.69 313.248 Q6137.69 333.989 6153.57 345.98 Q6169.45 357.646 6217.41 368.341 L6237.83 372.878 Q6301.34 386.489 6327.92 411.442 Q6354.82 436.072 6354.82 480.47 Q6354.82 531.025 6314.63 560.516 Q6274.77 590.006 6204.77 590.006 Q6175.6 590.006 6143.84 584.173 Q6112.41 578.664 6077.41 567.321 L6077.41 505.747 Q6110.46 522.923 6142.55 531.673 Q6174.63 540.099 6206.07 540.099 Q6248.2 540.099 6270.88 525.84 Q6293.57 511.257 6293.57 485.007 Q6293.57 460.701 6277.04 447.738 Q6260.83 434.775 6205.42 422.785 L6184.68 417.924 Q6129.26 406.257 6104.63 382.276 Q6080 357.97 6080 315.841 Q6080 264.637 6116.3 236.767 Q6152.59 208.897 6219.35 208.897 Q6252.41 208.897 6281.57 213.758 Q6310.74 218.619 6335.37 228.341 Z" fill="#000000" fill-rule="evenodd" fill-opacity="1" /><path clip-path="url(#clip1800)" d="M 0 0 M6417.36 217.647 L6476.99 217.647 L6476.99 580.608 L6417.36 580.608 L6417.36 217.647 M6417.36 76.3514 L6476.99 76.3514 L6476.99 151.86 L6417.36 151.86 L6417.36 76.3514 Z" fill="#000000" fill-rule="evenodd" fill-opacity="1" /><path clip-path="url(#clip1800)" d="M 0 0 M6598.52 114.592 L6598.52 217.647 L6721.34 217.647 L6721.34 263.989 L6598.52 263.989 L6598.52 461.025 Q6598.52 505.423 6610.51 518.062 Q6622.82 530.701 6660.09 530.701 L6721.34 530.701 L6721.34 580.608 L6660.09 580.608 Q6591.06 580.608 6564.81 555.006 Q6538.56 529.08 6538.56 461.025 L6538.56 263.989 L6494.81 263.989 L6494.81 217.647 L6538.56 217.647 L6538.56 114.592 L6598.52 114.592 Z" fill="#000000" fill-rule="evenodd" fill-opacity="1" /><path clip-path="url(#clip1800)" d="M 0 0 M7094.35 384.22 L7094.35 413.387 L6820.18 413.387 Q6824.07 474.96 6857.13 507.368 Q6890.51 539.451 6949.81 539.451 Q6984.16 539.451 7016.25 531.025 Q7048.65 522.599 7080.41 505.747 L7080.41 562.136 Q7048.33 575.747 7014.63 582.877 Q6980.92 590.006 6946.25 590.006 Q6859.4 590.006 6808.52 539.451 Q6757.96 488.896 6757.96 402.692 Q6757.96 313.572 6805.92 261.397 Q6854.21 208.897 6935.88 208.897 Q7009.12 208.897 7051.57 256.212 Q7094.35 303.202 7094.35 384.22 M7034.72 366.72 Q7034.07 317.785 7007.17 288.619 Q6980.6 259.452 6936.53 259.452 Q6886.62 259.452 6856.48 287.647 Q6826.66 315.841 6822.13 367.044 L7034.72 366.72 Z" fill="#000000" fill-rule="evenodd" fill-opacity="1" /><path clip-path="url(#clip1800)" d="M 0 0 M7383.1 498.294 L7451.48 498.294 L7451.48 580.608 L7383.1 580.608 L7383.1 498.294 M7383.1 237.415 L7451.48 237.415 L7451.48 319.73 L7383.1 319.73 L7383.1 237.415 Z" fill="#000000" fill-rule="evenodd" fill-opacity="1" /><path clip-path="url(#clip1800)" d="M 0 0 M7744.76 525.516 L7851.71 525.516 L7851.71 156.397 L7735.36 179.731 L7735.36 120.101 L7851.06 96.768 L7916.52 96.768 L7916.52 525.516 L8023.46 525.516 L8023.46 580.608 L7744.76 580.608 L7744.76 525.516 Z" fill="#000000" fill-rule="evenodd" fill-opacity="1" /><path clip-path="url(#clip1800)" d="M 0 0 M8242.54 312.6 Q8198.46 312.6 8172.54 342.739 Q8146.94 372.878 8146.94 425.377 Q8146.94 477.553 8172.54 508.016 Q8198.46 538.155 8242.54 538.155 Q8286.61 538.155 8312.21 508.016 Q8338.14 477.553 8338.14 425.377 Q8338.14 372.878 8312.21 342.739 Q8286.61 312.6 8242.54 312.6 M8372.49 107.462 L8372.49 167.092 Q8347.86 155.425 8322.58 149.268 Q8297.63 143.11 8273 143.11 Q8208.19 143.11 8173.83 186.86 Q8139.81 230.61 8134.94 319.082 Q8154.06 290.887 8182.91 275.98 Q8211.75 260.749 8246.43 260.749 Q8319.34 260.749 8361.47 305.147 Q8403.92 349.22 8403.92 425.377 Q8403.92 499.914 8359.85 544.96 Q8315.78 590.006 8242.54 590.006 Q8158.6 590.006 8114.2 525.84 Q8069.81 461.349 8069.81 339.174 Q8069.81 224.453 8124.25 156.397 Q8178.69 88.018 8270.41 88.018 Q8295.04 88.018 8319.99 92.8791 Q8345.27 97.7402 8372.49 107.462 Z" fill="#000000" fill-rule="evenodd" fill-opacity="1" /><path clip-path="url(#clip1800)" d="M 0 0 M8926.98 176.49 L8810.64 239.36 L8926.98 302.554 L8908.18 334.313 L8799.29 268.526 L8799.29 390.702 L8762.35 390.702 L8762.35 268.526 L8653.46 334.313 L8634.66 302.554 L8751.01 239.36 L8634.66 176.49 L8653.46 144.407 L8762.35 210.193 L8762.35 88.018 L8799.29 88.018 L8799.29 210.193 L8908.18 144.407 L8926.98 176.49 Z" fill="#000000" fill-rule="evenodd" fill-opacity="1" /><path clip-path="url(#clip1800)" d="M 0 0 M9220.26 525.516 L9327.21 525.516 L9327.21 156.397 L9210.86 179.731 L9210.86 120.101 L9326.56 96.768 L9392.02 96.768 L9392.02 525.516 L9498.97 525.516 L9498.97 580.608 L9220.26 580.608 L9220.26 525.516 Z" fill="#000000" fill-rule="evenodd" fill-opacity="1" /><path clip-path="url(#clip1800)" d="M 0 0 M9718.04 312.6 Q9673.96 312.6 9648.04 342.739 Q9622.44 372.878 9622.44 425.377 Q9622.44 477.553 9648.04 508.016 Q9673.96 538.155 9718.04 538.155 Q9762.11 538.155 9787.71 508.016 Q9813.64 477.553 9813.64 425.377 Q9813.64 372.878 9787.71 342.739 Q9762.11 312.6 9718.04 312.6 M9847.99 107.462 L9847.99 167.092 Q9823.36 155.425 9798.08 149.268 Q9773.13 143.11 9748.5 143.11 Q9683.69 143.11 9649.33 186.86 Q9615.31 230.61 9610.45 319.082 Q9629.57 290.887 9658.41 275.98 Q9687.25 260.749 9721.93 260.749 Q9794.84 260.749 9836.97 305.147 Q9879.43 349.22 9879.43 425.377 Q9879.43 499.914 9835.35 544.96 Q9791.28 590.006 9718.04 590.006 Q9634.1 590.006 9589.71 525.84 Q9545.31 461.349 9545.31 339.174 Q9545.31 224.453 9599.75 156.397 Q9654.2 88.018 9745.91 88.018 Q9770.54 88.018 9795.49 92.8791 Q9820.77 97.7402 9847.99 107.462 Z" fill="#000000" fill-rule="evenodd" fill-opacity="1" /><path clip-path="url(#clip1800)" d="M 0 0 M9957.2 498.294 L10025.6 498.294 L10025.6 554.034 L9972.43 657.737 L9930.63 657.737 L9957.2 554.034 L9957.2 498.294 Z" fill="#000000" fill-rule="evenodd" fill-opacity="1" /><path clip-path="url(#clip1800)" d="M 0 0 M10498.1 141.166 Q10426.8 141.166 10384.7 194.314 Q10342.8 247.462 10342.8 339.174 Q10342.8 430.563 10384.7 483.71 Q10426.8 536.858 10498.1 536.858 Q10569.4 536.858 10610.9 483.71 Q10652.7 430.563 10652.7 339.174 Q10652.7 247.462 10610.9 194.314 Q10569.4 141.166 10498.1 141.166 M10589.8 571.858 L10676 666.163 L10596.9 666.163 L10525.3 588.71 Q10514.6 589.358 10508.8 589.682 Q10503.3 590.006 10498.1 590.006 Q10396 590.006 10334.7 521.951 Q10273.8 453.572 10273.8 339.174 Q10273.8 224.453 10334.7 156.397 Q10396 88.018 10498.1 88.018 Q10599.8 88.018 10660.8 156.397 Q10721.7 224.453 10721.7 339.174 Q10721.7 423.433 10687.7 483.386 Q10654 543.34 10589.8 571.858 Z" fill="#000000" fill-rule="evenodd" fill-opacity="1" /><path clip-path="url(#clip1800)" d="M 0 0 M11003 279.221 L11418.4 279.221 L11418.4 333.665 L11003 333.665 L11003 279.221 M11003 411.442 L11418.4 411.442 L11418.4 466.535 L11003 466.535 L11003 411.442 Z" fill="#000000" fill-rule="evenodd" fill-opacity="1" /><path clip-path="url(#clip1800)" d="M 0 0 M11898.7 319.73 Q11945.7 329.776 11972 361.535 Q11998.5 393.294 11998.5 439.961 Q11998.5 511.581 11949.3 550.793 Q11900 590.006 11809.3 590.006 Q11778.8 590.006 11746.4 583.849 Q11714.3 578.015 11680 566.025 L11680 502.831 Q11707.2 518.71 11739.6 526.812 Q11772 534.914 11807.3 534.914 Q11868.9 534.914 11901 510.608 Q11933.4 486.303 11933.4 439.961 Q11933.4 397.183 11903.3 373.202 Q11873.4 348.896 11820 348.896 L11763.6 348.896 L11763.6 295.1 L11822.6 295.1 Q11870.9 295.1 11896.5 275.98 Q11922.1 256.536 11922.1 220.24 Q11922.1 182.971 11895.5 163.203 Q11869.2 143.11 11820 143.11 Q11793.1 143.11 11762.3 148.944 Q11731.5 154.777 11694.6 167.092 L11694.6 108.759 Q11731.8 98.3884 11764.2 93.2032 Q11797 88.018 11825.8 88.018 Q11900.3 88.018 11943.8 122.046 Q11987.2 155.749 11987.2 213.434 Q11987.2 253.619 11964.2 281.489 Q11941.2 309.035 11898.7 319.73 Z" fill="#000000" fill-rule="evenodd" fill-opacity="1" /><path clip-path="url(#clip1800)" d="M 0 0 M12125.9 525.516 L12354.4 525.516 L12354.4 580.608 L12047.1 580.608 L12047.1 525.516 Q12084.4 486.951 12148.6 422.137 Q12213.1 356.998 12229.6 338.202 Q12261 302.878 12273.3 278.573 Q12286 253.943 12286 230.286 Q12286 191.721 12258.8 167.416 Q12231.9 143.11 12188.4 143.11 Q12157.7 143.11 12123.3 153.805 Q12089.3 164.499 12050.4 186.212 L12050.4 120.101 Q12089.9 104.222 12124.3 96.1199 Q12158.6 88.018 12187.1 88.018 Q12262.3 88.018 12307.1 125.61 Q12351.8 163.203 12351.8 226.073 Q12351.8 255.888 12340.4 282.786 Q12329.4 309.359 12299.9 345.656 Q12291.8 355.054 12248.4 400.1 Q12205 444.822 12125.9 525.516 Z" fill="#000000" fill-rule="evenodd" fill-opacity="1" /><path clip-path="url(#clip1800)" d="M 0 0 M12432.1 498.294 L12500.5 498.294 L12500.5 554.034 L12447.4 657.737 L12405.6 657.737 L12432.1 554.034 L12432.1 498.294 Z" fill="#000000" fill-rule="evenodd" fill-opacity="1" /><path clip-path="url(#clip1800)" d="M 0 0 M12776.6 96.768 L12842.1 96.768 L12842.1 546.904 Q12842.1 634.404 12808.7 673.941 Q12775.7 713.478 12702.1 713.478 L12677.1 713.478 L12677.1 658.385 L12697.6 658.385 Q12741 658.385 12758.8 634.08 Q12776.6 609.775 12776.6 546.904 L12776.6 96.768 Z" fill="#000000" fill-rule="evenodd" fill-opacity="1" /><path clip-path="url(#clip1800)" d="M 0 0 M13180.4 690.793 L13180.4 737.135 L12835.6 737.135 L12835.6 690.793 L13180.4 690.793 Z" fill="#000000" fill-rule="evenodd" fill-opacity="1" /><path clip-path="url(#clip1800)" d="M 0 0 M13391.4 139.87 Q13340.8 139.87 13315.2 189.777 Q13290 239.36 13290 339.174 Q13290 438.664 13315.2 488.571 Q13340.8 538.155 13391.4 538.155 Q13442.3 538.155 13467.6 488.571 Q13493.2 438.664 13493.2 339.174 Q13493.2 239.36 13467.6 189.777 Q13442.3 139.87 13391.4 139.87 M13391.4 88.018 Q13472.7 88.018 13515.5 152.508 Q13558.6 216.675 13558.6 339.174 Q13558.6 461.349 13515.5 525.84 Q13472.7 590.006 13391.4 590.006 Q13310.1 590.006 13267 525.84 Q13224.2 461.349 13224.2 339.174 Q13224.2 216.675 13267 152.508 Q13310.1 88.018 13391.4 88.018 Z" fill="#000000" fill-rule="evenodd" fill-opacity="1" /><path clip-path="url(#clip1800)" d="M 0 0 M13839.9 279.221 L14255.4 279.221 L14255.4 333.665 L13839.9 333.665 L13839.9 279.221 M13839.9 411.442 L14255.4 411.442 L14255.4 466.535 L13839.9 466.535 L13839.9 411.442 Z" fill="#000000" fill-rule="evenodd" fill-opacity="1" /><path clip-path="url(#clip1800)" d="M 0 0 M14548.7 525.516 L14655.6 525.516 L14655.6 156.397 L14539.3 179.731 L14539.3 120.101 L14655 96.768 L14720.4 96.768 L14720.4 525.516 L14827.4 525.516 L14827.4 580.608 L14548.7 580.608 L14548.7 525.516 Z" fill="#000000" fill-rule="evenodd" fill-opacity="1" /><path clip-path="url(#clip1800)" d="M 0 0 M14898.3 498.294 L14966.7 498.294 L14966.7 580.608 L14898.3 580.608 L14898.3 498.294 Z" fill="#000000" fill-rule="evenodd" fill-opacity="1" /><path clip-path="url(#clip1800)" d="M 0 0 M15177.7 139.87 Q15127.1 139.87 15101.5 189.777 Q15076.3 239.36 15076.3 339.174 Q15076.3 438.664 15101.5 488.571 Q15127.1 538.155 15177.7 538.155 Q15228.6 538.155 15253.8 488.571 Q15279.4 438.664 15279.4 339.174 Q15279.4 239.36 15253.8 189.777 Q15228.6 139.87 15177.7 139.87 M15177.7 88.018 Q15259 88.018 15301.8 152.508 Q15344.9 216.675 15344.9 339.174 Q15344.9 461.349 15301.8 525.84 Q15259 590.006 15177.7 590.006 Q15096.3 590.006 15053.2 525.84 Q15010.5 461.349 15010.5 339.174 Q15010.5 216.675 15053.2 152.508 Q15096.3 88.018 15177.7 88.018 Z" fill="#000000" fill-rule="evenodd" fill-opacity="1" /><path clip-path="url(#clip1800)" d="M 0 0 M10168.1 12068.2 L10489.7 12068.2 L10489.7 12111.5 L10354.8 12111.5 L10354.8 12448.4 L10303.1 12448.4 L10303.1 12111.5 L10168.1 12111.5 L10168.1 12068.2 Z" fill="#000000" fill-rule="evenodd" fill-opacity="1" /><path clip-path="url(#clip1800)" d="M 0 0 M353.156 6579.88 L407.391 6579.88 Q383.202 6605.85 371.234 6635.39 Q359.267 6664.67 359.267 6697.77 Q359.267 6762.96 399.243 6797.59 Q438.965 6832.22 514.335 6832.22 Q589.451 6832.22 629.427 6797.59 Q669.149 6762.96 669.149 6697.77 Q669.149 6664.67 657.182 6635.39 Q645.214 6605.85 621.024 6579.88 L674.751 6579.88 Q693.084 6606.87 702.251 6637.17 Q711.417 6667.22 711.417 6700.83 Q711.417 6787.15 658.709 6836.8 Q605.747 6886.45 514.335 6886.45 Q422.669 6886.45 369.961 6836.8 Q316.998 6787.15 316.998 6700.83 Q316.998 6666.71 326.165 6636.66 Q335.077 6606.36 353.156 6579.88 Z" fill="#000000" fill-rule="evenodd" fill-opacity="1" /><path clip-path="url(#clip1800)" d="M 0 0 M790.607 6314.05 L827.019 6314.05 L827.019 6584.97 L790.607 6584.97 L790.607 6314.05 Z" fill="#000000" fill-rule="evenodd" fill-opacity="1" /><path clip-path="url(#clip1800)" d="M 0 0 M427.252 6083.1 L471.558 6083.1 Q461.373 6102.96 456.28 6124.35 Q451.187 6145.74 451.187 6168.66 Q451.187 6203.54 461.882 6221.11 Q472.576 6238.42 493.965 6238.42 Q510.261 6238.42 519.682 6225.95 Q528.849 6213.47 537.252 6175.79 L540.817 6159.74 Q551.511 6109.84 571.117 6088.96 Q590.469 6067.82 625.353 6067.82 Q665.075 6067.82 688.246 6099.4 Q711.417 6130.72 711.417 6185.72 Q711.417 6208.63 706.834 6233.59 Q702.505 6258.29 693.594 6285.79 L645.214 6285.79 Q658.709 6259.81 665.584 6234.61 Q672.205 6209.4 672.205 6184.7 Q672.205 6151.6 661.001 6133.77 Q649.543 6115.95 628.918 6115.95 Q609.821 6115.95 599.636 6128.93 Q589.451 6141.67 580.029 6185.21 L576.21 6201.5 Q567.043 6245.05 548.201 6264.4 Q529.104 6283.75 496.002 6283.75 Q455.771 6283.75 433.873 6255.23 Q411.975 6226.71 411.975 6174.26 Q411.975 6148.29 415.794 6125.37 Q419.613 6102.45 427.252 6083.1 Z" fill="#000000" fill-rule="evenodd" fill-opacity="1" /><path clip-path="url(#clip1800)" d="M 0 0 M418.85 6018.68 L418.85 5971.83 L704.033 5971.83 L704.033 6018.68 L418.85 6018.68 M307.832 6018.68 L307.832 5971.83 L367.16 5971.83 L367.16 6018.68 L307.832 6018.68 Z" fill="#000000" fill-rule="evenodd" fill-opacity="1" /><path clip-path="url(#clip1800)" d="M 0 0 M337.878 5876.34 L418.85 5876.34 L418.85 5779.84 L455.261 5779.84 L455.261 5876.34 L610.075 5876.34 Q644.96 5876.34 654.89 5866.92 Q664.821 5857.25 664.821 5827.96 L664.821 5779.84 L704.033 5779.84 L704.033 5827.96 Q704.033 5882.2 683.918 5902.82 Q663.547 5923.45 610.075 5923.45 L455.261 5923.45 L455.261 5957.82 L418.85 5957.82 L418.85 5923.45 L337.878 5923.45 L337.878 5876.34 Z" fill="#000000" fill-rule="evenodd" fill-opacity="1" /><path clip-path="url(#clip1800)" d="M 0 0 M549.729 5486.76 L572.645 5486.76 L572.645 5702.18 Q621.024 5699.12 646.487 5673.15 Q671.695 5646.92 671.695 5600.33 Q671.695 5573.34 665.075 5548.13 Q658.455 5522.66 645.214 5497.71 L689.519 5497.71 Q700.214 5522.92 705.816 5549.4 Q711.417 5575.88 711.417 5603.13 Q711.417 5671.37 671.695 5711.34 Q631.973 5751.07 564.242 5751.07 Q494.22 5751.07 453.224 5713.38 Q411.975 5675.44 411.975 5611.28 Q411.975 5553.73 449.15 5520.37 Q486.071 5486.76 549.729 5486.76 M535.979 5533.61 Q497.53 5534.12 474.613 5555.26 Q451.697 5576.14 451.697 5610.77 Q451.697 5649.98 473.849 5673.66 Q496.002 5697.09 536.233 5700.65 L535.979 5533.61 Z" fill="#000000" fill-rule="evenodd" fill-opacity="1" /><polyline clip-path="url(#clip1802)" style="stroke:#009af9; stroke-width:32; stroke-opacity:1; fill:none" points="
  2316.52,11091.2 2478.39,11091.2 2640.26,11091.2 2802.12,11091.2 2963.99,11091.2 3125.86,11091.2 3287.72,11091.2 3449.59,11091.2 3611.46,11091.2 3773.32,11091.2 
  3935.19,11091.2 4097.06,11091.2 4258.92,11091.2 4420.79,11091.2 4582.66,11091.2 4744.52,11091.2 4906.39,11091.2 5068.25,11091.2 5230.12,11091.2 5391.99,11091.2 
  5553.85,11091.2 5715.72,11091.2 5877.59,11090.8 6039.45,11090.3 6201.32,11089 6363.19,11088.6 6525.05,11088.4 6686.92,11083.5 6848.79,11085.3 7010.65,11068 
  7172.52,11072.7 7334.39,11027 7496.25,10937.3 7658.12,10982.4 7819.98,9514.83 7981.85,11037.2 8143.72,11055.8 8305.58,11061.5 8467.45,11066 8629.32,11062.6 
  8791.18,11066.8 8953.05,11072.9 9114.92,11077.7 9276.78,11075.6 9438.65,11076.8 9600.52,11077.8 9762.38,11078.7 9924.25,11081.6 10086.1,11081.3 10248,11080.3 
  10409.8,11083.1 10571.7,11083.9 10733.6,11083.6 10895.4,11084.8 11057.3,11084.5 11219.2,11085.5 11381,11085 11542.9,11085.4 11704.8,11085.7 11866.6,11086.6 
  12028.5,11086.6 12190.4,11086.6 12352.2,11086.6 12514.1,11087.1 12676,11087.4 12837.8,11087.2 12999.7,11087.4 13161.6,11087.9 13323.4,11088.2 13485.3,11088.2 
  13647.2,11088.1 13809,11088.7 13970.9,11088.4 14132.8,11088.4 14294.6,11088.7 14456.5,11088.9 14618.4,11088.9 14780.2,11089.3 14942.1,11088.8 15104,11088.9 
  15265.8,11088.9 15427.7,11089.2 15589.6,11089.3 15751.4,11089.4 15913.3,11089.4 16075.2,11089.4 16237,11089.6 16398.9,11089.4 16560.8,11089.6 16722.6,11089.8 
  16884.5,11089.6 17046.4,11089.9 17208.2,11089.7 17370.1,11089.8 17532,11089.9 17693.8,11089.7 17855.7,11090 18017.6,11090 18179.4,11090 18341.3,11090.1 
  
  "/>
<polyline clip-path="url(#clip1802)" style="stroke:#e26f46; stroke-width:32; stroke-opacity:1; fill:none" points="
  2316.52,11091.2 2478.39,11091.2 2640.26,11091.2 2802.12,11091.2 2963.99,11091.2 3125.86,11091.2 3287.72,11091.2 3449.59,11091.2 3611.46,11091.2 3773.32,11091.2 
  3935.19,11091.2 4097.06,11091.2 4258.92,11091.1 4420.79,11091.1 4582.66,11091.1 4744.52,11090.8 4906.39,11091 5068.25,11090.8 5230.12,11089.8 5391.99,11089 
  5553.85,11088.4 5715.72,11086.9 5877.59,11086.9 6039.45,11082.4 6201.32,11076.2 6363.19,11043.5 6525.05,3087.51 6686.92,7809.01 6848.79,3143.65 7010.65,1282.05 
  7172.52,8868.72 7334.39,11029.4 7496.25,11018.6 7658.12,11047.7 7819.98,11059.1 7981.85,11060.1 8143.72,11058.1 8305.58,11061.8 8467.45,11068.9 8629.32,11065.2 
  8791.18,11069.5 8953.05,11074.3 9114.92,11071.2 9276.78,11074.5 9438.65,11076.4 9600.52,11075.4 9762.38,11078.1 9924.25,11080.7 10086.1,11081.6 10248,11081.6 
  10409.8,11081.4 10571.7,11083.8 10733.6,11083.4 10895.4,11083.8 11057.3,11083 11219.2,11085 11381,11085.7 11542.9,11085.9 11704.8,11084.7 11866.6,11086.2 
  12028.5,11086.6 12190.4,11086.6 12352.2,11086.8 12514.1,11087.2 12676,11086.7 12837.8,11087.7 12999.7,11087.3 13161.6,11087.3 13323.4,11088 13485.3,11087.9 
  13647.2,11088.4 13809,11087.8 13970.9,11088.4 14132.8,11088.3 14294.6,11088.6 14456.5,11088.7 14618.4,11088.6 14780.2,11088.9 14942.1,11088.9 15104,11089 
  15265.8,11088.9 15427.7,11088.8 15589.6,11089.3 15751.4,11089.3 15913.3,11089.2 16075.2,11089.2 16237,11089.2 16398.9,11089.2 16560.8,11089.4 16722.6,11089.4 
  16884.5,11089.7 17046.4,11089.6 17208.2,11089.5 17370.1,11089.7 17532,11089.8 17693.8,11089.7 17855.7,11089.6 18017.6,11089.8 18179.4,11090 18341.3,11090 
  
  "/>
<polyline clip-path="url(#clip1802)" style="stroke:#3da44d; stroke-width:32; stroke-opacity:1; fill:none" points="
  2316.52,11091.2 2478.39,11091.2 2640.26,11091.2 2802.12,11091.2 2963.99,11091.1 3125.86,11090.3 3287.72,11089.6 3449.59,11083.7 3611.46,11023 3773.32,11009.5 
  3935.19,11012.9 4097.06,10859.1 4258.92,10919.3 4420.79,11052.2 4582.66,11087.3 4744.52,11086.8 4906.39,11086.4 5068.25,11086.3 5230.12,11085.8 5391.99,11085.4 
  5553.85,11085.2 5715.72,11084.5 5877.59,11083.7 6039.45,11078.6 6201.32,11083.8 6363.19,11080.3 6525.05,11080.4 6686.92,11083.2 6848.79,11074.6 7010.65,11068.4 
  7172.52,11056.7 7334.39,11058.2 7496.25,11046.8 7658.12,10951.9 7819.98,10292.8 7981.85,10950.1 8143.72,11024.5 8305.58,11015.9 8467.45,11062.8 8629.32,11042.9 
  8791.18,11044.2 8953.05,11045 9114.92,11067.9 9276.78,11064.7 9438.65,11073.2 9600.52,11069.7 9762.38,11074.6 9924.25,11075.3 10086.1,11077.2 10248,11075.5 
  10409.8,11073.5 10571.7,11079.7 10733.6,11077.1 10895.4,11079.6 11057.3,11076 11219.2,11077.3 11381,11079.2 11542.9,11082.3 11704.8,11081.6 11866.6,11081.3 
  12028.5,11083.4 12190.4,11082.7 12352.2,11083.1 12514.1,11084.6 12676,11084.8 12837.8,11084 12999.7,11085.2 13161.6,11085.6 13323.4,11084.3 13485.3,11086 
  13647.2,11085.4 13809,11086.4 13970.9,11087.3 14132.8,11086.8 14294.6,11087.4 14456.5,11087.2 14618.4,11086.7 14780.2,11087.2 14942.1,11087 15104,11087.8 
  15265.8,11087.5 15427.7,11087.7 15589.6,11087.8 15751.4,11088.3 15913.3,11088.4 16075.2,11088.1 16237,11088 16398.9,11088 16560.8,11088.2 16722.6,11088.6 
  16884.5,11088.8 17046.4,11088.6 17208.2,11088.3 17370.1,11089.2 17532,11088.9 17693.8,11088.8 17855.7,11089.2 18017.6,11088.9 18179.4,11089 18341.3,11089.1 
  
  "/>
<polyline clip-path="url(#clip1802)" style="stroke:#c271d2; stroke-width:32; stroke-opacity:1; fill:none" points="
  2316.52,11091.2 2478.39,11091.2 2640.26,11091.2 2802.12,11091.2 2963.99,11091.2 3125.86,11091.2 3287.72,11091.2 3449.59,11091.2 3611.46,11091.2 3773.32,11091.2 
  3935.19,11091.2 4097.06,11091.1 4258.92,11091.1 4420.79,11091.1 4582.66,11091.1 4744.52,11091.1 4906.39,11091.1 5068.25,11091.1 5230.12,11091.1 5391.99,11091 
  5553.85,11091 5715.72,11082.7 5877.59,11090.5 6039.45,11090.5 6201.32,11089.8 6363.19,11085.6 6525.05,11087 6686.92,11084.5 6848.79,11082.8 7010.65,11085.5 
  7172.52,11076.7 7334.39,11059.6 7496.25,11073 7658.12,10960.1 7819.98,11028 7981.85,10241.5 8143.72,10333.1 8305.58,10923.4 8467.45,11021.8 8629.32,11033.2 
  8791.18,11031.2 8953.05,11036.2 9114.92,11043 9276.78,11031.4 9438.65,11056.6 9600.52,11070.1 9762.38,11066.7 9924.25,11054.4 10086.1,11069.1 10248,11062.3 
  10409.8,11066.4 10571.7,11074.9 10733.6,11074.1 10895.4,11075.1 11057.3,11071.6 11219.2,11065.9 11381,11078.5 11542.9,11080.2 11704.8,11075.2 11866.6,11079.1 
  12028.5,11078.2 12190.4,11080.1 12352.2,11078.5 12514.1,11080.7 12676,11082 12837.8,11083.4 12999.7,11081.2 13161.6,11083.6 13323.4,11083.3 13485.3,11085.1 
  13647.2,11084.1 13809,11083.8 13970.9,11084.9 14132.8,11083.7 14294.6,11084.2 14456.5,11084.7 14618.4,11085.1 14780.2,11085.4 14942.1,11086.1 15104,11085.6 
  15265.8,11085.6 15427.7,11086 15589.6,11085.2 15751.4,11086.2 15913.3,11087.1 16075.2,11086 16237,11087.3 16398.9,11087.3 16560.8,11087.4 16722.6,11087 
  16884.5,11088.1 17046.4,11087.2 17208.2,11088.1 17370.1,11088 17532,11088 17693.8,11088 17855.7,11087.9 18017.6,11088.6 18179.4,11088.2 18341.3,11088.5 
  
  "/>
<path clip-path="url(#clip1800)" d="
M2411.78 4075.14 L5666.77 4075.14 L5666.77 1655.94 L2411.78 1655.94  Z
  " fill="#ffffff" fill-rule="evenodd" fill-opacity="1"/>
<polyline clip-path="url(#clip1800)" style="stroke:#000000; stroke-width:32; stroke-opacity:1; fill:none" points="
  2411.78,4075.14 5666.77,4075.14 5666.77,1655.94 2411.78,1655.94 2411.78,4075.14 
  "/>
<polyline clip-path="url(#clip1800)" style="stroke:#009af9; stroke-width:32; stroke-opacity:1; fill:none" points="
  2603.78,2139.78 3755.78,2139.78 
  "/>
<path clip-path="url(#clip1800)" d="M 0 0 M4004.63 2001.54 L4042.04 2001.54 L4042.04 2258.76 Q4042.04 2308.76 4022.97 2331.35 Q4004.08 2353.94 3962.04 2353.94 L3947.78 2353.94 L3947.78 2322.46 L3959.45 2322.46 Q3984.26 2322.46 3994.45 2308.57 Q4004.63 2294.68 4004.63 2258.76 L4004.63 2001.54 Z" fill="#000000" fill-rule="evenodd" fill-opacity="1" /><path clip-path="url(#clip1800)" d="M 0 0 M4089.08 2246.54 L4150.19 2246.54 L4150.19 2035.61 L4083.71 2048.94 L4083.71 2014.87 L4149.82 2001.54 L4187.22 2001.54 L4187.22 2246.54 L4248.34 2246.54 L4248.34 2278.02 L4089.08 2278.02 L4089.08 2246.54 Z" fill="#000000" fill-rule="evenodd" fill-opacity="1" /><path clip-path="url(#clip1800)" d="M 0 0 M4409.08 2105.8 L4646.48 2105.8 L4646.48 2136.91 L4409.08 2136.91 L4409.08 2105.8 M4409.08 2181.35 L4646.48 2181.35 L4646.48 2212.83 L4409.08 2212.83 L4409.08 2181.35 Z" fill="#000000" fill-rule="evenodd" fill-opacity="1" /><path clip-path="url(#clip1800)" d="M 0 0 M4887.59 2026.17 Q4858.7 2026.17 4844.07 2054.68 Q4829.63 2083.02 4829.63 2140.05 Q4829.63 2196.91 4844.07 2225.42 Q4858.7 2253.76 4887.59 2253.76 Q4916.67 2253.76 4931.11 2225.42 Q4945.74 2196.91 4945.74 2140.05 Q4945.74 2083.02 4931.11 2054.68 Q4916.67 2026.17 4887.59 2026.17 M4887.59 1996.54 Q4934.07 1996.54 4958.52 2033.39 Q4983.15 2070.06 4983.15 2140.05 Q4983.15 2209.87 4958.52 2246.72 Q4934.07 2283.39 4887.59 2283.39 Q4841.11 2283.39 4816.48 2246.72 Q4792.04 2209.87 4792.04 2140.05 Q4792.04 2070.06 4816.48 2033.39 Q4841.11 1996.54 4887.59 1996.54 Z" fill="#000000" fill-rule="evenodd" fill-opacity="1" /><path clip-path="url(#clip1800)" d="M 0 0 M5023.7 2230.98 L5062.78 2230.98 L5062.78 2278.02 L5023.7 2278.02 L5023.7 2230.98 Z" fill="#000000" fill-rule="evenodd" fill-opacity="1" /><path clip-path="url(#clip1800)" d="M 0 0 M5183.33 2026.17 Q5154.44 2026.17 5139.81 2054.68 Q5125.37 2083.02 5125.37 2140.05 Q5125.37 2196.91 5139.81 2225.42 Q5154.44 2253.76 5183.33 2253.76 Q5212.4 2253.76 5226.85 2225.42 Q5241.48 2196.91 5241.48 2140.05 Q5241.48 2083.02 5226.85 2054.68 Q5212.4 2026.17 5183.33 2026.17 M5183.33 1996.54 Q5229.81 1996.54 5254.26 2033.39 Q5278.89 2070.06 5278.89 2140.05 Q5278.89 2209.87 5254.26 2246.72 Q5229.81 2283.39 5183.33 2283.39 Q5136.85 2283.39 5112.22 2246.72 Q5087.78 2209.87 5087.78 2140.05 Q5087.78 2070.06 5112.22 2033.39 Q5136.85 1996.54 5183.33 1996.54 Z" fill="#000000" fill-rule="evenodd" fill-opacity="1" /><polyline clip-path="url(#clip1800)" style="stroke:#e26f46; stroke-width:32; stroke-opacity:1; fill:none" points="
  2603.78,2623.62 3755.78,2623.62 
  "/>
<path clip-path="url(#clip1800)" d="M 0 0 M4004.63 2485.38 L4042.04 2485.38 L4042.04 2742.6 Q4042.04 2792.6 4022.97 2815.19 Q4004.08 2837.78 3962.04 2837.78 L3947.78 2837.78 L3947.78 2806.3 L3959.45 2806.3 Q3984.26 2806.3 3994.45 2792.41 Q4004.63 2778.52 4004.63 2742.6 L4004.63 2485.38 Z" fill="#000000" fill-rule="evenodd" fill-opacity="1" /><path clip-path="url(#clip1800)" d="M 0 0 M4089.08 2730.38 L4150.19 2730.38 L4150.19 2519.45 L4083.71 2532.78 L4083.71 2498.71 L4149.82 2485.38 L4187.22 2485.38 L4187.22 2730.38 L4248.34 2730.38 L4248.34 2761.86 L4089.08 2761.86 L4089.08 2730.38 Z" fill="#000000" fill-rule="evenodd" fill-opacity="1" /><path clip-path="url(#clip1800)" d="M 0 0 M4409.08 2589.64 L4646.48 2589.64 L4646.48 2620.75 L4409.08 2620.75 L4409.08 2589.64 M4409.08 2665.19 L4646.48 2665.19 L4646.48 2696.67 L4409.08 2696.67 L4409.08 2665.19 Z" fill="#000000" fill-rule="evenodd" fill-opacity="1" /><path clip-path="url(#clip1800)" d="M 0 0 M4887.59 2510.01 Q4858.7 2510.01 4844.07 2538.52 Q4829.63 2566.86 4829.63 2623.89 Q4829.63 2680.75 4844.07 2709.26 Q4858.7 2737.6 4887.59 2737.6 Q4916.67 2737.6 4931.11 2709.26 Q4945.74 2680.75 4945.74 2623.89 Q4945.74 2566.86 4931.11 2538.52 Q4916.67 2510.01 4887.59 2510.01 M4887.59 2480.38 Q4934.07 2480.38 4958.52 2517.23 Q4983.15 2553.9 4983.15 2623.89 Q4983.15 2693.71 4958.52 2730.56 Q4934.07 2767.23 4887.59 2767.23 Q4841.11 2767.23 4816.48 2730.56 Q4792.04 2693.71 4792.04 2623.89 Q4792.04 2553.9 4816.48 2517.23 Q4841.11 2480.38 4887.59 2480.38 Z" fill="#000000" fill-rule="evenodd" fill-opacity="1" /><path clip-path="url(#clip1800)" d="M 0 0 M5023.7 2714.82 L5062.78 2714.82 L5062.78 2761.86 L5023.7 2761.86 L5023.7 2714.82 Z" fill="#000000" fill-rule="evenodd" fill-opacity="1" /><path clip-path="url(#clip1800)" d="M 0 0 M5206.11 2517.97 L5111.66 2665.56 L5206.11 2665.56 L5206.11 2517.97 M5196.29 2485.38 L5243.33 2485.38 L5243.33 2665.56 L5282.77 2665.56 L5282.77 2696.67 L5243.33 2696.67 L5243.33 2761.86 L5206.11 2761.86 L5206.11 2696.67 L5081.29 2696.67 L5081.29 2660.56 L5196.29 2485.38 Z" fill="#000000" fill-rule="evenodd" fill-opacity="1" /><polyline clip-path="url(#clip1800)" style="stroke:#3da44d; stroke-width:32; stroke-opacity:1; fill:none" points="
  2603.78,3107.46 3755.78,3107.46 
  "/>
<path clip-path="url(#clip1800)" d="M 0 0 M4004.63 2969.22 L4042.04 2969.22 L4042.04 3226.44 Q4042.04 3276.44 4022.97 3299.03 Q4004.08 3321.62 3962.04 3321.62 L3947.78 3321.62 L3947.78 3290.14 L3959.45 3290.14 Q3984.26 3290.14 3994.45 3276.25 Q4004.63 3262.36 4004.63 3226.44 L4004.63 2969.22 Z" fill="#000000" fill-rule="evenodd" fill-opacity="1" /><path clip-path="url(#clip1800)" d="M 0 0 M4089.08 3214.22 L4150.19 3214.22 L4150.19 3003.29 L4083.71 3016.62 L4083.71 2982.55 L4149.82 2969.22 L4187.22 2969.22 L4187.22 3214.22 L4248.34 3214.22 L4248.34 3245.7 L4089.08 3245.7 L4089.08 3214.22 Z" fill="#000000" fill-rule="evenodd" fill-opacity="1" /><path clip-path="url(#clip1800)" d="M 0 0 M4409.08 3073.48 L4646.48 3073.48 L4646.48 3104.59 L4409.08 3104.59 L4409.08 3073.48 M4409.08 3149.03 L4646.48 3149.03 L4646.48 3180.51 L4409.08 3180.51 L4409.08 3149.03 Z" fill="#000000" fill-rule="evenodd" fill-opacity="1" /><path clip-path="url(#clip1800)" d="M 0 0 M4887.59 2993.85 Q4858.7 2993.85 4844.07 3022.36 Q4829.63 3050.7 4829.63 3107.73 Q4829.63 3164.59 4844.07 3193.1 Q4858.7 3221.44 4887.59 3221.44 Q4916.67 3221.44 4931.11 3193.1 Q4945.74 3164.59 4945.74 3107.73 Q4945.74 3050.7 4931.11 3022.36 Q4916.67 2993.85 4887.59 2993.85 M4887.59 2964.22 Q4934.07 2964.22 4958.52 3001.07 Q4983.15 3037.74 4983.15 3107.73 Q4983.15 3177.55 4958.52 3214.4 Q4934.07 3251.07 4887.59 3251.07 Q4841.11 3251.07 4816.48 3214.4 Q4792.04 3177.55 4792.04 3107.73 Q4792.04 3037.74 4816.48 3001.07 Q4841.11 2964.22 4887.59 2964.22 Z" fill="#000000" fill-rule="evenodd" fill-opacity="1" /><path clip-path="url(#clip1800)" d="M 0 0 M5023.7 3198.66 L5062.78 3198.66 L5062.78 3245.7 L5023.7 3245.7 L5023.7 3198.66 Z" fill="#000000" fill-rule="evenodd" fill-opacity="1" /><path clip-path="url(#clip1800)" d="M 0 0 M5183.33 3114.4 Q5156.66 3114.4 5141.29 3128.66 Q5126.11 3142.92 5126.11 3167.92 Q5126.11 3192.92 5141.29 3207.18 Q5156.66 3221.44 5183.33 3221.44 Q5210 3221.44 5225.37 3207.18 Q5240.74 3192.73 5240.74 3167.92 Q5240.74 3142.92 5225.37 3128.66 Q5210.18 3114.4 5183.33 3114.4 M5145.92 3098.48 Q5121.85 3092.55 5108.33 3076.07 Q5095 3059.59 5095 3035.88 Q5095 3002.74 5118.52 2983.48 Q5142.22 2964.22 5183.33 2964.22 Q5224.63 2964.22 5248.14 2983.48 Q5271.66 3002.74 5271.66 3035.88 Q5271.66 3059.59 5258.14 3076.07 Q5244.81 3092.55 5220.92 3098.48 Q5247.96 3104.77 5262.96 3123.11 Q5278.14 3141.44 5278.14 3167.92 Q5278.14 3208.1 5253.52 3229.59 Q5229.07 3251.07 5183.33 3251.07 Q5137.59 3251.07 5112.96 3229.59 Q5088.52 3208.1 5088.52 3167.92 Q5088.52 3141.44 5103.7 3123.11 Q5118.89 3104.77 5145.92 3098.48 M5132.22 3039.4 Q5132.22 3060.88 5145.55 3072.92 Q5159.07 3084.96 5183.33 3084.96 Q5207.4 3084.96 5220.92 3072.92 Q5234.63 3060.88 5234.63 3039.4 Q5234.63 3017.92 5220.92 3005.88 Q5207.4 2993.85 5183.33 2993.85 Q5159.07 2993.85 5145.55 3005.88 Q5132.22 3017.92 5132.22 3039.4 Z" fill="#000000" fill-rule="evenodd" fill-opacity="1" /><polyline clip-path="url(#clip1800)" style="stroke:#c271d2; stroke-width:32; stroke-opacity:1; fill:none" points="
  2603.78,3591.3 3755.78,3591.3 
  "/>
<path clip-path="url(#clip1800)" d="M 0 0 M4004.63 3453.06 L4042.04 3453.06 L4042.04 3710.28 Q4042.04 3760.28 4022.97 3782.87 Q4004.08 3805.46 3962.04 3805.46 L3947.78 3805.46 L3947.78 3773.98 L3959.45 3773.98 Q3984.26 3773.98 3994.45 3760.09 Q4004.63 3746.2 4004.63 3710.28 L4004.63 3453.06 Z" fill="#000000" fill-rule="evenodd" fill-opacity="1" /><path clip-path="url(#clip1800)" d="M 0 0 M4089.08 3698.06 L4150.19 3698.06 L4150.19 3487.13 L4083.71 3500.46 L4083.71 3466.39 L4149.82 3453.06 L4187.22 3453.06 L4187.22 3698.06 L4248.34 3698.06 L4248.34 3729.54 L4089.08 3729.54 L4089.08 3698.06 Z" fill="#000000" fill-rule="evenodd" fill-opacity="1" /><path clip-path="url(#clip1800)" d="M 0 0 M4409.08 3557.32 L4646.48 3557.32 L4646.48 3588.43 L4409.08 3588.43 L4409.08 3557.32 M4409.08 3632.87 L4646.48 3632.87 L4646.48 3664.35 L4409.08 3664.35 L4409.08 3632.87 Z" fill="#000000" fill-rule="evenodd" fill-opacity="1" /><path clip-path="url(#clip1800)" d="M 0 0 M4814.07 3698.06 L4875.18 3698.06 L4875.18 3487.13 L4808.7 3500.46 L4808.7 3466.39 L4874.81 3453.06 L4912.22 3453.06 L4912.22 3698.06 L4973.33 3698.06 L4973.33 3729.54 L4814.07 3729.54 L4814.07 3698.06 Z" fill="#000000" fill-rule="evenodd" fill-opacity="1" /><path clip-path="url(#clip1800)" d="M 0 0 M5013.89 3682.5 L5052.96 3682.5 L5052.96 3729.54 L5013.89 3729.54 L5013.89 3682.5 Z" fill="#000000" fill-rule="evenodd" fill-opacity="1" /><path clip-path="url(#clip1800)" d="M 0 0 M5173.52 3477.69 Q5144.63 3477.69 5130 3506.2 Q5115.55 3534.54 5115.55 3591.57 Q5115.55 3648.43 5130 3676.94 Q5144.63 3705.28 5173.52 3705.28 Q5202.59 3705.28 5217.03 3676.94 Q5231.66 3648.43 5231.66 3591.57 Q5231.66 3534.54 5217.03 3506.2 Q5202.59 3477.69 5173.52 3477.69 M5173.52 3448.06 Q5220 3448.06 5244.44 3484.91 Q5269.07 3521.58 5269.07 3591.57 Q5269.07 3661.39 5244.44 3698.24 Q5220 3734.91 5173.52 3734.91 Q5127.03 3734.91 5102.41 3698.24 Q5077.96 3661.39 5077.96 3591.57 Q5077.96 3521.58 5102.41 3484.91 Q5127.03 3448.06 5173.52 3448.06 Z" fill="#000000" fill-rule="evenodd" fill-opacity="1" /></svg>
