<?xml version="1.0" encoding="utf-8"?>
<svg xmlns="http://www.w3.org/2000/svg" xmlns:xlink="http://www.w3.org/1999/xlink" width="4800" height="3200" viewBox="0 0 19200 12800">
<defs>
  <clipPath id="clip5000">
    <rect x="0" y="0" width="19200" height="12800"/>
  </clipPath>
</defs>
<path clip-path="url(#clip5000)" d="
M0 12800 L19200 12800 L19200 0 L0 0  Z
  " fill="#ffffff" fill-rule="evenodd" fill-opacity="1"/>
<defs>
  <clipPath id="clip5001">
    <rect x="3840" y="0" width="13441" height="12800"/>
  </clipPath>
</defs>
<path clip-path="url(#clip5000)" d="
M1593.75 11385.4 L18822 11385.4 L18822 987.777 L1593.75 987.777  Z
  " fill="#ffffff" fill-rule="evenodd" fill-opacity="1"/>
<defs>
  <clipPath id="clip5002">
    <rect x="1593" y="987" width="17229" height="10399"/>
  </clipPath>
</defs>
<polyline clip-path="url(#clip5002)" style="stroke:#000000; stroke-width:16; stroke-opacity:0.1; fill:none" points="
  2081.34,11385.4 2081.34,987.777 
  "/>
<polyline clip-path="url(#clip5002)" style="stroke:#000000; stroke-width:16; stroke-opacity:0.1; fill:none" points="
  5775.23,11385.4 5775.23,987.777 
  "/>
<polyline clip-path="url(#clip5002)" style="stroke:#000000; stroke-width:16; stroke-opacity:0.1; fill:none" points="
  9469.12,11385.4 9469.12,987.777 
  "/>
<polyline clip-path="url(#clip5002)" style="stroke:#000000; stroke-width:16; stroke-opacity:0.1; fill:none" points="
  13163,11385.4 13163,987.777 
  "/>
<polyline clip-path="url(#clip5002)" style="stroke:#000000; stroke-width:16; stroke-opacity:0.1; fill:none" points="
  16856.9,11385.4 16856.9,987.777 
  "/>
<polyline clip-path="url(#clip5002)" style="stroke:#000000; stroke-width:16; stroke-opacity:0.1; fill:none" points="
  1593.75,9614.06 18822,9614.06 
  "/>
<polyline clip-path="url(#clip5002)" style="stroke:#000000; stroke-width:16; stroke-opacity:0.1; fill:none" points="
  1593.75,7832.77 18822,7832.77 
  "/>
<polyline clip-path="url(#clip5002)" style="stroke:#000000; stroke-width:16; stroke-opacity:0.1; fill:none" points="
  1593.75,6051.48 18822,6051.48 
  "/>
<polyline clip-path="url(#clip5002)" style="stroke:#000000; stroke-width:16; stroke-opacity:0.1; fill:none" points="
  1593.75,4270.18 18822,4270.18 
  "/>
<polyline clip-path="url(#clip5002)" style="stroke:#000000; stroke-width:16; stroke-opacity:0.1; fill:none" points="
  1593.75,2488.89 18822,2488.89 
  "/>
<polyline clip-path="url(#clip5000)" style="stroke:#000000; stroke-width:32; stroke-opacity:1; fill:none" points="
  1593.75,11385.4 18822,11385.4 
  "/>
<polyline clip-path="url(#clip5000)" style="stroke:#000000; stroke-width:32; stroke-opacity:1; fill:none" points="
  1593.75,11385.4 1593.75,987.777 
  "/>
<polyline clip-path="url(#clip5000)" style="stroke:#000000; stroke-width:32; stroke-opacity:1; fill:none" points="
  2081.34,11385.4 2081.34,11260.7 
  "/>
<polyline clip-path="url(#clip5000)" style="stroke:#000000; stroke-width:32; stroke-opacity:1; fill:none" points="
  5775.23,11385.4 5775.23,11260.7 
  "/>
<polyline clip-path="url(#clip5000)" style="stroke:#000000; stroke-width:32; stroke-opacity:1; fill:none" points="
  9469.12,11385.4 9469.12,11260.7 
  "/>
<polyline clip-path="url(#clip5000)" style="stroke:#000000; stroke-width:32; stroke-opacity:1; fill:none" points="
  13163,11385.4 13163,11260.7 
  "/>
<polyline clip-path="url(#clip5000)" style="stroke:#000000; stroke-width:32; stroke-opacity:1; fill:none" points="
  16856.9,11385.4 16856.9,11260.7 
  "/>
<polyline clip-path="url(#clip5000)" style="stroke:#000000; stroke-width:32; stroke-opacity:1; fill:none" points="
  1593.75,9614.06 1800.49,9614.06 
  "/>
<polyline clip-path="url(#clip5000)" style="stroke:#000000; stroke-width:32; stroke-opacity:1; fill:none" points="
  1593.75,7832.77 1800.49,7832.77 
  "/>
<polyline clip-path="url(#clip5000)" style="stroke:#000000; stroke-width:32; stroke-opacity:1; fill:none" points="
  1593.75,6051.48 1800.49,6051.48 
  "/>
<polyline clip-path="url(#clip5000)" style="stroke:#000000; stroke-width:32; stroke-opacity:1; fill:none" points="
  1593.75,4270.18 1800.49,4270.18 
  "/>
<polyline clip-path="url(#clip5000)" style="stroke:#000000; stroke-width:32; stroke-opacity:1; fill:none" points="
  1593.75,2488.89 1800.49,2488.89 
  "/>
<path clip-path="url(#clip5000)" d="M 0 0 M1828.75 11561.4 Q1799.86 11561.4 1785.23 11589.9 Q1770.79 11618.2 1770.79 11675.3 Q1770.79 11732.1 1785.23 11760.6 Q1799.86 11789 1828.75 11789 Q1857.82 11789 1872.27 11760.6 Q1886.9 11732.1 1886.9 11675.3 Q1886.9 11618.2 1872.27 11589.9 Q1857.82 11561.4 1828.75 11561.4 M1828.75 11531.7 Q1875.23 11531.7 1899.67 11568.6 Q1924.3 11605.3 1924.3 11675.3 Q1924.3 11745.1 1899.67 11781.9 Q1875.23 11818.6 1828.75 11818.6 Q1782.27 11818.6 1757.64 11781.9 Q1733.19 11745.1 1733.19 11675.3 Q1733.19 11605.3 1757.64 11568.6 Q1782.27 11531.7 1828.75 11531.7 Z" fill="#000000" fill-rule="evenodd" fill-opacity="1" /><path clip-path="url(#clip5000)" d="M 0 0 M1964.86 11766.2 L2003.93 11766.2 L2003.93 11813.2 L1964.86 11813.2 L1964.86 11766.2 Z" fill="#000000" fill-rule="evenodd" fill-opacity="1" /><path clip-path="url(#clip5000)" d="M 0 0 M2044.86 11536.7 L2191.71 11536.7 L2191.71 11568.2 L2079.12 11568.2 L2079.12 11636 Q2087.27 11633.2 2095.41 11631.9 Q2103.56 11630.4 2111.71 11630.4 Q2158.01 11630.4 2185.04 11655.8 Q2212.08 11681.2 2212.08 11724.5 Q2212.08 11769.1 2184.3 11794 Q2156.52 11818.6 2105.97 11818.6 Q2088.56 11818.6 2070.41 11815.6 Q2052.45 11812.7 2033.19 11806.7 L2033.19 11769.1 Q2049.86 11778.2 2067.64 11782.7 Q2085.41 11787.1 2105.23 11787.1 Q2137.26 11787.1 2155.97 11770.3 Q2174.67 11753.4 2174.67 11724.5 Q2174.67 11695.6 2155.97 11678.8 Q2137.26 11661.9 2105.23 11661.9 Q2090.23 11661.9 2075.23 11665.3 Q2060.41 11668.6 2044.86 11675.6 L2044.86 11536.7 Z" fill="#000000" fill-rule="evenodd" fill-opacity="1" /><path clip-path="url(#clip5000)" d="M 0 0 M2337.26 11660.1 Q2312.08 11660.1 2297.26 11677.3 Q2282.63 11694.5 2282.63 11724.5 Q2282.63 11754.3 2297.26 11771.7 Q2312.08 11789 2337.26 11789 Q2362.45 11789 2377.08 11771.7 Q2391.89 11754.3 2391.89 11724.5 Q2391.89 11694.5 2377.08 11677.3 Q2362.45 11660.1 2337.26 11660.1 M2411.52 11542.8 L2411.52 11576.9 Q2397.45 11570.3 2383 11566.7 Q2368.75 11563.2 2354.67 11563.2 Q2317.63 11563.2 2298 11588.2 Q2278.56 11613.2 2275.78 11663.8 Q2286.71 11647.7 2303.19 11639.1 Q2319.67 11630.4 2339.49 11630.4 Q2381.15 11630.4 2405.23 11655.8 Q2429.49 11681 2429.49 11724.5 Q2429.49 11767.1 2404.3 11792.8 Q2379.12 11818.6 2337.26 11818.6 Q2289.3 11818.6 2263.93 11781.9 Q2238.56 11745.1 2238.56 11675.3 Q2238.56 11609.7 2269.67 11570.8 Q2300.78 11531.7 2353.19 11531.7 Q2367.26 11531.7 2381.52 11534.5 Q2395.97 11537.3 2411.52 11542.8 Z" fill="#000000" fill-rule="evenodd" fill-opacity="1" /><path clip-path="url(#clip5000)" d="M 0 0 M5523.66 11561.4 Q5494.77 11561.4 5480.14 11589.9 Q5465.69 11618.2 5465.69 11675.3 Q5465.69 11732.1 5480.14 11760.6 Q5494.77 11789 5523.66 11789 Q5552.73 11789 5567.17 11760.6 Q5581.8 11732.1 5581.8 11675.3 Q5581.8 11618.2 5567.17 11589.9 Q5552.73 11561.4 5523.66 11561.4 M5523.66 11531.7 Q5570.14 11531.7 5594.58 11568.6 Q5619.21 11605.3 5619.21 11675.3 Q5619.21 11745.1 5594.58 11781.9 Q5570.14 11818.6 5523.66 11818.6 Q5477.17 11818.6 5452.55 11781.9 Q5428.1 11745.1 5428.1 11675.3 Q5428.1 11605.3 5452.55 11568.6 Q5477.17 11531.7 5523.66 11531.7 Z" fill="#000000" fill-rule="evenodd" fill-opacity="1" /><path clip-path="url(#clip5000)" d="M 0 0 M5659.77 11766.2 L5698.84 11766.2 L5698.84 11813.2 L5659.77 11813.2 L5659.77 11766.2 Z" fill="#000000" fill-rule="evenodd" fill-opacity="1" /><path clip-path="url(#clip5000)" d="M 0 0 M5739.77 11536.7 L5886.62 11536.7 L5886.62 11568.2 L5774.03 11568.2 L5774.03 11636 Q5782.17 11633.2 5790.32 11631.9 Q5798.47 11630.4 5806.62 11630.4 Q5852.91 11630.4 5879.95 11655.8 Q5906.99 11681.2 5906.99 11724.5 Q5906.99 11769.1 5879.21 11794 Q5851.43 11818.6 5800.88 11818.6 Q5783.47 11818.6 5765.32 11815.6 Q5747.36 11812.7 5728.1 11806.7 L5728.1 11769.1 Q5744.77 11778.2 5762.54 11782.7 Q5780.32 11787.1 5800.14 11787.1 Q5832.17 11787.1 5850.88 11770.3 Q5869.58 11753.4 5869.58 11724.5 Q5869.58 11695.6 5850.88 11678.8 Q5832.17 11661.9 5800.14 11661.9 Q5785.14 11661.9 5770.14 11665.3 Q5755.32 11668.6 5739.77 11675.6 L5739.77 11536.7 Z" fill="#000000" fill-rule="evenodd" fill-opacity="1" /><path clip-path="url(#clip5000)" d="M 0 0 M6027.54 11681.9 Q6000.88 11681.9 5985.51 11696.2 Q5970.32 11710.4 5970.32 11735.4 Q5970.32 11760.4 5985.51 11774.7 Q6000.88 11789 6027.54 11789 Q6054.21 11789 6069.58 11774.7 Q6084.95 11760.3 6084.95 11735.4 Q6084.95 11710.4 6069.58 11696.2 Q6054.39 11681.9 6027.54 11681.9 M5990.14 11666 Q5966.06 11660.1 5952.54 11643.6 Q5939.21 11627.1 5939.21 11603.4 Q5939.21 11570.3 5962.73 11551 Q5986.43 11531.7 6027.54 11531.7 Q6068.84 11531.7 6092.36 11551 Q6115.88 11570.3 6115.88 11603.4 Q6115.88 11627.1 6102.36 11643.6 Q6089.02 11660.1 6065.13 11666 Q6092.17 11672.3 6107.17 11690.6 Q6122.36 11709 6122.36 11735.4 Q6122.36 11775.6 6097.73 11797.1 Q6073.28 11818.6 6027.54 11818.6 Q5981.8 11818.6 5957.17 11797.1 Q5932.73 11775.6 5932.73 11735.4 Q5932.73 11709 5947.91 11690.6 Q5963.1 11672.3 5990.14 11666 M5976.43 11606.9 Q5976.43 11628.4 5989.76 11640.4 Q6003.28 11652.5 6027.54 11652.5 Q6051.62 11652.5 6065.13 11640.4 Q6078.84 11628.4 6078.84 11606.9 Q6078.84 11585.4 6065.13 11573.4 Q6051.62 11561.4 6027.54 11561.4 Q6003.28 11561.4 5989.76 11573.4 Q5976.43 11585.4 5976.43 11606.9 Z" fill="#000000" fill-rule="evenodd" fill-opacity="1" /><path clip-path="url(#clip5000)" d="M 0 0 M9212.55 11561.4 Q9183.66 11561.4 9169.03 11589.9 Q9154.58 11618.2 9154.58 11675.3 Q9154.58 11732.1 9169.03 11760.6 Q9183.66 11789 9212.55 11789 Q9241.62 11789 9256.06 11760.6 Q9270.69 11732.1 9270.69 11675.3 Q9270.69 11618.2 9256.06 11589.9 Q9241.62 11561.4 9212.55 11561.4 M9212.55 11531.7 Q9259.03 11531.7 9283.47 11568.6 Q9308.1 11605.3 9308.1 11675.3 Q9308.1 11745.1 9283.47 11781.9 Q9259.03 11818.6 9212.55 11818.6 Q9166.06 11818.6 9141.44 11781.9 Q9116.99 11745.1 9116.99 11675.3 Q9116.99 11605.3 9141.44 11568.6 Q9166.06 11531.7 9212.55 11531.7 Z" fill="#000000" fill-rule="evenodd" fill-opacity="1" /><path clip-path="url(#clip5000)" d="M 0 0 M9348.66 11766.2 L9387.73 11766.2 L9387.73 11813.2 L9348.66 11813.2 L9348.66 11766.2 Z" fill="#000000" fill-rule="evenodd" fill-opacity="1" /><path clip-path="url(#clip5000)" d="M 0 0 M9512.91 11660.1 Q9487.73 11660.1 9472.91 11677.3 Q9458.29 11694.5 9458.29 11724.5 Q9458.29 11754.3 9472.91 11771.7 Q9487.73 11789 9512.91 11789 Q9538.1 11789 9552.73 11771.7 Q9567.54 11754.3 9567.54 11724.5 Q9567.54 11694.5 9552.73 11677.3 Q9538.1 11660.1 9512.91 11660.1 M9587.17 11542.8 L9587.17 11576.9 Q9573.1 11570.3 9558.66 11566.7 Q9544.4 11563.2 9530.32 11563.2 Q9493.29 11563.2 9473.66 11588.2 Q9454.21 11613.2 9451.43 11663.8 Q9462.36 11647.7 9478.84 11639.1 Q9495.32 11630.4 9515.14 11630.4 Q9556.8 11630.4 9580.88 11655.8 Q9605.14 11681 9605.14 11724.5 Q9605.14 11767.1 9579.95 11792.8 Q9554.77 11818.6 9512.91 11818.6 Q9464.95 11818.6 9439.58 11781.9 Q9414.21 11745.1 9414.21 11675.3 Q9414.21 11609.7 9445.32 11570.8 Q9476.43 11531.7 9528.84 11531.7 Q9542.91 11531.7 9557.17 11534.5 Q9571.62 11537.3 9587.17 11542.8 Z" fill="#000000" fill-rule="evenodd" fill-opacity="1" /><path clip-path="url(#clip5000)" d="M 0 0 M9725.69 11561.4 Q9696.8 11561.4 9682.17 11589.9 Q9667.73 11618.2 9667.73 11675.3 Q9667.73 11732.1 9682.17 11760.6 Q9696.8 11789 9725.69 11789 Q9754.77 11789 9769.21 11760.6 Q9783.84 11732.1 9783.84 11675.3 Q9783.84 11618.2 9769.21 11589.9 Q9754.77 11561.4 9725.69 11561.4 M9725.69 11531.7 Q9772.17 11531.7 9796.62 11568.6 Q9821.25 11605.3 9821.25 11675.3 Q9821.25 11745.1 9796.62 11781.9 Q9772.17 11818.6 9725.69 11818.6 Q9679.21 11818.6 9654.58 11781.9 Q9630.14 11745.1 9630.14 11675.3 Q9630.14 11605.3 9654.58 11568.6 Q9679.21 11531.7 9725.69 11531.7 Z" fill="#000000" fill-rule="evenodd" fill-opacity="1" /><path clip-path="url(#clip5000)" d="M 0 0 M12912.8 11561.4 Q12883.9 11561.4 12869.3 11589.9 Q12854.9 11618.2 12854.9 11675.3 Q12854.9 11732.1 12869.3 11760.6 Q12883.9 11789 12912.8 11789 Q12941.9 11789 12956.3 11760.6 Q12971 11732.1 12971 11675.3 Q12971 11618.2 12956.3 11589.9 Q12941.9 11561.4 12912.8 11561.4 M12912.8 11531.7 Q12959.3 11531.7 12983.7 11568.6 Q13008.4 11605.3 13008.4 11675.3 Q13008.4 11745.1 12983.7 11781.9 Q12959.3 11818.6 12912.8 11818.6 Q12866.3 11818.6 12841.7 11781.9 Q12817.3 11745.1 12817.3 11675.3 Q12817.3 11605.3 12841.7 11568.6 Q12866.3 11531.7 12912.8 11531.7 Z" fill="#000000" fill-rule="evenodd" fill-opacity="1" /><path clip-path="url(#clip5000)" d="M 0 0 M13048.9 11766.2 L13088 11766.2 L13088 11813.2 L13048.9 11813.2 L13048.9 11766.2 Z" fill="#000000" fill-rule="evenodd" fill-opacity="1" /><path clip-path="url(#clip5000)" d="M 0 0 M13213.2 11660.1 Q13188 11660.1 13173.2 11677.3 Q13158.6 11694.5 13158.6 11724.5 Q13158.6 11754.3 13173.2 11771.7 Q13188 11789 13213.2 11789 Q13238.4 11789 13253 11771.7 Q13267.8 11754.3 13267.8 11724.5 Q13267.8 11694.5 13253 11677.3 Q13238.4 11660.1 13213.2 11660.1 M13287.5 11542.8 L13287.5 11576.9 Q13273.4 11570.3 13258.9 11566.7 Q13244.7 11563.2 13230.6 11563.2 Q13193.6 11563.2 13173.9 11588.2 Q13154.5 11613.2 13151.7 11663.8 Q13162.6 11647.7 13179.1 11639.1 Q13195.6 11630.4 13215.4 11630.4 Q13257.1 11630.4 13281.2 11655.8 Q13305.4 11681 13305.4 11724.5 Q13305.4 11767.1 13280.2 11792.8 Q13255 11818.6 13213.2 11818.6 Q13165.2 11818.6 13139.9 11781.9 Q13114.5 11745.1 13114.5 11675.3 Q13114.5 11609.7 13145.6 11570.8 Q13176.7 11531.7 13229.1 11531.7 Q13243.2 11531.7 13257.5 11534.5 Q13271.9 11537.3 13287.5 11542.8 Z" fill="#000000" fill-rule="evenodd" fill-opacity="1" /><path clip-path="url(#clip5000)" d="M 0 0 M13378.2 11781.7 L13508.7 11781.7 L13508.7 11813.2 L13333.2 11813.2 L13333.2 11781.7 Q13354.5 11759.7 13391.2 11722.7 Q13428 11685.4 13437.5 11674.7 Q13455.4 11654.5 13462.5 11640.6 Q13469.7 11626.5 13469.7 11613 Q13469.7 11591 13454.1 11577.1 Q13438.7 11563.2 13413.9 11563.2 Q13396.3 11563.2 13376.7 11569.3 Q13357.3 11575.4 13335 11587.8 L13335 11550.1 Q13357.6 11541 13377.3 11536.4 Q13396.9 11531.7 13413.2 11531.7 Q13456.2 11531.7 13481.7 11553.2 Q13507.3 11574.7 13507.3 11610.6 Q13507.3 11627.7 13500.8 11643 Q13494.5 11658.2 13477.6 11679 Q13473 11684.3 13448.2 11710.1 Q13423.4 11735.6 13378.2 11781.7 Z" fill="#000000" fill-rule="evenodd" fill-opacity="1" /><path clip-path="url(#clip5000)" d="M 0 0 M16598.4 11561.4 Q16569.5 11561.4 16554.9 11589.9 Q16540.4 11618.2 16540.4 11675.3 Q16540.4 11732.1 16554.9 11760.6 Q16569.5 11789 16598.4 11789 Q16627.5 11789 16641.9 11760.6 Q16656.5 11732.1 16656.5 11675.3 Q16656.5 11618.2 16641.9 11589.9 Q16627.5 11561.4 16598.4 11561.4 M16598.4 11531.7 Q16644.9 11531.7 16669.3 11568.6 Q16693.9 11605.3 16693.9 11675.3 Q16693.9 11745.1 16669.3 11781.9 Q16644.9 11818.6 16598.4 11818.6 Q16551.9 11818.6 16527.3 11781.9 Q16502.8 11745.1 16502.8 11675.3 Q16502.8 11605.3 16527.3 11568.6 Q16551.9 11531.7 16598.4 11531.7 Z" fill="#000000" fill-rule="evenodd" fill-opacity="1" /><path clip-path="url(#clip5000)" d="M 0 0 M16734.5 11766.2 L16773.6 11766.2 L16773.6 11813.2 L16734.5 11813.2 L16734.5 11766.2 Z" fill="#000000" fill-rule="evenodd" fill-opacity="1" /><path clip-path="url(#clip5000)" d="M 0 0 M16898.7 11660.1 Q16873.6 11660.1 16858.7 11677.3 Q16844.1 11694.5 16844.1 11724.5 Q16844.1 11754.3 16858.7 11771.7 Q16873.6 11789 16898.7 11789 Q16923.9 11789 16938.6 11771.7 Q16953.4 11754.3 16953.4 11724.5 Q16953.4 11694.5 16938.6 11677.3 Q16923.9 11660.1 16898.7 11660.1 M16973 11542.8 L16973 11576.9 Q16958.9 11570.3 16944.5 11566.7 Q16930.2 11563.2 16916.2 11563.2 Q16879.1 11563.2 16859.5 11588.2 Q16840 11613.2 16837.3 11663.8 Q16848.2 11647.7 16864.7 11639.1 Q16881.2 11630.4 16901 11630.4 Q16942.6 11630.4 16966.7 11655.8 Q16991 11681 16991 11724.5 Q16991 11767.1 16965.8 11792.8 Q16940.6 11818.6 16898.7 11818.6 Q16850.8 11818.6 16825.4 11781.9 Q16800 11745.1 16800 11675.3 Q16800 11609.7 16831.2 11570.8 Q16862.3 11531.7 16914.7 11531.7 Q16928.7 11531.7 16943 11534.5 Q16957.5 11537.3 16973 11542.8 Z" fill="#000000" fill-rule="evenodd" fill-opacity="1" /><path clip-path="url(#clip5000)" d="M 0 0 M17134.3 11569.3 L17039.9 11716.9 L17134.3 11716.9 L17134.3 11569.3 M17124.5 11536.7 L17171.5 11536.7 L17171.5 11716.9 L17211 11716.9 L17211 11748 L17171.5 11748 L17171.5 11813.2 L17134.3 11813.2 L17134.3 11748 L17009.5 11748 L17009.5 11711.9 L17124.5 11536.7 Z" fill="#000000" fill-rule="evenodd" fill-opacity="1" /><path clip-path="url(#clip5000)" d="M 0 0 M1234.52 9475.82 L1381.38 9475.82 L1381.38 9507.3 L1268.78 9507.3 L1268.78 9575.08 Q1276.93 9572.3 1285.08 9571.01 Q1293.23 9569.53 1301.38 9569.53 Q1347.67 9569.53 1374.71 9594.9 Q1401.75 9620.27 1401.75 9663.6 Q1401.75 9708.23 1373.97 9733.04 Q1346.19 9757.67 1295.64 9757.67 Q1278.23 9757.67 1260.08 9754.71 Q1242.12 9751.75 1222.86 9745.82 L1222.86 9708.23 Q1239.52 9717.3 1257.3 9721.75 Q1275.08 9726.19 1294.89 9726.19 Q1326.93 9726.19 1345.64 9709.34 Q1364.34 9692.49 1364.34 9663.6 Q1364.34 9634.71 1345.64 9617.86 Q1326.93 9601.01 1294.89 9601.01 Q1279.89 9601.01 1264.89 9604.34 Q1250.08 9607.67 1234.52 9614.71 L1234.52 9475.82 Z" fill="#000000" fill-rule="evenodd" fill-opacity="1" /><path clip-path="url(#clip5000)" d="M 0 0 M1026.38 7939.53 L1087.49 7939.53 L1087.49 7728.6 L1021.01 7741.94 L1021.01 7707.86 L1087.12 7694.53 L1124.53 7694.53 L1124.53 7939.53 L1185.64 7939.53 L1185.64 7971.01 L1026.38 7971.01 L1026.38 7939.53 Z" fill="#000000" fill-rule="evenodd" fill-opacity="1" /><path clip-path="url(#clip5000)" d="M 0 0 M1306.19 7719.16 Q1277.3 7719.16 1262.67 7747.68 Q1248.23 7776.01 1248.23 7833.05 Q1248.23 7889.9 1262.67 7918.42 Q1277.3 7946.75 1306.19 7946.75 Q1335.26 7946.75 1349.71 7918.42 Q1364.34 7889.9 1364.34 7833.05 Q1364.34 7776.01 1349.71 7747.68 Q1335.26 7719.16 1306.19 7719.16 M1306.19 7689.53 Q1352.67 7689.53 1377.12 7726.38 Q1401.75 7763.05 1401.75 7833.05 Q1401.75 7902.86 1377.12 7939.71 Q1352.67 7976.38 1306.19 7976.38 Q1259.71 7976.38 1235.08 7939.71 Q1210.64 7902.86 1210.64 7833.05 Q1210.64 7763.05 1235.08 7726.38 Q1259.71 7689.53 1306.19 7689.53 Z" fill="#000000" fill-rule="evenodd" fill-opacity="1" /><path clip-path="url(#clip5000)" d="M 0 0 M1034.34 6158.24 L1095.45 6158.24 L1095.45 5947.31 L1028.97 5960.64 L1028.97 5926.57 L1095.08 5913.24 L1132.49 5913.24 L1132.49 6158.24 L1193.6 6158.24 L1193.6 6189.72 L1034.34 6189.72 L1034.34 6158.24 Z" fill="#000000" fill-rule="evenodd" fill-opacity="1" /><path clip-path="url(#clip5000)" d="M 0 0 M1234.52 5913.24 L1381.38 5913.24 L1381.38 5944.72 L1268.78 5944.72 L1268.78 6012.5 Q1276.93 6009.72 1285.08 6008.42 Q1293.23 6006.94 1301.38 6006.94 Q1347.67 6006.94 1374.71 6032.31 Q1401.75 6057.68 1401.75 6101.01 Q1401.75 6145.64 1373.97 6170.46 Q1346.19 6195.09 1295.64 6195.09 Q1278.23 6195.09 1260.08 6192.12 Q1242.12 6189.16 1222.86 6183.24 L1222.86 6145.64 Q1239.52 6154.72 1257.3 6159.16 Q1275.08 6163.61 1294.89 6163.61 Q1326.93 6163.61 1345.64 6146.75 Q1364.34 6129.9 1364.34 6101.01 Q1364.34 6072.13 1345.64 6055.27 Q1326.93 6038.42 1294.89 6038.42 Q1279.89 6038.42 1264.89 6041.76 Q1250.08 6045.09 1234.52 6052.13 L1234.52 5913.24 Z" fill="#000000" fill-rule="evenodd" fill-opacity="1" /><path clip-path="url(#clip5000)" d="M 0 0 M1055.08 4376.94 L1185.64 4376.94 L1185.64 4408.42 L1010.08 4408.42 L1010.08 4376.94 Q1031.38 4354.91 1068.04 4317.87 Q1104.9 4280.65 1114.34 4269.91 Q1132.3 4249.72 1139.34 4235.83 Q1146.56 4221.76 1146.56 4208.24 Q1146.56 4186.2 1131.01 4172.31 Q1115.64 4158.43 1090.82 4158.43 Q1073.23 4158.43 1053.6 4164.54 Q1034.16 4170.65 1011.93 4183.06 L1011.93 4145.28 Q1034.53 4136.2 1054.16 4131.57 Q1073.78 4126.94 1090.08 4126.94 Q1133.04 4126.94 1158.6 4148.43 Q1184.15 4169.91 1184.15 4205.83 Q1184.15 4222.87 1177.67 4238.24 Q1171.38 4253.43 1154.52 4274.17 Q1149.9 4279.54 1125.08 4305.28 Q1100.27 4330.83 1055.08 4376.94 Z" fill="#000000" fill-rule="evenodd" fill-opacity="1" /><path clip-path="url(#clip5000)" d="M 0 0 M1306.19 4156.57 Q1277.3 4156.57 1262.67 4185.09 Q1248.23 4213.43 1248.23 4270.46 Q1248.23 4327.31 1262.67 4355.83 Q1277.3 4384.17 1306.19 4384.17 Q1335.26 4384.17 1349.71 4355.83 Q1364.34 4327.31 1364.34 4270.46 Q1364.34 4213.43 1349.71 4185.09 Q1335.26 4156.57 1306.19 4156.57 M1306.19 4126.94 Q1352.67 4126.94 1377.12 4163.8 Q1401.75 4200.46 1401.75 4270.46 Q1401.75 4340.28 1377.12 4377.13 Q1352.67 4413.79 1306.19 4413.79 Q1259.71 4413.79 1235.08 4377.13 Q1210.64 4340.28 1210.64 4270.46 Q1210.64 4200.46 1235.08 4163.8 Q1259.71 4126.94 1306.19 4126.94 Z" fill="#000000" fill-rule="evenodd" fill-opacity="1" /><path clip-path="url(#clip5000)" d="M 0 0 M1063.04 2595.65 L1193.6 2595.65 L1193.6 2627.13 L1018.04 2627.13 L1018.04 2595.65 Q1039.34 2573.61 1076.01 2536.58 Q1112.86 2499.35 1122.3 2488.61 Q1140.27 2468.43 1147.3 2454.54 Q1154.52 2440.47 1154.52 2426.95 Q1154.52 2404.91 1138.97 2391.02 Q1123.6 2377.13 1098.78 2377.13 Q1081.19 2377.13 1061.56 2383.24 Q1042.12 2389.36 1019.9 2401.76 L1019.9 2363.98 Q1042.49 2354.91 1062.12 2350.28 Q1081.75 2345.65 1098.04 2345.65 Q1141.01 2345.65 1166.56 2367.13 Q1192.12 2388.61 1192.12 2424.54 Q1192.12 2441.58 1185.64 2456.95 Q1179.34 2472.13 1162.49 2492.87 Q1157.86 2498.24 1133.04 2523.98 Q1108.23 2549.54 1063.04 2595.65 Z" fill="#000000" fill-rule="evenodd" fill-opacity="1" /><path clip-path="url(#clip5000)" d="M 0 0 M1234.52 2350.65 L1381.38 2350.65 L1381.38 2382.13 L1268.78 2382.13 L1268.78 2449.91 Q1276.93 2447.13 1285.08 2445.84 Q1293.23 2444.35 1301.38 2444.35 Q1347.67 2444.35 1374.71 2469.73 Q1401.75 2495.1 1401.75 2538.43 Q1401.75 2583.06 1373.97 2607.87 Q1346.19 2632.5 1295.64 2632.5 Q1278.23 2632.5 1260.08 2629.54 Q1242.12 2626.58 1222.86 2620.65 L1222.86 2583.06 Q1239.52 2592.13 1257.3 2596.58 Q1275.08 2601.02 1294.89 2601.02 Q1326.93 2601.02 1345.64 2584.17 Q1364.34 2567.32 1364.34 2538.43 Q1364.34 2509.54 1345.64 2492.69 Q1326.93 2475.84 1294.89 2475.84 Q1279.89 2475.84 1264.89 2479.17 Q1250.08 2482.5 1234.52 2489.54 L1234.52 2350.65 Z" fill="#000000" fill-rule="evenodd" fill-opacity="1" /><path clip-path="url(#clip5000)" d="M 0 0 M5938.41 134.036 L5938.41 203.064 Q5905.35 172.277 5867.76 157.045 Q5830.49 141.814 5788.36 141.814 Q5705.4 141.814 5661.32 192.693 Q5617.25 243.249 5617.25 339.174 Q5617.25 434.775 5661.32 485.655 Q5705.4 536.21 5788.36 536.21 Q5830.49 536.21 5867.76 520.979 Q5905.35 505.747 5938.41 474.96 L5938.41 543.34 Q5904.05 566.673 5865.49 578.339 Q5827.25 590.006 5784.47 590.006 Q5674.61 590.006 5611.42 522.923 Q5548.22 455.516 5548.22 339.174 Q5548.22 222.508 5611.42 155.425 Q5674.61 88.018 5784.47 88.018 Q5827.9 88.018 5866.14 99.6847 Q5904.7 111.027 5938.41 134.036 Z" fill="#000000" fill-rule="evenodd" fill-opacity="1" /><path clip-path="url(#clip5000)" d="M 0 0 M6276.74 690.793 L6276.74 737.135 L5931.92 737.135 L5931.92 690.793 L6276.74 690.793 Z" fill="#000000" fill-rule="evenodd" fill-opacity="1" /><path clip-path="url(#clip5000)" d="M 0 0 M6570.67 228.341 L6570.67 284.73 Q6545.39 271.767 6518.17 265.286 Q6490.95 258.804 6461.78 258.804 Q6417.38 258.804 6395.02 272.415 Q6372.99 286.026 6372.99 313.248 Q6372.99 333.989 6388.87 345.98 Q6404.75 357.646 6452.71 368.341 L6473.12 372.878 Q6536.64 386.489 6563.22 411.442 Q6590.11 436.072 6590.11 480.47 Q6590.11 531.025 6549.93 560.516 Q6510.07 590.006 6440.07 590.006 Q6410.9 590.006 6379.14 584.173 Q6347.71 578.664 6312.71 567.321 L6312.71 505.747 Q6345.76 522.923 6377.85 531.673 Q6409.93 540.099 6441.37 540.099 Q6483.5 540.099 6506.18 525.84 Q6528.87 511.257 6528.87 485.007 Q6528.87 460.701 6512.34 447.738 Q6496.13 434.775 6440.72 422.785 L6419.98 417.924 Q6364.56 406.257 6339.93 382.276 Q6315.3 357.97 6315.3 315.841 Q6315.3 264.637 6351.6 236.767 Q6387.89 208.897 6454.65 208.897 Q6487.71 208.897 6516.87 213.758 Q6546.04 218.619 6570.67 228.341 Z" fill="#000000" fill-rule="evenodd" fill-opacity="1" /><path clip-path="url(#clip5000)" d="M 0 0 M6652.66 217.647 L6712.29 217.647 L6712.29 580.608 L6652.66 580.608 L6652.66 217.647 M6652.66 76.3514 L6712.29 76.3514 L6712.29 151.86 L6652.66 151.86 L6652.66 76.3514 Z" fill="#000000" fill-rule="evenodd" fill-opacity="1" /><path clip-path="url(#clip5000)" d="M 0 0 M6833.82 114.592 L6833.82 217.647 L6956.64 217.647 L6956.64 263.989 L6833.82 263.989 L6833.82 461.025 Q6833.82 505.423 6845.81 518.062 Q6858.12 530.701 6895.39 530.701 L6956.64 530.701 L6956.64 580.608 L6895.39 580.608 Q6826.36 580.608 6800.11 555.006 Q6773.86 529.08 6773.86 461.025 L6773.86 263.989 L6730.11 263.989 L6730.11 217.647 L6773.86 217.647 L6773.86 114.592 L6833.82 114.592 Z" fill="#000000" fill-rule="evenodd" fill-opacity="1" /><path clip-path="url(#clip5000)" d="M 0 0 M7329.65 384.22 L7329.65 413.387 L7055.48 413.387 Q7059.37 474.96 7092.43 507.368 Q7125.81 539.451 7185.11 539.451 Q7219.46 539.451 7251.55 531.025 Q7283.95 522.599 7315.71 505.747 L7315.71 562.136 Q7283.63 575.747 7249.93 582.877 Q7216.22 590.006 7181.55 590.006 Q7094.7 590.006 7043.82 539.451 Q6993.26 488.896 6993.26 402.692 Q6993.26 313.572 7041.22 261.397 Q7089.51 208.897 7171.18 208.897 Q7244.42 208.897 7286.87 256.212 Q7329.65 303.202 7329.65 384.22 M7270.02 366.72 Q7269.37 317.785 7242.47 288.619 Q7215.9 259.452 7171.82 259.452 Q7121.92 259.452 7091.78 287.647 Q7061.96 315.841 7057.43 367.044 L7270.02 366.72 Z" fill="#000000" fill-rule="evenodd" fill-opacity="1" /><path clip-path="url(#clip5000)" d="M 0 0 M7618.4 498.294 L7686.78 498.294 L7686.78 580.608 L7618.4 580.608 L7618.4 498.294 M7618.4 237.415 L7686.78 237.415 L7686.78 319.73 L7618.4 319.73 L7618.4 237.415 Z" fill="#000000" fill-rule="evenodd" fill-opacity="1" /><path clip-path="url(#clip5000)" d="M 0 0 M8108.72 350.841 Q8062.05 350.841 8035.15 375.794 Q8008.58 400.748 8008.58 444.498 Q8008.58 488.247 8035.15 513.201 Q8062.05 538.155 8108.72 538.155 Q8155.38 538.155 8182.28 513.201 Q8209.18 487.923 8209.18 444.498 Q8209.18 400.748 8182.28 375.794 Q8155.71 350.841 8108.72 350.841 M8043.26 322.97 Q8001.13 312.6 7977.47 283.758 Q7954.14 254.915 7954.14 213.434 Q7954.14 155.425 7995.29 121.722 Q8036.77 88.018 8108.72 88.018 Q8180.99 88.018 8222.14 121.722 Q8263.3 155.425 8263.3 213.434 Q8263.3 254.915 8239.64 283.758 Q8216.31 312.6 8174.5 322.97 Q8221.82 333.989 8248.07 366.072 Q8274.64 398.155 8274.64 444.498 Q8274.64 514.821 8231.54 552.414 Q8188.76 590.006 8108.72 590.006 Q8028.67 590.006 7985.57 552.414 Q7942.79 514.821 7942.79 444.498 Q7942.79 398.155 7969.37 366.072 Q7995.94 333.989 8043.26 322.97 M8019.27 219.591 Q8019.27 257.184 8042.61 278.249 Q8066.26 299.313 8108.72 299.313 Q8150.85 299.313 8174.5 278.249 Q8198.49 257.184 8198.49 219.591 Q8198.49 181.999 8174.5 160.934 Q8150.85 139.87 8108.72 139.87 Q8066.26 139.87 8042.61 160.934 Q8019.27 181.999 8019.27 219.591 Z" fill="#000000" fill-rule="evenodd" fill-opacity="1" /><path clip-path="url(#clip5000)" d="M 0 0 M8797.7 176.49 L8681.35 239.36 L8797.7 302.554 L8778.9 334.313 L8670.01 268.526 L8670.01 390.702 L8633.07 390.702 L8633.07 268.526 L8524.18 334.313 L8505.38 302.554 L8621.72 239.36 L8505.38 176.49 L8524.18 144.407 L8633.07 210.193 L8633.07 88.018 L8670.01 88.018 L8670.01 210.193 L8778.9 144.407 L8797.7 176.49 Z" fill="#000000" fill-rule="evenodd" fill-opacity="1" /><path clip-path="url(#clip5000)" d="M 0 0 M9219.64 350.841 Q9172.97 350.841 9146.07 375.794 Q9119.5 400.748 9119.5 444.498 Q9119.5 488.247 9146.07 513.201 Q9172.97 538.155 9219.64 538.155 Q9266.3 538.155 9293.2 513.201 Q9320.1 487.923 9320.1 444.498 Q9320.1 400.748 9293.2 375.794 Q9266.63 350.841 9219.64 350.841 M9154.18 322.97 Q9112.05 312.6 9088.39 283.758 Q9065.06 254.915 9065.06 213.434 Q9065.06 155.425 9106.21 121.722 Q9147.69 88.018 9219.64 88.018 Q9291.91 88.018 9333.06 121.722 Q9374.22 155.425 9374.22 213.434 Q9374.22 254.915 9350.56 283.758 Q9327.23 312.6 9285.42 322.97 Q9332.74 333.989 9358.99 366.072 Q9385.56 398.155 9385.56 444.498 Q9385.56 514.821 9342.46 552.414 Q9299.68 590.006 9219.64 590.006 Q9139.59 590.006 9096.49 552.414 Q9053.71 514.821 9053.71 444.498 Q9053.71 398.155 9080.29 366.072 Q9106.86 333.989 9154.18 322.97 M9130.19 219.591 Q9130.19 257.184 9153.53 278.249 Q9177.18 299.313 9219.64 299.313 Q9261.77 299.313 9285.42 278.249 Q9309.41 257.184 9309.41 219.591 Q9309.41 181.999 9285.42 160.934 Q9261.77 139.87 9219.64 139.87 Q9177.18 139.87 9153.53 160.934 Q9130.19 181.999 9130.19 219.591 Z" fill="#000000" fill-rule="evenodd" fill-opacity="1" /><path clip-path="url(#clip5000)" d="M 0 0 M9463.34 498.294 L9531.72 498.294 L9531.72 554.034 L9478.57 657.737 L9436.77 657.737 L9463.34 554.034 L9463.34 498.294 Z" fill="#000000" fill-rule="evenodd" fill-opacity="1" /><path clip-path="url(#clip5000)" d="M 0 0 M10004.2 141.166 Q9932.92 141.166 9890.79 194.314 Q9848.99 247.462 9848.99 339.174 Q9848.99 430.563 9890.79 483.71 Q9932.92 536.858 10004.2 536.858 Q10075.5 536.858 10117 483.71 Q10158.8 430.563 10158.8 339.174 Q10158.8 247.462 10117 194.314 Q10075.5 141.166 10004.2 141.166 M10095.9 571.858 L10182.1 666.163 L10103.1 666.163 L10031.4 588.71 Q10020.7 589.358 10014.9 589.682 Q10009.4 590.006 10004.2 590.006 Q9902.13 590.006 9840.88 521.951 Q9779.96 453.572 9779.96 339.174 Q9779.96 224.453 9840.88 156.397 Q9902.13 88.018 10004.2 88.018 Q10106 88.018 10166.9 156.397 Q10227.8 224.453 10227.8 339.174 Q10227.8 423.433 10193.8 483.386 Q10160.1 543.34 10095.9 571.858 Z" fill="#000000" fill-rule="evenodd" fill-opacity="1" /><path clip-path="url(#clip5000)" d="M 0 0 M10509.1 279.221 L10924.6 279.221 L10924.6 333.665 L10509.1 333.665 L10509.1 279.221 M10509.1 411.442 L10924.6 411.442 L10924.6 466.535 L10509.1 466.535 L10509.1 411.442 Z" fill="#000000" fill-rule="evenodd" fill-opacity="1" /><path clip-path="url(#clip5000)" d="M 0 0 M11217.9 525.516 L11324.8 525.516 L11324.8 156.397 L11208.5 179.731 L11208.5 120.101 L11324.2 96.768 L11389.6 96.768 L11389.6 525.516 L11496.6 525.516 L11496.6 580.608 L11217.9 580.608 L11217.9 525.516 Z" fill="#000000" fill-rule="evenodd" fill-opacity="1" /><path clip-path="url(#clip5000)" d="M 0 0 M11715.6 312.6 Q11671.6 312.6 11645.6 342.739 Q11620 372.878 11620 425.377 Q11620 477.553 11645.6 508.016 Q11671.6 538.155 11715.6 538.155 Q11759.7 538.155 11785.3 508.016 Q11811.2 477.553 11811.2 425.377 Q11811.2 372.878 11785.3 342.739 Q11759.7 312.6 11715.6 312.6 M11845.6 107.462 L11845.6 167.092 Q11821 155.425 11795.7 149.268 Q11770.7 143.11 11746.1 143.11 Q11681.3 143.11 11646.9 186.86 Q11612.9 230.61 11608.1 319.082 Q11627.2 290.887 11656 275.98 Q11684.9 260.749 11719.5 260.749 Q11792.4 260.749 11834.6 305.147 Q11877 349.22 11877 425.377 Q11877 499.914 11833 544.96 Q11788.9 590.006 11715.6 590.006 Q11631.7 590.006 11587.3 525.84 Q11542.9 461.349 11542.9 339.174 Q11542.9 224.453 11597.4 156.397 Q11651.8 88.018 11743.5 88.018 Q11768.1 88.018 11793.1 92.8791 Q11818.4 97.7402 11845.6 107.462 Z" fill="#000000" fill-rule="evenodd" fill-opacity="1" /><path clip-path="url(#clip5000)" d="M 0 0 M11954.8 498.294 L12023.2 498.294 L12023.2 554.034 L11970 657.737 L11928.2 657.737 L11954.8 554.034 L11954.8 498.294 Z" fill="#000000" fill-rule="evenodd" fill-opacity="1" /><path clip-path="url(#clip5000)" d="M 0 0 M12299.3 96.768 L12364.8 96.768 L12364.8 546.904 Q12364.8 634.404 12331.4 673.941 Q12298.3 713.478 12224.8 713.478 L12199.8 713.478 L12199.8 658.385 L12220.2 658.385 Q12263.6 658.385 12281.5 634.08 Q12299.3 609.775 12299.3 546.904 L12299.3 96.768 Z" fill="#000000" fill-rule="evenodd" fill-opacity="1" /><path clip-path="url(#clip5000)" d="M 0 0 M12703.1 690.793 L12703.1 737.135 L12358.3 737.135 L12358.3 690.793 L12703.1 690.793 Z" fill="#000000" fill-rule="evenodd" fill-opacity="1" /><path clip-path="url(#clip5000)" d="M 0 0 M12914.1 139.87 Q12863.5 139.87 12837.9 189.777 Q12812.6 239.36 12812.6 339.174 Q12812.6 438.664 12837.9 488.571 Q12863.5 538.155 12914.1 538.155 Q12964.9 538.155 12990.2 488.571 Q13015.8 438.664 13015.8 339.174 Q13015.8 239.36 12990.2 189.777 Q12964.9 139.87 12914.1 139.87 M12914.1 88.018 Q12995.4 88.018 13038.2 152.508 Q13081.3 216.675 13081.3 339.174 Q13081.3 461.349 13038.2 525.84 Q12995.4 590.006 12914.1 590.006 Q12832.7 590.006 12789.6 525.84 Q12746.8 461.349 12746.8 339.174 Q12746.8 216.675 12789.6 152.508 Q12832.7 88.018 12914.1 88.018 Z" fill="#000000" fill-rule="evenodd" fill-opacity="1" /><path clip-path="url(#clip5000)" d="M 0 0 M13362.6 279.221 L13778 279.221 L13778 333.665 L13362.6 333.665 L13362.6 279.221 M13362.6 411.442 L13778 411.442 L13778 466.535 L13362.6 466.535 L13362.6 411.442 Z" fill="#000000" fill-rule="evenodd" fill-opacity="1" /><path clip-path="url(#clip5000)" d="M 0 0 M14071.3 525.516 L14178.3 525.516 L14178.3 156.397 L14061.9 179.731 L14061.9 120.101 L14177.6 96.768 L14243.1 96.768 L14243.1 525.516 L14350 525.516 L14350 580.608 L14071.3 580.608 L14071.3 525.516 Z" fill="#000000" fill-rule="evenodd" fill-opacity="1" /><path clip-path="url(#clip5000)" d="M 0 0 M14421 498.294 L14489.4 498.294 L14489.4 580.608 L14421 580.608 L14421 498.294 Z" fill="#000000" fill-rule="evenodd" fill-opacity="1" /><path clip-path="url(#clip5000)" d="M 0 0 M14700.3 139.87 Q14649.8 139.87 14624.2 189.777 Q14598.9 239.36 14598.9 339.174 Q14598.9 438.664 14624.2 488.571 Q14649.8 538.155 14700.3 538.155 Q14751.2 538.155 14776.5 488.571 Q14802.1 438.664 14802.1 339.174 Q14802.1 239.36 14776.5 189.777 Q14751.2 139.87 14700.3 139.87 M14700.3 88.018 Q14781.7 88.018 14824.5 152.508 Q14867.6 216.675 14867.6 339.174 Q14867.6 461.349 14824.5 525.84 Q14781.7 590.006 14700.3 590.006 Q14619 590.006 14575.9 525.84 Q14533.1 461.349 14533.1 339.174 Q14533.1 216.675 14575.9 152.508 Q14619 88.018 14700.3 88.018 Z" fill="#000000" fill-rule="evenodd" fill-opacity="1" /><path clip-path="url(#clip5000)" d="M 0 0 M10047.1 12068.2 L10368.7 12068.2 L10368.7 12111.5 L10233.7 12111.5 L10233.7 12448.4 L10182.1 12448.4 L10182.1 12111.5 L10047.1 12111.5 L10047.1 12068.2 Z" fill="#000000" fill-rule="evenodd" fill-opacity="1" /><path clip-path="url(#clip5000)" d="M 0 0 M353.156 6579.88 L407.391 6579.88 Q383.202 6605.85 371.234 6635.39 Q359.267 6664.67 359.267 6697.77 Q359.267 6762.96 399.243 6797.59 Q438.965 6832.22 514.335 6832.22 Q589.451 6832.22 629.427 6797.59 Q669.149 6762.96 669.149 6697.77 Q669.149 6664.67 657.182 6635.39 Q645.214 6605.85 621.024 6579.88 L674.751 6579.88 Q693.084 6606.87 702.251 6637.17 Q711.417 6667.22 711.417 6700.83 Q711.417 6787.15 658.709 6836.8 Q605.747 6886.45 514.335 6886.45 Q422.669 6886.45 369.961 6836.8 Q316.998 6787.15 316.998 6700.83 Q316.998 6666.71 326.165 6636.66 Q335.077 6606.36 353.156 6579.88 Z" fill="#000000" fill-rule="evenodd" fill-opacity="1" /><path clip-path="url(#clip5000)" d="M 0 0 M790.607 6314.05 L827.019 6314.05 L827.019 6584.97 L790.607 6584.97 L790.607 6314.05 Z" fill="#000000" fill-rule="evenodd" fill-opacity="1" /><path clip-path="url(#clip5000)" d="M 0 0 M427.252 6083.1 L471.558 6083.1 Q461.373 6102.96 456.28 6124.35 Q451.187 6145.74 451.187 6168.66 Q451.187 6203.54 461.882 6221.11 Q472.576 6238.42 493.965 6238.42 Q510.261 6238.42 519.682 6225.95 Q528.849 6213.47 537.252 6175.79 L540.817 6159.74 Q551.511 6109.84 571.117 6088.96 Q590.469 6067.82 625.353 6067.82 Q665.075 6067.82 688.246 6099.4 Q711.417 6130.72 711.417 6185.72 Q711.417 6208.63 706.834 6233.59 Q702.505 6258.29 693.594 6285.79 L645.214 6285.79 Q658.709 6259.81 665.584 6234.61 Q672.205 6209.4 672.205 6184.7 Q672.205 6151.6 661.001 6133.77 Q649.543 6115.95 628.918 6115.95 Q609.821 6115.95 599.636 6128.93 Q589.451 6141.67 580.029 6185.21 L576.21 6201.5 Q567.043 6245.05 548.201 6264.4 Q529.104 6283.75 496.002 6283.75 Q455.771 6283.75 433.873 6255.23 Q411.975 6226.71 411.975 6174.26 Q411.975 6148.29 415.794 6125.37 Q419.613 6102.45 427.252 6083.1 Z" fill="#000000" fill-rule="evenodd" fill-opacity="1" /><path clip-path="url(#clip5000)" d="M 0 0 M418.85 6018.68 L418.85 5971.83 L704.033 5971.83 L704.033 6018.68 L418.85 6018.68 M307.832 6018.68 L307.832 5971.83 L367.16 5971.83 L367.16 6018.68 L307.832 6018.68 Z" fill="#000000" fill-rule="evenodd" fill-opacity="1" /><path clip-path="url(#clip5000)" d="M 0 0 M337.878 5876.34 L418.85 5876.34 L418.85 5779.84 L455.261 5779.84 L455.261 5876.34 L610.075 5876.34 Q644.96 5876.34 654.89 5866.92 Q664.821 5857.25 664.821 5827.96 L664.821 5779.84 L704.033 5779.84 L704.033 5827.96 Q704.033 5882.2 683.918 5902.82 Q663.547 5923.45 610.075 5923.45 L455.261 5923.45 L455.261 5957.82 L418.85 5957.82 L418.85 5923.45 L337.878 5923.45 L337.878 5876.34 Z" fill="#000000" fill-rule="evenodd" fill-opacity="1" /><path clip-path="url(#clip5000)" d="M 0 0 M549.729 5486.76 L572.645 5486.76 L572.645 5702.18 Q621.024 5699.12 646.487 5673.15 Q671.695 5646.92 671.695 5600.33 Q671.695 5573.34 665.075 5548.13 Q658.455 5522.66 645.214 5497.71 L689.519 5497.71 Q700.214 5522.92 705.816 5549.4 Q711.417 5575.88 711.417 5603.13 Q711.417 5671.37 671.695 5711.34 Q631.973 5751.07 564.242 5751.07 Q494.22 5751.07 453.224 5713.38 Q411.975 5675.44 411.975 5611.28 Q411.975 5553.73 449.15 5520.37 Q486.071 5486.76 549.729 5486.76 M535.979 5533.61 Q497.53 5534.12 474.613 5555.26 Q451.697 5576.14 451.697 5610.77 Q451.697 5649.98 473.849 5673.66 Q496.002 5697.09 536.233 5700.65 L535.979 5533.61 Z" fill="#000000" fill-rule="evenodd" fill-opacity="1" /><polyline clip-path="url(#clip5002)" style="stroke:#009af9; stroke-width:32; stroke-opacity:1; fill:none" points="
  2081.34,11011.7 2413.04,10979.5 2744.73,10978.7 3076.43,10936.8 3408.12,10941.2 3739.82,10915.6 4071.52,10878.5 4403.21,10891.1 4734.91,10897.4 5066.61,10848.4 
  5398.3,10821.2 5730,10779.5 6061.69,10725.4 6393.39,10702.5 6725.09,10725.9 7056.78,10685 7388.48,10609 7720.17,10627 8051.87,10519.2 8383.57,10574 
  8715.26,10289.6 9046.96,10376.1 9378.66,10270.4 9710.35,10070 10042,10392.9 10373.7,10043.7 10705.4,9840.29 11037.1,9620.6 11368.8,9512.32 11700.5,9000.05 
  12032.2,8864.18 12363.9,8197.49 12695.6,8567.79 13027.3,7840.24 13359,7826.49 13690.7,7063.99 14022.4,7055.31 14354.1,5841.03 14685.8,6061.03 15017.5,4621.33 
  15349.2,4450.99 15680.9,4151.08 16012.6,3388.97 16344.3,2024.46 16676,2348.71 17007.7,1903.34 17339.4,1751.41 17671.1,1611.49 18002.8,1282.05 18334.5,1565.16 
  
  "/>
<polyline clip-path="url(#clip5002)" style="stroke:#e26f46; stroke-width:32; stroke-opacity:1; fill:none" points="
  2081.34,10682.3 2413.04,10624.6 2744.73,10607.9 3076.43,10541.2 3408.12,10446.1 3739.82,10450.3 4071.52,10389.6 4403.21,10263.3 4734.91,10231.4 5066.61,10241.3 
  5398.3,10122.1 5730,10060.5 6061.69,10100 6393.39,9818.92 6725.09,9603.07 7056.78,9397.77 7388.48,9263.66 7720.17,9287.93 8051.87,8718.63 8383.57,8142.41 
  8715.26,8442.33 9046.96,7526.85 9378.66,7569 9710.35,7086.43 10042,6272.93 10373.7,6521.74 10705.4,6212.11 11037.1,5501.52 11368.8,5056.62 11700.5,4292.25 
  12032.2,3736.46 12363.9,3193 12695.6,3207.51 13027.3,2655.33 13359,2609.8 13690.7,2587.17 14022.4,2503.56 14354.1,2739.48 14685.8,2861.05 15017.5,3043.32 
  15349.2,3547.71 15680.9,3860.12 16012.6,3926.59 16344.3,5155.21 16676,5328.78 17007.7,5486.89 17339.4,6217.3 17671.1,6755.31 18002.8,7224.67 18334.5,7382.09 
  
  "/>
<polyline clip-path="url(#clip5002)" style="stroke:#3da44d; stroke-width:32; stroke-opacity:1; fill:none" points="
  2081.34,9539.45 2413.04,9462.77 2744.73,9433.32 3076.43,9398.09 3408.12,9313.29 3739.82,9284.61 4071.52,9136.59 4403.21,8900.79 4734.91,8897.73 5066.61,8794.47 
  5398.3,8809.07 5730,8558.54 6061.69,8366.04 6393.39,8481.71 6725.09,8313.47 7056.78,8291.58 7388.48,8260.17 7720.17,7971.43 8051.87,7919.33 8383.57,7855.99 
  8715.26,7854.3 9046.96,7796.66 9378.66,7674.32 9710.35,7601.72 10042,7489.95 10373.7,7506.49 10705.4,7414.14 11037.1,7504.52 11368.8,7440.09 11700.5,7544.98 
  12032.2,7513.98 12363.9,7568.6 12695.6,7608.2 13027.3,7637.68 13359,7664.88 13690.7,7740.77 14022.4,7802.87 14354.1,7888.7 14685.8,8088.44 15017.5,8117.92 
  15349.2,8181.23 15680.9,8266.43 16012.6,8493.14 16344.3,8521.68 16676,8723 17007.7,8773.37 17339.4,8912.48 17671.1,9049.08 18002.8,9088.19 18334.5,9150.3 
  
  "/>
<polyline clip-path="url(#clip5002)" style="stroke:#c271d2; stroke-width:32; stroke-opacity:1; fill:none" points="
  2081.34,10729 2413.04,10711.3 2744.73,10709.1 3076.43,10687.2 3408.12,10676.3 3739.82,10676.9 4071.52,10658.5 4403.21,10611.8 4734.91,10630 5066.61,10586 
  5398.3,10602.5 5730,10546.3 6061.69,10549.7 6393.39,10537.1 6725.09,10503.5 7056.78,10515.3 7388.48,10429 7720.17,10459.1 8051.87,10418.2 8383.57,10377 
  8715.26,10401.7 9046.96,10372.4 9378.66,10306.8 9710.35,10311.1 10042,10262.7 10373.7,10252.1 10705.4,10258.2 11037.1,10171.6 11368.8,10143 11700.5,10105.6 
  12032.2,10116.3 12363.9,10079 12695.6,10025.9 13027.3,10017.3 13359,9940.64 13690.7,9949.16 14022.4,9928.75 14354.1,9837.55 14685.8,9825.81 15017.5,9791.53 
  15349.2,9747.4 15680.9,9750.16 16012.6,9723.63 16344.3,9679.08 16676,9651.48 17007.7,9621.68 17339.4,9623.3 17671.1,9574.75 18002.8,9525.67 18334.5,9522.64 
  
  "/>
<polyline clip-path="url(#clip5002)" style="stroke:#ac8d18; stroke-width:32; stroke-opacity:1; fill:none" points="
  2081.34,11091.2 2413.04,11089.1 2744.73,11084.7 3076.43,11082.2 3408.12,11079.2 3739.82,11073.7 4071.52,11073.2 4403.21,11060.5 4734.91,11063.2 5066.61,11058.8 
  5398.3,11047.1 5730,11039.6 6061.69,11038.6 6393.39,11037.6 6725.09,11026.4 7056.78,11022.2 7388.48,11008.8 7720.17,11011 8051.87,11004.9 8383.57,11005.8 
  8715.26,10978.4 9046.96,10972.2 9378.66,10978.7 9710.35,10974.8 10042,10957.4 10373.7,10948 10705.4,10953.2 11037.1,10941.8 11368.8,10945.2 11700.5,10933.7 
  12032.2,10916.9 12363.9,10922.1 12695.6,10897.8 13027.3,10901.7 13359,10879.8 13690.7,10891.5 14022.4,10876.3 14354.1,10851.8 14685.8,10836.1 15017.5,10840.2 
  15349.2,10833.6 15680.9,10831.3 16012.6,10810.5 16344.3,10812.8 16676,10803.1 17007.7,10786 17339.4,10775.3 17671.1,10761.9 18002.8,10745.4 18334.5,10732.9 
  
  "/>
<polyline clip-path="url(#clip5002)" style="stroke:#00a9ad; stroke-width:32; stroke-opacity:1; fill:none" points="
  2081.34,9935.09 2413.04,9750.9 2744.73,9639.28 3076.43,9574.4 3408.12,9533.07 3739.82,9357.55 4071.52,9238.23 4403.21,9066.65 4734.91,9000.71 5066.61,8801.76 
  5398.3,8598.05 5730,8410.85 6061.69,8259.05 6393.39,7736.57 6725.09,7810.93 7056.78,7772.58 7388.48,7469.05 7720.17,6553.49 8051.87,6763.43 8383.57,6382.91 
  8715.26,6049.97 9046.96,6232 9378.66,5742.04 9710.35,5518.55 10042,5583.63 10373.7,5330.43 10705.4,5313.16 11037.1,5297.71 11368.8,5294.55 11700.5,5452.59 
  12032.2,5345.15 12363.9,5483 12695.6,5779.73 13027.3,5685.88 13359,6199.45 13690.7,6248.48 14022.4,6426 14354.1,6638.08 14685.8,7119.45 15017.5,7037.33 
  15349.2,7323.29 15680.9,7840.03 16012.6,7716.42 16344.3,7962.9 16676,8469.55 17007.7,8666.48 17339.4,8731.01 17671.1,8916.96 18002.8,8868.57 18334.5,9241.53 
  
  "/>
<polyline clip-path="url(#clip5002)" style="stroke:#ed5d92; stroke-width:32; stroke-opacity:1; fill:none" points="
  2081.34,9682.5 2413.04,9530.61 2744.73,9368.21 3076.43,9303.71 3408.12,9355.92 3739.82,9093.39 4071.52,9005.23 4403.21,8782.71 4734.91,8634.63 5066.61,8491.02 
  5398.3,8541.42 5730,8247.11 6061.69,8177.75 6393.39,7987 6725.09,7721.25 7056.78,7594.3 7388.48,7548.91 7720.17,7026.28 8051.87,7158.4 8383.57,6978.5 
  8715.26,6938.04 9046.96,6650.8 9378.66,6666.13 9710.35,6654.69 10042,6614.87 10373.7,6476.31 10705.4,6331.93 11037.1,6564.43 11368.8,6499.58 11700.5,6470.35 
  12032.2,6452.92 12363.9,6623.27 12695.6,6881.52 13027.3,6834.13 13359,7257.9 13690.7,7282.27 14022.4,7395.15 14354.1,7444.64 14685.8,7626.66 15017.5,7862.54 
  15349.2,7977.65 15680.9,8139.17 16012.6,8286.21 16344.3,8409.13 16676,8647.37 17007.7,8716.47 17339.4,8691.25 17671.1,8956.75 18002.8,9094.91 18334.5,9265.1 
  
  "/>
<polyline clip-path="url(#clip5002)" style="stroke:#c68125; stroke-width:32; stroke-opacity:1; fill:none" points="
  2081.34,10188.4 2413.04,10129.3 2744.73,10174 3076.43,9821.48 3408.12,9579.4 3739.82,9606.52 4071.52,9363.05 4403.21,8497.84 4734.91,8796.52 5066.61,7986.58 
  5398.3,7523.04 5730,6341.95 6061.69,4962 6393.39,5104.59 6725.09,3666.34 7056.78,2558.85 7388.48,2273.48 7720.17,2514.66 8051.87,2760.02 8383.57,3444.13 
  8715.26,4740.27 9046.96,5504.37 9378.66,7344.1 9710.35,7045.4 10042,7716.17 10373.7,8640.83 10705.4,9279.38 11037.1,9254.92 11368.8,9518.09 11700.5,9753.05 
  12032.2,10104.1 12363.9,10072.2 12695.6,10301.1 13027.3,10432.2 13359,10399.1 13690.7,10562.7 14022.4,10594.9 14354.1,10614 14685.8,10663.8 15017.5,10683 
  15349.2,10728.7 15680.9,10738.6 16012.6,10772.2 16344.3,10811.2 16676,10839.3 17007.7,10850.7 17339.4,10871.6 17671.1,10881.9 18002.8,10903.1 18334.5,10925.1 
  
  "/>
<path clip-path="url(#clip5000)" d="
M2169.75 6010.5 L7588.25 6010.5 L7588.25 1655.94 L2169.75 1655.94  Z
  " fill="#ffffff" fill-rule="evenodd" fill-opacity="1"/>
<polyline clip-path="url(#clip5000)" style="stroke:#000000; stroke-width:32; stroke-opacity:1; fill:none" points="
  2169.75,6010.5 7588.25,6010.5 7588.25,1655.94 2169.75,1655.94 2169.75,6010.5 
  "/>
<polyline clip-path="url(#clip5000)" style="stroke:#009af9; stroke-width:32; stroke-opacity:1; fill:none" points="
  2361.75,2139.78 3513.75,2139.78 
  "/>
<path clip-path="url(#clip5000)" d="M 0 0 M3762.6 2001.54 L3800 2001.54 L3800 2258.76 Q3800 2308.76 3780.93 2331.35 Q3762.04 2353.94 3720.01 2353.94 L3705.75 2353.94 L3705.75 2322.46 L3717.41 2322.46 Q3742.23 2322.46 3752.41 2308.57 Q3762.6 2294.68 3762.6 2258.76 L3762.6 2001.54 Z" fill="#000000" fill-rule="evenodd" fill-opacity="1" /><path clip-path="url(#clip5000)" d="M 0 0 M3847.04 2246.54 L3908.15 2246.54 L3908.15 2035.61 L3841.67 2048.94 L3841.67 2014.87 L3907.78 2001.54 L3945.19 2001.54 L3945.19 2246.54 L4006.3 2246.54 L4006.3 2278.02 L3847.04 2278.02 L3847.04 2246.54 Z" fill="#000000" fill-rule="evenodd" fill-opacity="1" /><path clip-path="url(#clip5000)" d="M 0 0 M4167.04 2105.8 L4404.45 2105.8 L4404.45 2136.91 L4167.04 2136.91 L4167.04 2105.8 M4167.04 2181.35 L4404.45 2181.35 L4404.45 2212.83 L4167.04 2212.83 L4167.04 2181.35 Z" fill="#000000" fill-rule="evenodd" fill-opacity="1" /><path clip-path="url(#clip5000)" d="M 0 0 M4645.56 2026.17 Q4616.67 2026.17 4602.04 2054.68 Q4587.59 2083.02 4587.59 2140.05 Q4587.59 2196.91 4602.04 2225.42 Q4616.67 2253.76 4645.56 2253.76 Q4674.63 2253.76 4689.07 2225.42 Q4703.7 2196.91 4703.7 2140.05 Q4703.7 2083.02 4689.07 2054.68 Q4674.63 2026.17 4645.56 2026.17 M4645.56 1996.54 Q4692.04 1996.54 4716.48 2033.39 Q4741.11 2070.06 4741.11 2140.05 Q4741.11 2209.87 4716.48 2246.72 Q4692.04 2283.39 4645.56 2283.39 Q4599.07 2283.39 4574.44 2246.72 Q4550 2209.87 4550 2140.05 Q4550 2070.06 4574.44 2033.39 Q4599.07 1996.54 4645.56 1996.54 Z" fill="#000000" fill-rule="evenodd" fill-opacity="1" /><path clip-path="url(#clip5000)" d="M 0 0 M4781.67 2230.98 L4820.74 2230.98 L4820.74 2278.02 L4781.67 2278.02 L4781.67 2230.98 Z" fill="#000000" fill-rule="evenodd" fill-opacity="1" /><path clip-path="url(#clip5000)" d="M 0 0 M4941.29 2026.17 Q4912.41 2026.17 4897.78 2054.68 Q4883.33 2083.02 4883.33 2140.05 Q4883.33 2196.91 4897.78 2225.42 Q4912.41 2253.76 4941.29 2253.76 Q4970.37 2253.76 4984.81 2225.42 Q4999.44 2196.91 4999.44 2140.05 Q4999.44 2083.02 4984.81 2054.68 Q4970.37 2026.17 4941.29 2026.17 M4941.29 1996.54 Q4987.78 1996.54 5012.22 2033.39 Q5036.85 2070.06 5036.85 2140.05 Q5036.85 2209.87 5012.22 2246.72 Q4987.78 2283.39 4941.29 2283.39 Q4894.81 2283.39 4870.18 2246.72 Q4845.74 2209.87 4845.74 2140.05 Q4845.74 2070.06 4870.18 2033.39 Q4894.81 1996.54 4941.29 1996.54 Z" fill="#000000" fill-rule="evenodd" fill-opacity="1" /><polyline clip-path="url(#clip5000)" style="stroke:#e26f46; stroke-width:32; stroke-opacity:1; fill:none" points="
  2361.75,2623.62 3513.75,2623.62 
  "/>
<path clip-path="url(#clip5000)" d="M 0 0 M3762.6 2485.38 L3800 2485.38 L3800 2742.6 Q3800 2792.6 3780.93 2815.19 Q3762.04 2837.78 3720.01 2837.78 L3705.75 2837.78 L3705.75 2806.3 L3717.41 2806.3 Q3742.23 2806.3 3752.41 2792.41 Q3762.6 2778.52 3762.6 2742.6 L3762.6 2485.38 Z" fill="#000000" fill-rule="evenodd" fill-opacity="1" /><path clip-path="url(#clip5000)" d="M 0 0 M3847.04 2730.38 L3908.15 2730.38 L3908.15 2519.45 L3841.67 2532.78 L3841.67 2498.71 L3907.78 2485.38 L3945.19 2485.38 L3945.19 2730.38 L4006.3 2730.38 L4006.3 2761.86 L3847.04 2761.86 L3847.04 2730.38 Z" fill="#000000" fill-rule="evenodd" fill-opacity="1" /><path clip-path="url(#clip5000)" d="M 0 0 M4167.04 2589.64 L4404.45 2589.64 L4404.45 2620.75 L4167.04 2620.75 L4167.04 2589.64 M4167.04 2665.19 L4404.45 2665.19 L4404.45 2696.67 L4167.04 2696.67 L4167.04 2665.19 Z" fill="#000000" fill-rule="evenodd" fill-opacity="1" /><path clip-path="url(#clip5000)" d="M 0 0 M4645.56 2510.01 Q4616.67 2510.01 4602.04 2538.52 Q4587.59 2566.86 4587.59 2623.89 Q4587.59 2680.75 4602.04 2709.26 Q4616.67 2737.6 4645.56 2737.6 Q4674.63 2737.6 4689.07 2709.26 Q4703.7 2680.75 4703.7 2623.89 Q4703.7 2566.86 4689.07 2538.52 Q4674.63 2510.01 4645.56 2510.01 M4645.56 2480.38 Q4692.04 2480.38 4716.48 2517.23 Q4741.11 2553.9 4741.11 2623.89 Q4741.11 2693.71 4716.48 2730.56 Q4692.04 2767.23 4645.56 2767.23 Q4599.07 2767.23 4574.44 2730.56 Q4550 2693.71 4550 2623.89 Q4550 2553.9 4574.44 2517.23 Q4599.07 2480.38 4645.56 2480.38 Z" fill="#000000" fill-rule="evenodd" fill-opacity="1" /><path clip-path="url(#clip5000)" d="M 0 0 M4781.67 2714.82 L4820.74 2714.82 L4820.74 2761.86 L4781.67 2761.86 L4781.67 2714.82 Z" fill="#000000" fill-rule="evenodd" fill-opacity="1" /><path clip-path="url(#clip5000)" d="M 0 0 M4893.52 2730.38 L5024.07 2730.38 L5024.07 2761.86 L4848.52 2761.86 L4848.52 2730.38 Q4869.81 2708.34 4906.48 2671.3 Q4943.33 2634.08 4952.78 2623.34 Q4970.74 2603.15 4977.78 2589.27 Q4985 2575.19 4985 2561.67 Q4985 2539.64 4969.44 2525.75 Q4954.07 2511.86 4929.26 2511.86 Q4911.67 2511.86 4892.04 2517.97 Q4872.59 2524.08 4850.37 2536.49 L4850.37 2498.71 Q4872.96 2489.64 4892.59 2485.01 Q4912.22 2480.38 4928.52 2480.38 Q4971.48 2480.38 4997.04 2501.86 Q5022.59 2523.34 5022.59 2559.27 Q5022.59 2576.3 5016.11 2591.67 Q5009.81 2606.86 4992.96 2627.6 Q4988.33 2632.97 4963.52 2658.71 Q4938.7 2684.26 4893.52 2730.38 Z" fill="#000000" fill-rule="evenodd" fill-opacity="1" /><path clip-path="url(#clip5000)" d="M 0 0 M5065 2485.38 L5211.85 2485.38 L5211.85 2516.86 L5099.26 2516.86 L5099.26 2584.64 Q5107.4 2581.86 5115.55 2580.56 Q5123.7 2579.08 5131.85 2579.08 Q5178.15 2579.08 5205.18 2604.45 Q5232.22 2629.82 5232.22 2673.15 Q5232.22 2717.78 5204.44 2742.6 Q5176.66 2767.23 5126.11 2767.23 Q5108.7 2767.23 5090.55 2764.26 Q5072.59 2761.3 5053.33 2755.38 L5053.33 2717.78 Q5070 2726.86 5087.78 2731.3 Q5105.55 2735.75 5125.37 2735.75 Q5157.4 2735.75 5176.11 2718.89 Q5194.81 2702.04 5194.81 2673.15 Q5194.81 2644.27 5176.11 2627.41 Q5157.4 2610.56 5125.37 2610.56 Q5110.37 2610.56 5095.37 2613.89 Q5080.55 2617.23 5065 2624.27 L5065 2485.38 Z" fill="#000000" fill-rule="evenodd" fill-opacity="1" /><polyline clip-path="url(#clip5000)" style="stroke:#3da44d; stroke-width:32; stroke-opacity:1; fill:none" points="
  2361.75,3107.46 3513.75,3107.46 
  "/>
<path clip-path="url(#clip5000)" d="M 0 0 M3762.6 2969.22 L3800 2969.22 L3800 3226.44 Q3800 3276.44 3780.93 3299.03 Q3762.04 3321.62 3720.01 3321.62 L3705.75 3321.62 L3705.75 3290.14 L3717.41 3290.14 Q3742.23 3290.14 3752.41 3276.25 Q3762.6 3262.36 3762.6 3226.44 L3762.6 2969.22 Z" fill="#000000" fill-rule="evenodd" fill-opacity="1" /><path clip-path="url(#clip5000)" d="M 0 0 M3847.04 3214.22 L3908.15 3214.22 L3908.15 3003.29 L3841.67 3016.62 L3841.67 2982.55 L3907.78 2969.22 L3945.19 2969.22 L3945.19 3214.22 L4006.3 3214.22 L4006.3 3245.7 L3847.04 3245.7 L3847.04 3214.22 Z" fill="#000000" fill-rule="evenodd" fill-opacity="1" /><path clip-path="url(#clip5000)" d="M 0 0 M4167.04 3073.48 L4404.45 3073.48 L4404.45 3104.59 L4167.04 3104.59 L4167.04 3073.48 M4167.04 3149.03 L4404.45 3149.03 L4404.45 3180.51 L4167.04 3180.51 L4167.04 3149.03 Z" fill="#000000" fill-rule="evenodd" fill-opacity="1" /><path clip-path="url(#clip5000)" d="M 0 0 M4645.56 2993.85 Q4616.67 2993.85 4602.04 3022.36 Q4587.59 3050.7 4587.59 3107.73 Q4587.59 3164.59 4602.04 3193.1 Q4616.67 3221.44 4645.56 3221.44 Q4674.63 3221.44 4689.07 3193.1 Q4703.7 3164.59 4703.7 3107.73 Q4703.7 3050.7 4689.07 3022.36 Q4674.63 2993.85 4645.56 2993.85 M4645.56 2964.22 Q4692.04 2964.22 4716.48 3001.07 Q4741.11 3037.74 4741.11 3107.73 Q4741.11 3177.55 4716.48 3214.4 Q4692.04 3251.07 4645.56 3251.07 Q4599.07 3251.07 4574.44 3214.4 Q4550 3177.55 4550 3107.73 Q4550 3037.74 4574.44 3001.07 Q4599.07 2964.22 4645.56 2964.22 Z" fill="#000000" fill-rule="evenodd" fill-opacity="1" /><path clip-path="url(#clip5000)" d="M 0 0 M4781.67 3198.66 L4820.74 3198.66 L4820.74 3245.7 L4781.67 3245.7 L4781.67 3198.66 Z" fill="#000000" fill-rule="evenodd" fill-opacity="1" /><path clip-path="url(#clip5000)" d="M 0 0 M4861.67 2969.22 L5008.52 2969.22 L5008.52 3000.7 L4895.92 3000.7 L4895.92 3068.48 Q4904.07 3065.7 4912.22 3064.4 Q4920.37 3062.92 4928.52 3062.92 Q4974.81 3062.92 5001.85 3088.29 Q5028.89 3113.66 5028.89 3156.99 Q5028.89 3201.62 5001.11 3226.44 Q4973.33 3251.07 4922.78 3251.07 Q4905.37 3251.07 4887.22 3248.1 Q4869.26 3245.14 4850 3239.22 L4850 3201.62 Q4866.67 3210.7 4884.44 3215.14 Q4902.22 3219.59 4922.04 3219.59 Q4954.07 3219.59 4972.78 3202.73 Q4991.48 3185.88 4991.48 3156.99 Q4991.48 3128.11 4972.78 3111.25 Q4954.07 3094.4 4922.04 3094.4 Q4907.04 3094.4 4892.04 3097.73 Q4877.22 3101.07 4861.67 3108.11 L4861.67 2969.22 Z" fill="#000000" fill-rule="evenodd" fill-opacity="1" /><polyline clip-path="url(#clip5000)" style="stroke:#c271d2; stroke-width:32; stroke-opacity:1; fill:none" points="
  2361.75,3591.3 3513.75,3591.3 
  "/>
<path clip-path="url(#clip5000)" d="M 0 0 M3762.6 3453.06 L3800 3453.06 L3800 3710.28 Q3800 3760.28 3780.93 3782.87 Q3762.04 3805.46 3720.01 3805.46 L3705.75 3805.46 L3705.75 3773.98 L3717.41 3773.98 Q3742.23 3773.98 3752.41 3760.09 Q3762.6 3746.2 3762.6 3710.28 L3762.6 3453.06 Z" fill="#000000" fill-rule="evenodd" fill-opacity="1" /><path clip-path="url(#clip5000)" d="M 0 0 M3847.04 3698.06 L3908.15 3698.06 L3908.15 3487.13 L3841.67 3500.46 L3841.67 3466.39 L3907.78 3453.06 L3945.19 3453.06 L3945.19 3698.06 L4006.3 3698.06 L4006.3 3729.54 L3847.04 3729.54 L3847.04 3698.06 Z" fill="#000000" fill-rule="evenodd" fill-opacity="1" /><path clip-path="url(#clip5000)" d="M 0 0 M4167.04 3557.32 L4404.45 3557.32 L4404.45 3588.43 L4167.04 3588.43 L4167.04 3557.32 M4167.04 3632.87 L4404.45 3632.87 L4404.45 3664.35 L4167.04 3664.35 L4167.04 3632.87 Z" fill="#000000" fill-rule="evenodd" fill-opacity="1" /><path clip-path="url(#clip5000)" d="M 0 0 M4645.56 3477.69 Q4616.67 3477.69 4602.04 3506.2 Q4587.59 3534.54 4587.59 3591.57 Q4587.59 3648.43 4602.04 3676.94 Q4616.67 3705.28 4645.56 3705.28 Q4674.63 3705.28 4689.07 3676.94 Q4703.7 3648.43 4703.7 3591.57 Q4703.7 3534.54 4689.07 3506.2 Q4674.63 3477.69 4645.56 3477.69 M4645.56 3448.06 Q4692.04 3448.06 4716.48 3484.91 Q4741.11 3521.58 4741.11 3591.57 Q4741.11 3661.39 4716.48 3698.24 Q4692.04 3734.91 4645.56 3734.91 Q4599.07 3734.91 4574.44 3698.24 Q4550 3661.39 4550 3591.57 Q4550 3521.58 4574.44 3484.91 Q4599.07 3448.06 4645.56 3448.06 Z" fill="#000000" fill-rule="evenodd" fill-opacity="1" /><path clip-path="url(#clip5000)" d="M 0 0 M4781.67 3682.5 L4820.74 3682.5 L4820.74 3729.54 L4781.67 3729.54 L4781.67 3682.5 Z" fill="#000000" fill-rule="evenodd" fill-opacity="1" /><path clip-path="url(#clip5000)" d="M 0 0 M4851.85 3453.06 L5029.63 3453.06 L5029.63 3468.98 L4929.26 3729.54 L4890.18 3729.54 L4984.63 3484.54 L4851.85 3484.54 L4851.85 3453.06 Z" fill="#000000" fill-rule="evenodd" fill-opacity="1" /><path clip-path="url(#clip5000)" d="M 0 0 M5070.55 3453.06 L5217.4 3453.06 L5217.4 3484.54 L5104.81 3484.54 L5104.81 3552.32 Q5112.96 3549.54 5121.11 3548.24 Q5129.26 3546.76 5137.4 3546.76 Q5183.7 3546.76 5210.74 3572.13 Q5237.77 3597.5 5237.77 3640.83 Q5237.77 3685.46 5210 3710.28 Q5182.22 3734.91 5131.66 3734.91 Q5114.26 3734.91 5096.11 3731.94 Q5078.15 3728.98 5058.89 3723.06 L5058.89 3685.46 Q5075.55 3694.54 5093.33 3698.98 Q5111.11 3703.43 5130.92 3703.43 Q5162.96 3703.43 5181.66 3686.57 Q5200.37 3669.72 5200.37 3640.83 Q5200.37 3611.95 5181.66 3595.09 Q5162.96 3578.24 5130.92 3578.24 Q5115.92 3578.24 5100.92 3581.57 Q5086.11 3584.91 5070.55 3591.95 L5070.55 3453.06 Z" fill="#000000" fill-rule="evenodd" fill-opacity="1" /><polyline clip-path="url(#clip5000)" style="stroke:#ac8d18; stroke-width:32; stroke-opacity:1; fill:none" points="
  2361.75,4075.14 3513.75,4075.14 
  "/>
<path clip-path="url(#clip5000)" d="M 0 0 M3762.6 3936.9 L3800 3936.9 L3800 4194.12 Q3800 4244.12 3780.93 4266.71 Q3762.04 4289.3 3720.01 4289.3 L3705.75 4289.3 L3705.75 4257.82 L3717.41 4257.82 Q3742.23 4257.82 3752.41 4243.93 Q3762.6 4230.04 3762.6 4194.12 L3762.6 3936.9 Z" fill="#000000" fill-rule="evenodd" fill-opacity="1" /><path clip-path="url(#clip5000)" d="M 0 0 M3847.04 4181.9 L3908.15 4181.9 L3908.15 3970.97 L3841.67 3984.3 L3841.67 3950.23 L3907.78 3936.9 L3945.19 3936.9 L3945.19 4181.9 L4006.3 4181.9 L4006.3 4213.38 L3847.04 4213.38 L3847.04 4181.9 Z" fill="#000000" fill-rule="evenodd" fill-opacity="1" /><path clip-path="url(#clip5000)" d="M 0 0 M4167.04 4041.16 L4404.45 4041.16 L4404.45 4072.27 L4167.04 4072.27 L4167.04 4041.16 M4167.04 4116.71 L4404.45 4116.71 L4404.45 4148.19 L4167.04 4148.19 L4167.04 4116.71 Z" fill="#000000" fill-rule="evenodd" fill-opacity="1" /><path clip-path="url(#clip5000)" d="M 0 0 M4572.04 4181.9 L4633.15 4181.9 L4633.15 3970.97 L4566.67 3984.3 L4566.67 3950.23 L4632.78 3936.9 L4670.19 3936.9 L4670.19 4181.9 L4731.3 4181.9 L4731.3 4213.38 L4572.04 4213.38 L4572.04 4181.9 Z" fill="#000000" fill-rule="evenodd" fill-opacity="1" /><path clip-path="url(#clip5000)" d="M 0 0 M4771.85 4166.34 L4810.93 4166.34 L4810.93 4213.38 L4771.85 4213.38 L4771.85 4166.34 Z" fill="#000000" fill-rule="evenodd" fill-opacity="1" /><path clip-path="url(#clip5000)" d="M 0 0 M4931.48 3961.53 Q4902.59 3961.53 4887.96 3990.04 Q4873.52 4018.38 4873.52 4075.41 Q4873.52 4132.27 4887.96 4160.78 Q4902.59 4189.12 4931.48 4189.12 Q4960.55 4189.12 4975 4160.78 Q4989.63 4132.27 4989.63 4075.41 Q4989.63 4018.38 4975 3990.04 Q4960.55 3961.53 4931.48 3961.53 M4931.48 3931.9 Q4977.96 3931.9 5002.41 3968.75 Q5027.04 4005.42 5027.04 4075.41 Q5027.04 4145.23 5002.41 4182.08 Q4977.96 4218.75 4931.48 4218.75 Q4885 4218.75 4860.37 4182.08 Q4835.92 4145.23 4835.92 4075.41 Q4835.92 4005.42 4860.37 3968.75 Q4885 3931.9 4931.48 3931.9 Z" fill="#000000" fill-rule="evenodd" fill-opacity="1" /><polyline clip-path="url(#clip5000)" style="stroke:#00a9ad; stroke-width:32; stroke-opacity:1; fill:none" points="
  2361.75,4558.98 3513.75,4558.98 
  "/>
<path clip-path="url(#clip5000)" d="M 0 0 M3762.6 4420.74 L3800 4420.74 L3800 4677.96 Q3800 4727.96 3780.93 4750.55 Q3762.04 4773.14 3720.01 4773.14 L3705.75 4773.14 L3705.75 4741.66 L3717.41 4741.66 Q3742.23 4741.66 3752.41 4727.77 Q3762.6 4713.88 3762.6 4677.96 L3762.6 4420.74 Z" fill="#000000" fill-rule="evenodd" fill-opacity="1" /><path clip-path="url(#clip5000)" d="M 0 0 M3847.04 4665.74 L3908.15 4665.74 L3908.15 4454.81 L3841.67 4468.14 L3841.67 4434.07 L3907.78 4420.74 L3945.19 4420.74 L3945.19 4665.74 L4006.3 4665.74 L4006.3 4697.22 L3847.04 4697.22 L3847.04 4665.74 Z" fill="#000000" fill-rule="evenodd" fill-opacity="1" /><path clip-path="url(#clip5000)" d="M 0 0 M4167.04 4525 L4404.45 4525 L4404.45 4556.11 L4167.04 4556.11 L4167.04 4525 M4167.04 4600.55 L4404.45 4600.55 L4404.45 4632.03 L4167.04 4632.03 L4167.04 4600.55 Z" fill="#000000" fill-rule="evenodd" fill-opacity="1" /><path clip-path="url(#clip5000)" d="M 0 0 M4645.56 4445.37 Q4616.67 4445.37 4602.04 4473.88 Q4587.59 4502.22 4587.59 4559.25 Q4587.59 4616.11 4602.04 4644.62 Q4616.67 4672.96 4645.56 4672.96 Q4674.63 4672.96 4689.07 4644.62 Q4703.7 4616.11 4703.7 4559.25 Q4703.7 4502.22 4689.07 4473.88 Q4674.63 4445.37 4645.56 4445.37 M4645.56 4415.74 Q4692.04 4415.74 4716.48 4452.59 Q4741.11 4489.26 4741.11 4559.25 Q4741.11 4629.07 4716.48 4665.92 Q4692.04 4702.59 4645.56 4702.59 Q4599.07 4702.59 4574.44 4665.92 Q4550 4629.07 4550 4559.25 Q4550 4489.26 4574.44 4452.59 Q4599.07 4415.74 4645.56 4415.74 Z" fill="#000000" fill-rule="evenodd" fill-opacity="1" /><path clip-path="url(#clip5000)" d="M 0 0 M4781.67 4650.18 L4820.74 4650.18 L4820.74 4697.22 L4781.67 4697.22 L4781.67 4650.18 Z" fill="#000000" fill-rule="evenodd" fill-opacity="1" /><path clip-path="url(#clip5000)" d="M 0 0 M4964.07 4453.33 L4869.63 4600.92 L4964.07 4600.92 L4964.07 4453.33 M4954.26 4420.74 L5001.29 4420.74 L5001.29 4600.92 L5040.74 4600.92 L5040.74 4632.03 L5001.29 4632.03 L5001.29 4697.22 L4964.07 4697.22 L4964.07 4632.03 L4839.26 4632.03 L4839.26 4595.92 L4954.26 4420.74 Z" fill="#000000" fill-rule="evenodd" fill-opacity="1" /><polyline clip-path="url(#clip5000)" style="stroke:#ed5d92; stroke-width:32; stroke-opacity:1; fill:none" points="
  2361.75,5042.82 3513.75,5042.82 
  "/>
<path clip-path="url(#clip5000)" d="M 0 0 M3762.6 4904.58 L3800 4904.58 L3800 5161.8 Q3800 5211.8 3780.93 5234.39 Q3762.04 5256.98 3720.01 5256.98 L3705.75 5256.98 L3705.75 5225.5 L3717.41 5225.5 Q3742.23 5225.5 3752.41 5211.61 Q3762.6 5197.72 3762.6 5161.8 L3762.6 4904.58 Z" fill="#000000" fill-rule="evenodd" fill-opacity="1" /><path clip-path="url(#clip5000)" d="M 0 0 M3847.04 5149.58 L3908.15 5149.58 L3908.15 4938.65 L3841.67 4951.98 L3841.67 4917.91 L3907.78 4904.58 L3945.19 4904.58 L3945.19 5149.58 L4006.3 5149.58 L4006.3 5181.06 L3847.04 5181.06 L3847.04 5149.58 Z" fill="#000000" fill-rule="evenodd" fill-opacity="1" /><path clip-path="url(#clip5000)" d="M 0 0 M4167.04 5008.84 L4404.45 5008.84 L4404.45 5039.95 L4167.04 5039.95 L4167.04 5008.84 M4167.04 5084.39 L4404.45 5084.39 L4404.45 5115.87 L4167.04 5115.87 L4167.04 5084.39 Z" fill="#000000" fill-rule="evenodd" fill-opacity="1" /><path clip-path="url(#clip5000)" d="M 0 0 M4645.56 4929.21 Q4616.67 4929.21 4602.04 4957.72 Q4587.59 4986.06 4587.59 5043.09 Q4587.59 5099.95 4602.04 5128.46 Q4616.67 5156.8 4645.56 5156.8 Q4674.63 5156.8 4689.07 5128.46 Q4703.7 5099.95 4703.7 5043.09 Q4703.7 4986.06 4689.07 4957.72 Q4674.63 4929.21 4645.56 4929.21 M4645.56 4899.58 Q4692.04 4899.58 4716.48 4936.43 Q4741.11 4973.1 4741.11 5043.09 Q4741.11 5112.91 4716.48 5149.76 Q4692.04 5186.43 4645.56 5186.43 Q4599.07 5186.43 4574.44 5149.76 Q4550 5112.91 4550 5043.09 Q4550 4973.1 4574.44 4936.43 Q4599.07 4899.58 4645.56 4899.58 Z" fill="#000000" fill-rule="evenodd" fill-opacity="1" /><path clip-path="url(#clip5000)" d="M 0 0 M4781.67 5134.02 L4820.74 5134.02 L4820.74 5181.06 L4781.67 5181.06 L4781.67 5134.02 Z" fill="#000000" fill-rule="evenodd" fill-opacity="1" /><path clip-path="url(#clip5000)" d="M 0 0 M4964.07 4937.17 L4869.63 5084.76 L4964.07 5084.76 L4964.07 4937.17 M4954.26 4904.58 L5001.29 4904.58 L5001.29 5084.76 L5040.74 5084.76 L5040.74 5115.87 L5001.29 5115.87 L5001.29 5181.06 L4964.07 5181.06 L4964.07 5115.87 L4839.26 5115.87 L4839.26 5079.76 L4954.26 4904.58 Z" fill="#000000" fill-rule="evenodd" fill-opacity="1" /><path clip-path="url(#clip5000)" d="M 0 0 M5081.66 4904.58 L5228.52 4904.58 L5228.52 4936.06 L5115.92 4936.06 L5115.92 5003.84 Q5124.07 5001.06 5132.22 4999.76 Q5140.37 4998.28 5148.52 4998.28 Q5194.81 4998.28 5221.85 5023.65 Q5248.89 5049.02 5248.89 5092.35 Q5248.89 5136.98 5221.11 5161.8 Q5193.33 5186.43 5142.78 5186.43 Q5125.37 5186.43 5107.22 5183.46 Q5089.26 5180.5 5070 5174.58 L5070 5136.98 Q5086.66 5146.06 5104.44 5150.5 Q5122.22 5154.95 5142.03 5154.95 Q5174.07 5154.95 5192.77 5138.09 Q5211.48 5121.24 5211.48 5092.35 Q5211.48 5063.47 5192.77 5046.61 Q5174.07 5029.76 5142.03 5029.76 Q5127.03 5029.76 5112.03 5033.09 Q5097.22 5036.43 5081.66 5043.47 L5081.66 4904.58 Z" fill="#000000" fill-rule="evenodd" fill-opacity="1" /><polyline clip-path="url(#clip5000)" style="stroke:#c68125; stroke-width:32; stroke-opacity:1; fill:none" points="
  2361.75,5526.66 3513.75,5526.66 
  "/>
<path clip-path="url(#clip5000)" d="M 0 0 M3705.75 5388.42 L3761.49 5388.42 L3832.04 5576.56 L3902.97 5388.42 L3958.71 5388.42 L3958.71 5664.9 L3922.23 5664.9 L3922.23 5422.12 L3850.93 5611.75 L3813.34 5611.75 L3742.04 5422.12 L3742.04 5664.9 L3705.75 5664.9 L3705.75 5388.42 Z" fill="#000000" fill-rule="evenodd" fill-opacity="1" /><path clip-path="url(#clip5000)" d="M 0 0 M4088.34 5425.27 L4037.6 5562.86 L4139.26 5562.86 L4088.34 5425.27 M4067.23 5388.42 L4109.63 5388.42 L4215 5664.9 L4176.11 5664.9 L4150.93 5593.97 L4026.3 5593.97 L4001.11 5664.9 L3961.67 5664.9 L4067.23 5388.42 Z" fill="#000000" fill-rule="evenodd" fill-opacity="1" /><path clip-path="url(#clip5000)" d="M 0 0 M4238.89 5388.42 L4279.08 5388.42 L4347.78 5491.19 L4416.85 5388.42 L4457.04 5388.42 L4368.15 5521.19 L4462.96 5664.9 L4422.78 5664.9 L4345 5547.31 L4266.67 5664.9 L4226.3 5664.9 L4325 5517.31 L4238.89 5388.42 Z" fill="#000000" fill-rule="evenodd" fill-opacity="1" /><path clip-path="url(#clip5000)" d="M 0 0 M4656.3 5727.86 L4656.3 5754.34 L4459.26 5754.34 L4459.26 5727.86 L4656.3 5727.86 Z" fill="#000000" fill-rule="evenodd" fill-opacity="1" /><path clip-path="url(#clip5000)" d="M 0 0 M4824.63 5535.27 Q4836.67 5539.34 4847.96 5552.68 Q4859.44 5566.01 4870.92 5589.34 L4908.89 5664.9 L4868.7 5664.9 L4833.33 5593.97 Q4819.63 5566.19 4806.67 5557.12 Q4793.89 5548.05 4771.67 5548.05 L4730.93 5548.05 L4730.93 5664.9 L4693.52 5664.9 L4693.52 5388.42 L4777.96 5388.42 Q4825.37 5388.42 4848.7 5408.23 Q4872.04 5428.05 4872.04 5468.05 Q4872.04 5494.16 4859.81 5511.38 Q4847.78 5528.6 4824.63 5535.27 M4730.93 5419.16 L4730.93 5517.31 L4777.96 5517.31 Q4805 5517.31 4818.7 5504.9 Q4832.59 5492.31 4832.59 5468.05 Q4832.59 5443.79 4818.7 5431.56 Q4805 5419.16 4777.96 5419.16 L4730.93 5419.16 Z" fill="#000000" fill-rule="evenodd" fill-opacity="1" /><path clip-path="url(#clip5000)" d="M 0 0 M5105 5552.68 L5105 5569.34 L4948.33 5569.34 Q4950.55 5604.53 4969.44 5623.05 Q4988.52 5641.38 5022.41 5641.38 Q5042.03 5641.38 5060.37 5636.56 Q5078.89 5631.75 5097.03 5622.12 L5097.03 5654.34 Q5078.7 5662.12 5059.44 5666.19 Q5040.18 5670.27 5020.37 5670.27 Q4970.74 5670.27 4941.67 5641.38 Q4912.78 5612.49 4912.78 5563.23 Q4912.78 5512.31 4940.18 5482.49 Q4967.78 5452.49 5014.44 5452.49 Q5056.29 5452.49 5080.55 5479.53 Q5105 5506.38 5105 5552.68 M5070.92 5542.68 Q5070.55 5514.71 5055.18 5498.05 Q5040 5481.38 5014.81 5481.38 Q4986.29 5481.38 4969.07 5497.49 Q4952.04 5513.6 4949.44 5542.86 L5070.92 5542.68 Z" fill="#000000" fill-rule="evenodd" fill-opacity="1" /><path clip-path="url(#clip5000)" d="M 0 0 M5272.96 5463.6 L5272.96 5495.82 Q5258.52 5488.42 5242.96 5484.71 Q5227.4 5481.01 5210.74 5481.01 Q5185.37 5481.01 5172.59 5488.79 Q5160 5496.56 5160 5512.12 Q5160 5523.97 5169.07 5530.82 Q5178.15 5537.49 5205.55 5543.6 L5217.22 5546.19 Q5253.52 5553.97 5268.7 5568.23 Q5284.07 5582.3 5284.07 5607.68 Q5284.07 5636.56 5261.11 5653.42 Q5238.33 5670.27 5198.33 5670.27 Q5181.66 5670.27 5163.52 5666.93 Q5145.55 5663.79 5125.55 5657.3 L5125.55 5622.12 Q5144.44 5631.93 5162.78 5636.93 Q5181.11 5641.75 5199.07 5641.75 Q5223.15 5641.75 5236.11 5633.6 Q5249.07 5625.27 5249.07 5610.27 Q5249.07 5596.38 5239.63 5588.97 Q5230.37 5581.56 5198.7 5574.71 L5186.85 5571.93 Q5155.18 5565.27 5141.11 5551.56 Q5127.03 5537.68 5127.03 5513.6 Q5127.03 5484.34 5147.78 5468.42 Q5168.52 5452.49 5206.66 5452.49 Q5225.55 5452.49 5242.22 5455.27 Q5258.89 5458.05 5272.96 5463.6 Z" fill="#000000" fill-rule="evenodd" fill-opacity="1" /><path clip-path="url(#clip5000)" d="M 0 0 M5316.29 5583.05 L5316.29 5457.49 L5350.37 5457.49 L5350.37 5581.75 Q5350.37 5611.19 5361.85 5626.01 Q5373.33 5640.64 5396.29 5640.64 Q5423.88 5640.64 5439.81 5623.05 Q5455.92 5605.45 5455.92 5575.08 L5455.92 5457.49 L5490 5457.49 L5490 5664.9 L5455.92 5664.9 L5455.92 5633.05 Q5443.51 5651.93 5427.03 5661.19 Q5410.74 5670.27 5389.07 5670.27 Q5353.33 5670.27 5334.81 5648.05 Q5316.29 5625.82 5316.29 5583.05 M5402.03 5452.49 L5402.03 5452.49 Z" fill="#000000" fill-rule="evenodd" fill-opacity="1" /><path clip-path="url(#clip5000)" d="M 0 0 M5525.74 5376.75 L5559.81 5376.75 L5559.81 5664.9 L5525.74 5664.9 L5525.74 5376.75 Z" fill="#000000" fill-rule="evenodd" fill-opacity="1" /><path clip-path="url(#clip5000)" d="M 0 0 M5629.25 5398.6 L5629.25 5457.49 L5699.44 5457.49 L5699.44 5483.97 L5629.25 5483.97 L5629.25 5596.56 Q5629.25 5621.93 5636.11 5629.16 Q5643.14 5636.38 5664.44 5636.38 L5699.44 5636.38 L5699.44 5664.9 L5664.44 5664.9 Q5624.99 5664.9 5609.99 5650.27 Q5594.99 5635.45 5594.99 5596.56 L5594.99 5483.97 L5570 5483.97 L5570 5457.49 L5594.99 5457.49 L5594.99 5398.6 L5629.25 5398.6 Z" fill="#000000" fill-rule="evenodd" fill-opacity="1" /><path clip-path="url(#clip5000)" d="M 0 0 M5892.77 5727.86 L5892.77 5754.34 L5695.74 5754.34 L5695.74 5727.86 L5892.77 5727.86 Z" fill="#000000" fill-rule="evenodd" fill-opacity="1" /><path clip-path="url(#clip5000)" d="M 0 0 M5929.99 5388.42 L5967.4 5388.42 L5967.4 5645.64 Q5967.4 5695.64 5948.33 5718.23 Q5929.44 5740.82 5887.4 5740.82 L5873.14 5740.82 L5873.14 5709.34 L5884.81 5709.34 Q5909.62 5709.34 5919.81 5695.45 Q5929.99 5681.56 5929.99 5645.64 L5929.99 5388.42 Z" fill="#000000" fill-rule="evenodd" fill-opacity="1" /><path clip-path="url(#clip5000)" d="M 0 0 M6014.44 5633.42 L6075.55 5633.42 L6075.55 5422.49 L6009.07 5435.82 L6009.07 5401.75 L6075.18 5388.42 L6112.58 5388.42 L6112.58 5633.42 L6173.7 5633.42 L6173.7 5664.9 L6014.44 5664.9 L6014.44 5633.42 Z" fill="#000000" fill-rule="evenodd" fill-opacity="1" /><path clip-path="url(#clip5000)" d="M 0 0 M6334.44 5492.68 L6571.84 5492.68 L6571.84 5523.79 L6334.44 5523.79 L6334.44 5492.68 M6334.44 5568.23 L6571.84 5568.23 L6571.84 5599.71 L6334.44 5599.71 L6334.44 5568.23 Z" fill="#000000" fill-rule="evenodd" fill-opacity="1" /><path clip-path="url(#clip5000)" d="M 0 0 M6812.95 5413.05 Q6784.06 5413.05 6769.43 5441.56 Q6754.99 5469.9 6754.99 5526.93 Q6754.99 5583.79 6769.43 5612.3 Q6784.06 5640.64 6812.95 5640.64 Q6842.03 5640.64 6856.47 5612.3 Q6871.1 5583.79 6871.1 5526.93 Q6871.1 5469.9 6856.47 5441.56 Q6842.03 5413.05 6812.95 5413.05 M6812.95 5383.42 Q6859.43 5383.42 6883.88 5420.27 Q6908.51 5456.94 6908.51 5526.93 Q6908.51 5596.75 6883.88 5633.6 Q6859.43 5670.27 6812.95 5670.27 Q6766.47 5670.27 6741.84 5633.6 Q6717.4 5596.75 6717.4 5526.93 Q6717.4 5456.94 6741.84 5420.27 Q6766.47 5383.42 6812.95 5383.42 Z" fill="#000000" fill-rule="evenodd" fill-opacity="1" /><path clip-path="url(#clip5000)" d="M 0 0 M6949.06 5617.86 L6988.14 5617.86 L6988.14 5664.9 L6949.06 5664.9 L6949.06 5617.86 Z" fill="#000000" fill-rule="evenodd" fill-opacity="1" /><path clip-path="url(#clip5000)" d="M 0 0 M7108.69 5413.05 Q7079.8 5413.05 7065.17 5441.56 Q7050.73 5469.9 7050.73 5526.93 Q7050.73 5583.79 7065.17 5612.3 Q7079.8 5640.64 7108.69 5640.64 Q7137.76 5640.64 7152.21 5612.3 Q7166.84 5583.79 7166.84 5526.93 Q7166.84 5469.9 7152.21 5441.56 Q7137.76 5413.05 7108.69 5413.05 M7108.69 5383.42 Q7155.17 5383.42 7179.62 5420.27 Q7204.25 5456.94 7204.25 5526.93 Q7204.25 5596.75 7179.62 5633.6 Q7155.17 5670.27 7108.69 5670.27 Q7062.21 5670.27 7037.58 5633.6 Q7013.14 5596.75 7013.14 5526.93 Q7013.14 5456.94 7037.58 5420.27 Q7062.21 5383.42 7108.69 5383.42 Z" fill="#000000" fill-rule="evenodd" fill-opacity="1" /></svg>
