<?xml version="1.0" encoding="utf-8"?>
<svg xmlns="http://www.w3.org/2000/svg" xmlns:xlink="http://www.w3.org/1999/xlink" width="4800" height="3200" viewBox="0 0 19200 12800">
<defs>
  <clipPath id="clip820">
    <rect x="0" y="0" width="19200" height="12800"/>
  </clipPath>
</defs>
<path clip-path="url(#clip820)" d="
M0 12800 L19200 12800 L19200 0 L0 0  Z
  " fill="#ffffff" fill-rule="evenodd" fill-opacity="1"/>
<defs>
  <clipPath id="clip821">
    <rect x="3840" y="0" width="13441" height="12800"/>
  </clipPath>
</defs>
<path clip-path="url(#clip820)" d="
M1619.67 11385.4 L18822 11385.4 L18822 987.777 L1619.67 987.777  Z
  " fill="#ffffff" fill-rule="evenodd" fill-opacity="1"/>
<defs>
  <clipPath id="clip822">
    <rect x="1619" y="987" width="17203" height="10399"/>
  </clipPath>
</defs>
<polyline clip-path="url(#clip822)" style="stroke:#000000; stroke-width:16; stroke-opacity:0.1; fill:none" points="
  4424.91,11385.4 4424.91,987.777 
  "/>
<polyline clip-path="url(#clip822)" style="stroke:#000000; stroke-width:16; stroke-opacity:0.1; fill:none" points="
  9061.67,11385.4 9061.67,987.777 
  "/>
<polyline clip-path="url(#clip822)" style="stroke:#000000; stroke-width:16; stroke-opacity:0.1; fill:none" points="
  13698.4,11385.4 13698.4,987.777 
  "/>
<polyline clip-path="url(#clip822)" style="stroke:#000000; stroke-width:16; stroke-opacity:0.1; fill:none" points="
  18335.2,11385.4 18335.2,987.777 
  "/>
<polyline clip-path="url(#clip822)" style="stroke:#000000; stroke-width:16; stroke-opacity:0.1; fill:none" points="
  1619.67,11091.9 18822,11091.9 
  "/>
<polyline clip-path="url(#clip822)" style="stroke:#000000; stroke-width:16; stroke-opacity:0.1; fill:none" points="
  1619.67,8714.57 18822,8714.57 
  "/>
<polyline clip-path="url(#clip822)" style="stroke:#000000; stroke-width:16; stroke-opacity:0.1; fill:none" points="
  1619.67,6337.21 18822,6337.21 
  "/>
<polyline clip-path="url(#clip822)" style="stroke:#000000; stroke-width:16; stroke-opacity:0.1; fill:none" points="
  1619.67,3959.85 18822,3959.85 
  "/>
<polyline clip-path="url(#clip822)" style="stroke:#000000; stroke-width:16; stroke-opacity:0.1; fill:none" points="
  1619.67,1582.49 18822,1582.49 
  "/>
<polyline clip-path="url(#clip820)" style="stroke:#000000; stroke-width:32; stroke-opacity:1; fill:none" points="
  1619.67,11385.4 18822,11385.4 
  "/>
<polyline clip-path="url(#clip820)" style="stroke:#000000; stroke-width:32; stroke-opacity:1; fill:none" points="
  1619.67,11385.4 1619.67,987.777 
  "/>
<polyline clip-path="url(#clip820)" style="stroke:#000000; stroke-width:32; stroke-opacity:1; fill:none" points="
  4424.91,11385.4 4424.91,11260.7 
  "/>
<polyline clip-path="url(#clip820)" style="stroke:#000000; stroke-width:32; stroke-opacity:1; fill:none" points="
  9061.67,11385.4 9061.67,11260.7 
  "/>
<polyline clip-path="url(#clip820)" style="stroke:#000000; stroke-width:32; stroke-opacity:1; fill:none" points="
  13698.4,11385.4 13698.4,11260.7 
  "/>
<polyline clip-path="url(#clip820)" style="stroke:#000000; stroke-width:32; stroke-opacity:1; fill:none" points="
  18335.2,11385.4 18335.2,11260.7 
  "/>
<polyline clip-path="url(#clip820)" style="stroke:#000000; stroke-width:32; stroke-opacity:1; fill:none" points="
  1619.67,11091.9 1826.1,11091.9 
  "/>
<polyline clip-path="url(#clip820)" style="stroke:#000000; stroke-width:32; stroke-opacity:1; fill:none" points="
  1619.67,8714.57 1826.1,8714.57 
  "/>
<polyline clip-path="url(#clip820)" style="stroke:#000000; stroke-width:32; stroke-opacity:1; fill:none" points="
  1619.67,6337.21 1826.1,6337.21 
  "/>
<polyline clip-path="url(#clip820)" style="stroke:#000000; stroke-width:32; stroke-opacity:1; fill:none" points="
  1619.67,3959.85 1826.1,3959.85 
  "/>
<polyline clip-path="url(#clip820)" style="stroke:#000000; stroke-width:32; stroke-opacity:1; fill:none" points="
  1619.67,1582.49 1826.1,1582.49 
  "/>
<path clip-path="url(#clip820)" d="M 0 0 M4275.1 11561.4 Q4246.21 11561.4 4231.58 11589.9 Q4217.13 11618.2 4217.13 11675.3 Q4217.13 11732.1 4231.58 11760.6 Q4246.21 11789 4275.1 11789 Q4304.17 11789 4318.62 11760.6 Q4333.24 11732.1 4333.24 11675.3 Q4333.24 11618.2 4318.62 11589.9 Q4304.17 11561.4 4275.1 11561.4 M4275.1 11531.7 Q4321.58 11531.7 4346.02 11568.6 Q4370.65 11605.3 4370.65 11675.3 Q4370.65 11745.1 4346.02 11781.9 Q4321.58 11818.6 4275.1 11818.6 Q4228.62 11818.6 4203.99 11781.9 Q4179.54 11745.1 4179.54 11675.3 Q4179.54 11605.3 4203.99 11568.6 Q4228.62 11531.7 4275.1 11531.7 Z" fill="#000000" fill-rule="evenodd" fill-opacity="1" /><path clip-path="url(#clip820)" d="M 0 0 M4411.21 11766.2 L4450.28 11766.2 L4450.28 11813.2 L4411.21 11813.2 L4411.21 11766.2 Z" fill="#000000" fill-rule="evenodd" fill-opacity="1" /><path clip-path="url(#clip820)" d="M 0 0 M4593.61 11569.3 L4499.17 11716.9 L4593.61 11716.9 L4593.61 11569.3 M4583.8 11536.7 L4630.84 11536.7 L4630.84 11716.9 L4670.28 11716.9 L4670.28 11748 L4630.84 11748 L4630.84 11813.2 L4593.61 11813.2 L4593.61 11748 L4468.8 11748 L4468.8 11711.9 L4583.8 11536.7 Z" fill="#000000" fill-rule="evenodd" fill-opacity="1" /><path clip-path="url(#clip820)" d="M 0 0 M8913.15 11561.4 Q8884.26 11561.4 8869.63 11589.9 Q8855.19 11618.2 8855.19 11675.3 Q8855.19 11732.1 8869.63 11760.6 Q8884.26 11789 8913.15 11789 Q8942.23 11789 8956.67 11760.6 Q8971.3 11732.1 8971.3 11675.3 Q8971.3 11618.2 8956.67 11589.9 Q8942.23 11561.4 8913.15 11561.4 M8913.15 11531.7 Q8959.63 11531.7 8984.08 11568.6 Q9008.71 11605.3 9008.71 11675.3 Q9008.71 11745.1 8984.08 11781.9 Q8959.63 11818.6 8913.15 11818.6 Q8866.67 11818.6 8842.04 11781.9 Q8817.6 11745.1 8817.6 11675.3 Q8817.6 11605.3 8842.04 11568.6 Q8866.67 11531.7 8913.15 11531.7 Z" fill="#000000" fill-rule="evenodd" fill-opacity="1" /><path clip-path="url(#clip820)" d="M 0 0 M9049.26 11766.2 L9088.34 11766.2 L9088.34 11813.2 L9049.26 11813.2 L9049.26 11766.2 Z" fill="#000000" fill-rule="evenodd" fill-opacity="1" /><path clip-path="url(#clip820)" d="M 0 0 M9213.52 11660.1 Q9188.34 11660.1 9173.52 11677.3 Q9158.89 11694.5 9158.89 11724.5 Q9158.89 11754.3 9173.52 11771.7 Q9188.34 11789 9213.52 11789 Q9238.71 11789 9253.34 11771.7 Q9268.15 11754.3 9268.15 11724.5 Q9268.15 11694.5 9253.34 11677.3 Q9238.71 11660.1 9213.52 11660.1 M9287.78 11542.8 L9287.78 11576.9 Q9273.71 11570.3 9259.26 11566.7 Q9245 11563.2 9230.93 11563.2 Q9193.89 11563.2 9174.26 11588.2 Q9154.82 11613.2 9152.04 11663.8 Q9162.97 11647.7 9179.45 11639.1 Q9195.93 11630.4 9215.74 11630.4 Q9257.41 11630.4 9281.48 11655.8 Q9305.74 11681 9305.74 11724.5 Q9305.74 11767.1 9280.56 11792.8 Q9255.37 11818.6 9213.52 11818.6 Q9165.56 11818.6 9140.19 11781.9 Q9114.82 11745.1 9114.82 11675.3 Q9114.82 11609.7 9145.93 11570.8 Q9177.04 11531.7 9229.45 11531.7 Q9243.52 11531.7 9257.78 11534.5 Q9272.22 11537.3 9287.78 11542.8 Z" fill="#000000" fill-rule="evenodd" fill-opacity="1" /><path clip-path="url(#clip820)" d="M 0 0 M13550.9 11561.4 Q13522 11561.4 13507.4 11589.9 Q13493 11618.2 13493 11675.3 Q13493 11732.1 13507.4 11760.6 Q13522 11789 13550.9 11789 Q13580 11789 13594.4 11760.6 Q13609.1 11732.1 13609.1 11675.3 Q13609.1 11618.2 13594.4 11589.9 Q13580 11561.4 13550.9 11561.4 M13550.9 11531.7 Q13597.4 11531.7 13621.9 11568.6 Q13646.5 11605.3 13646.5 11675.3 Q13646.5 11745.1 13621.9 11781.9 Q13597.4 11818.6 13550.9 11818.6 Q13504.4 11818.6 13479.8 11781.9 Q13455.4 11745.1 13455.4 11675.3 Q13455.4 11605.3 13479.8 11568.6 Q13504.4 11531.7 13550.9 11531.7 Z" fill="#000000" fill-rule="evenodd" fill-opacity="1" /><path clip-path="url(#clip820)" d="M 0 0 M13687 11766.2 L13726.1 11766.2 L13726.1 11813.2 L13687 11813.2 L13687 11766.2 Z" fill="#000000" fill-rule="evenodd" fill-opacity="1" /><path clip-path="url(#clip820)" d="M 0 0 M13846.7 11681.9 Q13820 11681.9 13804.6 11696.2 Q13789.4 11710.4 13789.4 11735.4 Q13789.4 11760.4 13804.6 11774.7 Q13820 11789 13846.7 11789 Q13873.3 11789 13888.7 11774.7 Q13904.1 11760.3 13904.1 11735.4 Q13904.1 11710.4 13888.7 11696.2 Q13873.5 11681.9 13846.7 11681.9 M13809.3 11666 Q13785.2 11660.1 13771.7 11643.6 Q13758.3 11627.1 13758.3 11603.4 Q13758.3 11570.3 13781.9 11551 Q13805.6 11531.7 13846.7 11531.7 Q13888 11531.7 13911.5 11551 Q13935 11570.3 13935 11603.4 Q13935 11627.1 13921.5 11643.6 Q13908.1 11660.1 13884.3 11666 Q13911.3 11672.3 13926.3 11690.6 Q13941.5 11709 13941.5 11735.4 Q13941.5 11775.6 13916.9 11797.1 Q13892.4 11818.6 13846.7 11818.6 Q13800.9 11818.6 13776.3 11797.1 Q13751.9 11775.6 13751.9 11735.4 Q13751.9 11709 13767 11690.6 Q13782.2 11672.3 13809.3 11666 M13795.6 11606.9 Q13795.6 11628.4 13808.9 11640.4 Q13822.4 11652.5 13846.7 11652.5 Q13870.7 11652.5 13884.3 11640.4 Q13898 11628.4 13898 11606.9 Q13898 11585.4 13884.3 11573.4 Q13870.7 11561.4 13846.7 11561.4 Q13822.4 11561.4 13808.9 11573.4 Q13795.6 11585.4 13795.6 11606.9 Z" fill="#000000" fill-rule="evenodd" fill-opacity="1" /><path clip-path="url(#clip820)" d="M 0 0 M18110.4 11781.7 L18171.5 11781.7 L18171.5 11570.8 L18105 11584.1 L18105 11550.1 L18171.1 11536.7 L18208.5 11536.7 L18208.5 11781.7 L18269.6 11781.7 L18269.6 11813.2 L18110.4 11813.2 L18110.4 11781.7 Z" fill="#000000" fill-rule="evenodd" fill-opacity="1" /><path clip-path="url(#clip820)" d="M 0 0 M18310.2 11766.2 L18349.3 11766.2 L18349.3 11813.2 L18310.2 11813.2 L18310.2 11766.2 Z" fill="#000000" fill-rule="evenodd" fill-opacity="1" /><path clip-path="url(#clip820)" d="M 0 0 M18469.8 11561.4 Q18440.9 11561.4 18426.3 11589.9 Q18411.9 11618.2 18411.9 11675.3 Q18411.9 11732.1 18426.3 11760.6 Q18440.9 11789 18469.8 11789 Q18498.9 11789 18513.3 11760.6 Q18528 11732.1 18528 11675.3 Q18528 11618.2 18513.3 11589.9 Q18498.9 11561.4 18469.8 11561.4 M18469.8 11531.7 Q18516.3 11531.7 18540.7 11568.6 Q18565.4 11605.3 18565.4 11675.3 Q18565.4 11745.1 18540.7 11781.9 Q18516.3 11818.6 18469.8 11818.6 Q18423.3 11818.6 18398.7 11781.9 Q18374.3 11745.1 18374.3 11675.3 Q18374.3 11605.3 18398.7 11568.6 Q18423.3 11531.7 18469.8 11531.7 Z" fill="#000000" fill-rule="evenodd" fill-opacity="1" /><path clip-path="url(#clip820)" d="M 0 0 M1332.12 10978.3 Q1303.23 10978.3 1288.6 11006.8 Q1274.15 11035.2 1274.15 11092.2 Q1274.15 11149.1 1288.6 11177.6 Q1303.23 11205.9 1332.12 11205.9 Q1361.19 11205.9 1375.63 11177.6 Q1390.26 11149.1 1390.26 11092.2 Q1390.26 11035.2 1375.63 11006.8 Q1361.19 10978.3 1332.12 10978.3 M1332.12 10948.7 Q1378.6 10948.7 1403.04 10985.5 Q1427.67 11022.2 1427.67 11092.2 Q1427.67 11162 1403.04 11198.9 Q1378.6 11235.5 1332.12 11235.5 Q1285.64 11235.5 1261.01 11198.9 Q1236.56 11162 1236.56 11092.2 Q1236.56 11022.2 1261.01 10985.5 Q1285.64 10948.7 1332.12 10948.7 Z" fill="#000000" fill-rule="evenodd" fill-opacity="1" /><path clip-path="url(#clip820)" d="M 0 0 M1052.3 8821.32 L1113.41 8821.32 L1113.41 8610.4 L1046.93 8623.73 L1046.93 8589.66 L1113.04 8576.33 L1150.45 8576.33 L1150.45 8821.32 L1211.56 8821.32 L1211.56 8852.81 L1052.3 8852.81 L1052.3 8821.32 Z" fill="#000000" fill-rule="evenodd" fill-opacity="1" /><path clip-path="url(#clip820)" d="M 0 0 M1332.12 8600.96 Q1303.23 8600.96 1288.6 8629.47 Q1274.15 8657.81 1274.15 8714.84 Q1274.15 8771.7 1288.6 8800.21 Q1303.23 8828.55 1332.12 8828.55 Q1361.19 8828.55 1375.63 8800.21 Q1390.26 8771.7 1390.26 8714.84 Q1390.26 8657.81 1375.63 8629.47 Q1361.19 8600.96 1332.12 8600.96 M1332.12 8571.33 Q1378.6 8571.33 1403.04 8608.18 Q1427.67 8644.84 1427.67 8714.84 Q1427.67 8784.66 1403.04 8821.51 Q1378.6 8858.18 1332.12 8858.18 Q1285.64 8858.18 1261.01 8821.51 Q1236.56 8784.66 1236.56 8714.84 Q1236.56 8644.84 1261.01 8608.18 Q1285.64 8571.33 1332.12 8571.33 Z" fill="#000000" fill-rule="evenodd" fill-opacity="1" /><path clip-path="url(#clip820)" d="M 0 0 M1081.01 6443.97 L1211.56 6443.97 L1211.56 6475.45 L1036.01 6475.45 L1036.01 6443.97 Q1057.3 6421.93 1093.97 6384.89 Q1130.82 6347.67 1140.27 6336.93 Q1158.23 6316.75 1165.27 6302.86 Q1172.49 6288.78 1172.49 6275.26 Q1172.49 6253.23 1156.93 6239.34 Q1141.56 6225.45 1116.75 6225.45 Q1099.15 6225.45 1079.53 6231.56 Q1060.08 6237.67 1037.86 6250.08 L1037.86 6212.3 Q1060.45 6203.23 1080.08 6198.6 Q1099.71 6193.97 1116.01 6193.97 Q1158.97 6193.97 1184.52 6215.45 Q1210.08 6236.93 1210.08 6272.86 Q1210.08 6289.89 1203.6 6305.26 Q1197.3 6320.45 1180.45 6341.19 Q1175.82 6346.56 1151.01 6372.3 Q1126.19 6397.86 1081.01 6443.97 Z" fill="#000000" fill-rule="evenodd" fill-opacity="1" /><path clip-path="url(#clip820)" d="M 0 0 M1332.12 6223.6 Q1303.23 6223.6 1288.6 6252.12 Q1274.15 6280.45 1274.15 6337.49 Q1274.15 6394.34 1288.6 6422.86 Q1303.23 6451.19 1332.12 6451.19 Q1361.19 6451.19 1375.63 6422.86 Q1390.26 6394.34 1390.26 6337.49 Q1390.26 6280.45 1375.63 6252.12 Q1361.19 6223.6 1332.12 6223.6 M1332.12 6193.97 Q1378.6 6193.97 1403.04 6230.82 Q1427.67 6267.49 1427.67 6337.49 Q1427.67 6407.3 1403.04 6444.15 Q1378.6 6480.82 1332.12 6480.82 Q1285.64 6480.82 1261.01 6444.15 Q1236.56 6407.3 1236.56 6337.49 Q1236.56 6267.49 1261.01 6230.82 Q1285.64 6193.97 1332.12 6193.97 Z" fill="#000000" fill-rule="evenodd" fill-opacity="1" /><path clip-path="url(#clip820)" d="M 0 0 M1154.52 3949.02 Q1181.38 3954.76 1196.38 3972.91 Q1211.56 3991.05 1211.56 4017.72 Q1211.56 4058.65 1183.41 4081.05 Q1155.27 4103.46 1103.41 4103.46 Q1086.01 4103.46 1067.49 4099.94 Q1049.16 4096.61 1029.53 4089.76 L1029.53 4053.65 Q1045.08 4062.72 1063.6 4067.35 Q1082.12 4071.98 1102.3 4071.98 Q1137.49 4071.98 1155.82 4058.09 Q1174.34 4044.2 1174.34 4017.72 Q1174.34 3993.28 1157.12 3979.57 Q1140.08 3965.68 1109.53 3965.68 L1077.3 3965.68 L1077.3 3934.94 L1111.01 3934.94 Q1138.6 3934.94 1153.23 3924.02 Q1167.86 3912.91 1167.86 3892.17 Q1167.86 3870.87 1152.67 3859.57 Q1137.67 3848.09 1109.53 3848.09 Q1094.15 3848.09 1076.56 3851.42 Q1058.97 3854.76 1037.86 3861.8 L1037.86 3828.46 Q1059.16 3822.54 1077.67 3819.57 Q1096.38 3816.61 1112.86 3816.61 Q1155.45 3816.61 1180.27 3836.05 Q1205.08 3855.31 1205.08 3888.28 Q1205.08 3911.24 1191.93 3927.17 Q1178.78 3942.91 1154.52 3949.02 Z" fill="#000000" fill-rule="evenodd" fill-opacity="1" /><path clip-path="url(#clip820)" d="M 0 0 M1332.12 3846.24 Q1303.23 3846.24 1288.6 3874.76 Q1274.15 3903.09 1274.15 3960.13 Q1274.15 4016.98 1288.6 4045.5 Q1303.23 4073.83 1332.12 4073.83 Q1361.19 4073.83 1375.63 4045.5 Q1390.26 4016.98 1390.26 3960.13 Q1390.26 3903.09 1375.63 3874.76 Q1361.19 3846.24 1332.12 3846.24 M1332.12 3816.61 Q1378.6 3816.61 1403.04 3853.46 Q1427.67 3890.13 1427.67 3960.13 Q1427.67 4029.94 1403.04 4066.79 Q1378.6 4103.46 1332.12 4103.46 Q1285.64 4103.46 1261.01 4066.79 Q1236.56 4029.94 1236.56 3960.13 Q1236.56 3890.13 1261.01 3853.46 Q1285.64 3816.61 1332.12 3816.61 Z" fill="#000000" fill-rule="evenodd" fill-opacity="1" /><path clip-path="url(#clip820)" d="M 0 0 M1134.9 1476.84 L1040.45 1624.44 L1134.9 1624.44 L1134.9 1476.84 M1125.08 1444.25 L1172.12 1444.25 L1172.12 1624.44 L1211.56 1624.44 L1211.56 1655.55 L1172.12 1655.55 L1172.12 1720.73 L1134.9 1720.73 L1134.9 1655.55 L1010.08 1655.55 L1010.08 1619.44 L1125.08 1444.25 Z" fill="#000000" fill-rule="evenodd" fill-opacity="1" /><path clip-path="url(#clip820)" d="M 0 0 M1332.12 1468.88 Q1303.23 1468.88 1288.6 1497.4 Q1274.15 1525.73 1274.15 1582.77 Q1274.15 1639.62 1288.6 1668.14 Q1303.23 1696.47 1332.12 1696.47 Q1361.19 1696.47 1375.63 1668.14 Q1390.26 1639.62 1390.26 1582.77 Q1390.26 1525.73 1375.63 1497.4 Q1361.19 1468.88 1332.12 1468.88 M1332.12 1439.25 Q1378.6 1439.25 1403.04 1476.1 Q1427.67 1512.77 1427.67 1582.77 Q1427.67 1652.58 1403.04 1689.44 Q1378.6 1726.1 1332.12 1726.1 Q1285.64 1726.1 1261.01 1689.44 Q1236.56 1652.58 1236.56 1582.77 Q1236.56 1512.77 1261.01 1476.1 Q1285.64 1439.25 1332.12 1439.25 Z" fill="#000000" fill-rule="evenodd" fill-opacity="1" /><path clip-path="url(#clip820)" d="M 0 0 M5951.37 134.036 L5951.37 203.064 Q5918.31 172.277 5880.72 157.045 Q5843.45 141.814 5801.32 141.814 Q5718.36 141.814 5674.29 192.693 Q5630.21 243.249 5630.21 339.174 Q5630.21 434.775 5674.29 485.655 Q5718.36 536.21 5801.32 536.21 Q5843.45 536.21 5880.72 520.979 Q5918.31 505.747 5951.37 474.96 L5951.37 543.34 Q5917.02 566.673 5878.45 578.339 Q5840.21 590.006 5797.43 590.006 Q5687.57 590.006 5624.38 522.923 Q5561.19 455.516 5561.19 339.174 Q5561.19 222.508 5624.38 155.425 Q5687.57 88.018 5797.43 88.018 Q5840.86 88.018 5879.1 99.6847 Q5917.66 111.027 5951.37 134.036 Z" fill="#000000" fill-rule="evenodd" fill-opacity="1" /><path clip-path="url(#clip820)" d="M 0 0 M6289.7 690.793 L6289.7 737.135 L5944.89 737.135 L5944.89 690.793 L6289.7 690.793 Z" fill="#000000" fill-rule="evenodd" fill-opacity="1" /><path clip-path="url(#clip820)" d="M 0 0 M6583.63 228.341 L6583.63 284.73 Q6558.36 271.767 6531.13 265.286 Q6503.91 258.804 6474.75 258.804 Q6430.35 258.804 6407.99 272.415 Q6385.95 286.026 6385.95 313.248 Q6385.95 333.989 6401.83 345.98 Q6417.71 357.646 6465.67 368.341 L6486.09 372.878 Q6549.61 386.489 6576.18 411.442 Q6603.08 436.072 6603.08 480.47 Q6603.08 531.025 6562.89 560.516 Q6523.03 590.006 6453.03 590.006 Q6423.87 590.006 6392.11 584.173 Q6360.67 578.664 6325.67 567.321 L6325.67 505.747 Q6358.73 522.923 6390.81 531.673 Q6422.89 540.099 6454.33 540.099 Q6496.46 540.099 6519.14 525.84 Q6541.83 511.257 6541.83 485.007 Q6541.83 460.701 6525.3 447.738 Q6509.1 434.775 6453.68 422.785 L6432.94 417.924 Q6377.52 406.257 6352.89 382.276 Q6328.26 357.97 6328.26 315.841 Q6328.26 264.637 6364.56 236.767 Q6400.86 208.897 6467.62 208.897 Q6500.67 208.897 6529.84 213.758 Q6559 218.619 6583.63 228.341 Z" fill="#000000" fill-rule="evenodd" fill-opacity="1" /><path clip-path="url(#clip820)" d="M 0 0 M6665.62 217.647 L6725.25 217.647 L6725.25 580.608 L6665.62 580.608 L6665.62 217.647 M6665.62 76.3514 L6725.25 76.3514 L6725.25 151.86 L6665.62 151.86 L6665.62 76.3514 Z" fill="#000000" fill-rule="evenodd" fill-opacity="1" /><path clip-path="url(#clip820)" d="M 0 0 M6846.78 114.592 L6846.78 217.647 L6969.6 217.647 L6969.6 263.989 L6846.78 263.989 L6846.78 461.025 Q6846.78 505.423 6858.77 518.062 Q6871.09 530.701 6908.35 530.701 L6969.6 530.701 L6969.6 580.608 L6908.35 580.608 Q6839.33 580.608 6813.08 555.006 Q6786.83 529.08 6786.83 461.025 L6786.83 263.989 L6743.08 263.989 L6743.08 217.647 L6786.83 217.647 L6786.83 114.592 L6846.78 114.592 Z" fill="#000000" fill-rule="evenodd" fill-opacity="1" /><path clip-path="url(#clip820)" d="M 0 0 M7342.61 384.22 L7342.61 413.387 L7068.45 413.387 Q7072.33 474.96 7105.39 507.368 Q7138.77 539.451 7198.07 539.451 Q7232.43 539.451 7264.51 531.025 Q7296.92 522.599 7328.68 505.747 L7328.68 562.136 Q7296.59 575.747 7262.89 582.877 Q7229.19 590.006 7194.51 590.006 Q7107.66 590.006 7056.78 539.451 Q7006.22 488.896 7006.22 402.692 Q7006.22 313.572 7054.19 261.397 Q7102.47 208.897 7184.14 208.897 Q7257.38 208.897 7299.83 256.212 Q7342.61 303.202 7342.61 384.22 M7282.98 366.72 Q7282.33 317.785 7255.44 288.619 Q7228.86 259.452 7184.79 259.452 Q7134.88 259.452 7104.74 287.647 Q7074.93 315.841 7070.39 367.044 L7282.98 366.72 Z" fill="#000000" fill-rule="evenodd" fill-opacity="1" /><path clip-path="url(#clip820)" d="M 0 0 M7631.36 498.294 L7699.74 498.294 L7699.74 580.608 L7631.36 580.608 L7631.36 498.294 M7631.36 237.415 L7699.74 237.415 L7699.74 319.73 L7631.36 319.73 L7631.36 237.415 Z" fill="#000000" fill-rule="evenodd" fill-opacity="1" /><path clip-path="url(#clip820)" d="M 0 0 M8121.68 350.841 Q8075.01 350.841 8048.12 375.794 Q8021.54 400.748 8021.54 444.498 Q8021.54 488.247 8048.12 513.201 Q8075.01 538.155 8121.68 538.155 Q8168.35 538.155 8195.25 513.201 Q8222.14 487.923 8222.14 444.498 Q8222.14 400.748 8195.25 375.794 Q8168.67 350.841 8121.68 350.841 M8056.22 322.97 Q8014.09 312.6 7990.43 283.758 Q7967.1 254.915 7967.1 213.434 Q7967.1 155.425 8008.26 121.722 Q8049.74 88.018 8121.68 88.018 Q8193.95 88.018 8235.11 121.722 Q8276.26 155.425 8276.26 213.434 Q8276.26 254.915 8252.61 283.758 Q8229.27 312.6 8187.47 322.97 Q8234.78 333.989 8261.03 366.072 Q8287.61 398.155 8287.61 444.498 Q8287.61 514.821 8244.5 552.414 Q8201.73 590.006 8121.68 590.006 Q8041.63 590.006 7998.53 552.414 Q7955.76 514.821 7955.76 444.498 Q7955.76 398.155 7982.33 366.072 Q8008.9 333.989 8056.22 322.97 M8032.24 219.591 Q8032.24 257.184 8055.57 278.249 Q8079.23 299.313 8121.68 299.313 Q8163.81 299.313 8187.47 278.249 Q8211.45 257.184 8211.45 219.591 Q8211.45 181.999 8187.47 160.934 Q8163.81 139.87 8121.68 139.87 Q8079.23 139.87 8055.57 160.934 Q8032.24 181.999 8032.24 219.591 Z" fill="#000000" fill-rule="evenodd" fill-opacity="1" /><path clip-path="url(#clip820)" d="M 0 0 M8810.66 176.49 L8694.32 239.36 L8810.66 302.554 L8791.86 334.313 L8682.97 268.526 L8682.97 390.702 L8646.03 390.702 L8646.03 268.526 L8537.14 334.313 L8518.35 302.554 L8634.69 239.36 L8518.35 176.49 L8537.14 144.407 L8646.03 210.193 L8646.03 88.018 L8682.97 88.018 L8682.97 210.193 L8791.86 144.407 L8810.66 176.49 Z" fill="#000000" fill-rule="evenodd" fill-opacity="1" /><path clip-path="url(#clip820)" d="M 0 0 M9232.6 350.841 Q9185.93 350.841 9159.04 375.794 Q9132.46 400.748 9132.46 444.498 Q9132.46 488.247 9159.04 513.201 Q9185.93 538.155 9232.6 538.155 Q9279.27 538.155 9306.17 513.201 Q9333.06 487.923 9333.06 444.498 Q9333.06 400.748 9306.17 375.794 Q9279.59 350.841 9232.6 350.841 M9167.14 322.97 Q9125.01 312.6 9101.35 283.758 Q9078.02 254.915 9078.02 213.434 Q9078.02 155.425 9119.18 121.722 Q9160.66 88.018 9232.6 88.018 Q9304.87 88.018 9346.03 121.722 Q9387.18 155.425 9387.18 213.434 Q9387.18 254.915 9363.53 283.758 Q9340.19 312.6 9298.39 322.97 Q9345.7 333.989 9371.95 366.072 Q9398.53 398.155 9398.53 444.498 Q9398.53 514.821 9355.42 552.414 Q9312.65 590.006 9232.6 590.006 Q9152.55 590.006 9109.45 552.414 Q9066.68 514.821 9066.68 444.498 Q9066.68 398.155 9093.25 366.072 Q9119.82 333.989 9167.14 322.97 M9143.16 219.591 Q9143.16 257.184 9166.49 278.249 Q9190.15 299.313 9232.6 299.313 Q9274.73 299.313 9298.39 278.249 Q9322.37 257.184 9322.37 219.591 Q9322.37 181.999 9298.39 160.934 Q9274.73 139.87 9232.6 139.87 Q9190.15 139.87 9166.49 160.934 Q9143.16 181.999 9143.16 219.591 Z" fill="#000000" fill-rule="evenodd" fill-opacity="1" /><path clip-path="url(#clip820)" d="M 0 0 M9476.3 498.294 L9544.68 498.294 L9544.68 554.034 L9491.53 657.737 L9449.73 657.737 L9476.3 554.034 L9476.3 498.294 Z" fill="#000000" fill-rule="evenodd" fill-opacity="1" /><path clip-path="url(#clip820)" d="M 0 0 M10017.2 141.166 Q9945.88 141.166 9903.75 194.314 Q9861.95 247.462 9861.95 339.174 Q9861.95 430.563 9903.75 483.71 Q9945.88 536.858 10017.2 536.858 Q10088.5 536.858 10130 483.71 Q10171.8 430.563 10171.8 339.174 Q10171.8 247.462 10130 194.314 Q10088.5 141.166 10017.2 141.166 M10108.9 571.858 L10195.1 666.163 L10116 666.163 L10044.4 588.71 Q10033.7 589.358 10027.9 589.682 Q10022.4 590.006 10017.2 590.006 Q9915.1 590.006 9853.85 521.951 Q9792.92 453.572 9792.92 339.174 Q9792.92 224.453 9853.85 156.397 Q9915.1 88.018 10017.2 88.018 Q10118.9 88.018 10179.9 156.397 Q10240.8 224.453 10240.8 339.174 Q10240.8 423.433 10206.8 483.386 Q10173.1 543.34 10108.9 571.858 Z" fill="#000000" fill-rule="evenodd" fill-opacity="1" /><path clip-path="url(#clip820)" d="M 0 0 M10522.1 279.221 L10937.5 279.221 L10937.5 333.665 L10522.1 333.665 L10522.1 279.221 M10522.1 411.442 L10937.5 411.442 L10937.5 466.535 L10522.1 466.535 L10522.1 411.442 Z" fill="#000000" fill-rule="evenodd" fill-opacity="1" /><path clip-path="url(#clip820)" d="M 0 0 M11230.8 525.516 L11337.8 525.516 L11337.8 156.397 L11221.4 179.731 L11221.4 120.101 L11337.1 96.768 L11402.6 96.768 L11402.6 525.516 L11509.5 525.516 L11509.5 580.608 L11230.8 580.608 L11230.8 525.516 Z" fill="#000000" fill-rule="evenodd" fill-opacity="1" /><path clip-path="url(#clip820)" d="M 0 0 M11728.6 312.6 Q11684.5 312.6 11658.6 342.739 Q11633 372.878 11633 425.377 Q11633 477.553 11658.6 508.016 Q11684.5 538.155 11728.6 538.155 Q11772.7 538.155 11798.3 508.016 Q11824.2 477.553 11824.2 425.377 Q11824.2 372.878 11798.3 342.739 Q11772.7 312.6 11728.6 312.6 M11858.6 107.462 L11858.6 167.092 Q11833.9 155.425 11808.7 149.268 Q11783.7 143.11 11759.1 143.11 Q11694.3 143.11 11659.9 186.86 Q11625.9 230.61 11621 319.082 Q11640.1 290.887 11669 275.98 Q11697.8 260.749 11732.5 260.749 Q11805.4 260.749 11847.5 305.147 Q11890 349.22 11890 425.377 Q11890 499.914 11845.9 544.96 Q11801.8 590.006 11728.6 590.006 Q11644.7 590.006 11600.3 525.84 Q11555.9 461.349 11555.9 339.174 Q11555.9 224.453 11610.3 156.397 Q11664.8 88.018 11756.5 88.018 Q11781.1 88.018 11806.1 92.8791 Q11831.3 97.7402 11858.6 107.462 Z" fill="#000000" fill-rule="evenodd" fill-opacity="1" /><path clip-path="url(#clip820)" d="M 0 0 M11967.8 498.294 L12036.2 498.294 L12036.2 554.034 L11983 657.737 L11941.2 657.737 L11967.8 554.034 L11967.8 498.294 Z" fill="#000000" fill-rule="evenodd" fill-opacity="1" /><path clip-path="url(#clip820)" d="M 0 0 M12312.3 96.768 L12377.7 96.768 L12377.7 546.904 Q12377.7 634.404 12344.3 673.941 Q12311.3 713.478 12237.7 713.478 L12212.8 713.478 L12212.8 658.385 L12233.2 658.385 Q12276.6 658.385 12294.4 634.08 Q12312.3 609.775 12312.3 546.904 L12312.3 96.768 Z" fill="#000000" fill-rule="evenodd" fill-opacity="1" /><path clip-path="url(#clip820)" d="M 0 0 M12716.1 690.793 L12716.1 737.135 L12371.2 737.135 L12371.2 690.793 L12716.1 690.793 Z" fill="#000000" fill-rule="evenodd" fill-opacity="1" /><path clip-path="url(#clip820)" d="M 0 0 M12927 139.87 Q12876.5 139.87 12850.9 189.777 Q12825.6 239.36 12825.6 339.174 Q12825.6 438.664 12850.9 488.571 Q12876.5 538.155 12927 538.155 Q12977.9 538.155 13003.2 488.571 Q13028.8 438.664 13028.8 339.174 Q13028.8 239.36 13003.2 189.777 Q12977.9 139.87 12927 139.87 M12927 88.018 Q13008.4 88.018 13051.1 152.508 Q13094.2 216.675 13094.2 339.174 Q13094.2 461.349 13051.1 525.84 Q13008.4 590.006 12927 590.006 Q12845.7 590.006 12802.6 525.84 Q12759.8 461.349 12759.8 339.174 Q12759.8 216.675 12802.6 152.508 Q12845.7 88.018 12927 88.018 Z" fill="#000000" fill-rule="evenodd" fill-opacity="1" /><path clip-path="url(#clip820)" d="M 0 0 M13375.5 279.221 L13791 279.221 L13791 333.665 L13375.5 333.665 L13375.5 279.221 M13375.5 411.442 L13791 411.442 L13791 466.535 L13375.5 466.535 L13375.5 411.442 Z" fill="#000000" fill-rule="evenodd" fill-opacity="1" /><path clip-path="url(#clip820)" d="M 0 0 M14084.3 525.516 L14191.2 525.516 L14191.2 156.397 L14074.9 179.731 L14074.9 120.101 L14190.6 96.768 L14256 96.768 L14256 525.516 L14363 525.516 L14363 580.608 L14084.3 580.608 L14084.3 525.516 Z" fill="#000000" fill-rule="evenodd" fill-opacity="1" /><path clip-path="url(#clip820)" d="M 0 0 M14434 498.294 L14502.3 498.294 L14502.3 580.608 L14434 580.608 L14434 498.294 Z" fill="#000000" fill-rule="evenodd" fill-opacity="1" /><path clip-path="url(#clip820)" d="M 0 0 M14713.3 139.87 Q14662.8 139.87 14637.2 189.777 Q14611.9 239.36 14611.9 339.174 Q14611.9 438.664 14637.2 488.571 Q14662.8 538.155 14713.3 538.155 Q14764.2 538.155 14789.5 488.571 Q14815.1 438.664 14815.1 339.174 Q14815.1 239.36 14789.5 189.777 Q14764.2 139.87 14713.3 139.87 M14713.3 88.018 Q14794.7 88.018 14837.4 152.508 Q14880.5 216.675 14880.5 339.174 Q14880.5 461.349 14837.4 525.84 Q14794.7 590.006 14713.3 590.006 Q14632 590.006 14588.9 525.84 Q14546.1 461.349 14546.1 339.174 Q14546.1 216.675 14588.9 152.508 Q14632 88.018 14713.3 88.018 Z" fill="#000000" fill-rule="evenodd" fill-opacity="1" /><path clip-path="url(#clip820)" d="M 0 0 M10060.1 12068.2 L10381.7 12068.2 L10381.7 12111.5 L10246.7 12111.5 L10246.7 12448.4 L10195 12448.4 L10195 12111.5 L10060.1 12111.5 L10060.1 12068.2 Z" fill="#000000" fill-rule="evenodd" fill-opacity="1" /><path clip-path="url(#clip820)" d="M 0 0 M353.156 6579.88 L407.391 6579.88 Q383.202 6605.85 371.234 6635.39 Q359.267 6664.67 359.267 6697.77 Q359.267 6762.96 399.243 6797.59 Q438.965 6832.22 514.335 6832.22 Q589.451 6832.22 629.427 6797.59 Q669.149 6762.96 669.149 6697.77 Q669.149 6664.67 657.182 6635.39 Q645.214 6605.85 621.024 6579.88 L674.751 6579.88 Q693.084 6606.87 702.251 6637.17 Q711.417 6667.22 711.417 6700.83 Q711.417 6787.15 658.709 6836.8 Q605.747 6886.45 514.335 6886.45 Q422.669 6886.45 369.961 6836.8 Q316.998 6787.15 316.998 6700.83 Q316.998 6666.71 326.165 6636.66 Q335.077 6606.36 353.156 6579.88 Z" fill="#000000" fill-rule="evenodd" fill-opacity="1" /><path clip-path="url(#clip820)" d="M 0 0 M790.607 6314.05 L827.019 6314.05 L827.019 6584.97 L790.607 6584.97 L790.607 6314.05 Z" fill="#000000" fill-rule="evenodd" fill-opacity="1" /><path clip-path="url(#clip820)" d="M 0 0 M427.252 6083.1 L471.558 6083.1 Q461.373 6102.96 456.28 6124.35 Q451.187 6145.74 451.187 6168.66 Q451.187 6203.54 461.882 6221.11 Q472.576 6238.42 493.965 6238.42 Q510.261 6238.42 519.682 6225.95 Q528.849 6213.47 537.252 6175.79 L540.817 6159.74 Q551.511 6109.84 571.117 6088.96 Q590.469 6067.82 625.353 6067.82 Q665.075 6067.82 688.246 6099.4 Q711.417 6130.72 711.417 6185.72 Q711.417 6208.63 706.834 6233.59 Q702.505 6258.29 693.594 6285.79 L645.214 6285.79 Q658.709 6259.81 665.584 6234.61 Q672.205 6209.4 672.205 6184.7 Q672.205 6151.6 661.001 6133.77 Q649.543 6115.95 628.918 6115.95 Q609.821 6115.95 599.636 6128.93 Q589.451 6141.67 580.029 6185.21 L576.21 6201.5 Q567.043 6245.05 548.201 6264.4 Q529.104 6283.75 496.002 6283.75 Q455.771 6283.75 433.873 6255.23 Q411.975 6226.71 411.975 6174.26 Q411.975 6148.29 415.794 6125.37 Q419.613 6102.45 427.252 6083.1 Z" fill="#000000" fill-rule="evenodd" fill-opacity="1" /><path clip-path="url(#clip820)" d="M 0 0 M418.85 6018.68 L418.85 5971.83 L704.033 5971.83 L704.033 6018.68 L418.85 6018.68 M307.832 6018.68 L307.832 5971.83 L367.16 5971.83 L367.16 6018.68 L307.832 6018.68 Z" fill="#000000" fill-rule="evenodd" fill-opacity="1" /><path clip-path="url(#clip820)" d="M 0 0 M337.878 5876.34 L418.85 5876.34 L418.85 5779.84 L455.261 5779.84 L455.261 5876.34 L610.075 5876.34 Q644.96 5876.34 654.89 5866.92 Q664.821 5857.25 664.821 5827.96 L664.821 5779.84 L704.033 5779.84 L704.033 5827.96 Q704.033 5882.2 683.918 5902.82 Q663.547 5923.45 610.075 5923.45 L455.261 5923.45 L455.261 5957.82 L418.85 5957.82 L418.85 5923.45 L337.878 5923.45 L337.878 5876.34 Z" fill="#000000" fill-rule="evenodd" fill-opacity="1" /><path clip-path="url(#clip820)" d="M 0 0 M549.729 5486.76 L572.645 5486.76 L572.645 5702.18 Q621.024 5699.12 646.487 5673.15 Q671.695 5646.92 671.695 5600.33 Q671.695 5573.34 665.075 5548.13 Q658.455 5522.66 645.214 5497.71 L689.519 5497.71 Q700.214 5522.92 705.816 5549.4 Q711.417 5575.88 711.417 5603.13 Q711.417 5671.37 671.695 5711.34 Q631.973 5751.07 564.242 5751.07 Q494.22 5751.07 453.224 5713.38 Q411.975 5675.44 411.975 5611.28 Q411.975 5553.73 449.15 5520.37 Q486.071 5486.76 549.729 5486.76 M535.979 5533.61 Q497.53 5534.12 474.613 5555.26 Q451.697 5576.14 451.697 5610.77 Q451.697 5649.98 473.849 5673.66 Q496.002 5697.09 536.233 5700.65 L535.979 5533.61 Z" fill="#000000" fill-rule="evenodd" fill-opacity="1" /><polyline clip-path="url(#clip822)" style="stroke:#009af9; stroke-width:32; stroke-opacity:1; fill:none" points="
  2106.53,11091.2 2437.73,11090.3 2768.93,11089.2 3100.12,11087.1 3431.32,11084.7 3762.52,11083.3 4093.71,11078.9 4424.91,11074.2 4756.11,11069.5 5087.3,11060.5 
  5418.5,11051.1 5749.7,11042.8 6080.9,11028.1 6412.09,11009.5 6743.29,10987.2 7074.49,10964.6 7405.68,10929.2 7736.88,10892.3 8068.08,10841 8399.28,10766.7 
  8730.47,10643.5 9061.67,10372.7 9392.87,9678.48 9724.06,2461.57 10055.3,2348.33 10386.5,8492.63 10717.7,10337.8 11048.9,10671.8 11380,10745 11711.2,10789.3 
  12042.4,10827.4 12373.6,10852.9 12704.8,10877.1 13036,10894 13367.2,10913 13698.4,10927.6 14029.6,10937.7 14360.8,10948.5 14692,10958.8 15023.2,10967.8 
  15354.4,10974 15685.6,10981.9 16016.8,10988.2 16348,10993.8 16679.2,10999.4 17010.4,11004 17341.6,11008.4 17672.8,11012.5 18004,11016.4 18335.2,11020.1 
  
  "/>
<polyline clip-path="url(#clip822)" style="stroke:#e26f46; stroke-width:32; stroke-opacity:1; fill:none" points="
  2106.53,11089.6 2437.73,11089.1 2768.93,11086.5 3100.12,11085.2 3431.32,11081.2 3762.52,11078.1 4093.71,11074.1 4424.91,11067.7 4756.11,11058.7 5087.3,11047.9 
  5418.5,11038.9 5749.7,11022.3 6080.9,11005.7 6412.09,10980.6 6743.29,10960.5 7074.49,10922.4 7405.68,10874 7736.88,10820.6 8068.08,10745 8399.28,10600.7 
  8730.47,9878.47 9061.67,5167.14 9392.87,1282.05 9724.06,7616.26 10055.3,10031.4 10386.5,10534.4 10717.7,10670.4 11048.9,10743.9 11380,10797.8 11711.2,10827.8 
  12042.4,10858.2 12373.6,10878.8 12704.8,10895.9 13036,10914.7 13367.2,10925.8 13698.4,10940.4 14029.6,10949.7 14360.8,10959.9 14692,10968.6 15023.2,10975.3 
  15354.4,10983.5 15685.6,10988.9 16016.8,10994.4 16348,10999.3 16679.2,11003.9 17010.4,11008.5 17341.6,11012.7 17672.8,11016.7 18004,11019.6 18335.2,11023.2 
  
  "/>
<polyline clip-path="url(#clip822)" style="stroke:#3da44d; stroke-width:32; stroke-opacity:1; fill:none" points="
  2106.53,11075.1 2437.73,11069.9 2768.93,11063.5 3100.12,11055.6 3431.32,11048.9 3762.52,11038.3 4093.71,11025.5 4424.91,11008.8 4756.11,10989.7 5087.3,10969.1 
  5418.5,10849.7 5749.7,10803.1 6080.9,10734 6412.09,10661.9 6743.29,10574.9 7074.49,10428.4 7405.68,10322.1 7736.88,10068.4 8068.08,9785.3 8399.28,9171.78 
  8730.47,8212.57 9061.67,7681.64 9392.87,8408.11 9724.06,9439.79 10055.3,10026.4 10386.5,10386 10717.7,10566.8 11048.9,10682.5 11380,10734.7 11711.2,10785.5 
  12042.4,10815.5 12373.6,10848.2 12704.8,10866.5 13036,10885.9 13367.2,10903.4 13698.4,10917 14029.6,10929.7 14360.8,10940.7 14692,10949.8 15023.2,10959.1 
  15354.4,10966.2 15685.6,10974.5 16016.8,10980.4 16348,10985.9 16679.2,10990.9 17010.4,10996.2 17341.6,11000.9 17672.8,11005.5 18004,11009 18335.2,11012.8 
  
  "/>
<polyline clip-path="url(#clip822)" style="stroke:#c271d2; stroke-width:32; stroke-opacity:1; fill:none" points="
  2106.53,10833.2 2437.73,10846.9 2768.93,10864.2 3100.12,10880.2 3431.32,10898.5 3762.52,10904.2 4093.71,10915.9 4424.91,10913.7 4756.11,10909 5087.3,10904.7 
  5418.5,10896 5749.7,10887.1 6080.9,10866.9 6412.09,10845.9 6743.29,10819.8 7074.49,10789.4 7405.68,10744.7 7736.88,10700.8 8068.08,10628.9 8399.28,10561.1 
  8730.47,10455.1 9061.67,10289.4 9392.87,10074.8 9724.06,9848.45 10055.3,9505.38 10386.5,9432.87 10717.7,9593.13 11048.9,9805.57 11380,10104.1 11711.2,10311.3 
  12042.4,10487.1 12373.6,10593.1 12704.8,10670.3 13036,10727.1 13367.2,10770.7 13698.4,10805.9 14029.6,10831.8 14360.8,10855.2 14692,10874.9 15023.2,10891.1 
  15354.4,10904.7 15685.6,10916.6 16016.8,10927.5 16348,10938 16679.2,10946.1 17010.4,10954.5 17341.6,10961.2 17672.8,10966.8 18004,10974.3 18335.2,10979.5 
  
  "/>
<polyline clip-path="url(#clip822)" style="stroke:#ac8d18; stroke-width:32; stroke-opacity:1; fill:none" points="
  2106.53,11059 2437.73,11055.7 2768.93,11051.4 3100.12,11046.8 3431.32,11043.4 3762.52,11038.5 4093.71,11033.6 4424.91,11027.7 4756.11,11021.9 5087.3,11012.1 
  5418.5,11004.4 5749.7,10994.3 6080.9,10986.9 6412.09,10972.7 6743.29,10959 7074.49,10944.7 7405.68,10926 7736.88,10906.4 8068.08,10884.9 8399.28,10863.5 
  8730.47,10830.3 9061.67,10796.6 9392.87,10759 9724.06,10705.9 10055.3,10641.2 10386.5,10575.5 10717.7,10496.3 11048.9,10374.4 11380,10232.3 11711.2,10085.6 
  12042.4,9924.86 12373.6,9839.75 12704.8,9834.04 13036,9919.36 13367.2,10026.3 13698.4,10180.6 14029.6,10346.1 14360.8,10446.8 14692,10547.1 15023.2,10622.2 
  15354.4,10682.5 15685.6,10726.4 16016.8,10762 16348,10794.2 16679.2,10819.5 17010.4,10835.9 17341.6,10855.3 17672.8,10869.7 18004,10886.4 18335.2,10897.8 
  
  "/>
<polyline clip-path="url(#clip822)" style="stroke:#00a9ad; stroke-width:32; stroke-opacity:1; fill:none" points="
  2106.53,10286.5 2437.73,10247.1 2768.93,10276.9 3100.12,10041.7 3431.32,9880.11 3762.52,9898.21 4093.71,9735.74 4424.91,9158.38 4756.11,9357.69 5087.3,8817.21 
  5418.5,8507.88 5749.7,7719.73 6080.9,6798.87 6412.09,6894.02 6743.29,5934.25 7074.49,5195.22 7405.68,5004.79 7736.88,5165.73 8068.08,5329.46 8399.28,5785.97 
  8730.47,6650.9 9061.67,7160.79 9392.87,8388.47 9724.06,8189.14 10055.3,8636.76 10386.5,9253.8 10717.7,9679.91 11048.9,9663.58 11380,9839.2 11711.2,9995.99 
  12042.4,10230.3 12373.6,10209 12704.8,10361.7 13036,10449.2 13367.2,10427.1 13698.4,10536.3 14029.6,10557.7 14360.8,10570.5 14692,10603.7 15023.2,10616.6 
  15354.4,10647 15685.6,10653.7 16016.8,10676.1 16348,10702.1 16679.2,10720.9 17010.4,10728.4 17341.6,10742.4 17672.8,10749.3 18004,10763.5 18335.2,10778.1 
  
  "/>
<path clip-path="url(#clip820)" d="
M2193.08 4237.41 L7611.58 4237.41 L7611.58 850.526 L2193.08 850.526  Z
  " fill="#ffffff" fill-rule="evenodd" fill-opacity="1"/>
<polyline clip-path="url(#clip820)" style="stroke:#000000; stroke-width:32; stroke-opacity:1; fill:none" points="
  2193.08,4237.41 7611.58,4237.41 7611.58,850.526 2193.08,850.526 2193.08,4237.41 
  "/>
<polyline clip-path="url(#clip820)" style="stroke:#009af9; stroke-width:32; stroke-opacity:1; fill:none" points="
  2385.08,1334.37 3537.08,1334.37 
  "/>
<path clip-path="url(#clip820)" d="M 0 0 M3785.94 1196.13 L3823.34 1196.13 L3823.34 1453.35 Q3823.34 1503.35 3804.27 1525.94 Q3785.38 1548.53 3743.34 1548.53 L3729.08 1548.53 L3729.08 1517.05 L3740.75 1517.05 Q3765.57 1517.05 3775.75 1503.16 Q3785.94 1489.27 3785.94 1453.35 L3785.94 1196.13 Z" fill="#000000" fill-rule="evenodd" fill-opacity="1" /><path clip-path="url(#clip820)" d="M 0 0 M3870.38 1441.12 L3931.49 1441.12 L3931.49 1230.2 L3865.01 1243.53 L3865.01 1209.46 L3931.12 1196.13 L3968.53 1196.13 L3968.53 1441.12 L4029.64 1441.12 L4029.64 1472.61 L3870.38 1472.61 L3870.38 1441.12 Z" fill="#000000" fill-rule="evenodd" fill-opacity="1" /><path clip-path="url(#clip820)" d="M 0 0 M4190.38 1300.38 L4427.78 1300.38 L4427.78 1331.5 L4190.38 1331.5 L4190.38 1300.38 M4190.38 1375.94 L4427.78 1375.94 L4427.78 1407.42 L4190.38 1407.42 L4190.38 1375.94 Z" fill="#000000" fill-rule="evenodd" fill-opacity="1" /><path clip-path="url(#clip820)" d="M 0 0 M4668.89 1220.76 Q4640.01 1220.76 4625.38 1249.27 Q4610.93 1277.61 4610.93 1334.64 Q4610.93 1391.5 4625.38 1420.01 Q4640.01 1448.35 4668.89 1448.35 Q4697.97 1448.35 4712.41 1420.01 Q4727.04 1391.5 4727.04 1334.64 Q4727.04 1277.61 4712.41 1249.27 Q4697.97 1220.76 4668.89 1220.76 M4668.89 1191.13 Q4715.38 1191.13 4739.82 1227.98 Q4764.45 1264.64 4764.45 1334.64 Q4764.45 1404.46 4739.82 1441.31 Q4715.38 1477.98 4668.89 1477.98 Q4622.41 1477.98 4597.78 1441.31 Q4573.34 1404.46 4573.34 1334.64 Q4573.34 1264.64 4597.78 1227.98 Q4622.41 1191.13 4668.89 1191.13 Z" fill="#000000" fill-rule="evenodd" fill-opacity="1" /><path clip-path="url(#clip820)" d="M 0 0 M4805 1425.57 L4844.08 1425.57 L4844.08 1472.61 L4805 1472.61 L4805 1425.57 Z" fill="#000000" fill-rule="evenodd" fill-opacity="1" /><path clip-path="url(#clip820)" d="M 0 0 M4964.63 1220.76 Q4935.74 1220.76 4921.11 1249.27 Q4906.67 1277.61 4906.67 1334.64 Q4906.67 1391.5 4921.11 1420.01 Q4935.74 1448.35 4964.63 1448.35 Q4993.71 1448.35 5008.15 1420.01 Q5022.78 1391.5 5022.78 1334.64 Q5022.78 1277.61 5008.15 1249.27 Q4993.71 1220.76 4964.63 1220.76 M4964.63 1191.13 Q5011.11 1191.13 5035.56 1227.98 Q5060.19 1264.64 5060.19 1334.64 Q5060.19 1404.46 5035.56 1441.31 Q5011.11 1477.98 4964.63 1477.98 Q4918.15 1477.98 4893.52 1441.31 Q4869.08 1404.46 4869.08 1334.64 Q4869.08 1264.64 4893.52 1227.98 Q4918.15 1191.13 4964.63 1191.13 Z" fill="#000000" fill-rule="evenodd" fill-opacity="1" /><polyline clip-path="url(#clip820)" style="stroke:#e26f46; stroke-width:32; stroke-opacity:1; fill:none" points="
  2385.08,1818.21 3537.08,1818.21 
  "/>
<path clip-path="url(#clip820)" d="M 0 0 M3785.94 1679.97 L3823.34 1679.97 L3823.34 1937.19 Q3823.34 1987.19 3804.27 2009.78 Q3785.38 2032.37 3743.34 2032.37 L3729.08 2032.37 L3729.08 2000.89 L3740.75 2000.89 Q3765.57 2000.89 3775.75 1987 Q3785.94 1973.11 3785.94 1937.19 L3785.94 1679.97 Z" fill="#000000" fill-rule="evenodd" fill-opacity="1" /><path clip-path="url(#clip820)" d="M 0 0 M3870.38 1924.96 L3931.49 1924.96 L3931.49 1714.04 L3865.01 1727.37 L3865.01 1693.3 L3931.12 1679.97 L3968.53 1679.97 L3968.53 1924.96 L4029.64 1924.96 L4029.64 1956.45 L3870.38 1956.45 L3870.38 1924.96 Z" fill="#000000" fill-rule="evenodd" fill-opacity="1" /><path clip-path="url(#clip820)" d="M 0 0 M4190.38 1784.22 L4427.78 1784.22 L4427.78 1815.34 L4190.38 1815.34 L4190.38 1784.22 M4190.38 1859.78 L4427.78 1859.78 L4427.78 1891.26 L4190.38 1891.26 L4190.38 1859.78 Z" fill="#000000" fill-rule="evenodd" fill-opacity="1" /><path clip-path="url(#clip820)" d="M 0 0 M4668.89 1704.6 Q4640.01 1704.6 4625.38 1733.11 Q4610.93 1761.45 4610.93 1818.48 Q4610.93 1875.34 4625.38 1903.85 Q4640.01 1932.19 4668.89 1932.19 Q4697.97 1932.19 4712.41 1903.85 Q4727.04 1875.34 4727.04 1818.48 Q4727.04 1761.45 4712.41 1733.11 Q4697.97 1704.6 4668.89 1704.6 M4668.89 1674.97 Q4715.38 1674.97 4739.82 1711.82 Q4764.45 1748.48 4764.45 1818.48 Q4764.45 1888.3 4739.82 1925.15 Q4715.38 1961.82 4668.89 1961.82 Q4622.41 1961.82 4597.78 1925.15 Q4573.34 1888.3 4573.34 1818.48 Q4573.34 1748.48 4597.78 1711.82 Q4622.41 1674.97 4668.89 1674.97 Z" fill="#000000" fill-rule="evenodd" fill-opacity="1" /><path clip-path="url(#clip820)" d="M 0 0 M4805 1909.41 L4844.08 1909.41 L4844.08 1956.45 L4805 1956.45 L4805 1909.41 Z" fill="#000000" fill-rule="evenodd" fill-opacity="1" /><path clip-path="url(#clip820)" d="M 0 0 M4916.86 1924.96 L5047.41 1924.96 L5047.41 1956.45 L4871.86 1956.45 L4871.86 1924.96 Q4893.15 1902.93 4929.82 1865.89 Q4966.67 1828.67 4976.11 1817.93 Q4994.08 1797.74 5001.11 1783.85 Q5008.34 1769.78 5008.34 1756.26 Q5008.34 1734.22 4992.78 1720.34 Q4977.41 1706.45 4952.6 1706.45 Q4935 1706.45 4915.37 1712.56 Q4895.93 1718.67 4873.71 1731.08 L4873.71 1693.3 Q4896.3 1684.22 4915.93 1679.6 Q4935.56 1674.97 4951.86 1674.97 Q4994.82 1674.97 5020.37 1696.45 Q5045.93 1717.93 5045.93 1753.85 Q5045.93 1770.89 5039.45 1786.26 Q5033.15 1801.45 5016.3 1822.19 Q5011.67 1827.56 4986.86 1853.3 Q4962.04 1878.85 4916.86 1924.96 Z" fill="#000000" fill-rule="evenodd" fill-opacity="1" /><path clip-path="url(#clip820)" d="M 0 0 M5088.34 1679.97 L5235.19 1679.97 L5235.19 1711.45 L5122.6 1711.45 L5122.6 1779.22 Q5130.74 1776.45 5138.89 1775.15 Q5147.04 1773.67 5155.19 1773.67 Q5201.48 1773.67 5228.52 1799.04 Q5255.56 1824.41 5255.56 1867.74 Q5255.56 1912.37 5227.78 1937.19 Q5200 1961.82 5149.45 1961.82 Q5132.04 1961.82 5113.89 1958.85 Q5095.93 1955.89 5076.67 1949.96 L5076.67 1912.37 Q5093.34 1921.45 5111.11 1925.89 Q5128.89 1930.33 5148.71 1930.33 Q5180.74 1930.33 5199.45 1913.48 Q5218.15 1896.63 5218.15 1867.74 Q5218.15 1838.85 5199.45 1822 Q5180.74 1805.15 5148.71 1805.15 Q5133.71 1805.15 5118.71 1808.48 Q5103.89 1811.82 5088.34 1818.85 L5088.34 1679.97 Z" fill="#000000" fill-rule="evenodd" fill-opacity="1" /><polyline clip-path="url(#clip820)" style="stroke:#3da44d; stroke-width:32; stroke-opacity:1; fill:none" points="
  2385.08,2302.05 3537.08,2302.05 
  "/>
<path clip-path="url(#clip820)" d="M 0 0 M3785.94 2163.81 L3823.34 2163.81 L3823.34 2421.03 Q3823.34 2471.03 3804.27 2493.62 Q3785.38 2516.21 3743.34 2516.21 L3729.08 2516.21 L3729.08 2484.73 L3740.75 2484.73 Q3765.57 2484.73 3775.75 2470.84 Q3785.94 2456.95 3785.94 2421.03 L3785.94 2163.81 Z" fill="#000000" fill-rule="evenodd" fill-opacity="1" /><path clip-path="url(#clip820)" d="M 0 0 M3870.38 2408.8 L3931.49 2408.8 L3931.49 2197.88 L3865.01 2211.21 L3865.01 2177.14 L3931.12 2163.81 L3968.53 2163.81 L3968.53 2408.8 L4029.64 2408.8 L4029.64 2440.29 L3870.38 2440.29 L3870.38 2408.8 Z" fill="#000000" fill-rule="evenodd" fill-opacity="1" /><path clip-path="url(#clip820)" d="M 0 0 M4190.38 2268.06 L4427.78 2268.06 L4427.78 2299.18 L4190.38 2299.18 L4190.38 2268.06 M4190.38 2343.62 L4427.78 2343.62 L4427.78 2375.1 L4190.38 2375.1 L4190.38 2343.62 Z" fill="#000000" fill-rule="evenodd" fill-opacity="1" /><path clip-path="url(#clip820)" d="M 0 0 M4668.89 2188.44 Q4640.01 2188.44 4625.38 2216.95 Q4610.93 2245.29 4610.93 2302.32 Q4610.93 2359.18 4625.38 2387.69 Q4640.01 2416.03 4668.89 2416.03 Q4697.97 2416.03 4712.41 2387.69 Q4727.04 2359.18 4727.04 2302.32 Q4727.04 2245.29 4712.41 2216.95 Q4697.97 2188.44 4668.89 2188.44 M4668.89 2158.81 Q4715.38 2158.81 4739.82 2195.66 Q4764.45 2232.32 4764.45 2302.32 Q4764.45 2372.14 4739.82 2408.99 Q4715.38 2445.66 4668.89 2445.66 Q4622.41 2445.66 4597.78 2408.99 Q4573.34 2372.14 4573.34 2302.32 Q4573.34 2232.32 4597.78 2195.66 Q4622.41 2158.81 4668.89 2158.81 Z" fill="#000000" fill-rule="evenodd" fill-opacity="1" /><path clip-path="url(#clip820)" d="M 0 0 M4805 2393.25 L4844.08 2393.25 L4844.08 2440.29 L4805 2440.29 L4805 2393.25 Z" fill="#000000" fill-rule="evenodd" fill-opacity="1" /><path clip-path="url(#clip820)" d="M 0 0 M4885 2163.81 L5031.85 2163.81 L5031.85 2195.29 L4919.26 2195.29 L4919.26 2263.06 Q4927.41 2260.29 4935.56 2258.99 Q4943.71 2257.51 4951.86 2257.51 Q4998.15 2257.51 5025.19 2282.88 Q5052.23 2308.25 5052.23 2351.58 Q5052.23 2396.21 5024.45 2421.03 Q4996.67 2445.66 4946.11 2445.66 Q4928.71 2445.66 4910.56 2442.69 Q4892.6 2439.73 4873.34 2433.8 L4873.34 2396.21 Q4890 2405.29 4907.78 2409.73 Q4925.56 2414.17 4945.37 2414.17 Q4977.41 2414.17 4996.11 2397.32 Q5014.82 2380.47 5014.82 2351.58 Q5014.82 2322.69 4996.11 2305.84 Q4977.41 2288.99 4945.37 2288.99 Q4930.37 2288.99 4915.37 2292.32 Q4900.56 2295.66 4885 2302.69 L4885 2163.81 Z" fill="#000000" fill-rule="evenodd" fill-opacity="1" /><polyline clip-path="url(#clip820)" style="stroke:#c271d2; stroke-width:32; stroke-opacity:1; fill:none" points="
  2385.08,2785.89 3537.08,2785.89 
  "/>
<path clip-path="url(#clip820)" d="M 0 0 M3785.94 2647.65 L3823.34 2647.65 L3823.34 2904.87 Q3823.34 2954.87 3804.27 2977.46 Q3785.38 3000.05 3743.34 3000.05 L3729.08 3000.05 L3729.08 2968.57 L3740.75 2968.57 Q3765.57 2968.57 3775.75 2954.68 Q3785.94 2940.79 3785.94 2904.87 L3785.94 2647.65 Z" fill="#000000" fill-rule="evenodd" fill-opacity="1" /><path clip-path="url(#clip820)" d="M 0 0 M3870.38 2892.64 L3931.49 2892.64 L3931.49 2681.72 L3865.01 2695.05 L3865.01 2660.98 L3931.12 2647.65 L3968.53 2647.65 L3968.53 2892.64 L4029.64 2892.64 L4029.64 2924.13 L3870.38 2924.13 L3870.38 2892.64 Z" fill="#000000" fill-rule="evenodd" fill-opacity="1" /><path clip-path="url(#clip820)" d="M 0 0 M4190.38 2751.9 L4427.78 2751.9 L4427.78 2783.02 L4190.38 2783.02 L4190.38 2751.9 M4190.38 2827.46 L4427.78 2827.46 L4427.78 2858.94 L4190.38 2858.94 L4190.38 2827.46 Z" fill="#000000" fill-rule="evenodd" fill-opacity="1" /><path clip-path="url(#clip820)" d="M 0 0 M4668.89 2672.28 Q4640.01 2672.28 4625.38 2700.79 Q4610.93 2729.13 4610.93 2786.16 Q4610.93 2843.02 4625.38 2871.53 Q4640.01 2899.87 4668.89 2899.87 Q4697.97 2899.87 4712.41 2871.53 Q4727.04 2843.02 4727.04 2786.16 Q4727.04 2729.13 4712.41 2700.79 Q4697.97 2672.28 4668.89 2672.28 M4668.89 2642.65 Q4715.38 2642.65 4739.82 2679.5 Q4764.45 2716.16 4764.45 2786.16 Q4764.45 2855.98 4739.82 2892.83 Q4715.38 2929.5 4668.89 2929.5 Q4622.41 2929.5 4597.78 2892.83 Q4573.34 2855.98 4573.34 2786.16 Q4573.34 2716.16 4597.78 2679.5 Q4622.41 2642.65 4668.89 2642.65 Z" fill="#000000" fill-rule="evenodd" fill-opacity="1" /><path clip-path="url(#clip820)" d="M 0 0 M4805 2877.09 L4844.08 2877.09 L4844.08 2924.13 L4805 2924.13 L4805 2877.09 Z" fill="#000000" fill-rule="evenodd" fill-opacity="1" /><path clip-path="url(#clip820)" d="M 0 0 M4875.19 2647.65 L5052.97 2647.65 L5052.97 2663.57 L4952.6 2924.13 L4913.52 2924.13 L5007.97 2679.13 L4875.19 2679.13 L4875.19 2647.65 Z" fill="#000000" fill-rule="evenodd" fill-opacity="1" /><path clip-path="url(#clip820)" d="M 0 0 M5093.89 2647.65 L5240.74 2647.65 L5240.74 2679.13 L5128.15 2679.13 L5128.15 2746.9 Q5136.3 2744.13 5144.45 2742.83 Q5152.6 2741.35 5160.74 2741.35 Q5207.04 2741.35 5234.08 2766.72 Q5261.11 2792.09 5261.11 2835.42 Q5261.11 2880.05 5233.34 2904.87 Q5205.56 2929.5 5155 2929.5 Q5137.6 2929.5 5119.45 2926.53 Q5101.48 2923.57 5082.23 2917.64 L5082.23 2880.05 Q5098.89 2889.13 5116.67 2893.57 Q5134.45 2898.01 5154.26 2898.01 Q5186.3 2898.01 5205 2881.16 Q5223.71 2864.31 5223.71 2835.42 Q5223.71 2806.53 5205 2789.68 Q5186.3 2772.83 5154.26 2772.83 Q5139.26 2772.83 5124.26 2776.16 Q5109.45 2779.5 5093.89 2786.53 L5093.89 2647.65 Z" fill="#000000" fill-rule="evenodd" fill-opacity="1" /><polyline clip-path="url(#clip820)" style="stroke:#ac8d18; stroke-width:32; stroke-opacity:1; fill:none" points="
  2385.08,3269.73 3537.08,3269.73 
  "/>
<path clip-path="url(#clip820)" d="M 0 0 M3785.94 3131.49 L3823.34 3131.49 L3823.34 3388.71 Q3823.34 3438.71 3804.27 3461.3 Q3785.38 3483.89 3743.34 3483.89 L3729.08 3483.89 L3729.08 3452.41 L3740.75 3452.41 Q3765.57 3452.41 3775.75 3438.52 Q3785.94 3424.63 3785.94 3388.71 L3785.94 3131.49 Z" fill="#000000" fill-rule="evenodd" fill-opacity="1" /><path clip-path="url(#clip820)" d="M 0 0 M3870.38 3376.48 L3931.49 3376.48 L3931.49 3165.56 L3865.01 3178.89 L3865.01 3144.82 L3931.12 3131.49 L3968.53 3131.49 L3968.53 3376.48 L4029.64 3376.48 L4029.64 3407.97 L3870.38 3407.97 L3870.38 3376.48 Z" fill="#000000" fill-rule="evenodd" fill-opacity="1" /><path clip-path="url(#clip820)" d="M 0 0 M4190.38 3235.74 L4427.78 3235.74 L4427.78 3266.86 L4190.38 3266.86 L4190.38 3235.74 M4190.38 3311.3 L4427.78 3311.3 L4427.78 3342.78 L4190.38 3342.78 L4190.38 3311.3 Z" fill="#000000" fill-rule="evenodd" fill-opacity="1" /><path clip-path="url(#clip820)" d="M 0 0 M4595.38 3376.48 L4656.49 3376.48 L4656.49 3165.56 L4590.01 3178.89 L4590.01 3144.82 L4656.12 3131.49 L4693.52 3131.49 L4693.52 3376.48 L4754.63 3376.48 L4754.63 3407.97 L4595.38 3407.97 L4595.38 3376.48 Z" fill="#000000" fill-rule="evenodd" fill-opacity="1" /><path clip-path="url(#clip820)" d="M 0 0 M4795.19 3360.93 L4834.26 3360.93 L4834.26 3407.97 L4795.19 3407.97 L4795.19 3360.93 Z" fill="#000000" fill-rule="evenodd" fill-opacity="1" /><path clip-path="url(#clip820)" d="M 0 0 M4954.82 3156.12 Q4925.93 3156.12 4911.3 3184.63 Q4896.86 3212.97 4896.86 3270 Q4896.86 3326.86 4911.3 3355.37 Q4925.93 3383.71 4954.82 3383.71 Q4983.89 3383.71 4998.34 3355.37 Q5012.97 3326.86 5012.97 3270 Q5012.97 3212.97 4998.34 3184.63 Q4983.89 3156.12 4954.82 3156.12 M4954.82 3126.49 Q5001.3 3126.49 5025.74 3163.34 Q5050.37 3200 5050.37 3270 Q5050.37 3339.82 5025.74 3376.67 Q5001.3 3413.34 4954.82 3413.34 Q4908.34 3413.34 4883.71 3376.67 Q4859.26 3339.82 4859.26 3270 Q4859.26 3200 4883.71 3163.34 Q4908.34 3126.49 4954.82 3126.49 Z" fill="#000000" fill-rule="evenodd" fill-opacity="1" /><polyline clip-path="url(#clip820)" style="stroke:#00a9ad; stroke-width:32; stroke-opacity:1; fill:none" points="
  2385.08,3753.57 3537.08,3753.57 
  "/>
<path clip-path="url(#clip820)" d="M 0 0 M3729.08 3615.33 L3784.82 3615.33 L3855.38 3803.47 L3926.31 3615.33 L3982.05 3615.33 L3982.05 3891.81 L3945.56 3891.81 L3945.56 3649.03 L3874.27 3838.66 L3836.68 3838.66 L3765.38 3649.03 L3765.38 3891.81 L3729.08 3891.81 L3729.08 3615.33 Z" fill="#000000" fill-rule="evenodd" fill-opacity="1" /><path clip-path="url(#clip820)" d="M 0 0 M4111.67 3652.18 L4060.93 3789.77 L4162.6 3789.77 L4111.67 3652.18 M4090.56 3615.33 L4132.97 3615.33 L4238.34 3891.81 L4199.45 3891.81 L4174.27 3820.88 L4049.64 3820.88 L4024.45 3891.81 L3985.01 3891.81 L4090.56 3615.33 Z" fill="#000000" fill-rule="evenodd" fill-opacity="1" /><path clip-path="url(#clip820)" d="M 0 0 M4262.23 3615.33 L4302.41 3615.33 L4371.12 3718.1 L4440.19 3615.33 L4480.38 3615.33 L4391.49 3748.1 L4486.3 3891.81 L4446.12 3891.81 L4368.34 3774.21 L4290.01 3891.81 L4249.64 3891.81 L4348.34 3744.21 L4262.23 3615.33 Z" fill="#000000" fill-rule="evenodd" fill-opacity="1" /><path clip-path="url(#clip820)" d="M 0 0 M4679.63 3954.77 L4679.63 3981.25 L4482.6 3981.25 L4482.6 3954.77 L4679.63 3954.77 Z" fill="#000000" fill-rule="evenodd" fill-opacity="1" /><path clip-path="url(#clip820)" d="M 0 0 M4847.97 3762.18 Q4860 3766.25 4871.3 3779.58 Q4882.78 3792.92 4894.26 3816.25 L4932.23 3891.81 L4892.04 3891.81 L4856.67 3820.88 Q4842.97 3793.1 4830 3784.03 Q4817.23 3774.95 4795 3774.95 L4754.26 3774.95 L4754.26 3891.81 L4716.86 3891.81 L4716.86 3615.33 L4801.3 3615.33 Q4848.71 3615.33 4872.04 3635.14 Q4895.37 3654.96 4895.37 3694.95 Q4895.37 3721.07 4883.15 3738.29 Q4871.12 3755.51 4847.97 3762.18 M4754.26 3646.07 L4754.26 3744.21 L4801.3 3744.21 Q4828.34 3744.21 4842.04 3731.81 Q4855.93 3719.21 4855.93 3694.95 Q4855.93 3670.7 4842.04 3658.47 Q4828.34 3646.07 4801.3 3646.07 L4754.26 3646.07 Z" fill="#000000" fill-rule="evenodd" fill-opacity="1" /><path clip-path="url(#clip820)" d="M 0 0 M5128.34 3779.58 L5128.34 3796.25 L4971.67 3796.25 Q4973.89 3831.44 4992.78 3849.95 Q5011.86 3868.29 5045.74 3868.29 Q5065.37 3868.29 5083.71 3863.47 Q5102.22 3858.66 5120.37 3849.03 L5120.37 3881.25 Q5102.04 3889.03 5082.78 3893.1 Q5063.52 3897.18 5043.71 3897.18 Q4994.08 3897.18 4965 3868.29 Q4936.11 3839.4 4936.11 3790.14 Q4936.11 3739.21 4963.52 3709.4 Q4991.11 3679.4 5037.78 3679.4 Q5079.63 3679.4 5103.89 3706.44 Q5128.34 3733.29 5128.34 3779.58 M5094.26 3769.58 Q5093.89 3741.62 5078.52 3724.95 Q5063.34 3708.29 5038.15 3708.29 Q5009.63 3708.29 4992.41 3724.4 Q4975.37 3740.51 4972.78 3769.77 L5094.26 3769.58 Z" fill="#000000" fill-rule="evenodd" fill-opacity="1" /><path clip-path="url(#clip820)" d="M 0 0 M5296.3 3690.51 L5296.3 3722.73 Q5281.85 3715.33 5266.3 3711.62 Q5250.74 3707.92 5234.08 3707.92 Q5208.71 3707.92 5195.93 3715.7 Q5183.34 3723.47 5183.34 3739.03 Q5183.34 3750.88 5192.41 3757.73 Q5201.48 3764.4 5228.89 3770.51 L5240.56 3773.1 Q5276.85 3780.88 5292.04 3795.14 Q5307.41 3809.21 5307.41 3834.58 Q5307.41 3863.47 5284.45 3880.32 Q5261.67 3897.18 5221.67 3897.18 Q5205 3897.18 5186.85 3893.84 Q5168.89 3890.69 5148.89 3884.21 L5148.89 3849.03 Q5167.78 3858.84 5186.11 3863.84 Q5204.45 3868.66 5222.41 3868.66 Q5246.48 3868.66 5259.45 3860.51 Q5272.41 3852.18 5272.41 3837.18 Q5272.41 3823.29 5262.96 3815.88 Q5253.71 3808.47 5222.04 3801.62 L5210.19 3798.84 Q5178.52 3792.18 5164.45 3778.47 Q5150.37 3764.58 5150.37 3740.51 Q5150.37 3711.25 5171.11 3695.33 Q5191.85 3679.4 5230 3679.4 Q5248.89 3679.4 5265.56 3682.18 Q5282.22 3684.95 5296.3 3690.51 Z" fill="#000000" fill-rule="evenodd" fill-opacity="1" /><path clip-path="url(#clip820)" d="M 0 0 M5339.63 3809.95 L5339.63 3684.4 L5373.7 3684.4 L5373.7 3808.66 Q5373.7 3838.1 5385.19 3852.92 Q5396.67 3867.55 5419.63 3867.55 Q5447.22 3867.55 5463.15 3849.95 Q5479.26 3832.36 5479.26 3801.99 L5479.26 3684.4 L5513.33 3684.4 L5513.33 3891.81 L5479.26 3891.81 L5479.26 3859.95 Q5466.85 3878.84 5450.37 3888.1 Q5434.07 3897.18 5412.41 3897.18 Q5376.67 3897.18 5358.15 3874.95 Q5339.63 3852.73 5339.63 3809.95 M5425.37 3679.4 L5425.37 3679.4 Z" fill="#000000" fill-rule="evenodd" fill-opacity="1" /><path clip-path="url(#clip820)" d="M 0 0 M5549.07 3603.66 L5583.15 3603.66 L5583.15 3891.81 L5549.07 3891.81 L5549.07 3603.66 Z" fill="#000000" fill-rule="evenodd" fill-opacity="1" /><path clip-path="url(#clip820)" d="M 0 0 M5652.59 3625.51 L5652.59 3684.4 L5722.78 3684.4 L5722.78 3710.88 L5652.59 3710.88 L5652.59 3823.47 Q5652.59 3848.84 5659.44 3856.07 Q5666.48 3863.29 5687.78 3863.29 L5722.78 3863.29 L5722.78 3891.81 L5687.78 3891.81 Q5648.33 3891.81 5633.33 3877.18 Q5618.33 3862.36 5618.33 3823.47 L5618.33 3710.88 L5593.33 3710.88 L5593.33 3684.4 L5618.33 3684.4 L5618.33 3625.51 L5652.59 3625.51 Z" fill="#000000" fill-rule="evenodd" fill-opacity="1" /><path clip-path="url(#clip820)" d="M 0 0 M5916.11 3954.77 L5916.11 3981.25 L5719.07 3981.25 L5719.07 3954.77 L5916.11 3954.77 Z" fill="#000000" fill-rule="evenodd" fill-opacity="1" /><path clip-path="url(#clip820)" d="M 0 0 M5953.33 3615.33 L5990.74 3615.33 L5990.74 3872.55 Q5990.74 3922.55 5971.66 3945.14 Q5952.78 3967.73 5910.74 3967.73 L5896.48 3967.73 L5896.48 3936.25 L5908.15 3936.25 Q5932.96 3936.25 5943.15 3922.36 Q5953.33 3908.47 5953.33 3872.55 L5953.33 3615.33 Z" fill="#000000" fill-rule="evenodd" fill-opacity="1" /><path clip-path="url(#clip820)" d="M 0 0 M6037.78 3860.32 L6098.89 3860.32 L6098.89 3649.4 L6032.41 3662.73 L6032.41 3628.66 L6098.52 3615.33 L6135.92 3615.33 L6135.92 3860.32 L6197.03 3860.32 L6197.03 3891.81 L6037.78 3891.81 L6037.78 3860.32 Z" fill="#000000" fill-rule="evenodd" fill-opacity="1" /><path clip-path="url(#clip820)" d="M 0 0 M6357.77 3719.58 L6595.18 3719.58 L6595.18 3750.7 L6357.77 3750.7 L6357.77 3719.58 M6357.77 3795.14 L6595.18 3795.14 L6595.18 3826.62 L6357.77 3826.62 L6357.77 3795.14 Z" fill="#000000" fill-rule="evenodd" fill-opacity="1" /><path clip-path="url(#clip820)" d="M 0 0 M6836.29 3639.96 Q6807.4 3639.96 6792.77 3668.47 Q6778.33 3696.81 6778.33 3753.84 Q6778.33 3810.7 6792.77 3839.21 Q6807.4 3867.55 6836.29 3867.55 Q6865.36 3867.55 6879.81 3839.21 Q6894.44 3810.7 6894.44 3753.84 Q6894.44 3696.81 6879.81 3668.47 Q6865.36 3639.96 6836.29 3639.96 M6836.29 3610.33 Q6882.77 3610.33 6907.22 3647.18 Q6931.84 3683.84 6931.84 3753.84 Q6931.84 3823.66 6907.22 3860.51 Q6882.77 3897.18 6836.29 3897.18 Q6789.81 3897.18 6765.18 3860.51 Q6740.73 3823.66 6740.73 3753.84 Q6740.73 3683.84 6765.18 3647.18 Q6789.81 3610.33 6836.29 3610.33 Z" fill="#000000" fill-rule="evenodd" fill-opacity="1" /><path clip-path="url(#clip820)" d="M 0 0 M6972.4 3844.77 L7011.47 3844.77 L7011.47 3891.81 L6972.4 3891.81 L6972.4 3844.77 Z" fill="#000000" fill-rule="evenodd" fill-opacity="1" /><path clip-path="url(#clip820)" d="M 0 0 M7132.03 3639.96 Q7103.14 3639.96 7088.51 3668.47 Q7074.07 3696.81 7074.07 3753.84 Q7074.07 3810.7 7088.51 3839.21 Q7103.14 3867.55 7132.03 3867.55 Q7161.1 3867.55 7175.55 3839.21 Q7190.18 3810.7 7190.18 3753.84 Q7190.18 3696.81 7175.55 3668.47 Q7161.1 3639.96 7132.03 3639.96 M7132.03 3610.33 Q7178.51 3610.33 7202.95 3647.18 Q7227.58 3683.84 7227.58 3753.84 Q7227.58 3823.66 7202.95 3860.51 Q7178.51 3897.18 7132.03 3897.18 Q7085.55 3897.18 7060.92 3860.51 Q7036.47 3823.66 7036.47 3753.84 Q7036.47 3683.84 7060.92 3647.18 Q7085.55 3610.33 7132.03 3610.33 Z" fill="#000000" fill-rule="evenodd" fill-opacity="1" /></svg>
