<?xml version="1.0" encoding="utf-8"?>
<svg xmlns="http://www.w3.org/2000/svg" xmlns:xlink="http://www.w3.org/1999/xlink" width="4800" height="3200" viewBox="0 0 19200 12800">
<defs>
  <clipPath id="clip6700">
    <rect x="0" y="0" width="19200" height="12800"/>
  </clipPath>
</defs>
<path clip-path="url(#clip6700)" d="
M0 12800 L19200 12800 L19200 0 L0 0  Z
  " fill="#ffffff" fill-rule="evenodd" fill-opacity="1"/>
<defs>
  <clipPath id="clip6701">
    <rect x="3840" y="0" width="13441" height="12800"/>
  </clipPath>
</defs>
<path clip-path="url(#clip6700)" d="
M1807.82 11385.4 L18822 11385.4 L18822 987.777 L1807.82 987.777  Z
  " fill="#ffffff" fill-rule="evenodd" fill-opacity="1"/>
<defs>
  <clipPath id="clip6702">
    <rect x="1807" y="987" width="17015" height="10399"/>
  </clipPath>
</defs>
<polyline clip-path="url(#clip6702)" style="stroke:#000000; stroke-width:16; stroke-opacity:0.1; fill:none" points="
  2289.35,11385.4 2289.35,987.777 
  "/>
<polyline clip-path="url(#clip6702)" style="stroke:#000000; stroke-width:16; stroke-opacity:0.1; fill:none" points="
  6302.14,11385.4 6302.14,987.777 
  "/>
<polyline clip-path="url(#clip6702)" style="stroke:#000000; stroke-width:16; stroke-opacity:0.1; fill:none" points="
  10314.9,11385.4 10314.9,987.777 
  "/>
<polyline clip-path="url(#clip6702)" style="stroke:#000000; stroke-width:16; stroke-opacity:0.1; fill:none" points="
  14327.7,11385.4 14327.7,987.777 
  "/>
<polyline clip-path="url(#clip6702)" style="stroke:#000000; stroke-width:16; stroke-opacity:0.1; fill:none" points="
  18340.5,11385.4 18340.5,987.777 
  "/>
<polyline clip-path="url(#clip6702)" style="stroke:#000000; stroke-width:16; stroke-opacity:0.1; fill:none" points="
  1807.82,11091.2 18822,11091.2 
  "/>
<polyline clip-path="url(#clip6702)" style="stroke:#000000; stroke-width:16; stroke-opacity:0.1; fill:none" points="
  1807.82,9552.25 18822,9552.25 
  "/>
<polyline clip-path="url(#clip6702)" style="stroke:#000000; stroke-width:16; stroke-opacity:0.1; fill:none" points="
  1807.82,8013.34 18822,8013.34 
  "/>
<polyline clip-path="url(#clip6702)" style="stroke:#000000; stroke-width:16; stroke-opacity:0.1; fill:none" points="
  1807.82,6474.42 18822,6474.42 
  "/>
<polyline clip-path="url(#clip6702)" style="stroke:#000000; stroke-width:16; stroke-opacity:0.1; fill:none" points="
  1807.82,4935.51 18822,4935.51 
  "/>
<polyline clip-path="url(#clip6702)" style="stroke:#000000; stroke-width:16; stroke-opacity:0.1; fill:none" points="
  1807.82,3396.6 18822,3396.6 
  "/>
<polyline clip-path="url(#clip6702)" style="stroke:#000000; stroke-width:16; stroke-opacity:0.1; fill:none" points="
  1807.82,1857.68 18822,1857.68 
  "/>
<polyline clip-path="url(#clip6700)" style="stroke:#000000; stroke-width:32; stroke-opacity:1; fill:none" points="
  1807.82,11385.4 18822,11385.4 
  "/>
<polyline clip-path="url(#clip6700)" style="stroke:#000000; stroke-width:32; stroke-opacity:1; fill:none" points="
  1807.82,11385.4 1807.82,987.777 
  "/>
<polyline clip-path="url(#clip6700)" style="stroke:#000000; stroke-width:32; stroke-opacity:1; fill:none" points="
  2289.35,11385.4 2289.35,11260.7 
  "/>
<polyline clip-path="url(#clip6700)" style="stroke:#000000; stroke-width:32; stroke-opacity:1; fill:none" points="
  6302.14,11385.4 6302.14,11260.7 
  "/>
<polyline clip-path="url(#clip6700)" style="stroke:#000000; stroke-width:32; stroke-opacity:1; fill:none" points="
  10314.9,11385.4 10314.9,11260.7 
  "/>
<polyline clip-path="url(#clip6700)" style="stroke:#000000; stroke-width:32; stroke-opacity:1; fill:none" points="
  14327.7,11385.4 14327.7,11260.7 
  "/>
<polyline clip-path="url(#clip6700)" style="stroke:#000000; stroke-width:32; stroke-opacity:1; fill:none" points="
  18340.5,11385.4 18340.5,11260.7 
  "/>
<polyline clip-path="url(#clip6700)" style="stroke:#000000; stroke-width:32; stroke-opacity:1; fill:none" points="
  1807.82,11091.2 2011.99,11091.2 
  "/>
<polyline clip-path="url(#clip6700)" style="stroke:#000000; stroke-width:32; stroke-opacity:1; fill:none" points="
  1807.82,9552.25 2011.99,9552.25 
  "/>
<polyline clip-path="url(#clip6700)" style="stroke:#000000; stroke-width:32; stroke-opacity:1; fill:none" points="
  1807.82,8013.34 2011.99,8013.34 
  "/>
<polyline clip-path="url(#clip6700)" style="stroke:#000000; stroke-width:32; stroke-opacity:1; fill:none" points="
  1807.82,6474.42 2011.99,6474.42 
  "/>
<polyline clip-path="url(#clip6700)" style="stroke:#000000; stroke-width:32; stroke-opacity:1; fill:none" points="
  1807.82,4935.51 2011.99,4935.51 
  "/>
<polyline clip-path="url(#clip6700)" style="stroke:#000000; stroke-width:32; stroke-opacity:1; fill:none" points="
  1807.82,3396.6 2011.99,3396.6 
  "/>
<polyline clip-path="url(#clip6700)" style="stroke:#000000; stroke-width:32; stroke-opacity:1; fill:none" points="
  1807.82,1857.68 2011.99,1857.68 
  "/>
<path clip-path="url(#clip6700)" d="M 0 0 M2144.08 11561.4 Q2115.19 11561.4 2100.56 11589.9 Q2086.11 11618.2 2086.11 11675.3 Q2086.11 11732.1 2100.56 11760.6 Q2115.19 11789 2144.08 11789 Q2173.15 11789 2187.59 11760.6 Q2202.22 11732.1 2202.22 11675.3 Q2202.22 11618.2 2187.59 11589.9 Q2173.15 11561.4 2144.08 11561.4 M2144.08 11531.7 Q2190.56 11531.7 2215 11568.6 Q2239.63 11605.3 2239.63 11675.3 Q2239.63 11745.1 2215 11781.9 Q2190.56 11818.6 2144.08 11818.6 Q2097.6 11818.6 2072.97 11781.9 Q2048.52 11745.1 2048.52 11675.3 Q2048.52 11605.3 2072.97 11568.6 Q2097.6 11531.7 2144.08 11531.7 Z" fill="#000000" fill-rule="evenodd" fill-opacity="1" /><path clip-path="url(#clip6700)" d="M 0 0 M2280.19 11766.2 L2319.26 11766.2 L2319.26 11813.2 L2280.19 11813.2 L2280.19 11766.2 Z" fill="#000000" fill-rule="evenodd" fill-opacity="1" /><path clip-path="url(#clip6700)" d="M 0 0 M2473.15 11664.1 Q2500 11669.9 2515 11688 Q2530.19 11706.2 2530.19 11732.8 Q2530.19 11773.8 2502.04 11796.2 Q2473.89 11818.6 2422.04 11818.6 Q2404.63 11818.6 2386.11 11815.1 Q2367.78 11811.7 2348.15 11804.9 L2348.15 11768.8 Q2363.7 11777.8 2382.22 11782.5 Q2400.74 11787.1 2420.93 11787.1 Q2456.11 11787.1 2474.45 11773.2 Q2492.96 11759.3 2492.96 11732.8 Q2492.96 11708.4 2475.74 11694.7 Q2458.7 11680.8 2428.15 11680.8 L2395.93 11680.8 L2395.93 11650.1 L2429.63 11650.1 Q2457.22 11650.1 2471.85 11639.1 Q2486.48 11628 2486.48 11607.3 Q2486.48 11586 2471.3 11574.7 Q2456.3 11563.2 2428.15 11563.2 Q2412.78 11563.2 2395.19 11566.5 Q2377.59 11569.9 2356.48 11576.9 L2356.48 11543.6 Q2377.78 11537.7 2396.3 11534.7 Q2415 11531.7 2431.48 11531.7 Q2474.07 11531.7 2498.89 11551.2 Q2523.7 11570.4 2523.7 11603.4 Q2523.7 11626.4 2510.56 11642.3 Q2497.41 11658 2473.15 11664.1 Z" fill="#000000" fill-rule="evenodd" fill-opacity="1" /><path clip-path="url(#clip6700)" d="M 0 0 M6152.33 11561.4 Q6123.44 11561.4 6108.81 11589.9 Q6094.37 11618.2 6094.37 11675.3 Q6094.37 11732.1 6108.81 11760.6 Q6123.44 11789 6152.33 11789 Q6181.4 11789 6195.85 11760.6 Q6210.48 11732.1 6210.48 11675.3 Q6210.48 11618.2 6195.85 11589.9 Q6181.4 11561.4 6152.33 11561.4 M6152.33 11531.7 Q6198.81 11531.7 6223.25 11568.6 Q6247.88 11605.3 6247.88 11675.3 Q6247.88 11745.1 6223.25 11781.9 Q6198.81 11818.6 6152.33 11818.6 Q6105.85 11818.6 6081.22 11781.9 Q6056.77 11745.1 6056.77 11675.3 Q6056.77 11605.3 6081.22 11568.6 Q6105.85 11531.7 6152.33 11531.7 Z" fill="#000000" fill-rule="evenodd" fill-opacity="1" /><path clip-path="url(#clip6700)" d="M 0 0 M6288.44 11766.2 L6327.51 11766.2 L6327.51 11813.2 L6288.44 11813.2 L6288.44 11766.2 Z" fill="#000000" fill-rule="evenodd" fill-opacity="1" /><path clip-path="url(#clip6700)" d="M 0 0 M6470.85 11569.3 L6376.4 11716.9 L6470.85 11716.9 L6470.85 11569.3 M6461.03 11536.7 L6508.07 11536.7 L6508.07 11716.9 L6547.51 11716.9 L6547.51 11748 L6508.07 11748 L6508.07 11813.2 L6470.85 11813.2 L6470.85 11748 L6346.03 11748 L6346.03 11711.9 L6461.03 11536.7 Z" fill="#000000" fill-rule="evenodd" fill-opacity="1" /><path clip-path="url(#clip6700)" d="M 0 0 M10171 11561.4 Q10142.2 11561.4 10127.5 11589.9 Q10113.1 11618.2 10113.1 11675.3 Q10113.1 11732.1 10127.5 11760.6 Q10142.2 11789 10171 11789 Q10200.1 11789 10214.6 11760.6 Q10229.2 11732.1 10229.2 11675.3 Q10229.2 11618.2 10214.6 11589.9 Q10200.1 11561.4 10171 11561.4 M10171 11531.7 Q10217.5 11531.7 10242 11568.6 Q10266.6 11605.3 10266.6 11675.3 Q10266.6 11745.1 10242 11781.9 Q10217.5 11818.6 10171 11818.6 Q10124.6 11818.6 10099.9 11781.9 Q10075.5 11745.1 10075.5 11675.3 Q10075.5 11605.3 10099.9 11568.6 Q10124.6 11531.7 10171 11531.7 Z" fill="#000000" fill-rule="evenodd" fill-opacity="1" /><path clip-path="url(#clip6700)" d="M 0 0 M10307.2 11766.2 L10346.2 11766.2 L10346.2 11813.2 L10307.2 11813.2 L10307.2 11766.2 Z" fill="#000000" fill-rule="evenodd" fill-opacity="1" /><path clip-path="url(#clip6700)" d="M 0 0 M10387.2 11536.7 L10534 11536.7 L10534 11568.2 L10421.4 11568.2 L10421.4 11636 Q10429.6 11633.2 10437.7 11631.9 Q10445.9 11630.4 10454 11630.4 Q10500.3 11630.4 10527.3 11655.8 Q10554.4 11681.2 10554.4 11724.5 Q10554.4 11769.1 10526.6 11794 Q10498.8 11818.6 10448.3 11818.6 Q10430.9 11818.6 10412.7 11815.6 Q10394.7 11812.7 10375.5 11806.7 L10375.5 11769.1 Q10392.2 11778.2 10409.9 11782.7 Q10427.7 11787.1 10447.5 11787.1 Q10479.6 11787.1 10498.3 11770.3 Q10517 11753.4 10517 11724.5 Q10517 11695.6 10498.3 11678.8 Q10479.6 11661.9 10447.5 11661.9 Q10432.5 11661.9 10417.5 11665.3 Q10402.7 11668.6 10387.2 11675.6 L10387.2 11536.7 Z" fill="#000000" fill-rule="evenodd" fill-opacity="1" /><path clip-path="url(#clip6700)" d="M 0 0 M14179.2 11561.4 Q14150.3 11561.4 14135.7 11589.9 Q14121.2 11618.2 14121.2 11675.3 Q14121.2 11732.1 14135.7 11760.6 Q14150.3 11789 14179.2 11789 Q14208.3 11789 14222.7 11760.6 Q14237.4 11732.1 14237.4 11675.3 Q14237.4 11618.2 14222.7 11589.9 Q14208.3 11561.4 14179.2 11561.4 M14179.2 11531.7 Q14225.7 11531.7 14250.1 11568.6 Q14274.8 11605.3 14274.8 11675.3 Q14274.8 11745.1 14250.1 11781.9 Q14225.7 11818.6 14179.2 11818.6 Q14132.7 11818.6 14108.1 11781.9 Q14083.6 11745.1 14083.6 11675.3 Q14083.6 11605.3 14108.1 11568.6 Q14132.7 11531.7 14179.2 11531.7 Z" fill="#000000" fill-rule="evenodd" fill-opacity="1" /><path clip-path="url(#clip6700)" d="M 0 0 M14315.3 11766.2 L14354.4 11766.2 L14354.4 11813.2 L14315.3 11813.2 L14315.3 11766.2 Z" fill="#000000" fill-rule="evenodd" fill-opacity="1" /><path clip-path="url(#clip6700)" d="M 0 0 M14479.6 11660.1 Q14454.4 11660.1 14439.6 11677.3 Q14424.9 11694.5 14424.9 11724.5 Q14424.9 11754.3 14439.6 11771.7 Q14454.4 11789 14479.6 11789 Q14504.8 11789 14519.4 11771.7 Q14534.2 11754.3 14534.2 11724.5 Q14534.2 11694.5 14519.4 11677.3 Q14504.8 11660.1 14479.6 11660.1 M14553.8 11542.8 L14553.8 11576.9 Q14539.8 11570.3 14525.3 11566.7 Q14511.1 11563.2 14497 11563.2 Q14459.9 11563.2 14440.3 11588.2 Q14420.9 11613.2 14418.1 11663.8 Q14429 11647.7 14445.5 11639.1 Q14462 11630.4 14481.8 11630.4 Q14523.5 11630.4 14547.5 11655.8 Q14571.8 11681 14571.8 11724.5 Q14571.8 11767.1 14546.6 11792.8 Q14521.4 11818.6 14479.6 11818.6 Q14431.6 11818.6 14406.2 11781.9 Q14380.9 11745.1 14380.9 11675.3 Q14380.9 11609.7 14412 11570.8 Q14443.1 11531.7 14495.5 11531.7 Q14509.6 11531.7 14523.8 11534.5 Q14538.3 11537.3 14553.8 11542.8 Z" fill="#000000" fill-rule="evenodd" fill-opacity="1" /><path clip-path="url(#clip6700)" d="M 0 0 M18196.3 11561.4 Q18167.4 11561.4 18152.7 11589.9 Q18138.3 11618.2 18138.3 11675.3 Q18138.3 11732.1 18152.7 11760.6 Q18167.4 11789 18196.3 11789 Q18225.3 11789 18239.8 11760.6 Q18254.4 11732.1 18254.4 11675.3 Q18254.4 11618.2 18239.8 11589.9 Q18225.3 11561.4 18196.3 11561.4 M18196.3 11531.7 Q18242.7 11531.7 18267.2 11568.6 Q18291.8 11605.3 18291.8 11675.3 Q18291.8 11745.1 18267.2 11781.9 Q18242.7 11818.6 18196.3 11818.6 Q18149.8 11818.6 18125.1 11781.9 Q18100.7 11745.1 18100.7 11675.3 Q18100.7 11605.3 18125.1 11568.6 Q18149.8 11531.7 18196.3 11531.7 Z" fill="#000000" fill-rule="evenodd" fill-opacity="1" /><path clip-path="url(#clip6700)" d="M 0 0 M18332.4 11766.2 L18371.4 11766.2 L18371.4 11813.2 L18332.4 11813.2 L18332.4 11766.2 Z" fill="#000000" fill-rule="evenodd" fill-opacity="1" /><path clip-path="url(#clip6700)" d="M 0 0 M18402.5 11536.7 L18580.3 11536.7 L18580.3 11552.7 L18480 11813.2 L18440.9 11813.2 L18535.3 11568.2 L18402.5 11568.2 L18402.5 11536.7 Z" fill="#000000" fill-rule="evenodd" fill-opacity="1" /><path clip-path="url(#clip6700)" d="M 0 0 M1016.93 11110.3 L1116.75 11110.3 L1116.75 11140.7 L1016.93 11140.7 L1016.93 11110.3 Z" fill="#000000" fill-rule="evenodd" fill-opacity="1" /><path clip-path="url(#clip6700)" d="M 0 0 M1189.52 11197.9 L1320.08 11197.9 L1320.08 11229.4 L1144.52 11229.4 L1144.52 11197.9 Q1165.82 11175.9 1202.49 11138.9 Q1239.34 11101.6 1248.78 11090.9 Q1266.75 11070.7 1273.78 11056.8 Q1281.01 11042.7 1281.01 11029.2 Q1281.01 11007.2 1265.45 10993.3 Q1250.08 10979.4 1225.27 10979.4 Q1207.67 10979.4 1188.04 10985.5 Q1168.6 10991.6 1146.38 11004 L1146.38 10966.3 Q1168.97 10957.2 1188.6 10952.6 Q1208.23 10947.9 1224.52 10947.9 Q1267.49 10947.9 1293.04 10969.4 Q1318.6 10990.9 1318.6 11026.8 Q1318.6 11043.9 1312.12 11059.2 Q1305.82 11074.4 1288.97 11095.1 Q1284.34 11100.5 1259.52 11126.3 Q1234.71 11151.8 1189.52 11197.9 Z" fill="#000000" fill-rule="evenodd" fill-opacity="1" /><path clip-path="url(#clip6700)" d="M 0 0 M1360.63 11182.4 L1399.71 11182.4 L1399.71 11229.4 L1360.63 11229.4 L1360.63 11182.4 Z" fill="#000000" fill-rule="evenodd" fill-opacity="1" /><path clip-path="url(#clip6700)" d="M 0 0 M1520.26 10977.6 Q1491.37 10977.6 1476.75 11006.1 Q1462.3 11034.4 1462.3 11091.4 Q1462.3 11148.3 1476.75 11176.8 Q1491.37 11205.1 1520.26 11205.1 Q1549.34 11205.1 1563.78 11176.8 Q1578.41 11148.3 1578.41 11091.4 Q1578.41 11034.4 1563.78 11006.1 Q1549.34 10977.6 1520.26 10977.6 M1520.26 10947.9 Q1566.74 10947.9 1591.19 10984.8 Q1615.82 11021.4 1615.82 11091.4 Q1615.82 11161.3 1591.19 11198.1 Q1566.74 11234.8 1520.26 11234.8 Q1473.78 11234.8 1449.15 11198.1 Q1424.71 11161.3 1424.71 11091.4 Q1424.71 11021.4 1449.15 10984.8 Q1473.78 10947.9 1520.26 10947.9 Z" fill="#000000" fill-rule="evenodd" fill-opacity="1" /><path clip-path="url(#clip6700)" d="M 0 0 M1015.45 9571.42 L1115.27 9571.42 L1115.27 9601.79 L1015.45 9601.79 L1015.45 9571.42 Z" fill="#000000" fill-rule="evenodd" fill-opacity="1" /><path clip-path="url(#clip6700)" d="M 0 0 M1162.3 9659.01 L1223.41 9659.01 L1223.41 9448.09 L1156.93 9461.42 L1156.93 9427.34 L1223.04 9414.01 L1260.45 9414.01 L1260.45 9659.01 L1321.56 9659.01 L1321.56 9690.49 L1162.3 9690.49 L1162.3 9659.01 Z" fill="#000000" fill-rule="evenodd" fill-opacity="1" /><path clip-path="url(#clip6700)" d="M 0 0 M1362.12 9643.45 L1401.19 9643.45 L1401.19 9690.49 L1362.12 9690.49 L1362.12 9643.45 Z" fill="#000000" fill-rule="evenodd" fill-opacity="1" /><path clip-path="url(#clip6700)" d="M 0 0 M1442.86 9684.75 L1442.86 9650.68 Q1456.93 9657.34 1471.38 9660.86 Q1485.82 9664.38 1499.71 9664.38 Q1536.75 9664.38 1556.19 9639.57 Q1575.82 9614.57 1578.6 9563.83 Q1567.86 9579.75 1551.37 9588.27 Q1534.89 9596.79 1514.89 9596.79 Q1473.41 9596.79 1449.15 9571.79 Q1425.08 9546.6 1425.08 9503.09 Q1425.08 9460.49 1450.26 9434.75 Q1475.45 9409.01 1517.3 9409.01 Q1565.26 9409.01 1590.45 9445.86 Q1615.82 9482.53 1615.82 9552.53 Q1615.82 9617.9 1584.71 9656.97 Q1553.78 9695.86 1501.37 9695.86 Q1487.3 9695.86 1472.86 9693.08 Q1458.41 9690.31 1442.86 9684.75 M1517.3 9567.53 Q1542.49 9567.53 1557.12 9550.31 Q1571.93 9533.08 1571.93 9503.09 Q1571.93 9473.27 1557.12 9456.05 Q1542.49 9438.64 1517.3 9438.64 Q1492.12 9438.64 1477.3 9456.05 Q1462.67 9473.27 1462.67 9503.09 Q1462.67 9533.08 1477.3 9550.31 Q1492.12 9567.53 1517.3 9567.53 Z" fill="#000000" fill-rule="evenodd" fill-opacity="1" /><path clip-path="url(#clip6700)" d="M 0 0 M1014.71 8032.5 L1114.53 8032.5 L1114.53 8062.87 L1014.71 8062.87 L1014.71 8032.5 Z" fill="#000000" fill-rule="evenodd" fill-opacity="1" /><path clip-path="url(#clip6700)" d="M 0 0 M1161.56 8120.1 L1222.67 8120.1 L1222.67 7909.17 L1156.19 7922.5 L1156.19 7888.43 L1222.3 7875.1 L1259.71 7875.1 L1259.71 8120.1 L1320.82 8120.1 L1320.82 8151.58 L1161.56 8151.58 L1161.56 8120.1 Z" fill="#000000" fill-rule="evenodd" fill-opacity="1" /><path clip-path="url(#clip6700)" d="M 0 0 M1361.38 8104.54 L1400.45 8104.54 L1400.45 8151.58 L1361.38 8151.58 L1361.38 8104.54 Z" fill="#000000" fill-rule="evenodd" fill-opacity="1" /><path clip-path="url(#clip6700)" d="M 0 0 M1521 8020.28 Q1494.34 8020.28 1478.97 8034.54 Q1463.78 8048.8 1463.78 8073.8 Q1463.78 8098.8 1478.97 8113.06 Q1494.34 8127.32 1521 8127.32 Q1547.67 8127.32 1563.04 8113.06 Q1578.41 8098.62 1578.41 8073.8 Q1578.41 8048.8 1563.04 8034.54 Q1547.86 8020.28 1521 8020.28 M1483.6 8004.36 Q1459.52 7998.43 1446 7981.95 Q1432.67 7965.47 1432.67 7941.76 Q1432.67 7908.62 1456.19 7889.36 Q1479.89 7870.1 1521 7870.1 Q1562.3 7870.1 1585.82 7889.36 Q1609.34 7908.62 1609.34 7941.76 Q1609.34 7965.47 1595.82 7981.95 Q1582.49 7998.43 1558.6 8004.36 Q1585.63 8010.65 1600.63 8028.99 Q1615.82 8047.32 1615.82 8073.8 Q1615.82 8113.99 1591.19 8135.47 Q1566.74 8156.95 1521 8156.95 Q1475.26 8156.95 1450.63 8135.47 Q1426.19 8113.99 1426.19 8073.8 Q1426.19 8047.32 1441.38 8028.99 Q1456.56 8010.65 1483.6 8004.36 M1469.89 7945.28 Q1469.89 7966.76 1483.23 7978.8 Q1496.75 7990.84 1521 7990.84 Q1545.08 7990.84 1558.6 7978.8 Q1572.3 7966.76 1572.3 7945.28 Q1572.3 7923.8 1558.6 7911.76 Q1545.08 7899.73 1521 7899.73 Q1496.75 7899.73 1483.23 7911.76 Q1469.89 7923.8 1469.89 7945.28 Z" fill="#000000" fill-rule="evenodd" fill-opacity="1" /><path clip-path="url(#clip6700)" d="M 0 0 M1021.19 6493.59 L1121.01 6493.59 L1121.01 6523.96 L1021.19 6523.96 L1021.19 6493.59 Z" fill="#000000" fill-rule="evenodd" fill-opacity="1" /><path clip-path="url(#clip6700)" d="M 0 0 M1168.04 6581.18 L1229.15 6581.18 L1229.15 6370.26 L1162.67 6383.59 L1162.67 6349.52 L1228.78 6336.18 L1266.19 6336.18 L1266.19 6581.18 L1327.3 6581.18 L1327.3 6612.66 L1168.04 6612.66 L1168.04 6581.18 Z" fill="#000000" fill-rule="evenodd" fill-opacity="1" /><path clip-path="url(#clip6700)" d="M 0 0 M1367.86 6565.63 L1406.93 6565.63 L1406.93 6612.66 L1367.86 6612.66 L1367.86 6565.63 Z" fill="#000000" fill-rule="evenodd" fill-opacity="1" /><path clip-path="url(#clip6700)" d="M 0 0 M1438.04 6336.18 L1615.82 6336.18 L1615.82 6352.11 L1515.45 6612.66 L1476.38 6612.66 L1570.82 6367.67 L1438.04 6367.67 L1438.04 6336.18 Z" fill="#000000" fill-rule="evenodd" fill-opacity="1" /><path clip-path="url(#clip6700)" d="M 0 0 M1012.67 4954.68 L1112.49 4954.68 L1112.49 4985.05 L1012.67 4985.05 L1012.67 4954.68 Z" fill="#000000" fill-rule="evenodd" fill-opacity="1" /><path clip-path="url(#clip6700)" d="M 0 0 M1159.52 5042.27 L1220.64 5042.27 L1220.64 4831.34 L1154.15 4844.68 L1154.15 4810.6 L1220.27 4797.27 L1257.67 4797.27 L1257.67 5042.27 L1318.78 5042.27 L1318.78 5073.75 L1159.52 5073.75 L1159.52 5042.27 Z" fill="#000000" fill-rule="evenodd" fill-opacity="1" /><path clip-path="url(#clip6700)" d="M 0 0 M1359.34 5026.71 L1398.41 5026.71 L1398.41 5073.75 L1359.34 5073.75 L1359.34 5026.71 Z" fill="#000000" fill-rule="evenodd" fill-opacity="1" /><path clip-path="url(#clip6700)" d="M 0 0 M1523.6 4920.6 Q1498.41 4920.6 1483.6 4937.82 Q1468.97 4955.05 1468.97 4985.05 Q1468.97 5014.86 1483.6 5032.27 Q1498.41 5049.49 1523.6 5049.49 Q1548.78 5049.49 1563.41 5032.27 Q1578.23 5014.86 1578.23 4985.05 Q1578.23 4955.05 1563.41 4937.82 Q1548.78 4920.6 1523.6 4920.6 M1597.86 4803.38 L1597.86 4837.46 Q1583.78 4830.79 1569.34 4827.27 Q1555.08 4823.75 1541 4823.75 Q1503.97 4823.75 1484.34 4848.75 Q1464.89 4873.75 1462.12 4924.31 Q1473.04 4908.2 1489.52 4899.68 Q1506 4890.97 1525.82 4890.97 Q1567.49 4890.97 1591.56 4916.34 Q1615.82 4941.53 1615.82 4985.05 Q1615.82 5027.64 1590.63 5053.38 Q1565.45 5079.12 1523.6 5079.12 Q1475.63 5079.12 1450.26 5042.45 Q1424.89 5005.6 1424.89 4935.79 Q1424.89 4870.23 1456 4831.34 Q1487.12 4792.27 1539.52 4792.27 Q1553.6 4792.27 1567.86 4795.05 Q1582.3 4797.83 1597.86 4803.38 Z" fill="#000000" fill-rule="evenodd" fill-opacity="1" /><path clip-path="url(#clip6700)" d="M 0 0 M1021.93 3415.76 L1121.75 3415.76 L1121.75 3446.13 L1021.93 3446.13 L1021.93 3415.76 Z" fill="#000000" fill-rule="evenodd" fill-opacity="1" /><path clip-path="url(#clip6700)" d="M 0 0 M1168.78 3503.36 L1229.89 3503.36 L1229.89 3292.43 L1163.41 3305.76 L1163.41 3271.69 L1229.52 3258.36 L1266.93 3258.36 L1266.93 3503.36 L1328.04 3503.36 L1328.04 3534.84 L1168.78 3534.84 L1168.78 3503.36 Z" fill="#000000" fill-rule="evenodd" fill-opacity="1" /><path clip-path="url(#clip6700)" d="M 0 0 M1368.6 3487.8 L1407.67 3487.8 L1407.67 3534.84 L1368.6 3534.84 L1368.6 3487.8 Z" fill="#000000" fill-rule="evenodd" fill-opacity="1" /><path clip-path="url(#clip6700)" d="M 0 0 M1448.6 3258.36 L1595.45 3258.36 L1595.45 3289.84 L1482.86 3289.84 L1482.86 3357.62 Q1491 3354.84 1499.15 3353.54 Q1507.3 3352.06 1515.45 3352.06 Q1561.74 3352.06 1588.78 3377.43 Q1615.82 3402.8 1615.82 3446.13 Q1615.82 3490.76 1588.04 3515.58 Q1560.26 3540.21 1509.71 3540.21 Q1492.3 3540.21 1474.15 3537.24 Q1456.19 3534.28 1436.93 3528.35 L1436.93 3490.76 Q1453.6 3499.84 1471.38 3504.28 Q1489.15 3508.73 1508.97 3508.73 Q1541 3508.73 1559.71 3491.87 Q1578.41 3475.02 1578.41 3446.13 Q1578.41 3417.24 1559.71 3400.39 Q1541 3383.54 1508.97 3383.54 Q1493.97 3383.54 1478.97 3386.87 Q1464.15 3390.21 1448.6 3397.24 L1448.6 3258.36 Z" fill="#000000" fill-rule="evenodd" fill-opacity="1" /><path clip-path="url(#clip6700)" d="M 0 0 M1010.08 1876.85 L1109.9 1876.85 L1109.9 1907.22 L1010.08 1907.22 L1010.08 1876.85 Z" fill="#000000" fill-rule="evenodd" fill-opacity="1" /><path clip-path="url(#clip6700)" d="M 0 0 M1156.93 1964.44 L1218.04 1964.44 L1218.04 1753.52 L1151.56 1766.85 L1151.56 1732.78 L1217.67 1719.44 L1255.08 1719.44 L1255.08 1964.44 L1316.19 1964.44 L1316.19 1995.92 L1156.93 1995.92 L1156.93 1964.44 Z" fill="#000000" fill-rule="evenodd" fill-opacity="1" /><path clip-path="url(#clip6700)" d="M 0 0 M1356.75 1948.89 L1395.82 1948.89 L1395.82 1995.92 L1356.75 1995.92 L1356.75 1948.89 Z" fill="#000000" fill-rule="evenodd" fill-opacity="1" /><path clip-path="url(#clip6700)" d="M 0 0 M1539.15 1752.03 L1444.71 1899.63 L1539.15 1899.63 L1539.15 1752.03 M1529.34 1719.44 L1576.37 1719.44 L1576.37 1899.63 L1615.82 1899.63 L1615.82 1930.74 L1576.37 1930.74 L1576.37 1995.92 L1539.15 1995.92 L1539.15 1930.74 L1414.34 1930.74 L1414.34 1894.63 L1529.34 1719.44 Z" fill="#000000" fill-rule="evenodd" fill-opacity="1" /><path clip-path="url(#clip6700)" d="M 0 0 M5694.47 96.768 L6000.4 96.768 L6000.4 151.86 L5759.93 151.86 L5759.93 295.1 L5990.35 295.1 L5990.35 350.193 L5759.93 350.193 L5759.93 525.516 L6006.23 525.516 L6006.23 580.608 L5694.47 580.608 L5694.47 96.768 Z" fill="#000000" fill-rule="evenodd" fill-opacity="1" /><path clip-path="url(#clip6700)" d="M 0 0 M6344.56 690.793 L6344.56 737.135 L5999.75 737.135 L5999.75 690.793 L6344.56 690.793 Z" fill="#000000" fill-rule="evenodd" fill-opacity="1" /><path clip-path="url(#clip6700)" d="M 0 0 M6638.49 228.341 L6638.49 284.73 Q6613.22 271.767 6585.99 265.286 Q6558.77 258.804 6529.61 258.804 Q6485.21 258.804 6462.85 272.415 Q6440.81 286.026 6440.81 313.248 Q6440.81 333.989 6456.69 345.98 Q6472.57 357.646 6520.53 368.341 L6540.95 372.878 Q6604.47 386.489 6631.04 411.442 Q6657.94 436.072 6657.94 480.47 Q6657.94 531.025 6617.75 560.516 Q6577.89 590.006 6507.89 590.006 Q6478.73 590.006 6446.97 584.173 Q6415.53 578.664 6380.53 567.321 L6380.53 505.747 Q6413.59 522.923 6445.67 531.673 Q6477.75 540.099 6509.19 540.099 Q6551.32 540.099 6574 525.84 Q6596.69 511.257 6596.69 485.007 Q6596.69 460.701 6580.16 447.738 Q6563.96 434.775 6508.54 422.785 L6487.8 417.924 Q6432.38 406.257 6407.75 382.276 Q6383.13 357.97 6383.13 315.841 Q6383.13 264.637 6419.42 236.767 Q6455.72 208.897 6522.48 208.897 Q6555.53 208.897 6584.7 213.758 Q6613.86 218.619 6638.49 228.341 Z" fill="#000000" fill-rule="evenodd" fill-opacity="1" /><path clip-path="url(#clip6700)" d="M 0 0 M6720.48 217.647 L6780.11 217.647 L6780.11 580.608 L6720.48 580.608 L6720.48 217.647 M6720.48 76.3514 L6780.11 76.3514 L6780.11 151.86 L6720.48 151.86 L6720.48 76.3514 Z" fill="#000000" fill-rule="evenodd" fill-opacity="1" /><path clip-path="url(#clip6700)" d="M 0 0 M6901.64 114.592 L6901.64 217.647 L7024.46 217.647 L7024.46 263.989 L6901.64 263.989 L6901.64 461.025 Q6901.64 505.423 6913.63 518.062 Q6925.95 530.701 6963.21 530.701 L7024.46 530.701 L7024.46 580.608 L6963.21 580.608 Q6894.19 580.608 6867.94 555.006 Q6841.69 529.08 6841.69 461.025 L6841.69 263.989 L6797.94 263.989 L6797.94 217.647 L6841.69 217.647 L6841.69 114.592 L6901.64 114.592 Z" fill="#000000" fill-rule="evenodd" fill-opacity="1" /><path clip-path="url(#clip6700)" d="M 0 0 M7397.47 384.22 L7397.47 413.387 L7123.31 413.387 Q7127.2 474.96 7160.25 507.368 Q7193.63 539.451 7252.94 539.451 Q7287.29 539.451 7319.37 531.025 Q7351.78 522.599 7383.54 505.747 L7383.54 562.136 Q7351.45 575.747 7317.75 582.877 Q7284.05 590.006 7249.37 590.006 Q7162.52 590.006 7111.64 539.451 Q7061.08 488.896 7061.08 402.692 Q7061.08 313.572 7109.05 261.397 Q7157.33 208.897 7239 208.897 Q7312.24 208.897 7354.69 256.212 Q7397.47 303.202 7397.47 384.22 M7337.84 366.72 Q7337.19 317.785 7310.3 288.619 Q7283.72 259.452 7239.65 259.452 Q7189.74 259.452 7159.6 287.647 Q7129.79 315.841 7125.25 367.044 L7337.84 366.72 Z" fill="#000000" fill-rule="evenodd" fill-opacity="1" /><path clip-path="url(#clip6700)" d="M 0 0 M7686.22 498.294 L7754.6 498.294 L7754.6 580.608 L7686.22 580.608 L7686.22 498.294 M7686.22 237.415 L7754.6 237.415 L7754.6 319.73 L7686.22 319.73 L7686.22 237.415 Z" fill="#000000" fill-rule="evenodd" fill-opacity="1" /><path clip-path="url(#clip6700)" d="M 0 0 M8176.54 350.841 Q8129.88 350.841 8102.98 375.794 Q8076.4 400.748 8076.4 444.498 Q8076.4 488.247 8102.98 513.201 Q8129.88 538.155 8176.54 538.155 Q8223.21 538.155 8250.11 513.201 Q8277 487.923 8277 444.498 Q8277 400.748 8250.11 375.794 Q8223.53 350.841 8176.54 350.841 M8111.08 322.97 Q8068.95 312.6 8045.29 283.758 Q8021.96 254.915 8021.96 213.434 Q8021.96 155.425 8063.12 121.722 Q8104.6 88.018 8176.54 88.018 Q8248.81 88.018 8289.97 121.722 Q8331.12 155.425 8331.12 213.434 Q8331.12 254.915 8307.47 283.758 Q8284.13 312.6 8242.33 322.97 Q8289.64 333.989 8315.89 366.072 Q8342.47 398.155 8342.47 444.498 Q8342.47 514.821 8299.37 552.414 Q8256.59 590.006 8176.54 590.006 Q8096.5 590.006 8053.39 552.414 Q8010.62 514.821 8010.62 444.498 Q8010.62 398.155 8037.19 366.072 Q8063.76 333.989 8111.08 322.97 M8087.1 219.591 Q8087.1 257.184 8110.43 278.249 Q8134.09 299.313 8176.54 299.313 Q8218.67 299.313 8242.33 278.249 Q8266.31 257.184 8266.31 219.591 Q8266.31 181.999 8242.33 160.934 Q8218.67 139.87 8176.54 139.87 Q8134.09 139.87 8110.43 160.934 Q8087.1 181.999 8087.1 219.591 Z" fill="#000000" fill-rule="evenodd" fill-opacity="1" /><path clip-path="url(#clip6700)" d="M 0 0 M8865.52 176.49 L8749.18 239.36 L8865.52 302.554 L8846.72 334.313 L8737.83 268.526 L8737.83 390.702 L8700.89 390.702 L8700.89 268.526 L8592 334.313 L8573.21 302.554 L8689.55 239.36 L8573.21 176.49 L8592 144.407 L8700.89 210.193 L8700.89 88.018 L8737.83 88.018 L8737.83 210.193 L8846.72 144.407 L8865.52 176.49 Z" fill="#000000" fill-rule="evenodd" fill-opacity="1" /><path clip-path="url(#clip6700)" d="M 0 0 M9287.46 350.841 Q9240.8 350.841 9213.9 375.794 Q9187.32 400.748 9187.32 444.498 Q9187.32 488.247 9213.9 513.201 Q9240.8 538.155 9287.46 538.155 Q9334.13 538.155 9361.03 513.201 Q9387.92 487.923 9387.92 444.498 Q9387.92 400.748 9361.03 375.794 Q9334.45 350.841 9287.46 350.841 M9222 322.97 Q9179.87 312.6 9156.21 283.758 Q9132.88 254.915 9132.88 213.434 Q9132.88 155.425 9174.04 121.722 Q9215.52 88.018 9287.46 88.018 Q9359.73 88.018 9400.89 121.722 Q9442.04 155.425 9442.04 213.434 Q9442.04 254.915 9418.39 283.758 Q9395.05 312.6 9353.25 322.97 Q9400.56 333.989 9426.81 366.072 Q9453.39 398.155 9453.39 444.498 Q9453.39 514.821 9410.29 552.414 Q9367.51 590.006 9287.46 590.006 Q9207.42 590.006 9164.31 552.414 Q9121.54 514.821 9121.54 444.498 Q9121.54 398.155 9148.11 366.072 Q9174.68 333.989 9222 322.97 M9198.02 219.591 Q9198.02 257.184 9221.35 278.249 Q9245.01 299.313 9287.46 299.313 Q9329.59 299.313 9353.25 278.249 Q9377.23 257.184 9377.23 219.591 Q9377.23 181.999 9353.25 160.934 Q9329.59 139.87 9287.46 139.87 Q9245.01 139.87 9221.35 160.934 Q9198.02 181.999 9198.02 219.591 Z" fill="#000000" fill-rule="evenodd" fill-opacity="1" /><path clip-path="url(#clip6700)" d="M 0 0 M9531.16 498.294 L9599.54 498.294 L9599.54 554.034 L9546.4 657.737 L9504.59 657.737 L9531.16 554.034 L9531.16 498.294 Z" fill="#000000" fill-rule="evenodd" fill-opacity="1" /><path clip-path="url(#clip6700)" d="M 0 0 M10072 141.166 Q10000.7 141.166 9958.62 194.314 Q9916.81 247.462 9916.81 339.174 Q9916.81 430.563 9958.62 483.71 Q10000.7 536.858 10072 536.858 Q10143.3 536.858 10184.8 483.71 Q10226.6 430.563 10226.6 339.174 Q10226.6 247.462 10184.8 194.314 Q10143.3 141.166 10072 141.166 M10163.8 571.858 L10250 666.163 L10170.9 666.163 L10099.3 588.71 Q10088.6 589.358 10082.7 589.682 Q10077.2 590.006 10072 590.006 Q9969.96 590.006 9908.71 521.951 Q9847.78 453.572 9847.78 339.174 Q9847.78 224.453 9908.71 156.397 Q9969.96 88.018 10072 88.018 Q10173.8 88.018 10234.7 156.397 Q10295.7 224.453 10295.7 339.174 Q10295.7 423.433 10261.6 483.386 Q10227.9 543.34 10163.8 571.858 Z" fill="#000000" fill-rule="evenodd" fill-opacity="1" /><path clip-path="url(#clip6700)" d="M 0 0 M10576.9 279.221 L10992.4 279.221 L10992.4 333.665 L10576.9 333.665 L10576.9 279.221 M10576.9 411.442 L10992.4 411.442 L10992.4 466.535 L10576.9 466.535 L10576.9 411.442 Z" fill="#000000" fill-rule="evenodd" fill-opacity="1" /><path clip-path="url(#clip6700)" d="M 0 0 M11285.7 525.516 L11392.6 525.516 L11392.6 156.397 L11276.3 179.731 L11276.3 120.101 L11392 96.768 L11457.5 96.768 L11457.5 525.516 L11564.4 525.516 L11564.4 580.608 L11285.7 580.608 L11285.7 525.516 Z" fill="#000000" fill-rule="evenodd" fill-opacity="1" /><path clip-path="url(#clip6700)" d="M 0 0 M11783.5 312.6 Q11739.4 312.6 11713.5 342.739 Q11687.9 372.878 11687.9 425.377 Q11687.9 477.553 11713.5 508.016 Q11739.4 538.155 11783.5 538.155 Q11827.5 538.155 11853.1 508.016 Q11879.1 477.553 11879.1 425.377 Q11879.1 372.878 11853.1 342.739 Q11827.5 312.6 11783.5 312.6 M11913.4 107.462 L11913.4 167.092 Q11888.8 155.425 11863.5 149.268 Q11838.6 143.11 11813.9 143.11 Q11749.1 143.11 11714.8 186.86 Q11680.7 230.61 11675.9 319.082 Q11695 290.887 11723.8 275.98 Q11752.7 260.749 11787.4 260.749 Q11860.3 260.749 11902.4 305.147 Q11944.9 349.22 11944.9 425.377 Q11944.9 499.914 11900.8 544.96 Q11856.7 590.006 11783.5 590.006 Q11699.5 590.006 11655.1 525.84 Q11610.7 461.349 11610.7 339.174 Q11610.7 224.453 11665.2 156.397 Q11719.6 88.018 11811.3 88.018 Q11836 88.018 11860.9 92.8791 Q11886.2 97.7402 11913.4 107.462 Z" fill="#000000" fill-rule="evenodd" fill-opacity="1" /><path clip-path="url(#clip6700)" d="M 0 0 M12022.6 498.294 L12091 498.294 L12091 554.034 L12037.9 657.737 L11996.1 657.737 L12022.6 554.034 L12022.6 498.294 Z" fill="#000000" fill-rule="evenodd" fill-opacity="1" /><path clip-path="url(#clip6700)" d="M 0 0 M12367.1 96.768 L12432.6 96.768 L12432.6 546.904 Q12432.6 634.404 12399.2 673.941 Q12366.1 713.478 12292.6 713.478 L12267.6 713.478 L12267.6 658.385 L12288 658.385 Q12331.5 658.385 12349.3 634.08 Q12367.1 609.775 12367.1 546.904 L12367.1 96.768 Z" fill="#000000" fill-rule="evenodd" fill-opacity="1" /><path clip-path="url(#clip6700)" d="M 0 0 M12770.9 690.793 L12770.9 737.135 L12426.1 737.135 L12426.1 690.793 L12770.9 690.793 Z" fill="#000000" fill-rule="evenodd" fill-opacity="1" /><path clip-path="url(#clip6700)" d="M 0 0 M12981.9 139.87 Q12931.3 139.87 12905.7 189.777 Q12880.5 239.36 12880.5 339.174 Q12880.5 438.664 12905.7 488.571 Q12931.3 538.155 12981.9 538.155 Q13032.8 538.155 13058 488.571 Q13083.6 438.664 13083.6 339.174 Q13083.6 239.36 13058 189.777 Q13032.8 139.87 12981.9 139.87 M12981.9 88.018 Q13063.2 88.018 13106 152.508 Q13149.1 216.675 13149.1 339.174 Q13149.1 461.349 13106 525.84 Q13063.2 590.006 12981.9 590.006 Q12900.5 590.006 12857.4 525.84 Q12814.7 461.349 12814.7 339.174 Q12814.7 216.675 12857.4 152.508 Q12900.5 88.018 12981.9 88.018 Z" fill="#000000" fill-rule="evenodd" fill-opacity="1" /><path clip-path="url(#clip6700)" d="M 0 0 M13430.4 279.221 L13845.9 279.221 L13845.9 333.665 L13430.4 333.665 L13430.4 279.221 M13430.4 411.442 L13845.9 411.442 L13845.9 466.535 L13430.4 466.535 L13430.4 411.442 Z" fill="#000000" fill-rule="evenodd" fill-opacity="1" /><path clip-path="url(#clip6700)" d="M 0 0 M14139.1 525.516 L14246.1 525.516 L14246.1 156.397 L14129.8 179.731 L14129.8 120.101 L14245.4 96.768 L14310.9 96.768 L14310.9 525.516 L14417.9 525.516 L14417.9 580.608 L14139.1 580.608 L14139.1 525.516 Z" fill="#000000" fill-rule="evenodd" fill-opacity="1" /><path clip-path="url(#clip6700)" d="M 0 0 M14488.8 498.294 L14557.2 498.294 L14557.2 580.608 L14488.8 580.608 L14488.8 498.294 Z" fill="#000000" fill-rule="evenodd" fill-opacity="1" /><path clip-path="url(#clip6700)" d="M 0 0 M14768.2 139.87 Q14717.6 139.87 14692 189.777 Q14666.7 239.36 14666.7 339.174 Q14666.7 438.664 14692 488.571 Q14717.6 538.155 14768.2 538.155 Q14819.1 538.155 14844.3 488.571 Q14869.9 438.664 14869.9 339.174 Q14869.9 239.36 14844.3 189.777 Q14819.1 139.87 14768.2 139.87 M14768.2 88.018 Q14849.5 88.018 14892.3 152.508 Q14935.4 216.675 14935.4 339.174 Q14935.4 461.349 14892.3 525.84 Q14849.5 590.006 14768.2 590.006 Q14686.8 590.006 14643.7 525.84 Q14601 461.349 14601 339.174 Q14601 216.675 14643.7 152.508 Q14686.8 88.018 14768.2 88.018 Z" fill="#000000" fill-rule="evenodd" fill-opacity="1" /><path clip-path="url(#clip6700)" d="M 0 0 M10154.1 12068.2 L10475.7 12068.2 L10475.7 12111.5 L10340.8 12111.5 L10340.8 12448.4 L10289.1 12448.4 L10289.1 12111.5 L10154.1 12111.5 L10154.1 12068.2 Z" fill="#000000" fill-rule="evenodd" fill-opacity="1" /><path clip-path="url(#clip6700)" d="M 0 0 M323.873 6855.64 L323.873 6615.27 L367.16 6615.27 L367.16 6804.21 L479.706 6804.21 L479.706 6623.17 L522.993 6623.17 L522.993 6804.21 L660.746 6804.21 L660.746 6610.69 L704.033 6610.69 L704.033 6855.64 L323.873 6855.64 Z" fill="#000000" fill-rule="evenodd" fill-opacity="1" /><path clip-path="url(#clip6700)" d="M 0 0 M790.607 6344.86 L827.019 6344.86 L827.019 6615.78 L790.607 6615.78 L790.607 6344.86 Z" fill="#000000" fill-rule="evenodd" fill-opacity="1" /><path clip-path="url(#clip6700)" d="M 0 0 M427.252 6113.91 L471.558 6113.91 Q461.373 6133.77 456.28 6155.16 Q451.187 6176.55 451.187 6199.47 Q451.187 6234.35 461.882 6251.92 Q472.576 6269.23 493.965 6269.23 Q510.261 6269.23 519.682 6256.76 Q528.849 6244.28 537.252 6206.6 L540.817 6190.55 Q551.511 6140.65 571.117 6119.77 Q590.469 6098.63 625.353 6098.63 Q665.075 6098.63 688.246 6130.21 Q711.417 6161.53 711.417 6216.53 Q711.417 6239.44 706.834 6264.4 Q702.505 6289.1 693.594 6316.6 L645.214 6316.6 Q658.709 6290.62 665.584 6265.42 Q672.205 6240.21 672.205 6215.51 Q672.205 6182.41 661.001 6164.58 Q649.543 6146.76 628.918 6146.76 Q609.821 6146.76 599.636 6159.74 Q589.451 6172.48 580.029 6216.02 L576.21 6232.31 Q567.043 6275.86 548.201 6295.21 Q529.104 6314.56 496.002 6314.56 Q455.771 6314.56 433.873 6286.04 Q411.975 6257.52 411.975 6205.07 Q411.975 6179.1 415.794 6156.18 Q419.613 6133.26 427.252 6113.91 Z" fill="#000000" fill-rule="evenodd" fill-opacity="1" /><path clip-path="url(#clip6700)" d="M 0 0 M418.85 6049.49 L418.85 6002.64 L704.033 6002.64 L704.033 6049.49 L418.85 6049.49 M307.832 6049.49 L307.832 6002.64 L367.16 6002.64 L367.16 6049.49 L307.832 6049.49 Z" fill="#000000" fill-rule="evenodd" fill-opacity="1" /><path clip-path="url(#clip6700)" d="M 0 0 M337.878 5907.15 L418.85 5907.15 L418.85 5810.65 L455.261 5810.65 L455.261 5907.15 L610.075 5907.15 Q644.96 5907.15 654.89 5897.73 Q664.821 5888.06 664.821 5858.77 L664.821 5810.65 L704.033 5810.65 L704.033 5858.77 Q704.033 5913.01 683.918 5933.63 Q663.547 5954.26 610.075 5954.26 L455.261 5954.26 L455.261 5988.63 L418.85 5988.63 L418.85 5954.26 L337.878 5954.26 L337.878 5907.15 Z" fill="#000000" fill-rule="evenodd" fill-opacity="1" /><path clip-path="url(#clip6700)" d="M 0 0 M549.729 5517.57 L572.645 5517.57 L572.645 5732.99 Q621.024 5729.93 646.487 5703.96 Q671.695 5677.73 671.695 5631.14 Q671.695 5604.15 665.075 5578.94 Q658.455 5553.47 645.214 5528.52 L689.519 5528.52 Q700.214 5553.73 705.816 5580.21 Q711.417 5606.69 711.417 5633.94 Q711.417 5702.18 671.695 5742.15 Q631.973 5781.88 564.242 5781.88 Q494.22 5781.88 453.224 5744.19 Q411.975 5706.25 411.975 5642.09 Q411.975 5584.54 449.15 5551.18 Q486.071 5517.57 549.729 5517.57 M535.979 5564.42 Q497.53 5564.93 474.613 5586.07 Q451.697 5606.95 451.697 5641.58 Q451.697 5680.79 473.849 5704.47 Q496.002 5727.9 536.233 5731.46 L535.979 5564.42 Z" fill="#000000" fill-rule="evenodd" fill-opacity="1" /><polyline clip-path="url(#clip6702)" style="stroke:#009af9; stroke-width:32; stroke-opacity:1; fill:none" points="
  2289.35,11091.2 2616.93,11089.7 2944.5,11090 3272.08,11090 3599.65,11090.3 3927.23,11089.5 4254.8,11089.2 4582.38,11084.6 4909.95,11083.8 5237.53,11083.2 
  5565.1,11088 5892.67,11081.8 6220.25,11060.2 6547.82,11048.6 6875.4,11066.9 7202.97,11063.8 7530.55,11063.2 7858.12,11066.4 8185.7,11036.4 8513.27,11028.2 
  8840.85,11027.9 9168.42,11016.9 9496,10995.2 9823.57,10956 10151.1,10969.1 10478.7,10891.7 10806.3,10907.3 11133.9,10861.2 11461.4,10893.5 11789,10842.1 
  12116.6,10785.7 12444.2,10624.6 12771.7,10699.7 13099.3,10567.5 13426.9,10683.4 13754.5,10471.9 14082,10523.5 14409.6,10469.5 14737.2,10379.5 15064.8,10244.4 
  15392.3,10071.4 15719.9,9681.78 16047.5,9801.04 16375.1,9768.48 16702.6,9632.9 17030.2,9542.21 17357.8,9196.16 17685.4,8839.72 18012.9,8278.73 18340.5,8524.1 
  
  "/>
<polyline clip-path="url(#clip6702)" style="stroke:#e26f46; stroke-width:32; stroke-opacity:1; fill:none" points="
  2289.35,11086 2616.93,11085.5 2944.5,11084.1 3272.08,11085.5 3599.65,11082.9 3927.23,11084.9 4254.8,11081 4582.38,11062.3 4909.95,11061.6 5237.53,11062.4 
  5565.1,11050.3 5892.67,11066.4 6220.25,11044.1 6547.82,11043.8 6875.4,11058.6 7202.97,11008.1 7530.55,11023.6 7858.12,10994.9 8185.7,10974 8513.27,10927.3 
  8840.85,10972.1 9168.42,10915.1 9496,10858.5 9823.57,10850.8 10151.1,10826 10478.7,10863.9 10806.3,10773.2 11133.9,10756.1 11461.4,10629.7 11789,10516.7 
  12116.6,10528.1 12444.2,10476.1 12771.7,10382.6 13099.3,10243.4 13426.9,10270.3 13754.5,10227.5 14082,10159.1 14409.6,9975.52 14737.2,9617.96 15064.8,9656.7 
  15392.3,9260.25 15719.9,9391.59 16047.5,8983.67 16375.1,8787.73 16702.6,8787.19 17030.2,7531.06 17357.8,6282.95 17685.4,6885.82 18012.9,5066.46 18340.5,5059.44 
  
  "/>
<polyline clip-path="url(#clip6702)" style="stroke:#3da44d; stroke-width:32; stroke-opacity:1; fill:none" points="
  2289.35,11060.7 2616.93,11033 2944.5,11011 3272.08,11028 3599.65,10998.4 3927.23,11006.4 4254.8,10933.4 4582.38,10951.5 4909.95,10835.6 5237.53,10891.9 
  5565.1,10888 5892.67,10881.3 6220.25,10807.4 6547.82,10785.3 6875.4,10746.5 7202.97,10653.1 7530.55,10668.8 7858.12,10537.1 8185.7,10190 8513.27,9751.56 
  8840.85,9863.81 9168.42,9541.81 9496,9596.96 9823.57,9274.39 10151.1,9259.25 10478.7,9140.13 10806.3,8821.77 11133.9,8458.59 11461.4,8435.15 11789,9293.06 
  12116.6,8837.01 12444.2,7195.65 12771.7,7337.11 13099.3,6814.3 13426.9,6874.15 13754.5,6137.04 14082,5632.9 14409.6,5654.81 14737.2,4992.19 15064.8,4552.38 
  15392.3,5607.25 15719.9,4610.41 16047.5,3439.02 16375.1,2887.65 16702.6,2877.53 17030.2,2452.19 17357.8,2265 17685.4,1535.19 18012.9,1336.41 18340.5,1282.05 
  
  "/>
<polyline clip-path="url(#clip6702)" style="stroke:#c271d2; stroke-width:32; stroke-opacity:1; fill:none" points="
  2289.35,9449.73 2616.93,9242.53 2944.5,9226.59 3272.08,9097.26 3599.65,8929.56 3927.23,8846.81 4254.8,8811.67 4582.38,8732.66 4909.95,8493.41 5237.53,8535.23 
  5565.1,8397.89 5892.67,8332.82 6220.25,8194.12 6547.82,8193.38 6875.4,7948.61 7202.97,7939.83 7530.55,7876.88 7858.12,7802.29 8185.7,7764.87 8513.27,7595.23 
  8840.85,7588.69 9168.42,7494.74 9496,7507.24 9823.57,7277.19 10151.1,7121.64 10478.7,7187.01 10806.3,7119.4 11133.9,6831.42 11461.4,6709.59 11789,6823.33 
  12116.6,6581.45 12444.2,6715.82 12771.7,6410.78 13099.3,6339.79 13426.9,6273.23 13754.5,5934.54 14082,6025.02 14409.6,5924.33 14737.2,5705.93 15064.8,5382.74 
  15392.3,5248.07 15719.9,5068.51 16047.5,4955.65 16375.1,4901.65 16702.6,4529.96 17030.2,4513.16 17357.8,4608.31 17685.4,3999.73 18012.9,3887.96 18340.5,3771.76 
  
  "/>
<polyline clip-path="url(#clip6702)" style="stroke:#ac8d18; stroke-width:32; stroke-opacity:1; fill:none" points="
  2289.35,10935.8 2616.93,10881 2944.5,10875.6 3272.08,10883.1 3599.65,10869.2 3927.23,10820.6 4254.8,10812.3 4582.38,10794.1 4909.95,10788.3 5237.53,10778.4 
  5565.1,10733.4 5892.67,10702.7 6220.25,10655.2 6547.82,10654 6875.4,10587.2 7202.97,10549.2 7530.55,10562.3 7858.12,10482.9 8185.7,10439.3 8513.27,10451.9 
  8840.85,10454.7 9168.42,10369.3 9496,10316.2 9823.57,10262.1 10151.1,10226.6 10478.7,10175 10806.3,10110.5 11133.9,10107 11461.4,10132 11789,9968.68 
  12116.6,9852.7 12444.2,9885.68 12771.7,9735.64 13099.3,9733.43 13426.9,9560.66 13754.5,9570.28 14082,9421.73 14409.6,9448.45 14737.2,9425.79 15064.8,9180.28 
  15392.3,9074.05 15719.9,9100.84 16047.5,9091 16375.1,8929.06 16702.6,8917.52 17030.2,8739.9 17357.8,8698.65 17685.4,8553.45 18012.9,8515.27 18340.5,8250.02 
  
  "/>
<path clip-path="url(#clip6700)" d="
M2383.82 4558.98 L5835.85 4558.98 L5835.85 1655.94 L2383.82 1655.94  Z
  " fill="#ffffff" fill-rule="evenodd" fill-opacity="1"/>
<polyline clip-path="url(#clip6700)" style="stroke:#000000; stroke-width:32; stroke-opacity:1; fill:none" points="
  2383.82,4558.98 5835.85,4558.98 5835.85,1655.94 2383.82,1655.94 2383.82,4558.98 
  "/>
<polyline clip-path="url(#clip6700)" style="stroke:#009af9; stroke-width:32; stroke-opacity:1; fill:none" points="
  2575.82,2139.78 3727.82,2139.78 
  "/>
<path clip-path="url(#clip6700)" d="M 0 0 M3976.67 2001.54 L4014.08 2001.54 L4014.08 2258.76 Q4014.08 2308.76 3995 2331.35 Q3976.11 2353.94 3934.08 2353.94 L3919.82 2353.94 L3919.82 2322.46 L3931.49 2322.46 Q3956.3 2322.46 3966.49 2308.57 Q3976.67 2294.68 3976.67 2258.76 L3976.67 2001.54 Z" fill="#000000" fill-rule="evenodd" fill-opacity="1" /><path clip-path="url(#clip6700)" d="M 0 0 M4061.11 2246.54 L4122.23 2246.54 L4122.23 2035.61 L4055.74 2048.94 L4055.74 2014.87 L4121.85 2001.54 L4159.26 2001.54 L4159.26 2246.54 L4220.37 2246.54 L4220.37 2278.02 L4061.11 2278.02 L4061.11 2246.54 Z" fill="#000000" fill-rule="evenodd" fill-opacity="1" /><path clip-path="url(#clip6700)" d="M 0 0 M4381.11 2105.8 L4618.52 2105.8 L4618.52 2136.91 L4381.11 2136.91 L4381.11 2105.8 M4381.11 2181.35 L4618.52 2181.35 L4618.52 2212.83 L4381.11 2212.83 L4381.11 2181.35 Z" fill="#000000" fill-rule="evenodd" fill-opacity="1" /><path clip-path="url(#clip6700)" d="M 0 0 M4859.63 2026.17 Q4830.74 2026.17 4816.11 2054.68 Q4801.67 2083.02 4801.67 2140.05 Q4801.67 2196.91 4816.11 2225.42 Q4830.74 2253.76 4859.63 2253.76 Q4888.7 2253.76 4903.15 2225.42 Q4917.78 2196.91 4917.78 2140.05 Q4917.78 2083.02 4903.15 2054.68 Q4888.7 2026.17 4859.63 2026.17 M4859.63 1996.54 Q4906.11 1996.54 4930.55 2033.39 Q4955.18 2070.06 4955.18 2140.05 Q4955.18 2209.87 4930.55 2246.72 Q4906.11 2283.39 4859.63 2283.39 Q4813.15 2283.39 4788.52 2246.72 Q4764.07 2209.87 4764.07 2140.05 Q4764.07 2070.06 4788.52 2033.39 Q4813.15 1996.54 4859.63 1996.54 Z" fill="#000000" fill-rule="evenodd" fill-opacity="1" /><path clip-path="url(#clip6700)" d="M 0 0 M4995.74 2230.98 L5034.81 2230.98 L5034.81 2278.02 L4995.74 2278.02 L4995.74 2230.98 Z" fill="#000000" fill-rule="evenodd" fill-opacity="1" /><path clip-path="url(#clip6700)" d="M 0 0 M5155.37 2026.17 Q5126.48 2026.17 5111.85 2054.68 Q5097.41 2083.02 5097.41 2140.05 Q5097.41 2196.91 5111.85 2225.42 Q5126.48 2253.76 5155.37 2253.76 Q5184.44 2253.76 5198.89 2225.42 Q5213.52 2196.91 5213.52 2140.05 Q5213.52 2083.02 5198.89 2054.68 Q5184.44 2026.17 5155.37 2026.17 M5155.37 1996.54 Q5201.85 1996.54 5226.29 2033.39 Q5250.92 2070.06 5250.92 2140.05 Q5250.92 2209.87 5226.29 2246.72 Q5201.85 2283.39 5155.37 2283.39 Q5108.89 2283.39 5084.26 2246.72 Q5059.81 2209.87 5059.81 2140.05 Q5059.81 2070.06 5084.26 2033.39 Q5108.89 1996.54 5155.37 1996.54 Z" fill="#000000" fill-rule="evenodd" fill-opacity="1" /><polyline clip-path="url(#clip6700)" style="stroke:#e26f46; stroke-width:32; stroke-opacity:1; fill:none" points="
  2575.82,2623.62 3727.82,2623.62 
  "/>
<path clip-path="url(#clip6700)" d="M 0 0 M3976.67 2485.38 L4014.08 2485.38 L4014.08 2742.6 Q4014.08 2792.6 3995 2815.19 Q3976.11 2837.78 3934.08 2837.78 L3919.82 2837.78 L3919.82 2806.3 L3931.49 2806.3 Q3956.3 2806.3 3966.49 2792.41 Q3976.67 2778.52 3976.67 2742.6 L3976.67 2485.38 Z" fill="#000000" fill-rule="evenodd" fill-opacity="1" /><path clip-path="url(#clip6700)" d="M 0 0 M4061.11 2730.38 L4122.23 2730.38 L4122.23 2519.45 L4055.74 2532.78 L4055.74 2498.71 L4121.85 2485.38 L4159.26 2485.38 L4159.26 2730.38 L4220.37 2730.38 L4220.37 2761.86 L4061.11 2761.86 L4061.11 2730.38 Z" fill="#000000" fill-rule="evenodd" fill-opacity="1" /><path clip-path="url(#clip6700)" d="M 0 0 M4381.11 2589.64 L4618.52 2589.64 L4618.52 2620.75 L4381.11 2620.75 L4381.11 2589.64 M4381.11 2665.19 L4618.52 2665.19 L4618.52 2696.67 L4381.11 2696.67 L4381.11 2665.19 Z" fill="#000000" fill-rule="evenodd" fill-opacity="1" /><path clip-path="url(#clip6700)" d="M 0 0 M4859.63 2510.01 Q4830.74 2510.01 4816.11 2538.52 Q4801.67 2566.86 4801.67 2623.89 Q4801.67 2680.75 4816.11 2709.26 Q4830.74 2737.6 4859.63 2737.6 Q4888.7 2737.6 4903.15 2709.26 Q4917.78 2680.75 4917.78 2623.89 Q4917.78 2566.86 4903.15 2538.52 Q4888.7 2510.01 4859.63 2510.01 M4859.63 2480.38 Q4906.11 2480.38 4930.55 2517.23 Q4955.18 2553.9 4955.18 2623.89 Q4955.18 2693.71 4930.55 2730.56 Q4906.11 2767.23 4859.63 2767.23 Q4813.15 2767.23 4788.52 2730.56 Q4764.07 2693.71 4764.07 2623.89 Q4764.07 2553.9 4788.52 2517.23 Q4813.15 2480.38 4859.63 2480.38 Z" fill="#000000" fill-rule="evenodd" fill-opacity="1" /><path clip-path="url(#clip6700)" d="M 0 0 M4995.74 2714.82 L5034.81 2714.82 L5034.81 2761.86 L4995.74 2761.86 L4995.74 2714.82 Z" fill="#000000" fill-rule="evenodd" fill-opacity="1" /><path clip-path="url(#clip6700)" d="M 0 0 M5107.59 2730.38 L5238.15 2730.38 L5238.15 2761.86 L5062.59 2761.86 L5062.59 2730.38 Q5083.89 2708.34 5120.55 2671.3 Q5157.4 2634.08 5166.85 2623.34 Q5184.81 2603.15 5191.85 2589.27 Q5199.07 2575.19 5199.07 2561.67 Q5199.07 2539.64 5183.52 2525.75 Q5168.15 2511.86 5143.33 2511.86 Q5125.74 2511.86 5106.11 2517.97 Q5086.66 2524.08 5064.44 2536.49 L5064.44 2498.71 Q5087.03 2489.64 5106.66 2485.01 Q5126.29 2480.38 5142.59 2480.38 Q5185.55 2480.38 5211.11 2501.86 Q5236.66 2523.34 5236.66 2559.27 Q5236.66 2576.3 5230.18 2591.67 Q5223.89 2606.86 5207.03 2627.6 Q5202.4 2632.97 5177.59 2658.71 Q5152.78 2684.26 5107.59 2730.38 Z" fill="#000000" fill-rule="evenodd" fill-opacity="1" /><path clip-path="url(#clip6700)" d="M 0 0 M5279.07 2485.38 L5425.92 2485.38 L5425.92 2516.86 L5313.33 2516.86 L5313.33 2584.64 Q5321.48 2581.86 5329.63 2580.56 Q5337.77 2579.08 5345.92 2579.08 Q5392.22 2579.08 5419.26 2604.45 Q5446.29 2629.82 5446.29 2673.15 Q5446.29 2717.78 5418.51 2742.6 Q5390.74 2767.23 5340.18 2767.23 Q5322.77 2767.23 5304.63 2764.26 Q5286.66 2761.3 5267.4 2755.38 L5267.4 2717.78 Q5284.07 2726.86 5301.85 2731.3 Q5319.63 2735.75 5339.44 2735.75 Q5371.48 2735.75 5390.18 2718.89 Q5408.88 2702.04 5408.88 2673.15 Q5408.88 2644.27 5390.18 2627.41 Q5371.48 2610.56 5339.44 2610.56 Q5324.44 2610.56 5309.44 2613.89 Q5294.63 2617.23 5279.07 2624.27 L5279.07 2485.38 Z" fill="#000000" fill-rule="evenodd" fill-opacity="1" /><polyline clip-path="url(#clip6700)" style="stroke:#3da44d; stroke-width:32; stroke-opacity:1; fill:none" points="
  2575.82,3107.46 3727.82,3107.46 
  "/>
<path clip-path="url(#clip6700)" d="M 0 0 M3976.67 2969.22 L4014.08 2969.22 L4014.08 3226.44 Q4014.08 3276.44 3995 3299.03 Q3976.11 3321.62 3934.08 3321.62 L3919.82 3321.62 L3919.82 3290.14 L3931.49 3290.14 Q3956.3 3290.14 3966.49 3276.25 Q3976.67 3262.36 3976.67 3226.44 L3976.67 2969.22 Z" fill="#000000" fill-rule="evenodd" fill-opacity="1" /><path clip-path="url(#clip6700)" d="M 0 0 M4061.11 3214.22 L4122.23 3214.22 L4122.23 3003.29 L4055.74 3016.62 L4055.74 2982.55 L4121.85 2969.22 L4159.26 2969.22 L4159.26 3214.22 L4220.37 3214.22 L4220.37 3245.7 L4061.11 3245.7 L4061.11 3214.22 Z" fill="#000000" fill-rule="evenodd" fill-opacity="1" /><path clip-path="url(#clip6700)" d="M 0 0 M4381.11 3073.48 L4618.52 3073.48 L4618.52 3104.59 L4381.11 3104.59 L4381.11 3073.48 M4381.11 3149.03 L4618.52 3149.03 L4618.52 3180.51 L4381.11 3180.51 L4381.11 3149.03 Z" fill="#000000" fill-rule="evenodd" fill-opacity="1" /><path clip-path="url(#clip6700)" d="M 0 0 M4859.63 2993.85 Q4830.74 2993.85 4816.11 3022.36 Q4801.67 3050.7 4801.67 3107.73 Q4801.67 3164.59 4816.11 3193.1 Q4830.74 3221.44 4859.63 3221.44 Q4888.7 3221.44 4903.15 3193.1 Q4917.78 3164.59 4917.78 3107.73 Q4917.78 3050.7 4903.15 3022.36 Q4888.7 2993.85 4859.63 2993.85 M4859.63 2964.22 Q4906.11 2964.22 4930.55 3001.07 Q4955.18 3037.74 4955.18 3107.73 Q4955.18 3177.55 4930.55 3214.4 Q4906.11 3251.07 4859.63 3251.07 Q4813.15 3251.07 4788.52 3214.4 Q4764.07 3177.55 4764.07 3107.73 Q4764.07 3037.74 4788.52 3001.07 Q4813.15 2964.22 4859.63 2964.22 Z" fill="#000000" fill-rule="evenodd" fill-opacity="1" /><path clip-path="url(#clip6700)" d="M 0 0 M4995.74 3198.66 L5034.81 3198.66 L5034.81 3245.7 L4995.74 3245.7 L4995.74 3198.66 Z" fill="#000000" fill-rule="evenodd" fill-opacity="1" /><path clip-path="url(#clip6700)" d="M 0 0 M5075.74 2969.22 L5222.59 2969.22 L5222.59 3000.7 L5110 3000.7 L5110 3068.48 Q5118.15 3065.7 5126.29 3064.4 Q5134.44 3062.92 5142.59 3062.92 Q5188.89 3062.92 5215.92 3088.29 Q5242.96 3113.66 5242.96 3156.99 Q5242.96 3201.62 5215.18 3226.44 Q5187.4 3251.07 5136.85 3251.07 Q5119.44 3251.07 5101.29 3248.1 Q5083.33 3245.14 5064.07 3239.22 L5064.07 3201.62 Q5080.74 3210.7 5098.52 3215.14 Q5116.29 3219.59 5136.11 3219.59 Q5168.15 3219.59 5186.85 3202.73 Q5205.55 3185.88 5205.55 3156.99 Q5205.55 3128.11 5186.85 3111.25 Q5168.15 3094.4 5136.11 3094.4 Q5121.11 3094.4 5106.11 3097.73 Q5091.29 3101.07 5075.74 3108.11 L5075.74 2969.22 Z" fill="#000000" fill-rule="evenodd" fill-opacity="1" /><polyline clip-path="url(#clip6700)" style="stroke:#c271d2; stroke-width:32; stroke-opacity:1; fill:none" points="
  2575.82,3591.3 3727.82,3591.3 
  "/>
<path clip-path="url(#clip6700)" d="M 0 0 M3976.67 3453.06 L4014.08 3453.06 L4014.08 3710.28 Q4014.08 3760.28 3995 3782.87 Q3976.11 3805.46 3934.08 3805.46 L3919.82 3805.46 L3919.82 3773.98 L3931.49 3773.98 Q3956.3 3773.98 3966.49 3760.09 Q3976.67 3746.2 3976.67 3710.28 L3976.67 3453.06 Z" fill="#000000" fill-rule="evenodd" fill-opacity="1" /><path clip-path="url(#clip6700)" d="M 0 0 M4061.11 3698.06 L4122.23 3698.06 L4122.23 3487.13 L4055.74 3500.46 L4055.74 3466.39 L4121.85 3453.06 L4159.26 3453.06 L4159.26 3698.06 L4220.37 3698.06 L4220.37 3729.54 L4061.11 3729.54 L4061.11 3698.06 Z" fill="#000000" fill-rule="evenodd" fill-opacity="1" /><path clip-path="url(#clip6700)" d="M 0 0 M4381.11 3557.32 L4618.52 3557.32 L4618.52 3588.43 L4381.11 3588.43 L4381.11 3557.32 M4381.11 3632.87 L4618.52 3632.87 L4618.52 3664.35 L4381.11 3664.35 L4381.11 3632.87 Z" fill="#000000" fill-rule="evenodd" fill-opacity="1" /><path clip-path="url(#clip6700)" d="M 0 0 M4859.63 3477.69 Q4830.74 3477.69 4816.11 3506.2 Q4801.67 3534.54 4801.67 3591.57 Q4801.67 3648.43 4816.11 3676.94 Q4830.74 3705.28 4859.63 3705.28 Q4888.7 3705.28 4903.15 3676.94 Q4917.78 3648.43 4917.78 3591.57 Q4917.78 3534.54 4903.15 3506.2 Q4888.7 3477.69 4859.63 3477.69 M4859.63 3448.06 Q4906.11 3448.06 4930.55 3484.91 Q4955.18 3521.58 4955.18 3591.57 Q4955.18 3661.39 4930.55 3698.24 Q4906.11 3734.91 4859.63 3734.91 Q4813.15 3734.91 4788.52 3698.24 Q4764.07 3661.39 4764.07 3591.57 Q4764.07 3521.58 4788.52 3484.91 Q4813.15 3448.06 4859.63 3448.06 Z" fill="#000000" fill-rule="evenodd" fill-opacity="1" /><path clip-path="url(#clip6700)" d="M 0 0 M4995.74 3682.5 L5034.81 3682.5 L5034.81 3729.54 L4995.74 3729.54 L4995.74 3682.5 Z" fill="#000000" fill-rule="evenodd" fill-opacity="1" /><path clip-path="url(#clip6700)" d="M 0 0 M5065.92 3453.06 L5243.7 3453.06 L5243.7 3468.98 L5143.33 3729.54 L5104.26 3729.54 L5198.7 3484.54 L5065.92 3484.54 L5065.92 3453.06 Z" fill="#000000" fill-rule="evenodd" fill-opacity="1" /><path clip-path="url(#clip6700)" d="M 0 0 M5284.63 3453.06 L5431.48 3453.06 L5431.48 3484.54 L5318.89 3484.54 L5318.89 3552.32 Q5327.03 3549.54 5335.18 3548.24 Q5343.33 3546.76 5351.48 3546.76 Q5397.77 3546.76 5424.81 3572.13 Q5451.85 3597.5 5451.85 3640.83 Q5451.85 3685.46 5424.07 3710.28 Q5396.29 3734.91 5345.74 3734.91 Q5328.33 3734.91 5310.18 3731.94 Q5292.22 3728.98 5272.96 3723.06 L5272.96 3685.46 Q5289.63 3694.54 5307.4 3698.98 Q5325.18 3703.43 5345 3703.43 Q5377.03 3703.43 5395.74 3686.57 Q5414.44 3669.72 5414.44 3640.83 Q5414.44 3611.95 5395.74 3595.09 Q5377.03 3578.24 5345 3578.24 Q5330 3578.24 5315 3581.57 Q5300.18 3584.91 5284.63 3591.95 L5284.63 3453.06 Z" fill="#000000" fill-rule="evenodd" fill-opacity="1" /><polyline clip-path="url(#clip6700)" style="stroke:#ac8d18; stroke-width:32; stroke-opacity:1; fill:none" points="
  2575.82,4075.14 3727.82,4075.14 
  "/>
<path clip-path="url(#clip6700)" d="M 0 0 M3976.67 3936.9 L4014.08 3936.9 L4014.08 4194.12 Q4014.08 4244.12 3995 4266.71 Q3976.11 4289.3 3934.08 4289.3 L3919.82 4289.3 L3919.82 4257.82 L3931.49 4257.82 Q3956.3 4257.82 3966.49 4243.93 Q3976.67 4230.04 3976.67 4194.12 L3976.67 3936.9 Z" fill="#000000" fill-rule="evenodd" fill-opacity="1" /><path clip-path="url(#clip6700)" d="M 0 0 M4061.11 4181.9 L4122.23 4181.9 L4122.23 3970.97 L4055.74 3984.3 L4055.74 3950.23 L4121.85 3936.9 L4159.26 3936.9 L4159.26 4181.9 L4220.37 4181.9 L4220.37 4213.38 L4061.11 4213.38 L4061.11 4181.9 Z" fill="#000000" fill-rule="evenodd" fill-opacity="1" /><path clip-path="url(#clip6700)" d="M 0 0 M4381.11 4041.16 L4618.52 4041.16 L4618.52 4072.27 L4381.11 4072.27 L4381.11 4041.16 M4381.11 4116.71 L4618.52 4116.71 L4618.52 4148.19 L4381.11 4148.19 L4381.11 4116.71 Z" fill="#000000" fill-rule="evenodd" fill-opacity="1" /><path clip-path="url(#clip6700)" d="M 0 0 M4786.11 4181.9 L4847.22 4181.9 L4847.22 3970.97 L4780.74 3984.3 L4780.74 3950.23 L4846.85 3936.9 L4884.26 3936.9 L4884.26 4181.9 L4945.37 4181.9 L4945.37 4213.38 L4786.11 4213.38 L4786.11 4181.9 Z" fill="#000000" fill-rule="evenodd" fill-opacity="1" /><path clip-path="url(#clip6700)" d="M 0 0 M4985.92 4166.34 L5025 4166.34 L5025 4213.38 L4985.92 4213.38 L4985.92 4166.34 Z" fill="#000000" fill-rule="evenodd" fill-opacity="1" /><path clip-path="url(#clip6700)" d="M 0 0 M5145.55 3961.53 Q5116.66 3961.53 5102.03 3990.04 Q5087.59 4018.38 5087.59 4075.41 Q5087.59 4132.27 5102.03 4160.78 Q5116.66 4189.12 5145.55 4189.12 Q5174.63 4189.12 5189.07 4160.78 Q5203.7 4132.27 5203.7 4075.41 Q5203.7 4018.38 5189.07 3990.04 Q5174.63 3961.53 5145.55 3961.53 M5145.55 3931.9 Q5192.03 3931.9 5216.48 3968.75 Q5241.11 4005.42 5241.11 4075.41 Q5241.11 4145.23 5216.48 4182.08 Q5192.03 4218.75 5145.55 4218.75 Q5099.07 4218.75 5074.44 4182.08 Q5050 4145.23 5050 4075.41 Q5050 4005.42 5074.44 3968.75 Q5099.07 3931.9 5145.55 3931.9 Z" fill="#000000" fill-rule="evenodd" fill-opacity="1" /></svg>
