<?xml version="1.0" encoding="utf-8"?>
<svg xmlns="http://www.w3.org/2000/svg" xmlns:xlink="http://www.w3.org/1999/xlink" width="4800" height="3200" viewBox="0 0 19200 12800">
<defs>
  <clipPath id="clip2600">
    <rect x="0" y="0" width="19200" height="12800"/>
  </clipPath>
</defs>
<path clip-path="url(#clip2600)" d="
M0 12800 L19200 12800 L19200 0 L0 0  Z
  " fill="#ffffff" fill-rule="evenodd" fill-opacity="1"/>
<defs>
  <clipPath id="clip2601">
    <rect x="3840" y="0" width="13441" height="12800"/>
  </clipPath>
</defs>
<path clip-path="url(#clip2600)" d="
M1805.78 11385.4 L18822 11385.4 L18822 987.777 L1805.78 987.777  Z
  " fill="#ffffff" fill-rule="evenodd" fill-opacity="1"/>
<defs>
  <clipPath id="clip2602">
    <rect x="1805" y="987" width="17017" height="10399"/>
  </clipPath>
</defs>
<polyline clip-path="url(#clip2602)" style="stroke:#000000; stroke-width:16; stroke-opacity:0.1; fill:none" points="
  4580.67,11385.4 4580.67,987.777 
  "/>
<polyline clip-path="url(#clip2602)" style="stroke:#000000; stroke-width:16; stroke-opacity:0.1; fill:none" points="
  9167.27,11385.4 9167.27,987.777 
  "/>
<polyline clip-path="url(#clip2602)" style="stroke:#000000; stroke-width:16; stroke-opacity:0.1; fill:none" points="
  13753.9,11385.4 13753.9,987.777 
  "/>
<polyline clip-path="url(#clip2602)" style="stroke:#000000; stroke-width:16; stroke-opacity:0.1; fill:none" points="
  18340.5,11385.4 18340.5,987.777 
  "/>
<polyline clip-path="url(#clip2602)" style="stroke:#000000; stroke-width:16; stroke-opacity:0.1; fill:none" points="
  1805.78,11091.6 18822,11091.6 
  "/>
<polyline clip-path="url(#clip2602)" style="stroke:#000000; stroke-width:16; stroke-opacity:0.1; fill:none" points="
  1805.78,8181.02 18822,8181.02 
  "/>
<polyline clip-path="url(#clip2602)" style="stroke:#000000; stroke-width:16; stroke-opacity:0.1; fill:none" points="
  1805.78,5270.46 18822,5270.46 
  "/>
<polyline clip-path="url(#clip2602)" style="stroke:#000000; stroke-width:16; stroke-opacity:0.1; fill:none" points="
  1805.78,2359.9 18822,2359.9 
  "/>
<polyline clip-path="url(#clip2600)" style="stroke:#000000; stroke-width:32; stroke-opacity:1; fill:none" points="
  1805.78,11385.4 18822,11385.4 
  "/>
<polyline clip-path="url(#clip2600)" style="stroke:#000000; stroke-width:32; stroke-opacity:1; fill:none" points="
  1805.78,11385.4 1805.78,987.777 
  "/>
<polyline clip-path="url(#clip2600)" style="stroke:#000000; stroke-width:32; stroke-opacity:1; fill:none" points="
  4580.67,11385.4 4580.67,11260.7 
  "/>
<polyline clip-path="url(#clip2600)" style="stroke:#000000; stroke-width:32; stroke-opacity:1; fill:none" points="
  9167.27,11385.4 9167.27,11260.7 
  "/>
<polyline clip-path="url(#clip2600)" style="stroke:#000000; stroke-width:32; stroke-opacity:1; fill:none" points="
  13753.9,11385.4 13753.9,11260.7 
  "/>
<polyline clip-path="url(#clip2600)" style="stroke:#000000; stroke-width:32; stroke-opacity:1; fill:none" points="
  18340.5,11385.4 18340.5,11260.7 
  "/>
<polyline clip-path="url(#clip2600)" style="stroke:#000000; stroke-width:32; stroke-opacity:1; fill:none" points="
  1805.78,11091.6 2009.98,11091.6 
  "/>
<polyline clip-path="url(#clip2600)" style="stroke:#000000; stroke-width:32; stroke-opacity:1; fill:none" points="
  1805.78,8181.02 2009.98,8181.02 
  "/>
<polyline clip-path="url(#clip2600)" style="stroke:#000000; stroke-width:32; stroke-opacity:1; fill:none" points="
  1805.78,5270.46 2009.98,5270.46 
  "/>
<polyline clip-path="url(#clip2600)" style="stroke:#000000; stroke-width:32; stroke-opacity:1; fill:none" points="
  1805.78,2359.9 2009.98,2359.9 
  "/>
<path clip-path="url(#clip2600)" d="M 0 0 M4430.86 11561.4 Q4401.97 11561.4 4387.34 11589.9 Q4372.89 11618.2 4372.89 11675.3 Q4372.89 11732.1 4387.34 11760.6 Q4401.97 11789 4430.86 11789 Q4459.93 11789 4474.38 11760.6 Q4489.01 11732.1 4489.01 11675.3 Q4489.01 11618.2 4474.38 11589.9 Q4459.93 11561.4 4430.86 11561.4 M4430.86 11531.7 Q4477.34 11531.7 4501.78 11568.6 Q4526.41 11605.3 4526.41 11675.3 Q4526.41 11745.1 4501.78 11781.9 Q4477.34 11818.6 4430.86 11818.6 Q4384.38 11818.6 4359.75 11781.9 Q4335.3 11745.1 4335.3 11675.3 Q4335.3 11605.3 4359.75 11568.6 Q4384.38 11531.7 4430.86 11531.7 Z" fill="#000000" fill-rule="evenodd" fill-opacity="1" /><path clip-path="url(#clip2600)" d="M 0 0 M4566.97 11766.2 L4606.04 11766.2 L4606.04 11813.2 L4566.97 11813.2 L4566.97 11766.2 Z" fill="#000000" fill-rule="evenodd" fill-opacity="1" /><path clip-path="url(#clip2600)" d="M 0 0 M4749.37 11569.3 L4654.93 11716.9 L4749.37 11716.9 L4749.37 11569.3 M4739.56 11536.7 L4786.6 11536.7 L4786.6 11716.9 L4826.04 11716.9 L4826.04 11748 L4786.6 11748 L4786.6 11813.2 L4749.37 11813.2 L4749.37 11748 L4624.56 11748 L4624.56 11711.9 L4739.56 11536.7 Z" fill="#000000" fill-rule="evenodd" fill-opacity="1" /><path clip-path="url(#clip2600)" d="M 0 0 M9018.75 11561.4 Q8989.86 11561.4 8975.23 11589.9 Q8960.79 11618.2 8960.79 11675.3 Q8960.79 11732.1 8975.23 11760.6 Q8989.86 11789 9018.75 11789 Q9047.82 11789 9062.27 11760.6 Q9076.9 11732.1 9076.9 11675.3 Q9076.9 11618.2 9062.27 11589.9 Q9047.82 11561.4 9018.75 11561.4 M9018.75 11531.7 Q9065.23 11531.7 9089.67 11568.6 Q9114.3 11605.3 9114.3 11675.3 Q9114.3 11745.1 9089.67 11781.9 Q9065.23 11818.6 9018.75 11818.6 Q8972.27 11818.6 8947.64 11781.9 Q8923.19 11745.1 8923.19 11675.3 Q8923.19 11605.3 8947.64 11568.6 Q8972.27 11531.7 9018.75 11531.7 Z" fill="#000000" fill-rule="evenodd" fill-opacity="1" /><path clip-path="url(#clip2600)" d="M 0 0 M9154.86 11766.2 L9193.93 11766.2 L9193.93 11813.2 L9154.86 11813.2 L9154.86 11766.2 Z" fill="#000000" fill-rule="evenodd" fill-opacity="1" /><path clip-path="url(#clip2600)" d="M 0 0 M9319.12 11660.1 Q9293.93 11660.1 9279.12 11677.3 Q9264.49 11694.5 9264.49 11724.5 Q9264.49 11754.3 9279.12 11771.7 Q9293.93 11789 9319.12 11789 Q9344.3 11789 9358.93 11771.7 Q9373.75 11754.3 9373.75 11724.5 Q9373.75 11694.5 9358.93 11677.3 Q9344.3 11660.1 9319.12 11660.1 M9393.38 11542.8 L9393.38 11576.9 Q9379.3 11570.3 9364.86 11566.7 Q9350.6 11563.2 9336.52 11563.2 Q9299.49 11563.2 9279.86 11588.2 Q9260.41 11613.2 9257.64 11663.8 Q9268.56 11647.7 9285.04 11639.1 Q9301.52 11630.4 9321.34 11630.4 Q9363.01 11630.4 9387.08 11655.8 Q9411.34 11681 9411.34 11724.5 Q9411.34 11767.1 9386.15 11792.8 Q9360.97 11818.6 9319.12 11818.6 Q9271.15 11818.6 9245.78 11781.9 Q9220.41 11745.1 9220.41 11675.3 Q9220.41 11609.7 9251.52 11570.8 Q9282.64 11531.7 9335.04 11531.7 Q9349.12 11531.7 9363.38 11534.5 Q9377.82 11537.3 9393.38 11542.8 Z" fill="#000000" fill-rule="evenodd" fill-opacity="1" /><path clip-path="url(#clip2600)" d="M 0 0 M13606.4 11561.4 Q13577.5 11561.4 13562.8 11589.9 Q13548.4 11618.2 13548.4 11675.3 Q13548.4 11732.1 13562.8 11760.6 Q13577.5 11789 13606.4 11789 Q13635.4 11789 13649.9 11760.6 Q13664.5 11732.1 13664.5 11675.3 Q13664.5 11618.2 13649.9 11589.9 Q13635.4 11561.4 13606.4 11561.4 M13606.4 11531.7 Q13652.8 11531.7 13677.3 11568.6 Q13701.9 11605.3 13701.9 11675.3 Q13701.9 11745.1 13677.3 11781.9 Q13652.8 11818.6 13606.4 11818.6 Q13559.9 11818.6 13535.3 11781.9 Q13510.8 11745.1 13510.8 11675.3 Q13510.8 11605.3 13535.3 11568.6 Q13559.9 11531.7 13606.4 11531.7 Z" fill="#000000" fill-rule="evenodd" fill-opacity="1" /><path clip-path="url(#clip2600)" d="M 0 0 M13742.5 11766.2 L13781.5 11766.2 L13781.5 11813.2 L13742.5 11813.2 L13742.5 11766.2 Z" fill="#000000" fill-rule="evenodd" fill-opacity="1" /><path clip-path="url(#clip2600)" d="M 0 0 M13902.1 11681.9 Q13875.4 11681.9 13860.1 11696.2 Q13844.9 11710.4 13844.9 11735.4 Q13844.9 11760.4 13860.1 11774.7 Q13875.4 11789 13902.1 11789 Q13928.8 11789 13944.1 11774.7 Q13959.5 11760.3 13959.5 11735.4 Q13959.5 11710.4 13944.1 11696.2 Q13929 11681.9 13902.1 11681.9 M13864.7 11666 Q13840.6 11660.1 13827.1 11643.6 Q13813.8 11627.1 13813.8 11603.4 Q13813.8 11570.3 13837.3 11551 Q13861 11531.7 13902.1 11531.7 Q13943.4 11531.7 13966.9 11551 Q13990.4 11570.3 13990.4 11603.4 Q13990.4 11627.1 13976.9 11643.6 Q13963.6 11660.1 13939.7 11666 Q13966.7 11672.3 13981.7 11690.6 Q13996.9 11709 13996.9 11735.4 Q13996.9 11775.6 13972.3 11797.1 Q13947.8 11818.6 13902.1 11818.6 Q13856.4 11818.6 13831.7 11797.1 Q13807.3 11775.6 13807.3 11735.4 Q13807.3 11709 13822.5 11690.6 Q13837.7 11672.3 13864.7 11666 M13851 11606.9 Q13851 11628.4 13864.3 11640.4 Q13877.8 11652.5 13902.1 11652.5 Q13926.2 11652.5 13939.7 11640.4 Q13953.4 11628.4 13953.4 11606.9 Q13953.4 11585.4 13939.7 11573.4 Q13926.2 11561.4 13902.1 11561.4 Q13877.8 11561.4 13864.3 11573.4 Q13851 11585.4 13851 11606.9 Z" fill="#000000" fill-rule="evenodd" fill-opacity="1" /><path clip-path="url(#clip2600)" d="M 0 0 M18115.6 11781.7 L18176.8 11781.7 L18176.8 11570.8 L18110.3 11584.1 L18110.3 11550.1 L18176.4 11536.7 L18213.8 11536.7 L18213.8 11781.7 L18274.9 11781.7 L18274.9 11813.2 L18115.6 11813.2 L18115.6 11781.7 Z" fill="#000000" fill-rule="evenodd" fill-opacity="1" /><path clip-path="url(#clip2600)" d="M 0 0 M18315.5 11766.2 L18354.5 11766.2 L18354.5 11813.2 L18315.5 11813.2 L18315.5 11766.2 Z" fill="#000000" fill-rule="evenodd" fill-opacity="1" /><path clip-path="url(#clip2600)" d="M 0 0 M18475.1 11561.4 Q18446.2 11561.4 18431.6 11589.9 Q18417.1 11618.2 18417.1 11675.3 Q18417.1 11732.1 18431.6 11760.6 Q18446.2 11789 18475.1 11789 Q18504.2 11789 18518.6 11760.6 Q18533.2 11732.1 18533.2 11675.3 Q18533.2 11618.2 18518.6 11589.9 Q18504.2 11561.4 18475.1 11561.4 M18475.1 11531.7 Q18521.6 11531.7 18546 11568.6 Q18570.6 11605.3 18570.6 11675.3 Q18570.6 11745.1 18546 11781.9 Q18521.6 11818.6 18475.1 11818.6 Q18428.6 11818.6 18404 11781.9 Q18379.5 11745.1 18379.5 11675.3 Q18379.5 11605.3 18404 11568.6 Q18428.6 11531.7 18475.1 11531.7 Z" fill="#000000" fill-rule="evenodd" fill-opacity="1" /><path clip-path="url(#clip2600)" d="M 0 0 M1014.9 11110.8 L1114.71 11110.8 L1114.71 11141.1 L1014.9 11141.1 L1014.9 11110.8 Z" fill="#000000" fill-rule="evenodd" fill-opacity="1" /><path clip-path="url(#clip2600)" d="M 0 0 M1187.49 11198.3 L1318.04 11198.3 L1318.04 11229.8 L1142.49 11229.8 L1142.49 11198.3 Q1163.78 11176.3 1200.45 11139.3 Q1237.3 11102 1246.75 11091.3 Q1264.71 11071.1 1271.75 11057.2 Q1278.97 11043.2 1278.97 11029.6 Q1278.97 11007.6 1263.41 10993.7 Q1248.04 10979.8 1223.23 10979.8 Q1205.64 10979.8 1186.01 10985.9 Q1166.56 10992 1144.34 11004.5 L1144.34 10966.7 Q1166.93 10957.6 1186.56 10953 Q1206.19 10948.3 1222.49 10948.3 Q1265.45 10948.3 1291.01 10969.8 Q1316.56 10991.3 1316.56 11027.2 Q1316.56 11044.3 1310.08 11059.6 Q1303.78 11074.8 1286.93 11095.6 Q1282.3 11100.9 1257.49 11126.7 Q1232.67 11152.2 1187.49 11198.3 Z" fill="#000000" fill-rule="evenodd" fill-opacity="1" /><path clip-path="url(#clip2600)" d="M 0 0 M1358.6 11182.8 L1397.67 11182.8 L1397.67 11229.8 L1358.6 11229.8 L1358.6 11182.8 Z" fill="#000000" fill-rule="evenodd" fill-opacity="1" /><path clip-path="url(#clip2600)" d="M 0 0 M1518.23 10978 Q1489.34 10978 1474.71 11006.5 Q1460.26 11034.8 1460.26 11091.9 Q1460.26 11148.7 1474.71 11177.2 Q1489.34 11205.6 1518.23 11205.6 Q1547.3 11205.6 1561.74 11177.2 Q1576.37 11148.7 1576.37 11091.9 Q1576.37 11034.8 1561.74 11006.5 Q1547.3 10978 1518.23 10978 M1518.23 10948.3 Q1564.71 10948.3 1589.15 10985.2 Q1613.78 11021.9 1613.78 11091.9 Q1613.78 11161.7 1589.15 11198.5 Q1564.71 11235.2 1518.23 11235.2 Q1471.75 11235.2 1447.12 11198.5 Q1422.67 11161.7 1422.67 11091.9 Q1422.67 11021.9 1447.12 10985.2 Q1471.75 10948.3 1518.23 10948.3 Z" fill="#000000" fill-rule="evenodd" fill-opacity="1" /><path clip-path="url(#clip2600)" d="M 0 0 M1019.9 8200.19 L1119.71 8200.19 L1119.71 8230.56 L1019.9 8230.56 L1019.9 8200.19 Z" fill="#000000" fill-rule="evenodd" fill-opacity="1" /><path clip-path="url(#clip2600)" d="M 0 0 M1166.75 8287.78 L1227.86 8287.78 L1227.86 8076.86 L1161.38 8090.19 L1161.38 8056.12 L1227.49 8042.78 L1264.89 8042.78 L1264.89 8287.78 L1326.01 8287.78 L1326.01 8319.26 L1166.75 8319.26 L1166.75 8287.78 Z" fill="#000000" fill-rule="evenodd" fill-opacity="1" /><path clip-path="url(#clip2600)" d="M 0 0 M1366.56 8272.23 L1405.63 8272.23 L1405.63 8319.26 L1366.56 8319.26 L1366.56 8272.23 Z" fill="#000000" fill-rule="evenodd" fill-opacity="1" /><path clip-path="url(#clip2600)" d="M 0 0 M1446.56 8042.78 L1593.41 8042.78 L1593.41 8074.26 L1480.82 8074.26 L1480.82 8142.04 Q1488.97 8139.26 1497.12 8137.97 Q1505.26 8136.49 1513.41 8136.49 Q1559.71 8136.49 1586.74 8161.86 Q1613.78 8187.23 1613.78 8230.56 Q1613.78 8275.19 1586 8300 Q1558.23 8324.63 1507.67 8324.63 Q1490.26 8324.63 1472.12 8321.67 Q1454.15 8318.71 1434.89 8312.78 L1434.89 8275.19 Q1451.56 8284.26 1469.34 8288.71 Q1487.12 8293.15 1506.93 8293.15 Q1538.97 8293.15 1557.67 8276.3 Q1576.37 8259.45 1576.37 8230.56 Q1576.37 8201.67 1557.67 8184.82 Q1538.97 8167.97 1506.93 8167.97 Q1491.93 8167.97 1476.93 8171.3 Q1462.12 8174.63 1446.56 8181.67 L1446.56 8042.78 Z" fill="#000000" fill-rule="evenodd" fill-opacity="1" /><path clip-path="url(#clip2600)" d="M 0 0 M1011.93 5289.63 L1111.75 5289.63 L1111.75 5320 L1011.93 5320 L1011.93 5289.63 Z" fill="#000000" fill-rule="evenodd" fill-opacity="1" /><path clip-path="url(#clip2600)" d="M 0 0 M1158.78 5377.22 L1219.89 5377.22 L1219.89 5166.29 L1153.41 5179.63 L1153.41 5145.55 L1219.52 5132.22 L1256.93 5132.22 L1256.93 5377.22 L1318.04 5377.22 L1318.04 5408.7 L1158.78 5408.7 L1158.78 5377.22 Z" fill="#000000" fill-rule="evenodd" fill-opacity="1" /><path clip-path="url(#clip2600)" d="M 0 0 M1358.6 5361.66 L1397.67 5361.66 L1397.67 5408.7 L1358.6 5408.7 L1358.6 5361.66 Z" fill="#000000" fill-rule="evenodd" fill-opacity="1" /><path clip-path="url(#clip2600)" d="M 0 0 M1518.23 5156.85 Q1489.34 5156.85 1474.71 5185.37 Q1460.26 5213.7 1460.26 5270.74 Q1460.26 5327.59 1474.71 5356.11 Q1489.34 5384.44 1518.23 5384.44 Q1547.3 5384.44 1561.74 5356.11 Q1576.37 5327.59 1576.37 5270.74 Q1576.37 5213.7 1561.74 5185.37 Q1547.3 5156.85 1518.23 5156.85 M1518.23 5127.22 Q1564.71 5127.22 1589.15 5164.07 Q1613.78 5200.74 1613.78 5270.74 Q1613.78 5340.55 1589.15 5377.4 Q1564.71 5414.07 1518.23 5414.07 Q1471.75 5414.07 1447.12 5377.4 Q1422.67 5340.55 1422.67 5270.74 Q1422.67 5200.74 1447.12 5164.07 Q1471.75 5127.22 1518.23 5127.22 Z" fill="#000000" fill-rule="evenodd" fill-opacity="1" /><path clip-path="url(#clip2600)" d="M 0 0 M1010.08 2379.07 L1109.9 2379.07 L1109.9 2409.44 L1010.08 2409.44 L1010.08 2379.07 Z" fill="#000000" fill-rule="evenodd" fill-opacity="1" /><path clip-path="url(#clip2600)" d="M 0 0 M1230.45 2246.29 Q1201.56 2246.29 1186.93 2274.81 Q1172.49 2303.14 1172.49 2360.18 Q1172.49 2417.03 1186.93 2445.55 Q1201.56 2473.88 1230.45 2473.88 Q1259.52 2473.88 1273.97 2445.55 Q1288.6 2417.03 1288.6 2360.18 Q1288.6 2303.14 1273.97 2274.81 Q1259.52 2246.29 1230.45 2246.29 M1230.45 2216.66 Q1276.93 2216.66 1301.38 2253.51 Q1326.01 2290.18 1326.01 2360.18 Q1326.01 2429.99 1301.38 2466.84 Q1276.93 2503.51 1230.45 2503.51 Q1183.97 2503.51 1159.34 2466.84 Q1134.9 2429.99 1134.9 2360.18 Q1134.9 2290.18 1159.34 2253.51 Q1183.97 2216.66 1230.45 2216.66 Z" fill="#000000" fill-rule="evenodd" fill-opacity="1" /><path clip-path="url(#clip2600)" d="M 0 0 M1366.56 2451.1 L1405.63 2451.1 L1405.63 2498.14 L1366.56 2498.14 L1366.56 2451.1 Z" fill="#000000" fill-rule="evenodd" fill-opacity="1" /><path clip-path="url(#clip2600)" d="M 0 0 M1446.56 2221.66 L1593.41 2221.66 L1593.41 2253.14 L1480.82 2253.14 L1480.82 2320.92 Q1488.97 2318.14 1497.12 2316.84 Q1505.26 2315.36 1513.41 2315.36 Q1559.71 2315.36 1586.74 2340.73 Q1613.78 2366.1 1613.78 2409.44 Q1613.78 2454.07 1586 2478.88 Q1558.23 2503.51 1507.67 2503.51 Q1490.26 2503.51 1472.12 2500.55 Q1454.15 2497.58 1434.89 2491.66 L1434.89 2454.07 Q1451.56 2463.14 1469.34 2467.58 Q1487.12 2472.03 1506.93 2472.03 Q1538.97 2472.03 1557.67 2455.18 Q1576.37 2438.33 1576.37 2409.44 Q1576.37 2380.55 1557.67 2363.7 Q1538.97 2346.84 1506.93 2346.84 Q1491.93 2346.84 1476.93 2350.18 Q1462.12 2353.51 1446.56 2360.55 L1446.56 2221.66 Z" fill="#000000" fill-rule="evenodd" fill-opacity="1" /><path clip-path="url(#clip2600)" d="M 0 0 M5693.45 96.768 L5999.38 96.768 L5999.38 151.86 L5758.92 151.86 L5758.92 295.1 L5989.33 295.1 L5989.33 350.193 L5758.92 350.193 L5758.92 525.516 L6005.21 525.516 L6005.21 580.608 L5693.45 580.608 L5693.45 96.768 Z" fill="#000000" fill-rule="evenodd" fill-opacity="1" /><path clip-path="url(#clip2600)" d="M 0 0 M6343.54 690.793 L6343.54 737.135 L5998.73 737.135 L5998.73 690.793 L6343.54 690.793 Z" fill="#000000" fill-rule="evenodd" fill-opacity="1" /><path clip-path="url(#clip2600)" d="M 0 0 M6637.48 228.341 L6637.48 284.73 Q6612.2 271.767 6584.98 265.286 Q6557.75 258.804 6528.59 258.804 Q6484.19 258.804 6461.83 272.415 Q6439.79 286.026 6439.79 313.248 Q6439.79 333.989 6455.67 345.98 Q6471.55 357.646 6519.51 368.341 L6539.93 372.878 Q6603.45 386.489 6630.02 411.442 Q6656.92 436.072 6656.92 480.47 Q6656.92 531.025 6616.74 560.516 Q6576.87 590.006 6506.87 590.006 Q6477.71 590.006 6445.95 584.173 Q6414.51 578.664 6379.51 567.321 L6379.51 505.747 Q6412.57 522.923 6444.65 531.673 Q6476.74 540.099 6508.17 540.099 Q6550.3 540.099 6572.99 525.84 Q6595.67 511.257 6595.67 485.007 Q6595.67 460.701 6579.14 447.738 Q6562.94 434.775 6507.52 422.785 L6486.78 417.924 Q6431.37 406.257 6406.74 382.276 Q6382.11 357.97 6382.11 315.841 Q6382.11 264.637 6418.4 236.767 Q6454.7 208.897 6521.46 208.897 Q6554.51 208.897 6583.68 213.758 Q6612.85 218.619 6637.48 228.341 Z" fill="#000000" fill-rule="evenodd" fill-opacity="1" /><path clip-path="url(#clip2600)" d="M 0 0 M6719.47 217.647 L6779.1 217.647 L6779.1 580.608 L6719.47 580.608 L6719.47 217.647 M6719.47 76.3514 L6779.1 76.3514 L6779.1 151.86 L6719.47 151.86 L6719.47 76.3514 Z" fill="#000000" fill-rule="evenodd" fill-opacity="1" /><path clip-path="url(#clip2600)" d="M 0 0 M6900.62 114.592 L6900.62 217.647 L7023.45 217.647 L7023.45 263.989 L6900.62 263.989 L6900.62 461.025 Q6900.62 505.423 6912.61 518.062 Q6924.93 530.701 6962.2 530.701 L7023.45 530.701 L7023.45 580.608 L6962.2 580.608 Q6893.17 580.608 6866.92 555.006 Q6840.67 529.08 6840.67 461.025 L6840.67 263.989 L6796.92 263.989 L6796.92 217.647 L6840.67 217.647 L6840.67 114.592 L6900.62 114.592 Z" fill="#000000" fill-rule="evenodd" fill-opacity="1" /><path clip-path="url(#clip2600)" d="M 0 0 M7396.45 384.22 L7396.45 413.387 L7122.29 413.387 Q7126.18 474.96 7159.23 507.368 Q7192.61 539.451 7251.92 539.451 Q7286.27 539.451 7318.35 531.025 Q7350.76 522.599 7382.52 505.747 L7382.52 562.136 Q7350.43 575.747 7316.73 582.877 Q7283.03 590.006 7248.35 590.006 Q7161.5 590.006 7110.62 539.451 Q7060.07 488.896 7060.07 402.692 Q7060.07 313.572 7108.03 261.397 Q7156.32 208.897 7237.98 208.897 Q7311.22 208.897 7353.68 256.212 Q7396.45 303.202 7396.45 384.22 M7336.82 366.72 Q7336.18 317.785 7309.28 288.619 Q7282.7 259.452 7238.63 259.452 Q7188.72 259.452 7158.58 287.647 Q7128.77 315.841 7124.23 367.044 L7336.82 366.72 Z" fill="#000000" fill-rule="evenodd" fill-opacity="1" /><path clip-path="url(#clip2600)" d="M 0 0 M7685.2 498.294 L7753.58 498.294 L7753.58 580.608 L7685.2 580.608 L7685.2 498.294 M7685.2 237.415 L7753.58 237.415 L7753.58 319.73 L7685.2 319.73 L7685.2 237.415 Z" fill="#000000" fill-rule="evenodd" fill-opacity="1" /><path clip-path="url(#clip2600)" d="M 0 0 M8175.52 350.841 Q8128.86 350.841 8101.96 375.794 Q8075.38 400.748 8075.38 444.498 Q8075.38 488.247 8101.96 513.201 Q8128.86 538.155 8175.52 538.155 Q8222.19 538.155 8249.09 513.201 Q8275.99 487.923 8275.99 444.498 Q8275.99 400.748 8249.09 375.794 Q8222.51 350.841 8175.52 350.841 M8110.06 322.97 Q8067.93 312.6 8044.27 283.758 Q8020.94 254.915 8020.94 213.434 Q8020.94 155.425 8062.1 121.722 Q8103.58 88.018 8175.52 88.018 Q8247.79 88.018 8288.95 121.722 Q8330.11 155.425 8330.11 213.434 Q8330.11 254.915 8306.45 283.758 Q8283.12 312.6 8241.31 322.97 Q8288.62 333.989 8314.87 366.072 Q8341.45 398.155 8341.45 444.498 Q8341.45 514.821 8298.35 552.414 Q8255.57 590.006 8175.52 590.006 Q8095.48 590.006 8052.38 552.414 Q8009.6 514.821 8009.6 444.498 Q8009.6 398.155 8036.17 366.072 Q8062.75 333.989 8110.06 322.97 M8086.08 219.591 Q8086.08 257.184 8109.41 278.249 Q8133.07 299.313 8175.52 299.313 Q8217.65 299.313 8241.31 278.249 Q8265.29 257.184 8265.29 219.591 Q8265.29 181.999 8241.31 160.934 Q8217.65 139.87 8175.52 139.87 Q8133.07 139.87 8109.41 160.934 Q8086.08 181.999 8086.08 219.591 Z" fill="#000000" fill-rule="evenodd" fill-opacity="1" /><path clip-path="url(#clip2600)" d="M 0 0 M8864.5 176.49 L8748.16 239.36 L8864.5 302.554 L8845.7 334.313 L8736.82 268.526 L8736.82 390.702 L8699.87 390.702 L8699.87 268.526 L8590.98 334.313 L8572.19 302.554 L8688.53 239.36 L8572.19 176.49 L8590.98 144.407 L8699.87 210.193 L8699.87 88.018 L8736.82 88.018 L8736.82 210.193 L8845.7 144.407 L8864.5 176.49 Z" fill="#000000" fill-rule="evenodd" fill-opacity="1" /><path clip-path="url(#clip2600)" d="M 0 0 M9286.44 350.841 Q9239.78 350.841 9212.88 375.794 Q9186.3 400.748 9186.3 444.498 Q9186.3 488.247 9212.88 513.201 Q9239.78 538.155 9286.44 538.155 Q9333.11 538.155 9360.01 513.201 Q9386.91 487.923 9386.91 444.498 Q9386.91 400.748 9360.01 375.794 Q9333.43 350.841 9286.44 350.841 M9220.98 322.97 Q9178.85 312.6 9155.19 283.758 Q9131.86 254.915 9131.86 213.434 Q9131.86 155.425 9173.02 121.722 Q9214.5 88.018 9286.44 88.018 Q9358.71 88.018 9399.87 121.722 Q9441.03 155.425 9441.03 213.434 Q9441.03 254.915 9417.37 283.758 Q9394.04 312.6 9352.23 322.97 Q9399.54 333.989 9425.79 366.072 Q9452.37 398.155 9452.37 444.498 Q9452.37 514.821 9409.27 552.414 Q9366.49 590.006 9286.44 590.006 Q9206.4 590.006 9163.3 552.414 Q9120.52 514.821 9120.52 444.498 Q9120.52 398.155 9147.09 366.072 Q9173.67 333.989 9220.98 322.97 M9197 219.591 Q9197 257.184 9220.33 278.249 Q9243.99 299.313 9286.44 299.313 Q9328.57 299.313 9352.23 278.249 Q9376.21 257.184 9376.21 219.591 Q9376.21 181.999 9352.23 160.934 Q9328.57 139.87 9286.44 139.87 Q9243.99 139.87 9220.33 160.934 Q9197 181.999 9197 219.591 Z" fill="#000000" fill-rule="evenodd" fill-opacity="1" /><path clip-path="url(#clip2600)" d="M 0 0 M9530.15 498.294 L9598.52 498.294 L9598.52 554.034 L9545.38 657.737 L9503.57 657.737 L9530.15 554.034 L9530.15 498.294 Z" fill="#000000" fill-rule="evenodd" fill-opacity="1" /><path clip-path="url(#clip2600)" d="M 0 0 M10071 141.166 Q9999.73 141.166 9957.6 194.314 Q9915.79 247.462 9915.79 339.174 Q9915.79 430.563 9957.6 483.71 Q9999.73 536.858 10071 536.858 Q10142.3 536.858 10183.8 483.71 Q10225.6 430.563 10225.6 339.174 Q10225.6 247.462 10183.8 194.314 Q10142.3 141.166 10071 141.166 M10162.7 571.858 L10248.9 666.163 L10169.9 666.163 L10098.2 588.71 Q10087.5 589.358 10081.7 589.682 Q10076.2 590.006 10071 590.006 Q9968.94 590.006 9907.69 521.951 Q9846.76 453.572 9846.76 339.174 Q9846.76 224.453 9907.69 156.397 Q9968.94 88.018 10071 88.018 Q10172.8 88.018 10233.7 156.397 Q10294.6 224.453 10294.6 339.174 Q10294.6 423.433 10260.6 483.386 Q10226.9 543.34 10162.7 571.858 Z" fill="#000000" fill-rule="evenodd" fill-opacity="1" /><path clip-path="url(#clip2600)" d="M 0 0 M10575.9 279.221 L10991.4 279.221 L10991.4 333.665 L10575.9 333.665 L10575.9 279.221 M10575.9 411.442 L10991.4 411.442 L10991.4 466.535 L10575.9 466.535 L10575.9 411.442 Z" fill="#000000" fill-rule="evenodd" fill-opacity="1" /><path clip-path="url(#clip2600)" d="M 0 0 M11284.7 525.516 L11391.6 525.516 L11391.6 156.397 L11275.3 179.731 L11275.3 120.101 L11391 96.768 L11456.4 96.768 L11456.4 525.516 L11563.4 525.516 L11563.4 580.608 L11284.7 580.608 L11284.7 525.516 Z" fill="#000000" fill-rule="evenodd" fill-opacity="1" /><path clip-path="url(#clip2600)" d="M 0 0 M11782.4 312.6 Q11738.4 312.6 11712.4 342.739 Q11686.8 372.878 11686.8 425.377 Q11686.8 477.553 11712.4 508.016 Q11738.4 538.155 11782.4 538.155 Q11826.5 538.155 11852.1 508.016 Q11878 477.553 11878 425.377 Q11878 372.878 11852.1 342.739 Q11826.5 312.6 11782.4 312.6 M11912.4 107.462 L11912.4 167.092 Q11887.8 155.425 11862.5 149.268 Q11837.5 143.11 11812.9 143.11 Q11748.1 143.11 11713.7 186.86 Q11679.7 230.61 11674.9 319.082 Q11694 290.887 11722.8 275.98 Q11751.7 260.749 11786.3 260.749 Q11859.3 260.749 11901.4 305.147 Q11943.8 349.22 11943.8 425.377 Q11943.8 499.914 11899.8 544.96 Q11855.7 590.006 11782.4 590.006 Q11698.5 590.006 11654.1 525.84 Q11609.7 461.349 11609.7 339.174 Q11609.7 224.453 11664.2 156.397 Q11718.6 88.018 11810.3 88.018 Q11834.9 88.018 11859.9 92.8791 Q11885.2 97.7402 11912.4 107.462 Z" fill="#000000" fill-rule="evenodd" fill-opacity="1" /><path clip-path="url(#clip2600)" d="M 0 0 M12021.6 498.294 L12090 498.294 L12090 554.034 L12036.8 657.737 L11995 657.737 L12021.6 554.034 L12021.6 498.294 Z" fill="#000000" fill-rule="evenodd" fill-opacity="1" /><path clip-path="url(#clip2600)" d="M 0 0 M12366.1 96.768 L12431.6 96.768 L12431.6 546.904 Q12431.6 634.404 12398.2 673.941 Q12365.1 713.478 12291.6 713.478 L12266.6 713.478 L12266.6 658.385 L12287 658.385 Q12330.5 658.385 12348.3 634.08 Q12366.1 609.775 12366.1 546.904 L12366.1 96.768 Z" fill="#000000" fill-rule="evenodd" fill-opacity="1" /><path clip-path="url(#clip2600)" d="M 0 0 M12769.9 690.793 L12769.9 737.135 L12425.1 737.135 L12425.1 690.793 L12769.9 690.793 Z" fill="#000000" fill-rule="evenodd" fill-opacity="1" /><path clip-path="url(#clip2600)" d="M 0 0 M12980.9 139.87 Q12930.3 139.87 12904.7 189.777 Q12879.4 239.36 12879.4 339.174 Q12879.4 438.664 12904.7 488.571 Q12930.3 538.155 12980.9 538.155 Q13031.7 538.155 13057 488.571 Q13082.6 438.664 13082.6 339.174 Q13082.6 239.36 13057 189.777 Q13031.7 139.87 12980.9 139.87 M12980.9 88.018 Q13062.2 88.018 13105 152.508 Q13148.1 216.675 13148.1 339.174 Q13148.1 461.349 13105 525.84 Q13062.2 590.006 12980.9 590.006 Q12899.5 590.006 12856.4 525.84 Q12813.6 461.349 12813.6 339.174 Q12813.6 216.675 12856.4 152.508 Q12899.5 88.018 12980.9 88.018 Z" fill="#000000" fill-rule="evenodd" fill-opacity="1" /><path clip-path="url(#clip2600)" d="M 0 0 M13429.4 279.221 L13844.8 279.221 L13844.8 333.665 L13429.4 333.665 L13429.4 279.221 M13429.4 411.442 L13844.8 411.442 L13844.8 466.535 L13429.4 466.535 L13429.4 411.442 Z" fill="#000000" fill-rule="evenodd" fill-opacity="1" /><path clip-path="url(#clip2600)" d="M 0 0 M14138.1 525.516 L14245.1 525.516 L14245.1 156.397 L14128.7 179.731 L14128.7 120.101 L14244.4 96.768 L14309.9 96.768 L14309.9 525.516 L14416.8 525.516 L14416.8 580.608 L14138.1 580.608 L14138.1 525.516 Z" fill="#000000" fill-rule="evenodd" fill-opacity="1" /><path clip-path="url(#clip2600)" d="M 0 0 M14487.8 498.294 L14556.2 498.294 L14556.2 580.608 L14487.8 580.608 L14487.8 498.294 Z" fill="#000000" fill-rule="evenodd" fill-opacity="1" /><path clip-path="url(#clip2600)" d="M 0 0 M14767.2 139.87 Q14716.6 139.87 14691 189.777 Q14665.7 239.36 14665.7 339.174 Q14665.7 438.664 14691 488.571 Q14716.6 538.155 14767.2 538.155 Q14818 538.155 14843.3 488.571 Q14868.9 438.664 14868.9 339.174 Q14868.9 239.36 14843.3 189.777 Q14818 139.87 14767.2 139.87 M14767.2 88.018 Q14848.5 88.018 14891.3 152.508 Q14934.4 216.675 14934.4 339.174 Q14934.4 461.349 14891.3 525.84 Q14848.5 590.006 14767.2 590.006 Q14685.8 590.006 14642.7 525.84 Q14599.9 461.349 14599.9 339.174 Q14599.9 216.675 14642.7 152.508 Q14685.8 88.018 14767.2 88.018 Z" fill="#000000" fill-rule="evenodd" fill-opacity="1" /><path clip-path="url(#clip2600)" d="M 0 0 M10153.1 12068.2 L10474.7 12068.2 L10474.7 12111.5 L10339.8 12111.5 L10339.8 12448.4 L10288.1 12448.4 L10288.1 12111.5 L10153.1 12111.5 L10153.1 12068.2 Z" fill="#000000" fill-rule="evenodd" fill-opacity="1" /><path clip-path="url(#clip2600)" d="M 0 0 M323.873 6855.64 L323.873 6615.27 L367.16 6615.27 L367.16 6804.21 L479.706 6804.21 L479.706 6623.17 L522.993 6623.17 L522.993 6804.21 L660.746 6804.21 L660.746 6610.69 L704.033 6610.69 L704.033 6855.64 L323.873 6855.64 Z" fill="#000000" fill-rule="evenodd" fill-opacity="1" /><path clip-path="url(#clip2600)" d="M 0 0 M790.607 6344.86 L827.019 6344.86 L827.019 6615.78 L790.607 6615.78 L790.607 6344.86 Z" fill="#000000" fill-rule="evenodd" fill-opacity="1" /><path clip-path="url(#clip2600)" d="M 0 0 M427.252 6113.91 L471.558 6113.91 Q461.373 6133.77 456.28 6155.16 Q451.187 6176.55 451.187 6199.47 Q451.187 6234.35 461.882 6251.92 Q472.576 6269.23 493.965 6269.23 Q510.261 6269.23 519.682 6256.76 Q528.849 6244.28 537.252 6206.6 L540.817 6190.55 Q551.511 6140.65 571.117 6119.77 Q590.469 6098.63 625.353 6098.63 Q665.075 6098.63 688.246 6130.21 Q711.417 6161.53 711.417 6216.53 Q711.417 6239.44 706.834 6264.4 Q702.505 6289.1 693.594 6316.6 L645.214 6316.6 Q658.709 6290.62 665.584 6265.42 Q672.205 6240.21 672.205 6215.51 Q672.205 6182.41 661.001 6164.58 Q649.543 6146.76 628.918 6146.76 Q609.821 6146.76 599.636 6159.74 Q589.451 6172.48 580.029 6216.02 L576.21 6232.31 Q567.043 6275.86 548.201 6295.21 Q529.104 6314.56 496.002 6314.56 Q455.771 6314.56 433.873 6286.04 Q411.975 6257.52 411.975 6205.07 Q411.975 6179.1 415.794 6156.18 Q419.613 6133.26 427.252 6113.91 Z" fill="#000000" fill-rule="evenodd" fill-opacity="1" /><path clip-path="url(#clip2600)" d="M 0 0 M418.85 6049.49 L418.85 6002.64 L704.033 6002.64 L704.033 6049.49 L418.85 6049.49 M307.832 6049.49 L307.832 6002.64 L367.16 6002.64 L367.16 6049.49 L307.832 6049.49 Z" fill="#000000" fill-rule="evenodd" fill-opacity="1" /><path clip-path="url(#clip2600)" d="M 0 0 M337.878 5907.15 L418.85 5907.15 L418.85 5810.65 L455.261 5810.65 L455.261 5907.15 L610.075 5907.15 Q644.96 5907.15 654.89 5897.73 Q664.821 5888.06 664.821 5858.77 L664.821 5810.65 L704.033 5810.65 L704.033 5858.77 Q704.033 5913.01 683.918 5933.63 Q663.547 5954.26 610.075 5954.26 L455.261 5954.26 L455.261 5988.63 L418.85 5988.63 L418.85 5954.26 L337.878 5954.26 L337.878 5907.15 Z" fill="#000000" fill-rule="evenodd" fill-opacity="1" /><path clip-path="url(#clip2600)" d="M 0 0 M549.729 5517.57 L572.645 5517.57 L572.645 5732.99 Q621.024 5729.93 646.487 5703.96 Q671.695 5677.73 671.695 5631.14 Q671.695 5604.15 665.075 5578.94 Q658.455 5553.47 645.214 5528.52 L689.519 5528.52 Q700.214 5553.73 705.816 5580.21 Q711.417 5606.69 711.417 5633.94 Q711.417 5702.18 671.695 5742.15 Q631.973 5781.88 564.242 5781.88 Q494.22 5781.88 453.224 5744.19 Q411.975 5706.25 411.975 5642.09 Q411.975 5584.54 449.15 5551.18 Q486.071 5517.57 549.729 5517.57 M535.979 5564.42 Q497.53 5564.93 474.613 5586.07 Q451.697 5606.95 451.697 5641.58 Q451.697 5680.79 473.849 5704.47 Q496.002 5727.9 536.233 5731.46 L535.979 5564.42 Z" fill="#000000" fill-rule="evenodd" fill-opacity="1" /><polyline clip-path="url(#clip2602)" style="stroke:#009af9; stroke-width:32; stroke-opacity:1; fill:none" points="
  2287.37,11091.2 2614.99,11090.6 2942.6,11089.8 3270.22,11088.2 3597.83,11086 3925.44,11084.4 4253.06,11080.1 4580.67,11075 4908.29,11068.8 5235.9,11057.7 
  5563.51,11045.5 5891.13,11032.4 6218.74,11011 6546.35,10984.2 6873.97,10950.5 7201.58,10912.6 7529.2,10861.3 7856.81,10799.9 8184.42,10724.4 8512.04,10616.3 
  8839.65,10474 9167.27,10283.6 9494.88,9975.14 9822.49,8279.13 10150.1,4762.13 10477.7,3214.04 10805.3,2715.8 11132.9,2522.7 11460.6,2393.34 11788.2,2277.62 
  12115.8,2176.94 12443.4,2087.05 12771,2015.65 13098.6,1939.86 13426.2,1870.66 13753.9,1809.74 14081.5,1761.39 14409.1,1708.99 14736.7,1658.25 15064.3,1610.61 
  15391.9,1573.11 15719.5,1533.73 16047.2,1493.42 16374.8,1458.01 16702.4,1424.42 17030,1395.56 17357.6,1363.7 17685.2,1335.98 18012.8,1308.98 18340.5,1282.05 
  
  "/>
<polyline clip-path="url(#clip2602)" style="stroke:#e26f46; stroke-width:32; stroke-opacity:1; fill:none" points="
  2287.37,11090.1 2614.99,11089.6 2942.6,11087.5 3270.22,11086.2 3597.83,11082.3 3925.44,11079 4253.06,11074.1 4580.67,11066.1 4908.29,11054.5 5235.9,11040.6 
  5563.51,11027.9 5891.13,11003.6 6218.74,10977.7 6546.35,10940.4 6873.97,10903.7 7201.58,10848 7529.2,10774.2 7856.81,10697.6 8184.42,10594.7 8512.04,10441.9 
  8839.65,9958.87 9167.27,8865.15 9494.88,6799.23 9822.49,3984.53 10150.1,3290.5 10477.7,3046.44 10805.3,2874.57 11132.9,2745.94 11460.6,2631.77 11788.2,2532.45 
  12115.8,2444.06 12443.4,2368.17 12771,2299.13 13098.6,2230.75 13426.2,2175.71 13753.9,2115.04 14081.5,2064.18 14409.1,2017.51 14736.7,1971.48 15064.3,1931.81 
  15391.9,1890.16 15719.5,1854.5 16047.2,1818.65 16374.8,1785.84 16702.4,1752.4 17030,1724.11 17357.6,1694.87 17685.2,1668.39 18012.8,1644.04 18340.5,1617.96 
  
  "/>
<polyline clip-path="url(#clip2602)" style="stroke:#3da44d; stroke-width:32; stroke-opacity:1; fill:none" points="
  2287.37,11074.7 2614.99,11067.9 2942.6,11059.2 3270.22,11046.9 3597.83,11035 3925.44,11017.7 4253.06,10996.2 4580.67,10967.5 4908.29,10937.3 5235.9,10898.7 
  5563.51,10670.4 5891.13,10576.4 6218.74,10460.1 6546.35,10320.9 6873.97,10157.3 7201.58,9943.06 7529.2,9718.08 7856.81,9383.15 8184.42,8995.53 8512.04,8442.78 
  8839.65,7612 9167.27,6494.48 9494.88,5341.68 9822.49,4587.18 10150.1,4153.29 10477.7,3855.84 10805.3,3624.97 11132.9,3459.82 11460.6,3331.12 11788.2,3212.86 
  12115.8,3115.95 12443.4,3022.4 12771,2944.46 13098.6,2864.97 13426.2,2795.44 13753.9,2734.49 14081.5,2676.68 14409.1,2617.44 14736.7,2571.77 15064.3,2520.88 
  15391.9,2478.18 15719.5,2432.61 16047.2,2392.79 16374.8,2357.07 16702.4,2322.04 17030,2282.7 17357.6,2251.89 17685.2,2221.7 18012.8,2192.41 18340.5,2162.29 
  
  "/>
<polyline clip-path="url(#clip2602)" style="stroke:#c271d2; stroke-width:32; stroke-opacity:1; fill:none" points="
  2287.37,10471.2 2614.99,10386.2 2942.6,10302.4 3270.22,10221.8 3597.83,10151.9 3925.44,10083.3 4253.06,10020.9 4580.67,9961.2 4908.29,9897.11 5235.9,9838.74 
  5563.51,9770.16 5891.13,9696.34 6218.74,9625.72 6546.35,9540.92 6873.97,9447.69 7201.58,9346.22 7529.2,9234.07 7856.81,9109.02 8184.42,8951.37 8512.04,8782.52 
  8839.65,8592.83 9167.27,8322.26 9494.88,8008.4 9822.49,7629.35 10150.1,7078.4 10477.7,6558.65 10805.3,5988.58 11132.9,5507.88 11460.6,5109.15 11788.2,4807.52 
  12115.8,4564.53 12443.4,4366.33 12771,4218.08 13098.6,4080.25 13426.2,3961.79 13753.9,3850.84 14081.5,3763 14409.1,3671.9 14736.7,3589.35 15064.3,3517.85 
  15391.9,3452.21 15719.5,3387.66 16047.2,3324.18 16374.8,3273.31 16702.4,3221.91 17030,3168.4 17357.6,3125.72 17685.2,3083.54 18012.8,3036.04 18340.5,2996.98 
  
  "/>
<polyline clip-path="url(#clip2602)" style="stroke:#ac8d18; stroke-width:32; stroke-opacity:1; fill:none" points="
  2287.37,11026.9 2614.99,11015.6 2942.6,11001.2 3270.22,10985.9 3597.83,10970.8 3925.44,10952.9 4253.06,10933.2 4580.67,10912.8 4908.29,10890.1 5235.9,10860.9 
  5563.51,10831.8 5891.13,10800.7 6218.74,10766.9 6546.35,10723.6 6873.97,10683 7201.58,10632.9 7529.2,10577.6 7856.81,10516.7 8184.42,10445.9 8512.04,10377.1 
  8839.65,10293.1 9167.27,10191.8 9494.88,10084.6 9822.49,9956.25 10150.1,9801 10477.7,9644.86 10805.3,9447.13 11132.9,9221.6 11460.6,8932.92 11788.2,8604.19 
  12115.8,8228.47 12443.4,7806.57 12771,7404.1 13098.6,6924.32 13426.2,6532.14 13753.9,6199.26 14081.5,5884.07 14409.1,5659.64 14736.7,5445.84 15064.3,5277.59 
  15391.9,5114.58 15719.5,4983.97 16047.2,4862.97 16374.8,4753.56 16702.4,4653.62 17030,4565.17 17357.6,4482.82 17685.2,4403.66 18012.8,4322.85 18340.5,4254.49 
  
  "/>
<polyline clip-path="url(#clip2602)" style="stroke:#00a9ad; stroke-width:32; stroke-opacity:1; fill:none" points="
  2287.37,9995.24 2614.99,9941.65 2942.6,9917.35 3270.22,9814.49 3597.83,9710.57 3925.44,9648.71 4253.06,9629.29 4580.67,9362.67 4908.29,9342.14 5235.9,9174.32 
  5563.51,9083.05 5891.13,8717.27 6218.74,8401.46 6546.35,8351.49 6873.97,7860.94 7201.58,7322.97 7529.2,7054.12 7856.81,6489.87 8184.42,6030.85 8512.04,5774.06 
  8839.65,5237.77 9167.27,4954.88 9494.88,4563.8 9822.49,4557.48 10150.1,4403.21 10477.7,4138.67 10805.3,3978.56 11132.9,3966.1 11460.6,3876.61 11788.2,3800.93 
  12115.8,3683.89 12443.4,3675.81 12771,3572.42 13098.6,3504.16 13426.2,3492.92 13753.9,3421.05 14081.5,3387.62 14409.1,3355.69 14736.7,3317.39 15064.3,3283.13 
  15391.9,3251.62 15719.5,3226.97 16047.2,3188.84 16374.8,3154.06 16702.4,3116.55 17030,3107.02 17357.6,3079.72 17685.2,3051 18012.8,3027.85 18340.5,2994.72 
  
  "/>
<path clip-path="url(#clip2600)" d="
M2381.78 5042.82 L7804.17 5042.82 L7804.17 1655.94 L2381.78 1655.94  Z
  " fill="#ffffff" fill-rule="evenodd" fill-opacity="1"/>
<polyline clip-path="url(#clip2600)" style="stroke:#000000; stroke-width:32; stroke-opacity:1; fill:none" points="
  2381.78,5042.82 7804.17,5042.82 7804.17,1655.94 2381.78,1655.94 2381.78,5042.82 
  "/>
<polyline clip-path="url(#clip2600)" style="stroke:#009af9; stroke-width:32; stroke-opacity:1; fill:none" points="
  2573.78,2139.78 3725.78,2139.78 
  "/>
<path clip-path="url(#clip2600)" d="M 0 0 M3974.63 2001.54 L4012.04 2001.54 L4012.04 2258.76 Q4012.04 2308.76 3992.97 2331.35 Q3974.08 2353.94 3932.04 2353.94 L3917.78 2353.94 L3917.78 2322.46 L3929.45 2322.46 Q3954.26 2322.46 3964.45 2308.57 Q3974.63 2294.68 3974.63 2258.76 L3974.63 2001.54 Z" fill="#000000" fill-rule="evenodd" fill-opacity="1" /><path clip-path="url(#clip2600)" d="M 0 0 M4059.08 2246.54 L4120.19 2246.54 L4120.19 2035.61 L4053.71 2048.94 L4053.71 2014.87 L4119.82 2001.54 L4157.22 2001.54 L4157.22 2246.54 L4218.34 2246.54 L4218.34 2278.02 L4059.08 2278.02 L4059.08 2246.54 Z" fill="#000000" fill-rule="evenodd" fill-opacity="1" /><path clip-path="url(#clip2600)" d="M 0 0 M4379.08 2105.8 L4616.48 2105.8 L4616.48 2136.91 L4379.08 2136.91 L4379.08 2105.8 M4379.08 2181.35 L4616.48 2181.35 L4616.48 2212.83 L4379.08 2212.83 L4379.08 2181.35 Z" fill="#000000" fill-rule="evenodd" fill-opacity="1" /><path clip-path="url(#clip2600)" d="M 0 0 M4857.59 2026.17 Q4828.7 2026.17 4814.07 2054.68 Q4799.63 2083.02 4799.63 2140.05 Q4799.63 2196.91 4814.07 2225.42 Q4828.7 2253.76 4857.59 2253.76 Q4886.67 2253.76 4901.11 2225.42 Q4915.74 2196.91 4915.74 2140.05 Q4915.74 2083.02 4901.11 2054.68 Q4886.67 2026.17 4857.59 2026.17 M4857.59 1996.54 Q4904.07 1996.54 4928.52 2033.39 Q4953.15 2070.06 4953.15 2140.05 Q4953.15 2209.87 4928.52 2246.72 Q4904.07 2283.39 4857.59 2283.39 Q4811.11 2283.39 4786.48 2246.72 Q4762.04 2209.87 4762.04 2140.05 Q4762.04 2070.06 4786.48 2033.39 Q4811.11 1996.54 4857.59 1996.54 Z" fill="#000000" fill-rule="evenodd" fill-opacity="1" /><path clip-path="url(#clip2600)" d="M 0 0 M4993.7 2230.98 L5032.78 2230.98 L5032.78 2278.02 L4993.7 2278.02 L4993.7 2230.98 Z" fill="#000000" fill-rule="evenodd" fill-opacity="1" /><path clip-path="url(#clip2600)" d="M 0 0 M5153.33 2026.17 Q5124.44 2026.17 5109.81 2054.68 Q5095.37 2083.02 5095.37 2140.05 Q5095.37 2196.91 5109.81 2225.42 Q5124.44 2253.76 5153.33 2253.76 Q5182.4 2253.76 5196.85 2225.42 Q5211.48 2196.91 5211.48 2140.05 Q5211.48 2083.02 5196.85 2054.68 Q5182.4 2026.17 5153.33 2026.17 M5153.33 1996.54 Q5199.81 1996.54 5224.26 2033.39 Q5248.89 2070.06 5248.89 2140.05 Q5248.89 2209.87 5224.26 2246.72 Q5199.81 2283.39 5153.33 2283.39 Q5106.85 2283.39 5082.22 2246.72 Q5057.78 2209.87 5057.78 2140.05 Q5057.78 2070.06 5082.22 2033.39 Q5106.85 1996.54 5153.33 1996.54 Z" fill="#000000" fill-rule="evenodd" fill-opacity="1" /><polyline clip-path="url(#clip2600)" style="stroke:#e26f46; stroke-width:32; stroke-opacity:1; fill:none" points="
  2573.78,2623.62 3725.78,2623.62 
  "/>
<path clip-path="url(#clip2600)" d="M 0 0 M3974.63 2485.38 L4012.04 2485.38 L4012.04 2742.6 Q4012.04 2792.6 3992.97 2815.19 Q3974.08 2837.78 3932.04 2837.78 L3917.78 2837.78 L3917.78 2806.3 L3929.45 2806.3 Q3954.26 2806.3 3964.45 2792.41 Q3974.63 2778.52 3974.63 2742.6 L3974.63 2485.38 Z" fill="#000000" fill-rule="evenodd" fill-opacity="1" /><path clip-path="url(#clip2600)" d="M 0 0 M4059.08 2730.38 L4120.19 2730.38 L4120.19 2519.45 L4053.71 2532.78 L4053.71 2498.71 L4119.82 2485.38 L4157.22 2485.38 L4157.22 2730.38 L4218.34 2730.38 L4218.34 2761.86 L4059.08 2761.86 L4059.08 2730.38 Z" fill="#000000" fill-rule="evenodd" fill-opacity="1" /><path clip-path="url(#clip2600)" d="M 0 0 M4379.08 2589.64 L4616.48 2589.64 L4616.48 2620.75 L4379.08 2620.75 L4379.08 2589.64 M4379.08 2665.19 L4616.48 2665.19 L4616.48 2696.67 L4379.08 2696.67 L4379.08 2665.19 Z" fill="#000000" fill-rule="evenodd" fill-opacity="1" /><path clip-path="url(#clip2600)" d="M 0 0 M4857.59 2510.01 Q4828.7 2510.01 4814.07 2538.52 Q4799.63 2566.86 4799.63 2623.89 Q4799.63 2680.75 4814.07 2709.26 Q4828.7 2737.6 4857.59 2737.6 Q4886.67 2737.6 4901.11 2709.26 Q4915.74 2680.75 4915.74 2623.89 Q4915.74 2566.86 4901.11 2538.52 Q4886.67 2510.01 4857.59 2510.01 M4857.59 2480.38 Q4904.07 2480.38 4928.52 2517.23 Q4953.15 2553.9 4953.15 2623.89 Q4953.15 2693.71 4928.52 2730.56 Q4904.07 2767.23 4857.59 2767.23 Q4811.11 2767.23 4786.48 2730.56 Q4762.04 2693.71 4762.04 2623.89 Q4762.04 2553.9 4786.48 2517.23 Q4811.11 2480.38 4857.59 2480.38 Z" fill="#000000" fill-rule="evenodd" fill-opacity="1" /><path clip-path="url(#clip2600)" d="M 0 0 M4993.7 2714.82 L5032.78 2714.82 L5032.78 2761.86 L4993.7 2761.86 L4993.7 2714.82 Z" fill="#000000" fill-rule="evenodd" fill-opacity="1" /><path clip-path="url(#clip2600)" d="M 0 0 M5105.55 2730.38 L5236.11 2730.38 L5236.11 2761.86 L5060.55 2761.86 L5060.55 2730.38 Q5081.85 2708.34 5118.52 2671.3 Q5155.37 2634.08 5164.81 2623.34 Q5182.77 2603.15 5189.81 2589.27 Q5197.03 2575.19 5197.03 2561.67 Q5197.03 2539.64 5181.48 2525.75 Q5166.11 2511.86 5141.29 2511.86 Q5123.7 2511.86 5104.07 2517.97 Q5084.63 2524.08 5062.41 2536.49 L5062.41 2498.71 Q5085 2489.64 5104.63 2485.01 Q5124.26 2480.38 5140.55 2480.38 Q5183.52 2480.38 5209.07 2501.86 Q5234.63 2523.34 5234.63 2559.27 Q5234.63 2576.3 5228.15 2591.67 Q5221.85 2606.86 5205 2627.6 Q5200.37 2632.97 5175.55 2658.71 Q5150.74 2684.26 5105.55 2730.38 Z" fill="#000000" fill-rule="evenodd" fill-opacity="1" /><path clip-path="url(#clip2600)" d="M 0 0 M5277.03 2485.38 L5423.88 2485.38 L5423.88 2516.86 L5311.29 2516.86 L5311.29 2584.64 Q5319.44 2581.86 5327.59 2580.56 Q5335.74 2579.08 5343.89 2579.08 Q5390.18 2579.08 5417.22 2604.45 Q5444.26 2629.82 5444.26 2673.15 Q5444.26 2717.78 5416.48 2742.6 Q5388.7 2767.23 5338.14 2767.23 Q5320.74 2767.23 5302.59 2764.26 Q5284.63 2761.3 5265.37 2755.38 L5265.37 2717.78 Q5282.03 2726.86 5299.81 2731.3 Q5317.59 2735.75 5337.4 2735.75 Q5369.44 2735.75 5388.14 2718.89 Q5406.85 2702.04 5406.85 2673.15 Q5406.85 2644.27 5388.14 2627.41 Q5369.44 2610.56 5337.4 2610.56 Q5322.4 2610.56 5307.4 2613.89 Q5292.59 2617.23 5277.03 2624.27 L5277.03 2485.38 Z" fill="#000000" fill-rule="evenodd" fill-opacity="1" /><polyline clip-path="url(#clip2600)" style="stroke:#3da44d; stroke-width:32; stroke-opacity:1; fill:none" points="
  2573.78,3107.46 3725.78,3107.46 
  "/>
<path clip-path="url(#clip2600)" d="M 0 0 M3974.63 2969.22 L4012.04 2969.22 L4012.04 3226.44 Q4012.04 3276.44 3992.97 3299.03 Q3974.08 3321.62 3932.04 3321.62 L3917.78 3321.62 L3917.78 3290.14 L3929.45 3290.14 Q3954.26 3290.14 3964.45 3276.25 Q3974.63 3262.36 3974.63 3226.44 L3974.63 2969.22 Z" fill="#000000" fill-rule="evenodd" fill-opacity="1" /><path clip-path="url(#clip2600)" d="M 0 0 M4059.08 3214.22 L4120.19 3214.22 L4120.19 3003.29 L4053.71 3016.62 L4053.71 2982.55 L4119.82 2969.22 L4157.22 2969.22 L4157.22 3214.22 L4218.34 3214.22 L4218.34 3245.7 L4059.08 3245.7 L4059.08 3214.22 Z" fill="#000000" fill-rule="evenodd" fill-opacity="1" /><path clip-path="url(#clip2600)" d="M 0 0 M4379.08 3073.48 L4616.48 3073.48 L4616.48 3104.59 L4379.08 3104.59 L4379.08 3073.48 M4379.08 3149.03 L4616.48 3149.03 L4616.48 3180.51 L4379.08 3180.51 L4379.08 3149.03 Z" fill="#000000" fill-rule="evenodd" fill-opacity="1" /><path clip-path="url(#clip2600)" d="M 0 0 M4857.59 2993.85 Q4828.7 2993.85 4814.07 3022.36 Q4799.63 3050.7 4799.63 3107.73 Q4799.63 3164.59 4814.07 3193.1 Q4828.7 3221.44 4857.59 3221.44 Q4886.67 3221.44 4901.11 3193.1 Q4915.74 3164.59 4915.74 3107.73 Q4915.74 3050.7 4901.11 3022.36 Q4886.67 2993.85 4857.59 2993.85 M4857.59 2964.22 Q4904.07 2964.22 4928.52 3001.07 Q4953.15 3037.74 4953.15 3107.73 Q4953.15 3177.55 4928.52 3214.4 Q4904.07 3251.07 4857.59 3251.07 Q4811.11 3251.07 4786.48 3214.4 Q4762.04 3177.55 4762.04 3107.73 Q4762.04 3037.74 4786.48 3001.07 Q4811.11 2964.22 4857.59 2964.22 Z" fill="#000000" fill-rule="evenodd" fill-opacity="1" /><path clip-path="url(#clip2600)" d="M 0 0 M4993.7 3198.66 L5032.78 3198.66 L5032.78 3245.7 L4993.7 3245.7 L4993.7 3198.66 Z" fill="#000000" fill-rule="evenodd" fill-opacity="1" /><path clip-path="url(#clip2600)" d="M 0 0 M5073.7 2969.22 L5220.55 2969.22 L5220.55 3000.7 L5107.96 3000.7 L5107.96 3068.48 Q5116.11 3065.7 5124.26 3064.4 Q5132.4 3062.92 5140.55 3062.92 Q5186.85 3062.92 5213.89 3088.29 Q5240.92 3113.66 5240.92 3156.99 Q5240.92 3201.62 5213.15 3226.44 Q5185.37 3251.07 5134.81 3251.07 Q5117.4 3251.07 5099.26 3248.1 Q5081.29 3245.14 5062.03 3239.22 L5062.03 3201.62 Q5078.7 3210.7 5096.48 3215.14 Q5114.26 3219.59 5134.07 3219.59 Q5166.11 3219.59 5184.81 3202.73 Q5203.52 3185.88 5203.52 3156.99 Q5203.52 3128.11 5184.81 3111.25 Q5166.11 3094.4 5134.07 3094.4 Q5119.07 3094.4 5104.07 3097.73 Q5089.26 3101.07 5073.7 3108.11 L5073.7 2969.22 Z" fill="#000000" fill-rule="evenodd" fill-opacity="1" /><polyline clip-path="url(#clip2600)" style="stroke:#c271d2; stroke-width:32; stroke-opacity:1; fill:none" points="
  2573.78,3591.3 3725.78,3591.3 
  "/>
<path clip-path="url(#clip2600)" d="M 0 0 M3974.63 3453.06 L4012.04 3453.06 L4012.04 3710.28 Q4012.04 3760.28 3992.97 3782.87 Q3974.08 3805.46 3932.04 3805.46 L3917.78 3805.46 L3917.78 3773.98 L3929.45 3773.98 Q3954.26 3773.98 3964.45 3760.09 Q3974.63 3746.2 3974.63 3710.28 L3974.63 3453.06 Z" fill="#000000" fill-rule="evenodd" fill-opacity="1" /><path clip-path="url(#clip2600)" d="M 0 0 M4059.08 3698.06 L4120.19 3698.06 L4120.19 3487.13 L4053.71 3500.46 L4053.71 3466.39 L4119.82 3453.06 L4157.22 3453.06 L4157.22 3698.06 L4218.34 3698.06 L4218.34 3729.54 L4059.08 3729.54 L4059.08 3698.06 Z" fill="#000000" fill-rule="evenodd" fill-opacity="1" /><path clip-path="url(#clip2600)" d="M 0 0 M4379.08 3557.32 L4616.48 3557.32 L4616.48 3588.43 L4379.08 3588.43 L4379.08 3557.32 M4379.08 3632.87 L4616.48 3632.87 L4616.48 3664.35 L4379.08 3664.35 L4379.08 3632.87 Z" fill="#000000" fill-rule="evenodd" fill-opacity="1" /><path clip-path="url(#clip2600)" d="M 0 0 M4857.59 3477.69 Q4828.7 3477.69 4814.07 3506.2 Q4799.63 3534.54 4799.63 3591.57 Q4799.63 3648.43 4814.07 3676.94 Q4828.7 3705.28 4857.59 3705.28 Q4886.67 3705.28 4901.11 3676.94 Q4915.74 3648.43 4915.74 3591.57 Q4915.74 3534.54 4901.11 3506.2 Q4886.67 3477.69 4857.59 3477.69 M4857.59 3448.06 Q4904.07 3448.06 4928.52 3484.91 Q4953.15 3521.58 4953.15 3591.57 Q4953.15 3661.39 4928.52 3698.24 Q4904.07 3734.91 4857.59 3734.91 Q4811.11 3734.91 4786.48 3698.24 Q4762.04 3661.39 4762.04 3591.57 Q4762.04 3521.58 4786.48 3484.91 Q4811.11 3448.06 4857.59 3448.06 Z" fill="#000000" fill-rule="evenodd" fill-opacity="1" /><path clip-path="url(#clip2600)" d="M 0 0 M4993.7 3682.5 L5032.78 3682.5 L5032.78 3729.54 L4993.7 3729.54 L4993.7 3682.5 Z" fill="#000000" fill-rule="evenodd" fill-opacity="1" /><path clip-path="url(#clip2600)" d="M 0 0 M5063.89 3453.06 L5241.66 3453.06 L5241.66 3468.98 L5141.29 3729.54 L5102.22 3729.54 L5196.66 3484.54 L5063.89 3484.54 L5063.89 3453.06 Z" fill="#000000" fill-rule="evenodd" fill-opacity="1" /><path clip-path="url(#clip2600)" d="M 0 0 M5282.59 3453.06 L5429.44 3453.06 L5429.44 3484.54 L5316.85 3484.54 L5316.85 3552.32 Q5325 3549.54 5333.14 3548.24 Q5341.29 3546.76 5349.44 3546.76 Q5395.74 3546.76 5422.77 3572.13 Q5449.81 3597.5 5449.81 3640.83 Q5449.81 3685.46 5422.03 3710.28 Q5394.26 3734.91 5343.7 3734.91 Q5326.29 3734.91 5308.14 3731.94 Q5290.18 3728.98 5270.92 3723.06 L5270.92 3685.46 Q5287.59 3694.54 5305.37 3698.98 Q5323.14 3703.43 5342.96 3703.43 Q5375 3703.43 5393.7 3686.57 Q5412.4 3669.72 5412.4 3640.83 Q5412.4 3611.95 5393.7 3595.09 Q5375 3578.24 5342.96 3578.24 Q5327.96 3578.24 5312.96 3581.57 Q5298.14 3584.91 5282.59 3591.95 L5282.59 3453.06 Z" fill="#000000" fill-rule="evenodd" fill-opacity="1" /><polyline clip-path="url(#clip2600)" style="stroke:#ac8d18; stroke-width:32; stroke-opacity:1; fill:none" points="
  2573.78,4075.14 3725.78,4075.14 
  "/>
<path clip-path="url(#clip2600)" d="M 0 0 M3974.63 3936.9 L4012.04 3936.9 L4012.04 4194.12 Q4012.04 4244.12 3992.97 4266.71 Q3974.08 4289.3 3932.04 4289.3 L3917.78 4289.3 L3917.78 4257.82 L3929.45 4257.82 Q3954.26 4257.82 3964.45 4243.93 Q3974.63 4230.04 3974.63 4194.12 L3974.63 3936.9 Z" fill="#000000" fill-rule="evenodd" fill-opacity="1" /><path clip-path="url(#clip2600)" d="M 0 0 M4059.08 4181.9 L4120.19 4181.9 L4120.19 3970.97 L4053.71 3984.3 L4053.71 3950.23 L4119.82 3936.9 L4157.22 3936.9 L4157.22 4181.9 L4218.34 4181.9 L4218.34 4213.38 L4059.08 4213.38 L4059.08 4181.9 Z" fill="#000000" fill-rule="evenodd" fill-opacity="1" /><path clip-path="url(#clip2600)" d="M 0 0 M4379.08 4041.16 L4616.48 4041.16 L4616.48 4072.27 L4379.08 4072.27 L4379.08 4041.16 M4379.08 4116.71 L4616.48 4116.71 L4616.48 4148.19 L4379.08 4148.19 L4379.08 4116.71 Z" fill="#000000" fill-rule="evenodd" fill-opacity="1" /><path clip-path="url(#clip2600)" d="M 0 0 M4784.07 4181.9 L4845.18 4181.9 L4845.18 3970.97 L4778.7 3984.3 L4778.7 3950.23 L4844.81 3936.9 L4882.22 3936.9 L4882.22 4181.9 L4943.33 4181.9 L4943.33 4213.38 L4784.07 4213.38 L4784.07 4181.9 Z" fill="#000000" fill-rule="evenodd" fill-opacity="1" /><path clip-path="url(#clip2600)" d="M 0 0 M4983.89 4166.34 L5022.96 4166.34 L5022.96 4213.38 L4983.89 4213.38 L4983.89 4166.34 Z" fill="#000000" fill-rule="evenodd" fill-opacity="1" /><path clip-path="url(#clip2600)" d="M 0 0 M5143.52 3961.53 Q5114.63 3961.53 5100 3990.04 Q5085.55 4018.38 5085.55 4075.41 Q5085.55 4132.27 5100 4160.78 Q5114.63 4189.12 5143.52 4189.12 Q5172.59 4189.12 5187.03 4160.78 Q5201.66 4132.27 5201.66 4075.41 Q5201.66 4018.38 5187.03 3990.04 Q5172.59 3961.53 5143.52 3961.53 M5143.52 3931.9 Q5190 3931.9 5214.44 3968.75 Q5239.07 4005.42 5239.07 4075.41 Q5239.07 4145.23 5214.44 4182.08 Q5190 4218.75 5143.52 4218.75 Q5097.03 4218.75 5072.41 4182.08 Q5047.96 4145.23 5047.96 4075.41 Q5047.96 4005.42 5072.41 3968.75 Q5097.03 3931.9 5143.52 3931.9 Z" fill="#000000" fill-rule="evenodd" fill-opacity="1" /><polyline clip-path="url(#clip2600)" style="stroke:#00a9ad; stroke-width:32; stroke-opacity:1; fill:none" points="
  2573.78,4558.98 3725.78,4558.98 
  "/>
<path clip-path="url(#clip2600)" d="M 0 0 M3917.78 4420.74 L3973.52 4420.74 L4044.08 4608.88 L4115 4420.74 L4170.74 4420.74 L4170.74 4697.22 L4134.26 4697.22 L4134.26 4454.44 L4062.97 4644.07 L4025.37 4644.07 L3954.08 4454.44 L3954.08 4697.22 L3917.78 4697.22 L3917.78 4420.74 Z" fill="#000000" fill-rule="evenodd" fill-opacity="1" /><path clip-path="url(#clip2600)" d="M 0 0 M4300.37 4457.59 L4249.63 4595.18 L4351.3 4595.18 L4300.37 4457.59 M4279.26 4420.74 L4321.67 4420.74 L4427.04 4697.22 L4388.15 4697.22 L4362.96 4626.29 L4238.34 4626.29 L4213.15 4697.22 L4173.71 4697.22 L4279.26 4420.74 Z" fill="#000000" fill-rule="evenodd" fill-opacity="1" /><path clip-path="url(#clip2600)" d="M 0 0 M4450.93 4420.74 L4491.11 4420.74 L4559.82 4523.51 L4628.89 4420.74 L4669.07 4420.74 L4580.19 4553.51 L4675 4697.22 L4634.81 4697.22 L4557.04 4579.63 L4478.7 4697.22 L4438.33 4697.22 L4537.04 4549.63 L4450.93 4420.74 Z" fill="#000000" fill-rule="evenodd" fill-opacity="1" /><path clip-path="url(#clip2600)" d="M 0 0 M4868.33 4760.18 L4868.33 4786.66 L4671.3 4786.66 L4671.3 4760.18 L4868.33 4760.18 Z" fill="#000000" fill-rule="evenodd" fill-opacity="1" /><path clip-path="url(#clip2600)" d="M 0 0 M5036.66 4567.59 Q5048.7 4571.66 5060 4585 Q5071.48 4598.33 5082.96 4621.66 L5120.92 4697.22 L5080.74 4697.22 L5045.37 4626.29 Q5031.66 4598.51 5018.7 4589.44 Q5005.92 4580.37 4983.7 4580.37 L4942.96 4580.37 L4942.96 4697.22 L4905.55 4697.22 L4905.55 4420.74 L4990 4420.74 Q5037.41 4420.74 5060.74 4440.55 Q5084.07 4460.37 5084.07 4500.37 Q5084.07 4526.48 5071.85 4543.7 Q5059.81 4560.92 5036.66 4567.59 M4942.96 4451.48 L4942.96 4549.63 L4990 4549.63 Q5017.04 4549.63 5030.74 4537.22 Q5044.63 4524.63 5044.63 4500.37 Q5044.63 4476.11 5030.74 4463.88 Q5017.04 4451.48 4990 4451.48 L4942.96 4451.48 Z" fill="#000000" fill-rule="evenodd" fill-opacity="1" /><path clip-path="url(#clip2600)" d="M 0 0 M5317.03 4585 L5317.03 4601.66 L5160.37 4601.66 Q5162.59 4636.85 5181.48 4655.37 Q5200.55 4673.7 5234.44 4673.7 Q5254.07 4673.7 5272.4 4668.88 Q5290.92 4664.07 5309.07 4654.44 L5309.07 4686.66 Q5290.74 4694.44 5271.48 4698.51 Q5252.22 4702.59 5232.4 4702.59 Q5182.77 4702.59 5153.7 4673.7 Q5124.81 4644.81 5124.81 4595.55 Q5124.81 4544.63 5152.22 4514.81 Q5179.81 4484.81 5226.48 4484.81 Q5268.33 4484.81 5292.59 4511.85 Q5317.03 4538.7 5317.03 4585 M5282.96 4575 Q5282.59 4547.03 5267.22 4530.37 Q5252.03 4513.7 5226.85 4513.7 Q5198.33 4513.7 5181.11 4529.81 Q5164.07 4545.92 5161.48 4575.18 L5282.96 4575 Z" fill="#000000" fill-rule="evenodd" fill-opacity="1" /><path clip-path="url(#clip2600)" d="M 0 0 M5485 4495.92 L5485 4528.14 Q5470.55 4520.74 5455 4517.03 Q5439.44 4513.33 5422.77 4513.33 Q5397.4 4513.33 5384.63 4521.11 Q5372.03 4528.88 5372.03 4544.44 Q5372.03 4556.29 5381.11 4563.14 Q5390.18 4569.81 5417.59 4575.92 L5429.26 4578.51 Q5465.55 4586.29 5480.74 4600.55 Q5496.11 4614.62 5496.11 4640 Q5496.11 4668.88 5473.14 4685.74 Q5450.37 4702.59 5410.37 4702.59 Q5393.7 4702.59 5375.55 4699.25 Q5357.59 4696.11 5337.59 4689.62 L5337.59 4654.44 Q5356.48 4664.25 5374.81 4669.25 Q5393.14 4674.07 5411.11 4674.07 Q5435.18 4674.07 5448.14 4665.92 Q5461.11 4657.59 5461.11 4642.59 Q5461.11 4628.7 5451.66 4621.29 Q5442.4 4613.88 5410.74 4607.03 L5398.88 4604.25 Q5367.22 4597.59 5353.14 4583.88 Q5339.07 4570 5339.07 4545.92 Q5339.07 4516.66 5359.81 4500.74 Q5380.55 4484.81 5418.7 4484.81 Q5437.59 4484.81 5454.25 4487.59 Q5470.92 4490.37 5485 4495.92 Z" fill="#000000" fill-rule="evenodd" fill-opacity="1" /><path clip-path="url(#clip2600)" d="M 0 0 M5528.33 4615.37 L5528.33 4489.81 L5562.4 4489.81 L5562.4 4614.07 Q5562.4 4643.51 5573.88 4658.33 Q5585.37 4672.96 5608.33 4672.96 Q5635.92 4672.96 5651.85 4655.37 Q5667.96 4637.77 5667.96 4607.4 L5667.96 4489.81 L5702.03 4489.81 L5702.03 4697.22 L5667.96 4697.22 L5667.96 4665.37 Q5655.55 4684.25 5639.07 4693.51 Q5622.77 4702.59 5601.11 4702.59 Q5565.37 4702.59 5546.85 4680.37 Q5528.33 4658.14 5528.33 4615.37 M5614.07 4484.81 L5614.07 4484.81 Z" fill="#000000" fill-rule="evenodd" fill-opacity="1" /><path clip-path="url(#clip2600)" d="M 0 0 M5737.77 4409.07 L5771.85 4409.07 L5771.85 4697.22 L5737.77 4697.22 L5737.77 4409.07 Z" fill="#000000" fill-rule="evenodd" fill-opacity="1" /><path clip-path="url(#clip2600)" d="M 0 0 M5841.29 4430.92 L5841.29 4489.81 L5911.47 4489.81 L5911.47 4516.29 L5841.29 4516.29 L5841.29 4628.88 Q5841.29 4654.25 5848.14 4661.48 Q5855.18 4668.7 5876.47 4668.7 L5911.47 4668.7 L5911.47 4697.22 L5876.47 4697.22 Q5837.03 4697.22 5822.03 4682.59 Q5807.03 4667.77 5807.03 4628.88 L5807.03 4516.29 L5782.03 4516.29 L5782.03 4489.81 L5807.03 4489.81 L5807.03 4430.92 L5841.29 4430.92 Z" fill="#000000" fill-rule="evenodd" fill-opacity="1" /><path clip-path="url(#clip2600)" d="M 0 0 M6104.81 4760.18 L6104.81 4786.66 L5907.77 4786.66 L5907.77 4760.18 L6104.81 4760.18 Z" fill="#000000" fill-rule="evenodd" fill-opacity="1" /><path clip-path="url(#clip2600)" d="M 0 0 M6142.03 4420.74 L6179.44 4420.74 L6179.44 4677.96 Q6179.44 4727.96 6160.36 4750.55 Q6141.47 4773.14 6099.44 4773.14 L6085.18 4773.14 L6085.18 4741.66 L6096.84 4741.66 Q6121.66 4741.66 6131.84 4727.77 Q6142.03 4713.88 6142.03 4677.96 L6142.03 4420.74 Z" fill="#000000" fill-rule="evenodd" fill-opacity="1" /><path clip-path="url(#clip2600)" d="M 0 0 M6226.47 4665.74 L6287.58 4665.74 L6287.58 4454.81 L6221.1 4468.14 L6221.1 4434.07 L6287.21 4420.74 L6324.62 4420.74 L6324.62 4665.74 L6385.73 4665.74 L6385.73 4697.22 L6226.47 4697.22 L6226.47 4665.74 Z" fill="#000000" fill-rule="evenodd" fill-opacity="1" /><path clip-path="url(#clip2600)" d="M 0 0 M6546.47 4525 L6783.88 4525 L6783.88 4556.11 L6546.47 4556.11 L6546.47 4525 M6546.47 4600.55 L6783.88 4600.55 L6783.88 4632.03 L6546.47 4632.03 L6546.47 4600.55 Z" fill="#000000" fill-rule="evenodd" fill-opacity="1" /><path clip-path="url(#clip2600)" d="M 0 0 M7024.99 4445.37 Q6996.1 4445.37 6981.47 4473.88 Q6967.02 4502.22 6967.02 4559.25 Q6967.02 4616.11 6981.47 4644.62 Q6996.1 4672.96 7024.99 4672.96 Q7054.06 4672.96 7068.51 4644.62 Q7083.14 4616.11 7083.14 4559.25 Q7083.14 4502.22 7068.51 4473.88 Q7054.06 4445.37 7024.99 4445.37 M7024.99 4415.74 Q7071.47 4415.74 7095.91 4452.59 Q7120.54 4489.26 7120.54 4559.25 Q7120.54 4629.07 7095.91 4665.92 Q7071.47 4702.59 7024.99 4702.59 Q6978.51 4702.59 6953.88 4665.92 Q6929.43 4629.07 6929.43 4559.25 Q6929.43 4489.26 6953.88 4452.59 Q6978.51 4415.74 7024.99 4415.74 Z" fill="#000000" fill-rule="evenodd" fill-opacity="1" /><path clip-path="url(#clip2600)" d="M 0 0 M7161.1 4650.18 L7200.17 4650.18 L7200.17 4697.22 L7161.1 4697.22 L7161.1 4650.18 Z" fill="#000000" fill-rule="evenodd" fill-opacity="1" /><path clip-path="url(#clip2600)" d="M 0 0 M7343.5 4453.33 L7249.06 4600.92 L7343.5 4600.92 L7343.5 4453.33 M7333.69 4420.74 L7380.73 4420.74 L7380.73 4600.92 L7420.17 4600.92 L7420.17 4632.03 L7380.73 4632.03 L7380.73 4697.22 L7343.5 4697.22 L7343.5 4632.03 L7218.69 4632.03 L7218.69 4595.92 L7333.69 4420.74 Z" fill="#000000" fill-rule="evenodd" fill-opacity="1" /></svg>
