<?xml version="1.0" encoding="utf-8"?>
<svg xmlns="http://www.w3.org/2000/svg" xmlns:xlink="http://www.w3.org/1999/xlink" width="4800" height="3200" viewBox="0 0 19200 12800">
<defs>
  <clipPath id="clip020">
    <rect x="0" y="0" width="19200" height="12800"/>
  </clipPath>
</defs>
<path clip-path="url(#clip020)" d="
M0 12800 L19200 12800 L19200 0 L0 0  Z
  " fill="#ffffff" fill-rule="evenodd" fill-opacity="1"/>
<defs>
  <clipPath id="clip021">
    <rect x="3840" y="0" width="13441" height="12800"/>
  </clipPath>
</defs>
<path clip-path="url(#clip020)" d="
M1808.56 11385.4 L18822 11385.4 L18822 987.777 L1808.56 987.777  Z
  " fill="#ffffff" fill-rule="evenodd" fill-opacity="1"/>
<defs>
  <clipPath id="clip022">
    <rect x="1808" y="987" width="17014" height="10399"/>
  </clipPath>
</defs>
<polyline clip-path="url(#clip022)" style="stroke:#000000; stroke-width:16; stroke-opacity:0.1; fill:none" points="
  4073.46,11385.4 4073.46,987.777 
  "/>
<polyline clip-path="url(#clip022)" style="stroke:#000000; stroke-width:16; stroke-opacity:0.1; fill:none" points="
  7640.23,11385.4 7640.23,987.777 
  "/>
<polyline clip-path="url(#clip022)" style="stroke:#000000; stroke-width:16; stroke-opacity:0.1; fill:none" points="
  11207,11385.4 11207,987.777 
  "/>
<polyline clip-path="url(#clip022)" style="stroke:#000000; stroke-width:16; stroke-opacity:0.1; fill:none" points="
  14773.8,11385.4 14773.8,987.777 
  "/>
<polyline clip-path="url(#clip022)" style="stroke:#000000; stroke-width:16; stroke-opacity:0.1; fill:none" points="
  18340.5,11385.4 18340.5,987.777 
  "/>
<polyline clip-path="url(#clip022)" style="stroke:#000000; stroke-width:16; stroke-opacity:0.1; fill:none" points="
  1808.56,11156.3 18822,11156.3 
  "/>
<polyline clip-path="url(#clip022)" style="stroke:#000000; stroke-width:16; stroke-opacity:0.1; fill:none" points="
  1808.56,9662.35 18822,9662.35 
  "/>
<polyline clip-path="url(#clip022)" style="stroke:#000000; stroke-width:16; stroke-opacity:0.1; fill:none" points="
  1808.56,8168.42 18822,8168.42 
  "/>
<polyline clip-path="url(#clip022)" style="stroke:#000000; stroke-width:16; stroke-opacity:0.1; fill:none" points="
  1808.56,6674.49 18822,6674.49 
  "/>
<polyline clip-path="url(#clip022)" style="stroke:#000000; stroke-width:16; stroke-opacity:0.1; fill:none" points="
  1808.56,5180.57 18822,5180.57 
  "/>
<polyline clip-path="url(#clip022)" style="stroke:#000000; stroke-width:16; stroke-opacity:0.1; fill:none" points="
  1808.56,3686.64 18822,3686.64 
  "/>
<polyline clip-path="url(#clip022)" style="stroke:#000000; stroke-width:16; stroke-opacity:0.1; fill:none" points="
  1808.56,2192.71 18822,2192.71 
  "/>
<polyline clip-path="url(#clip020)" style="stroke:#000000; stroke-width:32; stroke-opacity:1; fill:none" points="
  1808.56,11385.4 18822,11385.4 
  "/>
<polyline clip-path="url(#clip020)" style="stroke:#000000; stroke-width:32; stroke-opacity:1; fill:none" points="
  1808.56,11385.4 1808.56,987.777 
  "/>
<polyline clip-path="url(#clip020)" style="stroke:#000000; stroke-width:32; stroke-opacity:1; fill:none" points="
  4073.46,11385.4 4073.46,11260.7 
  "/>
<polyline clip-path="url(#clip020)" style="stroke:#000000; stroke-width:32; stroke-opacity:1; fill:none" points="
  7640.23,11385.4 7640.23,11260.7 
  "/>
<polyline clip-path="url(#clip020)" style="stroke:#000000; stroke-width:32; stroke-opacity:1; fill:none" points="
  11207,11385.4 11207,11260.7 
  "/>
<polyline clip-path="url(#clip020)" style="stroke:#000000; stroke-width:32; stroke-opacity:1; fill:none" points="
  14773.8,11385.4 14773.8,11260.7 
  "/>
<polyline clip-path="url(#clip020)" style="stroke:#000000; stroke-width:32; stroke-opacity:1; fill:none" points="
  18340.5,11385.4 18340.5,11260.7 
  "/>
<polyline clip-path="url(#clip020)" style="stroke:#000000; stroke-width:32; stroke-opacity:1; fill:none" points="
  1808.56,11156.3 2012.72,11156.3 
  "/>
<polyline clip-path="url(#clip020)" style="stroke:#000000; stroke-width:32; stroke-opacity:1; fill:none" points="
  1808.56,9662.35 2012.72,9662.35 
  "/>
<polyline clip-path="url(#clip020)" style="stroke:#000000; stroke-width:32; stroke-opacity:1; fill:none" points="
  1808.56,8168.42 2012.72,8168.42 
  "/>
<polyline clip-path="url(#clip020)" style="stroke:#000000; stroke-width:32; stroke-opacity:1; fill:none" points="
  1808.56,6674.49 2012.72,6674.49 
  "/>
<polyline clip-path="url(#clip020)" style="stroke:#000000; stroke-width:32; stroke-opacity:1; fill:none" points="
  1808.56,5180.57 2012.72,5180.57 
  "/>
<polyline clip-path="url(#clip020)" style="stroke:#000000; stroke-width:32; stroke-opacity:1; fill:none" points="
  1808.56,3686.64 2012.72,3686.64 
  "/>
<polyline clip-path="url(#clip020)" style="stroke:#000000; stroke-width:32; stroke-opacity:1; fill:none" points="
  1808.56,2192.71 2012.72,2192.71 
  "/>
<path clip-path="url(#clip020)" d="M 0 0 M3931.98 11561.4 Q3903.09 11561.4 3888.46 11589.9 Q3874.01 11618.2 3874.01 11675.3 Q3874.01 11732.1 3888.46 11760.6 Q3903.09 11789 3931.98 11789 Q3961.05 11789 3975.5 11760.6 Q3990.12 11732.1 3990.12 11675.3 Q3990.12 11618.2 3975.5 11589.9 Q3961.05 11561.4 3931.98 11561.4 M3931.98 11531.7 Q3978.46 11531.7 4002.9 11568.6 Q4027.53 11605.3 4027.53 11675.3 Q4027.53 11745.1 4002.9 11781.9 Q3978.46 11818.6 3931.98 11818.6 Q3885.5 11818.6 3860.87 11781.9 Q3836.42 11745.1 3836.42 11675.3 Q3836.42 11605.3 3860.87 11568.6 Q3885.5 11531.7 3931.98 11531.7 Z" fill="#000000" fill-rule="evenodd" fill-opacity="1" /><path clip-path="url(#clip020)" d="M 0 0 M4068.09 11766.2 L4107.16 11766.2 L4107.16 11813.2 L4068.09 11813.2 L4068.09 11766.2 Z" fill="#000000" fill-rule="evenodd" fill-opacity="1" /><path clip-path="url(#clip020)" d="M 0 0 M4179.94 11781.7 L4310.49 11781.7 L4310.49 11813.2 L4134.94 11813.2 L4134.94 11781.7 Q4156.24 11759.7 4192.9 11722.7 Q4229.75 11685.4 4239.2 11674.7 Q4257.16 11654.5 4264.2 11640.6 Q4271.42 11626.5 4271.42 11613 Q4271.42 11591 4255.86 11577.1 Q4240.49 11563.2 4215.68 11563.2 Q4198.09 11563.2 4178.46 11569.3 Q4159.01 11575.4 4136.79 11587.8 L4136.79 11550.1 Q4159.38 11541 4179.01 11536.4 Q4198.64 11531.7 4214.94 11531.7 Q4257.9 11531.7 4283.46 11553.2 Q4309.01 11574.7 4309.01 11610.6 Q4309.01 11627.7 4302.53 11643 Q4296.23 11658.2 4279.38 11679 Q4274.75 11684.3 4249.94 11710.1 Q4225.12 11735.6 4179.94 11781.7 Z" fill="#000000" fill-rule="evenodd" fill-opacity="1" /><path clip-path="url(#clip020)" d="M 0 0 M7490.41 11561.4 Q7461.52 11561.4 7446.89 11589.9 Q7432.45 11618.2 7432.45 11675.3 Q7432.45 11732.1 7446.89 11760.6 Q7461.52 11789 7490.41 11789 Q7519.49 11789 7533.93 11760.6 Q7548.56 11732.1 7548.56 11675.3 Q7548.56 11618.2 7533.93 11589.9 Q7519.49 11561.4 7490.41 11561.4 M7490.41 11531.7 Q7536.89 11531.7 7561.34 11568.6 Q7585.97 11605.3 7585.97 11675.3 Q7585.97 11745.1 7561.34 11781.9 Q7536.89 11818.6 7490.41 11818.6 Q7443.93 11818.6 7419.3 11781.9 Q7394.86 11745.1 7394.86 11675.3 Q7394.86 11605.3 7419.3 11568.6 Q7443.93 11531.7 7490.41 11531.7 Z" fill="#000000" fill-rule="evenodd" fill-opacity="1" /><path clip-path="url(#clip020)" d="M 0 0 M7626.52 11766.2 L7665.6 11766.2 L7665.6 11813.2 L7626.52 11813.2 L7626.52 11766.2 Z" fill="#000000" fill-rule="evenodd" fill-opacity="1" /><path clip-path="url(#clip020)" d="M 0 0 M7808.93 11569.3 L7714.49 11716.9 L7808.93 11716.9 L7808.93 11569.3 M7799.11 11536.7 L7846.15 11536.7 L7846.15 11716.9 L7885.6 11716.9 L7885.6 11748 L7846.15 11748 L7846.15 11813.2 L7808.93 11813.2 L7808.93 11748 L7684.12 11748 L7684.12 11711.9 L7799.11 11536.7 Z" fill="#000000" fill-rule="evenodd" fill-opacity="1" /><path clip-path="url(#clip020)" d="M 0 0 M11058.5 11561.4 Q11029.6 11561.4 11015 11589.9 Q11000.5 11618.2 11000.5 11675.3 Q11000.5 11732.1 11015 11760.6 Q11029.6 11789 11058.5 11789 Q11087.6 11789 11102 11760.6 Q11116.6 11732.1 11116.6 11675.3 Q11116.6 11618.2 11102 11589.9 Q11087.6 11561.4 11058.5 11561.4 M11058.5 11531.7 Q11105 11531.7 11129.4 11568.6 Q11154 11605.3 11154 11675.3 Q11154 11745.1 11129.4 11781.9 Q11105 11818.6 11058.5 11818.6 Q11012 11818.6 10987.4 11781.9 Q10962.9 11745.1 10962.9 11675.3 Q10962.9 11605.3 10987.4 11568.6 Q11012 11531.7 11058.5 11531.7 Z" fill="#000000" fill-rule="evenodd" fill-opacity="1" /><path clip-path="url(#clip020)" d="M 0 0 M11194.6 11766.2 L11233.7 11766.2 L11233.7 11813.2 L11194.6 11813.2 L11194.6 11766.2 Z" fill="#000000" fill-rule="evenodd" fill-opacity="1" /><path clip-path="url(#clip020)" d="M 0 0 M11358.8 11660.1 Q11333.7 11660.1 11318.8 11677.3 Q11304.2 11694.5 11304.2 11724.5 Q11304.2 11754.3 11318.8 11771.7 Q11333.7 11789 11358.8 11789 Q11384 11789 11398.7 11771.7 Q11413.5 11754.3 11413.5 11724.5 Q11413.5 11694.5 11398.7 11677.3 Q11384 11660.1 11358.8 11660.1 M11433.1 11542.8 L11433.1 11576.9 Q11419 11570.3 11404.6 11566.7 Q11390.3 11563.2 11376.3 11563.2 Q11339.2 11563.2 11319.6 11588.2 Q11300.1 11613.2 11297.4 11663.8 Q11308.3 11647.7 11324.8 11639.1 Q11341.3 11630.4 11361.1 11630.4 Q11402.7 11630.4 11426.8 11655.8 Q11451.1 11681 11451.1 11724.5 Q11451.1 11767.1 11425.9 11792.8 Q11400.7 11818.6 11358.8 11818.6 Q11310.9 11818.6 11285.5 11781.9 Q11260.1 11745.1 11260.1 11675.3 Q11260.1 11609.7 11291.3 11570.8 Q11322.4 11531.7 11374.8 11531.7 Q11388.8 11531.7 11403.1 11534.5 Q11417.6 11537.3 11433.1 11542.8 Z" fill="#000000" fill-rule="evenodd" fill-opacity="1" /><path clip-path="url(#clip020)" d="M 0 0 M14626.3 11561.4 Q14597.4 11561.4 14582.7 11589.9 Q14568.3 11618.2 14568.3 11675.3 Q14568.3 11732.1 14582.7 11760.6 Q14597.4 11789 14626.3 11789 Q14655.3 11789 14669.8 11760.6 Q14684.4 11732.1 14684.4 11675.3 Q14684.4 11618.2 14669.8 11589.9 Q14655.3 11561.4 14626.3 11561.4 M14626.3 11531.7 Q14672.7 11531.7 14697.2 11568.6 Q14721.8 11605.3 14721.8 11675.3 Q14721.8 11745.1 14697.2 11781.9 Q14672.7 11818.6 14626.3 11818.6 Q14579.8 11818.6 14555.2 11781.9 Q14530.7 11745.1 14530.7 11675.3 Q14530.7 11605.3 14555.2 11568.6 Q14579.8 11531.7 14626.3 11531.7 Z" fill="#000000" fill-rule="evenodd" fill-opacity="1" /><path clip-path="url(#clip020)" d="M 0 0 M14762.4 11766.2 L14801.4 11766.2 L14801.4 11813.2 L14762.4 11813.2 L14762.4 11766.2 Z" fill="#000000" fill-rule="evenodd" fill-opacity="1" /><path clip-path="url(#clip020)" d="M 0 0 M14922 11681.9 Q14895.3 11681.9 14880 11696.2 Q14864.8 11710.4 14864.8 11735.4 Q14864.8 11760.4 14880 11774.7 Q14895.3 11789 14922 11789 Q14948.7 11789 14964 11774.7 Q14979.4 11760.3 14979.4 11735.4 Q14979.4 11710.4 14964 11696.2 Q14948.9 11681.9 14922 11681.9 M14884.6 11666 Q14860.5 11660.1 14847 11643.6 Q14833.7 11627.1 14833.7 11603.4 Q14833.7 11570.3 14857.2 11551 Q14880.9 11531.7 14922 11531.7 Q14963.3 11531.7 14986.8 11551 Q15010.3 11570.3 15010.3 11603.4 Q15010.3 11627.1 14996.8 11643.6 Q14983.5 11660.1 14959.6 11666 Q14986.6 11672.3 15001.6 11690.6 Q15016.8 11709 15016.8 11735.4 Q15016.8 11775.6 14992.2 11797.1 Q14967.7 11818.6 14922 11818.6 Q14876.3 11818.6 14851.6 11797.1 Q14827.2 11775.6 14827.2 11735.4 Q14827.2 11709 14842.4 11690.6 Q14857.6 11672.3 14884.6 11666 M14870.9 11606.9 Q14870.9 11628.4 14884.2 11640.4 Q14897.7 11652.5 14922 11652.5 Q14946.1 11652.5 14959.6 11640.4 Q14973.3 11628.4 14973.3 11606.9 Q14973.3 11585.4 14959.6 11573.4 Q14946.1 11561.4 14922 11561.4 Q14897.7 11561.4 14884.2 11573.4 Q14870.9 11585.4 14870.9 11606.9 Z" fill="#000000" fill-rule="evenodd" fill-opacity="1" /><path clip-path="url(#clip020)" d="M 0 0 M18115.7 11781.7 L18176.8 11781.7 L18176.8 11570.8 L18110.3 11584.1 L18110.3 11550.1 L18176.5 11536.7 L18213.9 11536.7 L18213.9 11781.7 L18275 11781.7 L18275 11813.2 L18115.7 11813.2 L18115.7 11781.7 Z" fill="#000000" fill-rule="evenodd" fill-opacity="1" /><path clip-path="url(#clip020)" d="M 0 0 M18315.5 11766.2 L18354.6 11766.2 L18354.6 11813.2 L18315.5 11813.2 L18315.5 11766.2 Z" fill="#000000" fill-rule="evenodd" fill-opacity="1" /><path clip-path="url(#clip020)" d="M 0 0 M18475.2 11561.4 Q18446.3 11561.4 18431.6 11589.9 Q18417.2 11618.2 18417.2 11675.3 Q18417.2 11732.1 18431.6 11760.6 Q18446.3 11789 18475.2 11789 Q18504.2 11789 18518.7 11760.6 Q18533.3 11732.1 18533.3 11675.3 Q18533.3 11618.2 18518.7 11589.9 Q18504.2 11561.4 18475.2 11561.4 M18475.2 11531.7 Q18521.6 11531.7 18546.1 11568.6 Q18570.7 11605.3 18570.7 11675.3 Q18570.7 11745.1 18546.1 11781.9 Q18521.6 11818.6 18475.2 11818.6 Q18428.7 11818.6 18404.1 11781.9 Q18379.6 11745.1 18379.6 11675.3 Q18379.6 11605.3 18404.1 11568.6 Q18428.7 11531.7 18475.2 11531.7 Z" fill="#000000" fill-rule="evenodd" fill-opacity="1" /><path clip-path="url(#clip020)" d="M 0 0 M1018.04 11175.4 L1117.86 11175.4 L1117.86 11205.8 L1018.04 11205.8 L1018.04 11175.4 Z" fill="#000000" fill-rule="evenodd" fill-opacity="1" /><path clip-path="url(#clip020)" d="M 0 0 M1271.75 11145.4 Q1298.6 11151.2 1313.6 11169.3 Q1328.78 11187.5 1328.78 11214.1 Q1328.78 11255.1 1300.64 11277.5 Q1272.49 11299.9 1220.64 11299.9 Q1203.23 11299.9 1184.71 11296.4 Q1166.38 11293 1146.75 11286.2 L1146.75 11250.1 Q1162.3 11259.1 1180.82 11263.8 Q1199.34 11268.4 1219.52 11268.4 Q1254.71 11268.4 1273.04 11254.5 Q1291.56 11240.6 1291.56 11214.1 Q1291.56 11189.7 1274.34 11176 Q1257.3 11162.1 1226.75 11162.1 L1194.52 11162.1 L1194.52 11131.4 L1228.23 11131.4 Q1255.82 11131.4 1270.45 11120.4 Q1285.08 11109.3 1285.08 11088.6 Q1285.08 11067.3 1269.89 11056 Q1254.89 11044.5 1226.75 11044.5 Q1211.38 11044.5 1193.78 11047.9 Q1176.19 11051.2 1155.08 11058.2 L1155.08 11024.9 Q1176.38 11019 1194.9 11016 Q1213.6 11013 1230.08 11013 Q1272.67 11013 1297.49 11032.5 Q1322.3 11051.7 1322.3 11084.7 Q1322.3 11107.7 1309.15 11123.6 Q1296.01 11139.3 1271.75 11145.4 Z" fill="#000000" fill-rule="evenodd" fill-opacity="1" /><path clip-path="url(#clip020)" d="M 0 0 M1369.34 11247.5 L1408.41 11247.5 L1408.41 11294.5 L1369.34 11294.5 L1369.34 11247.5 Z" fill="#000000" fill-rule="evenodd" fill-opacity="1" /><path clip-path="url(#clip020)" d="M 0 0 M1449.34 11018 L1596.19 11018 L1596.19 11049.5 L1483.6 11049.5 L1483.6 11117.3 Q1491.75 11114.5 1499.89 11113.2 Q1508.04 11111.7 1516.19 11111.7 Q1562.49 11111.7 1589.52 11137.1 Q1616.56 11162.5 1616.56 11205.8 Q1616.56 11250.4 1588.78 11275.3 Q1561 11299.9 1510.45 11299.9 Q1493.04 11299.9 1474.89 11296.9 Q1456.93 11294 1437.67 11288 L1437.67 11250.4 Q1454.34 11259.5 1472.12 11264 Q1489.89 11268.4 1509.71 11268.4 Q1541.75 11268.4 1560.45 11251.6 Q1579.15 11234.7 1579.15 11205.8 Q1579.15 11176.9 1560.45 11160.1 Q1541.75 11143.2 1509.71 11143.2 Q1494.71 11143.2 1479.71 11146.6 Q1464.89 11149.9 1449.34 11156.9 L1449.34 11018 Z" fill="#000000" fill-rule="evenodd" fill-opacity="1" /><path clip-path="url(#clip020)" d="M 0 0 M1010.08 9681.52 L1109.9 9681.52 L1109.9 9711.89 L1010.08 9711.89 L1010.08 9681.52 Z" fill="#000000" fill-rule="evenodd" fill-opacity="1" /><path clip-path="url(#clip020)" d="M 0 0 M1263.78 9651.52 Q1290.64 9657.26 1305.64 9675.41 Q1320.82 9693.55 1320.82 9720.22 Q1320.82 9761.15 1292.67 9783.55 Q1264.52 9805.96 1212.67 9805.96 Q1195.27 9805.96 1176.75 9802.44 Q1158.41 9799.11 1138.78 9792.26 L1138.78 9756.15 Q1154.34 9765.22 1172.86 9769.85 Q1191.38 9774.48 1211.56 9774.48 Q1246.75 9774.48 1265.08 9760.59 Q1283.6 9746.7 1283.6 9720.22 Q1283.6 9695.78 1266.38 9682.07 Q1249.34 9668.18 1218.78 9668.18 L1186.56 9668.18 L1186.56 9637.44 L1220.27 9637.44 Q1247.86 9637.44 1262.49 9626.52 Q1277.12 9615.41 1277.12 9594.67 Q1277.12 9573.37 1261.93 9562.07 Q1246.93 9550.59 1218.78 9550.59 Q1203.41 9550.59 1185.82 9553.93 Q1168.23 9557.26 1147.12 9564.3 L1147.12 9530.96 Q1168.41 9525.04 1186.93 9522.07 Q1205.64 9519.11 1222.12 9519.11 Q1264.71 9519.11 1289.52 9538.55 Q1314.34 9557.81 1314.34 9590.78 Q1314.34 9613.74 1301.19 9629.67 Q1288.04 9645.41 1263.78 9651.52 Z" fill="#000000" fill-rule="evenodd" fill-opacity="1" /><path clip-path="url(#clip020)" d="M 0 0 M1361.38 9753.55 L1400.45 9753.55 L1400.45 9800.59 L1361.38 9800.59 L1361.38 9753.55 Z" fill="#000000" fill-rule="evenodd" fill-opacity="1" /><path clip-path="url(#clip020)" d="M 0 0 M1521 9548.74 Q1492.12 9548.74 1477.49 9577.26 Q1463.04 9605.59 1463.04 9662.63 Q1463.04 9719.48 1477.49 9748 Q1492.12 9776.33 1521 9776.33 Q1550.08 9776.33 1564.52 9748 Q1579.15 9719.48 1579.15 9662.63 Q1579.15 9605.59 1564.52 9577.26 Q1550.08 9548.74 1521 9548.74 M1521 9519.11 Q1567.49 9519.11 1591.93 9555.96 Q1616.56 9592.63 1616.56 9662.63 Q1616.56 9732.44 1591.93 9769.29 Q1567.49 9805.96 1521 9805.96 Q1474.52 9805.96 1449.89 9769.29 Q1425.45 9732.44 1425.45 9662.63 Q1425.45 9592.63 1449.89 9555.96 Q1474.52 9519.11 1521 9519.11 Z" fill="#000000" fill-rule="evenodd" fill-opacity="1" /><path clip-path="url(#clip020)" d="M 0 0 M1025.64 8187.59 L1125.45 8187.59 L1125.45 8217.96 L1025.64 8217.96 L1025.64 8187.59 Z" fill="#000000" fill-rule="evenodd" fill-opacity="1" /><path clip-path="url(#clip020)" d="M 0 0 M1198.23 8275.18 L1328.78 8275.18 L1328.78 8306.66 L1153.23 8306.66 L1153.23 8275.18 Q1174.52 8253.14 1211.19 8216.11 Q1248.04 8178.89 1257.49 8168.14 Q1275.45 8147.96 1282.49 8134.07 Q1289.71 8120 1289.71 8106.48 Q1289.71 8084.44 1274.15 8070.55 Q1258.78 8056.66 1233.97 8056.66 Q1216.38 8056.66 1196.75 8062.77 Q1177.3 8068.89 1155.08 8081.29 L1155.08 8043.52 Q1177.67 8034.44 1197.3 8029.81 Q1216.93 8025.18 1233.23 8025.18 Q1276.19 8025.18 1301.75 8046.66 Q1327.3 8068.14 1327.3 8104.07 Q1327.3 8121.11 1320.82 8136.48 Q1314.52 8151.66 1297.67 8172.4 Q1293.04 8177.77 1268.23 8203.51 Q1243.41 8229.07 1198.23 8275.18 Z" fill="#000000" fill-rule="evenodd" fill-opacity="1" /><path clip-path="url(#clip020)" d="M 0 0 M1369.34 8259.63 L1408.41 8259.63 L1408.41 8306.66 L1369.34 8306.66 L1369.34 8259.63 Z" fill="#000000" fill-rule="evenodd" fill-opacity="1" /><path clip-path="url(#clip020)" d="M 0 0 M1449.34 8030.18 L1596.19 8030.18 L1596.19 8061.66 L1483.6 8061.66 L1483.6 8129.44 Q1491.75 8126.66 1499.89 8125.37 Q1508.04 8123.89 1516.19 8123.89 Q1562.49 8123.89 1589.52 8149.26 Q1616.56 8174.63 1616.56 8217.96 Q1616.56 8262.59 1588.78 8287.4 Q1561 8312.03 1510.45 8312.03 Q1493.04 8312.03 1474.89 8309.07 Q1456.93 8306.11 1437.67 8300.18 L1437.67 8262.59 Q1454.34 8271.66 1472.12 8276.11 Q1489.89 8280.55 1509.71 8280.55 Q1541.75 8280.55 1560.45 8263.7 Q1579.15 8246.85 1579.15 8217.96 Q1579.15 8189.07 1560.45 8172.22 Q1541.75 8155.37 1509.71 8155.37 Q1494.71 8155.37 1479.71 8158.7 Q1464.89 8162.03 1449.34 8169.07 L1449.34 8030.18 Z" fill="#000000" fill-rule="evenodd" fill-opacity="1" /><path clip-path="url(#clip020)" d="M 0 0 M1017.67 6693.66 L1117.49 6693.66 L1117.49 6724.03 L1017.67 6724.03 L1017.67 6693.66 Z" fill="#000000" fill-rule="evenodd" fill-opacity="1" /><path clip-path="url(#clip020)" d="M 0 0 M1190.27 6781.25 L1320.82 6781.25 L1320.82 6812.73 L1145.27 6812.73 L1145.27 6781.25 Q1166.56 6759.22 1203.23 6722.18 Q1240.08 6684.96 1249.52 6674.22 Q1267.49 6654.03 1274.52 6640.14 Q1281.75 6626.07 1281.75 6612.55 Q1281.75 6590.51 1266.19 6576.62 Q1250.82 6562.74 1226.01 6562.74 Q1208.41 6562.74 1188.78 6568.85 Q1169.34 6574.96 1147.12 6587.36 L1147.12 6549.59 Q1169.71 6540.51 1189.34 6535.88 Q1208.97 6531.25 1225.27 6531.25 Q1268.23 6531.25 1293.78 6552.74 Q1319.34 6574.22 1319.34 6610.14 Q1319.34 6627.18 1312.86 6642.55 Q1306.56 6657.73 1289.71 6678.48 Q1285.08 6683.85 1260.27 6709.59 Q1235.45 6735.14 1190.27 6781.25 Z" fill="#000000" fill-rule="evenodd" fill-opacity="1" /><path clip-path="url(#clip020)" d="M 0 0 M1361.38 6765.7 L1400.45 6765.7 L1400.45 6812.73 L1361.38 6812.73 L1361.38 6765.7 Z" fill="#000000" fill-rule="evenodd" fill-opacity="1" /><path clip-path="url(#clip020)" d="M 0 0 M1521 6560.88 Q1492.12 6560.88 1477.49 6589.4 Q1463.04 6617.73 1463.04 6674.77 Q1463.04 6731.62 1477.49 6760.14 Q1492.12 6788.47 1521 6788.47 Q1550.08 6788.47 1564.52 6760.14 Q1579.15 6731.62 1579.15 6674.77 Q1579.15 6617.73 1564.52 6589.4 Q1550.08 6560.88 1521 6560.88 M1521 6531.25 Q1567.49 6531.25 1591.93 6568.11 Q1616.56 6604.77 1616.56 6674.77 Q1616.56 6744.59 1591.93 6781.44 Q1567.49 6818.1 1521 6818.1 Q1474.52 6818.1 1449.89 6781.44 Q1425.45 6744.59 1425.45 6674.77 Q1425.45 6604.77 1449.89 6568.11 Q1474.52 6531.25 1521 6531.25 Z" fill="#000000" fill-rule="evenodd" fill-opacity="1" /><path clip-path="url(#clip020)" d="M 0 0 M1022.67 5199.73 L1122.49 5199.73 L1122.49 5230.1 L1022.67 5230.1 L1022.67 5199.73 Z" fill="#000000" fill-rule="evenodd" fill-opacity="1" /><path clip-path="url(#clip020)" d="M 0 0 M1169.52 5287.32 L1230.64 5287.32 L1230.64 5076.4 L1164.15 5089.73 L1164.15 5055.66 L1230.27 5042.33 L1267.67 5042.33 L1267.67 5287.32 L1328.78 5287.32 L1328.78 5318.81 L1169.52 5318.81 L1169.52 5287.32 Z" fill="#000000" fill-rule="evenodd" fill-opacity="1" /><path clip-path="url(#clip020)" d="M 0 0 M1369.34 5271.77 L1408.41 5271.77 L1408.41 5318.81 L1369.34 5318.81 L1369.34 5271.77 Z" fill="#000000" fill-rule="evenodd" fill-opacity="1" /><path clip-path="url(#clip020)" d="M 0 0 M1449.34 5042.33 L1596.19 5042.33 L1596.19 5073.81 L1483.6 5073.81 L1483.6 5141.58 Q1491.75 5138.81 1499.89 5137.51 Q1508.04 5136.03 1516.19 5136.03 Q1562.49 5136.03 1589.52 5161.4 Q1616.56 5186.77 1616.56 5230.1 Q1616.56 5274.73 1588.78 5299.55 Q1561 5324.18 1510.45 5324.18 Q1493.04 5324.18 1474.89 5321.21 Q1456.93 5318.25 1437.67 5312.32 L1437.67 5274.73 Q1454.34 5283.81 1472.12 5288.25 Q1489.89 5292.69 1509.71 5292.69 Q1541.75 5292.69 1560.45 5275.84 Q1579.15 5258.99 1579.15 5230.1 Q1579.15 5201.21 1560.45 5184.36 Q1541.75 5167.51 1509.71 5167.51 Q1494.71 5167.51 1479.71 5170.84 Q1464.89 5174.18 1449.34 5181.21 L1449.34 5042.33 Z" fill="#000000" fill-rule="evenodd" fill-opacity="1" /><path clip-path="url(#clip020)" d="M 0 0 M1014.71 3705.8 L1114.53 3705.8 L1114.53 3736.17 L1014.71 3736.17 L1014.71 3705.8 Z" fill="#000000" fill-rule="evenodd" fill-opacity="1" /><path clip-path="url(#clip020)" d="M 0 0 M1161.56 3793.4 L1222.67 3793.4 L1222.67 3582.47 L1156.19 3595.8 L1156.19 3561.73 L1222.3 3548.4 L1259.71 3548.4 L1259.71 3793.4 L1320.82 3793.4 L1320.82 3824.88 L1161.56 3824.88 L1161.56 3793.4 Z" fill="#000000" fill-rule="evenodd" fill-opacity="1" /><path clip-path="url(#clip020)" d="M 0 0 M1361.38 3777.84 L1400.45 3777.84 L1400.45 3824.88 L1361.38 3824.88 L1361.38 3777.84 Z" fill="#000000" fill-rule="evenodd" fill-opacity="1" /><path clip-path="url(#clip020)" d="M 0 0 M1521 3573.03 Q1492.12 3573.03 1477.49 3601.54 Q1463.04 3629.88 1463.04 3686.91 Q1463.04 3743.77 1477.49 3772.28 Q1492.12 3800.62 1521 3800.62 Q1550.08 3800.62 1564.52 3772.28 Q1579.15 3743.77 1579.15 3686.91 Q1579.15 3629.88 1564.52 3601.54 Q1550.08 3573.03 1521 3573.03 M1521 3543.4 Q1567.49 3543.4 1591.93 3580.25 Q1616.56 3616.92 1616.56 3686.91 Q1616.56 3756.73 1591.93 3793.58 Q1567.49 3830.25 1521 3830.25 Q1474.52 3830.25 1449.89 3793.58 Q1425.45 3756.73 1425.45 3686.91 Q1425.45 3616.92 1449.89 3580.25 Q1474.52 3543.4 1521 3543.4 Z" fill="#000000" fill-rule="evenodd" fill-opacity="1" /><path clip-path="url(#clip020)" d="M 0 0 M1012.86 2211.88 L1112.67 2211.88 L1112.67 2242.25 L1012.86 2242.25 L1012.86 2211.88 Z" fill="#000000" fill-rule="evenodd" fill-opacity="1" /><path clip-path="url(#clip020)" d="M 0 0 M1233.23 2079.1 Q1204.34 2079.1 1189.71 2107.62 Q1175.27 2135.95 1175.27 2192.99 Q1175.27 2249.84 1189.71 2278.36 Q1204.34 2306.69 1233.23 2306.69 Q1262.3 2306.69 1276.75 2278.36 Q1291.38 2249.84 1291.38 2192.99 Q1291.38 2135.95 1276.75 2107.62 Q1262.3 2079.1 1233.23 2079.1 M1233.23 2049.47 Q1279.71 2049.47 1304.15 2086.32 Q1328.78 2122.99 1328.78 2192.99 Q1328.78 2262.8 1304.15 2299.65 Q1279.71 2336.32 1233.23 2336.32 Q1186.75 2336.32 1162.12 2299.65 Q1137.67 2262.8 1137.67 2192.99 Q1137.67 2122.99 1162.12 2086.32 Q1186.75 2049.47 1233.23 2049.47 Z" fill="#000000" fill-rule="evenodd" fill-opacity="1" /><path clip-path="url(#clip020)" d="M 0 0 M1369.34 2283.91 L1408.41 2283.91 L1408.41 2330.95 L1369.34 2330.95 L1369.34 2283.91 Z" fill="#000000" fill-rule="evenodd" fill-opacity="1" /><path clip-path="url(#clip020)" d="M 0 0 M1449.34 2054.47 L1596.19 2054.47 L1596.19 2085.95 L1483.6 2085.95 L1483.6 2153.73 Q1491.75 2150.95 1499.89 2149.65 Q1508.04 2148.17 1516.19 2148.17 Q1562.49 2148.17 1589.52 2173.54 Q1616.56 2198.91 1616.56 2242.25 Q1616.56 2286.87 1588.78 2311.69 Q1561 2336.32 1510.45 2336.32 Q1493.04 2336.32 1474.89 2333.36 Q1456.93 2330.39 1437.67 2324.47 L1437.67 2286.87 Q1454.34 2295.95 1472.12 2300.39 Q1489.89 2304.84 1509.71 2304.84 Q1541.75 2304.84 1560.45 2287.99 Q1579.15 2271.13 1579.15 2242.25 Q1579.15 2213.36 1560.45 2196.5 Q1541.75 2179.65 1509.71 2179.65 Q1494.71 2179.65 1479.71 2182.99 Q1464.89 2186.32 1449.34 2193.36 L1449.34 2054.47 Z" fill="#000000" fill-rule="evenodd" fill-opacity="1" /><path clip-path="url(#clip020)" d="M 0 0 M5694.84 96.768 L6000.77 96.768 L6000.77 151.86 L5760.3 151.86 L5760.3 295.1 L5990.72 295.1 L5990.72 350.193 L5760.3 350.193 L5760.3 525.516 L6006.6 525.516 L6006.6 580.608 L5694.84 580.608 L5694.84 96.768 Z" fill="#000000" fill-rule="evenodd" fill-opacity="1" /><path clip-path="url(#clip020)" d="M 0 0 M6344.93 690.793 L6344.93 737.135 L6000.12 737.135 L6000.12 690.793 L6344.93 690.793 Z" fill="#000000" fill-rule="evenodd" fill-opacity="1" /><path clip-path="url(#clip020)" d="M 0 0 M6638.86 228.341 L6638.86 284.73 Q6613.59 271.767 6586.37 265.286 Q6559.14 258.804 6529.98 258.804 Q6485.58 258.804 6463.22 272.415 Q6441.18 286.026 6441.18 313.248 Q6441.18 333.989 6457.06 345.98 Q6472.94 357.646 6520.9 368.341 L6541.32 372.878 Q6604.84 386.489 6631.41 411.442 Q6658.31 436.072 6658.31 480.47 Q6658.31 531.025 6618.12 560.516 Q6578.26 590.006 6508.26 590.006 Q6479.1 590.006 6447.34 584.173 Q6415.9 578.664 6380.9 567.321 L6380.9 505.747 Q6413.96 522.923 6446.04 531.673 Q6478.12 540.099 6509.56 540.099 Q6551.69 540.099 6574.37 525.84 Q6597.06 511.257 6597.06 485.007 Q6597.06 460.701 6580.53 447.738 Q6564.33 434.775 6508.91 422.785 L6488.17 417.924 Q6432.75 406.257 6408.13 382.276 Q6383.5 357.97 6383.5 315.841 Q6383.5 264.637 6419.79 236.767 Q6456.09 208.897 6522.85 208.897 Q6555.9 208.897 6585.07 213.758 Q6614.24 218.619 6638.86 228.341 Z" fill="#000000" fill-rule="evenodd" fill-opacity="1" /><path clip-path="url(#clip020)" d="M 0 0 M6720.86 217.647 L6780.48 217.647 L6780.48 580.608 L6720.86 580.608 L6720.86 217.647 M6720.86 76.3514 L6780.48 76.3514 L6780.48 151.86 L6720.86 151.86 L6720.86 76.3514 Z" fill="#000000" fill-rule="evenodd" fill-opacity="1" /><path clip-path="url(#clip020)" d="M 0 0 M6902.01 114.592 L6902.01 217.647 L7024.83 217.647 L7024.83 263.989 L6902.01 263.989 L6902.01 461.025 Q6902.01 505.423 6914 518.062 Q6926.32 530.701 6963.59 530.701 L7024.83 530.701 L7024.83 580.608 L6963.59 580.608 Q6894.56 580.608 6868.31 555.006 Q6842.06 529.08 6842.06 461.025 L6842.06 263.989 L6798.31 263.989 L6798.31 217.647 L6842.06 217.647 L6842.06 114.592 L6902.01 114.592 Z" fill="#000000" fill-rule="evenodd" fill-opacity="1" /><path clip-path="url(#clip020)" d="M 0 0 M7397.84 384.22 L7397.84 413.387 L7123.68 413.387 Q7127.57 474.96 7160.62 507.368 Q7194 539.451 7253.31 539.451 Q7287.66 539.451 7319.74 531.025 Q7352.15 522.599 7383.91 505.747 L7383.91 562.136 Q7351.82 575.747 7318.12 582.877 Q7284.42 590.006 7249.74 590.006 Q7162.89 590.006 7112.01 539.451 Q7061.46 488.896 7061.46 402.692 Q7061.46 313.572 7109.42 261.397 Q7157.7 208.897 7239.37 208.897 Q7312.61 208.897 7355.06 256.212 Q7397.84 303.202 7397.84 384.22 M7338.21 366.72 Q7337.56 317.785 7310.67 288.619 Q7284.09 259.452 7240.02 259.452 Q7190.11 259.452 7159.97 287.647 Q7130.16 315.841 7125.62 367.044 L7338.21 366.72 Z" fill="#000000" fill-rule="evenodd" fill-opacity="1" /><path clip-path="url(#clip020)" d="M 0 0 M7686.59 498.294 L7754.97 498.294 L7754.97 580.608 L7686.59 580.608 L7686.59 498.294 M7686.59 237.415 L7754.97 237.415 L7754.97 319.73 L7686.59 319.73 L7686.59 237.415 Z" fill="#000000" fill-rule="evenodd" fill-opacity="1" /><path clip-path="url(#clip020)" d="M 0 0 M8176.91 350.841 Q8130.25 350.841 8103.35 375.794 Q8076.77 400.748 8076.77 444.498 Q8076.77 488.247 8103.35 513.201 Q8130.25 538.155 8176.91 538.155 Q8223.58 538.155 8250.48 513.201 Q8277.37 487.923 8277.37 444.498 Q8277.37 400.748 8250.48 375.794 Q8223.9 350.841 8176.91 350.841 M8111.45 322.97 Q8069.32 312.6 8045.66 283.758 Q8022.33 254.915 8022.33 213.434 Q8022.33 155.425 8063.49 121.722 Q8104.97 88.018 8176.91 88.018 Q8249.18 88.018 8290.34 121.722 Q8331.49 155.425 8331.49 213.434 Q8331.49 254.915 8307.84 283.758 Q8284.5 312.6 8242.7 322.97 Q8290.01 333.989 8316.26 366.072 Q8342.84 398.155 8342.84 444.498 Q8342.84 514.821 8299.74 552.414 Q8256.96 590.006 8176.91 590.006 Q8096.87 590.006 8053.76 552.414 Q8010.99 514.821 8010.99 444.498 Q8010.99 398.155 8037.56 366.072 Q8064.13 333.989 8111.45 322.97 M8087.47 219.591 Q8087.47 257.184 8110.8 278.249 Q8134.46 299.313 8176.91 299.313 Q8219.04 299.313 8242.7 278.249 Q8266.68 257.184 8266.68 219.591 Q8266.68 181.999 8242.7 160.934 Q8219.04 139.87 8176.91 139.87 Q8134.46 139.87 8110.8 160.934 Q8087.47 181.999 8087.47 219.591 Z" fill="#000000" fill-rule="evenodd" fill-opacity="1" /><path clip-path="url(#clip020)" d="M 0 0 M8865.89 176.49 L8749.55 239.36 L8865.89 302.554 L8847.09 334.313 L8738.21 268.526 L8738.21 390.702 L8701.26 390.702 L8701.26 268.526 L8592.37 334.313 L8573.58 302.554 L8689.92 239.36 L8573.58 176.49 L8592.37 144.407 L8701.26 210.193 L8701.26 88.018 L8738.21 88.018 L8738.21 210.193 L8847.09 144.407 L8865.89 176.49 Z" fill="#000000" fill-rule="evenodd" fill-opacity="1" /><path clip-path="url(#clip020)" d="M 0 0 M9287.83 350.841 Q9241.17 350.841 9214.27 375.794 Q9187.69 400.748 9187.69 444.498 Q9187.69 488.247 9214.27 513.201 Q9241.17 538.155 9287.83 538.155 Q9334.5 538.155 9361.4 513.201 Q9388.29 487.923 9388.29 444.498 Q9388.29 400.748 9361.4 375.794 Q9334.82 350.841 9287.83 350.841 M9222.37 322.97 Q9180.24 312.6 9156.58 283.758 Q9133.25 254.915 9133.25 213.434 Q9133.25 155.425 9174.41 121.722 Q9215.89 88.018 9287.83 88.018 Q9360.1 88.018 9401.26 121.722 Q9442.41 155.425 9442.41 213.434 Q9442.41 254.915 9418.76 283.758 Q9395.42 312.6 9353.62 322.97 Q9400.93 333.989 9427.18 366.072 Q9453.76 398.155 9453.76 444.498 Q9453.76 514.821 9410.66 552.414 Q9367.88 590.006 9287.83 590.006 Q9207.79 590.006 9164.68 552.414 Q9121.91 514.821 9121.91 444.498 Q9121.91 398.155 9148.48 366.072 Q9175.05 333.989 9222.37 322.97 M9198.39 219.591 Q9198.39 257.184 9221.72 278.249 Q9245.38 299.313 9287.83 299.313 Q9329.96 299.313 9353.62 278.249 Q9377.6 257.184 9377.6 219.591 Q9377.6 181.999 9353.62 160.934 Q9329.96 139.87 9287.83 139.87 Q9245.38 139.87 9221.72 160.934 Q9198.39 181.999 9198.39 219.591 Z" fill="#000000" fill-rule="evenodd" fill-opacity="1" /><path clip-path="url(#clip020)" d="M 0 0 M9531.53 498.294 L9599.91 498.294 L9599.91 554.034 L9546.77 657.737 L9504.96 657.737 L9531.53 554.034 L9531.53 498.294 Z" fill="#000000" fill-rule="evenodd" fill-opacity="1" /><path clip-path="url(#clip020)" d="M 0 0 M10072.4 141.166 Q10001.1 141.166 9958.99 194.314 Q9917.18 247.462 9917.18 339.174 Q9917.18 430.563 9958.99 483.71 Q10001.1 536.858 10072.4 536.858 Q10143.7 536.858 10185.2 483.71 Q10227 430.563 10227 339.174 Q10227 247.462 10185.2 194.314 Q10143.7 141.166 10072.4 141.166 M10164.1 571.858 L10250.3 666.163 L10171.3 666.163 L10099.6 588.71 Q10088.9 589.358 10083.1 589.682 Q10077.6 590.006 10072.4 590.006 Q9970.33 590.006 9909.08 521.951 Q9848.15 453.572 9848.15 339.174 Q9848.15 224.453 9909.08 156.397 Q9970.33 88.018 10072.4 88.018 Q10174.2 88.018 10235.1 156.397 Q10296 224.453 10296 339.174 Q10296 423.433 10262 483.386 Q10228.3 543.34 10164.1 571.858 Z" fill="#000000" fill-rule="evenodd" fill-opacity="1" /><path clip-path="url(#clip020)" d="M 0 0 M10577.3 279.221 L10992.8 279.221 L10992.8 333.665 L10577.3 333.665 L10577.3 279.221 M10577.3 411.442 L10992.8 411.442 L10992.8 466.535 L10577.3 466.535 L10577.3 411.442 Z" fill="#000000" fill-rule="evenodd" fill-opacity="1" /><path clip-path="url(#clip020)" d="M 0 0 M11286.1 525.516 L11393 525.516 L11393 156.397 L11276.7 179.731 L11276.7 120.101 L11392.4 96.768 L11457.8 96.768 L11457.8 525.516 L11564.8 525.516 L11564.8 580.608 L11286.1 580.608 L11286.1 525.516 Z" fill="#000000" fill-rule="evenodd" fill-opacity="1" /><path clip-path="url(#clip020)" d="M 0 0 M11783.8 312.6 Q11739.8 312.6 11713.8 342.739 Q11688.2 372.878 11688.2 425.377 Q11688.2 477.553 11713.8 508.016 Q11739.8 538.155 11783.8 538.155 Q11827.9 538.155 11853.5 508.016 Q11879.4 477.553 11879.4 425.377 Q11879.4 372.878 11853.5 342.739 Q11827.9 312.6 11783.8 312.6 M11913.8 107.462 L11913.8 167.092 Q11889.2 155.425 11863.9 149.268 Q11838.9 143.11 11814.3 143.11 Q11749.5 143.11 11715.1 186.86 Q11681.1 230.61 11676.2 319.082 Q11695.4 290.887 11724.2 275.98 Q11753.1 260.749 11787.7 260.749 Q11860.6 260.749 11902.8 305.147 Q11945.2 349.22 11945.2 425.377 Q11945.2 499.914 11901.2 544.96 Q11857.1 590.006 11783.8 590.006 Q11699.9 590.006 11655.5 525.84 Q11611.1 461.349 11611.1 339.174 Q11611.1 224.453 11665.6 156.397 Q11720 88.018 11811.7 88.018 Q11836.3 88.018 11861.3 92.8791 Q11886.6 97.7402 11913.8 107.462 Z" fill="#000000" fill-rule="evenodd" fill-opacity="1" /><path clip-path="url(#clip020)" d="M 0 0 M12023 498.294 L12091.4 498.294 L12091.4 554.034 L12038.2 657.737 L11996.4 657.737 L12023 554.034 L12023 498.294 Z" fill="#000000" fill-rule="evenodd" fill-opacity="1" /><path clip-path="url(#clip020)" d="M 0 0 M12367.5 96.768 L12433 96.768 L12433 546.904 Q12433 634.404 12399.6 673.941 Q12366.5 713.478 12293 713.478 L12268 713.478 L12268 658.385 L12288.4 658.385 Q12331.8 658.385 12349.7 634.08 Q12367.5 609.775 12367.5 546.904 L12367.5 96.768 Z" fill="#000000" fill-rule="evenodd" fill-opacity="1" /><path clip-path="url(#clip020)" d="M 0 0 M12771.3 690.793 L12771.3 737.135 L12426.5 737.135 L12426.5 690.793 L12771.3 690.793 Z" fill="#000000" fill-rule="evenodd" fill-opacity="1" /><path clip-path="url(#clip020)" d="M 0 0 M12982.3 139.87 Q12931.7 139.87 12906.1 189.777 Q12880.8 239.36 12880.8 339.174 Q12880.8 438.664 12906.1 488.571 Q12931.7 538.155 12982.3 538.155 Q13033.1 538.155 13058.4 488.571 Q13084 438.664 13084 339.174 Q13084 239.36 13058.4 189.777 Q13033.1 139.87 12982.3 139.87 M12982.3 88.018 Q13063.6 88.018 13106.4 152.508 Q13149.5 216.675 13149.5 339.174 Q13149.5 461.349 13106.4 525.84 Q13063.6 590.006 12982.3 590.006 Q12900.9 590.006 12857.8 525.84 Q12815 461.349 12815 339.174 Q12815 216.675 12857.8 152.508 Q12900.9 88.018 12982.3 88.018 Z" fill="#000000" fill-rule="evenodd" fill-opacity="1" /><path clip-path="url(#clip020)" d="M 0 0 M13430.8 279.221 L13846.2 279.221 L13846.2 333.665 L13430.8 333.665 L13430.8 279.221 M13430.8 411.442 L13846.2 411.442 L13846.2 466.535 L13430.8 466.535 L13430.8 411.442 Z" fill="#000000" fill-rule="evenodd" fill-opacity="1" /><path clip-path="url(#clip020)" d="M 0 0 M14139.5 525.516 L14246.5 525.516 L14246.5 156.397 L14130.1 179.731 L14130.1 120.101 L14245.8 96.768 L14311.3 96.768 L14311.3 525.516 L14418.2 525.516 L14418.2 580.608 L14139.5 580.608 L14139.5 525.516 Z" fill="#000000" fill-rule="evenodd" fill-opacity="1" /><path clip-path="url(#clip020)" d="M 0 0 M14489.2 498.294 L14557.6 498.294 L14557.6 580.608 L14489.2 580.608 L14489.2 498.294 Z" fill="#000000" fill-rule="evenodd" fill-opacity="1" /><path clip-path="url(#clip020)" d="M 0 0 M14768.5 139.87 Q14718 139.87 14692.4 189.777 Q14667.1 239.36 14667.1 339.174 Q14667.1 438.664 14692.4 488.571 Q14718 538.155 14768.5 538.155 Q14819.4 538.155 14844.7 488.571 Q14870.3 438.664 14870.3 339.174 Q14870.3 239.36 14844.7 189.777 Q14819.4 139.87 14768.5 139.87 M14768.5 88.018 Q14849.9 88.018 14892.7 152.508 Q14935.8 216.675 14935.8 339.174 Q14935.8 461.349 14892.7 525.84 Q14849.9 590.006 14768.5 590.006 Q14687.2 590.006 14644.1 525.84 Q14601.3 461.349 14601.3 339.174 Q14601.3 216.675 14644.1 152.508 Q14687.2 88.018 14768.5 88.018 Z" fill="#000000" fill-rule="evenodd" fill-opacity="1" /><path clip-path="url(#clip020)" d="M 0 0 M10154.5 12068.2 L10476.1 12068.2 L10476.1 12111.5 L10341.1 12111.5 L10341.1 12448.4 L10289.5 12448.4 L10289.5 12111.5 L10154.5 12111.5 L10154.5 12068.2 Z" fill="#000000" fill-rule="evenodd" fill-opacity="1" /><path clip-path="url(#clip020)" d="M 0 0 M323.873 6855.64 L323.873 6615.27 L367.16 6615.27 L367.16 6804.21 L479.706 6804.21 L479.706 6623.17 L522.993 6623.17 L522.993 6804.21 L660.746 6804.21 L660.746 6610.69 L704.033 6610.69 L704.033 6855.64 L323.873 6855.64 Z" fill="#000000" fill-rule="evenodd" fill-opacity="1" /><path clip-path="url(#clip020)" d="M 0 0 M790.607 6344.86 L827.019 6344.86 L827.019 6615.78 L790.607 6615.78 L790.607 6344.86 Z" fill="#000000" fill-rule="evenodd" fill-opacity="1" /><path clip-path="url(#clip020)" d="M 0 0 M427.252 6113.91 L471.558 6113.91 Q461.373 6133.77 456.28 6155.16 Q451.187 6176.55 451.187 6199.47 Q451.187 6234.35 461.882 6251.92 Q472.576 6269.23 493.965 6269.23 Q510.261 6269.23 519.682 6256.76 Q528.849 6244.28 537.252 6206.6 L540.817 6190.55 Q551.511 6140.65 571.117 6119.77 Q590.469 6098.63 625.353 6098.63 Q665.075 6098.63 688.246 6130.21 Q711.417 6161.53 711.417 6216.53 Q711.417 6239.44 706.834 6264.4 Q702.505 6289.1 693.594 6316.6 L645.214 6316.6 Q658.709 6290.62 665.584 6265.42 Q672.205 6240.21 672.205 6215.51 Q672.205 6182.41 661.001 6164.58 Q649.543 6146.76 628.918 6146.76 Q609.821 6146.76 599.636 6159.74 Q589.451 6172.48 580.029 6216.02 L576.21 6232.31 Q567.043 6275.86 548.201 6295.21 Q529.104 6314.56 496.002 6314.56 Q455.771 6314.56 433.873 6286.04 Q411.975 6257.52 411.975 6205.07 Q411.975 6179.1 415.794 6156.18 Q419.613 6133.26 427.252 6113.91 Z" fill="#000000" fill-rule="evenodd" fill-opacity="1" /><path clip-path="url(#clip020)" d="M 0 0 M418.85 6049.49 L418.85 6002.64 L704.033 6002.64 L704.033 6049.49 L418.85 6049.49 M307.832 6049.49 L307.832 6002.64 L367.16 6002.64 L367.16 6049.49 L307.832 6049.49 Z" fill="#000000" fill-rule="evenodd" fill-opacity="1" /><path clip-path="url(#clip020)" d="M 0 0 M337.878 5907.15 L418.85 5907.15 L418.85 5810.65 L455.261 5810.65 L455.261 5907.15 L610.075 5907.15 Q644.96 5907.15 654.89 5897.73 Q664.821 5888.06 664.821 5858.77 L664.821 5810.65 L704.033 5810.65 L704.033 5858.77 Q704.033 5913.01 683.918 5933.63 Q663.547 5954.26 610.075 5954.26 L455.261 5954.26 L455.261 5988.63 L418.85 5988.63 L418.85 5954.26 L337.878 5954.26 L337.878 5907.15 Z" fill="#000000" fill-rule="evenodd" fill-opacity="1" /><path clip-path="url(#clip020)" d="M 0 0 M549.729 5517.57 L572.645 5517.57 L572.645 5732.99 Q621.024 5729.93 646.487 5703.96 Q671.695 5677.73 671.695 5631.14 Q671.695 5604.15 665.075 5578.94 Q658.455 5553.47 645.214 5528.52 L689.519 5528.52 Q700.214 5553.73 705.816 5580.21 Q711.417 5606.69 711.417 5633.94 Q711.417 5702.18 671.695 5742.15 Q631.973 5781.88 564.242 5781.88 Q494.22 5781.88 453.224 5744.19 Q411.975 5706.25 411.975 5642.09 Q411.975 5584.54 449.15 5551.18 Q486.071 5517.57 549.729 5517.57 M535.979 5564.42 Q497.53 5564.93 474.613 5586.07 Q451.697 5606.95 451.697 5641.58 Q451.697 5680.79 473.849 5704.47 Q496.002 5727.9 536.233 5731.46 L535.979 5564.42 Z" fill="#000000" fill-rule="evenodd" fill-opacity="1" /><polyline clip-path="url(#clip022)" style="stroke:#009af9; stroke-width:32; stroke-opacity:1; fill:none" points="
  2290.07,6674.49 2617.63,6657.59 2945.19,6346.89 3272.75,2450.78 3600.31,2145 3927.88,1853.31 4255.44,1870.69 4583,1624.14 4910.56,1655.73 5238.12,1640.13 
  5565.68,1676.71 5893.24,1500.4 6220.8,1469.9 6548.36,1435.1 6875.92,1492.38 7203.48,1366.46 7531.04,1511.03 7858.6,1522.2 8186.16,1520.88 8513.72,1445.64 
  8841.28,1485.85 9168.84,1389.92 9496.4,1518.08 9823.96,1481.35 10151.5,1453.65 10479.1,1339.54 10806.6,1401.7 11134.2,1334.29 11461.8,1359.8 11789.3,1463 
  12116.9,1500.38 12444.4,1413.25 12772,1429.65 13099.6,1337.71 13427.1,1429.62 13754.7,1383.51 14082.2,1363.47 14409.8,1322.29 14737.4,1425.16 15064.9,1394.59 
  15392.5,1394.52 15720.1,1370.75 16047.6,1480.87 16375.2,1320.46 16702.7,1401.75 17030.3,1322.54 17357.9,1353.48 17685.4,1442.43 18013,1399.35 18340.5,1282.05 
  
  "/>
<polyline clip-path="url(#clip022)" style="stroke:#e26f46; stroke-width:32; stroke-opacity:1; fill:none" points="
  2290.07,11091.2 2617.63,11091.2 2945.19,11091.2 3272.75,11090.6 3600.31,10952.1 3927.88,8633.93 4255.44,3139.37 4583,2781.72 4910.56,2307.43 5238.12,2220.43 
  5565.68,2111.22 5893.24,1974.01 6220.8,1896.21 6548.36,1900.94 6875.92,1846.81 7203.48,1837.88 7531.04,1651.69 7858.6,1828 8186.16,1728.95 8513.72,1667.65 
  8841.28,1632.88 9168.84,1563.05 9496.4,1633.28 9823.96,1788.9 10151.5,1489.71 10479.1,1626.52 10806.6,1609.87 11134.2,1465.49 11461.8,1578.89 11789.3,1621.24 
  12116.9,1566.17 12444.4,1596.61 12772,1566.44 13099.6,1504.6 13427.1,1588.76 13754.7,1477.94 14082.2,1368.06 14409.8,1653.45 14737.4,1541.67 15064.9,1504.05 
  15392.5,1571.85 15720.1,1648.03 16047.6,1382.68 16375.2,1375.91 16702.7,1314.48 17030.3,1502.03 17357.9,1501.75 17685.4,1641.27 18013,1441.4 18340.5,1455.88 
  
  "/>
<path clip-path="url(#clip020)" d="
M2375.68 2302.05 L4471.23 2302.05 L4471.23 850.526 L2375.68 850.526  Z
  " fill="#ffffff" fill-rule="evenodd" fill-opacity="1"/>
<polyline clip-path="url(#clip020)" style="stroke:#000000; stroke-width:32; stroke-opacity:1; fill:none" points="
  2375.68,2302.05 4471.23,2302.05 4471.23,850.526 2375.68,850.526 2375.68,2302.05 
  "/>
<polyline clip-path="url(#clip020)" style="stroke:#009af9; stroke-width:32; stroke-opacity:1; fill:none" points="
  2567.68,1334.37 3719.68,1334.37 
  "/>
<path clip-path="url(#clip020)" d="M 0 0 M3917.05 1441.12 L3978.16 1441.12 L3978.16 1230.2 L3911.68 1243.53 L3911.68 1209.46 L3977.79 1196.13 L4015.19 1196.13 L4015.19 1441.12 L4076.3 1441.12 L4076.3 1472.61 L3917.05 1472.61 L3917.05 1441.12 Z" fill="#000000" fill-rule="evenodd" fill-opacity="1" /><polyline clip-path="url(#clip020)" style="stroke:#e26f46; stroke-width:32; stroke-opacity:1; fill:none" points="
  2567.68,1818.21 3719.68,1818.21 
  "/>
<path clip-path="url(#clip020)" d="M 0 0 M3956.68 1924.96 L4087.23 1924.96 L4087.23 1956.45 L3911.68 1956.45 L3911.68 1924.96 Q3932.97 1902.93 3969.64 1865.89 Q4006.49 1828.67 4015.93 1817.93 Q4033.9 1797.74 4040.93 1783.85 Q4048.16 1769.78 4048.16 1756.26 Q4048.16 1734.22 4032.6 1720.34 Q4017.23 1706.45 3992.42 1706.45 Q3974.82 1706.45 3955.19 1712.56 Q3935.75 1718.67 3913.53 1731.08 L3913.53 1693.3 Q3936.12 1684.22 3955.75 1679.6 Q3975.38 1674.97 3991.68 1674.97 Q4034.64 1674.97 4060.19 1696.45 Q4085.75 1717.93 4085.75 1753.85 Q4085.75 1770.89 4079.27 1786.26 Q4072.97 1801.45 4056.12 1822.19 Q4051.49 1827.56 4026.68 1853.3 Q4001.86 1878.85 3956.68 1924.96 Z" fill="#000000" fill-rule="evenodd" fill-opacity="1" /></svg>
