<?xml version="1.0" encoding="utf-8"?>
<svg xmlns="http://www.w3.org/2000/svg" xmlns:xlink="http://www.w3.org/1999/xlink" width="4800" height="3200" viewBox="0 0 19200 12800">
<defs>
  <clipPath id="clip4600">
    <rect x="0" y="0" width="19200" height="12800"/>
  </clipPath>
</defs>
<path clip-path="url(#clip4600)" d="
M0 12800 L19200 12800 L19200 0 L0 0  Z
  " fill="#ffffff" fill-rule="evenodd" fill-opacity="1"/>
<defs>
  <clipPath id="clip4601">
    <rect x="3840" y="0" width="13441" height="12800"/>
  </clipPath>
</defs>
<path clip-path="url(#clip4600)" d="
M2020.04 11385.4 L18822 11385.4 L18822 987.777 L2020.04 987.777  Z
  " fill="#ffffff" fill-rule="evenodd" fill-opacity="1"/>
<defs>
  <clipPath id="clip4602">
    <rect x="2020" y="987" width="16803" height="10399"/>
  </clipPath>
</defs>
<polyline clip-path="url(#clip4602)" style="stroke:#000000; stroke-width:16; stroke-opacity:0.1; fill:none" points="
  2495.57,11385.4 2495.57,987.777 
  "/>
<polyline clip-path="url(#clip4602)" style="stroke:#000000; stroke-width:16; stroke-opacity:0.1; fill:none" points="
  6098.06,11385.4 6098.06,987.777 
  "/>
<polyline clip-path="url(#clip4602)" style="stroke:#000000; stroke-width:16; stroke-opacity:0.1; fill:none" points="
  9700.55,11385.4 9700.55,987.777 
  "/>
<polyline clip-path="url(#clip4602)" style="stroke:#000000; stroke-width:16; stroke-opacity:0.1; fill:none" points="
  13303,11385.4 13303,987.777 
  "/>
<polyline clip-path="url(#clip4602)" style="stroke:#000000; stroke-width:16; stroke-opacity:0.1; fill:none" points="
  16905.5,11385.4 16905.5,987.777 
  "/>
<polyline clip-path="url(#clip4602)" style="stroke:#000000; stroke-width:16; stroke-opacity:0.1; fill:none" points="
  2020.04,9523.85 18822,9523.85 
  "/>
<polyline clip-path="url(#clip4602)" style="stroke:#000000; stroke-width:16; stroke-opacity:0.1; fill:none" points="
  2020.04,7393.98 18822,7393.98 
  "/>
<polyline clip-path="url(#clip4602)" style="stroke:#000000; stroke-width:16; stroke-opacity:0.1; fill:none" points="
  2020.04,5264.11 18822,5264.11 
  "/>
<polyline clip-path="url(#clip4602)" style="stroke:#000000; stroke-width:16; stroke-opacity:0.1; fill:none" points="
  2020.04,3134.24 18822,3134.24 
  "/>
<polyline clip-path="url(#clip4602)" style="stroke:#000000; stroke-width:16; stroke-opacity:0.1; fill:none" points="
  2020.04,1004.37 18822,1004.37 
  "/>
<polyline clip-path="url(#clip4600)" style="stroke:#000000; stroke-width:32; stroke-opacity:1; fill:none" points="
  2020.04,11385.4 18822,11385.4 
  "/>
<polyline clip-path="url(#clip4600)" style="stroke:#000000; stroke-width:32; stroke-opacity:1; fill:none" points="
  2020.04,11385.4 2020.04,987.777 
  "/>
<polyline clip-path="url(#clip4600)" style="stroke:#000000; stroke-width:32; stroke-opacity:1; fill:none" points="
  2495.57,11385.4 2495.57,11260.7 
  "/>
<polyline clip-path="url(#clip4600)" style="stroke:#000000; stroke-width:32; stroke-opacity:1; fill:none" points="
  6098.06,11385.4 6098.06,11260.7 
  "/>
<polyline clip-path="url(#clip4600)" style="stroke:#000000; stroke-width:32; stroke-opacity:1; fill:none" points="
  9700.55,11385.4 9700.55,11260.7 
  "/>
<polyline clip-path="url(#clip4600)" style="stroke:#000000; stroke-width:32; stroke-opacity:1; fill:none" points="
  13303,11385.4 13303,11260.7 
  "/>
<polyline clip-path="url(#clip4600)" style="stroke:#000000; stroke-width:32; stroke-opacity:1; fill:none" points="
  16905.5,11385.4 16905.5,11260.7 
  "/>
<polyline clip-path="url(#clip4600)" style="stroke:#000000; stroke-width:32; stroke-opacity:1; fill:none" points="
  2020.04,9523.85 2221.66,9523.85 
  "/>
<polyline clip-path="url(#clip4600)" style="stroke:#000000; stroke-width:32; stroke-opacity:1; fill:none" points="
  2020.04,7393.98 2221.66,7393.98 
  "/>
<polyline clip-path="url(#clip4600)" style="stroke:#000000; stroke-width:32; stroke-opacity:1; fill:none" points="
  2020.04,5264.11 2221.66,5264.11 
  "/>
<polyline clip-path="url(#clip4600)" style="stroke:#000000; stroke-width:32; stroke-opacity:1; fill:none" points="
  2020.04,3134.24 2221.66,3134.24 
  "/>
<polyline clip-path="url(#clip4600)" style="stroke:#000000; stroke-width:32; stroke-opacity:1; fill:none" points="
  2020.04,1004.37 2221.66,1004.37 
  "/>
<path clip-path="url(#clip4600)" d="M 0 0 M2242.98 11561.4 Q2214.09 11561.4 2199.46 11589.9 Q2185.01 11618.2 2185.01 11675.3 Q2185.01 11732.1 2199.46 11760.6 Q2214.09 11789 2242.98 11789 Q2272.05 11789 2286.5 11760.6 Q2301.12 11732.1 2301.12 11675.3 Q2301.12 11618.2 2286.5 11589.9 Q2272.05 11561.4 2242.98 11561.4 M2242.98 11531.7 Q2289.46 11531.7 2313.9 11568.6 Q2338.53 11605.3 2338.53 11675.3 Q2338.53 11745.1 2313.9 11781.9 Q2289.46 11818.6 2242.98 11818.6 Q2196.5 11818.6 2171.87 11781.9 Q2147.42 11745.1 2147.42 11675.3 Q2147.42 11605.3 2171.87 11568.6 Q2196.5 11531.7 2242.98 11531.7 Z" fill="#000000" fill-rule="evenodd" fill-opacity="1" /><path clip-path="url(#clip4600)" d="M 0 0 M2379.09 11766.2 L2418.16 11766.2 L2418.16 11813.2 L2379.09 11813.2 L2379.09 11766.2 Z" fill="#000000" fill-rule="evenodd" fill-opacity="1" /><path clip-path="url(#clip4600)" d="M 0 0 M2459.09 11536.7 L2605.94 11536.7 L2605.94 11568.2 L2493.35 11568.2 L2493.35 11636 Q2501.49 11633.2 2509.64 11631.9 Q2517.79 11630.4 2525.94 11630.4 Q2572.23 11630.4 2599.27 11655.8 Q2626.31 11681.2 2626.31 11724.5 Q2626.31 11769.1 2598.53 11794 Q2570.75 11818.6 2520.2 11818.6 Q2502.79 11818.6 2484.64 11815.6 Q2466.68 11812.7 2447.42 11806.7 L2447.42 11769.1 Q2464.09 11778.2 2481.86 11782.7 Q2499.64 11787.1 2519.46 11787.1 Q2551.49 11787.1 2570.2 11770.3 Q2588.9 11753.4 2588.9 11724.5 Q2588.9 11695.6 2570.2 11678.8 Q2551.49 11661.9 2519.46 11661.9 Q2504.46 11661.9 2489.46 11665.3 Q2474.64 11668.6 2459.09 11675.6 L2459.09 11536.7 Z" fill="#000000" fill-rule="evenodd" fill-opacity="1" /><path clip-path="url(#clip4600)" d="M 0 0 M2751.49 11660.1 Q2726.31 11660.1 2711.49 11677.3 Q2696.86 11694.5 2696.86 11724.5 Q2696.86 11754.3 2711.49 11771.7 Q2726.31 11789 2751.49 11789 Q2776.68 11789 2791.31 11771.7 Q2806.12 11754.3 2806.12 11724.5 Q2806.12 11694.5 2791.31 11677.3 Q2776.68 11660.1 2751.49 11660.1 M2825.75 11542.8 L2825.75 11576.9 Q2811.68 11570.3 2797.23 11566.7 Q2782.97 11563.2 2768.9 11563.2 Q2731.86 11563.2 2712.23 11588.2 Q2692.79 11613.2 2690.01 11663.8 Q2700.94 11647.7 2717.42 11639.1 Q2733.9 11630.4 2753.72 11630.4 Q2795.38 11630.4 2819.46 11655.8 Q2843.71 11681 2843.71 11724.5 Q2843.71 11767.1 2818.53 11792.8 Q2793.34 11818.6 2751.49 11818.6 Q2703.53 11818.6 2678.16 11781.9 Q2652.79 11745.1 2652.79 11675.3 Q2652.79 11609.7 2683.9 11570.8 Q2715.01 11531.7 2767.42 11531.7 Q2781.49 11531.7 2795.75 11534.5 Q2810.2 11537.3 2825.75 11542.8 Z" fill="#000000" fill-rule="evenodd" fill-opacity="1" /><path clip-path="url(#clip4600)" d="M 0 0 M5846.48 11561.4 Q5817.6 11561.4 5802.97 11589.9 Q5788.52 11618.2 5788.52 11675.3 Q5788.52 11732.1 5802.97 11760.6 Q5817.6 11789 5846.48 11789 Q5875.56 11789 5890 11760.6 Q5904.63 11732.1 5904.63 11675.3 Q5904.63 11618.2 5890 11589.9 Q5875.56 11561.4 5846.48 11561.4 M5846.48 11531.7 Q5892.97 11531.7 5917.41 11568.6 Q5942.04 11605.3 5942.04 11675.3 Q5942.04 11745.1 5917.41 11781.9 Q5892.97 11818.6 5846.48 11818.6 Q5800 11818.6 5775.37 11781.9 Q5750.93 11745.1 5750.93 11675.3 Q5750.93 11605.3 5775.37 11568.6 Q5800 11531.7 5846.48 11531.7 Z" fill="#000000" fill-rule="evenodd" fill-opacity="1" /><path clip-path="url(#clip4600)" d="M 0 0 M5982.59 11766.2 L6021.67 11766.2 L6021.67 11813.2 L5982.59 11813.2 L5982.59 11766.2 Z" fill="#000000" fill-rule="evenodd" fill-opacity="1" /><path clip-path="url(#clip4600)" d="M 0 0 M6062.59 11536.7 L6209.45 11536.7 L6209.45 11568.2 L6096.85 11568.2 L6096.85 11636 Q6105 11633.2 6113.15 11631.9 Q6121.3 11630.4 6129.45 11630.4 Q6175.74 11630.4 6202.78 11655.8 Q6229.82 11681.2 6229.82 11724.5 Q6229.82 11769.1 6202.04 11794 Q6174.26 11818.6 6123.71 11818.6 Q6106.3 11818.6 6088.15 11815.6 Q6070.19 11812.7 6050.93 11806.7 L6050.93 11769.1 Q6067.59 11778.2 6085.37 11782.7 Q6103.15 11787.1 6122.96 11787.1 Q6155 11787.1 6173.7 11770.3 Q6192.41 11753.4 6192.41 11724.5 Q6192.41 11695.6 6173.7 11678.8 Q6155 11661.9 6122.96 11661.9 Q6107.96 11661.9 6092.96 11665.3 Q6078.15 11668.6 6062.59 11675.6 L6062.59 11536.7 Z" fill="#000000" fill-rule="evenodd" fill-opacity="1" /><path clip-path="url(#clip4600)" d="M 0 0 M6350.37 11681.9 Q6323.7 11681.9 6308.33 11696.2 Q6293.15 11710.4 6293.15 11735.4 Q6293.15 11760.4 6308.33 11774.7 Q6323.7 11789 6350.37 11789 Q6377.04 11789 6392.41 11774.7 Q6407.78 11760.3 6407.78 11735.4 Q6407.78 11710.4 6392.41 11696.2 Q6377.22 11681.9 6350.37 11681.9 M6312.96 11666 Q6288.89 11660.1 6275.37 11643.6 Q6262.04 11627.1 6262.04 11603.4 Q6262.04 11570.3 6285.56 11551 Q6309.26 11531.7 6350.37 11531.7 Q6391.67 11531.7 6415.19 11551 Q6438.7 11570.3 6438.7 11603.4 Q6438.7 11627.1 6425.18 11643.6 Q6411.85 11660.1 6387.96 11666 Q6415 11672.3 6430 11690.6 Q6445.18 11709 6445.18 11735.4 Q6445.18 11775.6 6420.56 11797.1 Q6396.11 11818.6 6350.37 11818.6 Q6304.63 11818.6 6280 11797.1 Q6255.56 11775.6 6255.56 11735.4 Q6255.56 11709 6270.74 11690.6 Q6285.93 11672.3 6312.96 11666 M6299.26 11606.9 Q6299.26 11628.4 6312.59 11640.4 Q6326.11 11652.5 6350.37 11652.5 Q6374.44 11652.5 6387.96 11640.4 Q6401.67 11628.4 6401.67 11606.9 Q6401.67 11585.4 6387.96 11573.4 Q6374.44 11561.4 6350.37 11561.4 Q6326.11 11561.4 6312.59 11573.4 Q6299.26 11585.4 6299.26 11606.9 Z" fill="#000000" fill-rule="evenodd" fill-opacity="1" /><path clip-path="url(#clip4600)" d="M 0 0 M9443.97 11561.4 Q9415.08 11561.4 9400.45 11589.9 Q9386.01 11618.2 9386.01 11675.3 Q9386.01 11732.1 9400.45 11760.6 Q9415.08 11789 9443.97 11789 Q9473.05 11789 9487.49 11760.6 Q9502.12 11732.1 9502.12 11675.3 Q9502.12 11618.2 9487.49 11589.9 Q9473.05 11561.4 9443.97 11561.4 M9443.97 11531.7 Q9490.45 11531.7 9514.9 11568.6 Q9539.53 11605.3 9539.53 11675.3 Q9539.53 11745.1 9514.9 11781.9 Q9490.45 11818.6 9443.97 11818.6 Q9397.49 11818.6 9372.86 11781.9 Q9348.42 11745.1 9348.42 11675.3 Q9348.42 11605.3 9372.86 11568.6 Q9397.49 11531.7 9443.97 11531.7 Z" fill="#000000" fill-rule="evenodd" fill-opacity="1" /><path clip-path="url(#clip4600)" d="M 0 0 M9580.08 11766.2 L9619.16 11766.2 L9619.16 11813.2 L9580.08 11813.2 L9580.08 11766.2 Z" fill="#000000" fill-rule="evenodd" fill-opacity="1" /><path clip-path="url(#clip4600)" d="M 0 0 M9744.34 11660.1 Q9719.16 11660.1 9704.34 11677.3 Q9689.71 11694.5 9689.71 11724.5 Q9689.71 11754.3 9704.34 11771.7 Q9719.16 11789 9744.34 11789 Q9769.53 11789 9784.16 11771.7 Q9798.97 11754.3 9798.97 11724.5 Q9798.97 11694.5 9784.16 11677.3 Q9769.53 11660.1 9744.34 11660.1 M9818.6 11542.8 L9818.6 11576.9 Q9804.53 11570.3 9790.08 11566.7 Q9775.82 11563.2 9761.75 11563.2 Q9724.71 11563.2 9705.08 11588.2 Q9685.64 11613.2 9682.86 11663.8 Q9693.79 11647.7 9710.27 11639.1 Q9726.75 11630.4 9746.56 11630.4 Q9788.23 11630.4 9812.3 11655.8 Q9836.56 11681 9836.56 11724.5 Q9836.56 11767.1 9811.38 11792.8 Q9786.19 11818.6 9744.34 11818.6 Q9696.38 11818.6 9671.01 11781.9 Q9645.64 11745.1 9645.64 11675.3 Q9645.64 11609.7 9676.75 11570.8 Q9707.86 11531.7 9760.27 11531.7 Q9774.34 11531.7 9788.6 11534.5 Q9803.05 11537.3 9818.6 11542.8 Z" fill="#000000" fill-rule="evenodd" fill-opacity="1" /><path clip-path="url(#clip4600)" d="M 0 0 M9957.12 11561.4 Q9928.23 11561.4 9913.6 11589.9 Q9899.16 11618.2 9899.16 11675.3 Q9899.16 11732.1 9913.6 11760.6 Q9928.23 11789 9957.12 11789 Q9986.19 11789 10000.6 11760.6 Q10015.3 11732.1 10015.3 11675.3 Q10015.3 11618.2 10000.6 11589.9 Q9986.19 11561.4 9957.12 11561.4 M9957.12 11531.7 Q10003.6 11531.7 10028 11568.6 Q10052.7 11605.3 10052.7 11675.3 Q10052.7 11745.1 10028 11781.9 Q10003.6 11818.6 9957.12 11818.6 Q9910.64 11818.6 9886.01 11781.9 Q9861.56 11745.1 9861.56 11675.3 Q9861.56 11605.3 9886.01 11568.6 Q9910.64 11531.7 9957.12 11531.7 Z" fill="#000000" fill-rule="evenodd" fill-opacity="1" /><path clip-path="url(#clip4600)" d="M 0 0 M13052.9 11561.4 Q13024 11561.4 13009.3 11589.9 Q12994.9 11618.2 12994.9 11675.3 Q12994.9 11732.1 13009.3 11760.6 Q13024 11789 13052.9 11789 Q13081.9 11789 13096.4 11760.6 Q13111 11732.1 13111 11675.3 Q13111 11618.2 13096.4 11589.9 Q13081.9 11561.4 13052.9 11561.4 M13052.9 11531.7 Q13099.3 11531.7 13123.8 11568.6 Q13148.4 11605.3 13148.4 11675.3 Q13148.4 11745.1 13123.8 11781.9 Q13099.3 11818.6 13052.9 11818.6 Q13006.4 11818.6 12981.7 11781.9 Q12957.3 11745.1 12957.3 11675.3 Q12957.3 11605.3 12981.7 11568.6 Q13006.4 11531.7 13052.9 11531.7 Z" fill="#000000" fill-rule="evenodd" fill-opacity="1" /><path clip-path="url(#clip4600)" d="M 0 0 M13189 11766.2 L13228 11766.2 L13228 11813.2 L13189 11813.2 L13189 11766.2 Z" fill="#000000" fill-rule="evenodd" fill-opacity="1" /><path clip-path="url(#clip4600)" d="M 0 0 M13353.2 11660.1 Q13328 11660.1 13313.2 11677.3 Q13298.6 11694.5 13298.6 11724.5 Q13298.6 11754.3 13313.2 11771.7 Q13328 11789 13353.2 11789 Q13378.4 11789 13393 11771.7 Q13407.8 11754.3 13407.8 11724.5 Q13407.8 11694.5 13393 11677.3 Q13378.4 11660.1 13353.2 11660.1 M13427.5 11542.8 L13427.5 11576.9 Q13413.4 11570.3 13399 11566.7 Q13384.7 11563.2 13370.6 11563.2 Q13333.6 11563.2 13314 11588.2 Q13294.5 11613.2 13291.7 11663.8 Q13302.7 11647.7 13319.1 11639.1 Q13335.6 11630.4 13355.4 11630.4 Q13397.1 11630.4 13421.2 11655.8 Q13445.4 11681 13445.4 11724.5 Q13445.4 11767.1 13420.3 11792.8 Q13395.1 11818.6 13353.2 11818.6 Q13305.3 11818.6 13279.9 11781.9 Q13254.5 11745.1 13254.5 11675.3 Q13254.5 11609.7 13285.6 11570.8 Q13316.7 11531.7 13369.1 11531.7 Q13383.2 11531.7 13397.5 11534.5 Q13411.9 11537.3 13427.5 11542.8 Z" fill="#000000" fill-rule="evenodd" fill-opacity="1" /><path clip-path="url(#clip4600)" d="M 0 0 M13518.2 11781.7 L13648.8 11781.7 L13648.8 11813.2 L13473.2 11813.2 L13473.2 11781.7 Q13494.5 11759.7 13531.2 11722.7 Q13568 11685.4 13577.5 11674.7 Q13595.4 11654.5 13602.5 11640.6 Q13609.7 11626.5 13609.7 11613 Q13609.7 11591 13594.1 11577.1 Q13578.8 11563.2 13554 11563.2 Q13536.4 11563.2 13516.7 11569.3 Q13497.3 11575.4 13475.1 11587.8 L13475.1 11550.1 Q13497.7 11541 13517.3 11536.4 Q13536.9 11531.7 13553.2 11531.7 Q13596.2 11531.7 13621.7 11553.2 Q13647.3 11574.7 13647.3 11610.6 Q13647.3 11627.7 13640.8 11643 Q13634.5 11658.2 13617.7 11679 Q13613 11684.3 13588.2 11710.1 Q13563.4 11735.6 13518.2 11781.7 Z" fill="#000000" fill-rule="evenodd" fill-opacity="1" /><path clip-path="url(#clip4600)" d="M 0 0 M16647 11561.4 Q16618.1 11561.4 16603.5 11589.9 Q16589 11618.2 16589 11675.3 Q16589 11732.1 16603.5 11760.6 Q16618.1 11789 16647 11789 Q16676.1 11789 16690.5 11760.6 Q16705.2 11732.1 16705.2 11675.3 Q16705.2 11618.2 16690.5 11589.9 Q16676.1 11561.4 16647 11561.4 M16647 11531.7 Q16693.5 11531.7 16717.9 11568.6 Q16742.6 11605.3 16742.6 11675.3 Q16742.6 11745.1 16717.9 11781.9 Q16693.5 11818.6 16647 11818.6 Q16600.5 11818.6 16575.9 11781.9 Q16551.5 11745.1 16551.5 11675.3 Q16551.5 11605.3 16575.9 11568.6 Q16600.5 11531.7 16647 11531.7 Z" fill="#000000" fill-rule="evenodd" fill-opacity="1" /><path clip-path="url(#clip4600)" d="M 0 0 M16783.1 11766.2 L16822.2 11766.2 L16822.2 11813.2 L16783.1 11813.2 L16783.1 11766.2 Z" fill="#000000" fill-rule="evenodd" fill-opacity="1" /><path clip-path="url(#clip4600)" d="M 0 0 M16947.4 11660.1 Q16922.2 11660.1 16907.4 11677.3 Q16892.7 11694.5 16892.7 11724.5 Q16892.7 11754.3 16907.4 11771.7 Q16922.2 11789 16947.4 11789 Q16972.6 11789 16987.2 11771.7 Q17002 11754.3 17002 11724.5 Q17002 11694.5 16987.2 11677.3 Q16972.6 11660.1 16947.4 11660.1 M17021.6 11542.8 L17021.6 11576.9 Q17007.6 11570.3 16993.1 11566.7 Q16978.9 11563.2 16964.8 11563.2 Q16927.7 11563.2 16908.1 11588.2 Q16888.7 11613.2 16885.9 11663.8 Q16896.8 11647.7 16913.3 11639.1 Q16929.8 11630.4 16949.6 11630.4 Q16991.3 11630.4 17015.3 11655.8 Q17039.6 11681 17039.6 11724.5 Q17039.6 11767.1 17014.4 11792.8 Q16989.2 11818.6 16947.4 11818.6 Q16899.4 11818.6 16874 11781.9 Q16848.7 11745.1 16848.7 11675.3 Q16848.7 11609.7 16879.8 11570.8 Q16910.9 11531.7 16963.3 11531.7 Q16977.4 11531.7 16991.6 11534.5 Q17006.1 11537.3 17021.6 11542.8 Z" fill="#000000" fill-rule="evenodd" fill-opacity="1" /><path clip-path="url(#clip4600)" d="M 0 0 M17182.9 11569.3 L17088.5 11716.9 L17182.9 11716.9 L17182.9 11569.3 M17173.1 11536.7 L17220.2 11536.7 L17220.2 11716.9 L17259.6 11716.9 L17259.6 11748 L17220.2 11748 L17220.2 11813.2 L17182.9 11813.2 L17182.9 11748 L17058.1 11748 L17058.1 11711.9 L17173.1 11536.7 Z" fill="#000000" fill-rule="evenodd" fill-opacity="1" /><path clip-path="url(#clip4600)" d="M 0 0 M1025.27 9543.02 L1125.08 9543.02 L1125.08 9573.39 L1025.27 9573.39 L1025.27 9543.02 Z" fill="#000000" fill-rule="evenodd" fill-opacity="1" /><path clip-path="url(#clip4600)" d="M 0 0 M1172.12 9630.61 L1233.23 9630.61 L1233.23 9419.68 L1166.75 9433.02 L1166.75 9398.94 L1232.86 9385.61 L1270.27 9385.61 L1270.27 9630.61 L1331.38 9630.61 L1331.38 9662.09 L1172.12 9662.09 L1172.12 9630.61 Z" fill="#000000" fill-rule="evenodd" fill-opacity="1" /><path clip-path="url(#clip4600)" d="M 0 0 M1371.93 9615.05 L1411.01 9615.05 L1411.01 9662.09 L1371.93 9662.09 L1371.93 9615.05 Z" fill="#000000" fill-rule="evenodd" fill-opacity="1" /><path clip-path="url(#clip4600)" d="M 0 0 M1442.12 9385.61 L1619.89 9385.61 L1619.89 9401.54 L1519.52 9662.09 L1480.45 9662.09 L1574.89 9417.09 L1442.12 9417.09 L1442.12 9385.61 Z" fill="#000000" fill-rule="evenodd" fill-opacity="1" /><path clip-path="url(#clip4600)" d="M 0 0 M1660.82 9385.61 L1807.67 9385.61 L1807.67 9417.09 L1695.08 9417.09 L1695.08 9484.87 Q1703.23 9482.09 1711.37 9480.8 Q1719.52 9479.31 1727.67 9479.31 Q1773.97 9479.31 1801 9504.68 Q1828.04 9530.05 1828.04 9573.39 Q1828.04 9618.02 1800.26 9642.83 Q1772.48 9667.46 1721.93 9667.46 Q1704.52 9667.46 1686.37 9664.5 Q1668.41 9661.54 1649.15 9655.61 L1649.15 9618.02 Q1665.82 9627.09 1683.6 9631.54 Q1701.37 9635.98 1721.19 9635.98 Q1753.23 9635.98 1771.93 9619.13 Q1790.63 9602.28 1790.63 9573.39 Q1790.63 9544.5 1771.93 9527.65 Q1753.23 9510.8 1721.19 9510.8 Q1706.19 9510.8 1691.19 9514.13 Q1676.37 9517.46 1660.82 9524.5 L1660.82 9385.61 Z" fill="#000000" fill-rule="evenodd" fill-opacity="1" /><path clip-path="url(#clip4600)" d="M 0 0 M1018.04 7413.15 L1117.86 7413.15 L1117.86 7443.52 L1018.04 7443.52 L1018.04 7413.15 Z" fill="#000000" fill-rule="evenodd" fill-opacity="1" /><path clip-path="url(#clip4600)" d="M 0 0 M1164.9 7500.74 L1226.01 7500.74 L1226.01 7289.82 L1159.52 7303.15 L1159.52 7269.07 L1225.64 7255.74 L1263.04 7255.74 L1263.04 7500.74 L1324.15 7500.74 L1324.15 7532.22 L1164.9 7532.22 L1164.9 7500.74 Z" fill="#000000" fill-rule="evenodd" fill-opacity="1" /><path clip-path="url(#clip4600)" d="M 0 0 M1364.71 7485.18 L1403.78 7485.18 L1403.78 7532.22 L1364.71 7532.22 L1364.71 7485.18 Z" fill="#000000" fill-rule="evenodd" fill-opacity="1" /><path clip-path="url(#clip4600)" d="M 0 0 M1444.71 7255.74 L1591.56 7255.74 L1591.56 7287.22 L1478.97 7287.22 L1478.97 7355 Q1487.12 7352.22 1495.26 7350.93 Q1503.41 7349.44 1511.56 7349.44 Q1557.86 7349.44 1584.89 7374.81 Q1611.93 7400.19 1611.93 7443.52 Q1611.93 7488.15 1584.15 7512.96 Q1556.37 7537.59 1505.82 7537.59 Q1488.41 7537.59 1470.26 7534.63 Q1452.3 7531.67 1433.04 7525.74 L1433.04 7488.15 Q1449.71 7497.22 1467.49 7501.67 Q1485.26 7506.11 1505.08 7506.11 Q1537.12 7506.11 1555.82 7489.26 Q1574.52 7472.41 1574.52 7443.52 Q1574.52 7414.63 1555.82 7397.78 Q1537.12 7380.93 1505.08 7380.93 Q1490.08 7380.93 1475.08 7384.26 Q1460.26 7387.59 1444.71 7394.63 L1444.71 7255.74 Z" fill="#000000" fill-rule="evenodd" fill-opacity="1" /><path clip-path="url(#clip4600)" d="M 0 0 M1732.48 7280.37 Q1703.6 7280.37 1688.97 7308.89 Q1674.52 7337.22 1674.52 7394.26 Q1674.52 7451.11 1688.97 7479.63 Q1703.6 7507.96 1732.48 7507.96 Q1761.56 7507.96 1776 7479.63 Q1790.63 7451.11 1790.63 7394.26 Q1790.63 7337.22 1776 7308.89 Q1761.56 7280.37 1732.48 7280.37 M1732.48 7250.74 Q1778.97 7250.74 1803.41 7287.59 Q1828.04 7324.26 1828.04 7394.26 Q1828.04 7464.07 1803.41 7500.93 Q1778.97 7537.59 1732.48 7537.59 Q1686 7537.59 1661.37 7500.93 Q1636.93 7464.07 1636.93 7394.26 Q1636.93 7324.26 1661.37 7287.59 Q1686 7250.74 1732.48 7250.74 Z" fill="#000000" fill-rule="evenodd" fill-opacity="1" /><path clip-path="url(#clip4600)" d="M 0 0 M1030.82 5283.28 L1130.64 5283.28 L1130.64 5313.65 L1030.82 5313.65 L1030.82 5283.28 Z" fill="#000000" fill-rule="evenodd" fill-opacity="1" /><path clip-path="url(#clip4600)" d="M 0 0 M1177.67 5370.87 L1238.78 5370.87 L1238.78 5159.95 L1172.3 5173.28 L1172.3 5139.21 L1238.41 5125.87 L1275.82 5125.87 L1275.82 5370.87 L1336.93 5370.87 L1336.93 5402.35 L1177.67 5402.35 L1177.67 5370.87 Z" fill="#000000" fill-rule="evenodd" fill-opacity="1" /><path clip-path="url(#clip4600)" d="M 0 0 M1377.49 5355.32 L1416.56 5355.32 L1416.56 5402.35 L1377.49 5402.35 L1377.49 5355.32 Z" fill="#000000" fill-rule="evenodd" fill-opacity="1" /><path clip-path="url(#clip4600)" d="M 0 0 M1489.34 5370.87 L1619.89 5370.87 L1619.89 5402.35 L1444.34 5402.35 L1444.34 5370.87 Q1465.63 5348.83 1502.3 5311.8 Q1539.15 5274.58 1548.6 5263.83 Q1566.56 5243.65 1573.6 5229.76 Q1580.82 5215.69 1580.82 5202.17 Q1580.82 5180.13 1565.26 5166.24 Q1549.89 5152.35 1525.08 5152.35 Q1507.49 5152.35 1487.86 5158.46 Q1468.41 5164.58 1446.19 5176.98 L1446.19 5139.21 Q1468.78 5130.13 1488.41 5125.5 Q1508.04 5120.87 1524.34 5120.87 Q1567.3 5120.87 1592.86 5142.35 Q1618.41 5163.84 1618.41 5199.76 Q1618.41 5216.8 1611.93 5232.17 Q1605.63 5247.35 1588.78 5268.09 Q1584.15 5273.46 1559.34 5299.2 Q1534.52 5324.76 1489.34 5370.87 Z" fill="#000000" fill-rule="evenodd" fill-opacity="1" /><path clip-path="url(#clip4600)" d="M 0 0 M1660.82 5125.87 L1807.67 5125.87 L1807.67 5157.35 L1695.08 5157.35 L1695.08 5225.13 Q1703.23 5222.35 1711.37 5221.06 Q1719.52 5219.58 1727.67 5219.58 Q1773.97 5219.58 1801 5244.95 Q1828.04 5270.32 1828.04 5313.65 Q1828.04 5358.28 1800.26 5383.09 Q1772.48 5407.72 1721.93 5407.72 Q1704.52 5407.72 1686.37 5404.76 Q1668.41 5401.8 1649.15 5395.87 L1649.15 5358.28 Q1665.82 5367.35 1683.6 5371.8 Q1701.37 5376.24 1721.19 5376.24 Q1753.23 5376.24 1771.93 5359.39 Q1790.63 5342.54 1790.63 5313.65 Q1790.63 5284.76 1771.93 5267.91 Q1753.23 5251.06 1721.19 5251.06 Q1706.19 5251.06 1691.19 5254.39 Q1676.37 5257.72 1660.82 5264.76 L1660.82 5125.87 Z" fill="#000000" fill-rule="evenodd" fill-opacity="1" /><path clip-path="url(#clip4600)" d="M 0 0 M1010.08 3153.41 L1109.9 3153.41 L1109.9 3183.78 L1010.08 3183.78 L1010.08 3153.41 Z" fill="#000000" fill-rule="evenodd" fill-opacity="1" /><path clip-path="url(#clip4600)" d="M 0 0 M1156.93 3241 L1218.04 3241 L1218.04 3030.08 L1151.56 3043.41 L1151.56 3009.34 L1217.67 2996 L1255.08 2996 L1255.08 3241 L1316.19 3241 L1316.19 3272.48 L1156.93 3272.48 L1156.93 3241 Z" fill="#000000" fill-rule="evenodd" fill-opacity="1" /><path clip-path="url(#clip4600)" d="M 0 0 M1356.75 3225.45 L1395.82 3225.45 L1395.82 3272.48 L1356.75 3272.48 L1356.75 3225.45 Z" fill="#000000" fill-rule="evenodd" fill-opacity="1" /><path clip-path="url(#clip4600)" d="M 0 0 M1516.37 3020.63 Q1487.49 3020.63 1472.86 3049.15 Q1458.41 3077.48 1458.41 3134.52 Q1458.41 3191.37 1472.86 3219.89 Q1487.49 3248.22 1516.37 3248.22 Q1545.45 3248.22 1559.89 3219.89 Q1574.52 3191.37 1574.52 3134.52 Q1574.52 3077.48 1559.89 3049.15 Q1545.45 3020.63 1516.37 3020.63 M1516.37 2991 Q1562.86 2991 1587.3 3027.86 Q1611.93 3064.52 1611.93 3134.52 Q1611.93 3204.34 1587.3 3241.19 Q1562.86 3277.85 1516.37 3277.85 Q1469.89 3277.85 1445.26 3241.19 Q1420.82 3204.34 1420.82 3134.52 Q1420.82 3064.52 1445.26 3027.86 Q1469.89 2991 1516.37 2991 Z" fill="#000000" fill-rule="evenodd" fill-opacity="1" /><path clip-path="url(#clip4600)" d="M 0 0 M1732.48 3020.63 Q1703.6 3020.63 1688.97 3049.15 Q1674.52 3077.48 1674.52 3134.52 Q1674.52 3191.37 1688.97 3219.89 Q1703.6 3248.22 1732.48 3248.22 Q1761.56 3248.22 1776 3219.89 Q1790.63 3191.37 1790.63 3134.52 Q1790.63 3077.48 1776 3049.15 Q1761.56 3020.63 1732.48 3020.63 M1732.48 2991 Q1778.97 2991 1803.41 3027.86 Q1828.04 3064.52 1828.04 3134.52 Q1828.04 3204.34 1803.41 3241.19 Q1778.97 3277.85 1732.48 3277.85 Q1686 3277.85 1661.37 3241.19 Q1636.93 3204.34 1636.93 3134.52 Q1636.93 3064.52 1661.37 3027.86 Q1686 2991 1732.48 2991 Z" fill="#000000" fill-rule="evenodd" fill-opacity="1" /><path clip-path="url(#clip4600)" d="M 0 0 M1015.45 1023.54 L1115.27 1023.54 L1115.27 1053.91 L1015.45 1053.91 L1015.45 1023.54 Z" fill="#000000" fill-rule="evenodd" fill-opacity="1" /><path clip-path="url(#clip4600)" d="M 0 0 M1235.82 890.764 Q1206.93 890.764 1192.3 919.282 Q1177.86 947.615 1177.86 1004.65 Q1177.86 1061.5 1192.3 1090.02 Q1206.93 1118.36 1235.82 1118.36 Q1264.89 1118.36 1279.34 1090.02 Q1293.97 1061.5 1293.97 1004.65 Q1293.97 947.615 1279.34 919.282 Q1264.89 890.764 1235.82 890.764 M1235.82 861.134 Q1282.3 861.134 1306.75 897.986 Q1331.38 934.652 1331.38 1004.65 Q1331.38 1074.47 1306.75 1111.32 Q1282.3 1147.98 1235.82 1147.98 Q1189.34 1147.98 1164.71 1111.32 Q1140.27 1074.47 1140.27 1004.65 Q1140.27 934.652 1164.71 897.986 Q1189.34 861.134 1235.82 861.134 Z" fill="#000000" fill-rule="evenodd" fill-opacity="1" /><path clip-path="url(#clip4600)" d="M 0 0 M1371.93 1095.58 L1411.01 1095.58 L1411.01 1142.61 L1371.93 1142.61 L1371.93 1095.58 Z" fill="#000000" fill-rule="evenodd" fill-opacity="1" /><path clip-path="url(#clip4600)" d="M 0 0 M1442.12 866.134 L1619.89 866.134 L1619.89 882.06 L1519.52 1142.61 L1480.45 1142.61 L1574.89 897.616 L1442.12 897.616 L1442.12 866.134 Z" fill="#000000" fill-rule="evenodd" fill-opacity="1" /><path clip-path="url(#clip4600)" d="M 0 0 M1660.82 866.134 L1807.67 866.134 L1807.67 897.616 L1695.08 897.616 L1695.08 965.393 Q1703.23 962.615 1711.37 961.319 Q1719.52 959.837 1727.67 959.837 Q1773.97 959.837 1801 985.208 Q1828.04 1010.58 1828.04 1053.91 Q1828.04 1098.54 1800.26 1123.36 Q1772.48 1147.98 1721.93 1147.98 Q1704.52 1147.98 1686.37 1145.02 Q1668.41 1142.06 1649.15 1136.13 L1649.15 1098.54 Q1665.82 1107.61 1683.6 1112.06 Q1701.37 1116.5 1721.19 1116.5 Q1753.23 1116.5 1771.93 1099.65 Q1790.63 1082.8 1790.63 1053.91 Q1790.63 1025.02 1771.93 1008.17 Q1753.23 991.319 1721.19 991.319 Q1706.19 991.319 1691.19 994.652 Q1676.37 997.985 1660.82 1005.02 L1660.82 866.134 Z" fill="#000000" fill-rule="evenodd" fill-opacity="1" /><path clip-path="url(#clip4600)" d="M 0 0 M5800.58 96.768 L6106.51 96.768 L6106.51 151.86 L5866.04 151.86 L5866.04 295.1 L6096.46 295.1 L6096.46 350.193 L5866.04 350.193 L5866.04 525.516 L6112.34 525.516 L6112.34 580.608 L5800.58 580.608 L5800.58 96.768 Z" fill="#000000" fill-rule="evenodd" fill-opacity="1" /><path clip-path="url(#clip4600)" d="M 0 0 M6450.67 690.793 L6450.67 737.135 L6105.86 737.135 L6105.86 690.793 L6450.67 690.793 Z" fill="#000000" fill-rule="evenodd" fill-opacity="1" /><path clip-path="url(#clip4600)" d="M 0 0 M6744.6 228.341 L6744.6 284.73 Q6719.33 271.767 6692.11 265.286 Q6664.88 258.804 6635.72 258.804 Q6591.32 258.804 6568.96 272.415 Q6546.92 286.026 6546.92 313.248 Q6546.92 333.989 6562.8 345.98 Q6578.68 357.646 6626.64 368.341 L6647.06 372.878 Q6710.58 386.489 6737.15 411.442 Q6764.05 436.072 6764.05 480.47 Q6764.05 531.025 6723.86 560.516 Q6684 590.006 6614 590.006 Q6584.84 590.006 6553.08 584.173 Q6521.64 578.664 6486.64 567.321 L6486.64 505.747 Q6519.7 522.923 6551.78 531.673 Q6583.87 540.099 6615.3 540.099 Q6657.43 540.099 6680.11 525.84 Q6702.8 511.257 6702.8 485.007 Q6702.8 460.701 6686.27 447.738 Q6670.07 434.775 6614.65 422.785 L6593.91 417.924 Q6538.49 406.257 6513.87 382.276 Q6489.24 357.97 6489.24 315.841 Q6489.24 264.637 6525.53 236.767 Q6561.83 208.897 6628.59 208.897 Q6661.64 208.897 6690.81 213.758 Q6719.98 218.619 6744.6 228.341 Z" fill="#000000" fill-rule="evenodd" fill-opacity="1" /><path clip-path="url(#clip4600)" d="M 0 0 M6826.6 217.647 L6886.22 217.647 L6886.22 580.608 L6826.6 580.608 L6826.6 217.647 M6826.6 76.3514 L6886.22 76.3514 L6886.22 151.86 L6826.6 151.86 L6826.6 76.3514 Z" fill="#000000" fill-rule="evenodd" fill-opacity="1" /><path clip-path="url(#clip4600)" d="M 0 0 M7007.75 114.592 L7007.75 217.647 L7130.58 217.647 L7130.58 263.989 L7007.75 263.989 L7007.75 461.025 Q7007.75 505.423 7019.74 518.062 Q7032.06 530.701 7069.33 530.701 L7130.58 530.701 L7130.58 580.608 L7069.33 580.608 Q7000.3 580.608 6974.05 555.006 Q6947.8 529.08 6947.8 461.025 L6947.8 263.989 L6904.05 263.989 L6904.05 217.647 L6947.8 217.647 L6947.8 114.592 L7007.75 114.592 Z" fill="#000000" fill-rule="evenodd" fill-opacity="1" /><path clip-path="url(#clip4600)" d="M 0 0 M7503.58 384.22 L7503.58 413.387 L7229.42 413.387 Q7233.31 474.96 7266.36 507.368 Q7299.74 539.451 7359.05 539.451 Q7393.4 539.451 7425.48 531.025 Q7457.89 522.599 7489.65 505.747 L7489.65 562.136 Q7457.56 575.747 7423.86 582.877 Q7390.16 590.006 7355.48 590.006 Q7268.63 590.006 7217.75 539.451 Q7167.2 488.896 7167.2 402.692 Q7167.2 313.572 7215.16 261.397 Q7263.44 208.897 7345.11 208.897 Q7418.35 208.897 7460.8 256.212 Q7503.58 303.202 7503.58 384.22 M7443.95 366.72 Q7443.3 317.785 7416.41 288.619 Q7389.83 259.452 7345.76 259.452 Q7295.85 259.452 7265.71 287.647 Q7235.9 315.841 7231.36 367.044 L7443.95 366.72 Z" fill="#000000" fill-rule="evenodd" fill-opacity="1" /><path clip-path="url(#clip4600)" d="M 0 0 M7792.33 498.294 L7860.71 498.294 L7860.71 580.608 L7792.33 580.608 L7792.33 498.294 M7792.33 237.415 L7860.71 237.415 L7860.71 319.73 L7792.33 319.73 L7792.33 237.415 Z" fill="#000000" fill-rule="evenodd" fill-opacity="1" /><path clip-path="url(#clip4600)" d="M 0 0 M8282.65 350.841 Q8235.99 350.841 8209.09 375.794 Q8182.51 400.748 8182.51 444.498 Q8182.51 488.247 8209.09 513.201 Q8235.99 538.155 8282.65 538.155 Q8329.32 538.155 8356.22 513.201 Q8383.11 487.923 8383.11 444.498 Q8383.11 400.748 8356.22 375.794 Q8329.64 350.841 8282.65 350.841 M8217.19 322.97 Q8175.06 312.6 8151.4 283.758 Q8128.07 254.915 8128.07 213.434 Q8128.07 155.425 8169.23 121.722 Q8210.71 88.018 8282.65 88.018 Q8354.92 88.018 8396.08 121.722 Q8437.23 155.425 8437.23 213.434 Q8437.23 254.915 8413.58 283.758 Q8390.24 312.6 8348.44 322.97 Q8395.75 333.989 8422 366.072 Q8448.58 398.155 8448.58 444.498 Q8448.58 514.821 8405.48 552.414 Q8362.7 590.006 8282.65 590.006 Q8202.61 590.006 8159.5 552.414 Q8116.73 514.821 8116.73 444.498 Q8116.73 398.155 8143.3 366.072 Q8169.88 333.989 8217.19 322.97 M8193.21 219.591 Q8193.21 257.184 8216.54 278.249 Q8240.2 299.313 8282.65 299.313 Q8324.78 299.313 8348.44 278.249 Q8372.42 257.184 8372.42 219.591 Q8372.42 181.999 8348.44 160.934 Q8324.78 139.87 8282.65 139.87 Q8240.2 139.87 8216.54 160.934 Q8193.21 181.999 8193.21 219.591 Z" fill="#000000" fill-rule="evenodd" fill-opacity="1" /><path clip-path="url(#clip4600)" d="M 0 0 M8971.63 176.49 L8855.29 239.36 L8971.63 302.554 L8952.83 334.313 L8843.95 268.526 L8843.95 390.702 L8807 390.702 L8807 268.526 L8698.11 334.313 L8679.32 302.554 L8795.66 239.36 L8679.32 176.49 L8698.11 144.407 L8807 210.193 L8807 88.018 L8843.95 88.018 L8843.95 210.193 L8952.83 144.407 L8971.63 176.49 Z" fill="#000000" fill-rule="evenodd" fill-opacity="1" /><path clip-path="url(#clip4600)" d="M 0 0 M9393.57 350.841 Q9346.91 350.841 9320.01 375.794 Q9293.43 400.748 9293.43 444.498 Q9293.43 488.247 9320.01 513.201 Q9346.91 538.155 9393.57 538.155 Q9440.24 538.155 9467.14 513.201 Q9494.03 487.923 9494.03 444.498 Q9494.03 400.748 9467.14 375.794 Q9440.56 350.841 9393.57 350.841 M9328.11 322.97 Q9285.98 312.6 9262.32 283.758 Q9238.99 254.915 9238.99 213.434 Q9238.99 155.425 9280.15 121.722 Q9321.63 88.018 9393.57 88.018 Q9465.84 88.018 9507 121.722 Q9548.15 155.425 9548.15 213.434 Q9548.15 254.915 9524.5 283.758 Q9501.16 312.6 9459.36 322.97 Q9506.67 333.989 9532.92 366.072 Q9559.5 398.155 9559.5 444.498 Q9559.5 514.821 9516.4 552.414 Q9473.62 590.006 9393.57 590.006 Q9313.53 590.006 9270.42 552.414 Q9227.65 514.821 9227.65 444.498 Q9227.65 398.155 9254.22 366.072 Q9280.8 333.989 9328.11 322.97 M9304.13 219.591 Q9304.13 257.184 9327.46 278.249 Q9351.12 299.313 9393.57 299.313 Q9435.7 299.313 9459.36 278.249 Q9483.34 257.184 9483.34 219.591 Q9483.34 181.999 9459.36 160.934 Q9435.7 139.87 9393.57 139.87 Q9351.12 139.87 9327.46 160.934 Q9304.13 181.999 9304.13 219.591 Z" fill="#000000" fill-rule="evenodd" fill-opacity="1" /><path clip-path="url(#clip4600)" d="M 0 0 M9637.27 498.294 L9705.65 498.294 L9705.65 554.034 L9652.51 657.737 L9610.7 657.737 L9637.27 554.034 L9637.27 498.294 Z" fill="#000000" fill-rule="evenodd" fill-opacity="1" /><path clip-path="url(#clip4600)" d="M 0 0 M10178.2 141.166 Q10106.9 141.166 10064.7 194.314 Q10022.9 247.462 10022.9 339.174 Q10022.9 430.563 10064.7 483.71 Q10106.9 536.858 10178.2 536.858 Q10249.4 536.858 10290.9 483.71 Q10332.7 430.563 10332.7 339.174 Q10332.7 247.462 10290.9 194.314 Q10249.4 141.166 10178.2 141.166 M10269.9 571.858 L10356.1 666.163 L10277 666.163 L10205.4 588.71 Q10194.7 589.358 10188.8 589.682 Q10183.3 590.006 10178.2 590.006 Q10076.1 590.006 10014.8 521.951 Q9953.89 453.572 9953.89 339.174 Q9953.89 224.453 10014.8 156.397 Q10076.1 88.018 10178.2 88.018 Q10279.9 88.018 10340.8 156.397 Q10401.8 224.453 10401.8 339.174 Q10401.8 423.433 10367.7 483.386 Q10334 543.34 10269.9 571.858 Z" fill="#000000" fill-rule="evenodd" fill-opacity="1" /><path clip-path="url(#clip4600)" d="M 0 0 M10683.1 279.221 L11098.5 279.221 L11098.5 333.665 L10683.1 333.665 L10683.1 279.221 M10683.1 411.442 L11098.5 411.442 L11098.5 466.535 L10683.1 466.535 L10683.1 411.442 Z" fill="#000000" fill-rule="evenodd" fill-opacity="1" /><path clip-path="url(#clip4600)" d="M 0 0 M11391.8 525.516 L11498.7 525.516 L11498.7 156.397 L11382.4 179.731 L11382.4 120.101 L11498.1 96.768 L11563.6 96.768 L11563.6 525.516 L11670.5 525.516 L11670.5 580.608 L11391.8 580.608 L11391.8 525.516 Z" fill="#000000" fill-rule="evenodd" fill-opacity="1" /><path clip-path="url(#clip4600)" d="M 0 0 M11889.6 312.6 Q11845.5 312.6 11819.6 342.739 Q11794 372.878 11794 425.377 Q11794 477.553 11819.6 508.016 Q11845.5 538.155 11889.6 538.155 Q11933.7 538.155 11959.3 508.016 Q11985.2 477.553 11985.2 425.377 Q11985.2 372.878 11959.3 342.739 Q11933.7 312.6 11889.6 312.6 M12019.5 107.462 L12019.5 167.092 Q11994.9 155.425 11969.6 149.268 Q11944.7 143.11 11920 143.11 Q11855.2 143.11 11820.9 186.86 Q11786.8 230.61 11782 319.082 Q11801.1 290.887 11829.9 275.98 Q11858.8 260.749 11893.5 260.749 Q11966.4 260.749 12008.5 305.147 Q12051 349.22 12051 425.377 Q12051 499.914 12006.9 544.96 Q11962.8 590.006 11889.6 590.006 Q11805.6 590.006 11761.2 525.84 Q11716.8 461.349 11716.8 339.174 Q11716.8 224.453 11771.3 156.397 Q11825.7 88.018 11917.4 88.018 Q11942.1 88.018 11967 92.8791 Q11992.3 97.7402 12019.5 107.462 Z" fill="#000000" fill-rule="evenodd" fill-opacity="1" /><path clip-path="url(#clip4600)" d="M 0 0 M12128.7 498.294 L12197.1 498.294 L12197.1 554.034 L12144 657.737 L12102.2 657.737 L12128.7 554.034 L12128.7 498.294 Z" fill="#000000" fill-rule="evenodd" fill-opacity="1" /><path clip-path="url(#clip4600)" d="M 0 0 M12473.2 96.768 L12538.7 96.768 L12538.7 546.904 Q12538.7 634.404 12505.3 673.941 Q12472.3 713.478 12398.7 713.478 L12373.7 713.478 L12373.7 658.385 L12394.2 658.385 Q12437.6 658.385 12455.4 634.08 Q12473.2 609.775 12473.2 546.904 L12473.2 96.768 Z" fill="#000000" fill-rule="evenodd" fill-opacity="1" /><path clip-path="url(#clip4600)" d="M 0 0 M12877 690.793 L12877 737.135 L12532.2 737.135 L12532.2 690.793 L12877 690.793 Z" fill="#000000" fill-rule="evenodd" fill-opacity="1" /><path clip-path="url(#clip4600)" d="M 0 0 M13088 139.87 Q13037.4 139.87 13011.8 189.777 Q12986.6 239.36 12986.6 339.174 Q12986.6 438.664 13011.8 488.571 Q13037.4 538.155 13088 538.155 Q13138.9 538.155 13164.2 488.571 Q13189.8 438.664 13189.8 339.174 Q13189.8 239.36 13164.2 189.777 Q13138.9 139.87 13088 139.87 M13088 88.018 Q13169.3 88.018 13212.1 152.508 Q13255.2 216.675 13255.2 339.174 Q13255.2 461.349 13212.1 525.84 Q13169.3 590.006 13088 590.006 Q13006.7 590.006 12963.6 525.84 Q12920.8 461.349 12920.8 339.174 Q12920.8 216.675 12963.6 152.508 Q13006.7 88.018 13088 88.018 Z" fill="#000000" fill-rule="evenodd" fill-opacity="1" /><path clip-path="url(#clip4600)" d="M 0 0 M13536.5 279.221 L13952 279.221 L13952 333.665 L13536.5 333.665 L13536.5 279.221 M13536.5 411.442 L13952 411.442 L13952 466.535 L13536.5 466.535 L13536.5 411.442 Z" fill="#000000" fill-rule="evenodd" fill-opacity="1" /><path clip-path="url(#clip4600)" d="M 0 0 M14245.3 525.516 L14352.2 525.516 L14352.2 156.397 L14235.9 179.731 L14235.9 120.101 L14351.6 96.768 L14417 96.768 L14417 525.516 L14524 525.516 L14524 580.608 L14245.3 580.608 L14245.3 525.516 Z" fill="#000000" fill-rule="evenodd" fill-opacity="1" /><path clip-path="url(#clip4600)" d="M 0 0 M14594.9 498.294 L14663.3 498.294 L14663.3 580.608 L14594.9 580.608 L14594.9 498.294 Z" fill="#000000" fill-rule="evenodd" fill-opacity="1" /><path clip-path="url(#clip4600)" d="M 0 0 M14874.3 139.87 Q14823.7 139.87 14798.1 189.777 Q14772.8 239.36 14772.8 339.174 Q14772.8 438.664 14798.1 488.571 Q14823.7 538.155 14874.3 538.155 Q14925.2 538.155 14950.4 488.571 Q14976 438.664 14976 339.174 Q14976 239.36 14950.4 189.777 Q14925.2 139.87 14874.3 139.87 M14874.3 88.018 Q14955.6 88.018 14998.4 152.508 Q15041.5 216.675 15041.5 339.174 Q15041.5 461.349 14998.4 525.84 Q14955.6 590.006 14874.3 590.006 Q14792.9 590.006 14749.8 525.84 Q14707.1 461.349 14707.1 339.174 Q14707.1 216.675 14749.8 152.508 Q14792.9 88.018 14874.3 88.018 Z" fill="#000000" fill-rule="evenodd" fill-opacity="1" /><path clip-path="url(#clip4600)" d="M 0 0 M10260.2 12068.2 L10581.8 12068.2 L10581.8 12111.5 L10446.9 12111.5 L10446.9 12448.4 L10395.2 12448.4 L10395.2 12111.5 L10260.2 12111.5 L10260.2 12068.2 Z" fill="#000000" fill-rule="evenodd" fill-opacity="1" /><path clip-path="url(#clip4600)" d="M 0 0 M323.873 6855.64 L323.873 6615.27 L367.16 6615.27 L367.16 6804.21 L479.706 6804.21 L479.706 6623.17 L522.993 6623.17 L522.993 6804.21 L660.746 6804.21 L660.746 6610.69 L704.033 6610.69 L704.033 6855.64 L323.873 6855.64 Z" fill="#000000" fill-rule="evenodd" fill-opacity="1" /><path clip-path="url(#clip4600)" d="M 0 0 M790.607 6344.86 L827.019 6344.86 L827.019 6615.78 L790.607 6615.78 L790.607 6344.86 Z" fill="#000000" fill-rule="evenodd" fill-opacity="1" /><path clip-path="url(#clip4600)" d="M 0 0 M427.252 6113.91 L471.558 6113.91 Q461.373 6133.77 456.28 6155.16 Q451.187 6176.55 451.187 6199.47 Q451.187 6234.35 461.882 6251.92 Q472.576 6269.23 493.965 6269.23 Q510.261 6269.23 519.682 6256.76 Q528.849 6244.28 537.252 6206.6 L540.817 6190.55 Q551.511 6140.65 571.117 6119.77 Q590.469 6098.63 625.353 6098.63 Q665.075 6098.63 688.246 6130.21 Q711.417 6161.53 711.417 6216.53 Q711.417 6239.44 706.834 6264.4 Q702.505 6289.1 693.594 6316.6 L645.214 6316.6 Q658.709 6290.62 665.584 6265.42 Q672.205 6240.21 672.205 6215.51 Q672.205 6182.41 661.001 6164.58 Q649.543 6146.76 628.918 6146.76 Q609.821 6146.76 599.636 6159.74 Q589.451 6172.48 580.029 6216.02 L576.21 6232.31 Q567.043 6275.86 548.201 6295.21 Q529.104 6314.56 496.002 6314.56 Q455.771 6314.56 433.873 6286.04 Q411.975 6257.52 411.975 6205.07 Q411.975 6179.1 415.794 6156.18 Q419.613 6133.26 427.252 6113.91 Z" fill="#000000" fill-rule="evenodd" fill-opacity="1" /><path clip-path="url(#clip4600)" d="M 0 0 M418.85 6049.49 L418.85 6002.64 L704.033 6002.64 L704.033 6049.49 L418.85 6049.49 M307.832 6049.49 L307.832 6002.64 L367.16 6002.64 L367.16 6049.49 L307.832 6049.49 Z" fill="#000000" fill-rule="evenodd" fill-opacity="1" /><path clip-path="url(#clip4600)" d="M 0 0 M337.878 5907.15 L418.85 5907.15 L418.85 5810.65 L455.261 5810.65 L455.261 5907.15 L610.075 5907.15 Q644.96 5907.15 654.89 5897.73 Q664.821 5888.06 664.821 5858.77 L664.821 5810.65 L704.033 5810.65 L704.033 5858.77 Q704.033 5913.01 683.918 5933.63 Q663.547 5954.26 610.075 5954.26 L455.261 5954.26 L455.261 5988.63 L418.85 5988.63 L418.85 5954.26 L337.878 5954.26 L337.878 5907.15 Z" fill="#000000" fill-rule="evenodd" fill-opacity="1" /><path clip-path="url(#clip4600)" d="M 0 0 M549.729 5517.57 L572.645 5517.57 L572.645 5732.99 Q621.024 5729.93 646.487 5703.96 Q671.695 5677.73 671.695 5631.14 Q671.695 5604.15 665.075 5578.94 Q658.455 5553.47 645.214 5528.52 L689.519 5528.52 Q700.214 5553.73 705.816 5580.21 Q711.417 5606.69 711.417 5633.94 Q711.417 5702.18 671.695 5742.15 Q631.973 5781.88 564.242 5781.88 Q494.22 5781.88 453.224 5744.19 Q411.975 5706.25 411.975 5642.09 Q411.975 5584.54 449.15 5551.18 Q486.071 5517.57 549.729 5517.57 M535.979 5564.42 Q497.53 5564.93 474.613 5586.07 Q451.697 5606.95 451.697 5641.58 Q451.697 5680.79 473.849 5704.47 Q496.002 5727.9 536.233 5731.46 L535.979 5564.42 Z" fill="#000000" fill-rule="evenodd" fill-opacity="1" /><polyline clip-path="url(#clip4602)" style="stroke:#009af9; stroke-width:32; stroke-opacity:1; fill:none" points="
  2495.57,11091.2 2819.06,11059 3142.55,11052.8 3466.03,11016.7 3789.52,11010.2 4113.01,10991.1 4436.5,10956 4759.99,10939.8 5083.48,10931.1 5406.97,10904 
  5730.46,10875.6 6053.94,10830.4 6377.43,10805.1 6700.92,10782.5 7024.41,10757.2 7347.9,10743.5 7671.39,10687.9 7994.88,10692.7 8318.37,10634 8641.86,10625.7 
  8965.34,10530.4 9288.83,10512.2 9612.32,10466.2 9935.81,10382.2 10259.3,10440.7 10582.8,10329.1 10906.3,10225.7 11229.8,10171 11553.3,10093.6 11876.7,9916.49 
  12200.2,9834.38 12523.7,9649.78 12847.2,9681.56 13170.7,9471.63 13494.2,9422.03 13817.7,9156 14141.2,9126.24 14464.7,8692.72 14788.1,8695.62 15111.6,8129.08 
  15435.1,8015.95 15758.6,7809.21 16082.1,7398.44 16405.6,6533.48 16729.1,6614.47 17052.6,6293.46 17376.1,5956.08 17699.5,5696.87 18023,5095.87 18346.5,4272.36 
  
  "/>
<polyline clip-path="url(#clip4602)" style="stroke:#e26f46; stroke-width:32; stroke-opacity:1; fill:none" points="
  2495.57,10680.2 2819.06,10657.3 3142.55,10600.9 3466.03,10582.6 3789.52,10531.3 4113.01,10497.6 4436.5,10474.7 4759.99,10378.4 5083.48,10381.7 5406.97,10335 
  5730.46,10258.2 6053.94,10236.7 6377.43,10198.8 6700.92,10097.5 7024.41,10075.2 7347.9,9911.99 7671.39,9833.1 7994.88,9806.09 8318.37,9613.54 8641.86,9438.2 
  8965.34,9445.16 9288.83,9192.93 9612.32,9075.18 9935.81,8867.38 10259.3,8610.46 10582.8,8661.44 10906.3,8469.38 11229.8,8128.59 11553.3,7912.92 11876.7,7523.97 
  12200.2,7134.45 12523.7,6714.51 12847.2,6584.88 13170.7,5994.26 13494.2,5619.83 13817.7,5502.77 14141.2,4947.76 14464.7,4496.26 14788.1,4129.59 15111.6,4055.88 
  15435.1,3524.9 15758.6,3315.23 16082.1,3193.58 16405.6,2386.37 16729.1,2307.65 17052.6,2191.99 17376.1,1809.82 17699.5,1557.15 18023,1360.65 18346.5,1282.05 
  
  "/>
<polyline clip-path="url(#clip4602)" style="stroke:#3da44d; stroke-width:32; stroke-opacity:1; fill:none" points="
  2495.57,8653.65 2819.06,8547.46 3142.55,8451.3 3466.03,8401.6 3789.52,8300.54 4113.01,8226.53 4436.5,8166.37 4759.99,7978.64 5083.48,7888.2 5406.97,7744.56 
  5730.46,7750.78 6053.94,7544.86 6377.43,7326.87 6700.92,7387.15 7024.41,7153.14 7347.9,7049.09 7671.39,7051.92 7994.88,6761.03 8318.37,6575.86 8641.86,6452.67 
  8965.34,6384.83 9288.83,6177.96 9612.32,6063.01 9935.81,5902.24 10259.3,5611.39 10582.8,5564.69 10906.3,5305.86 11229.8,5250.61 11553.3,4950.78 11876.7,4821.15 
  12200.2,4578.87 12523.7,4486.69 12847.2,4315.17 13170.7,4135.93 13494.2,3970.2 13817.7,3845.41 14141.2,3720.98 14464.7,3554.92 14788.1,3392.5 15111.6,3194.12 
  15435.1,3161.19 15758.6,3007.39 16082.1,2868.22 16405.6,2738.62 16729.1,2623.41 17052.6,2492.62 17376.1,2384.73 17699.5,2241.31 18023,2201.27 18346.5,2125.64 
  
  "/>
<polyline clip-path="url(#clip4602)" style="stroke:#c271d2; stroke-width:32; stroke-opacity:1; fill:none" points="
  2495.57,8576.03 2819.06,8537.87 3142.55,8509.99 3466.03,8485.71 3789.52,8459.27 4113.01,8424.26 4436.5,8406.85 4759.99,8351.51 5083.48,8310.87 5406.97,8296.31 
  5730.46,8269.5 6053.94,8211.78 6377.43,8194.35 6700.92,8155.38 7024.41,8123.13 7347.9,8090.9 7671.39,8011.45 7994.88,8009.28 8318.37,7935.68 8641.86,7894.27 
  8965.34,7892.1 9288.83,7842.29 9612.32,7779.12 9935.81,7725.76 10259.3,7661.54 10582.8,7627 10906.3,7611.51 11229.8,7530.99 11553.3,7462.74 11876.7,7390.38 
  12200.2,7380.6 12523.7,7330.63 12847.2,7249.69 13170.7,7211.86 13494.2,7105.78 13817.7,7057.88 14141.2,7040.95 14464.7,6936.17 14788.1,6883.19 15111.6,6827.3 
  15435.1,6736.64 15758.6,6678.11 16082.1,6638.6 16405.6,6535.94 16729.1,6445.42 17052.6,6350.19 17376.1,6319.76 17699.5,6259.88 18023,6160.28 18346.5,6085.97 
  
  "/>
<polyline clip-path="url(#clip4602)" style="stroke:#ac8d18; stroke-width:32; stroke-opacity:1; fill:none" points="
  2495.57,10731.1 2819.06,10720.7 3142.55,10708.5 3466.03,10699.4 3789.52,10680 4113.01,10674.1 4436.5,10666.2 4759.99,10637.9 5083.48,10627.5 5406.97,10618.3 
  5730.46,10594.6 6053.94,10579 6377.43,10566.5 6700.92,10555.7 7024.41,10536.1 7347.9,10520 7671.39,10494.8 7994.88,10486.5 8318.37,10477.1 8641.86,10467 
  8965.34,10419.7 9288.83,10410.1 9612.32,10400.8 9935.81,10383.2 10259.3,10355.6 10582.8,10329.2 10906.3,10329.9 11229.8,10303.3 11553.3,10299.1 11876.7,10266.1 
  12200.2,10246.3 12523.7,10235 12847.2,10209 13170.7,10188.8 13494.2,10145.7 13817.7,10148.2 14141.2,10132.8 14464.7,10084.8 14788.1,10065.4 15111.6,10050.6 
  15435.1,10031.2 15758.6,10009.9 16082.1,9962.99 16405.6,9959.31 16729.1,9952.3 17052.6,9892.61 17376.1,9876.39 17699.5,9856.54 18023,9813.86 18346.5,9787.19 
  
  "/>
<polyline clip-path="url(#clip4602)" style="stroke:#00a9ad; stroke-width:32; stroke-opacity:1; fill:none" points="
  2495.57,9766 2819.06,9665.21 3142.55,9613.69 3466.03,9481.68 3789.52,9478.85 4113.01,9368.15 4436.5,9311.61 4759.99,9187.87 5083.48,9154.77 5406.97,9030.37 
  5730.46,8917.35 6053.94,8768.1 6377.43,8702.05 6700.92,8393.22 7024.41,8341.92 7347.9,8263.85 7671.39,8033 7994.88,7614.04 8318.37,7590.02 8641.86,7304.44 
  8965.34,7118.86 9288.83,7011.14 9612.32,6647.22 9935.81,6454.15 10259.3,6354.46 10582.8,5908.23 10906.3,5684.61 11229.8,5454.39 11553.3,5183.27 11876.7,4844.95 
  12200.2,4741.24 12523.7,4523.84 12847.2,4122.97 13170.7,4077.15 13494.2,3544.61 13817.7,3477.38 14141.2,3260.85 14464.7,3058.9 14788.1,2672.72 15111.6,2725.35 
  15435.1,2525.21 15758.6,2200.39 16082.1,2259.25 16405.6,2066.5 16729.1,1827.88 17052.6,1661.85 17376.1,1627.96 17699.5,1486.04 18023,1496.77 18346.5,1285.24 
  
  "/>
<polyline clip-path="url(#clip4602)" style="stroke:#ed5d92; stroke-width:32; stroke-opacity:1; fill:none" points="
  2495.57,9276.22 2819.06,9133.18 3142.55,9021.46 3466.03,9007.08 3789.52,8933.46 4113.01,8738.56 4436.5,8690.33 4759.99,8571.06 5083.48,8449.5 5406.97,8340.22 
  5730.46,8268 6053.94,8039.78 6377.43,7945.87 6700.92,7859.02 7024.41,7592.98 7347.9,7503.85 7671.39,7358.96 7994.88,6991.92 8318.37,6979.45 8641.86,6826.45 
  8965.34,6639.37 9288.83,6335.49 9612.32,6134.14 9935.81,6010.31 10259.3,5866.71 10582.8,5645.55 10906.3,5317.05 11229.8,5056.82 11553.3,4868.14 11876.7,4782.52 
  12200.2,4441.5 12523.7,4270.08 12847.2,3954.44 13170.7,3917.89 13494.2,3576.04 13817.7,3501.07 14141.2,3321.55 14464.7,3122.51 14788.1,3012.13 15111.6,2801.17 
  15435.1,2644.29 15758.6,2523.8 16082.1,2426.74 16405.6,2309.96 16729.1,2126.12 17052.6,2094.7 17376.1,2068.18 17699.5,1852.56 18023,1725.4 18346.5,1605.45 
  
  "/>
<path clip-path="url(#clip4600)" d="
M2596.04 5526.66 L4717.52 5526.66 L4717.52 1655.94 L2596.04 1655.94  Z
  " fill="#ffffff" fill-rule="evenodd" fill-opacity="1"/>
<polyline clip-path="url(#clip4600)" style="stroke:#000000; stroke-width:32; stroke-opacity:1; fill:none" points="
  2596.04,5526.66 4717.52,5526.66 4717.52,1655.94 2596.04,1655.94 2596.04,5526.66 
  "/>
<polyline clip-path="url(#clip4600)" style="stroke:#009af9; stroke-width:32; stroke-opacity:1; fill:none" points="
  2788.04,2139.78 3940.04,2139.78 
  "/>
<path clip-path="url(#clip4600)" d="M 0 0 M4137.41 2246.54 L4198.52 2246.54 L4198.52 2035.61 L4132.04 2048.94 L4132.04 2014.87 L4198.15 2001.54 L4235.56 2001.54 L4235.56 2246.54 L4296.67 2246.54 L4296.67 2278.02 L4137.41 2278.02 L4137.41 2246.54 Z" fill="#000000" fill-rule="evenodd" fill-opacity="1" /><polyline clip-path="url(#clip4600)" style="stroke:#e26f46; stroke-width:32; stroke-opacity:1; fill:none" points="
  2788.04,2623.62 3940.04,2623.62 
  "/>
<path clip-path="url(#clip4600)" d="M 0 0 M4177.04 2730.38 L4307.59 2730.38 L4307.59 2761.86 L4132.04 2761.86 L4132.04 2730.38 Q4153.34 2708.34 4190 2671.3 Q4226.85 2634.08 4236.3 2623.34 Q4254.26 2603.15 4261.3 2589.27 Q4268.52 2575.19 4268.52 2561.67 Q4268.52 2539.64 4252.97 2525.75 Q4237.59 2511.86 4212.78 2511.86 Q4195.19 2511.86 4175.56 2517.97 Q4156.11 2524.08 4133.89 2536.49 L4133.89 2498.71 Q4156.48 2489.64 4176.11 2485.01 Q4195.74 2480.38 4212.04 2480.38 Q4255 2480.38 4280.56 2501.86 Q4306.11 2523.34 4306.11 2559.27 Q4306.11 2576.3 4299.63 2591.67 Q4293.34 2606.86 4276.48 2627.6 Q4271.85 2632.97 4247.04 2658.71 Q4222.22 2684.26 4177.04 2730.38 Z" fill="#000000" fill-rule="evenodd" fill-opacity="1" /><polyline clip-path="url(#clip4600)" style="stroke:#3da44d; stroke-width:32; stroke-opacity:1; fill:none" points="
  2788.04,3107.46 3940.04,3107.46 
  "/>
<path clip-path="url(#clip4600)" d="M 0 0 M4257.04 3096.62 Q4283.89 3102.36 4298.89 3120.51 Q4314.08 3138.66 4314.08 3165.33 Q4314.08 3206.25 4285.93 3228.66 Q4257.78 3251.07 4205.93 3251.07 Q4188.52 3251.07 4170 3247.55 Q4151.67 3244.22 4132.04 3237.36 L4132.04 3201.25 Q4147.6 3210.33 4166.11 3214.96 Q4184.63 3219.59 4204.82 3219.59 Q4240 3219.59 4258.34 3205.7 Q4276.85 3191.81 4276.85 3165.33 Q4276.85 3140.88 4259.63 3127.18 Q4242.59 3113.29 4212.04 3113.29 L4179.82 3113.29 L4179.82 3082.55 L4213.52 3082.55 Q4241.11 3082.55 4255.74 3071.62 Q4270.37 3060.51 4270.37 3039.77 Q4270.37 3018.48 4255.19 3007.18 Q4240.19 2995.7 4212.04 2995.7 Q4196.67 2995.7 4179.08 2999.03 Q4161.48 3002.36 4140.37 3009.4 L4140.37 2976.07 Q4161.67 2970.14 4180.19 2967.18 Q4198.89 2964.22 4215.37 2964.22 Q4257.97 2964.22 4282.78 2983.66 Q4307.59 3002.92 4307.59 3035.88 Q4307.59 3058.85 4294.45 3074.77 Q4281.3 3090.51 4257.04 3096.62 Z" fill="#000000" fill-rule="evenodd" fill-opacity="1" /><polyline clip-path="url(#clip4600)" style="stroke:#c271d2; stroke-width:32; stroke-opacity:1; fill:none" points="
  2788.04,3591.3 3940.04,3591.3 
  "/>
<path clip-path="url(#clip4600)" d="M 0 0 M4256.85 3485.65 L4162.41 3633.24 L4256.85 3633.24 L4256.85 3485.65 M4247.04 3453.06 L4294.08 3453.06 L4294.08 3633.24 L4333.52 3633.24 L4333.52 3664.35 L4294.08 3664.35 L4294.08 3729.54 L4256.85 3729.54 L4256.85 3664.35 L4132.04 3664.35 L4132.04 3628.24 L4247.04 3453.06 Z" fill="#000000" fill-rule="evenodd" fill-opacity="1" /><polyline clip-path="url(#clip4600)" style="stroke:#ac8d18; stroke-width:32; stroke-opacity:1; fill:none" points="
  2788.04,4075.14 3940.04,4075.14 
  "/>
<path clip-path="url(#clip4600)" d="M 0 0 M4143.71 3936.9 L4290.56 3936.9 L4290.56 3968.38 L4177.97 3968.38 L4177.97 4036.16 Q4186.11 4033.38 4194.26 4032.08 Q4202.41 4030.6 4210.56 4030.6 Q4256.85 4030.6 4283.89 4055.97 Q4310.93 4081.34 4310.93 4124.67 Q4310.93 4169.3 4283.15 4194.12 Q4255.37 4218.75 4204.82 4218.75 Q4187.41 4218.75 4169.26 4215.78 Q4151.3 4212.82 4132.04 4206.9 L4132.04 4169.3 Q4148.71 4178.38 4166.48 4182.82 Q4184.26 4187.27 4204.08 4187.27 Q4236.11 4187.27 4254.82 4170.41 Q4273.52 4153.56 4273.52 4124.67 Q4273.52 4095.79 4254.82 4078.93 Q4236.11 4062.08 4204.08 4062.08 Q4189.08 4062.08 4174.08 4065.41 Q4159.26 4068.75 4143.71 4075.79 L4143.71 3936.9 Z" fill="#000000" fill-rule="evenodd" fill-opacity="1" /><polyline clip-path="url(#clip4600)" style="stroke:#00a9ad; stroke-width:32; stroke-opacity:1; fill:none" points="
  2788.04,4558.98 3940.04,4558.98 
  "/>
<path clip-path="url(#clip4600)" d="M 0 0 M4230.74 4544.07 Q4205.56 4544.07 4190.74 4561.29 Q4176.11 4578.51 4176.11 4608.51 Q4176.11 4638.33 4190.74 4655.74 Q4205.56 4672.96 4230.74 4672.96 Q4255.93 4672.96 4270.56 4655.74 Q4285.37 4638.33 4285.37 4608.51 Q4285.37 4578.51 4270.56 4561.29 Q4255.93 4544.07 4230.74 4544.07 M4305 4426.85 L4305 4460.92 Q4290.93 4454.26 4276.48 4450.74 Q4262.22 4447.22 4248.15 4447.22 Q4211.11 4447.22 4191.48 4472.22 Q4172.04 4497.22 4169.26 4547.77 Q4180.19 4531.66 4196.67 4523.14 Q4213.15 4514.44 4232.97 4514.44 Q4274.63 4514.44 4298.71 4539.81 Q4322.96 4565 4322.96 4608.51 Q4322.96 4651.11 4297.78 4676.85 Q4272.59 4702.59 4230.74 4702.59 Q4182.78 4702.59 4157.41 4665.92 Q4132.04 4629.07 4132.04 4559.25 Q4132.04 4493.7 4163.15 4454.81 Q4194.26 4415.74 4246.67 4415.74 Q4260.74 4415.74 4275 4418.51 Q4289.45 4421.29 4305 4426.85 Z" fill="#000000" fill-rule="evenodd" fill-opacity="1" /><polyline clip-path="url(#clip4600)" style="stroke:#ed5d92; stroke-width:32; stroke-opacity:1; fill:none" points="
  2788.04,5042.82 3940.04,5042.82 
  "/>
<path clip-path="url(#clip4600)" d="M 0 0 M4132.04 4904.58 L4309.82 4904.58 L4309.82 4920.5 L4209.45 5181.06 L4170.37 5181.06 L4264.82 4936.06 L4132.04 4936.06 L4132.04 4904.58 Z" fill="#000000" fill-rule="evenodd" fill-opacity="1" /></svg>
