<?xml version="1.0" encoding="utf-8"?>
<svg xmlns="http://www.w3.org/2000/svg" xmlns:xlink="http://www.w3.org/1999/xlink" width="4800" height="3200" viewBox="0 0 19200 12800">
<defs>
  <clipPath id="clip5500">
    <rect x="0" y="0" width="19200" height="12800"/>
  </clipPath>
</defs>
<path clip-path="url(#clip5500)" d="
M0 12800 L19200 12800 L19200 0 L0 0  Z
  " fill="#ffffff" fill-rule="evenodd" fill-opacity="1"/>
<defs>
  <clipPath id="clip5501">
    <rect x="3840" y="0" width="13441" height="12800"/>
  </clipPath>
</defs>
<path clip-path="url(#clip5500)" d="
M1692.82 11385.4 L18822 11385.4 L18822 987.777 L1692.82 987.777  Z
  " fill="#ffffff" fill-rule="evenodd" fill-opacity="1"/>
<defs>
  <clipPath id="clip5502">
    <rect x="1692" y="987" width="17130" height="10399"/>
  </clipPath>
</defs>
<polyline clip-path="url(#clip5502)" style="stroke:#000000; stroke-width:16; stroke-opacity:0.1; fill:none" points="
  2177.61,11385.4 2177.61,987.777 
  "/>
<polyline clip-path="url(#clip5502)" style="stroke:#000000; stroke-width:16; stroke-opacity:0.1; fill:none" points="
  6217.52,11385.4 6217.52,987.777 
  "/>
<polyline clip-path="url(#clip5502)" style="stroke:#000000; stroke-width:16; stroke-opacity:0.1; fill:none" points="
  10257.4,11385.4 10257.4,987.777 
  "/>
<polyline clip-path="url(#clip5502)" style="stroke:#000000; stroke-width:16; stroke-opacity:0.1; fill:none" points="
  14297.3,11385.4 14297.3,987.777 
  "/>
<polyline clip-path="url(#clip5502)" style="stroke:#000000; stroke-width:16; stroke-opacity:0.1; fill:none" points="
  18337.3,11385.4 18337.3,987.777 
  "/>
<polyline clip-path="url(#clip5502)" style="stroke:#000000; stroke-width:16; stroke-opacity:0.1; fill:none" points="
  1692.82,10260.1 18822,10260.1 
  "/>
<polyline clip-path="url(#clip5502)" style="stroke:#000000; stroke-width:16; stroke-opacity:0.1; fill:none" points="
  1692.82,8675.72 18822,8675.72 
  "/>
<polyline clip-path="url(#clip5502)" style="stroke:#000000; stroke-width:16; stroke-opacity:0.1; fill:none" points="
  1692.82,7091.36 18822,7091.36 
  "/>
<polyline clip-path="url(#clip5502)" style="stroke:#000000; stroke-width:16; stroke-opacity:0.1; fill:none" points="
  1692.82,5507 18822,5507 
  "/>
<polyline clip-path="url(#clip5502)" style="stroke:#000000; stroke-width:16; stroke-opacity:0.1; fill:none" points="
  1692.82,3922.64 18822,3922.64 
  "/>
<polyline clip-path="url(#clip5502)" style="stroke:#000000; stroke-width:16; stroke-opacity:0.1; fill:none" points="
  1692.82,2338.29 18822,2338.29 
  "/>
<polyline clip-path="url(#clip5500)" style="stroke:#000000; stroke-width:32; stroke-opacity:1; fill:none" points="
  1692.82,11385.4 18822,11385.4 
  "/>
<polyline clip-path="url(#clip5500)" style="stroke:#000000; stroke-width:32; stroke-opacity:1; fill:none" points="
  1692.82,11385.4 1692.82,987.777 
  "/>
<polyline clip-path="url(#clip5500)" style="stroke:#000000; stroke-width:32; stroke-opacity:1; fill:none" points="
  2177.61,11385.4 2177.61,11260.7 
  "/>
<polyline clip-path="url(#clip5500)" style="stroke:#000000; stroke-width:32; stroke-opacity:1; fill:none" points="
  6217.52,11385.4 6217.52,11260.7 
  "/>
<polyline clip-path="url(#clip5500)" style="stroke:#000000; stroke-width:32; stroke-opacity:1; fill:none" points="
  10257.4,11385.4 10257.4,11260.7 
  "/>
<polyline clip-path="url(#clip5500)" style="stroke:#000000; stroke-width:32; stroke-opacity:1; fill:none" points="
  14297.3,11385.4 14297.3,11260.7 
  "/>
<polyline clip-path="url(#clip5500)" style="stroke:#000000; stroke-width:32; stroke-opacity:1; fill:none" points="
  18337.3,11385.4 18337.3,11260.7 
  "/>
<polyline clip-path="url(#clip5500)" style="stroke:#000000; stroke-width:32; stroke-opacity:1; fill:none" points="
  1692.82,10260.1 1898.37,10260.1 
  "/>
<polyline clip-path="url(#clip5500)" style="stroke:#000000; stroke-width:32; stroke-opacity:1; fill:none" points="
  1692.82,8675.72 1898.37,8675.72 
  "/>
<polyline clip-path="url(#clip5500)" style="stroke:#000000; stroke-width:32; stroke-opacity:1; fill:none" points="
  1692.82,7091.36 1898.37,7091.36 
  "/>
<polyline clip-path="url(#clip5500)" style="stroke:#000000; stroke-width:32; stroke-opacity:1; fill:none" points="
  1692.82,5507 1898.37,5507 
  "/>
<polyline clip-path="url(#clip5500)" style="stroke:#000000; stroke-width:32; stroke-opacity:1; fill:none" points="
  1692.82,3922.64 1898.37,3922.64 
  "/>
<polyline clip-path="url(#clip5500)" style="stroke:#000000; stroke-width:32; stroke-opacity:1; fill:none" points="
  1692.82,2338.29 1898.37,2338.29 
  "/>
<path clip-path="url(#clip5500)" d="M 0 0 M2032.33 11561.4 Q2003.44 11561.4 1988.81 11589.9 Q1974.37 11618.2 1974.37 11675.3 Q1974.37 11732.1 1988.81 11760.6 Q2003.44 11789 2032.33 11789 Q2061.41 11789 2075.85 11760.6 Q2090.48 11732.1 2090.48 11675.3 Q2090.48 11618.2 2075.85 11589.9 Q2061.41 11561.4 2032.33 11561.4 M2032.33 11531.7 Q2078.81 11531.7 2103.26 11568.6 Q2127.89 11605.3 2127.89 11675.3 Q2127.89 11745.1 2103.26 11781.9 Q2078.81 11818.6 2032.33 11818.6 Q1985.85 11818.6 1961.22 11781.9 Q1936.78 11745.1 1936.78 11675.3 Q1936.78 11605.3 1961.22 11568.6 Q1985.85 11531.7 2032.33 11531.7 Z" fill="#000000" fill-rule="evenodd" fill-opacity="1" /><path clip-path="url(#clip5500)" d="M 0 0 M2168.44 11766.2 L2207.52 11766.2 L2207.52 11813.2 L2168.44 11813.2 L2168.44 11766.2 Z" fill="#000000" fill-rule="evenodd" fill-opacity="1" /><path clip-path="url(#clip5500)" d="M 0 0 M2361.4 11664.1 Q2388.26 11669.9 2403.26 11688 Q2418.44 11706.2 2418.44 11732.8 Q2418.44 11773.8 2390.29 11796.2 Q2362.14 11818.6 2310.29 11818.6 Q2292.89 11818.6 2274.37 11815.1 Q2256.03 11811.7 2236.4 11804.9 L2236.4 11768.8 Q2251.96 11777.8 2270.48 11782.5 Q2289 11787.1 2309.18 11787.1 Q2344.37 11787.1 2362.7 11773.2 Q2381.22 11759.3 2381.22 11732.8 Q2381.22 11708.4 2364 11694.7 Q2346.96 11680.8 2316.4 11680.8 L2284.18 11680.8 L2284.18 11650.1 L2317.89 11650.1 Q2345.48 11650.1 2360.11 11639.1 Q2374.74 11628 2374.74 11607.3 Q2374.74 11586 2359.55 11574.7 Q2344.55 11563.2 2316.4 11563.2 Q2301.03 11563.2 2283.44 11566.5 Q2265.85 11569.9 2244.74 11576.9 L2244.74 11543.6 Q2266.03 11537.7 2284.55 11534.7 Q2303.26 11531.7 2319.74 11531.7 Q2362.33 11531.7 2387.14 11551.2 Q2411.96 11570.4 2411.96 11603.4 Q2411.96 11626.4 2398.81 11642.3 Q2385.66 11658 2361.4 11664.1 Z" fill="#000000" fill-rule="evenodd" fill-opacity="1" /><path clip-path="url(#clip5500)" d="M 0 0 M6067.71 11561.4 Q6038.82 11561.4 6024.19 11589.9 Q6009.74 11618.2 6009.74 11675.3 Q6009.74 11732.1 6024.19 11760.6 Q6038.82 11789 6067.71 11789 Q6096.78 11789 6111.23 11760.6 Q6125.85 11732.1 6125.85 11675.3 Q6125.85 11618.2 6111.23 11589.9 Q6096.78 11561.4 6067.71 11561.4 M6067.71 11531.7 Q6114.19 11531.7 6138.63 11568.6 Q6163.26 11605.3 6163.26 11675.3 Q6163.26 11745.1 6138.63 11781.9 Q6114.19 11818.6 6067.71 11818.6 Q6021.23 11818.6 5996.6 11781.9 Q5972.15 11745.1 5972.15 11675.3 Q5972.15 11605.3 5996.6 11568.6 Q6021.23 11531.7 6067.71 11531.7 Z" fill="#000000" fill-rule="evenodd" fill-opacity="1" /><path clip-path="url(#clip5500)" d="M 0 0 M6203.82 11766.2 L6242.89 11766.2 L6242.89 11813.2 L6203.82 11813.2 L6203.82 11766.2 Z" fill="#000000" fill-rule="evenodd" fill-opacity="1" /><path clip-path="url(#clip5500)" d="M 0 0 M6386.22 11569.3 L6291.78 11716.9 L6386.22 11716.9 L6386.22 11569.3 M6376.41 11536.7 L6423.45 11536.7 L6423.45 11716.9 L6462.89 11716.9 L6462.89 11748 L6423.45 11748 L6423.45 11813.2 L6386.22 11813.2 L6386.22 11748 L6261.41 11748 L6261.41 11711.9 L6376.41 11536.7 Z" fill="#000000" fill-rule="evenodd" fill-opacity="1" /><path clip-path="url(#clip5500)" d="M 0 0 M10113.5 11561.4 Q10084.7 11561.4 10070 11589.9 Q10055.6 11618.2 10055.6 11675.3 Q10055.6 11732.1 10070 11760.6 Q10084.7 11789 10113.5 11789 Q10142.6 11789 10157.1 11760.6 Q10171.7 11732.1 10171.7 11675.3 Q10171.7 11618.2 10157.1 11589.9 Q10142.6 11561.4 10113.5 11561.4 M10113.5 11531.7 Q10160 11531.7 10184.5 11568.6 Q10209.1 11605.3 10209.1 11675.3 Q10209.1 11745.1 10184.5 11781.9 Q10160 11818.6 10113.5 11818.6 Q10067.1 11818.6 10042.4 11781.9 Q10018 11745.1 10018 11675.3 Q10018 11605.3 10042.4 11568.6 Q10067.1 11531.7 10113.5 11531.7 Z" fill="#000000" fill-rule="evenodd" fill-opacity="1" /><path clip-path="url(#clip5500)" d="M 0 0 M10249.7 11766.2 L10288.7 11766.2 L10288.7 11813.2 L10249.7 11813.2 L10249.7 11766.2 Z" fill="#000000" fill-rule="evenodd" fill-opacity="1" /><path clip-path="url(#clip5500)" d="M 0 0 M10329.7 11536.7 L10476.5 11536.7 L10476.5 11568.2 L10363.9 11568.2 L10363.9 11636 Q10372.1 11633.2 10380.2 11631.9 Q10388.4 11630.4 10396.5 11630.4 Q10442.8 11630.4 10469.8 11655.8 Q10496.9 11681.2 10496.9 11724.5 Q10496.9 11769.1 10469.1 11794 Q10441.3 11818.6 10390.8 11818.6 Q10373.4 11818.6 10355.2 11815.6 Q10337.2 11812.7 10318 11806.7 L10318 11769.1 Q10334.7 11778.2 10352.4 11782.7 Q10370.2 11787.1 10390 11787.1 Q10422.1 11787.1 10440.8 11770.3 Q10459.5 11753.4 10459.5 11724.5 Q10459.5 11695.6 10440.8 11678.8 Q10422.1 11661.9 10390 11661.9 Q10375 11661.9 10360 11665.3 Q10345.2 11668.6 10329.7 11675.6 L10329.7 11536.7 Z" fill="#000000" fill-rule="evenodd" fill-opacity="1" /><path clip-path="url(#clip5500)" d="M 0 0 M14148.8 11561.4 Q14119.9 11561.4 14105.3 11589.9 Q14090.9 11618.2 14090.9 11675.3 Q14090.9 11732.1 14105.3 11760.6 Q14119.9 11789 14148.8 11789 Q14177.9 11789 14192.3 11760.6 Q14207 11732.1 14207 11675.3 Q14207 11618.2 14192.3 11589.9 Q14177.9 11561.4 14148.8 11561.4 M14148.8 11531.7 Q14195.3 11531.7 14219.8 11568.6 Q14244.4 11605.3 14244.4 11675.3 Q14244.4 11745.1 14219.8 11781.9 Q14195.3 11818.6 14148.8 11818.6 Q14102.3 11818.6 14077.7 11781.9 Q14053.3 11745.1 14053.3 11675.3 Q14053.3 11605.3 14077.7 11568.6 Q14102.3 11531.7 14148.8 11531.7 Z" fill="#000000" fill-rule="evenodd" fill-opacity="1" /><path clip-path="url(#clip5500)" d="M 0 0 M14284.9 11766.2 L14324 11766.2 L14324 11813.2 L14284.9 11813.2 L14284.9 11766.2 Z" fill="#000000" fill-rule="evenodd" fill-opacity="1" /><path clip-path="url(#clip5500)" d="M 0 0 M14449.2 11660.1 Q14424 11660.1 14409.2 11677.3 Q14394.6 11694.5 14394.6 11724.5 Q14394.6 11754.3 14409.2 11771.7 Q14424 11789 14449.2 11789 Q14474.4 11789 14489 11771.7 Q14503.8 11754.3 14503.8 11724.5 Q14503.8 11694.5 14489 11677.3 Q14474.4 11660.1 14449.2 11660.1 M14523.5 11542.8 L14523.5 11576.9 Q14509.4 11570.3 14494.9 11566.7 Q14480.7 11563.2 14466.6 11563.2 Q14429.6 11563.2 14409.9 11588.2 Q14390.5 11613.2 14387.7 11663.8 Q14398.6 11647.7 14415.1 11639.1 Q14431.6 11630.4 14451.4 11630.4 Q14493.1 11630.4 14517.2 11655.8 Q14541.4 11681 14541.4 11724.5 Q14541.4 11767.1 14516.2 11792.8 Q14491 11818.6 14449.2 11818.6 Q14401.2 11818.6 14375.9 11781.9 Q14350.5 11745.1 14350.5 11675.3 Q14350.5 11609.7 14381.6 11570.8 Q14412.7 11531.7 14465.1 11531.7 Q14479.2 11531.7 14493.5 11534.5 Q14507.9 11537.3 14523.5 11542.8 Z" fill="#000000" fill-rule="evenodd" fill-opacity="1" /><path clip-path="url(#clip5500)" d="M 0 0 M18193 11561.4 Q18164.1 11561.4 18149.5 11589.9 Q18135 11618.2 18135 11675.3 Q18135 11732.1 18149.5 11760.6 Q18164.1 11789 18193 11789 Q18222.1 11789 18236.5 11760.6 Q18251.1 11732.1 18251.1 11675.3 Q18251.1 11618.2 18236.5 11589.9 Q18222.1 11561.4 18193 11561.4 M18193 11531.7 Q18239.5 11531.7 18263.9 11568.6 Q18288.6 11605.3 18288.6 11675.3 Q18288.6 11745.1 18263.9 11781.9 Q18239.5 11818.6 18193 11818.6 Q18146.5 11818.6 18121.9 11781.9 Q18097.4 11745.1 18097.4 11675.3 Q18097.4 11605.3 18121.9 11568.6 Q18146.5 11531.7 18193 11531.7 Z" fill="#000000" fill-rule="evenodd" fill-opacity="1" /><path clip-path="url(#clip5500)" d="M 0 0 M18329.1 11766.2 L18368.2 11766.2 L18368.2 11813.2 L18329.1 11813.2 L18329.1 11766.2 Z" fill="#000000" fill-rule="evenodd" fill-opacity="1" /><path clip-path="url(#clip5500)" d="M 0 0 M18399.3 11536.7 L18577.1 11536.7 L18577.1 11552.7 L18476.7 11813.2 L18437.6 11813.2 L18532.1 11568.2 L18399.3 11568.2 L18399.3 11536.7 Z" fill="#000000" fill-rule="evenodd" fill-opacity="1" /><path clip-path="url(#clip5500)" d="M 0 0 M1119.34 10146.5 Q1090.45 10146.5 1075.82 10175 Q1061.38 10203.3 1061.38 10260.4 Q1061.38 10317.2 1075.82 10345.7 Q1090.45 10374.1 1119.34 10374.1 Q1148.41 10374.1 1162.86 10345.7 Q1177.49 10317.2 1177.49 10260.4 Q1177.49 10203.3 1162.86 10175 Q1148.41 10146.5 1119.34 10146.5 M1119.34 10116.8 Q1165.82 10116.8 1190.27 10153.7 Q1214.89 10190.4 1214.89 10260.4 Q1214.89 10330.2 1190.27 10367 Q1165.82 10403.7 1119.34 10403.7 Q1072.86 10403.7 1048.23 10367 Q1023.78 10330.2 1023.78 10260.4 Q1023.78 10190.4 1048.23 10153.7 Q1072.86 10116.8 1119.34 10116.8 Z" fill="#000000" fill-rule="evenodd" fill-opacity="1" /><path clip-path="url(#clip5500)" d="M 0 0 M1255.45 10351.3 L1294.52 10351.3 L1294.52 10398.3 L1255.45 10398.3 L1255.45 10351.3 Z" fill="#000000" fill-rule="evenodd" fill-opacity="1" /><path clip-path="url(#clip5500)" d="M 0 0 M1341.56 10366.8 L1402.67 10366.8 L1402.67 10155.9 L1336.19 10169.2 L1336.19 10135.2 L1402.3 10121.8 L1439.71 10121.8 L1439.71 10366.8 L1500.82 10366.8 L1500.82 10398.3 L1341.56 10398.3 L1341.56 10366.8 Z" fill="#000000" fill-rule="evenodd" fill-opacity="1" /><path clip-path="url(#clip5500)" d="M 0 0 M1122.3 8562.11 Q1093.41 8562.11 1078.78 8590.62 Q1064.34 8618.96 1064.34 8675.99 Q1064.34 8732.85 1078.78 8761.36 Q1093.41 8789.7 1122.3 8789.7 Q1151.38 8789.7 1165.82 8761.36 Q1180.45 8732.85 1180.45 8675.99 Q1180.45 8618.96 1165.82 8590.62 Q1151.38 8562.11 1122.3 8562.11 M1122.3 8532.48 Q1168.78 8532.48 1193.23 8569.33 Q1217.86 8605.99 1217.86 8675.99 Q1217.86 8745.81 1193.23 8782.66 Q1168.78 8819.33 1122.3 8819.33 Q1075.82 8819.33 1051.19 8782.66 Q1026.75 8745.81 1026.75 8675.99 Q1026.75 8605.99 1051.19 8569.33 Q1075.82 8532.48 1122.3 8532.48 Z" fill="#000000" fill-rule="evenodd" fill-opacity="1" /><path clip-path="url(#clip5500)" d="M 0 0 M1258.41 8766.92 L1297.49 8766.92 L1297.49 8813.96 L1258.41 8813.96 L1258.41 8766.92 Z" fill="#000000" fill-rule="evenodd" fill-opacity="1" /><path clip-path="url(#clip5500)" d="M 0 0 M1370.26 8782.47 L1500.82 8782.47 L1500.82 8813.96 L1325.26 8813.96 L1325.26 8782.47 Q1346.56 8760.44 1383.23 8723.4 Q1420.08 8686.18 1429.52 8675.44 Q1447.49 8655.25 1454.52 8641.36 Q1461.75 8627.29 1461.75 8613.77 Q1461.75 8591.73 1446.19 8577.85 Q1430.82 8563.96 1406.01 8563.96 Q1388.41 8563.96 1368.78 8570.07 Q1349.34 8576.18 1327.12 8588.59 L1327.12 8550.81 Q1349.71 8541.74 1369.34 8537.11 Q1388.97 8532.48 1405.26 8532.48 Q1448.23 8532.48 1473.78 8553.96 Q1499.34 8575.44 1499.34 8611.36 Q1499.34 8628.4 1492.86 8643.77 Q1486.56 8658.96 1469.71 8679.7 Q1465.08 8685.07 1440.26 8710.81 Q1415.45 8736.36 1370.26 8782.47 Z" fill="#000000" fill-rule="evenodd" fill-opacity="1" /><path clip-path="url(#clip5500)" d="M 0 0 M1114.71 6977.75 Q1085.82 6977.75 1071.19 7006.27 Q1056.75 7034.6 1056.75 7091.64 Q1056.75 7148.49 1071.19 7177.01 Q1085.82 7205.34 1114.71 7205.34 Q1143.78 7205.34 1158.23 7177.01 Q1172.86 7148.49 1172.86 7091.64 Q1172.86 7034.6 1158.23 7006.27 Q1143.78 6977.75 1114.71 6977.75 M1114.71 6948.12 Q1161.19 6948.12 1185.64 6984.97 Q1210.27 7021.64 1210.27 7091.64 Q1210.27 7161.45 1185.64 7198.3 Q1161.19 7234.97 1114.71 7234.97 Q1068.23 7234.97 1043.6 7198.3 Q1019.16 7161.45 1019.16 7091.64 Q1019.16 7021.64 1043.6 6984.97 Q1068.23 6948.12 1114.71 6948.12 Z" fill="#000000" fill-rule="evenodd" fill-opacity="1" /><path clip-path="url(#clip5500)" d="M 0 0 M1250.82 7182.56 L1289.89 7182.56 L1289.89 7229.6 L1250.82 7229.6 L1250.82 7182.56 Z" fill="#000000" fill-rule="evenodd" fill-opacity="1" /><path clip-path="url(#clip5500)" d="M 0 0 M1443.78 7080.53 Q1470.63 7086.27 1485.63 7104.41 Q1500.82 7122.56 1500.82 7149.23 Q1500.82 7190.15 1472.67 7212.56 Q1444.52 7234.97 1392.67 7234.97 Q1375.26 7234.97 1356.75 7231.45 Q1338.41 7228.12 1318.78 7221.27 L1318.78 7185.15 Q1334.34 7194.23 1352.86 7198.86 Q1371.38 7203.49 1391.56 7203.49 Q1426.75 7203.49 1445.08 7189.6 Q1463.6 7175.71 1463.6 7149.23 Q1463.6 7124.78 1446.38 7111.08 Q1429.34 7097.19 1398.78 7097.19 L1366.56 7097.19 L1366.56 7066.45 L1400.26 7066.45 Q1427.86 7066.45 1442.49 7055.53 Q1457.12 7044.41 1457.12 7023.67 Q1457.12 7002.38 1441.93 6991.08 Q1426.93 6979.6 1398.78 6979.6 Q1383.41 6979.6 1365.82 6982.93 Q1348.23 6986.27 1327.12 6993.3 L1327.12 6959.97 Q1348.41 6954.04 1366.93 6951.08 Q1385.63 6948.12 1402.12 6948.12 Q1444.71 6948.12 1469.52 6967.56 Q1494.34 6986.82 1494.34 7019.78 Q1494.34 7042.75 1481.19 7058.67 Q1468.04 7074.41 1443.78 7080.53 Z" fill="#000000" fill-rule="evenodd" fill-opacity="1" /><path clip-path="url(#clip5500)" d="M 0 0 M1105.64 5393.39 Q1076.75 5393.39 1062.12 5421.91 Q1047.67 5450.24 1047.67 5507.28 Q1047.67 5564.13 1062.12 5592.65 Q1076.75 5620.98 1105.64 5620.98 Q1134.71 5620.98 1149.15 5592.65 Q1163.78 5564.13 1163.78 5507.28 Q1163.78 5450.24 1149.15 5421.91 Q1134.71 5393.39 1105.64 5393.39 M1105.64 5363.76 Q1152.12 5363.76 1176.56 5400.61 Q1201.19 5437.28 1201.19 5507.28 Q1201.19 5577.09 1176.56 5613.94 Q1152.12 5650.61 1105.64 5650.61 Q1059.16 5650.61 1034.53 5613.94 Q1010.08 5577.09 1010.08 5507.28 Q1010.08 5437.28 1034.53 5400.61 Q1059.16 5363.76 1105.64 5363.76 Z" fill="#000000" fill-rule="evenodd" fill-opacity="1" /><path clip-path="url(#clip5500)" d="M 0 0 M1241.75 5598.2 L1280.82 5598.2 L1280.82 5645.24 L1241.75 5645.24 L1241.75 5598.2 Z" fill="#000000" fill-rule="evenodd" fill-opacity="1" /><path clip-path="url(#clip5500)" d="M 0 0 M1424.15 5401.35 L1329.71 5548.95 L1424.15 5548.95 L1424.15 5401.35 M1414.34 5368.76 L1461.38 5368.76 L1461.38 5548.95 L1500.82 5548.95 L1500.82 5580.06 L1461.38 5580.06 L1461.38 5645.24 L1424.15 5645.24 L1424.15 5580.06 L1299.34 5580.06 L1299.34 5543.95 L1414.34 5368.76 Z" fill="#000000" fill-rule="evenodd" fill-opacity="1" /><path clip-path="url(#clip5500)" d="M 0 0 M1117.49 3809.03 Q1088.6 3809.03 1073.97 3837.55 Q1059.53 3865.88 1059.53 3922.92 Q1059.53 3979.77 1073.97 4008.29 Q1088.6 4036.62 1117.49 4036.62 Q1146.56 4036.62 1161.01 4008.29 Q1175.64 3979.77 1175.64 3922.92 Q1175.64 3865.88 1161.01 3837.55 Q1146.56 3809.03 1117.49 3809.03 M1117.49 3779.4 Q1163.97 3779.4 1188.41 3816.26 Q1213.04 3852.92 1213.04 3922.92 Q1213.04 3992.74 1188.41 4029.59 Q1163.97 4066.25 1117.49 4066.25 Q1071.01 4066.25 1046.38 4029.59 Q1021.93 3992.74 1021.93 3922.92 Q1021.93 3852.92 1046.38 3816.26 Q1071.01 3779.4 1117.49 3779.4 Z" fill="#000000" fill-rule="evenodd" fill-opacity="1" /><path clip-path="url(#clip5500)" d="M 0 0 M1253.6 4013.85 L1292.67 4013.85 L1292.67 4060.88 L1253.6 4060.88 L1253.6 4013.85 Z" fill="#000000" fill-rule="evenodd" fill-opacity="1" /><path clip-path="url(#clip5500)" d="M 0 0 M1333.6 3784.4 L1480.45 3784.4 L1480.45 3815.88 L1367.86 3815.88 L1367.86 3883.66 Q1376.01 3880.88 1384.15 3879.59 Q1392.3 3878.11 1400.45 3878.11 Q1446.75 3878.11 1473.78 3903.48 Q1500.82 3928.85 1500.82 3972.18 Q1500.82 4016.81 1473.04 4041.62 Q1445.26 4066.25 1394.71 4066.25 Q1377.3 4066.25 1359.15 4063.29 Q1341.19 4060.33 1321.93 4054.4 L1321.93 4016.81 Q1338.6 4025.88 1356.38 4030.33 Q1374.15 4034.77 1393.97 4034.77 Q1426 4034.77 1444.71 4017.92 Q1463.41 4001.07 1463.41 3972.18 Q1463.41 3943.29 1444.71 3926.44 Q1426 3909.59 1393.97 3909.59 Q1378.97 3909.59 1363.97 3912.92 Q1349.15 3916.25 1333.6 3923.29 L1333.6 3784.4 Z" fill="#000000" fill-rule="evenodd" fill-opacity="1" /><path clip-path="url(#clip5500)" d="M 0 0 M1108.23 2224.68 Q1079.34 2224.68 1064.71 2253.19 Q1050.27 2281.53 1050.27 2338.56 Q1050.27 2395.42 1064.71 2423.93 Q1079.34 2452.27 1108.23 2452.27 Q1137.3 2452.27 1151.75 2423.93 Q1166.38 2395.42 1166.38 2338.56 Q1166.38 2281.53 1151.75 2253.19 Q1137.3 2224.68 1108.23 2224.68 M1108.23 2195.05 Q1154.71 2195.05 1179.15 2231.9 Q1203.78 2268.56 1203.78 2338.56 Q1203.78 2408.38 1179.15 2445.23 Q1154.71 2481.9 1108.23 2481.9 Q1061.75 2481.9 1037.12 2445.23 Q1012.67 2408.38 1012.67 2338.56 Q1012.67 2268.56 1037.12 2231.9 Q1061.75 2195.05 1108.23 2195.05 Z" fill="#000000" fill-rule="evenodd" fill-opacity="1" /><path clip-path="url(#clip5500)" d="M 0 0 M1244.34 2429.49 L1283.41 2429.49 L1283.41 2476.53 L1244.34 2476.53 L1244.34 2429.49 Z" fill="#000000" fill-rule="evenodd" fill-opacity="1" /><path clip-path="url(#clip5500)" d="M 0 0 M1408.6 2323.38 Q1383.41 2323.38 1368.6 2340.6 Q1353.97 2357.82 1353.97 2387.82 Q1353.97 2417.64 1368.6 2435.04 Q1383.41 2452.27 1408.6 2452.27 Q1433.78 2452.27 1448.41 2435.04 Q1463.23 2417.64 1463.23 2387.82 Q1463.23 2357.82 1448.41 2340.6 Q1433.78 2323.38 1408.6 2323.38 M1482.86 2206.16 L1482.86 2240.23 Q1468.78 2233.56 1454.34 2230.05 Q1440.08 2226.53 1426 2226.53 Q1388.97 2226.53 1369.34 2251.53 Q1349.89 2276.53 1347.12 2327.08 Q1358.04 2310.97 1374.52 2302.45 Q1391.01 2293.75 1410.82 2293.75 Q1452.49 2293.75 1476.56 2319.12 Q1500.82 2344.3 1500.82 2387.82 Q1500.82 2430.42 1475.63 2456.16 Q1450.45 2481.9 1408.6 2481.9 Q1360.63 2481.9 1335.26 2445.23 Q1309.89 2408.38 1309.89 2338.56 Q1309.89 2273.01 1341.01 2234.12 Q1372.12 2195.05 1424.52 2195.05 Q1438.6 2195.05 1452.86 2197.82 Q1467.3 2200.6 1482.86 2206.16 Z" fill="#000000" fill-rule="evenodd" fill-opacity="1" /><path clip-path="url(#clip5500)" d="M 0 0 M6589.74 349.544 L6589.74 526.812 L6694.74 526.812 Q6747.57 526.812 6772.85 505.099 Q6798.45 483.062 6798.45 438.016 Q6798.45 392.646 6772.85 371.257 Q6747.57 349.544 6694.74 349.544 L6589.74 349.544 M6589.74 150.564 L6589.74 296.397 L6686.64 296.397 Q6734.6 296.397 6757.94 278.573 Q6781.6 260.425 6781.6 223.48 Q6781.6 186.86 6757.94 168.712 Q6734.6 150.564 6686.64 150.564 L6589.74 150.564 M6524.28 96.768 L6691.5 96.768 Q6766.36 96.768 6806.87 127.879 Q6847.38 158.99 6847.38 216.351 Q6847.38 260.749 6826.64 286.998 Q6805.9 313.248 6765.72 319.73 Q6814 330.1 6840.58 363.155 Q6867.47 395.887 6867.47 445.146 Q6867.47 509.96 6823.4 545.284 Q6779.33 580.608 6697.98 580.608 L6524.28 580.608 L6524.28 96.768 Z" fill="#000000" fill-rule="evenodd" fill-opacity="1" /><path clip-path="url(#clip5500)" d="M 0 0 M7156.22 498.294 L7224.6 498.294 L7224.6 580.608 L7156.22 580.608 L7156.22 498.294 M7156.22 237.415 L7224.6 237.415 L7224.6 319.73 L7156.22 319.73 L7156.22 237.415 Z" fill="#000000" fill-rule="evenodd" fill-opacity="1" /><path clip-path="url(#clip5500)" d="M 0 0 M7654.65 312.6 Q7610.57 312.6 7584.65 342.739 Q7559.04 372.878 7559.04 425.377 Q7559.04 477.553 7584.65 508.016 Q7610.57 538.155 7654.65 538.155 Q7698.72 538.155 7724.32 508.016 Q7750.25 477.553 7750.25 425.377 Q7750.25 372.878 7724.32 342.739 Q7698.72 312.6 7654.65 312.6 M7784.6 107.462 L7784.6 167.092 Q7759.97 155.425 7734.69 149.268 Q7709.74 143.11 7685.11 143.11 Q7620.29 143.11 7585.94 186.86 Q7551.92 230.61 7547.05 319.082 Q7566.17 290.887 7595.02 275.98 Q7623.86 260.749 7658.54 260.749 Q7731.45 260.749 7773.58 305.147 Q7816.03 349.22 7816.03 425.377 Q7816.03 499.914 7771.96 544.96 Q7727.89 590.006 7654.65 590.006 Q7570.71 590.006 7526.31 525.84 Q7481.92 461.349 7481.92 339.174 Q7481.92 224.453 7536.36 156.397 Q7590.8 88.018 7682.52 88.018 Q7707.15 88.018 7732.1 92.8791 Q7757.38 97.7402 7784.6 107.462 Z" fill="#000000" fill-rule="evenodd" fill-opacity="1" /><path clip-path="url(#clip5500)" d="M 0 0 M8128.12 176.49 L8011.77 239.36 L8128.12 302.554 L8109.32 334.313 L8000.43 268.526 L8000.43 390.702 L7963.49 390.702 L7963.49 268.526 L7854.6 334.313 L7835.8 302.554 L7952.14 239.36 L7835.8 176.49 L7854.6 144.407 L7963.49 210.193 L7963.49 88.018 L8000.43 88.018 L8000.43 210.193 L8109.32 144.407 L8128.12 176.49 Z" fill="#000000" fill-rule="evenodd" fill-opacity="1" /><path clip-path="url(#clip5500)" d="M 0 0 M8347.19 312.6 Q8303.12 312.6 8277.19 342.739 Q8251.59 372.878 8251.59 425.377 Q8251.59 477.553 8277.19 508.016 Q8303.12 538.155 8347.19 538.155 Q8391.26 538.155 8416.86 508.016 Q8442.79 477.553 8442.79 425.377 Q8442.79 372.878 8416.86 342.739 Q8391.26 312.6 8347.19 312.6 M8477.14 107.462 L8477.14 167.092 Q8452.51 155.425 8427.23 149.268 Q8402.28 143.11 8377.65 143.11 Q8312.84 143.11 8278.49 186.86 Q8244.46 230.61 8239.6 319.082 Q8258.72 290.887 8287.56 275.98 Q8316.4 260.749 8351.08 260.749 Q8423.99 260.749 8466.12 305.147 Q8508.58 349.22 8508.58 425.377 Q8508.58 499.914 8464.5 544.96 Q8420.43 590.006 8347.19 590.006 Q8263.25 590.006 8218.86 525.84 Q8174.46 461.349 8174.46 339.174 Q8174.46 224.453 8228.9 156.397 Q8283.35 88.018 8375.06 88.018 Q8399.69 88.018 8424.64 92.8791 Q8449.92 97.7402 8477.14 107.462 Z" fill="#000000" fill-rule="evenodd" fill-opacity="1" /><path clip-path="url(#clip5500)" d="M 0 0 M8586.35 498.294 L8654.73 498.294 L8654.73 554.034 L8601.59 657.737 L8559.78 657.737 L8586.35 554.034 L8586.35 498.294 Z" fill="#000000" fill-rule="evenodd" fill-opacity="1" /><path clip-path="url(#clip5500)" d="M 0 0 M9127.23 141.166 Q9055.94 141.166 9013.81 194.314 Q8972 247.462 8972 339.174 Q8972 430.563 9013.81 483.71 Q9055.94 536.858 9127.23 536.858 Q9198.53 536.858 9240.01 483.71 Q9281.81 430.563 9281.81 339.174 Q9281.81 247.462 9240.01 194.314 Q9198.53 141.166 9127.23 141.166 M9218.94 571.858 L9305.15 666.163 L9226.07 666.163 L9154.45 588.71 Q9143.76 589.358 9137.93 589.682 Q9132.42 590.006 9127.23 590.006 Q9025.15 590.006 8963.9 521.951 Q8902.97 453.572 8902.97 339.174 Q8902.97 224.453 8963.9 156.397 Q9025.15 88.018 9127.23 88.018 Q9228.99 88.018 9289.92 156.397 Q9350.84 224.453 9350.84 339.174 Q9350.84 423.433 9316.81 483.386 Q9283.11 543.34 9218.94 571.858 Z" fill="#000000" fill-rule="evenodd" fill-opacity="1" /><path clip-path="url(#clip5500)" d="M 0 0 M9632.14 279.221 L10047.6 279.221 L10047.6 333.665 L9632.14 333.665 L9632.14 279.221 M9632.14 411.442 L10047.6 411.442 L10047.6 466.535 L9632.14 466.535 L9632.14 411.442 Z" fill="#000000" fill-rule="evenodd" fill-opacity="1" /><path clip-path="url(#clip5500)" d="M 0 0 M10340.9 525.516 L10447.8 525.516 L10447.8 156.397 L10331.5 179.731 L10331.5 120.101 L10447.2 96.768 L10512.6 96.768 L10512.6 525.516 L10619.6 525.516 L10619.6 580.608 L10340.9 580.608 L10340.9 525.516 Z" fill="#000000" fill-rule="evenodd" fill-opacity="1" /><path clip-path="url(#clip5500)" d="M 0 0 M10838.7 312.6 Q10794.6 312.6 10768.7 342.739 Q10743.1 372.878 10743.1 425.377 Q10743.1 477.553 10768.7 508.016 Q10794.6 538.155 10838.7 538.155 Q10882.7 538.155 10908.3 508.016 Q10934.3 477.553 10934.3 425.377 Q10934.3 372.878 10908.3 342.739 Q10882.7 312.6 10838.7 312.6 M10968.6 107.462 L10968.6 167.092 Q10944 155.425 10918.7 149.268 Q10893.7 143.11 10869.1 143.11 Q10804.3 143.11 10770 186.86 Q10735.9 230.61 10731.1 319.082 Q10750.2 290.887 10779 275.98 Q10807.9 260.749 10842.5 260.749 Q10915.5 260.749 10957.6 305.147 Q11000 349.22 11000 425.377 Q11000 499.914 10956 544.96 Q10911.9 590.006 10838.7 590.006 Q10754.7 590.006 10710.3 525.84 Q10665.9 461.349 10665.9 339.174 Q10665.9 224.453 10720.4 156.397 Q10774.8 88.018 10866.5 88.018 Q10891.2 88.018 10916.1 92.8791 Q10941.4 97.7402 10968.6 107.462 Z" fill="#000000" fill-rule="evenodd" fill-opacity="1" /><path clip-path="url(#clip5500)" d="M 0 0 M11077.8 498.294 L11146.2 498.294 L11146.2 554.034 L11093.1 657.737 L11051.2 657.737 L11077.8 554.034 L11077.8 498.294 Z" fill="#000000" fill-rule="evenodd" fill-opacity="1" /><path clip-path="url(#clip5500)" d="M 0 0 M11422.3 96.768 L11487.8 96.768 L11487.8 546.904 Q11487.8 634.404 11454.4 673.941 Q11421.3 713.478 11347.8 713.478 L11322.8 713.478 L11322.8 658.385 L11343.2 658.385 Q11386.7 658.385 11404.5 634.08 Q11422.3 609.775 11422.3 546.904 L11422.3 96.768 Z" fill="#000000" fill-rule="evenodd" fill-opacity="1" /><path clip-path="url(#clip5500)" d="M 0 0 M11826.1 690.793 L11826.1 737.135 L11481.3 737.135 L11481.3 690.793 L11826.1 690.793 Z" fill="#000000" fill-rule="evenodd" fill-opacity="1" /><path clip-path="url(#clip5500)" d="M 0 0 M12037.1 139.87 Q11986.5 139.87 11960.9 189.777 Q11935.6 239.36 11935.6 339.174 Q11935.6 438.664 11960.9 488.571 Q11986.5 538.155 12037.1 538.155 Q12088 538.155 12113.2 488.571 Q12138.8 438.664 12138.8 339.174 Q12138.8 239.36 12113.2 189.777 Q12088 139.87 12037.1 139.87 M12037.1 88.018 Q12118.4 88.018 12161.2 152.508 Q12204.3 216.675 12204.3 339.174 Q12204.3 461.349 12161.2 525.84 Q12118.4 590.006 12037.1 590.006 Q11955.7 590.006 11912.6 525.84 Q11869.9 461.349 11869.9 339.174 Q11869.9 216.675 11912.6 152.508 Q11955.7 88.018 12037.1 88.018 Z" fill="#000000" fill-rule="evenodd" fill-opacity="1" /><path clip-path="url(#clip5500)" d="M 0 0 M12485.6 279.221 L12901.1 279.221 L12901.1 333.665 L12485.6 333.665 L12485.6 279.221 M12485.6 411.442 L12901.1 411.442 L12901.1 466.535 L12485.6 466.535 L12485.6 411.442 Z" fill="#000000" fill-rule="evenodd" fill-opacity="1" /><path clip-path="url(#clip5500)" d="M 0 0 M13194.3 525.516 L13301.3 525.516 L13301.3 156.397 L13184.9 179.731 L13184.9 120.101 L13300.6 96.768 L13366.1 96.768 L13366.1 525.516 L13473 525.516 L13473 580.608 L13194.3 580.608 L13194.3 525.516 Z" fill="#000000" fill-rule="evenodd" fill-opacity="1" /><path clip-path="url(#clip5500)" d="M 0 0 M13544 498.294 L13612.4 498.294 L13612.4 580.608 L13544 580.608 L13544 498.294 Z" fill="#000000" fill-rule="evenodd" fill-opacity="1" /><path clip-path="url(#clip5500)" d="M 0 0 M13823.4 139.87 Q13772.8 139.87 13747.2 189.777 Q13721.9 239.36 13721.9 339.174 Q13721.9 438.664 13747.2 488.571 Q13772.8 538.155 13823.4 538.155 Q13874.2 538.155 13899.5 488.571 Q13925.1 438.664 13925.1 339.174 Q13925.1 239.36 13899.5 189.777 Q13874.2 139.87 13823.4 139.87 M13823.4 88.018 Q13904.7 88.018 13947.5 152.508 Q13990.6 216.675 13990.6 339.174 Q13990.6 461.349 13947.5 525.84 Q13904.7 590.006 13823.4 590.006 Q13742 590.006 13698.9 525.84 Q13656.1 461.349 13656.1 339.174 Q13656.1 216.675 13698.9 152.508 Q13742 88.018 13823.4 88.018 Z" fill="#000000" fill-rule="evenodd" fill-opacity="1" /><path clip-path="url(#clip5500)" d="M 0 0 M10096.6 12068.2 L10418.2 12068.2 L10418.2 12111.5 L10283.3 12111.5 L10283.3 12448.4 L10231.6 12448.4 L10231.6 12111.5 L10096.6 12111.5 L10096.6 12068.2 Z" fill="#000000" fill-rule="evenodd" fill-opacity="1" /><path clip-path="url(#clip5500)" d="M 0 0 M522.483 6270 L661.765 6270 L661.765 6187.5 Q661.765 6145.99 644.705 6126.13 Q627.39 6106.02 591.997 6106.02 Q556.349 6106.02 539.543 6126.13 Q522.483 6145.99 522.483 6187.5 L522.483 6270 M366.142 6270 L480.724 6270 L480.724 6193.86 Q480.724 6156.18 466.72 6137.85 Q452.461 6119.26 423.433 6119.26 Q394.66 6119.26 380.401 6137.85 Q366.142 6156.18 366.142 6193.86 L366.142 6270 M323.873 6321.43 L323.873 6190.05 Q323.873 6131.23 348.318 6099.4 Q372.762 6067.57 417.831 6067.57 Q452.715 6067.57 473.34 6083.87 Q493.965 6100.16 499.058 6131.74 Q507.206 6093.8 533.178 6072.92 Q558.895 6051.78 597.599 6051.78 Q648.524 6051.78 676.279 6086.41 Q704.033 6121.04 704.033 6184.95 L704.033 6321.43 L323.873 6321.43 Z" fill="#000000" fill-rule="evenodd" fill-opacity="1" /><polyline clip-path="url(#clip5502)" style="stroke:#009af9; stroke-width:32; stroke-opacity:1; fill:none" points="
  2177.61,1282.05 2340.84,1282.05 2504.07,1282.05 2667.3,1282.05 2830.52,1282.05 2993.75,1282.05 3156.98,1282.06 3320.21,1282.06 3483.44,1282.06 3646.67,1282.06 
  3809.9,1282.06 3973.13,1282.07 4136.35,1282.07 4299.58,1282.07 4462.81,1282.08 4626.04,1282.09 4789.27,1282.09 4952.5,1282.1 5115.73,1282.1 5278.96,1282.11 
  5442.18,1282.11 5605.41,1282.12 5768.64,1282.14 5931.87,1282.15 6095.1,1282.15 6258.33,1282.18 6421.56,1282.18 6584.79,1282.21 6748.01,1282.23 6911.24,1282.24 
  7074.47,1282.32 7237.7,1282.28 7400.93,1282.31 7564.16,1282.36 7727.39,1282.4 7890.62,1282.39 8053.84,1282.47 8217.07,1282.47 8380.3,1282.5 8543.53,1282.61 
  8706.76,1282.7 8869.99,1282.7 9033.22,1282.72 9196.45,1282.81 9359.68,1283.05 9522.9,1282.97 9686.13,1283.13 9849.36,1283.15 10012.6,1283.28 10175.8,1283.41 
  10339,1283.63 10502.3,1283.73 10665.5,1284.12 10828.7,1284.11 10992,1284.5 11155.2,1284.68 11318.4,1285.11 11481.6,1285.2 11644.9,1285.65 11808.1,1286.18 
  11971.3,1286.23 12134.6,1286.98 12297.8,1287.62 12461,1288.13 12624.3,1289.31 12787.5,1289.92 12950.7,1290.54 13113.9,1292.42 13277.2,1294.09 13440.4,1300.35 
  13603.6,1305.73 13766.9,1307.18 13930.1,1317.61 14093.3,1324.99 14256.5,1339.7 14419.8,1355.4 14583,1383 14746.2,1401.36 14909.5,1476.11 15072.7,1550.62 
  15235.9,1645.16 15399.1,1817.38 15562.4,2023.75 15725.6,2364.98 15888.8,3092.48 16052.1,3960.05 16215.3,4335.65 16378.5,5266.48 16541.7,6670.41 16705,7589.88 
  16868.2,8941.85 17031.4,9980.84 17194.7,10773.5 17357.9,11091.2 17521.1,9982.27 17684.3,10212.5 17847.6,10179.8 18010.8,8003.61 18174,7427.26 18337.3,7369.97 
  
  "/>
<polyline clip-path="url(#clip5502)" style="stroke:#e26f46; stroke-width:32; stroke-opacity:1; fill:none" points="
  2177.61,1282.05 2340.84,1282.05 2504.07,1282.05 2667.3,1282.05 2830.52,1282.05 2993.75,1282.05 3156.98,1282.06 3320.21,1282.05 3483.44,1282.06 3646.67,1282.06 
  3809.9,1282.06 3973.13,1282.06 4136.35,1282.07 4299.58,1282.07 4462.81,1282.07 4626.04,1282.09 4789.27,1282.08 4952.5,1282.08 5115.73,1282.09 5278.96,1282.09 
  5442.18,1282.11 5605.41,1282.12 5768.64,1282.13 5931.87,1282.13 6095.1,1282.14 6258.33,1282.15 6421.56,1282.16 6584.79,1282.17 6748.01,1282.19 6911.24,1282.21 
  7074.47,1282.24 7237.7,1282.25 7400.93,1282.29 7564.16,1282.32 7727.39,1282.31 7890.62,1282.37 8053.84,1282.39 8217.07,1282.43 8380.3,1282.44 8543.53,1282.48 
  8706.76,1282.59 8869.99,1282.69 9033.22,1282.7 9196.45,1282.74 9359.68,1282.93 9522.9,1282.89 9686.13,1283.02 9849.36,1283.07 10012.6,1283.25 10175.8,1283.48 
  10339,1283.58 10502.3,1283.72 10665.5,1284.08 10828.7,1284.25 10992,1285.04 11155.2,1284.79 11318.4,1285.21 11481.6,1285.5 11644.9,1286.17 11808.1,1288.04 
  11971.3,1288.01 12134.6,1288.69 12297.8,1290.21 12461,1291.77 12624.3,1292.93 12787.5,1297.47 12950.7,1301.42 13113.9,1316.93 13277.2,1330.41 13440.4,1335.78 
  13603.6,1360.09 13766.9,1394.79 13930.1,1451.09 14093.3,1507.47 14256.5,1576.39 14419.8,1792.92 14583,1930.1 14746.2,2155.84 14909.5,2481.63 15072.7,2850.67 
  15235.9,3320.04 15399.1,4087.29 15562.4,5071.93 15725.6,5569.95 15888.8,6329.97 16052.1,6748.27 16215.3,7362.5 16378.5,7611.4 16541.7,6852.87 16705,7074.88 
  16868.2,6480.99 17031.4,6754.28 17194.7,5716.41 17357.9,4688.31 17521.1,4453.02 17684.3,3814.87 17847.6,3918.62 18010.8,3393.08 18174,3318.76 18337.3,2628.99 
  
  "/>
<polyline clip-path="url(#clip5502)" style="stroke:#3da44d; stroke-width:32; stroke-opacity:1; fill:none" points="
  2177.61,1282.05 2340.84,1282.05 2504.07,1282.05 2667.3,1282.05 2830.52,1282.05 2993.75,1282.06 3156.98,1282.06 3320.21,1282.06 3483.44,1282.06 3646.67,1282.06 
  3809.9,1282.07 3973.13,1282.07 4136.35,1282.07 4299.58,1282.07 4462.81,1282.08 4626.04,1282.08 4789.27,1282.08 4952.5,1282.09 5115.73,1282.1 5278.96,1282.11 
  5442.18,1282.12 5605.41,1282.13 5768.64,1282.14 5931.87,1282.15 6095.1,1282.16 6258.33,1282.18 6421.56,1282.19 6584.79,1282.22 6748.01,1282.23 6911.24,1282.27 
  7074.47,1282.3 7237.7,1282.34 7400.93,1282.35 7564.16,1282.41 7727.39,1282.51 7890.62,1282.51 8053.84,1282.57 8217.07,1282.69 8380.3,1282.68 8543.53,1282.82 
  8706.76,1282.91 8869.99,1283.16 9033.22,1283.1 9196.45,1283.37 9359.68,1283.55 9522.9,1283.72 9686.13,1283.84 9849.36,1284.14 10012.6,1284.63 10175.8,1285.04 
  10339,1285.7 10502.3,1286.12 10665.5,1287.04 10828.7,1287.91 10992,1288.12 11155.2,1290.51 11318.4,1292.56 11481.6,1295.76 11644.9,1299.78 11808.1,1302.58 
  11971.3,1301.72 12134.6,1312.77 12297.8,1321.06 12461,1324.07 12624.3,1337.8 12787.5,1349.88 12950.7,1362.85 13113.9,1405.6 13277.2,1434.63 13440.4,1481.82 
  13603.6,1537.19 13766.9,1599.74 13930.1,1682.98 14093.3,1789.5 14256.5,1878.24 14419.8,1973.15 14583,2156.12 14746.2,2317.36 14909.5,2459.49 15072.7,2668.97 
  15235.9,2898.52 15399.1,3041.83 15562.4,3174.94 15725.6,3277.11 15888.8,3461.15 16052.1,3578.99 16215.3,3665.65 16378.5,3775.17 16541.7,3762.32 16705,3712.84 
  16868.2,3694.47 17031.4,3717.1 17194.7,3509.54 17357.9,3485.68 17521.1,3308.12 17684.3,3346.65 17847.6,3243.32 18010.8,3093.7 18174,3010.82 18337.3,3038.05 
  
  "/>
<polyline clip-path="url(#clip5502)" style="stroke:#c271d2; stroke-width:32; stroke-opacity:1; fill:none" points="
  2177.61,1282.5 2340.84,1282.49 2504.07,1282.5 2667.3,1282.52 2830.52,1282.52 2993.75,1282.51 3156.98,1282.52 3320.21,1282.54 3483.44,1282.53 3646.67,1282.51 
  3809.9,1282.52 3973.13,1282.53 4136.35,1282.52 4299.58,1282.53 4462.81,1282.54 4626.04,1282.53 4789.27,1282.53 4952.5,1282.52 5115.73,1282.54 5278.96,1282.54 
  5442.18,1282.53 5605.41,1282.55 5768.64,1282.56 5931.87,1282.58 6095.1,1282.56 6258.33,1282.59 6421.56,1282.63 6584.79,1282.6 6748.01,1282.65 6911.24,1282.71 
  7074.47,1282.7 7237.7,1282.71 7400.93,1282.77 7564.16,1282.76 7727.39,1282.82 7890.62,1282.89 8053.84,1282.97 8217.07,1282.97 8380.3,1283.02 8543.53,1283.15 
  8706.76,1283.17 8869.99,1283.31 9033.22,1283.32 9196.45,1283.45 9359.68,1283.57 9522.9,1283.66 9686.13,1283.93 9849.36,1284.02 10012.6,1284.25 10175.8,1284.94 
  10339,1284.61 10502.3,1285.01 10665.5,1285.42 10828.7,1285.61 10992,1285.89 11155.2,1286.46 11318.4,1287.33 11481.6,1287.78 11644.9,1288.09 11808.1,1288.47 
  11971.3,1289.8 12134.6,1291.24 12297.8,1293.46 12461,1294.17 12624.3,1294.71 12787.5,1296.11 12950.7,1300.19 13113.9,1303.14 13277.2,1306.09 13440.4,1308.13 
  13603.6,1315.82 13766.9,1322.8 13930.1,1327.87 14093.3,1333.42 14256.5,1346.13 14419.8,1357.33 14583,1358.91 14746.2,1379.99 14909.5,1405.24 15072.7,1422.84 
  15235.9,1434.17 15399.1,1471.19 15562.4,1496.96 15725.6,1527.32 15888.8,1599.45 16052.1,1621.58 16215.3,1673.22 16378.5,1713.26 16541.7,1792.95 16705,1818.57 
  16868.2,1920.25 17031.4,1963.17 17194.7,2051.17 17357.9,2107.88 17521.1,2220.57 17684.3,2234.63 17847.6,2362.53 18010.8,2418.6 18174,2467.47 18337.3,2521.52 
  
  "/>
<polyline clip-path="url(#clip5502)" style="stroke:#ac8d18; stroke-width:32; stroke-opacity:1; fill:none" points="
  2177.61,1282.4 2340.84,1282.39 2504.07,1282.39 2667.3,1282.42 2830.52,1282.4 2993.75,1282.4 3156.98,1282.41 3320.21,1282.4 3483.44,1282.4 3646.67,1282.42 
  3809.9,1282.43 3973.13,1282.41 4136.35,1282.43 4299.58,1282.42 4462.81,1282.42 4626.04,1282.44 4789.27,1282.44 4952.5,1282.44 5115.73,1282.44 5278.96,1282.46 
  5442.18,1282.46 5605.41,1282.48 5768.64,1282.49 5931.87,1282.49 6095.1,1282.5 6258.33,1282.52 6421.56,1282.52 6584.79,1282.49 6748.01,1282.53 6911.24,1282.56 
  7074.47,1282.57 7237.7,1282.59 7400.93,1282.6 7564.16,1282.62 7727.39,1282.62 7890.62,1282.66 8053.84,1282.64 8217.07,1282.69 8380.3,1282.74 8543.53,1282.72 
  8706.76,1282.8 8869.99,1282.78 9033.22,1282.82 9196.45,1282.85 9359.68,1282.9 9522.9,1282.94 9686.13,1282.97 9849.36,1283.05 10012.6,1283.1 10175.8,1283.16 
  10339,1283.19 10502.3,1283.23 10665.5,1283.26 10828.7,1283.41 10992,1283.45 11155.2,1283.47 11318.4,1283.75 11481.6,1283.82 11644.9,1283.82 11808.1,1283.95 
  11971.3,1284.04 12134.6,1284.2 12297.8,1284.39 12461,1284.63 12624.3,1284.7 12787.5,1285.07 12950.7,1285.02 13113.9,1285.56 13277.2,1285.8 13440.4,1286.15 
  13603.6,1286.59 13766.9,1287.35 13930.1,1287.09 14093.3,1287.63 14256.5,1287.89 14419.8,1289.12 14583,1290.4 14746.2,1289.98 14909.5,1291.31 15072.7,1292.16 
  15235.9,1293.16 15399.1,1295.78 15562.4,1297.74 15725.6,1298.97 15888.8,1299.21 16052.1,1302.36 16215.3,1304.05 16378.5,1306.37 16541.7,1309.26 16705,1314.49 
  16868.2,1321.72 17031.4,1321.62 17194.7,1329.54 17357.9,1341.53 17521.1,1347.9 17684.3,1355.32 17847.6,1372.88 18010.8,1372.51 18174,1391.79 18337.3,1398.55 
  
  "/>
<polyline clip-path="url(#clip5502)" style="stroke:#00a9ad; stroke-width:32; stroke-opacity:1; fill:none" points="
  2177.61,1282.05 2340.84,1282.05 2504.07,1282.05 2667.3,1282.05 2830.52,1282.05 2993.75,1282.05 3156.98,1282.06 3320.21,1282.06 3483.44,1282.06 3646.67,1282.06 
  3809.9,1282.06 3973.13,1282.06 4136.35,1282.07 4299.58,1282.07 4462.81,1282.08 4626.04,1282.07 4789.27,1282.08 4952.5,1282.09 5115.73,1282.09 5278.96,1282.1 
  5442.18,1282.1 5605.41,1282.1 5768.64,1282.11 5931.87,1282.13 6095.1,1282.14 6258.33,1282.14 6421.56,1282.14 6584.79,1282.17 6748.01,1282.19 6911.24,1282.21 
  7074.47,1282.23 7237.7,1282.24 7400.93,1282.27 7564.16,1282.3 7727.39,1282.35 7890.62,1282.34 8053.84,1282.38 8217.07,1282.42 8380.3,1282.49 8543.53,1282.52 
  8706.76,1282.61 8869.99,1282.61 9033.22,1282.75 9196.45,1282.8 9359.68,1282.89 9522.9,1283.04 9686.13,1283.15 9849.36,1283.54 10012.6,1283.54 10175.8,1283.68 
  10339,1284.49 10502.3,1284.28 10665.5,1284.58 10828.7,1285.74 10992,1285.39 11155.2,1286.26 11318.4,1287.17 11481.6,1289.82 11644.9,1289.02 11808.1,1291.79 
  11971.3,1293.75 12134.6,1297.08 12297.8,1300.52 12461,1312.22 12624.3,1320.75 12787.5,1336.55 12950.7,1355.93 13113.9,1377.2 13277.2,1416.69 13440.4,1453.46 
  13603.6,1527.95 13766.9,1622.9 13930.1,1723.55 14093.3,1824.08 14256.5,2009.1 14419.8,2266.48 14583,2555.23 14746.2,2816.39 14909.5,3070.76 15072.7,3515.22 
  15235.9,3938.71 15399.1,4154.83 15562.4,4493.78 15725.6,4785.36 15888.8,4789.7 16052.1,4786.68 16215.3,4874.45 16378.5,4537.65 16541.7,4450.8 16705,4524.26 
  16868.2,4229.32 17031.4,4176.16 17194.7,4017.89 17357.9,3561.91 17521.1,3462.87 17684.3,3288.75 17847.6,3132.71 18010.8,3068.01 18174,2888.42 18337.3,2750.38 
  
  "/>
<polyline clip-path="url(#clip5502)" style="stroke:#ed5d92; stroke-width:32; stroke-opacity:1; fill:none" points="
  2177.61,1282.05 2340.84,1282.05 2504.07,1282.05 2667.3,1282.05 2830.52,1282.05 2993.75,1282.05 3156.98,1282.06 3320.21,1282.06 3483.44,1282.06 3646.67,1282.06 
  3809.9,1282.06 3973.13,1282.06 4136.35,1282.07 4299.58,1282.07 4462.81,1282.08 4626.04,1282.08 4789.27,1282.08 4952.5,1282.08 5115.73,1282.09 5278.96,1282.11 
  5442.18,1282.1 5605.41,1282.11 5768.64,1282.11 5931.87,1282.12 6095.1,1282.14 6258.33,1282.15 6421.56,1282.17 6584.79,1282.2 6748.01,1282.19 6911.24,1282.23 
  7074.47,1282.22 7237.7,1282.26 7400.93,1282.28 7564.16,1282.29 7727.39,1282.33 7890.62,1282.4 8053.84,1282.42 8217.07,1282.45 8380.3,1282.52 8543.53,1282.59 
  8706.76,1282.72 8869.99,1282.77 9033.22,1282.85 9196.45,1282.93 9359.68,1283.15 9522.9,1283.41 9686.13,1283.44 9849.36,1283.58 10012.6,1283.8 10175.8,1284.39 
  10339,1284.7 10502.3,1284.88 10665.5,1285.24 10828.7,1286.69 10992,1286.97 11155.2,1288.59 11318.4,1289.66 11481.6,1291.26 11644.9,1292.8 11808.1,1295.16 
  11971.3,1302.32 12134.6,1308.76 12297.8,1314.31 12461,1320.11 12624.3,1326.81 12787.5,1357.21 12950.7,1364.13 13113.9,1394.79 13277.2,1423.78 13440.4,1496.17 
  13603.6,1556.88 13766.9,1616.03 13930.1,1744.66 14093.3,1884.78 14256.5,1983.33 14419.8,2134.62 14583,2422.12 14746.2,2541.39 14909.5,2857.46 15072.7,3130.64 
  15235.9,3404.13 15399.1,3606.62 15562.4,3764.33 15725.6,3963.88 15888.8,4131.54 16052.1,4187.69 16215.3,4196.54 16378.5,4137.31 16541.7,4168.36 16705,4107.53 
  16868.2,3983.85 17031.4,3856.96 17194.7,3622 17357.9,3564.73 17521.1,3382.41 17684.3,3298.75 17847.6,3281.1 18010.8,3031.54 18174,2862.78 18337.3,2872.89 
  
  "/>
<path clip-path="url(#clip5500)" d="
M2268.82 10233.4 L7181.95 10233.4 L7181.95 6362.72 L2268.82 6362.72  Z
  " fill="#ffffff" fill-rule="evenodd" fill-opacity="1"/>
<polyline clip-path="url(#clip5500)" style="stroke:#000000; stroke-width:32; stroke-opacity:1; fill:none" points="
  2268.82,10233.4 7181.95,10233.4 7181.95,6362.72 2268.82,6362.72 2268.82,10233.4 
  "/>
<polyline clip-path="url(#clip5500)" style="stroke:#009af9; stroke-width:32; stroke-opacity:1; fill:none" points="
  2460.82,6846.56 3612.82,6846.56 
  "/>
<path clip-path="url(#clip5500)" d="M 0 0 M3842.23 6739.06 L3842.23 6842.95 L3889.26 6842.95 Q3915.37 6842.95 3929.63 6829.43 Q3943.89 6815.91 3943.89 6790.91 Q3943.89 6766.1 3929.63 6752.58 Q3915.37 6739.06 3889.26 6739.06 L3842.23 6739.06 M3804.82 6708.32 L3889.26 6708.32 Q3935.74 6708.32 3959.45 6729.43 Q3983.34 6750.36 3983.34 6790.91 Q3983.34 6831.84 3959.45 6852.76 Q3935.74 6873.69 3889.26 6873.69 L3842.23 6873.69 L3842.23 6984.8 L3804.82 6984.8 L3804.82 6708.32 Z" fill="#000000" fill-rule="evenodd" fill-opacity="1" /><path clip-path="url(#clip5500)" d="M 0 0 M4182.97 6872.58 L4182.97 6889.24 L4026.3 6889.24 Q4028.52 6924.43 4047.41 6942.95 Q4066.48 6961.28 4100.37 6961.28 Q4120 6961.28 4138.34 6956.47 Q4156.85 6951.65 4175 6942.02 L4175 6974.24 Q4156.67 6982.02 4137.41 6986.1 Q4118.15 6990.17 4098.34 6990.17 Q4048.71 6990.17 4019.63 6961.28 Q3990.74 6932.39 3990.74 6883.13 Q3990.74 6832.21 4018.15 6802.39 Q4045.74 6772.39 4092.41 6772.39 Q4134.26 6772.39 4158.52 6799.43 Q4182.97 6826.28 4182.97 6872.58 M4148.89 6862.58 Q4148.52 6834.61 4133.15 6817.95 Q4117.97 6801.28 4092.78 6801.28 Q4064.26 6801.28 4047.04 6817.39 Q4030 6833.5 4027.41 6862.76 L4148.89 6862.58 Z" fill="#000000" fill-rule="evenodd" fill-opacity="1" /><path clip-path="url(#clip5500)" d="M 0 0 M4338.89 6809.24 Q4333.15 6805.91 4326.3 6804.43 Q4319.63 6802.76 4311.48 6802.76 Q4282.59 6802.76 4267.04 6821.65 Q4251.67 6840.36 4251.67 6875.54 L4251.67 6984.8 L4217.41 6984.8 L4217.41 6777.39 L4251.67 6777.39 L4251.67 6809.61 Q4262.41 6790.73 4279.63 6781.65 Q4296.85 6772.39 4321.48 6772.39 Q4325 6772.39 4329.26 6772.95 Q4333.52 6773.32 4338.71 6774.24 L4338.89 6809.24 Z" fill="#000000" fill-rule="evenodd" fill-opacity="1" /><path clip-path="url(#clip5500)" d="M 0 0 M4374.63 6777.39 L4408.71 6777.39 L4408.71 6984.8 L4374.63 6984.8 L4374.63 6777.39 M4374.63 6696.65 L4408.71 6696.65 L4408.71 6739.8 L4374.63 6739.8 L4374.63 6696.65 Z" fill="#000000" fill-rule="evenodd" fill-opacity="1" /><path clip-path="url(#clip5500)" d="M 0 0 M4524.82 6801.28 Q4497.41 6801.28 4481.48 6822.76 Q4465.56 6844.06 4465.56 6881.28 Q4465.56 6918.5 4481.3 6939.98 Q4497.22 6961.28 4524.82 6961.28 Q4552.04 6961.28 4567.96 6939.8 Q4583.89 6918.32 4583.89 6881.28 Q4583.89 6844.43 4567.96 6822.95 Q4552.04 6801.28 4524.82 6801.28 M4524.82 6772.39 Q4569.26 6772.39 4594.63 6801.28 Q4620 6830.17 4620 6881.28 Q4620 6932.21 4594.63 6961.28 Q4569.26 6990.17 4524.82 6990.17 Q4480.19 6990.17 4454.82 6961.28 Q4429.63 6932.21 4429.63 6881.28 Q4429.63 6830.17 4454.82 6801.28 Q4480.19 6772.39 4524.82 6772.39 Z" fill="#000000" fill-rule="evenodd" fill-opacity="1" /><path clip-path="url(#clip5500)" d="M 0 0 M4792.22 6808.87 L4792.22 6696.65 L4826.3 6696.65 L4826.3 6984.8 L4792.22 6984.8 L4792.22 6953.69 Q4781.48 6972.21 4765 6981.28 Q4748.7 6990.17 4725.74 6990.17 Q4688.15 6990.17 4664.44 6960.17 Q4640.93 6930.17 4640.93 6881.28 Q4640.93 6832.39 4664.44 6802.39 Q4688.15 6772.39 4725.74 6772.39 Q4748.7 6772.39 4765 6781.47 Q4781.48 6790.36 4792.22 6808.87 M4676.11 6881.28 Q4676.11 6918.87 4691.48 6940.35 Q4707.04 6961.65 4734.07 6961.65 Q4761.11 6961.65 4776.67 6940.35 Q4792.22 6918.87 4792.22 6881.28 Q4792.22 6843.69 4776.67 6822.39 Q4761.11 6800.91 4734.07 6800.91 Q4707.04 6800.91 4691.48 6822.39 Q4676.11 6843.69 4676.11 6881.28 Z" fill="#000000" fill-rule="evenodd" fill-opacity="1" /><path clip-path="url(#clip5500)" d="M 0 0 M4862.04 6777.39 L4896.11 6777.39 L4896.11 6984.8 L4862.04 6984.8 L4862.04 6777.39 M4862.04 6696.65 L4896.11 6696.65 L4896.11 6739.8 L4862.04 6739.8 L4862.04 6696.65 Z" fill="#000000" fill-rule="evenodd" fill-opacity="1" /><path clip-path="url(#clip5500)" d="M 0 0 M5081.11 6785.36 L5081.11 6817.21 Q5066.66 6809.24 5052.03 6805.36 Q5037.59 6801.28 5022.78 6801.28 Q4989.63 6801.28 4971.29 6822.39 Q4952.96 6843.32 4952.96 6881.28 Q4952.96 6919.24 4971.29 6940.35 Q4989.63 6961.28 5022.78 6961.28 Q5037.59 6961.28 5052.03 6957.39 Q5066.66 6953.32 5081.11 6945.35 L5081.11 6976.84 Q5066.85 6983.5 5051.48 6986.84 Q5036.29 6990.17 5019.07 6990.17 Q4972.22 6990.17 4944.63 6960.72 Q4917.04 6931.28 4917.04 6881.28 Q4917.04 6830.54 4944.81 6801.47 Q4972.78 6772.39 5021.29 6772.39 Q5037.03 6772.39 5052.03 6775.73 Q5067.03 6778.87 5081.11 6785.36 Z" fill="#000000" fill-rule="evenodd" fill-opacity="1" /><path clip-path="url(#clip5500)" d="M 0 0 M5274.44 7047.76 L5274.44 7074.24 L5077.41 7074.24 L5077.41 7047.76 L5274.44 7047.76 Z" fill="#000000" fill-rule="evenodd" fill-opacity="1" /><path clip-path="url(#clip5500)" d="M 0 0 M5311.66 6708.32 L5349.07 6708.32 L5349.07 6965.54 Q5349.07 7015.54 5330 7038.13 Q5311.11 7060.72 5269.07 7060.72 L5254.81 7060.72 L5254.81 7029.24 L5266.48 7029.24 Q5291.29 7029.24 5301.48 7015.35 Q5311.66 7001.47 5311.66 6965.54 L5311.66 6708.32 Z" fill="#000000" fill-rule="evenodd" fill-opacity="1" /><path clip-path="url(#clip5500)" d="M 0 0 M5396.11 6953.32 L5457.22 6953.32 L5457.22 6742.39 L5390.74 6755.73 L5390.74 6721.65 L5456.85 6708.32 L5494.25 6708.32 L5494.25 6953.32 L5555.37 6953.32 L5555.37 6984.8 L5396.11 6984.8 L5396.11 6953.32 Z" fill="#000000" fill-rule="evenodd" fill-opacity="1" /><path clip-path="url(#clip5500)" d="M 0 0 M5716.11 6812.58 L5953.51 6812.58 L5953.51 6843.69 L5716.11 6843.69 L5716.11 6812.58 M5716.11 6888.13 L5953.51 6888.13 L5953.51 6919.61 L5716.11 6919.61 L5716.11 6888.13 Z" fill="#000000" fill-rule="evenodd" fill-opacity="1" /><path clip-path="url(#clip5500)" d="M 0 0 M6194.62 6732.95 Q6165.73 6732.95 6151.1 6761.47 Q6136.66 6789.8 6136.66 6846.84 Q6136.66 6903.69 6151.1 6932.21 Q6165.73 6960.54 6194.62 6960.54 Q6223.7 6960.54 6238.14 6932.21 Q6252.77 6903.69 6252.77 6846.84 Q6252.77 6789.8 6238.14 6761.47 Q6223.7 6732.95 6194.62 6732.95 M6194.62 6703.32 Q6241.1 6703.32 6265.55 6740.17 Q6290.18 6776.84 6290.18 6846.84 Q6290.18 6916.65 6265.55 6953.5 Q6241.1 6990.17 6194.62 6990.17 Q6148.14 6990.17 6123.51 6953.5 Q6099.07 6916.65 6099.07 6846.84 Q6099.07 6776.84 6123.51 6740.17 Q6148.14 6703.32 6194.62 6703.32 Z" fill="#000000" fill-rule="evenodd" fill-opacity="1" /><path clip-path="url(#clip5500)" d="M 0 0 M6330.73 6937.76 L6369.81 6937.76 L6369.81 6984.8 L6330.73 6984.8 L6330.73 6937.76 Z" fill="#000000" fill-rule="evenodd" fill-opacity="1" /><path clip-path="url(#clip5500)" d="M 0 0 M6490.36 6732.95 Q6461.47 6732.95 6446.84 6761.47 Q6432.4 6789.8 6432.4 6846.84 Q6432.4 6903.69 6446.84 6932.21 Q6461.47 6960.54 6490.36 6960.54 Q6519.43 6960.54 6533.88 6932.21 Q6548.51 6903.69 6548.51 6846.84 Q6548.51 6789.8 6533.88 6761.47 Q6519.43 6732.95 6490.36 6732.95 M6490.36 6703.32 Q6536.84 6703.32 6561.29 6740.17 Q6585.92 6776.84 6585.92 6846.84 Q6585.92 6916.65 6561.29 6953.5 Q6536.84 6990.17 6490.36 6990.17 Q6443.88 6990.17 6419.25 6953.5 Q6394.81 6916.65 6394.81 6846.84 Q6394.81 6776.84 6419.25 6740.17 Q6443.88 6703.32 6490.36 6703.32 Z" fill="#000000" fill-rule="evenodd" fill-opacity="1" /><polyline clip-path="url(#clip5500)" style="stroke:#e26f46; stroke-width:32; stroke-opacity:1; fill:none" points="
  2460.82,7330.4 3612.82,7330.4 
  "/>
<path clip-path="url(#clip5500)" d="M 0 0 M3842.23 7222.9 L3842.23 7326.79 L3889.26 7326.79 Q3915.37 7326.79 3929.63 7313.27 Q3943.89 7299.75 3943.89 7274.75 Q3943.89 7249.94 3929.63 7236.42 Q3915.37 7222.9 3889.26 7222.9 L3842.23 7222.9 M3804.82 7192.16 L3889.26 7192.16 Q3935.74 7192.16 3959.45 7213.27 Q3983.34 7234.2 3983.34 7274.75 Q3983.34 7315.68 3959.45 7336.6 Q3935.74 7357.53 3889.26 7357.53 L3842.23 7357.53 L3842.23 7468.64 L3804.82 7468.64 L3804.82 7192.16 Z" fill="#000000" fill-rule="evenodd" fill-opacity="1" /><path clip-path="url(#clip5500)" d="M 0 0 M4182.97 7356.42 L4182.97 7373.08 L4026.3 7373.08 Q4028.52 7408.27 4047.41 7426.79 Q4066.48 7445.12 4100.37 7445.12 Q4120 7445.12 4138.34 7440.31 Q4156.85 7435.49 4175 7425.86 L4175 7458.08 Q4156.67 7465.86 4137.41 7469.94 Q4118.15 7474.01 4098.34 7474.01 Q4048.71 7474.01 4019.63 7445.12 Q3990.74 7416.23 3990.74 7366.97 Q3990.74 7316.05 4018.15 7286.23 Q4045.74 7256.23 4092.41 7256.23 Q4134.26 7256.23 4158.52 7283.27 Q4182.97 7310.12 4182.97 7356.42 M4148.89 7346.42 Q4148.52 7318.45 4133.15 7301.79 Q4117.97 7285.12 4092.78 7285.12 Q4064.26 7285.12 4047.04 7301.23 Q4030 7317.34 4027.41 7346.6 L4148.89 7346.42 Z" fill="#000000" fill-rule="evenodd" fill-opacity="1" /><path clip-path="url(#clip5500)" d="M 0 0 M4338.89 7293.08 Q4333.15 7289.75 4326.3 7288.27 Q4319.63 7286.6 4311.48 7286.6 Q4282.59 7286.6 4267.04 7305.49 Q4251.67 7324.2 4251.67 7359.38 L4251.67 7468.64 L4217.41 7468.64 L4217.41 7261.23 L4251.67 7261.23 L4251.67 7293.45 Q4262.41 7274.57 4279.63 7265.49 Q4296.85 7256.23 4321.48 7256.23 Q4325 7256.23 4329.26 7256.79 Q4333.52 7257.16 4338.71 7258.08 L4338.89 7293.08 Z" fill="#000000" fill-rule="evenodd" fill-opacity="1" /><path clip-path="url(#clip5500)" d="M 0 0 M4374.63 7261.23 L4408.71 7261.23 L4408.71 7468.64 L4374.63 7468.64 L4374.63 7261.23 M4374.63 7180.49 L4408.71 7180.49 L4408.71 7223.64 L4374.63 7223.64 L4374.63 7180.49 Z" fill="#000000" fill-rule="evenodd" fill-opacity="1" /><path clip-path="url(#clip5500)" d="M 0 0 M4524.82 7285.12 Q4497.41 7285.12 4481.48 7306.6 Q4465.56 7327.9 4465.56 7365.12 Q4465.56 7402.34 4481.3 7423.82 Q4497.22 7445.12 4524.82 7445.12 Q4552.04 7445.12 4567.96 7423.64 Q4583.89 7402.16 4583.89 7365.12 Q4583.89 7328.27 4567.96 7306.79 Q4552.04 7285.12 4524.82 7285.12 M4524.82 7256.23 Q4569.26 7256.23 4594.63 7285.12 Q4620 7314.01 4620 7365.12 Q4620 7416.05 4594.63 7445.12 Q4569.26 7474.01 4524.82 7474.01 Q4480.19 7474.01 4454.82 7445.12 Q4429.63 7416.05 4429.63 7365.12 Q4429.63 7314.01 4454.82 7285.12 Q4480.19 7256.23 4524.82 7256.23 Z" fill="#000000" fill-rule="evenodd" fill-opacity="1" /><path clip-path="url(#clip5500)" d="M 0 0 M4792.22 7292.71 L4792.22 7180.49 L4826.3 7180.49 L4826.3 7468.64 L4792.22 7468.64 L4792.22 7437.53 Q4781.48 7456.05 4765 7465.12 Q4748.7 7474.01 4725.74 7474.01 Q4688.15 7474.01 4664.44 7444.01 Q4640.93 7414.01 4640.93 7365.12 Q4640.93 7316.23 4664.44 7286.23 Q4688.15 7256.23 4725.74 7256.23 Q4748.7 7256.23 4765 7265.31 Q4781.48 7274.2 4792.22 7292.71 M4676.11 7365.12 Q4676.11 7402.71 4691.48 7424.19 Q4707.04 7445.49 4734.07 7445.49 Q4761.11 7445.49 4776.67 7424.19 Q4792.22 7402.71 4792.22 7365.12 Q4792.22 7327.53 4776.67 7306.23 Q4761.11 7284.75 4734.07 7284.75 Q4707.04 7284.75 4691.48 7306.23 Q4676.11 7327.53 4676.11 7365.12 Z" fill="#000000" fill-rule="evenodd" fill-opacity="1" /><path clip-path="url(#clip5500)" d="M 0 0 M4862.04 7261.23 L4896.11 7261.23 L4896.11 7468.64 L4862.04 7468.64 L4862.04 7261.23 M4862.04 7180.49 L4896.11 7180.49 L4896.11 7223.64 L4862.04 7223.64 L4862.04 7180.49 Z" fill="#000000" fill-rule="evenodd" fill-opacity="1" /><path clip-path="url(#clip5500)" d="M 0 0 M5081.11 7269.2 L5081.11 7301.05 Q5066.66 7293.08 5052.03 7289.2 Q5037.59 7285.12 5022.78 7285.12 Q4989.63 7285.12 4971.29 7306.23 Q4952.96 7327.16 4952.96 7365.12 Q4952.96 7403.08 4971.29 7424.19 Q4989.63 7445.12 5022.78 7445.12 Q5037.59 7445.12 5052.03 7441.23 Q5066.66 7437.16 5081.11 7429.19 L5081.11 7460.68 Q5066.85 7467.34 5051.48 7470.68 Q5036.29 7474.01 5019.07 7474.01 Q4972.22 7474.01 4944.63 7444.56 Q4917.04 7415.12 4917.04 7365.12 Q4917.04 7314.38 4944.81 7285.31 Q4972.78 7256.23 5021.29 7256.23 Q5037.03 7256.23 5052.03 7259.57 Q5067.03 7262.71 5081.11 7269.2 Z" fill="#000000" fill-rule="evenodd" fill-opacity="1" /><path clip-path="url(#clip5500)" d="M 0 0 M5274.44 7531.6 L5274.44 7558.08 L5077.41 7558.08 L5077.41 7531.6 L5274.44 7531.6 Z" fill="#000000" fill-rule="evenodd" fill-opacity="1" /><path clip-path="url(#clip5500)" d="M 0 0 M5311.66 7192.16 L5349.07 7192.16 L5349.07 7449.38 Q5349.07 7499.38 5330 7521.97 Q5311.11 7544.56 5269.07 7544.56 L5254.81 7544.56 L5254.81 7513.08 L5266.48 7513.08 Q5291.29 7513.08 5301.48 7499.19 Q5311.66 7485.31 5311.66 7449.38 L5311.66 7192.16 Z" fill="#000000" fill-rule="evenodd" fill-opacity="1" /><path clip-path="url(#clip5500)" d="M 0 0 M5396.11 7437.16 L5457.22 7437.16 L5457.22 7226.23 L5390.74 7239.57 L5390.74 7205.49 L5456.85 7192.16 L5494.25 7192.16 L5494.25 7437.16 L5555.37 7437.16 L5555.37 7468.64 L5396.11 7468.64 L5396.11 7437.16 Z" fill="#000000" fill-rule="evenodd" fill-opacity="1" /><path clip-path="url(#clip5500)" d="M 0 0 M5716.11 7296.42 L5953.51 7296.42 L5953.51 7327.53 L5716.11 7327.53 L5716.11 7296.42 M5716.11 7371.97 L5953.51 7371.97 L5953.51 7403.45 L5716.11 7403.45 L5716.11 7371.97 Z" fill="#000000" fill-rule="evenodd" fill-opacity="1" /><path clip-path="url(#clip5500)" d="M 0 0 M6194.62 7216.79 Q6165.73 7216.79 6151.1 7245.31 Q6136.66 7273.64 6136.66 7330.68 Q6136.66 7387.53 6151.1 7416.05 Q6165.73 7444.38 6194.62 7444.38 Q6223.7 7444.38 6238.14 7416.05 Q6252.77 7387.53 6252.77 7330.68 Q6252.77 7273.64 6238.14 7245.31 Q6223.7 7216.79 6194.62 7216.79 M6194.62 7187.16 Q6241.1 7187.16 6265.55 7224.01 Q6290.18 7260.68 6290.18 7330.68 Q6290.18 7400.49 6265.55 7437.34 Q6241.1 7474.01 6194.62 7474.01 Q6148.14 7474.01 6123.51 7437.34 Q6099.07 7400.49 6099.07 7330.68 Q6099.07 7260.68 6123.51 7224.01 Q6148.14 7187.16 6194.62 7187.16 Z" fill="#000000" fill-rule="evenodd" fill-opacity="1" /><path clip-path="url(#clip5500)" d="M 0 0 M6330.73 7421.6 L6369.81 7421.6 L6369.81 7468.64 L6330.73 7468.64 L6330.73 7421.6 Z" fill="#000000" fill-rule="evenodd" fill-opacity="1" /><path clip-path="url(#clip5500)" d="M 0 0 M6442.58 7437.16 L6573.14 7437.16 L6573.14 7468.64 L6397.58 7468.64 L6397.58 7437.16 Q6418.88 7415.12 6455.55 7378.08 Q6492.4 7340.86 6501.84 7330.12 Q6519.8 7309.94 6526.84 7296.05 Q6534.06 7281.97 6534.06 7268.45 Q6534.06 7246.42 6518.51 7232.53 Q6503.14 7218.64 6478.32 7218.64 Q6460.73 7218.64 6441.1 7224.75 Q6421.66 7230.86 6399.44 7243.27 L6399.44 7205.49 Q6422.03 7196.42 6441.66 7191.79 Q6461.29 7187.16 6477.58 7187.16 Q6520.55 7187.16 6546.1 7208.64 Q6571.66 7230.12 6571.66 7266.05 Q6571.66 7283.08 6565.17 7298.45 Q6558.88 7313.64 6542.03 7334.38 Q6537.4 7339.75 6512.58 7365.49 Q6487.77 7391.05 6442.58 7437.16 Z" fill="#000000" fill-rule="evenodd" fill-opacity="1" /><path clip-path="url(#clip5500)" d="M 0 0 M6614.06 7192.16 L6760.91 7192.16 L6760.91 7223.64 L6648.32 7223.64 L6648.32 7291.42 Q6656.47 7288.64 6664.62 7287.34 Q6672.77 7285.86 6680.92 7285.86 Q6727.21 7285.86 6754.25 7311.23 Q6781.28 7336.6 6781.28 7379.94 Q6781.28 7424.56 6753.51 7449.38 Q6725.73 7474.01 6675.17 7474.01 Q6657.77 7474.01 6639.62 7471.05 Q6621.66 7468.08 6602.4 7462.16 L6602.4 7424.56 Q6619.06 7433.64 6636.84 7438.08 Q6654.62 7442.53 6674.43 7442.53 Q6706.47 7442.53 6725.17 7425.68 Q6743.88 7408.82 6743.88 7379.94 Q6743.88 7351.05 6725.17 7334.2 Q6706.47 7317.34 6674.43 7317.34 Q6659.43 7317.34 6644.43 7320.68 Q6629.62 7324.01 6614.06 7331.05 L6614.06 7192.16 Z" fill="#000000" fill-rule="evenodd" fill-opacity="1" /><polyline clip-path="url(#clip5500)" style="stroke:#3da44d; stroke-width:32; stroke-opacity:1; fill:none" points="
  2460.82,7814.24 3612.82,7814.24 
  "/>
<path clip-path="url(#clip5500)" d="M 0 0 M3842.23 7706.74 L3842.23 7810.63 L3889.26 7810.63 Q3915.37 7810.63 3929.63 7797.11 Q3943.89 7783.59 3943.89 7758.59 Q3943.89 7733.78 3929.63 7720.26 Q3915.37 7706.74 3889.26 7706.74 L3842.23 7706.74 M3804.82 7676 L3889.26 7676 Q3935.74 7676 3959.45 7697.11 Q3983.34 7718.04 3983.34 7758.59 Q3983.34 7799.52 3959.45 7820.44 Q3935.74 7841.37 3889.26 7841.37 L3842.23 7841.37 L3842.23 7952.48 L3804.82 7952.48 L3804.82 7676 Z" fill="#000000" fill-rule="evenodd" fill-opacity="1" /><path clip-path="url(#clip5500)" d="M 0 0 M4182.97 7840.26 L4182.97 7856.92 L4026.3 7856.92 Q4028.52 7892.11 4047.41 7910.63 Q4066.48 7928.96 4100.37 7928.96 Q4120 7928.96 4138.34 7924.15 Q4156.85 7919.33 4175 7909.7 L4175 7941.92 Q4156.67 7949.7 4137.41 7953.78 Q4118.15 7957.85 4098.34 7957.85 Q4048.71 7957.85 4019.63 7928.96 Q3990.74 7900.07 3990.74 7850.81 Q3990.74 7799.89 4018.15 7770.07 Q4045.74 7740.07 4092.41 7740.07 Q4134.26 7740.07 4158.52 7767.11 Q4182.97 7793.96 4182.97 7840.26 M4148.89 7830.26 Q4148.52 7802.29 4133.15 7785.63 Q4117.97 7768.96 4092.78 7768.96 Q4064.26 7768.96 4047.04 7785.07 Q4030 7801.18 4027.41 7830.44 L4148.89 7830.26 Z" fill="#000000" fill-rule="evenodd" fill-opacity="1" /><path clip-path="url(#clip5500)" d="M 0 0 M4338.89 7776.92 Q4333.15 7773.59 4326.3 7772.11 Q4319.63 7770.44 4311.48 7770.44 Q4282.59 7770.44 4267.04 7789.33 Q4251.67 7808.04 4251.67 7843.22 L4251.67 7952.48 L4217.41 7952.48 L4217.41 7745.07 L4251.67 7745.07 L4251.67 7777.29 Q4262.41 7758.41 4279.63 7749.33 Q4296.85 7740.07 4321.48 7740.07 Q4325 7740.07 4329.26 7740.63 Q4333.52 7741 4338.71 7741.92 L4338.89 7776.92 Z" fill="#000000" fill-rule="evenodd" fill-opacity="1" /><path clip-path="url(#clip5500)" d="M 0 0 M4374.63 7745.07 L4408.71 7745.07 L4408.71 7952.48 L4374.63 7952.48 L4374.63 7745.07 M4374.63 7664.33 L4408.71 7664.33 L4408.71 7707.48 L4374.63 7707.48 L4374.63 7664.33 Z" fill="#000000" fill-rule="evenodd" fill-opacity="1" /><path clip-path="url(#clip5500)" d="M 0 0 M4524.82 7768.96 Q4497.41 7768.96 4481.48 7790.44 Q4465.56 7811.74 4465.56 7848.96 Q4465.56 7886.18 4481.3 7907.66 Q4497.22 7928.96 4524.82 7928.96 Q4552.04 7928.96 4567.96 7907.48 Q4583.89 7886 4583.89 7848.96 Q4583.89 7812.11 4567.96 7790.63 Q4552.04 7768.96 4524.82 7768.96 M4524.82 7740.07 Q4569.26 7740.07 4594.63 7768.96 Q4620 7797.85 4620 7848.96 Q4620 7899.89 4594.63 7928.96 Q4569.26 7957.85 4524.82 7957.85 Q4480.19 7957.85 4454.82 7928.96 Q4429.63 7899.89 4429.63 7848.96 Q4429.63 7797.85 4454.82 7768.96 Q4480.19 7740.07 4524.82 7740.07 Z" fill="#000000" fill-rule="evenodd" fill-opacity="1" /><path clip-path="url(#clip5500)" d="M 0 0 M4792.22 7776.55 L4792.22 7664.33 L4826.3 7664.33 L4826.3 7952.48 L4792.22 7952.48 L4792.22 7921.37 Q4781.48 7939.89 4765 7948.96 Q4748.7 7957.85 4725.74 7957.85 Q4688.15 7957.85 4664.44 7927.85 Q4640.93 7897.85 4640.93 7848.96 Q4640.93 7800.07 4664.44 7770.07 Q4688.15 7740.07 4725.74 7740.07 Q4748.7 7740.07 4765 7749.15 Q4781.48 7758.04 4792.22 7776.55 M4676.11 7848.96 Q4676.11 7886.55 4691.48 7908.03 Q4707.04 7929.33 4734.07 7929.33 Q4761.11 7929.33 4776.67 7908.03 Q4792.22 7886.55 4792.22 7848.96 Q4792.22 7811.37 4776.67 7790.07 Q4761.11 7768.59 4734.07 7768.59 Q4707.04 7768.59 4691.48 7790.07 Q4676.11 7811.37 4676.11 7848.96 Z" fill="#000000" fill-rule="evenodd" fill-opacity="1" /><path clip-path="url(#clip5500)" d="M 0 0 M4862.04 7745.07 L4896.11 7745.07 L4896.11 7952.48 L4862.04 7952.48 L4862.04 7745.07 M4862.04 7664.33 L4896.11 7664.33 L4896.11 7707.48 L4862.04 7707.48 L4862.04 7664.33 Z" fill="#000000" fill-rule="evenodd" fill-opacity="1" /><path clip-path="url(#clip5500)" d="M 0 0 M5081.11 7753.04 L5081.11 7784.89 Q5066.66 7776.92 5052.03 7773.04 Q5037.59 7768.96 5022.78 7768.96 Q4989.63 7768.96 4971.29 7790.07 Q4952.96 7811 4952.96 7848.96 Q4952.96 7886.92 4971.29 7908.03 Q4989.63 7928.96 5022.78 7928.96 Q5037.59 7928.96 5052.03 7925.07 Q5066.66 7921 5081.11 7913.03 L5081.11 7944.52 Q5066.85 7951.18 5051.48 7954.52 Q5036.29 7957.85 5019.07 7957.85 Q4972.22 7957.85 4944.63 7928.4 Q4917.04 7898.96 4917.04 7848.96 Q4917.04 7798.22 4944.81 7769.15 Q4972.78 7740.07 5021.29 7740.07 Q5037.03 7740.07 5052.03 7743.41 Q5067.03 7746.55 5081.11 7753.04 Z" fill="#000000" fill-rule="evenodd" fill-opacity="1" /><path clip-path="url(#clip5500)" d="M 0 0 M5274.44 8015.44 L5274.44 8041.92 L5077.41 8041.92 L5077.41 8015.44 L5274.44 8015.44 Z" fill="#000000" fill-rule="evenodd" fill-opacity="1" /><path clip-path="url(#clip5500)" d="M 0 0 M5311.66 7676 L5349.07 7676 L5349.07 7933.22 Q5349.07 7983.22 5330 8005.81 Q5311.11 8028.4 5269.07 8028.4 L5254.81 8028.4 L5254.81 7996.92 L5266.48 7996.92 Q5291.29 7996.92 5301.48 7983.03 Q5311.66 7969.15 5311.66 7933.22 L5311.66 7676 Z" fill="#000000" fill-rule="evenodd" fill-opacity="1" /><path clip-path="url(#clip5500)" d="M 0 0 M5396.11 7921 L5457.22 7921 L5457.22 7710.07 L5390.74 7723.41 L5390.74 7689.33 L5456.85 7676 L5494.25 7676 L5494.25 7921 L5555.37 7921 L5555.37 7952.48 L5396.11 7952.48 L5396.11 7921 Z" fill="#000000" fill-rule="evenodd" fill-opacity="1" /><path clip-path="url(#clip5500)" d="M 0 0 M5716.11 7780.26 L5953.51 7780.26 L5953.51 7811.37 L5716.11 7811.37 L5716.11 7780.26 M5716.11 7855.81 L5953.51 7855.81 L5953.51 7887.29 L5716.11 7887.29 L5716.11 7855.81 Z" fill="#000000" fill-rule="evenodd" fill-opacity="1" /><path clip-path="url(#clip5500)" d="M 0 0 M6194.62 7700.63 Q6165.73 7700.63 6151.1 7729.15 Q6136.66 7757.48 6136.66 7814.52 Q6136.66 7871.37 6151.1 7899.89 Q6165.73 7928.22 6194.62 7928.22 Q6223.7 7928.22 6238.14 7899.89 Q6252.77 7871.37 6252.77 7814.52 Q6252.77 7757.48 6238.14 7729.15 Q6223.7 7700.63 6194.62 7700.63 M6194.62 7671 Q6241.1 7671 6265.55 7707.85 Q6290.18 7744.52 6290.18 7814.52 Q6290.18 7884.33 6265.55 7921.18 Q6241.1 7957.85 6194.62 7957.85 Q6148.14 7957.85 6123.51 7921.18 Q6099.07 7884.33 6099.07 7814.52 Q6099.07 7744.52 6123.51 7707.85 Q6148.14 7671 6194.62 7671 Z" fill="#000000" fill-rule="evenodd" fill-opacity="1" /><path clip-path="url(#clip5500)" d="M 0 0 M6330.73 7905.44 L6369.81 7905.44 L6369.81 7952.48 L6330.73 7952.48 L6330.73 7905.44 Z" fill="#000000" fill-rule="evenodd" fill-opacity="1" /><path clip-path="url(#clip5500)" d="M 0 0 M6410.73 7676 L6557.58 7676 L6557.58 7707.48 L6444.99 7707.48 L6444.99 7775.26 Q6453.14 7772.48 6461.29 7771.18 Q6469.43 7769.7 6477.58 7769.7 Q6523.88 7769.7 6550.92 7795.07 Q6577.95 7820.44 6577.95 7863.78 Q6577.95 7908.4 6550.18 7933.22 Q6522.4 7957.85 6471.84 7957.85 Q6454.43 7957.85 6436.29 7954.89 Q6418.32 7951.92 6399.06 7946 L6399.06 7908.4 Q6415.73 7917.48 6433.51 7921.92 Q6451.29 7926.37 6471.1 7926.37 Q6503.14 7926.37 6521.84 7909.52 Q6540.55 7892.66 6540.55 7863.78 Q6540.55 7834.89 6521.84 7818.04 Q6503.14 7801.18 6471.1 7801.18 Q6456.1 7801.18 6441.1 7804.52 Q6426.29 7807.85 6410.73 7814.89 L6410.73 7676 Z" fill="#000000" fill-rule="evenodd" fill-opacity="1" /><polyline clip-path="url(#clip5500)" style="stroke:#c271d2; stroke-width:32; stroke-opacity:1; fill:none" points="
  2460.82,8298.08 3612.82,8298.08 
  "/>
<path clip-path="url(#clip5500)" d="M 0 0 M3842.23 8190.58 L3842.23 8294.47 L3889.26 8294.47 Q3915.37 8294.47 3929.63 8280.95 Q3943.89 8267.43 3943.89 8242.43 Q3943.89 8217.62 3929.63 8204.1 Q3915.37 8190.58 3889.26 8190.58 L3842.23 8190.58 M3804.82 8159.84 L3889.26 8159.84 Q3935.74 8159.84 3959.45 8180.95 Q3983.34 8201.88 3983.34 8242.43 Q3983.34 8283.36 3959.45 8304.28 Q3935.74 8325.21 3889.26 8325.21 L3842.23 8325.21 L3842.23 8436.32 L3804.82 8436.32 L3804.82 8159.84 Z" fill="#000000" fill-rule="evenodd" fill-opacity="1" /><path clip-path="url(#clip5500)" d="M 0 0 M4182.97 8324.1 L4182.97 8340.76 L4026.3 8340.76 Q4028.52 8375.95 4047.41 8394.47 Q4066.48 8412.8 4100.37 8412.8 Q4120 8412.8 4138.34 8407.99 Q4156.85 8403.17 4175 8393.54 L4175 8425.76 Q4156.67 8433.54 4137.41 8437.62 Q4118.15 8441.69 4098.34 8441.69 Q4048.71 8441.69 4019.63 8412.8 Q3990.74 8383.91 3990.74 8334.65 Q3990.74 8283.73 4018.15 8253.91 Q4045.74 8223.91 4092.41 8223.91 Q4134.26 8223.91 4158.52 8250.95 Q4182.97 8277.8 4182.97 8324.1 M4148.89 8314.1 Q4148.52 8286.13 4133.15 8269.47 Q4117.97 8252.8 4092.78 8252.8 Q4064.26 8252.8 4047.04 8268.91 Q4030 8285.02 4027.41 8314.28 L4148.89 8314.1 Z" fill="#000000" fill-rule="evenodd" fill-opacity="1" /><path clip-path="url(#clip5500)" d="M 0 0 M4338.89 8260.76 Q4333.15 8257.43 4326.3 8255.95 Q4319.63 8254.28 4311.48 8254.28 Q4282.59 8254.28 4267.04 8273.17 Q4251.67 8291.88 4251.67 8327.06 L4251.67 8436.32 L4217.41 8436.32 L4217.41 8228.91 L4251.67 8228.91 L4251.67 8261.13 Q4262.41 8242.25 4279.63 8233.17 Q4296.85 8223.91 4321.48 8223.91 Q4325 8223.91 4329.26 8224.47 Q4333.52 8224.84 4338.71 8225.76 L4338.89 8260.76 Z" fill="#000000" fill-rule="evenodd" fill-opacity="1" /><path clip-path="url(#clip5500)" d="M 0 0 M4374.63 8228.91 L4408.71 8228.91 L4408.71 8436.32 L4374.63 8436.32 L4374.63 8228.91 M4374.63 8148.17 L4408.71 8148.17 L4408.71 8191.32 L4374.63 8191.32 L4374.63 8148.17 Z" fill="#000000" fill-rule="evenodd" fill-opacity="1" /><path clip-path="url(#clip5500)" d="M 0 0 M4524.82 8252.8 Q4497.41 8252.8 4481.48 8274.28 Q4465.56 8295.58 4465.56 8332.8 Q4465.56 8370.02 4481.3 8391.5 Q4497.22 8412.8 4524.82 8412.8 Q4552.04 8412.8 4567.96 8391.32 Q4583.89 8369.84 4583.89 8332.8 Q4583.89 8295.95 4567.96 8274.47 Q4552.04 8252.8 4524.82 8252.8 M4524.82 8223.91 Q4569.26 8223.91 4594.63 8252.8 Q4620 8281.69 4620 8332.8 Q4620 8383.73 4594.63 8412.8 Q4569.26 8441.69 4524.82 8441.69 Q4480.19 8441.69 4454.82 8412.8 Q4429.63 8383.73 4429.63 8332.8 Q4429.63 8281.69 4454.82 8252.8 Q4480.19 8223.91 4524.82 8223.91 Z" fill="#000000" fill-rule="evenodd" fill-opacity="1" /><path clip-path="url(#clip5500)" d="M 0 0 M4792.22 8260.39 L4792.22 8148.17 L4826.3 8148.17 L4826.3 8436.32 L4792.22 8436.32 L4792.22 8405.21 Q4781.48 8423.73 4765 8432.8 Q4748.7 8441.69 4725.74 8441.69 Q4688.15 8441.69 4664.44 8411.69 Q4640.93 8381.69 4640.93 8332.8 Q4640.93 8283.91 4664.44 8253.91 Q4688.15 8223.91 4725.74 8223.91 Q4748.7 8223.91 4765 8232.99 Q4781.48 8241.88 4792.22 8260.39 M4676.11 8332.8 Q4676.11 8370.39 4691.48 8391.87 Q4707.04 8413.17 4734.07 8413.17 Q4761.11 8413.17 4776.67 8391.87 Q4792.22 8370.39 4792.22 8332.8 Q4792.22 8295.21 4776.67 8273.91 Q4761.11 8252.43 4734.07 8252.43 Q4707.04 8252.43 4691.48 8273.91 Q4676.11 8295.21 4676.11 8332.8 Z" fill="#000000" fill-rule="evenodd" fill-opacity="1" /><path clip-path="url(#clip5500)" d="M 0 0 M4862.04 8228.91 L4896.11 8228.91 L4896.11 8436.32 L4862.04 8436.32 L4862.04 8228.91 M4862.04 8148.17 L4896.11 8148.17 L4896.11 8191.32 L4862.04 8191.32 L4862.04 8148.17 Z" fill="#000000" fill-rule="evenodd" fill-opacity="1" /><path clip-path="url(#clip5500)" d="M 0 0 M5081.11 8236.88 L5081.11 8268.73 Q5066.66 8260.76 5052.03 8256.88 Q5037.59 8252.8 5022.78 8252.8 Q4989.63 8252.8 4971.29 8273.91 Q4952.96 8294.84 4952.96 8332.8 Q4952.96 8370.76 4971.29 8391.87 Q4989.63 8412.8 5022.78 8412.8 Q5037.59 8412.8 5052.03 8408.91 Q5066.66 8404.84 5081.11 8396.87 L5081.11 8428.36 Q5066.85 8435.02 5051.48 8438.36 Q5036.29 8441.69 5019.07 8441.69 Q4972.22 8441.69 4944.63 8412.24 Q4917.04 8382.8 4917.04 8332.8 Q4917.04 8282.06 4944.81 8252.99 Q4972.78 8223.91 5021.29 8223.91 Q5037.03 8223.91 5052.03 8227.25 Q5067.03 8230.39 5081.11 8236.88 Z" fill="#000000" fill-rule="evenodd" fill-opacity="1" /><path clip-path="url(#clip5500)" d="M 0 0 M5274.44 8499.28 L5274.44 8525.76 L5077.41 8525.76 L5077.41 8499.28 L5274.44 8499.28 Z" fill="#000000" fill-rule="evenodd" fill-opacity="1" /><path clip-path="url(#clip5500)" d="M 0 0 M5311.66 8159.84 L5349.07 8159.84 L5349.07 8417.06 Q5349.07 8467.06 5330 8489.65 Q5311.11 8512.24 5269.07 8512.24 L5254.81 8512.24 L5254.81 8480.76 L5266.48 8480.76 Q5291.29 8480.76 5301.48 8466.87 Q5311.66 8452.99 5311.66 8417.06 L5311.66 8159.84 Z" fill="#000000" fill-rule="evenodd" fill-opacity="1" /><path clip-path="url(#clip5500)" d="M 0 0 M5396.11 8404.84 L5457.22 8404.84 L5457.22 8193.91 L5390.74 8207.25 L5390.74 8173.17 L5456.85 8159.84 L5494.25 8159.84 L5494.25 8404.84 L5555.37 8404.84 L5555.37 8436.32 L5396.11 8436.32 L5396.11 8404.84 Z" fill="#000000" fill-rule="evenodd" fill-opacity="1" /><path clip-path="url(#clip5500)" d="M 0 0 M5716.11 8264.1 L5953.51 8264.1 L5953.51 8295.21 L5716.11 8295.21 L5716.11 8264.1 M5716.11 8339.65 L5953.51 8339.65 L5953.51 8371.13 L5716.11 8371.13 L5716.11 8339.65 Z" fill="#000000" fill-rule="evenodd" fill-opacity="1" /><path clip-path="url(#clip5500)" d="M 0 0 M6194.62 8184.47 Q6165.73 8184.47 6151.1 8212.99 Q6136.66 8241.32 6136.66 8298.36 Q6136.66 8355.21 6151.1 8383.73 Q6165.73 8412.06 6194.62 8412.06 Q6223.7 8412.06 6238.14 8383.73 Q6252.77 8355.21 6252.77 8298.36 Q6252.77 8241.32 6238.14 8212.99 Q6223.7 8184.47 6194.62 8184.47 M6194.62 8154.84 Q6241.1 8154.84 6265.55 8191.69 Q6290.18 8228.36 6290.18 8298.36 Q6290.18 8368.17 6265.55 8405.02 Q6241.1 8441.69 6194.62 8441.69 Q6148.14 8441.69 6123.51 8405.02 Q6099.07 8368.17 6099.07 8298.36 Q6099.07 8228.36 6123.51 8191.69 Q6148.14 8154.84 6194.62 8154.84 Z" fill="#000000" fill-rule="evenodd" fill-opacity="1" /><path clip-path="url(#clip5500)" d="M 0 0 M6330.73 8389.28 L6369.81 8389.28 L6369.81 8436.32 L6330.73 8436.32 L6330.73 8389.28 Z" fill="#000000" fill-rule="evenodd" fill-opacity="1" /><path clip-path="url(#clip5500)" d="M 0 0 M6400.92 8159.84 L6578.69 8159.84 L6578.69 8175.76 L6478.32 8436.32 L6439.25 8436.32 L6533.69 8191.32 L6400.92 8191.32 L6400.92 8159.84 Z" fill="#000000" fill-rule="evenodd" fill-opacity="1" /><path clip-path="url(#clip5500)" d="M 0 0 M6619.62 8159.84 L6766.47 8159.84 L6766.47 8191.32 L6653.88 8191.32 L6653.88 8259.1 Q6662.03 8256.32 6670.17 8255.02 Q6678.32 8253.54 6686.47 8253.54 Q6732.77 8253.54 6759.8 8278.91 Q6786.84 8304.28 6786.84 8347.62 Q6786.84 8392.24 6759.06 8417.06 Q6731.29 8441.69 6680.73 8441.69 Q6663.32 8441.69 6645.17 8438.73 Q6627.21 8435.76 6607.95 8429.84 L6607.95 8392.24 Q6624.62 8401.32 6642.4 8405.76 Q6660.17 8410.21 6679.99 8410.21 Q6712.03 8410.21 6730.73 8393.36 Q6749.43 8376.5 6749.43 8347.62 Q6749.43 8318.73 6730.73 8301.88 Q6712.03 8285.02 6679.99 8285.02 Q6664.99 8285.02 6649.99 8288.36 Q6635.17 8291.69 6619.62 8298.73 L6619.62 8159.84 Z" fill="#000000" fill-rule="evenodd" fill-opacity="1" /><polyline clip-path="url(#clip5500)" style="stroke:#ac8d18; stroke-width:32; stroke-opacity:1; fill:none" points="
  2460.82,8781.92 3612.82,8781.92 
  "/>
<path clip-path="url(#clip5500)" d="M 0 0 M3842.23 8674.42 L3842.23 8778.31 L3889.26 8778.31 Q3915.37 8778.31 3929.63 8764.79 Q3943.89 8751.27 3943.89 8726.27 Q3943.89 8701.46 3929.63 8687.94 Q3915.37 8674.42 3889.26 8674.42 L3842.23 8674.42 M3804.82 8643.68 L3889.26 8643.68 Q3935.74 8643.68 3959.45 8664.79 Q3983.34 8685.72 3983.34 8726.27 Q3983.34 8767.2 3959.45 8788.12 Q3935.74 8809.05 3889.26 8809.05 L3842.23 8809.05 L3842.23 8920.16 L3804.82 8920.16 L3804.82 8643.68 Z" fill="#000000" fill-rule="evenodd" fill-opacity="1" /><path clip-path="url(#clip5500)" d="M 0 0 M4182.97 8807.94 L4182.97 8824.6 L4026.3 8824.6 Q4028.52 8859.79 4047.41 8878.31 Q4066.48 8896.64 4100.37 8896.64 Q4120 8896.64 4138.34 8891.83 Q4156.85 8887.01 4175 8877.38 L4175 8909.6 Q4156.67 8917.38 4137.41 8921.46 Q4118.15 8925.53 4098.34 8925.53 Q4048.71 8925.53 4019.63 8896.64 Q3990.74 8867.75 3990.74 8818.49 Q3990.74 8767.57 4018.15 8737.75 Q4045.74 8707.75 4092.41 8707.75 Q4134.26 8707.75 4158.52 8734.79 Q4182.97 8761.64 4182.97 8807.94 M4148.89 8797.94 Q4148.52 8769.97 4133.15 8753.31 Q4117.97 8736.64 4092.78 8736.64 Q4064.26 8736.64 4047.04 8752.75 Q4030 8768.86 4027.41 8798.12 L4148.89 8797.94 Z" fill="#000000" fill-rule="evenodd" fill-opacity="1" /><path clip-path="url(#clip5500)" d="M 0 0 M4338.89 8744.6 Q4333.15 8741.27 4326.3 8739.79 Q4319.63 8738.12 4311.48 8738.12 Q4282.59 8738.12 4267.04 8757.01 Q4251.67 8775.72 4251.67 8810.9 L4251.67 8920.16 L4217.41 8920.16 L4217.41 8712.75 L4251.67 8712.75 L4251.67 8744.97 Q4262.41 8726.09 4279.63 8717.01 Q4296.85 8707.75 4321.48 8707.75 Q4325 8707.75 4329.26 8708.31 Q4333.52 8708.68 4338.71 8709.6 L4338.89 8744.6 Z" fill="#000000" fill-rule="evenodd" fill-opacity="1" /><path clip-path="url(#clip5500)" d="M 0 0 M4374.63 8712.75 L4408.71 8712.75 L4408.71 8920.16 L4374.63 8920.16 L4374.63 8712.75 M4374.63 8632.01 L4408.71 8632.01 L4408.71 8675.16 L4374.63 8675.16 L4374.63 8632.01 Z" fill="#000000" fill-rule="evenodd" fill-opacity="1" /><path clip-path="url(#clip5500)" d="M 0 0 M4524.82 8736.64 Q4497.41 8736.64 4481.48 8758.12 Q4465.56 8779.42 4465.56 8816.64 Q4465.56 8853.86 4481.3 8875.34 Q4497.22 8896.64 4524.82 8896.64 Q4552.04 8896.64 4567.96 8875.16 Q4583.89 8853.68 4583.89 8816.64 Q4583.89 8779.79 4567.96 8758.31 Q4552.04 8736.64 4524.82 8736.64 M4524.82 8707.75 Q4569.26 8707.75 4594.63 8736.64 Q4620 8765.53 4620 8816.64 Q4620 8867.57 4594.63 8896.64 Q4569.26 8925.53 4524.82 8925.53 Q4480.19 8925.53 4454.82 8896.64 Q4429.63 8867.57 4429.63 8816.64 Q4429.63 8765.53 4454.82 8736.64 Q4480.19 8707.75 4524.82 8707.75 Z" fill="#000000" fill-rule="evenodd" fill-opacity="1" /><path clip-path="url(#clip5500)" d="M 0 0 M4792.22 8744.23 L4792.22 8632.01 L4826.3 8632.01 L4826.3 8920.16 L4792.22 8920.16 L4792.22 8889.05 Q4781.48 8907.57 4765 8916.64 Q4748.7 8925.53 4725.74 8925.53 Q4688.15 8925.53 4664.44 8895.53 Q4640.93 8865.53 4640.93 8816.64 Q4640.93 8767.75 4664.44 8737.75 Q4688.15 8707.75 4725.74 8707.75 Q4748.7 8707.75 4765 8716.83 Q4781.48 8725.72 4792.22 8744.23 M4676.11 8816.64 Q4676.11 8854.23 4691.48 8875.71 Q4707.04 8897.01 4734.07 8897.01 Q4761.11 8897.01 4776.67 8875.71 Q4792.22 8854.23 4792.22 8816.64 Q4792.22 8779.05 4776.67 8757.75 Q4761.11 8736.27 4734.07 8736.27 Q4707.04 8736.27 4691.48 8757.75 Q4676.11 8779.05 4676.11 8816.64 Z" fill="#000000" fill-rule="evenodd" fill-opacity="1" /><path clip-path="url(#clip5500)" d="M 0 0 M4862.04 8712.75 L4896.11 8712.75 L4896.11 8920.16 L4862.04 8920.16 L4862.04 8712.75 M4862.04 8632.01 L4896.11 8632.01 L4896.11 8675.16 L4862.04 8675.16 L4862.04 8632.01 Z" fill="#000000" fill-rule="evenodd" fill-opacity="1" /><path clip-path="url(#clip5500)" d="M 0 0 M5081.11 8720.72 L5081.11 8752.57 Q5066.66 8744.6 5052.03 8740.72 Q5037.59 8736.64 5022.78 8736.64 Q4989.63 8736.64 4971.29 8757.75 Q4952.96 8778.68 4952.96 8816.64 Q4952.96 8854.6 4971.29 8875.71 Q4989.63 8896.64 5022.78 8896.64 Q5037.59 8896.64 5052.03 8892.75 Q5066.66 8888.68 5081.11 8880.71 L5081.11 8912.2 Q5066.85 8918.86 5051.48 8922.2 Q5036.29 8925.53 5019.07 8925.53 Q4972.22 8925.53 4944.63 8896.08 Q4917.04 8866.64 4917.04 8816.64 Q4917.04 8765.9 4944.81 8736.83 Q4972.78 8707.75 5021.29 8707.75 Q5037.03 8707.75 5052.03 8711.09 Q5067.03 8714.23 5081.11 8720.72 Z" fill="#000000" fill-rule="evenodd" fill-opacity="1" /><path clip-path="url(#clip5500)" d="M 0 0 M5274.44 8983.12 L5274.44 9009.6 L5077.41 9009.6 L5077.41 8983.12 L5274.44 8983.12 Z" fill="#000000" fill-rule="evenodd" fill-opacity="1" /><path clip-path="url(#clip5500)" d="M 0 0 M5311.66 8643.68 L5349.07 8643.68 L5349.07 8900.9 Q5349.07 8950.9 5330 8973.49 Q5311.11 8996.08 5269.07 8996.08 L5254.81 8996.08 L5254.81 8964.6 L5266.48 8964.6 Q5291.29 8964.6 5301.48 8950.71 Q5311.66 8936.83 5311.66 8900.9 L5311.66 8643.68 Z" fill="#000000" fill-rule="evenodd" fill-opacity="1" /><path clip-path="url(#clip5500)" d="M 0 0 M5396.11 8888.68 L5457.22 8888.68 L5457.22 8677.75 L5390.74 8691.09 L5390.74 8657.01 L5456.85 8643.68 L5494.25 8643.68 L5494.25 8888.68 L5555.37 8888.68 L5555.37 8920.16 L5396.11 8920.16 L5396.11 8888.68 Z" fill="#000000" fill-rule="evenodd" fill-opacity="1" /><path clip-path="url(#clip5500)" d="M 0 0 M5716.11 8747.94 L5953.51 8747.94 L5953.51 8779.05 L5716.11 8779.05 L5716.11 8747.94 M5716.11 8823.49 L5953.51 8823.49 L5953.51 8854.97 L5716.11 8854.97 L5716.11 8823.49 Z" fill="#000000" fill-rule="evenodd" fill-opacity="1" /><path clip-path="url(#clip5500)" d="M 0 0 M6121.1 8888.68 L6182.21 8888.68 L6182.21 8677.75 L6115.73 8691.09 L6115.73 8657.01 L6181.84 8643.68 L6219.25 8643.68 L6219.25 8888.68 L6280.36 8888.68 L6280.36 8920.16 L6121.1 8920.16 L6121.1 8888.68 Z" fill="#000000" fill-rule="evenodd" fill-opacity="1" /><path clip-path="url(#clip5500)" d="M 0 0 M6320.92 8873.12 L6359.99 8873.12 L6359.99 8920.16 L6320.92 8920.16 L6320.92 8873.12 Z" fill="#000000" fill-rule="evenodd" fill-opacity="1" /><path clip-path="url(#clip5500)" d="M 0 0 M6480.55 8668.31 Q6451.66 8668.31 6437.03 8696.83 Q6422.58 8725.16 6422.58 8782.2 Q6422.58 8839.05 6437.03 8867.57 Q6451.66 8895.9 6480.55 8895.9 Q6509.62 8895.9 6524.06 8867.57 Q6538.69 8839.05 6538.69 8782.2 Q6538.69 8725.16 6524.06 8696.83 Q6509.62 8668.31 6480.55 8668.31 M6480.55 8638.68 Q6527.03 8638.68 6551.47 8675.53 Q6576.1 8712.2 6576.1 8782.2 Q6576.1 8852.01 6551.47 8888.86 Q6527.03 8925.53 6480.55 8925.53 Q6434.06 8925.53 6409.44 8888.86 Q6384.99 8852.01 6384.99 8782.2 Q6384.99 8712.2 6409.44 8675.53 Q6434.06 8638.68 6480.55 8638.68 Z" fill="#000000" fill-rule="evenodd" fill-opacity="1" /><polyline clip-path="url(#clip5500)" style="stroke:#00a9ad; stroke-width:32; stroke-opacity:1; fill:none" points="
  2460.82,9265.76 3612.82,9265.76 
  "/>
<path clip-path="url(#clip5500)" d="M 0 0 M3842.23 9158.26 L3842.23 9262.15 L3889.26 9262.15 Q3915.37 9262.15 3929.63 9248.63 Q3943.89 9235.11 3943.89 9210.11 Q3943.89 9185.3 3929.63 9171.78 Q3915.37 9158.26 3889.26 9158.26 L3842.23 9158.26 M3804.82 9127.52 L3889.26 9127.52 Q3935.74 9127.52 3959.45 9148.63 Q3983.34 9169.56 3983.34 9210.11 Q3983.34 9251.04 3959.45 9271.96 Q3935.74 9292.89 3889.26 9292.89 L3842.23 9292.89 L3842.23 9404 L3804.82 9404 L3804.82 9127.52 Z" fill="#000000" fill-rule="evenodd" fill-opacity="1" /><path clip-path="url(#clip5500)" d="M 0 0 M4182.97 9291.78 L4182.97 9308.44 L4026.3 9308.44 Q4028.52 9343.63 4047.41 9362.15 Q4066.48 9380.48 4100.37 9380.48 Q4120 9380.48 4138.34 9375.67 Q4156.85 9370.85 4175 9361.22 L4175 9393.44 Q4156.67 9401.22 4137.41 9405.3 Q4118.15 9409.37 4098.34 9409.37 Q4048.71 9409.37 4019.63 9380.48 Q3990.74 9351.59 3990.74 9302.33 Q3990.74 9251.41 4018.15 9221.59 Q4045.74 9191.59 4092.41 9191.59 Q4134.26 9191.59 4158.52 9218.63 Q4182.97 9245.48 4182.97 9291.78 M4148.89 9281.78 Q4148.52 9253.81 4133.15 9237.15 Q4117.97 9220.48 4092.78 9220.48 Q4064.26 9220.48 4047.04 9236.59 Q4030 9252.7 4027.41 9281.96 L4148.89 9281.78 Z" fill="#000000" fill-rule="evenodd" fill-opacity="1" /><path clip-path="url(#clip5500)" d="M 0 0 M4338.89 9228.44 Q4333.15 9225.11 4326.3 9223.63 Q4319.63 9221.96 4311.48 9221.96 Q4282.59 9221.96 4267.04 9240.85 Q4251.67 9259.56 4251.67 9294.74 L4251.67 9404 L4217.41 9404 L4217.41 9196.59 L4251.67 9196.59 L4251.67 9228.81 Q4262.41 9209.93 4279.63 9200.85 Q4296.85 9191.59 4321.48 9191.59 Q4325 9191.59 4329.26 9192.15 Q4333.52 9192.52 4338.71 9193.44 L4338.89 9228.44 Z" fill="#000000" fill-rule="evenodd" fill-opacity="1" /><path clip-path="url(#clip5500)" d="M 0 0 M4374.63 9196.59 L4408.71 9196.59 L4408.71 9404 L4374.63 9404 L4374.63 9196.59 M4374.63 9115.85 L4408.71 9115.85 L4408.71 9159 L4374.63 9159 L4374.63 9115.85 Z" fill="#000000" fill-rule="evenodd" fill-opacity="1" /><path clip-path="url(#clip5500)" d="M 0 0 M4524.82 9220.48 Q4497.41 9220.48 4481.48 9241.96 Q4465.56 9263.26 4465.56 9300.48 Q4465.56 9337.7 4481.3 9359.18 Q4497.22 9380.48 4524.82 9380.48 Q4552.04 9380.48 4567.96 9359 Q4583.89 9337.52 4583.89 9300.48 Q4583.89 9263.63 4567.96 9242.15 Q4552.04 9220.48 4524.82 9220.48 M4524.82 9191.59 Q4569.26 9191.59 4594.63 9220.48 Q4620 9249.37 4620 9300.48 Q4620 9351.41 4594.63 9380.48 Q4569.26 9409.37 4524.82 9409.37 Q4480.19 9409.37 4454.82 9380.48 Q4429.63 9351.41 4429.63 9300.48 Q4429.63 9249.37 4454.82 9220.48 Q4480.19 9191.59 4524.82 9191.59 Z" fill="#000000" fill-rule="evenodd" fill-opacity="1" /><path clip-path="url(#clip5500)" d="M 0 0 M4792.22 9228.07 L4792.22 9115.85 L4826.3 9115.85 L4826.3 9404 L4792.22 9404 L4792.22 9372.89 Q4781.48 9391.41 4765 9400.48 Q4748.7 9409.37 4725.74 9409.37 Q4688.15 9409.37 4664.44 9379.37 Q4640.93 9349.37 4640.93 9300.48 Q4640.93 9251.59 4664.44 9221.59 Q4688.15 9191.59 4725.74 9191.59 Q4748.7 9191.59 4765 9200.67 Q4781.48 9209.56 4792.22 9228.07 M4676.11 9300.48 Q4676.11 9338.07 4691.48 9359.55 Q4707.04 9380.85 4734.07 9380.85 Q4761.11 9380.85 4776.67 9359.55 Q4792.22 9338.07 4792.22 9300.48 Q4792.22 9262.89 4776.67 9241.59 Q4761.11 9220.11 4734.07 9220.11 Q4707.04 9220.11 4691.48 9241.59 Q4676.11 9262.89 4676.11 9300.48 Z" fill="#000000" fill-rule="evenodd" fill-opacity="1" /><path clip-path="url(#clip5500)" d="M 0 0 M4862.04 9196.59 L4896.11 9196.59 L4896.11 9404 L4862.04 9404 L4862.04 9196.59 M4862.04 9115.85 L4896.11 9115.85 L4896.11 9159 L4862.04 9159 L4862.04 9115.85 Z" fill="#000000" fill-rule="evenodd" fill-opacity="1" /><path clip-path="url(#clip5500)" d="M 0 0 M5081.11 9204.56 L5081.11 9236.41 Q5066.66 9228.44 5052.03 9224.56 Q5037.59 9220.48 5022.78 9220.48 Q4989.63 9220.48 4971.29 9241.59 Q4952.96 9262.52 4952.96 9300.48 Q4952.96 9338.44 4971.29 9359.55 Q4989.63 9380.48 5022.78 9380.48 Q5037.59 9380.48 5052.03 9376.59 Q5066.66 9372.52 5081.11 9364.55 L5081.11 9396.04 Q5066.85 9402.7 5051.48 9406.04 Q5036.29 9409.37 5019.07 9409.37 Q4972.22 9409.37 4944.63 9379.92 Q4917.04 9350.48 4917.04 9300.48 Q4917.04 9249.74 4944.81 9220.67 Q4972.78 9191.59 5021.29 9191.59 Q5037.03 9191.59 5052.03 9194.93 Q5067.03 9198.07 5081.11 9204.56 Z" fill="#000000" fill-rule="evenodd" fill-opacity="1" /><path clip-path="url(#clip5500)" d="M 0 0 M5274.44 9466.96 L5274.44 9493.44 L5077.41 9493.44 L5077.41 9466.96 L5274.44 9466.96 Z" fill="#000000" fill-rule="evenodd" fill-opacity="1" /><path clip-path="url(#clip5500)" d="M 0 0 M5311.66 9127.52 L5349.07 9127.52 L5349.07 9384.74 Q5349.07 9434.74 5330 9457.33 Q5311.11 9479.92 5269.07 9479.92 L5254.81 9479.92 L5254.81 9448.44 L5266.48 9448.44 Q5291.29 9448.44 5301.48 9434.55 Q5311.66 9420.67 5311.66 9384.74 L5311.66 9127.52 Z" fill="#000000" fill-rule="evenodd" fill-opacity="1" /><path clip-path="url(#clip5500)" d="M 0 0 M5396.11 9372.52 L5457.22 9372.52 L5457.22 9161.59 L5390.74 9174.93 L5390.74 9140.85 L5456.85 9127.52 L5494.25 9127.52 L5494.25 9372.52 L5555.37 9372.52 L5555.37 9404 L5396.11 9404 L5396.11 9372.52 Z" fill="#000000" fill-rule="evenodd" fill-opacity="1" /><path clip-path="url(#clip5500)" d="M 0 0 M5716.11 9231.78 L5953.51 9231.78 L5953.51 9262.89 L5716.11 9262.89 L5716.11 9231.78 M5716.11 9307.33 L5953.51 9307.33 L5953.51 9338.81 L5716.11 9338.81 L5716.11 9307.33 Z" fill="#000000" fill-rule="evenodd" fill-opacity="1" /><path clip-path="url(#clip5500)" d="M 0 0 M6194.62 9152.15 Q6165.73 9152.15 6151.1 9180.67 Q6136.66 9209 6136.66 9266.04 Q6136.66 9322.89 6151.1 9351.41 Q6165.73 9379.74 6194.62 9379.74 Q6223.7 9379.74 6238.14 9351.41 Q6252.77 9322.89 6252.77 9266.04 Q6252.77 9209 6238.14 9180.67 Q6223.7 9152.15 6194.62 9152.15 M6194.62 9122.52 Q6241.1 9122.52 6265.55 9159.37 Q6290.18 9196.04 6290.18 9266.04 Q6290.18 9335.85 6265.55 9372.7 Q6241.1 9409.37 6194.62 9409.37 Q6148.14 9409.37 6123.51 9372.7 Q6099.07 9335.85 6099.07 9266.04 Q6099.07 9196.04 6123.51 9159.37 Q6148.14 9122.52 6194.62 9122.52 Z" fill="#000000" fill-rule="evenodd" fill-opacity="1" /><path clip-path="url(#clip5500)" d="M 0 0 M6330.73 9356.96 L6369.81 9356.96 L6369.81 9404 L6330.73 9404 L6330.73 9356.96 Z" fill="#000000" fill-rule="evenodd" fill-opacity="1" /><path clip-path="url(#clip5500)" d="M 0 0 M6513.14 9160.11 L6418.69 9307.7 L6513.14 9307.7 L6513.14 9160.11 M6503.32 9127.52 L6550.36 9127.52 L6550.36 9307.7 L6589.8 9307.7 L6589.8 9338.81 L6550.36 9338.81 L6550.36 9404 L6513.14 9404 L6513.14 9338.81 L6388.32 9338.81 L6388.32 9302.7 L6503.32 9127.52 Z" fill="#000000" fill-rule="evenodd" fill-opacity="1" /><polyline clip-path="url(#clip5500)" style="stroke:#ed5d92; stroke-width:32; stroke-opacity:1; fill:none" points="
  2460.82,9749.6 3612.82,9749.6 
  "/>
<path clip-path="url(#clip5500)" d="M 0 0 M3842.23 9642.1 L3842.23 9745.99 L3889.26 9745.99 Q3915.37 9745.99 3929.63 9732.47 Q3943.89 9718.95 3943.89 9693.95 Q3943.89 9669.14 3929.63 9655.62 Q3915.37 9642.1 3889.26 9642.1 L3842.23 9642.1 M3804.82 9611.36 L3889.26 9611.36 Q3935.74 9611.36 3959.45 9632.47 Q3983.34 9653.4 3983.34 9693.95 Q3983.34 9734.88 3959.45 9755.8 Q3935.74 9776.73 3889.26 9776.73 L3842.23 9776.73 L3842.23 9887.84 L3804.82 9887.84 L3804.82 9611.36 Z" fill="#000000" fill-rule="evenodd" fill-opacity="1" /><path clip-path="url(#clip5500)" d="M 0 0 M4182.97 9775.62 L4182.97 9792.28 L4026.3 9792.28 Q4028.52 9827.47 4047.41 9845.99 Q4066.48 9864.32 4100.37 9864.32 Q4120 9864.32 4138.34 9859.51 Q4156.85 9854.69 4175 9845.06 L4175 9877.28 Q4156.67 9885.06 4137.41 9889.14 Q4118.15 9893.21 4098.34 9893.21 Q4048.71 9893.21 4019.63 9864.32 Q3990.74 9835.43 3990.74 9786.17 Q3990.74 9735.25 4018.15 9705.43 Q4045.74 9675.43 4092.41 9675.43 Q4134.26 9675.43 4158.52 9702.47 Q4182.97 9729.32 4182.97 9775.62 M4148.89 9765.62 Q4148.52 9737.65 4133.15 9720.99 Q4117.97 9704.32 4092.78 9704.32 Q4064.26 9704.32 4047.04 9720.43 Q4030 9736.54 4027.41 9765.8 L4148.89 9765.62 Z" fill="#000000" fill-rule="evenodd" fill-opacity="1" /><path clip-path="url(#clip5500)" d="M 0 0 M4338.89 9712.28 Q4333.15 9708.95 4326.3 9707.47 Q4319.63 9705.8 4311.48 9705.8 Q4282.59 9705.8 4267.04 9724.69 Q4251.67 9743.4 4251.67 9778.58 L4251.67 9887.84 L4217.41 9887.84 L4217.41 9680.43 L4251.67 9680.43 L4251.67 9712.65 Q4262.41 9693.77 4279.63 9684.69 Q4296.85 9675.43 4321.48 9675.43 Q4325 9675.43 4329.26 9675.99 Q4333.52 9676.36 4338.71 9677.28 L4338.89 9712.28 Z" fill="#000000" fill-rule="evenodd" fill-opacity="1" /><path clip-path="url(#clip5500)" d="M 0 0 M4374.63 9680.43 L4408.71 9680.43 L4408.71 9887.84 L4374.63 9887.84 L4374.63 9680.43 M4374.63 9599.69 L4408.71 9599.69 L4408.71 9642.84 L4374.63 9642.84 L4374.63 9599.69 Z" fill="#000000" fill-rule="evenodd" fill-opacity="1" /><path clip-path="url(#clip5500)" d="M 0 0 M4524.82 9704.32 Q4497.41 9704.32 4481.48 9725.8 Q4465.56 9747.1 4465.56 9784.32 Q4465.56 9821.54 4481.3 9843.02 Q4497.22 9864.32 4524.82 9864.32 Q4552.04 9864.32 4567.96 9842.84 Q4583.89 9821.36 4583.89 9784.32 Q4583.89 9747.47 4567.96 9725.99 Q4552.04 9704.32 4524.82 9704.32 M4524.82 9675.43 Q4569.26 9675.43 4594.63 9704.32 Q4620 9733.21 4620 9784.32 Q4620 9835.25 4594.63 9864.32 Q4569.26 9893.21 4524.82 9893.21 Q4480.19 9893.21 4454.82 9864.32 Q4429.63 9835.25 4429.63 9784.32 Q4429.63 9733.21 4454.82 9704.32 Q4480.19 9675.43 4524.82 9675.43 Z" fill="#000000" fill-rule="evenodd" fill-opacity="1" /><path clip-path="url(#clip5500)" d="M 0 0 M4792.22 9711.91 L4792.22 9599.69 L4826.3 9599.69 L4826.3 9887.84 L4792.22 9887.84 L4792.22 9856.73 Q4781.48 9875.25 4765 9884.32 Q4748.7 9893.21 4725.74 9893.21 Q4688.15 9893.21 4664.44 9863.21 Q4640.93 9833.21 4640.93 9784.32 Q4640.93 9735.43 4664.44 9705.43 Q4688.15 9675.43 4725.74 9675.43 Q4748.7 9675.43 4765 9684.51 Q4781.48 9693.4 4792.22 9711.91 M4676.11 9784.32 Q4676.11 9821.91 4691.48 9843.39 Q4707.04 9864.69 4734.07 9864.69 Q4761.11 9864.69 4776.67 9843.39 Q4792.22 9821.91 4792.22 9784.32 Q4792.22 9746.73 4776.67 9725.43 Q4761.11 9703.95 4734.07 9703.95 Q4707.04 9703.95 4691.48 9725.43 Q4676.11 9746.73 4676.11 9784.32 Z" fill="#000000" fill-rule="evenodd" fill-opacity="1" /><path clip-path="url(#clip5500)" d="M 0 0 M4862.04 9680.43 L4896.11 9680.43 L4896.11 9887.84 L4862.04 9887.84 L4862.04 9680.43 M4862.04 9599.69 L4896.11 9599.69 L4896.11 9642.84 L4862.04 9642.84 L4862.04 9599.69 Z" fill="#000000" fill-rule="evenodd" fill-opacity="1" /><path clip-path="url(#clip5500)" d="M 0 0 M5081.11 9688.4 L5081.11 9720.25 Q5066.66 9712.28 5052.03 9708.4 Q5037.59 9704.32 5022.78 9704.32 Q4989.63 9704.32 4971.29 9725.43 Q4952.96 9746.36 4952.96 9784.32 Q4952.96 9822.28 4971.29 9843.39 Q4989.63 9864.32 5022.78 9864.32 Q5037.59 9864.32 5052.03 9860.43 Q5066.66 9856.36 5081.11 9848.39 L5081.11 9879.88 Q5066.85 9886.54 5051.48 9889.88 Q5036.29 9893.21 5019.07 9893.21 Q4972.22 9893.21 4944.63 9863.76 Q4917.04 9834.32 4917.04 9784.32 Q4917.04 9733.58 4944.81 9704.51 Q4972.78 9675.43 5021.29 9675.43 Q5037.03 9675.43 5052.03 9678.77 Q5067.03 9681.91 5081.11 9688.4 Z" fill="#000000" fill-rule="evenodd" fill-opacity="1" /><path clip-path="url(#clip5500)" d="M 0 0 M5274.44 9950.8 L5274.44 9977.28 L5077.41 9977.28 L5077.41 9950.8 L5274.44 9950.8 Z" fill="#000000" fill-rule="evenodd" fill-opacity="1" /><path clip-path="url(#clip5500)" d="M 0 0 M5311.66 9611.36 L5349.07 9611.36 L5349.07 9868.58 Q5349.07 9918.58 5330 9941.17 Q5311.11 9963.76 5269.07 9963.76 L5254.81 9963.76 L5254.81 9932.28 L5266.48 9932.28 Q5291.29 9932.28 5301.48 9918.39 Q5311.66 9904.51 5311.66 9868.58 L5311.66 9611.36 Z" fill="#000000" fill-rule="evenodd" fill-opacity="1" /><path clip-path="url(#clip5500)" d="M 0 0 M5396.11 9856.36 L5457.22 9856.36 L5457.22 9645.43 L5390.74 9658.77 L5390.74 9624.69 L5456.85 9611.36 L5494.25 9611.36 L5494.25 9856.36 L5555.37 9856.36 L5555.37 9887.84 L5396.11 9887.84 L5396.11 9856.36 Z" fill="#000000" fill-rule="evenodd" fill-opacity="1" /><path clip-path="url(#clip5500)" d="M 0 0 M5716.11 9715.62 L5953.51 9715.62 L5953.51 9746.73 L5716.11 9746.73 L5716.11 9715.62 M5716.11 9791.17 L5953.51 9791.17 L5953.51 9822.65 L5716.11 9822.65 L5716.11 9791.17 Z" fill="#000000" fill-rule="evenodd" fill-opacity="1" /><path clip-path="url(#clip5500)" d="M 0 0 M6194.62 9635.99 Q6165.73 9635.99 6151.1 9664.51 Q6136.66 9692.84 6136.66 9749.88 Q6136.66 9806.73 6151.1 9835.25 Q6165.73 9863.58 6194.62 9863.58 Q6223.7 9863.58 6238.14 9835.25 Q6252.77 9806.73 6252.77 9749.88 Q6252.77 9692.84 6238.14 9664.51 Q6223.7 9635.99 6194.62 9635.99 M6194.62 9606.36 Q6241.1 9606.36 6265.55 9643.21 Q6290.18 9679.88 6290.18 9749.88 Q6290.18 9819.69 6265.55 9856.54 Q6241.1 9893.21 6194.62 9893.21 Q6148.14 9893.21 6123.51 9856.54 Q6099.07 9819.69 6099.07 9749.88 Q6099.07 9679.88 6123.51 9643.21 Q6148.14 9606.36 6194.62 9606.36 Z" fill="#000000" fill-rule="evenodd" fill-opacity="1" /><path clip-path="url(#clip5500)" d="M 0 0 M6330.73 9840.8 L6369.81 9840.8 L6369.81 9887.84 L6330.73 9887.84 L6330.73 9840.8 Z" fill="#000000" fill-rule="evenodd" fill-opacity="1" /><path clip-path="url(#clip5500)" d="M 0 0 M6513.14 9643.95 L6418.69 9791.54 L6513.14 9791.54 L6513.14 9643.95 M6503.32 9611.36 L6550.36 9611.36 L6550.36 9791.54 L6589.8 9791.54 L6589.8 9822.65 L6550.36 9822.65 L6550.36 9887.84 L6513.14 9887.84 L6513.14 9822.65 L6388.32 9822.65 L6388.32 9786.54 L6503.32 9611.36 Z" fill="#000000" fill-rule="evenodd" fill-opacity="1" /><path clip-path="url(#clip5500)" d="M 0 0 M6630.73 9611.36 L6777.58 9611.36 L6777.58 9642.84 L6664.99 9642.84 L6664.99 9710.62 Q6673.14 9707.84 6681.29 9706.54 Q6689.43 9705.06 6697.58 9705.06 Q6743.88 9705.06 6770.91 9730.43 Q6797.95 9755.8 6797.95 9799.14 Q6797.95 9843.76 6770.17 9868.58 Q6742.4 9893.21 6691.84 9893.21 Q6674.43 9893.21 6656.29 9890.25 Q6638.32 9887.28 6619.06 9881.36 L6619.06 9843.76 Q6635.73 9852.84 6653.51 9857.28 Q6671.29 9861.73 6691.1 9861.73 Q6723.14 9861.73 6741.84 9844.88 Q6760.54 9828.02 6760.54 9799.14 Q6760.54 9770.25 6741.84 9753.4 Q6723.14 9736.54 6691.1 9736.54 Q6676.1 9736.54 6661.1 9739.88 Q6646.29 9743.21 6630.73 9750.25 L6630.73 9611.36 Z" fill="#000000" fill-rule="evenodd" fill-opacity="1" /></svg>
