<?xml version="1.0" encoding="utf-8"?>
<svg xmlns="http://www.w3.org/2000/svg" xmlns:xlink="http://www.w3.org/1999/xlink" width="4800" height="3200" viewBox="0 0 19200 12800">
<defs>
  <clipPath id="clip4700">
    <rect x="0" y="0" width="19200" height="12800"/>
  </clipPath>
</defs>
<path clip-path="url(#clip4700)" d="
M0 12800 L19200 12800 L19200 0 L0 0  Z
  " fill="#ffffff" fill-rule="evenodd" fill-opacity="1"/>
<defs>
  <clipPath id="clip4701">
    <rect x="3840" y="0" width="13441" height="12800"/>
  </clipPath>
</defs>
<path clip-path="url(#clip4700)" d="
M1815.04 11385.4 L18822 11385.4 L18822 987.777 L1815.04 987.777  Z
  " fill="#ffffff" fill-rule="evenodd" fill-opacity="1"/>
<defs>
  <clipPath id="clip4702">
    <rect x="1815" y="987" width="17008" height="10399"/>
  </clipPath>
</defs>
<polyline clip-path="url(#clip4702)" style="stroke:#000000; stroke-width:16; stroke-opacity:0.1; fill:none" points="
  2296.37,11385.4 2296.37,987.777 
  "/>
<polyline clip-path="url(#clip4702)" style="stroke:#000000; stroke-width:16; stroke-opacity:0.1; fill:none" points="
  4970.43,11385.4 4970.43,987.777 
  "/>
<polyline clip-path="url(#clip4702)" style="stroke:#000000; stroke-width:16; stroke-opacity:0.1; fill:none" points="
  7644.49,11385.4 7644.49,987.777 
  "/>
<polyline clip-path="url(#clip4702)" style="stroke:#000000; stroke-width:16; stroke-opacity:0.1; fill:none" points="
  10318.5,11385.4 10318.5,987.777 
  "/>
<polyline clip-path="url(#clip4702)" style="stroke:#000000; stroke-width:16; stroke-opacity:0.1; fill:none" points="
  12992.6,11385.4 12992.6,987.777 
  "/>
<polyline clip-path="url(#clip4702)" style="stroke:#000000; stroke-width:16; stroke-opacity:0.1; fill:none" points="
  15666.7,11385.4 15666.7,987.777 
  "/>
<polyline clip-path="url(#clip4702)" style="stroke:#000000; stroke-width:16; stroke-opacity:0.1; fill:none" points="
  18340.7,11385.4 18340.7,987.777 
  "/>
<polyline clip-path="url(#clip4702)" style="stroke:#000000; stroke-width:16; stroke-opacity:0.1; fill:none" points="
  1815.04,9901.98 18822,9901.98 
  "/>
<polyline clip-path="url(#clip4702)" style="stroke:#000000; stroke-width:16; stroke-opacity:0.1; fill:none" points="
  1815.04,8117.32 18822,8117.32 
  "/>
<polyline clip-path="url(#clip4702)" style="stroke:#000000; stroke-width:16; stroke-opacity:0.1; fill:none" points="
  1815.04,6332.65 18822,6332.65 
  "/>
<polyline clip-path="url(#clip4702)" style="stroke:#000000; stroke-width:16; stroke-opacity:0.1; fill:none" points="
  1815.04,4547.99 18822,4547.99 
  "/>
<polyline clip-path="url(#clip4702)" style="stroke:#000000; stroke-width:16; stroke-opacity:0.1; fill:none" points="
  1815.04,2763.33 18822,2763.33 
  "/>
<polyline clip-path="url(#clip4700)" style="stroke:#000000; stroke-width:32; stroke-opacity:1; fill:none" points="
  1815.04,11385.4 18822,11385.4 
  "/>
<polyline clip-path="url(#clip4700)" style="stroke:#000000; stroke-width:32; stroke-opacity:1; fill:none" points="
  1815.04,11385.4 1815.04,987.777 
  "/>
<polyline clip-path="url(#clip4700)" style="stroke:#000000; stroke-width:32; stroke-opacity:1; fill:none" points="
  2296.37,11385.4 2296.37,11260.7 
  "/>
<polyline clip-path="url(#clip4700)" style="stroke:#000000; stroke-width:32; stroke-opacity:1; fill:none" points="
  4970.43,11385.4 4970.43,11260.7 
  "/>
<polyline clip-path="url(#clip4700)" style="stroke:#000000; stroke-width:32; stroke-opacity:1; fill:none" points="
  7644.49,11385.4 7644.49,11260.7 
  "/>
<polyline clip-path="url(#clip4700)" style="stroke:#000000; stroke-width:32; stroke-opacity:1; fill:none" points="
  10318.5,11385.4 10318.5,11260.7 
  "/>
<polyline clip-path="url(#clip4700)" style="stroke:#000000; stroke-width:32; stroke-opacity:1; fill:none" points="
  12992.6,11385.4 12992.6,11260.7 
  "/>
<polyline clip-path="url(#clip4700)" style="stroke:#000000; stroke-width:32; stroke-opacity:1; fill:none" points="
  15666.7,11385.4 15666.7,11260.7 
  "/>
<polyline clip-path="url(#clip4700)" style="stroke:#000000; stroke-width:32; stroke-opacity:1; fill:none" points="
  18340.7,11385.4 18340.7,11260.7 
  "/>
<polyline clip-path="url(#clip4700)" style="stroke:#000000; stroke-width:32; stroke-opacity:1; fill:none" points="
  1815.04,9901.98 2019.13,9901.98 
  "/>
<polyline clip-path="url(#clip4700)" style="stroke:#000000; stroke-width:32; stroke-opacity:1; fill:none" points="
  1815.04,8117.32 2019.13,8117.32 
  "/>
<polyline clip-path="url(#clip4700)" style="stroke:#000000; stroke-width:32; stroke-opacity:1; fill:none" points="
  1815.04,6332.65 2019.13,6332.65 
  "/>
<polyline clip-path="url(#clip4700)" style="stroke:#000000; stroke-width:32; stroke-opacity:1; fill:none" points="
  1815.04,4547.99 2019.13,4547.99 
  "/>
<polyline clip-path="url(#clip4700)" style="stroke:#000000; stroke-width:32; stroke-opacity:1; fill:none" points="
  1815.04,2763.33 2019.13,2763.33 
  "/>
<path clip-path="url(#clip4700)" d="M 0 0 M2151.09 11561.4 Q2122.21 11561.4 2107.58 11589.9 Q2093.13 11618.2 2093.13 11675.3 Q2093.13 11732.1 2107.58 11760.6 Q2122.21 11789 2151.09 11789 Q2180.17 11789 2194.61 11760.6 Q2209.24 11732.1 2209.24 11675.3 Q2209.24 11618.2 2194.61 11589.9 Q2180.17 11561.4 2151.09 11561.4 M2151.09 11531.7 Q2197.58 11531.7 2222.02 11568.6 Q2246.65 11605.3 2246.65 11675.3 Q2246.65 11745.1 2222.02 11781.9 Q2197.58 11818.6 2151.09 11818.6 Q2104.61 11818.6 2079.98 11781.9 Q2055.54 11745.1 2055.54 11675.3 Q2055.54 11605.3 2079.98 11568.6 Q2104.61 11531.7 2151.09 11531.7 Z" fill="#000000" fill-rule="evenodd" fill-opacity="1" /><path clip-path="url(#clip4700)" d="M 0 0 M2287.2 11766.2 L2326.28 11766.2 L2326.28 11813.2 L2287.2 11813.2 L2287.2 11766.2 Z" fill="#000000" fill-rule="evenodd" fill-opacity="1" /><path clip-path="url(#clip4700)" d="M 0 0 M2480.17 11664.1 Q2507.02 11669.9 2522.02 11688 Q2537.2 11706.2 2537.2 11732.8 Q2537.2 11773.8 2509.06 11796.2 Q2480.91 11818.6 2429.06 11818.6 Q2411.65 11818.6 2393.13 11815.1 Q2374.8 11811.7 2355.17 11804.9 L2355.17 11768.8 Q2370.72 11777.8 2389.24 11782.5 Q2407.76 11787.1 2427.94 11787.1 Q2463.13 11787.1 2481.46 11773.2 Q2499.98 11759.3 2499.98 11732.8 Q2499.98 11708.4 2482.76 11694.7 Q2465.72 11680.8 2435.17 11680.8 L2402.94 11680.8 L2402.94 11650.1 L2436.65 11650.1 Q2464.24 11650.1 2478.87 11639.1 Q2493.5 11628 2493.5 11607.3 Q2493.5 11586 2478.31 11574.7 Q2463.31 11563.2 2435.17 11563.2 Q2419.8 11563.2 2402.2 11566.5 Q2384.61 11569.9 2363.5 11576.9 L2363.5 11543.6 Q2384.8 11537.7 2403.32 11534.7 Q2422.02 11531.7 2438.5 11531.7 Q2481.09 11531.7 2505.91 11551.2 Q2530.72 11570.4 2530.72 11603.4 Q2530.72 11626.4 2517.57 11642.3 Q2504.43 11658 2480.17 11664.1 Z" fill="#000000" fill-rule="evenodd" fill-opacity="1" /><path clip-path="url(#clip4700)" d="M 0 0 M4820.61 11561.4 Q4791.73 11561.4 4777.1 11589.9 Q4762.65 11618.2 4762.65 11675.3 Q4762.65 11732.1 4777.1 11760.6 Q4791.73 11789 4820.61 11789 Q4849.69 11789 4864.13 11760.6 Q4878.76 11732.1 4878.76 11675.3 Q4878.76 11618.2 4864.13 11589.9 Q4849.69 11561.4 4820.61 11561.4 M4820.61 11531.7 Q4867.1 11531.7 4891.54 11568.6 Q4916.17 11605.3 4916.17 11675.3 Q4916.17 11745.1 4891.54 11781.9 Q4867.1 11818.6 4820.61 11818.6 Q4774.13 11818.6 4749.5 11781.9 Q4725.06 11745.1 4725.06 11675.3 Q4725.06 11605.3 4749.5 11568.6 Q4774.13 11531.7 4820.61 11531.7 Z" fill="#000000" fill-rule="evenodd" fill-opacity="1" /><path clip-path="url(#clip4700)" d="M 0 0 M4956.73 11766.2 L4995.8 11766.2 L4995.8 11813.2 L4956.73 11813.2 L4956.73 11766.2 Z" fill="#000000" fill-rule="evenodd" fill-opacity="1" /><path clip-path="url(#clip4700)" d="M 0 0 M5139.13 11569.3 L5044.69 11716.9 L5139.13 11716.9 L5139.13 11569.3 M5129.32 11536.7 L5176.35 11536.7 L5176.35 11716.9 L5215.8 11716.9 L5215.8 11748 L5176.35 11748 L5176.35 11813.2 L5139.13 11813.2 L5139.13 11748 L5014.32 11748 L5014.32 11711.9 L5129.32 11536.7 Z" fill="#000000" fill-rule="evenodd" fill-opacity="1" /><path clip-path="url(#clip4700)" d="M 0 0 M7500.6 11561.4 Q7471.71 11561.4 7457.08 11589.9 Q7442.64 11618.2 7442.64 11675.3 Q7442.64 11732.1 7457.08 11760.6 Q7471.71 11789 7500.6 11789 Q7529.67 11789 7544.12 11760.6 Q7558.75 11732.1 7558.75 11675.3 Q7558.75 11618.2 7544.12 11589.9 Q7529.67 11561.4 7500.6 11561.4 M7500.6 11531.7 Q7547.08 11531.7 7571.52 11568.6 Q7596.15 11605.3 7596.15 11675.3 Q7596.15 11745.1 7571.52 11781.9 Q7547.08 11818.6 7500.6 11818.6 Q7454.12 11818.6 7429.49 11781.9 Q7405.04 11745.1 7405.04 11675.3 Q7405.04 11605.3 7429.49 11568.6 Q7454.12 11531.7 7500.6 11531.7 Z" fill="#000000" fill-rule="evenodd" fill-opacity="1" /><path clip-path="url(#clip4700)" d="M 0 0 M7636.71 11766.2 L7675.78 11766.2 L7675.78 11813.2 L7636.71 11813.2 L7636.71 11766.2 Z" fill="#000000" fill-rule="evenodd" fill-opacity="1" /><path clip-path="url(#clip4700)" d="M 0 0 M7716.71 11536.7 L7863.56 11536.7 L7863.56 11568.2 L7750.97 11568.2 L7750.97 11636 Q7759.12 11633.2 7767.26 11631.9 Q7775.41 11630.4 7783.56 11630.4 Q7829.86 11630.4 7856.89 11655.8 Q7883.93 11681.2 7883.93 11724.5 Q7883.93 11769.1 7856.15 11794 Q7828.37 11818.6 7777.82 11818.6 Q7760.41 11818.6 7742.26 11815.6 Q7724.3 11812.7 7705.04 11806.7 L7705.04 11769.1 Q7721.71 11778.2 7739.49 11782.7 Q7757.26 11787.1 7777.08 11787.1 Q7809.12 11787.1 7827.82 11770.3 Q7846.52 11753.4 7846.52 11724.5 Q7846.52 11695.6 7827.82 11678.8 Q7809.12 11661.9 7777.08 11661.9 Q7762.08 11661.9 7747.08 11665.3 Q7732.26 11668.6 7716.71 11675.6 L7716.71 11536.7 Z" fill="#000000" fill-rule="evenodd" fill-opacity="1" /><path clip-path="url(#clip4700)" d="M 0 0 M10170 11561.4 Q10141.1 11561.4 10126.5 11589.9 Q10112.1 11618.2 10112.1 11675.3 Q10112.1 11732.1 10126.5 11760.6 Q10141.1 11789 10170 11789 Q10199.1 11789 10213.5 11760.6 Q10228.2 11732.1 10228.2 11675.3 Q10228.2 11618.2 10213.5 11589.9 Q10199.1 11561.4 10170 11561.4 M10170 11531.7 Q10216.5 11531.7 10241 11568.6 Q10265.6 11605.3 10265.6 11675.3 Q10265.6 11745.1 10241 11781.9 Q10216.5 11818.6 10170 11818.6 Q10123.5 11818.6 10098.9 11781.9 Q10074.5 11745.1 10074.5 11675.3 Q10074.5 11605.3 10098.9 11568.6 Q10123.5 11531.7 10170 11531.7 Z" fill="#000000" fill-rule="evenodd" fill-opacity="1" /><path clip-path="url(#clip4700)" d="M 0 0 M10306.1 11766.2 L10345.2 11766.2 L10345.2 11813.2 L10306.1 11813.2 L10306.1 11766.2 Z" fill="#000000" fill-rule="evenodd" fill-opacity="1" /><path clip-path="url(#clip4700)" d="M 0 0 M10470.4 11660.1 Q10445.2 11660.1 10430.4 11677.3 Q10415.8 11694.5 10415.8 11724.5 Q10415.8 11754.3 10430.4 11771.7 Q10445.2 11789 10470.4 11789 Q10495.6 11789 10510.2 11771.7 Q10525 11754.3 10525 11724.5 Q10525 11694.5 10510.2 11677.3 Q10495.6 11660.1 10470.4 11660.1 M10544.7 11542.8 L10544.7 11576.9 Q10530.6 11570.3 10516.1 11566.7 Q10501.9 11563.2 10487.8 11563.2 Q10450.8 11563.2 10431.1 11588.2 Q10411.7 11613.2 10408.9 11663.8 Q10419.8 11647.7 10436.3 11639.1 Q10452.8 11630.4 10472.6 11630.4 Q10514.3 11630.4 10538.4 11655.8 Q10562.6 11681 10562.6 11724.5 Q10562.6 11767.1 10537.4 11792.8 Q10512.2 11818.6 10470.4 11818.6 Q10422.4 11818.6 10397.1 11781.9 Q10371.7 11745.1 10371.7 11675.3 Q10371.7 11609.7 10402.8 11570.8 Q10433.9 11531.7 10486.3 11531.7 Q10500.4 11531.7 10514.7 11534.5 Q10529.1 11537.3 10544.7 11542.8 Z" fill="#000000" fill-rule="evenodd" fill-opacity="1" /><path clip-path="url(#clip4700)" d="M 0 0 M12848.3 11561.4 Q12819.5 11561.4 12804.8 11589.9 Q12790.4 11618.2 12790.4 11675.3 Q12790.4 11732.1 12804.8 11760.6 Q12819.5 11789 12848.3 11789 Q12877.4 11789 12891.9 11760.6 Q12906.5 11732.1 12906.5 11675.3 Q12906.5 11618.2 12891.9 11589.9 Q12877.4 11561.4 12848.3 11561.4 M12848.3 11531.7 Q12894.8 11531.7 12919.3 11568.6 Q12943.9 11605.3 12943.9 11675.3 Q12943.9 11745.1 12919.3 11781.9 Q12894.8 11818.6 12848.3 11818.6 Q12801.9 11818.6 12777.2 11781.9 Q12752.8 11745.1 12752.8 11675.3 Q12752.8 11605.3 12777.2 11568.6 Q12801.9 11531.7 12848.3 11531.7 Z" fill="#000000" fill-rule="evenodd" fill-opacity="1" /><path clip-path="url(#clip4700)" d="M 0 0 M12984.5 11766.2 L13023.5 11766.2 L13023.5 11813.2 L12984.5 11813.2 L12984.5 11766.2 Z" fill="#000000" fill-rule="evenodd" fill-opacity="1" /><path clip-path="url(#clip4700)" d="M 0 0 M13054.6 11536.7 L13232.4 11536.7 L13232.4 11552.7 L13132 11813.2 L13093 11813.2 L13187.4 11568.2 L13054.6 11568.2 L13054.6 11536.7 Z" fill="#000000" fill-rule="evenodd" fill-opacity="1" /><path clip-path="url(#clip4700)" d="M 0 0 M15519.2 11561.4 Q15490.3 11561.4 15475.6 11589.9 Q15461.2 11618.2 15461.2 11675.3 Q15461.2 11732.1 15475.6 11760.6 Q15490.3 11789 15519.2 11789 Q15548.2 11789 15562.7 11760.6 Q15577.3 11732.1 15577.3 11675.3 Q15577.3 11618.2 15562.7 11589.9 Q15548.2 11561.4 15519.2 11561.4 M15519.2 11531.7 Q15565.6 11531.7 15590.1 11568.6 Q15614.7 11605.3 15614.7 11675.3 Q15614.7 11745.1 15590.1 11781.9 Q15565.6 11818.6 15519.2 11818.6 Q15472.7 11818.6 15448 11781.9 Q15423.6 11745.1 15423.6 11675.3 Q15423.6 11605.3 15448 11568.6 Q15472.7 11531.7 15519.2 11531.7 Z" fill="#000000" fill-rule="evenodd" fill-opacity="1" /><path clip-path="url(#clip4700)" d="M 0 0 M15655.3 11766.2 L15694.3 11766.2 L15694.3 11813.2 L15655.3 11813.2 L15655.3 11766.2 Z" fill="#000000" fill-rule="evenodd" fill-opacity="1" /><path clip-path="url(#clip4700)" d="M 0 0 M15814.9 11681.9 Q15788.2 11681.9 15772.9 11696.2 Q15757.7 11710.4 15757.7 11735.4 Q15757.7 11760.4 15772.9 11774.7 Q15788.2 11789 15814.9 11789 Q15841.6 11789 15856.9 11774.7 Q15872.3 11760.3 15872.3 11735.4 Q15872.3 11710.4 15856.9 11696.2 Q15841.8 11681.9 15814.9 11681.9 M15777.5 11666 Q15753.4 11660.1 15739.9 11643.6 Q15726.6 11627.1 15726.6 11603.4 Q15726.6 11570.3 15750.1 11551 Q15773.8 11531.7 15814.9 11531.7 Q15856.2 11531.7 15879.7 11551 Q15903.2 11570.3 15903.2 11603.4 Q15903.2 11627.1 15889.7 11643.6 Q15876.4 11660.1 15852.5 11666 Q15879.5 11672.3 15894.5 11690.6 Q15909.7 11709 15909.7 11735.4 Q15909.7 11775.6 15885.1 11797.1 Q15860.6 11818.6 15814.9 11818.6 Q15769.2 11818.6 15744.5 11797.1 Q15720.1 11775.6 15720.1 11735.4 Q15720.1 11709 15735.3 11690.6 Q15750.5 11672.3 15777.5 11666 M15763.8 11606.9 Q15763.8 11628.4 15777.1 11640.4 Q15790.6 11652.5 15814.9 11652.5 Q15839 11652.5 15852.5 11640.4 Q15866.2 11628.4 15866.2 11606.9 Q15866.2 11585.4 15852.5 11573.4 Q15839 11561.4 15814.9 11561.4 Q15790.6 11561.4 15777.1 11573.4 Q15763.8 11585.4 15763.8 11606.9 Z" fill="#000000" fill-rule="evenodd" fill-opacity="1" /><path clip-path="url(#clip4700)" d="M 0 0 M18193.6 11561.4 Q18164.7 11561.4 18150.1 11589.9 Q18135.6 11618.2 18135.6 11675.3 Q18135.6 11732.1 18150.1 11760.6 Q18164.7 11789 18193.6 11789 Q18222.7 11789 18237.1 11760.6 Q18251.7 11732.1 18251.7 11675.3 Q18251.7 11618.2 18237.1 11589.9 Q18222.7 11561.4 18193.6 11561.4 M18193.6 11531.7 Q18240.1 11531.7 18264.5 11568.6 Q18289.1 11605.3 18289.1 11675.3 Q18289.1 11745.1 18264.5 11781.9 Q18240.1 11818.6 18193.6 11818.6 Q18147.1 11818.6 18122.5 11781.9 Q18098 11745.1 18098 11675.3 Q18098 11605.3 18122.5 11568.6 Q18147.1 11531.7 18193.6 11531.7 Z" fill="#000000" fill-rule="evenodd" fill-opacity="1" /><path clip-path="url(#clip4700)" d="M 0 0 M18329.7 11766.2 L18368.8 11766.2 L18368.8 11813.2 L18329.7 11813.2 L18329.7 11766.2 Z" fill="#000000" fill-rule="evenodd" fill-opacity="1" /><path clip-path="url(#clip4700)" d="M 0 0 M18410.4 11807.5 L18410.4 11773.4 Q18424.5 11780.1 18439 11783.6 Q18453.4 11787.1 18467.3 11787.1 Q18504.3 11787.1 18523.8 11762.3 Q18543.4 11737.3 18546.2 11686.5 Q18535.4 11702.5 18519 11711 Q18502.5 11719.5 18482.5 11719.5 Q18441 11719.5 18416.7 11694.5 Q18392.7 11669.3 18392.7 11625.8 Q18392.7 11583.2 18417.8 11557.5 Q18443 11531.7 18484.9 11531.7 Q18532.8 11531.7 18558 11568.6 Q18583.4 11605.3 18583.4 11675.3 Q18583.4 11740.6 18552.3 11779.7 Q18521.4 11818.6 18469 11818.6 Q18454.9 11818.6 18440.4 11815.8 Q18426 11813 18410.4 11807.5 M18484.9 11690.3 Q18510.1 11690.3 18524.7 11673 Q18539.5 11655.8 18539.5 11625.8 Q18539.5 11596 18524.7 11578.8 Q18510.1 11561.4 18484.9 11561.4 Q18459.7 11561.4 18444.9 11578.8 Q18430.3 11596 18430.3 11625.8 Q18430.3 11655.8 18444.9 11673 Q18459.7 11690.3 18484.9 11690.3 Z" fill="#000000" fill-rule="evenodd" fill-opacity="1" /><path clip-path="url(#clip4700)" d="M 0 0 M1021.93 9921.15 L1121.75 9921.15 L1121.75 9951.52 L1021.93 9951.52 L1021.93 9921.15 Z" fill="#000000" fill-rule="evenodd" fill-opacity="1" /><path clip-path="url(#clip4700)" d="M 0 0 M1168.78 10008.7 L1229.89 10008.7 L1229.89 9797.82 L1163.41 9811.15 L1163.41 9777.08 L1229.52 9763.74 L1266.93 9763.74 L1266.93 10008.7 L1328.04 10008.7 L1328.04 10040.2 L1168.78 10040.2 L1168.78 10008.7 Z" fill="#000000" fill-rule="evenodd" fill-opacity="1" /><path clip-path="url(#clip4700)" d="M 0 0 M1368.6 9993.19 L1407.67 9993.19 L1407.67 10040.2 L1368.6 10040.2 L1368.6 9993.19 Z" fill="#000000" fill-rule="evenodd" fill-opacity="1" /><path clip-path="url(#clip4700)" d="M 0 0 M1528.23 9908.93 Q1501.56 9908.93 1486.19 9923.19 Q1471 9937.44 1471 9962.44 Q1471 9987.44 1486.19 10001.7 Q1501.56 10016 1528.23 10016 Q1554.89 10016 1570.26 10001.7 Q1585.63 9987.26 1585.63 9962.44 Q1585.63 9937.44 1570.26 9923.19 Q1555.08 9908.93 1528.23 9908.93 M1490.82 9893 Q1466.75 9887.07 1453.23 9870.59 Q1439.89 9854.11 1439.89 9830.41 Q1439.89 9797.26 1463.41 9778 Q1487.12 9758.74 1528.23 9758.74 Q1569.52 9758.74 1593.04 9778 Q1616.56 9797.26 1616.56 9830.41 Q1616.56 9854.11 1603.04 9870.59 Q1589.71 9887.07 1565.82 9893 Q1592.86 9899.3 1607.86 9917.63 Q1623.04 9935.96 1623.04 9962.44 Q1623.04 10002.6 1598.41 10024.1 Q1573.97 10045.6 1528.23 10045.6 Q1482.49 10045.6 1457.86 10024.1 Q1433.41 10002.6 1433.41 9962.44 Q1433.41 9935.96 1448.6 9917.63 Q1463.78 9899.3 1490.82 9893 M1477.12 9833.93 Q1477.12 9855.41 1490.45 9867.45 Q1503.97 9879.48 1528.23 9879.48 Q1552.3 9879.48 1565.82 9867.45 Q1579.52 9855.41 1579.52 9833.93 Q1579.52 9812.45 1565.82 9800.41 Q1552.3 9788.37 1528.23 9788.37 Q1503.97 9788.37 1490.45 9800.41 Q1477.12 9812.45 1477.12 9833.93 Z" fill="#000000" fill-rule="evenodd" fill-opacity="1" /><path clip-path="url(#clip4700)" d="M 0 0 M1029.16 8136.48 L1128.97 8136.48 L1128.97 8166.85 L1029.16 8166.85 L1029.16 8136.48 Z" fill="#000000" fill-rule="evenodd" fill-opacity="1" /><path clip-path="url(#clip4700)" d="M 0 0 M1176.01 8224.08 L1237.12 8224.08 L1237.12 8013.15 L1170.64 8026.49 L1170.64 7992.41 L1236.75 7979.08 L1274.15 7979.08 L1274.15 8224.08 L1335.26 8224.08 L1335.26 8255.56 L1176.01 8255.56 L1176.01 8224.08 Z" fill="#000000" fill-rule="evenodd" fill-opacity="1" /><path clip-path="url(#clip4700)" d="M 0 0 M1375.82 8208.52 L1414.89 8208.52 L1414.89 8255.56 L1375.82 8255.56 L1375.82 8208.52 Z" fill="#000000" fill-rule="evenodd" fill-opacity="1" /><path clip-path="url(#clip4700)" d="M 0 0 M1455.82 7979.08 L1602.67 7979.08 L1602.67 8010.56 L1490.08 8010.56 L1490.08 8078.34 Q1498.23 8075.56 1506.37 8074.26 Q1514.52 8072.78 1522.67 8072.78 Q1568.97 8072.78 1596 8098.15 Q1623.04 8123.52 1623.04 8166.85 Q1623.04 8211.48 1595.26 8236.3 Q1567.49 8260.93 1516.93 8260.93 Q1499.52 8260.93 1481.38 8257.97 Q1463.41 8255 1444.15 8249.08 L1444.15 8211.48 Q1460.82 8220.56 1478.6 8225 Q1496.37 8229.45 1516.19 8229.45 Q1548.23 8229.45 1566.93 8212.6 Q1585.63 8195.74 1585.63 8166.85 Q1585.63 8137.97 1566.93 8121.11 Q1548.23 8104.26 1516.19 8104.26 Q1501.19 8104.26 1486.19 8107.6 Q1471.38 8110.93 1455.82 8117.97 L1455.82 7979.08 Z" fill="#000000" fill-rule="evenodd" fill-opacity="1" /><path clip-path="url(#clip4700)" d="M 0 0 M1033.97 6351.82 L1133.78 6351.82 L1133.78 6382.19 L1033.97 6382.19 L1033.97 6351.82 Z" fill="#000000" fill-rule="evenodd" fill-opacity="1" /><path clip-path="url(#clip4700)" d="M 0 0 M1180.82 6439.41 L1241.93 6439.41 L1241.93 6228.49 L1175.45 6241.82 L1175.45 6207.75 L1241.56 6194.41 L1278.97 6194.41 L1278.97 6439.41 L1340.08 6439.41 L1340.08 6470.89 L1180.82 6470.89 L1180.82 6439.41 Z" fill="#000000" fill-rule="evenodd" fill-opacity="1" /><path clip-path="url(#clip4700)" d="M 0 0 M1380.63 6423.86 L1419.71 6423.86 L1419.71 6470.89 L1380.63 6470.89 L1380.63 6423.86 Z" fill="#000000" fill-rule="evenodd" fill-opacity="1" /><path clip-path="url(#clip4700)" d="M 0 0 M1492.49 6439.41 L1623.04 6439.41 L1623.04 6470.89 L1447.49 6470.89 L1447.49 6439.41 Q1468.78 6417.38 1505.45 6380.34 Q1542.3 6343.12 1551.75 6332.38 Q1569.71 6312.19 1576.74 6298.3 Q1583.97 6284.23 1583.97 6270.71 Q1583.97 6248.67 1568.41 6234.78 Q1553.04 6220.9 1528.23 6220.9 Q1510.63 6220.9 1491 6227.01 Q1471.56 6233.12 1449.34 6245.52 L1449.34 6207.75 Q1471.93 6198.67 1491.56 6194.04 Q1511.19 6189.41 1527.49 6189.41 Q1570.45 6189.41 1596 6210.9 Q1621.56 6232.38 1621.56 6268.3 Q1621.56 6285.34 1615.08 6300.71 Q1608.78 6315.89 1591.93 6336.64 Q1587.3 6342.01 1562.49 6367.75 Q1537.67 6393.3 1492.49 6439.41 Z" fill="#000000" fill-rule="evenodd" fill-opacity="1" /><path clip-path="url(#clip4700)" d="M 0 0 M1012.86 4567.16 L1112.67 4567.16 L1112.67 4597.53 L1012.86 4597.53 L1012.86 4567.16 Z" fill="#000000" fill-rule="evenodd" fill-opacity="1" /><path clip-path="url(#clip4700)" d="M 0 0 M1233.23 4434.38 Q1204.34 4434.38 1189.71 4462.9 Q1175.27 4491.23 1175.27 4548.27 Q1175.27 4605.12 1189.71 4633.64 Q1204.34 4661.97 1233.23 4661.97 Q1262.3 4661.97 1276.75 4633.64 Q1291.38 4605.12 1291.38 4548.27 Q1291.38 4491.23 1276.75 4462.9 Q1262.3 4434.38 1233.23 4434.38 M1233.23 4404.75 Q1279.71 4404.75 1304.15 4441.6 Q1328.78 4478.27 1328.78 4548.27 Q1328.78 4618.08 1304.15 4654.93 Q1279.71 4691.6 1233.23 4691.6 Q1186.75 4691.6 1162.12 4654.93 Q1137.67 4618.08 1137.67 4548.27 Q1137.67 4478.27 1162.12 4441.6 Q1186.75 4404.75 1233.23 4404.75 Z" fill="#000000" fill-rule="evenodd" fill-opacity="1" /><path clip-path="url(#clip4700)" d="M 0 0 M1369.34 4639.19 L1408.41 4639.19 L1408.41 4686.23 L1369.34 4686.23 L1369.34 4639.19 Z" fill="#000000" fill-rule="evenodd" fill-opacity="1" /><path clip-path="url(#clip4700)" d="M 0 0 M1450.08 4680.49 L1450.08 4646.42 Q1464.15 4653.08 1478.6 4656.6 Q1493.04 4660.12 1506.93 4660.12 Q1543.97 4660.12 1563.41 4635.3 Q1583.04 4610.3 1585.82 4559.56 Q1575.08 4575.49 1558.6 4584.01 Q1542.12 4592.53 1522.12 4592.53 Q1480.63 4592.53 1456.38 4567.53 Q1432.3 4542.34 1432.3 4498.82 Q1432.3 4456.23 1457.49 4430.49 Q1482.67 4404.75 1524.52 4404.75 Q1572.49 4404.75 1597.67 4441.6 Q1623.04 4478.27 1623.04 4548.27 Q1623.04 4613.64 1591.93 4652.71 Q1561 4691.6 1508.6 4691.6 Q1494.52 4691.6 1480.08 4688.82 Q1465.63 4686.04 1450.08 4680.49 M1524.52 4563.27 Q1549.71 4563.27 1564.34 4546.05 Q1579.15 4528.82 1579.15 4498.82 Q1579.15 4469.01 1564.34 4451.79 Q1549.71 4434.38 1524.52 4434.38 Q1499.34 4434.38 1484.52 4451.79 Q1469.89 4469.01 1469.89 4498.82 Q1469.89 4528.82 1484.52 4546.05 Q1499.34 4563.27 1524.52 4563.27 Z" fill="#000000" fill-rule="evenodd" fill-opacity="1" /><path clip-path="url(#clip4700)" d="M 0 0 M1010.08 2782.49 L1109.9 2782.49 L1109.9 2812.86 L1010.08 2812.86 L1010.08 2782.49 Z" fill="#000000" fill-rule="evenodd" fill-opacity="1" /><path clip-path="url(#clip4700)" d="M 0 0 M1230.45 2649.72 Q1201.56 2649.72 1186.93 2678.23 Q1172.49 2706.57 1172.49 2763.6 Q1172.49 2820.46 1186.93 2848.97 Q1201.56 2877.31 1230.45 2877.31 Q1259.52 2877.31 1273.97 2848.97 Q1288.6 2820.46 1288.6 2763.6 Q1288.6 2706.57 1273.97 2678.23 Q1259.52 2649.72 1230.45 2649.72 M1230.45 2620.09 Q1276.93 2620.09 1301.38 2656.94 Q1326.01 2693.6 1326.01 2763.6 Q1326.01 2833.42 1301.38 2870.27 Q1276.93 2906.94 1230.45 2906.94 Q1183.97 2906.94 1159.34 2870.27 Q1134.9 2833.42 1134.9 2763.6 Q1134.9 2693.6 1159.34 2656.94 Q1183.97 2620.09 1230.45 2620.09 Z" fill="#000000" fill-rule="evenodd" fill-opacity="1" /><path clip-path="url(#clip4700)" d="M 0 0 M1366.56 2854.53 L1405.63 2854.53 L1405.63 2901.57 L1366.56 2901.57 L1366.56 2854.53 Z" fill="#000000" fill-rule="evenodd" fill-opacity="1" /><path clip-path="url(#clip4700)" d="M 0 0 M1530.82 2748.42 Q1505.63 2748.42 1490.82 2765.64 Q1476.19 2782.86 1476.19 2812.86 Q1476.19 2842.68 1490.82 2860.08 Q1505.63 2877.31 1530.82 2877.31 Q1556 2877.31 1570.63 2860.08 Q1585.45 2842.68 1585.45 2812.86 Q1585.45 2782.86 1570.63 2765.64 Q1556 2748.42 1530.82 2748.42 M1605.08 2631.2 L1605.08 2665.27 Q1591 2658.6 1576.56 2655.09 Q1562.3 2651.57 1548.23 2651.57 Q1511.19 2651.57 1491.56 2676.57 Q1472.12 2701.57 1469.34 2752.12 Q1480.26 2736.01 1496.75 2727.49 Q1513.23 2718.79 1533.04 2718.79 Q1574.71 2718.79 1598.78 2744.16 Q1623.04 2769.34 1623.04 2812.86 Q1623.04 2855.46 1597.86 2881.2 Q1572.67 2906.94 1530.82 2906.94 Q1482.86 2906.94 1457.49 2870.27 Q1432.12 2833.42 1432.12 2763.6 Q1432.12 2698.05 1463.23 2659.16 Q1494.34 2620.09 1546.75 2620.09 Q1560.82 2620.09 1575.08 2622.86 Q1589.52 2625.64 1605.08 2631.2 Z" fill="#000000" fill-rule="evenodd" fill-opacity="1" /><path clip-path="url(#clip4700)" d="M 0 0 M5905.49 96.768 L6211.41 96.768 L6211.41 151.86 L5970.95 151.86 L5970.95 295.1 L6201.37 295.1 L6201.37 350.193 L5970.95 350.193 L5970.95 525.516 L6217.25 525.516 L6217.25 580.608 L5905.49 580.608 L5905.49 96.768 Z" fill="#000000" fill-rule="evenodd" fill-opacity="1" /><path clip-path="url(#clip4700)" d="M 0 0 M6555.58 690.793 L6555.58 737.135 L6210.77 737.135 L6210.77 690.793 L6555.58 690.793 Z" fill="#000000" fill-rule="evenodd" fill-opacity="1" /><path clip-path="url(#clip4700)" d="M 0 0 M6849.51 228.341 L6849.51 284.73 Q6824.23 271.767 6797.01 265.286 Q6769.79 258.804 6740.62 258.804 Q6696.23 258.804 6673.86 272.415 Q6651.83 286.026 6651.83 313.248 Q6651.83 333.989 6667.71 345.98 Q6683.59 357.646 6731.55 368.341 L6751.97 372.878 Q6815.48 386.489 6842.06 411.442 Q6868.96 436.072 6868.96 480.47 Q6868.96 531.025 6828.77 560.516 Q6788.91 590.006 6718.91 590.006 Q6689.74 590.006 6657.99 584.173 Q6626.55 578.664 6591.55 567.321 L6591.55 505.747 Q6624.61 522.923 6656.69 531.673 Q6688.77 540.099 6720.21 540.099 Q6762.34 540.099 6785.02 525.84 Q6807.71 511.257 6807.71 485.007 Q6807.71 460.701 6791.18 447.738 Q6774.98 434.775 6719.56 422.785 L6698.82 417.924 Q6643.4 406.257 6618.77 382.276 Q6594.14 357.97 6594.14 315.841 Q6594.14 264.637 6630.44 236.767 Q6666.73 208.897 6733.49 208.897 Q6766.55 208.897 6795.72 213.758 Q6824.88 218.619 6849.51 228.341 Z" fill="#000000" fill-rule="evenodd" fill-opacity="1" /><path clip-path="url(#clip4700)" d="M 0 0 M6931.5 217.647 L6991.13 217.647 L6991.13 580.608 L6931.5 580.608 L6931.5 217.647 M6931.5 76.3514 L6991.13 76.3514 L6991.13 151.86 L6931.5 151.86 L6931.5 76.3514 Z" fill="#000000" fill-rule="evenodd" fill-opacity="1" /><path clip-path="url(#clip4700)" d="M 0 0 M7112.66 114.592 L7112.66 217.647 L7235.48 217.647 L7235.48 263.989 L7112.66 263.989 L7112.66 461.025 Q7112.66 505.423 7124.65 518.062 Q7136.96 530.701 7174.23 530.701 L7235.48 530.701 L7235.48 580.608 L7174.23 580.608 Q7105.2 580.608 7078.95 555.006 Q7052.71 529.08 7052.71 461.025 L7052.71 263.989 L7008.96 263.989 L7008.96 217.647 L7052.71 217.647 L7052.71 114.592 L7112.66 114.592 Z" fill="#000000" fill-rule="evenodd" fill-opacity="1" /><path clip-path="url(#clip4700)" d="M 0 0 M7608.49 384.22 L7608.49 413.387 L7334.32 413.387 Q7338.21 474.96 7371.27 507.368 Q7404.65 539.451 7463.95 539.451 Q7498.3 539.451 7530.39 531.025 Q7562.79 522.599 7594.55 505.747 L7594.55 562.136 Q7562.47 575.747 7528.77 582.877 Q7495.06 590.006 7460.39 590.006 Q7373.54 590.006 7322.66 539.451 Q7272.1 488.896 7272.1 402.692 Q7272.1 313.572 7320.06 261.397 Q7368.35 208.897 7450.02 208.897 Q7523.26 208.897 7565.71 256.212 Q7608.49 303.202 7608.49 384.22 M7548.86 366.72 Q7548.21 317.785 7521.31 288.619 Q7494.74 259.452 7450.67 259.452 Q7400.76 259.452 7370.62 287.647 Q7340.81 315.841 7336.27 367.044 L7548.86 366.72 Z" fill="#000000" fill-rule="evenodd" fill-opacity="1" /><path clip-path="url(#clip4700)" d="M 0 0 M7897.24 498.294 L7965.62 498.294 L7965.62 580.608 L7897.24 580.608 L7897.24 498.294 M7897.24 237.415 L7965.62 237.415 L7965.62 319.73 L7897.24 319.73 L7897.24 237.415 Z" fill="#000000" fill-rule="evenodd" fill-opacity="1" /><path clip-path="url(#clip4700)" d="M 0 0 M8395.66 312.6 Q8351.59 312.6 8325.66 342.739 Q8300.06 372.878 8300.06 425.377 Q8300.06 477.553 8325.66 508.016 Q8351.59 538.155 8395.66 538.155 Q8439.73 538.155 8465.34 508.016 Q8491.26 477.553 8491.26 425.377 Q8491.26 372.878 8465.34 342.739 Q8439.73 312.6 8395.66 312.6 M8525.61 107.462 L8525.61 167.092 Q8500.98 155.425 8475.71 149.268 Q8450.75 143.11 8426.12 143.11 Q8361.31 143.11 8326.96 186.86 Q8292.93 230.61 8288.07 319.082 Q8307.19 290.887 8336.03 275.98 Q8364.87 260.749 8399.55 260.749 Q8472.47 260.749 8514.6 305.147 Q8557.05 349.22 8557.05 425.377 Q8557.05 499.914 8512.98 544.96 Q8468.9 590.006 8395.66 590.006 Q8311.73 590.006 8267.33 525.84 Q8222.93 461.349 8222.93 339.174 Q8222.93 224.453 8277.37 156.397 Q8331.82 88.018 8423.53 88.018 Q8448.16 88.018 8473.11 92.8791 Q8498.39 97.7402 8525.61 107.462 Z" fill="#000000" fill-rule="evenodd" fill-opacity="1" /><path clip-path="url(#clip4700)" d="M 0 0 M8869.13 176.49 L8752.79 239.36 L8869.13 302.554 L8850.33 334.313 L8741.45 268.526 L8741.45 390.702 L8704.5 390.702 L8704.5 268.526 L8595.61 334.313 L8576.82 302.554 L8693.16 239.36 L8576.82 176.49 L8595.61 144.407 L8704.5 210.193 L8704.5 88.018 L8741.45 88.018 L8741.45 210.193 L8850.33 144.407 L8869.13 176.49 Z" fill="#000000" fill-rule="evenodd" fill-opacity="1" /><path clip-path="url(#clip4700)" d="M 0 0 M9088.2 312.6 Q9044.13 312.6 9018.2 342.739 Q8992.6 372.878 8992.6 425.377 Q8992.6 477.553 9018.2 508.016 Q9044.13 538.155 9088.2 538.155 Q9132.28 538.155 9157.88 508.016 Q9183.8 477.553 9183.8 425.377 Q9183.8 372.878 9157.88 342.739 Q9132.28 312.6 9088.2 312.6 M9218.16 107.462 L9218.16 167.092 Q9193.53 155.425 9168.25 149.268 Q9143.3 143.11 9118.67 143.11 Q9053.85 143.11 9019.5 186.86 Q8985.47 230.61 8980.61 319.082 Q8999.73 290.887 9028.57 275.98 Q9057.42 260.749 9092.09 260.749 Q9165.01 260.749 9207.14 305.147 Q9249.59 349.22 9249.59 425.377 Q9249.59 499.914 9205.52 544.96 Q9161.44 590.006 9088.2 590.006 Q9004.27 590.006 8959.87 525.84 Q8915.47 461.349 8915.47 339.174 Q8915.47 224.453 8969.92 156.397 Q9024.36 88.018 9116.07 88.018 Q9140.7 88.018 9165.66 92.8791 Q9190.93 97.7402 9218.16 107.462 Z" fill="#000000" fill-rule="evenodd" fill-opacity="1" /><path clip-path="url(#clip4700)" d="M 0 0 M9327.37 498.294 L9395.75 498.294 L9395.75 554.034 L9342.6 657.737 L9300.79 657.737 L9327.37 554.034 L9327.37 498.294 Z" fill="#000000" fill-rule="evenodd" fill-opacity="1" /><path clip-path="url(#clip4700)" d="M 0 0 M9868.25 141.166 Q9796.95 141.166 9754.82 194.314 Q9713.01 247.462 9713.01 339.174 Q9713.01 430.563 9754.82 483.71 Q9796.95 536.858 9868.25 536.858 Q9939.54 536.858 9981.02 483.71 Q10022.8 430.563 10022.8 339.174 Q10022.8 247.462 9981.02 194.314 Q9939.54 141.166 9868.25 141.166 M9959.96 571.858 L10046.2 666.163 L9967.09 666.163 L9895.47 588.71 Q9884.77 589.358 9878.94 589.682 Q9873.43 590.006 9868.25 590.006 Q9766.16 590.006 9704.91 521.951 Q9643.99 453.572 9643.99 339.174 Q9643.99 224.453 9704.91 156.397 Q9766.16 88.018 9868.25 88.018 Q9970 88.018 10030.9 156.397 Q10091.9 224.453 10091.9 339.174 Q10091.9 423.433 10057.8 483.386 Q10024.1 543.34 9959.96 571.858 Z" fill="#000000" fill-rule="evenodd" fill-opacity="1" /><path clip-path="url(#clip4700)" d="M 0 0 M10373.2 279.221 L10788.6 279.221 L10788.6 333.665 L10373.2 333.665 L10373.2 279.221 M10373.2 411.442 L10788.6 411.442 L10788.6 466.535 L10373.2 466.535 L10373.2 411.442 Z" fill="#000000" fill-rule="evenodd" fill-opacity="1" /><path clip-path="url(#clip4700)" d="M 0 0 M11081.9 525.516 L11188.8 525.516 L11188.8 156.397 L11072.5 179.731 L11072.5 120.101 L11188.2 96.768 L11253.7 96.768 L11253.7 525.516 L11360.6 525.516 L11360.6 580.608 L11081.9 580.608 L11081.9 525.516 Z" fill="#000000" fill-rule="evenodd" fill-opacity="1" /><path clip-path="url(#clip4700)" d="M 0 0 M11579.7 312.6 Q11535.6 312.6 11509.7 342.739 Q11484.1 372.878 11484.1 425.377 Q11484.1 477.553 11509.7 508.016 Q11535.6 538.155 11579.7 538.155 Q11623.7 538.155 11649.3 508.016 Q11675.3 477.553 11675.3 425.377 Q11675.3 372.878 11649.3 342.739 Q11623.7 312.6 11579.7 312.6 M11709.6 107.462 L11709.6 167.092 Q11685 155.425 11659.7 149.268 Q11634.8 143.11 11610.1 143.11 Q11545.3 143.11 11511 186.86 Q11476.9 230.61 11472.1 319.082 Q11491.2 290.887 11520 275.98 Q11548.9 260.749 11583.6 260.749 Q11656.5 260.749 11698.6 305.147 Q11741.1 349.22 11741.1 425.377 Q11741.1 499.914 11697 544.96 Q11652.9 590.006 11579.7 590.006 Q11495.7 590.006 11451.3 525.84 Q11406.9 461.349 11406.9 339.174 Q11406.9 224.453 11461.4 156.397 Q11515.8 88.018 11607.5 88.018 Q11632.2 88.018 11657.1 92.8791 Q11682.4 97.7402 11709.6 107.462 Z" fill="#000000" fill-rule="evenodd" fill-opacity="1" /><path clip-path="url(#clip4700)" d="M 0 0 M11818.8 498.294 L11887.2 498.294 L11887.2 554.034 L11834.1 657.737 L11792.3 657.737 L11818.8 554.034 L11818.8 498.294 Z" fill="#000000" fill-rule="evenodd" fill-opacity="1" /><path clip-path="url(#clip4700)" d="M 0 0 M12163.3 96.768 L12228.8 96.768 L12228.8 546.904 Q12228.8 634.404 12195.4 673.941 Q12162.4 713.478 12088.8 713.478 L12063.8 713.478 L12063.8 658.385 L12084.3 658.385 Q12127.7 658.385 12145.5 634.08 Q12163.3 609.775 12163.3 546.904 L12163.3 96.768 Z" fill="#000000" fill-rule="evenodd" fill-opacity="1" /><path clip-path="url(#clip4700)" d="M 0 0 M12567.1 690.793 L12567.1 737.135 L12222.3 737.135 L12222.3 690.793 L12567.1 690.793 Z" fill="#000000" fill-rule="evenodd" fill-opacity="1" /><path clip-path="url(#clip4700)" d="M 0 0 M12778.1 139.87 Q12727.5 139.87 12701.9 189.777 Q12676.7 239.36 12676.7 339.174 Q12676.7 438.664 12701.9 488.571 Q12727.5 538.155 12778.1 538.155 Q12829 538.155 12854.2 488.571 Q12879.8 438.664 12879.8 339.174 Q12879.8 239.36 12854.2 189.777 Q12829 139.87 12778.1 139.87 M12778.1 88.018 Q12859.4 88.018 12902.2 152.508 Q12945.3 216.675 12945.3 339.174 Q12945.3 461.349 12902.2 525.84 Q12859.4 590.006 12778.1 590.006 Q12696.7 590.006 12653.6 525.84 Q12610.9 461.349 12610.9 339.174 Q12610.9 216.675 12653.6 152.508 Q12696.7 88.018 12778.1 88.018 Z" fill="#000000" fill-rule="evenodd" fill-opacity="1" /><path clip-path="url(#clip4700)" d="M 0 0 M13226.6 279.221 L13642.1 279.221 L13642.1 333.665 L13226.6 333.665 L13226.6 279.221 M13226.6 411.442 L13642.1 411.442 L13642.1 466.535 L13226.6 466.535 L13226.6 411.442 Z" fill="#000000" fill-rule="evenodd" fill-opacity="1" /><path clip-path="url(#clip4700)" d="M 0 0 M13935.4 525.516 L14042.3 525.516 L14042.3 156.397 L13926 179.731 L13926 120.101 L14041.6 96.768 L14107.1 96.768 L14107.1 525.516 L14214.1 525.516 L14214.1 580.608 L13935.4 580.608 L13935.4 525.516 Z" fill="#000000" fill-rule="evenodd" fill-opacity="1" /><path clip-path="url(#clip4700)" d="M 0 0 M14285 498.294 L14353.4 498.294 L14353.4 580.608 L14285 580.608 L14285 498.294 Z" fill="#000000" fill-rule="evenodd" fill-opacity="1" /><path clip-path="url(#clip4700)" d="M 0 0 M14564.4 139.87 Q14513.8 139.87 14488.2 189.777 Q14462.9 239.36 14462.9 339.174 Q14462.9 438.664 14488.2 488.571 Q14513.8 538.155 14564.4 538.155 Q14615.3 538.155 14640.5 488.571 Q14666.1 438.664 14666.1 339.174 Q14666.1 239.36 14640.5 189.777 Q14615.3 139.87 14564.4 139.87 M14564.4 88.018 Q14645.7 88.018 14688.5 152.508 Q14731.6 216.675 14731.6 339.174 Q14731.6 461.349 14688.5 525.84 Q14645.7 590.006 14564.4 590.006 Q14483 590.006 14439.9 525.84 Q14397.2 461.349 14397.2 339.174 Q14397.2 216.675 14439.9 152.508 Q14483 88.018 14564.4 88.018 Z" fill="#000000" fill-rule="evenodd" fill-opacity="1" /><path clip-path="url(#clip4700)" d="M 0 0 M10157.7 12068.2 L10479.3 12068.2 L10479.3 12111.5 L10344.4 12111.5 L10344.4 12448.4 L10292.7 12448.4 L10292.7 12111.5 L10157.7 12111.5 L10157.7 12068.2 Z" fill="#000000" fill-rule="evenodd" fill-opacity="1" /><path clip-path="url(#clip4700)" d="M 0 0 M323.873 6855.64 L323.873 6615.27 L367.16 6615.27 L367.16 6804.21 L479.706 6804.21 L479.706 6623.17 L522.993 6623.17 L522.993 6804.21 L660.746 6804.21 L660.746 6610.69 L704.033 6610.69 L704.033 6855.64 L323.873 6855.64 Z" fill="#000000" fill-rule="evenodd" fill-opacity="1" /><path clip-path="url(#clip4700)" d="M 0 0 M790.607 6344.86 L827.019 6344.86 L827.019 6615.78 L790.607 6615.78 L790.607 6344.86 Z" fill="#000000" fill-rule="evenodd" fill-opacity="1" /><path clip-path="url(#clip4700)" d="M 0 0 M427.252 6113.91 L471.558 6113.91 Q461.373 6133.77 456.28 6155.16 Q451.187 6176.55 451.187 6199.47 Q451.187 6234.35 461.882 6251.92 Q472.576 6269.23 493.965 6269.23 Q510.261 6269.23 519.682 6256.76 Q528.849 6244.28 537.252 6206.6 L540.817 6190.55 Q551.511 6140.65 571.117 6119.77 Q590.469 6098.63 625.353 6098.63 Q665.075 6098.63 688.246 6130.21 Q711.417 6161.53 711.417 6216.53 Q711.417 6239.44 706.834 6264.4 Q702.505 6289.1 693.594 6316.6 L645.214 6316.6 Q658.709 6290.62 665.584 6265.42 Q672.205 6240.21 672.205 6215.51 Q672.205 6182.41 661.001 6164.58 Q649.543 6146.76 628.918 6146.76 Q609.821 6146.76 599.636 6159.74 Q589.451 6172.48 580.029 6216.02 L576.21 6232.31 Q567.043 6275.86 548.201 6295.21 Q529.104 6314.56 496.002 6314.56 Q455.771 6314.56 433.873 6286.04 Q411.975 6257.52 411.975 6205.07 Q411.975 6179.1 415.794 6156.18 Q419.613 6133.26 427.252 6113.91 Z" fill="#000000" fill-rule="evenodd" fill-opacity="1" /><path clip-path="url(#clip4700)" d="M 0 0 M418.85 6049.49 L418.85 6002.64 L704.033 6002.64 L704.033 6049.49 L418.85 6049.49 M307.832 6049.49 L307.832 6002.64 L367.16 6002.64 L367.16 6049.49 L307.832 6049.49 Z" fill="#000000" fill-rule="evenodd" fill-opacity="1" /><path clip-path="url(#clip4700)" d="M 0 0 M337.878 5907.15 L418.85 5907.15 L418.85 5810.65 L455.261 5810.65 L455.261 5907.15 L610.075 5907.15 Q644.96 5907.15 654.89 5897.73 Q664.821 5888.06 664.821 5858.77 L664.821 5810.65 L704.033 5810.65 L704.033 5858.77 Q704.033 5913.01 683.918 5933.63 Q663.547 5954.26 610.075 5954.26 L455.261 5954.26 L455.261 5988.63 L418.85 5988.63 L418.85 5954.26 L337.878 5954.26 L337.878 5907.15 Z" fill="#000000" fill-rule="evenodd" fill-opacity="1" /><path clip-path="url(#clip4700)" d="M 0 0 M549.729 5517.57 L572.645 5517.57 L572.645 5732.99 Q621.024 5729.93 646.487 5703.96 Q671.695 5677.73 671.695 5631.14 Q671.695 5604.15 665.075 5578.94 Q658.455 5553.47 645.214 5528.52 L689.519 5528.52 Q700.214 5553.73 705.816 5580.21 Q711.417 5606.69 711.417 5633.94 Q711.417 5702.18 671.695 5742.15 Q631.973 5781.88 564.242 5781.88 Q494.22 5781.88 453.224 5744.19 Q411.975 5706.25 411.975 5642.09 Q411.975 5584.54 449.15 5551.18 Q486.071 5517.57 549.729 5517.57 M535.979 5564.42 Q497.53 5564.93 474.613 5586.07 Q451.697 5606.95 451.697 5641.58 Q451.697 5680.79 473.849 5704.47 Q496.002 5727.9 536.233 5731.46 L535.979 5564.42 Z" fill="#000000" fill-rule="evenodd" fill-opacity="1" /><polyline clip-path="url(#clip4702)" style="stroke:#009af9; stroke-width:32; stroke-opacity:1; fill:none" points="
  4970.43,11073.6 5105.48,11072.2 5240.54,11068.8 5375.59,11067.6 5510.64,11064.5 5645.7,11060.4 5780.75,11056.4 5915.8,11051.4 6050.86,11048.6 6185.91,11043 
  6320.96,11038.2 6456.02,11033.9 6591.07,11024.4 6726.12,11017 6861.18,11010.4 6996.23,11003 7131.28,10993.6 7266.34,10984.6 7401.39,10968 7536.44,10959.6 
  7671.5,10947.9 7806.55,10931.9 7941.6,10918.1 8076.66,10905.7 8211.71,10883.3 8346.76,10862.9 8481.82,10842.7 8616.87,10829.7 8751.92,10798.7 8886.98,10777 
  9022.03,10747.8 9157.08,10711.8 9292.14,10672.8 9427.19,10636.9 9562.24,10612.1 9697.3,10559.2 9832.35,10513.7 9967.41,10453.6 10102.5,10410.6 10237.5,10295 
  10372.6,10236 10507.6,10060.8 10642.7,9936.45 10777.7,9724.06 10912.8,9376.82 11047.8,8951.74 11182.9,8373.98 11317.9,8053.93 11453,7313.31 11588,6192.91 
  11723.1,5599.22 11858.2,4750.8 11993.2,4144.82 12128.3,3643.37 12263.3,3271 12398.4,3008.46 12533.4,2713.49 12668.5,2568.86 12803.5,2490.12 12938.6,2357.63 
  13073.6,2317.33 13208.7,2221.92 13343.7,2137.48 13478.8,2114.09 13613.8,2084.36 13748.9,2028.29 13884,1998.49 14019,1944.32 14154.1,1905.11 14289.1,1890.08 
  14424.2,1851.56 14559.2,1817.92 14694.3,1792.31 14829.3,1761.36 14964.4,1739.54 15099.4,1712.31 15234.5,1683.08 15369.5,1662.12 15504.6,1644.52 15639.6,1623.26 
  15774.7,1599.39 15909.8,1582.66 16044.8,1560.85 16179.9,1540.95 16314.9,1521.32 16450,1501.9 16585,1481.93 16720.1,1464.27 16855.1,1445.35 16990.2,1434.76 
  17125.2,1414.03 17260.3,1399.36 17395.3,1380.54 17530.4,1366.79 17665.4,1353.12 17800.5,1340.62 17935.6,1323.49 18070.6,1313.64 18205.7,1298.07 18340.7,1282.05 
  
  "/>
<polyline clip-path="url(#clip4702)" style="stroke:#e26f46; stroke-width:32; stroke-opacity:1; fill:none" points="
  4970.43,11055.9 5105.48,11052.6 5240.54,11044.7 5375.59,11040.6 5510.64,11035.4 5645.7,11028.5 5780.75,11023.2 5915.8,11013.3 6050.86,11005.9 6185.91,11000 
  6320.96,10991.9 6456.02,10977.5 6591.07,10968.3 6726.12,10951.7 6861.18,10940.3 6996.23,10929.9 7131.28,10915.7 7266.34,10894.3 7401.39,10877.4 7536.44,10857.6 
  7671.5,10842.8 7806.55,10819.3 7941.6,10790.9 8076.66,10764.2 8211.71,10742.9 8346.76,10716 8481.82,10676.5 8616.87,10638.2 8751.92,10591.1 8886.98,10539.7 
  9022.03,10506.8 9157.08,10456.2 9292.14,10398.2 9427.19,10312.6 9562.24,10233.9 9697.3,10137.6 9832.35,10012 9967.41,9864.39 10102.5,9621.81 10237.5,9391.56 
  10372.6,8976.56 10507.6,8489.85 10642.7,7968.83 10777.7,7309.12 10912.8,6589.51 11047.8,5959.51 11182.9,5053.9 11317.9,4580.04 11453,4064.55 11588,3837.13 
  11723.1,3500.5 11858.2,3246.14 11993.2,3109.23 12128.3,2942.93 12263.3,2866.11 12398.4,2788.7 12533.4,2709.68 12668.5,2653.33 12803.5,2593.76 12938.6,2534.35 
  13073.6,2505.2 13208.7,2441.75 13343.7,2411.16 13478.8,2369.57 13613.8,2329.21 13748.9,2294.89 13884,2263.35 14019,2237.29 14154.1,2203.49 14289.1,2177.99 
  14424.2,2146.06 14559.2,2121.51 14694.3,2095.8 14829.3,2069.47 14964.4,2052.29 15099.4,2030.25 15234.5,2002.25 15369.5,1988.51 15504.6,1964.76 15639.6,1946.11 
  15774.7,1925.89 15909.8,1907.19 16044.8,1889.32 16179.9,1868.66 16314.9,1853.83 16450,1835.31 16585,1816.72 16720.1,1804.78 16855.1,1786.8 16990.2,1770.96 
  17125.2,1751.73 17260.3,1742.84 17395.3,1723.47 17530.4,1714.58 17665.4,1696.99 17800.5,1685.7 17935.6,1672.4 18070.6,1658.85 18205.7,1647.27 18340.7,1635.74 
  
  "/>
<polyline clip-path="url(#clip4702)" style="stroke:#3da44d; stroke-width:32; stroke-opacity:1; fill:none" points="
  4970.43,10866.2 5105.48,10841.5 5240.54,10825 5375.59,10795.1 5510.64,10774.4 5645.7,10754.7 5780.75,10730.7 5915.8,10708.8 6050.86,10674.4 6185.91,10644.9 
  6320.96,10602.7 6456.02,10566.5 6591.07,10534.3 6726.12,10501 6861.18,10455.7 6996.23,10398 7131.28,10358.3 7266.34,10296.5 7401.39,10248.4 7536.44,10191.6 
  7671.5,10136.4 7806.55,10043.8 7941.6,9980.86 8076.66,9901.59 8211.71,9820.26 8346.76,9736.04 8481.82,9654.3 8616.87,9537.46 8751.92,9433.32 8886.98,9325.69 
  9022.03,9199.37 9157.08,9063.91 9292.14,8845.42 9427.19,8711.14 9562.24,8491.69 9697.3,8355.67 9832.35,8059.64 9967.41,7827.11 10102.5,7490.87 10237.5,7144.82 
  10372.6,6880.31 10507.6,6475.65 10642.7,6175.57 10777.7,5908.37 10912.8,5568.98 11047.8,5226.49 11182.9,4962.97 11317.9,4716.65 11453,4549.57 11588,4341.58 
  11723.1,4171.07 11858.2,4040.51 11993.2,3927.26 12128.3,3787.92 12263.3,3669.71 12398.4,3614.1 12533.4,3528.91 12668.5,3435.69 12803.5,3367.71 12938.6,3313.54 
  13073.6,3254.27 13208.7,3199.95 13343.7,3137.33 13478.8,3095.63 13613.8,3060.89 13748.9,3019.65 13884,2975.39 14019,2941.47 14154.1,2900.77 14289.1,2882.97 
  14424.2,2835.01 14559.2,2808.05 14694.3,2772.55 14829.3,2753.25 14964.4,2725.93 15099.4,2694.74 15234.5,2666.16 15369.5,2652.52 15504.6,2623.35 15639.6,2598.6 
  15774.7,2576.37 15909.8,2553.26 16044.8,2533.41 16179.9,2510.29 16314.9,2495.98 16450,2470.12 16585,2452.13 16720.1,2436.81 16855.1,2414.38 16990.2,2395.12 
  17125.2,2380.17 17260.3,2364.62 17395.3,2345.98 17530.4,2331.62 17665.4,2314.14 17800.5,2300.7 17935.6,2283.33 18070.6,2268.41 18205.7,2255.08 18340.7,2241.23 
  
  "/>
<polyline clip-path="url(#clip4702)" style="stroke:#c271d2; stroke-width:32; stroke-opacity:1; fill:none" points="
  2296.37,11091.2 2404.41,11091 2512.46,11090.8 2620.5,11091.1 2728.54,11090.7 2836.58,11090.8 2944.63,11090.3 3052.67,11090.1 3160.71,11089.6 3268.76,11089.7 
  3376.8,11089 3484.84,11088.6 3592.88,11088.4 3700.93,11087.9 3808.97,11087.2 3917.01,11085.3 4025.06,11085.8 4133.1,11084.8 4241.14,11084.3 4349.18,11082.8 
  4457.23,11082.2 4565.27,11081.6 4673.31,11079 4781.35,11077.4 4889.4,11077.3 4997.44,11074.2 5105.48,11072.8 5213.53,11069.7 5321.57,11067.3 5429.61,11065.9 
  5537.65,11062.4 5645.7,11059.2 5753.74,11057.4 5861.78,11051.8 5969.82,11048.3 6077.87,11048.2 6185.91,11042.4 6293.95,11038 6402,11035.6 6510.04,11028.4 
  6618.08,11023.5 6726.12,11019 6834.17,11011.6 6942.21,11004.8 7050.25,10997.3 7158.29,10988.2 7266.34,10979.6 7374.38,10976 7482.42,10964.8 7590.47,10958.8 
  7698.51,10941.9 7806.55,10936 7914.59,10923.1 8022.64,10909 8130.68,10888.3 8238.72,10881.7 8346.76,10867.7 8454.81,10848.5 8562.85,10830.1 8670.89,10808.5 
  8778.94,10791.6 8886.98,10775.2 8995.02,10747.3 9103.06,10726.7 9211.11,10706.1 9319.15,10675.9 9427.19,10645.1 9535.23,10601.4 9643.28,10578.4 9751.32,10529.1 
  9859.36,10488.5 9967.41,10442.4 10075.4,10397.4 10183.5,10342.8 10291.5,10254 10399.6,10179.1 10507.6,10083.5 10615.7,9991.17 10723.7,9816.81 10831.7,9621.26 
  10939.8,9415.44 11047.8,9085.77 11155.9,8709.06 11263.9,8246.64 11372,7436.8 11480,6644.31 11588,6331.36 11696.1,5683.59 11804.1,4952.88 11912.2,4541.71 
  12020.2,4051.17 12128.3,3667.2 12236.3,3207.63 12344.3,3139.67 12452.4,2835.35 12560.4,2706.75 12668.5,2677.39 12776.5,2508.01 12884.6,2419.11 12992.6,2374.55 
  
  "/>
<polyline clip-path="url(#clip4702)" style="stroke:#ac8d18; stroke-width:32; stroke-opacity:1; fill:none" points="
  2296.37,11090.3 2404.41,11089.9 2512.46,11090.1 2620.5,11089.5 2728.54,11088.9 2836.58,11089.2 2944.63,11088.7 3052.67,11088.5 3160.71,11087.6 3268.76,11087 
  3376.8,11086.3 3484.84,11085.8 3592.88,11084.8 3700.93,11083.4 3808.97,11082.7 3917.01,11080.1 4025.06,11081.9 4133.1,11080 4241.14,11078.3 4349.18,11077.1 
  4457.23,11073.8 4565.27,11072.2 4673.31,11071.3 4781.35,11068.9 4889.4,11066.6 4997.44,11064.6 5105.48,11062.8 5213.53,11057.9 5321.57,11056.8 5429.61,11052.8 
  5537.65,11046.9 5645.7,11043.9 5753.74,11038 5861.78,11033 5969.82,11032.5 6077.87,11024.8 6185.91,11020.6 6293.95,11016 6402,11008.7 6510.04,11004.2 
  6618.08,10995.7 6726.12,10982.7 6834.17,10977.2 6942.21,10972.1 7050.25,10954.9 7158.29,10952.4 7266.34,10942.3 7374.38,10932.9 7482.42,10917.5 7590.47,10906.2 
  7698.51,10889.3 7806.55,10876.8 7914.59,10857.9 8022.64,10841 8130.68,10820.8 8238.72,10803.1 8346.76,10786.8 8454.81,10765.3 8562.85,10736 8670.89,10648.3 
  8778.94,10589.3 8886.98,10555.3 8995.02,10537.6 9103.06,10583.4 9211.11,10483.3 9319.15,10375.6 9427.19,10326.8 9535.23,10251.4 9643.28,10229.5 9751.32,10119.2 
  9859.36,9991.79 9967.41,9879.81 10075.4,9729.95 10183.5,9523.77 10291.5,9334.77 10399.6,8899.84 10507.6,8660.27 10615.7,8276.21 10723.7,7770.82 10831.7,7302.32 
  10939.8,6834.66 11047.8,6090.96 11155.9,5385.71 11263.9,5061.66 11372,4518.48 11480,4286.61 11588,3777.49 11696.1,3644.88 11804.1,3294.87 11912.2,3213.32 
  12020.2,3093.42 12128.3,3034.02 12236.3,2916.26 12344.3,2811.48 12452.4,2766.39 12560.4,2689.99 12668.5,2644.58 12776.5,2600.85 12884.6,2554.71 12992.6,2502.23 
  
  "/>
<polyline clip-path="url(#clip4702)" style="stroke:#00a9ad; stroke-width:32; stroke-opacity:1; fill:none" points="
  2296.37,11074.1 2404.41,11072.8 2512.46,11070.1 2620.5,11068.7 2728.54,11067.7 2836.58,11062.5 2944.63,11063 3052.67,11057.6 3160.71,11054.6 3268.76,11054.1 
  3376.8,11051.1 3484.84,11045.4 3592.88,11042.6 3700.93,11038.4 3808.97,11034.7 3917.01,11027.2 4025.06,11024.7 4133.1,11020.5 4241.14,11011.5 4349.18,11006.3 
  4457.23,10956.2 4565.27,10908.7 4673.31,10897.6 4781.35,10885.1 4889.4,10872.7 4997.44,10859.6 5105.48,10844 5213.53,10828 5321.57,10814.3 5429.61,10799.2 
  5537.65,10775.4 5645.7,10748 5753.74,10730.6 5861.78,10710.6 5969.82,10681.9 6077.87,10658.6 6185.91,10641.2 6293.95,10613.9 6402,10589.7 6510.04,10554.3 
  6618.08,10624.3 6726.12,10483.8 6834.17,10467.2 6942.21,10452.5 7050.25,10385 7158.29,10356.8 7266.34,10408.3 7374.38,10268.4 7482.42,10235.6 7590.47,10227.6 
  7698.51,10112.5 7806.55,10066 7914.59,10016.4 8022.64,9963.74 8130.68,9959.75 8238.72,9816.6 8346.76,9772.8 8454.81,9686.51 8562.85,9576.4 8670.89,9534.55 
  8778.94,9504.91 8886.98,9325.3 8995.02,9241.15 9103.06,9143.88 9211.11,9006.95 9319.15,8890.61 9427.19,8814.28 9535.23,8629.18 9643.28,8444.05 9751.32,8264.27 
  9859.36,8056.47 9967.41,7847.76 10075.4,7658.38 10183.5,7404.86 10291.5,7167.91 10399.6,6981.13 10507.6,6680.51 10615.7,6391.21 10723.7,6192.2 10831.7,5879.23 
  10939.8,5550.92 11047.8,5420.05 11155.9,5169.56 11263.9,4919.69 11372,4773.08 11480,4579.62 11588,4494.76 11696.1,4273.75 11804.1,4153.79 11912.2,4044.21 
  12020.2,3917.16 12128.3,3852.31 12236.3,3737.31 12344.3,3660.99 12452.4,3576.02 12560.4,3541.22 12668.5,3462.05 12776.5,3404.16 12884.6,3343.65 12992.6,3310.85 
  
  "/>
<path clip-path="url(#clip4700)" d="
M2391.04 5042.82 L7287.51 5042.82 L7287.51 1655.94 L2391.04 1655.94  Z
  " fill="#ffffff" fill-rule="evenodd" fill-opacity="1"/>
<polyline clip-path="url(#clip4700)" style="stroke:#000000; stroke-width:32; stroke-opacity:1; fill:none" points="
  2391.04,5042.82 7287.51,5042.82 7287.51,1655.94 2391.04,1655.94 2391.04,5042.82 
  "/>
<polyline clip-path="url(#clip4700)" style="stroke:#009af9; stroke-width:32; stroke-opacity:1; fill:none" points="
  2583.04,2139.78 3735.04,2139.78 
  "/>
<path clip-path="url(#clip4700)" d="M 0 0 M3983.89 2001.54 L4021.3 2001.54 L4021.3 2258.76 Q4021.3 2308.76 4002.23 2331.35 Q3983.34 2353.94 3941.3 2353.94 L3927.04 2353.94 L3927.04 2322.46 L3938.71 2322.46 Q3963.52 2322.46 3973.71 2308.57 Q3983.89 2294.68 3983.89 2258.76 L3983.89 2001.54 Z" fill="#000000" fill-rule="evenodd" fill-opacity="1" /><path clip-path="url(#clip4700)" d="M 0 0 M4068.34 2246.54 L4129.45 2246.54 L4129.45 2035.61 L4062.97 2048.94 L4062.97 2014.87 L4129.08 2001.54 L4166.48 2001.54 L4166.48 2246.54 L4227.59 2246.54 L4227.59 2278.02 L4068.34 2278.02 L4068.34 2246.54 Z" fill="#000000" fill-rule="evenodd" fill-opacity="1" /><path clip-path="url(#clip4700)" d="M 0 0 M4388.33 2105.8 L4625.74 2105.8 L4625.74 2136.91 L4388.33 2136.91 L4388.33 2105.8 M4388.33 2181.35 L4625.74 2181.35 L4625.74 2212.83 L4388.33 2212.83 L4388.33 2181.35 Z" fill="#000000" fill-rule="evenodd" fill-opacity="1" /><path clip-path="url(#clip4700)" d="M 0 0 M4866.85 2026.17 Q4837.96 2026.17 4823.33 2054.68 Q4808.89 2083.02 4808.89 2140.05 Q4808.89 2196.91 4823.33 2225.42 Q4837.96 2253.76 4866.85 2253.76 Q4895.92 2253.76 4910.37 2225.42 Q4925 2196.91 4925 2140.05 Q4925 2083.02 4910.37 2054.68 Q4895.92 2026.17 4866.85 2026.17 M4866.85 1996.54 Q4913.33 1996.54 4937.78 2033.39 Q4962.41 2070.06 4962.41 2140.05 Q4962.41 2209.87 4937.78 2246.72 Q4913.33 2283.39 4866.85 2283.39 Q4820.37 2283.39 4795.74 2246.72 Q4771.3 2209.87 4771.3 2140.05 Q4771.3 2070.06 4795.74 2033.39 Q4820.37 1996.54 4866.85 1996.54 Z" fill="#000000" fill-rule="evenodd" fill-opacity="1" /><path clip-path="url(#clip4700)" d="M 0 0 M5002.96 2230.98 L5042.03 2230.98 L5042.03 2278.02 L5002.96 2278.02 L5002.96 2230.98 Z" fill="#000000" fill-rule="evenodd" fill-opacity="1" /><path clip-path="url(#clip4700)" d="M 0 0 M5162.59 2026.17 Q5133.7 2026.17 5119.07 2054.68 Q5104.63 2083.02 5104.63 2140.05 Q5104.63 2196.91 5119.07 2225.42 Q5133.7 2253.76 5162.59 2253.76 Q5191.66 2253.76 5206.11 2225.42 Q5220.74 2196.91 5220.74 2140.05 Q5220.74 2083.02 5206.11 2054.68 Q5191.66 2026.17 5162.59 2026.17 M5162.59 1996.54 Q5209.07 1996.54 5233.52 2033.39 Q5258.14 2070.06 5258.14 2140.05 Q5258.14 2209.87 5233.52 2246.72 Q5209.07 2283.39 5162.59 2283.39 Q5116.11 2283.39 5091.48 2246.72 Q5067.03 2209.87 5067.03 2140.05 Q5067.03 2070.06 5091.48 2033.39 Q5116.11 1996.54 5162.59 1996.54 Z" fill="#000000" fill-rule="evenodd" fill-opacity="1" /><polyline clip-path="url(#clip4700)" style="stroke:#e26f46; stroke-width:32; stroke-opacity:1; fill:none" points="
  2583.04,2623.62 3735.04,2623.62 
  "/>
<path clip-path="url(#clip4700)" d="M 0 0 M3983.89 2485.38 L4021.3 2485.38 L4021.3 2742.6 Q4021.3 2792.6 4002.23 2815.19 Q3983.34 2837.78 3941.3 2837.78 L3927.04 2837.78 L3927.04 2806.3 L3938.71 2806.3 Q3963.52 2806.3 3973.71 2792.41 Q3983.89 2778.52 3983.89 2742.6 L3983.89 2485.38 Z" fill="#000000" fill-rule="evenodd" fill-opacity="1" /><path clip-path="url(#clip4700)" d="M 0 0 M4068.34 2730.38 L4129.45 2730.38 L4129.45 2519.45 L4062.97 2532.78 L4062.97 2498.71 L4129.08 2485.38 L4166.48 2485.38 L4166.48 2730.38 L4227.59 2730.38 L4227.59 2761.86 L4068.34 2761.86 L4068.34 2730.38 Z" fill="#000000" fill-rule="evenodd" fill-opacity="1" /><path clip-path="url(#clip4700)" d="M 0 0 M4388.33 2589.64 L4625.74 2589.64 L4625.74 2620.75 L4388.33 2620.75 L4388.33 2589.64 M4388.33 2665.19 L4625.74 2665.19 L4625.74 2696.67 L4388.33 2696.67 L4388.33 2665.19 Z" fill="#000000" fill-rule="evenodd" fill-opacity="1" /><path clip-path="url(#clip4700)" d="M 0 0 M4866.85 2510.01 Q4837.96 2510.01 4823.33 2538.52 Q4808.89 2566.86 4808.89 2623.89 Q4808.89 2680.75 4823.33 2709.26 Q4837.96 2737.6 4866.85 2737.6 Q4895.92 2737.6 4910.37 2709.26 Q4925 2680.75 4925 2623.89 Q4925 2566.86 4910.37 2538.52 Q4895.92 2510.01 4866.85 2510.01 M4866.85 2480.38 Q4913.33 2480.38 4937.78 2517.23 Q4962.41 2553.9 4962.41 2623.89 Q4962.41 2693.71 4937.78 2730.56 Q4913.33 2767.23 4866.85 2767.23 Q4820.37 2767.23 4795.74 2730.56 Q4771.3 2693.71 4771.3 2623.89 Q4771.3 2553.9 4795.74 2517.23 Q4820.37 2480.38 4866.85 2480.38 Z" fill="#000000" fill-rule="evenodd" fill-opacity="1" /><path clip-path="url(#clip4700)" d="M 0 0 M5002.96 2714.82 L5042.03 2714.82 L5042.03 2761.86 L5002.96 2761.86 L5002.96 2714.82 Z" fill="#000000" fill-rule="evenodd" fill-opacity="1" /><path clip-path="url(#clip4700)" d="M 0 0 M5114.81 2730.38 L5245.37 2730.38 L5245.37 2761.86 L5069.81 2761.86 L5069.81 2730.38 Q5091.11 2708.34 5127.78 2671.3 Q5164.63 2634.08 5174.07 2623.34 Q5192.03 2603.15 5199.07 2589.27 Q5206.29 2575.19 5206.29 2561.67 Q5206.29 2539.64 5190.74 2525.75 Q5175.37 2511.86 5150.55 2511.86 Q5132.96 2511.86 5113.33 2517.97 Q5093.89 2524.08 5071.66 2536.49 L5071.66 2498.71 Q5094.26 2489.64 5113.89 2485.01 Q5133.52 2480.38 5149.81 2480.38 Q5192.77 2480.38 5218.33 2501.86 Q5243.89 2523.34 5243.89 2559.27 Q5243.89 2576.3 5237.4 2591.67 Q5231.11 2606.86 5214.26 2627.6 Q5209.63 2632.97 5184.81 2658.71 Q5160 2684.26 5114.81 2730.38 Z" fill="#000000" fill-rule="evenodd" fill-opacity="1" /><path clip-path="url(#clip4700)" d="M 0 0 M5286.29 2485.38 L5433.14 2485.38 L5433.14 2516.86 L5320.55 2516.86 L5320.55 2584.64 Q5328.7 2581.86 5336.85 2580.56 Q5345 2579.08 5353.14 2579.08 Q5399.44 2579.08 5426.48 2604.45 Q5453.51 2629.82 5453.51 2673.15 Q5453.51 2717.78 5425.74 2742.6 Q5397.96 2767.23 5347.4 2767.23 Q5330 2767.23 5311.85 2764.26 Q5293.89 2761.3 5274.63 2755.38 L5274.63 2717.78 Q5291.29 2726.86 5309.07 2731.3 Q5326.85 2735.75 5346.66 2735.75 Q5378.7 2735.75 5397.4 2718.89 Q5416.11 2702.04 5416.11 2673.15 Q5416.11 2644.27 5397.4 2627.41 Q5378.7 2610.56 5346.66 2610.56 Q5331.66 2610.56 5316.66 2613.89 Q5301.85 2617.23 5286.29 2624.27 L5286.29 2485.38 Z" fill="#000000" fill-rule="evenodd" fill-opacity="1" /><polyline clip-path="url(#clip4700)" style="stroke:#3da44d; stroke-width:32; stroke-opacity:1; fill:none" points="
  2583.04,3107.46 3735.04,3107.46 
  "/>
<path clip-path="url(#clip4700)" d="M 0 0 M3983.89 2969.22 L4021.3 2969.22 L4021.3 3226.44 Q4021.3 3276.44 4002.23 3299.03 Q3983.34 3321.62 3941.3 3321.62 L3927.04 3321.62 L3927.04 3290.14 L3938.71 3290.14 Q3963.52 3290.14 3973.71 3276.25 Q3983.89 3262.36 3983.89 3226.44 L3983.89 2969.22 Z" fill="#000000" fill-rule="evenodd" fill-opacity="1" /><path clip-path="url(#clip4700)" d="M 0 0 M4068.34 3214.22 L4129.45 3214.22 L4129.45 3003.29 L4062.97 3016.62 L4062.97 2982.55 L4129.08 2969.22 L4166.48 2969.22 L4166.48 3214.22 L4227.59 3214.22 L4227.59 3245.7 L4068.34 3245.7 L4068.34 3214.22 Z" fill="#000000" fill-rule="evenodd" fill-opacity="1" /><path clip-path="url(#clip4700)" d="M 0 0 M4388.33 3073.48 L4625.74 3073.48 L4625.74 3104.59 L4388.33 3104.59 L4388.33 3073.48 M4388.33 3149.03 L4625.74 3149.03 L4625.74 3180.51 L4388.33 3180.51 L4388.33 3149.03 Z" fill="#000000" fill-rule="evenodd" fill-opacity="1" /><path clip-path="url(#clip4700)" d="M 0 0 M4866.85 2993.85 Q4837.96 2993.85 4823.33 3022.36 Q4808.89 3050.7 4808.89 3107.73 Q4808.89 3164.59 4823.33 3193.1 Q4837.96 3221.44 4866.85 3221.44 Q4895.92 3221.44 4910.37 3193.1 Q4925 3164.59 4925 3107.73 Q4925 3050.7 4910.37 3022.36 Q4895.92 2993.85 4866.85 2993.85 M4866.85 2964.22 Q4913.33 2964.22 4937.78 3001.07 Q4962.41 3037.74 4962.41 3107.73 Q4962.41 3177.55 4937.78 3214.4 Q4913.33 3251.07 4866.85 3251.07 Q4820.37 3251.07 4795.74 3214.4 Q4771.3 3177.55 4771.3 3107.73 Q4771.3 3037.74 4795.74 3001.07 Q4820.37 2964.22 4866.85 2964.22 Z" fill="#000000" fill-rule="evenodd" fill-opacity="1" /><path clip-path="url(#clip4700)" d="M 0 0 M5002.96 3198.66 L5042.03 3198.66 L5042.03 3245.7 L5002.96 3245.7 L5002.96 3198.66 Z" fill="#000000" fill-rule="evenodd" fill-opacity="1" /><path clip-path="url(#clip4700)" d="M 0 0 M5082.96 2969.22 L5229.81 2969.22 L5229.81 3000.7 L5117.22 3000.7 L5117.22 3068.48 Q5125.37 3065.7 5133.52 3064.4 Q5141.66 3062.92 5149.81 3062.92 Q5196.11 3062.92 5223.15 3088.29 Q5250.18 3113.66 5250.18 3156.99 Q5250.18 3201.62 5222.4 3226.44 Q5194.63 3251.07 5144.07 3251.07 Q5126.66 3251.07 5108.52 3248.1 Q5090.55 3245.14 5071.29 3239.22 L5071.29 3201.62 Q5087.96 3210.7 5105.74 3215.14 Q5123.52 3219.59 5143.33 3219.59 Q5175.37 3219.59 5194.07 3202.73 Q5212.77 3185.88 5212.77 3156.99 Q5212.77 3128.11 5194.07 3111.25 Q5175.37 3094.4 5143.33 3094.4 Q5128.33 3094.4 5113.33 3097.73 Q5098.52 3101.07 5082.96 3108.11 L5082.96 2969.22 Z" fill="#000000" fill-rule="evenodd" fill-opacity="1" /><polyline clip-path="url(#clip4700)" style="stroke:#c271d2; stroke-width:32; stroke-opacity:1; fill:none" points="
  2583.04,3591.3 3735.04,3591.3 
  "/>
<path clip-path="url(#clip4700)" d="M 0 0 M3964.45 3483.8 L3964.45 3587.69 L4011.48 3587.69 Q4037.6 3587.69 4051.86 3574.17 Q4066.11 3560.65 4066.11 3535.65 Q4066.11 3510.83 4051.86 3497.32 Q4037.6 3483.8 4011.48 3483.8 L3964.45 3483.8 M3927.04 3453.06 L4011.48 3453.06 Q4057.97 3453.06 4081.67 3474.17 Q4105.56 3495.09 4105.56 3535.65 Q4105.56 3576.57 4081.67 3597.5 Q4057.97 3618.43 4011.48 3618.43 L3964.45 3618.43 L3964.45 3729.54 L3927.04 3729.54 L3927.04 3453.06 Z" fill="#000000" fill-rule="evenodd" fill-opacity="1" /><path clip-path="url(#clip4700)" d="M 0 0 M4305.19 3617.32 L4305.19 3633.98 L4148.52 3633.98 Q4150.74 3669.17 4169.63 3687.69 Q4188.71 3706.02 4222.59 3706.02 Q4242.22 3706.02 4260.56 3701.2 Q4279.08 3696.39 4297.22 3686.76 L4297.22 3718.98 Q4278.89 3726.76 4259.63 3730.83 Q4240.37 3734.91 4220.56 3734.91 Q4170.93 3734.91 4141.85 3706.02 Q4112.97 3677.13 4112.97 3627.87 Q4112.97 3576.95 4140.37 3547.13 Q4167.97 3517.13 4214.63 3517.13 Q4256.48 3517.13 4280.74 3544.17 Q4305.19 3571.02 4305.19 3617.32 M4271.11 3607.32 Q4270.74 3579.35 4255.37 3562.69 Q4240.19 3546.02 4215 3546.02 Q4186.48 3546.02 4169.26 3562.13 Q4152.22 3578.24 4149.63 3607.5 L4271.11 3607.32 Z" fill="#000000" fill-rule="evenodd" fill-opacity="1" /><path clip-path="url(#clip4700)" d="M 0 0 M4461.11 3553.98 Q4455.37 3550.65 4448.52 3549.17 Q4441.85 3547.5 4433.7 3547.5 Q4404.82 3547.5 4389.26 3566.39 Q4373.89 3585.09 4373.89 3620.28 L4373.89 3729.54 L4339.63 3729.54 L4339.63 3522.13 L4373.89 3522.13 L4373.89 3554.35 Q4384.63 3535.46 4401.85 3526.39 Q4419.08 3517.13 4443.7 3517.13 Q4447.22 3517.13 4451.48 3517.69 Q4455.74 3518.06 4460.93 3518.98 L4461.11 3553.98 Z" fill="#000000" fill-rule="evenodd" fill-opacity="1" /><path clip-path="url(#clip4700)" d="M 0 0 M4496.85 3522.13 L4530.93 3522.13 L4530.93 3729.54 L4496.85 3729.54 L4496.85 3522.13 M4496.85 3441.39 L4530.93 3441.39 L4530.93 3484.54 L4496.85 3484.54 L4496.85 3441.39 Z" fill="#000000" fill-rule="evenodd" fill-opacity="1" /><path clip-path="url(#clip4700)" d="M 0 0 M4647.04 3546.02 Q4619.63 3546.02 4603.7 3567.5 Q4587.78 3588.8 4587.78 3626.02 Q4587.78 3663.24 4603.52 3684.72 Q4619.44 3706.02 4647.04 3706.02 Q4674.26 3706.02 4690.18 3684.54 Q4706.11 3663.06 4706.11 3626.02 Q4706.11 3589.17 4690.18 3567.69 Q4674.26 3546.02 4647.04 3546.02 M4647.04 3517.13 Q4691.48 3517.13 4716.85 3546.02 Q4742.22 3574.91 4742.22 3626.02 Q4742.22 3676.94 4716.85 3706.02 Q4691.48 3734.91 4647.04 3734.91 Q4602.41 3734.91 4577.04 3706.02 Q4551.85 3676.94 4551.85 3626.02 Q4551.85 3574.91 4577.04 3546.02 Q4602.41 3517.13 4647.04 3517.13 Z" fill="#000000" fill-rule="evenodd" fill-opacity="1" /><path clip-path="url(#clip4700)" d="M 0 0 M4914.44 3553.61 L4914.44 3441.39 L4948.52 3441.39 L4948.52 3729.54 L4914.44 3729.54 L4914.44 3698.43 Q4903.7 3716.94 4887.22 3726.02 Q4870.92 3734.91 4847.96 3734.91 Q4810.37 3734.91 4786.67 3704.91 Q4763.15 3674.91 4763.15 3626.02 Q4763.15 3577.13 4786.67 3547.13 Q4810.37 3517.13 4847.96 3517.13 Q4870.92 3517.13 4887.22 3526.2 Q4903.7 3535.09 4914.44 3553.61 M4798.33 3626.02 Q4798.33 3663.61 4813.7 3685.09 Q4829.26 3706.39 4856.3 3706.39 Q4883.33 3706.39 4898.89 3685.09 Q4914.44 3663.61 4914.44 3626.02 Q4914.44 3588.43 4898.89 3567.13 Q4883.33 3545.65 4856.3 3545.65 Q4829.26 3545.65 4813.7 3567.13 Q4798.33 3588.43 4798.33 3626.02 Z" fill="#000000" fill-rule="evenodd" fill-opacity="1" /><path clip-path="url(#clip4700)" d="M 0 0 M4984.26 3522.13 L5018.33 3522.13 L5018.33 3729.54 L4984.26 3729.54 L4984.26 3522.13 M4984.26 3441.39 L5018.33 3441.39 L5018.33 3484.54 L4984.26 3484.54 L4984.26 3441.39 Z" fill="#000000" fill-rule="evenodd" fill-opacity="1" /><path clip-path="url(#clip4700)" d="M 0 0 M5203.33 3530.09 L5203.33 3561.95 Q5188.89 3553.98 5174.26 3550.09 Q5159.81 3546.02 5145 3546.02 Q5111.85 3546.02 5093.52 3567.13 Q5075.18 3588.06 5075.18 3626.02 Q5075.18 3663.98 5093.52 3685.09 Q5111.85 3706.02 5145 3706.02 Q5159.81 3706.02 5174.26 3702.13 Q5188.89 3698.06 5203.33 3690.09 L5203.33 3721.57 Q5189.07 3728.24 5173.7 3731.57 Q5158.52 3734.91 5141.29 3734.91 Q5094.44 3734.91 5066.85 3705.46 Q5039.26 3676.02 5039.26 3626.02 Q5039.26 3575.28 5067.03 3546.2 Q5095 3517.13 5143.52 3517.13 Q5159.26 3517.13 5174.26 3520.46 Q5189.26 3523.61 5203.33 3530.09 Z" fill="#000000" fill-rule="evenodd" fill-opacity="1" /><path clip-path="url(#clip4700)" d="M 0 0 M5396.66 3792.5 L5396.66 3818.98 L5199.63 3818.98 L5199.63 3792.5 L5396.66 3792.5 Z" fill="#000000" fill-rule="evenodd" fill-opacity="1" /><path clip-path="url(#clip4700)" d="M 0 0 M5433.88 3453.06 L5471.29 3453.06 L5471.29 3710.28 Q5471.29 3760.28 5452.22 3782.87 Q5433.33 3805.46 5391.29 3805.46 L5377.03 3805.46 L5377.03 3773.98 L5388.7 3773.98 Q5413.51 3773.98 5423.7 3760.09 Q5433.88 3746.2 5433.88 3710.28 L5433.88 3453.06 Z" fill="#000000" fill-rule="evenodd" fill-opacity="1" /><path clip-path="url(#clip4700)" d="M 0 0 M5518.33 3698.06 L5579.44 3698.06 L5579.44 3487.13 L5512.96 3500.46 L5512.96 3466.39 L5579.07 3453.06 L5616.48 3453.06 L5616.48 3698.06 L5677.59 3698.06 L5677.59 3729.54 L5518.33 3729.54 L5518.33 3698.06 Z" fill="#000000" fill-rule="evenodd" fill-opacity="1" /><path clip-path="url(#clip4700)" d="M 0 0 M5838.33 3557.32 L6075.73 3557.32 L6075.73 3588.43 L5838.33 3588.43 L5838.33 3557.32 M5838.33 3632.87 L6075.73 3632.87 L6075.73 3664.35 L5838.33 3664.35 L5838.33 3632.87 Z" fill="#000000" fill-rule="evenodd" fill-opacity="1" /><path clip-path="url(#clip4700)" d="M 0 0 M6316.84 3477.69 Q6287.95 3477.69 6273.32 3506.2 Q6258.88 3534.54 6258.88 3591.57 Q6258.88 3648.43 6273.32 3676.94 Q6287.95 3705.28 6316.84 3705.28 Q6345.92 3705.28 6360.36 3676.94 Q6374.99 3648.43 6374.99 3591.57 Q6374.99 3534.54 6360.36 3506.2 Q6345.92 3477.69 6316.84 3477.69 M6316.84 3448.06 Q6363.32 3448.06 6387.77 3484.91 Q6412.4 3521.58 6412.4 3591.57 Q6412.4 3661.39 6387.77 3698.24 Q6363.32 3734.91 6316.84 3734.91 Q6270.36 3734.91 6245.73 3698.24 Q6221.29 3661.39 6221.29 3591.57 Q6221.29 3521.58 6245.73 3484.91 Q6270.36 3448.06 6316.84 3448.06 Z" fill="#000000" fill-rule="evenodd" fill-opacity="1" /><path clip-path="url(#clip4700)" d="M 0 0 M6452.95 3682.5 L6492.03 3682.5 L6492.03 3729.54 L6452.95 3729.54 L6452.95 3682.5 Z" fill="#000000" fill-rule="evenodd" fill-opacity="1" /><path clip-path="url(#clip4700)" d="M 0 0 M6612.58 3477.69 Q6583.69 3477.69 6569.06 3506.2 Q6554.62 3534.54 6554.62 3591.57 Q6554.62 3648.43 6569.06 3676.94 Q6583.69 3705.28 6612.58 3705.28 Q6641.66 3705.28 6656.1 3676.94 Q6670.73 3648.43 6670.73 3591.57 Q6670.73 3534.54 6656.1 3506.2 Q6641.66 3477.69 6612.58 3477.69 M6612.58 3448.06 Q6659.06 3448.06 6683.51 3484.91 Q6708.14 3521.58 6708.14 3591.57 Q6708.14 3661.39 6683.51 3698.24 Q6659.06 3734.91 6612.58 3734.91 Q6566.1 3734.91 6541.47 3698.24 Q6517.03 3661.39 6517.03 3591.57 Q6517.03 3521.58 6541.47 3484.91 Q6566.1 3448.06 6612.58 3448.06 Z" fill="#000000" fill-rule="evenodd" fill-opacity="1" /><polyline clip-path="url(#clip4700)" style="stroke:#ac8d18; stroke-width:32; stroke-opacity:1; fill:none" points="
  2583.04,4075.14 3735.04,4075.14 
  "/>
<path clip-path="url(#clip4700)" d="M 0 0 M3964.45 3967.64 L3964.45 4071.53 L4011.48 4071.53 Q4037.6 4071.53 4051.86 4058.01 Q4066.11 4044.49 4066.11 4019.49 Q4066.11 3994.67 4051.86 3981.16 Q4037.6 3967.64 4011.48 3967.64 L3964.45 3967.64 M3927.04 3936.9 L4011.48 3936.9 Q4057.97 3936.9 4081.67 3958.01 Q4105.56 3978.93 4105.56 4019.49 Q4105.56 4060.41 4081.67 4081.34 Q4057.97 4102.27 4011.48 4102.27 L3964.45 4102.27 L3964.45 4213.38 L3927.04 4213.38 L3927.04 3936.9 Z" fill="#000000" fill-rule="evenodd" fill-opacity="1" /><path clip-path="url(#clip4700)" d="M 0 0 M4305.19 4101.16 L4305.19 4117.82 L4148.52 4117.82 Q4150.74 4153.01 4169.63 4171.53 Q4188.71 4189.86 4222.59 4189.86 Q4242.22 4189.86 4260.56 4185.04 Q4279.08 4180.23 4297.22 4170.6 L4297.22 4202.82 Q4278.89 4210.6 4259.63 4214.67 Q4240.37 4218.75 4220.56 4218.75 Q4170.93 4218.75 4141.85 4189.86 Q4112.97 4160.97 4112.97 4111.71 Q4112.97 4060.79 4140.37 4030.97 Q4167.97 4000.97 4214.63 4000.97 Q4256.48 4000.97 4280.74 4028.01 Q4305.19 4054.86 4305.19 4101.16 M4271.11 4091.16 Q4270.74 4063.19 4255.37 4046.53 Q4240.19 4029.86 4215 4029.86 Q4186.48 4029.86 4169.26 4045.97 Q4152.22 4062.08 4149.63 4091.34 L4271.11 4091.16 Z" fill="#000000" fill-rule="evenodd" fill-opacity="1" /><path clip-path="url(#clip4700)" d="M 0 0 M4461.11 4037.82 Q4455.37 4034.49 4448.52 4033.01 Q4441.85 4031.34 4433.7 4031.34 Q4404.82 4031.34 4389.26 4050.23 Q4373.89 4068.93 4373.89 4104.12 L4373.89 4213.38 L4339.63 4213.38 L4339.63 4005.97 L4373.89 4005.97 L4373.89 4038.19 Q4384.63 4019.3 4401.85 4010.23 Q4419.08 4000.97 4443.7 4000.97 Q4447.22 4000.97 4451.48 4001.53 Q4455.74 4001.9 4460.93 4002.82 L4461.11 4037.82 Z" fill="#000000" fill-rule="evenodd" fill-opacity="1" /><path clip-path="url(#clip4700)" d="M 0 0 M4496.85 4005.97 L4530.93 4005.97 L4530.93 4213.38 L4496.85 4213.38 L4496.85 4005.97 M4496.85 3925.23 L4530.93 3925.23 L4530.93 3968.38 L4496.85 3968.38 L4496.85 3925.23 Z" fill="#000000" fill-rule="evenodd" fill-opacity="1" /><path clip-path="url(#clip4700)" d="M 0 0 M4647.04 4029.86 Q4619.63 4029.86 4603.7 4051.34 Q4587.78 4072.64 4587.78 4109.86 Q4587.78 4147.08 4603.52 4168.56 Q4619.44 4189.86 4647.04 4189.86 Q4674.26 4189.86 4690.18 4168.38 Q4706.11 4146.9 4706.11 4109.86 Q4706.11 4073.01 4690.18 4051.53 Q4674.26 4029.86 4647.04 4029.86 M4647.04 4000.97 Q4691.48 4000.97 4716.85 4029.86 Q4742.22 4058.75 4742.22 4109.86 Q4742.22 4160.78 4716.85 4189.86 Q4691.48 4218.75 4647.04 4218.75 Q4602.41 4218.75 4577.04 4189.86 Q4551.85 4160.78 4551.85 4109.86 Q4551.85 4058.75 4577.04 4029.86 Q4602.41 4000.97 4647.04 4000.97 Z" fill="#000000" fill-rule="evenodd" fill-opacity="1" /><path clip-path="url(#clip4700)" d="M 0 0 M4914.44 4037.45 L4914.44 3925.23 L4948.52 3925.23 L4948.52 4213.38 L4914.44 4213.38 L4914.44 4182.27 Q4903.7 4200.78 4887.22 4209.86 Q4870.92 4218.75 4847.96 4218.75 Q4810.37 4218.75 4786.67 4188.75 Q4763.15 4158.75 4763.15 4109.86 Q4763.15 4060.97 4786.67 4030.97 Q4810.37 4000.97 4847.96 4000.97 Q4870.92 4000.97 4887.22 4010.04 Q4903.7 4018.93 4914.44 4037.45 M4798.33 4109.86 Q4798.33 4147.45 4813.7 4168.93 Q4829.26 4190.23 4856.3 4190.23 Q4883.33 4190.23 4898.89 4168.93 Q4914.44 4147.45 4914.44 4109.86 Q4914.44 4072.27 4898.89 4050.97 Q4883.33 4029.49 4856.3 4029.49 Q4829.26 4029.49 4813.7 4050.97 Q4798.33 4072.27 4798.33 4109.86 Z" fill="#000000" fill-rule="evenodd" fill-opacity="1" /><path clip-path="url(#clip4700)" d="M 0 0 M4984.26 4005.97 L5018.33 4005.97 L5018.33 4213.38 L4984.26 4213.38 L4984.26 4005.97 M4984.26 3925.23 L5018.33 3925.23 L5018.33 3968.38 L4984.26 3968.38 L4984.26 3925.23 Z" fill="#000000" fill-rule="evenodd" fill-opacity="1" /><path clip-path="url(#clip4700)" d="M 0 0 M5203.33 4013.93 L5203.33 4045.79 Q5188.89 4037.82 5174.26 4033.93 Q5159.81 4029.86 5145 4029.86 Q5111.85 4029.86 5093.52 4050.97 Q5075.18 4071.9 5075.18 4109.86 Q5075.18 4147.82 5093.52 4168.93 Q5111.85 4189.86 5145 4189.86 Q5159.81 4189.86 5174.26 4185.97 Q5188.89 4181.9 5203.33 4173.93 L5203.33 4205.41 Q5189.07 4212.08 5173.7 4215.41 Q5158.52 4218.75 5141.29 4218.75 Q5094.44 4218.75 5066.85 4189.3 Q5039.26 4159.86 5039.26 4109.86 Q5039.26 4059.12 5067.03 4030.04 Q5095 4000.97 5143.52 4000.97 Q5159.26 4000.97 5174.26 4004.3 Q5189.26 4007.45 5203.33 4013.93 Z" fill="#000000" fill-rule="evenodd" fill-opacity="1" /><path clip-path="url(#clip4700)" d="M 0 0 M5396.66 4276.34 L5396.66 4302.82 L5199.63 4302.82 L5199.63 4276.34 L5396.66 4276.34 Z" fill="#000000" fill-rule="evenodd" fill-opacity="1" /><path clip-path="url(#clip4700)" d="M 0 0 M5433.88 3936.9 L5471.29 3936.9 L5471.29 4194.12 Q5471.29 4244.12 5452.22 4266.71 Q5433.33 4289.3 5391.29 4289.3 L5377.03 4289.3 L5377.03 4257.82 L5388.7 4257.82 Q5413.51 4257.82 5423.7 4243.93 Q5433.88 4230.04 5433.88 4194.12 L5433.88 3936.9 Z" fill="#000000" fill-rule="evenodd" fill-opacity="1" /><path clip-path="url(#clip4700)" d="M 0 0 M5518.33 4181.9 L5579.44 4181.9 L5579.44 3970.97 L5512.96 3984.3 L5512.96 3950.23 L5579.07 3936.9 L5616.48 3936.9 L5616.48 4181.9 L5677.59 4181.9 L5677.59 4213.38 L5518.33 4213.38 L5518.33 4181.9 Z" fill="#000000" fill-rule="evenodd" fill-opacity="1" /><path clip-path="url(#clip4700)" d="M 0 0 M5838.33 4041.16 L6075.73 4041.16 L6075.73 4072.27 L5838.33 4072.27 L5838.33 4041.16 M5838.33 4116.71 L6075.73 4116.71 L6075.73 4148.19 L5838.33 4148.19 L5838.33 4116.71 Z" fill="#000000" fill-rule="evenodd" fill-opacity="1" /><path clip-path="url(#clip4700)" d="M 0 0 M6316.84 3961.53 Q6287.95 3961.53 6273.32 3990.04 Q6258.88 4018.38 6258.88 4075.41 Q6258.88 4132.27 6273.32 4160.78 Q6287.95 4189.12 6316.84 4189.12 Q6345.92 4189.12 6360.36 4160.78 Q6374.99 4132.27 6374.99 4075.41 Q6374.99 4018.38 6360.36 3990.04 Q6345.92 3961.53 6316.84 3961.53 M6316.84 3931.9 Q6363.32 3931.9 6387.77 3968.75 Q6412.4 4005.42 6412.4 4075.41 Q6412.4 4145.23 6387.77 4182.08 Q6363.32 4218.75 6316.84 4218.75 Q6270.36 4218.75 6245.73 4182.08 Q6221.29 4145.23 6221.29 4075.41 Q6221.29 4005.42 6245.73 3968.75 Q6270.36 3931.9 6316.84 3931.9 Z" fill="#000000" fill-rule="evenodd" fill-opacity="1" /><path clip-path="url(#clip4700)" d="M 0 0 M6452.95 4166.34 L6492.03 4166.34 L6492.03 4213.38 L6452.95 4213.38 L6452.95 4166.34 Z" fill="#000000" fill-rule="evenodd" fill-opacity="1" /><path clip-path="url(#clip4700)" d="M 0 0 M6564.8 4181.9 L6695.36 4181.9 L6695.36 4213.38 L6519.8 4213.38 L6519.8 4181.9 Q6541.1 4159.86 6577.77 4122.82 Q6614.62 4085.6 6624.06 4074.86 Q6642.03 4054.67 6649.06 4040.79 Q6656.29 4026.71 6656.29 4013.19 Q6656.29 3991.16 6640.73 3977.27 Q6625.36 3963.38 6600.55 3963.38 Q6582.95 3963.38 6563.32 3969.49 Q6543.88 3975.6 6521.66 3988.01 L6521.66 3950.23 Q6544.25 3941.16 6563.88 3936.53 Q6583.51 3931.9 6599.8 3931.9 Q6642.77 3931.9 6668.32 3953.38 Q6693.88 3974.86 6693.88 4010.79 Q6693.88 4027.82 6687.4 4043.19 Q6681.1 4058.38 6664.25 4079.12 Q6659.62 4084.49 6634.8 4110.23 Q6609.99 4135.78 6564.8 4181.9 Z" fill="#000000" fill-rule="evenodd" fill-opacity="1" /><path clip-path="url(#clip4700)" d="M 0 0 M6736.29 3936.9 L6883.14 3936.9 L6883.14 3968.38 L6770.54 3968.38 L6770.54 4036.16 Q6778.69 4033.38 6786.84 4032.08 Q6794.99 4030.6 6803.14 4030.6 Q6849.43 4030.6 6876.47 4055.97 Q6903.51 4081.34 6903.51 4124.67 Q6903.51 4169.3 6875.73 4194.12 Q6847.95 4218.75 6797.4 4218.75 Q6779.99 4218.75 6761.84 4215.78 Q6743.88 4212.82 6724.62 4206.9 L6724.62 4169.3 Q6741.29 4178.38 6759.06 4182.82 Q6776.84 4187.27 6796.66 4187.27 Q6828.69 4187.27 6847.4 4170.41 Q6866.1 4153.56 6866.1 4124.67 Q6866.1 4095.79 6847.4 4078.93 Q6828.69 4062.08 6796.66 4062.08 Q6781.66 4062.08 6766.66 4065.41 Q6751.84 4068.75 6736.29 4075.79 L6736.29 3936.9 Z" fill="#000000" fill-rule="evenodd" fill-opacity="1" /><polyline clip-path="url(#clip4700)" style="stroke:#00a9ad; stroke-width:32; stroke-opacity:1; fill:none" points="
  2583.04,4558.98 3735.04,4558.98 
  "/>
<path clip-path="url(#clip4700)" d="M 0 0 M3964.45 4451.48 L3964.45 4555.37 L4011.48 4555.37 Q4037.6 4555.37 4051.86 4541.85 Q4066.11 4528.33 4066.11 4503.33 Q4066.11 4478.51 4051.86 4465 Q4037.6 4451.48 4011.48 4451.48 L3964.45 4451.48 M3927.04 4420.74 L4011.48 4420.74 Q4057.97 4420.74 4081.67 4441.85 Q4105.56 4462.77 4105.56 4503.33 Q4105.56 4544.25 4081.67 4565.18 Q4057.97 4586.11 4011.48 4586.11 L3964.45 4586.11 L3964.45 4697.22 L3927.04 4697.22 L3927.04 4420.74 Z" fill="#000000" fill-rule="evenodd" fill-opacity="1" /><path clip-path="url(#clip4700)" d="M 0 0 M4305.19 4585 L4305.19 4601.66 L4148.52 4601.66 Q4150.74 4636.85 4169.63 4655.37 Q4188.71 4673.7 4222.59 4673.7 Q4242.22 4673.7 4260.56 4668.88 Q4279.08 4664.07 4297.22 4654.44 L4297.22 4686.66 Q4278.89 4694.44 4259.63 4698.51 Q4240.37 4702.59 4220.56 4702.59 Q4170.93 4702.59 4141.85 4673.7 Q4112.97 4644.81 4112.97 4595.55 Q4112.97 4544.63 4140.37 4514.81 Q4167.97 4484.81 4214.63 4484.81 Q4256.48 4484.81 4280.74 4511.85 Q4305.19 4538.7 4305.19 4585 M4271.11 4575 Q4270.74 4547.03 4255.37 4530.37 Q4240.19 4513.7 4215 4513.7 Q4186.48 4513.7 4169.26 4529.81 Q4152.22 4545.92 4149.63 4575.18 L4271.11 4575 Z" fill="#000000" fill-rule="evenodd" fill-opacity="1" /><path clip-path="url(#clip4700)" d="M 0 0 M4461.11 4521.66 Q4455.37 4518.33 4448.52 4516.85 Q4441.85 4515.18 4433.7 4515.18 Q4404.82 4515.18 4389.26 4534.07 Q4373.89 4552.77 4373.89 4587.96 L4373.89 4697.22 L4339.63 4697.22 L4339.63 4489.81 L4373.89 4489.81 L4373.89 4522.03 Q4384.63 4503.14 4401.85 4494.07 Q4419.08 4484.81 4443.7 4484.81 Q4447.22 4484.81 4451.48 4485.37 Q4455.74 4485.74 4460.93 4486.66 L4461.11 4521.66 Z" fill="#000000" fill-rule="evenodd" fill-opacity="1" /><path clip-path="url(#clip4700)" d="M 0 0 M4496.85 4489.81 L4530.93 4489.81 L4530.93 4697.22 L4496.85 4697.22 L4496.85 4489.81 M4496.85 4409.07 L4530.93 4409.07 L4530.93 4452.22 L4496.85 4452.22 L4496.85 4409.07 Z" fill="#000000" fill-rule="evenodd" fill-opacity="1" /><path clip-path="url(#clip4700)" d="M 0 0 M4647.04 4513.7 Q4619.63 4513.7 4603.7 4535.18 Q4587.78 4556.48 4587.78 4593.7 Q4587.78 4630.92 4603.52 4652.4 Q4619.44 4673.7 4647.04 4673.7 Q4674.26 4673.7 4690.18 4652.22 Q4706.11 4630.74 4706.11 4593.7 Q4706.11 4556.85 4690.18 4535.37 Q4674.26 4513.7 4647.04 4513.7 M4647.04 4484.81 Q4691.48 4484.81 4716.85 4513.7 Q4742.22 4542.59 4742.22 4593.7 Q4742.22 4644.62 4716.85 4673.7 Q4691.48 4702.59 4647.04 4702.59 Q4602.41 4702.59 4577.04 4673.7 Q4551.85 4644.62 4551.85 4593.7 Q4551.85 4542.59 4577.04 4513.7 Q4602.41 4484.81 4647.04 4484.81 Z" fill="#000000" fill-rule="evenodd" fill-opacity="1" /><path clip-path="url(#clip4700)" d="M 0 0 M4914.44 4521.29 L4914.44 4409.07 L4948.52 4409.07 L4948.52 4697.22 L4914.44 4697.22 L4914.44 4666.11 Q4903.7 4684.62 4887.22 4693.7 Q4870.92 4702.59 4847.96 4702.59 Q4810.37 4702.59 4786.67 4672.59 Q4763.15 4642.59 4763.15 4593.7 Q4763.15 4544.81 4786.67 4514.81 Q4810.37 4484.81 4847.96 4484.81 Q4870.92 4484.81 4887.22 4493.88 Q4903.7 4502.77 4914.44 4521.29 M4798.33 4593.7 Q4798.33 4631.29 4813.7 4652.77 Q4829.26 4674.07 4856.3 4674.07 Q4883.33 4674.07 4898.89 4652.77 Q4914.44 4631.29 4914.44 4593.7 Q4914.44 4556.11 4898.89 4534.81 Q4883.33 4513.33 4856.3 4513.33 Q4829.26 4513.33 4813.7 4534.81 Q4798.33 4556.11 4798.33 4593.7 Z" fill="#000000" fill-rule="evenodd" fill-opacity="1" /><path clip-path="url(#clip4700)" d="M 0 0 M4984.26 4489.81 L5018.33 4489.81 L5018.33 4697.22 L4984.26 4697.22 L4984.26 4489.81 M4984.26 4409.07 L5018.33 4409.07 L5018.33 4452.22 L4984.26 4452.22 L4984.26 4409.07 Z" fill="#000000" fill-rule="evenodd" fill-opacity="1" /><path clip-path="url(#clip4700)" d="M 0 0 M5203.33 4497.77 L5203.33 4529.63 Q5188.89 4521.66 5174.26 4517.77 Q5159.81 4513.7 5145 4513.7 Q5111.85 4513.7 5093.52 4534.81 Q5075.18 4555.74 5075.18 4593.7 Q5075.18 4631.66 5093.52 4652.77 Q5111.85 4673.7 5145 4673.7 Q5159.81 4673.7 5174.26 4669.81 Q5188.89 4665.74 5203.33 4657.77 L5203.33 4689.25 Q5189.07 4695.92 5173.7 4699.25 Q5158.52 4702.59 5141.29 4702.59 Q5094.44 4702.59 5066.85 4673.14 Q5039.26 4643.7 5039.26 4593.7 Q5039.26 4542.96 5067.03 4513.88 Q5095 4484.81 5143.52 4484.81 Q5159.26 4484.81 5174.26 4488.14 Q5189.26 4491.29 5203.33 4497.77 Z" fill="#000000" fill-rule="evenodd" fill-opacity="1" /><path clip-path="url(#clip4700)" d="M 0 0 M5396.66 4760.18 L5396.66 4786.66 L5199.63 4786.66 L5199.63 4760.18 L5396.66 4760.18 Z" fill="#000000" fill-rule="evenodd" fill-opacity="1" /><path clip-path="url(#clip4700)" d="M 0 0 M5433.88 4420.74 L5471.29 4420.74 L5471.29 4677.96 Q5471.29 4727.96 5452.22 4750.55 Q5433.33 4773.14 5391.29 4773.14 L5377.03 4773.14 L5377.03 4741.66 L5388.7 4741.66 Q5413.51 4741.66 5423.7 4727.77 Q5433.88 4713.88 5433.88 4677.96 L5433.88 4420.74 Z" fill="#000000" fill-rule="evenodd" fill-opacity="1" /><path clip-path="url(#clip4700)" d="M 0 0 M5518.33 4665.74 L5579.44 4665.74 L5579.44 4454.81 L5512.96 4468.14 L5512.96 4434.07 L5579.07 4420.74 L5616.48 4420.74 L5616.48 4665.74 L5677.59 4665.74 L5677.59 4697.22 L5518.33 4697.22 L5518.33 4665.74 Z" fill="#000000" fill-rule="evenodd" fill-opacity="1" /><path clip-path="url(#clip4700)" d="M 0 0 M5838.33 4525 L6075.73 4525 L6075.73 4556.11 L5838.33 4556.11 L5838.33 4525 M5838.33 4600.55 L6075.73 4600.55 L6075.73 4632.03 L5838.33 4632.03 L5838.33 4600.55 Z" fill="#000000" fill-rule="evenodd" fill-opacity="1" /><path clip-path="url(#clip4700)" d="M 0 0 M6316.84 4445.37 Q6287.95 4445.37 6273.32 4473.88 Q6258.88 4502.22 6258.88 4559.25 Q6258.88 4616.11 6273.32 4644.62 Q6287.95 4672.96 6316.84 4672.96 Q6345.92 4672.96 6360.36 4644.62 Q6374.99 4616.11 6374.99 4559.25 Q6374.99 4502.22 6360.36 4473.88 Q6345.92 4445.37 6316.84 4445.37 M6316.84 4415.74 Q6363.32 4415.74 6387.77 4452.59 Q6412.4 4489.26 6412.4 4559.25 Q6412.4 4629.07 6387.77 4665.92 Q6363.32 4702.59 6316.84 4702.59 Q6270.36 4702.59 6245.73 4665.92 Q6221.29 4629.07 6221.29 4559.25 Q6221.29 4489.26 6245.73 4452.59 Q6270.36 4415.74 6316.84 4415.74 Z" fill="#000000" fill-rule="evenodd" fill-opacity="1" /><path clip-path="url(#clip4700)" d="M 0 0 M6452.95 4650.18 L6492.03 4650.18 L6492.03 4697.22 L6452.95 4697.22 L6452.95 4650.18 Z" fill="#000000" fill-rule="evenodd" fill-opacity="1" /><path clip-path="url(#clip4700)" d="M 0 0 M6532.95 4420.74 L6679.8 4420.74 L6679.8 4452.22 L6567.21 4452.22 L6567.21 4520 Q6575.36 4517.22 6583.51 4515.92 Q6591.66 4514.44 6599.8 4514.44 Q6646.1 4514.44 6673.14 4539.81 Q6700.17 4565.18 6700.17 4608.51 Q6700.17 4653.14 6672.4 4677.96 Q6644.62 4702.59 6594.06 4702.59 Q6576.66 4702.59 6558.51 4699.62 Q6540.55 4696.66 6521.29 4690.74 L6521.29 4653.14 Q6537.95 4662.22 6555.73 4666.66 Q6573.51 4671.11 6593.32 4671.11 Q6625.36 4671.11 6644.06 4654.25 Q6662.77 4637.4 6662.77 4608.51 Q6662.77 4579.63 6644.06 4562.77 Q6625.36 4545.92 6593.32 4545.92 Q6578.32 4545.92 6563.32 4549.25 Q6548.51 4552.59 6532.95 4559.63 L6532.95 4420.74 Z" fill="#000000" fill-rule="evenodd" fill-opacity="1" /></svg>
