<?xml version="1.0" encoding="utf-8"?>
<svg xmlns="http://www.w3.org/2000/svg" xmlns:xlink="http://www.w3.org/1999/xlink" width="4800" height="3200" viewBox="0 0 19200 12800">
<defs>
  <clipPath id="clip5900">
    <rect x="0" y="0" width="19200" height="12800"/>
  </clipPath>
</defs>
<path clip-path="url(#clip5900)" d="
M0 12800 L19200 12800 L19200 0 L0 0  Z
  " fill="#ffffff" fill-rule="evenodd" fill-opacity="1"/>
<defs>
  <clipPath id="clip5901">
    <rect x="3840" y="0" width="13441" height="12800"/>
  </clipPath>
</defs>
<path clip-path="url(#clip5900)" d="
M1805.78 11385.4 L18822 11385.4 L18822 987.777 L1805.78 987.777  Z
  " fill="#ffffff" fill-rule="evenodd" fill-opacity="1"/>
<defs>
  <clipPath id="clip5902">
    <rect x="1805" y="987" width="17017" height="10399"/>
  </clipPath>
</defs>
<polyline clip-path="url(#clip5902)" style="stroke:#000000; stroke-width:16; stroke-opacity:0.1; fill:none" points="
  2287.37,11385.4 2287.37,987.777 
  "/>
<polyline clip-path="url(#clip5902)" style="stroke:#000000; stroke-width:16; stroke-opacity:0.1; fill:none" points="
  4962.89,11385.4 4962.89,987.777 
  "/>
<polyline clip-path="url(#clip5902)" style="stroke:#000000; stroke-width:16; stroke-opacity:0.1; fill:none" points="
  7638.4,11385.4 7638.4,987.777 
  "/>
<polyline clip-path="url(#clip5902)" style="stroke:#000000; stroke-width:16; stroke-opacity:0.1; fill:none" points="
  10313.9,11385.4 10313.9,987.777 
  "/>
<polyline clip-path="url(#clip5902)" style="stroke:#000000; stroke-width:16; stroke-opacity:0.1; fill:none" points="
  12989.4,11385.4 12989.4,987.777 
  "/>
<polyline clip-path="url(#clip5902)" style="stroke:#000000; stroke-width:16; stroke-opacity:0.1; fill:none" points="
  15664.9,11385.4 15664.9,987.777 
  "/>
<polyline clip-path="url(#clip5902)" style="stroke:#000000; stroke-width:16; stroke-opacity:0.1; fill:none" points="
  18340.5,11385.4 18340.5,987.777 
  "/>
<polyline clip-path="url(#clip5902)" style="stroke:#000000; stroke-width:16; stroke-opacity:0.1; fill:none" points="
  1805.78,11091.7 18822,11091.7 
  "/>
<polyline clip-path="url(#clip5902)" style="stroke:#000000; stroke-width:16; stroke-opacity:0.1; fill:none" points="
  1805.78,8165.91 18822,8165.91 
  "/>
<polyline clip-path="url(#clip5902)" style="stroke:#000000; stroke-width:16; stroke-opacity:0.1; fill:none" points="
  1805.78,5240.08 18822,5240.08 
  "/>
<polyline clip-path="url(#clip5902)" style="stroke:#000000; stroke-width:16; stroke-opacity:0.1; fill:none" points="
  1805.78,2314.25 18822,2314.25 
  "/>
<polyline clip-path="url(#clip5900)" style="stroke:#000000; stroke-width:32; stroke-opacity:1; fill:none" points="
  1805.78,11385.4 18822,11385.4 
  "/>
<polyline clip-path="url(#clip5900)" style="stroke:#000000; stroke-width:32; stroke-opacity:1; fill:none" points="
  1805.78,11385.4 1805.78,987.777 
  "/>
<polyline clip-path="url(#clip5900)" style="stroke:#000000; stroke-width:32; stroke-opacity:1; fill:none" points="
  2287.37,11385.4 2287.37,11260.7 
  "/>
<polyline clip-path="url(#clip5900)" style="stroke:#000000; stroke-width:32; stroke-opacity:1; fill:none" points="
  4962.89,11385.4 4962.89,11260.7 
  "/>
<polyline clip-path="url(#clip5900)" style="stroke:#000000; stroke-width:32; stroke-opacity:1; fill:none" points="
  7638.4,11385.4 7638.4,11260.7 
  "/>
<polyline clip-path="url(#clip5900)" style="stroke:#000000; stroke-width:32; stroke-opacity:1; fill:none" points="
  10313.9,11385.4 10313.9,11260.7 
  "/>
<polyline clip-path="url(#clip5900)" style="stroke:#000000; stroke-width:32; stroke-opacity:1; fill:none" points="
  12989.4,11385.4 12989.4,11260.7 
  "/>
<polyline clip-path="url(#clip5900)" style="stroke:#000000; stroke-width:32; stroke-opacity:1; fill:none" points="
  15664.9,11385.4 15664.9,11260.7 
  "/>
<polyline clip-path="url(#clip5900)" style="stroke:#000000; stroke-width:32; stroke-opacity:1; fill:none" points="
  18340.5,11385.4 18340.5,11260.7 
  "/>
<polyline clip-path="url(#clip5900)" style="stroke:#000000; stroke-width:32; stroke-opacity:1; fill:none" points="
  1805.78,11091.7 2009.98,11091.7 
  "/>
<polyline clip-path="url(#clip5900)" style="stroke:#000000; stroke-width:32; stroke-opacity:1; fill:none" points="
  1805.78,8165.91 2009.98,8165.91 
  "/>
<polyline clip-path="url(#clip5900)" style="stroke:#000000; stroke-width:32; stroke-opacity:1; fill:none" points="
  1805.78,5240.08 2009.98,5240.08 
  "/>
<polyline clip-path="url(#clip5900)" style="stroke:#000000; stroke-width:32; stroke-opacity:1; fill:none" points="
  1805.78,2314.25 2009.98,2314.25 
  "/>
<path clip-path="url(#clip5900)" d="M 0 0 M2142.1 11561.4 Q2113.21 11561.4 2098.58 11589.9 Q2084.13 11618.2 2084.13 11675.3 Q2084.13 11732.1 2098.58 11760.6 Q2113.21 11789 2142.1 11789 Q2171.17 11789 2185.62 11760.6 Q2200.24 11732.1 2200.24 11675.3 Q2200.24 11618.2 2185.62 11589.9 Q2171.17 11561.4 2142.1 11561.4 M2142.1 11531.7 Q2188.58 11531.7 2213.02 11568.6 Q2237.65 11605.3 2237.65 11675.3 Q2237.65 11745.1 2213.02 11781.9 Q2188.58 11818.6 2142.1 11818.6 Q2095.62 11818.6 2070.99 11781.9 Q2046.54 11745.1 2046.54 11675.3 Q2046.54 11605.3 2070.99 11568.6 Q2095.62 11531.7 2142.1 11531.7 Z" fill="#000000" fill-rule="evenodd" fill-opacity="1" /><path clip-path="url(#clip5900)" d="M 0 0 M2278.21 11766.2 L2317.28 11766.2 L2317.28 11813.2 L2278.21 11813.2 L2278.21 11766.2 Z" fill="#000000" fill-rule="evenodd" fill-opacity="1" /><path clip-path="url(#clip5900)" d="M 0 0 M2471.17 11664.1 Q2498.02 11669.9 2513.02 11688 Q2528.21 11706.2 2528.21 11732.8 Q2528.21 11773.8 2500.06 11796.2 Q2471.91 11818.6 2420.06 11818.6 Q2402.65 11818.6 2384.13 11815.1 Q2365.8 11811.7 2346.17 11804.9 L2346.17 11768.8 Q2361.73 11777.8 2380.24 11782.5 Q2398.76 11787.1 2418.95 11787.1 Q2454.13 11787.1 2472.47 11773.2 Q2490.98 11759.3 2490.98 11732.8 Q2490.98 11708.4 2473.76 11694.7 Q2456.73 11680.8 2426.17 11680.8 L2393.95 11680.8 L2393.95 11650.1 L2427.65 11650.1 Q2455.24 11650.1 2469.87 11639.1 Q2484.5 11628 2484.5 11607.3 Q2484.5 11586 2469.32 11574.7 Q2454.32 11563.2 2426.17 11563.2 Q2410.8 11563.2 2393.21 11566.5 Q2375.61 11569.9 2354.5 11576.9 L2354.5 11543.6 Q2375.8 11537.7 2394.32 11534.7 Q2413.02 11531.7 2429.5 11531.7 Q2472.1 11531.7 2496.91 11551.2 Q2521.72 11570.4 2521.72 11603.4 Q2521.72 11626.4 2508.58 11642.3 Q2495.43 11658 2471.17 11664.1 Z" fill="#000000" fill-rule="evenodd" fill-opacity="1" /><path clip-path="url(#clip5900)" d="M 0 0 M4813.07 11561.4 Q4784.18 11561.4 4769.56 11589.9 Q4755.11 11618.2 4755.11 11675.3 Q4755.11 11732.1 4769.56 11760.6 Q4784.18 11789 4813.07 11789 Q4842.15 11789 4856.59 11760.6 Q4871.22 11732.1 4871.22 11675.3 Q4871.22 11618.2 4856.59 11589.9 Q4842.15 11561.4 4813.07 11561.4 M4813.07 11531.7 Q4859.55 11531.7 4884 11568.6 Q4908.63 11605.3 4908.63 11675.3 Q4908.63 11745.1 4884 11781.9 Q4859.55 11818.6 4813.07 11818.6 Q4766.59 11818.6 4741.96 11781.9 Q4717.52 11745.1 4717.52 11675.3 Q4717.52 11605.3 4741.96 11568.6 Q4766.59 11531.7 4813.07 11531.7 Z" fill="#000000" fill-rule="evenodd" fill-opacity="1" /><path clip-path="url(#clip5900)" d="M 0 0 M4949.18 11766.2 L4988.26 11766.2 L4988.26 11813.2 L4949.18 11813.2 L4949.18 11766.2 Z" fill="#000000" fill-rule="evenodd" fill-opacity="1" /><path clip-path="url(#clip5900)" d="M 0 0 M5131.59 11569.3 L5037.15 11716.9 L5131.59 11716.9 L5131.59 11569.3 M5121.78 11536.7 L5168.81 11536.7 L5168.81 11716.9 L5208.26 11716.9 L5208.26 11748 L5168.81 11748 L5168.81 11813.2 L5131.59 11813.2 L5131.59 11748 L5006.78 11748 L5006.78 11711.9 L5121.78 11536.7 Z" fill="#000000" fill-rule="evenodd" fill-opacity="1" /><path clip-path="url(#clip5900)" d="M 0 0 M7494.51 11561.4 Q7465.62 11561.4 7450.99 11589.9 Q7436.55 11618.2 7436.55 11675.3 Q7436.55 11732.1 7450.99 11760.6 Q7465.62 11789 7494.51 11789 Q7523.59 11789 7538.03 11760.6 Q7552.66 11732.1 7552.66 11675.3 Q7552.66 11618.2 7538.03 11589.9 Q7523.59 11561.4 7494.51 11561.4 M7494.51 11531.7 Q7540.99 11531.7 7565.44 11568.6 Q7590.07 11605.3 7590.07 11675.3 Q7590.07 11745.1 7565.44 11781.9 Q7540.99 11818.6 7494.51 11818.6 Q7448.03 11818.6 7423.4 11781.9 Q7398.96 11745.1 7398.96 11675.3 Q7398.96 11605.3 7423.4 11568.6 Q7448.03 11531.7 7494.51 11531.7 Z" fill="#000000" fill-rule="evenodd" fill-opacity="1" /><path clip-path="url(#clip5900)" d="M 0 0 M7630.62 11766.2 L7669.7 11766.2 L7669.7 11813.2 L7630.62 11813.2 L7630.62 11766.2 Z" fill="#000000" fill-rule="evenodd" fill-opacity="1" /><path clip-path="url(#clip5900)" d="M 0 0 M7710.62 11536.7 L7857.47 11536.7 L7857.47 11568.2 L7744.88 11568.2 L7744.88 11636 Q7753.03 11633.2 7761.18 11631.9 Q7769.33 11630.4 7777.47 11630.4 Q7823.77 11630.4 7850.81 11655.8 Q7877.84 11681.2 7877.84 11724.5 Q7877.84 11769.1 7850.07 11794 Q7822.29 11818.6 7771.73 11818.6 Q7754.33 11818.6 7736.18 11815.6 Q7718.22 11812.7 7698.96 11806.7 L7698.96 11769.1 Q7715.62 11778.2 7733.4 11782.7 Q7751.18 11787.1 7770.99 11787.1 Q7803.03 11787.1 7821.73 11770.3 Q7840.44 11753.4 7840.44 11724.5 Q7840.44 11695.6 7821.73 11678.8 Q7803.03 11661.9 7770.99 11661.9 Q7755.99 11661.9 7740.99 11665.3 Q7726.18 11668.6 7710.62 11675.6 L7710.62 11536.7 Z" fill="#000000" fill-rule="evenodd" fill-opacity="1" /><path clip-path="url(#clip5900)" d="M 0 0 M10165.4 11561.4 Q10136.5 11561.4 10121.9 11589.9 Q10107.4 11618.2 10107.4 11675.3 Q10107.4 11732.1 10121.9 11760.6 Q10136.5 11789 10165.4 11789 Q10194.5 11789 10208.9 11760.6 Q10223.5 11732.1 10223.5 11675.3 Q10223.5 11618.2 10208.9 11589.9 Q10194.5 11561.4 10165.4 11561.4 M10165.4 11531.7 Q10211.9 11531.7 10236.3 11568.6 Q10261 11605.3 10261 11675.3 Q10261 11745.1 10236.3 11781.9 Q10211.9 11818.6 10165.4 11818.6 Q10118.9 11818.6 10094.3 11781.9 Q10069.8 11745.1 10069.8 11675.3 Q10069.8 11605.3 10094.3 11568.6 Q10118.9 11531.7 10165.4 11531.7 Z" fill="#000000" fill-rule="evenodd" fill-opacity="1" /><path clip-path="url(#clip5900)" d="M 0 0 M10301.5 11766.2 L10340.6 11766.2 L10340.6 11813.2 L10301.5 11813.2 L10301.5 11766.2 Z" fill="#000000" fill-rule="evenodd" fill-opacity="1" /><path clip-path="url(#clip5900)" d="M 0 0 M10465.8 11660.1 Q10440.6 11660.1 10425.8 11677.3 Q10411.1 11694.5 10411.1 11724.5 Q10411.1 11754.3 10425.8 11771.7 Q10440.6 11789 10465.8 11789 Q10491 11789 10505.6 11771.7 Q10520.4 11754.3 10520.4 11724.5 Q10520.4 11694.5 10505.6 11677.3 Q10491 11660.1 10465.8 11660.1 M10540 11542.8 L10540 11576.9 Q10526 11570.3 10511.5 11566.7 Q10497.2 11563.2 10483.2 11563.2 Q10446.1 11563.2 10426.5 11588.2 Q10407.1 11613.2 10404.3 11663.8 Q10415.2 11647.7 10431.7 11639.1 Q10448.2 11630.4 10468 11630.4 Q10509.7 11630.4 10533.7 11655.8 Q10558 11681 10558 11724.5 Q10558 11767.1 10532.8 11792.8 Q10507.6 11818.6 10465.8 11818.6 Q10417.8 11818.6 10392.4 11781.9 Q10367.1 11745.1 10367.1 11675.3 Q10367.1 11609.7 10398.2 11570.8 Q10429.3 11531.7 10481.7 11531.7 Q10495.8 11531.7 10510 11534.5 Q10524.5 11537.3 10540 11542.8 Z" fill="#000000" fill-rule="evenodd" fill-opacity="1" /><path clip-path="url(#clip5900)" d="M 0 0 M12845.2 11561.4 Q12816.3 11561.4 12801.7 11589.9 Q12787.2 11618.2 12787.2 11675.3 Q12787.2 11732.1 12801.7 11760.6 Q12816.3 11789 12845.2 11789 Q12874.2 11789 12888.7 11760.6 Q12903.3 11732.1 12903.3 11675.3 Q12903.3 11618.2 12888.7 11589.9 Q12874.2 11561.4 12845.2 11561.4 M12845.2 11531.7 Q12891.7 11531.7 12916.1 11568.6 Q12940.7 11605.3 12940.7 11675.3 Q12940.7 11745.1 12916.1 11781.9 Q12891.7 11818.6 12845.2 11818.6 Q12798.7 11818.6 12774.1 11781.9 Q12749.6 11745.1 12749.6 11675.3 Q12749.6 11605.3 12774.1 11568.6 Q12798.7 11531.7 12845.2 11531.7 Z" fill="#000000" fill-rule="evenodd" fill-opacity="1" /><path clip-path="url(#clip5900)" d="M 0 0 M12981.3 11766.2 L13020.4 11766.2 L13020.4 11813.2 L12981.3 11813.2 L12981.3 11766.2 Z" fill="#000000" fill-rule="evenodd" fill-opacity="1" /><path clip-path="url(#clip5900)" d="M 0 0 M13051.5 11536.7 L13229.2 11536.7 L13229.2 11552.7 L13128.9 11813.2 L13089.8 11813.2 L13184.2 11568.2 L13051.5 11568.2 L13051.5 11536.7 Z" fill="#000000" fill-rule="evenodd" fill-opacity="1" /><path clip-path="url(#clip5900)" d="M 0 0 M15517.4 11561.4 Q15488.6 11561.4 15473.9 11589.9 Q15459.5 11618.2 15459.5 11675.3 Q15459.5 11732.1 15473.9 11760.6 Q15488.6 11789 15517.4 11789 Q15546.5 11789 15561 11760.6 Q15575.6 11732.1 15575.6 11675.3 Q15575.6 11618.2 15561 11589.9 Q15546.5 11561.4 15517.4 11561.4 M15517.4 11531.7 Q15563.9 11531.7 15588.4 11568.6 Q15613 11605.3 15613 11675.3 Q15613 11745.1 15588.4 11781.9 Q15563.9 11818.6 15517.4 11818.6 Q15471 11818.6 15446.3 11781.9 Q15421.9 11745.1 15421.9 11675.3 Q15421.9 11605.3 15446.3 11568.6 Q15471 11531.7 15517.4 11531.7 Z" fill="#000000" fill-rule="evenodd" fill-opacity="1" /><path clip-path="url(#clip5900)" d="M 0 0 M15653.6 11766.2 L15692.6 11766.2 L15692.6 11813.2 L15653.6 11813.2 L15653.6 11766.2 Z" fill="#000000" fill-rule="evenodd" fill-opacity="1" /><path clip-path="url(#clip5900)" d="M 0 0 M15813.2 11681.9 Q15786.5 11681.9 15771.1 11696.2 Q15756 11710.4 15756 11735.4 Q15756 11760.4 15771.1 11774.7 Q15786.5 11789 15813.2 11789 Q15839.8 11789 15855.2 11774.7 Q15870.6 11760.3 15870.6 11735.4 Q15870.6 11710.4 15855.2 11696.2 Q15840 11681.9 15813.2 11681.9 M15775.8 11666 Q15751.7 11660.1 15738.2 11643.6 Q15724.8 11627.1 15724.8 11603.4 Q15724.8 11570.3 15748.4 11551 Q15772.1 11531.7 15813.2 11531.7 Q15854.5 11531.7 15878 11551 Q15901.5 11570.3 15901.5 11603.4 Q15901.5 11627.1 15888 11643.6 Q15874.7 11660.1 15850.8 11666 Q15877.8 11672.3 15892.8 11690.6 Q15908 11709 15908 11735.4 Q15908 11775.6 15883.4 11797.1 Q15858.9 11818.6 15813.2 11818.6 Q15767.4 11818.6 15742.8 11797.1 Q15718.4 11775.6 15718.4 11735.4 Q15718.4 11709 15733.6 11690.6 Q15748.7 11672.3 15775.8 11666 M15762.1 11606.9 Q15762.1 11628.4 15775.4 11640.4 Q15788.9 11652.5 15813.2 11652.5 Q15837.3 11652.5 15850.8 11640.4 Q15864.5 11628.4 15864.5 11606.9 Q15864.5 11585.4 15850.8 11573.4 Q15837.3 11561.4 15813.2 11561.4 Q15788.9 11561.4 15775.4 11573.4 Q15762.1 11585.4 15762.1 11606.9 Z" fill="#000000" fill-rule="evenodd" fill-opacity="1" /><path clip-path="url(#clip5900)" d="M 0 0 M18193.3 11561.4 Q18164.4 11561.4 18149.8 11589.9 Q18135.4 11618.2 18135.4 11675.3 Q18135.4 11732.1 18149.8 11760.6 Q18164.4 11789 18193.3 11789 Q18222.4 11789 18236.8 11760.6 Q18251.5 11732.1 18251.5 11675.3 Q18251.5 11618.2 18236.8 11589.9 Q18222.4 11561.4 18193.3 11561.4 M18193.3 11531.7 Q18239.8 11531.7 18264.3 11568.6 Q18288.9 11605.3 18288.9 11675.3 Q18288.9 11745.1 18264.3 11781.9 Q18239.8 11818.6 18193.3 11818.6 Q18146.8 11818.6 18122.2 11781.9 Q18097.8 11745.1 18097.8 11675.3 Q18097.8 11605.3 18122.2 11568.6 Q18146.8 11531.7 18193.3 11531.7 Z" fill="#000000" fill-rule="evenodd" fill-opacity="1" /><path clip-path="url(#clip5900)" d="M 0 0 M18329.4 11766.2 L18368.5 11766.2 L18368.5 11813.2 L18329.4 11813.2 L18329.4 11766.2 Z" fill="#000000" fill-rule="evenodd" fill-opacity="1" /><path clip-path="url(#clip5900)" d="M 0 0 M18410.2 11807.5 L18410.2 11773.4 Q18424.3 11780.1 18438.7 11783.6 Q18453.1 11787.1 18467 11787.1 Q18504.1 11787.1 18523.5 11762.3 Q18543.1 11737.3 18545.9 11686.5 Q18535.2 11702.5 18518.7 11711 Q18502.2 11719.5 18482.2 11719.5 Q18440.7 11719.5 18416.5 11694.5 Q18392.4 11669.3 18392.4 11625.8 Q18392.4 11583.2 18417.6 11557.5 Q18442.8 11531.7 18484.6 11531.7 Q18532.6 11531.7 18557.8 11568.6 Q18583.1 11605.3 18583.1 11675.3 Q18583.1 11740.6 18552 11779.7 Q18521.1 11818.6 18468.7 11818.6 Q18454.6 11818.6 18440.2 11815.8 Q18425.7 11813 18410.2 11807.5 M18484.6 11690.3 Q18509.8 11690.3 18524.4 11673 Q18539.3 11655.8 18539.3 11625.8 Q18539.3 11596 18524.4 11578.8 Q18509.8 11561.4 18484.6 11561.4 Q18459.4 11561.4 18444.6 11578.8 Q18430 11596 18430 11625.8 Q18430 11655.8 18444.6 11673 Q18459.4 11690.3 18484.6 11690.3 Z" fill="#000000" fill-rule="evenodd" fill-opacity="1" /><path clip-path="url(#clip5900)" d="M 0 0 M1014.9 11110.9 L1114.71 11110.9 L1114.71 11141.3 L1014.9 11141.3 L1014.9 11110.9 Z" fill="#000000" fill-rule="evenodd" fill-opacity="1" /><path clip-path="url(#clip5900)" d="M 0 0 M1187.49 11198.5 L1318.04 11198.5 L1318.04 11230 L1142.49 11230 L1142.49 11198.5 Q1163.78 11176.5 1200.45 11139.4 Q1237.3 11102.2 1246.75 11091.5 Q1264.71 11071.3 1271.75 11057.4 Q1278.97 11043.3 1278.97 11029.8 Q1278.97 11007.8 1263.41 10993.9 Q1248.04 10980 1223.23 10980 Q1205.64 10980 1186.01 10986.1 Q1166.56 10992.2 1144.34 11004.6 L1144.34 10966.8 Q1166.93 10957.8 1186.56 10953.1 Q1206.19 10948.5 1222.49 10948.5 Q1265.45 10948.5 1291.01 10970 Q1316.56 10991.5 1316.56 11027.4 Q1316.56 11044.4 1310.08 11059.8 Q1303.78 11075 1286.93 11095.7 Q1282.3 11101.1 1257.49 11126.8 Q1232.67 11152.4 1187.49 11198.5 Z" fill="#000000" fill-rule="evenodd" fill-opacity="1" /><path clip-path="url(#clip5900)" d="M 0 0 M1358.6 11183 L1397.67 11183 L1397.67 11230 L1358.6 11230 L1358.6 11183 Z" fill="#000000" fill-rule="evenodd" fill-opacity="1" /><path clip-path="url(#clip5900)" d="M 0 0 M1518.23 10978.1 Q1489.34 10978.1 1474.71 11006.7 Q1460.26 11035 1460.26 11092 Q1460.26 11148.9 1474.71 11177.4 Q1489.34 11205.7 1518.23 11205.7 Q1547.3 11205.7 1561.74 11177.4 Q1576.37 11148.9 1576.37 11092 Q1576.37 11035 1561.74 11006.7 Q1547.3 10978.1 1518.23 10978.1 M1518.23 10948.5 Q1564.71 10948.5 1589.15 10985.4 Q1613.78 11022 1613.78 11092 Q1613.78 11161.8 1589.15 11198.7 Q1564.71 11235.4 1518.23 11235.4 Q1471.75 11235.4 1447.12 11198.7 Q1422.67 11161.8 1422.67 11092 Q1422.67 11022 1447.12 10985.4 Q1471.75 10948.5 1518.23 10948.5 Z" fill="#000000" fill-rule="evenodd" fill-opacity="1" /><path clip-path="url(#clip5900)" d="M 0 0 M1019.9 8185.08 L1119.71 8185.08 L1119.71 8215.45 L1019.9 8215.45 L1019.9 8185.08 Z" fill="#000000" fill-rule="evenodd" fill-opacity="1" /><path clip-path="url(#clip5900)" d="M 0 0 M1166.75 8272.67 L1227.86 8272.67 L1227.86 8061.75 L1161.38 8075.08 L1161.38 8041.01 L1227.49 8027.67 L1264.89 8027.67 L1264.89 8272.67 L1326.01 8272.67 L1326.01 8304.15 L1166.75 8304.15 L1166.75 8272.67 Z" fill="#000000" fill-rule="evenodd" fill-opacity="1" /><path clip-path="url(#clip5900)" d="M 0 0 M1366.56 8257.12 L1405.63 8257.12 L1405.63 8304.15 L1366.56 8304.15 L1366.56 8257.12 Z" fill="#000000" fill-rule="evenodd" fill-opacity="1" /><path clip-path="url(#clip5900)" d="M 0 0 M1446.56 8027.67 L1593.41 8027.67 L1593.41 8059.16 L1480.82 8059.16 L1480.82 8126.93 Q1488.97 8124.16 1497.12 8122.86 Q1505.26 8121.38 1513.41 8121.38 Q1559.71 8121.38 1586.74 8146.75 Q1613.78 8172.12 1613.78 8215.45 Q1613.78 8260.08 1586 8284.9 Q1558.23 8309.52 1507.67 8309.52 Q1490.26 8309.52 1472.12 8306.56 Q1454.15 8303.6 1434.89 8297.67 L1434.89 8260.08 Q1451.56 8269.15 1469.34 8273.6 Q1487.12 8278.04 1506.93 8278.04 Q1538.97 8278.04 1557.67 8261.19 Q1576.37 8244.34 1576.37 8215.45 Q1576.37 8186.56 1557.67 8169.71 Q1538.97 8152.86 1506.93 8152.86 Q1491.93 8152.86 1476.93 8156.19 Q1462.12 8159.53 1446.56 8166.56 L1446.56 8027.67 Z" fill="#000000" fill-rule="evenodd" fill-opacity="1" /><path clip-path="url(#clip5900)" d="M 0 0 M1011.93 5259.25 L1111.75 5259.25 L1111.75 5289.62 L1011.93 5289.62 L1011.93 5259.25 Z" fill="#000000" fill-rule="evenodd" fill-opacity="1" /><path clip-path="url(#clip5900)" d="M 0 0 M1158.78 5346.84 L1219.89 5346.84 L1219.89 5135.91 L1153.41 5149.25 L1153.41 5115.17 L1219.52 5101.84 L1256.93 5101.84 L1256.93 5346.84 L1318.04 5346.84 L1318.04 5378.32 L1158.78 5378.32 L1158.78 5346.84 Z" fill="#000000" fill-rule="evenodd" fill-opacity="1" /><path clip-path="url(#clip5900)" d="M 0 0 M1358.6 5331.28 L1397.67 5331.28 L1397.67 5378.32 L1358.6 5378.32 L1358.6 5331.28 Z" fill="#000000" fill-rule="evenodd" fill-opacity="1" /><path clip-path="url(#clip5900)" d="M 0 0 M1518.23 5126.47 Q1489.34 5126.47 1474.71 5154.99 Q1460.26 5183.32 1460.26 5240.36 Q1460.26 5297.21 1474.71 5325.73 Q1489.34 5354.06 1518.23 5354.06 Q1547.3 5354.06 1561.74 5325.73 Q1576.37 5297.21 1576.37 5240.36 Q1576.37 5183.32 1561.74 5154.99 Q1547.3 5126.47 1518.23 5126.47 M1518.23 5096.84 Q1564.71 5096.84 1589.15 5133.69 Q1613.78 5170.36 1613.78 5240.36 Q1613.78 5310.17 1589.15 5347.02 Q1564.71 5383.69 1518.23 5383.69 Q1471.75 5383.69 1447.12 5347.02 Q1422.67 5310.17 1422.67 5240.36 Q1422.67 5170.36 1447.12 5133.69 Q1471.75 5096.84 1518.23 5096.84 Z" fill="#000000" fill-rule="evenodd" fill-opacity="1" /><path clip-path="url(#clip5900)" d="M 0 0 M1010.08 2333.41 L1109.9 2333.41 L1109.9 2363.78 L1010.08 2363.78 L1010.08 2333.41 Z" fill="#000000" fill-rule="evenodd" fill-opacity="1" /><path clip-path="url(#clip5900)" d="M 0 0 M1230.45 2200.64 Q1201.56 2200.64 1186.93 2229.15 Q1172.49 2257.49 1172.49 2314.52 Q1172.49 2371.38 1186.93 2399.89 Q1201.56 2428.23 1230.45 2428.23 Q1259.52 2428.23 1273.97 2399.89 Q1288.6 2371.38 1288.6 2314.52 Q1288.6 2257.49 1273.97 2229.15 Q1259.52 2200.64 1230.45 2200.64 M1230.45 2171.01 Q1276.93 2171.01 1301.38 2207.86 Q1326.01 2244.52 1326.01 2314.52 Q1326.01 2384.34 1301.38 2421.19 Q1276.93 2457.86 1230.45 2457.86 Q1183.97 2457.86 1159.34 2421.19 Q1134.9 2384.34 1134.9 2314.52 Q1134.9 2244.52 1159.34 2207.86 Q1183.97 2171.01 1230.45 2171.01 Z" fill="#000000" fill-rule="evenodd" fill-opacity="1" /><path clip-path="url(#clip5900)" d="M 0 0 M1366.56 2405.45 L1405.63 2405.45 L1405.63 2452.49 L1366.56 2452.49 L1366.56 2405.45 Z" fill="#000000" fill-rule="evenodd" fill-opacity="1" /><path clip-path="url(#clip5900)" d="M 0 0 M1446.56 2176.01 L1593.41 2176.01 L1593.41 2207.49 L1480.82 2207.49 L1480.82 2275.27 Q1488.97 2272.49 1497.12 2271.19 Q1505.26 2269.71 1513.41 2269.71 Q1559.71 2269.71 1586.74 2295.08 Q1613.78 2320.45 1613.78 2363.78 Q1613.78 2408.41 1586 2433.23 Q1558.23 2457.86 1507.67 2457.86 Q1490.26 2457.86 1472.12 2454.89 Q1454.15 2451.93 1434.89 2446.01 L1434.89 2408.41 Q1451.56 2417.49 1469.34 2421.93 Q1487.12 2426.38 1506.93 2426.38 Q1538.97 2426.38 1557.67 2409.52 Q1576.37 2392.67 1576.37 2363.78 Q1576.37 2334.89 1557.67 2318.04 Q1538.97 2301.19 1506.93 2301.19 Q1491.93 2301.19 1476.93 2304.52 Q1462.12 2307.86 1446.56 2314.89 L1446.56 2176.01 Z" fill="#000000" fill-rule="evenodd" fill-opacity="1" /><path clip-path="url(#clip5900)" d="M 0 0 M5900.86 96.768 L6206.78 96.768 L6206.78 151.86 L5966.32 151.86 L5966.32 295.1 L6196.74 295.1 L6196.74 350.193 L5966.32 350.193 L5966.32 525.516 L6212.62 525.516 L6212.62 580.608 L5900.86 580.608 L5900.86 96.768 Z" fill="#000000" fill-rule="evenodd" fill-opacity="1" /><path clip-path="url(#clip5900)" d="M 0 0 M6550.95 690.793 L6550.95 737.135 L6206.14 737.135 L6206.14 690.793 L6550.95 690.793 Z" fill="#000000" fill-rule="evenodd" fill-opacity="1" /><path clip-path="url(#clip5900)" d="M 0 0 M6844.88 228.341 L6844.88 284.73 Q6819.6 271.767 6792.38 265.286 Q6765.16 258.804 6735.99 258.804 Q6691.6 258.804 6669.23 272.415 Q6647.2 286.026 6647.2 313.248 Q6647.2 333.989 6663.08 345.98 Q6678.96 357.646 6726.92 368.341 L6747.34 372.878 Q6810.85 386.489 6837.43 411.442 Q6864.33 436.072 6864.33 480.47 Q6864.33 531.025 6824.14 560.516 Q6784.28 590.006 6714.28 590.006 Q6685.11 590.006 6653.36 584.173 Q6621.92 578.664 6586.92 567.321 L6586.92 505.747 Q6619.98 522.923 6652.06 531.673 Q6684.14 540.099 6715.58 540.099 Q6757.71 540.099 6780.39 525.84 Q6803.08 511.257 6803.08 485.007 Q6803.08 460.701 6786.55 447.738 Q6770.35 434.775 6714.93 422.785 L6694.19 417.924 Q6638.77 406.257 6614.14 382.276 Q6589.51 357.97 6589.51 315.841 Q6589.51 264.637 6625.81 236.767 Q6662.11 208.897 6728.86 208.897 Q6761.92 208.897 6791.09 213.758 Q6820.25 218.619 6844.88 228.341 Z" fill="#000000" fill-rule="evenodd" fill-opacity="1" /><path clip-path="url(#clip5900)" d="M 0 0 M6926.87 217.647 L6986.5 217.647 L6986.5 580.608 L6926.87 580.608 L6926.87 217.647 M6926.87 76.3514 L6986.5 76.3514 L6986.5 151.86 L6926.87 151.86 L6926.87 76.3514 Z" fill="#000000" fill-rule="evenodd" fill-opacity="1" /><path clip-path="url(#clip5900)" d="M 0 0 M7108.03 114.592 L7108.03 217.647 L7230.85 217.647 L7230.85 263.989 L7108.03 263.989 L7108.03 461.025 Q7108.03 505.423 7120.02 518.062 Q7132.33 530.701 7169.6 530.701 L7230.85 530.701 L7230.85 580.608 L7169.6 580.608 Q7100.58 580.608 7074.33 555.006 Q7048.08 529.08 7048.08 461.025 L7048.08 263.989 L7004.33 263.989 L7004.33 217.647 L7048.08 217.647 L7048.08 114.592 L7108.03 114.592 Z" fill="#000000" fill-rule="evenodd" fill-opacity="1" /><path clip-path="url(#clip5900)" d="M 0 0 M7603.86 384.22 L7603.86 413.387 L7329.69 413.387 Q7333.58 474.96 7366.64 507.368 Q7400.02 539.451 7459.32 539.451 Q7493.67 539.451 7525.76 531.025 Q7558.17 522.599 7589.92 505.747 L7589.92 562.136 Q7557.84 575.747 7524.14 582.877 Q7490.43 590.006 7455.76 590.006 Q7368.91 590.006 7318.03 539.451 Q7267.47 488.896 7267.47 402.692 Q7267.47 313.572 7315.44 261.397 Q7363.72 208.897 7445.39 208.897 Q7518.63 208.897 7561.08 256.212 Q7603.86 303.202 7603.86 384.22 M7544.23 366.72 Q7543.58 317.785 7516.68 288.619 Q7490.11 259.452 7446.04 259.452 Q7396.13 259.452 7365.99 287.647 Q7336.18 315.841 7331.64 367.044 L7544.23 366.72 Z" fill="#000000" fill-rule="evenodd" fill-opacity="1" /><path clip-path="url(#clip5900)" d="M 0 0 M7892.61 498.294 L7960.99 498.294 L7960.99 580.608 L7892.61 580.608 L7892.61 498.294 M7892.61 237.415 L7960.99 237.415 L7960.99 319.73 L7892.61 319.73 L7892.61 237.415 Z" fill="#000000" fill-rule="evenodd" fill-opacity="1" /><path clip-path="url(#clip5900)" d="M 0 0 M8391.03 312.6 Q8346.96 312.6 8321.03 342.739 Q8295.43 372.878 8295.43 425.377 Q8295.43 477.553 8321.03 508.016 Q8346.96 538.155 8391.03 538.155 Q8435.11 538.155 8460.71 508.016 Q8486.63 477.553 8486.63 425.377 Q8486.63 372.878 8460.71 342.739 Q8435.11 312.6 8391.03 312.6 M8520.98 107.462 L8520.98 167.092 Q8496.35 155.425 8471.08 149.268 Q8446.12 143.11 8421.49 143.11 Q8356.68 143.11 8322.33 186.86 Q8288.3 230.61 8283.44 319.082 Q8302.56 290.887 8331.4 275.98 Q8360.24 260.749 8394.92 260.749 Q8467.84 260.749 8509.97 305.147 Q8552.42 349.22 8552.42 425.377 Q8552.42 499.914 8508.35 544.96 Q8464.27 590.006 8391.03 590.006 Q8307.1 590.006 8262.7 525.84 Q8218.3 461.349 8218.3 339.174 Q8218.3 224.453 8272.74 156.397 Q8327.19 88.018 8418.9 88.018 Q8443.53 88.018 8468.48 92.8791 Q8493.76 97.7402 8520.98 107.462 Z" fill="#000000" fill-rule="evenodd" fill-opacity="1" /><path clip-path="url(#clip5900)" d="M 0 0 M8864.5 176.49 L8748.16 239.36 L8864.5 302.554 L8845.7 334.313 L8736.82 268.526 L8736.82 390.702 L8699.87 390.702 L8699.87 268.526 L8590.98 334.313 L8572.19 302.554 L8688.53 239.36 L8572.19 176.49 L8590.98 144.407 L8699.87 210.193 L8699.87 88.018 L8736.82 88.018 L8736.82 210.193 L8845.7 144.407 L8864.5 176.49 Z" fill="#000000" fill-rule="evenodd" fill-opacity="1" /><path clip-path="url(#clip5900)" d="M 0 0 M9083.57 312.6 Q9039.5 312.6 9013.57 342.739 Q8987.97 372.878 8987.97 425.377 Q8987.97 477.553 9013.57 508.016 Q9039.5 538.155 9083.57 538.155 Q9127.65 538.155 9153.25 508.016 Q9179.18 477.553 9179.18 425.377 Q9179.18 372.878 9153.25 342.739 Q9127.65 312.6 9083.57 312.6 M9213.53 107.462 L9213.53 167.092 Q9188.9 155.425 9163.62 149.268 Q9138.67 143.11 9114.04 143.11 Q9049.22 143.11 9014.87 186.86 Q8980.84 230.61 8975.98 319.082 Q8995.1 290.887 9023.94 275.98 Q9052.79 260.749 9087.46 260.749 Q9160.38 260.749 9202.51 305.147 Q9244.96 349.22 9244.96 425.377 Q9244.96 499.914 9200.89 544.96 Q9156.81 590.006 9083.57 590.006 Q8999.64 590.006 8955.24 525.84 Q8910.84 461.349 8910.84 339.174 Q8910.84 224.453 8965.29 156.397 Q9019.73 88.018 9111.44 88.018 Q9136.07 88.018 9161.03 92.8791 Q9186.3 97.7402 9213.53 107.462 Z" fill="#000000" fill-rule="evenodd" fill-opacity="1" /><path clip-path="url(#clip5900)" d="M 0 0 M9322.74 498.294 L9391.12 498.294 L9391.12 554.034 L9337.97 657.737 L9296.17 657.737 L9322.74 554.034 L9322.74 498.294 Z" fill="#000000" fill-rule="evenodd" fill-opacity="1" /><path clip-path="url(#clip5900)" d="M 0 0 M9863.62 141.166 Q9792.32 141.166 9750.19 194.314 Q9708.39 247.462 9708.39 339.174 Q9708.39 430.563 9750.19 483.71 Q9792.32 536.858 9863.62 536.858 Q9934.91 536.858 9976.39 483.71 Q10018.2 430.563 10018.2 339.174 Q10018.2 247.462 9976.39 194.314 Q9934.91 141.166 9863.62 141.166 M9955.33 571.858 L10041.5 666.163 L9962.46 666.163 L9890.84 588.71 Q9880.14 589.358 9874.31 589.682 Q9868.8 590.006 9863.62 590.006 Q9761.53 590.006 9700.28 521.951 Q9639.36 453.572 9639.36 339.174 Q9639.36 224.453 9700.28 156.397 Q9761.53 88.018 9863.62 88.018 Q9965.37 88.018 10026.3 156.397 Q10087.2 224.453 10087.2 339.174 Q10087.2 423.433 10053.2 483.386 Q10019.5 543.34 9955.33 571.858 Z" fill="#000000" fill-rule="evenodd" fill-opacity="1" /><path clip-path="url(#clip5900)" d="M 0 0 M10368.5 279.221 L10784 279.221 L10784 333.665 L10368.5 333.665 L10368.5 279.221 M10368.5 411.442 L10784 411.442 L10784 466.535 L10368.5 466.535 L10368.5 411.442 Z" fill="#000000" fill-rule="evenodd" fill-opacity="1" /><path clip-path="url(#clip5900)" d="M 0 0 M11077.3 525.516 L11184.2 525.516 L11184.2 156.397 L11067.9 179.731 L11067.9 120.101 L11183.6 96.768 L11249 96.768 L11249 525.516 L11356 525.516 L11356 580.608 L11077.3 580.608 L11077.3 525.516 Z" fill="#000000" fill-rule="evenodd" fill-opacity="1" /><path clip-path="url(#clip5900)" d="M 0 0 M11575 312.6 Q11531 312.6 11505 342.739 Q11479.4 372.878 11479.4 425.377 Q11479.4 477.553 11505 508.016 Q11531 538.155 11575 538.155 Q11619.1 538.155 11644.7 508.016 Q11670.6 477.553 11670.6 425.377 Q11670.6 372.878 11644.7 342.739 Q11619.1 312.6 11575 312.6 M11705 107.462 L11705 167.092 Q11680.4 155.425 11655.1 149.268 Q11630.1 143.11 11605.5 143.11 Q11540.7 143.11 11506.3 186.86 Q11472.3 230.61 11467.4 319.082 Q11486.6 290.887 11515.4 275.98 Q11544.3 260.749 11578.9 260.749 Q11651.8 260.749 11694 305.147 Q11736.4 349.22 11736.4 425.377 Q11736.4 499.914 11692.4 544.96 Q11648.3 590.006 11575 590.006 Q11491.1 590.006 11446.7 525.84 Q11402.3 461.349 11402.3 339.174 Q11402.3 224.453 11456.8 156.397 Q11511.2 88.018 11602.9 88.018 Q11627.5 88.018 11652.5 92.8791 Q11677.8 97.7402 11705 107.462 Z" fill="#000000" fill-rule="evenodd" fill-opacity="1" /><path clip-path="url(#clip5900)" d="M 0 0 M11814.2 498.294 L11882.6 498.294 L11882.6 554.034 L11829.4 657.737 L11787.6 657.737 L11814.2 554.034 L11814.2 498.294 Z" fill="#000000" fill-rule="evenodd" fill-opacity="1" /><path clip-path="url(#clip5900)" d="M 0 0 M12158.7 96.768 L12224.2 96.768 L12224.2 546.904 Q12224.2 634.404 12190.8 673.941 Q12157.7 713.478 12084.2 713.478 L12059.2 713.478 L12059.2 658.385 L12079.6 658.385 Q12123 658.385 12140.9 634.08 Q12158.7 609.775 12158.7 546.904 L12158.7 96.768 Z" fill="#000000" fill-rule="evenodd" fill-opacity="1" /><path clip-path="url(#clip5900)" d="M 0 0 M12562.5 690.793 L12562.5 737.135 L12217.7 737.135 L12217.7 690.793 L12562.5 690.793 Z" fill="#000000" fill-rule="evenodd" fill-opacity="1" /><path clip-path="url(#clip5900)" d="M 0 0 M12773.5 139.87 Q12722.9 139.87 12697.3 189.777 Q12672 239.36 12672 339.174 Q12672 438.664 12697.3 488.571 Q12722.9 538.155 12773.5 538.155 Q12824.3 538.155 12849.6 488.571 Q12875.2 438.664 12875.2 339.174 Q12875.2 239.36 12849.6 189.777 Q12824.3 139.87 12773.5 139.87 M12773.5 88.018 Q12854.8 88.018 12897.6 152.508 Q12940.7 216.675 12940.7 339.174 Q12940.7 461.349 12897.6 525.84 Q12854.8 590.006 12773.5 590.006 Q12692.1 590.006 12649 525.84 Q12606.2 461.349 12606.2 339.174 Q12606.2 216.675 12649 152.508 Q12692.1 88.018 12773.5 88.018 Z" fill="#000000" fill-rule="evenodd" fill-opacity="1" /><path clip-path="url(#clip5900)" d="M 0 0 M13222 279.221 L13637.4 279.221 L13637.4 333.665 L13222 333.665 L13222 279.221 M13222 411.442 L13637.4 411.442 L13637.4 466.535 L13222 466.535 L13222 411.442 Z" fill="#000000" fill-rule="evenodd" fill-opacity="1" /><path clip-path="url(#clip5900)" d="M 0 0 M13930.7 525.516 L14037.7 525.516 L14037.7 156.397 L13921.3 179.731 L13921.3 120.101 L14037 96.768 L14102.5 96.768 L14102.5 525.516 L14209.4 525.516 L14209.4 580.608 L13930.7 580.608 L13930.7 525.516 Z" fill="#000000" fill-rule="evenodd" fill-opacity="1" /><path clip-path="url(#clip5900)" d="M 0 0 M14280.4 498.294 L14348.8 498.294 L14348.8 580.608 L14280.4 580.608 L14280.4 498.294 Z" fill="#000000" fill-rule="evenodd" fill-opacity="1" /><path clip-path="url(#clip5900)" d="M 0 0 M14559.7 139.87 Q14509.2 139.87 14483.6 189.777 Q14458.3 239.36 14458.3 339.174 Q14458.3 438.664 14483.6 488.571 Q14509.2 538.155 14559.7 538.155 Q14610.6 538.155 14635.9 488.571 Q14661.5 438.664 14661.5 339.174 Q14661.5 239.36 14635.9 189.777 Q14610.6 139.87 14559.7 139.87 M14559.7 88.018 Q14641.1 88.018 14683.9 152.508 Q14727 216.675 14727 339.174 Q14727 461.349 14683.9 525.84 Q14641.1 590.006 14559.7 590.006 Q14478.4 590.006 14435.3 525.84 Q14392.5 461.349 14392.5 339.174 Q14392.5 216.675 14435.3 152.508 Q14478.4 88.018 14559.7 88.018 Z" fill="#000000" fill-rule="evenodd" fill-opacity="1" /><path clip-path="url(#clip5900)" d="M 0 0 M10153.1 12068.2 L10474.7 12068.2 L10474.7 12111.5 L10339.8 12111.5 L10339.8 12448.4 L10288.1 12448.4 L10288.1 12111.5 L10153.1 12111.5 L10153.1 12068.2 Z" fill="#000000" fill-rule="evenodd" fill-opacity="1" /><path clip-path="url(#clip5900)" d="M 0 0 M323.873 6855.64 L323.873 6615.27 L367.16 6615.27 L367.16 6804.21 L479.706 6804.21 L479.706 6623.17 L522.993 6623.17 L522.993 6804.21 L660.746 6804.21 L660.746 6610.69 L704.033 6610.69 L704.033 6855.64 L323.873 6855.64 Z" fill="#000000" fill-rule="evenodd" fill-opacity="1" /><path clip-path="url(#clip5900)" d="M 0 0 M790.607 6344.86 L827.019 6344.86 L827.019 6615.78 L790.607 6615.78 L790.607 6344.86 Z" fill="#000000" fill-rule="evenodd" fill-opacity="1" /><path clip-path="url(#clip5900)" d="M 0 0 M427.252 6113.91 L471.558 6113.91 Q461.373 6133.77 456.28 6155.16 Q451.187 6176.55 451.187 6199.47 Q451.187 6234.35 461.882 6251.92 Q472.576 6269.23 493.965 6269.23 Q510.261 6269.23 519.682 6256.76 Q528.849 6244.28 537.252 6206.6 L540.817 6190.55 Q551.511 6140.65 571.117 6119.77 Q590.469 6098.63 625.353 6098.63 Q665.075 6098.63 688.246 6130.21 Q711.417 6161.53 711.417 6216.53 Q711.417 6239.44 706.834 6264.4 Q702.505 6289.1 693.594 6316.6 L645.214 6316.6 Q658.709 6290.62 665.584 6265.42 Q672.205 6240.21 672.205 6215.51 Q672.205 6182.41 661.001 6164.58 Q649.543 6146.76 628.918 6146.76 Q609.821 6146.76 599.636 6159.74 Q589.451 6172.48 580.029 6216.02 L576.21 6232.31 Q567.043 6275.86 548.201 6295.21 Q529.104 6314.56 496.002 6314.56 Q455.771 6314.56 433.873 6286.04 Q411.975 6257.52 411.975 6205.07 Q411.975 6179.1 415.794 6156.18 Q419.613 6133.26 427.252 6113.91 Z" fill="#000000" fill-rule="evenodd" fill-opacity="1" /><path clip-path="url(#clip5900)" d="M 0 0 M418.85 6049.49 L418.85 6002.64 L704.033 6002.64 L704.033 6049.49 L418.85 6049.49 M307.832 6049.49 L307.832 6002.64 L367.16 6002.64 L367.16 6049.49 L307.832 6049.49 Z" fill="#000000" fill-rule="evenodd" fill-opacity="1" /><path clip-path="url(#clip5900)" d="M 0 0 M337.878 5907.15 L418.85 5907.15 L418.85 5810.65 L455.261 5810.65 L455.261 5907.15 L610.075 5907.15 Q644.96 5907.15 654.89 5897.73 Q664.821 5888.06 664.821 5858.77 L664.821 5810.65 L704.033 5810.65 L704.033 5858.77 Q704.033 5913.01 683.918 5933.63 Q663.547 5954.26 610.075 5954.26 L455.261 5954.26 L455.261 5988.63 L418.85 5988.63 L418.85 5954.26 L337.878 5954.26 L337.878 5907.15 Z" fill="#000000" fill-rule="evenodd" fill-opacity="1" /><path clip-path="url(#clip5900)" d="M 0 0 M549.729 5517.57 L572.645 5517.57 L572.645 5732.99 Q621.024 5729.93 646.487 5703.96 Q671.695 5677.73 671.695 5631.14 Q671.695 5604.15 665.075 5578.94 Q658.455 5553.47 645.214 5528.52 L689.519 5528.52 Q700.214 5553.73 705.816 5580.21 Q711.417 5606.69 711.417 5633.94 Q711.417 5702.18 671.695 5742.15 Q631.973 5781.88 564.242 5781.88 Q494.22 5781.88 453.224 5744.19 Q411.975 5706.25 411.975 5642.09 Q411.975 5584.54 449.15 5551.18 Q486.071 5517.57 549.729 5517.57 M535.979 5564.42 Q497.53 5564.93 474.613 5586.07 Q451.697 5606.95 451.697 5641.58 Q451.697 5680.79 473.849 5704.47 Q496.002 5727.9 536.233 5731.46 L535.979 5564.42 Z" fill="#000000" fill-rule="evenodd" fill-opacity="1" /><polyline clip-path="url(#clip5902)" style="stroke:#009af9; stroke-width:32; stroke-opacity:1; fill:none" points="
  4962.89,11087 5098.01,11082.8 5233.14,11077 5368.27,11086.3 5503.4,11081.3 5638.52,11056.4 5773.65,11075.3 5908.78,11046 6043.9,11022.4 6179.03,11051.7 
  6314.16,11039.9 6449.28,11003.7 6584.41,11028 6719.54,11019.1 6854.66,11052 6989.79,10976.2 7124.92,10990.2 7260.05,10976.2 7395.17,10959.8 7530.3,10982.8 
  7665.43,10953.6 7800.55,10952.7 7935.68,10942 8070.81,10858.1 8205.93,10907.6 8341.06,10929.2 8476.19,10825.3 8611.32,10860.4 8746.44,10813.3 8881.57,10764.7 
  9016.7,10662.4 9151.82,10750.4 9286.95,10751.3 9422.08,10618.4 9557.2,10597.4 9692.33,10544.3 9827.46,10543.8 9962.58,10539.6 10097.7,10471 10232.8,10286.5 
  10368,10220.5 10503.1,9625.99 10638.2,9221.68 10773.3,9704.71 10908.5,9698.94 11043.6,8150.88 11178.7,6011.96 11313.9,7468.94 11449,6043.41 11584.1,6822.41 
  11719.2,7083.52 11854.4,4374.41 11989.5,5185.3 12124.6,5076.1 12259.7,2439.22 12394.9,2807.2 12530,2775.47 12665.1,2505.75 12800.3,2746.43 12935.4,2799.53 
  13070.5,2586.13 13205.6,2326.44 13340.8,2290.27 13475.9,2167.6 13611,2118.16 13746.1,2084.92 13881.3,2287.78 14016.4,2170.47 14151.5,2089.15 14286.6,1959.33 
  14421.8,1898.67 14556.9,1834.71 14692,1803.17 14827.2,2007.79 14962.3,1945.35 15097.4,2064.71 15232.5,1769.15 15367.7,1859.58 15502.8,1887.83 15637.9,1707.87 
  15773,1689.31 15908.2,1606.19 16043.3,1669.56 16178.4,1586.28 16313.6,1754.71 16448.7,1707 16583.8,1616.38 16718.9,1472.23 16854.1,1607.17 16989.2,1610.5 
  17124.3,1625 17259.4,1418.62 17394.6,1584.68 17529.7,1516.96 17664.8,1472.66 17799.9,1488.21 17935.1,1596.09 18070.2,1282.05 18205.3,1565.26 18340.5,1509.13 
  
  "/>
<polyline clip-path="url(#clip5902)" style="stroke:#e26f46; stroke-width:32; stroke-opacity:1; fill:none" points="
  4962.89,11055.2 5098.01,11062.7 5233.14,11020 5368.27,11051.7 5503.4,11038 5638.52,11018.2 5773.65,11057.3 5908.78,10997.2 6043.9,11000.2 6179.03,10992.3 
  6314.16,10989.4 6449.28,11015.5 6584.41,10970.5 6719.54,10959.9 6854.66,10957.3 6989.79,10947.3 7124.92,10889.4 7260.05,10892.1 7395.17,10837.6 7530.3,10861.4 
  7665.43,10843.4 7800.55,10810.1 7935.68,10769.5 8070.81,10764.2 8205.93,10752.5 8341.06,10739.8 8476.19,10637.9 8611.32,10657.2 8746.44,10612.2 8881.57,10546 
  9016.7,10527.6 9151.82,10466.1 9286.95,10398.1 9422.08,10465.5 9557.2,10383.6 9692.33,10328.3 9827.46,10228.3 9962.58,10098.2 10097.7,9349.76 10232.8,8781.65 
  10368,8600.74 10503.1,9525.56 10638.2,7978.11 10773.3,7986.2 10908.5,5686.2 11043.6,7065.2 11178.7,4510.9 11313.9,3243.52 11449,4303.27 11584.1,4380.69 
  11719.2,3383.51 11854.4,4059.41 11989.5,3712.83 12124.6,3054.69 12259.7,3060.9 12394.9,3187.47 12530,2974.71 12665.1,2985.59 12800.3,2552.36 12935.4,2500.52 
  13070.5,2533.33 13205.6,2526.18 13340.8,2775.96 13475.9,2422.04 13611,2344.55 13746.1,2467.14 13881.3,2400.09 14016.4,2513.66 14151.5,2368.56 14286.6,2141.24 
  14421.8,2212.74 14556.9,2214.03 14692,2232.53 14827.2,2151.18 14962.3,2263.58 15097.4,2214.46 15232.5,2107.3 15367.7,2136.18 15502.8,2185.62 15637.9,1979.74 
  15773,2007.37 15908.2,1864.19 16043.3,2093.11 16178.4,1997.52 16313.6,1975.99 16448.7,1992.64 16583.8,1948.1 16718.9,1938.23 16854.1,1937.14 16989.2,1944.37 
  17124.3,1955.44 17259.4,1816.08 17394.6,1901.32 17529.7,1891.46 17664.8,1888 17799.9,1942.42 17935.1,1953.73 18070.2,1888.58 18205.3,1771.9 18340.5,1781.7 
  
  "/>
<polyline clip-path="url(#clip5902)" style="stroke:#3da44d; stroke-width:32; stroke-opacity:1; fill:none" points="
  4962.89,10858.5 5098.01,10840.1 5233.14,10800.4 5368.27,10824 5503.4,10775.9 5638.52,10740.7 5773.65,10703.7 5908.78,10686.3 6043.9,10713.4 6179.03,10643.2 
  6314.16,10536.9 6449.28,10555.4 6584.41,10508.9 6719.54,10497.7 6854.66,10407.5 6989.79,10382.3 7124.92,10261.7 7260.05,10213.3 7395.17,10170.1 7530.3,10178.6 
  7665.43,10171.7 7800.55,10110 7935.68,9931.06 8070.81,10005.6 8205.93,9820.05 8341.06,9749.47 8476.19,9654.88 8611.32,9676.51 8746.44,9403.76 8881.57,9180.95 
  9016.7,9151.08 9151.82,8985.03 9286.95,8988.9 9422.08,8673.76 9557.2,8759.53 9692.33,8165.59 9827.46,7833.24 9962.58,7672.07 10097.7,7653.49 10232.8,7326.19 
  10368,6336.5 10503.1,6558.7 10638.2,6527.83 10773.3,5918.56 10908.5,5792.05 11043.6,5472.62 11178.7,5176.2 11313.9,4649.36 11449,4815.33 11584.1,4403.25 
  11719.2,4177.37 11854.4,4624.29 11989.5,3963.93 12124.6,3837.7 12259.7,3801.83 12394.9,3874.1 12530,3688.39 12665.1,3710.55 12800.3,3412.23 12935.4,3426.54 
  13070.5,3195.17 13205.6,3343.04 13340.8,3461.11 13475.9,3280.75 13611,3003.59 13746.1,3142.27 13881.3,3150.68 14016.4,3195.48 14151.5,2948.31 14286.6,3049.81 
  14421.8,3065.44 14556.9,3005.42 14692,2978.97 14827.2,2738.74 14962.3,2878.82 15097.4,2904.3 15232.5,2758.89 15367.7,2811 15502.8,2842.17 15637.9,2726.64 
  15773,2663.13 15908.2,2588.9 16043.3,2598.11 16178.4,2572.74 16313.6,2672.15 16448.7,2707.09 16583.8,2670.86 16718.9,2625.09 16854.1,2617.23 16989.2,2518.47 
  17124.3,2536.28 17259.4,2553.64 17394.6,2466.72 17529.7,2560.42 17664.8,2492.7 17799.9,2439.31 17935.1,2373.51 18070.2,2436.47 18205.3,2377.71 18340.5,2472.57 
  
  "/>
<polyline clip-path="url(#clip5902)" style="stroke:#c271d2; stroke-width:32; stroke-opacity:1; fill:none" points="
  2287.37,11091.2 2395.48,11091 2503.58,11090.8 2611.68,11091.1 2719.78,11090.7 2827.88,11090.8 2935.98,11090.3 3044.09,11090.2 3152.19,11089.6 3260.29,11089.7 
  3368.39,11089.1 3476.49,11088.6 3584.59,11088.4 3692.69,11088 3800.8,11087.2 3908.9,11085.4 4017,11085.9 4125.1,11084.9 4233.2,11084.4 4341.3,11082.9 
  4449.41,11082.4 4557.51,11081.8 4665.61,11079.2 4773.71,11077.6 4881.81,11077.5 4989.91,11074.4 5098.01,11073.1 5206.12,11070.1 5314.22,11067.7 5422.32,11066.4 
  5530.42,11062.9 5638.52,11059.7 5746.62,11058 5854.73,11052.5 5962.83,11049 6070.93,11048.9 6179.03,11043.2 6287.13,11038.8 6395.23,11036.5 6503.33,11029.5 
  6611.44,11024.6 6719.54,11020.1 6827.64,11012.9 6935.74,11006.2 7043.84,10998.8 7151.94,10989.9 7260.05,10981.4 7368.15,10977.9 7476.25,10966.9 7584.35,10961 
  7692.45,10944.4 7800.55,10938.5 7908.65,10925.8 8016.76,10912 8124.86,10891.6 8232.96,10885.1 8341.06,10871.4 8449.16,10852.4 8557.26,10834.4 8665.37,10813.1 
  8773.47,10796.4 8881.57,10780.4 8989.67,10752.9 9097.77,10732.7 9205.87,10712.4 9313.98,10682.7 9422.08,10652.4 9530.18,10609.4 9638.28,10586.8 9746.38,10538.3 
  9854.48,10498.4 9962.58,10453 10070.7,10408.8 10178.8,10355 10286.9,10267.7 10395,10194 10503.1,10100 10611.2,10009.1 10719.3,9837.64 10827.4,9645.28 
  10935.5,9442.82 11043.6,9118.54 11151.7,8747.98 11259.8,8293.12 11367.9,7496.51 11476,6716.98 11584.1,6409.15 11692.2,5771.96 11800.3,5053.18 11908.4,4648.74 
  12016.5,4166.21 12124.6,3788.52 12232.7,3336.46 12340.8,3269.6 12448.9,2970.26 12557,2843.76 12665.1,2814.88 12773.2,2648.27 12881.3,2560.82 12989.4,2516.99 
  
  "/>
<polyline clip-path="url(#clip5902)" style="stroke:#ac8d18; stroke-width:32; stroke-opacity:1; fill:none" points="
  2287.37,11090.4 2395.48,11090 2503.58,11090.2 2611.68,11089.5 2719.78,11089 2827.88,11089.2 2935.98,11088.7 3044.09,11088.6 3152.19,11087.7 3260.29,11087.1 
  3368.39,11086.4 3476.49,11085.9 3584.59,11084.9 3692.69,11083.5 3800.8,11082.8 3908.9,11080.3 4017,11082 4125.1,11080.2 4233.2,11078.5 4341.3,11077.3 
  4449.41,11074.1 4557.51,11072.5 4665.61,11071.7 4773.71,11069.3 4881.81,11067 4989.91,11065 5098.01,11063.3 5206.12,11058.4 5314.22,11057.4 5422.32,11053.4 
  5530.42,11047.6 5638.52,11044.7 5746.62,11038.9 5854.73,11033.9 5962.83,11033.4 6070.93,11025.9 6179.03,11021.7 6287.13,11017.2 6395.23,11010 6503.33,11005.6 
  6611.44,10997.3 6719.54,10984.5 6827.64,10979 6935.74,10974.1 7043.84,10957.1 7151.94,10954.6 7260.05,10944.7 7368.15,10935.5 7476.25,10920.3 7584.35,10909.2 
  7692.45,10892.6 7800.55,10880.3 7908.65,10861.7 8016.76,10845 8124.86,10825.2 8232.96,10807.8 8341.06,10791.7 8449.16,10770.6 8557.26,10741.8 8665.37,10655.6 
  8773.47,10597.5 8881.57,10564 8989.67,10546.7 9097.77,10591.7 9205.87,10493.2 9313.98,10387.3 9422.08,10339.3 9530.18,10265.1 9638.28,10243.6 9746.38,10135.1 
  9854.48,10009.8 9962.58,9899.6 10070.7,9752.2 10178.8,9549.39 10286.9,9363.47 10395,8935.65 10503.1,8699.99 10611.2,8322.21 10719.3,7825.08 10827.4,7364.24 
  10935.5,6904.22 11043.6,6172.67 11151.7,5478.95 11259.8,5160.19 11367.9,4625.88 11476,4397.8 11584.1,3897.01 11692.2,3766.56 11800.3,3422.27 11908.4,3342.05 
  12016.5,3224.11 12124.6,3165.68 12232.7,3049.85 12340.8,2946.78 12448.9,2902.43 12557,2827.28 12665.1,2782.61 12773.2,2739.59 12881.3,2694.2 12989.4,2642.59 
  
  "/>
<polyline clip-path="url(#clip5902)" style="stroke:#00a9ad; stroke-width:32; stroke-opacity:1; fill:none" points="
  2287.37,11074.4 2395.48,11073.1 2503.58,11070.4 2611.68,11069.1 2719.78,11068.1 2827.88,11062.9 2935.98,11063.4 3044.09,11058.1 3152.19,11055.2 3260.29,11054.7 
  3368.39,11051.8 3476.49,11046.1 3584.59,11043.3 3692.69,11039.2 3800.8,11035.6 3908.9,11028.2 4017,11025.8 4125.1,11021.7 4233.2,11012.8 4341.3,11007.6 
  4449.41,10958.4 4557.51,10911.7 4665.61,10900.8 4773.71,10888.5 4881.81,10876.2 4989.91,10863.4 5098.01,10848 5206.12,10832.3 5314.22,10818.8 5422.32,10804 
  5530.42,10780.5 5638.52,10753.6 5746.62,10736.5 5854.73,10716.8 5962.83,10688.6 6070.93,10665.7 6179.03,10648.5 6287.13,10621.7 6395.23,10597.9 6503.33,10563.1 
  6611.44,10632 6719.54,10493.7 6827.64,10477.4 6935.74,10463 7043.84,10396.6 7151.94,10368.8 7260.05,10419.5 7368.15,10281.8 7476.25,10249.5 7584.35,10241.7 
  7692.45,10128.5 7800.55,10082.7 7908.65,10033.9 8016.76,9982.16 8124.86,9978.24 8232.96,9837.43 8341.06,9794.35 8449.16,9709.46 8557.26,9601.15 8665.37,9559.99 
  8773.47,9530.84 8881.57,9354.16 8989.67,9271.38 9097.77,9175.7 9205.87,9041.01 9313.98,8926.57 9422.08,8851.49 9530.18,8669.41 9638.28,8487.3 9746.38,8310.46 
  9854.48,8106.06 9962.58,7900.76 10070.7,7714.47 10178.8,7465.1 10286.9,7232.02 10395,7048.3 10503.1,6752.58 10611.2,6468.01 10719.3,6272.26 10827.4,5964.4 
  10935.5,5641.46 11043.6,5512.72 11151.7,5266.33 11259.8,5020.54 11367.9,4876.33 11476,4686.03 11584.1,4602.55 11692.2,4385.16 11800.3,4267.15 11908.4,4159.37 
  12016.5,4034.39 12124.6,3970.6 12232.7,3857.48 12340.8,3782.41 12448.9,3698.82 12557,3664.6 12665.1,3586.72 12773.2,3529.78 12881.3,3470.25 12989.4,3437.99 
  
  "/>
<path clip-path="url(#clip5900)" d="
M2381.78 5042.82 L7278.25 5042.82 L7278.25 1655.94 L2381.78 1655.94  Z
  " fill="#ffffff" fill-rule="evenodd" fill-opacity="1"/>
<polyline clip-path="url(#clip5900)" style="stroke:#000000; stroke-width:32; stroke-opacity:1; fill:none" points="
  2381.78,5042.82 7278.25,5042.82 7278.25,1655.94 2381.78,1655.94 2381.78,5042.82 
  "/>
<polyline clip-path="url(#clip5900)" style="stroke:#009af9; stroke-width:32; stroke-opacity:1; fill:none" points="
  2573.78,2139.78 3725.78,2139.78 
  "/>
<path clip-path="url(#clip5900)" d="M 0 0 M3974.63 2001.54 L4012.04 2001.54 L4012.04 2258.76 Q4012.04 2308.76 3992.97 2331.35 Q3974.08 2353.94 3932.04 2353.94 L3917.78 2353.94 L3917.78 2322.46 L3929.45 2322.46 Q3954.26 2322.46 3964.45 2308.57 Q3974.63 2294.68 3974.63 2258.76 L3974.63 2001.54 Z" fill="#000000" fill-rule="evenodd" fill-opacity="1" /><path clip-path="url(#clip5900)" d="M 0 0 M4059.08 2246.54 L4120.19 2246.54 L4120.19 2035.61 L4053.71 2048.94 L4053.71 2014.87 L4119.82 2001.54 L4157.22 2001.54 L4157.22 2246.54 L4218.34 2246.54 L4218.34 2278.02 L4059.08 2278.02 L4059.08 2246.54 Z" fill="#000000" fill-rule="evenodd" fill-opacity="1" /><path clip-path="url(#clip5900)" d="M 0 0 M4379.08 2105.8 L4616.48 2105.8 L4616.48 2136.91 L4379.08 2136.91 L4379.08 2105.8 M4379.08 2181.35 L4616.48 2181.35 L4616.48 2212.83 L4379.08 2212.83 L4379.08 2181.35 Z" fill="#000000" fill-rule="evenodd" fill-opacity="1" /><path clip-path="url(#clip5900)" d="M 0 0 M4857.59 2026.17 Q4828.7 2026.17 4814.07 2054.68 Q4799.63 2083.02 4799.63 2140.05 Q4799.63 2196.91 4814.07 2225.42 Q4828.7 2253.76 4857.59 2253.76 Q4886.67 2253.76 4901.11 2225.42 Q4915.74 2196.91 4915.74 2140.05 Q4915.74 2083.02 4901.11 2054.68 Q4886.67 2026.17 4857.59 2026.17 M4857.59 1996.54 Q4904.07 1996.54 4928.52 2033.39 Q4953.15 2070.06 4953.15 2140.05 Q4953.15 2209.87 4928.52 2246.72 Q4904.07 2283.39 4857.59 2283.39 Q4811.11 2283.39 4786.48 2246.72 Q4762.04 2209.87 4762.04 2140.05 Q4762.04 2070.06 4786.48 2033.39 Q4811.11 1996.54 4857.59 1996.54 Z" fill="#000000" fill-rule="evenodd" fill-opacity="1" /><path clip-path="url(#clip5900)" d="M 0 0 M4993.7 2230.98 L5032.78 2230.98 L5032.78 2278.02 L4993.7 2278.02 L4993.7 2230.98 Z" fill="#000000" fill-rule="evenodd" fill-opacity="1" /><path clip-path="url(#clip5900)" d="M 0 0 M5153.33 2026.17 Q5124.44 2026.17 5109.81 2054.68 Q5095.37 2083.02 5095.37 2140.05 Q5095.37 2196.91 5109.81 2225.42 Q5124.44 2253.76 5153.33 2253.76 Q5182.4 2253.76 5196.85 2225.42 Q5211.48 2196.91 5211.48 2140.05 Q5211.48 2083.02 5196.85 2054.68 Q5182.4 2026.17 5153.33 2026.17 M5153.33 1996.54 Q5199.81 1996.54 5224.26 2033.39 Q5248.89 2070.06 5248.89 2140.05 Q5248.89 2209.87 5224.26 2246.72 Q5199.81 2283.39 5153.33 2283.39 Q5106.85 2283.39 5082.22 2246.72 Q5057.78 2209.87 5057.78 2140.05 Q5057.78 2070.06 5082.22 2033.39 Q5106.85 1996.54 5153.33 1996.54 Z" fill="#000000" fill-rule="evenodd" fill-opacity="1" /><polyline clip-path="url(#clip5900)" style="stroke:#e26f46; stroke-width:32; stroke-opacity:1; fill:none" points="
  2573.78,2623.62 3725.78,2623.62 
  "/>
<path clip-path="url(#clip5900)" d="M 0 0 M3974.63 2485.38 L4012.04 2485.38 L4012.04 2742.6 Q4012.04 2792.6 3992.97 2815.19 Q3974.08 2837.78 3932.04 2837.78 L3917.78 2837.78 L3917.78 2806.3 L3929.45 2806.3 Q3954.26 2806.3 3964.45 2792.41 Q3974.63 2778.52 3974.63 2742.6 L3974.63 2485.38 Z" fill="#000000" fill-rule="evenodd" fill-opacity="1" /><path clip-path="url(#clip5900)" d="M 0 0 M4059.08 2730.38 L4120.19 2730.38 L4120.19 2519.45 L4053.71 2532.78 L4053.71 2498.71 L4119.82 2485.38 L4157.22 2485.38 L4157.22 2730.38 L4218.34 2730.38 L4218.34 2761.86 L4059.08 2761.86 L4059.08 2730.38 Z" fill="#000000" fill-rule="evenodd" fill-opacity="1" /><path clip-path="url(#clip5900)" d="M 0 0 M4379.08 2589.64 L4616.48 2589.64 L4616.48 2620.75 L4379.08 2620.75 L4379.08 2589.64 M4379.08 2665.19 L4616.48 2665.19 L4616.48 2696.67 L4379.08 2696.67 L4379.08 2665.19 Z" fill="#000000" fill-rule="evenodd" fill-opacity="1" /><path clip-path="url(#clip5900)" d="M 0 0 M4857.59 2510.01 Q4828.7 2510.01 4814.07 2538.52 Q4799.63 2566.86 4799.63 2623.89 Q4799.63 2680.75 4814.07 2709.26 Q4828.7 2737.6 4857.59 2737.6 Q4886.67 2737.6 4901.11 2709.26 Q4915.74 2680.75 4915.74 2623.89 Q4915.74 2566.86 4901.11 2538.52 Q4886.67 2510.01 4857.59 2510.01 M4857.59 2480.38 Q4904.07 2480.38 4928.52 2517.23 Q4953.15 2553.9 4953.15 2623.89 Q4953.15 2693.71 4928.52 2730.56 Q4904.07 2767.23 4857.59 2767.23 Q4811.11 2767.23 4786.48 2730.56 Q4762.04 2693.71 4762.04 2623.89 Q4762.04 2553.9 4786.48 2517.23 Q4811.11 2480.38 4857.59 2480.38 Z" fill="#000000" fill-rule="evenodd" fill-opacity="1" /><path clip-path="url(#clip5900)" d="M 0 0 M4993.7 2714.82 L5032.78 2714.82 L5032.78 2761.86 L4993.7 2761.86 L4993.7 2714.82 Z" fill="#000000" fill-rule="evenodd" fill-opacity="1" /><path clip-path="url(#clip5900)" d="M 0 0 M5105.55 2730.38 L5236.11 2730.38 L5236.11 2761.86 L5060.55 2761.86 L5060.55 2730.38 Q5081.85 2708.34 5118.52 2671.3 Q5155.37 2634.08 5164.81 2623.34 Q5182.77 2603.15 5189.81 2589.27 Q5197.03 2575.19 5197.03 2561.67 Q5197.03 2539.64 5181.48 2525.75 Q5166.11 2511.86 5141.29 2511.86 Q5123.7 2511.86 5104.07 2517.97 Q5084.63 2524.08 5062.41 2536.49 L5062.41 2498.71 Q5085 2489.64 5104.63 2485.01 Q5124.26 2480.38 5140.55 2480.38 Q5183.52 2480.38 5209.07 2501.86 Q5234.63 2523.34 5234.63 2559.27 Q5234.63 2576.3 5228.15 2591.67 Q5221.85 2606.86 5205 2627.6 Q5200.37 2632.97 5175.55 2658.71 Q5150.74 2684.26 5105.55 2730.38 Z" fill="#000000" fill-rule="evenodd" fill-opacity="1" /><path clip-path="url(#clip5900)" d="M 0 0 M5277.03 2485.38 L5423.88 2485.38 L5423.88 2516.86 L5311.29 2516.86 L5311.29 2584.64 Q5319.44 2581.86 5327.59 2580.56 Q5335.74 2579.08 5343.89 2579.08 Q5390.18 2579.08 5417.22 2604.45 Q5444.26 2629.82 5444.26 2673.15 Q5444.26 2717.78 5416.48 2742.6 Q5388.7 2767.23 5338.14 2767.23 Q5320.74 2767.23 5302.59 2764.26 Q5284.63 2761.3 5265.37 2755.38 L5265.37 2717.78 Q5282.03 2726.86 5299.81 2731.3 Q5317.59 2735.75 5337.4 2735.75 Q5369.44 2735.75 5388.14 2718.89 Q5406.85 2702.04 5406.85 2673.15 Q5406.85 2644.27 5388.14 2627.41 Q5369.44 2610.56 5337.4 2610.56 Q5322.4 2610.56 5307.4 2613.89 Q5292.59 2617.23 5277.03 2624.27 L5277.03 2485.38 Z" fill="#000000" fill-rule="evenodd" fill-opacity="1" /><polyline clip-path="url(#clip5900)" style="stroke:#3da44d; stroke-width:32; stroke-opacity:1; fill:none" points="
  2573.78,3107.46 3725.78,3107.46 
  "/>
<path clip-path="url(#clip5900)" d="M 0 0 M3974.63 2969.22 L4012.04 2969.22 L4012.04 3226.44 Q4012.04 3276.44 3992.97 3299.03 Q3974.08 3321.62 3932.04 3321.62 L3917.78 3321.62 L3917.78 3290.14 L3929.45 3290.14 Q3954.26 3290.14 3964.45 3276.25 Q3974.63 3262.36 3974.63 3226.44 L3974.63 2969.22 Z" fill="#000000" fill-rule="evenodd" fill-opacity="1" /><path clip-path="url(#clip5900)" d="M 0 0 M4059.08 3214.22 L4120.19 3214.22 L4120.19 3003.29 L4053.71 3016.62 L4053.71 2982.55 L4119.82 2969.22 L4157.22 2969.22 L4157.22 3214.22 L4218.34 3214.22 L4218.34 3245.7 L4059.08 3245.7 L4059.08 3214.22 Z" fill="#000000" fill-rule="evenodd" fill-opacity="1" /><path clip-path="url(#clip5900)" d="M 0 0 M4379.08 3073.48 L4616.48 3073.48 L4616.48 3104.59 L4379.08 3104.59 L4379.08 3073.48 M4379.08 3149.03 L4616.48 3149.03 L4616.48 3180.51 L4379.08 3180.51 L4379.08 3149.03 Z" fill="#000000" fill-rule="evenodd" fill-opacity="1" /><path clip-path="url(#clip5900)" d="M 0 0 M4857.59 2993.85 Q4828.7 2993.85 4814.07 3022.36 Q4799.63 3050.7 4799.63 3107.73 Q4799.63 3164.59 4814.07 3193.1 Q4828.7 3221.44 4857.59 3221.44 Q4886.67 3221.44 4901.11 3193.1 Q4915.74 3164.59 4915.74 3107.73 Q4915.74 3050.7 4901.11 3022.36 Q4886.67 2993.85 4857.59 2993.85 M4857.59 2964.22 Q4904.07 2964.22 4928.52 3001.07 Q4953.15 3037.74 4953.15 3107.73 Q4953.15 3177.55 4928.52 3214.4 Q4904.07 3251.07 4857.59 3251.07 Q4811.11 3251.07 4786.48 3214.4 Q4762.04 3177.55 4762.04 3107.73 Q4762.04 3037.74 4786.48 3001.07 Q4811.11 2964.22 4857.59 2964.22 Z" fill="#000000" fill-rule="evenodd" fill-opacity="1" /><path clip-path="url(#clip5900)" d="M 0 0 M4993.7 3198.66 L5032.78 3198.66 L5032.78 3245.7 L4993.7 3245.7 L4993.7 3198.66 Z" fill="#000000" fill-rule="evenodd" fill-opacity="1" /><path clip-path="url(#clip5900)" d="M 0 0 M5073.7 2969.22 L5220.55 2969.22 L5220.55 3000.7 L5107.96 3000.7 L5107.96 3068.48 Q5116.11 3065.7 5124.26 3064.4 Q5132.4 3062.92 5140.55 3062.92 Q5186.85 3062.92 5213.89 3088.29 Q5240.92 3113.66 5240.92 3156.99 Q5240.92 3201.62 5213.15 3226.44 Q5185.37 3251.07 5134.81 3251.07 Q5117.4 3251.07 5099.26 3248.1 Q5081.29 3245.14 5062.03 3239.22 L5062.03 3201.62 Q5078.7 3210.7 5096.48 3215.14 Q5114.26 3219.59 5134.07 3219.59 Q5166.11 3219.59 5184.81 3202.73 Q5203.52 3185.88 5203.52 3156.99 Q5203.52 3128.11 5184.81 3111.25 Q5166.11 3094.4 5134.07 3094.4 Q5119.07 3094.4 5104.07 3097.73 Q5089.26 3101.07 5073.7 3108.11 L5073.7 2969.22 Z" fill="#000000" fill-rule="evenodd" fill-opacity="1" /><polyline clip-path="url(#clip5900)" style="stroke:#c271d2; stroke-width:32; stroke-opacity:1; fill:none" points="
  2573.78,3591.3 3725.78,3591.3 
  "/>
<path clip-path="url(#clip5900)" d="M 0 0 M3955.19 3483.8 L3955.19 3587.69 L4002.23 3587.69 Q4028.34 3587.69 4042.6 3574.17 Q4056.86 3560.65 4056.86 3535.65 Q4056.86 3510.83 4042.6 3497.32 Q4028.34 3483.8 4002.23 3483.8 L3955.19 3483.8 M3917.78 3453.06 L4002.23 3453.06 Q4048.71 3453.06 4072.41 3474.17 Q4096.3 3495.09 4096.3 3535.65 Q4096.3 3576.57 4072.41 3597.5 Q4048.71 3618.43 4002.23 3618.43 L3955.19 3618.43 L3955.19 3729.54 L3917.78 3729.54 L3917.78 3453.06 Z" fill="#000000" fill-rule="evenodd" fill-opacity="1" /><path clip-path="url(#clip5900)" d="M 0 0 M4295.93 3617.32 L4295.93 3633.98 L4139.26 3633.98 Q4141.48 3669.17 4160.37 3687.69 Q4179.45 3706.02 4213.34 3706.02 Q4232.97 3706.02 4251.3 3701.2 Q4269.82 3696.39 4287.96 3686.76 L4287.96 3718.98 Q4269.63 3726.76 4250.37 3730.83 Q4231.11 3734.91 4211.3 3734.91 Q4161.67 3734.91 4132.6 3706.02 Q4103.71 3677.13 4103.71 3627.87 Q4103.71 3576.95 4131.11 3547.13 Q4158.71 3517.13 4205.37 3517.13 Q4247.22 3517.13 4271.48 3544.17 Q4295.93 3571.02 4295.93 3617.32 M4261.85 3607.32 Q4261.48 3579.35 4246.11 3562.69 Q4230.93 3546.02 4205.74 3546.02 Q4177.22 3546.02 4160 3562.13 Q4142.97 3578.24 4140.37 3607.5 L4261.85 3607.32 Z" fill="#000000" fill-rule="evenodd" fill-opacity="1" /><path clip-path="url(#clip5900)" d="M 0 0 M4451.85 3553.98 Q4446.11 3550.65 4439.26 3549.17 Q4432.59 3547.5 4424.45 3547.5 Q4395.56 3547.5 4380 3566.39 Q4364.63 3585.09 4364.63 3620.28 L4364.63 3729.54 L4330.37 3729.54 L4330.37 3522.13 L4364.63 3522.13 L4364.63 3554.35 Q4375.37 3535.46 4392.59 3526.39 Q4409.82 3517.13 4434.45 3517.13 Q4437.96 3517.13 4442.22 3517.69 Q4446.48 3518.06 4451.67 3518.98 L4451.85 3553.98 Z" fill="#000000" fill-rule="evenodd" fill-opacity="1" /><path clip-path="url(#clip5900)" d="M 0 0 M4487.59 3522.13 L4521.67 3522.13 L4521.67 3729.54 L4487.59 3729.54 L4487.59 3522.13 M4487.59 3441.39 L4521.67 3441.39 L4521.67 3484.54 L4487.59 3484.54 L4487.59 3441.39 Z" fill="#000000" fill-rule="evenodd" fill-opacity="1" /><path clip-path="url(#clip5900)" d="M 0 0 M4637.78 3546.02 Q4610.37 3546.02 4594.44 3567.5 Q4578.52 3588.8 4578.52 3626.02 Q4578.52 3663.24 4594.26 3684.72 Q4610.19 3706.02 4637.78 3706.02 Q4665 3706.02 4680.93 3684.54 Q4696.85 3663.06 4696.85 3626.02 Q4696.85 3589.17 4680.93 3567.69 Q4665 3546.02 4637.78 3546.02 M4637.78 3517.13 Q4682.22 3517.13 4707.59 3546.02 Q4732.96 3574.91 4732.96 3626.02 Q4732.96 3676.94 4707.59 3706.02 Q4682.22 3734.91 4637.78 3734.91 Q4593.15 3734.91 4567.78 3706.02 Q4542.59 3676.94 4542.59 3626.02 Q4542.59 3574.91 4567.78 3546.02 Q4593.15 3517.13 4637.78 3517.13 Z" fill="#000000" fill-rule="evenodd" fill-opacity="1" /><path clip-path="url(#clip5900)" d="M 0 0 M4905.18 3553.61 L4905.18 3441.39 L4939.26 3441.39 L4939.26 3729.54 L4905.18 3729.54 L4905.18 3698.43 Q4894.44 3716.94 4877.96 3726.02 Q4861.67 3734.91 4838.7 3734.91 Q4801.11 3734.91 4777.41 3704.91 Q4753.89 3674.91 4753.89 3626.02 Q4753.89 3577.13 4777.41 3547.13 Q4801.11 3517.13 4838.7 3517.13 Q4861.67 3517.13 4877.96 3526.2 Q4894.44 3535.09 4905.18 3553.61 M4789.07 3626.02 Q4789.07 3663.61 4804.44 3685.09 Q4820 3706.39 4847.04 3706.39 Q4874.07 3706.39 4889.63 3685.09 Q4905.18 3663.61 4905.18 3626.02 Q4905.18 3588.43 4889.63 3567.13 Q4874.07 3545.65 4847.04 3545.65 Q4820 3545.65 4804.44 3567.13 Q4789.07 3588.43 4789.07 3626.02 Z" fill="#000000" fill-rule="evenodd" fill-opacity="1" /><path clip-path="url(#clip5900)" d="M 0 0 M4975 3522.13 L5009.07 3522.13 L5009.07 3729.54 L4975 3729.54 L4975 3522.13 M4975 3441.39 L5009.07 3441.39 L5009.07 3484.54 L4975 3484.54 L4975 3441.39 Z" fill="#000000" fill-rule="evenodd" fill-opacity="1" /><path clip-path="url(#clip5900)" d="M 0 0 M5194.07 3530.09 L5194.07 3561.95 Q5179.63 3553.98 5165 3550.09 Q5150.55 3546.02 5135.74 3546.02 Q5102.59 3546.02 5084.26 3567.13 Q5065.92 3588.06 5065.92 3626.02 Q5065.92 3663.98 5084.26 3685.09 Q5102.59 3706.02 5135.74 3706.02 Q5150.55 3706.02 5165 3702.13 Q5179.63 3698.06 5194.07 3690.09 L5194.07 3721.57 Q5179.81 3728.24 5164.44 3731.57 Q5149.26 3734.91 5132.03 3734.91 Q5085.18 3734.91 5057.59 3705.46 Q5030 3676.02 5030 3626.02 Q5030 3575.28 5057.78 3546.2 Q5085.74 3517.13 5134.26 3517.13 Q5150 3517.13 5165 3520.46 Q5180 3523.61 5194.07 3530.09 Z" fill="#000000" fill-rule="evenodd" fill-opacity="1" /><path clip-path="url(#clip5900)" d="M 0 0 M5387.4 3792.5 L5387.4 3818.98 L5190.37 3818.98 L5190.37 3792.5 L5387.4 3792.5 Z" fill="#000000" fill-rule="evenodd" fill-opacity="1" /><path clip-path="url(#clip5900)" d="M 0 0 M5424.63 3453.06 L5462.03 3453.06 L5462.03 3710.28 Q5462.03 3760.28 5442.96 3782.87 Q5424.07 3805.46 5382.03 3805.46 L5367.77 3805.46 L5367.77 3773.98 L5379.44 3773.98 Q5404.26 3773.98 5414.44 3760.09 Q5424.63 3746.2 5424.63 3710.28 L5424.63 3453.06 Z" fill="#000000" fill-rule="evenodd" fill-opacity="1" /><path clip-path="url(#clip5900)" d="M 0 0 M5509.07 3698.06 L5570.18 3698.06 L5570.18 3487.13 L5503.7 3500.46 L5503.7 3466.39 L5569.81 3453.06 L5607.22 3453.06 L5607.22 3698.06 L5668.33 3698.06 L5668.33 3729.54 L5509.07 3729.54 L5509.07 3698.06 Z" fill="#000000" fill-rule="evenodd" fill-opacity="1" /><path clip-path="url(#clip5900)" d="M 0 0 M5829.07 3557.32 L6066.47 3557.32 L6066.47 3588.43 L5829.07 3588.43 L5829.07 3557.32 M5829.07 3632.87 L6066.47 3632.87 L6066.47 3664.35 L5829.07 3664.35 L5829.07 3632.87 Z" fill="#000000" fill-rule="evenodd" fill-opacity="1" /><path clip-path="url(#clip5900)" d="M 0 0 M6307.58 3477.69 Q6278.7 3477.69 6264.07 3506.2 Q6249.62 3534.54 6249.62 3591.57 Q6249.62 3648.43 6264.07 3676.94 Q6278.7 3705.28 6307.58 3705.28 Q6336.66 3705.28 6351.1 3676.94 Q6365.73 3648.43 6365.73 3591.57 Q6365.73 3534.54 6351.1 3506.2 Q6336.66 3477.69 6307.58 3477.69 M6307.58 3448.06 Q6354.06 3448.06 6378.51 3484.91 Q6403.14 3521.58 6403.14 3591.57 Q6403.14 3661.39 6378.51 3698.24 Q6354.06 3734.91 6307.58 3734.91 Q6261.1 3734.91 6236.47 3698.24 Q6212.03 3661.39 6212.03 3591.57 Q6212.03 3521.58 6236.47 3484.91 Q6261.1 3448.06 6307.58 3448.06 Z" fill="#000000" fill-rule="evenodd" fill-opacity="1" /><path clip-path="url(#clip5900)" d="M 0 0 M6443.69 3682.5 L6482.77 3682.5 L6482.77 3729.54 L6443.69 3729.54 L6443.69 3682.5 Z" fill="#000000" fill-rule="evenodd" fill-opacity="1" /><path clip-path="url(#clip5900)" d="M 0 0 M6603.32 3477.69 Q6574.43 3477.69 6559.8 3506.2 Q6545.36 3534.54 6545.36 3591.57 Q6545.36 3648.43 6559.8 3676.94 Q6574.43 3705.28 6603.32 3705.28 Q6632.4 3705.28 6646.84 3676.94 Q6661.47 3648.43 6661.47 3591.57 Q6661.47 3534.54 6646.84 3506.2 Q6632.4 3477.69 6603.32 3477.69 M6603.32 3448.06 Q6649.8 3448.06 6674.25 3484.91 Q6698.88 3521.58 6698.88 3591.57 Q6698.88 3661.39 6674.25 3698.24 Q6649.8 3734.91 6603.32 3734.91 Q6556.84 3734.91 6532.21 3698.24 Q6507.77 3661.39 6507.77 3591.57 Q6507.77 3521.58 6532.21 3484.91 Q6556.84 3448.06 6603.32 3448.06 Z" fill="#000000" fill-rule="evenodd" fill-opacity="1" /><polyline clip-path="url(#clip5900)" style="stroke:#ac8d18; stroke-width:32; stroke-opacity:1; fill:none" points="
  2573.78,4075.14 3725.78,4075.14 
  "/>
<path clip-path="url(#clip5900)" d="M 0 0 M3955.19 3967.64 L3955.19 4071.53 L4002.23 4071.53 Q4028.34 4071.53 4042.6 4058.01 Q4056.86 4044.49 4056.86 4019.49 Q4056.86 3994.67 4042.6 3981.16 Q4028.34 3967.64 4002.23 3967.64 L3955.19 3967.64 M3917.78 3936.9 L4002.23 3936.9 Q4048.71 3936.9 4072.41 3958.01 Q4096.3 3978.93 4096.3 4019.49 Q4096.3 4060.41 4072.41 4081.34 Q4048.71 4102.27 4002.23 4102.27 L3955.19 4102.27 L3955.19 4213.38 L3917.78 4213.38 L3917.78 3936.9 Z" fill="#000000" fill-rule="evenodd" fill-opacity="1" /><path clip-path="url(#clip5900)" d="M 0 0 M4295.93 4101.16 L4295.93 4117.82 L4139.26 4117.82 Q4141.48 4153.01 4160.37 4171.53 Q4179.45 4189.86 4213.34 4189.86 Q4232.97 4189.86 4251.3 4185.04 Q4269.82 4180.23 4287.96 4170.6 L4287.96 4202.82 Q4269.63 4210.6 4250.37 4214.67 Q4231.11 4218.75 4211.3 4218.75 Q4161.67 4218.75 4132.6 4189.86 Q4103.71 4160.97 4103.71 4111.71 Q4103.71 4060.79 4131.11 4030.97 Q4158.71 4000.97 4205.37 4000.97 Q4247.22 4000.97 4271.48 4028.01 Q4295.93 4054.86 4295.93 4101.16 M4261.85 4091.16 Q4261.48 4063.19 4246.11 4046.53 Q4230.93 4029.86 4205.74 4029.86 Q4177.22 4029.86 4160 4045.97 Q4142.97 4062.08 4140.37 4091.34 L4261.85 4091.16 Z" fill="#000000" fill-rule="evenodd" fill-opacity="1" /><path clip-path="url(#clip5900)" d="M 0 0 M4451.85 4037.82 Q4446.11 4034.49 4439.26 4033.01 Q4432.59 4031.34 4424.45 4031.34 Q4395.56 4031.34 4380 4050.23 Q4364.63 4068.93 4364.63 4104.12 L4364.63 4213.38 L4330.37 4213.38 L4330.37 4005.97 L4364.63 4005.97 L4364.63 4038.19 Q4375.37 4019.3 4392.59 4010.23 Q4409.82 4000.97 4434.45 4000.97 Q4437.96 4000.97 4442.22 4001.53 Q4446.48 4001.9 4451.67 4002.82 L4451.85 4037.82 Z" fill="#000000" fill-rule="evenodd" fill-opacity="1" /><path clip-path="url(#clip5900)" d="M 0 0 M4487.59 4005.97 L4521.67 4005.97 L4521.67 4213.38 L4487.59 4213.38 L4487.59 4005.97 M4487.59 3925.23 L4521.67 3925.23 L4521.67 3968.38 L4487.59 3968.38 L4487.59 3925.23 Z" fill="#000000" fill-rule="evenodd" fill-opacity="1" /><path clip-path="url(#clip5900)" d="M 0 0 M4637.78 4029.86 Q4610.37 4029.86 4594.44 4051.34 Q4578.52 4072.64 4578.52 4109.86 Q4578.52 4147.08 4594.26 4168.56 Q4610.19 4189.86 4637.78 4189.86 Q4665 4189.86 4680.93 4168.38 Q4696.85 4146.9 4696.85 4109.86 Q4696.85 4073.01 4680.93 4051.53 Q4665 4029.86 4637.78 4029.86 M4637.78 4000.97 Q4682.22 4000.97 4707.59 4029.86 Q4732.96 4058.75 4732.96 4109.86 Q4732.96 4160.78 4707.59 4189.86 Q4682.22 4218.75 4637.78 4218.75 Q4593.15 4218.75 4567.78 4189.86 Q4542.59 4160.78 4542.59 4109.86 Q4542.59 4058.75 4567.78 4029.86 Q4593.15 4000.97 4637.78 4000.97 Z" fill="#000000" fill-rule="evenodd" fill-opacity="1" /><path clip-path="url(#clip5900)" d="M 0 0 M4905.18 4037.45 L4905.18 3925.23 L4939.26 3925.23 L4939.26 4213.38 L4905.18 4213.38 L4905.18 4182.27 Q4894.44 4200.78 4877.96 4209.86 Q4861.67 4218.75 4838.7 4218.75 Q4801.11 4218.75 4777.41 4188.75 Q4753.89 4158.75 4753.89 4109.86 Q4753.89 4060.97 4777.41 4030.97 Q4801.11 4000.97 4838.7 4000.97 Q4861.67 4000.97 4877.96 4010.04 Q4894.44 4018.93 4905.18 4037.45 M4789.07 4109.86 Q4789.07 4147.45 4804.44 4168.93 Q4820 4190.23 4847.04 4190.23 Q4874.07 4190.23 4889.63 4168.93 Q4905.18 4147.45 4905.18 4109.86 Q4905.18 4072.27 4889.63 4050.97 Q4874.07 4029.49 4847.04 4029.49 Q4820 4029.49 4804.44 4050.97 Q4789.07 4072.27 4789.07 4109.86 Z" fill="#000000" fill-rule="evenodd" fill-opacity="1" /><path clip-path="url(#clip5900)" d="M 0 0 M4975 4005.97 L5009.07 4005.97 L5009.07 4213.38 L4975 4213.38 L4975 4005.97 M4975 3925.23 L5009.07 3925.23 L5009.07 3968.38 L4975 3968.38 L4975 3925.23 Z" fill="#000000" fill-rule="evenodd" fill-opacity="1" /><path clip-path="url(#clip5900)" d="M 0 0 M5194.07 4013.93 L5194.07 4045.79 Q5179.63 4037.82 5165 4033.93 Q5150.55 4029.86 5135.74 4029.86 Q5102.59 4029.86 5084.26 4050.97 Q5065.92 4071.9 5065.92 4109.86 Q5065.92 4147.82 5084.26 4168.93 Q5102.59 4189.86 5135.74 4189.86 Q5150.55 4189.86 5165 4185.97 Q5179.63 4181.9 5194.07 4173.93 L5194.07 4205.41 Q5179.81 4212.08 5164.44 4215.41 Q5149.26 4218.75 5132.03 4218.75 Q5085.18 4218.75 5057.59 4189.3 Q5030 4159.86 5030 4109.86 Q5030 4059.12 5057.78 4030.04 Q5085.74 4000.97 5134.26 4000.97 Q5150 4000.97 5165 4004.3 Q5180 4007.45 5194.07 4013.93 Z" fill="#000000" fill-rule="evenodd" fill-opacity="1" /><path clip-path="url(#clip5900)" d="M 0 0 M5387.4 4276.34 L5387.4 4302.82 L5190.37 4302.82 L5190.37 4276.34 L5387.4 4276.34 Z" fill="#000000" fill-rule="evenodd" fill-opacity="1" /><path clip-path="url(#clip5900)" d="M 0 0 M5424.63 3936.9 L5462.03 3936.9 L5462.03 4194.12 Q5462.03 4244.12 5442.96 4266.71 Q5424.07 4289.3 5382.03 4289.3 L5367.77 4289.3 L5367.77 4257.82 L5379.44 4257.82 Q5404.26 4257.82 5414.44 4243.93 Q5424.63 4230.04 5424.63 4194.12 L5424.63 3936.9 Z" fill="#000000" fill-rule="evenodd" fill-opacity="1" /><path clip-path="url(#clip5900)" d="M 0 0 M5509.07 4181.9 L5570.18 4181.9 L5570.18 3970.97 L5503.7 3984.3 L5503.7 3950.23 L5569.81 3936.9 L5607.22 3936.9 L5607.22 4181.9 L5668.33 4181.9 L5668.33 4213.38 L5509.07 4213.38 L5509.07 4181.9 Z" fill="#000000" fill-rule="evenodd" fill-opacity="1" /><path clip-path="url(#clip5900)" d="M 0 0 M5829.07 4041.16 L6066.47 4041.16 L6066.47 4072.27 L5829.07 4072.27 L5829.07 4041.16 M5829.07 4116.71 L6066.47 4116.71 L6066.47 4148.19 L5829.07 4148.19 L5829.07 4116.71 Z" fill="#000000" fill-rule="evenodd" fill-opacity="1" /><path clip-path="url(#clip5900)" d="M 0 0 M6307.58 3961.53 Q6278.7 3961.53 6264.07 3990.04 Q6249.62 4018.38 6249.62 4075.41 Q6249.62 4132.27 6264.07 4160.78 Q6278.7 4189.12 6307.58 4189.12 Q6336.66 4189.12 6351.1 4160.78 Q6365.73 4132.27 6365.73 4075.41 Q6365.73 4018.38 6351.1 3990.04 Q6336.66 3961.53 6307.58 3961.53 M6307.58 3931.9 Q6354.06 3931.9 6378.51 3968.75 Q6403.14 4005.42 6403.14 4075.41 Q6403.14 4145.23 6378.51 4182.08 Q6354.06 4218.75 6307.58 4218.75 Q6261.1 4218.75 6236.47 4182.08 Q6212.03 4145.23 6212.03 4075.41 Q6212.03 4005.42 6236.47 3968.75 Q6261.1 3931.9 6307.58 3931.9 Z" fill="#000000" fill-rule="evenodd" fill-opacity="1" /><path clip-path="url(#clip5900)" d="M 0 0 M6443.69 4166.34 L6482.77 4166.34 L6482.77 4213.38 L6443.69 4213.38 L6443.69 4166.34 Z" fill="#000000" fill-rule="evenodd" fill-opacity="1" /><path clip-path="url(#clip5900)" d="M 0 0 M6555.55 4181.9 L6686.1 4181.9 L6686.1 4213.38 L6510.55 4213.38 L6510.55 4181.9 Q6531.84 4159.86 6568.51 4122.82 Q6605.36 4085.6 6614.8 4074.86 Q6632.77 4054.67 6639.8 4040.79 Q6647.03 4026.71 6647.03 4013.19 Q6647.03 3991.16 6631.47 3977.27 Q6616.1 3963.38 6591.29 3963.38 Q6573.69 3963.38 6554.06 3969.49 Q6534.62 3975.6 6512.4 3988.01 L6512.4 3950.23 Q6534.99 3941.16 6554.62 3936.53 Q6574.25 3931.9 6590.55 3931.9 Q6633.51 3931.9 6659.06 3953.38 Q6684.62 3974.86 6684.62 4010.79 Q6684.62 4027.82 6678.14 4043.19 Q6671.84 4058.38 6654.99 4079.12 Q6650.36 4084.49 6625.54 4110.23 Q6600.73 4135.78 6555.55 4181.9 Z" fill="#000000" fill-rule="evenodd" fill-opacity="1" /><path clip-path="url(#clip5900)" d="M 0 0 M6727.03 3936.9 L6873.88 3936.9 L6873.88 3968.38 L6761.29 3968.38 L6761.29 4036.16 Q6769.43 4033.38 6777.58 4032.08 Q6785.73 4030.6 6793.88 4030.6 Q6840.17 4030.6 6867.21 4055.97 Q6894.25 4081.34 6894.25 4124.67 Q6894.25 4169.3 6866.47 4194.12 Q6838.69 4218.75 6788.14 4218.75 Q6770.73 4218.75 6752.58 4215.78 Q6734.62 4212.82 6715.36 4206.9 L6715.36 4169.3 Q6732.03 4178.38 6749.8 4182.82 Q6767.58 4187.27 6787.4 4187.27 Q6819.43 4187.27 6838.14 4170.41 Q6856.84 4153.56 6856.84 4124.67 Q6856.84 4095.79 6838.14 4078.93 Q6819.43 4062.08 6787.4 4062.08 Q6772.4 4062.08 6757.4 4065.41 Q6742.58 4068.75 6727.03 4075.79 L6727.03 3936.9 Z" fill="#000000" fill-rule="evenodd" fill-opacity="1" /><polyline clip-path="url(#clip5900)" style="stroke:#00a9ad; stroke-width:32; stroke-opacity:1; fill:none" points="
  2573.78,4558.98 3725.78,4558.98 
  "/>
<path clip-path="url(#clip5900)" d="M 0 0 M3955.19 4451.48 L3955.19 4555.37 L4002.23 4555.37 Q4028.34 4555.37 4042.6 4541.85 Q4056.86 4528.33 4056.86 4503.33 Q4056.86 4478.51 4042.6 4465 Q4028.34 4451.48 4002.23 4451.48 L3955.19 4451.48 M3917.78 4420.74 L4002.23 4420.74 Q4048.71 4420.74 4072.41 4441.85 Q4096.3 4462.77 4096.3 4503.33 Q4096.3 4544.25 4072.41 4565.18 Q4048.71 4586.11 4002.23 4586.11 L3955.19 4586.11 L3955.19 4697.22 L3917.78 4697.22 L3917.78 4420.74 Z" fill="#000000" fill-rule="evenodd" fill-opacity="1" /><path clip-path="url(#clip5900)" d="M 0 0 M4295.93 4585 L4295.93 4601.66 L4139.26 4601.66 Q4141.48 4636.85 4160.37 4655.37 Q4179.45 4673.7 4213.34 4673.7 Q4232.97 4673.7 4251.3 4668.88 Q4269.82 4664.07 4287.96 4654.44 L4287.96 4686.66 Q4269.63 4694.44 4250.37 4698.51 Q4231.11 4702.59 4211.3 4702.59 Q4161.67 4702.59 4132.6 4673.7 Q4103.71 4644.81 4103.71 4595.55 Q4103.71 4544.63 4131.11 4514.81 Q4158.71 4484.81 4205.37 4484.81 Q4247.22 4484.81 4271.48 4511.85 Q4295.93 4538.7 4295.93 4585 M4261.85 4575 Q4261.48 4547.03 4246.11 4530.37 Q4230.93 4513.7 4205.74 4513.7 Q4177.22 4513.7 4160 4529.81 Q4142.97 4545.92 4140.37 4575.18 L4261.85 4575 Z" fill="#000000" fill-rule="evenodd" fill-opacity="1" /><path clip-path="url(#clip5900)" d="M 0 0 M4451.85 4521.66 Q4446.11 4518.33 4439.26 4516.85 Q4432.59 4515.18 4424.45 4515.18 Q4395.56 4515.18 4380 4534.07 Q4364.63 4552.77 4364.63 4587.96 L4364.63 4697.22 L4330.37 4697.22 L4330.37 4489.81 L4364.63 4489.81 L4364.63 4522.03 Q4375.37 4503.14 4392.59 4494.07 Q4409.82 4484.81 4434.45 4484.81 Q4437.96 4484.81 4442.22 4485.37 Q4446.48 4485.74 4451.67 4486.66 L4451.85 4521.66 Z" fill="#000000" fill-rule="evenodd" fill-opacity="1" /><path clip-path="url(#clip5900)" d="M 0 0 M4487.59 4489.81 L4521.67 4489.81 L4521.67 4697.22 L4487.59 4697.22 L4487.59 4489.81 M4487.59 4409.07 L4521.67 4409.07 L4521.67 4452.22 L4487.59 4452.22 L4487.59 4409.07 Z" fill="#000000" fill-rule="evenodd" fill-opacity="1" /><path clip-path="url(#clip5900)" d="M 0 0 M4637.78 4513.7 Q4610.37 4513.7 4594.44 4535.18 Q4578.52 4556.48 4578.52 4593.7 Q4578.52 4630.92 4594.26 4652.4 Q4610.19 4673.7 4637.78 4673.7 Q4665 4673.7 4680.93 4652.22 Q4696.85 4630.74 4696.85 4593.7 Q4696.85 4556.85 4680.93 4535.37 Q4665 4513.7 4637.78 4513.7 M4637.78 4484.81 Q4682.22 4484.81 4707.59 4513.7 Q4732.96 4542.59 4732.96 4593.7 Q4732.96 4644.62 4707.59 4673.7 Q4682.22 4702.59 4637.78 4702.59 Q4593.15 4702.59 4567.78 4673.7 Q4542.59 4644.62 4542.59 4593.7 Q4542.59 4542.59 4567.78 4513.7 Q4593.15 4484.81 4637.78 4484.81 Z" fill="#000000" fill-rule="evenodd" fill-opacity="1" /><path clip-path="url(#clip5900)" d="M 0 0 M4905.18 4521.29 L4905.18 4409.07 L4939.26 4409.07 L4939.26 4697.22 L4905.18 4697.22 L4905.18 4666.11 Q4894.44 4684.62 4877.96 4693.7 Q4861.67 4702.59 4838.7 4702.59 Q4801.11 4702.59 4777.41 4672.59 Q4753.89 4642.59 4753.89 4593.7 Q4753.89 4544.81 4777.41 4514.81 Q4801.11 4484.81 4838.7 4484.81 Q4861.67 4484.81 4877.96 4493.88 Q4894.44 4502.77 4905.18 4521.29 M4789.07 4593.7 Q4789.07 4631.29 4804.44 4652.77 Q4820 4674.07 4847.04 4674.07 Q4874.07 4674.07 4889.63 4652.77 Q4905.18 4631.29 4905.18 4593.7 Q4905.18 4556.11 4889.63 4534.81 Q4874.07 4513.33 4847.04 4513.33 Q4820 4513.33 4804.44 4534.81 Q4789.07 4556.11 4789.07 4593.7 Z" fill="#000000" fill-rule="evenodd" fill-opacity="1" /><path clip-path="url(#clip5900)" d="M 0 0 M4975 4489.81 L5009.07 4489.81 L5009.07 4697.22 L4975 4697.22 L4975 4489.81 M4975 4409.07 L5009.07 4409.07 L5009.07 4452.22 L4975 4452.22 L4975 4409.07 Z" fill="#000000" fill-rule="evenodd" fill-opacity="1" /><path clip-path="url(#clip5900)" d="M 0 0 M5194.07 4497.77 L5194.07 4529.63 Q5179.63 4521.66 5165 4517.77 Q5150.55 4513.7 5135.74 4513.7 Q5102.59 4513.7 5084.26 4534.81 Q5065.92 4555.74 5065.92 4593.7 Q5065.92 4631.66 5084.26 4652.77 Q5102.59 4673.7 5135.74 4673.7 Q5150.55 4673.7 5165 4669.81 Q5179.63 4665.74 5194.07 4657.77 L5194.07 4689.25 Q5179.81 4695.92 5164.44 4699.25 Q5149.26 4702.59 5132.03 4702.59 Q5085.18 4702.59 5057.59 4673.14 Q5030 4643.7 5030 4593.7 Q5030 4542.96 5057.78 4513.88 Q5085.74 4484.81 5134.26 4484.81 Q5150 4484.81 5165 4488.14 Q5180 4491.29 5194.07 4497.77 Z" fill="#000000" fill-rule="evenodd" fill-opacity="1" /><path clip-path="url(#clip5900)" d="M 0 0 M5387.4 4760.18 L5387.4 4786.66 L5190.37 4786.66 L5190.37 4760.18 L5387.4 4760.18 Z" fill="#000000" fill-rule="evenodd" fill-opacity="1" /><path clip-path="url(#clip5900)" d="M 0 0 M5424.63 4420.74 L5462.03 4420.74 L5462.03 4677.96 Q5462.03 4727.96 5442.96 4750.55 Q5424.07 4773.14 5382.03 4773.14 L5367.77 4773.14 L5367.77 4741.66 L5379.44 4741.66 Q5404.26 4741.66 5414.44 4727.77 Q5424.63 4713.88 5424.63 4677.96 L5424.63 4420.74 Z" fill="#000000" fill-rule="evenodd" fill-opacity="1" /><path clip-path="url(#clip5900)" d="M 0 0 M5509.07 4665.74 L5570.18 4665.74 L5570.18 4454.81 L5503.7 4468.14 L5503.7 4434.07 L5569.81 4420.74 L5607.22 4420.74 L5607.22 4665.74 L5668.33 4665.74 L5668.33 4697.22 L5509.07 4697.22 L5509.07 4665.74 Z" fill="#000000" fill-rule="evenodd" fill-opacity="1" /><path clip-path="url(#clip5900)" d="M 0 0 M5829.07 4525 L6066.47 4525 L6066.47 4556.11 L5829.07 4556.11 L5829.07 4525 M5829.07 4600.55 L6066.47 4600.55 L6066.47 4632.03 L5829.07 4632.03 L5829.07 4600.55 Z" fill="#000000" fill-rule="evenodd" fill-opacity="1" /><path clip-path="url(#clip5900)" d="M 0 0 M6307.58 4445.37 Q6278.7 4445.37 6264.07 4473.88 Q6249.62 4502.22 6249.62 4559.25 Q6249.62 4616.11 6264.07 4644.62 Q6278.7 4672.96 6307.58 4672.96 Q6336.66 4672.96 6351.1 4644.62 Q6365.73 4616.11 6365.73 4559.25 Q6365.73 4502.22 6351.1 4473.88 Q6336.66 4445.37 6307.58 4445.37 M6307.58 4415.74 Q6354.06 4415.74 6378.51 4452.59 Q6403.14 4489.26 6403.14 4559.25 Q6403.14 4629.07 6378.51 4665.92 Q6354.06 4702.59 6307.58 4702.59 Q6261.1 4702.59 6236.47 4665.92 Q6212.03 4629.07 6212.03 4559.25 Q6212.03 4489.26 6236.47 4452.59 Q6261.1 4415.74 6307.58 4415.74 Z" fill="#000000" fill-rule="evenodd" fill-opacity="1" /><path clip-path="url(#clip5900)" d="M 0 0 M6443.69 4650.18 L6482.77 4650.18 L6482.77 4697.22 L6443.69 4697.22 L6443.69 4650.18 Z" fill="#000000" fill-rule="evenodd" fill-opacity="1" /><path clip-path="url(#clip5900)" d="M 0 0 M6523.69 4420.74 L6670.54 4420.74 L6670.54 4452.22 L6557.95 4452.22 L6557.95 4520 Q6566.1 4517.22 6574.25 4515.92 Q6582.4 4514.44 6590.55 4514.44 Q6636.84 4514.44 6663.88 4539.81 Q6690.92 4565.18 6690.92 4608.51 Q6690.92 4653.14 6663.14 4677.96 Q6635.36 4702.59 6584.8 4702.59 Q6567.4 4702.59 6549.25 4699.62 Q6531.29 4696.66 6512.03 4690.74 L6512.03 4653.14 Q6528.69 4662.22 6546.47 4666.66 Q6564.25 4671.11 6584.06 4671.11 Q6616.1 4671.11 6634.8 4654.25 Q6653.51 4637.4 6653.51 4608.51 Q6653.51 4579.63 6634.8 4562.77 Q6616.1 4545.92 6584.06 4545.92 Q6569.06 4545.92 6554.06 4549.25 Q6539.25 4552.59 6523.69 4559.63 L6523.69 4420.74 Z" fill="#000000" fill-rule="evenodd" fill-opacity="1" /></svg>
