<?xml version="1.0" encoding="utf-8"?>
<svg xmlns="http://www.w3.org/2000/svg" xmlns:xlink="http://www.w3.org/1999/xlink" width="4800" height="3200" viewBox="0 0 19200 12800">
<defs>
  <clipPath id="clip2300">
    <rect x="0" y="0" width="19200" height="12800"/>
  </clipPath>
</defs>
<path clip-path="url(#clip2300)" d="
M0 12800 L19200 12800 L19200 0 L0 0  Z
  " fill="#ffffff" fill-rule="evenodd" fill-opacity="1"/>
<defs>
  <clipPath id="clip2301">
    <rect x="3840" y="0" width="13441" height="12800"/>
  </clipPath>
</defs>
<path clip-path="url(#clip2300)" d="
M1815.04 11385.4 L18822 11385.4 L18822 987.777 L1815.04 987.777  Z
  " fill="#ffffff" fill-rule="evenodd" fill-opacity="1"/>
<defs>
  <clipPath id="clip2302">
    <rect x="1815" y="987" width="17008" height="10399"/>
  </clipPath>
</defs>
<polyline clip-path="url(#clip2302)" style="stroke:#000000; stroke-width:16; stroke-opacity:0.1; fill:none" points="
  2296.37,11385.4 2296.37,987.777 
  "/>
<polyline clip-path="url(#clip2302)" style="stroke:#000000; stroke-width:16; stroke-opacity:0.1; fill:none" points="
  4970.43,11385.4 4970.43,987.777 
  "/>
<polyline clip-path="url(#clip2302)" style="stroke:#000000; stroke-width:16; stroke-opacity:0.1; fill:none" points="
  7644.49,11385.4 7644.49,987.777 
  "/>
<polyline clip-path="url(#clip2302)" style="stroke:#000000; stroke-width:16; stroke-opacity:0.1; fill:none" points="
  10318.5,11385.4 10318.5,987.777 
  "/>
<polyline clip-path="url(#clip2302)" style="stroke:#000000; stroke-width:16; stroke-opacity:0.1; fill:none" points="
  12992.6,11385.4 12992.6,987.777 
  "/>
<polyline clip-path="url(#clip2302)" style="stroke:#000000; stroke-width:16; stroke-opacity:0.1; fill:none" points="
  15666.7,11385.4 15666.7,987.777 
  "/>
<polyline clip-path="url(#clip2302)" style="stroke:#000000; stroke-width:16; stroke-opacity:0.1; fill:none" points="
  18340.7,11385.4 18340.7,987.777 
  "/>
<polyline clip-path="url(#clip2302)" style="stroke:#000000; stroke-width:16; stroke-opacity:0.1; fill:none" points="
  1815.04,9901.92 18822,9901.92 
  "/>
<polyline clip-path="url(#clip2302)" style="stroke:#000000; stroke-width:16; stroke-opacity:0.1; fill:none" points="
  1815.04,8117.27 18822,8117.27 
  "/>
<polyline clip-path="url(#clip2302)" style="stroke:#000000; stroke-width:16; stroke-opacity:0.1; fill:none" points="
  1815.04,6332.62 18822,6332.62 
  "/>
<polyline clip-path="url(#clip2302)" style="stroke:#000000; stroke-width:16; stroke-opacity:0.1; fill:none" points="
  1815.04,4547.96 18822,4547.96 
  "/>
<polyline clip-path="url(#clip2302)" style="stroke:#000000; stroke-width:16; stroke-opacity:0.1; fill:none" points="
  1815.04,2763.31 18822,2763.31 
  "/>
<polyline clip-path="url(#clip2300)" style="stroke:#000000; stroke-width:32; stroke-opacity:1; fill:none" points="
  1815.04,11385.4 18822,11385.4 
  "/>
<polyline clip-path="url(#clip2300)" style="stroke:#000000; stroke-width:32; stroke-opacity:1; fill:none" points="
  1815.04,11385.4 1815.04,987.777 
  "/>
<polyline clip-path="url(#clip2300)" style="stroke:#000000; stroke-width:32; stroke-opacity:1; fill:none" points="
  2296.37,11385.4 2296.37,11260.7 
  "/>
<polyline clip-path="url(#clip2300)" style="stroke:#000000; stroke-width:32; stroke-opacity:1; fill:none" points="
  4970.43,11385.4 4970.43,11260.7 
  "/>
<polyline clip-path="url(#clip2300)" style="stroke:#000000; stroke-width:32; stroke-opacity:1; fill:none" points="
  7644.49,11385.4 7644.49,11260.7 
  "/>
<polyline clip-path="url(#clip2300)" style="stroke:#000000; stroke-width:32; stroke-opacity:1; fill:none" points="
  10318.5,11385.4 10318.5,11260.7 
  "/>
<polyline clip-path="url(#clip2300)" style="stroke:#000000; stroke-width:32; stroke-opacity:1; fill:none" points="
  12992.6,11385.4 12992.6,11260.7 
  "/>
<polyline clip-path="url(#clip2300)" style="stroke:#000000; stroke-width:32; stroke-opacity:1; fill:none" points="
  15666.7,11385.4 15666.7,11260.7 
  "/>
<polyline clip-path="url(#clip2300)" style="stroke:#000000; stroke-width:32; stroke-opacity:1; fill:none" points="
  18340.7,11385.4 18340.7,11260.7 
  "/>
<polyline clip-path="url(#clip2300)" style="stroke:#000000; stroke-width:32; stroke-opacity:1; fill:none" points="
  1815.04,9901.92 2019.13,9901.92 
  "/>
<polyline clip-path="url(#clip2300)" style="stroke:#000000; stroke-width:32; stroke-opacity:1; fill:none" points="
  1815.04,8117.27 2019.13,8117.27 
  "/>
<polyline clip-path="url(#clip2300)" style="stroke:#000000; stroke-width:32; stroke-opacity:1; fill:none" points="
  1815.04,6332.62 2019.13,6332.62 
  "/>
<polyline clip-path="url(#clip2300)" style="stroke:#000000; stroke-width:32; stroke-opacity:1; fill:none" points="
  1815.04,4547.96 2019.13,4547.96 
  "/>
<polyline clip-path="url(#clip2300)" style="stroke:#000000; stroke-width:32; stroke-opacity:1; fill:none" points="
  1815.04,2763.31 2019.13,2763.31 
  "/>
<path clip-path="url(#clip2300)" d="M 0 0 M2151.09 11561.4 Q2122.21 11561.4 2107.58 11589.9 Q2093.13 11618.2 2093.13 11675.3 Q2093.13 11732.1 2107.58 11760.6 Q2122.21 11789 2151.09 11789 Q2180.17 11789 2194.61 11760.6 Q2209.24 11732.1 2209.24 11675.3 Q2209.24 11618.2 2194.61 11589.9 Q2180.17 11561.4 2151.09 11561.4 M2151.09 11531.7 Q2197.58 11531.7 2222.02 11568.6 Q2246.65 11605.3 2246.65 11675.3 Q2246.65 11745.1 2222.02 11781.9 Q2197.58 11818.6 2151.09 11818.6 Q2104.61 11818.6 2079.98 11781.9 Q2055.54 11745.1 2055.54 11675.3 Q2055.54 11605.3 2079.98 11568.6 Q2104.61 11531.7 2151.09 11531.7 Z" fill="#000000" fill-rule="evenodd" fill-opacity="1" /><path clip-path="url(#clip2300)" d="M 0 0 M2287.2 11766.2 L2326.28 11766.2 L2326.28 11813.2 L2287.2 11813.2 L2287.2 11766.2 Z" fill="#000000" fill-rule="evenodd" fill-opacity="1" /><path clip-path="url(#clip2300)" d="M 0 0 M2480.17 11664.1 Q2507.02 11669.9 2522.02 11688 Q2537.2 11706.2 2537.2 11732.8 Q2537.2 11773.8 2509.06 11796.2 Q2480.91 11818.6 2429.06 11818.6 Q2411.65 11818.6 2393.13 11815.1 Q2374.8 11811.7 2355.17 11804.9 L2355.17 11768.8 Q2370.72 11777.8 2389.24 11782.5 Q2407.76 11787.1 2427.94 11787.1 Q2463.13 11787.1 2481.46 11773.2 Q2499.98 11759.3 2499.98 11732.8 Q2499.98 11708.4 2482.76 11694.7 Q2465.72 11680.8 2435.17 11680.8 L2402.94 11680.8 L2402.94 11650.1 L2436.65 11650.1 Q2464.24 11650.1 2478.87 11639.1 Q2493.5 11628 2493.5 11607.3 Q2493.5 11586 2478.31 11574.7 Q2463.31 11563.2 2435.17 11563.2 Q2419.8 11563.2 2402.2 11566.5 Q2384.61 11569.9 2363.5 11576.9 L2363.5 11543.6 Q2384.8 11537.7 2403.32 11534.7 Q2422.02 11531.7 2438.5 11531.7 Q2481.09 11531.7 2505.91 11551.2 Q2530.72 11570.4 2530.72 11603.4 Q2530.72 11626.4 2517.57 11642.3 Q2504.43 11658 2480.17 11664.1 Z" fill="#000000" fill-rule="evenodd" fill-opacity="1" /><path clip-path="url(#clip2300)" d="M 0 0 M4820.61 11561.4 Q4791.73 11561.4 4777.1 11589.9 Q4762.65 11618.2 4762.65 11675.3 Q4762.65 11732.1 4777.1 11760.6 Q4791.73 11789 4820.61 11789 Q4849.69 11789 4864.13 11760.6 Q4878.76 11732.1 4878.76 11675.3 Q4878.76 11618.2 4864.13 11589.9 Q4849.69 11561.4 4820.61 11561.4 M4820.61 11531.7 Q4867.1 11531.7 4891.54 11568.6 Q4916.17 11605.3 4916.17 11675.3 Q4916.17 11745.1 4891.54 11781.9 Q4867.1 11818.6 4820.61 11818.6 Q4774.13 11818.6 4749.5 11781.9 Q4725.06 11745.1 4725.06 11675.3 Q4725.06 11605.3 4749.5 11568.6 Q4774.13 11531.7 4820.61 11531.7 Z" fill="#000000" fill-rule="evenodd" fill-opacity="1" /><path clip-path="url(#clip2300)" d="M 0 0 M4956.73 11766.2 L4995.8 11766.2 L4995.8 11813.2 L4956.73 11813.2 L4956.73 11766.2 Z" fill="#000000" fill-rule="evenodd" fill-opacity="1" /><path clip-path="url(#clip2300)" d="M 0 0 M5139.13 11569.3 L5044.69 11716.9 L5139.13 11716.9 L5139.13 11569.3 M5129.32 11536.7 L5176.35 11536.7 L5176.35 11716.9 L5215.8 11716.9 L5215.8 11748 L5176.35 11748 L5176.35 11813.2 L5139.13 11813.2 L5139.13 11748 L5014.32 11748 L5014.32 11711.9 L5129.32 11536.7 Z" fill="#000000" fill-rule="evenodd" fill-opacity="1" /><path clip-path="url(#clip2300)" d="M 0 0 M7500.6 11561.4 Q7471.71 11561.4 7457.08 11589.9 Q7442.64 11618.2 7442.64 11675.3 Q7442.64 11732.1 7457.08 11760.6 Q7471.71 11789 7500.6 11789 Q7529.67 11789 7544.12 11760.6 Q7558.75 11732.1 7558.75 11675.3 Q7558.75 11618.2 7544.12 11589.9 Q7529.67 11561.4 7500.6 11561.4 M7500.6 11531.7 Q7547.08 11531.7 7571.52 11568.6 Q7596.15 11605.3 7596.15 11675.3 Q7596.15 11745.1 7571.52 11781.9 Q7547.08 11818.6 7500.6 11818.6 Q7454.12 11818.6 7429.49 11781.9 Q7405.04 11745.1 7405.04 11675.3 Q7405.04 11605.3 7429.49 11568.6 Q7454.12 11531.7 7500.6 11531.7 Z" fill="#000000" fill-rule="evenodd" fill-opacity="1" /><path clip-path="url(#clip2300)" d="M 0 0 M7636.71 11766.2 L7675.78 11766.2 L7675.78 11813.2 L7636.71 11813.2 L7636.71 11766.2 Z" fill="#000000" fill-rule="evenodd" fill-opacity="1" /><path clip-path="url(#clip2300)" d="M 0 0 M7716.71 11536.7 L7863.56 11536.7 L7863.56 11568.2 L7750.97 11568.2 L7750.97 11636 Q7759.12 11633.2 7767.26 11631.9 Q7775.41 11630.4 7783.56 11630.4 Q7829.86 11630.4 7856.89 11655.8 Q7883.93 11681.2 7883.93 11724.5 Q7883.93 11769.1 7856.15 11794 Q7828.37 11818.6 7777.82 11818.6 Q7760.41 11818.6 7742.26 11815.6 Q7724.3 11812.7 7705.04 11806.7 L7705.04 11769.1 Q7721.71 11778.2 7739.49 11782.7 Q7757.26 11787.1 7777.08 11787.1 Q7809.12 11787.1 7827.82 11770.3 Q7846.52 11753.4 7846.52 11724.5 Q7846.52 11695.6 7827.82 11678.8 Q7809.12 11661.9 7777.08 11661.9 Q7762.08 11661.9 7747.08 11665.3 Q7732.26 11668.6 7716.71 11675.6 L7716.71 11536.7 Z" fill="#000000" fill-rule="evenodd" fill-opacity="1" /><path clip-path="url(#clip2300)" d="M 0 0 M10170 11561.4 Q10141.1 11561.4 10126.5 11589.9 Q10112.1 11618.2 10112.1 11675.3 Q10112.1 11732.1 10126.5 11760.6 Q10141.1 11789 10170 11789 Q10199.1 11789 10213.5 11760.6 Q10228.2 11732.1 10228.2 11675.3 Q10228.2 11618.2 10213.5 11589.9 Q10199.1 11561.4 10170 11561.4 M10170 11531.7 Q10216.5 11531.7 10241 11568.6 Q10265.6 11605.3 10265.6 11675.3 Q10265.6 11745.1 10241 11781.9 Q10216.5 11818.6 10170 11818.6 Q10123.5 11818.6 10098.9 11781.9 Q10074.5 11745.1 10074.5 11675.3 Q10074.5 11605.3 10098.9 11568.6 Q10123.5 11531.7 10170 11531.7 Z" fill="#000000" fill-rule="evenodd" fill-opacity="1" /><path clip-path="url(#clip2300)" d="M 0 0 M10306.1 11766.2 L10345.2 11766.2 L10345.2 11813.2 L10306.1 11813.2 L10306.1 11766.2 Z" fill="#000000" fill-rule="evenodd" fill-opacity="1" /><path clip-path="url(#clip2300)" d="M 0 0 M10470.4 11660.1 Q10445.2 11660.1 10430.4 11677.3 Q10415.8 11694.5 10415.8 11724.5 Q10415.8 11754.3 10430.4 11771.7 Q10445.2 11789 10470.4 11789 Q10495.6 11789 10510.2 11771.7 Q10525 11754.3 10525 11724.5 Q10525 11694.5 10510.2 11677.3 Q10495.6 11660.1 10470.4 11660.1 M10544.7 11542.8 L10544.7 11576.9 Q10530.6 11570.3 10516.1 11566.7 Q10501.9 11563.2 10487.8 11563.2 Q10450.8 11563.2 10431.1 11588.2 Q10411.7 11613.2 10408.9 11663.8 Q10419.8 11647.7 10436.3 11639.1 Q10452.8 11630.4 10472.6 11630.4 Q10514.3 11630.4 10538.4 11655.8 Q10562.6 11681 10562.6 11724.5 Q10562.6 11767.1 10537.4 11792.8 Q10512.2 11818.6 10470.4 11818.6 Q10422.4 11818.6 10397.1 11781.9 Q10371.7 11745.1 10371.7 11675.3 Q10371.7 11609.7 10402.8 11570.8 Q10433.9 11531.7 10486.3 11531.7 Q10500.4 11531.7 10514.7 11534.5 Q10529.1 11537.3 10544.7 11542.8 Z" fill="#000000" fill-rule="evenodd" fill-opacity="1" /><path clip-path="url(#clip2300)" d="M 0 0 M12848.3 11561.4 Q12819.5 11561.4 12804.8 11589.9 Q12790.4 11618.2 12790.4 11675.3 Q12790.4 11732.1 12804.8 11760.6 Q12819.5 11789 12848.3 11789 Q12877.4 11789 12891.9 11760.6 Q12906.5 11732.1 12906.5 11675.3 Q12906.5 11618.2 12891.9 11589.9 Q12877.4 11561.4 12848.3 11561.4 M12848.3 11531.7 Q12894.8 11531.7 12919.3 11568.6 Q12943.9 11605.3 12943.9 11675.3 Q12943.9 11745.1 12919.3 11781.9 Q12894.8 11818.6 12848.3 11818.6 Q12801.9 11818.6 12777.2 11781.9 Q12752.8 11745.1 12752.8 11675.3 Q12752.8 11605.3 12777.2 11568.6 Q12801.9 11531.7 12848.3 11531.7 Z" fill="#000000" fill-rule="evenodd" fill-opacity="1" /><path clip-path="url(#clip2300)" d="M 0 0 M12984.5 11766.2 L13023.5 11766.2 L13023.5 11813.2 L12984.5 11813.2 L12984.5 11766.2 Z" fill="#000000" fill-rule="evenodd" fill-opacity="1" /><path clip-path="url(#clip2300)" d="M 0 0 M13054.6 11536.7 L13232.4 11536.7 L13232.4 11552.7 L13132 11813.2 L13093 11813.2 L13187.4 11568.2 L13054.6 11568.2 L13054.6 11536.7 Z" fill="#000000" fill-rule="evenodd" fill-opacity="1" /><path clip-path="url(#clip2300)" d="M 0 0 M15519.2 11561.4 Q15490.3 11561.4 15475.6 11589.9 Q15461.2 11618.2 15461.2 11675.3 Q15461.2 11732.1 15475.6 11760.6 Q15490.3 11789 15519.2 11789 Q15548.2 11789 15562.7 11760.6 Q15577.3 11732.1 15577.3 11675.3 Q15577.3 11618.2 15562.7 11589.9 Q15548.2 11561.4 15519.2 11561.4 M15519.2 11531.7 Q15565.6 11531.7 15590.1 11568.6 Q15614.7 11605.3 15614.7 11675.3 Q15614.7 11745.1 15590.1 11781.9 Q15565.6 11818.6 15519.2 11818.6 Q15472.7 11818.6 15448 11781.9 Q15423.6 11745.1 15423.6 11675.3 Q15423.6 11605.3 15448 11568.6 Q15472.7 11531.7 15519.2 11531.7 Z" fill="#000000" fill-rule="evenodd" fill-opacity="1" /><path clip-path="url(#clip2300)" d="M 0 0 M15655.3 11766.2 L15694.3 11766.2 L15694.3 11813.2 L15655.3 11813.2 L15655.3 11766.2 Z" fill="#000000" fill-rule="evenodd" fill-opacity="1" /><path clip-path="url(#clip2300)" d="M 0 0 M15814.9 11681.9 Q15788.2 11681.9 15772.9 11696.2 Q15757.7 11710.4 15757.7 11735.4 Q15757.7 11760.4 15772.9 11774.7 Q15788.2 11789 15814.9 11789 Q15841.6 11789 15856.9 11774.7 Q15872.3 11760.3 15872.3 11735.4 Q15872.3 11710.4 15856.9 11696.2 Q15841.8 11681.9 15814.9 11681.9 M15777.5 11666 Q15753.4 11660.1 15739.9 11643.6 Q15726.6 11627.1 15726.6 11603.4 Q15726.6 11570.3 15750.1 11551 Q15773.8 11531.7 15814.9 11531.7 Q15856.2 11531.7 15879.7 11551 Q15903.2 11570.3 15903.2 11603.4 Q15903.2 11627.1 15889.7 11643.6 Q15876.4 11660.1 15852.5 11666 Q15879.5 11672.3 15894.5 11690.6 Q15909.7 11709 15909.7 11735.4 Q15909.7 11775.6 15885.1 11797.1 Q15860.6 11818.6 15814.9 11818.6 Q15769.2 11818.6 15744.5 11797.1 Q15720.1 11775.6 15720.1 11735.4 Q15720.1 11709 15735.3 11690.6 Q15750.5 11672.3 15777.5 11666 M15763.8 11606.9 Q15763.8 11628.4 15777.1 11640.4 Q15790.6 11652.5 15814.9 11652.5 Q15839 11652.5 15852.5 11640.4 Q15866.2 11628.4 15866.2 11606.9 Q15866.2 11585.4 15852.5 11573.4 Q15839 11561.4 15814.9 11561.4 Q15790.6 11561.4 15777.1 11573.4 Q15763.8 11585.4 15763.8 11606.9 Z" fill="#000000" fill-rule="evenodd" fill-opacity="1" /><path clip-path="url(#clip2300)" d="M 0 0 M18193.6 11561.4 Q18164.7 11561.4 18150.1 11589.9 Q18135.6 11618.2 18135.6 11675.3 Q18135.6 11732.1 18150.1 11760.6 Q18164.7 11789 18193.6 11789 Q18222.7 11789 18237.1 11760.6 Q18251.7 11732.1 18251.7 11675.3 Q18251.7 11618.2 18237.1 11589.9 Q18222.7 11561.4 18193.6 11561.4 M18193.6 11531.7 Q18240.1 11531.7 18264.5 11568.6 Q18289.1 11605.3 18289.1 11675.3 Q18289.1 11745.1 18264.5 11781.9 Q18240.1 11818.6 18193.6 11818.6 Q18147.1 11818.6 18122.5 11781.9 Q18098 11745.1 18098 11675.3 Q18098 11605.3 18122.5 11568.6 Q18147.1 11531.7 18193.6 11531.7 Z" fill="#000000" fill-rule="evenodd" fill-opacity="1" /><path clip-path="url(#clip2300)" d="M 0 0 M18329.7 11766.2 L18368.8 11766.2 L18368.8 11813.2 L18329.7 11813.2 L18329.7 11766.2 Z" fill="#000000" fill-rule="evenodd" fill-opacity="1" /><path clip-path="url(#clip2300)" d="M 0 0 M18410.4 11807.5 L18410.4 11773.4 Q18424.5 11780.1 18439 11783.6 Q18453.4 11787.1 18467.3 11787.1 Q18504.3 11787.1 18523.8 11762.3 Q18543.4 11737.3 18546.2 11686.5 Q18535.4 11702.5 18519 11711 Q18502.5 11719.5 18482.5 11719.5 Q18441 11719.5 18416.7 11694.5 Q18392.7 11669.3 18392.7 11625.8 Q18392.7 11583.2 18417.8 11557.5 Q18443 11531.7 18484.9 11531.7 Q18532.8 11531.7 18558 11568.6 Q18583.4 11605.3 18583.4 11675.3 Q18583.4 11740.6 18552.3 11779.7 Q18521.4 11818.6 18469 11818.6 Q18454.9 11818.6 18440.4 11815.8 Q18426 11813 18410.4 11807.5 M18484.9 11690.3 Q18510.1 11690.3 18524.7 11673 Q18539.5 11655.8 18539.5 11625.8 Q18539.5 11596 18524.7 11578.8 Q18510.1 11561.4 18484.9 11561.4 Q18459.7 11561.4 18444.9 11578.8 Q18430.3 11596 18430.3 11625.8 Q18430.3 11655.8 18444.9 11673 Q18459.7 11690.3 18484.9 11690.3 Z" fill="#000000" fill-rule="evenodd" fill-opacity="1" /><path clip-path="url(#clip2300)" d="M 0 0 M1021.93 9921.08 L1121.75 9921.08 L1121.75 9951.45 L1021.93 9951.45 L1021.93 9921.08 Z" fill="#000000" fill-rule="evenodd" fill-opacity="1" /><path clip-path="url(#clip2300)" d="M 0 0 M1168.78 10008.7 L1229.89 10008.7 L1229.89 9797.75 L1163.41 9811.08 L1163.41 9777.01 L1229.52 9763.68 L1266.93 9763.68 L1266.93 10008.7 L1328.04 10008.7 L1328.04 10040.2 L1168.78 10040.2 L1168.78 10008.7 Z" fill="#000000" fill-rule="evenodd" fill-opacity="1" /><path clip-path="url(#clip2300)" d="M 0 0 M1368.6 9993.12 L1407.67 9993.12 L1407.67 10040.2 L1368.6 10040.2 L1368.6 9993.12 Z" fill="#000000" fill-rule="evenodd" fill-opacity="1" /><path clip-path="url(#clip2300)" d="M 0 0 M1528.23 9908.86 Q1501.56 9908.86 1486.19 9923.12 Q1471 9937.38 1471 9962.38 Q1471 9987.38 1486.19 10001.6 Q1501.56 10015.9 1528.23 10015.9 Q1554.89 10015.9 1570.26 10001.6 Q1585.63 9987.19 1585.63 9962.38 Q1585.63 9937.38 1570.26 9923.12 Q1555.08 9908.86 1528.23 9908.86 M1490.82 9892.93 Q1466.75 9887.01 1453.23 9870.53 Q1439.89 9854.05 1439.89 9830.34 Q1439.89 9797.19 1463.41 9777.93 Q1487.12 9758.68 1528.23 9758.68 Q1569.52 9758.68 1593.04 9777.93 Q1616.56 9797.19 1616.56 9830.34 Q1616.56 9854.05 1603.04 9870.53 Q1589.71 9887.01 1565.82 9892.93 Q1592.86 9899.23 1607.86 9917.56 Q1623.04 9935.9 1623.04 9962.38 Q1623.04 10002.6 1598.41 10024 Q1573.97 10045.5 1528.23 10045.5 Q1482.49 10045.5 1457.86 10024 Q1433.41 10002.6 1433.41 9962.38 Q1433.41 9935.9 1448.6 9917.56 Q1463.78 9899.23 1490.82 9892.93 M1477.12 9833.86 Q1477.12 9855.34 1490.45 9867.38 Q1503.97 9879.42 1528.23 9879.42 Q1552.3 9879.42 1565.82 9867.38 Q1579.52 9855.34 1579.52 9833.86 Q1579.52 9812.38 1565.82 9800.34 Q1552.3 9788.3 1528.23 9788.3 Q1503.97 9788.3 1490.45 9800.34 Q1477.12 9812.38 1477.12 9833.86 Z" fill="#000000" fill-rule="evenodd" fill-opacity="1" /><path clip-path="url(#clip2300)" d="M 0 0 M1029.16 8136.43 L1128.97 8136.43 L1128.97 8166.8 L1029.16 8166.8 L1029.16 8136.43 Z" fill="#000000" fill-rule="evenodd" fill-opacity="1" /><path clip-path="url(#clip2300)" d="M 0 0 M1176.01 8224.02 L1237.12 8224.02 L1237.12 8013.1 L1170.64 8026.43 L1170.64 7992.36 L1236.75 7979.03 L1274.15 7979.03 L1274.15 8224.02 L1335.26 8224.02 L1335.26 8255.51 L1176.01 8255.51 L1176.01 8224.02 Z" fill="#000000" fill-rule="evenodd" fill-opacity="1" /><path clip-path="url(#clip2300)" d="M 0 0 M1375.82 8208.47 L1414.89 8208.47 L1414.89 8255.51 L1375.82 8255.51 L1375.82 8208.47 Z" fill="#000000" fill-rule="evenodd" fill-opacity="1" /><path clip-path="url(#clip2300)" d="M 0 0 M1455.82 7979.03 L1602.67 7979.03 L1602.67 8010.51 L1490.08 8010.51 L1490.08 8078.28 Q1498.23 8075.51 1506.37 8074.21 Q1514.52 8072.73 1522.67 8072.73 Q1568.97 8072.73 1596 8098.1 Q1623.04 8123.47 1623.04 8166.8 Q1623.04 8211.43 1595.26 8236.25 Q1567.49 8260.88 1516.93 8260.88 Q1499.52 8260.88 1481.38 8257.91 Q1463.41 8254.95 1444.15 8249.02 L1444.15 8211.43 Q1460.82 8220.51 1478.6 8224.95 Q1496.37 8229.39 1516.19 8229.39 Q1548.23 8229.39 1566.93 8212.54 Q1585.63 8195.69 1585.63 8166.8 Q1585.63 8137.91 1566.93 8121.06 Q1548.23 8104.21 1516.19 8104.21 Q1501.19 8104.21 1486.19 8107.54 Q1471.38 8110.88 1455.82 8117.91 L1455.82 7979.03 Z" fill="#000000" fill-rule="evenodd" fill-opacity="1" /><path clip-path="url(#clip2300)" d="M 0 0 M1033.97 6351.78 L1133.78 6351.78 L1133.78 6382.15 L1033.97 6382.15 L1033.97 6351.78 Z" fill="#000000" fill-rule="evenodd" fill-opacity="1" /><path clip-path="url(#clip2300)" d="M 0 0 M1180.82 6439.37 L1241.93 6439.37 L1241.93 6228.45 L1175.45 6241.78 L1175.45 6207.71 L1241.56 6194.38 L1278.97 6194.38 L1278.97 6439.37 L1340.08 6439.37 L1340.08 6470.86 L1180.82 6470.86 L1180.82 6439.37 Z" fill="#000000" fill-rule="evenodd" fill-opacity="1" /><path clip-path="url(#clip2300)" d="M 0 0 M1380.63 6423.82 L1419.71 6423.82 L1419.71 6470.86 L1380.63 6470.86 L1380.63 6423.82 Z" fill="#000000" fill-rule="evenodd" fill-opacity="1" /><path clip-path="url(#clip2300)" d="M 0 0 M1492.49 6439.37 L1623.04 6439.37 L1623.04 6470.86 L1447.49 6470.86 L1447.49 6439.37 Q1468.78 6417.34 1505.45 6380.3 Q1542.3 6343.08 1551.75 6332.34 Q1569.71 6312.15 1576.74 6298.26 Q1583.97 6284.19 1583.97 6270.67 Q1583.97 6248.63 1568.41 6234.75 Q1553.04 6220.86 1528.23 6220.86 Q1510.63 6220.86 1491 6226.97 Q1471.56 6233.08 1449.34 6245.49 L1449.34 6207.71 Q1471.93 6198.63 1491.56 6194 Q1511.19 6189.38 1527.49 6189.38 Q1570.45 6189.38 1596 6210.86 Q1621.56 6232.34 1621.56 6268.26 Q1621.56 6285.3 1615.08 6300.67 Q1608.78 6315.86 1591.93 6336.6 Q1587.3 6341.97 1562.49 6367.71 Q1537.67 6393.26 1492.49 6439.37 Z" fill="#000000" fill-rule="evenodd" fill-opacity="1" /><path clip-path="url(#clip2300)" d="M 0 0 M1012.86 4567.13 L1112.67 4567.13 L1112.67 4597.5 L1012.86 4597.5 L1012.86 4567.13 Z" fill="#000000" fill-rule="evenodd" fill-opacity="1" /><path clip-path="url(#clip2300)" d="M 0 0 M1233.23 4434.35 Q1204.34 4434.35 1189.71 4462.87 Q1175.27 4491.21 1175.27 4548.24 Q1175.27 4605.09 1189.71 4633.61 Q1204.34 4661.95 1233.23 4661.95 Q1262.3 4661.95 1276.75 4633.61 Q1291.38 4605.09 1291.38 4548.24 Q1291.38 4491.21 1276.75 4462.87 Q1262.3 4434.35 1233.23 4434.35 M1233.23 4404.72 Q1279.71 4404.72 1304.15 4441.58 Q1328.78 4478.24 1328.78 4548.24 Q1328.78 4618.06 1304.15 4654.91 Q1279.71 4691.58 1233.23 4691.58 Q1186.75 4691.58 1162.12 4654.91 Q1137.67 4618.06 1137.67 4548.24 Q1137.67 4478.24 1162.12 4441.58 Q1186.75 4404.72 1233.23 4404.72 Z" fill="#000000" fill-rule="evenodd" fill-opacity="1" /><path clip-path="url(#clip2300)" d="M 0 0 M1369.34 4639.17 L1408.41 4639.17 L1408.41 4686.2 L1369.34 4686.2 L1369.34 4639.17 Z" fill="#000000" fill-rule="evenodd" fill-opacity="1" /><path clip-path="url(#clip2300)" d="M 0 0 M1450.08 4680.46 L1450.08 4646.39 Q1464.15 4653.06 1478.6 4656.58 Q1493.04 4660.09 1506.93 4660.09 Q1543.97 4660.09 1563.41 4635.28 Q1583.04 4610.28 1585.82 4559.54 Q1575.08 4575.46 1558.6 4583.98 Q1542.12 4592.5 1522.12 4592.5 Q1480.63 4592.5 1456.38 4567.5 Q1432.3 4542.32 1432.3 4498.8 Q1432.3 4456.21 1457.49 4430.47 Q1482.67 4404.72 1524.52 4404.72 Q1572.49 4404.72 1597.67 4441.58 Q1623.04 4478.24 1623.04 4548.24 Q1623.04 4613.61 1591.93 4652.69 Q1561 4691.58 1508.6 4691.58 Q1494.52 4691.58 1480.08 4688.8 Q1465.63 4686.02 1450.08 4680.46 M1524.52 4563.24 Q1549.71 4563.24 1564.34 4546.02 Q1579.15 4528.8 1579.15 4498.8 Q1579.15 4468.98 1564.34 4451.76 Q1549.71 4434.35 1524.52 4434.35 Q1499.34 4434.35 1484.52 4451.76 Q1469.89 4468.98 1469.89 4498.8 Q1469.89 4528.8 1484.52 4546.02 Q1499.34 4563.24 1524.52 4563.24 Z" fill="#000000" fill-rule="evenodd" fill-opacity="1" /><path clip-path="url(#clip2300)" d="M 0 0 M1010.08 2782.48 L1109.9 2782.48 L1109.9 2812.85 L1010.08 2812.85 L1010.08 2782.48 Z" fill="#000000" fill-rule="evenodd" fill-opacity="1" /><path clip-path="url(#clip2300)" d="M 0 0 M1230.45 2649.7 Q1201.56 2649.7 1186.93 2678.22 Q1172.49 2706.56 1172.49 2763.59 Q1172.49 2820.44 1186.93 2848.96 Q1201.56 2877.3 1230.45 2877.3 Q1259.52 2877.3 1273.97 2848.96 Q1288.6 2820.44 1288.6 2763.59 Q1288.6 2706.56 1273.97 2678.22 Q1259.52 2649.7 1230.45 2649.7 M1230.45 2620.07 Q1276.93 2620.07 1301.38 2656.93 Q1326.01 2693.59 1326.01 2763.59 Q1326.01 2833.41 1301.38 2870.26 Q1276.93 2906.93 1230.45 2906.93 Q1183.97 2906.93 1159.34 2870.26 Q1134.9 2833.41 1134.9 2763.59 Q1134.9 2693.59 1159.34 2656.93 Q1183.97 2620.07 1230.45 2620.07 Z" fill="#000000" fill-rule="evenodd" fill-opacity="1" /><path clip-path="url(#clip2300)" d="M 0 0 M1366.56 2854.52 L1405.63 2854.52 L1405.63 2901.55 L1366.56 2901.55 L1366.56 2854.52 Z" fill="#000000" fill-rule="evenodd" fill-opacity="1" /><path clip-path="url(#clip2300)" d="M 0 0 M1530.82 2748.41 Q1505.63 2748.41 1490.82 2765.63 Q1476.19 2782.85 1476.19 2812.85 Q1476.19 2842.67 1490.82 2860.07 Q1505.63 2877.3 1530.82 2877.3 Q1556 2877.3 1570.63 2860.07 Q1585.45 2842.67 1585.45 2812.85 Q1585.45 2782.85 1570.63 2765.63 Q1556 2748.41 1530.82 2748.41 M1605.08 2631.19 L1605.08 2665.26 Q1591 2658.59 1576.56 2655.07 Q1562.3 2651.56 1548.23 2651.56 Q1511.19 2651.56 1491.56 2676.56 Q1472.12 2701.56 1469.34 2752.11 Q1480.26 2736 1496.75 2727.48 Q1513.23 2718.78 1533.04 2718.78 Q1574.71 2718.78 1598.78 2744.15 Q1623.04 2769.33 1623.04 2812.85 Q1623.04 2855.44 1597.86 2881.18 Q1572.67 2906.93 1530.82 2906.93 Q1482.86 2906.93 1457.49 2870.26 Q1432.12 2833.41 1432.12 2763.59 Q1432.12 2698.04 1463.23 2659.15 Q1494.34 2620.07 1546.75 2620.07 Q1560.82 2620.07 1575.08 2622.85 Q1589.52 2625.63 1605.08 2631.19 Z" fill="#000000" fill-rule="evenodd" fill-opacity="1" /><path clip-path="url(#clip2300)" d="M 0 0 M5698.08 96.768 L6004.01 96.768 L6004.01 151.86 L5763.55 151.86 L5763.55 295.1 L5993.96 295.1 L5993.96 350.193 L5763.55 350.193 L5763.55 525.516 L6009.84 525.516 L6009.84 580.608 L5698.08 580.608 L5698.08 96.768 Z" fill="#000000" fill-rule="evenodd" fill-opacity="1" /><path clip-path="url(#clip2300)" d="M 0 0 M6348.17 690.793 L6348.17 737.135 L6003.36 737.135 L6003.36 690.793 L6348.17 690.793 Z" fill="#000000" fill-rule="evenodd" fill-opacity="1" /><path clip-path="url(#clip2300)" d="M 0 0 M6642.11 228.341 L6642.11 284.73 Q6616.83 271.767 6589.61 265.286 Q6562.38 258.804 6533.22 258.804 Q6488.82 258.804 6466.46 272.415 Q6444.42 286.026 6444.42 313.248 Q6444.42 333.989 6460.3 345.98 Q6476.18 357.646 6524.14 368.341 L6544.56 372.878 Q6608.08 386.489 6634.65 411.442 Q6661.55 436.072 6661.55 480.47 Q6661.55 531.025 6621.36 560.516 Q6581.5 590.006 6511.5 590.006 Q6482.34 590.006 6450.58 584.173 Q6419.14 578.664 6384.14 567.321 L6384.14 505.747 Q6417.2 522.923 6449.28 531.673 Q6481.37 540.099 6512.8 540.099 Q6554.93 540.099 6577.62 525.84 Q6600.3 511.257 6600.3 485.007 Q6600.3 460.701 6583.77 447.738 Q6567.57 434.775 6512.15 422.785 L6491.41 417.924 Q6436 406.257 6411.37 382.276 Q6386.74 357.97 6386.74 315.841 Q6386.74 264.637 6423.03 236.767 Q6459.33 208.897 6526.09 208.897 Q6559.14 208.897 6588.31 213.758 Q6617.48 218.619 6642.11 228.341 Z" fill="#000000" fill-rule="evenodd" fill-opacity="1" /><path clip-path="url(#clip2300)" d="M 0 0 M6724.1 217.647 L6783.73 217.647 L6783.73 580.608 L6724.1 580.608 L6724.1 217.647 M6724.1 76.3514 L6783.73 76.3514 L6783.73 151.86 L6724.1 151.86 L6724.1 76.3514 Z" fill="#000000" fill-rule="evenodd" fill-opacity="1" /><path clip-path="url(#clip2300)" d="M 0 0 M6905.25 114.592 L6905.25 217.647 L7028.08 217.647 L7028.08 263.989 L6905.25 263.989 L6905.25 461.025 Q6905.25 505.423 6917.24 518.062 Q6929.56 530.701 6966.83 530.701 L7028.08 530.701 L7028.08 580.608 L6966.83 580.608 Q6897.8 580.608 6871.55 555.006 Q6845.3 529.08 6845.3 461.025 L6845.3 263.989 L6801.55 263.989 L6801.55 217.647 L6845.3 217.647 L6845.3 114.592 L6905.25 114.592 Z" fill="#000000" fill-rule="evenodd" fill-opacity="1" /><path clip-path="url(#clip2300)" d="M 0 0 M7401.08 384.22 L7401.08 413.387 L7126.92 413.387 Q7130.81 474.96 7163.86 507.368 Q7197.24 539.451 7256.55 539.451 Q7290.9 539.451 7322.98 531.025 Q7355.39 522.599 7387.15 505.747 L7387.15 562.136 Q7355.06 575.747 7321.36 582.877 Q7287.66 590.006 7252.98 590.006 Q7166.13 590.006 7115.25 539.451 Q7064.7 488.896 7064.7 402.692 Q7064.7 313.572 7112.66 261.397 Q7160.95 208.897 7242.61 208.897 Q7315.85 208.897 7358.31 256.212 Q7401.08 303.202 7401.08 384.22 M7341.45 366.72 Q7340.81 317.785 7313.91 288.619 Q7287.33 259.452 7243.26 259.452 Q7193.35 259.452 7163.21 287.647 Q7133.4 315.841 7128.86 367.044 L7341.45 366.72 Z" fill="#000000" fill-rule="evenodd" fill-opacity="1" /><path clip-path="url(#clip2300)" d="M 0 0 M7689.83 498.294 L7758.21 498.294 L7758.21 580.608 L7689.83 580.608 L7689.83 498.294 M7689.83 237.415 L7758.21 237.415 L7758.21 319.73 L7689.83 319.73 L7689.83 237.415 Z" fill="#000000" fill-rule="evenodd" fill-opacity="1" /><path clip-path="url(#clip2300)" d="M 0 0 M8180.15 350.841 Q8133.49 350.841 8106.59 375.794 Q8080.01 400.748 8080.01 444.498 Q8080.01 488.247 8106.59 513.201 Q8133.49 538.155 8180.15 538.155 Q8226.82 538.155 8253.72 513.201 Q8280.62 487.923 8280.62 444.498 Q8280.62 400.748 8253.72 375.794 Q8227.14 350.841 8180.15 350.841 M8114.69 322.97 Q8072.56 312.6 8048.9 283.758 Q8025.57 254.915 8025.57 213.434 Q8025.57 155.425 8066.73 121.722 Q8108.21 88.018 8180.15 88.018 Q8252.42 88.018 8293.58 121.722 Q8334.74 155.425 8334.74 213.434 Q8334.74 254.915 8311.08 283.758 Q8287.74 312.6 8245.94 322.97 Q8293.25 333.989 8319.5 366.072 Q8346.08 398.155 8346.08 444.498 Q8346.08 514.821 8302.98 552.414 Q8260.2 590.006 8180.15 590.006 Q8100.11 590.006 8057.01 552.414 Q8014.23 514.821 8014.23 444.498 Q8014.23 398.155 8040.8 366.072 Q8067.38 333.989 8114.69 322.97 M8090.71 219.591 Q8090.71 257.184 8114.04 278.249 Q8137.7 299.313 8180.15 299.313 Q8222.28 299.313 8245.94 278.249 Q8269.92 257.184 8269.92 219.591 Q8269.92 181.999 8245.94 160.934 Q8222.28 139.87 8180.15 139.87 Q8137.7 139.87 8114.04 160.934 Q8090.71 181.999 8090.71 219.591 Z" fill="#000000" fill-rule="evenodd" fill-opacity="1" /><path clip-path="url(#clip2300)" d="M 0 0 M8869.13 176.49 L8752.79 239.36 L8869.13 302.554 L8850.33 334.313 L8741.45 268.526 L8741.45 390.702 L8704.5 390.702 L8704.5 268.526 L8595.61 334.313 L8576.82 302.554 L8693.16 239.36 L8576.82 176.49 L8595.61 144.407 L8704.5 210.193 L8704.5 88.018 L8741.45 88.018 L8741.45 210.193 L8850.33 144.407 L8869.13 176.49 Z" fill="#000000" fill-rule="evenodd" fill-opacity="1" /><path clip-path="url(#clip2300)" d="M 0 0 M9291.07 350.841 Q9244.41 350.841 9217.51 375.794 Q9190.93 400.748 9190.93 444.498 Q9190.93 488.247 9217.51 513.201 Q9244.41 538.155 9291.07 538.155 Q9337.74 538.155 9364.64 513.201 Q9391.54 487.923 9391.54 444.498 Q9391.54 400.748 9364.64 375.794 Q9338.06 350.841 9291.07 350.841 M9225.61 322.97 Q9183.48 312.6 9159.82 283.758 Q9136.49 254.915 9136.49 213.434 Q9136.49 155.425 9177.65 121.722 Q9219.13 88.018 9291.07 88.018 Q9363.34 88.018 9404.5 121.722 Q9445.66 155.425 9445.66 213.434 Q9445.66 254.915 9422 283.758 Q9398.66 312.6 9356.86 322.97 Q9404.17 333.989 9430.42 366.072 Q9457 398.155 9457 444.498 Q9457 514.821 9413.9 552.414 Q9371.12 590.006 9291.07 590.006 Q9211.03 590.006 9167.93 552.414 Q9125.15 514.821 9125.15 444.498 Q9125.15 398.155 9151.72 366.072 Q9178.3 333.989 9225.61 322.97 M9201.63 219.591 Q9201.63 257.184 9224.96 278.249 Q9248.62 299.313 9291.07 299.313 Q9333.2 299.313 9356.86 278.249 Q9380.84 257.184 9380.84 219.591 Q9380.84 181.999 9356.86 160.934 Q9333.2 139.87 9291.07 139.87 Q9248.62 139.87 9224.96 160.934 Q9201.63 181.999 9201.63 219.591 Z" fill="#000000" fill-rule="evenodd" fill-opacity="1" /><path clip-path="url(#clip2300)" d="M 0 0 M9534.78 498.294 L9603.15 498.294 L9603.15 554.034 L9550.01 657.737 L9508.2 657.737 L9534.78 554.034 L9534.78 498.294 Z" fill="#000000" fill-rule="evenodd" fill-opacity="1" /><path clip-path="url(#clip2300)" d="M 0 0 M10075.7 141.166 Q10004.4 141.166 9962.23 194.314 Q9920.42 247.462 9920.42 339.174 Q9920.42 430.563 9962.23 483.71 Q10004.4 536.858 10075.7 536.858 Q10146.9 536.858 10188.4 483.71 Q10230.2 430.563 10230.2 339.174 Q10230.2 247.462 10188.4 194.314 Q10146.9 141.166 10075.7 141.166 M10167.4 571.858 L10253.6 666.163 L10174.5 666.163 L10102.9 588.71 Q10092.2 589.358 10086.3 589.682 Q10080.8 590.006 10075.7 590.006 Q9973.57 590.006 9912.32 521.951 Q9851.39 453.572 9851.39 339.174 Q9851.39 224.453 9912.32 156.397 Q9973.57 88.018 10075.7 88.018 Q10177.4 88.018 10238.3 156.397 Q10299.3 224.453 10299.3 339.174 Q10299.3 423.433 10265.2 483.386 Q10231.5 543.34 10167.4 571.858 Z" fill="#000000" fill-rule="evenodd" fill-opacity="1" /><path clip-path="url(#clip2300)" d="M 0 0 M10580.6 279.221 L10996 279.221 L10996 333.665 L10580.6 333.665 L10580.6 279.221 M10580.6 411.442 L10996 411.442 L10996 466.535 L10580.6 466.535 L10580.6 411.442 Z" fill="#000000" fill-rule="evenodd" fill-opacity="1" /><path clip-path="url(#clip2300)" d="M 0 0 M11289.3 525.516 L11396.2 525.516 L11396.2 156.397 L11279.9 179.731 L11279.9 120.101 L11395.6 96.768 L11461.1 96.768 L11461.1 525.516 L11568 525.516 L11568 580.608 L11289.3 580.608 L11289.3 525.516 Z" fill="#000000" fill-rule="evenodd" fill-opacity="1" /><path clip-path="url(#clip2300)" d="M 0 0 M11787.1 312.6 Q11743 312.6 11717.1 342.739 Q11691.5 372.878 11691.5 425.377 Q11691.5 477.553 11717.1 508.016 Q11743 538.155 11787.1 538.155 Q11831.2 538.155 11856.8 508.016 Q11882.7 477.553 11882.7 425.377 Q11882.7 372.878 11856.8 342.739 Q11831.2 312.6 11787.1 312.6 M11917 107.462 L11917 167.092 Q11892.4 155.425 11867.1 149.268 Q11842.2 143.11 11817.5 143.11 Q11752.7 143.11 11718.4 186.86 Q11684.3 230.61 11679.5 319.082 Q11698.6 290.887 11727.4 275.98 Q11756.3 260.749 11791 260.749 Q11863.9 260.749 11906 305.147 Q11948.5 349.22 11948.5 425.377 Q11948.5 499.914 11904.4 544.96 Q11860.3 590.006 11787.1 590.006 Q11703.1 590.006 11658.7 525.84 Q11614.3 461.349 11614.3 339.174 Q11614.3 224.453 11668.8 156.397 Q11723.2 88.018 11814.9 88.018 Q11839.6 88.018 11864.5 92.8791 Q11889.8 97.7402 11917 107.462 Z" fill="#000000" fill-rule="evenodd" fill-opacity="1" /><path clip-path="url(#clip2300)" d="M 0 0 M12026.2 498.294 L12094.6 498.294 L12094.6 554.034 L12041.5 657.737 L11999.7 657.737 L12026.2 554.034 L12026.2 498.294 Z" fill="#000000" fill-rule="evenodd" fill-opacity="1" /><path clip-path="url(#clip2300)" d="M 0 0 M12370.7 96.768 L12436.2 96.768 L12436.2 546.904 Q12436.2 634.404 12402.8 673.941 Q12369.8 713.478 12296.2 713.478 L12271.2 713.478 L12271.2 658.385 L12291.7 658.385 Q12335.1 658.385 12352.9 634.08 Q12370.7 609.775 12370.7 546.904 L12370.7 96.768 Z" fill="#000000" fill-rule="evenodd" fill-opacity="1" /><path clip-path="url(#clip2300)" d="M 0 0 M12774.5 690.793 L12774.5 737.135 L12429.7 737.135 L12429.7 690.793 L12774.5 690.793 Z" fill="#000000" fill-rule="evenodd" fill-opacity="1" /><path clip-path="url(#clip2300)" d="M 0 0 M12985.5 139.87 Q12934.9 139.87 12909.3 189.777 Q12884.1 239.36 12884.1 339.174 Q12884.1 438.664 12909.3 488.571 Q12934.9 538.155 12985.5 538.155 Q13036.4 538.155 13061.7 488.571 Q13087.3 438.664 13087.3 339.174 Q13087.3 239.36 13061.7 189.777 Q13036.4 139.87 12985.5 139.87 M12985.5 88.018 Q13066.8 88.018 13109.6 152.508 Q13152.7 216.675 13152.7 339.174 Q13152.7 461.349 13109.6 525.84 Q13066.8 590.006 12985.5 590.006 Q12904.2 590.006 12861.1 525.84 Q12818.3 461.349 12818.3 339.174 Q12818.3 216.675 12861.1 152.508 Q12904.2 88.018 12985.5 88.018 Z" fill="#000000" fill-rule="evenodd" fill-opacity="1" /><path clip-path="url(#clip2300)" d="M 0 0 M13434 279.221 L13849.5 279.221 L13849.5 333.665 L13434 333.665 L13434 279.221 M13434 411.442 L13849.5 411.442 L13849.5 466.535 L13434 466.535 L13434 411.442 Z" fill="#000000" fill-rule="evenodd" fill-opacity="1" /><path clip-path="url(#clip2300)" d="M 0 0 M14142.8 525.516 L14249.7 525.516 L14249.7 156.397 L14133.4 179.731 L14133.4 120.101 L14249.1 96.768 L14314.5 96.768 L14314.5 525.516 L14421.5 525.516 L14421.5 580.608 L14142.8 580.608 L14142.8 525.516 Z" fill="#000000" fill-rule="evenodd" fill-opacity="1" /><path clip-path="url(#clip2300)" d="M 0 0 M14492.4 498.294 L14560.8 498.294 L14560.8 580.608 L14492.4 580.608 L14492.4 498.294 Z" fill="#000000" fill-rule="evenodd" fill-opacity="1" /><path clip-path="url(#clip2300)" d="M 0 0 M14771.8 139.87 Q14721.2 139.87 14695.6 189.777 Q14670.3 239.36 14670.3 339.174 Q14670.3 438.664 14695.6 488.571 Q14721.2 538.155 14771.8 538.155 Q14822.7 538.155 14847.9 488.571 Q14873.5 438.664 14873.5 339.174 Q14873.5 239.36 14847.9 189.777 Q14822.7 139.87 14771.8 139.87 M14771.8 88.018 Q14853.1 88.018 14895.9 152.508 Q14939 216.675 14939 339.174 Q14939 461.349 14895.9 525.84 Q14853.1 590.006 14771.8 590.006 Q14690.4 590.006 14647.3 525.84 Q14604.6 461.349 14604.6 339.174 Q14604.6 216.675 14647.3 152.508 Q14690.4 88.018 14771.8 88.018 Z" fill="#000000" fill-rule="evenodd" fill-opacity="1" /><path clip-path="url(#clip2300)" d="M 0 0 M10157.7 12068.2 L10479.3 12068.2 L10479.3 12111.5 L10344.4 12111.5 L10344.4 12448.4 L10292.7 12448.4 L10292.7 12111.5 L10157.7 12111.5 L10157.7 12068.2 Z" fill="#000000" fill-rule="evenodd" fill-opacity="1" /><path clip-path="url(#clip2300)" d="M 0 0 M323.873 6855.64 L323.873 6615.27 L367.16 6615.27 L367.16 6804.21 L479.706 6804.21 L479.706 6623.17 L522.993 6623.17 L522.993 6804.21 L660.746 6804.21 L660.746 6610.69 L704.033 6610.69 L704.033 6855.64 L323.873 6855.64 Z" fill="#000000" fill-rule="evenodd" fill-opacity="1" /><path clip-path="url(#clip2300)" d="M 0 0 M790.607 6344.86 L827.019 6344.86 L827.019 6615.78 L790.607 6615.78 L790.607 6344.86 Z" fill="#000000" fill-rule="evenodd" fill-opacity="1" /><path clip-path="url(#clip2300)" d="M 0 0 M427.252 6113.91 L471.558 6113.91 Q461.373 6133.77 456.28 6155.16 Q451.187 6176.55 451.187 6199.47 Q451.187 6234.35 461.882 6251.92 Q472.576 6269.23 493.965 6269.23 Q510.261 6269.23 519.682 6256.76 Q528.849 6244.28 537.252 6206.6 L540.817 6190.55 Q551.511 6140.65 571.117 6119.77 Q590.469 6098.63 625.353 6098.63 Q665.075 6098.63 688.246 6130.21 Q711.417 6161.53 711.417 6216.53 Q711.417 6239.44 706.834 6264.4 Q702.505 6289.1 693.594 6316.6 L645.214 6316.6 Q658.709 6290.62 665.584 6265.42 Q672.205 6240.21 672.205 6215.51 Q672.205 6182.41 661.001 6164.58 Q649.543 6146.76 628.918 6146.76 Q609.821 6146.76 599.636 6159.74 Q589.451 6172.48 580.029 6216.02 L576.21 6232.31 Q567.043 6275.86 548.201 6295.21 Q529.104 6314.56 496.002 6314.56 Q455.771 6314.56 433.873 6286.04 Q411.975 6257.52 411.975 6205.07 Q411.975 6179.1 415.794 6156.18 Q419.613 6133.26 427.252 6113.91 Z" fill="#000000" fill-rule="evenodd" fill-opacity="1" /><path clip-path="url(#clip2300)" d="M 0 0 M418.85 6049.49 L418.85 6002.64 L704.033 6002.64 L704.033 6049.49 L418.85 6049.49 M307.832 6049.49 L307.832 6002.64 L367.16 6002.64 L367.16 6049.49 L307.832 6049.49 Z" fill="#000000" fill-rule="evenodd" fill-opacity="1" /><path clip-path="url(#clip2300)" d="M 0 0 M337.878 5907.15 L418.85 5907.15 L418.85 5810.65 L455.261 5810.65 L455.261 5907.15 L610.075 5907.15 Q644.96 5907.15 654.89 5897.73 Q664.821 5888.06 664.821 5858.77 L664.821 5810.65 L704.033 5810.65 L704.033 5858.77 Q704.033 5913.01 683.918 5933.63 Q663.547 5954.26 610.075 5954.26 L455.261 5954.26 L455.261 5988.63 L418.85 5988.63 L418.85 5954.26 L337.878 5954.26 L337.878 5907.15 Z" fill="#000000" fill-rule="evenodd" fill-opacity="1" /><path clip-path="url(#clip2300)" d="M 0 0 M549.729 5517.57 L572.645 5517.57 L572.645 5732.99 Q621.024 5729.93 646.487 5703.96 Q671.695 5677.73 671.695 5631.14 Q671.695 5604.15 665.075 5578.94 Q658.455 5553.47 645.214 5528.52 L689.519 5528.52 Q700.214 5553.73 705.816 5580.21 Q711.417 5606.69 711.417 5633.94 Q711.417 5702.18 671.695 5742.15 Q631.973 5781.88 564.242 5781.88 Q494.22 5781.88 453.224 5744.19 Q411.975 5706.25 411.975 5642.09 Q411.975 5584.54 449.15 5551.18 Q486.071 5517.57 549.729 5517.57 M535.979 5564.42 Q497.53 5564.93 474.613 5586.07 Q451.697 5606.95 451.697 5641.58 Q451.697 5680.79 473.849 5704.47 Q496.002 5727.9 536.233 5731.46 L535.979 5564.42 Z" fill="#000000" fill-rule="evenodd" fill-opacity="1" /><polyline clip-path="url(#clip2302)" style="stroke:#009af9; stroke-width:32; stroke-opacity:1; fill:none" points="
  4970.43,11073.5 5105.48,11072.2 5240.54,11068.7 5375.59,11067.5 5510.64,11064.4 5645.7,11060.3 5780.75,11056.3 5915.8,11051.3 6050.86,11048.5 6185.91,11042.9 
  6320.96,11038.1 6456.02,11033.8 6591.07,11024.4 6726.12,11016.9 6861.18,11010.3 6996.23,11003 7131.28,10993.6 7266.34,10984.5 7401.39,10967.9 7536.44,10959.5 
  7671.5,10947.8 7806.55,10931.8 7941.6,10918 8076.66,10905.6 8211.71,10883.2 8346.76,10862.8 8481.82,10842.6 8616.87,10829.6 8751.92,10798.6 8886.98,10776.9 
  9022.03,10747.7 9157.08,10711.7 9292.14,10672.8 9427.19,10636.8 9562.24,10612.1 9697.3,10559.1 9832.35,10513.6 9967.41,10453.5 10102.5,10410.6 10237.5,10295 
  10372.6,10236 10507.6,10060.7 10642.7,9936.39 10777.7,9724 10912.8,9376.76 11047.8,8951.69 11182.9,8373.92 11317.9,8053.88 11453,7313.27 11588,6192.87 
  11723.1,5599.19 11858.2,4750.78 11993.2,4144.8 12128.3,3643.35 12263.3,3270.98 12398.4,3008.45 12533.4,2713.48 12668.5,2568.85 12803.5,2490.11 12938.6,2357.62 
  13073.6,2317.32 13208.7,2221.91 13343.7,2137.48 13478.8,2114.09 13613.8,2084.36 13748.9,2028.28 13884,1998.48 14019,1944.31 14154.1,1905.1 14289.1,1890.07 
  14424.2,1851.56 14559.2,1817.92 14694.3,1792.3 14829.3,1761.35 14964.4,1739.54 15099.4,1712.31 15234.5,1683.07 15369.5,1662.12 15504.6,1644.52 15639.6,1623.25 
  15774.7,1599.39 15909.8,1582.66 16044.8,1560.85 16179.9,1540.95 16314.9,1521.31 16450,1501.9 16585,1481.93 16720.1,1464.26 16855.1,1445.35 16990.2,1434.76 
  17125.2,1414.03 17260.3,1399.36 17395.3,1380.54 17530.4,1366.79 17665.4,1353.12 17800.5,1340.62 17935.6,1323.49 18070.6,1313.64 18205.7,1298.07 18340.7,1282.05 
  
  "/>
<polyline clip-path="url(#clip2302)" style="stroke:#e26f46; stroke-width:32; stroke-opacity:1; fill:none" points="
  4970.43,11055.8 5105.48,11052.5 5240.54,11044.6 5375.59,11040.5 5510.64,11035.3 5645.7,11028.5 5780.75,11023.2 5915.8,11013.3 6050.86,11005.8 6185.91,10999.9 
  6320.96,10991.9 6456.02,10977.4 6591.07,10968.2 6726.12,10951.6 6861.18,10940.2 6996.23,10929.9 7131.28,10915.6 7266.34,10894.2 7401.39,10877.3 7536.44,10857.5 
  7671.5,10842.7 7806.55,10819.2 7941.6,10790.8 8076.66,10764.1 8211.71,10742.8 8346.76,10715.9 8481.82,10676.4 8616.87,10638.1 8751.92,10591 8886.98,10539.6 
  9022.03,10506.7 9157.08,10456.2 9292.14,10398.2 9427.19,10312.5 9562.24,10233.8 9697.3,10137.6 9832.35,10011.9 9967.41,9864.32 10102.5,9621.75 10237.5,9391.49 
  10372.6,8976.5 10507.6,8489.79 10642.7,7968.78 10777.7,7309.08 10912.8,6589.47 11047.8,5959.47 11182.9,5053.87 11317.9,4580.02 11453,4064.53 11588,3837.11 
  11723.1,3500.48 11858.2,3246.12 11993.2,3109.21 12128.3,2942.91 12263.3,2866.1 12398.4,2788.69 12533.4,2709.67 12668.5,2653.31 12803.5,2593.75 12938.6,2534.34 
  13073.6,2505.19 13208.7,2441.74 13343.7,2411.15 13478.8,2369.56 13613.8,2329.2 13748.9,2294.88 13884,2263.34 14019,2237.28 14154.1,2203.48 14289.1,2177.99 
  14424.2,2146.05 14559.2,2121.5 14694.3,2095.79 14829.3,2069.47 14964.4,2052.28 15099.4,2030.25 15234.5,2002.25 15369.5,1988.51 15504.6,1964.75 15639.6,1946.1 
  15774.7,1925.89 15909.8,1907.18 16044.8,1889.32 16179.9,1868.65 16314.9,1853.82 16450,1835.31 16585,1816.71 16720.1,1804.77 16855.1,1786.8 16990.2,1770.96 
  17125.2,1751.72 17260.3,1742.83 17395.3,1723.47 17530.4,1714.58 17665.4,1696.99 17800.5,1685.7 17935.6,1672.39 18070.6,1658.84 18205.7,1647.27 18340.7,1635.74 
  
  "/>
<polyline clip-path="url(#clip2302)" style="stroke:#3da44d; stroke-width:32; stroke-opacity:1; fill:none" points="
  4970.43,10866.1 5105.48,10841.4 5240.54,10824.9 5375.59,10795.1 5510.64,10774.3 5645.7,10754.6 5780.75,10730.6 5915.8,10708.7 6050.86,10674.4 6185.91,10644.8 
  6320.96,10602.6 6456.02,10566.4 6591.07,10534.2 6726.12,10500.9 6861.18,10455.7 6996.23,10398 7131.28,10358.3 7266.34,10296.4 7401.39,10248.4 7536.44,10191.6 
  7671.5,10136.4 7806.55,10043.7 7941.6,9980.79 8076.66,9901.53 8211.71,9820.2 8346.76,9735.98 8481.82,9654.24 8616.87,9537.39 8751.92,9433.25 8886.98,9325.63 
  9022.03,9199.31 9157.08,9063.85 9292.14,8845.37 9427.19,8711.09 9562.24,8491.64 9697.3,8355.61 9832.35,8059.59 9967.41,7827.06 10102.5,7490.82 10237.5,7144.77 
  10372.6,6880.27 10507.6,6475.61 10642.7,6175.53 10777.7,5908.34 10912.8,5568.94 11047.8,5226.46 11182.9,4962.94 11317.9,4716.62 11453,4549.55 11588,4341.55 
  11723.1,4171.05 11858.2,4040.48 11993.2,3927.24 12128.3,3787.9 12263.3,3669.69 12398.4,3614.09 12533.4,3528.89 12668.5,3435.67 12803.5,3367.69 12938.6,3313.52 
  13073.6,3254.26 13208.7,3199.93 13343.7,3137.31 13478.8,3095.62 13613.8,3060.88 13748.9,3019.64 13884,2975.38 14019,2941.46 14154.1,2900.76 14289.1,2882.96 
  14424.2,2835 14559.2,2808.04 14694.3,2772.54 14829.3,2753.24 14964.4,2725.92 15099.4,2694.73 15234.5,2666.15 15369.5,2652.51 15504.6,2623.34 15639.6,2598.59 
  15774.7,2576.36 15909.8,2553.25 16044.8,2533.4 16179.9,2510.28 16314.9,2495.97 16450,2470.11 16585,2452.13 16720.1,2436.8 16855.1,2414.37 16990.2,2395.11 
  17125.2,2380.16 17260.3,2364.61 17395.3,2345.97 17530.4,2331.61 17665.4,2314.14 17800.5,2300.69 17935.6,2283.33 18070.6,2268.4 18205.7,2255.08 18340.7,2241.23 
  
  "/>
<polyline clip-path="url(#clip2302)" style="stroke:#c271d2; stroke-width:32; stroke-opacity:1; fill:none" points="
  2296.37,11091.2 2404.41,11091 2512.46,11090.9 2620.5,11090.7 2728.54,11090.5 2836.58,11090.3 2944.63,11090 3052.67,11089.9 3160.71,11089.5 3268.76,11089.3 
  3376.8,11088.9 3484.84,11088.4 3592.88,11087.8 3700.93,11087.5 3808.97,11086.6 3917.01,11086.2 4025.06,11085.3 4133.1,11084.4 4241.14,11083.9 4349.18,11082.5 
  4457.23,11081.5 4565.27,11080.5 4673.31,11079 4781.35,11077.7 4889.4,11075.8 4997.44,11074.6 5105.48,11072.3 5213.53,11070.5 5321.57,11068.3 5429.61,11064.9 
  5537.65,11063.2 5645.7,11060.1 5753.74,11057 5861.78,11053.8 5969.82,11050.1 6077.87,11046.4 6185.91,11041.7 6293.95,11038.7 6402,11034.4 6510.04,11028.2 
  6618.08,11022.9 6726.12,11016.5 6834.17,11011.8 6942.21,11004.7 7050.25,10998.2 7158.29,10990.3 7266.34,10980.7 7374.38,10974.4 7482.42,10963.2 7590.47,10953.7 
  7698.51,10941.4 7806.55,10933.1 7914.59,10921.1 8022.64,10908.5 8130.68,10894.2 8238.72,10878.6 8346.76,10866.3 8454.81,10846.2 8562.85,10831.2 8670.89,10815.8 
  8778.94,10796.1 8886.98,10772.3 8995.02,10749.2 9103.06,10725.5 9211.11,10702.8 9319.15,10672.8 9427.19,10647.2 9535.23,10608.1 9643.28,10579.2 9751.32,10536.3 
  9859.36,10496.5 9967.41,10449.1 10075.4,10400.6 10183.5,10336.8 10291.5,10267.3 10399.6,10185.4 10507.6,10099.2 10615.7,9978.18 10723.7,9780.31 10831.7,9609.13 
  10939.8,9358.38 11047.8,9003.31 11155.9,8632.89 11263.9,8156.38 11372,7505.86 11480,6950.28 11588,6314.1 11696.1,5577.06 11804.1,4914.02 11912.2,4487.37 
  12020.2,3943.34 12128.3,3535.11 12236.3,3265.25 12344.3,3045.85 12452.4,2874.58 12560.4,2726.81 12668.5,2591.68 12776.5,2503.27 12884.6,2407.34 12992.6,2341.55 
  
  "/>
<polyline clip-path="url(#clip2302)" style="stroke:#ac8d18; stroke-width:32; stroke-opacity:1; fill:none" points="
  2296.37,11089.1 2404.41,11088.7 2512.46,11088.4 2620.5,11088 2728.54,11087.4 2836.58,11086.6 2944.63,11086.2 3052.67,11085.2 3160.71,11084.4 3268.76,11083.8 
  3376.8,11082.6 3484.84,11081.7 3592.88,11080.5 3700.93,11079 3808.97,11078 3917.01,11076.3 4025.06,11074.6 4133.1,11072.2 4241.14,11070.4 4349.18,11068.4 
  4457.23,11066.4 4565.27,11063.5 4673.31,11060 4781.35,11057.9 4889.4,11053.9 4997.44,11050.4 5105.48,11047 5213.53,11042.5 5321.57,11038.9 5429.61,11033.4 
  5537.65,11028.8 5645.7,11023.4 5753.74,11017.2 5861.78,11012.1 5969.82,11005 6077.87,10999.2 6185.91,10990.4 6293.95,10981.9 6402,10974.6 6510.04,10964.5 
  6618.08,10955.4 6726.12,10945.6 6834.17,10933.6 6942.21,10922.2 7050.25,10911.5 7158.29,10897.1 7266.34,10882.9 7374.38,10867.7 7482.42,10852.4 7590.47,10836.4 
  7698.51,10818.6 7806.55,10798.6 7914.59,10777.9 8022.64,10755.1 8130.68,10733.1 8238.72,10706.7 8346.76,10681.4 8454.81,10652.8 8562.85,10619.4 8670.89,10587.1 
  8778.94,10549.5 8886.98,10510.3 8995.02,10468.7 9103.06,10420.4 9211.11,10368.6 9319.15,10308.8 9427.19,10228.5 9535.23,10158.2 9643.28,10063.1 9751.32,9950.66 
  9859.36,9839.91 9967.41,9650.28 10075.4,9472.08 10183.5,9228.74 10291.5,8928.57 10399.6,8528.19 10507.6,8101.73 10615.7,7661.04 10723.7,7095.9 10831.7,6523.62 
  10939.8,5963.28 11047.8,5394.6 11155.9,4963.86 11263.9,4529.38 11372,4193.14 11480,3832.02 11588,3617.19 11696.1,3443.43 11804.1,3268.69 11912.2,3147.6 
  12020.2,3040.38 12128.3,2928.23 12236.3,2861.85 12344.3,2796.52 12452.4,2725.23 12560.4,2666.79 12668.5,2617.3 12776.5,2567.31 12884.6,2526.04 12992.6,2491.44 
  
  "/>
<polyline clip-path="url(#clip2302)" style="stroke:#00a9ad; stroke-width:32; stroke-opacity:1; fill:none" points="
  2296.37,11044.2 2404.41,11039.1 2512.46,11033.7 2620.5,11028.1 2728.54,11022.4 2836.58,11016.4 2944.63,11009.2 3052.67,11002.7 3160.71,10993.1 3268.76,10986.3 
  3376.8,10976 3484.84,10967.2 3592.88,10957.3 3700.93,10946.8 3808.97,10934.7 3917.01,10923.9 4025.06,10910.9 4133.1,10896.6 4241.14,10882.5 4349.18,10866.4 
  4457.23,10852.9 4565.27,10832.8 4673.31,10816.8 4781.35,10796 4889.4,10778.2 4997.44,10753.5 5105.48,10731.1 5213.53,10707 5321.57,10683.5 5429.61,10655.6 
  5537.65,10627.5 5645.7,10594.9 5753.74,10565.8 5861.78,10532.6 5969.82,10492.6 6077.87,10458.8 6185.91,10422.9 6293.95,10376.6 6402,10335.3 6510.04,10281.5 
  6618.08,10234.4 6726.12,10178.8 6834.17,10127.1 6942.21,10060.3 7050.25,10005.7 7158.29,9937.23 7266.34,9872.17 7374.38,9791.85 7482.42,9718.85 7590.47,9642.85 
  7698.51,9560.24 7806.55,9458.67 7914.59,9365.39 8022.64,9268.84 8130.68,9169.95 8238.72,9035.47 8346.76,8932.11 8454.81,8806.44 8562.85,8666.82 8670.89,8535.8 
  8778.94,8383.25 8886.98,8233.75 8995.02,8065.4 9103.06,7894.74 9211.11,7716.52 9319.15,7533.19 9427.19,7341.77 9535.23,7133.3 9643.28,6934.46 9751.32,6721.75 
  9859.36,6504.53 9967.41,6289.64 10075.4,6075.04 10183.5,5877.68 10291.5,5657 10399.6,5466.59 10507.6,5265.22 10615.7,5089.25 10723.7,4925.63 10831.7,4762.09 
  10939.8,4612.48 11047.8,4475.32 11155.9,4341.19 11263.9,4208.5 11372,4108.05 11480,3999.6 11588,3909.23 11696.1,3814.6 11804.1,3739.3 11912.2,3667.87 
  12020.2,3585.72 12128.3,3536.45 12236.3,3477.36 12344.3,3413.96 12452.4,3354.34 12560.4,3313.21 12668.5,3259.53 12776.5,3214.21 12884.6,3169.12 12992.6,3131.25 
  
  "/>
<path clip-path="url(#clip2300)" d="
M2391.04 5042.82 L6901.58 5042.82 L6901.58 1655.94 L2391.04 1655.94  Z
  " fill="#ffffff" fill-rule="evenodd" fill-opacity="1"/>
<polyline clip-path="url(#clip2300)" style="stroke:#000000; stroke-width:32; stroke-opacity:1; fill:none" points="
  2391.04,5042.82 6901.58,5042.82 6901.58,1655.94 2391.04,1655.94 2391.04,5042.82 
  "/>
<polyline clip-path="url(#clip2300)" style="stroke:#009af9; stroke-width:32; stroke-opacity:1; fill:none" points="
  2583.04,2139.78 3735.04,2139.78 
  "/>
<path clip-path="url(#clip2300)" d="M 0 0 M3983.89 2001.54 L4021.3 2001.54 L4021.3 2258.76 Q4021.3 2308.76 4002.23 2331.35 Q3983.34 2353.94 3941.3 2353.94 L3927.04 2353.94 L3927.04 2322.46 L3938.71 2322.46 Q3963.52 2322.46 3973.71 2308.57 Q3983.89 2294.68 3983.89 2258.76 L3983.89 2001.54 Z" fill="#000000" fill-rule="evenodd" fill-opacity="1" /><path clip-path="url(#clip2300)" d="M 0 0 M4068.34 2246.54 L4129.45 2246.54 L4129.45 2035.61 L4062.97 2048.94 L4062.97 2014.87 L4129.08 2001.54 L4166.48 2001.54 L4166.48 2246.54 L4227.59 2246.54 L4227.59 2278.02 L4068.34 2278.02 L4068.34 2246.54 Z" fill="#000000" fill-rule="evenodd" fill-opacity="1" /><path clip-path="url(#clip2300)" d="M 0 0 M4388.33 2105.8 L4625.74 2105.8 L4625.74 2136.91 L4388.33 2136.91 L4388.33 2105.8 M4388.33 2181.35 L4625.74 2181.35 L4625.74 2212.83 L4388.33 2212.83 L4388.33 2181.35 Z" fill="#000000" fill-rule="evenodd" fill-opacity="1" /><path clip-path="url(#clip2300)" d="M 0 0 M4866.85 2026.17 Q4837.96 2026.17 4823.33 2054.68 Q4808.89 2083.02 4808.89 2140.05 Q4808.89 2196.91 4823.33 2225.42 Q4837.96 2253.76 4866.85 2253.76 Q4895.92 2253.76 4910.37 2225.42 Q4925 2196.91 4925 2140.05 Q4925 2083.02 4910.37 2054.68 Q4895.92 2026.17 4866.85 2026.17 M4866.85 1996.54 Q4913.33 1996.54 4937.78 2033.39 Q4962.41 2070.06 4962.41 2140.05 Q4962.41 2209.87 4937.78 2246.72 Q4913.33 2283.39 4866.85 2283.39 Q4820.37 2283.39 4795.74 2246.72 Q4771.3 2209.87 4771.3 2140.05 Q4771.3 2070.06 4795.74 2033.39 Q4820.37 1996.54 4866.85 1996.54 Z" fill="#000000" fill-rule="evenodd" fill-opacity="1" /><path clip-path="url(#clip2300)" d="M 0 0 M5002.96 2230.98 L5042.03 2230.98 L5042.03 2278.02 L5002.96 2278.02 L5002.96 2230.98 Z" fill="#000000" fill-rule="evenodd" fill-opacity="1" /><path clip-path="url(#clip2300)" d="M 0 0 M5162.59 2026.17 Q5133.7 2026.17 5119.07 2054.68 Q5104.63 2083.02 5104.63 2140.05 Q5104.63 2196.91 5119.07 2225.42 Q5133.7 2253.76 5162.59 2253.76 Q5191.66 2253.76 5206.11 2225.42 Q5220.74 2196.91 5220.74 2140.05 Q5220.74 2083.02 5206.11 2054.68 Q5191.66 2026.17 5162.59 2026.17 M5162.59 1996.54 Q5209.07 1996.54 5233.52 2033.39 Q5258.14 2070.06 5258.14 2140.05 Q5258.14 2209.87 5233.52 2246.72 Q5209.07 2283.39 5162.59 2283.39 Q5116.11 2283.39 5091.48 2246.72 Q5067.03 2209.87 5067.03 2140.05 Q5067.03 2070.06 5091.48 2033.39 Q5116.11 1996.54 5162.59 1996.54 Z" fill="#000000" fill-rule="evenodd" fill-opacity="1" /><polyline clip-path="url(#clip2300)" style="stroke:#e26f46; stroke-width:32; stroke-opacity:1; fill:none" points="
  2583.04,2623.62 3735.04,2623.62 
  "/>
<path clip-path="url(#clip2300)" d="M 0 0 M3983.89 2485.38 L4021.3 2485.38 L4021.3 2742.6 Q4021.3 2792.6 4002.23 2815.19 Q3983.34 2837.78 3941.3 2837.78 L3927.04 2837.78 L3927.04 2806.3 L3938.71 2806.3 Q3963.52 2806.3 3973.71 2792.41 Q3983.89 2778.52 3983.89 2742.6 L3983.89 2485.38 Z" fill="#000000" fill-rule="evenodd" fill-opacity="1" /><path clip-path="url(#clip2300)" d="M 0 0 M4068.34 2730.38 L4129.45 2730.38 L4129.45 2519.45 L4062.97 2532.78 L4062.97 2498.71 L4129.08 2485.38 L4166.48 2485.38 L4166.48 2730.38 L4227.59 2730.38 L4227.59 2761.86 L4068.34 2761.86 L4068.34 2730.38 Z" fill="#000000" fill-rule="evenodd" fill-opacity="1" /><path clip-path="url(#clip2300)" d="M 0 0 M4388.33 2589.64 L4625.74 2589.64 L4625.74 2620.75 L4388.33 2620.75 L4388.33 2589.64 M4388.33 2665.19 L4625.74 2665.19 L4625.74 2696.67 L4388.33 2696.67 L4388.33 2665.19 Z" fill="#000000" fill-rule="evenodd" fill-opacity="1" /><path clip-path="url(#clip2300)" d="M 0 0 M4866.85 2510.01 Q4837.96 2510.01 4823.33 2538.52 Q4808.89 2566.86 4808.89 2623.89 Q4808.89 2680.75 4823.33 2709.26 Q4837.96 2737.6 4866.85 2737.6 Q4895.92 2737.6 4910.37 2709.26 Q4925 2680.75 4925 2623.89 Q4925 2566.86 4910.37 2538.52 Q4895.92 2510.01 4866.85 2510.01 M4866.85 2480.38 Q4913.33 2480.38 4937.78 2517.23 Q4962.41 2553.9 4962.41 2623.89 Q4962.41 2693.71 4937.78 2730.56 Q4913.33 2767.23 4866.85 2767.23 Q4820.37 2767.23 4795.74 2730.56 Q4771.3 2693.71 4771.3 2623.89 Q4771.3 2553.9 4795.74 2517.23 Q4820.37 2480.38 4866.85 2480.38 Z" fill="#000000" fill-rule="evenodd" fill-opacity="1" /><path clip-path="url(#clip2300)" d="M 0 0 M5002.96 2714.82 L5042.03 2714.82 L5042.03 2761.86 L5002.96 2761.86 L5002.96 2714.82 Z" fill="#000000" fill-rule="evenodd" fill-opacity="1" /><path clip-path="url(#clip2300)" d="M 0 0 M5114.81 2730.38 L5245.37 2730.38 L5245.37 2761.86 L5069.81 2761.86 L5069.81 2730.38 Q5091.11 2708.34 5127.78 2671.3 Q5164.63 2634.08 5174.07 2623.34 Q5192.03 2603.15 5199.07 2589.27 Q5206.29 2575.19 5206.29 2561.67 Q5206.29 2539.64 5190.74 2525.75 Q5175.37 2511.86 5150.55 2511.86 Q5132.96 2511.86 5113.33 2517.97 Q5093.89 2524.08 5071.66 2536.49 L5071.66 2498.71 Q5094.26 2489.64 5113.89 2485.01 Q5133.52 2480.38 5149.81 2480.38 Q5192.77 2480.38 5218.33 2501.86 Q5243.89 2523.34 5243.89 2559.27 Q5243.89 2576.3 5237.4 2591.67 Q5231.11 2606.86 5214.26 2627.6 Q5209.63 2632.97 5184.81 2658.71 Q5160 2684.26 5114.81 2730.38 Z" fill="#000000" fill-rule="evenodd" fill-opacity="1" /><path clip-path="url(#clip2300)" d="M 0 0 M5286.29 2485.38 L5433.14 2485.38 L5433.14 2516.86 L5320.55 2516.86 L5320.55 2584.64 Q5328.7 2581.86 5336.85 2580.56 Q5345 2579.08 5353.14 2579.08 Q5399.44 2579.08 5426.48 2604.45 Q5453.51 2629.82 5453.51 2673.15 Q5453.51 2717.78 5425.74 2742.6 Q5397.96 2767.23 5347.4 2767.23 Q5330 2767.23 5311.85 2764.26 Q5293.89 2761.3 5274.63 2755.38 L5274.63 2717.78 Q5291.29 2726.86 5309.07 2731.3 Q5326.85 2735.75 5346.66 2735.75 Q5378.7 2735.75 5397.4 2718.89 Q5416.11 2702.04 5416.11 2673.15 Q5416.11 2644.27 5397.4 2627.41 Q5378.7 2610.56 5346.66 2610.56 Q5331.66 2610.56 5316.66 2613.89 Q5301.85 2617.23 5286.29 2624.27 L5286.29 2485.38 Z" fill="#000000" fill-rule="evenodd" fill-opacity="1" /><polyline clip-path="url(#clip2300)" style="stroke:#3da44d; stroke-width:32; stroke-opacity:1; fill:none" points="
  2583.04,3107.46 3735.04,3107.46 
  "/>
<path clip-path="url(#clip2300)" d="M 0 0 M3983.89 2969.22 L4021.3 2969.22 L4021.3 3226.44 Q4021.3 3276.44 4002.23 3299.03 Q3983.34 3321.62 3941.3 3321.62 L3927.04 3321.62 L3927.04 3290.14 L3938.71 3290.14 Q3963.52 3290.14 3973.71 3276.25 Q3983.89 3262.36 3983.89 3226.44 L3983.89 2969.22 Z" fill="#000000" fill-rule="evenodd" fill-opacity="1" /><path clip-path="url(#clip2300)" d="M 0 0 M4068.34 3214.22 L4129.45 3214.22 L4129.45 3003.29 L4062.97 3016.62 L4062.97 2982.55 L4129.08 2969.22 L4166.48 2969.22 L4166.48 3214.22 L4227.59 3214.22 L4227.59 3245.7 L4068.34 3245.7 L4068.34 3214.22 Z" fill="#000000" fill-rule="evenodd" fill-opacity="1" /><path clip-path="url(#clip2300)" d="M 0 0 M4388.33 3073.48 L4625.74 3073.48 L4625.74 3104.59 L4388.33 3104.59 L4388.33 3073.48 M4388.33 3149.03 L4625.74 3149.03 L4625.74 3180.51 L4388.33 3180.51 L4388.33 3149.03 Z" fill="#000000" fill-rule="evenodd" fill-opacity="1" /><path clip-path="url(#clip2300)" d="M 0 0 M4866.85 2993.85 Q4837.96 2993.85 4823.33 3022.36 Q4808.89 3050.7 4808.89 3107.73 Q4808.89 3164.59 4823.33 3193.1 Q4837.96 3221.44 4866.85 3221.44 Q4895.92 3221.44 4910.37 3193.1 Q4925 3164.59 4925 3107.73 Q4925 3050.7 4910.37 3022.36 Q4895.92 2993.85 4866.85 2993.85 M4866.85 2964.22 Q4913.33 2964.22 4937.78 3001.07 Q4962.41 3037.74 4962.41 3107.73 Q4962.41 3177.55 4937.78 3214.4 Q4913.33 3251.07 4866.85 3251.07 Q4820.37 3251.07 4795.74 3214.4 Q4771.3 3177.55 4771.3 3107.73 Q4771.3 3037.74 4795.74 3001.07 Q4820.37 2964.22 4866.85 2964.22 Z" fill="#000000" fill-rule="evenodd" fill-opacity="1" /><path clip-path="url(#clip2300)" d="M 0 0 M5002.96 3198.66 L5042.03 3198.66 L5042.03 3245.7 L5002.96 3245.7 L5002.96 3198.66 Z" fill="#000000" fill-rule="evenodd" fill-opacity="1" /><path clip-path="url(#clip2300)" d="M 0 0 M5082.96 2969.22 L5229.81 2969.22 L5229.81 3000.7 L5117.22 3000.7 L5117.22 3068.48 Q5125.37 3065.7 5133.52 3064.4 Q5141.66 3062.92 5149.81 3062.92 Q5196.11 3062.92 5223.15 3088.29 Q5250.18 3113.66 5250.18 3156.99 Q5250.18 3201.62 5222.4 3226.44 Q5194.63 3251.07 5144.07 3251.07 Q5126.66 3251.07 5108.52 3248.1 Q5090.55 3245.14 5071.29 3239.22 L5071.29 3201.62 Q5087.96 3210.7 5105.74 3215.14 Q5123.52 3219.59 5143.33 3219.59 Q5175.37 3219.59 5194.07 3202.73 Q5212.77 3185.88 5212.77 3156.99 Q5212.77 3128.11 5194.07 3111.25 Q5175.37 3094.4 5143.33 3094.4 Q5128.33 3094.4 5113.33 3097.73 Q5098.52 3101.07 5082.96 3108.11 L5082.96 2969.22 Z" fill="#000000" fill-rule="evenodd" fill-opacity="1" /><polyline clip-path="url(#clip2300)" style="stroke:#c271d2; stroke-width:32; stroke-opacity:1; fill:none" points="
  2583.04,3591.3 3735.04,3591.3 
  "/>
<path clip-path="url(#clip2300)" d="M 0 0 M3927.04 3453.06 L3964.82 3453.06 L4022.97 3686.76 L4080.93 3453.06 L4122.97 3453.06 L4181.11 3686.76 L4239.08 3453.06 L4277.04 3453.06 L4207.59 3729.54 L4160.56 3729.54 L4102.23 3489.54 L4043.34 3729.54 L3996.3 3729.54 L3927.04 3453.06 Z" fill="#000000" fill-rule="evenodd" fill-opacity="1" /><path clip-path="url(#clip2300)" d="M 0 0 M4370.93 3546.02 Q4343.52 3546.02 4327.59 3567.5 Q4311.67 3588.8 4311.67 3626.02 Q4311.67 3663.24 4327.41 3684.72 Q4343.34 3706.02 4370.93 3706.02 Q4398.15 3706.02 4414.08 3684.54 Q4430 3663.06 4430 3626.02 Q4430 3589.17 4414.08 3567.69 Q4398.15 3546.02 4370.93 3546.02 M4370.93 3517.13 Q4415.37 3517.13 4440.74 3546.02 Q4466.11 3574.91 4466.11 3626.02 Q4466.11 3676.94 4440.74 3706.02 Q4415.37 3734.91 4370.93 3734.91 Q4326.3 3734.91 4300.93 3706.02 Q4275.74 3676.94 4275.74 3626.02 Q4275.74 3574.91 4300.93 3546.02 Q4326.3 3517.13 4370.93 3517.13 Z" fill="#000000" fill-rule="evenodd" fill-opacity="1" /><path clip-path="url(#clip2300)" d="M 0 0 M4501.85 3441.39 L4535.93 3441.39 L4535.93 3729.54 L4501.85 3729.54 L4501.85 3441.39 Z" fill="#000000" fill-rule="evenodd" fill-opacity="1" /><path clip-path="url(#clip2300)" d="M 0 0 M4676.67 3441.39 L4676.67 3469.72 L4644.07 3469.72 Q4625.74 3469.72 4618.52 3477.13 Q4611.48 3484.54 4611.48 3503.8 L4611.48 3522.13 L4667.59 3522.13 L4667.59 3548.61 L4611.48 3548.61 L4611.48 3729.54 L4577.22 3729.54 L4577.22 3548.61 L4544.63 3548.61 L4544.63 3522.13 L4577.22 3522.13 L4577.22 3507.69 Q4577.22 3473.06 4593.33 3457.32 Q4609.44 3441.39 4644.44 3441.39 L4676.67 3441.39 Z" fill="#000000" fill-rule="evenodd" fill-opacity="1" /><path clip-path="url(#clip2300)" d="M 0 0 M4817.41 3441.39 L4817.41 3469.72 L4784.81 3469.72 Q4766.48 3469.72 4759.26 3477.13 Q4752.22 3484.54 4752.22 3503.8 L4752.22 3522.13 L4808.33 3522.13 L4808.33 3548.61 L4752.22 3548.61 L4752.22 3729.54 L4717.96 3729.54 L4717.96 3548.61 L4685.37 3548.61 L4685.37 3522.13 L4717.96 3522.13 L4717.96 3507.69 Q4717.96 3473.06 4734.07 3457.32 Q4750.18 3441.39 4785.18 3441.39 L4817.41 3441.39 Z" fill="#000000" fill-rule="evenodd" fill-opacity="1" /><path clip-path="url(#clip2300)" d="M 0 0 M5010.74 3792.5 L5010.74 3818.98 L4813.7 3818.98 L4813.7 3792.5 L5010.74 3792.5 Z" fill="#000000" fill-rule="evenodd" fill-opacity="1" /><path clip-path="url(#clip2300)" d="M 0 0 M5047.96 3453.06 L5085.37 3453.06 L5085.37 3710.28 Q5085.37 3760.28 5066.29 3782.87 Q5047.41 3805.46 5005.37 3805.46 L4991.11 3805.46 L4991.11 3773.98 L5002.78 3773.98 Q5027.59 3773.98 5037.78 3760.09 Q5047.96 3746.2 5047.96 3710.28 L5047.96 3453.06 Z" fill="#000000" fill-rule="evenodd" fill-opacity="1" /><path clip-path="url(#clip2300)" d="M 0 0 M5132.4 3698.06 L5193.52 3698.06 L5193.52 3487.13 L5127.03 3500.46 L5127.03 3466.39 L5193.15 3453.06 L5230.55 3453.06 L5230.55 3698.06 L5291.66 3698.06 L5291.66 3729.54 L5132.4 3729.54 L5132.4 3698.06 Z" fill="#000000" fill-rule="evenodd" fill-opacity="1" /><path clip-path="url(#clip2300)" d="M 0 0 M5452.4 3557.32 L5689.81 3557.32 L5689.81 3588.43 L5452.4 3588.43 L5452.4 3557.32 M5452.4 3632.87 L5689.81 3632.87 L5689.81 3664.35 L5452.4 3664.35 L5452.4 3632.87 Z" fill="#000000" fill-rule="evenodd" fill-opacity="1" /><path clip-path="url(#clip2300)" d="M 0 0 M5930.92 3477.69 Q5902.03 3477.69 5887.4 3506.2 Q5872.96 3534.54 5872.96 3591.57 Q5872.96 3648.43 5887.4 3676.94 Q5902.03 3705.28 5930.92 3705.28 Q5959.99 3705.28 5974.44 3676.94 Q5989.07 3648.43 5989.07 3591.57 Q5989.07 3534.54 5974.44 3506.2 Q5959.99 3477.69 5930.92 3477.69 M5930.92 3448.06 Q5977.4 3448.06 6001.84 3484.91 Q6026.47 3521.58 6026.47 3591.57 Q6026.47 3661.39 6001.84 3698.24 Q5977.4 3734.91 5930.92 3734.91 Q5884.44 3734.91 5859.81 3698.24 Q5835.36 3661.39 5835.36 3591.57 Q5835.36 3521.58 5859.81 3484.91 Q5884.44 3448.06 5930.92 3448.06 Z" fill="#000000" fill-rule="evenodd" fill-opacity="1" /><path clip-path="url(#clip2300)" d="M 0 0 M6067.03 3682.5 L6106.1 3682.5 L6106.1 3729.54 L6067.03 3729.54 L6067.03 3682.5 Z" fill="#000000" fill-rule="evenodd" fill-opacity="1" /><path clip-path="url(#clip2300)" d="M 0 0 M6226.66 3477.69 Q6197.77 3477.69 6183.14 3506.2 Q6168.7 3534.54 6168.7 3591.57 Q6168.7 3648.43 6183.14 3676.94 Q6197.77 3705.28 6226.66 3705.28 Q6255.73 3705.28 6270.18 3676.94 Q6284.81 3648.43 6284.81 3591.57 Q6284.81 3534.54 6270.18 3506.2 Q6255.73 3477.69 6226.66 3477.69 M6226.66 3448.06 Q6273.14 3448.06 6297.58 3484.91 Q6322.21 3521.58 6322.21 3591.57 Q6322.21 3661.39 6297.58 3698.24 Q6273.14 3734.91 6226.66 3734.91 Q6180.18 3734.91 6155.55 3698.24 Q6131.1 3661.39 6131.1 3591.57 Q6131.1 3521.58 6155.55 3484.91 Q6180.18 3448.06 6226.66 3448.06 Z" fill="#000000" fill-rule="evenodd" fill-opacity="1" /><polyline clip-path="url(#clip2300)" style="stroke:#ac8d18; stroke-width:32; stroke-opacity:1; fill:none" points="
  2583.04,4075.14 3735.04,4075.14 
  "/>
<path clip-path="url(#clip2300)" d="M 0 0 M3927.04 3936.9 L3964.82 3936.9 L4022.97 4170.6 L4080.93 3936.9 L4122.97 3936.9 L4181.11 4170.6 L4239.08 3936.9 L4277.04 3936.9 L4207.59 4213.38 L4160.56 4213.38 L4102.23 3973.38 L4043.34 4213.38 L3996.3 4213.38 L3927.04 3936.9 Z" fill="#000000" fill-rule="evenodd" fill-opacity="1" /><path clip-path="url(#clip2300)" d="M 0 0 M4370.93 4029.86 Q4343.52 4029.86 4327.59 4051.34 Q4311.67 4072.64 4311.67 4109.86 Q4311.67 4147.08 4327.41 4168.56 Q4343.34 4189.86 4370.93 4189.86 Q4398.15 4189.86 4414.08 4168.38 Q4430 4146.9 4430 4109.86 Q4430 4073.01 4414.08 4051.53 Q4398.15 4029.86 4370.93 4029.86 M4370.93 4000.97 Q4415.37 4000.97 4440.74 4029.86 Q4466.11 4058.75 4466.11 4109.86 Q4466.11 4160.78 4440.74 4189.86 Q4415.37 4218.75 4370.93 4218.75 Q4326.3 4218.75 4300.93 4189.86 Q4275.74 4160.78 4275.74 4109.86 Q4275.74 4058.75 4300.93 4029.86 Q4326.3 4000.97 4370.93 4000.97 Z" fill="#000000" fill-rule="evenodd" fill-opacity="1" /><path clip-path="url(#clip2300)" d="M 0 0 M4501.85 3925.23 L4535.93 3925.23 L4535.93 4213.38 L4501.85 4213.38 L4501.85 3925.23 Z" fill="#000000" fill-rule="evenodd" fill-opacity="1" /><path clip-path="url(#clip2300)" d="M 0 0 M4676.67 3925.23 L4676.67 3953.56 L4644.07 3953.56 Q4625.74 3953.56 4618.52 3960.97 Q4611.48 3968.38 4611.48 3987.64 L4611.48 4005.97 L4667.59 4005.97 L4667.59 4032.45 L4611.48 4032.45 L4611.48 4213.38 L4577.22 4213.38 L4577.22 4032.45 L4544.63 4032.45 L4544.63 4005.97 L4577.22 4005.97 L4577.22 3991.53 Q4577.22 3956.9 4593.33 3941.16 Q4609.44 3925.23 4644.44 3925.23 L4676.67 3925.23 Z" fill="#000000" fill-rule="evenodd" fill-opacity="1" /><path clip-path="url(#clip2300)" d="M 0 0 M4817.41 3925.23 L4817.41 3953.56 L4784.81 3953.56 Q4766.48 3953.56 4759.26 3960.97 Q4752.22 3968.38 4752.22 3987.64 L4752.22 4005.97 L4808.33 4005.97 L4808.33 4032.45 L4752.22 4032.45 L4752.22 4213.38 L4717.96 4213.38 L4717.96 4032.45 L4685.37 4032.45 L4685.37 4005.97 L4717.96 4005.97 L4717.96 3991.53 Q4717.96 3956.9 4734.07 3941.16 Q4750.18 3925.23 4785.18 3925.23 L4817.41 3925.23 Z" fill="#000000" fill-rule="evenodd" fill-opacity="1" /><path clip-path="url(#clip2300)" d="M 0 0 M5010.74 4276.34 L5010.74 4302.82 L4813.7 4302.82 L4813.7 4276.34 L5010.74 4276.34 Z" fill="#000000" fill-rule="evenodd" fill-opacity="1" /><path clip-path="url(#clip2300)" d="M 0 0 M5047.96 3936.9 L5085.37 3936.9 L5085.37 4194.12 Q5085.37 4244.12 5066.29 4266.71 Q5047.41 4289.3 5005.37 4289.3 L4991.11 4289.3 L4991.11 4257.82 L5002.78 4257.82 Q5027.59 4257.82 5037.78 4243.93 Q5047.96 4230.04 5047.96 4194.12 L5047.96 3936.9 Z" fill="#000000" fill-rule="evenodd" fill-opacity="1" /><path clip-path="url(#clip2300)" d="M 0 0 M5132.4 4181.9 L5193.52 4181.9 L5193.52 3970.97 L5127.03 3984.3 L5127.03 3950.23 L5193.15 3936.9 L5230.55 3936.9 L5230.55 4181.9 L5291.66 4181.9 L5291.66 4213.38 L5132.4 4213.38 L5132.4 4181.9 Z" fill="#000000" fill-rule="evenodd" fill-opacity="1" /><path clip-path="url(#clip2300)" d="M 0 0 M5452.4 4041.16 L5689.81 4041.16 L5689.81 4072.27 L5452.4 4072.27 L5452.4 4041.16 M5452.4 4116.71 L5689.81 4116.71 L5689.81 4148.19 L5452.4 4148.19 L5452.4 4116.71 Z" fill="#000000" fill-rule="evenodd" fill-opacity="1" /><path clip-path="url(#clip2300)" d="M 0 0 M5930.92 3961.53 Q5902.03 3961.53 5887.4 3990.04 Q5872.96 4018.38 5872.96 4075.41 Q5872.96 4132.27 5887.4 4160.78 Q5902.03 4189.12 5930.92 4189.12 Q5959.99 4189.12 5974.44 4160.78 Q5989.07 4132.27 5989.07 4075.41 Q5989.07 4018.38 5974.44 3990.04 Q5959.99 3961.53 5930.92 3961.53 M5930.92 3931.9 Q5977.4 3931.9 6001.84 3968.75 Q6026.47 4005.42 6026.47 4075.41 Q6026.47 4145.23 6001.84 4182.08 Q5977.4 4218.75 5930.92 4218.75 Q5884.44 4218.75 5859.81 4182.08 Q5835.36 4145.23 5835.36 4075.41 Q5835.36 4005.42 5859.81 3968.75 Q5884.44 3931.9 5930.92 3931.9 Z" fill="#000000" fill-rule="evenodd" fill-opacity="1" /><path clip-path="url(#clip2300)" d="M 0 0 M6067.03 4166.34 L6106.1 4166.34 L6106.1 4213.38 L6067.03 4213.38 L6067.03 4166.34 Z" fill="#000000" fill-rule="evenodd" fill-opacity="1" /><path clip-path="url(#clip2300)" d="M 0 0 M6178.88 4181.9 L6309.44 4181.9 L6309.44 4213.38 L6133.88 4213.38 L6133.88 4181.9 Q6155.18 4159.86 6191.84 4122.82 Q6228.7 4085.6 6238.14 4074.86 Q6256.1 4054.67 6263.14 4040.79 Q6270.36 4026.71 6270.36 4013.19 Q6270.36 3991.16 6254.81 3977.27 Q6239.44 3963.38 6214.62 3963.38 Q6197.03 3963.38 6177.4 3969.49 Q6157.95 3975.6 6135.73 3988.01 L6135.73 3950.23 Q6158.33 3941.16 6177.95 3936.53 Q6197.58 3931.9 6213.88 3931.9 Q6256.84 3931.9 6282.4 3953.38 Q6307.95 3974.86 6307.95 4010.79 Q6307.95 4027.82 6301.47 4043.19 Q6295.18 4058.38 6278.32 4079.12 Q6273.7 4084.49 6248.88 4110.23 Q6224.07 4135.78 6178.88 4181.9 Z" fill="#000000" fill-rule="evenodd" fill-opacity="1" /><path clip-path="url(#clip2300)" d="M 0 0 M6350.36 3936.9 L6497.21 3936.9 L6497.21 3968.38 L6384.62 3968.38 L6384.62 4036.16 Q6392.77 4033.38 6400.92 4032.08 Q6409.06 4030.6 6417.21 4030.6 Q6463.51 4030.6 6490.55 4055.97 Q6517.58 4081.34 6517.58 4124.67 Q6517.58 4169.3 6489.8 4194.12 Q6462.03 4218.75 6411.47 4218.75 Q6394.06 4218.75 6375.92 4215.78 Q6357.95 4212.82 6338.69 4206.9 L6338.69 4169.3 Q6355.36 4178.38 6373.14 4182.82 Q6390.92 4187.27 6410.73 4187.27 Q6442.77 4187.27 6461.47 4170.41 Q6480.18 4153.56 6480.18 4124.67 Q6480.18 4095.79 6461.47 4078.93 Q6442.77 4062.08 6410.73 4062.08 Q6395.73 4062.08 6380.73 4065.41 Q6365.92 4068.75 6350.36 4075.79 L6350.36 3936.9 Z" fill="#000000" fill-rule="evenodd" fill-opacity="1" /><polyline clip-path="url(#clip2300)" style="stroke:#00a9ad; stroke-width:32; stroke-opacity:1; fill:none" points="
  2583.04,4558.98 3735.04,4558.98 
  "/>
<path clip-path="url(#clip2300)" d="M 0 0 M3927.04 4420.74 L3964.82 4420.74 L4022.97 4654.44 L4080.93 4420.74 L4122.97 4420.74 L4181.11 4654.44 L4239.08 4420.74 L4277.04 4420.74 L4207.59 4697.22 L4160.56 4697.22 L4102.23 4457.22 L4043.34 4697.22 L3996.3 4697.22 L3927.04 4420.74 Z" fill="#000000" fill-rule="evenodd" fill-opacity="1" /><path clip-path="url(#clip2300)" d="M 0 0 M4370.93 4513.7 Q4343.52 4513.7 4327.59 4535.18 Q4311.67 4556.48 4311.67 4593.7 Q4311.67 4630.92 4327.41 4652.4 Q4343.34 4673.7 4370.93 4673.7 Q4398.15 4673.7 4414.08 4652.22 Q4430 4630.74 4430 4593.7 Q4430 4556.85 4414.08 4535.37 Q4398.15 4513.7 4370.93 4513.7 M4370.93 4484.81 Q4415.37 4484.81 4440.74 4513.7 Q4466.11 4542.59 4466.11 4593.7 Q4466.11 4644.62 4440.74 4673.7 Q4415.37 4702.59 4370.93 4702.59 Q4326.3 4702.59 4300.93 4673.7 Q4275.74 4644.62 4275.74 4593.7 Q4275.74 4542.59 4300.93 4513.7 Q4326.3 4484.81 4370.93 4484.81 Z" fill="#000000" fill-rule="evenodd" fill-opacity="1" /><path clip-path="url(#clip2300)" d="M 0 0 M4501.85 4409.07 L4535.93 4409.07 L4535.93 4697.22 L4501.85 4697.22 L4501.85 4409.07 Z" fill="#000000" fill-rule="evenodd" fill-opacity="1" /><path clip-path="url(#clip2300)" d="M 0 0 M4676.67 4409.07 L4676.67 4437.4 L4644.07 4437.4 Q4625.74 4437.4 4618.52 4444.81 Q4611.48 4452.22 4611.48 4471.48 L4611.48 4489.81 L4667.59 4489.81 L4667.59 4516.29 L4611.48 4516.29 L4611.48 4697.22 L4577.22 4697.22 L4577.22 4516.29 L4544.63 4516.29 L4544.63 4489.81 L4577.22 4489.81 L4577.22 4475.37 Q4577.22 4440.74 4593.33 4425 Q4609.44 4409.07 4644.44 4409.07 L4676.67 4409.07 Z" fill="#000000" fill-rule="evenodd" fill-opacity="1" /><path clip-path="url(#clip2300)" d="M 0 0 M4817.41 4409.07 L4817.41 4437.4 L4784.81 4437.4 Q4766.48 4437.4 4759.26 4444.81 Q4752.22 4452.22 4752.22 4471.48 L4752.22 4489.81 L4808.33 4489.81 L4808.33 4516.29 L4752.22 4516.29 L4752.22 4697.22 L4717.96 4697.22 L4717.96 4516.29 L4685.37 4516.29 L4685.37 4489.81 L4717.96 4489.81 L4717.96 4475.37 Q4717.96 4440.74 4734.07 4425 Q4750.18 4409.07 4785.18 4409.07 L4817.41 4409.07 Z" fill="#000000" fill-rule="evenodd" fill-opacity="1" /><path clip-path="url(#clip2300)" d="M 0 0 M5010.74 4760.18 L5010.74 4786.66 L4813.7 4786.66 L4813.7 4760.18 L5010.74 4760.18 Z" fill="#000000" fill-rule="evenodd" fill-opacity="1" /><path clip-path="url(#clip2300)" d="M 0 0 M5047.96 4420.74 L5085.37 4420.74 L5085.37 4677.96 Q5085.37 4727.96 5066.29 4750.55 Q5047.41 4773.14 5005.37 4773.14 L4991.11 4773.14 L4991.11 4741.66 L5002.78 4741.66 Q5027.59 4741.66 5037.78 4727.77 Q5047.96 4713.88 5047.96 4677.96 L5047.96 4420.74 Z" fill="#000000" fill-rule="evenodd" fill-opacity="1" /><path clip-path="url(#clip2300)" d="M 0 0 M5132.4 4665.74 L5193.52 4665.74 L5193.52 4454.81 L5127.03 4468.14 L5127.03 4434.07 L5193.15 4420.74 L5230.55 4420.74 L5230.55 4665.74 L5291.66 4665.74 L5291.66 4697.22 L5132.4 4697.22 L5132.4 4665.74 Z" fill="#000000" fill-rule="evenodd" fill-opacity="1" /><path clip-path="url(#clip2300)" d="M 0 0 M5452.4 4525 L5689.81 4525 L5689.81 4556.11 L5452.4 4556.11 L5452.4 4525 M5452.4 4600.55 L5689.81 4600.55 L5689.81 4632.03 L5452.4 4632.03 L5452.4 4600.55 Z" fill="#000000" fill-rule="evenodd" fill-opacity="1" /><path clip-path="url(#clip2300)" d="M 0 0 M5930.92 4445.37 Q5902.03 4445.37 5887.4 4473.88 Q5872.96 4502.22 5872.96 4559.25 Q5872.96 4616.11 5887.4 4644.62 Q5902.03 4672.96 5930.92 4672.96 Q5959.99 4672.96 5974.44 4644.62 Q5989.07 4616.11 5989.07 4559.25 Q5989.07 4502.22 5974.44 4473.88 Q5959.99 4445.37 5930.92 4445.37 M5930.92 4415.74 Q5977.4 4415.74 6001.84 4452.59 Q6026.47 4489.26 6026.47 4559.25 Q6026.47 4629.07 6001.84 4665.92 Q5977.4 4702.59 5930.92 4702.59 Q5884.44 4702.59 5859.81 4665.92 Q5835.36 4629.07 5835.36 4559.25 Q5835.36 4489.26 5859.81 4452.59 Q5884.44 4415.74 5930.92 4415.74 Z" fill="#000000" fill-rule="evenodd" fill-opacity="1" /><path clip-path="url(#clip2300)" d="M 0 0 M6067.03 4650.18 L6106.1 4650.18 L6106.1 4697.22 L6067.03 4697.22 L6067.03 4650.18 Z" fill="#000000" fill-rule="evenodd" fill-opacity="1" /><path clip-path="url(#clip2300)" d="M 0 0 M6147.03 4420.74 L6293.88 4420.74 L6293.88 4452.22 L6181.29 4452.22 L6181.29 4520 Q6189.44 4517.22 6197.58 4515.92 Q6205.73 4514.44 6213.88 4514.44 Q6260.18 4514.44 6287.21 4539.81 Q6314.25 4565.18 6314.25 4608.51 Q6314.25 4653.14 6286.47 4677.96 Q6258.7 4702.59 6208.14 4702.59 Q6190.73 4702.59 6172.58 4699.62 Q6154.62 4696.66 6135.36 4690.74 L6135.36 4653.14 Q6152.03 4662.22 6169.81 4666.66 Q6187.58 4671.11 6207.4 4671.11 Q6239.44 4671.11 6258.14 4654.25 Q6276.84 4637.4 6276.84 4608.51 Q6276.84 4579.63 6258.14 4562.77 Q6239.44 4545.92 6207.4 4545.92 Q6192.4 4545.92 6177.4 4549.25 Q6162.58 4552.59 6147.03 4559.63 L6147.03 4420.74 Z" fill="#000000" fill-rule="evenodd" fill-opacity="1" /></svg>
