<?xml version="1.0" encoding="utf-8"?>
<svg xmlns="http://www.w3.org/2000/svg" xmlns:xlink="http://www.w3.org/1999/xlink" width="4800" height="3200" viewBox="0 0 19200 12800">
<defs>
  <clipPath id="clip5000">
    <rect x="0" y="0" width="19200" height="12800"/>
  </clipPath>
</defs>
<path clip-path="url(#clip5000)" d="
M0 12800 L19200 12800 L19200 0 L0 0  Z
  " fill="#ffffff" fill-rule="evenodd" fill-opacity="1"/>
<defs>
  <clipPath id="clip5001">
    <rect x="3840" y="0" width="13441" height="12800"/>
  </clipPath>
</defs>
<path clip-path="url(#clip5000)" d="
M1908.93 11385.4 L18822 11385.4 L18822 987.777 L1908.93 987.777  Z
  " fill="#ffffff" fill-rule="evenodd" fill-opacity="1"/>
<defs>
  <clipPath id="clip5002">
    <rect x="1908" y="987" width="16914" height="10399"/>
  </clipPath>
</defs>
<polyline clip-path="url(#clip5002)" style="stroke:#000000; stroke-width:16; stroke-opacity:0.1; fill:none" points="
  2387.6,11385.4 2387.6,987.777 
  "/>
<polyline clip-path="url(#clip5002)" style="stroke:#000000; stroke-width:16; stroke-opacity:0.1; fill:none" points="
  6013.91,11385.4 6013.91,987.777 
  "/>
<polyline clip-path="url(#clip5002)" style="stroke:#000000; stroke-width:16; stroke-opacity:0.1; fill:none" points="
  9640.23,11385.4 9640.23,987.777 
  "/>
<polyline clip-path="url(#clip5002)" style="stroke:#000000; stroke-width:16; stroke-opacity:0.1; fill:none" points="
  13266.5,11385.4 13266.5,987.777 
  "/>
<polyline clip-path="url(#clip5002)" style="stroke:#000000; stroke-width:16; stroke-opacity:0.1; fill:none" points="
  16892.8,11385.4 16892.8,987.777 
  "/>
<polyline clip-path="url(#clip5002)" style="stroke:#000000; stroke-width:16; stroke-opacity:0.1; fill:none" points="
  1908.93,10136.3 18822,10136.3 
  "/>
<polyline clip-path="url(#clip5002)" style="stroke:#000000; stroke-width:16; stroke-opacity:0.1; fill:none" points="
  1908.93,8734.63 18822,8734.63 
  "/>
<polyline clip-path="url(#clip5002)" style="stroke:#000000; stroke-width:16; stroke-opacity:0.1; fill:none" points="
  1908.93,7332.93 18822,7332.93 
  "/>
<polyline clip-path="url(#clip5002)" style="stroke:#000000; stroke-width:16; stroke-opacity:0.1; fill:none" points="
  1908.93,5931.23 18822,5931.23 
  "/>
<polyline clip-path="url(#clip5002)" style="stroke:#000000; stroke-width:16; stroke-opacity:0.1; fill:none" points="
  1908.93,4529.54 18822,4529.54 
  "/>
<polyline clip-path="url(#clip5002)" style="stroke:#000000; stroke-width:16; stroke-opacity:0.1; fill:none" points="
  1908.93,3127.84 18822,3127.84 
  "/>
<polyline clip-path="url(#clip5002)" style="stroke:#000000; stroke-width:16; stroke-opacity:0.1; fill:none" points="
  1908.93,1726.14 18822,1726.14 
  "/>
<polyline clip-path="url(#clip5000)" style="stroke:#000000; stroke-width:32; stroke-opacity:1; fill:none" points="
  1908.93,11385.4 18822,11385.4 
  "/>
<polyline clip-path="url(#clip5000)" style="stroke:#000000; stroke-width:32; stroke-opacity:1; fill:none" points="
  1908.93,11385.4 1908.93,987.777 
  "/>
<polyline clip-path="url(#clip5000)" style="stroke:#000000; stroke-width:32; stroke-opacity:1; fill:none" points="
  2387.6,11385.4 2387.6,11260.7 
  "/>
<polyline clip-path="url(#clip5000)" style="stroke:#000000; stroke-width:32; stroke-opacity:1; fill:none" points="
  6013.91,11385.4 6013.91,11260.7 
  "/>
<polyline clip-path="url(#clip5000)" style="stroke:#000000; stroke-width:32; stroke-opacity:1; fill:none" points="
  9640.23,11385.4 9640.23,11260.7 
  "/>
<polyline clip-path="url(#clip5000)" style="stroke:#000000; stroke-width:32; stroke-opacity:1; fill:none" points="
  13266.5,11385.4 13266.5,11260.7 
  "/>
<polyline clip-path="url(#clip5000)" style="stroke:#000000; stroke-width:32; stroke-opacity:1; fill:none" points="
  16892.8,11385.4 16892.8,11260.7 
  "/>
<polyline clip-path="url(#clip5000)" style="stroke:#000000; stroke-width:32; stroke-opacity:1; fill:none" points="
  1908.93,10136.3 2111.89,10136.3 
  "/>
<polyline clip-path="url(#clip5000)" style="stroke:#000000; stroke-width:32; stroke-opacity:1; fill:none" points="
  1908.93,8734.63 2111.89,8734.63 
  "/>
<polyline clip-path="url(#clip5000)" style="stroke:#000000; stroke-width:32; stroke-opacity:1; fill:none" points="
  1908.93,7332.93 2111.89,7332.93 
  "/>
<polyline clip-path="url(#clip5000)" style="stroke:#000000; stroke-width:32; stroke-opacity:1; fill:none" points="
  1908.93,5931.23 2111.89,5931.23 
  "/>
<polyline clip-path="url(#clip5000)" style="stroke:#000000; stroke-width:32; stroke-opacity:1; fill:none" points="
  1908.93,4529.54 2111.89,4529.54 
  "/>
<polyline clip-path="url(#clip5000)" style="stroke:#000000; stroke-width:32; stroke-opacity:1; fill:none" points="
  1908.93,3127.84 2111.89,3127.84 
  "/>
<polyline clip-path="url(#clip5000)" style="stroke:#000000; stroke-width:32; stroke-opacity:1; fill:none" points="
  1908.93,1726.14 2111.89,1726.14 
  "/>
<path clip-path="url(#clip5000)" d="M 0 0 M2135.01 11561.4 Q2106.12 11561.4 2091.49 11589.9 Q2077.05 11618.2 2077.05 11675.3 Q2077.05 11732.1 2091.49 11760.6 Q2106.12 11789 2135.01 11789 Q2164.09 11789 2178.53 11760.6 Q2193.16 11732.1 2193.16 11675.3 Q2193.16 11618.2 2178.53 11589.9 Q2164.09 11561.4 2135.01 11561.4 M2135.01 11531.7 Q2181.49 11531.7 2205.94 11568.6 Q2230.57 11605.3 2230.57 11675.3 Q2230.57 11745.1 2205.94 11781.9 Q2181.49 11818.6 2135.01 11818.6 Q2088.53 11818.6 2063.9 11781.9 Q2039.46 11745.1 2039.46 11675.3 Q2039.46 11605.3 2063.9 11568.6 Q2088.53 11531.7 2135.01 11531.7 Z" fill="#000000" fill-rule="evenodd" fill-opacity="1" /><path clip-path="url(#clip5000)" d="M 0 0 M2271.12 11766.2 L2310.2 11766.2 L2310.2 11813.2 L2271.12 11813.2 L2271.12 11766.2 Z" fill="#000000" fill-rule="evenodd" fill-opacity="1" /><path clip-path="url(#clip5000)" d="M 0 0 M2351.12 11536.7 L2497.97 11536.7 L2497.97 11568.2 L2385.38 11568.2 L2385.38 11636 Q2393.53 11633.2 2401.68 11631.9 Q2409.82 11630.4 2417.97 11630.4 Q2464.27 11630.4 2491.31 11655.8 Q2518.34 11681.2 2518.34 11724.5 Q2518.34 11769.1 2490.56 11794 Q2462.79 11818.6 2412.23 11818.6 Q2394.82 11818.6 2376.68 11815.6 Q2358.71 11812.7 2339.45 11806.7 L2339.45 11769.1 Q2356.12 11778.2 2373.9 11782.7 Q2391.68 11787.1 2411.49 11787.1 Q2443.53 11787.1 2462.23 11770.3 Q2480.94 11753.4 2480.94 11724.5 Q2480.94 11695.6 2462.23 11678.8 Q2443.53 11661.9 2411.49 11661.9 Q2396.49 11661.9 2381.49 11665.3 Q2366.68 11668.6 2351.12 11675.6 L2351.12 11536.7 Z" fill="#000000" fill-rule="evenodd" fill-opacity="1" /><path clip-path="url(#clip5000)" d="M 0 0 M2643.53 11660.1 Q2618.34 11660.1 2603.53 11677.3 Q2588.9 11694.5 2588.9 11724.5 Q2588.9 11754.3 2603.53 11771.7 Q2618.34 11789 2643.53 11789 Q2668.71 11789 2683.34 11771.7 Q2698.16 11754.3 2698.16 11724.5 Q2698.16 11694.5 2683.34 11677.3 Q2668.71 11660.1 2643.53 11660.1 M2717.79 11542.8 L2717.79 11576.9 Q2703.71 11570.3 2689.27 11566.7 Q2675.01 11563.2 2660.93 11563.2 Q2623.9 11563.2 2604.27 11588.2 Q2584.82 11613.2 2582.05 11663.8 Q2592.97 11647.7 2609.45 11639.1 Q2625.93 11630.4 2645.75 11630.4 Q2687.42 11630.4 2711.49 11655.8 Q2735.75 11681 2735.75 11724.5 Q2735.75 11767.1 2710.56 11792.8 Q2685.38 11818.6 2643.53 11818.6 Q2595.56 11818.6 2570.19 11781.9 Q2544.82 11745.1 2544.82 11675.3 Q2544.82 11609.7 2575.93 11570.8 Q2607.05 11531.7 2659.45 11531.7 Q2673.53 11531.7 2687.79 11534.5 Q2702.23 11537.3 2717.79 11542.8 Z" fill="#000000" fill-rule="evenodd" fill-opacity="1" /><path clip-path="url(#clip5000)" d="M 0 0 M5762.34 11561.4 Q5733.45 11561.4 5718.82 11589.9 Q5704.38 11618.2 5704.38 11675.3 Q5704.38 11732.1 5718.82 11760.6 Q5733.45 11789 5762.34 11789 Q5791.42 11789 5805.86 11760.6 Q5820.49 11732.1 5820.49 11675.3 Q5820.49 11618.2 5805.86 11589.9 Q5791.42 11561.4 5762.34 11561.4 M5762.34 11531.7 Q5808.82 11531.7 5833.27 11568.6 Q5857.9 11605.3 5857.9 11675.3 Q5857.9 11745.1 5833.27 11781.9 Q5808.82 11818.6 5762.34 11818.6 Q5715.86 11818.6 5691.23 11781.9 Q5666.79 11745.1 5666.79 11675.3 Q5666.79 11605.3 5691.23 11568.6 Q5715.86 11531.7 5762.34 11531.7 Z" fill="#000000" fill-rule="evenodd" fill-opacity="1" /><path clip-path="url(#clip5000)" d="M 0 0 M5898.45 11766.2 L5937.53 11766.2 L5937.53 11813.2 L5898.45 11813.2 L5898.45 11766.2 Z" fill="#000000" fill-rule="evenodd" fill-opacity="1" /><path clip-path="url(#clip5000)" d="M 0 0 M5978.45 11536.7 L6125.3 11536.7 L6125.3 11568.2 L6012.71 11568.2 L6012.71 11636 Q6020.86 11633.2 6029.01 11631.9 Q6037.15 11630.4 6045.3 11630.4 Q6091.6 11630.4 6118.64 11655.8 Q6145.67 11681.2 6145.67 11724.5 Q6145.67 11769.1 6117.9 11794 Q6090.12 11818.6 6039.56 11818.6 Q6022.15 11818.6 6004.01 11815.6 Q5986.04 11812.7 5966.78 11806.7 L5966.78 11769.1 Q5983.45 11778.2 6001.23 11782.7 Q6019.01 11787.1 6038.82 11787.1 Q6070.86 11787.1 6089.56 11770.3 Q6108.27 11753.4 6108.27 11724.5 Q6108.27 11695.6 6089.56 11678.8 Q6070.86 11661.9 6038.82 11661.9 Q6023.82 11661.9 6008.82 11665.3 Q5994.01 11668.6 5978.45 11675.6 L5978.45 11536.7 Z" fill="#000000" fill-rule="evenodd" fill-opacity="1" /><path clip-path="url(#clip5000)" d="M 0 0 M6266.23 11681.9 Q6239.56 11681.9 6224.19 11696.2 Q6209.01 11710.4 6209.01 11735.4 Q6209.01 11760.4 6224.19 11774.7 Q6239.56 11789 6266.23 11789 Q6292.89 11789 6308.26 11774.7 Q6323.63 11760.3 6323.63 11735.4 Q6323.63 11710.4 6308.26 11696.2 Q6293.08 11681.9 6266.23 11681.9 M6228.82 11666 Q6204.75 11660.1 6191.23 11643.6 Q6177.89 11627.1 6177.89 11603.4 Q6177.89 11570.3 6201.41 11551 Q6225.12 11531.7 6266.23 11531.7 Q6307.52 11531.7 6331.04 11551 Q6354.56 11570.3 6354.56 11603.4 Q6354.56 11627.1 6341.04 11643.6 Q6327.71 11660.1 6303.82 11666 Q6330.86 11672.3 6345.86 11690.6 Q6361.04 11709 6361.04 11735.4 Q6361.04 11775.6 6336.41 11797.1 Q6311.97 11818.6 6266.23 11818.6 Q6220.49 11818.6 6195.86 11797.1 Q6171.41 11775.6 6171.41 11735.4 Q6171.41 11709 6186.6 11690.6 Q6201.78 11672.3 6228.82 11666 M6215.12 11606.9 Q6215.12 11628.4 6228.45 11640.4 Q6241.97 11652.5 6266.23 11652.5 Q6290.3 11652.5 6303.82 11640.4 Q6317.52 11628.4 6317.52 11606.9 Q6317.52 11585.4 6303.82 11573.4 Q6290.3 11561.4 6266.23 11561.4 Q6241.97 11561.4 6228.45 11573.4 Q6215.12 11585.4 6215.12 11606.9 Z" fill="#000000" fill-rule="evenodd" fill-opacity="1" /><path clip-path="url(#clip5000)" d="M 0 0 M9383.65 11561.4 Q9354.76 11561.4 9340.13 11589.9 Q9325.69 11618.2 9325.69 11675.3 Q9325.69 11732.1 9340.13 11760.6 Q9354.76 11789 9383.65 11789 Q9412.73 11789 9427.17 11760.6 Q9441.8 11732.1 9441.8 11675.3 Q9441.8 11618.2 9427.17 11589.9 Q9412.73 11561.4 9383.65 11561.4 M9383.65 11531.7 Q9430.13 11531.7 9454.58 11568.6 Q9479.21 11605.3 9479.21 11675.3 Q9479.21 11745.1 9454.58 11781.9 Q9430.13 11818.6 9383.65 11818.6 Q9337.17 11818.6 9312.54 11781.9 Q9288.1 11745.1 9288.1 11675.3 Q9288.1 11605.3 9312.54 11568.6 Q9337.17 11531.7 9383.65 11531.7 Z" fill="#000000" fill-rule="evenodd" fill-opacity="1" /><path clip-path="url(#clip5000)" d="M 0 0 M9519.76 11766.2 L9558.84 11766.2 L9558.84 11813.2 L9519.76 11813.2 L9519.76 11766.2 Z" fill="#000000" fill-rule="evenodd" fill-opacity="1" /><path clip-path="url(#clip5000)" d="M 0 0 M9684.02 11660.1 Q9658.84 11660.1 9644.02 11677.3 Q9629.39 11694.5 9629.39 11724.5 Q9629.39 11754.3 9644.02 11771.7 Q9658.84 11789 9684.02 11789 Q9709.21 11789 9723.84 11771.7 Q9738.65 11754.3 9738.65 11724.5 Q9738.65 11694.5 9723.84 11677.3 Q9709.21 11660.1 9684.02 11660.1 M9758.28 11542.8 L9758.28 11576.9 Q9744.21 11570.3 9729.76 11566.7 Q9715.5 11563.2 9701.43 11563.2 Q9664.39 11563.2 9644.76 11588.2 Q9625.32 11613.2 9622.54 11663.8 Q9633.47 11647.7 9649.95 11639.1 Q9666.43 11630.4 9686.24 11630.4 Q9727.91 11630.4 9751.98 11655.8 Q9776.24 11681 9776.24 11724.5 Q9776.24 11767.1 9751.06 11792.8 Q9725.87 11818.6 9684.02 11818.6 Q9636.06 11818.6 9610.69 11781.9 Q9585.32 11745.1 9585.32 11675.3 Q9585.32 11609.7 9616.43 11570.8 Q9647.54 11531.7 9699.95 11531.7 Q9714.02 11531.7 9728.28 11534.5 Q9742.73 11537.3 9758.28 11542.8 Z" fill="#000000" fill-rule="evenodd" fill-opacity="1" /><path clip-path="url(#clip5000)" d="M 0 0 M9896.8 11561.4 Q9867.91 11561.4 9853.28 11589.9 Q9838.84 11618.2 9838.84 11675.3 Q9838.84 11732.1 9853.28 11760.6 Q9867.91 11789 9896.8 11789 Q9925.87 11789 9940.32 11760.6 Q9954.95 11732.1 9954.95 11675.3 Q9954.95 11618.2 9940.32 11589.9 Q9925.87 11561.4 9896.8 11561.4 M9896.8 11531.7 Q9943.28 11531.7 9967.72 11568.6 Q9992.35 11605.3 9992.35 11675.3 Q9992.35 11745.1 9967.72 11781.9 Q9943.28 11818.6 9896.8 11818.6 Q9850.32 11818.6 9825.69 11781.9 Q9801.24 11745.1 9801.24 11675.3 Q9801.24 11605.3 9825.69 11568.6 Q9850.32 11531.7 9896.8 11531.7 Z" fill="#000000" fill-rule="evenodd" fill-opacity="1" /><path clip-path="url(#clip5000)" d="M 0 0 M13016.4 11561.4 Q12987.5 11561.4 12972.8 11589.9 Q12958.4 11618.2 12958.4 11675.3 Q12958.4 11732.1 12972.8 11760.6 Q12987.5 11789 13016.4 11789 Q13045.4 11789 13059.9 11760.6 Q13074.5 11732.1 13074.5 11675.3 Q13074.5 11618.2 13059.9 11589.9 Q13045.4 11561.4 13016.4 11561.4 M13016.4 11531.7 Q13062.8 11531.7 13087.3 11568.6 Q13111.9 11605.3 13111.9 11675.3 Q13111.9 11745.1 13087.3 11781.9 Q13062.8 11818.6 13016.4 11818.6 Q12969.9 11818.6 12945.2 11781.9 Q12920.8 11745.1 12920.8 11675.3 Q12920.8 11605.3 12945.2 11568.6 Q12969.9 11531.7 13016.4 11531.7 Z" fill="#000000" fill-rule="evenodd" fill-opacity="1" /><path clip-path="url(#clip5000)" d="M 0 0 M13152.5 11766.2 L13191.5 11766.2 L13191.5 11813.2 L13152.5 11813.2 L13152.5 11766.2 Z" fill="#000000" fill-rule="evenodd" fill-opacity="1" /><path clip-path="url(#clip5000)" d="M 0 0 M13316.7 11660.1 Q13291.5 11660.1 13276.7 11677.3 Q13262.1 11694.5 13262.1 11724.5 Q13262.1 11754.3 13276.7 11771.7 Q13291.5 11789 13316.7 11789 Q13341.9 11789 13356.5 11771.7 Q13371.4 11754.3 13371.4 11724.5 Q13371.4 11694.5 13356.5 11677.3 Q13341.9 11660.1 13316.7 11660.1 M13391 11542.8 L13391 11576.9 Q13376.9 11570.3 13362.5 11566.7 Q13348.2 11563.2 13334.1 11563.2 Q13297.1 11563.2 13277.5 11588.2 Q13258 11613.2 13255.2 11663.8 Q13266.2 11647.7 13282.6 11639.1 Q13299.1 11630.4 13318.9 11630.4 Q13360.6 11630.4 13384.7 11655.8 Q13408.9 11681 13408.9 11724.5 Q13408.9 11767.1 13383.8 11792.8 Q13358.6 11818.6 13316.7 11818.6 Q13268.8 11818.6 13243.4 11781.9 Q13218 11745.1 13218 11675.3 Q13218 11609.7 13249.1 11570.8 Q13280.2 11531.7 13332.6 11531.7 Q13346.7 11531.7 13361 11534.5 Q13375.4 11537.3 13391 11542.8 Z" fill="#000000" fill-rule="evenodd" fill-opacity="1" /><path clip-path="url(#clip5000)" d="M 0 0 M13481.7 11781.7 L13612.3 11781.7 L13612.3 11813.2 L13436.7 11813.2 L13436.7 11781.7 Q13458 11759.7 13494.7 11722.7 Q13531.5 11685.4 13541 11674.7 Q13558.9 11654.5 13566 11640.6 Q13573.2 11626.5 13573.2 11613 Q13573.2 11591 13557.6 11577.1 Q13542.3 11563.2 13517.5 11563.2 Q13499.9 11563.2 13480.2 11569.3 Q13460.8 11575.4 13438.6 11587.8 L13438.6 11550.1 Q13461.2 11541 13480.8 11536.4 Q13500.4 11531.7 13516.7 11531.7 Q13559.7 11531.7 13585.2 11553.2 Q13610.8 11574.7 13610.8 11610.6 Q13610.8 11627.7 13604.3 11643 Q13598 11658.2 13581.2 11679 Q13576.5 11684.3 13551.7 11710.1 Q13526.9 11735.6 13481.7 11781.7 Z" fill="#000000" fill-rule="evenodd" fill-opacity="1" /><path clip-path="url(#clip5000)" d="M 0 0 M16634.3 11561.4 Q16605.4 11561.4 16590.8 11589.9 Q16576.4 11618.2 16576.4 11675.3 Q16576.4 11732.1 16590.8 11760.6 Q16605.4 11789 16634.3 11789 Q16663.4 11789 16677.9 11760.6 Q16692.5 11732.1 16692.5 11675.3 Q16692.5 11618.2 16677.9 11589.9 Q16663.4 11561.4 16634.3 11561.4 M16634.3 11531.7 Q16680.8 11531.7 16705.3 11568.6 Q16729.9 11605.3 16729.9 11675.3 Q16729.9 11745.1 16705.3 11781.9 Q16680.8 11818.6 16634.3 11818.6 Q16587.9 11818.6 16563.2 11781.9 Q16538.8 11745.1 16538.8 11675.3 Q16538.8 11605.3 16563.2 11568.6 Q16587.9 11531.7 16634.3 11531.7 Z" fill="#000000" fill-rule="evenodd" fill-opacity="1" /><path clip-path="url(#clip5000)" d="M 0 0 M16770.4 11766.2 L16809.5 11766.2 L16809.5 11813.2 L16770.4 11813.2 L16770.4 11766.2 Z" fill="#000000" fill-rule="evenodd" fill-opacity="1" /><path clip-path="url(#clip5000)" d="M 0 0 M16934.7 11660.1 Q16909.5 11660.1 16894.7 11677.3 Q16880.1 11694.5 16880.1 11724.5 Q16880.1 11754.3 16894.7 11771.7 Q16909.5 11789 16934.7 11789 Q16959.9 11789 16974.5 11771.7 Q16989.3 11754.3 16989.3 11724.5 Q16989.3 11694.5 16974.5 11677.3 Q16959.9 11660.1 16934.7 11660.1 M17009 11542.8 L17009 11576.9 Q16994.9 11570.3 16980.4 11566.7 Q16966.2 11563.2 16952.1 11563.2 Q16915.1 11563.2 16895.4 11588.2 Q16876 11613.2 16873.2 11663.8 Q16884.1 11647.7 16900.6 11639.1 Q16917.1 11630.4 16936.9 11630.4 Q16978.6 11630.4 17002.7 11655.8 Q17026.9 11681 17026.9 11724.5 Q17026.9 11767.1 17001.7 11792.8 Q16976.6 11818.6 16934.7 11818.6 Q16886.7 11818.6 16861.4 11781.9 Q16836 11745.1 16836 11675.3 Q16836 11609.7 16867.1 11570.8 Q16898.2 11531.7 16950.6 11531.7 Q16964.7 11531.7 16979 11534.5 Q16993.4 11537.3 17009 11542.8 Z" fill="#000000" fill-rule="evenodd" fill-opacity="1" /><path clip-path="url(#clip5000)" d="M 0 0 M17170.3 11569.3 L17075.8 11716.9 L17170.3 11716.9 L17170.3 11569.3 M17160.4 11536.7 L17207.5 11536.7 L17207.5 11716.9 L17246.9 11716.9 L17246.9 11748 L17207.5 11748 L17207.5 11813.2 L17170.3 11813.2 L17170.3 11748 L17045.4 11748 L17045.4 11711.9 L17160.4 11536.7 Z" fill="#000000" fill-rule="evenodd" fill-opacity="1" /><path clip-path="url(#clip5000)" d="M 0 0 M1122.67 10022.7 Q1093.78 10022.7 1079.15 10051.2 Q1064.71 10079.6 1064.71 10136.6 Q1064.71 10193.5 1079.15 10222 Q1093.78 10250.3 1122.67 10250.3 Q1151.75 10250.3 1166.19 10222 Q1180.82 10193.5 1180.82 10136.6 Q1180.82 10079.6 1166.19 10051.2 Q1151.75 10022.7 1122.67 10022.7 M1122.67 9993.09 Q1169.15 9993.09 1193.6 10029.9 Q1218.23 10066.6 1218.23 10136.6 Q1218.23 10206.4 1193.6 10243.3 Q1169.15 10279.9 1122.67 10279.9 Q1076.19 10279.9 1051.56 10243.3 Q1027.12 10206.4 1027.12 10136.6 Q1027.12 10066.6 1051.56 10029.9 Q1076.19 9993.09 1122.67 9993.09 Z" fill="#000000" fill-rule="evenodd" fill-opacity="1" /><path clip-path="url(#clip5000)" d="M 0 0 M1258.78 10227.5 L1297.86 10227.5 L1297.86 10274.6 L1258.78 10274.6 L1258.78 10227.5 Z" fill="#000000" fill-rule="evenodd" fill-opacity="1" /><path clip-path="url(#clip5000)" d="M 0 0 M1451.75 10125.5 Q1478.6 10131.2 1493.6 10149.4 Q1508.78 10167.5 1508.78 10194.2 Q1508.78 10235.1 1480.63 10257.5 Q1452.49 10279.9 1400.63 10279.9 Q1383.23 10279.9 1364.71 10276.4 Q1346.38 10273.1 1326.75 10266.2 L1326.75 10230.1 Q1342.3 10239.2 1360.82 10243.8 Q1379.34 10248.5 1399.52 10248.5 Q1434.71 10248.5 1453.04 10234.6 Q1471.56 10220.7 1471.56 10194.2 Q1471.56 10169.8 1454.34 10156 Q1437.3 10142.2 1406.75 10142.2 L1374.52 10142.2 L1374.52 10111.4 L1408.23 10111.4 Q1435.82 10111.4 1450.45 10100.5 Q1465.08 10089.4 1465.08 10068.6 Q1465.08 10047.3 1449.89 10036 Q1434.89 10024.6 1406.75 10024.6 Q1391.38 10024.6 1373.78 10027.9 Q1356.19 10031.2 1335.08 10038.3 L1335.08 10004.9 Q1356.38 9999.01 1374.89 9996.05 Q1393.6 9993.09 1410.08 9993.09 Q1452.67 9993.09 1477.49 10012.5 Q1502.3 10031.8 1502.3 10064.8 Q1502.3 10087.7 1489.15 10103.6 Q1476 10119.4 1451.75 10125.5 Z" fill="#000000" fill-rule="evenodd" fill-opacity="1" /><path clip-path="url(#clip5000)" d="M 0 0 M1549.71 9998.09 L1696.56 9998.09 L1696.56 10029.6 L1583.97 10029.6 L1583.97 10097.3 Q1592.12 10094.6 1600.26 10093.3 Q1608.41 10091.8 1616.56 10091.8 Q1662.86 10091.8 1689.89 10117.2 Q1716.93 10142.5 1716.93 10185.9 Q1716.93 10230.5 1689.15 10255.3 Q1661.37 10279.9 1610.82 10279.9 Q1593.41 10279.9 1575.26 10277 Q1557.3 10274 1538.04 10268.1 L1538.04 10230.5 Q1554.71 10239.6 1572.49 10244 Q1590.26 10248.5 1610.08 10248.5 Q1642.11 10248.5 1660.82 10231.6 Q1679.52 10214.8 1679.52 10185.9 Q1679.52 10157 1660.82 10140.1 Q1642.11 10123.3 1610.08 10123.3 Q1595.08 10123.3 1580.08 10126.6 Q1565.26 10129.9 1549.71 10137 L1549.71 9998.09 Z" fill="#000000" fill-rule="evenodd" fill-opacity="1" /><path clip-path="url(#clip5000)" d="M 0 0 M1105.64 8621.02 Q1076.75 8621.02 1062.12 8649.54 Q1047.67 8677.87 1047.67 8734.91 Q1047.67 8791.76 1062.12 8820.28 Q1076.75 8848.61 1105.64 8848.61 Q1134.71 8848.61 1149.15 8820.28 Q1163.78 8791.76 1163.78 8734.91 Q1163.78 8677.87 1149.15 8649.54 Q1134.71 8621.02 1105.64 8621.02 M1105.64 8591.39 Q1152.12 8591.39 1176.56 8628.24 Q1201.19 8664.91 1201.19 8734.91 Q1201.19 8804.72 1176.56 8841.57 Q1152.12 8878.24 1105.64 8878.24 Q1059.16 8878.24 1034.53 8841.57 Q1010.08 8804.72 1010.08 8734.91 Q1010.08 8664.91 1034.53 8628.24 Q1059.16 8591.39 1105.64 8591.39 Z" fill="#000000" fill-rule="evenodd" fill-opacity="1" /><path clip-path="url(#clip5000)" d="M 0 0 M1241.75 8825.83 L1280.82 8825.83 L1280.82 8872.87 L1241.75 8872.87 L1241.75 8825.83 Z" fill="#000000" fill-rule="evenodd" fill-opacity="1" /><path clip-path="url(#clip5000)" d="M 0 0 M1424.15 8628.98 L1329.71 8776.57 L1424.15 8776.57 L1424.15 8628.98 M1414.34 8596.39 L1461.38 8596.39 L1461.38 8776.57 L1500.82 8776.57 L1500.82 8807.68 L1461.38 8807.68 L1461.38 8872.87 L1424.15 8872.87 L1424.15 8807.68 L1299.34 8807.68 L1299.34 8771.57 L1414.34 8596.39 Z" fill="#000000" fill-rule="evenodd" fill-opacity="1" /><path clip-path="url(#clip5000)" d="M 0 0 M1621.37 8621.02 Q1592.49 8621.02 1577.86 8649.54 Q1563.41 8677.87 1563.41 8734.91 Q1563.41 8791.76 1577.86 8820.28 Q1592.49 8848.61 1621.37 8848.61 Q1650.45 8848.61 1664.89 8820.28 Q1679.52 8791.76 1679.52 8734.91 Q1679.52 8677.87 1664.89 8649.54 Q1650.45 8621.02 1621.37 8621.02 M1621.37 8591.39 Q1667.86 8591.39 1692.3 8628.24 Q1716.93 8664.91 1716.93 8734.91 Q1716.93 8804.72 1692.3 8841.57 Q1667.86 8878.24 1621.37 8878.24 Q1574.89 8878.24 1550.26 8841.57 Q1525.82 8804.72 1525.82 8734.91 Q1525.82 8664.91 1550.26 8628.24 Q1574.89 8591.39 1621.37 8591.39 Z" fill="#000000" fill-rule="evenodd" fill-opacity="1" /><path clip-path="url(#clip5000)" d="M 0 0 M1113.6 7219.32 Q1084.71 7219.32 1070.08 7247.84 Q1055.64 7276.17 1055.64 7333.21 Q1055.64 7390.06 1070.08 7418.58 Q1084.71 7446.91 1113.6 7446.91 Q1142.67 7446.91 1157.12 7418.58 Q1171.75 7390.06 1171.75 7333.21 Q1171.75 7276.17 1157.12 7247.84 Q1142.67 7219.32 1113.6 7219.32 M1113.6 7189.69 Q1160.08 7189.69 1184.52 7226.54 Q1209.15 7263.21 1209.15 7333.21 Q1209.15 7403.02 1184.52 7439.87 Q1160.08 7476.54 1113.6 7476.54 Q1067.12 7476.54 1042.49 7439.87 Q1018.04 7403.02 1018.04 7333.21 Q1018.04 7263.21 1042.49 7226.54 Q1067.12 7189.69 1113.6 7189.69 Z" fill="#000000" fill-rule="evenodd" fill-opacity="1" /><path clip-path="url(#clip5000)" d="M 0 0 M1249.71 7424.13 L1288.78 7424.13 L1288.78 7471.17 L1249.71 7471.17 L1249.71 7424.13 Z" fill="#000000" fill-rule="evenodd" fill-opacity="1" /><path clip-path="url(#clip5000)" d="M 0 0 M1432.12 7227.28 L1337.67 7374.88 L1432.12 7374.88 L1432.12 7227.28 M1422.3 7194.69 L1469.34 7194.69 L1469.34 7374.88 L1508.78 7374.88 L1508.78 7405.99 L1469.34 7405.99 L1469.34 7471.17 L1432.12 7471.17 L1432.12 7405.99 L1307.3 7405.99 L1307.3 7369.88 L1422.3 7194.69 Z" fill="#000000" fill-rule="evenodd" fill-opacity="1" /><path clip-path="url(#clip5000)" d="M 0 0 M1549.71 7194.69 L1696.56 7194.69 L1696.56 7226.17 L1583.97 7226.17 L1583.97 7293.95 Q1592.12 7291.17 1600.26 7289.88 Q1608.41 7288.39 1616.56 7288.39 Q1662.86 7288.39 1689.89 7313.76 Q1716.93 7339.13 1716.93 7382.47 Q1716.93 7427.1 1689.15 7451.91 Q1661.37 7476.54 1610.82 7476.54 Q1593.41 7476.54 1575.26 7473.58 Q1557.3 7470.62 1538.04 7464.69 L1538.04 7427.1 Q1554.71 7436.17 1572.49 7440.62 Q1590.26 7445.06 1610.08 7445.06 Q1642.11 7445.06 1660.82 7428.21 Q1679.52 7411.36 1679.52 7382.47 Q1679.52 7353.58 1660.82 7336.73 Q1642.11 7319.88 1610.08 7319.88 Q1595.08 7319.88 1580.08 7323.21 Q1565.26 7326.54 1549.71 7333.58 L1549.71 7194.69 Z" fill="#000000" fill-rule="evenodd" fill-opacity="1" /><path clip-path="url(#clip5000)" d="M 0 0 M1117.49 5817.62 Q1088.6 5817.62 1073.97 5846.14 Q1059.53 5874.47 1059.53 5931.51 Q1059.53 5988.36 1073.97 6016.88 Q1088.6 6045.21 1117.49 6045.21 Q1146.56 6045.21 1161.01 6016.88 Q1175.64 5988.36 1175.64 5931.51 Q1175.64 5874.47 1161.01 5846.14 Q1146.56 5817.62 1117.49 5817.62 M1117.49 5787.99 Q1163.97 5787.99 1188.41 5824.85 Q1213.04 5861.51 1213.04 5931.51 Q1213.04 6001.33 1188.41 6038.18 Q1163.97 6074.84 1117.49 6074.84 Q1071.01 6074.84 1046.38 6038.18 Q1021.93 6001.33 1021.93 5931.51 Q1021.93 5861.51 1046.38 5824.85 Q1071.01 5787.99 1117.49 5787.99 Z" fill="#000000" fill-rule="evenodd" fill-opacity="1" /><path clip-path="url(#clip5000)" d="M 0 0 M1253.6 6022.44 L1292.67 6022.44 L1292.67 6069.47 L1253.6 6069.47 L1253.6 6022.44 Z" fill="#000000" fill-rule="evenodd" fill-opacity="1" /><path clip-path="url(#clip5000)" d="M 0 0 M1333.6 5792.99 L1480.45 5792.99 L1480.45 5824.48 L1367.86 5824.48 L1367.86 5892.25 Q1376.01 5889.47 1384.15 5888.18 Q1392.3 5886.7 1400.45 5886.7 Q1446.75 5886.7 1473.78 5912.07 Q1500.82 5937.44 1500.82 5980.77 Q1500.82 6025.4 1473.04 6050.21 Q1445.26 6074.84 1394.71 6074.84 Q1377.3 6074.84 1359.15 6071.88 Q1341.19 6068.92 1321.93 6062.99 L1321.93 6025.4 Q1338.6 6034.47 1356.38 6038.92 Q1374.15 6043.36 1393.97 6043.36 Q1426 6043.36 1444.71 6026.51 Q1463.41 6009.66 1463.41 5980.77 Q1463.41 5951.88 1444.71 5935.03 Q1426 5918.18 1393.97 5918.18 Q1378.97 5918.18 1363.97 5921.51 Q1349.15 5924.84 1333.6 5931.88 L1333.6 5792.99 Z" fill="#000000" fill-rule="evenodd" fill-opacity="1" /><path clip-path="url(#clip5000)" d="M 0 0 M1621.37 5817.62 Q1592.49 5817.62 1577.86 5846.14 Q1563.41 5874.47 1563.41 5931.51 Q1563.41 5988.36 1577.86 6016.88 Q1592.49 6045.21 1621.37 6045.21 Q1650.45 6045.21 1664.89 6016.88 Q1679.52 5988.36 1679.52 5931.51 Q1679.52 5874.47 1664.89 5846.14 Q1650.45 5817.62 1621.37 5817.62 M1621.37 5787.99 Q1667.86 5787.99 1692.3 5824.85 Q1716.93 5861.51 1716.93 5931.51 Q1716.93 6001.33 1692.3 6038.18 Q1667.86 6074.84 1621.37 6074.84 Q1574.89 6074.84 1550.26 6038.18 Q1525.82 6001.33 1525.82 5931.51 Q1525.82 5861.51 1550.26 5824.85 Q1574.89 5787.99 1621.37 5787.99 Z" fill="#000000" fill-rule="evenodd" fill-opacity="1" /><path clip-path="url(#clip5000)" d="M 0 0 M1125.45 4415.93 Q1096.56 4415.93 1081.93 4444.44 Q1067.49 4472.78 1067.49 4529.81 Q1067.49 4586.67 1081.93 4615.18 Q1096.56 4643.52 1125.45 4643.52 Q1154.52 4643.52 1168.97 4615.18 Q1183.6 4586.67 1183.6 4529.81 Q1183.6 4472.78 1168.97 4444.44 Q1154.52 4415.93 1125.45 4415.93 M1125.45 4386.3 Q1171.93 4386.3 1196.38 4423.15 Q1221.01 4459.81 1221.01 4529.81 Q1221.01 4599.63 1196.38 4636.48 Q1171.93 4673.15 1125.45 4673.15 Q1078.97 4673.15 1054.34 4636.48 Q1029.9 4599.63 1029.9 4529.81 Q1029.9 4459.81 1054.34 4423.15 Q1078.97 4386.3 1125.45 4386.3 Z" fill="#000000" fill-rule="evenodd" fill-opacity="1" /><path clip-path="url(#clip5000)" d="M 0 0 M1261.56 4620.74 L1300.64 4620.74 L1300.64 4667.78 L1261.56 4667.78 L1261.56 4620.74 Z" fill="#000000" fill-rule="evenodd" fill-opacity="1" /><path clip-path="url(#clip5000)" d="M 0 0 M1341.56 4391.3 L1488.41 4391.3 L1488.41 4422.78 L1375.82 4422.78 L1375.82 4490.56 Q1383.97 4487.78 1392.12 4486.48 Q1400.26 4485 1408.41 4485 Q1454.71 4485 1481.75 4510.37 Q1508.78 4535.74 1508.78 4579.07 Q1508.78 4623.7 1481 4648.52 Q1453.23 4673.15 1402.67 4673.15 Q1385.26 4673.15 1367.12 4670.18 Q1349.15 4667.22 1329.89 4661.3 L1329.89 4623.7 Q1346.56 4632.78 1364.34 4637.22 Q1382.12 4641.67 1401.93 4641.67 Q1433.97 4641.67 1452.67 4624.81 Q1471.38 4607.96 1471.38 4579.07 Q1471.38 4550.18 1452.67 4533.33 Q1433.97 4516.48 1401.93 4516.48 Q1386.93 4516.48 1371.93 4519.81 Q1357.12 4523.15 1341.56 4530.18 L1341.56 4391.3 Z" fill="#000000" fill-rule="evenodd" fill-opacity="1" /><path clip-path="url(#clip5000)" d="M 0 0 M1549.71 4391.3 L1696.56 4391.3 L1696.56 4422.78 L1583.97 4422.78 L1583.97 4490.56 Q1592.12 4487.78 1600.26 4486.48 Q1608.41 4485 1616.56 4485 Q1662.86 4485 1689.89 4510.37 Q1716.93 4535.74 1716.93 4579.07 Q1716.93 4623.7 1689.15 4648.52 Q1661.37 4673.15 1610.82 4673.15 Q1593.41 4673.15 1575.26 4670.18 Q1557.3 4667.22 1538.04 4661.3 L1538.04 4623.7 Q1554.71 4632.78 1572.49 4637.22 Q1590.26 4641.67 1610.08 4641.67 Q1642.11 4641.67 1660.82 4624.81 Q1679.52 4607.96 1679.52 4579.07 Q1679.52 4550.18 1660.82 4533.33 Q1642.11 4516.48 1610.08 4516.48 Q1595.08 4516.48 1580.08 4519.81 Q1565.26 4523.15 1549.71 4530.18 L1549.71 4391.3 Z" fill="#000000" fill-rule="evenodd" fill-opacity="1" /><path clip-path="url(#clip5000)" d="M 0 0 M1108.23 3014.23 Q1079.34 3014.23 1064.71 3042.75 Q1050.27 3071.08 1050.27 3128.12 Q1050.27 3184.97 1064.71 3213.49 Q1079.34 3241.82 1108.23 3241.82 Q1137.3 3241.82 1151.75 3213.49 Q1166.38 3184.97 1166.38 3128.12 Q1166.38 3071.08 1151.75 3042.75 Q1137.3 3014.23 1108.23 3014.23 M1108.23 2984.6 Q1154.71 2984.6 1179.15 3021.45 Q1203.78 3058.12 1203.78 3128.12 Q1203.78 3197.93 1179.15 3234.78 Q1154.71 3271.45 1108.23 3271.45 Q1061.75 3271.45 1037.12 3234.78 Q1012.67 3197.93 1012.67 3128.12 Q1012.67 3058.12 1037.12 3021.45 Q1061.75 2984.6 1108.23 2984.6 Z" fill="#000000" fill-rule="evenodd" fill-opacity="1" /><path clip-path="url(#clip5000)" d="M 0 0 M1244.34 3219.04 L1283.41 3219.04 L1283.41 3266.08 L1244.34 3266.08 L1244.34 3219.04 Z" fill="#000000" fill-rule="evenodd" fill-opacity="1" /><path clip-path="url(#clip5000)" d="M 0 0 M1408.6 3112.93 Q1383.41 3112.93 1368.6 3130.15 Q1353.97 3147.38 1353.97 3177.38 Q1353.97 3207.19 1368.6 3224.6 Q1383.41 3241.82 1408.6 3241.82 Q1433.78 3241.82 1448.41 3224.6 Q1463.23 3207.19 1463.23 3177.38 Q1463.23 3147.38 1448.41 3130.15 Q1433.78 3112.93 1408.6 3112.93 M1482.86 2995.71 L1482.86 3029.78 Q1468.78 3023.12 1454.34 3019.6 Q1440.08 3016.08 1426 3016.08 Q1388.97 3016.08 1369.34 3041.08 Q1349.89 3066.08 1347.12 3116.64 Q1358.04 3100.52 1374.52 3092.01 Q1391.01 3083.3 1410.82 3083.3 Q1452.49 3083.3 1476.56 3108.67 Q1500.82 3133.86 1500.82 3177.38 Q1500.82 3219.97 1475.63 3245.71 Q1450.45 3271.45 1408.6 3271.45 Q1360.63 3271.45 1335.26 3234.78 Q1309.89 3197.93 1309.89 3128.12 Q1309.89 3062.56 1341.01 3023.67 Q1372.12 2984.6 1424.52 2984.6 Q1438.6 2984.6 1452.86 2987.38 Q1467.3 2990.16 1482.86 2995.71 Z" fill="#000000" fill-rule="evenodd" fill-opacity="1" /><path clip-path="url(#clip5000)" d="M 0 0 M1621.37 3014.23 Q1592.49 3014.23 1577.86 3042.75 Q1563.41 3071.08 1563.41 3128.12 Q1563.41 3184.97 1577.86 3213.49 Q1592.49 3241.82 1621.37 3241.82 Q1650.45 3241.82 1664.89 3213.49 Q1679.52 3184.97 1679.52 3128.12 Q1679.52 3071.08 1664.89 3042.75 Q1650.45 3014.23 1621.37 3014.23 M1621.37 2984.6 Q1667.86 2984.6 1692.3 3021.45 Q1716.93 3058.12 1716.93 3128.12 Q1716.93 3197.93 1692.3 3234.78 Q1667.86 3271.45 1621.37 3271.45 Q1574.89 3271.45 1550.26 3234.78 Q1525.82 3197.93 1525.82 3128.12 Q1525.82 3058.12 1550.26 3021.45 Q1574.89 2984.6 1621.37 2984.6 Z" fill="#000000" fill-rule="evenodd" fill-opacity="1" /><path clip-path="url(#clip5000)" d="M 0 0 M1116.19 1612.53 Q1087.3 1612.53 1072.67 1641.05 Q1058.23 1669.38 1058.23 1726.42 Q1058.23 1783.27 1072.67 1811.79 Q1087.3 1840.12 1116.19 1840.12 Q1145.27 1840.12 1159.71 1811.79 Q1174.34 1783.27 1174.34 1726.42 Q1174.34 1669.38 1159.71 1641.05 Q1145.27 1612.53 1116.19 1612.53 M1116.19 1582.9 Q1162.67 1582.9 1187.12 1619.75 Q1211.75 1656.42 1211.75 1726.42 Q1211.75 1796.23 1187.12 1833.09 Q1162.67 1869.75 1116.19 1869.75 Q1069.71 1869.75 1045.08 1833.09 Q1020.64 1796.23 1020.64 1726.42 Q1020.64 1656.42 1045.08 1619.75 Q1069.71 1582.9 1116.19 1582.9 Z" fill="#000000" fill-rule="evenodd" fill-opacity="1" /><path clip-path="url(#clip5000)" d="M 0 0 M1252.3 1817.35 L1291.38 1817.35 L1291.38 1864.38 L1252.3 1864.38 L1252.3 1817.35 Z" fill="#000000" fill-rule="evenodd" fill-opacity="1" /><path clip-path="url(#clip5000)" d="M 0 0 M1416.56 1711.24 Q1391.38 1711.24 1376.56 1728.46 Q1361.93 1745.68 1361.93 1775.68 Q1361.93 1805.49 1376.56 1822.9 Q1391.38 1840.12 1416.56 1840.12 Q1441.75 1840.12 1456.38 1822.9 Q1471.19 1805.49 1471.19 1775.68 Q1471.19 1745.68 1456.38 1728.46 Q1441.75 1711.24 1416.56 1711.24 M1490.82 1594.01 L1490.82 1628.09 Q1476.75 1621.42 1462.3 1617.9 Q1448.04 1614.38 1433.97 1614.38 Q1396.93 1614.38 1377.3 1639.38 Q1357.86 1664.38 1355.08 1714.94 Q1366.01 1698.83 1382.49 1690.31 Q1398.97 1681.61 1418.78 1681.61 Q1460.45 1681.61 1484.52 1706.98 Q1508.78 1732.16 1508.78 1775.68 Q1508.78 1818.27 1483.6 1844.01 Q1458.41 1869.75 1416.56 1869.75 Q1368.6 1869.75 1343.23 1833.09 Q1317.86 1796.23 1317.86 1726.42 Q1317.86 1660.86 1348.97 1621.98 Q1380.08 1582.9 1432.49 1582.9 Q1446.56 1582.9 1460.82 1585.68 Q1475.26 1588.46 1490.82 1594.01 Z" fill="#000000" fill-rule="evenodd" fill-opacity="1" /><path clip-path="url(#clip5000)" d="M 0 0 M1549.71 1587.9 L1696.56 1587.9 L1696.56 1619.38 L1583.97 1619.38 L1583.97 1687.16 Q1592.12 1684.38 1600.26 1683.09 Q1608.41 1681.61 1616.56 1681.61 Q1662.86 1681.61 1689.89 1706.98 Q1716.93 1732.35 1716.93 1775.68 Q1716.93 1820.31 1689.15 1845.12 Q1661.37 1869.75 1610.82 1869.75 Q1593.41 1869.75 1575.26 1866.79 Q1557.3 1863.83 1538.04 1857.9 L1538.04 1820.31 Q1554.71 1829.38 1572.49 1833.83 Q1590.26 1838.27 1610.08 1838.27 Q1642.11 1838.27 1660.82 1821.42 Q1679.52 1804.57 1679.52 1775.68 Q1679.52 1746.79 1660.82 1729.94 Q1642.11 1713.09 1610.08 1713.09 Q1595.08 1713.09 1580.08 1716.42 Q1565.26 1719.75 1549.71 1726.79 L1549.71 1587.9 Z" fill="#000000" fill-rule="evenodd" fill-opacity="1" /><path clip-path="url(#clip5000)" d="M 0 0 M4853.18 228.341 L4853.18 284.73 Q4827.9 271.767 4800.68 265.286 Q4773.46 258.804 4744.29 258.804 Q4699.89 258.804 4677.53 272.415 Q4655.5 286.026 4655.5 313.248 Q4655.5 333.989 4671.38 345.98 Q4687.25 357.646 4735.22 368.341 L4755.63 372.878 Q4819.15 386.489 4845.73 411.442 Q4872.62 436.072 4872.62 480.47 Q4872.62 531.025 4832.44 560.516 Q4792.58 590.006 4722.58 590.006 Q4693.41 590.006 4661.65 584.173 Q4630.22 578.664 4595.22 567.321 L4595.22 505.747 Q4628.27 522.923 4660.36 531.673 Q4692.44 540.099 4723.87 540.099 Q4766 540.099 4788.69 525.84 Q4811.37 511.257 4811.37 485.007 Q4811.37 460.701 4794.85 447.738 Q4778.64 434.775 4723.23 422.785 L4702.49 417.924 Q4647.07 406.257 4622.44 382.276 Q4597.81 357.97 4597.81 315.841 Q4597.81 264.637 4634.11 236.767 Q4670.4 208.897 4737.16 208.897 Q4770.22 208.897 4799.38 213.758 Q4828.55 218.619 4853.18 228.341 Z" fill="#000000" fill-rule="evenodd" fill-opacity="1" /><path clip-path="url(#clip5000)" d="M 0 0 M4935.17 217.647 L4994.8 217.647 L4994.8 580.608 L4935.17 580.608 L4935.17 217.647 M4935.17 76.3514 L4994.8 76.3514 L4994.8 151.86 L4935.17 151.86 L4935.17 76.3514 Z" fill="#000000" fill-rule="evenodd" fill-opacity="1" /><path clip-path="url(#clip5000)" d="M 0 0 M5031.42 217.647 L5314.66 217.647 L5314.66 272.091 L5090.4 532.969 L5314.66 532.969 L5314.66 580.608 L5023.32 580.608 L5023.32 526.164 L5247.58 265.286 L5031.42 265.286 L5031.42 217.647 Z" fill="#000000" fill-rule="evenodd" fill-opacity="1" /><path clip-path="url(#clip5000)" d="M 0 0 M5687.67 384.22 L5687.67 413.387 L5413.5 413.387 Q5417.39 474.96 5450.45 507.368 Q5483.82 539.451 5543.13 539.451 Q5577.48 539.451 5609.56 531.025 Q5641.97 522.599 5673.73 505.747 L5673.73 562.136 Q5641.65 575.747 5607.94 582.877 Q5574.24 590.006 5539.57 590.006 Q5452.71 590.006 5401.83 539.451 Q5351.28 488.896 5351.28 402.692 Q5351.28 313.572 5399.24 261.397 Q5447.53 208.897 5529.19 208.897 Q5602.44 208.897 5644.89 256.212 Q5687.67 303.202 5687.67 384.22 M5628.04 366.72 Q5627.39 317.785 5600.49 288.619 Q5573.92 259.452 5529.84 259.452 Q5479.94 259.452 5449.8 287.647 Q5419.98 315.841 5415.45 367.044 L5628.04 366.72 Z" fill="#000000" fill-rule="evenodd" fill-opacity="1" /><path clip-path="url(#clip5000)" d="M 0 0 M5765.44 498.294 L5833.82 498.294 L5833.82 580.608 L5765.44 580.608 L5765.44 498.294 M5765.44 237.415 L5833.82 237.415 L5833.82 319.73 L5765.44 319.73 L5765.44 237.415 Z" fill="#000000" fill-rule="evenodd" fill-opacity="1" /><path clip-path="url(#clip5000)" d="M 0 0 M6052.9 312.6 Q6008.82 312.6 5982.9 342.739 Q5957.29 372.878 5957.29 425.377 Q5957.29 477.553 5982.9 508.016 Q6008.82 538.155 6052.9 538.155 Q6096.97 538.155 6122.57 508.016 Q6148.5 477.553 6148.5 425.377 Q6148.5 372.878 6122.57 342.739 Q6096.97 312.6 6052.9 312.6 M6182.85 107.462 L6182.85 167.092 Q6158.22 155.425 6132.94 149.268 Q6107.99 143.11 6083.36 143.11 Q6018.54 143.11 5984.19 186.86 Q5950.16 230.61 5945.3 319.082 Q5964.42 290.887 5993.27 275.98 Q6022.11 260.749 6056.78 260.749 Q6129.7 260.749 6171.83 305.147 Q6214.28 349.22 6214.28 425.377 Q6214.28 499.914 6170.21 544.96 Q6126.14 590.006 6052.9 590.006 Q5968.96 590.006 5924.56 525.84 Q5880.17 461.349 5880.17 339.174 Q5880.17 224.453 5934.61 156.397 Q5989.05 88.018 6080.77 88.018 Q6105.4 88.018 6130.35 92.8791 Q6155.63 97.7402 6182.85 107.462 Z" fill="#000000" fill-rule="evenodd" fill-opacity="1" /><path clip-path="url(#clip5000)" d="M 0 0 M6292.06 498.294 L6360.44 498.294 L6360.44 554.034 L6307.29 657.737 L6265.49 657.737 L6292.06 554.034 L6292.06 498.294 Z" fill="#000000" fill-rule="evenodd" fill-opacity="1" /><path clip-path="url(#clip5000)" d="M 0 0 M6571.41 350.841 Q6524.74 350.841 6497.85 375.794 Q6471.27 400.748 6471.27 444.498 Q6471.27 488.247 6497.85 513.201 Q6524.74 538.155 6571.41 538.155 Q6618.08 538.155 6644.98 513.201 Q6671.87 487.923 6671.87 444.498 Q6671.87 400.748 6644.98 375.794 Q6618.4 350.841 6571.41 350.841 M6505.95 322.97 Q6463.82 312.6 6440.16 283.758 Q6416.83 254.915 6416.83 213.434 Q6416.83 155.425 6457.99 121.722 Q6499.47 88.018 6571.41 88.018 Q6643.68 88.018 6684.84 121.722 Q6725.99 155.425 6725.99 213.434 Q6725.99 254.915 6702.34 283.758 Q6679 312.6 6637.2 322.97 Q6684.51 333.989 6710.76 366.072 Q6737.34 398.155 6737.34 444.498 Q6737.34 514.821 6694.23 552.414 Q6651.46 590.006 6571.41 590.006 Q6491.37 590.006 6448.26 552.414 Q6405.49 514.821 6405.49 444.498 Q6405.49 398.155 6432.06 366.072 Q6458.63 333.989 6505.95 322.97 M6481.97 219.591 Q6481.97 257.184 6505.3 278.249 Q6528.96 299.313 6571.41 299.313 Q6613.54 299.313 6637.2 278.249 Q6661.18 257.184 6661.18 219.591 Q6661.18 181.999 6637.2 160.934 Q6613.54 139.87 6571.41 139.87 Q6528.96 139.87 6505.3 160.934 Q6481.97 181.999 6481.97 219.591 Z" fill="#000000" fill-rule="evenodd" fill-opacity="1" /><path clip-path="url(#clip5000)" d="M 0 0 M6815.11 498.294 L6883.49 498.294 L6883.49 554.034 L6830.35 657.737 L6788.54 657.737 L6815.11 554.034 L6815.11 498.294 Z" fill="#000000" fill-rule="evenodd" fill-opacity="1" /><path clip-path="url(#clip5000)" d="M 0 0 M6965.81 525.516 L7072.75 525.516 L7072.75 156.397 L6956.41 179.731 L6956.41 120.101 L7072.1 96.768 L7137.57 96.768 L7137.57 525.516 L7244.51 525.516 L7244.51 580.608 L6965.81 580.608 L6965.81 525.516 Z" fill="#000000" fill-rule="evenodd" fill-opacity="1" /><path clip-path="url(#clip5000)" d="M 0 0 M7455.48 139.87 Q7404.93 139.87 7379.32 189.777 Q7354.05 239.36 7354.05 339.174 Q7354.05 438.664 7379.32 488.571 Q7404.93 538.155 7455.48 538.155 Q7506.36 538.155 7531.64 488.571 Q7557.24 438.664 7557.24 339.174 Q7557.24 239.36 7531.64 189.777 Q7506.36 139.87 7455.48 139.87 M7455.48 88.018 Q7536.82 88.018 7579.6 152.508 Q7622.7 216.675 7622.7 339.174 Q7622.7 461.349 7579.6 525.84 Q7536.82 590.006 7455.48 590.006 Q7374.14 590.006 7331.04 525.84 Q7288.26 461.349 7288.26 339.174 Q7288.26 216.675 7331.04 152.508 Q7374.14 88.018 7455.48 88.018 Z" fill="#000000" fill-rule="evenodd" fill-opacity="1" /><path clip-path="url(#clip5000)" d="M 0 0 M7700.48 498.294 L7768.86 498.294 L7768.86 554.034 L7715.71 657.737 L7673.91 657.737 L7700.48 554.034 L7700.48 498.294 Z" fill="#000000" fill-rule="evenodd" fill-opacity="1" /><path clip-path="url(#clip5000)" d="M 0 0 M7851.17 525.516 L7958.12 525.516 L7958.12 156.397 L7841.77 179.731 L7841.77 120.101 L7957.47 96.768 L8022.93 96.768 L8022.93 525.516 L8129.88 525.516 L8129.88 580.608 L7851.17 580.608 L7851.17 525.516 Z" fill="#000000" fill-rule="evenodd" fill-opacity="1" /><path clip-path="url(#clip5000)" d="M 0 0 M8257.24 525.516 L8485.71 525.516 L8485.71 580.608 L8178.49 580.608 L8178.49 525.516 Q8215.75 486.951 8279.92 422.137 Q8344.41 356.998 8360.94 338.202 Q8392.37 302.878 8404.69 278.573 Q8417.33 253.943 8417.33 230.286 Q8417.33 191.721 8390.11 167.416 Q8363.21 143.11 8319.78 143.11 Q8288.99 143.11 8254.64 153.805 Q8220.62 164.499 8181.73 186.212 L8181.73 120.101 Q8221.26 104.222 8255.62 96.1199 Q8289.97 88.018 8318.49 88.018 Q8393.67 88.018 8438.39 125.61 Q8483.11 163.203 8483.11 226.073 Q8483.11 255.888 8471.77 282.786 Q8460.75 309.359 8431.26 345.656 Q8423.16 355.054 8379.74 400.1 Q8336.31 444.822 8257.24 525.516 Z" fill="#000000" fill-rule="evenodd" fill-opacity="1" /><path clip-path="url(#clip5000)" d="M 0 0 M8563.48 498.294 L8631.86 498.294 L8631.86 554.034 L8578.72 657.737 L8536.91 657.737 L8563.48 554.034 L8563.48 498.294 Z" fill="#000000" fill-rule="evenodd" fill-opacity="1" /><path clip-path="url(#clip5000)" d="M 0 0 M8714.18 525.516 L8821.12 525.516 L8821.12 156.397 L8704.78 179.731 L8704.78 120.101 L8820.47 96.768 L8885.94 96.768 L8885.94 525.516 L8992.88 525.516 L8992.88 580.608 L8714.18 580.608 L8714.18 525.516 Z" fill="#000000" fill-rule="evenodd" fill-opacity="1" /><path clip-path="url(#clip5000)" d="M 0 0 M9243.71 153.805 L9078.43 412.09 L9243.71 412.09 L9243.71 153.805 M9226.54 96.768 L9308.85 96.768 L9308.85 412.09 L9377.88 412.09 L9377.88 466.535 L9308.85 466.535 L9308.85 580.608 L9243.71 580.608 L9243.71 466.535 L9025.29 466.535 L9025.29 403.34 L9226.54 96.768 Z" fill="#000000" fill-rule="evenodd" fill-opacity="1" /><path clip-path="url(#clip5000)" d="M 0 0 M9455.66 498.294 L9524.03 498.294 L9524.03 554.034 L9470.89 657.737 L9429.08 657.737 L9455.66 554.034 L9455.66 498.294 Z" fill="#000000" fill-rule="evenodd" fill-opacity="1" /><path clip-path="url(#clip5000)" d="M 0 0 M9606.35 525.516 L9713.29 525.516 L9713.29 156.397 L9596.95 179.731 L9596.95 120.101 L9712.64 96.768 L9778.11 96.768 L9778.11 525.516 L9885.05 525.516 L9885.05 580.608 L9606.35 580.608 L9606.35 525.516 Z" fill="#000000" fill-rule="evenodd" fill-opacity="1" /><path clip-path="url(#clip5000)" d="M 0 0 M10104.1 312.6 Q10060.1 312.6 10034.1 342.739 Q10008.5 372.878 10008.5 425.377 Q10008.5 477.553 10034.1 508.016 Q10060.1 538.155 10104.1 538.155 Q10148.2 538.155 10173.8 508.016 Q10199.7 477.553 10199.7 425.377 Q10199.7 372.878 10173.8 342.739 Q10148.2 312.6 10104.1 312.6 M10234.1 107.462 L10234.1 167.092 Q10209.4 155.425 10184.2 149.268 Q10159.2 143.11 10134.6 143.11 Q10069.8 143.11 10035.4 186.86 Q10001.4 230.61 9996.53 319.082 Q10015.7 290.887 10044.5 275.98 Q10073.3 260.749 10108 260.749 Q10180.9 260.749 10223.1 305.147 Q10265.5 349.22 10265.5 425.377 Q10265.5 499.914 10221.4 544.96 Q10177.4 590.006 10104.1 590.006 Q10020.2 590.006 9975.79 525.84 Q9931.39 461.349 9931.39 339.174 Q9931.39 224.453 9985.84 156.397 Q10040.3 88.018 10132 88.018 Q10156.6 88.018 10181.6 92.8791 Q10206.9 97.7402 10234.1 107.462 Z" fill="#000000" fill-rule="evenodd" fill-opacity="1" /><path clip-path="url(#clip5000)" d="M 0 0 M10343.3 237.415 L10411.7 237.415 L10411.7 319.73 L10343.3 319.73 L10343.3 237.415 M10343.3 498.294 L10411.7 498.294 L10411.7 554.034 L10358.5 657.737 L10316.7 657.737 L10343.3 554.034 L10343.3 498.294 Z" fill="#000000" fill-rule="evenodd" fill-opacity="1" /><path clip-path="url(#clip5000)" d="M 0 0 M10884.2 141.166 Q10812.9 141.166 10770.7 194.314 Q10728.9 247.462 10728.9 339.174 Q10728.9 430.563 10770.7 483.71 Q10812.9 536.858 10884.2 536.858 Q10955.5 536.858 10996.9 483.71 Q11038.7 430.563 11038.7 339.174 Q11038.7 247.462 10996.9 194.314 Q10955.5 141.166 10884.2 141.166 M10975.9 571.858 L11062.1 666.163 L10983 666.163 L10911.4 588.71 Q10900.7 589.358 10894.9 589.682 Q10889.4 590.006 10884.2 590.006 Q10782.1 590.006 10720.8 521.951 Q10659.9 453.572 10659.9 339.174 Q10659.9 224.453 10720.8 156.397 Q10782.1 88.018 10884.2 88.018 Q10985.9 88.018 11046.9 156.397 Q11107.8 224.453 11107.8 339.174 Q11107.8 423.433 11073.7 483.386 Q11040 543.34 10975.9 571.858 Z" fill="#000000" fill-rule="evenodd" fill-opacity="1" /><path clip-path="url(#clip5000)" d="M 0 0 M11389.1 279.221 L11804.5 279.221 L11804.5 333.665 L11389.1 333.665 L11389.1 279.221 M11389.1 411.442 L11804.5 411.442 L11804.5 466.535 L11389.1 466.535 L11389.1 411.442 Z" fill="#000000" fill-rule="evenodd" fill-opacity="1" /><path clip-path="url(#clip5000)" d="M 0 0 M12097.8 525.516 L12204.8 525.516 L12204.8 156.397 L12088.4 179.731 L12088.4 120.101 L12204.1 96.768 L12269.6 96.768 L12269.6 525.516 L12376.5 525.516 L12376.5 580.608 L12097.8 580.608 L12097.8 525.516 Z" fill="#000000" fill-rule="evenodd" fill-opacity="1" /><path clip-path="url(#clip5000)" d="M 0 0 M12595.6 312.6 Q12551.5 312.6 12525.6 342.739 Q12500 372.878 12500 425.377 Q12500 477.553 12525.6 508.016 Q12551.5 538.155 12595.6 538.155 Q12639.7 538.155 12665.3 508.016 Q12691.2 477.553 12691.2 425.377 Q12691.2 372.878 12665.3 342.739 Q12639.7 312.6 12595.6 312.6 M12725.5 107.462 L12725.5 167.092 Q12700.9 155.425 12675.6 149.268 Q12650.7 143.11 12626.1 143.11 Q12561.2 143.11 12526.9 186.86 Q12492.9 230.61 12488 319.082 Q12507.1 290.887 12536 275.98 Q12564.8 260.749 12599.5 260.749 Q12672.4 260.749 12714.5 305.147 Q12757 349.22 12757 425.377 Q12757 499.914 12712.9 544.96 Q12668.8 590.006 12595.6 590.006 Q12511.7 590.006 12467.3 525.84 Q12422.9 461.349 12422.9 339.174 Q12422.9 224.453 12477.3 156.397 Q12531.7 88.018 12623.5 88.018 Q12648.1 88.018 12673 92.8791 Q12698.3 97.7402 12725.5 107.462 Z" fill="#000000" fill-rule="evenodd" fill-opacity="1" /><path clip-path="url(#clip5000)" d="M 0 0 M12834.8 237.415 L12903.1 237.415 L12903.1 319.73 L12834.8 319.73 L12834.8 237.415 M12834.8 498.294 L12903.1 498.294 L12903.1 554.034 L12850 657.737 L12808.2 657.737 L12834.8 554.034 L12834.8 498.294 Z" fill="#000000" fill-rule="evenodd" fill-opacity="1" /><path clip-path="url(#clip5000)" d="M 0 0 M13179.2 96.768 L13244.7 96.768 L13244.7 546.904 Q13244.7 634.404 13211.3 673.941 Q13178.3 713.478 13104.7 713.478 L13079.8 713.478 L13079.8 658.385 L13100.2 658.385 Q13143.6 658.385 13161.4 634.08 Q13179.2 609.775 13179.2 546.904 L13179.2 96.768 Z" fill="#000000" fill-rule="evenodd" fill-opacity="1" /><path clip-path="url(#clip5000)" d="M 0 0 M13583 690.793 L13583 737.135 L13238.2 737.135 L13238.2 690.793 L13583 690.793 Z" fill="#000000" fill-rule="evenodd" fill-opacity="1" /><path clip-path="url(#clip5000)" d="M 0 0 M13794 139.87 Q13743.5 139.87 13717.9 189.777 Q13692.6 239.36 13692.6 339.174 Q13692.6 438.664 13717.9 488.571 Q13743.5 538.155 13794 538.155 Q13844.9 538.155 13870.2 488.571 Q13895.8 438.664 13895.8 339.174 Q13895.8 239.36 13870.2 189.777 Q13844.9 139.87 13794 139.87 M13794 88.018 Q13875.4 88.018 13918.1 152.508 Q13961.2 216.675 13961.2 339.174 Q13961.2 461.349 13918.1 525.84 Q13875.4 590.006 13794 590.006 Q13712.7 590.006 13669.6 525.84 Q13626.8 461.349 13626.8 339.174 Q13626.8 216.675 13669.6 152.508 Q13712.7 88.018 13794 88.018 Z" fill="#000000" fill-rule="evenodd" fill-opacity="1" /><path clip-path="url(#clip5000)" d="M 0 0 M14242.5 279.221 L14658 279.221 L14658 333.665 L14242.5 333.665 L14242.5 279.221 M14242.5 411.442 L14658 411.442 L14658 466.535 L14242.5 466.535 L14242.5 411.442 Z" fill="#000000" fill-rule="evenodd" fill-opacity="1" /><path clip-path="url(#clip5000)" d="M 0 0 M15079.9 139.87 Q15029.4 139.87 15003.8 189.777 Q14978.5 239.36 14978.5 339.174 Q14978.5 438.664 15003.8 488.571 Q15029.4 538.155 15079.9 538.155 Q15130.8 538.155 15156.1 488.571 Q15181.7 438.664 15181.7 339.174 Q15181.7 239.36 15156.1 189.777 Q15130.8 139.87 15079.9 139.87 M15079.9 88.018 Q15161.3 88.018 15204.1 152.508 Q15247.2 216.675 15247.2 339.174 Q15247.2 461.349 15204.1 525.84 Q15161.3 590.006 15079.9 590.006 Q14998.6 590.006 14955.5 525.84 Q14912.7 461.349 14912.7 339.174 Q14912.7 216.675 14955.5 152.508 Q14998.6 88.018 15079.9 88.018 Z" fill="#000000" fill-rule="evenodd" fill-opacity="1" /><path clip-path="url(#clip5000)" d="M 0 0 M15318.1 498.294 L15386.5 498.294 L15386.5 580.608 L15318.1 580.608 L15318.1 498.294 Z" fill="#000000" fill-rule="evenodd" fill-opacity="1" /><path clip-path="url(#clip5000)" d="M 0 0 M15637.3 153.805 L15472.1 412.09 L15637.3 412.09 L15637.3 153.805 M15620.2 96.768 L15702.5 96.768 L15702.5 412.09 L15771.5 412.09 L15771.5 466.535 L15702.5 466.535 L15702.5 580.608 L15637.3 580.608 L15637.3 466.535 L15418.9 466.535 L15418.9 403.34 L15620.2 96.768 Z" fill="#000000" fill-rule="evenodd" fill-opacity="1" /><path clip-path="url(#clip5000)" d="M 0 0 M15843.1 96.768 L16100.1 96.768 L16100.1 151.86 L15903.1 151.86 L15903.1 270.471 Q15917.3 265.61 15931.6 263.341 Q15945.9 260.749 15960.1 260.749 Q16041.1 260.749 16088.4 305.147 Q16135.8 349.544 16135.8 425.377 Q16135.8 503.479 16087.1 546.904 Q16038.5 590.006 15950.1 590.006 Q15919.6 590.006 15887.8 584.821 Q15856.4 579.636 15822.7 569.265 L15822.7 503.479 Q15851.9 519.358 15883 527.136 Q15914.1 534.914 15948.8 534.914 Q16004.8 534.914 16037.6 505.423 Q16070.3 475.933 16070.3 425.377 Q16070.3 374.822 16037.6 345.331 Q16004.8 315.841 15948.8 315.841 Q15922.5 315.841 15896.3 321.674 Q15870.3 327.508 15843.1 339.822 L15843.1 96.768 Z" fill="#000000" fill-rule="evenodd" fill-opacity="1" /><path clip-path="url(#clip5000)" d="M 0 0 M10204.7 12068.2 L10526.3 12068.2 L10526.3 12111.5 L10391.3 12111.5 L10391.3 12448.4 L10339.6 12448.4 L10339.6 12111.5 L10204.7 12111.5 L10204.7 12068.2 Z" fill="#000000" fill-rule="evenodd" fill-opacity="1" /><path clip-path="url(#clip5000)" d="M 0 0 M522.483 7641.94 L661.765 7641.94 L661.765 7559.44 Q661.765 7517.93 644.705 7498.07 Q627.39 7477.96 591.997 7477.96 Q556.349 7477.96 539.543 7498.07 Q522.483 7517.93 522.483 7559.44 L522.483 7641.94 M366.142 7641.94 L480.724 7641.94 L480.724 7565.8 Q480.724 7528.12 466.72 7509.78 Q452.461 7491.2 423.433 7491.2 Q394.66 7491.2 380.401 7509.78 Q366.142 7528.12 366.142 7565.8 L366.142 7641.94 M323.873 7693.37 L323.873 7561.98 Q323.873 7503.16 348.318 7471.33 Q372.762 7439.51 417.831 7439.51 Q452.715 7439.51 473.34 7455.8 Q493.965 7472.1 499.058 7503.67 Q507.206 7465.73 533.178 7444.85 Q558.895 7423.72 597.599 7423.72 Q648.524 7423.72 676.279 7458.35 Q704.033 7492.98 704.033 7556.89 L704.033 7693.37 L323.873 7693.37 Z" fill="#000000" fill-rule="evenodd" fill-opacity="1" /><path clip-path="url(#clip5000)" d="M 0 0 M418.85 7374.58 L418.85 7327.72 L704.033 7327.72 L704.033 7374.58 L418.85 7374.58 M307.832 7374.58 L307.832 7327.72 L367.16 7327.72 L367.16 7374.58 L307.832 7374.58 Z" fill="#000000" fill-rule="evenodd" fill-opacity="1" /><path clip-path="url(#clip5000)" d="M 0 0 M531.905 7041.52 L704.033 7041.52 L704.033 7088.37 L533.432 7088.37 Q492.946 7088.37 472.831 7104.16 Q452.715 7119.95 452.715 7151.52 Q452.715 7189.46 476.905 7211.36 Q501.095 7233.26 542.854 7233.26 L704.033 7233.26 L704.033 7280.36 L418.85 7280.36 L418.85 7233.26 L463.155 7233.26 Q437.437 7216.45 424.706 7193.79 Q411.975 7170.87 411.975 7141.08 Q411.975 7091.94 442.53 7066.73 Q472.831 7041.52 531.905 7041.52 Z" fill="#000000" fill-rule="evenodd" fill-opacity="1" /><path clip-path="url(#clip5000)" d="M 0 0 M462.136 6804.72 L307.832 6804.72 L307.832 6757.87 L704.033 6757.87 L704.033 6804.72 L661.256 6804.72 Q686.719 6819.49 699.195 6842.15 Q711.417 6864.56 711.417 6896.13 Q711.417 6947.82 670.168 6980.41 Q628.918 7012.75 561.696 7012.75 Q494.474 7012.75 453.224 6980.41 Q411.975 6947.82 411.975 6896.13 Q411.975 6864.56 424.451 6842.15 Q436.674 6819.49 462.136 6804.72 M561.696 6964.37 Q613.386 6964.37 642.922 6943.24 Q672.205 6921.85 672.205 6884.67 Q672.205 6847.5 642.922 6826.11 Q613.386 6804.72 561.696 6804.72 Q510.007 6804.72 480.724 6826.11 Q451.187 6847.5 451.187 6884.67 Q451.187 6921.85 480.724 6943.24 Q510.007 6964.37 561.696 6964.37 Z" fill="#000000" fill-rule="evenodd" fill-opacity="1" /><path clip-path="url(#clip5000)" d="M 0 0 M549.729 6464.79 L572.645 6464.79 L572.645 6680.2 Q621.024 6677.15 646.487 6651.18 Q671.695 6624.95 671.695 6578.35 Q671.695 6551.36 665.075 6526.15 Q658.455 6500.69 645.214 6475.74 L689.519 6475.74 Q700.214 6500.95 705.816 6527.43 Q711.417 6553.91 711.417 6581.15 Q711.417 6649.39 671.695 6689.37 Q631.973 6729.09 564.242 6729.09 Q494.22 6729.09 453.224 6691.41 Q411.975 6653.47 411.975 6589.3 Q411.975 6531.76 449.15 6498.4 Q486.071 6464.79 549.729 6464.79 M535.979 6511.64 Q497.53 6512.15 474.613 6533.28 Q451.697 6554.16 451.697 6588.79 Q451.697 6628.01 473.849 6651.69 Q496.002 6675.11 536.233 6678.68 L535.979 6511.64 Z" fill="#000000" fill-rule="evenodd" fill-opacity="1" /><path clip-path="url(#clip5000)" d="M 0 0 M462.646 6250.39 Q458.062 6258.29 456.025 6267.71 Q453.734 6276.87 453.734 6288.08 Q453.734 6327.8 479.706 6349.19 Q505.423 6370.32 553.803 6370.32 L704.033 6370.32 L704.033 6417.43 L418.85 6417.43 L418.85 6370.32 L463.155 6370.32 Q437.183 6355.55 424.706 6331.87 Q411.975 6308.19 411.975 6274.33 Q411.975 6269.49 412.739 6263.63 Q413.248 6257.78 414.521 6250.65 L462.646 6250.39 Z" fill="#000000" fill-rule="evenodd" fill-opacity="1" /><path clip-path="url(#clip5000)" d="M 0 0 M323.873 6156.94 L465.192 6156.94 L465.192 6200.23 L323.873 6200.23 L323.873 6156.94 Z" fill="#000000" fill-rule="evenodd" fill-opacity="1" /><path clip-path="url(#clip5000)" d="M 0 0 M427.252 5926 L471.558 5926 Q461.373 5945.86 456.28 5967.25 Q451.187 5988.63 451.187 6011.55 Q451.187 6046.44 461.882 6064 Q472.576 6081.32 493.965 6081.32 Q510.261 6081.32 519.682 6068.84 Q528.849 6056.37 537.252 6018.68 L540.817 6002.64 Q551.511 5952.73 571.117 5931.85 Q590.469 5910.72 625.353 5910.72 Q665.075 5910.72 688.246 5942.29 Q711.417 5973.61 711.417 6028.61 Q711.417 6051.53 706.834 6076.48 Q702.505 6101.18 693.594 6128.68 L645.214 6128.68 Q658.709 6102.71 665.584 6077.5 Q672.205 6052.29 672.205 6027.59 Q672.205 5994.49 661.001 5976.67 Q649.543 5958.84 628.918 5958.84 Q609.821 5958.84 599.636 5971.83 Q589.451 5984.56 580.029 6028.1 L576.21 6044.4 Q567.043 6087.94 548.201 6107.29 Q529.104 6126.64 496.002 6126.64 Q455.771 6126.64 433.873 6098.12 Q411.975 6069.61 411.975 6017.15 Q411.975 5991.18 415.794 5968.26 Q419.613 5945.35 427.252 5926 Z" fill="#000000" fill-rule="evenodd" fill-opacity="1" /><path clip-path="url(#clip5000)" d="M 0 0 M462.646 5530.56 Q458.062 5538.45 456.025 5547.87 Q453.734 5557.04 453.734 5568.24 Q453.734 5607.97 479.706 5629.35 Q505.423 5650.49 553.803 5650.49 L704.033 5650.49 L704.033 5697.59 L418.85 5697.59 L418.85 5650.49 L463.155 5650.49 Q437.183 5635.72 424.706 5612.04 Q411.975 5588.36 411.975 5554.49 Q411.975 5549.66 412.739 5543.8 Q413.248 5537.94 414.521 5530.81 L462.646 5530.56 Z" fill="#000000" fill-rule="evenodd" fill-opacity="1" /><path clip-path="url(#clip5000)" d="M 0 0 M560.678 5351.81 Q560.678 5408.59 573.664 5430.49 Q586.65 5452.39 617.969 5452.39 Q642.922 5452.39 657.691 5436.09 Q672.205 5419.54 672.205 5391.28 Q672.205 5352.32 644.705 5328.89 Q616.95 5305.21 571.117 5305.21 L560.678 5305.21 L560.678 5351.81 M541.326 5258.36 L704.033 5258.36 L704.033 5305.21 L660.746 5305.21 Q686.719 5321.25 699.195 5345.19 Q711.417 5369.12 711.417 5403.75 Q711.417 5447.55 686.973 5473.52 Q662.274 5499.24 621.024 5499.24 Q572.9 5499.24 548.455 5467.16 Q524.011 5434.82 524.011 5370.91 L524.011 5305.21 L519.428 5305.21 Q487.09 5305.21 469.521 5326.6 Q451.697 5347.74 451.697 5386.18 Q451.697 5410.63 457.553 5433.8 Q463.41 5456.97 475.122 5478.36 L431.836 5478.36 Q421.905 5452.64 417.067 5428.45 Q411.975 5404.26 411.975 5381.35 Q411.975 5319.47 444.058 5288.92 Q476.141 5258.36 541.326 5258.36 Z" fill="#000000" fill-rule="evenodd" fill-opacity="1" /><path clip-path="url(#clip5000)" d="M 0 0 M337.878 5162.87 L418.85 5162.87 L418.85 5066.37 L455.261 5066.37 L455.261 5162.87 L610.075 5162.87 Q644.96 5162.87 654.89 5153.45 Q664.821 5143.78 664.821 5114.5 L664.821 5066.37 L704.033 5066.37 L704.033 5114.5 Q704.033 5168.73 683.918 5189.36 Q663.547 5209.98 610.075 5209.98 L455.261 5209.98 L455.261 5244.36 L418.85 5244.36 L418.85 5209.98 L337.878 5209.98 L337.878 5162.87 Z" fill="#000000" fill-rule="evenodd" fill-opacity="1" /><path clip-path="url(#clip5000)" d="M 0 0 M418.85 5017.23 L418.85 4970.38 L704.033 4970.38 L704.033 5017.23 L418.85 5017.23 M307.832 5017.23 L307.832 4970.38 L367.16 4970.38 L367.16 5017.23 L307.832 5017.23 Z" fill="#000000" fill-rule="evenodd" fill-opacity="1" /><path clip-path="url(#clip5000)" d="M 0 0 M451.697 4810.72 Q451.697 4848.41 481.234 4870.31 Q510.516 4892.21 561.696 4892.21 Q612.876 4892.21 642.413 4870.56 Q671.695 4848.66 671.695 4810.72 Q671.695 4773.29 642.159 4751.4 Q612.622 4729.5 561.696 4729.5 Q511.025 4729.5 481.488 4751.4 Q451.697 4773.29 451.697 4810.72 M411.975 4810.72 Q411.975 4749.61 451.697 4714.73 Q491.419 4679.85 561.696 4679.85 Q631.719 4679.85 671.695 4714.73 Q711.417 4749.61 711.417 4810.72 Q711.417 4872.09 671.695 4906.97 Q631.719 4941.6 561.696 4941.6 Q491.419 4941.6 451.697 4906.97 Q411.975 4872.09 411.975 4810.72 Z" fill="#000000" fill-rule="evenodd" fill-opacity="1" /><polyline clip-path="url(#clip5002)" style="stroke:#009af9; stroke-width:32; stroke-opacity:1; fill:none" points="
  2387.6,1342.35 2713.23,1361.83 3038.86,1381.33 3364.49,1394.45 3690.11,1385.78 4015.74,1429.73 4341.37,1459.8 4667,1491.99 4992.63,1541.82 5318.25,1566.09 
  5643.88,1568.3 5969.51,1653.12 6295.14,1674.6 6620.77,1718.7 6946.39,1819.62 7272.02,1869.21 7597.65,1928.5 7923.28,2147.38 8248.91,2120.33 8574.53,2212.57 
  8900.16,2294.54 9225.79,2513.33 9551.42,2577.05 9877.05,2662 10202.7,2759.72 10528.3,2975.22 10853.9,3257.84 11179.6,3355.25 11505.2,3566.05 11830.8,3679.25 
  12156.4,4076.68 12482.1,4201.4 12807.7,4410.38 13133.3,4487.35 13459,4730.25 13784.6,4829.31 14110.2,5052.96 14435.8,5379.69 14761.5,5444.51 15087.1,5557.06 
  15412.7,5871.55 15738.4,5944.39 16064,5906.09 16389.6,6042.02 16715.2,6117.86 17040.9,6194.77 17366.5,6211.88 17692.1,6244.44 18017.7,6464.39 18343.4,6485.21 
  
  "/>
<polyline clip-path="url(#clip5002)" style="stroke:#e26f46; stroke-width:32; stroke-opacity:1; fill:none" points="
  2387.6,1323.37 2713.23,1361.76 3038.86,1333.24 3364.49,1373.53 3690.11,1375.13 4015.74,1452.15 4341.37,1424.61 4667,1520.58 4992.63,1506.37 5318.25,1571.1 
  5643.88,1673.39 5969.51,1712.04 6295.14,1822.4 6620.77,1955.53 6946.39,2237.74 7272.02,2142.67 7597.65,2310.03 7923.28,2621.98 8248.91,2690.8 8574.53,3207.03 
  8900.16,3437.69 9225.79,3592.35 9551.42,4008 9877.05,4386.99 10202.7,4626.41 10528.3,5086.75 10853.9,5431.27 11179.6,5967.45 11505.2,6120.78 11830.8,6791.21 
  12156.4,7275.16 12482.1,7167.23 12807.7,8081.2 13133.3,7825.26 13459,8107.34 13784.6,8016.94 14110.2,8152.54 14435.8,8427.09 14761.5,8418.82 15087.1,7835.27 
  15412.7,7946.06 15738.4,7946.96 16064,8097.03 16389.6,7517.97 16715.2,7626.98 17040.9,7441 17366.5,7064.16 17692.1,6970.15 18017.7,7363.78 18343.4,6880.26 
  
  "/>
<polyline clip-path="url(#clip5002)" style="stroke:#3da44d; stroke-width:32; stroke-opacity:1; fill:none" points="
  2387.6,1301.32 2713.23,1304.76 3038.86,1322.92 3364.49,1315.84 3690.11,1337.32 4015.74,1363.82 4341.37,1399.25 4667,1474.13 4992.63,1513.65 5318.25,1636.16 
  5643.88,1754.15 5969.51,1739.13 6295.14,1891.34 6620.77,2366 6946.39,2401.73 7272.02,2656.08 7597.65,2946.63 7923.28,3368.32 8248.91,3727.39 8574.53,4423.42 
  8900.16,5025.78 9225.79,5701.08 9551.42,6365.72 9877.05,6716.28 10202.7,7338.29 10528.3,8360.99 10853.9,8582.65 11179.6,8747.09 11505.2,9356.86 11830.8,9089.34 
  12156.4,9552.46 12482.1,9080.09 12807.7,9545.95 13133.3,9372.75 13459,8775.56 13784.6,8665.81 14110.2,8759.68 14435.8,8167.64 14761.5,7944.58 15087.1,7842.63 
  15412.7,8019.61 15738.4,7193.33 16064,6897.98 16389.6,6832.18 16715.2,7036.75 17040.9,6125.63 17366.5,6096.81 17692.1,6254.45 18017.7,5625.92 18343.4,5970.31 
  
  "/>
<polyline clip-path="url(#clip5002)" style="stroke:#c271d2; stroke-width:32; stroke-opacity:1; fill:none" points="
  2387.6,1294.26 2713.23,1289.55 3038.86,1302.46 3364.49,1315.18 3690.11,1329.32 4015.74,1363.14 4341.37,1383.12 4667,1394.11 4992.63,1481.85 5318.25,1633.71 
  5643.88,1623.62 5969.51,1902.1 6295.14,1975.36 6620.77,2197.77 6946.39,2515.22 7272.02,3139.38 7597.65,3767.71 7923.28,4470.81 8248.91,5043.24 8574.53,6645.54 
  8900.16,7158.15 9225.79,8077.93 9551.42,8557.4 9877.05,9457.45 10202.7,10151 10528.3,9578.07 10853.9,9868.48 11179.6,9950.72 11505.2,9998.8 11830.8,9571.94 
  12156.4,9883.51 12482.1,9077.32 12807.7,8948.39 13133.3,8661.58 13459,8727.88 13784.6,8286.11 14110.2,7872.29 14435.8,7509.61 14761.5,7973.16 15087.1,7196.12 
  15412.7,7026.91 15738.4,6829.72 16064,6393.33 16389.6,6256.81 16715.2,5979.07 17040.9,5984.95 17366.5,6214 17692.1,5882.55 18017.7,5848.36 18343.4,5309.01 
  
  "/>
<polyline clip-path="url(#clip5002)" style="stroke:#ac8d18; stroke-width:32; stroke-opacity:1; fill:none" points="
  2387.6,1282.05 2713.23,1285.77 3038.86,1300.07 3364.49,1334.27 3690.11,1306.99 4015.74,1343.14 4341.37,1346.27 4667,1407.22 4992.63,1457.52 5318.25,1572.42 
  5643.88,1696.14 5969.51,2082.81 6295.14,2029.46 6620.77,2641.06 6946.39,3284.31 7272.02,4029.68 7597.65,4749.78 7923.28,5523.56 8248.91,7054.09 8574.53,7874.72 
  8900.16,8722.74 9225.79,9155.3 9551.42,9658.2 9877.05,10914.6 10202.7,11091.2 10528.3,10626.8 10853.9,10108.4 11179.6,10030.3 11505.2,9310 11830.8,9284.94 
  12156.4,9069.91 12482.1,8201.49 12807.7,7990.52 13133.3,7611.98 13459,7310.86 13784.6,6968.14 14110.2,6790.94 14435.8,6700.99 14761.5,6122.14 15087.1,7172.22 
  15412.7,6301.12 15738.4,6288.05 16064,6011.67 16389.6,5691.64 16715.2,5699.76 17040.9,5608.12 17366.5,5293.04 17692.1,5286.24 18017.7,5419.66 18343.4,5099.06 
  
  "/>
<polyline clip-path="url(#clip5002)" style="stroke:#00a9ad; stroke-width:32; stroke-opacity:1; fill:none" points="
  2387.6,1282.18 2713.23,1288.08 3038.86,1300.68 3364.49,1297.08 3690.11,1310.54 4015.74,1332.98 4341.37,1343.74 4667,1367.25 4992.63,1523.56 5318.25,1473.35 
  5643.88,1748.81 5969.51,1865.65 6295.14,2331.3 6620.77,3186.6 6946.39,3047.26 7272.02,4498.17 7597.65,6610.42 7923.28,7323.86 8248.91,8466.42 8574.53,9540.91 
  8900.16,9767.17 9225.79,10267.4 9551.42,9782.43 9877.05,10781.4 10202.7,9619.78 10528.3,9582.2 10853.9,9505.56 11179.6,9777.2 11505.2,8821.74 11830.8,8344.5 
  12156.4,8118.18 12482.1,7957.3 12807.7,7540.46 13133.3,7652.43 13459,7672.83 13784.6,7193 14110.2,6551.82 14435.8,6304.49 14761.5,6452.04 15087.1,6237.18 
  15412.7,6293.99 15738.4,6118.31 16064,5910.45 16389.6,5869.43 16715.2,5728.3 17040.9,5392.37 17366.5,5116.4 17692.1,5188.74 18017.7,5031.45 18343.4,4987.56 
  
  "/>
<polyline clip-path="url(#clip5002)" style="stroke:#ed5d92; stroke-width:32; stroke-opacity:1; fill:none" points="
  2387.6,1421.05 2713.23,1478.26 3038.86,1477.51 3364.49,1493.08 3690.11,1512.39 4015.74,1556.69 4341.37,1614.49 4667,1651.76 4992.63,1685.2 5318.25,1724.31 
  5643.88,1779.26 5969.51,1844.15 6295.14,1864.61 6620.77,1896.15 6946.39,2005.27 7272.02,2036.24 7597.65,2157.12 7923.28,2275.47 8248.91,2273.63 8574.53,2481.54 
  8900.16,2578.83 9225.79,2703.16 9551.42,2809.57 9877.05,3143.81 10202.7,3187.12 10528.3,3311.53 10853.9,3647.59 11179.6,3959.36 11505.2,4156.92 11830.8,4409.28 
  12156.4,4469.34 12482.1,4837.87 12807.7,4829.96 13133.3,5034.48 13459,5257.52 13784.6,5612.65 14110.2,5918.86 14435.8,6323.96 14761.5,6520.76 15087.1,6636.65 
  15412.7,7288.53 15738.4,7481.15 16064,7427.65 16389.6,7797.17 16715.2,7907.15 17040.9,8478.8 17366.5,8364.23 17692.1,8607.6 18017.7,8575.08 18343.4,8860.66 
  
  "/>
<path clip-path="url(#clip5000)" d="
M2484.93 10233.4 L10052.9 10233.4 L10052.9 6362.72 L2484.93 6362.72  Z
  " fill="#ffffff" fill-rule="evenodd" fill-opacity="1"/>
<polyline clip-path="url(#clip5000)" style="stroke:#000000; stroke-width:32; stroke-opacity:1; fill:none" points="
  2484.93,10233.4 10052.9,10233.4 10052.9,6362.72 2484.93,6362.72 2484.93,10233.4 
  "/>
<polyline clip-path="url(#clip5000)" style="stroke:#009af9; stroke-width:32; stroke-opacity:1; fill:none" points="
  2676.93,6846.56 3828.93,6846.56 
  "/>
<path clip-path="url(#clip5000)" d="M 0 0 M4020.93 6708.32 L4058.34 6708.32 L4058.34 6953.32 L4192.97 6953.32 L4192.97 6984.8 L4020.93 6984.8 L4020.93 6708.32 Z" fill="#000000" fill-rule="evenodd" fill-opacity="1" /><path clip-path="url(#clip5000)" d="M 0 0 M4353.71 6812.58 L4591.11 6812.58 L4591.11 6843.69 L4353.71 6843.69 L4353.71 6812.58 M4353.71 6888.13 L4591.11 6888.13 L4591.11 6919.61 L4353.71 6919.61 L4353.71 6888.13 Z" fill="#000000" fill-rule="evenodd" fill-opacity="1" /><path clip-path="url(#clip5000)" d="M 0 0 M4836.85 6831.65 Q4811.67 6831.65 4796.85 6848.87 Q4782.22 6866.1 4782.22 6896.1 Q4782.22 6925.91 4796.85 6943.32 Q4811.67 6960.54 4836.85 6960.54 Q4862.04 6960.54 4876.67 6943.32 Q4891.48 6925.91 4891.48 6896.1 Q4891.48 6866.1 4876.67 6848.87 Q4862.04 6831.65 4836.85 6831.65 M4911.11 6714.43 L4911.11 6748.5 Q4897.04 6741.84 4882.59 6738.32 Q4868.33 6734.8 4854.26 6734.8 Q4817.22 6734.8 4797.59 6759.8 Q4778.15 6784.8 4775.37 6835.36 Q4786.3 6819.24 4802.78 6810.73 Q4819.26 6802.02 4839.07 6802.02 Q4880.74 6802.02 4904.81 6827.39 Q4929.07 6852.58 4929.07 6896.1 Q4929.07 6938.69 4903.89 6964.43 Q4878.7 6990.17 4836.85 6990.17 Q4788.89 6990.17 4763.52 6953.5 Q4738.15 6916.65 4738.15 6846.84 Q4738.15 6781.28 4769.26 6742.39 Q4800.37 6703.32 4852.78 6703.32 Q4866.85 6703.32 4881.11 6706.1 Q4895.55 6708.87 4911.11 6714.43 Z" fill="#000000" fill-rule="evenodd" fill-opacity="1" /><polyline clip-path="url(#clip5000)" style="stroke:#e26f46; stroke-width:32; stroke-opacity:1; fill:none" points="
  2676.93,7330.4 3828.93,7330.4 
  "/>
<path clip-path="url(#clip5000)" d="M 0 0 M4020.93 7192.16 L4058.34 7192.16 L4058.34 7437.16 L4192.97 7437.16 L4192.97 7468.64 L4020.93 7468.64 L4020.93 7192.16 Z" fill="#000000" fill-rule="evenodd" fill-opacity="1" /><path clip-path="url(#clip5000)" d="M 0 0 M4353.71 7296.42 L4591.11 7296.42 L4591.11 7327.53 L4353.71 7327.53 L4353.71 7296.42 M4353.71 7371.97 L4591.11 7371.97 L4591.11 7403.45 L4353.71 7403.45 L4353.71 7371.97 Z" fill="#000000" fill-rule="evenodd" fill-opacity="1" /><path clip-path="url(#clip5000)" d="M 0 0 M4832.22 7337.34 Q4805.55 7337.34 4790.18 7351.6 Q4775 7365.86 4775 7390.86 Q4775 7415.86 4790.18 7430.12 Q4805.55 7444.38 4832.22 7444.38 Q4858.89 7444.38 4874.26 7430.12 Q4889.63 7415.68 4889.63 7390.86 Q4889.63 7365.86 4874.26 7351.6 Q4859.07 7337.34 4832.22 7337.34 M4794.81 7321.42 Q4770.74 7315.49 4757.22 7299.01 Q4743.89 7282.53 4743.89 7258.83 Q4743.89 7225.68 4767.41 7206.42 Q4791.11 7187.16 4832.22 7187.16 Q4873.52 7187.16 4897.04 7206.42 Q4920.55 7225.68 4920.55 7258.83 Q4920.55 7282.53 4907.04 7299.01 Q4893.7 7315.49 4869.81 7321.42 Q4896.85 7327.71 4911.85 7346.05 Q4927.04 7364.38 4927.04 7390.86 Q4927.04 7431.05 4902.41 7452.53 Q4877.96 7474.01 4832.22 7474.01 Q4786.48 7474.01 4761.85 7452.53 Q4737.41 7431.05 4737.41 7390.86 Q4737.41 7364.38 4752.59 7346.05 Q4767.78 7327.71 4794.81 7321.42 M4781.11 7262.34 Q4781.11 7283.82 4794.44 7295.86 Q4807.96 7307.9 4832.22 7307.9 Q4856.3 7307.9 4869.81 7295.86 Q4883.52 7283.82 4883.52 7262.34 Q4883.52 7240.86 4869.81 7228.83 Q4856.3 7216.79 4832.22 7216.79 Q4807.96 7216.79 4794.44 7228.83 Q4781.11 7240.86 4781.11 7262.34 Z" fill="#000000" fill-rule="evenodd" fill-opacity="1" /><polyline clip-path="url(#clip5000)" style="stroke:#3da44d; stroke-width:32; stroke-opacity:1; fill:none" points="
  2676.93,7814.24 3828.93,7814.24 
  "/>
<path clip-path="url(#clip5000)" d="M 0 0 M4020.93 7676 L4058.34 7676 L4058.34 7921 L4192.97 7921 L4192.97 7952.48 L4020.93 7952.48 L4020.93 7676 Z" fill="#000000" fill-rule="evenodd" fill-opacity="1" /><path clip-path="url(#clip5000)" d="M 0 0 M4353.71 7780.26 L4591.11 7780.26 L4591.11 7811.37 L4353.71 7811.37 L4353.71 7780.26 M4353.71 7855.81 L4591.11 7855.81 L4591.11 7887.29 L4353.71 7887.29 L4353.71 7855.81 Z" fill="#000000" fill-rule="evenodd" fill-opacity="1" /><path clip-path="url(#clip5000)" d="M 0 0 M4758.7 7921 L4819.81 7921 L4819.81 7710.07 L4753.33 7723.41 L4753.33 7689.33 L4819.44 7676 L4856.85 7676 L4856.85 7921 L4917.96 7921 L4917.96 7952.48 L4758.7 7952.48 L4758.7 7921 Z" fill="#000000" fill-rule="evenodd" fill-opacity="1" /><path clip-path="url(#clip5000)" d="M 0 0 M5038.52 7700.63 Q5009.63 7700.63 4995 7729.15 Q4980.55 7757.48 4980.55 7814.52 Q4980.55 7871.37 4995 7899.89 Q5009.63 7928.22 5038.52 7928.22 Q5067.59 7928.22 5082.03 7899.89 Q5096.66 7871.37 5096.66 7814.52 Q5096.66 7757.48 5082.03 7729.15 Q5067.59 7700.63 5038.52 7700.63 M5038.52 7671 Q5085 7671 5109.44 7707.85 Q5134.07 7744.52 5134.07 7814.52 Q5134.07 7884.33 5109.44 7921.18 Q5085 7957.85 5038.52 7957.85 Q4992.04 7957.85 4967.41 7921.18 Q4942.96 7884.33 4942.96 7814.52 Q4942.96 7744.52 4967.41 7707.85 Q4992.04 7671 5038.52 7671 Z" fill="#000000" fill-rule="evenodd" fill-opacity="1" /><polyline clip-path="url(#clip5000)" style="stroke:#c271d2; stroke-width:32; stroke-opacity:1; fill:none" points="
  2676.93,8298.08 3828.93,8298.08 
  "/>
<path clip-path="url(#clip5000)" d="M 0 0 M4020.93 8159.84 L4058.34 8159.84 L4058.34 8404.84 L4192.97 8404.84 L4192.97 8436.32 L4020.93 8436.32 L4020.93 8159.84 Z" fill="#000000" fill-rule="evenodd" fill-opacity="1" /><path clip-path="url(#clip5000)" d="M 0 0 M4353.71 8264.1 L4591.11 8264.1 L4591.11 8295.21 L4353.71 8295.21 L4353.71 8264.1 M4353.71 8339.65 L4591.11 8339.65 L4591.11 8371.13 L4353.71 8371.13 L4353.71 8339.65 Z" fill="#000000" fill-rule="evenodd" fill-opacity="1" /><path clip-path="url(#clip5000)" d="M 0 0 M4758.7 8404.84 L4819.81 8404.84 L4819.81 8193.91 L4753.33 8207.25 L4753.33 8173.17 L4819.44 8159.84 L4856.85 8159.84 L4856.85 8404.84 L4917.96 8404.84 L4917.96 8436.32 L4758.7 8436.32 L4758.7 8404.84 Z" fill="#000000" fill-rule="evenodd" fill-opacity="1" /><path clip-path="url(#clip5000)" d="M 0 0 M4990.74 8404.84 L5121.29 8404.84 L5121.29 8436.32 L4945.74 8436.32 L4945.74 8404.84 Q4967.04 8382.8 5003.7 8345.76 Q5040.55 8308.54 5050 8297.8 Q5067.96 8277.62 5075 8263.73 Q5082.22 8249.65 5082.22 8236.13 Q5082.22 8214.1 5066.66 8200.21 Q5051.29 8186.32 5026.48 8186.32 Q5008.89 8186.32 4989.26 8192.43 Q4969.81 8198.54 4947.59 8210.95 L4947.59 8173.17 Q4970.18 8164.1 4989.81 8159.47 Q5009.44 8154.84 5025.74 8154.84 Q5068.7 8154.84 5094.26 8176.32 Q5119.81 8197.8 5119.81 8233.73 Q5119.81 8250.76 5113.33 8266.13 Q5107.03 8281.32 5090.18 8302.06 Q5085.55 8307.43 5060.74 8333.17 Q5035.92 8358.73 4990.74 8404.84 Z" fill="#000000" fill-rule="evenodd" fill-opacity="1" /><polyline clip-path="url(#clip5000)" style="stroke:#ac8d18; stroke-width:32; stroke-opacity:1; fill:none" points="
  2676.93,8781.92 3828.93,8781.92 
  "/>
<path clip-path="url(#clip5000)" d="M 0 0 M4020.93 8643.68 L4058.34 8643.68 L4058.34 8888.68 L4192.97 8888.68 L4192.97 8920.16 L4020.93 8920.16 L4020.93 8643.68 Z" fill="#000000" fill-rule="evenodd" fill-opacity="1" /><path clip-path="url(#clip5000)" d="M 0 0 M4353.71 8747.94 L4591.11 8747.94 L4591.11 8779.05 L4353.71 8779.05 L4353.71 8747.94 M4353.71 8823.49 L4591.11 8823.49 L4591.11 8854.97 L4353.71 8854.97 L4353.71 8823.49 Z" fill="#000000" fill-rule="evenodd" fill-opacity="1" /><path clip-path="url(#clip5000)" d="M 0 0 M4758.7 8888.68 L4819.81 8888.68 L4819.81 8677.75 L4753.33 8691.09 L4753.33 8657.01 L4819.44 8643.68 L4856.85 8643.68 L4856.85 8888.68 L4917.96 8888.68 L4917.96 8920.16 L4758.7 8920.16 L4758.7 8888.68 Z" fill="#000000" fill-rule="evenodd" fill-opacity="1" /><path clip-path="url(#clip5000)" d="M 0 0 M5061.29 8676.27 L4966.85 8823.86 L5061.29 8823.86 L5061.29 8676.27 M5051.48 8643.68 L5098.52 8643.68 L5098.52 8823.86 L5137.96 8823.86 L5137.96 8854.97 L5098.52 8854.97 L5098.52 8920.16 L5061.29 8920.16 L5061.29 8854.97 L4936.48 8854.97 L4936.48 8818.86 L5051.48 8643.68 Z" fill="#000000" fill-rule="evenodd" fill-opacity="1" /><polyline clip-path="url(#clip5000)" style="stroke:#00a9ad; stroke-width:32; stroke-opacity:1; fill:none" points="
  2676.93,9265.76 3828.93,9265.76 
  "/>
<path clip-path="url(#clip5000)" d="M 0 0 M4020.93 9127.52 L4058.34 9127.52 L4058.34 9372.52 L4192.97 9372.52 L4192.97 9404 L4020.93 9404 L4020.93 9127.52 Z" fill="#000000" fill-rule="evenodd" fill-opacity="1" /><path clip-path="url(#clip5000)" d="M 0 0 M4353.71 9231.78 L4591.11 9231.78 L4591.11 9262.89 L4353.71 9262.89 L4353.71 9231.78 M4353.71 9307.33 L4591.11 9307.33 L4591.11 9338.81 L4353.71 9338.81 L4353.71 9307.33 Z" fill="#000000" fill-rule="evenodd" fill-opacity="1" /><path clip-path="url(#clip5000)" d="M 0 0 M4758.7 9372.52 L4819.81 9372.52 L4819.81 9161.59 L4753.33 9174.93 L4753.33 9140.85 L4819.44 9127.52 L4856.85 9127.52 L4856.85 9372.52 L4917.96 9372.52 L4917.96 9404 L4758.7 9404 L4758.7 9372.52 Z" fill="#000000" fill-rule="evenodd" fill-opacity="1" /><path clip-path="url(#clip5000)" d="M 0 0 M5043.15 9250.85 Q5017.96 9250.85 5003.15 9268.07 Q4988.52 9285.3 4988.52 9315.3 Q4988.52 9345.11 5003.15 9362.52 Q5017.96 9379.74 5043.15 9379.74 Q5068.33 9379.74 5082.96 9362.52 Q5097.78 9345.11 5097.78 9315.3 Q5097.78 9285.3 5082.96 9268.07 Q5068.33 9250.85 5043.15 9250.85 M5117.4 9133.63 L5117.4 9167.7 Q5103.33 9161.04 5088.89 9157.52 Q5074.63 9154 5060.55 9154 Q5023.52 9154 5003.89 9179 Q4984.44 9204 4981.66 9254.56 Q4992.59 9238.44 5009.07 9229.93 Q5025.55 9221.22 5045.37 9221.22 Q5087.03 9221.22 5111.11 9246.59 Q5135.37 9271.78 5135.37 9315.3 Q5135.37 9357.89 5110.18 9383.63 Q5085 9409.37 5043.15 9409.37 Q4995.18 9409.37 4969.81 9372.7 Q4944.44 9335.85 4944.44 9266.04 Q4944.44 9200.48 4975.55 9161.59 Q5006.66 9122.52 5059.07 9122.52 Q5073.15 9122.52 5087.41 9125.3 Q5101.85 9128.07 5117.4 9133.63 Z" fill="#000000" fill-rule="evenodd" fill-opacity="1" /><polyline clip-path="url(#clip5000)" style="stroke:#ed5d92; stroke-width:32; stroke-opacity:1; fill:none" points="
  2676.93,9749.6 3828.93,9749.6 
  "/>
<path clip-path="url(#clip5000)" d="M 0 0 M4020.93 9611.36 L4076.67 9611.36 L4147.22 9799.51 L4218.15 9611.36 L4273.89 9611.36 L4273.89 9887.84 L4237.41 9887.84 L4237.41 9645.06 L4166.11 9834.69 L4128.52 9834.69 L4057.23 9645.06 L4057.23 9887.84 L4020.93 9887.84 L4020.93 9611.36 Z" fill="#000000" fill-rule="evenodd" fill-opacity="1" /><path clip-path="url(#clip5000)" d="M 0 0 M4403.89 9783.58 Q4362.59 9783.58 4346.67 9793.02 Q4330.74 9802.47 4330.74 9825.25 Q4330.74 9843.39 4342.59 9854.14 Q4354.63 9864.69 4375.19 9864.69 Q4403.52 9864.69 4420.56 9844.69 Q4437.78 9824.51 4437.78 9791.17 L4437.78 9783.58 L4403.89 9783.58 M4471.85 9769.51 L4471.85 9887.84 L4437.78 9887.84 L4437.78 9856.36 Q4426.11 9875.25 4408.71 9884.32 Q4391.3 9893.21 4366.11 9893.21 Q4334.26 9893.21 4315.37 9875.43 Q4296.67 9857.47 4296.67 9827.47 Q4296.67 9792.47 4320 9774.69 Q4343.52 9756.91 4390 9756.91 L4437.78 9756.91 L4437.78 9753.58 Q4437.78 9730.06 4422.22 9717.28 Q4406.85 9704.32 4378.89 9704.32 Q4361.11 9704.32 4344.26 9708.58 Q4327.41 9712.84 4311.85 9721.36 L4311.85 9689.88 Q4330.56 9682.65 4348.15 9679.14 Q4365.74 9675.43 4382.41 9675.43 Q4427.41 9675.43 4449.63 9698.77 Q4471.85 9722.1 4471.85 9769.51 Z" fill="#000000" fill-rule="evenodd" fill-opacity="1" /><path clip-path="url(#clip5000)" d="M 0 0 M4680 9680.43 L4605 9781.36 L4683.89 9887.84 L4643.7 9887.84 L4583.33 9806.36 L4522.96 9887.84 L4482.78 9887.84 L4563.33 9779.32 L4489.63 9680.43 L4529.82 9680.43 L4584.82 9754.32 L4639.81 9680.43 L4680 9680.43 Z" fill="#000000" fill-rule="evenodd" fill-opacity="1" /><path clip-path="url(#clip5000)" d="M 0 0 M4751.85 9611.36 L4751.85 9714.14 L4720.37 9714.14 L4720.37 9611.36 L4751.85 9611.36 Z" fill="#000000" fill-rule="evenodd" fill-opacity="1" /><path clip-path="url(#clip5000)" d="M 0 0 M4919.81 9686.54 L4919.81 9718.77 Q4905.37 9711.36 4889.81 9707.65 Q4874.26 9703.95 4857.59 9703.95 Q4832.22 9703.95 4819.44 9711.73 Q4806.85 9719.51 4806.85 9735.06 Q4806.85 9746.91 4815.93 9753.77 Q4825 9760.43 4852.41 9766.54 L4864.07 9769.14 Q4900.37 9776.91 4915.55 9791.17 Q4930.92 9805.25 4930.92 9830.62 Q4930.92 9859.51 4907.96 9876.36 Q4885.18 9893.21 4845.18 9893.21 Q4828.52 9893.21 4810.37 9889.88 Q4792.41 9886.73 4772.41 9880.25 L4772.41 9845.06 Q4791.3 9854.88 4809.63 9859.88 Q4827.96 9864.69 4845.92 9864.69 Q4870 9864.69 4882.96 9856.54 Q4895.92 9848.21 4895.92 9833.21 Q4895.92 9819.32 4886.48 9811.91 Q4877.22 9804.51 4845.55 9797.65 L4833.7 9794.88 Q4802.04 9788.21 4787.96 9774.51 Q4773.89 9760.62 4773.89 9736.54 Q4773.89 9707.28 4794.63 9691.36 Q4815.37 9675.43 4853.52 9675.43 Q4872.41 9675.43 4889.07 9678.21 Q4905.74 9680.99 4919.81 9686.54 Z" fill="#000000" fill-rule="evenodd" fill-opacity="1" /><path clip-path="url(#clip5000)" d="M 0 0 M5236.48 9688.4 L5236.48 9720.25 Q5222.03 9712.28 5207.4 9708.4 Q5192.96 9704.32 5178.15 9704.32 Q5145 9704.32 5126.66 9725.43 Q5108.33 9746.36 5108.33 9784.32 Q5108.33 9822.28 5126.66 9843.39 Q5145 9864.32 5178.15 9864.32 Q5192.96 9864.32 5207.4 9860.43 Q5222.03 9856.36 5236.48 9848.39 L5236.48 9879.88 Q5222.22 9886.54 5206.85 9889.88 Q5191.66 9893.21 5174.44 9893.21 Q5127.59 9893.21 5100 9863.76 Q5072.41 9834.32 5072.41 9784.32 Q5072.41 9733.58 5100.18 9704.51 Q5128.15 9675.43 5176.66 9675.43 Q5192.4 9675.43 5207.4 9678.77 Q5222.4 9681.91 5236.48 9688.4 Z" fill="#000000" fill-rule="evenodd" fill-opacity="1" /><path clip-path="url(#clip5000)" d="M 0 0 M5366.48 9783.58 Q5325.18 9783.58 5309.26 9793.02 Q5293.33 9802.47 5293.33 9825.25 Q5293.33 9843.39 5305.18 9854.14 Q5317.22 9864.69 5337.77 9864.69 Q5366.11 9864.69 5383.14 9844.69 Q5400.37 9824.51 5400.37 9791.17 L5400.37 9783.58 L5366.48 9783.58 M5434.44 9769.51 L5434.44 9887.84 L5400.37 9887.84 L5400.37 9856.36 Q5388.7 9875.25 5371.29 9884.32 Q5353.89 9893.21 5328.7 9893.21 Q5296.85 9893.21 5277.96 9875.43 Q5259.26 9857.47 5259.26 9827.47 Q5259.26 9792.47 5282.59 9774.69 Q5306.11 9756.91 5352.59 9756.91 L5400.37 9756.91 L5400.37 9753.58 Q5400.37 9730.06 5384.81 9717.28 Q5369.44 9704.32 5341.48 9704.32 Q5323.7 9704.32 5306.85 9708.58 Q5290 9712.84 5274.44 9721.36 L5274.44 9689.88 Q5293.14 9682.65 5310.74 9679.14 Q5328.33 9675.43 5345 9675.43 Q5390 9675.43 5412.22 9698.77 Q5434.44 9722.1 5434.44 9769.51 Z" fill="#000000" fill-rule="evenodd" fill-opacity="1" /><path clip-path="url(#clip5000)" d="M 0 0 M5470.18 9599.69 L5504.25 9599.69 L5504.25 9887.84 L5470.18 9887.84 L5470.18 9599.69 Z" fill="#000000" fill-rule="evenodd" fill-opacity="1" /><path clip-path="url(#clip5000)" d="M 0 0 M5689.25 9688.4 L5689.25 9720.25 Q5674.81 9712.28 5660.18 9708.4 Q5645.74 9704.32 5630.92 9704.32 Q5597.77 9704.32 5579.44 9725.43 Q5561.11 9746.36 5561.11 9784.32 Q5561.11 9822.28 5579.44 9843.39 Q5597.77 9864.32 5630.92 9864.32 Q5645.74 9864.32 5660.18 9860.43 Q5674.81 9856.36 5689.25 9848.39 L5689.25 9879.88 Q5674.99 9886.54 5659.62 9889.88 Q5644.44 9893.21 5627.22 9893.21 Q5580.37 9893.21 5552.77 9863.76 Q5525.18 9834.32 5525.18 9784.32 Q5525.18 9733.58 5552.96 9704.51 Q5580.92 9675.43 5629.44 9675.43 Q5645.18 9675.43 5660.18 9678.77 Q5675.18 9681.91 5689.25 9688.4 Z" fill="#000000" fill-rule="evenodd" fill-opacity="1" /><path clip-path="url(#clip5000)" d="M 0 0 M5721.48 9805.99 L5721.48 9680.43 L5755.55 9680.43 L5755.55 9804.69 Q5755.55 9834.14 5767.03 9848.95 Q5778.51 9863.58 5801.48 9863.58 Q5829.07 9863.58 5844.99 9845.99 Q5861.1 9828.39 5861.1 9798.02 L5861.1 9680.43 L5895.18 9680.43 L5895.18 9887.84 L5861.1 9887.84 L5861.1 9855.99 Q5848.7 9874.88 5832.22 9884.14 Q5815.92 9893.21 5794.25 9893.21 Q5758.51 9893.21 5739.99 9870.99 Q5721.48 9848.76 5721.48 9805.99 M5807.22 9675.43 L5807.22 9675.43 Z" fill="#000000" fill-rule="evenodd" fill-opacity="1" /><path clip-path="url(#clip5000)" d="M 0 0 M5930.92 9599.69 L5964.99 9599.69 L5964.99 9887.84 L5930.92 9887.84 L5930.92 9599.69 Z" fill="#000000" fill-rule="evenodd" fill-opacity="1" /><path clip-path="url(#clip5000)" d="M 0 0 M6094.99 9783.58 Q6053.7 9783.58 6037.77 9793.02 Q6021.84 9802.47 6021.84 9825.25 Q6021.84 9843.39 6033.7 9854.14 Q6045.73 9864.69 6066.29 9864.69 Q6094.62 9864.69 6111.66 9844.69 Q6128.88 9824.51 6128.88 9791.17 L6128.88 9783.58 L6094.99 9783.58 M6162.95 9769.51 L6162.95 9887.84 L6128.88 9887.84 L6128.88 9856.36 Q6117.21 9875.25 6099.81 9884.32 Q6082.4 9893.21 6057.21 9893.21 Q6025.36 9893.21 6006.47 9875.43 Q5987.77 9857.47 5987.77 9827.47 Q5987.77 9792.47 6011.1 9774.69 Q6034.62 9756.91 6081.1 9756.91 L6128.88 9756.91 L6128.88 9753.58 Q6128.88 9730.06 6113.33 9717.28 Q6097.96 9704.32 6069.99 9704.32 Q6052.21 9704.32 6035.36 9708.58 Q6018.51 9712.84 6002.96 9721.36 L6002.96 9689.88 Q6021.66 9682.65 6039.25 9679.14 Q6056.84 9675.43 6073.51 9675.43 Q6118.51 9675.43 6140.73 9698.77 Q6162.95 9722.1 6162.95 9769.51 Z" fill="#000000" fill-rule="evenodd" fill-opacity="1" /><path clip-path="url(#clip5000)" d="M 0 0 M6232.4 9621.54 L6232.4 9680.43 L6302.58 9680.43 L6302.58 9706.91 L6232.4 9706.91 L6232.4 9819.51 Q6232.4 9844.88 6239.25 9852.1 Q6246.29 9859.32 6267.58 9859.32 L6302.58 9859.32 L6302.58 9887.84 L6267.58 9887.84 Q6228.14 9887.84 6213.14 9873.21 Q6198.14 9858.39 6198.14 9819.51 L6198.14 9706.91 L6173.14 9706.91 L6173.14 9680.43 L6198.14 9680.43 L6198.14 9621.54 L6232.4 9621.54 Z" fill="#000000" fill-rule="evenodd" fill-opacity="1" /><path clip-path="url(#clip5000)" d="M 0 0 M6338.32 9680.43 L6372.4 9680.43 L6372.4 9887.84 L6338.32 9887.84 L6338.32 9680.43 M6338.32 9599.69 L6372.4 9599.69 L6372.4 9642.84 L6338.32 9642.84 L6338.32 9599.69 Z" fill="#000000" fill-rule="evenodd" fill-opacity="1" /><path clip-path="url(#clip5000)" d="M 0 0 M6488.51 9704.32 Q6461.1 9704.32 6445.18 9725.8 Q6429.25 9747.1 6429.25 9784.32 Q6429.25 9821.54 6444.99 9843.02 Q6460.92 9864.32 6488.51 9864.32 Q6515.73 9864.32 6531.66 9842.84 Q6547.58 9821.36 6547.58 9784.32 Q6547.58 9747.47 6531.66 9725.99 Q6515.73 9704.32 6488.51 9704.32 M6488.51 9675.43 Q6532.95 9675.43 6558.32 9704.32 Q6583.69 9733.21 6583.69 9784.32 Q6583.69 9835.25 6558.32 9864.32 Q6532.95 9893.21 6488.51 9893.21 Q6443.88 9893.21 6418.51 9864.32 Q6393.32 9835.25 6393.32 9784.32 Q6393.32 9733.21 6418.51 9704.32 Q6443.88 9675.43 6488.51 9675.43 Z" fill="#000000" fill-rule="evenodd" fill-opacity="1" /><path clip-path="url(#clip5000)" d="M 0 0 M6791.84 9762.65 L6791.84 9887.84 L6757.77 9887.84 L6757.77 9763.77 Q6757.77 9734.32 6746.29 9719.69 Q6734.8 9705.06 6711.84 9705.06 Q6684.25 9705.06 6668.32 9722.65 Q6652.4 9740.25 6652.4 9770.62 L6652.4 9887.84 L6618.14 9887.84 L6618.14 9680.43 L6652.4 9680.43 L6652.4 9712.65 Q6664.62 9693.95 6681.1 9684.69 Q6697.77 9675.43 6719.43 9675.43 Q6755.17 9675.43 6773.51 9697.65 Q6791.84 9719.69 6791.84 9762.65 Z" fill="#000000" fill-rule="evenodd" fill-opacity="1" /><path clip-path="url(#clip5000)" d="M 0 0 M6836.28 9840.8 L6875.36 9840.8 L6875.36 9872.65 L6844.99 9931.91 L6821.1 9931.91 L6836.28 9872.65 L6836.28 9840.8 Z" fill="#000000" fill-rule="evenodd" fill-opacity="1" /><path clip-path="url(#clip5000)" d="M 0 0 M7033.14 9611.36 L7070.54 9611.36 L7070.54 9868.58 Q7070.54 9918.58 7051.47 9941.17 Q7032.58 9963.76 6990.54 9963.76 L6976.28 9963.76 L6976.28 9932.28 L6987.95 9932.28 Q7012.77 9932.28 7022.95 9918.39 Q7033.14 9904.51 7033.14 9868.58 L7033.14 9611.36 Z" fill="#000000" fill-rule="evenodd" fill-opacity="1" /><path clip-path="url(#clip5000)" d="M 0 0 M7117.58 9856.36 L7178.69 9856.36 L7178.69 9645.43 L7112.21 9658.77 L7112.21 9624.69 L7178.32 9611.36 L7215.73 9611.36 L7215.73 9856.36 L7276.84 9856.36 L7276.84 9887.84 L7117.58 9887.84 L7117.58 9856.36 Z" fill="#000000" fill-rule="evenodd" fill-opacity="1" /><path clip-path="url(#clip5000)" d="M 0 0 M7437.58 9715.62 L7674.98 9715.62 L7674.98 9746.73 L7437.58 9746.73 L7437.58 9715.62 M7437.58 9791.17 L7674.98 9791.17 L7674.98 9822.65 L7437.58 9822.65 L7437.58 9791.17 Z" fill="#000000" fill-rule="evenodd" fill-opacity="1" /><path clip-path="url(#clip5000)" d="M 0 0 M7916.09 9635.99 Q7887.2 9635.99 7872.58 9664.51 Q7858.13 9692.84 7858.13 9749.88 Q7858.13 9806.73 7872.58 9835.25 Q7887.2 9863.58 7916.09 9863.58 Q7945.17 9863.58 7959.61 9835.25 Q7974.24 9806.73 7974.24 9749.88 Q7974.24 9692.84 7959.61 9664.51 Q7945.17 9635.99 7916.09 9635.99 M7916.09 9606.36 Q7962.57 9606.36 7987.02 9643.21 Q8011.65 9679.88 8011.65 9749.88 Q8011.65 9819.69 7987.02 9856.54 Q7962.57 9893.21 7916.09 9893.21 Q7869.61 9893.21 7844.98 9856.54 Q7820.54 9819.69 7820.54 9749.88 Q7820.54 9679.88 7844.98 9643.21 Q7869.61 9606.36 7916.09 9606.36 Z" fill="#000000" fill-rule="evenodd" fill-opacity="1" /><path clip-path="url(#clip5000)" d="M 0 0 M8052.2 9840.8 L8091.28 9840.8 L8091.28 9887.84 L8052.2 9887.84 L8052.2 9840.8 Z" fill="#000000" fill-rule="evenodd" fill-opacity="1" /><path clip-path="url(#clip5000)" d="M 0 0 M8234.61 9643.95 L8140.17 9791.54 L8234.61 9791.54 L8234.61 9643.95 M8224.8 9611.36 L8271.83 9611.36 L8271.83 9791.54 L8311.28 9791.54 L8311.28 9822.65 L8271.83 9822.65 L8271.83 9887.84 L8234.61 9887.84 L8234.61 9822.65 L8109.8 9822.65 L8109.8 9786.54 L8224.8 9611.36 Z" fill="#000000" fill-rule="evenodd" fill-opacity="1" /><path clip-path="url(#clip5000)" d="M 0 0 M8352.2 9611.36 L8499.05 9611.36 L8499.05 9642.84 L8386.46 9642.84 L8386.46 9710.62 Q8394.61 9707.84 8402.76 9706.54 Q8410.91 9705.06 8419.05 9705.06 Q8465.35 9705.06 8492.39 9730.43 Q8519.42 9755.8 8519.42 9799.14 Q8519.42 9843.76 8491.65 9868.58 Q8463.87 9893.21 8413.31 9893.21 Q8395.91 9893.21 8377.76 9890.25 Q8359.79 9887.28 8340.54 9881.36 L8340.54 9843.76 Q8357.2 9852.84 8374.98 9857.28 Q8392.76 9861.73 8412.57 9861.73 Q8444.61 9861.73 8463.31 9844.88 Q8482.02 9828.02 8482.02 9799.14 Q8482.02 9770.25 8463.31 9753.4 Q8444.61 9736.54 8412.57 9736.54 Q8397.57 9736.54 8382.57 9739.88 Q8367.76 9743.21 8352.2 9750.25 L8352.2 9611.36 Z" fill="#000000" fill-rule="evenodd" fill-opacity="1" /><path clip-path="url(#clip5000)" d="M 0 0 M8563.87 9840.8 L8602.94 9840.8 L8602.94 9872.65 L8572.57 9931.91 L8548.68 9931.91 L8563.87 9872.65 L8563.87 9840.8 Z" fill="#000000" fill-rule="evenodd" fill-opacity="1" /><path clip-path="url(#clip5000)" d="M 0 0 M8760.72 9611.36 L8798.13 9611.36 L8798.13 9856.36 L8932.75 9856.36 L8932.75 9887.84 L8760.72 9887.84 L8760.72 9611.36 Z" fill="#000000" fill-rule="evenodd" fill-opacity="1" /><path clip-path="url(#clip5000)" d="M 0 0 M9093.49 9715.62 L9330.9 9715.62 L9330.9 9746.73 L9093.49 9746.73 L9093.49 9715.62 M9093.49 9791.17 L9330.9 9791.17 L9330.9 9822.65 L9093.49 9822.65 L9093.49 9791.17 Z" fill="#000000" fill-rule="evenodd" fill-opacity="1" /><path clip-path="url(#clip5000)" d="M 0 0 M9576.64 9734.69 Q9551.46 9734.69 9536.64 9751.91 Q9522.01 9769.14 9522.01 9799.14 Q9522.01 9828.95 9536.64 9846.36 Q9551.46 9863.58 9576.64 9863.58 Q9601.83 9863.58 9616.45 9846.36 Q9631.27 9828.95 9631.27 9799.14 Q9631.27 9769.14 9616.45 9751.91 Q9601.83 9734.69 9576.64 9734.69 M9650.9 9617.47 L9650.9 9651.54 Q9636.83 9644.88 9622.38 9641.36 Q9608.12 9637.84 9594.05 9637.84 Q9557.01 9637.84 9537.38 9662.84 Q9517.94 9687.84 9515.16 9738.4 Q9526.09 9722.28 9542.57 9713.77 Q9559.05 9705.06 9578.86 9705.06 Q9620.53 9705.06 9644.6 9730.43 Q9668.86 9755.62 9668.86 9799.14 Q9668.86 9841.73 9643.68 9867.47 Q9618.49 9893.21 9576.64 9893.21 Q9528.68 9893.21 9503.31 9856.54 Q9477.94 9819.69 9477.94 9749.88 Q9477.94 9684.32 9509.05 9645.43 Q9540.16 9606.36 9592.57 9606.36 Q9606.64 9606.36 9620.9 9609.14 Q9635.34 9611.91 9650.9 9617.47 Z" fill="#000000" fill-rule="evenodd" fill-opacity="1" /></svg>
