<?xml version="1.0" encoding="utf-8"?>
<svg xmlns="http://www.w3.org/2000/svg" xmlns:xlink="http://www.w3.org/1999/xlink" width="4800" height="3200" viewBox="0 0 19200 12800">
<defs>
  <clipPath id="clip4600">
    <rect x="0" y="0" width="19200" height="12800"/>
  </clipPath>
</defs>
<path clip-path="url(#clip4600)" d="
M0 12800 L19200 12800 L19200 0 L0 0  Z
  " fill="#ffffff" fill-rule="evenodd" fill-opacity="1"/>
<defs>
  <clipPath id="clip4601">
    <rect x="3840" y="0" width="13441" height="12800"/>
  </clipPath>
</defs>
<path clip-path="url(#clip4600)" d="
M1692.82 11385.4 L18822 11385.4 L18822 987.777 L1692.82 987.777  Z
  " fill="#ffffff" fill-rule="evenodd" fill-opacity="1"/>
<defs>
  <clipPath id="clip4602">
    <rect x="1692" y="987" width="17130" height="10399"/>
  </clipPath>
</defs>
<polyline clip-path="url(#clip4602)" style="stroke:#000000; stroke-width:16; stroke-opacity:0.1; fill:none" points="
  2177.61,11385.4 2177.61,987.777 
  "/>
<polyline clip-path="url(#clip4602)" style="stroke:#000000; stroke-width:16; stroke-opacity:0.1; fill:none" points="
  5850.26,11385.4 5850.26,987.777 
  "/>
<polyline clip-path="url(#clip4602)" style="stroke:#000000; stroke-width:16; stroke-opacity:0.1; fill:none" points="
  9522.9,11385.4 9522.9,987.777 
  "/>
<polyline clip-path="url(#clip4602)" style="stroke:#000000; stroke-width:16; stroke-opacity:0.1; fill:none" points="
  13195.6,11385.4 13195.6,987.777 
  "/>
<polyline clip-path="url(#clip4602)" style="stroke:#000000; stroke-width:16; stroke-opacity:0.1; fill:none" points="
  16868.2,11385.4 16868.2,987.777 
  "/>
<polyline clip-path="url(#clip4602)" style="stroke:#000000; stroke-width:16; stroke-opacity:0.1; fill:none" points="
  1692.82,10061.4 18822,10061.4 
  "/>
<polyline clip-path="url(#clip4602)" style="stroke:#000000; stroke-width:16; stroke-opacity:0.1; fill:none" points="
  1692.82,8179 18822,8179 
  "/>
<polyline clip-path="url(#clip4602)" style="stroke:#000000; stroke-width:16; stroke-opacity:0.1; fill:none" points="
  1692.82,6296.56 18822,6296.56 
  "/>
<polyline clip-path="url(#clip4602)" style="stroke:#000000; stroke-width:16; stroke-opacity:0.1; fill:none" points="
  1692.82,4414.12 18822,4414.12 
  "/>
<polyline clip-path="url(#clip4602)" style="stroke:#000000; stroke-width:16; stroke-opacity:0.1; fill:none" points="
  1692.82,2531.68 18822,2531.68 
  "/>
<polyline clip-path="url(#clip4600)" style="stroke:#000000; stroke-width:32; stroke-opacity:1; fill:none" points="
  1692.82,11385.4 18822,11385.4 
  "/>
<polyline clip-path="url(#clip4600)" style="stroke:#000000; stroke-width:32; stroke-opacity:1; fill:none" points="
  1692.82,11385.4 1692.82,987.777 
  "/>
<polyline clip-path="url(#clip4600)" style="stroke:#000000; stroke-width:32; stroke-opacity:1; fill:none" points="
  2177.61,11385.4 2177.61,11260.7 
  "/>
<polyline clip-path="url(#clip4600)" style="stroke:#000000; stroke-width:32; stroke-opacity:1; fill:none" points="
  5850.26,11385.4 5850.26,11260.7 
  "/>
<polyline clip-path="url(#clip4600)" style="stroke:#000000; stroke-width:32; stroke-opacity:1; fill:none" points="
  9522.9,11385.4 9522.9,11260.7 
  "/>
<polyline clip-path="url(#clip4600)" style="stroke:#000000; stroke-width:32; stroke-opacity:1; fill:none" points="
  13195.6,11385.4 13195.6,11260.7 
  "/>
<polyline clip-path="url(#clip4600)" style="stroke:#000000; stroke-width:32; stroke-opacity:1; fill:none" points="
  16868.2,11385.4 16868.2,11260.7 
  "/>
<polyline clip-path="url(#clip4600)" style="stroke:#000000; stroke-width:32; stroke-opacity:1; fill:none" points="
  1692.82,10061.4 1898.37,10061.4 
  "/>
<polyline clip-path="url(#clip4600)" style="stroke:#000000; stroke-width:32; stroke-opacity:1; fill:none" points="
  1692.82,8179 1898.37,8179 
  "/>
<polyline clip-path="url(#clip4600)" style="stroke:#000000; stroke-width:32; stroke-opacity:1; fill:none" points="
  1692.82,6296.56 1898.37,6296.56 
  "/>
<polyline clip-path="url(#clip4600)" style="stroke:#000000; stroke-width:32; stroke-opacity:1; fill:none" points="
  1692.82,4414.12 1898.37,4414.12 
  "/>
<polyline clip-path="url(#clip4600)" style="stroke:#000000; stroke-width:32; stroke-opacity:1; fill:none" points="
  1692.82,2531.68 1898.37,2531.68 
  "/>
<path clip-path="url(#clip4600)" d="M 0 0 M1925.02 11561.4 Q1896.13 11561.4 1881.5 11589.9 Q1867.05 11618.2 1867.05 11675.3 Q1867.05 11732.1 1881.5 11760.6 Q1896.13 11789 1925.02 11789 Q1954.09 11789 1968.54 11760.6 Q1983.17 11732.1 1983.17 11675.3 Q1983.17 11618.2 1968.54 11589.9 Q1954.09 11561.4 1925.02 11561.4 M1925.02 11531.7 Q1971.5 11531.7 1995.94 11568.6 Q2020.57 11605.3 2020.57 11675.3 Q2020.57 11745.1 1995.94 11781.9 Q1971.5 11818.6 1925.02 11818.6 Q1878.54 11818.6 1853.91 11781.9 Q1829.46 11745.1 1829.46 11675.3 Q1829.46 11605.3 1853.91 11568.6 Q1878.54 11531.7 1925.02 11531.7 Z" fill="#000000" fill-rule="evenodd" fill-opacity="1" /><path clip-path="url(#clip4600)" d="M 0 0 M2061.13 11766.2 L2100.2 11766.2 L2100.2 11813.2 L2061.13 11813.2 L2061.13 11766.2 Z" fill="#000000" fill-rule="evenodd" fill-opacity="1" /><path clip-path="url(#clip4600)" d="M 0 0 M2141.13 11536.7 L2287.98 11536.7 L2287.98 11568.2 L2175.39 11568.2 L2175.39 11636 Q2183.53 11633.2 2191.68 11631.9 Q2199.83 11630.4 2207.98 11630.4 Q2254.28 11630.4 2281.31 11655.8 Q2308.35 11681.2 2308.35 11724.5 Q2308.35 11769.1 2280.57 11794 Q2252.79 11818.6 2202.24 11818.6 Q2184.83 11818.6 2166.68 11815.6 Q2148.72 11812.7 2129.46 11806.7 L2129.46 11769.1 Q2146.13 11778.2 2163.91 11782.7 Q2181.68 11787.1 2201.5 11787.1 Q2233.53 11787.1 2252.24 11770.3 Q2270.94 11753.4 2270.94 11724.5 Q2270.94 11695.6 2252.24 11678.8 Q2233.53 11661.9 2201.5 11661.9 Q2186.5 11661.9 2171.5 11665.3 Q2156.68 11668.6 2141.13 11675.6 L2141.13 11536.7 Z" fill="#000000" fill-rule="evenodd" fill-opacity="1" /><path clip-path="url(#clip4600)" d="M 0 0 M2433.53 11660.1 Q2408.35 11660.1 2393.53 11677.3 Q2378.9 11694.5 2378.9 11724.5 Q2378.9 11754.3 2393.53 11771.7 Q2408.35 11789 2433.53 11789 Q2458.72 11789 2473.35 11771.7 Q2488.16 11754.3 2488.16 11724.5 Q2488.16 11694.5 2473.35 11677.3 Q2458.72 11660.1 2433.53 11660.1 M2507.79 11542.8 L2507.79 11576.9 Q2493.72 11570.3 2479.27 11566.7 Q2465.01 11563.2 2450.94 11563.2 Q2413.9 11563.2 2394.27 11588.2 Q2374.83 11613.2 2372.05 11663.8 Q2382.98 11647.7 2399.46 11639.1 Q2415.94 11630.4 2435.76 11630.4 Q2477.42 11630.4 2501.5 11655.8 Q2525.76 11681 2525.76 11724.5 Q2525.76 11767.1 2500.57 11792.8 Q2475.39 11818.6 2433.53 11818.6 Q2385.57 11818.6 2360.2 11781.9 Q2334.83 11745.1 2334.83 11675.3 Q2334.83 11609.7 2365.94 11570.8 Q2397.05 11531.7 2449.46 11531.7 Q2463.53 11531.7 2477.79 11534.5 Q2492.24 11537.3 2507.79 11542.8 Z" fill="#000000" fill-rule="evenodd" fill-opacity="1" /><path clip-path="url(#clip4600)" d="M 0 0 M5598.68 11561.4 Q5569.79 11561.4 5555.17 11589.9 Q5540.72 11618.2 5540.72 11675.3 Q5540.72 11732.1 5555.17 11760.6 Q5569.79 11789 5598.68 11789 Q5627.76 11789 5642.2 11760.6 Q5656.83 11732.1 5656.83 11675.3 Q5656.83 11618.2 5642.2 11589.9 Q5627.76 11561.4 5598.68 11561.4 M5598.68 11531.7 Q5645.16 11531.7 5669.61 11568.6 Q5694.24 11605.3 5694.24 11675.3 Q5694.24 11745.1 5669.61 11781.9 Q5645.16 11818.6 5598.68 11818.6 Q5552.2 11818.6 5527.57 11781.9 Q5503.13 11745.1 5503.13 11675.3 Q5503.13 11605.3 5527.57 11568.6 Q5552.2 11531.7 5598.68 11531.7 Z" fill="#000000" fill-rule="evenodd" fill-opacity="1" /><path clip-path="url(#clip4600)" d="M 0 0 M5734.79 11766.2 L5773.87 11766.2 L5773.87 11813.2 L5734.79 11813.2 L5734.79 11766.2 Z" fill="#000000" fill-rule="evenodd" fill-opacity="1" /><path clip-path="url(#clip4600)" d="M 0 0 M5814.79 11536.7 L5961.64 11536.7 L5961.64 11568.2 L5849.05 11568.2 L5849.05 11636 Q5857.2 11633.2 5865.35 11631.9 Q5873.5 11630.4 5881.65 11630.4 Q5927.94 11630.4 5954.98 11655.8 Q5982.01 11681.2 5982.01 11724.5 Q5982.01 11769.1 5954.24 11794 Q5926.46 11818.6 5875.9 11818.6 Q5858.5 11818.6 5840.35 11815.6 Q5822.39 11812.7 5803.13 11806.7 L5803.13 11769.1 Q5819.79 11778.2 5837.57 11782.7 Q5855.35 11787.1 5875.16 11787.1 Q5907.2 11787.1 5925.9 11770.3 Q5944.61 11753.4 5944.61 11724.5 Q5944.61 11695.6 5925.9 11678.8 Q5907.2 11661.9 5875.16 11661.9 Q5860.16 11661.9 5845.16 11665.3 Q5830.35 11668.6 5814.79 11675.6 L5814.79 11536.7 Z" fill="#000000" fill-rule="evenodd" fill-opacity="1" /><path clip-path="url(#clip4600)" d="M 0 0 M6102.57 11681.9 Q6075.9 11681.9 6060.53 11696.2 Q6045.35 11710.4 6045.35 11735.4 Q6045.35 11760.4 6060.53 11774.7 Q6075.9 11789 6102.57 11789 Q6129.24 11789 6144.61 11774.7 Q6159.98 11760.3 6159.98 11735.4 Q6159.98 11710.4 6144.61 11696.2 Q6129.42 11681.9 6102.57 11681.9 M6065.16 11666 Q6041.09 11660.1 6027.57 11643.6 Q6014.24 11627.1 6014.24 11603.4 Q6014.24 11570.3 6037.76 11551 Q6061.46 11531.7 6102.57 11531.7 Q6143.87 11531.7 6167.38 11551 Q6190.9 11570.3 6190.9 11603.4 Q6190.9 11627.1 6177.38 11643.6 Q6164.05 11660.1 6140.16 11666 Q6167.2 11672.3 6182.2 11690.6 Q6197.38 11709 6197.38 11735.4 Q6197.38 11775.6 6172.75 11797.1 Q6148.31 11818.6 6102.57 11818.6 Q6056.83 11818.6 6032.2 11797.1 Q6007.76 11775.6 6007.76 11735.4 Q6007.76 11709 6022.94 11690.6 Q6038.13 11672.3 6065.16 11666 M6051.46 11606.9 Q6051.46 11628.4 6064.79 11640.4 Q6078.31 11652.5 6102.57 11652.5 Q6126.64 11652.5 6140.16 11640.4 Q6153.87 11628.4 6153.87 11606.9 Q6153.87 11585.4 6140.16 11573.4 Q6126.64 11561.4 6102.57 11561.4 Q6078.31 11561.4 6064.79 11573.4 Q6051.46 11585.4 6051.46 11606.9 Z" fill="#000000" fill-rule="evenodd" fill-opacity="1" /><path clip-path="url(#clip4600)" d="M 0 0 M9266.33 11561.4 Q9237.44 11561.4 9222.81 11589.9 Q9208.37 11618.2 9208.37 11675.3 Q9208.37 11732.1 9222.81 11760.6 Q9237.44 11789 9266.33 11789 Q9295.41 11789 9309.85 11760.6 Q9324.48 11732.1 9324.48 11675.3 Q9324.48 11618.2 9309.85 11589.9 Q9295.41 11561.4 9266.33 11561.4 M9266.33 11531.7 Q9312.81 11531.7 9337.26 11568.6 Q9361.89 11605.3 9361.89 11675.3 Q9361.89 11745.1 9337.26 11781.9 Q9312.81 11818.6 9266.33 11818.6 Q9219.85 11818.6 9195.22 11781.9 Q9170.78 11745.1 9170.78 11675.3 Q9170.78 11605.3 9195.22 11568.6 Q9219.85 11531.7 9266.33 11531.7 Z" fill="#000000" fill-rule="evenodd" fill-opacity="1" /><path clip-path="url(#clip4600)" d="M 0 0 M9402.44 11766.2 L9441.52 11766.2 L9441.52 11813.2 L9402.44 11813.2 L9402.44 11766.2 Z" fill="#000000" fill-rule="evenodd" fill-opacity="1" /><path clip-path="url(#clip4600)" d="M 0 0 M9566.7 11660.1 Q9541.51 11660.1 9526.7 11677.3 Q9512.07 11694.5 9512.07 11724.5 Q9512.07 11754.3 9526.7 11771.7 Q9541.51 11789 9566.7 11789 Q9591.88 11789 9606.51 11771.7 Q9621.33 11754.3 9621.33 11724.5 Q9621.33 11694.5 9606.51 11677.3 Q9591.88 11660.1 9566.7 11660.1 M9640.96 11542.8 L9640.96 11576.9 Q9626.88 11570.3 9612.44 11566.7 Q9598.18 11563.2 9584.11 11563.2 Q9547.07 11563.2 9527.44 11588.2 Q9508 11613.2 9505.22 11663.8 Q9516.14 11647.7 9532.63 11639.1 Q9549.11 11630.4 9568.92 11630.4 Q9610.59 11630.4 9634.66 11655.8 Q9658.92 11681 9658.92 11724.5 Q9658.92 11767.1 9633.74 11792.8 Q9608.55 11818.6 9566.7 11818.6 Q9518.74 11818.6 9493.37 11781.9 Q9468 11745.1 9468 11675.3 Q9468 11609.7 9499.11 11570.8 Q9530.22 11531.7 9582.63 11531.7 Q9596.7 11531.7 9610.96 11534.5 Q9625.4 11537.3 9640.96 11542.8 Z" fill="#000000" fill-rule="evenodd" fill-opacity="1" /><path clip-path="url(#clip4600)" d="M 0 0 M9779.48 11561.4 Q9750.59 11561.4 9735.96 11589.9 Q9721.51 11618.2 9721.51 11675.3 Q9721.51 11732.1 9735.96 11760.6 Q9750.59 11789 9779.48 11789 Q9808.55 11789 9822.99 11760.6 Q9837.62 11732.1 9837.62 11675.3 Q9837.62 11618.2 9822.99 11589.9 Q9808.55 11561.4 9779.48 11561.4 M9779.48 11531.7 Q9825.96 11531.7 9850.4 11568.6 Q9875.03 11605.3 9875.03 11675.3 Q9875.03 11745.1 9850.4 11781.9 Q9825.96 11818.6 9779.48 11818.6 Q9733 11818.6 9708.37 11781.9 Q9683.92 11745.1 9683.92 11675.3 Q9683.92 11605.3 9708.37 11568.6 Q9733 11531.7 9779.48 11531.7 Z" fill="#000000" fill-rule="evenodd" fill-opacity="1" /><path clip-path="url(#clip4600)" d="M 0 0 M12945.4 11561.4 Q12916.5 11561.4 12901.8 11589.9 Q12887.4 11618.2 12887.4 11675.3 Q12887.4 11732.1 12901.8 11760.6 Q12916.5 11789 12945.4 11789 Q12974.4 11789 12988.9 11760.6 Q13003.5 11732.1 13003.5 11675.3 Q13003.5 11618.2 12988.9 11589.9 Q12974.4 11561.4 12945.4 11561.4 M12945.4 11531.7 Q12991.8 11531.7 13016.3 11568.6 Q13040.9 11605.3 13040.9 11675.3 Q13040.9 11745.1 13016.3 11781.9 Q12991.8 11818.6 12945.4 11818.6 Q12898.9 11818.6 12874.3 11781.9 Q12849.8 11745.1 12849.8 11675.3 Q12849.8 11605.3 12874.3 11568.6 Q12898.9 11531.7 12945.4 11531.7 Z" fill="#000000" fill-rule="evenodd" fill-opacity="1" /><path clip-path="url(#clip4600)" d="M 0 0 M13081.5 11766.2 L13120.6 11766.2 L13120.6 11813.2 L13081.5 11813.2 L13081.5 11766.2 Z" fill="#000000" fill-rule="evenodd" fill-opacity="1" /><path clip-path="url(#clip4600)" d="M 0 0 M13245.7 11660.1 Q13220.6 11660.1 13205.7 11677.3 Q13191.1 11694.5 13191.1 11724.5 Q13191.1 11754.3 13205.7 11771.7 Q13220.6 11789 13245.7 11789 Q13270.9 11789 13285.6 11771.7 Q13300.4 11754.3 13300.4 11724.5 Q13300.4 11694.5 13285.6 11677.3 Q13270.9 11660.1 13245.7 11660.1 M13320 11542.8 L13320 11576.9 Q13305.9 11570.3 13291.5 11566.7 Q13277.2 11563.2 13263.1 11563.2 Q13226.1 11563.2 13206.5 11588.2 Q13187 11613.2 13184.3 11663.8 Q13195.2 11647.7 13211.7 11639.1 Q13228.1 11630.4 13248 11630.4 Q13289.6 11630.4 13313.7 11655.8 Q13338 11681 13338 11724.5 Q13338 11767.1 13312.8 11792.8 Q13287.6 11818.6 13245.7 11818.6 Q13197.8 11818.6 13172.4 11781.9 Q13147 11745.1 13147 11675.3 Q13147 11609.7 13178.1 11570.8 Q13209.3 11531.7 13261.7 11531.7 Q13275.7 11531.7 13290 11534.5 Q13304.4 11537.3 13320 11542.8 Z" fill="#000000" fill-rule="evenodd" fill-opacity="1" /><path clip-path="url(#clip4600)" d="M 0 0 M13410.7 11781.7 L13541.3 11781.7 L13541.3 11813.2 L13365.7 11813.2 L13365.7 11781.7 Q13387 11759.7 13423.7 11722.7 Q13460.5 11685.4 13470 11674.7 Q13488 11654.5 13495 11640.6 Q13502.2 11626.5 13502.2 11613 Q13502.2 11591 13486.7 11577.1 Q13471.3 11563.2 13446.5 11563.2 Q13428.9 11563.2 13409.3 11569.3 Q13389.8 11575.4 13367.6 11587.8 L13367.6 11550.1 Q13390.2 11541 13409.8 11536.4 Q13429.4 11531.7 13445.7 11531.7 Q13488.7 11531.7 13514.3 11553.2 Q13539.8 11574.7 13539.8 11610.6 Q13539.8 11627.7 13533.3 11643 Q13527 11658.2 13510.2 11679 Q13505.5 11684.3 13480.7 11710.1 Q13455.9 11735.6 13410.7 11781.7 Z" fill="#000000" fill-rule="evenodd" fill-opacity="1" /><path clip-path="url(#clip4600)" d="M 0 0 M16609.7 11561.4 Q16580.8 11561.4 16566.2 11589.9 Q16551.7 11618.2 16551.7 11675.3 Q16551.7 11732.1 16566.2 11760.6 Q16580.8 11789 16609.7 11789 Q16638.8 11789 16653.2 11760.6 Q16667.8 11732.1 16667.8 11675.3 Q16667.8 11618.2 16653.2 11589.9 Q16638.8 11561.4 16609.7 11561.4 M16609.7 11531.7 Q16656.2 11531.7 16680.6 11568.6 Q16705.2 11605.3 16705.2 11675.3 Q16705.2 11745.1 16680.6 11781.9 Q16656.2 11818.6 16609.7 11818.6 Q16563.2 11818.6 16538.6 11781.9 Q16514.1 11745.1 16514.1 11675.3 Q16514.1 11605.3 16538.6 11568.6 Q16563.2 11531.7 16609.7 11531.7 Z" fill="#000000" fill-rule="evenodd" fill-opacity="1" /><path clip-path="url(#clip4600)" d="M 0 0 M16745.8 11766.2 L16784.9 11766.2 L16784.9 11813.2 L16745.8 11813.2 L16745.8 11766.2 Z" fill="#000000" fill-rule="evenodd" fill-opacity="1" /><path clip-path="url(#clip4600)" d="M 0 0 M16910.1 11660.1 Q16884.9 11660.1 16870.1 11677.3 Q16855.4 11694.5 16855.4 11724.5 Q16855.4 11754.3 16870.1 11771.7 Q16884.9 11789 16910.1 11789 Q16935.2 11789 16949.9 11771.7 Q16964.7 11754.3 16964.7 11724.5 Q16964.7 11694.5 16949.9 11677.3 Q16935.2 11660.1 16910.1 11660.1 M16984.3 11542.8 L16984.3 11576.9 Q16970.2 11570.3 16955.8 11566.7 Q16941.5 11563.2 16927.5 11563.2 Q16890.4 11563.2 16870.8 11588.2 Q16851.3 11613.2 16848.6 11663.8 Q16859.5 11647.7 16876 11639.1 Q16892.5 11630.4 16912.3 11630.4 Q16953.9 11630.4 16978 11655.8 Q17002.3 11681 17002.3 11724.5 Q17002.3 11767.1 16977.1 11792.8 Q16951.9 11818.6 16910.1 11818.6 Q16862.1 11818.6 16836.7 11781.9 Q16811.3 11745.1 16811.3 11675.3 Q16811.3 11609.7 16842.5 11570.8 Q16873.6 11531.7 16926 11531.7 Q16940.1 11531.7 16954.3 11534.5 Q16968.8 11537.3 16984.3 11542.8 Z" fill="#000000" fill-rule="evenodd" fill-opacity="1" /><path clip-path="url(#clip4600)" d="M 0 0 M17145.6 11569.3 L17051.2 11716.9 L17145.6 11716.9 L17145.6 11569.3 M17135.8 11536.7 L17182.8 11536.7 L17182.8 11716.9 L17222.3 11716.9 L17222.3 11748 L17182.8 11748 L17182.8 11813.2 L17145.6 11813.2 L17145.6 11748 L17020.8 11748 L17020.8 11711.9 L17135.8 11536.7 Z" fill="#000000" fill-rule="evenodd" fill-opacity="1" /><path clip-path="url(#clip4600)" d="M 0 0 M1122.3 9947.84 Q1093.41 9947.84 1078.78 9976.36 Q1064.34 10004.7 1064.34 10061.7 Q1064.34 10118.6 1078.78 10147.1 Q1093.41 10175.4 1122.3 10175.4 Q1151.38 10175.4 1165.82 10147.1 Q1180.45 10118.6 1180.45 10061.7 Q1180.45 10004.7 1165.82 9976.36 Q1151.38 9947.84 1122.3 9947.84 M1122.3 9918.21 Q1168.78 9918.21 1193.23 9955.06 Q1217.86 9991.73 1217.86 10061.7 Q1217.86 10131.5 1193.23 10168.4 Q1168.78 10205.1 1122.3 10205.1 Q1075.82 10205.1 1051.19 10168.4 Q1026.75 10131.5 1026.75 10061.7 Q1026.75 9991.73 1051.19 9955.06 Q1075.82 9918.21 1122.3 9918.21 Z" fill="#000000" fill-rule="evenodd" fill-opacity="1" /><path clip-path="url(#clip4600)" d="M 0 0 M1258.41 10152.7 L1297.49 10152.7 L1297.49 10199.7 L1258.41 10199.7 L1258.41 10152.7 Z" fill="#000000" fill-rule="evenodd" fill-opacity="1" /><path clip-path="url(#clip4600)" d="M 0 0 M1370.26 10168.2 L1500.82 10168.2 L1500.82 10199.7 L1325.26 10199.7 L1325.26 10168.2 Q1346.56 10146.2 1383.23 10109.1 Q1420.08 10071.9 1429.52 10061.2 Q1447.49 10041 1454.52 10027.1 Q1461.75 10013 1461.75 9999.5 Q1461.75 9977.47 1446.19 9963.58 Q1430.82 9949.69 1406.01 9949.69 Q1388.41 9949.69 1368.78 9955.8 Q1349.34 9961.91 1327.12 9974.32 L1327.12 9936.54 Q1349.71 9927.47 1369.34 9922.84 Q1388.97 9918.21 1405.26 9918.21 Q1448.23 9918.21 1473.78 9939.69 Q1499.34 9961.17 1499.34 9997.1 Q1499.34 10014.1 1492.86 10029.5 Q1486.56 10044.7 1469.71 10065.4 Q1465.08 10070.8 1440.26 10096.5 Q1415.45 10122.1 1370.26 10168.2 Z" fill="#000000" fill-rule="evenodd" fill-opacity="1" /><path clip-path="url(#clip4600)" d="M 0 0 M1114.71 8065.39 Q1085.82 8065.39 1071.19 8093.91 Q1056.75 8122.25 1056.75 8179.28 Q1056.75 8236.13 1071.19 8264.65 Q1085.82 8292.99 1114.71 8292.99 Q1143.78 8292.99 1158.23 8264.65 Q1172.86 8236.13 1172.86 8179.28 Q1172.86 8122.25 1158.23 8093.91 Q1143.78 8065.39 1114.71 8065.39 M1114.71 8035.76 Q1161.19 8035.76 1185.64 8072.62 Q1210.27 8109.28 1210.27 8179.28 Q1210.27 8249.1 1185.64 8285.95 Q1161.19 8322.61 1114.71 8322.61 Q1068.23 8322.61 1043.6 8285.95 Q1019.16 8249.1 1019.16 8179.28 Q1019.16 8109.28 1043.6 8072.62 Q1068.23 8035.76 1114.71 8035.76 Z" fill="#000000" fill-rule="evenodd" fill-opacity="1" /><path clip-path="url(#clip4600)" d="M 0 0 M1250.82 8270.21 L1289.89 8270.21 L1289.89 8317.24 L1250.82 8317.24 L1250.82 8270.21 Z" fill="#000000" fill-rule="evenodd" fill-opacity="1" /><path clip-path="url(#clip4600)" d="M 0 0 M1443.78 8168.17 Q1470.63 8173.91 1485.63 8192.06 Q1500.82 8210.21 1500.82 8236.87 Q1500.82 8277.8 1472.67 8300.21 Q1444.52 8322.61 1392.67 8322.61 Q1375.26 8322.61 1356.75 8319.1 Q1338.41 8315.76 1318.78 8308.91 L1318.78 8272.8 Q1334.34 8281.87 1352.86 8286.5 Q1371.38 8291.13 1391.56 8291.13 Q1426.75 8291.13 1445.08 8277.24 Q1463.6 8263.36 1463.6 8236.87 Q1463.6 8212.43 1446.38 8198.73 Q1429.34 8184.84 1398.78 8184.84 L1366.56 8184.84 L1366.56 8154.1 L1400.26 8154.1 Q1427.86 8154.1 1442.49 8143.17 Q1457.12 8132.06 1457.12 8111.32 Q1457.12 8090.02 1441.93 8078.73 Q1426.93 8067.25 1398.78 8067.25 Q1383.41 8067.25 1365.82 8070.58 Q1348.23 8073.91 1327.12 8080.95 L1327.12 8047.62 Q1348.41 8041.69 1366.93 8038.73 Q1385.63 8035.76 1402.12 8035.76 Q1444.71 8035.76 1469.52 8055.21 Q1494.34 8074.47 1494.34 8107.43 Q1494.34 8130.39 1481.19 8146.32 Q1468.04 8162.06 1443.78 8168.17 Z" fill="#000000" fill-rule="evenodd" fill-opacity="1" /><path clip-path="url(#clip4600)" d="M 0 0 M1105.64 6182.95 Q1076.75 6182.95 1062.12 6211.47 Q1047.67 6239.8 1047.67 6296.84 Q1047.67 6353.69 1062.12 6382.21 Q1076.75 6410.54 1105.64 6410.54 Q1134.71 6410.54 1149.15 6382.21 Q1163.78 6353.69 1163.78 6296.84 Q1163.78 6239.8 1149.15 6211.47 Q1134.71 6182.95 1105.64 6182.95 M1105.64 6153.32 Q1152.12 6153.32 1176.56 6190.17 Q1201.19 6226.84 1201.19 6296.84 Q1201.19 6366.65 1176.56 6403.51 Q1152.12 6440.17 1105.64 6440.17 Q1059.16 6440.17 1034.53 6403.51 Q1010.08 6366.65 1010.08 6296.84 Q1010.08 6226.84 1034.53 6190.17 Q1059.16 6153.32 1105.64 6153.32 Z" fill="#000000" fill-rule="evenodd" fill-opacity="1" /><path clip-path="url(#clip4600)" d="M 0 0 M1241.75 6387.76 L1280.82 6387.76 L1280.82 6434.8 L1241.75 6434.8 L1241.75 6387.76 Z" fill="#000000" fill-rule="evenodd" fill-opacity="1" /><path clip-path="url(#clip4600)" d="M 0 0 M1424.15 6190.91 L1329.71 6338.51 L1424.15 6338.51 L1424.15 6190.91 M1414.34 6158.32 L1461.38 6158.32 L1461.38 6338.51 L1500.82 6338.51 L1500.82 6369.62 L1461.38 6369.62 L1461.38 6434.8 L1424.15 6434.8 L1424.15 6369.62 L1299.34 6369.62 L1299.34 6333.51 L1414.34 6158.32 Z" fill="#000000" fill-rule="evenodd" fill-opacity="1" /><path clip-path="url(#clip4600)" d="M 0 0 M1117.49 4300.51 Q1088.6 4300.51 1073.97 4329.03 Q1059.53 4357.36 1059.53 4414.4 Q1059.53 4471.25 1073.97 4499.77 Q1088.6 4528.1 1117.49 4528.1 Q1146.56 4528.1 1161.01 4499.77 Q1175.64 4471.25 1175.64 4414.4 Q1175.64 4357.36 1161.01 4329.03 Q1146.56 4300.51 1117.49 4300.51 M1117.49 4270.88 Q1163.97 4270.88 1188.41 4307.73 Q1213.04 4344.4 1213.04 4414.4 Q1213.04 4484.21 1188.41 4521.06 Q1163.97 4557.73 1117.49 4557.73 Q1071.01 4557.73 1046.38 4521.06 Q1021.93 4484.21 1021.93 4414.4 Q1021.93 4344.4 1046.38 4307.73 Q1071.01 4270.88 1117.49 4270.88 Z" fill="#000000" fill-rule="evenodd" fill-opacity="1" /><path clip-path="url(#clip4600)" d="M 0 0 M1253.6 4505.32 L1292.67 4505.32 L1292.67 4552.36 L1253.6 4552.36 L1253.6 4505.32 Z" fill="#000000" fill-rule="evenodd" fill-opacity="1" /><path clip-path="url(#clip4600)" d="M 0 0 M1333.6 4275.88 L1480.45 4275.88 L1480.45 4307.36 L1367.86 4307.36 L1367.86 4375.14 Q1376.01 4372.36 1384.15 4371.06 Q1392.3 4369.58 1400.45 4369.58 Q1446.75 4369.58 1473.78 4394.95 Q1500.82 4420.32 1500.82 4463.66 Q1500.82 4508.29 1473.04 4533.1 Q1445.26 4557.73 1394.71 4557.73 Q1377.3 4557.73 1359.15 4554.77 Q1341.19 4551.8 1321.93 4545.88 L1321.93 4508.29 Q1338.6 4517.36 1356.38 4521.8 Q1374.15 4526.25 1393.97 4526.25 Q1426 4526.25 1444.71 4509.4 Q1463.41 4492.54 1463.41 4463.66 Q1463.41 4434.77 1444.71 4417.92 Q1426 4401.06 1393.97 4401.06 Q1378.97 4401.06 1363.97 4404.4 Q1349.15 4407.73 1333.6 4414.77 L1333.6 4275.88 Z" fill="#000000" fill-rule="evenodd" fill-opacity="1" /><path clip-path="url(#clip4600)" d="M 0 0 M1108.23 2418.07 Q1079.34 2418.07 1064.71 2446.58 Q1050.27 2474.92 1050.27 2531.95 Q1050.27 2588.81 1064.71 2617.32 Q1079.34 2645.66 1108.23 2645.66 Q1137.3 2645.66 1151.75 2617.32 Q1166.38 2588.81 1166.38 2531.95 Q1166.38 2474.92 1151.75 2446.58 Q1137.3 2418.07 1108.23 2418.07 M1108.23 2388.44 Q1154.71 2388.44 1179.15 2425.29 Q1203.78 2461.95 1203.78 2531.95 Q1203.78 2601.77 1179.15 2638.62 Q1154.71 2675.29 1108.23 2675.29 Q1061.75 2675.29 1037.12 2638.62 Q1012.67 2601.77 1012.67 2531.95 Q1012.67 2461.95 1037.12 2425.29 Q1061.75 2388.44 1108.23 2388.44 Z" fill="#000000" fill-rule="evenodd" fill-opacity="1" /><path clip-path="url(#clip4600)" d="M 0 0 M1244.34 2622.88 L1283.41 2622.88 L1283.41 2669.92 L1244.34 2669.92 L1244.34 2622.88 Z" fill="#000000" fill-rule="evenodd" fill-opacity="1" /><path clip-path="url(#clip4600)" d="M 0 0 M1408.6 2516.77 Q1383.41 2516.77 1368.6 2533.99 Q1353.97 2551.21 1353.97 2581.21 Q1353.97 2611.03 1368.6 2628.43 Q1383.41 2645.66 1408.6 2645.66 Q1433.78 2645.66 1448.41 2628.43 Q1463.23 2611.03 1463.23 2581.21 Q1463.23 2551.21 1448.41 2533.99 Q1433.78 2516.77 1408.6 2516.77 M1482.86 2399.55 L1482.86 2433.62 Q1468.78 2426.95 1454.34 2423.44 Q1440.08 2419.92 1426 2419.92 Q1388.97 2419.92 1369.34 2444.92 Q1349.89 2469.92 1347.12 2520.47 Q1358.04 2504.36 1374.52 2495.84 Q1391.01 2487.14 1410.82 2487.14 Q1452.49 2487.14 1476.56 2512.51 Q1500.82 2537.69 1500.82 2581.21 Q1500.82 2623.81 1475.63 2649.55 Q1450.45 2675.29 1408.6 2675.29 Q1360.63 2675.29 1335.26 2638.62 Q1309.89 2601.77 1309.89 2531.95 Q1309.89 2466.4 1341.01 2427.51 Q1372.12 2388.44 1424.52 2388.44 Q1438.6 2388.44 1452.86 2391.21 Q1467.3 2393.99 1482.86 2399.55 Z" fill="#000000" fill-rule="evenodd" fill-opacity="1" /><path clip-path="url(#clip4600)" d="M 0 0 M4927.25 228.341 L4927.25 284.73 Q4901.98 271.767 4874.75 265.286 Q4847.53 258.804 4818.37 258.804 Q4773.97 258.804 4751.61 272.415 Q4729.57 286.026 4729.57 313.248 Q4729.57 333.989 4745.45 345.98 Q4761.33 357.646 4809.29 368.341 L4829.71 372.878 Q4893.23 386.489 4919.8 411.442 Q4946.7 436.072 4946.7 480.47 Q4946.7 531.025 4906.51 560.516 Q4866.65 590.006 4796.65 590.006 Q4767.49 590.006 4735.73 584.173 Q4704.29 578.664 4669.29 567.321 L4669.29 505.747 Q4702.35 522.923 4734.43 531.673 Q4766.51 540.099 4797.95 540.099 Q4840.08 540.099 4862.76 525.84 Q4885.45 511.257 4885.45 485.007 Q4885.45 460.701 4868.92 447.738 Q4852.72 434.775 4797.3 422.785 L4776.56 417.924 Q4721.14 406.257 4696.51 382.276 Q4671.88 357.97 4671.88 315.841 Q4671.88 264.637 4708.18 236.767 Q4744.48 208.897 4811.24 208.897 Q4844.29 208.897 4873.46 213.758 Q4902.62 218.619 4927.25 228.341 Z" fill="#000000" fill-rule="evenodd" fill-opacity="1" /><path clip-path="url(#clip4600)" d="M 0 0 M5009.24 217.647 L5068.87 217.647 L5068.87 580.608 L5009.24 580.608 L5009.24 217.647 M5009.24 76.3514 L5068.87 76.3514 L5068.87 151.86 L5009.24 151.86 L5009.24 76.3514 Z" fill="#000000" fill-rule="evenodd" fill-opacity="1" /><path clip-path="url(#clip4600)" d="M 0 0 M5105.49 217.647 L5388.73 217.647 L5388.73 272.091 L5164.47 532.969 L5388.73 532.969 L5388.73 580.608 L5097.39 580.608 L5097.39 526.164 L5321.65 265.286 L5105.49 265.286 L5105.49 217.647 Z" fill="#000000" fill-rule="evenodd" fill-opacity="1" /><path clip-path="url(#clip4600)" d="M 0 0 M5761.74 384.22 L5761.74 413.387 L5487.57 413.387 Q5491.46 474.96 5524.52 507.368 Q5557.9 539.451 5617.2 539.451 Q5651.56 539.451 5683.64 531.025 Q5716.05 522.599 5747.8 505.747 L5747.8 562.136 Q5715.72 575.747 5682.02 582.877 Q5648.31 590.006 5613.64 590.006 Q5526.79 590.006 5475.91 539.451 Q5425.35 488.896 5425.35 402.692 Q5425.35 313.572 5473.32 261.397 Q5521.6 208.897 5603.27 208.897 Q5676.51 208.897 5718.96 256.212 Q5761.74 303.202 5761.74 384.22 M5702.11 366.72 Q5701.46 317.785 5674.56 288.619 Q5647.99 259.452 5603.92 259.452 Q5554.01 259.452 5523.87 287.647 Q5494.06 315.841 5489.52 367.044 L5702.11 366.72 Z" fill="#000000" fill-rule="evenodd" fill-opacity="1" /><path clip-path="url(#clip4600)" d="M 0 0 M5839.52 498.294 L5907.9 498.294 L5907.9 580.608 L5839.52 580.608 L5839.52 498.294 M5839.52 237.415 L5907.9 237.415 L5907.9 319.73 L5839.52 319.73 L5839.52 237.415 Z" fill="#000000" fill-rule="evenodd" fill-opacity="1" /><path clip-path="url(#clip4600)" d="M 0 0 M6126.97 312.6 Q6082.9 312.6 6056.97 342.739 Q6031.37 372.878 6031.37 425.377 Q6031.37 477.553 6056.97 508.016 Q6082.9 538.155 6126.97 538.155 Q6171.04 538.155 6196.64 508.016 Q6222.57 477.553 6222.57 425.377 Q6222.57 372.878 6196.64 342.739 Q6171.04 312.6 6126.97 312.6 M6256.92 107.462 L6256.92 167.092 Q6232.29 155.425 6207.02 149.268 Q6182.06 143.11 6157.43 143.11 Q6092.62 143.11 6058.27 186.86 Q6024.24 230.61 6019.38 319.082 Q6038.5 290.887 6067.34 275.98 Q6096.18 260.749 6130.86 260.749 Q6203.77 260.749 6245.9 305.147 Q6288.36 349.22 6288.36 425.377 Q6288.36 499.914 6244.28 544.96 Q6200.21 590.006 6126.97 590.006 Q6043.03 590.006 5998.64 525.84 Q5954.24 461.349 5954.24 339.174 Q5954.24 224.453 6008.68 156.397 Q6063.13 88.018 6154.84 88.018 Q6179.47 88.018 6204.42 92.8791 Q6229.7 97.7402 6256.92 107.462 Z" fill="#000000" fill-rule="evenodd" fill-opacity="1" /><path clip-path="url(#clip4600)" d="M 0 0 M6366.13 498.294 L6434.51 498.294 L6434.51 554.034 L6381.37 657.737 L6339.56 657.737 L6366.13 554.034 L6366.13 498.294 Z" fill="#000000" fill-rule="evenodd" fill-opacity="1" /><path clip-path="url(#clip4600)" d="M 0 0 M6645.49 350.841 Q6598.82 350.841 6571.92 375.794 Q6545.35 400.748 6545.35 444.498 Q6545.35 488.247 6571.92 513.201 Q6598.82 538.155 6645.49 538.155 Q6692.15 538.155 6719.05 513.201 Q6745.95 487.923 6745.95 444.498 Q6745.95 400.748 6719.05 375.794 Q6692.48 350.841 6645.49 350.841 M6580.02 322.97 Q6537.89 312.6 6514.24 283.758 Q6490.9 254.915 6490.9 213.434 Q6490.9 155.425 6532.06 121.722 Q6573.54 88.018 6645.49 88.018 Q6717.75 88.018 6758.91 121.722 Q6800.07 155.425 6800.07 213.434 Q6800.07 254.915 6776.41 283.758 Q6753.08 312.6 6711.27 322.97 Q6758.59 333.989 6784.84 366.072 Q6811.41 398.155 6811.41 444.498 Q6811.41 514.821 6768.31 552.414 Q6725.53 590.006 6645.49 590.006 Q6565.44 590.006 6522.34 552.414 Q6479.56 514.821 6479.56 444.498 Q6479.56 398.155 6506.13 366.072 Q6532.71 333.989 6580.02 322.97 M6556.04 219.591 Q6556.04 257.184 6579.37 278.249 Q6603.03 299.313 6645.49 299.313 Q6687.61 299.313 6711.27 278.249 Q6735.25 257.184 6735.25 219.591 Q6735.25 181.999 6711.27 160.934 Q6687.61 139.87 6645.49 139.87 Q6603.03 139.87 6579.37 160.934 Q6556.04 181.999 6556.04 219.591 Z" fill="#000000" fill-rule="evenodd" fill-opacity="1" /><path clip-path="url(#clip4600)" d="M 0 0 M6889.19 498.294 L6957.57 498.294 L6957.57 554.034 L6904.42 657.737 L6862.61 657.737 L6889.19 554.034 L6889.19 498.294 Z" fill="#000000" fill-rule="evenodd" fill-opacity="1" /><path clip-path="url(#clip4600)" d="M 0 0 M7039.88 525.516 L7146.82 525.516 L7146.82 156.397 L7030.48 179.731 L7030.48 120.101 L7146.18 96.768 L7211.64 96.768 L7211.64 525.516 L7318.58 525.516 L7318.58 580.608 L7039.88 580.608 L7039.88 525.516 Z" fill="#000000" fill-rule="evenodd" fill-opacity="1" /><path clip-path="url(#clip4600)" d="M 0 0 M7529.55 139.87 Q7479 139.87 7453.4 189.777 Q7428.12 239.36 7428.12 339.174 Q7428.12 438.664 7453.4 488.571 Q7479 538.155 7529.55 538.155 Q7580.43 538.155 7605.71 488.571 Q7631.31 438.664 7631.31 339.174 Q7631.31 239.36 7605.71 189.777 Q7580.43 139.87 7529.55 139.87 M7529.55 88.018 Q7610.9 88.018 7653.67 152.508 Q7696.78 216.675 7696.78 339.174 Q7696.78 461.349 7653.67 525.84 Q7610.9 590.006 7529.55 590.006 Q7448.21 590.006 7405.11 525.84 Q7362.33 461.349 7362.33 339.174 Q7362.33 216.675 7405.11 152.508 Q7448.21 88.018 7529.55 88.018 Z" fill="#000000" fill-rule="evenodd" fill-opacity="1" /><path clip-path="url(#clip4600)" d="M 0 0 M7774.55 498.294 L7842.93 498.294 L7842.93 554.034 L7789.78 657.737 L7747.98 657.737 L7774.55 554.034 L7774.55 498.294 Z" fill="#000000" fill-rule="evenodd" fill-opacity="1" /><path clip-path="url(#clip4600)" d="M 0 0 M7925.25 525.516 L8032.19 525.516 L8032.19 156.397 L7915.85 179.731 L7915.85 120.101 L8031.54 96.768 L8097.01 96.768 L8097.01 525.516 L8203.95 525.516 L8203.95 580.608 L7925.25 580.608 L7925.25 525.516 Z" fill="#000000" fill-rule="evenodd" fill-opacity="1" /><path clip-path="url(#clip4600)" d="M 0 0 M8331.31 525.516 L8559.78 525.516 L8559.78 580.608 L8252.56 580.608 L8252.56 525.516 Q8289.83 486.951 8353.99 422.137 Q8418.48 356.998 8435.01 338.202 Q8466.45 302.878 8478.76 278.573 Q8491.4 253.943 8491.4 230.286 Q8491.4 191.721 8464.18 167.416 Q8437.28 143.11 8393.86 143.11 Q8363.07 143.11 8328.72 153.805 Q8294.69 164.499 8255.8 186.212 L8255.8 120.101 Q8295.34 104.222 8329.69 96.1199 Q8364.04 88.018 8392.56 88.018 Q8467.74 88.018 8512.47 125.61 Q8557.19 163.203 8557.19 226.073 Q8557.19 255.888 8545.85 282.786 Q8534.83 309.359 8505.34 345.656 Q8497.23 355.054 8453.81 400.1 Q8410.38 444.822 8331.31 525.516 Z" fill="#000000" fill-rule="evenodd" fill-opacity="1" /><path clip-path="url(#clip4600)" d="M 0 0 M8637.56 498.294 L8705.94 498.294 L8705.94 554.034 L8652.79 657.737 L8610.98 657.737 L8637.56 554.034 L8637.56 498.294 Z" fill="#000000" fill-rule="evenodd" fill-opacity="1" /><path clip-path="url(#clip4600)" d="M 0 0 M8788.25 525.516 L8895.2 525.516 L8895.2 156.397 L8778.85 179.731 L8778.85 120.101 L8894.55 96.768 L8960.01 96.768 L8960.01 525.516 L9066.95 525.516 L9066.95 580.608 L8788.25 580.608 L8788.25 525.516 Z" fill="#000000" fill-rule="evenodd" fill-opacity="1" /><path clip-path="url(#clip4600)" d="M 0 0 M9317.79 153.805 L9152.51 412.09 L9317.79 412.09 L9317.79 153.805 M9300.61 96.768 L9382.92 96.768 L9382.92 412.09 L9451.95 412.09 L9451.95 466.535 L9382.92 466.535 L9382.92 580.608 L9317.79 580.608 L9317.79 466.535 L9099.36 466.535 L9099.36 403.34 L9300.61 96.768 Z" fill="#000000" fill-rule="evenodd" fill-opacity="1" /><path clip-path="url(#clip4600)" d="M 0 0 M9529.73 498.294 L9598.11 498.294 L9598.11 554.034 L9544.96 657.737 L9503.15 657.737 L9529.73 554.034 L9529.73 498.294 Z" fill="#000000" fill-rule="evenodd" fill-opacity="1" /><path clip-path="url(#clip4600)" d="M 0 0 M9680.42 525.516 L9787.37 525.516 L9787.37 156.397 L9671.02 179.731 L9671.02 120.101 L9786.72 96.768 L9852.18 96.768 L9852.18 525.516 L9959.12 525.516 L9959.12 580.608 L9680.42 580.608 L9680.42 525.516 Z" fill="#000000" fill-rule="evenodd" fill-opacity="1" /><path clip-path="url(#clip4600)" d="M 0 0 M10178.2 312.6 Q10134.1 312.6 10108.2 342.739 Q10082.6 372.878 10082.6 425.377 Q10082.6 477.553 10108.2 508.016 Q10134.1 538.155 10178.2 538.155 Q10222.3 538.155 10247.9 508.016 Q10273.8 477.553 10273.8 425.377 Q10273.8 372.878 10247.9 342.739 Q10222.3 312.6 10178.2 312.6 M10308.2 107.462 L10308.2 167.092 Q10283.5 155.425 10258.2 149.268 Q10233.3 143.11 10208.7 143.11 Q10143.8 143.11 10109.5 186.86 Q10075.5 230.61 10070.6 319.082 Q10089.7 290.887 10118.6 275.98 Q10147.4 260.749 10182.1 260.749 Q10255 260.749 10297.1 305.147 Q10339.6 349.22 10339.6 425.377 Q10339.6 499.914 10295.5 544.96 Q10251.4 590.006 10178.2 590.006 Q10094.3 590.006 10049.9 525.84 Q10005.5 461.349 10005.5 339.174 Q10005.5 224.453 10059.9 156.397 Q10114.4 88.018 10206.1 88.018 Q10230.7 88.018 10255.7 92.8791 Q10280.9 97.7402 10308.2 107.462 Z" fill="#000000" fill-rule="evenodd" fill-opacity="1" /><path clip-path="url(#clip4600)" d="M 0 0 M10417.4 237.415 L10485.7 237.415 L10485.7 319.73 L10417.4 319.73 L10417.4 237.415 M10417.4 498.294 L10485.7 498.294 L10485.7 554.034 L10432.6 657.737 L10390.8 657.737 L10417.4 554.034 L10417.4 498.294 Z" fill="#000000" fill-rule="evenodd" fill-opacity="1" /><path clip-path="url(#clip4600)" d="M 0 0 M10958.2 141.166 Q10886.9 141.166 10844.8 194.314 Q10803 247.462 10803 339.174 Q10803 430.563 10844.8 483.71 Q10886.9 536.858 10958.2 536.858 Q11029.5 536.858 11071 483.71 Q11112.8 430.563 11112.8 339.174 Q11112.8 247.462 11071 194.314 Q11029.5 141.166 10958.2 141.166 M11050 571.858 L11136.2 666.163 L11057.1 666.163 L10985.5 588.71 Q10974.8 589.358 10968.9 589.682 Q10963.4 590.006 10958.2 590.006 Q10856.2 590.006 10794.9 521.951 Q10734 453.572 10734 339.174 Q10734 224.453 10794.9 156.397 Q10856.2 88.018 10958.2 88.018 Q11060 88.018 11120.9 156.397 Q11181.8 224.453 11181.8 339.174 Q11181.8 423.433 11147.8 483.386 Q11114.1 543.34 11050 571.858 Z" fill="#000000" fill-rule="evenodd" fill-opacity="1" /><path clip-path="url(#clip4600)" d="M 0 0 M11463.1 279.221 L11878.6 279.221 L11878.6 333.665 L11463.1 333.665 L11463.1 279.221 M11463.1 411.442 L11878.6 411.442 L11878.6 466.535 L11463.1 466.535 L11463.1 411.442 Z" fill="#000000" fill-rule="evenodd" fill-opacity="1" /><path clip-path="url(#clip4600)" d="M 0 0 M12171.9 525.516 L12278.8 525.516 L12278.8 156.397 L12162.5 179.731 L12162.5 120.101 L12278.2 96.768 L12343.6 96.768 L12343.6 525.516 L12450.6 525.516 L12450.6 580.608 L12171.9 580.608 L12171.9 525.516 Z" fill="#000000" fill-rule="evenodd" fill-opacity="1" /><path clip-path="url(#clip4600)" d="M 0 0 M12669.7 312.6 Q12625.6 312.6 12599.7 342.739 Q12574.1 372.878 12574.1 425.377 Q12574.1 477.553 12599.7 508.016 Q12625.6 538.155 12669.7 538.155 Q12713.7 538.155 12739.3 508.016 Q12765.3 477.553 12765.3 425.377 Q12765.3 372.878 12739.3 342.739 Q12713.7 312.6 12669.7 312.6 M12799.6 107.462 L12799.6 167.092 Q12775 155.425 12749.7 149.268 Q12724.8 143.11 12700.1 143.11 Q12635.3 143.11 12601 186.86 Q12566.9 230.61 12562.1 319.082 Q12581.2 290.887 12610 275.98 Q12638.9 260.749 12673.6 260.749 Q12746.5 260.749 12788.6 305.147 Q12831.1 349.22 12831.1 425.377 Q12831.1 499.914 12787 544.96 Q12742.9 590.006 12669.7 590.006 Q12585.7 590.006 12541.3 525.84 Q12496.9 461.349 12496.9 339.174 Q12496.9 224.453 12551.4 156.397 Q12605.8 88.018 12697.5 88.018 Q12722.2 88.018 12747.1 92.8791 Q12772.4 97.7402 12799.6 107.462 Z" fill="#000000" fill-rule="evenodd" fill-opacity="1" /><path clip-path="url(#clip4600)" d="M 0 0 M12908.8 237.415 L12977.2 237.415 L12977.2 319.73 L12908.8 319.73 L12908.8 237.415 M12908.8 498.294 L12977.2 498.294 L12977.2 554.034 L12924.1 657.737 L12882.3 657.737 L12908.8 554.034 L12908.8 498.294 Z" fill="#000000" fill-rule="evenodd" fill-opacity="1" /><path clip-path="url(#clip4600)" d="M 0 0 M13253.3 96.768 L13318.8 96.768 L13318.8 546.904 Q13318.8 634.404 13285.4 673.941 Q13252.3 713.478 13178.8 713.478 L13153.8 713.478 L13153.8 658.385 L13174.2 658.385 Q13217.7 658.385 13235.5 634.08 Q13253.3 609.775 13253.3 546.904 L13253.3 96.768 Z" fill="#000000" fill-rule="evenodd" fill-opacity="1" /><path clip-path="url(#clip4600)" d="M 0 0 M13657.1 690.793 L13657.1 737.135 L13312.3 737.135 L13312.3 690.793 L13657.1 690.793 Z" fill="#000000" fill-rule="evenodd" fill-opacity="1" /><path clip-path="url(#clip4600)" d="M 0 0 M13868.1 139.87 Q13817.5 139.87 13791.9 189.777 Q13766.7 239.36 13766.7 339.174 Q13766.7 438.664 13791.9 488.571 Q13817.5 538.155 13868.1 538.155 Q13919 538.155 13944.2 488.571 Q13969.8 438.664 13969.8 339.174 Q13969.8 239.36 13944.2 189.777 Q13919 139.87 13868.1 139.87 M13868.1 88.018 Q13949.4 88.018 13992.2 152.508 Q14035.3 216.675 14035.3 339.174 Q14035.3 461.349 13992.2 525.84 Q13949.4 590.006 13868.1 590.006 Q13786.7 590.006 13743.6 525.84 Q13700.9 461.349 13700.9 339.174 Q13700.9 216.675 13743.6 152.508 Q13786.7 88.018 13868.1 88.018 Z" fill="#000000" fill-rule="evenodd" fill-opacity="1" /><path clip-path="url(#clip4600)" d="M 0 0 M14316.6 279.221 L14732.1 279.221 L14732.1 333.665 L14316.6 333.665 L14316.6 279.221 M14316.6 411.442 L14732.1 411.442 L14732.1 466.535 L14316.6 466.535 L14316.6 411.442 Z" fill="#000000" fill-rule="evenodd" fill-opacity="1" /><path clip-path="url(#clip4600)" d="M 0 0 M15154 139.87 Q15103.4 139.87 15077.8 189.777 Q15052.6 239.36 15052.6 339.174 Q15052.6 438.664 15077.8 488.571 Q15103.4 538.155 15154 538.155 Q15204.9 538.155 15230.2 488.571 Q15255.8 438.664 15255.8 339.174 Q15255.8 239.36 15230.2 189.777 Q15204.9 139.87 15154 139.87 M15154 88.018 Q15235.3 88.018 15278.1 152.508 Q15321.2 216.675 15321.2 339.174 Q15321.2 461.349 15278.1 525.84 Q15235.3 590.006 15154 590.006 Q15072.7 590.006 15029.6 525.84 Q14986.8 461.349 14986.8 339.174 Q14986.8 216.675 15029.6 152.508 Q15072.7 88.018 15154 88.018 Z" fill="#000000" fill-rule="evenodd" fill-opacity="1" /><path clip-path="url(#clip4600)" d="M 0 0 M15392.2 498.294 L15460.6 498.294 L15460.6 580.608 L15392.2 580.608 L15392.2 498.294 Z" fill="#000000" fill-rule="evenodd" fill-opacity="1" /><path clip-path="url(#clip4600)" d="M 0 0 M15711.4 153.805 L15546.1 412.09 L15711.4 412.09 L15711.4 153.805 M15694.2 96.768 L15776.5 96.768 L15776.5 412.09 L15845.6 412.09 L15845.6 466.535 L15776.5 466.535 L15776.5 580.608 L15711.4 580.608 L15711.4 466.535 L15493 466.535 L15493 403.34 L15694.2 96.768 Z" fill="#000000" fill-rule="evenodd" fill-opacity="1" /><path clip-path="url(#clip4600)" d="M 0 0 M10096.6 12068.2 L10418.2 12068.2 L10418.2 12111.5 L10283.3 12111.5 L10283.3 12448.4 L10231.6 12448.4 L10231.6 12111.5 L10096.6 12111.5 L10096.6 12068.2 Z" fill="#000000" fill-rule="evenodd" fill-opacity="1" /><path clip-path="url(#clip4600)" d="M 0 0 M522.483 7641.94 L661.765 7641.94 L661.765 7559.44 Q661.765 7517.93 644.705 7498.07 Q627.39 7477.96 591.997 7477.96 Q556.349 7477.96 539.543 7498.07 Q522.483 7517.93 522.483 7559.44 L522.483 7641.94 M366.142 7641.94 L480.724 7641.94 L480.724 7565.8 Q480.724 7528.12 466.72 7509.78 Q452.461 7491.2 423.433 7491.2 Q394.66 7491.2 380.401 7509.78 Q366.142 7528.12 366.142 7565.8 L366.142 7641.94 M323.873 7693.37 L323.873 7561.98 Q323.873 7503.16 348.318 7471.33 Q372.762 7439.51 417.831 7439.51 Q452.715 7439.51 473.34 7455.8 Q493.965 7472.1 499.058 7503.67 Q507.206 7465.73 533.178 7444.85 Q558.895 7423.72 597.599 7423.72 Q648.524 7423.72 676.279 7458.35 Q704.033 7492.98 704.033 7556.89 L704.033 7693.37 L323.873 7693.37 Z" fill="#000000" fill-rule="evenodd" fill-opacity="1" /><path clip-path="url(#clip4600)" d="M 0 0 M418.85 7374.58 L418.85 7327.72 L704.033 7327.72 L704.033 7374.58 L418.85 7374.58 M307.832 7374.58 L307.832 7327.72 L367.16 7327.72 L367.16 7374.58 L307.832 7374.58 Z" fill="#000000" fill-rule="evenodd" fill-opacity="1" /><path clip-path="url(#clip4600)" d="M 0 0 M531.905 7041.52 L704.033 7041.52 L704.033 7088.37 L533.432 7088.37 Q492.946 7088.37 472.831 7104.16 Q452.715 7119.95 452.715 7151.52 Q452.715 7189.46 476.905 7211.36 Q501.095 7233.26 542.854 7233.26 L704.033 7233.26 L704.033 7280.36 L418.85 7280.36 L418.85 7233.26 L463.155 7233.26 Q437.437 7216.45 424.706 7193.79 Q411.975 7170.87 411.975 7141.08 Q411.975 7091.94 442.53 7066.73 Q472.831 7041.52 531.905 7041.52 Z" fill="#000000" fill-rule="evenodd" fill-opacity="1" /><path clip-path="url(#clip4600)" d="M 0 0 M462.136 6804.72 L307.832 6804.72 L307.832 6757.87 L704.033 6757.87 L704.033 6804.72 L661.256 6804.72 Q686.719 6819.49 699.195 6842.15 Q711.417 6864.56 711.417 6896.13 Q711.417 6947.82 670.168 6980.41 Q628.918 7012.75 561.696 7012.75 Q494.474 7012.75 453.224 6980.41 Q411.975 6947.82 411.975 6896.13 Q411.975 6864.56 424.451 6842.15 Q436.674 6819.49 462.136 6804.72 M561.696 6964.37 Q613.386 6964.37 642.922 6943.24 Q672.205 6921.85 672.205 6884.67 Q672.205 6847.5 642.922 6826.11 Q613.386 6804.72 561.696 6804.72 Q510.007 6804.72 480.724 6826.11 Q451.187 6847.5 451.187 6884.67 Q451.187 6921.85 480.724 6943.24 Q510.007 6964.37 561.696 6964.37 Z" fill="#000000" fill-rule="evenodd" fill-opacity="1" /><path clip-path="url(#clip4600)" d="M 0 0 M549.729 6464.79 L572.645 6464.79 L572.645 6680.2 Q621.024 6677.15 646.487 6651.18 Q671.695 6624.95 671.695 6578.35 Q671.695 6551.36 665.075 6526.15 Q658.455 6500.69 645.214 6475.74 L689.519 6475.74 Q700.214 6500.95 705.816 6527.43 Q711.417 6553.91 711.417 6581.15 Q711.417 6649.39 671.695 6689.37 Q631.973 6729.09 564.242 6729.09 Q494.22 6729.09 453.224 6691.41 Q411.975 6653.47 411.975 6589.3 Q411.975 6531.76 449.15 6498.4 Q486.071 6464.79 549.729 6464.79 M535.979 6511.64 Q497.53 6512.15 474.613 6533.28 Q451.697 6554.16 451.697 6588.79 Q451.697 6628.01 473.849 6651.69 Q496.002 6675.11 536.233 6678.68 L535.979 6511.64 Z" fill="#000000" fill-rule="evenodd" fill-opacity="1" /><path clip-path="url(#clip4600)" d="M 0 0 M462.646 6250.39 Q458.062 6258.29 456.025 6267.71 Q453.734 6276.87 453.734 6288.08 Q453.734 6327.8 479.706 6349.19 Q505.423 6370.32 553.803 6370.32 L704.033 6370.32 L704.033 6417.43 L418.85 6417.43 L418.85 6370.32 L463.155 6370.32 Q437.183 6355.55 424.706 6331.87 Q411.975 6308.19 411.975 6274.33 Q411.975 6269.49 412.739 6263.63 Q413.248 6257.78 414.521 6250.65 L462.646 6250.39 Z" fill="#000000" fill-rule="evenodd" fill-opacity="1" /><path clip-path="url(#clip4600)" d="M 0 0 M323.873 6156.94 L465.192 6156.94 L465.192 6200.23 L323.873 6200.23 L323.873 6156.94 Z" fill="#000000" fill-rule="evenodd" fill-opacity="1" /><path clip-path="url(#clip4600)" d="M 0 0 M427.252 5926 L471.558 5926 Q461.373 5945.86 456.28 5967.25 Q451.187 5988.63 451.187 6011.55 Q451.187 6046.44 461.882 6064 Q472.576 6081.32 493.965 6081.32 Q510.261 6081.32 519.682 6068.84 Q528.849 6056.37 537.252 6018.68 L540.817 6002.64 Q551.511 5952.73 571.117 5931.85 Q590.469 5910.72 625.353 5910.72 Q665.075 5910.72 688.246 5942.29 Q711.417 5973.61 711.417 6028.61 Q711.417 6051.53 706.834 6076.48 Q702.505 6101.18 693.594 6128.68 L645.214 6128.68 Q658.709 6102.71 665.584 6077.5 Q672.205 6052.29 672.205 6027.59 Q672.205 5994.49 661.001 5976.67 Q649.543 5958.84 628.918 5958.84 Q609.821 5958.84 599.636 5971.83 Q589.451 5984.56 580.029 6028.1 L576.21 6044.4 Q567.043 6087.94 548.201 6107.29 Q529.104 6126.64 496.002 6126.64 Q455.771 6126.64 433.873 6098.12 Q411.975 6069.61 411.975 6017.15 Q411.975 5991.18 415.794 5968.26 Q419.613 5945.35 427.252 5926 Z" fill="#000000" fill-rule="evenodd" fill-opacity="1" /><path clip-path="url(#clip4600)" d="M 0 0 M462.646 5530.56 Q458.062 5538.45 456.025 5547.87 Q453.734 5557.04 453.734 5568.24 Q453.734 5607.97 479.706 5629.35 Q505.423 5650.49 553.803 5650.49 L704.033 5650.49 L704.033 5697.59 L418.85 5697.59 L418.85 5650.49 L463.155 5650.49 Q437.183 5635.72 424.706 5612.04 Q411.975 5588.36 411.975 5554.49 Q411.975 5549.66 412.739 5543.8 Q413.248 5537.94 414.521 5530.81 L462.646 5530.56 Z" fill="#000000" fill-rule="evenodd" fill-opacity="1" /><path clip-path="url(#clip4600)" d="M 0 0 M560.678 5351.81 Q560.678 5408.59 573.664 5430.49 Q586.65 5452.39 617.969 5452.39 Q642.922 5452.39 657.691 5436.09 Q672.205 5419.54 672.205 5391.28 Q672.205 5352.32 644.705 5328.89 Q616.95 5305.21 571.117 5305.21 L560.678 5305.21 L560.678 5351.81 M541.326 5258.36 L704.033 5258.36 L704.033 5305.21 L660.746 5305.21 Q686.719 5321.25 699.195 5345.19 Q711.417 5369.12 711.417 5403.75 Q711.417 5447.55 686.973 5473.52 Q662.274 5499.24 621.024 5499.24 Q572.9 5499.24 548.455 5467.16 Q524.011 5434.82 524.011 5370.91 L524.011 5305.21 L519.428 5305.21 Q487.09 5305.21 469.521 5326.6 Q451.697 5347.74 451.697 5386.18 Q451.697 5410.63 457.553 5433.8 Q463.41 5456.97 475.122 5478.36 L431.836 5478.36 Q421.905 5452.64 417.067 5428.45 Q411.975 5404.26 411.975 5381.35 Q411.975 5319.47 444.058 5288.92 Q476.141 5258.36 541.326 5258.36 Z" fill="#000000" fill-rule="evenodd" fill-opacity="1" /><path clip-path="url(#clip4600)" d="M 0 0 M337.878 5162.87 L418.85 5162.87 L418.85 5066.37 L455.261 5066.37 L455.261 5162.87 L610.075 5162.87 Q644.96 5162.87 654.89 5153.45 Q664.821 5143.78 664.821 5114.5 L664.821 5066.37 L704.033 5066.37 L704.033 5114.5 Q704.033 5168.73 683.918 5189.36 Q663.547 5209.98 610.075 5209.98 L455.261 5209.98 L455.261 5244.36 L418.85 5244.36 L418.85 5209.98 L337.878 5209.98 L337.878 5162.87 Z" fill="#000000" fill-rule="evenodd" fill-opacity="1" /><path clip-path="url(#clip4600)" d="M 0 0 M418.85 5017.23 L418.85 4970.38 L704.033 4970.38 L704.033 5017.23 L418.85 5017.23 M307.832 5017.23 L307.832 4970.38 L367.16 4970.38 L367.16 5017.23 L307.832 5017.23 Z" fill="#000000" fill-rule="evenodd" fill-opacity="1" /><path clip-path="url(#clip4600)" d="M 0 0 M451.697 4810.72 Q451.697 4848.41 481.234 4870.31 Q510.516 4892.21 561.696 4892.21 Q612.876 4892.21 642.413 4870.56 Q671.695 4848.66 671.695 4810.72 Q671.695 4773.29 642.159 4751.4 Q612.622 4729.5 561.696 4729.5 Q511.025 4729.5 481.488 4751.4 Q451.697 4773.29 451.697 4810.72 M411.975 4810.72 Q411.975 4749.61 451.697 4714.73 Q491.419 4679.85 561.696 4679.85 Q631.719 4679.85 671.695 4714.73 Q711.417 4749.61 711.417 4810.72 Q711.417 4872.09 671.695 4906.97 Q631.719 4941.6 561.696 4941.6 Q491.419 4941.6 451.697 4906.97 Q411.975 4872.09 411.975 4810.72 Z" fill="#000000" fill-rule="evenodd" fill-opacity="1" /><polyline clip-path="url(#clip4602)" style="stroke:#009af9; stroke-width:32; stroke-opacity:1; fill:none" points="
  2177.61,1319.33 2507.4,1333.87 2837.19,1341.13 3166.98,1346.86 3496.76,1347.84 3826.55,1368.31 4156.34,1384 4486.13,1402.54 4815.92,1407.71 5145.71,1428.6 
  5475.5,1458.43 5805.29,1492.64 6135.07,1506.83 6464.86,1587.95 6794.65,1590.91 7124.44,1600.73 7454.23,1665.74 7784.02,1861.26 8113.81,1822.28 8443.6,1945.31 
  8773.38,2041.07 9103.17,2044.22 9432.96,2230.59 9762.75,2357.3 10092.5,2360.07 10422.3,2608.37 10752.1,2720.07 11081.9,2834.25 11411.7,2996.38 11741.5,3200.81 
  12071.3,3327.15 12401.1,3437.28 12730.8,3723.15 13060.6,3794.8 13390.4,4166.05 13720.2,4220.74 14050,4422.16 14379.8,4609.32 14709.6,4906.22 15039.4,4896.9 
  15369.2,5027.96 15698.9,5133.8 16028.7,5234.14 16358.5,5377.95 16688.3,5308.82 17018.1,5372.16 17347.9,5435.72 17677.7,5494.61 18007.5,5464.83 18337.3,5310.23 
  
  "/>
<polyline clip-path="url(#clip4602)" style="stroke:#e26f46; stroke-width:32; stroke-opacity:1; fill:none" points="
  2177.61,1302.64 2507.4,1311.6 2837.19,1309.07 3166.98,1330.89 3496.76,1334.47 3826.55,1351.18 4156.34,1375.65 4486.13,1377.69 4815.92,1402.96 5145.71,1413.99 
  5475.5,1450.72 5805.29,1510.21 6135.07,1567.51 6464.86,1623.34 6794.65,1789.86 7124.44,1740.17 7454.23,1926.05 7784.02,2156.68 8113.81,2106.68 8443.6,2391.27 
  8773.38,2732.77 9103.17,3102.36 9432.96,3406.89 9762.75,3768.49 10092.5,4005.56 10422.3,4467.46 10752.1,4617.1 11081.9,5222.85 11411.7,5386.36 11741.5,6164.68 
  12071.3,6102.86 12401.1,6800.69 12730.8,6939.57 13060.6,7102.97 13390.4,7002.27 13720.2,7046.21 14050,7369.05 14379.8,7053.15 14709.6,7234.77 15039.4,6921.01 
  15369.2,6758.78 15698.9,6235.36 16028.7,6023.58 16358.5,6293.11 16688.3,6110.9 17018.1,6042.11 17347.9,5757.15 17677.7,5648.58 18007.5,5034.74 18337.3,5068.97 
  
  "/>
<polyline clip-path="url(#clip4602)" style="stroke:#3da44d; stroke-width:32; stroke-opacity:1; fill:none" points="
  2177.61,1292.94 2507.4,1297.96 2837.19,1290.39 3166.98,1309.55 3496.76,1308.88 3826.55,1312.87 4156.34,1329.9 4486.13,1381.38 4815.92,1350.47 5145.71,1393.26 
  5475.5,1415.4 5805.29,1483.71 6135.07,1581.58 6464.86,1699.34 6794.65,1775.3 7124.44,2069.34 7454.23,2365.36 7784.02,2426.14 8113.81,3275.65 8443.6,3687.39 
  8773.38,4045.65 9103.17,4826.13 9432.96,5415.99 9762.75,6676.6 10092.5,6880.61 10422.3,7443.85 10752.1,7699.62 11081.9,8122.88 11411.7,8211.94 11741.5,8181.96 
  12071.3,7885 12401.1,7272.95 12730.8,8475.34 13060.6,7300.46 13390.4,7060.08 13720.2,7236.86 14050,6517.35 14379.8,6730.12 14709.6,5643.97 15039.4,5897.97 
  15369.2,5392.66 15698.9,5344.88 16028.7,5032.05 16358.5,4910.44 16688.3,4730.59 17018.1,4745.06 17347.9,4540.19 17677.7,4494.63 18007.5,4658.28 18337.3,3987.09 
  
  "/>
<polyline clip-path="url(#clip4602)" style="stroke:#c271d2; stroke-width:32; stroke-opacity:1; fill:none" points="
  2177.61,1286.71 2507.4,1288.76 2837.19,1291.88 3166.98,1299.48 3496.76,1294.47 3826.55,1297.63 4156.34,1323.72 4486.13,1318.56 4815.92,1337.81 5145.71,1370.5 
  5475.5,1393.28 5805.29,1486.62 6135.07,1518.14 6464.86,1691.76 6794.65,1936.62 7124.44,2408.8 7454.23,2699.78 7784.02,3437.51 8113.81,4521.32 8443.6,4486.35 
  8773.38,6552.34 9103.17,7330.27 9432.96,8622.45 9762.75,9037.17 10092.5,9124.1 10422.3,8741.35 10752.1,8255.25 11081.9,8133.55 11411.7,8269.6 11741.5,6915.96 
  12071.3,7641.75 12401.1,6505.82 12730.8,6604.61 13060.6,6001.19 13390.4,6326.44 13720.2,5545.41 14050,5852.49 14379.8,5152.72 14709.6,4916.62 15039.4,4718.93 
  15369.2,4766.02 15698.9,4667.17 16028.7,4300.14 16358.5,4779.02 16688.3,4428.14 17018.1,4230.26 17347.9,4060.07 17677.7,4101.35 18007.5,3794.58 18337.3,3822.07 
  
  "/>
<polyline clip-path="url(#clip4602)" style="stroke:#ac8d18; stroke-width:32; stroke-opacity:1; fill:none" points="
  2177.61,1282.05 2507.4,1285.13 2837.19,1287.24 3166.98,1290.18 3496.76,1290.87 3826.55,1302.04 4156.34,1301.22 4486.13,1315.72 4815.92,1343.82 5145.71,1350.48 
  5475.5,1388.53 5805.29,1398.82 6135.07,1473.15 6464.86,1923.6 6794.65,2077.18 7124.44,3111.59 7454.23,3299.51 7784.02,4025.36 8113.81,6289.4 8443.6,7896.03 
  8773.38,8397.73 9103.17,9663.52 9432.96,9615.62 9762.75,9273.72 10092.5,10058 10422.3,7224.29 10752.1,7879.26 11081.9,7292.1 11411.7,7177.29 11741.5,6880.23 
  12071.3,6425.66 12401.1,6354.3 12730.8,5504.64 13060.6,5984.35 13390.4,5372.82 13720.2,5392.12 14050,5078.23 14379.8,4683.08 14709.6,4991.61 15039.4,4562.19 
  15369.2,4384.16 15698.9,4302.86 16028.7,4245.04 16358.5,4081.67 16688.3,3846.77 17018.1,3989.65 17347.9,3678.04 17677.7,3793.62 18007.5,3583.35 18337.3,3643.75 
  
  "/>
<polyline clip-path="url(#clip4602)" style="stroke:#00a9ad; stroke-width:32; stroke-opacity:1; fill:none" points="
  2177.61,1282.52 2507.4,1283.56 2837.19,1284.81 3166.98,1286.03 3496.76,1287.84 3826.55,1287.99 4156.34,1294.48 4486.13,1298.12 4815.92,1315.53 5145.71,1349.84 
  5475.5,1358.33 5805.29,1410.26 6135.07,1646.25 6464.86,1856.53 6794.65,2725.34 7124.44,3081.9 7454.23,5707.01 7784.02,7389.57 8113.81,8604.02 8443.6,9932.96 
  8773.38,9355.12 9103.17,11091.2 9432.96,8743.74 9762.75,7949.73 10092.5,7257.98 10422.3,7446.14 10752.1,6313.49 11081.9,7190.03 11411.7,6746.87 11741.5,6646.73 
  12071.3,5565.08 12401.1,5040.44 12730.8,5499.47 13060.6,5151.89 13390.4,4916.2 13720.2,4891.82 14050,4747.49 14379.8,4641.81 14709.6,4634.41 15039.4,4294.51 
  15369.2,4389.12 15698.9,4221.04 16028.7,4073.69 16358.5,4071.42 16688.3,3867.55 17018.1,3672.32 17347.9,3786.76 17677.7,3768.44 18007.5,3610.61 18337.3,3559.46 
  
  "/>
<polyline clip-path="url(#clip4602)" style="stroke:#ed5d92; stroke-width:32; stroke-opacity:1; fill:none" points="
  2177.61,1374.17 2507.4,1381.48 2837.19,1396.12 3166.98,1419.07 3496.76,1408.41 3826.55,1429.4 4156.34,1462.93 4486.13,1469.11 4815.92,1486.78 5145.71,1521.49 
  5475.5,1554.36 5805.29,1574.6 6135.07,1607.12 6464.86,1639.32 6794.65,1716.12 7124.44,1750.21 7454.23,1844.14 7784.02,1878.72 8113.81,1943.13 8443.6,2074.11 
  8773.38,2240.74 9103.17,2274.88 9432.96,2432.71 9762.75,2473.44 10092.5,2678.97 10422.3,2770.76 10752.1,2992.61 11081.9,3135.45 11411.7,3304.9 11741.5,3364.25 
  12071.3,3550.35 12401.1,3861.7 12730.8,4252.1 13060.6,4189.48 13390.4,4474.33 13720.2,4667.81 14050,4970.01 14379.8,5248.24 14709.6,5410.11 15039.4,5553.75 
  15369.2,5728.82 15698.9,6038.3 16028.7,6348.24 16358.5,6453.32 16688.3,6452.05 17018.1,6631.39 17347.9,6812.17 17677.7,6924.46 18007.5,7156.36 18337.3,7246.93 
  
  "/>
<path clip-path="url(#clip4600)" d="
M2268.82 10233.4 L9628.61 10233.4 L9628.61 6362.72 L2268.82 6362.72  Z
  " fill="#ffffff" fill-rule="evenodd" fill-opacity="1"/>
<polyline clip-path="url(#clip4600)" style="stroke:#000000; stroke-width:32; stroke-opacity:1; fill:none" points="
  2268.82,10233.4 9628.61,10233.4 9628.61,6362.72 2268.82,6362.72 2268.82,10233.4 
  "/>
<polyline clip-path="url(#clip4600)" style="stroke:#009af9; stroke-width:32; stroke-opacity:1; fill:none" points="
  2460.82,6846.56 3612.82,6846.56 
  "/>
<path clip-path="url(#clip4600)" d="M 0 0 M3804.82 6708.32 L3842.23 6708.32 L3842.23 6953.32 L3976.86 6953.32 L3976.86 6984.8 L3804.82 6984.8 L3804.82 6708.32 Z" fill="#000000" fill-rule="evenodd" fill-opacity="1" /><path clip-path="url(#clip4600)" d="M 0 0 M4137.6 6812.58 L4375 6812.58 L4375 6843.69 L4137.6 6843.69 L4137.6 6812.58 M4137.6 6888.13 L4375 6888.13 L4375 6919.61 L4137.6 6919.61 L4137.6 6888.13 Z" fill="#000000" fill-rule="evenodd" fill-opacity="1" /><path clip-path="url(#clip4600)" d="M 0 0 M4620.74 6831.65 Q4595.56 6831.65 4580.74 6848.87 Q4566.11 6866.1 4566.11 6896.1 Q4566.11 6925.91 4580.74 6943.32 Q4595.56 6960.54 4620.74 6960.54 Q4645.93 6960.54 4660.56 6943.32 Q4675.37 6925.91 4675.37 6896.1 Q4675.37 6866.1 4660.56 6848.87 Q4645.93 6831.65 4620.74 6831.65 M4695 6714.43 L4695 6748.5 Q4680.93 6741.84 4666.48 6738.32 Q4652.22 6734.8 4638.15 6734.8 Q4601.11 6734.8 4581.48 6759.8 Q4562.04 6784.8 4559.26 6835.36 Q4570.19 6819.24 4586.67 6810.73 Q4603.15 6802.02 4622.96 6802.02 Q4664.63 6802.02 4688.7 6827.39 Q4712.96 6852.58 4712.96 6896.1 Q4712.96 6938.69 4687.78 6964.43 Q4662.59 6990.17 4620.74 6990.17 Q4572.78 6990.17 4547.41 6953.5 Q4522.04 6916.65 4522.04 6846.84 Q4522.04 6781.28 4553.15 6742.39 Q4584.26 6703.32 4636.67 6703.32 Q4650.74 6703.32 4665 6706.1 Q4679.44 6708.87 4695 6714.43 Z" fill="#000000" fill-rule="evenodd" fill-opacity="1" /><polyline clip-path="url(#clip4600)" style="stroke:#e26f46; stroke-width:32; stroke-opacity:1; fill:none" points="
  2460.82,7330.4 3612.82,7330.4 
  "/>
<path clip-path="url(#clip4600)" d="M 0 0 M3804.82 7192.16 L3842.23 7192.16 L3842.23 7437.16 L3976.86 7437.16 L3976.86 7468.64 L3804.82 7468.64 L3804.82 7192.16 Z" fill="#000000" fill-rule="evenodd" fill-opacity="1" /><path clip-path="url(#clip4600)" d="M 0 0 M4137.6 7296.42 L4375 7296.42 L4375 7327.53 L4137.6 7327.53 L4137.6 7296.42 M4137.6 7371.97 L4375 7371.97 L4375 7403.45 L4137.6 7403.45 L4137.6 7371.97 Z" fill="#000000" fill-rule="evenodd" fill-opacity="1" /><path clip-path="url(#clip4600)" d="M 0 0 M4616.11 7337.34 Q4589.44 7337.34 4574.07 7351.6 Q4558.89 7365.86 4558.89 7390.86 Q4558.89 7415.86 4574.07 7430.12 Q4589.44 7444.38 4616.11 7444.38 Q4642.78 7444.38 4658.15 7430.12 Q4673.52 7415.68 4673.52 7390.86 Q4673.52 7365.86 4658.15 7351.6 Q4642.96 7337.34 4616.11 7337.34 M4578.7 7321.42 Q4554.63 7315.49 4541.11 7299.01 Q4527.78 7282.53 4527.78 7258.83 Q4527.78 7225.68 4551.3 7206.42 Q4575 7187.16 4616.11 7187.16 Q4657.41 7187.16 4680.93 7206.42 Q4704.44 7225.68 4704.44 7258.83 Q4704.44 7282.53 4690.93 7299.01 Q4677.59 7315.49 4653.7 7321.42 Q4680.74 7327.71 4695.74 7346.05 Q4710.93 7364.38 4710.93 7390.86 Q4710.93 7431.05 4686.3 7452.53 Q4661.85 7474.01 4616.11 7474.01 Q4570.37 7474.01 4545.74 7452.53 Q4521.3 7431.05 4521.3 7390.86 Q4521.3 7364.38 4536.48 7346.05 Q4551.67 7327.71 4578.7 7321.42 M4565 7262.34 Q4565 7283.82 4578.33 7295.86 Q4591.85 7307.9 4616.11 7307.9 Q4640.19 7307.9 4653.7 7295.86 Q4667.41 7283.82 4667.41 7262.34 Q4667.41 7240.86 4653.7 7228.83 Q4640.19 7216.79 4616.11 7216.79 Q4591.85 7216.79 4578.33 7228.83 Q4565 7240.86 4565 7262.34 Z" fill="#000000" fill-rule="evenodd" fill-opacity="1" /><polyline clip-path="url(#clip4600)" style="stroke:#3da44d; stroke-width:32; stroke-opacity:1; fill:none" points="
  2460.82,7814.24 3612.82,7814.24 
  "/>
<path clip-path="url(#clip4600)" d="M 0 0 M3804.82 7676 L3842.23 7676 L3842.23 7921 L3976.86 7921 L3976.86 7952.48 L3804.82 7952.48 L3804.82 7676 Z" fill="#000000" fill-rule="evenodd" fill-opacity="1" /><path clip-path="url(#clip4600)" d="M 0 0 M4137.6 7780.26 L4375 7780.26 L4375 7811.37 L4137.6 7811.37 L4137.6 7780.26 M4137.6 7855.81 L4375 7855.81 L4375 7887.29 L4137.6 7887.29 L4137.6 7855.81 Z" fill="#000000" fill-rule="evenodd" fill-opacity="1" /><path clip-path="url(#clip4600)" d="M 0 0 M4542.59 7921 L4603.7 7921 L4603.7 7710.07 L4537.22 7723.41 L4537.22 7689.33 L4603.33 7676 L4640.74 7676 L4640.74 7921 L4701.85 7921 L4701.85 7952.48 L4542.59 7952.48 L4542.59 7921 Z" fill="#000000" fill-rule="evenodd" fill-opacity="1" /><path clip-path="url(#clip4600)" d="M 0 0 M4822.41 7700.63 Q4793.52 7700.63 4778.89 7729.15 Q4764.44 7757.48 4764.44 7814.52 Q4764.44 7871.37 4778.89 7899.89 Q4793.52 7928.22 4822.41 7928.22 Q4851.48 7928.22 4865.92 7899.89 Q4880.55 7871.37 4880.55 7814.52 Q4880.55 7757.48 4865.92 7729.15 Q4851.48 7700.63 4822.41 7700.63 M4822.41 7671 Q4868.89 7671 4893.33 7707.85 Q4917.96 7744.52 4917.96 7814.52 Q4917.96 7884.33 4893.33 7921.18 Q4868.89 7957.85 4822.41 7957.85 Q4775.93 7957.85 4751.3 7921.18 Q4726.85 7884.33 4726.85 7814.52 Q4726.85 7744.52 4751.3 7707.85 Q4775.93 7671 4822.41 7671 Z" fill="#000000" fill-rule="evenodd" fill-opacity="1" /><polyline clip-path="url(#clip4600)" style="stroke:#c271d2; stroke-width:32; stroke-opacity:1; fill:none" points="
  2460.82,8298.08 3612.82,8298.08 
  "/>
<path clip-path="url(#clip4600)" d="M 0 0 M3804.82 8159.84 L3842.23 8159.84 L3842.23 8404.84 L3976.86 8404.84 L3976.86 8436.32 L3804.82 8436.32 L3804.82 8159.84 Z" fill="#000000" fill-rule="evenodd" fill-opacity="1" /><path clip-path="url(#clip4600)" d="M 0 0 M4137.6 8264.1 L4375 8264.1 L4375 8295.21 L4137.6 8295.21 L4137.6 8264.1 M4137.6 8339.65 L4375 8339.65 L4375 8371.13 L4137.6 8371.13 L4137.6 8339.65 Z" fill="#000000" fill-rule="evenodd" fill-opacity="1" /><path clip-path="url(#clip4600)" d="M 0 0 M4542.59 8404.84 L4603.7 8404.84 L4603.7 8193.91 L4537.22 8207.25 L4537.22 8173.17 L4603.33 8159.84 L4640.74 8159.84 L4640.74 8404.84 L4701.85 8404.84 L4701.85 8436.32 L4542.59 8436.32 L4542.59 8404.84 Z" fill="#000000" fill-rule="evenodd" fill-opacity="1" /><path clip-path="url(#clip4600)" d="M 0 0 M4774.63 8404.84 L4905.18 8404.84 L4905.18 8436.32 L4729.63 8436.32 L4729.63 8404.84 Q4750.93 8382.8 4787.59 8345.76 Q4824.44 8308.54 4833.89 8297.8 Q4851.85 8277.62 4858.89 8263.73 Q4866.11 8249.65 4866.11 8236.13 Q4866.11 8214.1 4850.55 8200.21 Q4835.18 8186.32 4810.37 8186.32 Q4792.78 8186.32 4773.15 8192.43 Q4753.7 8198.54 4731.48 8210.95 L4731.48 8173.17 Q4754.07 8164.1 4773.7 8159.47 Q4793.33 8154.84 4809.63 8154.84 Q4852.59 8154.84 4878.15 8176.32 Q4903.7 8197.8 4903.7 8233.73 Q4903.7 8250.76 4897.22 8266.13 Q4890.92 8281.32 4874.07 8302.06 Q4869.44 8307.43 4844.63 8333.17 Q4819.81 8358.73 4774.63 8404.84 Z" fill="#000000" fill-rule="evenodd" fill-opacity="1" /><polyline clip-path="url(#clip4600)" style="stroke:#ac8d18; stroke-width:32; stroke-opacity:1; fill:none" points="
  2460.82,8781.92 3612.82,8781.92 
  "/>
<path clip-path="url(#clip4600)" d="M 0 0 M3804.82 8643.68 L3842.23 8643.68 L3842.23 8888.68 L3976.86 8888.68 L3976.86 8920.16 L3804.82 8920.16 L3804.82 8643.68 Z" fill="#000000" fill-rule="evenodd" fill-opacity="1" /><path clip-path="url(#clip4600)" d="M 0 0 M4137.6 8747.94 L4375 8747.94 L4375 8779.05 L4137.6 8779.05 L4137.6 8747.94 M4137.6 8823.49 L4375 8823.49 L4375 8854.97 L4137.6 8854.97 L4137.6 8823.49 Z" fill="#000000" fill-rule="evenodd" fill-opacity="1" /><path clip-path="url(#clip4600)" d="M 0 0 M4542.59 8888.68 L4603.7 8888.68 L4603.7 8677.75 L4537.22 8691.09 L4537.22 8657.01 L4603.33 8643.68 L4640.74 8643.68 L4640.74 8888.68 L4701.85 8888.68 L4701.85 8920.16 L4542.59 8920.16 L4542.59 8888.68 Z" fill="#000000" fill-rule="evenodd" fill-opacity="1" /><path clip-path="url(#clip4600)" d="M 0 0 M4845.18 8676.27 L4750.74 8823.86 L4845.18 8823.86 L4845.18 8676.27 M4835.37 8643.68 L4882.41 8643.68 L4882.41 8823.86 L4921.85 8823.86 L4921.85 8854.97 L4882.41 8854.97 L4882.41 8920.16 L4845.18 8920.16 L4845.18 8854.97 L4720.37 8854.97 L4720.37 8818.86 L4835.37 8643.68 Z" fill="#000000" fill-rule="evenodd" fill-opacity="1" /><polyline clip-path="url(#clip4600)" style="stroke:#00a9ad; stroke-width:32; stroke-opacity:1; fill:none" points="
  2460.82,9265.76 3612.82,9265.76 
  "/>
<path clip-path="url(#clip4600)" d="M 0 0 M3804.82 9127.52 L3842.23 9127.52 L3842.23 9372.52 L3976.86 9372.52 L3976.86 9404 L3804.82 9404 L3804.82 9127.52 Z" fill="#000000" fill-rule="evenodd" fill-opacity="1" /><path clip-path="url(#clip4600)" d="M 0 0 M4137.6 9231.78 L4375 9231.78 L4375 9262.89 L4137.6 9262.89 L4137.6 9231.78 M4137.6 9307.33 L4375 9307.33 L4375 9338.81 L4137.6 9338.81 L4137.6 9307.33 Z" fill="#000000" fill-rule="evenodd" fill-opacity="1" /><path clip-path="url(#clip4600)" d="M 0 0 M4542.59 9372.52 L4603.7 9372.52 L4603.7 9161.59 L4537.22 9174.93 L4537.22 9140.85 L4603.33 9127.52 L4640.74 9127.52 L4640.74 9372.52 L4701.85 9372.52 L4701.85 9404 L4542.59 9404 L4542.59 9372.52 Z" fill="#000000" fill-rule="evenodd" fill-opacity="1" /><path clip-path="url(#clip4600)" d="M 0 0 M4827.04 9250.85 Q4801.85 9250.85 4787.04 9268.07 Q4772.41 9285.3 4772.41 9315.3 Q4772.41 9345.11 4787.04 9362.52 Q4801.85 9379.74 4827.04 9379.74 Q4852.22 9379.74 4866.85 9362.52 Q4881.67 9345.11 4881.67 9315.3 Q4881.67 9285.3 4866.85 9268.07 Q4852.22 9250.85 4827.04 9250.85 M4901.29 9133.63 L4901.29 9167.7 Q4887.22 9161.04 4872.78 9157.52 Q4858.52 9154 4844.44 9154 Q4807.41 9154 4787.78 9179 Q4768.33 9204 4765.55 9254.56 Q4776.48 9238.44 4792.96 9229.93 Q4809.44 9221.22 4829.26 9221.22 Q4870.92 9221.22 4895 9246.59 Q4919.26 9271.78 4919.26 9315.3 Q4919.26 9357.89 4894.07 9383.63 Q4868.89 9409.37 4827.04 9409.37 Q4779.07 9409.37 4753.7 9372.7 Q4728.33 9335.85 4728.33 9266.04 Q4728.33 9200.48 4759.44 9161.59 Q4790.55 9122.52 4842.96 9122.52 Q4857.04 9122.52 4871.3 9125.3 Q4885.74 9128.07 4901.29 9133.63 Z" fill="#000000" fill-rule="evenodd" fill-opacity="1" /><polyline clip-path="url(#clip4600)" style="stroke:#ed5d92; stroke-width:32; stroke-opacity:1; fill:none" points="
  2460.82,9749.6 3612.82,9749.6 
  "/>
<path clip-path="url(#clip4600)" d="M 0 0 M3804.82 9611.36 L3860.56 9611.36 L3931.11 9799.51 L4002.04 9611.36 L4057.78 9611.36 L4057.78 9887.84 L4021.3 9887.84 L4021.3 9645.06 L3950 9834.69 L3912.41 9834.69 L3841.12 9645.06 L3841.12 9887.84 L3804.82 9887.84 L3804.82 9611.36 Z" fill="#000000" fill-rule="evenodd" fill-opacity="1" /><path clip-path="url(#clip4600)" d="M 0 0 M4187.78 9783.58 Q4146.48 9783.58 4130.56 9793.02 Q4114.63 9802.47 4114.63 9825.25 Q4114.63 9843.39 4126.48 9854.14 Q4138.52 9864.69 4159.08 9864.69 Q4187.41 9864.69 4204.45 9844.69 Q4221.67 9824.51 4221.67 9791.17 L4221.67 9783.58 L4187.78 9783.58 M4255.74 9769.51 L4255.74 9887.84 L4221.67 9887.84 L4221.67 9856.36 Q4210 9875.25 4192.6 9884.32 Q4175.19 9893.21 4150 9893.21 Q4118.15 9893.21 4099.26 9875.43 Q4080.56 9857.47 4080.56 9827.47 Q4080.56 9792.47 4103.89 9774.69 Q4127.41 9756.91 4173.89 9756.91 L4221.67 9756.91 L4221.67 9753.58 Q4221.67 9730.06 4206.11 9717.28 Q4190.74 9704.32 4162.78 9704.32 Q4145 9704.32 4128.15 9708.58 Q4111.3 9712.84 4095.74 9721.36 L4095.74 9689.88 Q4114.45 9682.65 4132.04 9679.14 Q4149.63 9675.43 4166.3 9675.43 Q4211.3 9675.43 4233.52 9698.77 Q4255.74 9722.1 4255.74 9769.51 Z" fill="#000000" fill-rule="evenodd" fill-opacity="1" /><path clip-path="url(#clip4600)" d="M 0 0 M4463.89 9680.43 L4388.89 9781.36 L4467.78 9887.84 L4427.59 9887.84 L4367.22 9806.36 L4306.85 9887.84 L4266.67 9887.84 L4347.22 9779.32 L4273.52 9680.43 L4313.71 9680.43 L4368.71 9754.32 L4423.7 9680.43 L4463.89 9680.43 Z" fill="#000000" fill-rule="evenodd" fill-opacity="1" /><path clip-path="url(#clip4600)" d="M 0 0 M4535.74 9611.36 L4535.74 9714.14 L4504.26 9714.14 L4504.26 9611.36 L4535.74 9611.36 Z" fill="#000000" fill-rule="evenodd" fill-opacity="1" /><path clip-path="url(#clip4600)" d="M 0 0 M4703.7 9686.54 L4703.7 9718.77 Q4689.26 9711.36 4673.7 9707.65 Q4658.15 9703.95 4641.48 9703.95 Q4616.11 9703.95 4603.33 9711.73 Q4590.74 9719.51 4590.74 9735.06 Q4590.74 9746.91 4599.82 9753.77 Q4608.89 9760.43 4636.3 9766.54 L4647.96 9769.14 Q4684.26 9776.91 4699.44 9791.17 Q4714.81 9805.25 4714.81 9830.62 Q4714.81 9859.51 4691.85 9876.36 Q4669.07 9893.21 4629.07 9893.21 Q4612.41 9893.21 4594.26 9889.88 Q4576.3 9886.73 4556.3 9880.25 L4556.3 9845.06 Q4575.19 9854.88 4593.52 9859.88 Q4611.85 9864.69 4629.81 9864.69 Q4653.89 9864.69 4666.85 9856.54 Q4679.81 9848.21 4679.81 9833.21 Q4679.81 9819.32 4670.37 9811.91 Q4661.11 9804.51 4629.44 9797.65 L4617.59 9794.88 Q4585.93 9788.21 4571.85 9774.51 Q4557.78 9760.62 4557.78 9736.54 Q4557.78 9707.28 4578.52 9691.36 Q4599.26 9675.43 4637.41 9675.43 Q4656.3 9675.43 4672.96 9678.21 Q4689.63 9680.99 4703.7 9686.54 Z" fill="#000000" fill-rule="evenodd" fill-opacity="1" /><path clip-path="url(#clip4600)" d="M 0 0 M5020.37 9688.4 L5020.37 9720.25 Q5005.92 9712.28 4991.29 9708.4 Q4976.85 9704.32 4962.04 9704.32 Q4928.89 9704.32 4910.55 9725.43 Q4892.22 9746.36 4892.22 9784.32 Q4892.22 9822.28 4910.55 9843.39 Q4928.89 9864.32 4962.04 9864.32 Q4976.85 9864.32 4991.29 9860.43 Q5005.92 9856.36 5020.37 9848.39 L5020.37 9879.88 Q5006.11 9886.54 4990.74 9889.88 Q4975.55 9893.21 4958.33 9893.21 Q4911.48 9893.21 4883.89 9863.76 Q4856.3 9834.32 4856.3 9784.32 Q4856.3 9733.58 4884.07 9704.51 Q4912.04 9675.43 4960.55 9675.43 Q4976.29 9675.43 4991.29 9678.77 Q5006.29 9681.91 5020.37 9688.4 Z" fill="#000000" fill-rule="evenodd" fill-opacity="1" /><path clip-path="url(#clip4600)" d="M 0 0 M5150.37 9783.58 Q5109.07 9783.58 5093.15 9793.02 Q5077.22 9802.47 5077.22 9825.25 Q5077.22 9843.39 5089.07 9854.14 Q5101.11 9864.69 5121.66 9864.69 Q5150 9864.69 5167.03 9844.69 Q5184.26 9824.51 5184.26 9791.17 L5184.26 9783.58 L5150.37 9783.58 M5218.33 9769.51 L5218.33 9887.84 L5184.26 9887.84 L5184.26 9856.36 Q5172.59 9875.25 5155.18 9884.32 Q5137.78 9893.21 5112.59 9893.21 Q5080.74 9893.21 5061.85 9875.43 Q5043.15 9857.47 5043.15 9827.47 Q5043.15 9792.47 5066.48 9774.69 Q5090 9756.91 5136.48 9756.91 L5184.26 9756.91 L5184.26 9753.58 Q5184.26 9730.06 5168.7 9717.28 Q5153.33 9704.32 5125.37 9704.32 Q5107.59 9704.32 5090.74 9708.58 Q5073.89 9712.84 5058.33 9721.36 L5058.33 9689.88 Q5077.03 9682.65 5094.63 9679.14 Q5112.22 9675.43 5128.89 9675.43 Q5173.89 9675.43 5196.11 9698.77 Q5218.33 9722.1 5218.33 9769.51 Z" fill="#000000" fill-rule="evenodd" fill-opacity="1" /><path clip-path="url(#clip4600)" d="M 0 0 M5254.07 9599.69 L5288.14 9599.69 L5288.14 9887.84 L5254.07 9887.84 L5254.07 9599.69 Z" fill="#000000" fill-rule="evenodd" fill-opacity="1" /><path clip-path="url(#clip4600)" d="M 0 0 M5473.14 9688.4 L5473.14 9720.25 Q5458.7 9712.28 5444.07 9708.4 Q5429.63 9704.32 5414.81 9704.32 Q5381.66 9704.32 5363.33 9725.43 Q5345 9746.36 5345 9784.32 Q5345 9822.28 5363.33 9843.39 Q5381.66 9864.32 5414.81 9864.32 Q5429.63 9864.32 5444.07 9860.43 Q5458.7 9856.36 5473.14 9848.39 L5473.14 9879.88 Q5458.88 9886.54 5443.51 9889.88 Q5428.33 9893.21 5411.11 9893.21 Q5364.26 9893.21 5336.66 9863.76 Q5309.07 9834.32 5309.07 9784.32 Q5309.07 9733.58 5336.85 9704.51 Q5364.81 9675.43 5413.33 9675.43 Q5429.07 9675.43 5444.07 9678.77 Q5459.07 9681.91 5473.14 9688.4 Z" fill="#000000" fill-rule="evenodd" fill-opacity="1" /><path clip-path="url(#clip4600)" d="M 0 0 M5505.37 9805.99 L5505.37 9680.43 L5539.44 9680.43 L5539.44 9804.69 Q5539.44 9834.14 5550.92 9848.95 Q5562.4 9863.58 5585.37 9863.58 Q5612.96 9863.58 5628.88 9845.99 Q5644.99 9828.39 5644.99 9798.02 L5644.99 9680.43 L5679.07 9680.43 L5679.07 9887.84 L5644.99 9887.84 L5644.99 9855.99 Q5632.59 9874.88 5616.11 9884.14 Q5599.81 9893.21 5578.14 9893.21 Q5542.4 9893.21 5523.88 9870.99 Q5505.37 9848.76 5505.37 9805.99 M5591.11 9675.43 L5591.11 9675.43 Z" fill="#000000" fill-rule="evenodd" fill-opacity="1" /><path clip-path="url(#clip4600)" d="M 0 0 M5714.81 9599.69 L5748.88 9599.69 L5748.88 9887.84 L5714.81 9887.84 L5714.81 9599.69 Z" fill="#000000" fill-rule="evenodd" fill-opacity="1" /><path clip-path="url(#clip4600)" d="M 0 0 M5878.88 9783.58 Q5837.59 9783.58 5821.66 9793.02 Q5805.73 9802.47 5805.73 9825.25 Q5805.73 9843.39 5817.59 9854.14 Q5829.62 9864.69 5850.18 9864.69 Q5878.51 9864.69 5895.55 9844.69 Q5912.77 9824.51 5912.77 9791.17 L5912.77 9783.58 L5878.88 9783.58 M5946.84 9769.51 L5946.84 9887.84 L5912.77 9887.84 L5912.77 9856.36 Q5901.1 9875.25 5883.7 9884.32 Q5866.29 9893.21 5841.1 9893.21 Q5809.25 9893.21 5790.36 9875.43 Q5771.66 9857.47 5771.66 9827.47 Q5771.66 9792.47 5794.99 9774.69 Q5818.51 9756.91 5864.99 9756.91 L5912.77 9756.91 L5912.77 9753.58 Q5912.77 9730.06 5897.22 9717.28 Q5881.85 9704.32 5853.88 9704.32 Q5836.1 9704.32 5819.25 9708.58 Q5802.4 9712.84 5786.85 9721.36 L5786.85 9689.88 Q5805.55 9682.65 5823.14 9679.14 Q5840.73 9675.43 5857.4 9675.43 Q5902.4 9675.43 5924.62 9698.77 Q5946.84 9722.1 5946.84 9769.51 Z" fill="#000000" fill-rule="evenodd" fill-opacity="1" /><path clip-path="url(#clip4600)" d="M 0 0 M6016.29 9621.54 L6016.29 9680.43 L6086.47 9680.43 L6086.47 9706.91 L6016.29 9706.91 L6016.29 9819.51 Q6016.29 9844.88 6023.14 9852.1 Q6030.18 9859.32 6051.47 9859.32 L6086.47 9859.32 L6086.47 9887.84 L6051.47 9887.84 Q6012.03 9887.84 5997.03 9873.21 Q5982.03 9858.39 5982.03 9819.51 L5982.03 9706.91 L5957.03 9706.91 L5957.03 9680.43 L5982.03 9680.43 L5982.03 9621.54 L6016.29 9621.54 Z" fill="#000000" fill-rule="evenodd" fill-opacity="1" /><path clip-path="url(#clip4600)" d="M 0 0 M6122.21 9680.43 L6156.29 9680.43 L6156.29 9887.84 L6122.21 9887.84 L6122.21 9680.43 M6122.21 9599.69 L6156.29 9599.69 L6156.29 9642.84 L6122.21 9642.84 L6122.21 9599.69 Z" fill="#000000" fill-rule="evenodd" fill-opacity="1" /><path clip-path="url(#clip4600)" d="M 0 0 M6272.4 9704.32 Q6244.99 9704.32 6229.07 9725.8 Q6213.14 9747.1 6213.14 9784.32 Q6213.14 9821.54 6228.88 9843.02 Q6244.81 9864.32 6272.4 9864.32 Q6299.62 9864.32 6315.55 9842.84 Q6331.47 9821.36 6331.47 9784.32 Q6331.47 9747.47 6315.55 9725.99 Q6299.62 9704.32 6272.4 9704.32 M6272.4 9675.43 Q6316.84 9675.43 6342.21 9704.32 Q6367.58 9733.21 6367.58 9784.32 Q6367.58 9835.25 6342.21 9864.32 Q6316.84 9893.21 6272.4 9893.21 Q6227.77 9893.21 6202.4 9864.32 Q6177.21 9835.25 6177.21 9784.32 Q6177.21 9733.21 6202.4 9704.32 Q6227.77 9675.43 6272.4 9675.43 Z" fill="#000000" fill-rule="evenodd" fill-opacity="1" /><path clip-path="url(#clip4600)" d="M 0 0 M6575.73 9762.65 L6575.73 9887.84 L6541.66 9887.84 L6541.66 9763.77 Q6541.66 9734.32 6530.18 9719.69 Q6518.69 9705.06 6495.73 9705.06 Q6468.14 9705.06 6452.21 9722.65 Q6436.29 9740.25 6436.29 9770.62 L6436.29 9887.84 L6402.03 9887.84 L6402.03 9680.43 L6436.29 9680.43 L6436.29 9712.65 Q6448.51 9693.95 6464.99 9684.69 Q6481.66 9675.43 6503.32 9675.43 Q6539.06 9675.43 6557.4 9697.65 Q6575.73 9719.69 6575.73 9762.65 Z" fill="#000000" fill-rule="evenodd" fill-opacity="1" /><path clip-path="url(#clip4600)" d="M 0 0 M6620.17 9840.8 L6659.25 9840.8 L6659.25 9872.65 L6628.88 9931.91 L6604.99 9931.91 L6620.17 9872.65 L6620.17 9840.8 Z" fill="#000000" fill-rule="evenodd" fill-opacity="1" /><path clip-path="url(#clip4600)" d="M 0 0 M6817.03 9611.36 L6854.43 9611.36 L6854.43 9868.58 Q6854.43 9918.58 6835.36 9941.17 Q6816.47 9963.76 6774.43 9963.76 L6760.17 9963.76 L6760.17 9932.28 L6771.84 9932.28 Q6796.66 9932.28 6806.84 9918.39 Q6817.03 9904.51 6817.03 9868.58 L6817.03 9611.36 Z" fill="#000000" fill-rule="evenodd" fill-opacity="1" /><path clip-path="url(#clip4600)" d="M 0 0 M6901.47 9856.36 L6962.58 9856.36 L6962.58 9645.43 L6896.1 9658.77 L6896.1 9624.69 L6962.21 9611.36 L6999.62 9611.36 L6999.62 9856.36 L7060.73 9856.36 L7060.73 9887.84 L6901.47 9887.84 L6901.47 9856.36 Z" fill="#000000" fill-rule="evenodd" fill-opacity="1" /><path clip-path="url(#clip4600)" d="M 0 0 M7221.47 9715.62 L7458.87 9715.62 L7458.87 9746.73 L7221.47 9746.73 L7221.47 9715.62 M7221.47 9791.17 L7458.87 9791.17 L7458.87 9822.65 L7221.47 9822.65 L7221.47 9791.17 Z" fill="#000000" fill-rule="evenodd" fill-opacity="1" /><path clip-path="url(#clip4600)" d="M 0 0 M7699.98 9635.99 Q7671.09 9635.99 7656.47 9664.51 Q7642.02 9692.84 7642.02 9749.88 Q7642.02 9806.73 7656.47 9835.25 Q7671.09 9863.58 7699.98 9863.58 Q7729.06 9863.58 7743.5 9835.25 Q7758.13 9806.73 7758.13 9749.88 Q7758.13 9692.84 7743.5 9664.51 Q7729.06 9635.99 7699.98 9635.99 M7699.98 9606.36 Q7746.46 9606.36 7770.91 9643.21 Q7795.54 9679.88 7795.54 9749.88 Q7795.54 9819.69 7770.91 9856.54 Q7746.46 9893.21 7699.98 9893.21 Q7653.5 9893.21 7628.87 9856.54 Q7604.43 9819.69 7604.43 9749.88 Q7604.43 9679.88 7628.87 9643.21 Q7653.5 9606.36 7699.98 9606.36 Z" fill="#000000" fill-rule="evenodd" fill-opacity="1" /><path clip-path="url(#clip4600)" d="M 0 0 M7836.09 9840.8 L7875.17 9840.8 L7875.17 9887.84 L7836.09 9887.84 L7836.09 9840.8 Z" fill="#000000" fill-rule="evenodd" fill-opacity="1" /><path clip-path="url(#clip4600)" d="M 0 0 M8018.5 9643.95 L7924.06 9791.54 L8018.5 9791.54 L8018.5 9643.95 M8008.69 9611.36 L8055.72 9611.36 L8055.72 9791.54 L8095.17 9791.54 L8095.17 9822.65 L8055.72 9822.65 L8055.72 9887.84 L8018.5 9887.84 L8018.5 9822.65 L7893.69 9822.65 L7893.69 9786.54 L8008.69 9611.36 Z" fill="#000000" fill-rule="evenodd" fill-opacity="1" /><path clip-path="url(#clip4600)" d="M 0 0 M8139.61 9840.8 L8178.68 9840.8 L8178.68 9872.65 L8148.31 9931.91 L8124.43 9931.91 L8139.61 9872.65 L8139.61 9840.8 Z" fill="#000000" fill-rule="evenodd" fill-opacity="1" /><path clip-path="url(#clip4600)" d="M 0 0 M8336.46 9611.36 L8373.87 9611.36 L8373.87 9856.36 L8508.5 9856.36 L8508.5 9887.84 L8336.46 9887.84 L8336.46 9611.36 Z" fill="#000000" fill-rule="evenodd" fill-opacity="1" /><path clip-path="url(#clip4600)" d="M 0 0 M8669.24 9715.62 L8906.64 9715.62 L8906.64 9746.73 L8669.24 9746.73 L8669.24 9715.62 M8669.24 9791.17 L8906.64 9791.17 L8906.64 9822.65 L8669.24 9822.65 L8669.24 9791.17 Z" fill="#000000" fill-rule="evenodd" fill-opacity="1" /><path clip-path="url(#clip4600)" d="M 0 0 M9152.38 9734.69 Q9127.2 9734.69 9112.38 9751.91 Q9097.75 9769.14 9097.75 9799.14 Q9097.75 9828.95 9112.38 9846.36 Q9127.2 9863.58 9152.38 9863.58 Q9177.57 9863.58 9192.2 9846.36 Q9207.01 9828.95 9207.01 9799.14 Q9207.01 9769.14 9192.2 9751.91 Q9177.57 9734.69 9152.38 9734.69 M9226.64 9617.47 L9226.64 9651.54 Q9212.57 9644.88 9198.12 9641.36 Q9183.86 9637.84 9169.79 9637.84 Q9132.75 9637.84 9113.12 9662.84 Q9093.68 9687.84 9090.9 9738.4 Q9101.83 9722.28 9118.31 9713.77 Q9134.79 9705.06 9154.61 9705.06 Q9196.27 9705.06 9220.35 9730.43 Q9244.61 9755.62 9244.61 9799.14 Q9244.61 9841.73 9219.42 9867.47 Q9194.23 9893.21 9152.38 9893.21 Q9104.42 9893.21 9079.05 9856.54 Q9053.68 9819.69 9053.68 9749.88 Q9053.68 9684.32 9084.79 9645.43 Q9115.9 9606.36 9168.31 9606.36 Q9182.38 9606.36 9196.64 9609.14 Q9211.09 9611.91 9226.64 9617.47 Z" fill="#000000" fill-rule="evenodd" fill-opacity="1" /></svg>
