<?xml version="1.0" encoding="utf-8"?>
<svg xmlns="http://www.w3.org/2000/svg" xmlns:xlink="http://www.w3.org/1999/xlink" width="4800" height="3200" viewBox="0 0 19200 12800">
<defs>
  <clipPath id="clip7700">
    <rect x="0" y="0" width="19200" height="12800"/>
  </clipPath>
</defs>
<path clip-path="url(#clip7700)" d="
M0 12800 L19200 12800 L19200 0 L0 0  Z
  " fill="#ffffff" fill-rule="evenodd" fill-opacity="1"/>
<defs>
  <clipPath id="clip7701">
    <rect x="3840" y="0" width="13441" height="12800"/>
  </clipPath>
</defs>
<path clip-path="url(#clip7700)" d="
M2339.85 11385.4 L18822 11385.4 L18822 987.777 L2339.85 987.777  Z
  " fill="#ffffff" fill-rule="evenodd" fill-opacity="1"/>
<defs>
  <clipPath id="clip7702">
    <rect x="2339" y="987" width="16483" height="10399"/>
  </clipPath>
</defs>
<polyline clip-path="url(#clip7702)" style="stroke:#000000; stroke-width:16; stroke-opacity:0.1; fill:none" points="
  2806.33,11385.4 2806.33,987.777 
  "/>
<polyline clip-path="url(#clip7702)" style="stroke:#000000; stroke-width:16; stroke-opacity:0.1; fill:none" points="
  5916.18,11385.4 5916.18,987.777 
  "/>
<polyline clip-path="url(#clip7702)" style="stroke:#000000; stroke-width:16; stroke-opacity:0.1; fill:none" points="
  9026.03,11385.4 9026.03,987.777 
  "/>
<polyline clip-path="url(#clip7702)" style="stroke:#000000; stroke-width:16; stroke-opacity:0.1; fill:none" points="
  12135.9,11385.4 12135.9,987.777 
  "/>
<polyline clip-path="url(#clip7702)" style="stroke:#000000; stroke-width:16; stroke-opacity:0.1; fill:none" points="
  15245.7,11385.4 15245.7,987.777 
  "/>
<polyline clip-path="url(#clip7702)" style="stroke:#000000; stroke-width:16; stroke-opacity:0.1; fill:none" points="
  18355.6,11385.4 18355.6,987.777 
  "/>
<polyline clip-path="url(#clip7702)" style="stroke:#000000; stroke-width:16; stroke-opacity:0.1; fill:none" points="
  18355.6,11385.4 18355.6,987.777 
  "/>
<polyline clip-path="url(#clip7702)" style="stroke:#000000; stroke-width:16; stroke-opacity:0.1; fill:none" points="
  2339.85,9686.22 18822,9686.22 
  "/>
<polyline clip-path="url(#clip7702)" style="stroke:#000000; stroke-width:16; stroke-opacity:0.1; fill:none" points="
  2339.85,7520.31 18822,7520.31 
  "/>
<polyline clip-path="url(#clip7702)" style="stroke:#000000; stroke-width:16; stroke-opacity:0.1; fill:none" points="
  2339.85,5354.4 18822,5354.4 
  "/>
<polyline clip-path="url(#clip7702)" style="stroke:#000000; stroke-width:16; stroke-opacity:0.1; fill:none" points="
  2339.85,3188.48 18822,3188.48 
  "/>
<polyline clip-path="url(#clip7702)" style="stroke:#000000; stroke-width:16; stroke-opacity:0.1; fill:none" points="
  2339.85,1022.57 18822,1022.57 
  "/>
<polyline clip-path="url(#clip7700)" style="stroke:#000000; stroke-width:32; stroke-opacity:1; fill:none" points="
  2339.85,11385.4 18822,11385.4 
  "/>
<polyline clip-path="url(#clip7700)" style="stroke:#000000; stroke-width:32; stroke-opacity:1; fill:none" points="
  2339.85,11385.4 2339.85,987.777 
  "/>
<polyline clip-path="url(#clip7700)" style="stroke:#000000; stroke-width:32; stroke-opacity:1; fill:none" points="
  2806.33,11385.4 2806.33,11260.7 
  "/>
<polyline clip-path="url(#clip7700)" style="stroke:#000000; stroke-width:32; stroke-opacity:1; fill:none" points="
  5916.18,11385.4 5916.18,11260.7 
  "/>
<polyline clip-path="url(#clip7700)" style="stroke:#000000; stroke-width:32; stroke-opacity:1; fill:none" points="
  9026.03,11385.4 9026.03,11260.7 
  "/>
<polyline clip-path="url(#clip7700)" style="stroke:#000000; stroke-width:32; stroke-opacity:1; fill:none" points="
  12135.9,11385.4 12135.9,11260.7 
  "/>
<polyline clip-path="url(#clip7700)" style="stroke:#000000; stroke-width:32; stroke-opacity:1; fill:none" points="
  15245.7,11385.4 15245.7,11260.7 
  "/>
<polyline clip-path="url(#clip7700)" style="stroke:#000000; stroke-width:32; stroke-opacity:1; fill:none" points="
  18355.6,11385.4 18355.6,11260.7 
  "/>
<polyline clip-path="url(#clip7700)" style="stroke:#000000; stroke-width:32; stroke-opacity:1; fill:none" points="
  18355.6,11385.4 18355.6,11260.7 
  "/>
<polyline clip-path="url(#clip7700)" style="stroke:#000000; stroke-width:32; stroke-opacity:1; fill:none" points="
  2339.85,9686.22 2537.64,9686.22 
  "/>
<polyline clip-path="url(#clip7700)" style="stroke:#000000; stroke-width:32; stroke-opacity:1; fill:none" points="
  2339.85,7520.31 2537.64,7520.31 
  "/>
<polyline clip-path="url(#clip7700)" style="stroke:#000000; stroke-width:32; stroke-opacity:1; fill:none" points="
  2339.85,5354.4 2537.64,5354.4 
  "/>
<polyline clip-path="url(#clip7700)" style="stroke:#000000; stroke-width:32; stroke-opacity:1; fill:none" points="
  2339.85,3188.48 2537.64,3188.48 
  "/>
<polyline clip-path="url(#clip7700)" style="stroke:#000000; stroke-width:32; stroke-opacity:1; fill:none" points="
  2339.85,1022.57 2537.64,1022.57 
  "/>
<path clip-path="url(#clip7700)" d="M 0 0 M2449.94 11561.4 Q2421.05 11561.4 2406.42 11589.9 Q2391.98 11618.2 2391.98 11675.3 Q2391.98 11732.1 2406.42 11760.6 Q2421.05 11789 2449.94 11789 Q2479.02 11789 2493.46 11760.6 Q2508.09 11732.1 2508.09 11675.3 Q2508.09 11618.2 2493.46 11589.9 Q2479.02 11561.4 2449.94 11561.4 M2449.94 11531.7 Q2496.42 11531.7 2520.87 11568.6 Q2545.5 11605.3 2545.5 11675.3 Q2545.5 11745.1 2520.87 11781.9 Q2496.42 11818.6 2449.94 11818.6 Q2403.46 11818.6 2378.83 11781.9 Q2354.39 11745.1 2354.39 11675.3 Q2354.39 11605.3 2378.83 11568.6 Q2403.46 11531.7 2449.94 11531.7 Z" fill="#000000" fill-rule="evenodd" fill-opacity="1" /><path clip-path="url(#clip7700)" d="M 0 0 M2586.05 11766.2 L2625.13 11766.2 L2625.13 11813.2 L2586.05 11813.2 L2586.05 11766.2 Z" fill="#000000" fill-rule="evenodd" fill-opacity="1" /><path clip-path="url(#clip7700)" d="M 0 0 M2666.05 11536.7 L2812.9 11536.7 L2812.9 11568.2 L2700.31 11568.2 L2700.31 11636 Q2708.46 11633.2 2716.61 11631.9 Q2724.76 11630.4 2732.9 11630.4 Q2779.2 11630.4 2806.24 11655.8 Q2833.27 11681.2 2833.27 11724.5 Q2833.27 11769.1 2805.5 11794 Q2777.72 11818.6 2727.16 11818.6 Q2709.76 11818.6 2691.61 11815.6 Q2673.65 11812.7 2654.39 11806.7 L2654.39 11769.1 Q2671.05 11778.2 2688.83 11782.7 Q2706.61 11787.1 2726.42 11787.1 Q2758.46 11787.1 2777.16 11770.3 Q2795.87 11753.4 2795.87 11724.5 Q2795.87 11695.6 2777.16 11678.8 Q2758.46 11661.9 2726.42 11661.9 Q2711.42 11661.9 2696.42 11665.3 Q2681.61 11668.6 2666.05 11675.6 L2666.05 11536.7 Z" fill="#000000" fill-rule="evenodd" fill-opacity="1" /><path clip-path="url(#clip7700)" d="M 0 0 M2864.39 11536.7 L3042.16 11536.7 L3042.16 11552.7 L2941.79 11813.2 L2902.72 11813.2 L2997.16 11568.2 L2864.39 11568.2 L2864.39 11536.7 Z" fill="#000000" fill-rule="evenodd" fill-opacity="1" /><path clip-path="url(#clip7700)" d="M 0 0 M3162.72 11561.4 Q3133.83 11561.4 3119.2 11589.9 Q3104.75 11618.2 3104.75 11675.3 Q3104.75 11732.1 3119.2 11760.6 Q3133.83 11789 3162.72 11789 Q3191.79 11789 3206.24 11760.6 Q3220.86 11732.1 3220.86 11675.3 Q3220.86 11618.2 3206.24 11589.9 Q3191.79 11561.4 3162.72 11561.4 M3162.72 11531.7 Q3209.2 11531.7 3233.64 11568.6 Q3258.27 11605.3 3258.27 11675.3 Q3258.27 11745.1 3233.64 11781.9 Q3209.2 11818.6 3162.72 11818.6 Q3116.24 11818.6 3091.61 11781.9 Q3067.16 11745.1 3067.16 11675.3 Q3067.16 11605.3 3091.61 11568.6 Q3116.24 11531.7 3162.72 11531.7 Z" fill="#000000" fill-rule="evenodd" fill-opacity="1" /><path clip-path="url(#clip7700)" d="M 0 0 M5566.18 11561.4 Q5537.29 11561.4 5522.66 11589.9 Q5508.22 11618.2 5508.22 11675.3 Q5508.22 11732.1 5522.66 11760.6 Q5537.29 11789 5566.18 11789 Q5595.25 11789 5609.7 11760.6 Q5624.33 11732.1 5624.33 11675.3 Q5624.33 11618.2 5609.7 11589.9 Q5595.25 11561.4 5566.18 11561.4 M5566.18 11531.7 Q5612.66 11531.7 5637.11 11568.6 Q5661.74 11605.3 5661.74 11675.3 Q5661.74 11745.1 5637.11 11781.9 Q5612.66 11818.6 5566.18 11818.6 Q5519.7 11818.6 5495.07 11781.9 Q5470.62 11745.1 5470.62 11675.3 Q5470.62 11605.3 5495.07 11568.6 Q5519.7 11531.7 5566.18 11531.7 Z" fill="#000000" fill-rule="evenodd" fill-opacity="1" /><path clip-path="url(#clip7700)" d="M 0 0 M5702.29 11766.2 L5741.36 11766.2 L5741.36 11813.2 L5702.29 11813.2 L5702.29 11766.2 Z" fill="#000000" fill-rule="evenodd" fill-opacity="1" /><path clip-path="url(#clip7700)" d="M 0 0 M5782.29 11536.7 L5929.14 11536.7 L5929.14 11568.2 L5816.55 11568.2 L5816.55 11636 Q5824.7 11633.2 5832.85 11631.9 Q5840.99 11630.4 5849.14 11630.4 Q5895.44 11630.4 5922.47 11655.8 Q5949.51 11681.2 5949.51 11724.5 Q5949.51 11769.1 5921.73 11794 Q5893.96 11818.6 5843.4 11818.6 Q5825.99 11818.6 5807.85 11815.6 Q5789.88 11812.7 5770.62 11806.7 L5770.62 11769.1 Q5787.29 11778.2 5805.07 11782.7 Q5822.85 11787.1 5842.66 11787.1 Q5874.7 11787.1 5893.4 11770.3 Q5912.1 11753.4 5912.1 11724.5 Q5912.1 11695.6 5893.4 11678.8 Q5874.7 11661.9 5842.66 11661.9 Q5827.66 11661.9 5812.66 11665.3 Q5797.85 11668.6 5782.29 11675.6 L5782.29 11536.7 Z" fill="#000000" fill-rule="evenodd" fill-opacity="1" /><path clip-path="url(#clip7700)" d="M 0 0 M5980.62 11536.7 L6158.4 11536.7 L6158.4 11552.7 L6058.03 11813.2 L6018.96 11813.2 L6113.4 11568.2 L5980.62 11568.2 L5980.62 11536.7 Z" fill="#000000" fill-rule="evenodd" fill-opacity="1" /><path clip-path="url(#clip7700)" d="M 0 0 M6231.18 11781.7 L6361.73 11781.7 L6361.73 11813.2 L6186.18 11813.2 L6186.18 11781.7 Q6207.47 11759.7 6244.14 11722.7 Q6280.99 11685.4 6290.44 11674.7 Q6308.4 11654.5 6315.44 11640.6 Q6322.66 11626.5 6322.66 11613 Q6322.66 11591 6307.1 11577.1 Q6291.73 11563.2 6266.92 11563.2 Q6249.32 11563.2 6229.69 11569.3 Q6210.25 11575.4 6188.03 11587.8 L6188.03 11550.1 Q6210.62 11541 6230.25 11536.4 Q6249.88 11531.7 6266.18 11531.7 Q6309.14 11531.7 6334.69 11553.2 Q6360.25 11574.7 6360.25 11610.6 Q6360.25 11627.7 6353.77 11643 Q6347.47 11658.2 6330.62 11679 Q6325.99 11684.3 6301.18 11710.1 Q6276.36 11735.6 6231.18 11781.7 Z" fill="#000000" fill-rule="evenodd" fill-opacity="1" /><path clip-path="url(#clip7700)" d="M 0 0 M8667.69 11561.4 Q8638.81 11561.4 8624.18 11589.9 Q8609.73 11618.2 8609.73 11675.3 Q8609.73 11732.1 8624.18 11760.6 Q8638.81 11789 8667.69 11789 Q8696.77 11789 8711.21 11760.6 Q8725.84 11732.1 8725.84 11675.3 Q8725.84 11618.2 8711.21 11589.9 Q8696.77 11561.4 8667.69 11561.4 M8667.69 11531.7 Q8714.18 11531.7 8738.62 11568.6 Q8763.25 11605.3 8763.25 11675.3 Q8763.25 11745.1 8738.62 11781.9 Q8714.18 11818.6 8667.69 11818.6 Q8621.21 11818.6 8596.58 11781.9 Q8572.14 11745.1 8572.14 11675.3 Q8572.14 11605.3 8596.58 11568.6 Q8621.21 11531.7 8667.69 11531.7 Z" fill="#000000" fill-rule="evenodd" fill-opacity="1" /><path clip-path="url(#clip7700)" d="M 0 0 M8803.81 11766.2 L8842.88 11766.2 L8842.88 11813.2 L8803.81 11813.2 L8803.81 11766.2 Z" fill="#000000" fill-rule="evenodd" fill-opacity="1" /><path clip-path="url(#clip7700)" d="M 0 0 M8883.8 11536.7 L9030.66 11536.7 L9030.66 11568.2 L8918.06 11568.2 L8918.06 11636 Q8926.21 11633.2 8934.36 11631.9 Q8942.51 11630.4 8950.66 11630.4 Q8996.95 11630.4 9023.99 11655.8 Q9051.03 11681.2 9051.03 11724.5 Q9051.03 11769.1 9023.25 11794 Q8995.47 11818.6 8944.92 11818.6 Q8927.51 11818.6 8909.36 11815.6 Q8891.4 11812.7 8872.14 11806.7 L8872.14 11769.1 Q8888.8 11778.2 8906.58 11782.7 Q8924.36 11787.1 8944.17 11787.1 Q8976.21 11787.1 8994.92 11770.3 Q9013.62 11753.4 9013.62 11724.5 Q9013.62 11695.6 8994.92 11678.8 Q8976.21 11661.9 8944.17 11661.9 Q8929.17 11661.9 8914.17 11665.3 Q8899.36 11668.6 8883.8 11675.6 L8883.8 11536.7 Z" fill="#000000" fill-rule="evenodd" fill-opacity="1" /><path clip-path="url(#clip7700)" d="M 0 0 M9082.14 11536.7 L9259.91 11536.7 L9259.91 11552.7 L9159.54 11813.2 L9120.47 11813.2 L9214.91 11568.2 L9082.14 11568.2 L9082.14 11536.7 Z" fill="#000000" fill-rule="evenodd" fill-opacity="1" /><path clip-path="url(#clip7700)" d="M 0 0 M9403.25 11569.3 L9308.8 11716.9 L9403.25 11716.9 L9403.25 11569.3 M9393.43 11536.7 L9440.47 11536.7 L9440.47 11716.9 L9479.91 11716.9 L9479.91 11748 L9440.47 11748 L9440.47 11813.2 L9403.25 11813.2 L9403.25 11748 L9278.43 11748 L9278.43 11711.9 L9393.43 11536.7 Z" fill="#000000" fill-rule="evenodd" fill-opacity="1" /><path clip-path="url(#clip7700)" d="M 0 0 M11778.8 11561.4 Q11750 11561.4 11735.3 11589.9 Q11720.9 11618.2 11720.9 11675.3 Q11720.9 11732.1 11735.3 11760.6 Q11750 11789 11778.8 11789 Q11807.9 11789 11822.4 11760.6 Q11837 11732.1 11837 11675.3 Q11837 11618.2 11822.4 11589.9 Q11807.9 11561.4 11778.8 11561.4 M11778.8 11531.7 Q11825.3 11531.7 11849.8 11568.6 Q11874.4 11605.3 11874.4 11675.3 Q11874.4 11745.1 11849.8 11781.9 Q11825.3 11818.6 11778.8 11818.6 Q11732.4 11818.6 11707.7 11781.9 Q11683.3 11745.1 11683.3 11675.3 Q11683.3 11605.3 11707.7 11568.6 Q11732.4 11531.7 11778.8 11531.7 Z" fill="#000000" fill-rule="evenodd" fill-opacity="1" /><path clip-path="url(#clip7700)" d="M 0 0 M11914.9 11766.2 L11954 11766.2 L11954 11813.2 L11914.9 11813.2 L11914.9 11766.2 Z" fill="#000000" fill-rule="evenodd" fill-opacity="1" /><path clip-path="url(#clip7700)" d="M 0 0 M11994.9 11536.7 L12141.8 11536.7 L12141.8 11568.2 L12029.2 11568.2 L12029.2 11636 Q12037.4 11633.2 12045.5 11631.9 Q12053.7 11630.4 12061.8 11630.4 Q12108.1 11630.4 12135.1 11655.8 Q12162.2 11681.2 12162.2 11724.5 Q12162.2 11769.1 12134.4 11794 Q12106.6 11818.6 12056.1 11818.6 Q12038.7 11818.6 12020.5 11815.6 Q12002.5 11812.7 11983.3 11806.7 L11983.3 11769.1 Q11999.9 11778.2 12017.7 11782.7 Q12035.5 11787.1 12055.3 11787.1 Q12087.4 11787.1 12106.1 11770.3 Q12124.8 11753.4 12124.8 11724.5 Q12124.8 11695.6 12106.1 11678.8 Q12087.4 11661.9 12055.3 11661.9 Q12040.3 11661.9 12025.3 11665.3 Q12010.5 11668.6 11994.9 11675.6 L11994.9 11536.7 Z" fill="#000000" fill-rule="evenodd" fill-opacity="1" /><path clip-path="url(#clip7700)" d="M 0 0 M12193.3 11536.7 L12371.1 11536.7 L12371.1 11552.7 L12270.7 11813.2 L12231.6 11813.2 L12326.1 11568.2 L12193.3 11568.2 L12193.3 11536.7 Z" fill="#000000" fill-rule="evenodd" fill-opacity="1" /><path clip-path="url(#clip7700)" d="M 0 0 M12496.2 11660.1 Q12471.1 11660.1 12456.2 11677.3 Q12441.6 11694.5 12441.6 11724.5 Q12441.6 11754.3 12456.2 11771.7 Q12471.1 11789 12496.2 11789 Q12521.4 11789 12536.1 11771.7 Q12550.9 11754.3 12550.9 11724.5 Q12550.9 11694.5 12536.1 11677.3 Q12521.4 11660.1 12496.2 11660.1 M12570.5 11542.8 L12570.5 11576.9 Q12556.4 11570.3 12542 11566.7 Q12527.7 11563.2 12513.6 11563.2 Q12476.6 11563.2 12457 11588.2 Q12437.5 11613.2 12434.8 11663.8 Q12445.7 11647.7 12462.2 11639.1 Q12478.7 11630.4 12498.5 11630.4 Q12540.1 11630.4 12564.2 11655.8 Q12588.5 11681 12588.5 11724.5 Q12588.5 11767.1 12563.3 11792.8 Q12538.1 11818.6 12496.2 11818.6 Q12448.3 11818.6 12422.9 11781.9 Q12397.5 11745.1 12397.5 11675.3 Q12397.5 11609.7 12428.7 11570.8 Q12459.8 11531.7 12512.2 11531.7 Q12526.2 11531.7 12540.5 11534.5 Q12554.9 11537.3 12570.5 11542.8 Z" fill="#000000" fill-rule="evenodd" fill-opacity="1" /><path clip-path="url(#clip7700)" d="M 0 0 M14889.7 11561.4 Q14860.8 11561.4 14846.2 11589.9 Q14831.7 11618.2 14831.7 11675.3 Q14831.7 11732.1 14846.2 11760.6 Q14860.8 11789 14889.7 11789 Q14918.8 11789 14933.2 11760.6 Q14947.9 11732.1 14947.9 11675.3 Q14947.9 11618.2 14933.2 11589.9 Q14918.8 11561.4 14889.7 11561.4 M14889.7 11531.7 Q14936.2 11531.7 14960.6 11568.6 Q14985.3 11605.3 14985.3 11675.3 Q14985.3 11745.1 14960.6 11781.9 Q14936.2 11818.6 14889.7 11818.6 Q14843.2 11818.6 14818.6 11781.9 Q14794.2 11745.1 14794.2 11675.3 Q14794.2 11605.3 14818.6 11568.6 Q14843.2 11531.7 14889.7 11531.7 Z" fill="#000000" fill-rule="evenodd" fill-opacity="1" /><path clip-path="url(#clip7700)" d="M 0 0 M15025.8 11766.2 L15064.9 11766.2 L15064.9 11813.2 L15025.8 11813.2 L15025.8 11766.2 Z" fill="#000000" fill-rule="evenodd" fill-opacity="1" /><path clip-path="url(#clip7700)" d="M 0 0 M15105.8 11536.7 L15252.7 11536.7 L15252.7 11568.2 L15140.1 11568.2 L15140.1 11636 Q15148.2 11633.2 15156.4 11631.9 Q15164.5 11630.4 15172.7 11630.4 Q15219 11630.4 15246 11655.8 Q15273 11681.2 15273 11724.5 Q15273 11769.1 15245.3 11794 Q15217.5 11818.6 15166.9 11818.6 Q15149.5 11818.6 15131.4 11815.6 Q15113.4 11812.7 15094.1 11806.7 L15094.1 11769.1 Q15110.8 11778.2 15128.6 11782.7 Q15146.4 11787.1 15166.2 11787.1 Q15198.2 11787.1 15216.9 11770.3 Q15235.6 11753.4 15235.6 11724.5 Q15235.6 11695.6 15216.9 11678.8 Q15198.2 11661.9 15166.2 11661.9 Q15151.2 11661.9 15136.2 11665.3 Q15121.4 11668.6 15105.8 11675.6 L15105.8 11536.7 Z" fill="#000000" fill-rule="evenodd" fill-opacity="1" /><path clip-path="url(#clip7700)" d="M 0 0 M15304.1 11536.7 L15481.9 11536.7 L15481.9 11552.7 L15381.6 11813.2 L15342.5 11813.2 L15436.9 11568.2 L15304.1 11568.2 L15304.1 11536.7 Z" fill="#000000" fill-rule="evenodd" fill-opacity="1" /><path clip-path="url(#clip7700)" d="M 0 0 M15602.5 11681.9 Q15575.8 11681.9 15560.4 11696.2 Q15545.3 11710.4 15545.3 11735.4 Q15545.3 11760.4 15560.4 11774.7 Q15575.8 11789 15602.5 11789 Q15629.1 11789 15644.5 11774.7 Q15659.9 11760.3 15659.9 11735.4 Q15659.9 11710.4 15644.5 11696.2 Q15629.3 11681.9 15602.5 11681.9 M15565.1 11666 Q15541 11660.1 15527.5 11643.6 Q15514.1 11627.1 15514.1 11603.4 Q15514.1 11570.3 15537.7 11551 Q15561.4 11531.7 15602.5 11531.7 Q15643.8 11531.7 15667.3 11551 Q15690.8 11570.3 15690.8 11603.4 Q15690.8 11627.1 15677.3 11643.6 Q15664 11660.1 15640.1 11666 Q15667.1 11672.3 15682.1 11690.6 Q15697.3 11709 15697.3 11735.4 Q15697.3 11775.6 15672.7 11797.1 Q15648.2 11818.6 15602.5 11818.6 Q15556.7 11818.6 15532.1 11797.1 Q15507.7 11775.6 15507.7 11735.4 Q15507.7 11709 15522.9 11690.6 Q15538 11672.3 15565.1 11666 M15551.4 11606.9 Q15551.4 11628.4 15564.7 11640.4 Q15578.2 11652.5 15602.5 11652.5 Q15626.6 11652.5 15640.1 11640.4 Q15653.8 11628.4 15653.8 11606.9 Q15653.8 11585.4 15640.1 11573.4 Q15626.6 11561.4 15602.5 11561.4 Q15578.2 11561.4 15564.7 11573.4 Q15551.4 11585.4 15551.4 11606.9 Z" fill="#000000" fill-rule="evenodd" fill-opacity="1" /><path clip-path="url(#clip7700)" d="M 0 0 M17995.9 11561.4 Q17967.1 11561.4 17952.4 11589.9 Q17938 11618.2 17938 11675.3 Q17938 11732.1 17952.4 11760.6 Q17967.1 11789 17995.9 11789 Q18025 11789 18039.5 11760.6 Q18054.1 11732.1 18054.1 11675.3 Q18054.1 11618.2 18039.5 11589.9 Q18025 11561.4 17995.9 11561.4 M17995.9 11531.7 Q18042.4 11531.7 18066.9 11568.6 Q18091.5 11605.3 18091.5 11675.3 Q18091.5 11745.1 18066.9 11781.9 Q18042.4 11818.6 17995.9 11818.6 Q17949.5 11818.6 17924.8 11781.9 Q17900.4 11745.1 17900.4 11675.3 Q17900.4 11605.3 17924.8 11568.6 Q17949.5 11531.7 17995.9 11531.7 Z" fill="#000000" fill-rule="evenodd" fill-opacity="1" /><path clip-path="url(#clip7700)" d="M 0 0 M18132.1 11766.2 L18171.1 11766.2 L18171.1 11813.2 L18132.1 11813.2 L18132.1 11766.2 Z" fill="#000000" fill-rule="evenodd" fill-opacity="1" /><path clip-path="url(#clip7700)" d="M 0 0 M18212.1 11536.7 L18358.9 11536.7 L18358.9 11568.2 L18246.3 11568.2 L18246.3 11636 Q18254.5 11633.2 18262.6 11631.9 Q18270.8 11630.4 18278.9 11630.4 Q18325.2 11630.4 18352.2 11655.8 Q18379.3 11681.2 18379.3 11724.5 Q18379.3 11769.1 18351.5 11794 Q18323.7 11818.6 18273.2 11818.6 Q18255.8 11818.6 18237.6 11815.6 Q18219.6 11812.7 18200.4 11806.7 L18200.4 11769.1 Q18217.1 11778.2 18234.8 11782.7 Q18252.6 11787.1 18272.4 11787.1 Q18304.5 11787.1 18323.2 11770.3 Q18341.9 11753.4 18341.9 11724.5 Q18341.9 11695.6 18323.2 11678.8 Q18304.5 11661.9 18272.4 11661.9 Q18257.4 11661.9 18242.4 11665.3 Q18227.6 11668.6 18212.1 11675.6 L18212.1 11536.7 Z" fill="#000000" fill-rule="evenodd" fill-opacity="1" /><path clip-path="url(#clip7700)" d="M 0 0 M18499.8 11681.9 Q18473.2 11681.9 18457.8 11696.2 Q18442.6 11710.4 18442.6 11735.4 Q18442.6 11760.4 18457.8 11774.7 Q18473.2 11789 18499.8 11789 Q18526.5 11789 18541.9 11774.7 Q18557.2 11760.3 18557.2 11735.4 Q18557.2 11710.4 18541.9 11696.2 Q18526.7 11681.9 18499.8 11681.9 M18462.4 11666 Q18438.3 11660.1 18424.8 11643.6 Q18411.5 11627.1 18411.5 11603.4 Q18411.5 11570.3 18435 11551 Q18458.7 11531.7 18499.8 11531.7 Q18541.1 11531.7 18564.6 11551 Q18588.2 11570.3 18588.2 11603.4 Q18588.2 11627.1 18574.6 11643.6 Q18561.3 11660.1 18537.4 11666 Q18564.5 11672.3 18579.5 11690.6 Q18594.6 11709 18594.6 11735.4 Q18594.6 11775.6 18570 11797.1 Q18545.6 11818.6 18499.8 11818.6 Q18454.1 11818.6 18429.5 11797.1 Q18405 11775.6 18405 11735.4 Q18405 11709 18420.2 11690.6 Q18435.4 11672.3 18462.4 11666 M18448.7 11606.9 Q18448.7 11628.4 18462.1 11640.4 Q18475.6 11652.5 18499.8 11652.5 Q18523.9 11652.5 18537.4 11640.4 Q18551.1 11628.4 18551.1 11606.9 Q18551.1 11585.4 18537.4 11573.4 Q18523.9 11561.4 18499.8 11561.4 Q18475.6 11561.4 18462.1 11573.4 Q18448.7 11585.4 18448.7 11606.9 Z" fill="#000000" fill-rule="evenodd" fill-opacity="1" /><path clip-path="url(#clip7700)" d="M 0 0 M18715.2 11561.4 Q18686.3 11561.4 18671.7 11589.9 Q18657.2 11618.2 18657.2 11675.3 Q18657.2 11732.1 18671.7 11760.6 Q18686.3 11789 18715.2 11789 Q18744.3 11789 18758.7 11760.6 Q18773.3 11732.1 18773.3 11675.3 Q18773.3 11618.2 18758.7 11589.9 Q18744.3 11561.4 18715.2 11561.4 M18715.2 11531.7 Q18761.7 11531.7 18786.1 11568.6 Q18810.8 11605.3 18810.8 11675.3 Q18810.8 11745.1 18786.1 11781.9 Q18761.7 11818.6 18715.2 11818.6 Q18668.7 11818.6 18644.1 11781.9 Q18619.6 11745.1 18619.6 11675.3 Q18619.6 11605.3 18644.1 11568.6 Q18668.7 11531.7 18715.2 11531.7 Z" fill="#000000" fill-rule="evenodd" fill-opacity="1" /><path clip-path="url(#clip7700)" d="M 0 0 M17995.9 11561.4 Q17967.1 11561.4 17952.4 11589.9 Q17938 11618.2 17938 11675.3 Q17938 11732.1 17952.4 11760.6 Q17967.1 11789 17995.9 11789 Q18025 11789 18039.5 11760.6 Q18054.1 11732.1 18054.1 11675.3 Q18054.1 11618.2 18039.5 11589.9 Q18025 11561.4 17995.9 11561.4 M17995.9 11531.7 Q18042.4 11531.7 18066.9 11568.6 Q18091.5 11605.3 18091.5 11675.3 Q18091.5 11745.1 18066.9 11781.9 Q18042.4 11818.6 17995.9 11818.6 Q17949.5 11818.6 17924.8 11781.9 Q17900.4 11745.1 17900.4 11675.3 Q17900.4 11605.3 17924.8 11568.6 Q17949.5 11531.7 17995.9 11531.7 Z" fill="#000000" fill-rule="evenodd" fill-opacity="1" /><path clip-path="url(#clip7700)" d="M 0 0 M18132.1 11766.2 L18171.1 11766.2 L18171.1 11813.2 L18132.1 11813.2 L18132.1 11766.2 Z" fill="#000000" fill-rule="evenodd" fill-opacity="1" /><path clip-path="url(#clip7700)" d="M 0 0 M18212.1 11536.7 L18358.9 11536.7 L18358.9 11568.2 L18246.3 11568.2 L18246.3 11636 Q18254.5 11633.2 18262.6 11631.9 Q18270.8 11630.4 18278.9 11630.4 Q18325.2 11630.4 18352.2 11655.8 Q18379.3 11681.2 18379.3 11724.5 Q18379.3 11769.1 18351.5 11794 Q18323.7 11818.6 18273.2 11818.6 Q18255.8 11818.6 18237.6 11815.6 Q18219.6 11812.7 18200.4 11806.7 L18200.4 11769.1 Q18217.1 11778.2 18234.8 11782.7 Q18252.6 11787.1 18272.4 11787.1 Q18304.5 11787.1 18323.2 11770.3 Q18341.9 11753.4 18341.9 11724.5 Q18341.9 11695.6 18323.2 11678.8 Q18304.5 11661.9 18272.4 11661.9 Q18257.4 11661.9 18242.4 11665.3 Q18227.6 11668.6 18212.1 11675.6 L18212.1 11536.7 Z" fill="#000000" fill-rule="evenodd" fill-opacity="1" /><path clip-path="url(#clip7700)" d="M 0 0 M18499.8 11681.9 Q18473.2 11681.9 18457.8 11696.2 Q18442.6 11710.4 18442.6 11735.4 Q18442.6 11760.4 18457.8 11774.7 Q18473.2 11789 18499.8 11789 Q18526.5 11789 18541.9 11774.7 Q18557.2 11760.3 18557.2 11735.4 Q18557.2 11710.4 18541.9 11696.2 Q18526.7 11681.9 18499.8 11681.9 M18462.4 11666 Q18438.3 11660.1 18424.8 11643.6 Q18411.5 11627.1 18411.5 11603.4 Q18411.5 11570.3 18435 11551 Q18458.7 11531.7 18499.8 11531.7 Q18541.1 11531.7 18564.6 11551 Q18588.2 11570.3 18588.2 11603.4 Q18588.2 11627.1 18574.6 11643.6 Q18561.3 11660.1 18537.4 11666 Q18564.5 11672.3 18579.5 11690.6 Q18594.6 11709 18594.6 11735.4 Q18594.6 11775.6 18570 11797.1 Q18545.6 11818.6 18499.8 11818.6 Q18454.1 11818.6 18429.5 11797.1 Q18405 11775.6 18405 11735.4 Q18405 11709 18420.2 11690.6 Q18435.4 11672.3 18462.4 11666 M18448.7 11606.9 Q18448.7 11628.4 18462.1 11640.4 Q18475.6 11652.5 18499.8 11652.5 Q18523.9 11652.5 18537.4 11640.4 Q18551.1 11628.4 18551.1 11606.9 Q18551.1 11585.4 18537.4 11573.4 Q18523.9 11561.4 18499.8 11561.4 Q18475.6 11561.4 18462.1 11573.4 Q18448.7 11585.4 18448.7 11606.9 Z" fill="#000000" fill-rule="evenodd" fill-opacity="1" /><path clip-path="url(#clip7700)" d="M 0 0 M18715.2 11561.4 Q18686.3 11561.4 18671.7 11589.9 Q18657.2 11618.2 18657.2 11675.3 Q18657.2 11732.1 18671.7 11760.6 Q18686.3 11789 18715.2 11789 Q18744.3 11789 18758.7 11760.6 Q18773.3 11732.1 18773.3 11675.3 Q18773.3 11618.2 18758.7 11589.9 Q18744.3 11561.4 18715.2 11561.4 M18715.2 11531.7 Q18761.7 11531.7 18786.1 11568.6 Q18810.8 11605.3 18810.8 11675.3 Q18810.8 11745.1 18786.1 11781.9 Q18761.7 11818.6 18715.2 11818.6 Q18668.7 11818.6 18644.1 11781.9 Q18619.6 11745.1 18619.6 11675.3 Q18619.6 11605.3 18644.1 11568.6 Q18668.7 11531.7 18715.2 11531.7 Z" fill="#000000" fill-rule="evenodd" fill-opacity="1" /><path clip-path="url(#clip7700)" d="M 0 0 M1122.86 9572.61 Q1093.97 9572.61 1079.34 9601.13 Q1064.9 9629.46 1064.9 9686.5 Q1064.9 9743.35 1079.34 9771.87 Q1093.97 9800.2 1122.86 9800.2 Q1151.93 9800.2 1166.38 9771.87 Q1181.01 9743.35 1181.01 9686.5 Q1181.01 9629.46 1166.38 9601.13 Q1151.93 9572.61 1122.86 9572.61 M1122.86 9542.98 Q1169.34 9542.98 1193.78 9579.83 Q1218.41 9616.5 1218.41 9686.5 Q1218.41 9756.31 1193.78 9793.16 Q1169.34 9829.83 1122.86 9829.83 Q1076.38 9829.83 1051.75 9793.16 Q1027.3 9756.31 1027.3 9686.5 Q1027.3 9616.5 1051.75 9579.83 Q1076.38 9542.98 1122.86 9542.98 Z" fill="#000000" fill-rule="evenodd" fill-opacity="1" /><path clip-path="url(#clip7700)" d="M 0 0 M1258.97 9777.42 L1298.04 9777.42 L1298.04 9824.46 L1258.97 9824.46 L1258.97 9777.42 Z" fill="#000000" fill-rule="evenodd" fill-opacity="1" /><path clip-path="url(#clip7700)" d="M 0 0 M1423.23 9671.31 Q1398.04 9671.31 1383.23 9688.53 Q1368.6 9705.76 1368.6 9735.76 Q1368.6 9765.57 1383.23 9782.98 Q1398.04 9800.2 1423.23 9800.2 Q1448.41 9800.2 1463.04 9782.98 Q1477.86 9765.57 1477.86 9735.76 Q1477.86 9705.76 1463.04 9688.53 Q1448.41 9671.31 1423.23 9671.31 M1497.49 9554.09 L1497.49 9588.16 Q1483.41 9581.5 1468.97 9577.98 Q1454.71 9574.46 1440.63 9574.46 Q1403.6 9574.46 1383.97 9599.46 Q1364.52 9624.46 1361.75 9675.02 Q1372.67 9658.9 1389.15 9650.39 Q1405.63 9641.68 1425.45 9641.68 Q1467.12 9641.68 1491.19 9667.05 Q1515.45 9692.24 1515.45 9735.76 Q1515.45 9778.35 1490.26 9804.09 Q1465.08 9829.83 1423.23 9829.83 Q1375.26 9829.83 1349.89 9793.16 Q1324.52 9756.31 1324.52 9686.5 Q1324.52 9620.94 1355.63 9582.05 Q1386.75 9542.98 1439.15 9542.98 Q1453.23 9542.98 1467.49 9545.76 Q1481.93 9548.53 1497.49 9554.09 Z" fill="#000000" fill-rule="evenodd" fill-opacity="1" /><path clip-path="url(#clip7700)" d="M 0 0 M1556.37 9547.98 L1703.23 9547.98 L1703.23 9579.46 L1590.63 9579.46 L1590.63 9647.24 Q1598.78 9644.46 1606.93 9643.16 Q1615.08 9641.68 1623.23 9641.68 Q1669.52 9641.68 1696.56 9667.05 Q1723.6 9692.42 1723.6 9735.76 Q1723.6 9780.39 1695.82 9805.2 Q1668.04 9829.83 1617.49 9829.83 Q1600.08 9829.83 1581.93 9826.87 Q1563.97 9823.9 1544.71 9817.98 L1544.71 9780.39 Q1561.37 9789.46 1579.15 9793.9 Q1596.93 9798.35 1616.74 9798.35 Q1648.78 9798.35 1667.49 9781.5 Q1686.19 9764.64 1686.19 9735.76 Q1686.19 9706.87 1667.49 9690.02 Q1648.78 9673.16 1616.74 9673.16 Q1601.74 9673.16 1586.74 9676.5 Q1571.93 9679.83 1556.37 9686.87 L1556.37 9547.98 Z" fill="#000000" fill-rule="evenodd" fill-opacity="1" /><path clip-path="url(#clip7700)" d="M 0 0 M1764.52 9547.98 L1911.37 9547.98 L1911.37 9579.46 L1798.78 9579.46 L1798.78 9647.24 Q1806.93 9644.46 1815.08 9643.16 Q1823.23 9641.68 1831.37 9641.68 Q1877.67 9641.68 1904.71 9667.05 Q1931.74 9692.42 1931.74 9735.76 Q1931.74 9780.39 1903.97 9805.2 Q1876.19 9829.83 1825.63 9829.83 Q1808.23 9829.83 1790.08 9826.87 Q1772.11 9823.9 1752.86 9817.98 L1752.86 9780.39 Q1769.52 9789.46 1787.3 9793.9 Q1805.08 9798.35 1824.89 9798.35 Q1856.93 9798.35 1875.63 9781.5 Q1894.34 9764.64 1894.34 9735.76 Q1894.34 9706.87 1875.63 9690.02 Q1856.93 9673.16 1824.89 9673.16 Q1809.89 9673.16 1794.89 9676.5 Q1780.08 9679.83 1764.52 9686.87 L1764.52 9547.98 Z" fill="#000000" fill-rule="evenodd" fill-opacity="1" /><path clip-path="url(#clip7700)" d="M 0 0 M2052.3 9572.61 Q2023.41 9572.61 2008.78 9601.13 Q1994.34 9629.46 1994.34 9686.5 Q1994.34 9743.35 2008.78 9771.87 Q2023.41 9800.2 2052.3 9800.2 Q2081.37 9800.2 2095.82 9771.87 Q2110.45 9743.35 2110.45 9686.5 Q2110.45 9629.46 2095.82 9601.13 Q2081.37 9572.61 2052.3 9572.61 M2052.3 9542.98 Q2098.78 9542.98 2123.22 9579.83 Q2147.85 9616.5 2147.85 9686.5 Q2147.85 9756.31 2123.22 9793.16 Q2098.78 9829.83 2052.3 9829.83 Q2005.82 9829.83 1981.19 9793.16 Q1956.74 9756.31 1956.74 9686.5 Q1956.74 9616.5 1981.19 9579.83 Q2005.82 9542.98 2052.3 9542.98 Z" fill="#000000" fill-rule="evenodd" fill-opacity="1" /><path clip-path="url(#clip7700)" d="M 0 0 M1130.08 7406.7 Q1101.19 7406.7 1086.56 7435.22 Q1072.12 7463.55 1072.12 7520.59 Q1072.12 7577.44 1086.56 7605.96 Q1101.19 7634.29 1130.08 7634.29 Q1159.15 7634.29 1173.6 7605.96 Q1188.23 7577.44 1188.23 7520.59 Q1188.23 7463.55 1173.6 7435.22 Q1159.15 7406.7 1130.08 7406.7 M1130.08 7377.07 Q1176.56 7377.07 1201.01 7413.92 Q1225.64 7450.59 1225.64 7520.59 Q1225.64 7590.4 1201.01 7627.25 Q1176.56 7663.92 1130.08 7663.92 Q1083.6 7663.92 1058.97 7627.25 Q1034.53 7590.4 1034.53 7520.59 Q1034.53 7450.59 1058.97 7413.92 Q1083.6 7377.07 1130.08 7377.07 Z" fill="#000000" fill-rule="evenodd" fill-opacity="1" /><path clip-path="url(#clip7700)" d="M 0 0 M1266.19 7611.51 L1305.26 7611.51 L1305.26 7658.55 L1266.19 7658.55 L1266.19 7611.51 Z" fill="#000000" fill-rule="evenodd" fill-opacity="1" /><path clip-path="url(#clip7700)" d="M 0 0 M1430.45 7505.4 Q1405.26 7505.4 1390.45 7522.62 Q1375.82 7539.84 1375.82 7569.84 Q1375.82 7599.66 1390.45 7617.07 Q1405.26 7634.29 1430.45 7634.29 Q1455.63 7634.29 1470.26 7617.07 Q1485.08 7599.66 1485.08 7569.84 Q1485.08 7539.84 1470.26 7522.62 Q1455.63 7505.4 1430.45 7505.4 M1504.71 7388.18 L1504.71 7422.25 Q1490.63 7415.59 1476.19 7412.07 Q1461.93 7408.55 1447.86 7408.55 Q1410.82 7408.55 1391.19 7433.55 Q1371.75 7458.55 1368.97 7509.1 Q1379.89 7492.99 1396.38 7484.47 Q1412.86 7475.77 1432.67 7475.77 Q1474.34 7475.77 1498.41 7501.14 Q1522.67 7526.33 1522.67 7569.84 Q1522.67 7612.44 1497.49 7638.18 Q1472.3 7663.92 1430.45 7663.92 Q1382.49 7663.92 1357.12 7627.25 Q1331.75 7590.4 1331.75 7520.59 Q1331.75 7455.03 1362.86 7416.14 Q1393.97 7377.07 1446.38 7377.07 Q1460.45 7377.07 1474.71 7379.85 Q1489.15 7382.62 1504.71 7388.18 Z" fill="#000000" fill-rule="evenodd" fill-opacity="1" /><path clip-path="url(#clip7700)" d="M 0 0 M1563.6 7382.07 L1710.45 7382.07 L1710.45 7413.55 L1597.86 7413.55 L1597.86 7481.33 Q1606 7478.55 1614.15 7477.25 Q1622.3 7475.77 1630.45 7475.77 Q1676.74 7475.77 1703.78 7501.14 Q1730.82 7526.51 1730.82 7569.84 Q1730.82 7614.47 1703.04 7639.29 Q1675.26 7663.92 1624.71 7663.92 Q1607.3 7663.92 1589.15 7660.95 Q1571.19 7657.99 1551.93 7652.07 L1551.93 7614.47 Q1568.6 7623.55 1586.37 7627.99 Q1604.15 7632.44 1623.97 7632.44 Q1656 7632.44 1674.71 7615.58 Q1693.41 7598.73 1693.41 7569.84 Q1693.41 7540.96 1674.71 7524.1 Q1656 7507.25 1623.97 7507.25 Q1608.97 7507.25 1593.97 7510.59 Q1579.15 7513.92 1563.6 7520.96 L1563.6 7382.07 Z" fill="#000000" fill-rule="evenodd" fill-opacity="1" /><path clip-path="url(#clip7700)" d="M 0 0 M1761.93 7382.07 L1939.71 7382.07 L1939.71 7397.99 L1839.34 7658.55 L1800.26 7658.55 L1894.71 7413.55 L1761.93 7413.55 L1761.93 7382.07 Z" fill="#000000" fill-rule="evenodd" fill-opacity="1" /><path clip-path="url(#clip7700)" d="M 0 0 M1980.63 7382.07 L2127.48 7382.07 L2127.48 7413.55 L2014.89 7413.55 L2014.89 7481.33 Q2023.04 7478.55 2031.19 7477.25 Q2039.34 7475.77 2047.48 7475.77 Q2093.78 7475.77 2120.82 7501.14 Q2147.85 7526.51 2147.85 7569.84 Q2147.85 7614.47 2120.08 7639.29 Q2092.3 7663.92 2041.74 7663.92 Q2024.34 7663.92 2006.19 7660.95 Q1988.22 7657.99 1968.97 7652.07 L1968.97 7614.47 Q1985.63 7623.55 2003.41 7627.99 Q2021.19 7632.44 2041 7632.44 Q2073.04 7632.44 2091.74 7615.58 Q2110.45 7598.73 2110.45 7569.84 Q2110.45 7540.96 2091.74 7524.1 Q2073.04 7507.25 2041 7507.25 Q2026 7507.25 2011 7510.59 Q1996.19 7513.92 1980.63 7520.96 L1980.63 7382.07 Z" fill="#000000" fill-rule="evenodd" fill-opacity="1" /><path clip-path="url(#clip7700)" d="M 0 0 M1105.64 5240.79 Q1076.75 5240.79 1062.12 5269.3 Q1047.67 5297.64 1047.67 5354.67 Q1047.67 5411.53 1062.12 5440.04 Q1076.75 5468.38 1105.64 5468.38 Q1134.71 5468.38 1149.15 5440.04 Q1163.78 5411.53 1163.78 5354.67 Q1163.78 5297.64 1149.15 5269.3 Q1134.71 5240.79 1105.64 5240.79 M1105.64 5211.16 Q1152.12 5211.16 1176.56 5248.01 Q1201.19 5284.67 1201.19 5354.67 Q1201.19 5424.49 1176.56 5461.34 Q1152.12 5498.01 1105.64 5498.01 Q1059.16 5498.01 1034.53 5461.34 Q1010.08 5424.49 1010.08 5354.67 Q1010.08 5284.67 1034.53 5248.01 Q1059.16 5211.16 1105.64 5211.16 Z" fill="#000000" fill-rule="evenodd" fill-opacity="1" /><path clip-path="url(#clip7700)" d="M 0 0 M1241.75 5445.6 L1280.82 5445.6 L1280.82 5492.64 L1241.75 5492.64 L1241.75 5445.6 Z" fill="#000000" fill-rule="evenodd" fill-opacity="1" /><path clip-path="url(#clip7700)" d="M 0 0 M1406.01 5339.49 Q1380.82 5339.49 1366.01 5356.71 Q1351.38 5373.93 1351.38 5403.93 Q1351.38 5433.75 1366.01 5451.15 Q1380.82 5468.38 1406.01 5468.38 Q1431.19 5468.38 1445.82 5451.15 Q1460.63 5433.75 1460.63 5403.93 Q1460.63 5373.93 1445.82 5356.71 Q1431.19 5339.49 1406.01 5339.49 M1480.26 5222.27 L1480.26 5256.34 Q1466.19 5249.67 1451.75 5246.16 Q1437.49 5242.64 1423.41 5242.64 Q1386.38 5242.64 1366.75 5267.64 Q1347.3 5292.64 1344.52 5343.19 Q1355.45 5327.08 1371.93 5318.56 Q1388.41 5309.86 1408.23 5309.86 Q1449.89 5309.86 1473.97 5335.23 Q1498.23 5360.41 1498.23 5403.93 Q1498.23 5446.53 1473.04 5472.27 Q1447.86 5498.01 1406.01 5498.01 Q1358.04 5498.01 1332.67 5461.34 Q1307.3 5424.49 1307.3 5354.67 Q1307.3 5289.12 1338.41 5250.23 Q1369.52 5211.16 1421.93 5211.16 Q1436 5211.16 1450.26 5213.93 Q1464.71 5216.71 1480.26 5222.27 Z" fill="#000000" fill-rule="evenodd" fill-opacity="1" /><path clip-path="url(#clip7700)" d="M 0 0 M1623.41 5339.49 Q1598.23 5339.49 1583.41 5356.71 Q1568.78 5373.93 1568.78 5403.93 Q1568.78 5433.75 1583.41 5451.15 Q1598.23 5468.38 1623.41 5468.38 Q1648.6 5468.38 1663.23 5451.15 Q1678.04 5433.75 1678.04 5403.93 Q1678.04 5373.93 1663.23 5356.71 Q1648.6 5339.49 1623.41 5339.49 M1697.67 5222.27 L1697.67 5256.34 Q1683.6 5249.67 1669.15 5246.16 Q1654.89 5242.64 1640.82 5242.64 Q1603.78 5242.64 1584.15 5267.64 Q1564.71 5292.64 1561.93 5343.19 Q1572.86 5327.08 1589.34 5318.56 Q1605.82 5309.86 1625.63 5309.86 Q1667.3 5309.86 1691.37 5335.23 Q1715.63 5360.41 1715.63 5403.93 Q1715.63 5446.53 1690.45 5472.27 Q1665.26 5498.01 1623.41 5498.01 Q1575.45 5498.01 1550.08 5461.34 Q1524.71 5424.49 1524.71 5354.67 Q1524.71 5289.12 1555.82 5250.23 Q1586.93 5211.16 1639.34 5211.16 Q1653.41 5211.16 1667.67 5213.93 Q1682.11 5216.71 1697.67 5222.27 Z" fill="#000000" fill-rule="evenodd" fill-opacity="1" /><path clip-path="url(#clip7700)" d="M 0 0 M1836.19 5240.79 Q1807.3 5240.79 1792.67 5269.3 Q1778.23 5297.64 1778.23 5354.67 Q1778.23 5411.53 1792.67 5440.04 Q1807.3 5468.38 1836.19 5468.38 Q1865.26 5468.38 1879.71 5440.04 Q1894.34 5411.53 1894.34 5354.67 Q1894.34 5297.64 1879.71 5269.3 Q1865.26 5240.79 1836.19 5240.79 M1836.19 5211.16 Q1882.67 5211.16 1907.11 5248.01 Q1931.74 5284.67 1931.74 5354.67 Q1931.74 5424.49 1907.11 5461.34 Q1882.67 5498.01 1836.19 5498.01 Q1789.71 5498.01 1765.08 5461.34 Q1740.63 5424.49 1740.63 5354.67 Q1740.63 5284.67 1765.08 5248.01 Q1789.71 5211.16 1836.19 5211.16 Z" fill="#000000" fill-rule="evenodd" fill-opacity="1" /><path clip-path="url(#clip7700)" d="M 0 0 M2052.3 5240.79 Q2023.41 5240.79 2008.78 5269.3 Q1994.34 5297.64 1994.34 5354.67 Q1994.34 5411.53 2008.78 5440.04 Q2023.41 5468.38 2052.3 5468.38 Q2081.37 5468.38 2095.82 5440.04 Q2110.45 5411.53 2110.45 5354.67 Q2110.45 5297.64 2095.82 5269.3 Q2081.37 5240.79 2052.3 5240.79 M2052.3 5211.16 Q2098.78 5211.16 2123.22 5248.01 Q2147.85 5284.67 2147.85 5354.67 Q2147.85 5424.49 2123.22 5461.34 Q2098.78 5498.01 2052.3 5498.01 Q2005.82 5498.01 1981.19 5461.34 Q1956.74 5424.49 1956.74 5354.67 Q1956.74 5284.67 1981.19 5248.01 Q2005.82 5211.16 2052.3 5211.16 Z" fill="#000000" fill-rule="evenodd" fill-opacity="1" /><path clip-path="url(#clip7700)" d="M 0 0 M1126.38 3074.87 Q1097.49 3074.87 1082.86 3103.39 Q1068.41 3131.73 1068.41 3188.76 Q1068.41 3245.61 1082.86 3274.13 Q1097.49 3302.47 1126.38 3302.47 Q1155.45 3302.47 1169.9 3274.13 Q1184.52 3245.61 1184.52 3188.76 Q1184.52 3131.73 1169.9 3103.39 Q1155.45 3074.87 1126.38 3074.87 M1126.38 3045.24 Q1172.86 3045.24 1197.3 3082.1 Q1221.93 3118.76 1221.93 3188.76 Q1221.93 3258.58 1197.3 3295.43 Q1172.86 3332.09 1126.38 3332.09 Q1079.9 3332.09 1055.27 3295.43 Q1030.82 3258.58 1030.82 3188.76 Q1030.82 3118.76 1055.27 3082.1 Q1079.9 3045.24 1126.38 3045.24 Z" fill="#000000" fill-rule="evenodd" fill-opacity="1" /><path clip-path="url(#clip7700)" d="M 0 0 M1262.49 3279.69 L1301.56 3279.69 L1301.56 3326.72 L1262.49 3326.72 L1262.49 3279.69 Z" fill="#000000" fill-rule="evenodd" fill-opacity="1" /><path clip-path="url(#clip7700)" d="M 0 0 M1426.75 3173.58 Q1401.56 3173.58 1386.75 3190.8 Q1372.12 3208.02 1372.12 3238.02 Q1372.12 3267.84 1386.75 3285.24 Q1401.56 3302.47 1426.75 3302.47 Q1451.93 3302.47 1466.56 3285.24 Q1481.38 3267.84 1481.38 3238.02 Q1481.38 3208.02 1466.56 3190.8 Q1451.93 3173.58 1426.75 3173.58 M1501 3056.36 L1501 3090.43 Q1486.93 3083.76 1472.49 3080.24 Q1458.23 3076.73 1444.15 3076.73 Q1407.12 3076.73 1387.49 3101.73 Q1368.04 3126.73 1365.26 3177.28 Q1376.19 3161.17 1392.67 3152.65 Q1409.15 3143.95 1428.97 3143.95 Q1470.63 3143.95 1494.71 3169.32 Q1518.97 3194.5 1518.97 3238.02 Q1518.97 3280.61 1493.78 3306.35 Q1468.6 3332.09 1426.75 3332.09 Q1378.78 3332.09 1353.41 3295.43 Q1328.04 3258.58 1328.04 3188.76 Q1328.04 3123.21 1359.15 3084.32 Q1390.26 3045.24 1442.67 3045.24 Q1456.75 3045.24 1471 3048.02 Q1485.45 3050.8 1501 3056.36 Z" fill="#000000" fill-rule="evenodd" fill-opacity="1" /><path clip-path="url(#clip7700)" d="M 0 0 M1644.15 3173.58 Q1618.97 3173.58 1604.15 3190.8 Q1589.52 3208.02 1589.52 3238.02 Q1589.52 3267.84 1604.15 3285.24 Q1618.97 3302.47 1644.15 3302.47 Q1669.34 3302.47 1683.97 3285.24 Q1698.78 3267.84 1698.78 3238.02 Q1698.78 3208.02 1683.97 3190.8 Q1669.34 3173.58 1644.15 3173.58 M1718.41 3056.36 L1718.41 3090.43 Q1704.34 3083.76 1689.89 3080.24 Q1675.63 3076.73 1661.56 3076.73 Q1624.52 3076.73 1604.89 3101.73 Q1585.45 3126.73 1582.67 3177.28 Q1593.6 3161.17 1610.08 3152.65 Q1626.56 3143.95 1646.37 3143.95 Q1688.04 3143.95 1712.11 3169.32 Q1736.37 3194.5 1736.37 3238.02 Q1736.37 3280.61 1711.19 3306.35 Q1686 3332.09 1644.15 3332.09 Q1596.19 3332.09 1570.82 3295.43 Q1545.45 3258.58 1545.45 3188.76 Q1545.45 3123.21 1576.56 3084.32 Q1607.67 3045.24 1660.08 3045.24 Q1674.15 3045.24 1688.41 3048.02 Q1702.86 3050.8 1718.41 3056.36 Z" fill="#000000" fill-rule="evenodd" fill-opacity="1" /><path clip-path="url(#clip7700)" d="M 0 0 M1809.15 3295.24 L1939.71 3295.24 L1939.71 3326.72 L1764.15 3326.72 L1764.15 3295.24 Q1785.45 3273.21 1822.11 3236.17 Q1858.97 3198.95 1868.41 3188.21 Q1886.37 3168.02 1893.41 3154.13 Q1900.63 3140.06 1900.63 3126.54 Q1900.63 3104.5 1885.08 3090.61 Q1869.71 3076.73 1844.89 3076.73 Q1827.3 3076.73 1807.67 3082.84 Q1788.23 3088.95 1766 3101.36 L1766 3063.58 Q1788.6 3054.5 1808.23 3049.87 Q1827.85 3045.24 1844.15 3045.24 Q1887.11 3045.24 1912.67 3066.73 Q1938.22 3088.21 1938.22 3124.13 Q1938.22 3141.17 1931.74 3156.54 Q1925.45 3171.73 1908.59 3192.47 Q1903.97 3197.84 1879.15 3223.58 Q1854.34 3249.13 1809.15 3295.24 Z" fill="#000000" fill-rule="evenodd" fill-opacity="1" /><path clip-path="url(#clip7700)" d="M 0 0 M1980.63 3050.24 L2127.48 3050.24 L2127.48 3081.73 L2014.89 3081.73 L2014.89 3149.5 Q2023.04 3146.73 2031.19 3145.43 Q2039.34 3143.95 2047.48 3143.95 Q2093.78 3143.95 2120.82 3169.32 Q2147.85 3194.69 2147.85 3238.02 Q2147.85 3282.65 2120.08 3307.47 Q2092.3 3332.09 2041.74 3332.09 Q2024.34 3332.09 2006.19 3329.13 Q1988.22 3326.17 1968.97 3320.24 L1968.97 3282.65 Q1985.63 3291.72 2003.41 3296.17 Q2021.19 3300.61 2041 3300.61 Q2073.04 3300.61 2091.74 3283.76 Q2110.45 3266.91 2110.45 3238.02 Q2110.45 3209.13 2091.74 3192.28 Q2073.04 3175.43 2041 3175.43 Q2026 3175.43 2011 3178.76 Q1996.19 3182.1 1980.63 3189.13 L1980.63 3050.24 Z" fill="#000000" fill-rule="evenodd" fill-opacity="1" /><path clip-path="url(#clip7700)" d="M 0 0 M1113.6 908.962 Q1084.71 908.962 1070.08 937.481 Q1055.64 965.814 1055.64 1022.85 Q1055.64 1079.7 1070.08 1108.22 Q1084.71 1136.55 1113.6 1136.55 Q1142.67 1136.55 1157.12 1108.22 Q1171.75 1079.7 1171.75 1022.85 Q1171.75 965.814 1157.12 937.481 Q1142.67 908.962 1113.6 908.962 M1113.6 879.333 Q1160.08 879.333 1184.52 916.185 Q1209.15 952.851 1209.15 1022.85 Q1209.15 1092.67 1184.52 1129.52 Q1160.08 1166.18 1113.6 1166.18 Q1067.12 1166.18 1042.49 1129.52 Q1018.04 1092.67 1018.04 1022.85 Q1018.04 952.851 1042.49 916.185 Q1067.12 879.333 1113.6 879.333 Z" fill="#000000" fill-rule="evenodd" fill-opacity="1" /><path clip-path="url(#clip7700)" d="M 0 0 M1249.71 1113.78 L1288.78 1113.78 L1288.78 1160.81 L1249.71 1160.81 L1249.71 1113.78 Z" fill="#000000" fill-rule="evenodd" fill-opacity="1" /><path clip-path="url(#clip7700)" d="M 0 0 M1413.97 1007.67 Q1388.78 1007.67 1373.97 1024.89 Q1359.34 1042.11 1359.34 1072.11 Q1359.34 1101.92 1373.97 1119.33 Q1388.78 1136.55 1413.97 1136.55 Q1439.15 1136.55 1453.78 1119.33 Q1468.6 1101.92 1468.6 1072.11 Q1468.6 1042.11 1453.78 1024.89 Q1439.15 1007.67 1413.97 1007.67 M1488.23 890.444 L1488.23 924.518 Q1474.15 917.851 1459.71 914.333 Q1445.45 910.814 1431.38 910.814 Q1394.34 910.814 1374.71 935.814 Q1355.26 960.814 1352.49 1011.37 Q1363.41 995.258 1379.89 986.74 Q1396.38 978.036 1416.19 978.036 Q1457.86 978.036 1481.93 1003.41 Q1506.19 1028.59 1506.19 1072.11 Q1506.19 1114.7 1481 1140.44 Q1455.82 1166.18 1413.97 1166.18 Q1366.01 1166.18 1340.64 1129.52 Q1315.26 1092.67 1315.26 1022.85 Q1315.26 957.296 1346.38 918.407 Q1377.49 879.333 1429.89 879.333 Q1443.97 879.333 1458.23 882.111 Q1472.67 884.889 1488.23 890.444 Z" fill="#000000" fill-rule="evenodd" fill-opacity="1" /><path clip-path="url(#clip7700)" d="M 0 0 M1631.37 1007.67 Q1606.19 1007.67 1591.37 1024.89 Q1576.74 1042.11 1576.74 1072.11 Q1576.74 1101.92 1591.37 1119.33 Q1606.19 1136.55 1631.37 1136.55 Q1656.56 1136.55 1671.19 1119.33 Q1686 1101.92 1686 1072.11 Q1686 1042.11 1671.19 1024.89 Q1656.56 1007.67 1631.37 1007.67 M1705.63 890.444 L1705.63 924.518 Q1691.56 917.851 1677.11 914.333 Q1662.86 910.814 1648.78 910.814 Q1611.74 910.814 1592.12 935.814 Q1572.67 960.814 1569.89 1011.37 Q1580.82 995.258 1597.3 986.74 Q1613.78 978.036 1633.6 978.036 Q1675.26 978.036 1699.34 1003.41 Q1723.6 1028.59 1723.6 1072.11 Q1723.6 1114.7 1698.41 1140.44 Q1673.23 1166.18 1631.37 1166.18 Q1583.41 1166.18 1558.04 1129.52 Q1532.67 1092.67 1532.67 1022.85 Q1532.67 957.296 1563.78 918.407 Q1594.89 879.333 1647.3 879.333 Q1661.37 879.333 1675.63 882.111 Q1690.08 884.889 1705.63 890.444 Z" fill="#000000" fill-rule="evenodd" fill-opacity="1" /><path clip-path="url(#clip7700)" d="M 0 0 M1764.52 884.333 L1911.37 884.333 L1911.37 915.814 L1798.78 915.814 L1798.78 983.592 Q1806.93 980.814 1815.08 979.518 Q1823.23 978.036 1831.37 978.036 Q1877.67 978.036 1904.71 1003.41 Q1931.74 1028.78 1931.74 1072.11 Q1931.74 1116.74 1903.97 1141.55 Q1876.19 1166.18 1825.63 1166.18 Q1808.23 1166.18 1790.08 1163.22 Q1772.11 1160.26 1752.86 1154.33 L1752.86 1116.74 Q1769.52 1125.81 1787.3 1130.26 Q1805.08 1134.7 1824.89 1134.7 Q1856.93 1134.7 1875.63 1117.85 Q1894.34 1101 1894.34 1072.11 Q1894.34 1043.22 1875.63 1026.37 Q1856.93 1009.52 1824.89 1009.52 Q1809.89 1009.52 1794.89 1012.85 Q1780.08 1016.18 1764.52 1023.22 L1764.52 884.333 Z" fill="#000000" fill-rule="evenodd" fill-opacity="1" /><path clip-path="url(#clip7700)" d="M 0 0 M2052.3 908.962 Q2023.41 908.962 2008.78 937.481 Q1994.34 965.814 1994.34 1022.85 Q1994.34 1079.7 2008.78 1108.22 Q2023.41 1136.55 2052.3 1136.55 Q2081.37 1136.55 2095.82 1108.22 Q2110.45 1079.7 2110.45 1022.85 Q2110.45 965.814 2095.82 937.481 Q2081.37 908.962 2052.3 908.962 M2052.3 879.333 Q2098.78 879.333 2123.22 916.185 Q2147.85 952.851 2147.85 1022.85 Q2147.85 1092.67 2123.22 1129.52 Q2098.78 1166.18 2052.3 1166.18 Q2005.82 1166.18 1981.19 1129.52 Q1956.74 1092.67 1956.74 1022.85 Q1956.74 952.851 1981.19 916.185 Q2005.82 879.333 2052.3 879.333 Z" fill="#000000" fill-rule="evenodd" fill-opacity="1" /><path clip-path="url(#clip7700)" d="M 0 0 M5967.13 228.341 L5967.13 284.73 Q5941.85 271.767 5914.63 265.286 Q5887.41 258.804 5858.24 258.804 Q5813.85 258.804 5791.49 272.415 Q5769.45 286.026 5769.45 313.248 Q5769.45 333.989 5785.33 345.98 Q5801.21 357.646 5849.17 368.341 L5869.59 372.878 Q5933.1 386.489 5959.68 411.442 Q5986.58 436.072 5986.58 480.47 Q5986.58 531.025 5946.39 560.516 Q5906.53 590.006 5836.53 590.006 Q5807.36 590.006 5775.61 584.173 Q5744.17 578.664 5709.17 567.321 L5709.17 505.747 Q5742.23 522.923 5774.31 531.673 Q5806.39 540.099 5837.83 540.099 Q5879.96 540.099 5902.64 525.84 Q5925.33 511.257 5925.33 485.007 Q5925.33 460.701 5908.8 447.738 Q5892.6 434.775 5837.18 422.785 L5816.44 417.924 Q5761.02 406.257 5736.39 382.276 Q5711.76 357.97 5711.76 315.841 Q5711.76 264.637 5748.06 236.767 Q5784.36 208.897 5851.11 208.897 Q5884.17 208.897 5913.34 213.758 Q5942.5 218.619 5967.13 228.341 Z" fill="#000000" fill-rule="evenodd" fill-opacity="1" /><path clip-path="url(#clip7700)" d="M 0 0 M6049.12 217.647 L6108.75 217.647 L6108.75 580.608 L6049.12 580.608 L6049.12 217.647 M6049.12 76.3514 L6108.75 76.3514 L6108.75 151.86 L6049.12 151.86 L6049.12 76.3514 Z" fill="#000000" fill-rule="evenodd" fill-opacity="1" /><path clip-path="url(#clip7700)" d="M 0 0 M6145.37 217.647 L6428.61 217.647 L6428.61 272.091 L6204.35 532.969 L6428.61 532.969 L6428.61 580.608 L6137.27 580.608 L6137.27 526.164 L6361.53 265.286 L6145.37 265.286 L6145.37 217.647 Z" fill="#000000" fill-rule="evenodd" fill-opacity="1" /><path clip-path="url(#clip7700)" d="M 0 0 M6801.62 384.22 L6801.62 413.387 L6527.45 413.387 Q6531.34 474.96 6564.4 507.368 Q6597.78 539.451 6657.08 539.451 Q6691.43 539.451 6723.52 531.025 Q6755.92 522.599 6787.68 505.747 L6787.68 562.136 Q6755.6 575.747 6721.9 582.877 Q6688.19 590.006 6653.52 590.006 Q6566.67 590.006 6515.79 539.451 Q6465.23 488.896 6465.23 402.692 Q6465.23 313.572 6513.19 261.397 Q6561.48 208.897 6643.15 208.897 Q6716.39 208.897 6758.84 256.212 Q6801.62 303.202 6801.62 384.22 M6741.99 366.72 Q6741.34 317.785 6714.44 288.619 Q6687.87 259.452 6643.8 259.452 Q6593.89 259.452 6563.75 287.647 Q6533.93 315.841 6529.4 367.044 L6741.99 366.72 Z" fill="#000000" fill-rule="evenodd" fill-opacity="1" /><path clip-path="url(#clip7700)" d="M 0 0 M6879.4 498.294 L6947.78 498.294 L6947.78 580.608 L6879.4 580.608 L6879.4 498.294 M6879.4 237.415 L6947.78 237.415 L6947.78 319.73 L6879.4 319.73 L6879.4 237.415 Z" fill="#000000" fill-rule="evenodd" fill-opacity="1" /><path clip-path="url(#clip7700)" d="M 0 0 M7166.85 312.6 Q7122.77 312.6 7096.85 342.739 Q7071.25 372.878 7071.25 425.377 Q7071.25 477.553 7096.85 508.016 Q7122.77 538.155 7166.85 538.155 Q7210.92 538.155 7236.52 508.016 Q7262.45 477.553 7262.45 425.377 Q7262.45 372.878 7236.52 342.739 Q7210.92 312.6 7166.85 312.6 M7296.8 107.462 L7296.8 167.092 Q7272.17 155.425 7246.89 149.268 Q7221.94 143.11 7197.31 143.11 Q7132.5 143.11 7098.14 186.86 Q7064.12 230.61 7059.26 319.082 Q7078.38 290.887 7107.22 275.98 Q7136.06 260.749 7170.74 260.749 Q7243.65 260.749 7285.78 305.147 Q7328.24 349.22 7328.24 425.377 Q7328.24 499.914 7284.16 544.96 Q7240.09 590.006 7166.85 590.006 Q7082.91 590.006 7038.52 525.84 Q6994.12 461.349 6994.12 339.174 Q6994.12 224.453 7048.56 156.397 Q7103.01 88.018 7194.72 88.018 Q7219.35 88.018 7244.3 92.8791 Q7269.58 97.7402 7296.8 107.462 Z" fill="#000000" fill-rule="evenodd" fill-opacity="1" /><path clip-path="url(#clip7700)" d="M 0 0 M7406.01 498.294 L7474.39 498.294 L7474.39 554.034 L7421.24 657.737 L7379.44 657.737 L7406.01 554.034 L7406.01 498.294 Z" fill="#000000" fill-rule="evenodd" fill-opacity="1" /><path clip-path="url(#clip7700)" d="M 0 0 M7685.36 350.841 Q7638.7 350.841 7611.8 375.794 Q7585.23 400.748 7585.23 444.498 Q7585.23 488.247 7611.8 513.201 Q7638.7 538.155 7685.36 538.155 Q7732.03 538.155 7758.93 513.201 Q7785.83 487.923 7785.83 444.498 Q7785.83 400.748 7758.93 375.794 Q7732.35 350.841 7685.36 350.841 M7619.9 322.97 Q7577.77 312.6 7554.11 283.758 Q7530.78 254.915 7530.78 213.434 Q7530.78 155.425 7571.94 121.722 Q7613.42 88.018 7685.36 88.018 Q7757.63 88.018 7798.79 121.722 Q7839.95 155.425 7839.95 213.434 Q7839.95 254.915 7816.29 283.758 Q7792.96 312.6 7751.15 322.97 Q7798.47 333.989 7824.71 366.072 Q7851.29 398.155 7851.29 444.498 Q7851.29 514.821 7808.19 552.414 Q7765.41 590.006 7685.36 590.006 Q7605.32 590.006 7562.22 552.414 Q7519.44 514.821 7519.44 444.498 Q7519.44 398.155 7546.01 366.072 Q7572.59 333.989 7619.9 322.97 M7595.92 219.591 Q7595.92 257.184 7619.25 278.249 Q7642.91 299.313 7685.36 299.313 Q7727.49 299.313 7751.15 278.249 Q7775.13 257.184 7775.13 219.591 Q7775.13 181.999 7751.15 160.934 Q7727.49 139.87 7685.36 139.87 Q7642.91 139.87 7619.25 160.934 Q7595.92 181.999 7595.92 219.591 Z" fill="#000000" fill-rule="evenodd" fill-opacity="1" /><path clip-path="url(#clip7700)" d="M 0 0 M7929.07 498.294 L7997.45 498.294 L7997.45 554.034 L7944.3 657.737 L7902.49 657.737 L7929.07 554.034 L7929.07 498.294 Z" fill="#000000" fill-rule="evenodd" fill-opacity="1" /><path clip-path="url(#clip7700)" d="M 0 0 M8079.76 525.516 L8186.7 525.516 L8186.7 156.397 L8070.36 179.731 L8070.36 120.101 L8186.06 96.768 L8251.52 96.768 L8251.52 525.516 L8358.46 525.516 L8358.46 580.608 L8079.76 580.608 L8079.76 525.516 Z" fill="#000000" fill-rule="evenodd" fill-opacity="1" /><path clip-path="url(#clip7700)" d="M 0 0 M8569.43 139.87 Q8518.88 139.87 8493.28 189.777 Q8468 239.36 8468 339.174 Q8468 438.664 8493.28 488.571 Q8518.88 538.155 8569.43 538.155 Q8620.31 538.155 8645.59 488.571 Q8671.19 438.664 8671.19 339.174 Q8671.19 239.36 8645.59 189.777 Q8620.31 139.87 8569.43 139.87 M8569.43 88.018 Q8650.78 88.018 8693.55 152.508 Q8736.65 216.675 8736.65 339.174 Q8736.65 461.349 8693.55 525.84 Q8650.78 590.006 8569.43 590.006 Q8488.09 590.006 8444.99 525.84 Q8402.21 461.349 8402.21 339.174 Q8402.21 216.675 8444.99 152.508 Q8488.09 88.018 8569.43 88.018 Z" fill="#000000" fill-rule="evenodd" fill-opacity="1" /><path clip-path="url(#clip7700)" d="M 0 0 M8814.43 498.294 L8882.81 498.294 L8882.81 554.034 L8829.66 657.737 L8787.86 657.737 L8814.43 554.034 L8814.43 498.294 Z" fill="#000000" fill-rule="evenodd" fill-opacity="1" /><path clip-path="url(#clip7700)" d="M 0 0 M8965.13 525.516 L9072.07 525.516 L9072.07 156.397 L8955.73 179.731 L8955.73 120.101 L9071.42 96.768 L9136.88 96.768 L9136.88 525.516 L9243.83 525.516 L9243.83 580.608 L8965.13 580.608 L8965.13 525.516 Z" fill="#000000" fill-rule="evenodd" fill-opacity="1" /><path clip-path="url(#clip7700)" d="M 0 0 M9371.19 525.516 L9599.66 525.516 L9599.66 580.608 L9292.44 580.608 L9292.44 525.516 Q9329.71 486.951 9393.87 422.137 Q9458.36 356.998 9474.89 338.202 Q9506.33 302.878 9518.64 278.573 Q9531.28 253.943 9531.28 230.286 Q9531.28 191.721 9504.06 167.416 Q9477.16 143.11 9433.73 143.11 Q9402.95 143.11 9368.6 153.805 Q9334.57 164.499 9295.68 186.212 L9295.68 120.101 Q9335.22 104.222 9369.57 96.1199 Q9403.92 88.018 9432.44 88.018 Q9507.62 88.018 9552.34 125.61 Q9597.07 163.203 9597.07 226.073 Q9597.07 255.888 9585.72 282.786 Q9574.71 309.359 9545.21 345.656 Q9537.11 355.054 9493.69 400.1 Q9450.26 444.822 9371.19 525.516 Z" fill="#000000" fill-rule="evenodd" fill-opacity="1" /><path clip-path="url(#clip7700)" d="M 0 0 M9677.44 237.415 L9745.82 237.415 L9745.82 319.73 L9677.44 319.73 L9677.44 237.415 M9677.44 498.294 L9745.82 498.294 L9745.82 554.034 L9692.67 657.737 L9650.86 657.737 L9677.44 554.034 L9677.44 498.294 Z" fill="#000000" fill-rule="evenodd" fill-opacity="1" /><path clip-path="url(#clip7700)" d="M 0 0 M10218.3 141.166 Q10147 141.166 10104.9 194.314 Q10063.1 247.462 10063.1 339.174 Q10063.1 430.563 10104.9 483.71 Q10147 536.858 10218.3 536.858 Q10289.6 536.858 10331.1 483.71 Q10372.9 430.563 10372.9 339.174 Q10372.9 247.462 10331.1 194.314 Q10289.6 141.166 10218.3 141.166 M10310 571.858 L10396.2 666.163 L10317.2 666.163 L10245.5 588.71 Q10234.8 589.358 10229 589.682 Q10223.5 590.006 10218.3 590.006 Q10116.2 590.006 10055 521.951 Q9994.06 453.572 9994.06 339.174 Q9994.06 224.453 10055 156.397 Q10116.2 88.018 10218.3 88.018 Q10320.1 88.018 10381 156.397 Q10441.9 224.453 10441.9 339.174 Q10441.9 423.433 10407.9 483.386 Q10374.2 543.34 10310 571.858 Z" fill="#000000" fill-rule="evenodd" fill-opacity="1" /><path clip-path="url(#clip7700)" d="M 0 0 M10723.2 279.221 L11138.7 279.221 L11138.7 333.665 L10723.2 333.665 L10723.2 279.221 M10723.2 411.442 L11138.7 411.442 L11138.7 466.535 L10723.2 466.535 L10723.2 411.442 Z" fill="#000000" fill-rule="evenodd" fill-opacity="1" /><path clip-path="url(#clip7700)" d="M 0 0 M11432 525.516 L11538.9 525.516 L11538.9 156.397 L11422.6 179.731 L11422.6 120.101 L11538.3 96.768 L11603.7 96.768 L11603.7 525.516 L11710.7 525.516 L11710.7 580.608 L11432 580.608 L11432 525.516 Z" fill="#000000" fill-rule="evenodd" fill-opacity="1" /><path clip-path="url(#clip7700)" d="M 0 0 M11929.7 312.6 Q11885.7 312.6 11859.7 342.739 Q11834.1 372.878 11834.1 425.377 Q11834.1 477.553 11859.7 508.016 Q11885.7 538.155 11929.7 538.155 Q11973.8 538.155 11999.4 508.016 Q12025.3 477.553 12025.3 425.377 Q12025.3 372.878 11999.4 342.739 Q11973.8 312.6 11929.7 312.6 M12059.7 107.462 L12059.7 167.092 Q12035.1 155.425 12009.8 149.268 Q11984.8 143.11 11960.2 143.11 Q11895.4 143.11 11861 186.86 Q11827 230.61 11822.1 319.082 Q11841.3 290.887 11870.1 275.98 Q11899 260.749 11933.6 260.749 Q12006.5 260.749 12048.7 305.147 Q12091.1 349.22 12091.1 425.377 Q12091.1 499.914 12047.1 544.96 Q12003 590.006 11929.7 590.006 Q11845.8 590.006 11801.4 525.84 Q11757 461.349 11757 339.174 Q11757 224.453 11811.5 156.397 Q11865.9 88.018 11957.6 88.018 Q11982.2 88.018 12007.2 92.8791 Q12032.5 97.7402 12059.7 107.462 Z" fill="#000000" fill-rule="evenodd" fill-opacity="1" /><path clip-path="url(#clip7700)" d="M 0 0 M12168.9 237.415 L12237.3 237.415 L12237.3 319.73 L12168.9 319.73 L12168.9 237.415 M12168.9 498.294 L12237.3 498.294 L12237.3 554.034 L12184.1 657.737 L12142.3 657.737 L12168.9 554.034 L12168.9 498.294 Z" fill="#000000" fill-rule="evenodd" fill-opacity="1" /><path clip-path="url(#clip7700)" d="M 0 0 M12513.4 96.768 L12578.9 96.768 L12578.9 546.904 Q12578.9 634.404 12545.5 673.941 Q12512.4 713.478 12438.9 713.478 L12413.9 713.478 L12413.9 658.385 L12434.3 658.385 Q12477.7 658.385 12495.6 634.08 Q12513.4 609.775 12513.4 546.904 L12513.4 96.768 Z" fill="#000000" fill-rule="evenodd" fill-opacity="1" /><path clip-path="url(#clip7700)" d="M 0 0 M12917.2 690.793 L12917.2 737.135 L12572.4 737.135 L12572.4 690.793 L12917.2 690.793 Z" fill="#000000" fill-rule="evenodd" fill-opacity="1" /><path clip-path="url(#clip7700)" d="M 0 0 M12999.5 525.516 L13106.4 525.516 L13106.4 156.397 L12990.1 179.731 L12990.1 120.101 L13105.8 96.768 L13171.3 96.768 L13171.3 525.516 L13278.2 525.516 L13278.2 580.608 L12999.5 580.608 L12999.5 525.516 Z" fill="#000000" fill-rule="evenodd" fill-opacity="1" /><path clip-path="url(#clip7700)" d="M 0 0 M13559.5 279.221 L13975 279.221 L13975 333.665 L13559.5 333.665 L13559.5 279.221 M13559.5 411.442 L13975 411.442 L13975 466.535 L13559.5 466.535 L13559.5 411.442 Z" fill="#000000" fill-rule="evenodd" fill-opacity="1" /><path clip-path="url(#clip7700)" d="M 0 0 M14396.9 139.87 Q14346.3 139.87 14320.7 189.777 Q14295.5 239.36 14295.5 339.174 Q14295.5 438.664 14320.7 488.571 Q14346.3 538.155 14396.9 538.155 Q14447.8 538.155 14473.1 488.571 Q14498.7 438.664 14498.7 339.174 Q14498.7 239.36 14473.1 189.777 Q14447.8 139.87 14396.9 139.87 M14396.9 88.018 Q14478.2 88.018 14521 152.508 Q14564.1 216.675 14564.1 339.174 Q14564.1 461.349 14521 525.84 Q14478.2 590.006 14396.9 590.006 Q14315.6 590.006 14272.5 525.84 Q14229.7 461.349 14229.7 339.174 Q14229.7 216.675 14272.5 152.508 Q14315.6 88.018 14396.9 88.018 Z" fill="#000000" fill-rule="evenodd" fill-opacity="1" /><path clip-path="url(#clip7700)" d="M 0 0 M14635.1 498.294 L14703.5 498.294 L14703.5 580.608 L14635.1 580.608 L14635.1 498.294 Z" fill="#000000" fill-rule="evenodd" fill-opacity="1" /><path clip-path="url(#clip7700)" d="M 0 0 M14954.3 153.805 L14789 412.09 L14954.3 412.09 L14954.3 153.805 M14937.1 96.768 L15019.4 96.768 L15019.4 412.09 L15088.5 412.09 L15088.5 466.535 L15019.4 466.535 L15019.4 580.608 L14954.3 580.608 L14954.3 466.535 L14735.9 466.535 L14735.9 403.34 L14937.1 96.768 Z" fill="#000000" fill-rule="evenodd" fill-opacity="1" /><path clip-path="url(#clip7700)" d="M 0 0 M15160.1 96.768 L15417.1 96.768 L15417.1 151.86 L15220 151.86 L15220 270.471 Q15234.3 265.61 15248.6 263.341 Q15262.8 260.749 15277.1 260.749 Q15358.1 260.749 15405.4 305.147 Q15452.7 349.544 15452.7 425.377 Q15452.7 503.479 15404.1 546.904 Q15355.5 590.006 15267 590.006 Q15236.6 590.006 15204.8 584.821 Q15173.4 579.636 15139.7 569.265 L15139.7 503.479 Q15168.8 519.358 15200 527.136 Q15231.1 534.914 15265.7 534.914 Q15321.8 534.914 15354.5 505.423 Q15387.3 475.933 15387.3 425.377 Q15387.3 374.822 15354.5 345.331 Q15321.8 315.841 15265.7 315.841 Q15239.5 315.841 15213.2 321.674 Q15187.3 327.508 15160.1 339.822 L15160.1 96.768 Z" fill="#000000" fill-rule="evenodd" fill-opacity="1" /><path clip-path="url(#clip7700)" d="M 0 0 M10420.2 12068.2 L10741.7 12068.2 L10741.7 12111.5 L10606.8 12111.5 L10606.8 12448.4 L10555.1 12448.4 L10555.1 12111.5 L10420.2 12111.5 L10420.2 12068.2 Z" fill="#000000" fill-rule="evenodd" fill-opacity="1" /><path clip-path="url(#clip7700)" d="M 0 0 M522.483 7641.94 L661.765 7641.94 L661.765 7559.44 Q661.765 7517.93 644.705 7498.07 Q627.39 7477.96 591.997 7477.96 Q556.349 7477.96 539.543 7498.07 Q522.483 7517.93 522.483 7559.44 L522.483 7641.94 M366.142 7641.94 L480.724 7641.94 L480.724 7565.8 Q480.724 7528.12 466.72 7509.78 Q452.461 7491.2 423.433 7491.2 Q394.66 7491.2 380.401 7509.78 Q366.142 7528.12 366.142 7565.8 L366.142 7641.94 M323.873 7693.37 L323.873 7561.98 Q323.873 7503.16 348.318 7471.33 Q372.762 7439.51 417.831 7439.51 Q452.715 7439.51 473.34 7455.8 Q493.965 7472.1 499.058 7503.67 Q507.206 7465.73 533.178 7444.85 Q558.895 7423.72 597.599 7423.72 Q648.524 7423.72 676.279 7458.35 Q704.033 7492.98 704.033 7556.89 L704.033 7693.37 L323.873 7693.37 Z" fill="#000000" fill-rule="evenodd" fill-opacity="1" /><path clip-path="url(#clip7700)" d="M 0 0 M418.85 7374.58 L418.85 7327.72 L704.033 7327.72 L704.033 7374.58 L418.85 7374.58 M307.832 7374.58 L307.832 7327.72 L367.16 7327.72 L367.16 7374.58 L307.832 7374.58 Z" fill="#000000" fill-rule="evenodd" fill-opacity="1" /><path clip-path="url(#clip7700)" d="M 0 0 M531.905 7041.52 L704.033 7041.52 L704.033 7088.37 L533.432 7088.37 Q492.946 7088.37 472.831 7104.16 Q452.715 7119.95 452.715 7151.52 Q452.715 7189.46 476.905 7211.36 Q501.095 7233.26 542.854 7233.26 L704.033 7233.26 L704.033 7280.36 L418.85 7280.36 L418.85 7233.26 L463.155 7233.26 Q437.437 7216.45 424.706 7193.79 Q411.975 7170.87 411.975 7141.08 Q411.975 7091.94 442.53 7066.73 Q472.831 7041.52 531.905 7041.52 Z" fill="#000000" fill-rule="evenodd" fill-opacity="1" /><path clip-path="url(#clip7700)" d="M 0 0 M462.136 6804.72 L307.832 6804.72 L307.832 6757.87 L704.033 6757.87 L704.033 6804.72 L661.256 6804.72 Q686.719 6819.49 699.195 6842.15 Q711.417 6864.56 711.417 6896.13 Q711.417 6947.82 670.168 6980.41 Q628.918 7012.75 561.696 7012.75 Q494.474 7012.75 453.224 6980.41 Q411.975 6947.82 411.975 6896.13 Q411.975 6864.56 424.451 6842.15 Q436.674 6819.49 462.136 6804.72 M561.696 6964.37 Q613.386 6964.37 642.922 6943.24 Q672.205 6921.85 672.205 6884.67 Q672.205 6847.5 642.922 6826.11 Q613.386 6804.72 561.696 6804.72 Q510.007 6804.72 480.724 6826.11 Q451.187 6847.5 451.187 6884.67 Q451.187 6921.85 480.724 6943.24 Q510.007 6964.37 561.696 6964.37 Z" fill="#000000" fill-rule="evenodd" fill-opacity="1" /><path clip-path="url(#clip7700)" d="M 0 0 M549.729 6464.79 L572.645 6464.79 L572.645 6680.2 Q621.024 6677.15 646.487 6651.18 Q671.695 6624.95 671.695 6578.35 Q671.695 6551.36 665.075 6526.15 Q658.455 6500.69 645.214 6475.74 L689.519 6475.74 Q700.214 6500.95 705.816 6527.43 Q711.417 6553.91 711.417 6581.15 Q711.417 6649.39 671.695 6689.37 Q631.973 6729.09 564.242 6729.09 Q494.22 6729.09 453.224 6691.41 Q411.975 6653.47 411.975 6589.3 Q411.975 6531.76 449.15 6498.4 Q486.071 6464.79 549.729 6464.79 M535.979 6511.64 Q497.53 6512.15 474.613 6533.28 Q451.697 6554.16 451.697 6588.79 Q451.697 6628.01 473.849 6651.69 Q496.002 6675.11 536.233 6678.68 L535.979 6511.64 Z" fill="#000000" fill-rule="evenodd" fill-opacity="1" /><path clip-path="url(#clip7700)" d="M 0 0 M462.646 6250.39 Q458.062 6258.29 456.025 6267.71 Q453.734 6276.87 453.734 6288.08 Q453.734 6327.8 479.706 6349.19 Q505.423 6370.32 553.803 6370.32 L704.033 6370.32 L704.033 6417.43 L418.85 6417.43 L418.85 6370.32 L463.155 6370.32 Q437.183 6355.55 424.706 6331.87 Q411.975 6308.19 411.975 6274.33 Q411.975 6269.49 412.739 6263.63 Q413.248 6257.78 414.521 6250.65 L462.646 6250.39 Z" fill="#000000" fill-rule="evenodd" fill-opacity="1" /><path clip-path="url(#clip7700)" d="M 0 0 M323.873 6156.94 L465.192 6156.94 L465.192 6200.23 L323.873 6200.23 L323.873 6156.94 Z" fill="#000000" fill-rule="evenodd" fill-opacity="1" /><path clip-path="url(#clip7700)" d="M 0 0 M427.252 5926 L471.558 5926 Q461.373 5945.86 456.28 5967.25 Q451.187 5988.63 451.187 6011.55 Q451.187 6046.44 461.882 6064 Q472.576 6081.32 493.965 6081.32 Q510.261 6081.32 519.682 6068.84 Q528.849 6056.37 537.252 6018.68 L540.817 6002.64 Q551.511 5952.73 571.117 5931.85 Q590.469 5910.72 625.353 5910.72 Q665.075 5910.72 688.246 5942.29 Q711.417 5973.61 711.417 6028.61 Q711.417 6051.53 706.834 6076.48 Q702.505 6101.18 693.594 6128.68 L645.214 6128.68 Q658.709 6102.71 665.584 6077.5 Q672.205 6052.29 672.205 6027.59 Q672.205 5994.49 661.001 5976.67 Q649.543 5958.84 628.918 5958.84 Q609.821 5958.84 599.636 5971.83 Q589.451 5984.56 580.029 6028.1 L576.21 6044.4 Q567.043 6087.94 548.201 6107.29 Q529.104 6126.64 496.002 6126.64 Q455.771 6126.64 433.873 6098.12 Q411.975 6069.61 411.975 6017.15 Q411.975 5991.18 415.794 5968.26 Q419.613 5945.35 427.252 5926 Z" fill="#000000" fill-rule="evenodd" fill-opacity="1" /><path clip-path="url(#clip7700)" d="M 0 0 M462.646 5530.56 Q458.062 5538.45 456.025 5547.87 Q453.734 5557.04 453.734 5568.24 Q453.734 5607.97 479.706 5629.35 Q505.423 5650.49 553.803 5650.49 L704.033 5650.49 L704.033 5697.59 L418.85 5697.59 L418.85 5650.49 L463.155 5650.49 Q437.183 5635.72 424.706 5612.04 Q411.975 5588.36 411.975 5554.49 Q411.975 5549.66 412.739 5543.8 Q413.248 5537.94 414.521 5530.81 L462.646 5530.56 Z" fill="#000000" fill-rule="evenodd" fill-opacity="1" /><path clip-path="url(#clip7700)" d="M 0 0 M560.678 5351.81 Q560.678 5408.59 573.664 5430.49 Q586.65 5452.39 617.969 5452.39 Q642.922 5452.39 657.691 5436.09 Q672.205 5419.54 672.205 5391.28 Q672.205 5352.32 644.705 5328.89 Q616.95 5305.21 571.117 5305.21 L560.678 5305.21 L560.678 5351.81 M541.326 5258.36 L704.033 5258.36 L704.033 5305.21 L660.746 5305.21 Q686.719 5321.25 699.195 5345.19 Q711.417 5369.12 711.417 5403.75 Q711.417 5447.55 686.973 5473.52 Q662.274 5499.24 621.024 5499.24 Q572.9 5499.24 548.455 5467.16 Q524.011 5434.82 524.011 5370.91 L524.011 5305.21 L519.428 5305.21 Q487.09 5305.21 469.521 5326.6 Q451.697 5347.74 451.697 5386.18 Q451.697 5410.63 457.553 5433.8 Q463.41 5456.97 475.122 5478.36 L431.836 5478.36 Q421.905 5452.64 417.067 5428.45 Q411.975 5404.26 411.975 5381.35 Q411.975 5319.47 444.058 5288.92 Q476.141 5258.36 541.326 5258.36 Z" fill="#000000" fill-rule="evenodd" fill-opacity="1" /><path clip-path="url(#clip7700)" d="M 0 0 M337.878 5162.87 L418.85 5162.87 L418.85 5066.37 L455.261 5066.37 L455.261 5162.87 L610.075 5162.87 Q644.96 5162.87 654.89 5153.45 Q664.821 5143.78 664.821 5114.5 L664.821 5066.37 L704.033 5066.37 L704.033 5114.5 Q704.033 5168.73 683.918 5189.36 Q663.547 5209.98 610.075 5209.98 L455.261 5209.98 L455.261 5244.36 L418.85 5244.36 L418.85 5209.98 L337.878 5209.98 L337.878 5162.87 Z" fill="#000000" fill-rule="evenodd" fill-opacity="1" /><path clip-path="url(#clip7700)" d="M 0 0 M418.85 5017.23 L418.85 4970.38 L704.033 4970.38 L704.033 5017.23 L418.85 5017.23 M307.832 5017.23 L307.832 4970.38 L367.16 4970.38 L367.16 5017.23 L307.832 5017.23 Z" fill="#000000" fill-rule="evenodd" fill-opacity="1" /><path clip-path="url(#clip7700)" d="M 0 0 M451.697 4810.72 Q451.697 4848.41 481.234 4870.31 Q510.516 4892.21 561.696 4892.21 Q612.876 4892.21 642.413 4870.56 Q671.695 4848.66 671.695 4810.72 Q671.695 4773.29 642.159 4751.4 Q612.622 4729.5 561.696 4729.5 Q511.025 4729.5 481.488 4751.4 Q451.697 4773.29 451.697 4810.72 M411.975 4810.72 Q411.975 4749.61 451.697 4714.73 Q491.419 4679.85 561.696 4679.85 Q631.719 4679.85 671.695 4714.73 Q711.417 4749.61 711.417 4810.72 Q711.417 4872.09 671.695 4906.97 Q631.719 4941.6 561.696 4941.6 Q491.419 4941.6 451.697 4906.97 Q411.975 4872.09 411.975 4810.72 Z" fill="#000000" fill-rule="evenodd" fill-opacity="1" /><polyline clip-path="url(#clip7702)" style="stroke:#009af9; stroke-width:32; stroke-opacity:1; fill:none" points="
  2806.33,1316.13 4534.02,1622.71 6261.72,1905.3 7989.41,2034.77 9717.1,2179.01 11444.8,2404.8 13172.5,2714.53 14900.2,2678.67 16627.9,3406.53 18355.6,3659.44 
  
  "/>
<polyline clip-path="url(#clip7702)" style="stroke:#e26f46; stroke-width:32; stroke-opacity:1; fill:none" points="
  2806.33,2113.02 4534.02,2241.16 6261.72,2453.91 7989.41,3078.01 9717.1,2952.78 11444.8,4011.55 13172.5,4563.2 14900.2,5024.13 16627.9,6026.02 18355.6,6723.4 
  
  "/>
<polyline clip-path="url(#clip7702)" style="stroke:#3da44d; stroke-width:32; stroke-opacity:1; fill:none" points="
  2806.33,1443.16 4534.02,1736.75 6261.72,2612.19 7989.41,3181.04 9717.1,3794.67 11444.8,4588.69 13172.5,5568.77 14900.2,6464.84 16627.9,7736.29 18355.6,9308.76 
  
  "/>
<polyline clip-path="url(#clip7702)" style="stroke:#c271d2; stroke-width:32; stroke-opacity:1; fill:none" points="
  2806.33,1282.05 4534.02,1716.28 6261.72,2231.93 7989.41,2678.87 9717.1,3661.44 11444.8,4570.03 13172.5,5960.17 14900.2,7364.03 16627.9,9654.48 18355.6,11091.2 
  
  "/>
<path clip-path="url(#clip7700)" d="
M2915.85 10233.4 L5949 10233.4 L5949 7814.24 L2915.85 7814.24  Z
  " fill="#ffffff" fill-rule="evenodd" fill-opacity="1"/>
<polyline clip-path="url(#clip7700)" style="stroke:#000000; stroke-width:32; stroke-opacity:1; fill:none" points="
  2915.85,10233.4 5949,10233.4 5949,7814.24 2915.85,7814.24 2915.85,10233.4 
  "/>
<polyline clip-path="url(#clip7700)" style="stroke:#009af9; stroke-width:32; stroke-opacity:1; fill:none" points="
  3107.85,8298.08 4259.85,8298.08 
  "/>
<path clip-path="url(#clip7700)" d="M 0 0 M4451.85 8159.84 L4489.26 8159.84 L4489.26 8404.84 L4623.89 8404.84 L4623.89 8436.32 L4451.85 8436.32 L4451.85 8159.84 Z" fill="#000000" fill-rule="evenodd" fill-opacity="1" /><path clip-path="url(#clip7700)" d="M 0 0 M4784.63 8264.1 L5022.04 8264.1 L5022.04 8295.21 L4784.63 8295.21 L4784.63 8264.1 M4784.63 8339.65 L5022.04 8339.65 L5022.04 8371.13 L4784.63 8371.13 L4784.63 8339.65 Z" fill="#000000" fill-rule="evenodd" fill-opacity="1" /><path clip-path="url(#clip7700)" d="M 0 0 M5267.77 8283.17 Q5242.59 8283.17 5227.77 8300.39 Q5213.15 8317.62 5213.15 8347.62 Q5213.15 8377.43 5227.77 8394.84 Q5242.59 8412.06 5267.77 8412.06 Q5292.96 8412.06 5307.59 8394.84 Q5322.4 8377.43 5322.4 8347.62 Q5322.4 8317.62 5307.59 8300.39 Q5292.96 8283.17 5267.77 8283.17 M5342.03 8165.95 L5342.03 8200.02 Q5327.96 8193.36 5313.51 8189.84 Q5299.26 8186.32 5285.18 8186.32 Q5248.14 8186.32 5228.52 8211.32 Q5209.07 8236.32 5206.29 8286.88 Q5217.22 8270.76 5233.7 8262.25 Q5250.18 8253.54 5270 8253.54 Q5311.66 8253.54 5335.74 8278.91 Q5360 8304.1 5360 8347.62 Q5360 8390.21 5334.81 8415.95 Q5309.63 8441.69 5267.77 8441.69 Q5219.81 8441.69 5194.44 8405.02 Q5169.07 8368.17 5169.07 8298.36 Q5169.07 8232.8 5200.18 8193.91 Q5231.29 8154.84 5283.7 8154.84 Q5297.77 8154.84 5312.03 8157.62 Q5326.48 8160.39 5342.03 8165.95 Z" fill="#000000" fill-rule="evenodd" fill-opacity="1" /><polyline clip-path="url(#clip7700)" style="stroke:#e26f46; stroke-width:32; stroke-opacity:1; fill:none" points="
  3107.85,8781.92 4259.85,8781.92 
  "/>
<path clip-path="url(#clip7700)" d="M 0 0 M4451.85 8643.68 L4489.26 8643.68 L4489.26 8888.68 L4623.89 8888.68 L4623.89 8920.16 L4451.85 8920.16 L4451.85 8643.68 Z" fill="#000000" fill-rule="evenodd" fill-opacity="1" /><path clip-path="url(#clip7700)" d="M 0 0 M4784.63 8747.94 L5022.04 8747.94 L5022.04 8779.05 L4784.63 8779.05 L4784.63 8747.94 M4784.63 8823.49 L5022.04 8823.49 L5022.04 8854.97 L4784.63 8854.97 L4784.63 8823.49 Z" fill="#000000" fill-rule="evenodd" fill-opacity="1" /><path clip-path="url(#clip7700)" d="M 0 0 M5263.14 8788.86 Q5236.48 8788.86 5221.11 8803.12 Q5205.92 8817.38 5205.92 8842.38 Q5205.92 8867.38 5221.11 8881.64 Q5236.48 8895.9 5263.14 8895.9 Q5289.81 8895.9 5305.18 8881.64 Q5320.55 8867.2 5320.55 8842.38 Q5320.55 8817.38 5305.18 8803.12 Q5290 8788.86 5263.14 8788.86 M5225.74 8772.94 Q5201.66 8767.01 5188.15 8750.53 Q5174.81 8734.05 5174.81 8710.35 Q5174.81 8677.2 5198.33 8657.94 Q5222.03 8638.68 5263.14 8638.68 Q5304.44 8638.68 5327.96 8657.94 Q5351.48 8677.2 5351.48 8710.35 Q5351.48 8734.05 5337.96 8750.53 Q5324.63 8767.01 5300.74 8772.94 Q5327.77 8779.23 5342.77 8797.57 Q5357.96 8815.9 5357.96 8842.38 Q5357.96 8882.57 5333.33 8904.05 Q5308.89 8925.53 5263.14 8925.53 Q5217.4 8925.53 5192.77 8904.05 Q5168.33 8882.57 5168.33 8842.38 Q5168.33 8815.9 5183.52 8797.57 Q5198.7 8779.23 5225.74 8772.94 M5212.03 8713.86 Q5212.03 8735.34 5225.37 8747.38 Q5238.89 8759.42 5263.14 8759.42 Q5287.22 8759.42 5300.74 8747.38 Q5314.44 8735.34 5314.44 8713.86 Q5314.44 8692.38 5300.74 8680.35 Q5287.22 8668.31 5263.14 8668.31 Q5238.89 8668.31 5225.37 8680.35 Q5212.03 8692.38 5212.03 8713.86 Z" fill="#000000" fill-rule="evenodd" fill-opacity="1" /><polyline clip-path="url(#clip7700)" style="stroke:#3da44d; stroke-width:32; stroke-opacity:1; fill:none" points="
  3107.85,9265.76 4259.85,9265.76 
  "/>
<path clip-path="url(#clip7700)" d="M 0 0 M4451.85 9127.52 L4489.26 9127.52 L4489.26 9372.52 L4623.89 9372.52 L4623.89 9404 L4451.85 9404 L4451.85 9127.52 Z" fill="#000000" fill-rule="evenodd" fill-opacity="1" /><path clip-path="url(#clip7700)" d="M 0 0 M4784.63 9231.78 L5022.04 9231.78 L5022.04 9262.89 L4784.63 9262.89 L4784.63 9231.78 M4784.63 9307.33 L5022.04 9307.33 L5022.04 9338.81 L4784.63 9338.81 L4784.63 9307.33 Z" fill="#000000" fill-rule="evenodd" fill-opacity="1" /><path clip-path="url(#clip7700)" d="M 0 0 M5189.63 9372.52 L5250.74 9372.52 L5250.74 9161.59 L5184.26 9174.93 L5184.26 9140.85 L5250.37 9127.52 L5287.77 9127.52 L5287.77 9372.52 L5348.89 9372.52 L5348.89 9404 L5189.63 9404 L5189.63 9372.52 Z" fill="#000000" fill-rule="evenodd" fill-opacity="1" /><path clip-path="url(#clip7700)" d="M 0 0 M5469.44 9152.15 Q5440.55 9152.15 5425.92 9180.67 Q5411.48 9209 5411.48 9266.04 Q5411.48 9322.89 5425.92 9351.41 Q5440.55 9379.74 5469.44 9379.74 Q5498.51 9379.74 5512.96 9351.41 Q5527.59 9322.89 5527.59 9266.04 Q5527.59 9209 5512.96 9180.67 Q5498.51 9152.15 5469.44 9152.15 M5469.44 9122.52 Q5515.92 9122.52 5540.37 9159.37 Q5565 9196.04 5565 9266.04 Q5565 9335.85 5540.37 9372.7 Q5515.92 9409.37 5469.44 9409.37 Q5422.96 9409.37 5398.33 9372.7 Q5373.89 9335.85 5373.89 9266.04 Q5373.89 9196.04 5398.33 9159.37 Q5422.96 9122.52 5469.44 9122.52 Z" fill="#000000" fill-rule="evenodd" fill-opacity="1" /><polyline clip-path="url(#clip7700)" style="stroke:#c271d2; stroke-width:32; stroke-opacity:1; fill:none" points="
  3107.85,9749.6 4259.85,9749.6 
  "/>
<path clip-path="url(#clip7700)" d="M 0 0 M4451.85 9611.36 L4489.26 9611.36 L4489.26 9856.36 L4623.89 9856.36 L4623.89 9887.84 L4451.85 9887.84 L4451.85 9611.36 Z" fill="#000000" fill-rule="evenodd" fill-opacity="1" /><path clip-path="url(#clip7700)" d="M 0 0 M4784.63 9715.62 L5022.04 9715.62 L5022.04 9746.73 L4784.63 9746.73 L4784.63 9715.62 M4784.63 9791.17 L5022.04 9791.17 L5022.04 9822.65 L4784.63 9822.65 L4784.63 9791.17 Z" fill="#000000" fill-rule="evenodd" fill-opacity="1" /><path clip-path="url(#clip7700)" d="M 0 0 M5189.63 9856.36 L5250.74 9856.36 L5250.74 9645.43 L5184.26 9658.77 L5184.26 9624.69 L5250.37 9611.36 L5287.77 9611.36 L5287.77 9856.36 L5348.89 9856.36 L5348.89 9887.84 L5189.63 9887.84 L5189.63 9856.36 Z" fill="#000000" fill-rule="evenodd" fill-opacity="1" /><path clip-path="url(#clip7700)" d="M 0 0 M5421.66 9856.36 L5552.22 9856.36 L5552.22 9887.84 L5376.66 9887.84 L5376.66 9856.36 Q5397.96 9834.32 5434.63 9797.28 Q5471.48 9760.06 5480.92 9749.32 Q5498.88 9729.14 5505.92 9715.25 Q5513.14 9701.17 5513.14 9687.65 Q5513.14 9665.62 5497.59 9651.73 Q5482.22 9637.84 5457.4 9637.84 Q5439.81 9637.84 5420.18 9643.95 Q5400.74 9650.06 5378.51 9662.47 L5378.51 9624.69 Q5401.11 9615.62 5420.74 9610.99 Q5440.37 9606.36 5456.66 9606.36 Q5499.63 9606.36 5525.18 9627.84 Q5550.74 9649.32 5550.74 9685.25 Q5550.74 9702.28 5544.25 9717.65 Q5537.96 9732.84 5521.11 9753.58 Q5516.48 9758.95 5491.66 9784.69 Q5466.85 9810.25 5421.66 9856.36 Z" fill="#000000" fill-rule="evenodd" fill-opacity="1" /></svg>
