<?xml version="1.0" encoding="utf-8"?>
<svg xmlns="http://www.w3.org/2000/svg" xmlns:xlink="http://www.w3.org/1999/xlink" width="4800" height="3200" viewBox="0 0 19200 12800">
<defs>
  <clipPath id="clip2600">
    <rect x="0" y="0" width="19200" height="12800"/>
  </clipPath>
</defs>
<path clip-path="url(#clip2600)" d="
M0 12800 L19200 12800 L19200 0 L0 0  Z
  " fill="#ffffff" fill-rule="evenodd" fill-opacity="1"/>
<defs>
  <clipPath id="clip2601">
    <rect x="3840" y="0" width="13441" height="12800"/>
  </clipPath>
</defs>
<path clip-path="url(#clip2600)" d="
M1805.78 11385.4 L18822 11385.4 L18822 987.777 L1805.78 987.777  Z
  " fill="#ffffff" fill-rule="evenodd" fill-opacity="1"/>
<defs>
  <clipPath id="clip2602">
    <rect x="1805" y="987" width="17017" height="10399"/>
  </clipPath>
</defs>
<polyline clip-path="url(#clip2602)" style="stroke:#000000; stroke-width:16; stroke-opacity:0.1; fill:none" points="
  2287.37,11385.4 2287.37,987.777 
  "/>
<polyline clip-path="url(#clip2602)" style="stroke:#000000; stroke-width:16; stroke-opacity:0.1; fill:none" points="
  5935.8,11385.4 5935.8,987.777 
  "/>
<polyline clip-path="url(#clip2602)" style="stroke:#000000; stroke-width:16; stroke-opacity:0.1; fill:none" points="
  9584.23,11385.4 9584.23,987.777 
  "/>
<polyline clip-path="url(#clip2602)" style="stroke:#000000; stroke-width:16; stroke-opacity:0.1; fill:none" points="
  13232.7,11385.4 13232.7,987.777 
  "/>
<polyline clip-path="url(#clip2602)" style="stroke:#000000; stroke-width:16; stroke-opacity:0.1; fill:none" points="
  16881.1,11385.4 16881.1,987.777 
  "/>
<polyline clip-path="url(#clip2602)" style="stroke:#000000; stroke-width:16; stroke-opacity:0.1; fill:none" points="
  1805.78,11278 18822,11278 
  "/>
<polyline clip-path="url(#clip2602)" style="stroke:#000000; stroke-width:16; stroke-opacity:0.1; fill:none" points="
  1805.78,9699.62 18822,9699.62 
  "/>
<polyline clip-path="url(#clip2602)" style="stroke:#000000; stroke-width:16; stroke-opacity:0.1; fill:none" points="
  1805.78,8121.29 18822,8121.29 
  "/>
<polyline clip-path="url(#clip2602)" style="stroke:#000000; stroke-width:16; stroke-opacity:0.1; fill:none" points="
  1805.78,6542.95 18822,6542.95 
  "/>
<polyline clip-path="url(#clip2602)" style="stroke:#000000; stroke-width:16; stroke-opacity:0.1; fill:none" points="
  1805.78,4964.61 18822,4964.61 
  "/>
<polyline clip-path="url(#clip2602)" style="stroke:#000000; stroke-width:16; stroke-opacity:0.1; fill:none" points="
  1805.78,3386.28 18822,3386.28 
  "/>
<polyline clip-path="url(#clip2602)" style="stroke:#000000; stroke-width:16; stroke-opacity:0.1; fill:none" points="
  1805.78,1807.94 18822,1807.94 
  "/>
<polyline clip-path="url(#clip2600)" style="stroke:#000000; stroke-width:32; stroke-opacity:1; fill:none" points="
  1805.78,11385.4 18822,11385.4 
  "/>
<polyline clip-path="url(#clip2600)" style="stroke:#000000; stroke-width:32; stroke-opacity:1; fill:none" points="
  1805.78,11385.4 1805.78,987.777 
  "/>
<polyline clip-path="url(#clip2600)" style="stroke:#000000; stroke-width:32; stroke-opacity:1; fill:none" points="
  2287.37,11385.4 2287.37,11260.7 
  "/>
<polyline clip-path="url(#clip2600)" style="stroke:#000000; stroke-width:32; stroke-opacity:1; fill:none" points="
  5935.8,11385.4 5935.8,11260.7 
  "/>
<polyline clip-path="url(#clip2600)" style="stroke:#000000; stroke-width:32; stroke-opacity:1; fill:none" points="
  9584.23,11385.4 9584.23,11260.7 
  "/>
<polyline clip-path="url(#clip2600)" style="stroke:#000000; stroke-width:32; stroke-opacity:1; fill:none" points="
  13232.7,11385.4 13232.7,11260.7 
  "/>
<polyline clip-path="url(#clip2600)" style="stroke:#000000; stroke-width:32; stroke-opacity:1; fill:none" points="
  16881.1,11385.4 16881.1,11260.7 
  "/>
<polyline clip-path="url(#clip2600)" style="stroke:#000000; stroke-width:32; stroke-opacity:1; fill:none" points="
  1805.78,11278 2009.98,11278 
  "/>
<polyline clip-path="url(#clip2600)" style="stroke:#000000; stroke-width:32; stroke-opacity:1; fill:none" points="
  1805.78,9699.62 2009.98,9699.62 
  "/>
<polyline clip-path="url(#clip2600)" style="stroke:#000000; stroke-width:32; stroke-opacity:1; fill:none" points="
  1805.78,8121.29 2009.98,8121.29 
  "/>
<polyline clip-path="url(#clip2600)" style="stroke:#000000; stroke-width:32; stroke-opacity:1; fill:none" points="
  1805.78,6542.95 2009.98,6542.95 
  "/>
<polyline clip-path="url(#clip2600)" style="stroke:#000000; stroke-width:32; stroke-opacity:1; fill:none" points="
  1805.78,4964.61 2009.98,4964.61 
  "/>
<polyline clip-path="url(#clip2600)" style="stroke:#000000; stroke-width:32; stroke-opacity:1; fill:none" points="
  1805.78,3386.28 2009.98,3386.28 
  "/>
<polyline clip-path="url(#clip2600)" style="stroke:#000000; stroke-width:32; stroke-opacity:1; fill:none" points="
  1805.78,1807.94 2009.98,1807.94 
  "/>
<path clip-path="url(#clip2600)" d="M 0 0 M2034.78 11561.4 Q2005.89 11561.4 1991.26 11589.9 Q1976.82 11618.2 1976.82 11675.3 Q1976.82 11732.1 1991.26 11760.6 Q2005.89 11789 2034.78 11789 Q2063.86 11789 2078.3 11760.6 Q2092.93 11732.1 2092.93 11675.3 Q2092.93 11618.2 2078.3 11589.9 Q2063.86 11561.4 2034.78 11561.4 M2034.78 11531.7 Q2081.26 11531.7 2105.71 11568.6 Q2130.34 11605.3 2130.34 11675.3 Q2130.34 11745.1 2105.71 11781.9 Q2081.26 11818.6 2034.78 11818.6 Q1988.3 11818.6 1963.67 11781.9 Q1939.23 11745.1 1939.23 11675.3 Q1939.23 11605.3 1963.67 11568.6 Q1988.3 11531.7 2034.78 11531.7 Z" fill="#000000" fill-rule="evenodd" fill-opacity="1" /><path clip-path="url(#clip2600)" d="M 0 0 M2170.89 11766.2 L2209.97 11766.2 L2209.97 11813.2 L2170.89 11813.2 L2170.89 11766.2 Z" fill="#000000" fill-rule="evenodd" fill-opacity="1" /><path clip-path="url(#clip2600)" d="M 0 0 M2250.89 11536.7 L2397.74 11536.7 L2397.74 11568.2 L2285.15 11568.2 L2285.15 11636 Q2293.3 11633.2 2301.45 11631.9 Q2309.6 11630.4 2317.74 11630.4 Q2364.04 11630.4 2391.08 11655.8 Q2418.11 11681.2 2418.11 11724.5 Q2418.11 11769.1 2390.34 11794 Q2362.56 11818.6 2312 11818.6 Q2294.6 11818.6 2276.45 11815.6 Q2258.49 11812.7 2239.23 11806.7 L2239.23 11769.1 Q2255.89 11778.2 2273.67 11782.7 Q2291.45 11787.1 2311.26 11787.1 Q2343.3 11787.1 2362 11770.3 Q2380.71 11753.4 2380.71 11724.5 Q2380.71 11695.6 2362 11678.8 Q2343.3 11661.9 2311.26 11661.9 Q2296.26 11661.9 2281.26 11665.3 Q2266.45 11668.6 2250.89 11675.6 L2250.89 11536.7 Z" fill="#000000" fill-rule="evenodd" fill-opacity="1" /><path clip-path="url(#clip2600)" d="M 0 0 M2543.3 11660.1 Q2518.11 11660.1 2503.3 11677.3 Q2488.67 11694.5 2488.67 11724.5 Q2488.67 11754.3 2503.3 11771.7 Q2518.11 11789 2543.3 11789 Q2568.48 11789 2583.11 11771.7 Q2597.93 11754.3 2597.93 11724.5 Q2597.93 11694.5 2583.11 11677.3 Q2568.48 11660.1 2543.3 11660.1 M2617.56 11542.8 L2617.56 11576.9 Q2603.48 11570.3 2589.04 11566.7 Q2574.78 11563.2 2560.71 11563.2 Q2523.67 11563.2 2504.04 11588.2 Q2484.6 11613.2 2481.82 11663.8 Q2492.74 11647.7 2509.22 11639.1 Q2525.71 11630.4 2545.52 11630.4 Q2587.19 11630.4 2611.26 11655.8 Q2635.52 11681 2635.52 11724.5 Q2635.52 11767.1 2610.34 11792.8 Q2585.15 11818.6 2543.3 11818.6 Q2495.34 11818.6 2469.97 11781.9 Q2444.6 11745.1 2444.6 11675.3 Q2444.6 11609.7 2475.71 11570.8 Q2506.82 11531.7 2559.22 11531.7 Q2573.3 11531.7 2587.56 11534.5 Q2602 11537.3 2617.56 11542.8 Z" fill="#000000" fill-rule="evenodd" fill-opacity="1" /><path clip-path="url(#clip2600)" d="M 0 0 M5684.23 11561.4 Q5655.34 11561.4 5640.71 11589.9 Q5626.27 11618.2 5626.27 11675.3 Q5626.27 11732.1 5640.71 11760.6 Q5655.34 11789 5684.23 11789 Q5713.3 11789 5727.75 11760.6 Q5742.38 11732.1 5742.38 11675.3 Q5742.38 11618.2 5727.75 11589.9 Q5713.3 11561.4 5684.23 11561.4 M5684.23 11531.7 Q5730.71 11531.7 5755.15 11568.6 Q5779.78 11605.3 5779.78 11675.3 Q5779.78 11745.1 5755.15 11781.9 Q5730.71 11818.6 5684.23 11818.6 Q5637.75 11818.6 5613.12 11781.9 Q5588.67 11745.1 5588.67 11675.3 Q5588.67 11605.3 5613.12 11568.6 Q5637.75 11531.7 5684.23 11531.7 Z" fill="#000000" fill-rule="evenodd" fill-opacity="1" /><path clip-path="url(#clip2600)" d="M 0 0 M5820.34 11766.2 L5859.41 11766.2 L5859.41 11813.2 L5820.34 11813.2 L5820.34 11766.2 Z" fill="#000000" fill-rule="evenodd" fill-opacity="1" /><path clip-path="url(#clip2600)" d="M 0 0 M5900.34 11536.7 L6047.19 11536.7 L6047.19 11568.2 L5934.6 11568.2 L5934.6 11636 Q5942.75 11633.2 5950.89 11631.9 Q5959.04 11630.4 5967.19 11630.4 Q6013.49 11630.4 6040.52 11655.8 Q6067.56 11681.2 6067.56 11724.5 Q6067.56 11769.1 6039.78 11794 Q6012 11818.6 5961.45 11818.6 Q5944.04 11818.6 5925.89 11815.6 Q5907.93 11812.7 5888.67 11806.7 L5888.67 11769.1 Q5905.34 11778.2 5923.12 11782.7 Q5940.89 11787.1 5960.71 11787.1 Q5992.75 11787.1 6011.45 11770.3 Q6030.15 11753.4 6030.15 11724.5 Q6030.15 11695.6 6011.45 11678.8 Q5992.75 11661.9 5960.71 11661.9 Q5945.71 11661.9 5930.71 11665.3 Q5915.89 11668.6 5900.34 11675.6 L5900.34 11536.7 Z" fill="#000000" fill-rule="evenodd" fill-opacity="1" /><path clip-path="url(#clip2600)" d="M 0 0 M6188.12 11681.9 Q6161.45 11681.9 6146.08 11696.2 Q6130.89 11710.4 6130.89 11735.4 Q6130.89 11760.4 6146.08 11774.7 Q6161.45 11789 6188.12 11789 Q6214.78 11789 6230.15 11774.7 Q6245.52 11760.3 6245.52 11735.4 Q6245.52 11710.4 6230.15 11696.2 Q6214.97 11681.9 6188.12 11681.9 M6150.71 11666 Q6126.63 11660.1 6113.12 11643.6 Q6099.78 11627.1 6099.78 11603.4 Q6099.78 11570.3 6123.3 11551 Q6147 11531.7 6188.12 11531.7 Q6229.41 11531.7 6252.93 11551 Q6276.45 11570.3 6276.45 11603.4 Q6276.45 11627.1 6262.93 11643.6 Q6249.6 11660.1 6225.71 11666 Q6252.74 11672.3 6267.74 11690.6 Q6282.93 11709 6282.93 11735.4 Q6282.93 11775.6 6258.3 11797.1 Q6233.86 11818.6 6188.12 11818.6 Q6142.37 11818.6 6117.75 11797.1 Q6093.3 11775.6 6093.3 11735.4 Q6093.3 11709 6108.49 11690.6 Q6123.67 11672.3 6150.71 11666 M6137 11606.9 Q6137 11628.4 6150.34 11640.4 Q6163.86 11652.5 6188.12 11652.5 Q6212.19 11652.5 6225.71 11640.4 Q6239.41 11628.4 6239.41 11606.9 Q6239.41 11585.4 6225.71 11573.4 Q6212.19 11561.4 6188.12 11561.4 Q6163.86 11561.4 6150.34 11573.4 Q6137 11585.4 6137 11606.9 Z" fill="#000000" fill-rule="evenodd" fill-opacity="1" /><path clip-path="url(#clip2600)" d="M 0 0 M9327.66 11561.4 Q9298.77 11561.4 9284.14 11589.9 Q9269.69 11618.2 9269.69 11675.3 Q9269.69 11732.1 9284.14 11760.6 Q9298.77 11789 9327.66 11789 Q9356.73 11789 9371.17 11760.6 Q9385.8 11732.1 9385.8 11675.3 Q9385.8 11618.2 9371.17 11589.9 Q9356.73 11561.4 9327.66 11561.4 M9327.66 11531.7 Q9374.14 11531.7 9398.58 11568.6 Q9423.21 11605.3 9423.21 11675.3 Q9423.21 11745.1 9398.58 11781.9 Q9374.14 11818.6 9327.66 11818.6 Q9281.18 11818.6 9256.55 11781.9 Q9232.1 11745.1 9232.1 11675.3 Q9232.1 11605.3 9256.55 11568.6 Q9281.18 11531.7 9327.66 11531.7 Z" fill="#000000" fill-rule="evenodd" fill-opacity="1" /><path clip-path="url(#clip2600)" d="M 0 0 M9463.77 11766.2 L9502.84 11766.2 L9502.84 11813.2 L9463.77 11813.2 L9463.77 11766.2 Z" fill="#000000" fill-rule="evenodd" fill-opacity="1" /><path clip-path="url(#clip2600)" d="M 0 0 M9628.03 11660.1 Q9602.84 11660.1 9588.03 11677.3 Q9573.4 11694.5 9573.4 11724.5 Q9573.4 11754.3 9588.03 11771.7 Q9602.84 11789 9628.03 11789 Q9653.21 11789 9667.84 11771.7 Q9682.65 11754.3 9682.65 11724.5 Q9682.65 11694.5 9667.84 11677.3 Q9653.21 11660.1 9628.03 11660.1 M9702.28 11542.8 L9702.28 11576.9 Q9688.21 11570.3 9673.77 11566.7 Q9659.51 11563.2 9645.43 11563.2 Q9608.4 11563.2 9588.77 11588.2 Q9569.32 11613.2 9566.54 11663.8 Q9577.47 11647.7 9593.95 11639.1 Q9610.43 11630.4 9630.25 11630.4 Q9671.91 11630.4 9695.99 11655.8 Q9720.25 11681 9720.25 11724.5 Q9720.25 11767.1 9695.06 11792.8 Q9669.88 11818.6 9628.03 11818.6 Q9580.06 11818.6 9554.69 11781.9 Q9529.32 11745.1 9529.32 11675.3 Q9529.32 11609.7 9560.43 11570.8 Q9591.54 11531.7 9643.95 11531.7 Q9658.02 11531.7 9672.28 11534.5 Q9686.73 11537.3 9702.28 11542.8 Z" fill="#000000" fill-rule="evenodd" fill-opacity="1" /><path clip-path="url(#clip2600)" d="M 0 0 M9840.8 11561.4 Q9811.91 11561.4 9797.28 11589.9 Q9782.84 11618.2 9782.84 11675.3 Q9782.84 11732.1 9797.28 11760.6 Q9811.91 11789 9840.8 11789 Q9869.88 11789 9884.32 11760.6 Q9898.95 11732.1 9898.95 11675.3 Q9898.95 11618.2 9884.32 11589.9 Q9869.88 11561.4 9840.8 11561.4 M9840.8 11531.7 Q9887.28 11531.7 9911.73 11568.6 Q9936.36 11605.3 9936.36 11675.3 Q9936.36 11745.1 9911.73 11781.9 Q9887.28 11818.6 9840.8 11818.6 Q9794.32 11818.6 9769.69 11781.9 Q9745.25 11745.1 9745.25 11675.3 Q9745.25 11605.3 9769.69 11568.6 Q9794.32 11531.7 9840.8 11531.7 Z" fill="#000000" fill-rule="evenodd" fill-opacity="1" /><path clip-path="url(#clip2600)" d="M 0 0 M12982.5 11561.4 Q12953.6 11561.4 12939 11589.9 Q12924.5 11618.2 12924.5 11675.3 Q12924.5 11732.1 12939 11760.6 Q12953.6 11789 12982.5 11789 Q13011.5 11789 13026 11760.6 Q13040.6 11732.1 13040.6 11675.3 Q13040.6 11618.2 13026 11589.9 Q13011.5 11561.4 12982.5 11561.4 M12982.5 11531.7 Q13029 11531.7 13053.4 11568.6 Q13078 11605.3 13078 11675.3 Q13078 11745.1 13053.4 11781.9 Q13029 11818.6 12982.5 11818.6 Q12936 11818.6 12911.4 11781.9 Q12886.9 11745.1 12886.9 11675.3 Q12886.9 11605.3 12911.4 11568.6 Q12936 11531.7 12982.5 11531.7 Z" fill="#000000" fill-rule="evenodd" fill-opacity="1" /><path clip-path="url(#clip2600)" d="M 0 0 M13118.6 11766.2 L13157.7 11766.2 L13157.7 11813.2 L13118.6 11813.2 L13118.6 11766.2 Z" fill="#000000" fill-rule="evenodd" fill-opacity="1" /><path clip-path="url(#clip2600)" d="M 0 0 M13282.8 11660.1 Q13257.7 11660.1 13242.8 11677.3 Q13228.2 11694.5 13228.2 11724.5 Q13228.2 11754.3 13242.8 11771.7 Q13257.7 11789 13282.8 11789 Q13308 11789 13322.7 11771.7 Q13337.5 11754.3 13337.5 11724.5 Q13337.5 11694.5 13322.7 11677.3 Q13308 11660.1 13282.8 11660.1 M13357.1 11542.8 L13357.1 11576.9 Q13343 11570.3 13328.6 11566.7 Q13314.3 11563.2 13300.2 11563.2 Q13263.2 11563.2 13243.6 11588.2 Q13224.1 11613.2 13221.4 11663.8 Q13232.3 11647.7 13248.8 11639.1 Q13265.2 11630.4 13285.1 11630.4 Q13326.7 11630.4 13350.8 11655.8 Q13375.1 11681 13375.1 11724.5 Q13375.1 11767.1 13349.9 11792.8 Q13324.7 11818.6 13282.8 11818.6 Q13234.9 11818.6 13209.5 11781.9 Q13184.1 11745.1 13184.1 11675.3 Q13184.1 11609.7 13215.2 11570.8 Q13246.4 11531.7 13298.8 11531.7 Q13312.8 11531.7 13327.1 11534.5 Q13341.5 11537.3 13357.1 11542.8 Z" fill="#000000" fill-rule="evenodd" fill-opacity="1" /><path clip-path="url(#clip2600)" d="M 0 0 M13447.8 11781.7 L13578.4 11781.7 L13578.4 11813.2 L13402.8 11813.2 L13402.8 11781.7 Q13424.1 11759.7 13460.8 11722.7 Q13497.7 11685.4 13507.1 11674.7 Q13525.1 11654.5 13532.1 11640.6 Q13539.3 11626.5 13539.3 11613 Q13539.3 11591 13523.8 11577.1 Q13508.4 11563.2 13483.6 11563.2 Q13466 11563.2 13446.4 11569.3 Q13426.9 11575.4 13404.7 11587.8 L13404.7 11550.1 Q13427.3 11541 13446.9 11536.4 Q13466.5 11531.7 13482.8 11531.7 Q13525.8 11531.7 13551.4 11553.2 Q13576.9 11574.7 13576.9 11610.6 Q13576.9 11627.7 13570.4 11643 Q13564.1 11658.2 13547.3 11679 Q13542.7 11684.3 13517.8 11710.1 Q13493 11735.6 13447.8 11781.7 Z" fill="#000000" fill-rule="evenodd" fill-opacity="1" /><path clip-path="url(#clip2600)" d="M 0 0 M16622.6 11561.4 Q16593.7 11561.4 16579 11589.9 Q16564.6 11618.2 16564.6 11675.3 Q16564.6 11732.1 16579 11760.6 Q16593.7 11789 16622.6 11789 Q16651.6 11789 16666.1 11760.6 Q16680.7 11732.1 16680.7 11675.3 Q16680.7 11618.2 16666.1 11589.9 Q16651.6 11561.4 16622.6 11561.4 M16622.6 11531.7 Q16669 11531.7 16693.5 11568.6 Q16718.1 11605.3 16718.1 11675.3 Q16718.1 11745.1 16693.5 11781.9 Q16669 11818.6 16622.6 11818.6 Q16576.1 11818.6 16551.5 11781.9 Q16527 11745.1 16527 11675.3 Q16527 11605.3 16551.5 11568.6 Q16576.1 11531.7 16622.6 11531.7 Z" fill="#000000" fill-rule="evenodd" fill-opacity="1" /><path clip-path="url(#clip2600)" d="M 0 0 M16758.7 11766.2 L16797.8 11766.2 L16797.8 11813.2 L16758.7 11813.2 L16758.7 11766.2 Z" fill="#000000" fill-rule="evenodd" fill-opacity="1" /><path clip-path="url(#clip2600)" d="M 0 0 M16922.9 11660.1 Q16897.8 11660.1 16882.9 11677.3 Q16868.3 11694.5 16868.3 11724.5 Q16868.3 11754.3 16882.9 11771.7 Q16897.8 11789 16922.9 11789 Q16948.1 11789 16962.8 11771.7 Q16977.6 11754.3 16977.6 11724.5 Q16977.6 11694.5 16962.8 11677.3 Q16948.1 11660.1 16922.9 11660.1 M16997.2 11542.8 L16997.2 11576.9 Q16983.1 11570.3 16968.7 11566.7 Q16954.4 11563.2 16940.3 11563.2 Q16903.3 11563.2 16883.7 11588.2 Q16864.2 11613.2 16861.5 11663.8 Q16872.4 11647.7 16888.9 11639.1 Q16905.3 11630.4 16925.2 11630.4 Q16966.8 11630.4 16990.9 11655.8 Q17015.2 11681 17015.2 11724.5 Q17015.2 11767.1 16990 11792.8 Q16964.8 11818.6 16922.9 11818.6 Q16875 11818.6 16849.6 11781.9 Q16824.2 11745.1 16824.2 11675.3 Q16824.2 11609.7 16855.3 11570.8 Q16886.5 11531.7 16938.9 11531.7 Q16952.9 11531.7 16967.2 11534.5 Q16981.6 11537.3 16997.2 11542.8 Z" fill="#000000" fill-rule="evenodd" fill-opacity="1" /><path clip-path="url(#clip2600)" d="M 0 0 M17158.5 11569.3 L17064 11716.9 L17158.5 11716.9 L17158.5 11569.3 M17148.7 11536.7 L17195.7 11536.7 L17195.7 11716.9 L17235.2 11716.9 L17235.2 11748 L17195.7 11748 L17195.7 11813.2 L17158.5 11813.2 L17158.5 11748 L17033.7 11748 L17033.7 11711.9 L17148.7 11536.7 Z" fill="#000000" fill-rule="evenodd" fill-opacity="1" /><path clip-path="url(#clip2600)" d="M 0 0 M1022.86 11297.1 L1122.67 11297.1 L1122.67 11327.5 L1022.86 11327.5 L1022.86 11297.1 Z" fill="#000000" fill-rule="evenodd" fill-opacity="1" /><path clip-path="url(#clip2600)" d="M 0 0 M1195.45 11384.7 L1326.01 11384.7 L1326.01 11416.2 L1150.45 11416.2 L1150.45 11384.7 Q1171.75 11362.7 1208.41 11325.6 Q1245.27 11288.4 1254.71 11277.7 Q1272.67 11257.5 1279.71 11243.6 Q1286.93 11229.5 1286.93 11216 Q1286.93 11194 1271.38 11180.1 Q1256.01 11166.2 1231.19 11166.2 Q1213.6 11166.2 1193.97 11172.3 Q1174.52 11178.4 1152.3 11190.8 L1152.3 11153.1 Q1174.9 11144 1194.52 11139.3 Q1214.15 11134.7 1230.45 11134.7 Q1273.41 11134.7 1298.97 11156.2 Q1324.52 11177.7 1324.52 11213.6 Q1324.52 11230.6 1318.04 11246 Q1311.75 11261.2 1294.89 11281.9 Q1290.26 11287.3 1265.45 11313.1 Q1240.64 11338.6 1195.45 11384.7 Z" fill="#000000" fill-rule="evenodd" fill-opacity="1" /><path clip-path="url(#clip2600)" d="M 0 0 M1366.56 11369.2 L1405.63 11369.2 L1405.63 11416.2 L1366.56 11416.2 L1366.56 11369.2 Z" fill="#000000" fill-rule="evenodd" fill-opacity="1" /><path clip-path="url(#clip2600)" d="M 0 0 M1446.56 11139.7 L1593.41 11139.7 L1593.41 11171.2 L1480.82 11171.2 L1480.82 11239 Q1488.97 11236.2 1497.12 11234.9 Q1505.26 11233.4 1513.41 11233.4 Q1559.71 11233.4 1586.74 11258.8 Q1613.78 11284.2 1613.78 11327.5 Q1613.78 11372.1 1586 11396.9 Q1558.23 11421.6 1507.67 11421.6 Q1490.26 11421.6 1472.12 11418.6 Q1454.15 11415.6 1434.89 11409.7 L1434.89 11372.1 Q1451.56 11381.2 1469.34 11385.6 Q1487.12 11390.1 1506.93 11390.1 Q1538.97 11390.1 1557.67 11373.2 Q1576.37 11356.4 1576.37 11327.5 Q1576.37 11298.6 1557.67 11281.8 Q1538.97 11264.9 1506.93 11264.9 Q1491.93 11264.9 1476.93 11268.2 Q1462.12 11271.6 1446.56 11278.6 L1446.56 11139.7 Z" fill="#000000" fill-rule="evenodd" fill-opacity="1" /><path clip-path="url(#clip2600)" d="M 0 0 M1014.9 9718.79 L1114.71 9718.79 L1114.71 9749.16 L1014.9 9749.16 L1014.9 9718.79 Z" fill="#000000" fill-rule="evenodd" fill-opacity="1" /><path clip-path="url(#clip2600)" d="M 0 0 M1187.49 9806.38 L1318.04 9806.38 L1318.04 9837.86 L1142.49 9837.86 L1142.49 9806.38 Q1163.78 9784.34 1200.45 9747.31 Q1237.3 9710.08 1246.75 9699.34 Q1264.71 9679.16 1271.75 9665.27 Q1278.97 9651.2 1278.97 9637.68 Q1278.97 9615.64 1263.41 9601.75 Q1248.04 9587.86 1223.23 9587.86 Q1205.64 9587.86 1186.01 9593.97 Q1166.56 9600.09 1144.34 9612.49 L1144.34 9574.72 Q1166.93 9565.64 1186.56 9561.01 Q1206.19 9556.38 1222.49 9556.38 Q1265.45 9556.38 1291.01 9577.86 Q1316.56 9599.34 1316.56 9635.27 Q1316.56 9652.31 1310.08 9667.68 Q1303.78 9682.86 1286.93 9703.6 Q1282.3 9708.97 1257.49 9734.71 Q1232.67 9760.27 1187.49 9806.38 Z" fill="#000000" fill-rule="evenodd" fill-opacity="1" /><path clip-path="url(#clip2600)" d="M 0 0 M1358.6 9790.83 L1397.67 9790.83 L1397.67 9837.86 L1358.6 9837.86 L1358.6 9790.83 Z" fill="#000000" fill-rule="evenodd" fill-opacity="1" /><path clip-path="url(#clip2600)" d="M 0 0 M1518.23 9586.01 Q1489.34 9586.01 1474.71 9614.53 Q1460.26 9642.86 1460.26 9699.9 Q1460.26 9756.75 1474.71 9785.27 Q1489.34 9813.6 1518.23 9813.6 Q1547.3 9813.6 1561.74 9785.27 Q1576.37 9756.75 1576.37 9699.9 Q1576.37 9642.86 1561.74 9614.53 Q1547.3 9586.01 1518.23 9586.01 M1518.23 9556.38 Q1564.71 9556.38 1589.15 9593.23 Q1613.78 9629.9 1613.78 9699.9 Q1613.78 9769.71 1589.15 9806.57 Q1564.71 9843.23 1518.23 9843.23 Q1471.75 9843.23 1447.12 9806.57 Q1422.67 9769.71 1422.67 9699.9 Q1422.67 9629.9 1447.12 9593.23 Q1471.75 9556.38 1518.23 9556.38 Z" fill="#000000" fill-rule="evenodd" fill-opacity="1" /><path clip-path="url(#clip2600)" d="M 0 0 M1019.9 8140.45 L1119.71 8140.45 L1119.71 8170.82 L1019.9 8170.82 L1019.9 8140.45 Z" fill="#000000" fill-rule="evenodd" fill-opacity="1" /><path clip-path="url(#clip2600)" d="M 0 0 M1166.75 8228.04 L1227.86 8228.04 L1227.86 8017.12 L1161.38 8030.45 L1161.38 7996.38 L1227.49 7983.05 L1264.89 7983.05 L1264.89 8228.04 L1326.01 8228.04 L1326.01 8259.53 L1166.75 8259.53 L1166.75 8228.04 Z" fill="#000000" fill-rule="evenodd" fill-opacity="1" /><path clip-path="url(#clip2600)" d="M 0 0 M1366.56 8212.49 L1405.63 8212.49 L1405.63 8259.53 L1366.56 8259.53 L1366.56 8212.49 Z" fill="#000000" fill-rule="evenodd" fill-opacity="1" /><path clip-path="url(#clip2600)" d="M 0 0 M1446.56 7983.05 L1593.41 7983.05 L1593.41 8014.53 L1480.82 8014.53 L1480.82 8082.3 Q1488.97 8079.53 1497.12 8078.23 Q1505.26 8076.75 1513.41 8076.75 Q1559.71 8076.75 1586.74 8102.12 Q1613.78 8127.49 1613.78 8170.82 Q1613.78 8215.45 1586 8240.27 Q1558.23 8264.9 1507.67 8264.9 Q1490.26 8264.9 1472.12 8261.93 Q1454.15 8258.97 1434.89 8253.04 L1434.89 8215.45 Q1451.56 8224.53 1469.34 8228.97 Q1487.12 8233.41 1506.93 8233.41 Q1538.97 8233.41 1557.67 8216.56 Q1576.37 8199.71 1576.37 8170.82 Q1576.37 8141.93 1557.67 8125.08 Q1538.97 8108.23 1506.93 8108.23 Q1491.93 8108.23 1476.93 8111.56 Q1462.12 8114.9 1446.56 8121.93 L1446.56 7983.05 Z" fill="#000000" fill-rule="evenodd" fill-opacity="1" /><path clip-path="url(#clip2600)" d="M 0 0 M1011.93 6562.12 L1111.75 6562.12 L1111.75 6592.49 L1011.93 6592.49 L1011.93 6562.12 Z" fill="#000000" fill-rule="evenodd" fill-opacity="1" /><path clip-path="url(#clip2600)" d="M 0 0 M1158.78 6649.71 L1219.89 6649.71 L1219.89 6438.78 L1153.41 6452.12 L1153.41 6418.04 L1219.52 6404.71 L1256.93 6404.71 L1256.93 6649.71 L1318.04 6649.71 L1318.04 6681.19 L1158.78 6681.19 L1158.78 6649.71 Z" fill="#000000" fill-rule="evenodd" fill-opacity="1" /><path clip-path="url(#clip2600)" d="M 0 0 M1358.6 6634.15 L1397.67 6634.15 L1397.67 6681.19 L1358.6 6681.19 L1358.6 6634.15 Z" fill="#000000" fill-rule="evenodd" fill-opacity="1" /><path clip-path="url(#clip2600)" d="M 0 0 M1518.23 6429.34 Q1489.34 6429.34 1474.71 6457.86 Q1460.26 6486.19 1460.26 6543.23 Q1460.26 6600.08 1474.71 6628.6 Q1489.34 6656.93 1518.23 6656.93 Q1547.3 6656.93 1561.74 6628.6 Q1576.37 6600.08 1576.37 6543.23 Q1576.37 6486.19 1561.74 6457.86 Q1547.3 6429.34 1518.23 6429.34 M1518.23 6399.71 Q1564.71 6399.71 1589.15 6436.56 Q1613.78 6473.23 1613.78 6543.23 Q1613.78 6613.04 1589.15 6649.89 Q1564.71 6686.56 1518.23 6686.56 Q1471.75 6686.56 1447.12 6649.89 Q1422.67 6613.04 1422.67 6543.23 Q1422.67 6473.23 1447.12 6436.56 Q1471.75 6399.71 1518.23 6399.71 Z" fill="#000000" fill-rule="evenodd" fill-opacity="1" /><path clip-path="url(#clip2600)" d="M 0 0 M1010.08 4983.78 L1109.9 4983.78 L1109.9 5014.15 L1010.08 5014.15 L1010.08 4983.78 Z" fill="#000000" fill-rule="evenodd" fill-opacity="1" /><path clip-path="url(#clip2600)" d="M 0 0 M1230.45 4851 Q1201.56 4851 1186.93 4879.52 Q1172.49 4907.85 1172.49 4964.89 Q1172.49 5021.74 1186.93 5050.26 Q1201.56 5078.59 1230.45 5078.59 Q1259.52 5078.59 1273.97 5050.26 Q1288.6 5021.74 1288.6 4964.89 Q1288.6 4907.85 1273.97 4879.52 Q1259.52 4851 1230.45 4851 M1230.45 4821.37 Q1276.93 4821.37 1301.38 4858.22 Q1326.01 4894.89 1326.01 4964.89 Q1326.01 5034.71 1301.38 5071.56 Q1276.93 5108.22 1230.45 5108.22 Q1183.97 5108.22 1159.34 5071.56 Q1134.9 5034.71 1134.9 4964.89 Q1134.9 4894.89 1159.34 4858.22 Q1183.97 4821.37 1230.45 4821.37 Z" fill="#000000" fill-rule="evenodd" fill-opacity="1" /><path clip-path="url(#clip2600)" d="M 0 0 M1366.56 5055.82 L1405.63 5055.82 L1405.63 5102.85 L1366.56 5102.85 L1366.56 5055.82 Z" fill="#000000" fill-rule="evenodd" fill-opacity="1" /><path clip-path="url(#clip2600)" d="M 0 0 M1446.56 4826.37 L1593.41 4826.37 L1593.41 4857.85 L1480.82 4857.85 L1480.82 4925.63 Q1488.97 4922.85 1497.12 4921.56 Q1505.26 4920.08 1513.41 4920.08 Q1559.71 4920.08 1586.74 4945.45 Q1613.78 4970.82 1613.78 5014.15 Q1613.78 5058.78 1586 5083.59 Q1558.23 5108.22 1507.67 5108.22 Q1490.26 5108.22 1472.12 5105.26 Q1454.15 5102.3 1434.89 5096.37 L1434.89 5058.78 Q1451.56 5067.85 1469.34 5072.3 Q1487.12 5076.74 1506.93 5076.74 Q1538.97 5076.74 1557.67 5059.89 Q1576.37 5043.04 1576.37 5014.15 Q1576.37 4985.26 1557.67 4968.41 Q1538.97 4951.56 1506.93 4951.56 Q1491.93 4951.56 1476.93 4954.89 Q1462.12 4958.22 1446.56 4965.26 L1446.56 4826.37 Z" fill="#000000" fill-rule="evenodd" fill-opacity="1" /><path clip-path="url(#clip2600)" d="M 0 0 M1222.49 3272.67 Q1193.6 3272.67 1178.97 3301.18 Q1164.52 3329.52 1164.52 3386.55 Q1164.52 3443.41 1178.97 3471.92 Q1193.6 3500.26 1222.49 3500.26 Q1251.56 3500.26 1266.01 3471.92 Q1280.64 3443.41 1280.64 3386.55 Q1280.64 3329.52 1266.01 3301.18 Q1251.56 3272.67 1222.49 3272.67 M1222.49 3243.04 Q1268.97 3243.04 1293.41 3279.89 Q1318.04 3316.55 1318.04 3386.55 Q1318.04 3456.37 1293.41 3493.22 Q1268.97 3529.89 1222.49 3529.89 Q1176.01 3529.89 1151.38 3493.22 Q1126.93 3456.37 1126.93 3386.55 Q1126.93 3316.55 1151.38 3279.89 Q1176.01 3243.04 1222.49 3243.04 Z" fill="#000000" fill-rule="evenodd" fill-opacity="1" /><path clip-path="url(#clip2600)" d="M 0 0 M1358.6 3477.48 L1397.67 3477.48 L1397.67 3524.52 L1358.6 3524.52 L1358.6 3477.48 Z" fill="#000000" fill-rule="evenodd" fill-opacity="1" /><path clip-path="url(#clip2600)" d="M 0 0 M1518.23 3272.67 Q1489.34 3272.67 1474.71 3301.18 Q1460.26 3329.52 1460.26 3386.55 Q1460.26 3443.41 1474.71 3471.92 Q1489.34 3500.26 1518.23 3500.26 Q1547.3 3500.26 1561.74 3471.92 Q1576.37 3443.41 1576.37 3386.55 Q1576.37 3329.52 1561.74 3301.18 Q1547.3 3272.67 1518.23 3272.67 M1518.23 3243.04 Q1564.71 3243.04 1589.15 3279.89 Q1613.78 3316.55 1613.78 3386.55 Q1613.78 3456.37 1589.15 3493.22 Q1564.71 3529.89 1518.23 3529.89 Q1471.75 3529.89 1447.12 3493.22 Q1422.67 3456.37 1422.67 3386.55 Q1422.67 3316.55 1447.12 3279.89 Q1471.75 3243.04 1518.23 3243.04 Z" fill="#000000" fill-rule="evenodd" fill-opacity="1" /><path clip-path="url(#clip2600)" d="M 0 0 M1230.45 1694.33 Q1201.56 1694.33 1186.93 1722.85 Q1172.49 1751.18 1172.49 1808.22 Q1172.49 1865.07 1186.93 1893.59 Q1201.56 1921.92 1230.45 1921.92 Q1259.52 1921.92 1273.97 1893.59 Q1288.6 1865.07 1288.6 1808.22 Q1288.6 1751.18 1273.97 1722.85 Q1259.52 1694.33 1230.45 1694.33 M1230.45 1664.7 Q1276.93 1664.7 1301.38 1701.55 Q1326.01 1738.22 1326.01 1808.22 Q1326.01 1878.03 1301.38 1914.88 Q1276.93 1951.55 1230.45 1951.55 Q1183.97 1951.55 1159.34 1914.88 Q1134.9 1878.03 1134.9 1808.22 Q1134.9 1738.22 1159.34 1701.55 Q1183.97 1664.7 1230.45 1664.7 Z" fill="#000000" fill-rule="evenodd" fill-opacity="1" /><path clip-path="url(#clip2600)" d="M 0 0 M1366.56 1899.14 L1405.63 1899.14 L1405.63 1946.18 L1366.56 1946.18 L1366.56 1899.14 Z" fill="#000000" fill-rule="evenodd" fill-opacity="1" /><path clip-path="url(#clip2600)" d="M 0 0 M1446.56 1669.7 L1593.41 1669.7 L1593.41 1701.18 L1480.82 1701.18 L1480.82 1768.96 Q1488.97 1766.18 1497.12 1764.89 Q1505.26 1763.4 1513.41 1763.4 Q1559.71 1763.4 1586.74 1788.77 Q1613.78 1814.14 1613.78 1857.48 Q1613.78 1902.11 1586 1926.92 Q1558.23 1951.55 1507.67 1951.55 Q1490.26 1951.55 1472.12 1948.59 Q1454.15 1945.62 1434.89 1939.7 L1434.89 1902.11 Q1451.56 1911.18 1469.34 1915.63 Q1487.12 1920.07 1506.93 1920.07 Q1538.97 1920.07 1557.67 1903.22 Q1576.37 1886.37 1576.37 1857.48 Q1576.37 1828.59 1557.67 1811.74 Q1538.97 1794.89 1506.93 1794.89 Q1491.93 1794.89 1476.93 1798.22 Q1462.12 1801.55 1446.56 1808.59 L1446.56 1669.7 Z" fill="#000000" fill-rule="evenodd" fill-opacity="1" /><path clip-path="url(#clip2600)" d="M 0 0 M4987.14 228.341 L4987.14 284.73 Q4961.86 271.767 4934.64 265.286 Q4907.42 258.804 4878.25 258.804 Q4833.85 258.804 4811.49 272.415 Q4789.45 286.026 4789.45 313.248 Q4789.45 333.989 4805.33 345.98 Q4821.21 357.646 4869.18 368.341 L4889.59 372.878 Q4953.11 386.489 4979.68 411.442 Q5006.58 436.072 5006.58 480.47 Q5006.58 531.025 4966.4 560.516 Q4926.54 590.006 4856.54 590.006 Q4827.37 590.006 4795.61 584.173 Q4764.18 578.664 4729.18 567.321 L4729.18 505.747 Q4762.23 522.923 4794.31 531.673 Q4826.4 540.099 4857.83 540.099 Q4899.96 540.099 4922.65 525.84 Q4945.33 511.257 4945.33 485.007 Q4945.33 460.701 4928.8 447.738 Q4912.6 434.775 4857.18 422.785 L4836.44 417.924 Q4781.03 406.257 4756.4 382.276 Q4731.77 357.97 4731.77 315.841 Q4731.77 264.637 4768.06 236.767 Q4804.36 208.897 4871.12 208.897 Q4904.17 208.897 4933.34 213.758 Q4962.51 218.619 4987.14 228.341 Z" fill="#000000" fill-rule="evenodd" fill-opacity="1" /><path clip-path="url(#clip2600)" d="M 0 0 M5069.13 217.647 L5128.76 217.647 L5128.76 580.608 L5069.13 580.608 L5069.13 217.647 M5069.13 76.3514 L5128.76 76.3514 L5128.76 151.86 L5069.13 151.86 L5069.13 76.3514 Z" fill="#000000" fill-rule="evenodd" fill-opacity="1" /><path clip-path="url(#clip2600)" d="M 0 0 M5165.38 217.647 L5448.62 217.647 L5448.62 272.091 L5224.36 532.969 L5448.62 532.969 L5448.62 580.608 L5157.28 580.608 L5157.28 526.164 L5381.53 265.286 L5165.38 265.286 L5165.38 217.647 Z" fill="#000000" fill-rule="evenodd" fill-opacity="1" /><path clip-path="url(#clip2600)" d="M 0 0 M5821.62 384.22 L5821.62 413.387 L5547.46 413.387 Q5551.35 474.96 5584.4 507.368 Q5617.78 539.451 5677.09 539.451 Q5711.44 539.451 5743.52 531.025 Q5775.93 522.599 5807.69 505.747 L5807.69 562.136 Q5775.61 575.747 5741.9 582.877 Q5708.2 590.006 5673.52 590.006 Q5586.67 590.006 5535.79 539.451 Q5485.24 488.896 5485.24 402.692 Q5485.24 313.572 5533.2 261.397 Q5581.49 208.897 5663.15 208.897 Q5736.39 208.897 5778.85 256.212 Q5821.62 303.202 5821.62 384.22 M5761.99 366.72 Q5761.35 317.785 5734.45 288.619 Q5707.87 259.452 5663.8 259.452 Q5613.89 259.452 5583.75 287.647 Q5553.94 315.841 5549.4 367.044 L5761.99 366.72 Z" fill="#000000" fill-rule="evenodd" fill-opacity="1" /><path clip-path="url(#clip2600)" d="M 0 0 M5899.4 498.294 L5967.78 498.294 L5967.78 580.608 L5899.4 580.608 L5899.4 498.294 M5899.4 237.415 L5967.78 237.415 L5967.78 319.73 L5899.4 319.73 L5899.4 237.415 Z" fill="#000000" fill-rule="evenodd" fill-opacity="1" /><path clip-path="url(#clip2600)" d="M 0 0 M6186.85 312.6 Q6142.78 312.6 6116.85 342.739 Q6091.25 372.878 6091.25 425.377 Q6091.25 477.553 6116.85 508.016 Q6142.78 538.155 6186.85 538.155 Q6230.93 538.155 6256.53 508.016 Q6282.45 477.553 6282.45 425.377 Q6282.45 372.878 6256.53 342.739 Q6230.93 312.6 6186.85 312.6 M6316.81 107.462 L6316.81 167.092 Q6292.18 155.425 6266.9 149.268 Q6241.95 143.11 6217.32 143.11 Q6152.5 143.11 6118.15 186.86 Q6084.12 230.61 6079.26 319.082 Q6098.38 290.887 6127.22 275.98 Q6156.07 260.749 6190.74 260.749 Q6263.66 260.749 6305.79 305.147 Q6348.24 349.22 6348.24 425.377 Q6348.24 499.914 6304.17 544.96 Q6260.09 590.006 6186.85 590.006 Q6102.92 590.006 6058.52 525.84 Q6014.12 461.349 6014.12 339.174 Q6014.12 224.453 6068.57 156.397 Q6123.01 88.018 6214.72 88.018 Q6239.35 88.018 6264.31 92.8791 Q6289.58 97.7402 6316.81 107.462 Z" fill="#000000" fill-rule="evenodd" fill-opacity="1" /><path clip-path="url(#clip2600)" d="M 0 0 M6426.02 498.294 L6494.4 498.294 L6494.4 554.034 L6441.25 657.737 L6399.44 657.737 L6426.02 554.034 L6426.02 498.294 Z" fill="#000000" fill-rule="evenodd" fill-opacity="1" /><path clip-path="url(#clip2600)" d="M 0 0 M6705.37 350.841 Q6658.7 350.841 6631.8 375.794 Q6605.23 400.748 6605.23 444.498 Q6605.23 488.247 6631.8 513.201 Q6658.7 538.155 6705.37 538.155 Q6752.04 538.155 6778.93 513.201 Q6805.83 487.923 6805.83 444.498 Q6805.83 400.748 6778.93 375.794 Q6752.36 350.841 6705.37 350.841 M6639.91 322.97 Q6597.78 312.6 6574.12 283.758 Q6550.79 254.915 6550.79 213.434 Q6550.79 155.425 6591.94 121.722 Q6633.42 88.018 6705.37 88.018 Q6777.64 88.018 6818.79 121.722 Q6859.95 155.425 6859.95 213.434 Q6859.95 254.915 6836.29 283.758 Q6812.96 312.6 6771.16 322.97 Q6818.47 333.989 6844.72 366.072 Q6871.29 398.155 6871.29 444.498 Q6871.29 514.821 6828.19 552.414 Q6785.41 590.006 6705.37 590.006 Q6625.32 590.006 6582.22 552.414 Q6539.44 514.821 6539.44 444.498 Q6539.44 398.155 6566.02 366.072 Q6592.59 333.989 6639.91 322.97 M6615.93 219.591 Q6615.93 257.184 6639.26 278.249 Q6662.92 299.313 6705.37 299.313 Q6747.5 299.313 6771.16 278.249 Q6795.14 257.184 6795.14 219.591 Q6795.14 181.999 6771.16 160.934 Q6747.5 139.87 6705.37 139.87 Q6662.92 139.87 6639.26 160.934 Q6615.93 181.999 6615.93 219.591 Z" fill="#000000" fill-rule="evenodd" fill-opacity="1" /><path clip-path="url(#clip2600)" d="M 0 0 M6949.07 498.294 L7017.45 498.294 L7017.45 554.034 L6964.3 657.737 L6922.5 657.737 L6949.07 554.034 L6949.07 498.294 Z" fill="#000000" fill-rule="evenodd" fill-opacity="1" /><path clip-path="url(#clip2600)" d="M 0 0 M7099.77 525.516 L7206.71 525.516 L7206.71 156.397 L7090.37 179.731 L7090.37 120.101 L7206.06 96.768 L7271.52 96.768 L7271.52 525.516 L7378.47 525.516 L7378.47 580.608 L7099.77 580.608 L7099.77 525.516 Z" fill="#000000" fill-rule="evenodd" fill-opacity="1" /><path clip-path="url(#clip2600)" d="M 0 0 M7589.44 139.87 Q7538.88 139.87 7513.28 189.777 Q7488 239.36 7488 339.174 Q7488 438.664 7513.28 488.571 Q7538.88 538.155 7589.44 538.155 Q7640.32 538.155 7665.6 488.571 Q7691.2 438.664 7691.2 339.174 Q7691.2 239.36 7665.6 189.777 Q7640.32 139.87 7589.44 139.87 M7589.44 88.018 Q7670.78 88.018 7713.56 152.508 Q7756.66 216.675 7756.66 339.174 Q7756.66 461.349 7713.56 525.84 Q7670.78 590.006 7589.44 590.006 Q7508.1 590.006 7464.99 525.84 Q7422.22 461.349 7422.22 339.174 Q7422.22 216.675 7464.99 152.508 Q7508.1 88.018 7589.44 88.018 Z" fill="#000000" fill-rule="evenodd" fill-opacity="1" /><path clip-path="url(#clip2600)" d="M 0 0 M7834.44 498.294 L7902.82 498.294 L7902.82 554.034 L7849.67 657.737 L7807.86 657.737 L7834.44 554.034 L7834.44 498.294 Z" fill="#000000" fill-rule="evenodd" fill-opacity="1" /><path clip-path="url(#clip2600)" d="M 0 0 M7985.13 525.516 L8092.07 525.516 L8092.07 156.397 L7975.73 179.731 L7975.73 120.101 L8091.43 96.768 L8156.89 96.768 L8156.89 525.516 L8263.83 525.516 L8263.83 580.608 L7985.13 580.608 L7985.13 525.516 Z" fill="#000000" fill-rule="evenodd" fill-opacity="1" /><path clip-path="url(#clip2600)" d="M 0 0 M8391.19 525.516 L8619.66 525.516 L8619.66 580.608 L8312.44 580.608 L8312.44 525.516 Q8349.71 486.951 8413.88 422.137 Q8478.37 356.998 8494.9 338.202 Q8526.33 302.878 8538.65 278.573 Q8551.29 253.943 8551.29 230.286 Q8551.29 191.721 8524.06 167.416 Q8497.16 143.11 8453.74 143.11 Q8422.95 143.11 8388.6 153.805 Q8354.57 164.499 8315.68 186.212 L8315.68 120.101 Q8355.22 104.222 8389.57 96.1199 Q8423.92 88.018 8452.44 88.018 Q8527.63 88.018 8572.35 125.61 Q8617.07 163.203 8617.07 226.073 Q8617.07 255.888 8605.73 282.786 Q8594.71 309.359 8565.22 345.656 Q8557.12 355.054 8513.69 400.1 Q8470.27 444.822 8391.19 525.516 Z" fill="#000000" fill-rule="evenodd" fill-opacity="1" /><path clip-path="url(#clip2600)" d="M 0 0 M8697.44 498.294 L8765.82 498.294 L8765.82 554.034 L8712.67 657.737 L8670.87 657.737 L8697.44 554.034 L8697.44 498.294 Z" fill="#000000" fill-rule="evenodd" fill-opacity="1" /><path clip-path="url(#clip2600)" d="M 0 0 M8848.14 525.516 L8955.08 525.516 L8955.08 156.397 L8838.74 179.731 L8838.74 120.101 L8954.43 96.768 L9019.89 96.768 L9019.89 525.516 L9126.84 525.516 L9126.84 580.608 L8848.14 580.608 L8848.14 525.516 Z" fill="#000000" fill-rule="evenodd" fill-opacity="1" /><path clip-path="url(#clip2600)" d="M 0 0 M9377.67 153.805 L9212.39 412.09 L9377.67 412.09 L9377.67 153.805 M9360.49 96.768 L9442.81 96.768 L9442.81 412.09 L9511.84 412.09 L9511.84 466.535 L9442.81 466.535 L9442.81 580.608 L9377.67 580.608 L9377.67 466.535 L9159.24 466.535 L9159.24 403.34 L9360.49 96.768 Z" fill="#000000" fill-rule="evenodd" fill-opacity="1" /><path clip-path="url(#clip2600)" d="M 0 0 M9589.61 498.294 L9657.99 498.294 L9657.99 554.034 L9604.84 657.737 L9563.04 657.737 L9589.61 554.034 L9589.61 498.294 Z" fill="#000000" fill-rule="evenodd" fill-opacity="1" /><path clip-path="url(#clip2600)" d="M 0 0 M9740.31 525.516 L9847.25 525.516 L9847.25 156.397 L9730.91 179.731 L9730.91 120.101 L9846.6 96.768 L9912.06 96.768 L9912.06 525.516 L10019 525.516 L10019 580.608 L9740.31 580.608 L9740.31 525.516 Z" fill="#000000" fill-rule="evenodd" fill-opacity="1" /><path clip-path="url(#clip2600)" d="M 0 0 M10238.1 312.6 Q10194 312.6 10168.1 342.739 Q10142.5 372.878 10142.5 425.377 Q10142.5 477.553 10168.1 508.016 Q10194 538.155 10238.1 538.155 Q10282.2 538.155 10307.8 508.016 Q10333.7 477.553 10333.7 425.377 Q10333.7 372.878 10307.8 342.739 Q10282.2 312.6 10238.1 312.6 M10368 107.462 L10368 167.092 Q10343.4 155.425 10318.1 149.268 Q10293.2 143.11 10268.5 143.11 Q10203.7 143.11 10169.4 186.86 Q10135.4 230.61 10130.5 319.082 Q10149.6 290.887 10178.5 275.98 Q10207.3 260.749 10242 260.749 Q10314.9 260.749 10357 305.147 Q10399.5 349.22 10399.5 425.377 Q10399.5 499.914 10355.4 544.96 Q10311.3 590.006 10238.1 590.006 Q10154.1 590.006 10109.7 525.84 Q10065.4 461.349 10065.4 339.174 Q10065.4 224.453 10119.8 156.397 Q10174.2 88.018 10266 88.018 Q10290.6 88.018 10315.5 92.8791 Q10340.8 97.7402 10368 107.462 Z" fill="#000000" fill-rule="evenodd" fill-opacity="1" /><path clip-path="url(#clip2600)" d="M 0 0 M10477.2 237.415 L10545.6 237.415 L10545.6 319.73 L10477.2 319.73 L10477.2 237.415 M10477.2 498.294 L10545.6 498.294 L10545.6 554.034 L10492.5 657.737 L10450.7 657.737 L10477.2 554.034 L10477.2 498.294 Z" fill="#000000" fill-rule="evenodd" fill-opacity="1" /><path clip-path="url(#clip2600)" d="M 0 0 M11018.1 141.166 Q10946.8 141.166 10904.7 194.314 Q10862.9 247.462 10862.9 339.174 Q10862.9 430.563 10904.7 483.71 Q10946.8 536.858 11018.1 536.858 Q11089.4 536.858 11130.9 483.71 Q11172.7 430.563 11172.7 339.174 Q11172.7 247.462 11130.9 194.314 Q11089.4 141.166 11018.1 141.166 M11109.8 571.858 L11196 666.163 L11117 666.163 L11045.3 588.71 Q11034.7 589.358 11028.8 589.682 Q11023.3 590.006 11018.1 590.006 Q10916 590.006 10854.8 521.951 Q10793.9 453.572 10793.9 339.174 Q10793.9 224.453 10854.8 156.397 Q10916 88.018 11018.1 88.018 Q11119.9 88.018 11180.8 156.397 Q11241.7 224.453 11241.7 339.174 Q11241.7 423.433 11207.7 483.386 Q11174 543.34 11109.8 571.858 Z" fill="#000000" fill-rule="evenodd" fill-opacity="1" /><path clip-path="url(#clip2600)" d="M 0 0 M11523 279.221 L11938.5 279.221 L11938.5 333.665 L11523 333.665 L11523 279.221 M11523 411.442 L11938.5 411.442 L11938.5 466.535 L11523 466.535 L11523 411.442 Z" fill="#000000" fill-rule="evenodd" fill-opacity="1" /><path clip-path="url(#clip2600)" d="M 0 0 M12231.8 525.516 L12338.7 525.516 L12338.7 156.397 L12222.4 179.731 L12222.4 120.101 L12338.1 96.768 L12403.5 96.768 L12403.5 525.516 L12510.5 525.516 L12510.5 580.608 L12231.8 580.608 L12231.8 525.516 Z" fill="#000000" fill-rule="evenodd" fill-opacity="1" /><path clip-path="url(#clip2600)" d="M 0 0 M12729.5 312.6 Q12685.5 312.6 12659.6 342.739 Q12633.9 372.878 12633.9 425.377 Q12633.9 477.553 12659.6 508.016 Q12685.5 538.155 12729.5 538.155 Q12773.6 538.155 12799.2 508.016 Q12825.2 477.553 12825.2 425.377 Q12825.2 372.878 12799.2 342.739 Q12773.6 312.6 12729.5 312.6 M12859.5 107.462 L12859.5 167.092 Q12834.9 155.425 12809.6 149.268 Q12784.6 143.11 12760 143.11 Q12695.2 143.11 12660.8 186.86 Q12626.8 230.61 12622 319.082 Q12641.1 290.887 12669.9 275.98 Q12698.8 260.749 12733.4 260.749 Q12806.4 260.749 12848.5 305.147 Q12890.9 349.22 12890.9 425.377 Q12890.9 499.914 12846.9 544.96 Q12802.8 590.006 12729.5 590.006 Q12645.6 590.006 12601.2 525.84 Q12556.8 461.349 12556.8 339.174 Q12556.8 224.453 12611.3 156.397 Q12665.7 88.018 12757.4 88.018 Q12782 88.018 12807 92.8791 Q12832.3 97.7402 12859.5 107.462 Z" fill="#000000" fill-rule="evenodd" fill-opacity="1" /><path clip-path="url(#clip2600)" d="M 0 0 M12968.7 237.415 L13037.1 237.415 L13037.1 319.73 L12968.7 319.73 L12968.7 237.415 M12968.7 498.294 L13037.1 498.294 L13037.1 554.034 L12983.9 657.737 L12942.1 657.737 L12968.7 554.034 L12968.7 498.294 Z" fill="#000000" fill-rule="evenodd" fill-opacity="1" /><path clip-path="url(#clip2600)" d="M 0 0 M13313.2 96.768 L13378.7 96.768 L13378.7 546.904 Q13378.7 634.404 13345.3 673.941 Q13312.2 713.478 13238.7 713.478 L13213.7 713.478 L13213.7 658.385 L13234.1 658.385 Q13277.6 658.385 13295.4 634.08 Q13313.2 609.775 13313.2 546.904 L13313.2 96.768 Z" fill="#000000" fill-rule="evenodd" fill-opacity="1" /><path clip-path="url(#clip2600)" d="M 0 0 M13717 690.793 L13717 737.135 L13372.2 737.135 L13372.2 690.793 L13717 690.793 Z" fill="#000000" fill-rule="evenodd" fill-opacity="1" /><path clip-path="url(#clip2600)" d="M 0 0 M13928 139.87 Q13877.4 139.87 13851.8 189.777 Q13826.5 239.36 13826.5 339.174 Q13826.5 438.664 13851.8 488.571 Q13877.4 538.155 13928 538.155 Q13978.8 538.155 14004.1 488.571 Q14029.7 438.664 14029.7 339.174 Q14029.7 239.36 14004.1 189.777 Q13978.8 139.87 13928 139.87 M13928 88.018 Q14009.3 88.018 14052.1 152.508 Q14095.2 216.675 14095.2 339.174 Q14095.2 461.349 14052.1 525.84 Q14009.3 590.006 13928 590.006 Q13846.6 590.006 13803.5 525.84 Q13760.7 461.349 13760.7 339.174 Q13760.7 216.675 13803.5 152.508 Q13846.6 88.018 13928 88.018 Z" fill="#000000" fill-rule="evenodd" fill-opacity="1" /><path clip-path="url(#clip2600)" d="M 0 0 M14376.5 279.221 L14791.9 279.221 L14791.9 333.665 L14376.5 333.665 L14376.5 279.221 M14376.5 411.442 L14791.9 411.442 L14791.9 466.535 L14376.5 466.535 L14376.5 411.442 Z" fill="#000000" fill-rule="evenodd" fill-opacity="1" /><path clip-path="url(#clip2600)" d="M 0 0 M15213.9 139.87 Q15163.3 139.87 15137.7 189.777 Q15112.5 239.36 15112.5 339.174 Q15112.5 438.664 15137.7 488.571 Q15163.3 538.155 15213.9 538.155 Q15264.8 538.155 15290 488.571 Q15315.6 438.664 15315.6 339.174 Q15315.6 239.36 15290 189.777 Q15264.8 139.87 15213.9 139.87 M15213.9 88.018 Q15295.2 88.018 15338 152.508 Q15381.1 216.675 15381.1 339.174 Q15381.1 461.349 15338 525.84 Q15295.2 590.006 15213.9 590.006 Q15132.5 590.006 15089.4 525.84 Q15046.7 461.349 15046.7 339.174 Q15046.7 216.675 15089.4 152.508 Q15132.5 88.018 15213.9 88.018 Z" fill="#000000" fill-rule="evenodd" fill-opacity="1" /><path clip-path="url(#clip2600)" d="M 0 0 M15452.1 498.294 L15520.5 498.294 L15520.5 580.608 L15452.1 580.608 L15452.1 498.294 Z" fill="#000000" fill-rule="evenodd" fill-opacity="1" /><path clip-path="url(#clip2600)" d="M 0 0 M15731.4 139.87 Q15680.9 139.87 15655.3 189.777 Q15630 239.36 15630 339.174 Q15630 438.664 15655.3 488.571 Q15680.9 538.155 15731.4 538.155 Q15782.3 538.155 15807.6 488.571 Q15833.2 438.664 15833.2 339.174 Q15833.2 239.36 15807.6 189.777 Q15782.3 139.87 15731.4 139.87 M15731.4 88.018 Q15812.8 88.018 15855.6 152.508 Q15898.7 216.675 15898.7 339.174 Q15898.7 461.349 15855.6 525.84 Q15812.8 590.006 15731.4 590.006 Q15650.1 590.006 15607 525.84 Q15564.2 461.349 15564.2 339.174 Q15564.2 216.675 15607 152.508 Q15650.1 88.018 15731.4 88.018 Z" fill="#000000" fill-rule="evenodd" fill-opacity="1" /><path clip-path="url(#clip2600)" d="M 0 0 M10153.1 12068.2 L10474.7 12068.2 L10474.7 12111.5 L10339.8 12111.5 L10339.8 12448.4 L10288.1 12448.4 L10288.1 12111.5 L10153.1 12111.5 L10153.1 12068.2 Z" fill="#000000" fill-rule="evenodd" fill-opacity="1" /><path clip-path="url(#clip2600)" d="M 0 0 M522.483 7641.94 L661.765 7641.94 L661.765 7559.44 Q661.765 7517.93 644.705 7498.07 Q627.39 7477.96 591.997 7477.96 Q556.349 7477.96 539.543 7498.07 Q522.483 7517.93 522.483 7559.44 L522.483 7641.94 M366.142 7641.94 L480.724 7641.94 L480.724 7565.8 Q480.724 7528.12 466.72 7509.78 Q452.461 7491.2 423.433 7491.2 Q394.66 7491.2 380.401 7509.78 Q366.142 7528.12 366.142 7565.8 L366.142 7641.94 M323.873 7693.37 L323.873 7561.98 Q323.873 7503.16 348.318 7471.33 Q372.762 7439.51 417.831 7439.51 Q452.715 7439.51 473.34 7455.8 Q493.965 7472.1 499.058 7503.67 Q507.206 7465.73 533.178 7444.85 Q558.895 7423.72 597.599 7423.72 Q648.524 7423.72 676.279 7458.35 Q704.033 7492.98 704.033 7556.89 L704.033 7693.37 L323.873 7693.37 Z" fill="#000000" fill-rule="evenodd" fill-opacity="1" /><path clip-path="url(#clip2600)" d="M 0 0 M418.85 7374.58 L418.85 7327.72 L704.033 7327.72 L704.033 7374.58 L418.85 7374.58 M307.832 7374.58 L307.832 7327.72 L367.16 7327.72 L367.16 7374.58 L307.832 7374.58 Z" fill="#000000" fill-rule="evenodd" fill-opacity="1" /><path clip-path="url(#clip2600)" d="M 0 0 M531.905 7041.52 L704.033 7041.52 L704.033 7088.37 L533.432 7088.37 Q492.946 7088.37 472.831 7104.16 Q452.715 7119.95 452.715 7151.52 Q452.715 7189.46 476.905 7211.36 Q501.095 7233.26 542.854 7233.26 L704.033 7233.26 L704.033 7280.36 L418.85 7280.36 L418.85 7233.26 L463.155 7233.26 Q437.437 7216.45 424.706 7193.79 Q411.975 7170.87 411.975 7141.08 Q411.975 7091.94 442.53 7066.73 Q472.831 7041.52 531.905 7041.52 Z" fill="#000000" fill-rule="evenodd" fill-opacity="1" /><path clip-path="url(#clip2600)" d="M 0 0 M462.136 6804.72 L307.832 6804.72 L307.832 6757.87 L704.033 6757.87 L704.033 6804.72 L661.256 6804.72 Q686.719 6819.49 699.195 6842.15 Q711.417 6864.56 711.417 6896.13 Q711.417 6947.82 670.168 6980.41 Q628.918 7012.75 561.696 7012.75 Q494.474 7012.75 453.224 6980.41 Q411.975 6947.82 411.975 6896.13 Q411.975 6864.56 424.451 6842.15 Q436.674 6819.49 462.136 6804.72 M561.696 6964.37 Q613.386 6964.37 642.922 6943.24 Q672.205 6921.85 672.205 6884.67 Q672.205 6847.5 642.922 6826.11 Q613.386 6804.72 561.696 6804.72 Q510.007 6804.72 480.724 6826.11 Q451.187 6847.5 451.187 6884.67 Q451.187 6921.85 480.724 6943.24 Q510.007 6964.37 561.696 6964.37 Z" fill="#000000" fill-rule="evenodd" fill-opacity="1" /><path clip-path="url(#clip2600)" d="M 0 0 M549.729 6464.79 L572.645 6464.79 L572.645 6680.2 Q621.024 6677.15 646.487 6651.18 Q671.695 6624.95 671.695 6578.35 Q671.695 6551.36 665.075 6526.15 Q658.455 6500.69 645.214 6475.74 L689.519 6475.74 Q700.214 6500.95 705.816 6527.43 Q711.417 6553.91 711.417 6581.15 Q711.417 6649.39 671.695 6689.37 Q631.973 6729.09 564.242 6729.09 Q494.22 6729.09 453.224 6691.41 Q411.975 6653.47 411.975 6589.3 Q411.975 6531.76 449.15 6498.4 Q486.071 6464.79 549.729 6464.79 M535.979 6511.64 Q497.53 6512.15 474.613 6533.28 Q451.697 6554.16 451.697 6588.79 Q451.697 6628.01 473.849 6651.69 Q496.002 6675.11 536.233 6678.68 L535.979 6511.64 Z" fill="#000000" fill-rule="evenodd" fill-opacity="1" /><path clip-path="url(#clip2600)" d="M 0 0 M462.646 6250.39 Q458.062 6258.29 456.025 6267.71 Q453.734 6276.87 453.734 6288.08 Q453.734 6327.8 479.706 6349.19 Q505.423 6370.32 553.803 6370.32 L704.033 6370.32 L704.033 6417.43 L418.85 6417.43 L418.85 6370.32 L463.155 6370.32 Q437.183 6355.55 424.706 6331.87 Q411.975 6308.19 411.975 6274.33 Q411.975 6269.49 412.739 6263.63 Q413.248 6257.78 414.521 6250.65 L462.646 6250.39 Z" fill="#000000" fill-rule="evenodd" fill-opacity="1" /><path clip-path="url(#clip2600)" d="M 0 0 M323.873 6156.94 L465.192 6156.94 L465.192 6200.23 L323.873 6200.23 L323.873 6156.94 Z" fill="#000000" fill-rule="evenodd" fill-opacity="1" /><path clip-path="url(#clip2600)" d="M 0 0 M427.252 5926 L471.558 5926 Q461.373 5945.86 456.28 5967.25 Q451.187 5988.63 451.187 6011.55 Q451.187 6046.44 461.882 6064 Q472.576 6081.32 493.965 6081.32 Q510.261 6081.32 519.682 6068.84 Q528.849 6056.37 537.252 6018.68 L540.817 6002.64 Q551.511 5952.73 571.117 5931.85 Q590.469 5910.72 625.353 5910.72 Q665.075 5910.72 688.246 5942.29 Q711.417 5973.61 711.417 6028.61 Q711.417 6051.53 706.834 6076.48 Q702.505 6101.18 693.594 6128.68 L645.214 6128.68 Q658.709 6102.71 665.584 6077.5 Q672.205 6052.29 672.205 6027.59 Q672.205 5994.49 661.001 5976.67 Q649.543 5958.84 628.918 5958.84 Q609.821 5958.84 599.636 5971.83 Q589.451 5984.56 580.029 6028.1 L576.21 6044.4 Q567.043 6087.94 548.201 6107.29 Q529.104 6126.64 496.002 6126.64 Q455.771 6126.64 433.873 6098.12 Q411.975 6069.61 411.975 6017.15 Q411.975 5991.18 415.794 5968.26 Q419.613 5945.35 427.252 5926 Z" fill="#000000" fill-rule="evenodd" fill-opacity="1" /><path clip-path="url(#clip2600)" d="M 0 0 M462.646 5530.56 Q458.062 5538.45 456.025 5547.87 Q453.734 5557.04 453.734 5568.24 Q453.734 5607.97 479.706 5629.35 Q505.423 5650.49 553.803 5650.49 L704.033 5650.49 L704.033 5697.59 L418.85 5697.59 L418.85 5650.49 L463.155 5650.49 Q437.183 5635.72 424.706 5612.04 Q411.975 5588.36 411.975 5554.49 Q411.975 5549.66 412.739 5543.8 Q413.248 5537.94 414.521 5530.81 L462.646 5530.56 Z" fill="#000000" fill-rule="evenodd" fill-opacity="1" /><path clip-path="url(#clip2600)" d="M 0 0 M560.678 5351.81 Q560.678 5408.59 573.664 5430.49 Q586.65 5452.39 617.969 5452.39 Q642.922 5452.39 657.691 5436.09 Q672.205 5419.54 672.205 5391.28 Q672.205 5352.32 644.705 5328.89 Q616.95 5305.21 571.117 5305.21 L560.678 5305.21 L560.678 5351.81 M541.326 5258.36 L704.033 5258.36 L704.033 5305.21 L660.746 5305.21 Q686.719 5321.25 699.195 5345.19 Q711.417 5369.12 711.417 5403.75 Q711.417 5447.55 686.973 5473.52 Q662.274 5499.24 621.024 5499.24 Q572.9 5499.24 548.455 5467.16 Q524.011 5434.82 524.011 5370.91 L524.011 5305.21 L519.428 5305.21 Q487.09 5305.21 469.521 5326.6 Q451.697 5347.74 451.697 5386.18 Q451.697 5410.63 457.553 5433.8 Q463.41 5456.97 475.122 5478.36 L431.836 5478.36 Q421.905 5452.64 417.067 5428.45 Q411.975 5404.26 411.975 5381.35 Q411.975 5319.47 444.058 5288.92 Q476.141 5258.36 541.326 5258.36 Z" fill="#000000" fill-rule="evenodd" fill-opacity="1" /><path clip-path="url(#clip2600)" d="M 0 0 M337.878 5162.87 L418.85 5162.87 L418.85 5066.37 L455.261 5066.37 L455.261 5162.87 L610.075 5162.87 Q644.96 5162.87 654.89 5153.45 Q664.821 5143.78 664.821 5114.5 L664.821 5066.37 L704.033 5066.37 L704.033 5114.5 Q704.033 5168.73 683.918 5189.36 Q663.547 5209.98 610.075 5209.98 L455.261 5209.98 L455.261 5244.36 L418.85 5244.36 L418.85 5209.98 L337.878 5209.98 L337.878 5162.87 Z" fill="#000000" fill-rule="evenodd" fill-opacity="1" /><path clip-path="url(#clip2600)" d="M 0 0 M418.85 5017.23 L418.85 4970.38 L704.033 4970.38 L704.033 5017.23 L418.85 5017.23 M307.832 5017.23 L307.832 4970.38 L367.16 4970.38 L367.16 5017.23 L307.832 5017.23 Z" fill="#000000" fill-rule="evenodd" fill-opacity="1" /><path clip-path="url(#clip2600)" d="M 0 0 M451.697 4810.72 Q451.697 4848.41 481.234 4870.31 Q510.516 4892.21 561.696 4892.21 Q612.876 4892.21 642.413 4870.56 Q671.695 4848.66 671.695 4810.72 Q671.695 4773.29 642.159 4751.4 Q612.622 4729.5 561.696 4729.5 Q511.025 4729.5 481.488 4751.4 Q451.697 4773.29 451.697 4810.72 M411.975 4810.72 Q411.975 4749.61 451.697 4714.73 Q491.419 4679.85 561.696 4679.85 Q631.719 4679.85 671.695 4714.73 Q711.417 4749.61 711.417 4810.72 Q711.417 4872.09 671.695 4906.97 Q631.719 4941.6 561.696 4941.6 Q491.419 4941.6 451.697 4906.97 Q411.975 4872.09 411.975 4810.72 Z" fill="#000000" fill-rule="evenodd" fill-opacity="1" /><polyline clip-path="url(#clip2602)" style="stroke:#009af9; stroke-width:32; stroke-opacity:1; fill:none" points="
  2287.37,1283.17 2614.99,1283.4 2942.6,1283.42 3270.22,1283.85 3597.83,1283.71 3925.44,1283.95 4253.06,1284.37 4580.67,1284.13 4908.29,1283.93 5235.9,1284.66 
  5563.51,1284.93 5891.13,1285.23 6218.74,1285.98 6546.35,1286.5 6873.97,1285.62 7201.58,1286.36 7529.2,1287.38 7856.81,1287.21 8184.42,1288.89 8512.04,1287.79 
  8839.65,1292.25 9167.27,1290.82 9494.88,1292.41 9822.49,1296.03 10150.1,1290.56 10477.7,1296.36 10805.3,1299.64 11132.9,1303.81 11460.6,1306.29 11788.2,1316.41 
  12115.8,1318.53 12443.4,1333.79 12771,1326.23 13098.6,1343.25 13426.2,1343.47 13753.9,1363.92 14081.5,1365.7 14409.1,1401.89 14736.7,1395.7 15064.3,1448.97 
  15391.9,1460.49 15719.5,1475.27 16047.2,1519.37 16374.8,1633.85 16702.4,1611.07 17030,1655.33 17357.6,1699.68 17685.2,1740.76 18012.8,1846.02 18340.5,1996.64 
  
  "/>
<polyline clip-path="url(#clip2602)" style="stroke:#e26f46; stroke-width:32; stroke-opacity:1; fill:none" points="
  2287.37,1282.69 2614.99,1282.71 2942.6,1282.73 3270.22,1282.9 3597.83,1282.97 3925.44,1283.05 4253.06,1283.05 4580.67,1283.08 4908.29,1283.27 5235.9,1283.32 
  5563.51,1283.3 5891.13,1283.61 6218.74,1283.6 6546.35,1283.79 6873.97,1283.8 7201.58,1284.13 7529.2,1284.49 7856.81,1284.49 8184.42,1284.96 8512.04,1285.19 
  8839.65,1286.74 9167.27,1285.16 9494.88,1285.79 9822.49,1291.89 10150.1,1288.13 10477.7,1290.4 10805.3,1294.43 11132.9,1289.57 11460.6,1290.6 11788.2,1297.46 
  12115.8,1311.64 12443.4,1308.32 12771,1342.43 13098.6,1319.47 13426.2,1367.25 13753.9,1385.39 14081.5,1433.95 14409.1,1444.39 14736.7,1526.39 15064.3,1565.88 
  15391.9,1698.92 15719.5,1702.7 16047.2,1911.96 16374.8,2062.76 16702.4,2241.53 17030,2422.87 17357.6,3033.57 17685.2,3140.09 18012.8,3473.4 18340.5,3976.17 
  
  "/>
<polyline clip-path="url(#clip2602)" style="stroke:#3da44d; stroke-width:32; stroke-opacity:1; fill:none" points="
  2287.37,1282.35 2614.99,1282.42 2942.6,1282.5 3270.22,1282.55 3597.83,1282.51 3925.44,1282.58 4253.06,1282.62 4580.67,1282.7 4908.29,1282.68 5235.9,1282.69 
  5563.51,1282.77 5891.13,1282.88 6218.74,1283.04 6546.35,1283.01 6873.97,1283.42 7201.58,1283.26 7529.2,1283.33 7856.81,1283.37 8184.42,1283.74 8512.04,1283.93 
  8839.65,1284.11 9167.27,1284.64 9494.88,1284.35 9822.49,1284.9 10150.1,1285.2 10477.7,1286.11 10805.3,1287.46 11132.9,1286.74 11460.6,1287.36 11788.2,1290.01 
  12115.8,1295.35 12443.4,1298.49 12771,1310.93 13098.6,1299.4 13426.2,1335.62 13753.9,1406.78 14081.5,1570.74 14409.1,1592.15 14736.7,1660.03 15064.3,2236.76 
  15391.9,2473.6 15719.5,2883.39 16047.2,3109.33 16374.8,4224.42 16702.4,4854.39 17030,5508.03 17357.6,5787.15 17685.2,5861.77 18012.8,4425.93 18340.5,4947.18 
  
  "/>
<polyline clip-path="url(#clip2602)" style="stroke:#c271d2; stroke-width:32; stroke-opacity:1; fill:none" points="
  2287.37,1282.24 2614.99,1282.23 2942.6,1282.25 3270.22,1282.31 3597.83,1282.31 3925.44,1282.43 4253.06,1282.43 4580.67,1282.42 4908.29,1282.51 5235.9,1282.58 
  5563.51,1282.56 5891.13,1282.69 6218.74,1282.62 6546.35,1282.71 6873.97,1282.91 7201.58,1282.89 7529.2,1283.01 7856.81,1283.13 8184.42,1283.18 8512.04,1283.24 
  8839.65,1283.41 9167.27,1283.67 9494.88,1283.72 9822.49,1283.95 10150.1,1284.67 10477.7,1284.5 10805.3,1285.03 11132.9,1285.2 11460.6,1285.47 11788.2,1286.78 
  12115.8,1294.66 12443.4,1291.34 12771,1320.94 13098.6,1364.08 13426.2,1301.18 13753.9,1414.65 14081.5,1558.7 14409.1,1948.13 14736.7,2333.11 15064.3,3186.63 
  15391.9,3114.93 15719.5,4663.26 16047.2,7164.13 16374.8,6028.94 16702.4,7648.17 17030,5943.04 17357.6,1943.09 17685.2,2874.75 18012.8,2755.4 18340.5,1747.37 
  
  "/>
<polyline clip-path="url(#clip2602)" style="stroke:#ac8d18; stroke-width:32; stroke-opacity:1; fill:none" points="
  2287.37,1282.13 2614.99,1282.14 2942.6,1282.17 3270.22,1282.17 3597.83,1282.19 3925.44,1282.25 4253.06,1282.27 4580.67,1282.27 4908.29,1282.29 5235.9,1282.34 
  5563.51,1282.38 5891.13,1282.39 6218.74,1282.48 6546.35,1282.54 6873.97,1282.58 7201.58,1282.59 7529.2,1282.69 7856.81,1282.71 8184.42,1282.85 8512.04,1282.93 
  8839.65,1283.03 9167.27,1283.2 9494.88,1283.3 9822.49,1283.36 10150.1,1283.66 10477.7,1283.82 10805.3,1283.99 11132.9,1284.9 11460.6,1284.97 11788.2,1285.42 
  12115.8,1285.7 12443.4,1287.69 12771,1287.45 13098.6,1315.2 13426.2,1289.73 13753.9,1388.45 14081.5,1454.35 14409.1,2761.25 14736.7,2736.46 15064.3,3785.03 
  15391.9,4148.6 15719.5,2152.25 16047.2,8925.76 16374.8,1979.91 16702.4,5737.93 17030,1808.5 17357.6,1743.94 17685.2,1664.05 18012.8,1789.57 18340.5,1716.48 
  
  "/>
<polyline clip-path="url(#clip2602)" style="stroke:#00a9ad; stroke-width:32; stroke-opacity:1; fill:none" points="
  2287.37,1282.05 2614.99,1282.07 2942.6,1282.08 3270.22,1282.09 3597.83,1282.11 3925.44,1282.12 4253.06,1282.14 4580.67,1282.18 4908.29,1282.17 5235.9,1282.21 
  5563.51,1282.24 5891.13,1282.28 6218.74,1282.33 6546.35,1282.33 6873.97,1282.38 7201.58,1282.42 7529.2,1282.53 7856.81,1282.54 8184.42,1282.57 8512.04,1282.68 
  8839.65,1282.77 9167.27,1282.85 9494.88,1283.04 9822.49,1283.16 10150.1,1283.21 10477.7,1283.66 10805.3,1283.73 11132.9,1283.57 11460.6,1284.31 11788.2,1284.77 
  12115.8,1285 12443.4,1285.13 12771,1286.28 13098.6,1287.16 13426.2,1291.15 13753.9,1301.26 14081.5,1488.09 14409.1,2110.38 14736.7,9105.66 15064.3,9673.71 
  15391.9,11091.2 15719.5,4506.08 16047.2,1872.3 16374.8,9138.45 16702.4,1778.18 17030,1758.7 17357.6,1739.63 17685.2,1761.75 18012.8,1702.07 18340.5,1650.68 
  
  "/>
<path clip-path="url(#clip2600)" d="
M2381.78 10233.4 L5418.81 10233.4 L5418.81 6846.56 L2381.78 6846.56  Z
  " fill="#ffffff" fill-rule="evenodd" fill-opacity="1"/>
<polyline clip-path="url(#clip2600)" style="stroke:#000000; stroke-width:32; stroke-opacity:1; fill:none" points="
  2381.78,10233.4 5418.81,10233.4 5418.81,6846.56 2381.78,6846.56 2381.78,10233.4 
  "/>
<polyline clip-path="url(#clip2600)" style="stroke:#009af9; stroke-width:32; stroke-opacity:1; fill:none" points="
  2573.78,7330.4 3725.78,7330.4 
  "/>
<path clip-path="url(#clip2600)" d="M 0 0 M3917.78 7192.16 L3955.19 7192.16 L3955.19 7437.16 L4089.82 7437.16 L4089.82 7468.64 L3917.78 7468.64 L3917.78 7192.16 Z" fill="#000000" fill-rule="evenodd" fill-opacity="1" /><path clip-path="url(#clip2600)" d="M 0 0 M4250.56 7296.42 L4487.96 7296.42 L4487.96 7327.53 L4250.56 7327.53 L4250.56 7296.42 M4250.56 7371.97 L4487.96 7371.97 L4487.96 7403.45 L4250.56 7403.45 L4250.56 7371.97 Z" fill="#000000" fill-rule="evenodd" fill-opacity="1" /><path clip-path="url(#clip2600)" d="M 0 0 M4733.7 7315.49 Q4708.52 7315.49 4693.7 7332.71 Q4679.07 7349.94 4679.07 7379.94 Q4679.07 7409.75 4693.7 7427.16 Q4708.52 7444.38 4733.7 7444.38 Q4758.89 7444.38 4773.52 7427.16 Q4788.33 7409.75 4788.33 7379.94 Q4788.33 7349.94 4773.52 7332.71 Q4758.89 7315.49 4733.7 7315.49 M4807.96 7198.27 L4807.96 7232.34 Q4793.89 7225.68 4779.44 7222.16 Q4765.18 7218.64 4751.11 7218.64 Q4714.07 7218.64 4694.44 7243.64 Q4675 7268.64 4672.22 7319.2 Q4683.15 7303.08 4699.63 7294.57 Q4716.11 7285.86 4735.93 7285.86 Q4777.59 7285.86 4801.67 7311.23 Q4825.93 7336.42 4825.93 7379.94 Q4825.93 7422.53 4800.74 7448.27 Q4775.55 7474.01 4733.7 7474.01 Q4685.74 7474.01 4660.37 7437.34 Q4635 7400.49 4635 7330.68 Q4635 7265.12 4666.11 7226.23 Q4697.22 7187.16 4749.63 7187.16 Q4763.7 7187.16 4777.96 7189.94 Q4792.41 7192.71 4807.96 7198.27 Z" fill="#000000" fill-rule="evenodd" fill-opacity="1" /><polyline clip-path="url(#clip2600)" style="stroke:#e26f46; stroke-width:32; stroke-opacity:1; fill:none" points="
  2573.78,7814.24 3725.78,7814.24 
  "/>
<path clip-path="url(#clip2600)" d="M 0 0 M3917.78 7676 L3955.19 7676 L3955.19 7921 L4089.82 7921 L4089.82 7952.48 L3917.78 7952.48 L3917.78 7676 Z" fill="#000000" fill-rule="evenodd" fill-opacity="1" /><path clip-path="url(#clip2600)" d="M 0 0 M4250.56 7780.26 L4487.96 7780.26 L4487.96 7811.37 L4250.56 7811.37 L4250.56 7780.26 M4250.56 7855.81 L4487.96 7855.81 L4487.96 7887.29 L4250.56 7887.29 L4250.56 7855.81 Z" fill="#000000" fill-rule="evenodd" fill-opacity="1" /><path clip-path="url(#clip2600)" d="M 0 0 M4729.07 7821.18 Q4702.41 7821.18 4687.04 7835.44 Q4671.85 7849.7 4671.85 7874.7 Q4671.85 7899.7 4687.04 7913.96 Q4702.41 7928.22 4729.07 7928.22 Q4755.74 7928.22 4771.11 7913.96 Q4786.48 7899.52 4786.48 7874.7 Q4786.48 7849.7 4771.11 7835.44 Q4755.93 7821.18 4729.07 7821.18 M4691.67 7805.26 Q4667.59 7799.33 4654.07 7782.85 Q4640.74 7766.37 4640.74 7742.67 Q4640.74 7709.52 4664.26 7690.26 Q4687.96 7671 4729.07 7671 Q4770.37 7671 4793.89 7690.26 Q4817.41 7709.52 4817.41 7742.67 Q4817.41 7766.37 4803.89 7782.85 Q4790.55 7799.33 4766.67 7805.26 Q4793.7 7811.55 4808.7 7829.89 Q4823.89 7848.22 4823.89 7874.7 Q4823.89 7914.89 4799.26 7936.37 Q4774.81 7957.85 4729.07 7957.85 Q4683.33 7957.85 4658.7 7936.37 Q4634.26 7914.89 4634.26 7874.7 Q4634.26 7848.22 4649.44 7829.89 Q4664.63 7811.55 4691.67 7805.26 M4677.96 7746.18 Q4677.96 7767.66 4691.3 7779.7 Q4704.81 7791.74 4729.07 7791.74 Q4753.15 7791.74 4766.67 7779.7 Q4780.37 7767.66 4780.37 7746.18 Q4780.37 7724.7 4766.67 7712.67 Q4753.15 7700.63 4729.07 7700.63 Q4704.81 7700.63 4691.3 7712.67 Q4677.96 7724.7 4677.96 7746.18 Z" fill="#000000" fill-rule="evenodd" fill-opacity="1" /><polyline clip-path="url(#clip2600)" style="stroke:#3da44d; stroke-width:32; stroke-opacity:1; fill:none" points="
  2573.78,8298.08 3725.78,8298.08 
  "/>
<path clip-path="url(#clip2600)" d="M 0 0 M3917.78 8159.84 L3955.19 8159.84 L3955.19 8404.84 L4089.82 8404.84 L4089.82 8436.32 L3917.78 8436.32 L3917.78 8159.84 Z" fill="#000000" fill-rule="evenodd" fill-opacity="1" /><path clip-path="url(#clip2600)" d="M 0 0 M4250.56 8264.1 L4487.96 8264.1 L4487.96 8295.21 L4250.56 8295.21 L4250.56 8264.1 M4250.56 8339.65 L4487.96 8339.65 L4487.96 8371.13 L4250.56 8371.13 L4250.56 8339.65 Z" fill="#000000" fill-rule="evenodd" fill-opacity="1" /><path clip-path="url(#clip2600)" d="M 0 0 M4655.56 8404.84 L4716.67 8404.84 L4716.67 8193.91 L4650.19 8207.25 L4650.19 8173.17 L4716.3 8159.84 L4753.7 8159.84 L4753.7 8404.84 L4814.81 8404.84 L4814.81 8436.32 L4655.56 8436.32 L4655.56 8404.84 Z" fill="#000000" fill-rule="evenodd" fill-opacity="1" /><path clip-path="url(#clip2600)" d="M 0 0 M4935.37 8184.47 Q4906.48 8184.47 4891.85 8212.99 Q4877.41 8241.32 4877.41 8298.36 Q4877.41 8355.21 4891.85 8383.73 Q4906.48 8412.06 4935.37 8412.06 Q4964.44 8412.06 4978.89 8383.73 Q4993.52 8355.21 4993.52 8298.36 Q4993.52 8241.32 4978.89 8212.99 Q4964.44 8184.47 4935.37 8184.47 M4935.37 8154.84 Q4981.85 8154.84 5006.29 8191.69 Q5030.92 8228.36 5030.92 8298.36 Q5030.92 8368.17 5006.29 8405.02 Q4981.85 8441.69 4935.37 8441.69 Q4888.89 8441.69 4864.26 8405.02 Q4839.81 8368.17 4839.81 8298.36 Q4839.81 8228.36 4864.26 8191.69 Q4888.89 8154.84 4935.37 8154.84 Z" fill="#000000" fill-rule="evenodd" fill-opacity="1" /><polyline clip-path="url(#clip2600)" style="stroke:#c271d2; stroke-width:32; stroke-opacity:1; fill:none" points="
  2573.78,8781.92 3725.78,8781.92 
  "/>
<path clip-path="url(#clip2600)" d="M 0 0 M3917.78 8643.68 L3955.19 8643.68 L3955.19 8888.68 L4089.82 8888.68 L4089.82 8920.16 L3917.78 8920.16 L3917.78 8643.68 Z" fill="#000000" fill-rule="evenodd" fill-opacity="1" /><path clip-path="url(#clip2600)" d="M 0 0 M4250.56 8747.94 L4487.96 8747.94 L4487.96 8779.05 L4250.56 8779.05 L4250.56 8747.94 M4250.56 8823.49 L4487.96 8823.49 L4487.96 8854.97 L4250.56 8854.97 L4250.56 8823.49 Z" fill="#000000" fill-rule="evenodd" fill-opacity="1" /><path clip-path="url(#clip2600)" d="M 0 0 M4655.56 8888.68 L4716.67 8888.68 L4716.67 8677.75 L4650.19 8691.09 L4650.19 8657.01 L4716.3 8643.68 L4753.7 8643.68 L4753.7 8888.68 L4814.81 8888.68 L4814.81 8920.16 L4655.56 8920.16 L4655.56 8888.68 Z" fill="#000000" fill-rule="evenodd" fill-opacity="1" /><path clip-path="url(#clip2600)" d="M 0 0 M4887.59 8888.68 L5018.15 8888.68 L5018.15 8920.16 L4842.59 8920.16 L4842.59 8888.68 Q4863.89 8866.64 4900.55 8829.6 Q4937.41 8792.38 4946.85 8781.64 Q4964.81 8761.46 4971.85 8747.57 Q4979.07 8733.49 4979.07 8719.97 Q4979.07 8697.94 4963.52 8684.05 Q4948.15 8670.16 4923.33 8670.16 Q4905.74 8670.16 4886.11 8676.27 Q4866.67 8682.38 4844.44 8694.79 L4844.44 8657.01 Q4867.04 8647.94 4886.67 8643.31 Q4906.29 8638.68 4922.59 8638.68 Q4965.55 8638.68 4991.11 8660.16 Q5016.66 8681.64 5016.66 8717.57 Q5016.66 8734.6 5010.18 8749.97 Q5003.89 8765.16 4987.04 8785.9 Q4982.41 8791.27 4957.59 8817.01 Q4932.78 8842.57 4887.59 8888.68 Z" fill="#000000" fill-rule="evenodd" fill-opacity="1" /><polyline clip-path="url(#clip2600)" style="stroke:#ac8d18; stroke-width:32; stroke-opacity:1; fill:none" points="
  2573.78,9265.76 3725.78,9265.76 
  "/>
<path clip-path="url(#clip2600)" d="M 0 0 M3917.78 9127.52 L3955.19 9127.52 L3955.19 9372.52 L4089.82 9372.52 L4089.82 9404 L3917.78 9404 L3917.78 9127.52 Z" fill="#000000" fill-rule="evenodd" fill-opacity="1" /><path clip-path="url(#clip2600)" d="M 0 0 M4250.56 9231.78 L4487.96 9231.78 L4487.96 9262.89 L4250.56 9262.89 L4250.56 9231.78 M4250.56 9307.33 L4487.96 9307.33 L4487.96 9338.81 L4250.56 9338.81 L4250.56 9307.33 Z" fill="#000000" fill-rule="evenodd" fill-opacity="1" /><path clip-path="url(#clip2600)" d="M 0 0 M4655.56 9372.52 L4716.67 9372.52 L4716.67 9161.59 L4650.19 9174.93 L4650.19 9140.85 L4716.3 9127.52 L4753.7 9127.52 L4753.7 9372.52 L4814.81 9372.52 L4814.81 9404 L4655.56 9404 L4655.56 9372.52 Z" fill="#000000" fill-rule="evenodd" fill-opacity="1" /><path clip-path="url(#clip2600)" d="M 0 0 M4958.15 9160.11 L4863.7 9307.7 L4958.15 9307.7 L4958.15 9160.11 M4948.33 9127.52 L4995.37 9127.52 L4995.37 9307.7 L5034.81 9307.7 L5034.81 9338.81 L4995.37 9338.81 L4995.37 9404 L4958.15 9404 L4958.15 9338.81 L4833.33 9338.81 L4833.33 9302.7 L4948.33 9127.52 Z" fill="#000000" fill-rule="evenodd" fill-opacity="1" /><polyline clip-path="url(#clip2600)" style="stroke:#00a9ad; stroke-width:32; stroke-opacity:1; fill:none" points="
  2573.78,9749.6 3725.78,9749.6 
  "/>
<path clip-path="url(#clip2600)" d="M 0 0 M3917.78 9611.36 L3955.19 9611.36 L3955.19 9856.36 L4089.82 9856.36 L4089.82 9887.84 L3917.78 9887.84 L3917.78 9611.36 Z" fill="#000000" fill-rule="evenodd" fill-opacity="1" /><path clip-path="url(#clip2600)" d="M 0 0 M4250.56 9715.62 L4487.96 9715.62 L4487.96 9746.73 L4250.56 9746.73 L4250.56 9715.62 M4250.56 9791.17 L4487.96 9791.17 L4487.96 9822.65 L4250.56 9822.65 L4250.56 9791.17 Z" fill="#000000" fill-rule="evenodd" fill-opacity="1" /><path clip-path="url(#clip2600)" d="M 0 0 M4655.56 9856.36 L4716.67 9856.36 L4716.67 9645.43 L4650.19 9658.77 L4650.19 9624.69 L4716.3 9611.36 L4753.7 9611.36 L4753.7 9856.36 L4814.81 9856.36 L4814.81 9887.84 L4655.56 9887.84 L4655.56 9856.36 Z" fill="#000000" fill-rule="evenodd" fill-opacity="1" /><path clip-path="url(#clip2600)" d="M 0 0 M4940 9734.69 Q4914.81 9734.69 4900 9751.91 Q4885.37 9769.14 4885.37 9799.14 Q4885.37 9828.95 4900 9846.36 Q4914.81 9863.58 4940 9863.58 Q4965.18 9863.58 4979.81 9846.36 Q4994.63 9828.95 4994.63 9799.14 Q4994.63 9769.14 4979.81 9751.91 Q4965.18 9734.69 4940 9734.69 M5014.26 9617.47 L5014.26 9651.54 Q5000.18 9644.88 4985.74 9641.36 Q4971.48 9637.84 4957.41 9637.84 Q4920.37 9637.84 4900.74 9662.84 Q4881.3 9687.84 4878.52 9738.4 Q4889.44 9722.28 4905.92 9713.77 Q4922.41 9705.06 4942.22 9705.06 Q4983.89 9705.06 5007.96 9730.43 Q5032.22 9755.62 5032.22 9799.14 Q5032.22 9841.73 5007.04 9867.47 Q4981.85 9893.21 4940 9893.21 Q4892.04 9893.21 4866.67 9856.54 Q4841.3 9819.69 4841.3 9749.88 Q4841.3 9684.32 4872.41 9645.43 Q4903.52 9606.36 4955.92 9606.36 Q4970 9606.36 4984.26 9609.14 Q4998.7 9611.91 5014.26 9617.47 Z" fill="#000000" fill-rule="evenodd" fill-opacity="1" /></svg>
