<?xml version="1.0" encoding="utf-8"?>
<svg xmlns="http://www.w3.org/2000/svg" xmlns:xlink="http://www.w3.org/1999/xlink" width="4800" height="3200" viewBox="0 0 19200 12800">
<defs>
  <clipPath id="clip5700">
    <rect x="0" y="0" width="19200" height="12800"/>
  </clipPath>
</defs>
<path clip-path="url(#clip5700)" d="
M0 12800 L19200 12800 L19200 0 L0 0  Z
  " fill="#ffffff" fill-rule="evenodd" fill-opacity="1"/>
<defs>
  <clipPath id="clip5701">
    <rect x="3840" y="0" width="13441" height="12800"/>
  </clipPath>
</defs>
<path clip-path="url(#clip5700)" d="
M2126.34 11385.4 L18822 11385.4 L18822 987.777 L2126.34 987.777  Z
  " fill="#ffffff" fill-rule="evenodd" fill-opacity="1"/>
<defs>
  <clipPath id="clip5702">
    <rect x="2126" y="987" width="16697" height="10399"/>
  </clipPath>
</defs>
<polyline clip-path="url(#clip5702)" style="stroke:#000000; stroke-width:16; stroke-opacity:0.1; fill:none" points="
  4173.92,11385.4 4173.92,987.777 
  "/>
<polyline clip-path="url(#clip5702)" style="stroke:#000000; stroke-width:16; stroke-opacity:0.1; fill:none" points="
  8899.12,11385.4 8899.12,987.777 
  "/>
<polyline clip-path="url(#clip5702)" style="stroke:#000000; stroke-width:16; stroke-opacity:0.1; fill:none" points="
  13624.3,11385.4 13624.3,987.777 
  "/>
<polyline clip-path="url(#clip5702)" style="stroke:#000000; stroke-width:16; stroke-opacity:0.1; fill:none" points="
  18349.5,11385.4 18349.5,987.777 
  "/>
<polyline clip-path="url(#clip5702)" style="stroke:#000000; stroke-width:16; stroke-opacity:0.1; fill:none" points="
  2126.34,10674.1 18822,10674.1 
  "/>
<polyline clip-path="url(#clip5702)" style="stroke:#000000; stroke-width:16; stroke-opacity:0.1; fill:none" points="
  2126.34,9156.63 18822,9156.63 
  "/>
<polyline clip-path="url(#clip5702)" style="stroke:#000000; stroke-width:16; stroke-opacity:0.1; fill:none" points="
  2126.34,7639.18 18822,7639.18 
  "/>
<polyline clip-path="url(#clip5702)" style="stroke:#000000; stroke-width:16; stroke-opacity:0.1; fill:none" points="
  2126.34,6121.72 18822,6121.72 
  "/>
<polyline clip-path="url(#clip5702)" style="stroke:#000000; stroke-width:16; stroke-opacity:0.1; fill:none" points="
  2126.34,4604.26 18822,4604.26 
  "/>
<polyline clip-path="url(#clip5702)" style="stroke:#000000; stroke-width:16; stroke-opacity:0.1; fill:none" points="
  2126.34,3086.8 18822,3086.8 
  "/>
<polyline clip-path="url(#clip5702)" style="stroke:#000000; stroke-width:16; stroke-opacity:0.1; fill:none" points="
  2126.34,1569.34 18822,1569.34 
  "/>
<polyline clip-path="url(#clip5700)" style="stroke:#000000; stroke-width:32; stroke-opacity:1; fill:none" points="
  2126.34,11385.4 18822,11385.4 
  "/>
<polyline clip-path="url(#clip5700)" style="stroke:#000000; stroke-width:32; stroke-opacity:1; fill:none" points="
  2126.34,11385.4 2126.34,987.777 
  "/>
<polyline clip-path="url(#clip5700)" style="stroke:#000000; stroke-width:32; stroke-opacity:1; fill:none" points="
  4173.92,11385.4 4173.92,11260.7 
  "/>
<polyline clip-path="url(#clip5700)" style="stroke:#000000; stroke-width:32; stroke-opacity:1; fill:none" points="
  8899.12,11385.4 8899.12,11260.7 
  "/>
<polyline clip-path="url(#clip5700)" style="stroke:#000000; stroke-width:32; stroke-opacity:1; fill:none" points="
  13624.3,11385.4 13624.3,11260.7 
  "/>
<polyline clip-path="url(#clip5700)" style="stroke:#000000; stroke-width:32; stroke-opacity:1; fill:none" points="
  18349.5,11385.4 18349.5,11260.7 
  "/>
<polyline clip-path="url(#clip5700)" style="stroke:#000000; stroke-width:32; stroke-opacity:1; fill:none" points="
  2126.34,10674.1 2326.68,10674.1 
  "/>
<polyline clip-path="url(#clip5700)" style="stroke:#000000; stroke-width:32; stroke-opacity:1; fill:none" points="
  2126.34,9156.63 2326.68,9156.63 
  "/>
<polyline clip-path="url(#clip5700)" style="stroke:#000000; stroke-width:32; stroke-opacity:1; fill:none" points="
  2126.34,7639.18 2326.68,7639.18 
  "/>
<polyline clip-path="url(#clip5700)" style="stroke:#000000; stroke-width:32; stroke-opacity:1; fill:none" points="
  2126.34,6121.72 2326.68,6121.72 
  "/>
<polyline clip-path="url(#clip5700)" style="stroke:#000000; stroke-width:32; stroke-opacity:1; fill:none" points="
  2126.34,4604.26 2326.68,4604.26 
  "/>
<polyline clip-path="url(#clip5700)" style="stroke:#000000; stroke-width:32; stroke-opacity:1; fill:none" points="
  2126.34,3086.8 2326.68,3086.8 
  "/>
<polyline clip-path="url(#clip5700)" style="stroke:#000000; stroke-width:32; stroke-opacity:1; fill:none" points="
  2126.34,1569.34 2326.68,1569.34 
  "/>
<path clip-path="url(#clip5700)" d="M 0 0 M3819.57 11561.4 Q3790.68 11561.4 3776.05 11589.9 Q3761.61 11618.2 3761.61 11675.3 Q3761.61 11732.1 3776.05 11760.6 Q3790.68 11789 3819.57 11789 Q3848.65 11789 3863.09 11760.6 Q3877.72 11732.1 3877.72 11675.3 Q3877.72 11618.2 3863.09 11589.9 Q3848.65 11561.4 3819.57 11561.4 M3819.57 11531.7 Q3866.05 11531.7 3890.5 11568.6 Q3915.13 11605.3 3915.13 11675.3 Q3915.13 11745.1 3890.5 11781.9 Q3866.05 11818.6 3819.57 11818.6 Q3773.09 11818.6 3748.46 11781.9 Q3724.02 11745.1 3724.02 11675.3 Q3724.02 11605.3 3748.46 11568.6 Q3773.09 11531.7 3819.57 11531.7 Z" fill="#000000" fill-rule="evenodd" fill-opacity="1" /><path clip-path="url(#clip5700)" d="M 0 0 M3955.68 11766.2 L3994.76 11766.2 L3994.76 11813.2 L3955.68 11813.2 L3955.68 11766.2 Z" fill="#000000" fill-rule="evenodd" fill-opacity="1" /><path clip-path="url(#clip5700)" d="M 0 0 M4035.68 11536.7 L4182.53 11536.7 L4182.53 11568.2 L4069.94 11568.2 L4069.94 11636 Q4078.09 11633.2 4086.24 11631.9 Q4094.39 11630.4 4102.53 11630.4 Q4148.83 11630.4 4175.87 11655.8 Q4202.9 11681.2 4202.9 11724.5 Q4202.9 11769.1 4175.13 11794 Q4147.35 11818.6 4096.79 11818.6 Q4079.39 11818.6 4061.24 11815.6 Q4043.28 11812.7 4024.02 11806.7 L4024.02 11769.1 Q4040.68 11778.2 4058.46 11782.7 Q4076.24 11787.1 4096.05 11787.1 Q4128.09 11787.1 4146.79 11770.3 Q4165.5 11753.4 4165.5 11724.5 Q4165.5 11695.6 4146.79 11678.8 Q4128.09 11661.9 4096.05 11661.9 Q4081.05 11661.9 4066.05 11665.3 Q4051.24 11668.6 4035.68 11675.6 L4035.68 11536.7 Z" fill="#000000" fill-rule="evenodd" fill-opacity="1" /><path clip-path="url(#clip5700)" d="M 0 0 M4244.57 11807.5 L4244.57 11773.4 Q4258.64 11780.1 4273.09 11783.6 Q4287.53 11787.1 4301.42 11787.1 Q4338.46 11787.1 4357.9 11762.3 Q4377.53 11737.3 4380.31 11686.5 Q4369.57 11702.5 4353.09 11711 Q4336.61 11719.5 4316.61 11719.5 Q4275.13 11719.5 4250.87 11694.5 Q4226.79 11669.3 4226.79 11625.8 Q4226.79 11583.2 4251.98 11557.5 Q4277.16 11531.7 4319.01 11531.7 Q4366.98 11531.7 4392.16 11568.6 Q4417.53 11605.3 4417.53 11675.3 Q4417.53 11740.6 4386.42 11779.7 Q4355.5 11818.6 4303.09 11818.6 Q4289.01 11818.6 4274.57 11815.8 Q4260.13 11813 4244.57 11807.5 M4319.01 11690.3 Q4344.2 11690.3 4358.83 11673 Q4373.64 11655.8 4373.64 11625.8 Q4373.64 11596 4358.83 11578.8 Q4344.2 11561.4 4319.01 11561.4 Q4293.83 11561.4 4279.01 11578.8 Q4264.39 11596 4264.39 11625.8 Q4264.39 11655.8 4279.01 11673 Q4293.83 11690.3 4319.01 11690.3 Z" fill="#000000" fill-rule="evenodd" fill-opacity="1" /><path clip-path="url(#clip5700)" d="M 0 0 M4464.57 11781.7 L4525.68 11781.7 L4525.68 11570.8 L4459.2 11584.1 L4459.2 11550.1 L4525.31 11536.7 L4562.72 11536.7 L4562.72 11781.7 L4623.83 11781.7 L4623.83 11813.2 L4464.57 11813.2 L4464.57 11781.7 Z" fill="#000000" fill-rule="evenodd" fill-opacity="1" /><path clip-path="url(#clip5700)" d="M 0 0 M8537.92 11561.4 Q8509.03 11561.4 8494.4 11589.9 Q8479.96 11618.2 8479.96 11675.3 Q8479.96 11732.1 8494.4 11760.6 Q8509.03 11789 8537.92 11789 Q8567 11789 8581.44 11760.6 Q8596.07 11732.1 8596.07 11675.3 Q8596.07 11618.2 8581.44 11589.9 Q8567 11561.4 8537.92 11561.4 M8537.92 11531.7 Q8584.4 11531.7 8608.85 11568.6 Q8633.48 11605.3 8633.48 11675.3 Q8633.48 11745.1 8608.85 11781.9 Q8584.4 11818.6 8537.92 11818.6 Q8491.44 11818.6 8466.81 11781.9 Q8442.37 11745.1 8442.37 11675.3 Q8442.37 11605.3 8466.81 11568.6 Q8491.44 11531.7 8537.92 11531.7 Z" fill="#000000" fill-rule="evenodd" fill-opacity="1" /><path clip-path="url(#clip5700)" d="M 0 0 M8674.03 11766.2 L8713.11 11766.2 L8713.11 11813.2 L8674.03 11813.2 L8674.03 11766.2 Z" fill="#000000" fill-rule="evenodd" fill-opacity="1" /><path clip-path="url(#clip5700)" d="M 0 0 M8754.03 11536.7 L8900.88 11536.7 L8900.88 11568.2 L8788.29 11568.2 L8788.29 11636 Q8796.44 11633.2 8804.59 11631.9 Q8812.74 11630.4 8820.88 11630.4 Q8867.18 11630.4 8894.22 11655.8 Q8921.25 11681.2 8921.25 11724.5 Q8921.25 11769.1 8893.48 11794 Q8865.7 11818.6 8815.14 11818.6 Q8797.74 11818.6 8779.59 11815.6 Q8761.63 11812.7 8742.37 11806.7 L8742.37 11769.1 Q8759.03 11778.2 8776.81 11782.7 Q8794.59 11787.1 8814.4 11787.1 Q8846.44 11787.1 8865.14 11770.3 Q8883.85 11753.4 8883.85 11724.5 Q8883.85 11695.6 8865.14 11678.8 Q8846.44 11661.9 8814.4 11661.9 Q8799.4 11661.9 8784.4 11665.3 Q8769.59 11668.6 8754.03 11675.6 L8754.03 11536.7 Z" fill="#000000" fill-rule="evenodd" fill-opacity="1" /><path clip-path="url(#clip5700)" d="M 0 0 M8962.92 11807.5 L8962.92 11773.4 Q8976.99 11780.1 8991.44 11783.6 Q9005.88 11787.1 9019.77 11787.1 Q9056.81 11787.1 9076.25 11762.3 Q9095.88 11737.3 9098.66 11686.5 Q9087.92 11702.5 9071.44 11711 Q9054.96 11719.5 9034.96 11719.5 Q8993.48 11719.5 8969.22 11694.5 Q8945.14 11669.3 8945.14 11625.8 Q8945.14 11583.2 8970.33 11557.5 Q8995.51 11531.7 9037.36 11531.7 Q9085.33 11531.7 9110.51 11568.6 Q9135.88 11605.3 9135.88 11675.3 Q9135.88 11740.6 9104.77 11779.7 Q9073.85 11818.6 9021.44 11818.6 Q9007.36 11818.6 8992.92 11815.8 Q8978.48 11813 8962.92 11807.5 M9037.36 11690.3 Q9062.55 11690.3 9077.18 11673 Q9091.99 11655.8 9091.99 11625.8 Q9091.99 11596 9077.18 11578.8 Q9062.55 11561.4 9037.36 11561.4 Q9012.18 11561.4 8997.36 11578.8 Q8982.73 11596 8982.73 11625.8 Q8982.73 11655.8 8997.36 11673 Q9012.18 11690.3 9037.36 11690.3 Z" fill="#000000" fill-rule="evenodd" fill-opacity="1" /><path clip-path="url(#clip5700)" d="M 0 0 M9279.21 11569.3 L9184.77 11716.9 L9279.21 11716.9 L9279.21 11569.3 M9269.4 11536.7 L9316.44 11536.7 L9316.44 11716.9 L9355.88 11716.9 L9355.88 11748 L9316.44 11748 L9316.44 11813.2 L9279.21 11813.2 L9279.21 11748 L9154.4 11748 L9154.4 11711.9 L9269.4 11536.7 Z" fill="#000000" fill-rule="evenodd" fill-opacity="1" /><path clip-path="url(#clip5700)" d="M 0 0 M13268.7 11561.4 Q13239.8 11561.4 13225.2 11589.9 Q13210.7 11618.2 13210.7 11675.3 Q13210.7 11732.1 13225.2 11760.6 Q13239.8 11789 13268.7 11789 Q13297.8 11789 13312.2 11760.6 Q13326.8 11732.1 13326.8 11675.3 Q13326.8 11618.2 13312.2 11589.9 Q13297.8 11561.4 13268.7 11561.4 M13268.7 11531.7 Q13315.2 11531.7 13339.6 11568.6 Q13364.2 11605.3 13364.2 11675.3 Q13364.2 11745.1 13339.6 11781.9 Q13315.2 11818.6 13268.7 11818.6 Q13222.2 11818.6 13197.6 11781.9 Q13173.1 11745.1 13173.1 11675.3 Q13173.1 11605.3 13197.6 11568.6 Q13222.2 11531.7 13268.7 11531.7 Z" fill="#000000" fill-rule="evenodd" fill-opacity="1" /><path clip-path="url(#clip5700)" d="M 0 0 M13404.8 11766.2 L13443.9 11766.2 L13443.9 11813.2 L13404.8 11813.2 L13404.8 11766.2 Z" fill="#000000" fill-rule="evenodd" fill-opacity="1" /><path clip-path="url(#clip5700)" d="M 0 0 M13484.8 11536.7 L13631.6 11536.7 L13631.6 11568.2 L13519 11568.2 L13519 11636 Q13527.2 11633.2 13535.3 11631.9 Q13543.5 11630.4 13551.6 11630.4 Q13597.9 11630.4 13625 11655.8 Q13652 11681.2 13652 11724.5 Q13652 11769.1 13624.2 11794 Q13596.5 11818.6 13545.9 11818.6 Q13528.5 11818.6 13510.3 11815.6 Q13492.4 11812.7 13473.1 11806.7 L13473.1 11769.1 Q13489.8 11778.2 13507.6 11782.7 Q13525.3 11787.1 13545.2 11787.1 Q13577.2 11787.1 13595.9 11770.3 Q13614.6 11753.4 13614.6 11724.5 Q13614.6 11695.6 13595.9 11678.8 Q13577.2 11661.9 13545.2 11661.9 Q13530.2 11661.9 13515.2 11665.3 Q13500.3 11668.6 13484.8 11675.6 L13484.8 11536.7 Z" fill="#000000" fill-rule="evenodd" fill-opacity="1" /><path clip-path="url(#clip5700)" d="M 0 0 M13693.7 11807.5 L13693.7 11773.4 Q13707.8 11780.1 13722.2 11783.6 Q13736.6 11787.1 13750.5 11787.1 Q13787.6 11787.1 13807 11762.3 Q13826.6 11737.3 13829.4 11686.5 Q13818.7 11702.5 13802.2 11711 Q13785.7 11719.5 13765.7 11719.5 Q13724.2 11719.5 13700 11694.5 Q13675.9 11669.3 13675.9 11625.8 Q13675.9 11583.2 13701.1 11557.5 Q13726.3 11531.7 13768.1 11531.7 Q13816.1 11531.7 13841.3 11568.6 Q13866.6 11605.3 13866.6 11675.3 Q13866.6 11740.6 13835.5 11779.7 Q13804.6 11818.6 13752.2 11818.6 Q13738.1 11818.6 13723.7 11815.8 Q13709.2 11813 13693.7 11807.5 M13768.1 11690.3 Q13793.3 11690.3 13807.9 11673 Q13822.8 11655.8 13822.8 11625.8 Q13822.8 11596 13807.9 11578.8 Q13793.3 11561.4 13768.1 11561.4 Q13742.9 11561.4 13728.1 11578.8 Q13713.5 11596 13713.5 11625.8 Q13713.5 11655.8 13728.1 11673 Q13742.9 11690.3 13768.1 11690.3 Z" fill="#000000" fill-rule="evenodd" fill-opacity="1" /><path clip-path="url(#clip5700)" d="M 0 0 M13897.8 11536.7 L14075.5 11536.7 L14075.5 11552.7 L13975.2 11813.2 L13936.1 11813.2 L14030.5 11568.2 L13897.8 11568.2 L13897.8 11536.7 Z" fill="#000000" fill-rule="evenodd" fill-opacity="1" /><path clip-path="url(#clip5700)" d="M 0 0 M17984.9 11561.4 Q17956 11561.4 17941.4 11589.9 Q17926.9 11618.2 17926.9 11675.3 Q17926.9 11732.1 17941.4 11760.6 Q17956 11789 17984.9 11789 Q18014 11789 18028.4 11760.6 Q18043 11732.1 18043 11675.3 Q18043 11618.2 18028.4 11589.9 Q18014 11561.4 17984.9 11561.4 M17984.9 11531.7 Q18031.4 11531.7 18055.8 11568.6 Q18080.5 11605.3 18080.5 11675.3 Q18080.5 11745.1 18055.8 11781.9 Q18031.4 11818.6 17984.9 11818.6 Q17938.4 11818.6 17913.8 11781.9 Q17889.3 11745.1 17889.3 11675.3 Q17889.3 11605.3 17913.8 11568.6 Q17938.4 11531.7 17984.9 11531.7 Z" fill="#000000" fill-rule="evenodd" fill-opacity="1" /><path clip-path="url(#clip5700)" d="M 0 0 M18121 11766.2 L18160.1 11766.2 L18160.1 11813.2 L18121 11813.2 L18121 11766.2 Z" fill="#000000" fill-rule="evenodd" fill-opacity="1" /><path clip-path="url(#clip5700)" d="M 0 0 M18285.3 11660.1 Q18260.1 11660.1 18245.3 11677.3 Q18230.6 11694.5 18230.6 11724.5 Q18230.6 11754.3 18245.3 11771.7 Q18260.1 11789 18285.3 11789 Q18310.5 11789 18325.1 11771.7 Q18339.9 11754.3 18339.9 11724.5 Q18339.9 11694.5 18325.1 11677.3 Q18310.5 11660.1 18285.3 11660.1 M18359.5 11542.8 L18359.5 11576.9 Q18345.5 11570.3 18331 11566.7 Q18316.7 11563.2 18302.7 11563.2 Q18265.6 11563.2 18246 11588.2 Q18226.6 11613.2 18223.8 11663.8 Q18234.7 11647.7 18251.2 11639.1 Q18267.7 11630.4 18287.5 11630.4 Q18329.2 11630.4 18353.2 11655.8 Q18377.5 11681 18377.5 11724.5 Q18377.5 11767.1 18352.3 11792.8 Q18327.1 11818.6 18285.3 11818.6 Q18237.3 11818.6 18211.9 11781.9 Q18186.6 11745.1 18186.6 11675.3 Q18186.6 11609.7 18217.7 11570.8 Q18248.8 11531.7 18301.2 11531.7 Q18315.3 11531.7 18329.5 11534.5 Q18344 11537.3 18359.5 11542.8 Z" fill="#000000" fill-rule="evenodd" fill-opacity="1" /><path clip-path="url(#clip5700)" d="M 0 0 M18498 11561.4 Q18469.2 11561.4 18454.5 11589.9 Q18440.1 11618.2 18440.1 11675.3 Q18440.1 11732.1 18454.5 11760.6 Q18469.2 11789 18498 11789 Q18527.1 11789 18541.6 11760.6 Q18556.2 11732.1 18556.2 11675.3 Q18556.2 11618.2 18541.6 11589.9 Q18527.1 11561.4 18498 11561.4 M18498 11531.7 Q18544.5 11531.7 18569 11568.6 Q18593.6 11605.3 18593.6 11675.3 Q18593.6 11745.1 18569 11781.9 Q18544.5 11818.6 18498 11818.6 Q18451.6 11818.6 18426.9 11781.9 Q18402.5 11745.1 18402.5 11675.3 Q18402.5 11605.3 18426.9 11568.6 Q18451.6 11531.7 18498 11531.7 Z" fill="#000000" fill-rule="evenodd" fill-opacity="1" /><path clip-path="url(#clip5700)" d="M 0 0 M18714.2 11561.4 Q18685.3 11561.4 18670.6 11589.9 Q18656.2 11618.2 18656.2 11675.3 Q18656.2 11732.1 18670.6 11760.6 Q18685.3 11789 18714.2 11789 Q18743.2 11789 18757.7 11760.6 Q18772.3 11732.1 18772.3 11675.3 Q18772.3 11618.2 18757.7 11589.9 Q18743.2 11561.4 18714.2 11561.4 M18714.2 11531.7 Q18760.6 11531.7 18785.1 11568.6 Q18809.7 11605.3 18809.7 11675.3 Q18809.7 11745.1 18785.1 11781.9 Q18760.6 11818.6 18714.2 11818.6 Q18667.7 11818.6 18643 11781.9 Q18618.6 11745.1 18618.6 11675.3 Q18618.6 11605.3 18643 11568.6 Q18667.7 11531.7 18714.2 11531.7 Z" fill="#000000" fill-rule="evenodd" fill-opacity="1" /><path clip-path="url(#clip5700)" d="M 0 0 M1122.67 10560.5 Q1093.78 10560.5 1079.15 10589 Q1064.71 10617.3 1064.71 10674.4 Q1064.71 10731.2 1079.15 10759.7 Q1093.78 10788.1 1122.67 10788.1 Q1151.75 10788.1 1166.19 10759.7 Q1180.82 10731.2 1180.82 10674.4 Q1180.82 10617.3 1166.19 10589 Q1151.75 10560.5 1122.67 10560.5 M1122.67 10530.9 Q1169.15 10530.9 1193.6 10567.7 Q1218.23 10604.4 1218.23 10674.4 Q1218.23 10744.2 1193.6 10781 Q1169.15 10817.7 1122.67 10817.7 Q1076.19 10817.7 1051.56 10781 Q1027.12 10744.2 1027.12 10674.4 Q1027.12 10604.4 1051.56 10567.7 Q1076.19 10530.9 1122.67 10530.9 Z" fill="#000000" fill-rule="evenodd" fill-opacity="1" /><path clip-path="url(#clip5700)" d="M 0 0 M1258.78 10765.3 L1297.86 10765.3 L1297.86 10812.3 L1258.78 10812.3 L1258.78 10765.3 Z" fill="#000000" fill-rule="evenodd" fill-opacity="1" /><path clip-path="url(#clip5700)" d="M 0 0 M1423.04 10659.2 Q1397.86 10659.2 1383.04 10676.4 Q1368.41 10693.6 1368.41 10723.6 Q1368.41 10753.4 1383.04 10770.9 Q1397.86 10788.1 1423.04 10788.1 Q1448.23 10788.1 1462.86 10770.9 Q1477.67 10753.4 1477.67 10723.6 Q1477.67 10693.6 1462.86 10676.4 Q1448.23 10659.2 1423.04 10659.2 M1497.3 10542 L1497.3 10576 Q1483.23 10569.4 1468.78 10565.9 Q1454.52 10562.3 1440.45 10562.3 Q1403.41 10562.3 1383.78 10587.3 Q1364.34 10612.3 1361.56 10662.9 Q1372.49 10646.8 1388.97 10638.3 Q1405.45 10629.6 1425.26 10629.6 Q1466.93 10629.6 1491 10654.9 Q1515.26 10680.1 1515.26 10723.6 Q1515.26 10766.2 1490.08 10792 Q1464.89 10817.7 1423.04 10817.7 Q1375.08 10817.7 1349.71 10781 Q1324.34 10744.2 1324.34 10674.4 Q1324.34 10608.8 1355.45 10569.9 Q1386.56 10530.9 1438.97 10530.9 Q1453.04 10530.9 1467.3 10533.6 Q1481.75 10536.4 1497.3 10542 Z" fill="#000000" fill-rule="evenodd" fill-opacity="1" /><path clip-path="url(#clip5700)" d="M 0 0 M1669.15 10663.3 Q1696 10669 1711 10687.1 Q1726.19 10705.3 1726.19 10732 Q1726.19 10772.9 1698.04 10795.3 Q1669.89 10817.7 1618.04 10817.7 Q1600.63 10817.7 1582.12 10814.2 Q1563.78 10810.9 1544.15 10804 L1544.15 10767.9 Q1559.71 10777 1578.23 10781.6 Q1596.74 10786.2 1616.93 10786.2 Q1652.11 10786.2 1670.45 10772.3 Q1688.97 10758.4 1688.97 10732 Q1688.97 10707.5 1671.74 10693.8 Q1654.71 10679.9 1624.15 10679.9 L1591.93 10679.9 L1591.93 10649.2 L1625.63 10649.2 Q1653.23 10649.2 1667.86 10638.3 Q1682.49 10627.1 1682.49 10606.4 Q1682.49 10585.1 1667.3 10573.8 Q1652.3 10562.3 1624.15 10562.3 Q1608.78 10562.3 1591.19 10565.7 Q1573.6 10569 1552.49 10576 L1552.49 10542.7 Q1573.78 10536.8 1592.3 10533.8 Q1611 10530.9 1627.49 10530.9 Q1670.08 10530.9 1694.89 10550.3 Q1719.71 10569.6 1719.71 10602.5 Q1719.71 10625.5 1706.56 10641.4 Q1693.41 10657.1 1669.15 10663.3 Z" fill="#000000" fill-rule="evenodd" fill-opacity="1" /><path clip-path="url(#clip5700)" d="M 0 0 M1767.11 10535.9 L1913.97 10535.9 L1913.97 10567.3 L1801.37 10567.3 L1801.37 10635.1 Q1809.52 10632.3 1817.67 10631 Q1825.82 10629.6 1833.97 10629.6 Q1880.26 10629.6 1907.3 10654.9 Q1934.34 10680.3 1934.34 10723.6 Q1934.34 10768.3 1906.56 10793.1 Q1878.78 10817.7 1828.23 10817.7 Q1810.82 10817.7 1792.67 10814.7 Q1774.71 10811.8 1755.45 10805.9 L1755.45 10768.3 Q1772.11 10777.3 1789.89 10781.8 Q1807.67 10786.2 1827.48 10786.2 Q1859.52 10786.2 1878.22 10769.4 Q1896.93 10752.5 1896.93 10723.6 Q1896.93 10694.7 1878.22 10677.9 Q1859.52 10661 1827.48 10661 Q1812.48 10661 1797.48 10664.4 Q1782.67 10667.7 1767.11 10674.7 L1767.11 10535.9 Z" fill="#000000" fill-rule="evenodd" fill-opacity="1" /><path clip-path="url(#clip5700)" d="M 0 0 M1105.64 9043.02 Q1076.75 9043.02 1062.12 9071.54 Q1047.67 9099.88 1047.67 9156.91 Q1047.67 9213.76 1062.12 9242.28 Q1076.75 9270.62 1105.64 9270.62 Q1134.71 9270.62 1149.15 9242.28 Q1163.78 9213.76 1163.78 9156.91 Q1163.78 9099.88 1149.15 9071.54 Q1134.71 9043.02 1105.64 9043.02 M1105.64 9013.39 Q1152.12 9013.39 1176.56 9050.25 Q1201.19 9086.91 1201.19 9156.91 Q1201.19 9226.73 1176.56 9263.58 Q1152.12 9300.25 1105.64 9300.25 Q1059.16 9300.25 1034.53 9263.58 Q1010.08 9226.73 1010.08 9156.91 Q1010.08 9086.91 1034.53 9050.25 Q1059.16 9013.39 1105.64 9013.39 Z" fill="#000000" fill-rule="evenodd" fill-opacity="1" /><path clip-path="url(#clip5700)" d="M 0 0 M1241.75 9247.84 L1280.82 9247.84 L1280.82 9294.87 L1241.75 9294.87 L1241.75 9247.84 Z" fill="#000000" fill-rule="evenodd" fill-opacity="1" /><path clip-path="url(#clip5700)" d="M 0 0 M1406.01 9141.73 Q1380.82 9141.73 1366.01 9158.95 Q1351.38 9176.17 1351.38 9206.17 Q1351.38 9235.99 1366.01 9253.39 Q1380.82 9270.62 1406.01 9270.62 Q1431.19 9270.62 1445.82 9253.39 Q1460.63 9235.99 1460.63 9206.17 Q1460.63 9176.17 1445.82 9158.95 Q1431.19 9141.73 1406.01 9141.73 M1480.26 9024.51 L1480.26 9058.58 Q1466.19 9051.91 1451.75 9048.39 Q1437.49 9044.88 1423.41 9044.88 Q1386.38 9044.88 1366.75 9069.88 Q1347.3 9094.88 1344.52 9145.43 Q1355.45 9129.32 1371.93 9120.8 Q1388.41 9112.1 1408.23 9112.1 Q1449.89 9112.1 1473.97 9137.47 Q1498.23 9162.65 1498.23 9206.17 Q1498.23 9248.76 1473.04 9274.5 Q1447.86 9300.25 1406.01 9300.25 Q1358.04 9300.25 1332.67 9263.58 Q1307.3 9226.73 1307.3 9156.91 Q1307.3 9091.36 1338.41 9052.47 Q1369.52 9013.39 1421.93 9013.39 Q1436 9013.39 1450.26 9016.17 Q1464.71 9018.95 1480.26 9024.51 Z" fill="#000000" fill-rule="evenodd" fill-opacity="1" /><path clip-path="url(#clip5700)" d="M 0 0 M1641.56 9050.99 L1547.12 9198.58 L1641.56 9198.58 L1641.56 9050.99 M1631.74 9018.39 L1678.78 9018.39 L1678.78 9198.58 L1718.23 9198.58 L1718.23 9229.69 L1678.78 9229.69 L1678.78 9294.87 L1641.56 9294.87 L1641.56 9229.69 L1516.75 9229.69 L1516.75 9193.58 L1631.74 9018.39 Z" fill="#000000" fill-rule="evenodd" fill-opacity="1" /><path clip-path="url(#clip5700)" d="M 0 0 M1838.78 9043.02 Q1809.89 9043.02 1795.26 9071.54 Q1780.82 9099.88 1780.82 9156.91 Q1780.82 9213.76 1795.26 9242.28 Q1809.89 9270.62 1838.78 9270.62 Q1867.85 9270.62 1882.3 9242.28 Q1896.93 9213.76 1896.93 9156.91 Q1896.93 9099.88 1882.3 9071.54 Q1867.85 9043.02 1838.78 9043.02 M1838.78 9013.39 Q1885.26 9013.39 1909.71 9050.25 Q1934.34 9086.91 1934.34 9156.91 Q1934.34 9226.73 1909.71 9263.58 Q1885.26 9300.25 1838.78 9300.25 Q1792.3 9300.25 1767.67 9263.58 Q1743.23 9226.73 1743.23 9156.91 Q1743.23 9086.91 1767.67 9050.25 Q1792.3 9013.39 1838.78 9013.39 Z" fill="#000000" fill-rule="evenodd" fill-opacity="1" /><path clip-path="url(#clip5700)" d="M 0 0 M1113.6 7525.57 Q1084.71 7525.57 1070.08 7554.08 Q1055.64 7582.42 1055.64 7639.45 Q1055.64 7696.31 1070.08 7724.82 Q1084.71 7753.16 1113.6 7753.16 Q1142.67 7753.16 1157.12 7724.82 Q1171.75 7696.31 1171.75 7639.45 Q1171.75 7582.42 1157.12 7554.08 Q1142.67 7525.57 1113.6 7525.57 M1113.6 7495.94 Q1160.08 7495.94 1184.52 7532.79 Q1209.15 7569.45 1209.15 7639.45 Q1209.15 7709.27 1184.52 7746.12 Q1160.08 7782.79 1113.6 7782.79 Q1067.12 7782.79 1042.49 7746.12 Q1018.04 7709.27 1018.04 7639.45 Q1018.04 7569.45 1042.49 7532.79 Q1067.12 7495.94 1113.6 7495.94 Z" fill="#000000" fill-rule="evenodd" fill-opacity="1" /><path clip-path="url(#clip5700)" d="M 0 0 M1249.71 7730.38 L1288.78 7730.38 L1288.78 7777.42 L1249.71 7777.42 L1249.71 7730.38 Z" fill="#000000" fill-rule="evenodd" fill-opacity="1" /><path clip-path="url(#clip5700)" d="M 0 0 M1413.97 7624.27 Q1388.78 7624.27 1373.97 7641.49 Q1359.34 7658.71 1359.34 7688.71 Q1359.34 7718.53 1373.97 7735.94 Q1388.78 7753.16 1413.97 7753.16 Q1439.15 7753.16 1453.78 7735.94 Q1468.6 7718.53 1468.6 7688.71 Q1468.6 7658.71 1453.78 7641.49 Q1439.15 7624.27 1413.97 7624.27 M1488.23 7507.05 L1488.23 7541.12 Q1474.15 7534.45 1459.71 7530.94 Q1445.45 7527.42 1431.38 7527.42 Q1394.34 7527.42 1374.71 7552.42 Q1355.26 7577.42 1352.49 7627.97 Q1363.41 7611.86 1379.89 7603.34 Q1396.38 7594.64 1416.19 7594.64 Q1457.86 7594.64 1481.93 7620.01 Q1506.19 7645.19 1506.19 7688.71 Q1506.19 7731.31 1481 7757.05 Q1455.82 7782.79 1413.97 7782.79 Q1366.01 7782.79 1340.64 7746.12 Q1315.26 7709.27 1315.26 7639.45 Q1315.26 7573.9 1346.38 7535.01 Q1377.49 7495.94 1429.89 7495.94 Q1443.97 7495.94 1458.23 7498.71 Q1472.67 7501.49 1488.23 7507.05 Z" fill="#000000" fill-rule="evenodd" fill-opacity="1" /><path clip-path="url(#clip5700)" d="M 0 0 M1649.52 7533.53 L1555.08 7681.12 L1649.52 7681.12 L1649.52 7533.53 M1639.71 7500.94 L1686.74 7500.94 L1686.74 7681.12 L1726.19 7681.12 L1726.19 7712.23 L1686.74 7712.23 L1686.74 7777.42 L1649.52 7777.42 L1649.52 7712.23 L1524.71 7712.23 L1524.71 7676.12 L1639.71 7500.94 Z" fill="#000000" fill-rule="evenodd" fill-opacity="1" /><path clip-path="url(#clip5700)" d="M 0 0 M1767.11 7500.94 L1913.97 7500.94 L1913.97 7532.42 L1801.37 7532.42 L1801.37 7600.2 Q1809.52 7597.42 1817.67 7596.12 Q1825.82 7594.64 1833.97 7594.64 Q1880.26 7594.64 1907.3 7620.01 Q1934.34 7645.38 1934.34 7688.71 Q1934.34 7733.34 1906.56 7758.16 Q1878.78 7782.79 1828.23 7782.79 Q1810.82 7782.79 1792.67 7779.82 Q1774.71 7776.86 1755.45 7770.93 L1755.45 7733.34 Q1772.11 7742.42 1789.89 7746.86 Q1807.67 7751.31 1827.48 7751.31 Q1859.52 7751.31 1878.22 7734.45 Q1896.93 7717.6 1896.93 7688.71 Q1896.93 7659.82 1878.22 7642.97 Q1859.52 7626.12 1827.48 7626.12 Q1812.48 7626.12 1797.48 7629.45 Q1782.67 7632.79 1767.11 7639.82 L1767.11 7500.94 Z" fill="#000000" fill-rule="evenodd" fill-opacity="1" /><path clip-path="url(#clip5700)" d="M 0 0 M1117.49 6008.11 Q1088.6 6008.11 1073.97 6036.63 Q1059.53 6064.96 1059.53 6122 Q1059.53 6178.85 1073.97 6207.37 Q1088.6 6235.7 1117.49 6235.7 Q1146.56 6235.7 1161.01 6207.37 Q1175.64 6178.85 1175.64 6122 Q1175.64 6064.96 1161.01 6036.63 Q1146.56 6008.11 1117.49 6008.11 M1117.49 5978.48 Q1163.97 5978.48 1188.41 6015.33 Q1213.04 6052 1213.04 6122 Q1213.04 6191.81 1188.41 6228.66 Q1163.97 6265.33 1117.49 6265.33 Q1071.01 6265.33 1046.38 6228.66 Q1021.93 6191.81 1021.93 6122 Q1021.93 6052 1046.38 6015.33 Q1071.01 5978.48 1117.49 5978.48 Z" fill="#000000" fill-rule="evenodd" fill-opacity="1" /><path clip-path="url(#clip5700)" d="M 0 0 M1253.6 6212.92 L1292.67 6212.92 L1292.67 6259.96 L1253.6 6259.96 L1253.6 6212.92 Z" fill="#000000" fill-rule="evenodd" fill-opacity="1" /><path clip-path="url(#clip5700)" d="M 0 0 M1417.86 6106.81 Q1392.67 6106.81 1377.86 6124.03 Q1363.23 6141.25 1363.23 6171.25 Q1363.23 6201.07 1377.86 6218.48 Q1392.67 6235.7 1417.86 6235.7 Q1443.04 6235.7 1457.67 6218.48 Q1472.49 6201.07 1472.49 6171.25 Q1472.49 6141.25 1457.67 6124.03 Q1443.04 6106.81 1417.86 6106.81 M1492.12 5989.59 L1492.12 6023.66 Q1478.04 6017 1463.6 6013.48 Q1449.34 6009.96 1435.26 6009.96 Q1398.23 6009.96 1378.6 6034.96 Q1359.15 6059.96 1356.38 6110.51 Q1367.3 6094.4 1383.78 6085.88 Q1400.26 6077.18 1420.08 6077.18 Q1461.75 6077.18 1485.82 6102.55 Q1510.08 6127.74 1510.08 6171.25 Q1510.08 6213.85 1484.89 6239.59 Q1459.71 6265.33 1417.86 6265.33 Q1369.89 6265.33 1344.52 6228.66 Q1319.15 6191.81 1319.15 6122 Q1319.15 6056.44 1350.26 6017.55 Q1381.38 5978.48 1433.78 5978.48 Q1447.86 5978.48 1462.12 5981.26 Q1476.56 5984.03 1492.12 5989.59 Z" fill="#000000" fill-rule="evenodd" fill-opacity="1" /><path clip-path="url(#clip5700)" d="M 0 0 M1551 5983.48 L1697.86 5983.48 L1697.86 6014.96 L1585.26 6014.96 L1585.26 6082.74 Q1593.41 6079.96 1601.56 6078.66 Q1609.71 6077.18 1617.86 6077.18 Q1664.15 6077.18 1691.19 6102.55 Q1718.23 6127.92 1718.23 6171.25 Q1718.23 6215.88 1690.45 6240.7 Q1662.67 6265.33 1612.12 6265.33 Q1594.71 6265.33 1576.56 6262.37 Q1558.6 6259.4 1539.34 6253.48 L1539.34 6215.88 Q1556 6224.96 1573.78 6229.4 Q1591.56 6233.85 1611.37 6233.85 Q1643.41 6233.85 1662.11 6216.99 Q1680.82 6200.14 1680.82 6171.25 Q1680.82 6142.37 1662.11 6125.51 Q1643.41 6108.66 1611.37 6108.66 Q1596.37 6108.66 1581.37 6112 Q1566.56 6115.33 1551 6122.37 L1551 5983.48 Z" fill="#000000" fill-rule="evenodd" fill-opacity="1" /><path clip-path="url(#clip5700)" d="M 0 0 M1838.78 6008.11 Q1809.89 6008.11 1795.26 6036.63 Q1780.82 6064.96 1780.82 6122 Q1780.82 6178.85 1795.26 6207.37 Q1809.89 6235.7 1838.78 6235.7 Q1867.85 6235.7 1882.3 6207.37 Q1896.93 6178.85 1896.93 6122 Q1896.93 6064.96 1882.3 6036.63 Q1867.85 6008.11 1838.78 6008.11 M1838.78 5978.48 Q1885.26 5978.48 1909.71 6015.33 Q1934.34 6052 1934.34 6122 Q1934.34 6191.81 1909.71 6228.66 Q1885.26 6265.33 1838.78 6265.33 Q1792.3 6265.33 1767.67 6228.66 Q1743.23 6191.81 1743.23 6122 Q1743.23 6052 1767.67 6015.33 Q1792.3 5978.48 1838.78 5978.48 Z" fill="#000000" fill-rule="evenodd" fill-opacity="1" /><path clip-path="url(#clip5700)" d="M 0 0 M1125.45 4490.65 Q1096.56 4490.65 1081.93 4519.17 Q1067.49 4547.5 1067.49 4604.54 Q1067.49 4661.39 1081.93 4689.91 Q1096.56 4718.24 1125.45 4718.24 Q1154.52 4718.24 1168.97 4689.91 Q1183.6 4661.39 1183.6 4604.54 Q1183.6 4547.5 1168.97 4519.17 Q1154.52 4490.65 1125.45 4490.65 M1125.45 4461.02 Q1171.93 4461.02 1196.38 4497.87 Q1221.01 4534.54 1221.01 4604.54 Q1221.01 4674.35 1196.38 4711.2 Q1171.93 4747.87 1125.45 4747.87 Q1078.97 4747.87 1054.34 4711.2 Q1029.9 4674.35 1029.9 4604.54 Q1029.9 4534.54 1054.34 4497.87 Q1078.97 4461.02 1125.45 4461.02 Z" fill="#000000" fill-rule="evenodd" fill-opacity="1" /><path clip-path="url(#clip5700)" d="M 0 0 M1261.56 4695.46 L1300.64 4695.46 L1300.64 4742.5 L1261.56 4742.5 L1261.56 4695.46 Z" fill="#000000" fill-rule="evenodd" fill-opacity="1" /><path clip-path="url(#clip5700)" d="M 0 0 M1425.82 4589.35 Q1400.63 4589.35 1385.82 4606.57 Q1371.19 4623.8 1371.19 4653.8 Q1371.19 4683.61 1385.82 4701.02 Q1400.63 4718.24 1425.82 4718.24 Q1451 4718.24 1465.63 4701.02 Q1480.45 4683.61 1480.45 4653.8 Q1480.45 4623.8 1465.63 4606.57 Q1451 4589.35 1425.82 4589.35 M1500.08 4472.13 L1500.08 4506.2 Q1486 4499.54 1471.56 4496.02 Q1457.3 4492.5 1443.23 4492.5 Q1406.19 4492.5 1386.56 4517.5 Q1367.12 4542.5 1364.34 4593.06 Q1375.26 4576.94 1391.75 4568.43 Q1408.23 4559.72 1428.04 4559.72 Q1469.71 4559.72 1493.78 4585.09 Q1518.04 4610.28 1518.04 4653.8 Q1518.04 4696.39 1492.86 4722.13 Q1467.67 4747.87 1425.82 4747.87 Q1377.86 4747.87 1352.49 4711.2 Q1327.12 4674.35 1327.12 4604.54 Q1327.12 4538.98 1358.23 4500.09 Q1389.34 4461.02 1441.75 4461.02 Q1455.82 4461.02 1470.08 4463.8 Q1484.52 4466.57 1500.08 4472.13 Z" fill="#000000" fill-rule="evenodd" fill-opacity="1" /><path clip-path="url(#clip5700)" d="M 0 0 M1558.97 4466.02 L1705.82 4466.02 L1705.82 4497.5 L1593.23 4497.5 L1593.23 4565.28 Q1601.37 4562.5 1609.52 4561.2 Q1617.67 4559.72 1625.82 4559.72 Q1672.11 4559.72 1699.15 4585.09 Q1726.19 4610.46 1726.19 4653.8 Q1726.19 4698.43 1698.41 4723.24 Q1670.63 4747.87 1620.08 4747.87 Q1602.67 4747.87 1584.52 4744.91 Q1566.56 4741.94 1547.3 4736.02 L1547.3 4698.43 Q1563.97 4707.5 1581.74 4711.94 Q1599.52 4716.39 1619.34 4716.39 Q1651.37 4716.39 1670.08 4699.54 Q1688.78 4682.68 1688.78 4653.8 Q1688.78 4624.91 1670.08 4608.06 Q1651.37 4591.2 1619.34 4591.2 Q1604.34 4591.2 1589.34 4594.54 Q1574.52 4597.87 1558.97 4604.91 L1558.97 4466.02 Z" fill="#000000" fill-rule="evenodd" fill-opacity="1" /><path clip-path="url(#clip5700)" d="M 0 0 M1767.11 4466.02 L1913.97 4466.02 L1913.97 4497.5 L1801.37 4497.5 L1801.37 4565.28 Q1809.52 4562.5 1817.67 4561.2 Q1825.82 4559.72 1833.97 4559.72 Q1880.26 4559.72 1907.3 4585.09 Q1934.34 4610.46 1934.34 4653.8 Q1934.34 4698.43 1906.56 4723.24 Q1878.78 4747.87 1828.23 4747.87 Q1810.82 4747.87 1792.67 4744.91 Q1774.71 4741.94 1755.45 4736.02 L1755.45 4698.43 Q1772.11 4707.5 1789.89 4711.94 Q1807.67 4716.39 1827.48 4716.39 Q1859.52 4716.39 1878.22 4699.54 Q1896.93 4682.68 1896.93 4653.8 Q1896.93 4624.91 1878.22 4608.06 Q1859.52 4591.2 1827.48 4591.2 Q1812.48 4591.2 1797.48 4594.54 Q1782.67 4597.87 1767.11 4604.91 L1767.11 4466.02 Z" fill="#000000" fill-rule="evenodd" fill-opacity="1" /><path clip-path="url(#clip5700)" d="M 0 0 M1108.23 2973.19 Q1079.34 2973.19 1064.71 3001.71 Q1050.27 3030.04 1050.27 3087.08 Q1050.27 3143.93 1064.71 3172.45 Q1079.34 3200.78 1108.23 3200.78 Q1137.3 3200.78 1151.75 3172.45 Q1166.38 3143.93 1166.38 3087.08 Q1166.38 3030.04 1151.75 3001.71 Q1137.3 2973.19 1108.23 2973.19 M1108.23 2943.56 Q1154.71 2943.56 1179.15 2980.41 Q1203.78 3017.08 1203.78 3087.08 Q1203.78 3156.89 1179.15 3193.74 Q1154.71 3230.41 1108.23 3230.41 Q1061.75 3230.41 1037.12 3193.74 Q1012.67 3156.89 1012.67 3087.08 Q1012.67 3017.08 1037.12 2980.41 Q1061.75 2943.56 1108.23 2943.56 Z" fill="#000000" fill-rule="evenodd" fill-opacity="1" /><path clip-path="url(#clip5700)" d="M 0 0 M1244.34 3178 L1283.41 3178 L1283.41 3225.04 L1244.34 3225.04 L1244.34 3178 Z" fill="#000000" fill-rule="evenodd" fill-opacity="1" /><path clip-path="url(#clip5700)" d="M 0 0 M1408.6 3071.89 Q1383.41 3071.89 1368.6 3089.12 Q1353.97 3106.34 1353.97 3136.34 Q1353.97 3166.15 1368.6 3183.56 Q1383.41 3200.78 1408.6 3200.78 Q1433.78 3200.78 1448.41 3183.56 Q1463.23 3166.15 1463.23 3136.34 Q1463.23 3106.34 1448.41 3089.12 Q1433.78 3071.89 1408.6 3071.89 M1482.86 2954.67 L1482.86 2988.75 Q1468.78 2982.08 1454.34 2978.56 Q1440.08 2975.04 1426 2975.04 Q1388.97 2975.04 1369.34 3000.04 Q1349.89 3025.04 1347.12 3075.6 Q1358.04 3059.49 1374.52 3050.97 Q1391.01 3042.26 1410.82 3042.26 Q1452.49 3042.26 1476.56 3067.63 Q1500.82 3092.82 1500.82 3136.34 Q1500.82 3178.93 1475.63 3204.67 Q1450.45 3230.41 1408.6 3230.41 Q1360.63 3230.41 1335.26 3193.74 Q1309.89 3156.89 1309.89 3087.08 Q1309.89 3021.52 1341.01 2982.63 Q1372.12 2943.56 1424.52 2943.56 Q1438.6 2943.56 1452.86 2946.34 Q1467.3 2949.12 1482.86 2954.67 Z" fill="#000000" fill-rule="evenodd" fill-opacity="1" /><path clip-path="url(#clip5700)" d="M 0 0 M1626 3071.89 Q1600.82 3071.89 1586 3089.12 Q1571.37 3106.34 1571.37 3136.34 Q1571.37 3166.15 1586 3183.56 Q1600.82 3200.78 1626 3200.78 Q1651.19 3200.78 1665.82 3183.56 Q1680.63 3166.15 1680.63 3136.34 Q1680.63 3106.34 1665.82 3089.12 Q1651.19 3071.89 1626 3071.89 M1700.26 2954.67 L1700.26 2988.75 Q1686.19 2982.08 1671.74 2978.56 Q1657.49 2975.04 1643.41 2975.04 Q1606.37 2975.04 1586.74 3000.04 Q1567.3 3025.04 1564.52 3075.6 Q1575.45 3059.49 1591.93 3050.97 Q1608.41 3042.26 1628.23 3042.26 Q1669.89 3042.26 1693.97 3067.63 Q1718.23 3092.82 1718.23 3136.34 Q1718.23 3178.93 1693.04 3204.67 Q1667.86 3230.41 1626 3230.41 Q1578.04 3230.41 1552.67 3193.74 Q1527.3 3156.89 1527.3 3087.08 Q1527.3 3021.52 1558.41 2982.63 Q1589.52 2943.56 1641.93 2943.56 Q1656 2943.56 1670.26 2946.34 Q1684.71 2949.12 1700.26 2954.67 Z" fill="#000000" fill-rule="evenodd" fill-opacity="1" /><path clip-path="url(#clip5700)" d="M 0 0 M1838.78 2973.19 Q1809.89 2973.19 1795.26 3001.71 Q1780.82 3030.04 1780.82 3087.08 Q1780.82 3143.93 1795.26 3172.45 Q1809.89 3200.78 1838.78 3200.78 Q1867.85 3200.78 1882.3 3172.45 Q1896.93 3143.93 1896.93 3087.08 Q1896.93 3030.04 1882.3 3001.71 Q1867.85 2973.19 1838.78 2973.19 M1838.78 2943.56 Q1885.26 2943.56 1909.71 2980.41 Q1934.34 3017.08 1934.34 3087.08 Q1934.34 3156.89 1909.71 3193.74 Q1885.26 3230.41 1838.78 3230.41 Q1792.3 3230.41 1767.67 3193.74 Q1743.23 3156.89 1743.23 3087.08 Q1743.23 3017.08 1767.67 2980.41 Q1792.3 2943.56 1838.78 2943.56 Z" fill="#000000" fill-rule="evenodd" fill-opacity="1" /><path clip-path="url(#clip5700)" d="M 0 0 M1116.19 1455.73 Q1087.3 1455.73 1072.67 1484.25 Q1058.23 1512.58 1058.23 1569.62 Q1058.23 1626.47 1072.67 1654.99 Q1087.3 1683.32 1116.19 1683.32 Q1145.27 1683.32 1159.71 1654.99 Q1174.34 1626.47 1174.34 1569.62 Q1174.34 1512.58 1159.71 1484.25 Q1145.27 1455.73 1116.19 1455.73 M1116.19 1426.1 Q1162.67 1426.1 1187.12 1462.95 Q1211.75 1499.62 1211.75 1569.62 Q1211.75 1639.43 1187.12 1676.29 Q1162.67 1712.95 1116.19 1712.95 Q1069.71 1712.95 1045.08 1676.29 Q1020.64 1639.43 1020.64 1569.62 Q1020.64 1499.62 1045.08 1462.95 Q1069.71 1426.1 1116.19 1426.1 Z" fill="#000000" fill-rule="evenodd" fill-opacity="1" /><path clip-path="url(#clip5700)" d="M 0 0 M1252.3 1660.55 L1291.38 1660.55 L1291.38 1707.58 L1252.3 1707.58 L1252.3 1660.55 Z" fill="#000000" fill-rule="evenodd" fill-opacity="1" /><path clip-path="url(#clip5700)" d="M 0 0 M1416.56 1554.43 Q1391.38 1554.43 1376.56 1571.66 Q1361.93 1588.88 1361.93 1618.88 Q1361.93 1648.69 1376.56 1666.1 Q1391.38 1683.32 1416.56 1683.32 Q1441.75 1683.32 1456.38 1666.1 Q1471.19 1648.69 1471.19 1618.88 Q1471.19 1588.88 1456.38 1571.66 Q1441.75 1554.43 1416.56 1554.43 M1490.82 1437.21 L1490.82 1471.29 Q1476.75 1464.62 1462.3 1461.1 Q1448.04 1457.58 1433.97 1457.58 Q1396.93 1457.58 1377.3 1482.58 Q1357.86 1507.58 1355.08 1558.14 Q1366.01 1542.03 1382.49 1533.51 Q1398.97 1524.81 1418.78 1524.81 Q1460.45 1524.81 1484.52 1550.18 Q1508.78 1575.36 1508.78 1618.88 Q1508.78 1661.47 1483.6 1687.21 Q1458.41 1712.95 1416.56 1712.95 Q1368.6 1712.95 1343.23 1676.29 Q1317.86 1639.43 1317.86 1569.62 Q1317.86 1504.06 1348.97 1465.18 Q1380.08 1426.1 1432.49 1426.1 Q1446.56 1426.1 1460.82 1428.88 Q1475.26 1431.66 1490.82 1437.21 Z" fill="#000000" fill-rule="evenodd" fill-opacity="1" /><path clip-path="url(#clip5700)" d="M 0 0 M1633.97 1554.43 Q1608.78 1554.43 1593.97 1571.66 Q1579.34 1588.88 1579.34 1618.88 Q1579.34 1648.69 1593.97 1666.1 Q1608.78 1683.32 1633.97 1683.32 Q1659.15 1683.32 1673.78 1666.1 Q1688.6 1648.69 1688.6 1618.88 Q1688.6 1588.88 1673.78 1571.66 Q1659.15 1554.43 1633.97 1554.43 M1708.23 1437.21 L1708.23 1471.29 Q1694.15 1464.62 1679.71 1461.1 Q1665.45 1457.58 1651.37 1457.58 Q1614.34 1457.58 1594.71 1482.58 Q1575.26 1507.58 1572.49 1558.14 Q1583.41 1542.03 1599.89 1533.51 Q1616.37 1524.81 1636.19 1524.81 Q1677.86 1524.81 1701.93 1550.18 Q1726.19 1575.36 1726.19 1618.88 Q1726.19 1661.47 1701 1687.21 Q1675.82 1712.95 1633.97 1712.95 Q1586 1712.95 1560.63 1676.29 Q1535.26 1639.43 1535.26 1569.62 Q1535.26 1504.06 1566.37 1465.18 Q1597.49 1426.1 1649.89 1426.1 Q1663.97 1426.1 1678.23 1428.88 Q1692.67 1431.66 1708.23 1437.21 Z" fill="#000000" fill-rule="evenodd" fill-opacity="1" /><path clip-path="url(#clip5700)" d="M 0 0 M1767.11 1431.1 L1913.97 1431.1 L1913.97 1462.58 L1801.37 1462.58 L1801.37 1530.36 Q1809.52 1527.58 1817.67 1526.29 Q1825.82 1524.81 1833.97 1524.81 Q1880.26 1524.81 1907.3 1550.18 Q1934.34 1575.55 1934.34 1618.88 Q1934.34 1663.51 1906.56 1688.32 Q1878.78 1712.95 1828.23 1712.95 Q1810.82 1712.95 1792.67 1709.99 Q1774.71 1707.03 1755.45 1701.1 L1755.45 1663.51 Q1772.11 1672.58 1789.89 1677.03 Q1807.67 1681.47 1827.48 1681.47 Q1859.52 1681.47 1878.22 1664.62 Q1896.93 1647.77 1896.93 1618.88 Q1896.93 1589.99 1878.22 1573.14 Q1859.52 1556.29 1827.48 1556.29 Q1812.48 1556.29 1797.48 1559.62 Q1782.67 1562.95 1767.11 1569.99 L1767.11 1431.1 Z" fill="#000000" fill-rule="evenodd" fill-opacity="1" /><path clip-path="url(#clip5700)" d="M 0 0 M5874.96 228.341 L5874.96 284.73 Q5849.68 271.767 5822.46 265.286 Q5795.23 258.804 5766.07 258.804 Q5721.67 258.804 5699.31 272.415 Q5677.27 286.026 5677.27 313.248 Q5677.27 333.989 5693.15 345.98 Q5709.03 357.646 5756.99 368.341 L5777.41 372.878 Q5840.93 386.489 5867.5 411.442 Q5894.4 436.072 5894.4 480.47 Q5894.4 531.025 5854.22 560.516 Q5814.36 590.006 5744.36 590.006 Q5715.19 590.006 5683.43 584.173 Q5652 578.664 5617 567.321 L5617 505.747 Q5650.05 522.923 5682.13 531.673 Q5714.22 540.099 5745.65 540.099 Q5787.78 540.099 5810.47 525.84 Q5833.15 511.257 5833.15 485.007 Q5833.15 460.701 5816.62 447.738 Q5800.42 434.775 5745 422.785 L5724.26 417.924 Q5668.85 406.257 5644.22 382.276 Q5619.59 357.97 5619.59 315.841 Q5619.59 264.637 5655.88 236.767 Q5692.18 208.897 5758.94 208.897 Q5791.99 208.897 5821.16 213.758 Q5850.33 218.619 5874.96 228.341 Z" fill="#000000" fill-rule="evenodd" fill-opacity="1" /><path clip-path="url(#clip5700)" d="M 0 0 M5956.95 217.647 L6016.58 217.647 L6016.58 580.608 L5956.95 580.608 L5956.95 217.647 M5956.95 76.3514 L6016.58 76.3514 L6016.58 151.86 L5956.95 151.86 L5956.95 76.3514 Z" fill="#000000" fill-rule="evenodd" fill-opacity="1" /><path clip-path="url(#clip5700)" d="M 0 0 M6053.2 217.647 L6336.44 217.647 L6336.44 272.091 L6112.18 532.969 L6336.44 532.969 L6336.44 580.608 L6045.09 580.608 L6045.09 526.164 L6269.35 265.286 L6053.2 265.286 L6053.2 217.647 Z" fill="#000000" fill-rule="evenodd" fill-opacity="1" /><path clip-path="url(#clip5700)" d="M 0 0 M6709.44 384.22 L6709.44 413.387 L6435.28 413.387 Q6439.17 474.96 6472.22 507.368 Q6505.6 539.451 6564.91 539.451 Q6599.26 539.451 6631.34 531.025 Q6663.75 522.599 6695.51 505.747 L6695.51 562.136 Q6663.42 575.747 6629.72 582.877 Q6596.02 590.006 6561.34 590.006 Q6474.49 590.006 6423.61 539.451 Q6373.06 488.896 6373.06 402.692 Q6373.06 313.572 6421.02 261.397 Q6469.31 208.897 6550.97 208.897 Q6624.21 208.897 6666.67 256.212 Q6709.44 303.202 6709.44 384.22 M6649.81 366.72 Q6649.17 317.785 6622.27 288.619 Q6595.69 259.452 6551.62 259.452 Q6501.71 259.452 6471.57 287.647 Q6441.76 315.841 6437.22 367.044 L6649.81 366.72 Z" fill="#000000" fill-rule="evenodd" fill-opacity="1" /><path clip-path="url(#clip5700)" d="M 0 0 M6787.22 498.294 L6855.6 498.294 L6855.6 580.608 L6787.22 580.608 L6787.22 498.294 M6787.22 237.415 L6855.6 237.415 L6855.6 319.73 L6787.22 319.73 L6787.22 237.415 Z" fill="#000000" fill-rule="evenodd" fill-opacity="1" /><path clip-path="url(#clip5700)" d="M 0 0 M7074.67 312.6 Q7030.6 312.6 7004.67 342.739 Q6979.07 372.878 6979.07 425.377 Q6979.07 477.553 7004.67 508.016 Q7030.6 538.155 7074.67 538.155 Q7118.75 538.155 7144.35 508.016 Q7170.27 477.553 7170.27 425.377 Q7170.27 372.878 7144.35 342.739 Q7118.75 312.6 7074.67 312.6 M7204.63 107.462 L7204.63 167.092 Q7180 155.425 7154.72 149.268 Q7129.76 143.11 7105.14 143.11 Q7040.32 143.11 7005.97 186.86 Q6971.94 230.61 6967.08 319.082 Q6986.2 290.887 7015.04 275.98 Q7043.89 260.749 7078.56 260.749 Q7151.48 260.749 7193.61 305.147 Q7236.06 349.22 7236.06 425.377 Q7236.06 499.914 7191.99 544.96 Q7147.91 590.006 7074.67 590.006 Q6990.74 590.006 6946.34 525.84 Q6901.94 461.349 6901.94 339.174 Q6901.94 224.453 6956.39 156.397 Q7010.83 88.018 7102.54 88.018 Q7127.17 88.018 7152.13 92.8791 Q7177.4 97.7402 7204.63 107.462 Z" fill="#000000" fill-rule="evenodd" fill-opacity="1" /><path clip-path="url(#clip5700)" d="M 0 0 M7313.84 498.294 L7382.22 498.294 L7382.22 554.034 L7329.07 657.737 L7287.26 657.737 L7313.84 554.034 L7313.84 498.294 Z" fill="#000000" fill-rule="evenodd" fill-opacity="1" /><path clip-path="url(#clip5700)" d="M 0 0 M7593.19 350.841 Q7546.52 350.841 7519.62 375.794 Q7493.05 400.748 7493.05 444.498 Q7493.05 488.247 7519.62 513.201 Q7546.52 538.155 7593.19 538.155 Q7639.85 538.155 7666.75 513.201 Q7693.65 487.923 7693.65 444.498 Q7693.65 400.748 7666.75 375.794 Q7640.18 350.841 7593.19 350.841 M7527.73 322.97 Q7485.6 312.6 7461.94 283.758 Q7438.61 254.915 7438.61 213.434 Q7438.61 155.425 7479.76 121.722 Q7521.24 88.018 7593.19 88.018 Q7665.46 88.018 7706.61 121.722 Q7747.77 155.425 7747.77 213.434 Q7747.77 254.915 7724.11 283.758 Q7700.78 312.6 7658.98 322.97 Q7706.29 333.989 7732.54 366.072 Q7759.11 398.155 7759.11 444.498 Q7759.11 514.821 7716.01 552.414 Q7673.23 590.006 7593.19 590.006 Q7513.14 590.006 7470.04 552.414 Q7427.26 514.821 7427.26 444.498 Q7427.26 398.155 7453.84 366.072 Q7480.41 333.989 7527.73 322.97 M7503.74 219.591 Q7503.74 257.184 7527.08 278.249 Q7550.73 299.313 7593.19 299.313 Q7635.32 299.313 7658.98 278.249 Q7682.96 257.184 7682.96 219.591 Q7682.96 181.999 7658.98 160.934 Q7635.32 139.87 7593.19 139.87 Q7550.73 139.87 7527.08 160.934 Q7503.74 181.999 7503.74 219.591 Z" fill="#000000" fill-rule="evenodd" fill-opacity="1" /><path clip-path="url(#clip5700)" d="M 0 0 M7836.89 498.294 L7905.27 498.294 L7905.27 554.034 L7852.12 657.737 L7810.32 657.737 L7836.89 554.034 L7836.89 498.294 Z" fill="#000000" fill-rule="evenodd" fill-opacity="1" /><path clip-path="url(#clip5700)" d="M 0 0 M7987.58 525.516 L8094.53 525.516 L8094.53 156.397 L7978.19 179.731 L7978.19 120.101 L8093.88 96.768 L8159.34 96.768 L8159.34 525.516 L8266.29 525.516 L8266.29 580.608 L7987.58 580.608 L7987.58 525.516 Z" fill="#000000" fill-rule="evenodd" fill-opacity="1" /><path clip-path="url(#clip5700)" d="M 0 0 M8477.26 139.87 Q8426.7 139.87 8401.1 189.777 Q8375.82 239.36 8375.82 339.174 Q8375.82 438.664 8401.1 488.571 Q8426.7 538.155 8477.26 538.155 Q8528.14 538.155 8553.41 488.571 Q8579.02 438.664 8579.02 339.174 Q8579.02 239.36 8553.41 189.777 Q8528.14 139.87 8477.26 139.87 M8477.26 88.018 Q8558.6 88.018 8601.38 152.508 Q8644.48 216.675 8644.48 339.174 Q8644.48 461.349 8601.38 525.84 Q8558.6 590.006 8477.26 590.006 Q8395.92 590.006 8352.81 525.84 Q8310.04 461.349 8310.04 339.174 Q8310.04 216.675 8352.81 152.508 Q8395.92 88.018 8477.26 88.018 Z" fill="#000000" fill-rule="evenodd" fill-opacity="1" /><path clip-path="url(#clip5700)" d="M 0 0 M8722.26 498.294 L8790.64 498.294 L8790.64 554.034 L8737.49 657.737 L8695.68 657.737 L8722.26 554.034 L8722.26 498.294 Z" fill="#000000" fill-rule="evenodd" fill-opacity="1" /><path clip-path="url(#clip5700)" d="M 0 0 M8872.95 525.516 L8979.89 525.516 L8979.89 156.397 L8863.55 179.731 L8863.55 120.101 L8979.25 96.768 L9044.71 96.768 L9044.71 525.516 L9151.65 525.516 L9151.65 580.608 L8872.95 580.608 L8872.95 525.516 Z" fill="#000000" fill-rule="evenodd" fill-opacity="1" /><path clip-path="url(#clip5700)" d="M 0 0 M9279.01 525.516 L9507.48 525.516 L9507.48 580.608 L9200.26 580.608 L9200.26 525.516 Q9237.53 486.951 9301.7 422.137 Q9366.19 356.998 9382.72 338.202 Q9414.15 302.878 9426.47 278.573 Q9439.1 253.943 9439.1 230.286 Q9439.1 191.721 9411.88 167.416 Q9384.98 143.11 9341.56 143.11 Q9310.77 143.11 9276.42 153.805 Q9242.39 164.499 9203.5 186.212 L9203.5 120.101 Q9243.04 104.222 9277.39 96.1199 Q9311.74 88.018 9340.26 88.018 Q9415.45 88.018 9460.17 125.61 Q9504.89 163.203 9504.89 226.073 Q9504.89 255.888 9493.55 282.786 Q9482.53 309.359 9453.04 345.656 Q9444.94 355.054 9401.51 400.1 Q9358.09 444.822 9279.01 525.516 Z" fill="#000000" fill-rule="evenodd" fill-opacity="1" /><path clip-path="url(#clip5700)" d="M 0 0 M9585.26 237.415 L9653.64 237.415 L9653.64 319.73 L9585.26 319.73 L9585.26 237.415 M9585.26 498.294 L9653.64 498.294 L9653.64 554.034 L9600.49 657.737 L9558.69 657.737 L9585.26 554.034 L9585.26 498.294 Z" fill="#000000" fill-rule="evenodd" fill-opacity="1" /><path clip-path="url(#clip5700)" d="M 0 0 M10126.1 141.166 Q10054.8 141.166 10012.7 194.314 Q9970.91 247.462 9970.91 339.174 Q9970.91 430.563 10012.7 483.71 Q10054.8 536.858 10126.1 536.858 Q10197.4 536.858 10238.9 483.71 Q10280.7 430.563 10280.7 339.174 Q10280.7 247.462 10238.9 194.314 Q10197.4 141.166 10126.1 141.166 M10217.9 571.858 L10304.1 666.163 L10225 666.163 L10153.4 588.71 Q10142.7 589.358 10136.8 589.682 Q10131.3 590.006 10126.1 590.006 Q10024.1 590.006 9962.81 521.951 Q9901.88 453.572 9901.88 339.174 Q9901.88 224.453 9962.81 156.397 Q10024.1 88.018 10126.1 88.018 Q10227.9 88.018 10288.8 156.397 Q10349.7 224.453 10349.7 339.174 Q10349.7 423.433 10315.7 483.386 Q10282 543.34 10217.9 571.858 Z" fill="#000000" fill-rule="evenodd" fill-opacity="1" /><path clip-path="url(#clip5700)" d="M 0 0 M10631 279.221 L11046.5 279.221 L11046.5 333.665 L10631 333.665 L10631 279.221 M10631 411.442 L11046.5 411.442 L11046.5 466.535 L10631 466.535 L10631 411.442 Z" fill="#000000" fill-rule="evenodd" fill-opacity="1" /><path clip-path="url(#clip5700)" d="M 0 0 M11339.8 525.516 L11446.7 525.516 L11446.7 156.397 L11330.4 179.731 L11330.4 120.101 L11446.1 96.768 L11511.5 96.768 L11511.5 525.516 L11618.5 525.516 L11618.5 580.608 L11339.8 580.608 L11339.8 525.516 Z" fill="#000000" fill-rule="evenodd" fill-opacity="1" /><path clip-path="url(#clip5700)" d="M 0 0 M11837.6 312.6 Q11793.5 312.6 11767.6 342.739 Q11742 372.878 11742 425.377 Q11742 477.553 11767.6 508.016 Q11793.5 538.155 11837.6 538.155 Q11881.6 538.155 11907.2 508.016 Q11933.2 477.553 11933.2 425.377 Q11933.2 372.878 11907.2 342.739 Q11881.6 312.6 11837.6 312.6 M11967.5 107.462 L11967.5 167.092 Q11942.9 155.425 11917.6 149.268 Q11892.7 143.11 11868 143.11 Q11803.2 143.11 11768.9 186.86 Q11734.8 230.61 11730 319.082 Q11749.1 290.887 11777.9 275.98 Q11806.8 260.749 11841.5 260.749 Q11914.4 260.749 11956.5 305.147 Q11999 349.22 11999 425.377 Q11999 499.914 11954.9 544.96 Q11910.8 590.006 11837.6 590.006 Q11753.6 590.006 11709.2 525.84 Q11664.8 461.349 11664.8 339.174 Q11664.8 224.453 11719.3 156.397 Q11773.7 88.018 11865.4 88.018 Q11890.1 88.018 11915 92.8791 Q11940.3 97.7402 11967.5 107.462 Z" fill="#000000" fill-rule="evenodd" fill-opacity="1" /><path clip-path="url(#clip5700)" d="M 0 0 M12076.7 237.415 L12145.1 237.415 L12145.1 319.73 L12076.7 319.73 L12076.7 237.415 M12076.7 498.294 L12145.1 498.294 L12145.1 554.034 L12092 657.737 L12050.2 657.737 L12076.7 554.034 L12076.7 498.294 Z" fill="#000000" fill-rule="evenodd" fill-opacity="1" /><path clip-path="url(#clip5700)" d="M 0 0 M12421.2 96.768 L12486.7 96.768 L12486.7 546.904 Q12486.7 634.404 12453.3 673.941 Q12420.2 713.478 12346.7 713.478 L12321.7 713.478 L12321.7 658.385 L12342.1 658.385 Q12385.6 658.385 12403.4 634.08 Q12421.2 609.775 12421.2 546.904 L12421.2 96.768 Z" fill="#000000" fill-rule="evenodd" fill-opacity="1" /><path clip-path="url(#clip5700)" d="M 0 0 M12825 690.793 L12825 737.135 L12480.2 737.135 L12480.2 690.793 L12825 690.793 Z" fill="#000000" fill-rule="evenodd" fill-opacity="1" /><path clip-path="url(#clip5700)" d="M 0 0 M12907.3 525.516 L13014.3 525.516 L13014.3 156.397 L12897.9 179.731 L12897.9 120.101 L13013.6 96.768 L13079.1 96.768 L13079.1 525.516 L13186 525.516 L13186 580.608 L12907.3 580.608 L12907.3 525.516 Z" fill="#000000" fill-rule="evenodd" fill-opacity="1" /><path clip-path="url(#clip5700)" d="M 0 0 M13467.3 279.221 L13882.8 279.221 L13882.8 333.665 L13467.3 333.665 L13467.3 279.221 M13467.3 411.442 L13882.8 411.442 L13882.8 466.535 L13467.3 466.535 L13467.3 411.442 Z" fill="#000000" fill-rule="evenodd" fill-opacity="1" /><path clip-path="url(#clip5700)" d="M 0 0 M14304.7 139.87 Q14254.2 139.87 14228.6 189.777 Q14203.3 239.36 14203.3 339.174 Q14203.3 438.664 14228.6 488.571 Q14254.2 538.155 14304.7 538.155 Q14355.6 538.155 14380.9 488.571 Q14406.5 438.664 14406.5 339.174 Q14406.5 239.36 14380.9 189.777 Q14355.6 139.87 14304.7 139.87 M14304.7 88.018 Q14386.1 88.018 14428.8 152.508 Q14471.9 216.675 14471.9 339.174 Q14471.9 461.349 14428.8 525.84 Q14386.1 590.006 14304.7 590.006 Q14223.4 590.006 14180.3 525.84 Q14137.5 461.349 14137.5 339.174 Q14137.5 216.675 14180.3 152.508 Q14223.4 88.018 14304.7 88.018 Z" fill="#000000" fill-rule="evenodd" fill-opacity="1" /><path clip-path="url(#clip5700)" d="M 0 0 M14542.9 498.294 L14611.3 498.294 L14611.3 580.608 L14542.9 580.608 L14542.9 498.294 Z" fill="#000000" fill-rule="evenodd" fill-opacity="1" /><path clip-path="url(#clip5700)" d="M 0 0 M14738.7 525.516 L14967.1 525.516 L14967.1 580.608 L14659.9 580.608 L14659.9 525.516 Q14697.2 486.951 14761.3 422.137 Q14825.8 356.998 14842.4 338.202 Q14873.8 302.878 14886.1 278.573 Q14898.8 253.943 14898.8 230.286 Q14898.8 191.721 14871.5 167.416 Q14844.6 143.11 14801.2 143.11 Q14770.4 143.11 14736.1 153.805 Q14702 164.499 14663.2 186.212 L14663.2 120.101 Q14702.7 104.222 14737 96.1199 Q14771.4 88.018 14799.9 88.018 Q14875.1 88.018 14919.8 125.61 Q14964.5 163.203 14964.5 226.073 Q14964.5 255.888 14953.2 282.786 Q14942.2 309.359 14912.7 345.656 Q14904.6 355.054 14861.2 400.1 Q14817.7 444.822 14738.7 525.516 Z" fill="#000000" fill-rule="evenodd" fill-opacity="1" /><path clip-path="url(#clip5700)" d="M 0 0 M15038.8 96.768 L15295.7 96.768 L15295.7 151.86 L15098.7 151.86 L15098.7 270.471 Q15113 265.61 15127.2 263.341 Q15141.5 260.749 15155.7 260.749 Q15236.8 260.749 15284.1 305.147 Q15331.4 349.544 15331.4 425.377 Q15331.4 503.479 15282.8 546.904 Q15234.2 590.006 15145.7 590.006 Q15115.2 590.006 15083.5 584.821 Q15052 579.636 15018.3 569.265 L15018.3 503.479 Q15047.5 519.358 15078.6 527.136 Q15109.7 534.914 15144.4 534.914 Q15200.5 534.914 15233.2 505.423 Q15265.9 475.933 15265.9 425.377 Q15265.9 374.822 15233.2 345.331 Q15200.5 315.841 15144.4 315.841 Q15118.1 315.841 15091.9 321.674 Q15066 327.508 15038.8 339.822 L15038.8 96.768 Z" fill="#000000" fill-rule="evenodd" fill-opacity="1" /><path clip-path="url(#clip5700)" d="M 0 0 M10313.4 12068.2 L10635 12068.2 L10635 12111.5 L10500 12111.5 L10500 12448.4 L10448.3 12448.4 L10448.3 12111.5 L10313.4 12111.5 L10313.4 12068.2 Z" fill="#000000" fill-rule="evenodd" fill-opacity="1" /><path clip-path="url(#clip5700)" d="M 0 0 M522.483 7641.94 L661.765 7641.94 L661.765 7559.44 Q661.765 7517.93 644.705 7498.07 Q627.39 7477.96 591.997 7477.96 Q556.349 7477.96 539.543 7498.07 Q522.483 7517.93 522.483 7559.44 L522.483 7641.94 M366.142 7641.94 L480.724 7641.94 L480.724 7565.8 Q480.724 7528.12 466.72 7509.78 Q452.461 7491.2 423.433 7491.2 Q394.66 7491.2 380.401 7509.78 Q366.142 7528.12 366.142 7565.8 L366.142 7641.94 M323.873 7693.37 L323.873 7561.98 Q323.873 7503.16 348.318 7471.33 Q372.762 7439.51 417.831 7439.51 Q452.715 7439.51 473.34 7455.8 Q493.965 7472.1 499.058 7503.67 Q507.206 7465.73 533.178 7444.85 Q558.895 7423.72 597.599 7423.72 Q648.524 7423.72 676.279 7458.35 Q704.033 7492.98 704.033 7556.89 L704.033 7693.37 L323.873 7693.37 Z" fill="#000000" fill-rule="evenodd" fill-opacity="1" /><path clip-path="url(#clip5700)" d="M 0 0 M418.85 7374.58 L418.85 7327.72 L704.033 7327.72 L704.033 7374.58 L418.85 7374.58 M307.832 7374.58 L307.832 7327.72 L367.16 7327.72 L367.16 7374.58 L307.832 7374.58 Z" fill="#000000" fill-rule="evenodd" fill-opacity="1" /><path clip-path="url(#clip5700)" d="M 0 0 M531.905 7041.52 L704.033 7041.52 L704.033 7088.37 L533.432 7088.37 Q492.946 7088.37 472.831 7104.16 Q452.715 7119.95 452.715 7151.52 Q452.715 7189.46 476.905 7211.36 Q501.095 7233.26 542.854 7233.26 L704.033 7233.26 L704.033 7280.36 L418.85 7280.36 L418.85 7233.26 L463.155 7233.26 Q437.437 7216.45 424.706 7193.79 Q411.975 7170.87 411.975 7141.08 Q411.975 7091.94 442.53 7066.73 Q472.831 7041.52 531.905 7041.52 Z" fill="#000000" fill-rule="evenodd" fill-opacity="1" /><path clip-path="url(#clip5700)" d="M 0 0 M462.136 6804.72 L307.832 6804.72 L307.832 6757.87 L704.033 6757.87 L704.033 6804.72 L661.256 6804.72 Q686.719 6819.49 699.195 6842.15 Q711.417 6864.56 711.417 6896.13 Q711.417 6947.82 670.168 6980.41 Q628.918 7012.75 561.696 7012.75 Q494.474 7012.75 453.224 6980.41 Q411.975 6947.82 411.975 6896.13 Q411.975 6864.56 424.451 6842.15 Q436.674 6819.49 462.136 6804.72 M561.696 6964.37 Q613.386 6964.37 642.922 6943.24 Q672.205 6921.85 672.205 6884.67 Q672.205 6847.5 642.922 6826.11 Q613.386 6804.72 561.696 6804.72 Q510.007 6804.72 480.724 6826.11 Q451.187 6847.5 451.187 6884.67 Q451.187 6921.85 480.724 6943.24 Q510.007 6964.37 561.696 6964.37 Z" fill="#000000" fill-rule="evenodd" fill-opacity="1" /><path clip-path="url(#clip5700)" d="M 0 0 M549.729 6464.79 L572.645 6464.79 L572.645 6680.2 Q621.024 6677.15 646.487 6651.18 Q671.695 6624.95 671.695 6578.35 Q671.695 6551.36 665.075 6526.15 Q658.455 6500.69 645.214 6475.74 L689.519 6475.74 Q700.214 6500.95 705.816 6527.43 Q711.417 6553.91 711.417 6581.15 Q711.417 6649.39 671.695 6689.37 Q631.973 6729.09 564.242 6729.09 Q494.22 6729.09 453.224 6691.41 Q411.975 6653.47 411.975 6589.3 Q411.975 6531.76 449.15 6498.4 Q486.071 6464.79 549.729 6464.79 M535.979 6511.64 Q497.53 6512.15 474.613 6533.28 Q451.697 6554.16 451.697 6588.79 Q451.697 6628.01 473.849 6651.69 Q496.002 6675.11 536.233 6678.68 L535.979 6511.64 Z" fill="#000000" fill-rule="evenodd" fill-opacity="1" /><path clip-path="url(#clip5700)" d="M 0 0 M462.646 6250.39 Q458.062 6258.29 456.025 6267.71 Q453.734 6276.87 453.734 6288.08 Q453.734 6327.8 479.706 6349.19 Q505.423 6370.32 553.803 6370.32 L704.033 6370.32 L704.033 6417.43 L418.85 6417.43 L418.85 6370.32 L463.155 6370.32 Q437.183 6355.55 424.706 6331.87 Q411.975 6308.19 411.975 6274.33 Q411.975 6269.49 412.739 6263.63 Q413.248 6257.78 414.521 6250.65 L462.646 6250.39 Z" fill="#000000" fill-rule="evenodd" fill-opacity="1" /><path clip-path="url(#clip5700)" d="M 0 0 M323.873 6156.94 L465.192 6156.94 L465.192 6200.23 L323.873 6200.23 L323.873 6156.94 Z" fill="#000000" fill-rule="evenodd" fill-opacity="1" /><path clip-path="url(#clip5700)" d="M 0 0 M427.252 5926 L471.558 5926 Q461.373 5945.86 456.28 5967.25 Q451.187 5988.63 451.187 6011.55 Q451.187 6046.44 461.882 6064 Q472.576 6081.32 493.965 6081.32 Q510.261 6081.32 519.682 6068.84 Q528.849 6056.37 537.252 6018.68 L540.817 6002.64 Q551.511 5952.73 571.117 5931.85 Q590.469 5910.72 625.353 5910.72 Q665.075 5910.72 688.246 5942.29 Q711.417 5973.61 711.417 6028.61 Q711.417 6051.53 706.834 6076.48 Q702.505 6101.18 693.594 6128.68 L645.214 6128.68 Q658.709 6102.71 665.584 6077.5 Q672.205 6052.29 672.205 6027.59 Q672.205 5994.49 661.001 5976.67 Q649.543 5958.84 628.918 5958.84 Q609.821 5958.84 599.636 5971.83 Q589.451 5984.56 580.029 6028.1 L576.21 6044.4 Q567.043 6087.94 548.201 6107.29 Q529.104 6126.64 496.002 6126.64 Q455.771 6126.64 433.873 6098.12 Q411.975 6069.61 411.975 6017.15 Q411.975 5991.18 415.794 5968.26 Q419.613 5945.35 427.252 5926 Z" fill="#000000" fill-rule="evenodd" fill-opacity="1" /><path clip-path="url(#clip5700)" d="M 0 0 M462.646 5530.56 Q458.062 5538.45 456.025 5547.87 Q453.734 5557.04 453.734 5568.24 Q453.734 5607.97 479.706 5629.35 Q505.423 5650.49 553.803 5650.49 L704.033 5650.49 L704.033 5697.59 L418.85 5697.59 L418.85 5650.49 L463.155 5650.49 Q437.183 5635.72 424.706 5612.04 Q411.975 5588.36 411.975 5554.49 Q411.975 5549.66 412.739 5543.8 Q413.248 5537.94 414.521 5530.81 L462.646 5530.56 Z" fill="#000000" fill-rule="evenodd" fill-opacity="1" /><path clip-path="url(#clip5700)" d="M 0 0 M560.678 5351.81 Q560.678 5408.59 573.664 5430.49 Q586.65 5452.39 617.969 5452.39 Q642.922 5452.39 657.691 5436.09 Q672.205 5419.54 672.205 5391.28 Q672.205 5352.32 644.705 5328.89 Q616.95 5305.21 571.117 5305.21 L560.678 5305.21 L560.678 5351.81 M541.326 5258.36 L704.033 5258.36 L704.033 5305.21 L660.746 5305.21 Q686.719 5321.25 699.195 5345.19 Q711.417 5369.12 711.417 5403.75 Q711.417 5447.55 686.973 5473.52 Q662.274 5499.24 621.024 5499.24 Q572.9 5499.24 548.455 5467.16 Q524.011 5434.82 524.011 5370.91 L524.011 5305.21 L519.428 5305.21 Q487.09 5305.21 469.521 5326.6 Q451.697 5347.74 451.697 5386.18 Q451.697 5410.63 457.553 5433.8 Q463.41 5456.97 475.122 5478.36 L431.836 5478.36 Q421.905 5452.64 417.067 5428.45 Q411.975 5404.26 411.975 5381.35 Q411.975 5319.47 444.058 5288.92 Q476.141 5258.36 541.326 5258.36 Z" fill="#000000" fill-rule="evenodd" fill-opacity="1" /><path clip-path="url(#clip5700)" d="M 0 0 M337.878 5162.87 L418.85 5162.87 L418.85 5066.37 L455.261 5066.37 L455.261 5162.87 L610.075 5162.87 Q644.96 5162.87 654.89 5153.45 Q664.821 5143.78 664.821 5114.5 L664.821 5066.37 L704.033 5066.37 L704.033 5114.5 Q704.033 5168.73 683.918 5189.36 Q663.547 5209.98 610.075 5209.98 L455.261 5209.98 L455.261 5244.36 L418.85 5244.36 L418.85 5209.98 L337.878 5209.98 L337.878 5162.87 Z" fill="#000000" fill-rule="evenodd" fill-opacity="1" /><path clip-path="url(#clip5700)" d="M 0 0 M418.85 5017.23 L418.85 4970.38 L704.033 4970.38 L704.033 5017.23 L418.85 5017.23 M307.832 5017.23 L307.832 4970.38 L367.16 4970.38 L367.16 5017.23 L307.832 5017.23 Z" fill="#000000" fill-rule="evenodd" fill-opacity="1" /><path clip-path="url(#clip5700)" d="M 0 0 M451.697 4810.72 Q451.697 4848.41 481.234 4870.31 Q510.516 4892.21 561.696 4892.21 Q612.876 4892.21 642.413 4870.56 Q671.695 4848.66 671.695 4810.72 Q671.695 4773.29 642.159 4751.4 Q612.622 4729.5 561.696 4729.5 Q511.025 4729.5 481.488 4751.4 Q451.697 4773.29 451.697 4810.72 M411.975 4810.72 Q411.975 4749.61 451.697 4714.73 Q491.419 4679.85 561.696 4679.85 Q631.719 4679.85 671.695 4714.73 Q711.417 4749.61 711.417 4810.72 Q711.417 4872.09 671.695 4906.97 Q631.719 4941.6 561.696 4941.6 Q491.419 4941.6 451.697 4906.97 Q411.975 4872.09 411.975 4810.72 Z" fill="#000000" fill-rule="evenodd" fill-opacity="1" /><polyline clip-path="url(#clip5702)" style="stroke:#009af9; stroke-width:32; stroke-opacity:1; fill:none" points="
  2598.86,2328.85 4348.93,2369.3 6099,2624.48 7849.08,2815.09 9599.15,3180.8 11349.2,3522.74 13099.3,3619.08 14849.4,3761.47 16599.5,4258.33 18349.5,4915.4 
  
  "/>
<polyline clip-path="url(#clip5702)" style="stroke:#e26f46; stroke-width:32; stroke-opacity:1; fill:none" points="
  2598.86,2169.15 4348.93,2452.15 6099,2921.35 7849.08,3158.69 9599.15,3638.66 11349.2,4088.5 13099.3,5030.56 14849.4,4807.08 16599.5,5958.15 18349.5,6792.39 
  
  "/>
<polyline clip-path="url(#clip5702)" style="stroke:#3da44d; stroke-width:32; stroke-opacity:1; fill:none" points="
  2598.86,1919.02 4348.93,2109.15 6099,2179.83 7849.08,2789.68 9599.15,2989.02 11349.2,3781.29 13099.3,4730.64 14849.4,6529.11 16599.5,7813.85 18349.5,9311.43 
  
  "/>
<polyline clip-path="url(#clip5702)" style="stroke:#c271d2; stroke-width:32; stroke-opacity:1; fill:none" points="
  2598.86,1282.05 4348.93,1363.73 6099,1548.47 7849.08,2286.9 9599.15,2553.66 11349.2,3401.96 13099.3,5141.34 14849.4,5158.52 16599.5,9400.02 18349.5,11091.2 
  
  "/>
<path clip-path="url(#clip5700)" d="
M2702.34 10233.4 L5735.48 10233.4 L5735.48 7814.24 L2702.34 7814.24  Z
  " fill="#ffffff" fill-rule="evenodd" fill-opacity="1"/>
<polyline clip-path="url(#clip5700)" style="stroke:#000000; stroke-width:32; stroke-opacity:1; fill:none" points="
  2702.34,10233.4 5735.48,10233.4 5735.48,7814.24 2702.34,7814.24 2702.34,10233.4 
  "/>
<polyline clip-path="url(#clip5700)" style="stroke:#009af9; stroke-width:32; stroke-opacity:1; fill:none" points="
  2894.34,8298.08 4046.34,8298.08 
  "/>
<path clip-path="url(#clip5700)" d="M 0 0 M4238.34 8159.84 L4275.74 8159.84 L4275.74 8404.84 L4410.37 8404.84 L4410.37 8436.32 L4238.34 8436.32 L4238.34 8159.84 Z" fill="#000000" fill-rule="evenodd" fill-opacity="1" /><path clip-path="url(#clip5700)" d="M 0 0 M4571.11 8264.1 L4808.52 8264.1 L4808.52 8295.21 L4571.11 8295.21 L4571.11 8264.1 M4571.11 8339.65 L4808.52 8339.65 L4808.52 8371.13 L4571.11 8371.13 L4571.11 8339.65 Z" fill="#000000" fill-rule="evenodd" fill-opacity="1" /><path clip-path="url(#clip5700)" d="M 0 0 M5054.26 8283.17 Q5029.07 8283.17 5014.26 8300.39 Q4999.63 8317.62 4999.63 8347.62 Q4999.63 8377.43 5014.26 8394.84 Q5029.07 8412.06 5054.26 8412.06 Q5079.44 8412.06 5094.07 8394.84 Q5108.89 8377.43 5108.89 8347.62 Q5108.89 8317.62 5094.07 8300.39 Q5079.44 8283.17 5054.26 8283.17 M5128.52 8165.95 L5128.52 8200.02 Q5114.44 8193.36 5100 8189.84 Q5085.74 8186.32 5071.66 8186.32 Q5034.63 8186.32 5015 8211.32 Q4995.55 8236.32 4992.78 8286.88 Q5003.7 8270.76 5020.18 8262.25 Q5036.66 8253.54 5056.48 8253.54 Q5098.15 8253.54 5122.22 8278.91 Q5146.48 8304.1 5146.48 8347.62 Q5146.48 8390.21 5121.29 8415.95 Q5096.11 8441.69 5054.26 8441.69 Q5006.29 8441.69 4980.92 8405.02 Q4955.55 8368.17 4955.55 8298.36 Q4955.55 8232.8 4986.66 8193.91 Q5017.78 8154.84 5070.18 8154.84 Q5084.26 8154.84 5098.52 8157.62 Q5112.96 8160.39 5128.52 8165.95 Z" fill="#000000" fill-rule="evenodd" fill-opacity="1" /><polyline clip-path="url(#clip5700)" style="stroke:#e26f46; stroke-width:32; stroke-opacity:1; fill:none" points="
  2894.34,8781.92 4046.34,8781.92 
  "/>
<path clip-path="url(#clip5700)" d="M 0 0 M4238.34 8643.68 L4275.74 8643.68 L4275.74 8888.68 L4410.37 8888.68 L4410.37 8920.16 L4238.34 8920.16 L4238.34 8643.68 Z" fill="#000000" fill-rule="evenodd" fill-opacity="1" /><path clip-path="url(#clip5700)" d="M 0 0 M4571.11 8747.94 L4808.52 8747.94 L4808.52 8779.05 L4571.11 8779.05 L4571.11 8747.94 M4571.11 8823.49 L4808.52 8823.49 L4808.52 8854.97 L4571.11 8854.97 L4571.11 8823.49 Z" fill="#000000" fill-rule="evenodd" fill-opacity="1" /><path clip-path="url(#clip5700)" d="M 0 0 M5049.63 8788.86 Q5022.96 8788.86 5007.59 8803.12 Q4992.41 8817.38 4992.41 8842.38 Q4992.41 8867.38 5007.59 8881.64 Q5022.96 8895.9 5049.63 8895.9 Q5076.29 8895.9 5091.66 8881.64 Q5107.03 8867.2 5107.03 8842.38 Q5107.03 8817.38 5091.66 8803.12 Q5076.48 8788.86 5049.63 8788.86 M5012.22 8772.94 Q4988.15 8767.01 4974.63 8750.53 Q4961.29 8734.05 4961.29 8710.35 Q4961.29 8677.2 4984.81 8657.94 Q5008.52 8638.68 5049.63 8638.68 Q5090.92 8638.68 5114.44 8657.94 Q5137.96 8677.2 5137.96 8710.35 Q5137.96 8734.05 5124.44 8750.53 Q5111.11 8767.01 5087.22 8772.94 Q5114.26 8779.23 5129.26 8797.57 Q5144.44 8815.9 5144.44 8842.38 Q5144.44 8882.57 5119.81 8904.05 Q5095.37 8925.53 5049.63 8925.53 Q5003.89 8925.53 4979.26 8904.05 Q4954.81 8882.57 4954.81 8842.38 Q4954.81 8815.9 4970 8797.57 Q4985.18 8779.23 5012.22 8772.94 M4998.52 8713.86 Q4998.52 8735.34 5011.85 8747.38 Q5025.37 8759.42 5049.63 8759.42 Q5073.7 8759.42 5087.22 8747.38 Q5100.92 8735.34 5100.92 8713.86 Q5100.92 8692.38 5087.22 8680.35 Q5073.7 8668.31 5049.63 8668.31 Q5025.37 8668.31 5011.85 8680.35 Q4998.52 8692.38 4998.52 8713.86 Z" fill="#000000" fill-rule="evenodd" fill-opacity="1" /><polyline clip-path="url(#clip5700)" style="stroke:#3da44d; stroke-width:32; stroke-opacity:1; fill:none" points="
  2894.34,9265.76 4046.34,9265.76 
  "/>
<path clip-path="url(#clip5700)" d="M 0 0 M4238.34 9127.52 L4275.74 9127.52 L4275.74 9372.52 L4410.37 9372.52 L4410.37 9404 L4238.34 9404 L4238.34 9127.52 Z" fill="#000000" fill-rule="evenodd" fill-opacity="1" /><path clip-path="url(#clip5700)" d="M 0 0 M4571.11 9231.78 L4808.52 9231.78 L4808.52 9262.89 L4571.11 9262.89 L4571.11 9231.78 M4571.11 9307.33 L4808.52 9307.33 L4808.52 9338.81 L4571.11 9338.81 L4571.11 9307.33 Z" fill="#000000" fill-rule="evenodd" fill-opacity="1" /><path clip-path="url(#clip5700)" d="M 0 0 M4976.11 9372.52 L5037.22 9372.52 L5037.22 9161.59 L4970.74 9174.93 L4970.74 9140.85 L5036.85 9127.52 L5074.26 9127.52 L5074.26 9372.52 L5135.37 9372.52 L5135.37 9404 L4976.11 9404 L4976.11 9372.52 Z" fill="#000000" fill-rule="evenodd" fill-opacity="1" /><path clip-path="url(#clip5700)" d="M 0 0 M5255.92 9152.15 Q5227.03 9152.15 5212.4 9180.67 Q5197.96 9209 5197.96 9266.04 Q5197.96 9322.89 5212.4 9351.41 Q5227.03 9379.74 5255.92 9379.74 Q5285 9379.74 5299.44 9351.41 Q5314.07 9322.89 5314.07 9266.04 Q5314.07 9209 5299.44 9180.67 Q5285 9152.15 5255.92 9152.15 M5255.92 9122.52 Q5302.4 9122.52 5326.85 9159.37 Q5351.48 9196.04 5351.48 9266.04 Q5351.48 9335.85 5326.85 9372.7 Q5302.4 9409.37 5255.92 9409.37 Q5209.44 9409.37 5184.81 9372.7 Q5160.37 9335.85 5160.37 9266.04 Q5160.37 9196.04 5184.81 9159.37 Q5209.44 9122.52 5255.92 9122.52 Z" fill="#000000" fill-rule="evenodd" fill-opacity="1" /><polyline clip-path="url(#clip5700)" style="stroke:#c271d2; stroke-width:32; stroke-opacity:1; fill:none" points="
  2894.34,9749.6 4046.34,9749.6 
  "/>
<path clip-path="url(#clip5700)" d="M 0 0 M4238.34 9611.36 L4275.74 9611.36 L4275.74 9856.36 L4410.37 9856.36 L4410.37 9887.84 L4238.34 9887.84 L4238.34 9611.36 Z" fill="#000000" fill-rule="evenodd" fill-opacity="1" /><path clip-path="url(#clip5700)" d="M 0 0 M4571.11 9715.62 L4808.52 9715.62 L4808.52 9746.73 L4571.11 9746.73 L4571.11 9715.62 M4571.11 9791.17 L4808.52 9791.17 L4808.52 9822.65 L4571.11 9822.65 L4571.11 9791.17 Z" fill="#000000" fill-rule="evenodd" fill-opacity="1" /><path clip-path="url(#clip5700)" d="M 0 0 M4976.11 9856.36 L5037.22 9856.36 L5037.22 9645.43 L4970.74 9658.77 L4970.74 9624.69 L5036.85 9611.36 L5074.26 9611.36 L5074.26 9856.36 L5135.37 9856.36 L5135.37 9887.84 L4976.11 9887.84 L4976.11 9856.36 Z" fill="#000000" fill-rule="evenodd" fill-opacity="1" /><path clip-path="url(#clip5700)" d="M 0 0 M5208.15 9856.36 L5338.7 9856.36 L5338.7 9887.84 L5163.15 9887.84 L5163.15 9856.36 Q5184.44 9834.32 5221.11 9797.28 Q5257.96 9760.06 5267.4 9749.32 Q5285.37 9729.14 5292.4 9715.25 Q5299.63 9701.17 5299.63 9687.65 Q5299.63 9665.62 5284.07 9651.73 Q5268.7 9637.84 5243.89 9637.84 Q5226.29 9637.84 5206.66 9643.95 Q5187.22 9650.06 5165 9662.47 L5165 9624.69 Q5187.59 9615.62 5207.22 9610.99 Q5226.85 9606.36 5243.14 9606.36 Q5286.11 9606.36 5311.66 9627.84 Q5337.22 9649.32 5337.22 9685.25 Q5337.22 9702.28 5330.74 9717.65 Q5324.44 9732.84 5307.59 9753.58 Q5302.96 9758.95 5278.14 9784.69 Q5253.33 9810.25 5208.15 9856.36 Z" fill="#000000" fill-rule="evenodd" fill-opacity="1" /></svg>
