<?xml version="1.0" encoding="utf-8"?>
<svg xmlns="http://www.w3.org/2000/svg" xmlns:xlink="http://www.w3.org/1999/xlink" width="4800" height="3200" viewBox="0 0 19200 12800">
<defs>
  <clipPath id="clip5300">
    <rect x="0" y="0" width="19200" height="12800"/>
  </clipPath>
</defs>
<path clip-path="url(#clip5300)" d="
M0 12800 L19200 12800 L19200 0 L0 0  Z
  " fill="#ffffff" fill-rule="evenodd" fill-opacity="1"/>
<defs>
  <clipPath id="clip5301">
    <rect x="3840" y="0" width="13441" height="12800"/>
  </clipPath>
</defs>
<path clip-path="url(#clip5300)" d="
M1692.82 11385.4 L18822 11385.4 L18822 987.777 L1692.82 987.777  Z
  " fill="#ffffff" fill-rule="evenodd" fill-opacity="1"/>
<defs>
  <clipPath id="clip5302">
    <rect x="1692" y="987" width="17130" height="10399"/>
  </clipPath>
</defs>
<polyline clip-path="url(#clip5302)" style="stroke:#000000; stroke-width:16; stroke-opacity:0.1; fill:none" points="
  2177.61,11385.4 2177.61,987.777 
  "/>
<polyline clip-path="url(#clip5302)" style="stroke:#000000; stroke-width:16; stroke-opacity:0.1; fill:none" points="
  6217.52,11385.4 6217.52,987.777 
  "/>
<polyline clip-path="url(#clip5302)" style="stroke:#000000; stroke-width:16; stroke-opacity:0.1; fill:none" points="
  10257.4,11385.4 10257.4,987.777 
  "/>
<polyline clip-path="url(#clip5302)" style="stroke:#000000; stroke-width:16; stroke-opacity:0.1; fill:none" points="
  14297.3,11385.4 14297.3,987.777 
  "/>
<polyline clip-path="url(#clip5302)" style="stroke:#000000; stroke-width:16; stroke-opacity:0.1; fill:none" points="
  18337.3,11385.4 18337.3,987.777 
  "/>
<polyline clip-path="url(#clip5302)" style="stroke:#000000; stroke-width:16; stroke-opacity:0.1; fill:none" points="
  1692.82,10470.1 18822,10470.1 
  "/>
<polyline clip-path="url(#clip5302)" style="stroke:#000000; stroke-width:16; stroke-opacity:0.1; fill:none" points="
  1692.82,8498.5 18822,8498.5 
  "/>
<polyline clip-path="url(#clip5302)" style="stroke:#000000; stroke-width:16; stroke-opacity:0.1; fill:none" points="
  1692.82,6526.93 18822,6526.93 
  "/>
<polyline clip-path="url(#clip5302)" style="stroke:#000000; stroke-width:16; stroke-opacity:0.1; fill:none" points="
  1692.82,4555.37 18822,4555.37 
  "/>
<polyline clip-path="url(#clip5302)" style="stroke:#000000; stroke-width:16; stroke-opacity:0.1; fill:none" points="
  1692.82,2583.8 18822,2583.8 
  "/>
<polyline clip-path="url(#clip5300)" style="stroke:#000000; stroke-width:32; stroke-opacity:1; fill:none" points="
  1692.82,11385.4 18822,11385.4 
  "/>
<polyline clip-path="url(#clip5300)" style="stroke:#000000; stroke-width:32; stroke-opacity:1; fill:none" points="
  1692.82,11385.4 1692.82,987.777 
  "/>
<polyline clip-path="url(#clip5300)" style="stroke:#000000; stroke-width:32; stroke-opacity:1; fill:none" points="
  2177.61,11385.4 2177.61,11260.7 
  "/>
<polyline clip-path="url(#clip5300)" style="stroke:#000000; stroke-width:32; stroke-opacity:1; fill:none" points="
  6217.52,11385.4 6217.52,11260.7 
  "/>
<polyline clip-path="url(#clip5300)" style="stroke:#000000; stroke-width:32; stroke-opacity:1; fill:none" points="
  10257.4,11385.4 10257.4,11260.7 
  "/>
<polyline clip-path="url(#clip5300)" style="stroke:#000000; stroke-width:32; stroke-opacity:1; fill:none" points="
  14297.3,11385.4 14297.3,11260.7 
  "/>
<polyline clip-path="url(#clip5300)" style="stroke:#000000; stroke-width:32; stroke-opacity:1; fill:none" points="
  18337.3,11385.4 18337.3,11260.7 
  "/>
<polyline clip-path="url(#clip5300)" style="stroke:#000000; stroke-width:32; stroke-opacity:1; fill:none" points="
  1692.82,10470.1 1898.37,10470.1 
  "/>
<polyline clip-path="url(#clip5300)" style="stroke:#000000; stroke-width:32; stroke-opacity:1; fill:none" points="
  1692.82,8498.5 1898.37,8498.5 
  "/>
<polyline clip-path="url(#clip5300)" style="stroke:#000000; stroke-width:32; stroke-opacity:1; fill:none" points="
  1692.82,6526.93 1898.37,6526.93 
  "/>
<polyline clip-path="url(#clip5300)" style="stroke:#000000; stroke-width:32; stroke-opacity:1; fill:none" points="
  1692.82,4555.37 1898.37,4555.37 
  "/>
<polyline clip-path="url(#clip5300)" style="stroke:#000000; stroke-width:32; stroke-opacity:1; fill:none" points="
  1692.82,2583.8 1898.37,2583.8 
  "/>
<path clip-path="url(#clip5300)" d="M 0 0 M1817.89 11561.4 Q1789 11561.4 1774.37 11589.9 Q1759.93 11618.2 1759.93 11675.3 Q1759.93 11732.1 1774.37 11760.6 Q1789 11789 1817.89 11789 Q1846.96 11789 1861.41 11760.6 Q1876.04 11732.1 1876.04 11675.3 Q1876.04 11618.2 1861.41 11589.9 Q1846.96 11561.4 1817.89 11561.4 M1817.89 11531.7 Q1864.37 11531.7 1888.81 11568.6 Q1913.44 11605.3 1913.44 11675.3 Q1913.44 11745.1 1888.81 11781.9 Q1864.37 11818.6 1817.89 11818.6 Q1771.41 11818.6 1746.78 11781.9 Q1722.33 11745.1 1722.33 11675.3 Q1722.33 11605.3 1746.78 11568.6 Q1771.41 11531.7 1817.89 11531.7 Z" fill="#000000" fill-rule="evenodd" fill-opacity="1" /><path clip-path="url(#clip5300)" d="M 0 0 M1954 11766.2 L1993.07 11766.2 L1993.07 11813.2 L1954 11813.2 L1954 11766.2 Z" fill="#000000" fill-rule="evenodd" fill-opacity="1" /><path clip-path="url(#clip5300)" d="M 0 0 M2118.26 11660.1 Q2093.07 11660.1 2078.26 11677.3 Q2063.63 11694.5 2063.63 11724.5 Q2063.63 11754.3 2078.26 11771.7 Q2093.07 11789 2118.26 11789 Q2143.44 11789 2158.07 11771.7 Q2172.89 11754.3 2172.89 11724.5 Q2172.89 11694.5 2158.07 11677.3 Q2143.44 11660.1 2118.26 11660.1 M2192.52 11542.8 L2192.52 11576.9 Q2178.44 11570.3 2164 11566.7 Q2149.74 11563.2 2135.66 11563.2 Q2098.63 11563.2 2079 11588.2 Q2059.55 11613.2 2056.78 11663.8 Q2067.7 11647.7 2084.18 11639.1 Q2100.66 11630.4 2120.48 11630.4 Q2162.15 11630.4 2186.22 11655.8 Q2210.48 11681 2210.48 11724.5 Q2210.48 11767.1 2185.29 11792.8 Q2160.11 11818.6 2118.26 11818.6 Q2070.29 11818.6 2044.92 11781.9 Q2019.55 11745.1 2019.55 11675.3 Q2019.55 11609.7 2050.67 11570.8 Q2081.78 11531.7 2134.18 11531.7 Q2148.26 11531.7 2162.52 11534.5 Q2176.96 11537.3 2192.52 11542.8 Z" fill="#000000" fill-rule="evenodd" fill-opacity="1" /><path clip-path="url(#clip5300)" d="M 0 0 M2257.52 11781.7 L2318.63 11781.7 L2318.63 11570.8 L2252.15 11584.1 L2252.15 11550.1 L2318.26 11536.7 L2355.66 11536.7 L2355.66 11781.7 L2416.77 11781.7 L2416.77 11813.2 L2257.52 11813.2 L2257.52 11781.7 Z" fill="#000000" fill-rule="evenodd" fill-opacity="1" /><path clip-path="url(#clip5300)" d="M 0 0 M2537.33 11561.4 Q2508.44 11561.4 2493.81 11589.9 Q2479.37 11618.2 2479.37 11675.3 Q2479.37 11732.1 2493.81 11760.6 Q2508.44 11789 2537.33 11789 Q2566.4 11789 2580.85 11760.6 Q2595.48 11732.1 2595.48 11675.3 Q2595.48 11618.2 2580.85 11589.9 Q2566.4 11561.4 2537.33 11561.4 M2537.33 11531.7 Q2583.81 11531.7 2608.25 11568.6 Q2632.88 11605.3 2632.88 11675.3 Q2632.88 11745.1 2608.25 11781.9 Q2583.81 11818.6 2537.33 11818.6 Q2490.85 11818.6 2466.22 11781.9 Q2441.77 11745.1 2441.77 11675.3 Q2441.77 11605.3 2466.22 11568.6 Q2490.85 11531.7 2537.33 11531.7 Z" fill="#000000" fill-rule="evenodd" fill-opacity="1" /><path clip-path="url(#clip5300)" d="M 0 0 M5861.78 11561.4 Q5832.89 11561.4 5818.26 11589.9 Q5803.82 11618.2 5803.82 11675.3 Q5803.82 11732.1 5818.26 11760.6 Q5832.89 11789 5861.78 11789 Q5890.86 11789 5905.3 11760.6 Q5919.93 11732.1 5919.93 11675.3 Q5919.93 11618.2 5905.3 11589.9 Q5890.86 11561.4 5861.78 11561.4 M5861.78 11531.7 Q5908.26 11531.7 5932.71 11568.6 Q5957.34 11605.3 5957.34 11675.3 Q5957.34 11745.1 5932.71 11781.9 Q5908.26 11818.6 5861.78 11818.6 Q5815.3 11818.6 5790.67 11781.9 Q5766.23 11745.1 5766.23 11675.3 Q5766.23 11605.3 5790.67 11568.6 Q5815.3 11531.7 5861.78 11531.7 Z" fill="#000000" fill-rule="evenodd" fill-opacity="1" /><path clip-path="url(#clip5300)" d="M 0 0 M5997.89 11766.2 L6036.97 11766.2 L6036.97 11813.2 L5997.89 11813.2 L5997.89 11766.2 Z" fill="#000000" fill-rule="evenodd" fill-opacity="1" /><path clip-path="url(#clip5300)" d="M 0 0 M6162.15 11660.1 Q6136.97 11660.1 6122.15 11677.3 Q6107.52 11694.5 6107.52 11724.5 Q6107.52 11754.3 6122.15 11771.7 Q6136.97 11789 6162.15 11789 Q6187.34 11789 6201.97 11771.7 Q6216.78 11754.3 6216.78 11724.5 Q6216.78 11694.5 6201.97 11677.3 Q6187.34 11660.1 6162.15 11660.1 M6236.41 11542.8 L6236.41 11576.9 Q6222.34 11570.3 6207.89 11566.7 Q6193.63 11563.2 6179.56 11563.2 Q6142.52 11563.2 6122.89 11588.2 Q6103.45 11613.2 6100.67 11663.8 Q6111.6 11647.7 6128.08 11639.1 Q6144.56 11630.4 6164.37 11630.4 Q6206.04 11630.4 6230.11 11655.8 Q6254.37 11681 6254.37 11724.5 Q6254.37 11767.1 6229.19 11792.8 Q6204 11818.6 6162.15 11818.6 Q6114.19 11818.6 6088.82 11781.9 Q6063.45 11745.1 6063.45 11675.3 Q6063.45 11609.7 6094.56 11570.8 Q6125.67 11531.7 6178.08 11531.7 Q6192.15 11531.7 6206.41 11534.5 Q6220.85 11537.3 6236.41 11542.8 Z" fill="#000000" fill-rule="evenodd" fill-opacity="1" /><path clip-path="url(#clip5300)" d="M 0 0 M6301.41 11781.7 L6362.52 11781.7 L6362.52 11570.8 L6296.04 11584.1 L6296.04 11550.1 L6362.15 11536.7 L6399.56 11536.7 L6399.56 11781.7 L6460.67 11781.7 L6460.67 11813.2 L6301.41 11813.2 L6301.41 11781.7 Z" fill="#000000" fill-rule="evenodd" fill-opacity="1" /><path clip-path="url(#clip5300)" d="M 0 0 M6501.59 11536.7 L6648.44 11536.7 L6648.44 11568.2 L6535.85 11568.2 L6535.85 11636 Q6544 11633.2 6552.15 11631.9 Q6560.3 11630.4 6568.45 11630.4 Q6614.74 11630.4 6641.78 11655.8 Q6668.81 11681.2 6668.81 11724.5 Q6668.81 11769.1 6641.04 11794 Q6613.26 11818.6 6562.7 11818.6 Q6545.3 11818.6 6527.15 11815.6 Q6509.19 11812.7 6489.93 11806.7 L6489.93 11769.1 Q6506.59 11778.2 6524.37 11782.7 Q6542.15 11787.1 6561.96 11787.1 Q6594 11787.1 6612.7 11770.3 Q6631.41 11753.4 6631.41 11724.5 Q6631.41 11695.6 6612.7 11678.8 Q6594 11661.9 6561.96 11661.9 Q6546.96 11661.9 6531.96 11665.3 Q6517.15 11668.6 6501.59 11675.6 L6501.59 11536.7 Z" fill="#000000" fill-rule="evenodd" fill-opacity="1" /><path clip-path="url(#clip5300)" d="M 0 0 M9899.19 11561.4 Q9870.31 11561.4 9855.68 11589.9 Q9841.23 11618.2 9841.23 11675.3 Q9841.23 11732.1 9855.68 11760.6 Q9870.31 11789 9899.19 11789 Q9928.27 11789 9942.71 11760.6 Q9957.34 11732.1 9957.34 11675.3 Q9957.34 11618.2 9942.71 11589.9 Q9928.27 11561.4 9899.19 11561.4 M9899.19 11531.7 Q9945.68 11531.7 9970.12 11568.6 Q9994.75 11605.3 9994.75 11675.3 Q9994.75 11745.1 9970.12 11781.9 Q9945.68 11818.6 9899.19 11818.6 Q9852.71 11818.6 9828.08 11781.9 Q9803.64 11745.1 9803.64 11675.3 Q9803.64 11605.3 9828.08 11568.6 Q9852.71 11531.7 9899.19 11531.7 Z" fill="#000000" fill-rule="evenodd" fill-opacity="1" /><path clip-path="url(#clip5300)" d="M 0 0 M10035.3 11766.2 L10074.4 11766.2 L10074.4 11813.2 L10035.3 11813.2 L10035.3 11766.2 Z" fill="#000000" fill-rule="evenodd" fill-opacity="1" /><path clip-path="url(#clip5300)" d="M 0 0 M10199.6 11660.1 Q10174.4 11660.1 10159.6 11677.3 Q10144.9 11694.5 10144.9 11724.5 Q10144.9 11754.3 10159.6 11771.7 Q10174.4 11789 10199.6 11789 Q10224.7 11789 10239.4 11771.7 Q10254.2 11754.3 10254.2 11724.5 Q10254.2 11694.5 10239.4 11677.3 Q10224.7 11660.1 10199.6 11660.1 M10273.8 11542.8 L10273.8 11576.9 Q10259.7 11570.3 10245.3 11566.7 Q10231 11563.2 10217 11563.2 Q10179.9 11563.2 10160.3 11588.2 Q10140.9 11613.2 10138.1 11663.8 Q10149 11647.7 10165.5 11639.1 Q10182 11630.4 10201.8 11630.4 Q10243.5 11630.4 10267.5 11655.8 Q10291.8 11681 10291.8 11724.5 Q10291.8 11767.1 10266.6 11792.8 Q10241.4 11818.6 10199.6 11818.6 Q10151.6 11818.6 10126.2 11781.9 Q10100.9 11745.1 10100.9 11675.3 Q10100.9 11609.7 10132 11570.8 Q10163.1 11531.7 10215.5 11531.7 Q10229.6 11531.7 10243.8 11534.5 Q10258.3 11537.3 10273.8 11542.8 Z" fill="#000000" fill-rule="evenodd" fill-opacity="1" /><path clip-path="url(#clip5300)" d="M 0 0 M10364.6 11781.7 L10495.1 11781.7 L10495.1 11813.2 L10319.6 11813.2 L10319.6 11781.7 Q10340.9 11759.7 10377.5 11722.7 Q10414.4 11685.4 10423.8 11674.7 Q10441.8 11654.5 10448.8 11640.6 Q10456 11626.5 10456 11613 Q10456 11591 10440.5 11577.1 Q10425.1 11563.2 10400.3 11563.2 Q10382.7 11563.2 10363.1 11569.3 Q10343.6 11575.4 10321.4 11587.8 L10321.4 11550.1 Q10344 11541 10363.6 11536.4 Q10383.3 11531.7 10399.6 11531.7 Q10442.5 11531.7 10468.1 11553.2 Q10493.6 11574.7 10493.6 11610.6 Q10493.6 11627.7 10487.2 11643 Q10480.9 11658.2 10464 11679 Q10459.4 11684.3 10434.6 11710.1 Q10409.7 11735.6 10364.6 11781.7 Z" fill="#000000" fill-rule="evenodd" fill-opacity="1" /><path clip-path="url(#clip5300)" d="M 0 0 M10615.7 11561.4 Q10586.8 11561.4 10572.2 11589.9 Q10557.7 11618.2 10557.7 11675.3 Q10557.7 11732.1 10572.2 11760.6 Q10586.8 11789 10615.7 11789 Q10644.7 11789 10659.2 11760.6 Q10673.8 11732.1 10673.8 11675.3 Q10673.8 11618.2 10659.2 11589.9 Q10644.7 11561.4 10615.7 11561.4 M10615.7 11531.7 Q10662.2 11531.7 10686.6 11568.6 Q10711.2 11605.3 10711.2 11675.3 Q10711.2 11745.1 10686.6 11781.9 Q10662.2 11818.6 10615.7 11818.6 Q10569.2 11818.6 10544.6 11781.9 Q10520.1 11745.1 10520.1 11675.3 Q10520.1 11605.3 10544.6 11568.6 Q10569.2 11531.7 10615.7 11531.7 Z" fill="#000000" fill-rule="evenodd" fill-opacity="1" /><path clip-path="url(#clip5300)" d="M 0 0 M13943.1 11561.4 Q13914.2 11561.4 13899.6 11589.9 Q13885.1 11618.2 13885.1 11675.3 Q13885.1 11732.1 13899.6 11760.6 Q13914.2 11789 13943.1 11789 Q13972.2 11789 13986.6 11760.6 Q14001.2 11732.1 14001.2 11675.3 Q14001.2 11618.2 13986.6 11589.9 Q13972.2 11561.4 13943.1 11561.4 M13943.1 11531.7 Q13989.6 11531.7 14014 11568.6 Q14038.6 11605.3 14038.6 11675.3 Q14038.6 11745.1 14014 11781.9 Q13989.6 11818.6 13943.1 11818.6 Q13896.6 11818.6 13872 11781.9 Q13847.5 11745.1 13847.5 11675.3 Q13847.5 11605.3 13872 11568.6 Q13896.6 11531.7 13943.1 11531.7 Z" fill="#000000" fill-rule="evenodd" fill-opacity="1" /><path clip-path="url(#clip5300)" d="M 0 0 M14079.2 11766.2 L14118.3 11766.2 L14118.3 11813.2 L14079.2 11813.2 L14079.2 11766.2 Z" fill="#000000" fill-rule="evenodd" fill-opacity="1" /><path clip-path="url(#clip5300)" d="M 0 0 M14243.5 11660.1 Q14218.3 11660.1 14203.5 11677.3 Q14188.8 11694.5 14188.8 11724.5 Q14188.8 11754.3 14203.5 11771.7 Q14218.3 11789 14243.5 11789 Q14268.6 11789 14283.3 11771.7 Q14298.1 11754.3 14298.1 11724.5 Q14298.1 11694.5 14283.3 11677.3 Q14268.6 11660.1 14243.5 11660.1 M14317.7 11542.8 L14317.7 11576.9 Q14303.6 11570.3 14289.2 11566.7 Q14274.9 11563.2 14260.9 11563.2 Q14223.8 11563.2 14204.2 11588.2 Q14184.8 11613.2 14182 11663.8 Q14192.9 11647.7 14209.4 11639.1 Q14225.9 11630.4 14245.7 11630.4 Q14287.3 11630.4 14311.4 11655.8 Q14335.7 11681 14335.7 11724.5 Q14335.7 11767.1 14310.5 11792.8 Q14285.3 11818.6 14243.5 11818.6 Q14195.5 11818.6 14170.1 11781.9 Q14144.8 11745.1 14144.8 11675.3 Q14144.8 11609.7 14175.9 11570.8 Q14207 11531.7 14259.4 11531.7 Q14273.5 11531.7 14287.7 11534.5 Q14302.2 11537.3 14317.7 11542.8 Z" fill="#000000" fill-rule="evenodd" fill-opacity="1" /><path clip-path="url(#clip5300)" d="M 0 0 M14408.5 11781.7 L14539 11781.7 L14539 11813.2 L14363.5 11813.2 L14363.5 11781.7 Q14384.8 11759.7 14421.4 11722.7 Q14458.3 11685.4 14467.7 11674.7 Q14485.7 11654.5 14492.7 11640.6 Q14499.9 11626.5 14499.9 11613 Q14499.9 11591 14484.4 11577.1 Q14469 11563.2 14444.2 11563.2 Q14426.6 11563.2 14407 11569.3 Q14387.5 11575.4 14365.3 11587.8 L14365.3 11550.1 Q14387.9 11541 14407.5 11536.4 Q14427.2 11531.7 14443.5 11531.7 Q14486.4 11531.7 14512 11553.2 Q14537.5 11574.7 14537.5 11610.6 Q14537.5 11627.7 14531 11643 Q14524.8 11658.2 14507.9 11679 Q14503.3 11684.3 14478.5 11710.1 Q14453.6 11735.6 14408.5 11781.7 Z" fill="#000000" fill-rule="evenodd" fill-opacity="1" /><path clip-path="url(#clip5300)" d="M 0 0 M14579.9 11536.7 L14726.8 11536.7 L14726.8 11568.2 L14614.2 11568.2 L14614.2 11636 Q14622.3 11633.2 14630.5 11631.9 Q14638.6 11630.4 14646.8 11630.4 Q14693.1 11630.4 14720.1 11655.8 Q14747.2 11681.2 14747.2 11724.5 Q14747.2 11769.1 14719.4 11794 Q14691.6 11818.6 14641 11818.6 Q14623.6 11818.6 14605.5 11815.6 Q14587.5 11812.7 14568.3 11806.7 L14568.3 11769.1 Q14584.9 11778.2 14602.7 11782.7 Q14620.5 11787.1 14640.3 11787.1 Q14672.3 11787.1 14691 11770.3 Q14709.8 11753.4 14709.8 11724.5 Q14709.8 11695.6 14691 11678.8 Q14672.3 11661.9 14640.3 11661.9 Q14625.3 11661.9 14610.3 11665.3 Q14595.5 11668.6 14579.9 11675.6 L14579.9 11536.7 Z" fill="#000000" fill-rule="evenodd" fill-opacity="1" /><path clip-path="url(#clip5300)" d="M 0 0 M17975.2 11561.4 Q17946.3 11561.4 17931.7 11589.9 Q17917.3 11618.2 17917.3 11675.3 Q17917.3 11732.1 17931.7 11760.6 Q17946.3 11789 17975.2 11789 Q18004.3 11789 18018.7 11760.6 Q18033.4 11732.1 18033.4 11675.3 Q18033.4 11618.2 18018.7 11589.9 Q18004.3 11561.4 17975.2 11561.4 M17975.2 11531.7 Q18021.7 11531.7 18046.1 11568.6 Q18070.8 11605.3 18070.8 11675.3 Q18070.8 11745.1 18046.1 11781.9 Q18021.7 11818.6 17975.2 11818.6 Q17928.7 11818.6 17904.1 11781.9 Q17879.7 11745.1 17879.7 11675.3 Q17879.7 11605.3 17904.1 11568.6 Q17928.7 11531.7 17975.2 11531.7 Z" fill="#000000" fill-rule="evenodd" fill-opacity="1" /><path clip-path="url(#clip5300)" d="M 0 0 M18111.3 11766.2 L18150.4 11766.2 L18150.4 11813.2 L18111.3 11813.2 L18111.3 11766.2 Z" fill="#000000" fill-rule="evenodd" fill-opacity="1" /><path clip-path="url(#clip5300)" d="M 0 0 M18275.6 11660.1 Q18250.4 11660.1 18235.6 11677.3 Q18221 11694.5 18221 11724.5 Q18221 11754.3 18235.6 11771.7 Q18250.4 11789 18275.6 11789 Q18300.8 11789 18315.4 11771.7 Q18330.2 11754.3 18330.2 11724.5 Q18330.2 11694.5 18315.4 11677.3 Q18300.8 11660.1 18275.6 11660.1 M18349.9 11542.8 L18349.9 11576.9 Q18335.8 11570.3 18321.3 11566.7 Q18307.1 11563.2 18293 11563.2 Q18256 11563.2 18236.3 11588.2 Q18216.9 11613.2 18214.1 11663.8 Q18225 11647.7 18241.5 11639.1 Q18258 11630.4 18277.8 11630.4 Q18319.5 11630.4 18343.6 11655.8 Q18367.8 11681 18367.8 11724.5 Q18367.8 11767.1 18342.6 11792.8 Q18317.4 11818.6 18275.6 11818.6 Q18227.6 11818.6 18202.3 11781.9 Q18176.9 11745.1 18176.9 11675.3 Q18176.9 11609.7 18208 11570.8 Q18239.1 11531.7 18291.5 11531.7 Q18305.6 11531.7 18319.9 11534.5 Q18334.3 11537.3 18349.9 11542.8 Z" fill="#000000" fill-rule="evenodd" fill-opacity="1" /><path clip-path="url(#clip5300)" d="M 0 0 M18521.7 11664.1 Q18548.6 11669.9 18563.6 11688 Q18578.7 11706.2 18578.7 11732.8 Q18578.7 11773.8 18550.6 11796.2 Q18522.4 11818.6 18470.6 11818.6 Q18453.2 11818.6 18434.7 11815.1 Q18416.3 11811.7 18396.7 11804.9 L18396.7 11768.8 Q18412.3 11777.8 18430.8 11782.5 Q18449.3 11787.1 18469.5 11787.1 Q18504.7 11787.1 18523 11773.2 Q18541.5 11759.3 18541.5 11732.8 Q18541.5 11708.4 18524.3 11694.7 Q18507.3 11680.8 18476.7 11680.8 L18444.5 11680.8 L18444.5 11650.1 L18478.2 11650.1 Q18505.8 11650.1 18520.4 11639.1 Q18535 11628 18535 11607.3 Q18535 11586 18519.8 11574.7 Q18504.8 11563.2 18476.7 11563.2 Q18461.3 11563.2 18443.7 11566.5 Q18426.1 11569.9 18405 11576.9 L18405 11543.6 Q18426.3 11537.7 18444.8 11534.7 Q18463.6 11531.7 18480 11531.7 Q18522.6 11531.7 18547.4 11551.2 Q18572.3 11570.4 18572.3 11603.4 Q18572.3 11626.4 18559.1 11642.3 Q18546 11658 18521.7 11664.1 Z" fill="#000000" fill-rule="evenodd" fill-opacity="1" /><path clip-path="url(#clip5300)" d="M 0 0 M18699.3 11561.4 Q18670.4 11561.4 18655.8 11589.9 Q18641.3 11618.2 18641.3 11675.3 Q18641.3 11732.1 18655.8 11760.6 Q18670.4 11789 18699.3 11789 Q18728.4 11789 18742.8 11760.6 Q18757.4 11732.1 18757.4 11675.3 Q18757.4 11618.2 18742.8 11589.9 Q18728.4 11561.4 18699.3 11561.4 M18699.3 11531.7 Q18745.8 11531.7 18770.2 11568.6 Q18794.8 11605.3 18794.8 11675.3 Q18794.8 11745.1 18770.2 11781.9 Q18745.8 11818.6 18699.3 11818.6 Q18652.8 11818.6 18628.2 11781.9 Q18603.7 11745.1 18603.7 11675.3 Q18603.7 11605.3 18628.2 11568.6 Q18652.8 11531.7 18699.3 11531.7 Z" fill="#000000" fill-rule="evenodd" fill-opacity="1" /><path clip-path="url(#clip5300)" d="M 0 0 M1122.3 10356.5 Q1093.41 10356.5 1078.78 10385 Q1064.34 10413.3 1064.34 10470.3 Q1064.34 10527.2 1078.78 10555.7 Q1093.41 10584 1122.3 10584 Q1151.38 10584 1165.82 10555.7 Q1180.45 10527.2 1180.45 10470.3 Q1180.45 10413.3 1165.82 10385 Q1151.38 10356.5 1122.3 10356.5 M1122.3 10326.8 Q1168.78 10326.8 1193.23 10363.7 Q1217.86 10400.3 1217.86 10470.3 Q1217.86 10540.2 1193.23 10577 Q1168.78 10613.7 1122.3 10613.7 Q1075.82 10613.7 1051.19 10577 Q1026.75 10540.2 1026.75 10470.3 Q1026.75 10400.3 1051.19 10363.7 Q1075.82 10326.8 1122.3 10326.8 Z" fill="#000000" fill-rule="evenodd" fill-opacity="1" /><path clip-path="url(#clip5300)" d="M 0 0 M1258.41 10561.3 L1297.49 10561.3 L1297.49 10608.3 L1258.41 10608.3 L1258.41 10561.3 Z" fill="#000000" fill-rule="evenodd" fill-opacity="1" /><path clip-path="url(#clip5300)" d="M 0 0 M1370.26 10576.8 L1500.82 10576.8 L1500.82 10608.3 L1325.26 10608.3 L1325.26 10576.8 Q1346.56 10554.8 1383.23 10517.7 Q1420.08 10480.5 1429.52 10469.8 Q1447.49 10449.6 1454.52 10435.7 Q1461.75 10421.6 1461.75 10408.1 Q1461.75 10386.1 1446.19 10372.2 Q1430.82 10358.3 1406.01 10358.3 Q1388.41 10358.3 1368.78 10364.4 Q1349.34 10370.5 1327.12 10382.9 L1327.12 10345.2 Q1349.71 10336.1 1369.34 10331.5 Q1388.97 10326.8 1405.26 10326.8 Q1448.23 10326.8 1473.78 10348.3 Q1499.34 10369.8 1499.34 10405.7 Q1499.34 10422.7 1492.86 10438.1 Q1486.56 10453.3 1469.71 10474 Q1465.08 10479.4 1440.26 10505.2 Q1415.45 10530.7 1370.26 10576.8 Z" fill="#000000" fill-rule="evenodd" fill-opacity="1" /><path clip-path="url(#clip5300)" d="M 0 0 M1114.71 8384.89 Q1085.82 8384.89 1071.19 8413.41 Q1056.75 8441.74 1056.75 8498.78 Q1056.75 8555.63 1071.19 8584.15 Q1085.82 8612.48 1114.71 8612.48 Q1143.78 8612.48 1158.23 8584.15 Q1172.86 8555.63 1172.86 8498.78 Q1172.86 8441.74 1158.23 8413.41 Q1143.78 8384.89 1114.71 8384.89 M1114.71 8355.26 Q1161.19 8355.26 1185.64 8392.11 Q1210.27 8428.78 1210.27 8498.78 Q1210.27 8568.59 1185.64 8605.44 Q1161.19 8642.11 1114.71 8642.11 Q1068.23 8642.11 1043.6 8605.44 Q1019.16 8568.59 1019.16 8498.78 Q1019.16 8428.78 1043.6 8392.11 Q1068.23 8355.26 1114.71 8355.26 Z" fill="#000000" fill-rule="evenodd" fill-opacity="1" /><path clip-path="url(#clip5300)" d="M 0 0 M1250.82 8589.7 L1289.89 8589.7 L1289.89 8636.74 L1250.82 8636.74 L1250.82 8589.7 Z" fill="#000000" fill-rule="evenodd" fill-opacity="1" /><path clip-path="url(#clip5300)" d="M 0 0 M1443.78 8487.66 Q1470.63 8493.41 1485.63 8511.55 Q1500.82 8529.7 1500.82 8556.37 Q1500.82 8597.29 1472.67 8619.7 Q1444.52 8642.11 1392.67 8642.11 Q1375.26 8642.11 1356.75 8638.59 Q1338.41 8635.26 1318.78 8628.4 L1318.78 8592.29 Q1334.34 8601.37 1352.86 8606 Q1371.38 8610.63 1391.56 8610.63 Q1426.75 8610.63 1445.08 8596.74 Q1463.6 8582.85 1463.6 8556.37 Q1463.6 8531.92 1446.38 8518.22 Q1429.34 8504.33 1398.78 8504.33 L1366.56 8504.33 L1366.56 8473.59 L1400.26 8473.59 Q1427.86 8473.59 1442.49 8462.67 Q1457.12 8451.55 1457.12 8430.81 Q1457.12 8409.52 1441.93 8398.22 Q1426.93 8386.74 1398.78 8386.74 Q1383.41 8386.74 1365.82 8390.07 Q1348.23 8393.41 1327.12 8400.44 L1327.12 8367.11 Q1348.41 8361.18 1366.93 8358.22 Q1385.63 8355.26 1402.12 8355.26 Q1444.71 8355.26 1469.52 8374.7 Q1494.34 8393.96 1494.34 8426.92 Q1494.34 8449.89 1481.19 8465.81 Q1468.04 8481.55 1443.78 8487.66 Z" fill="#000000" fill-rule="evenodd" fill-opacity="1" /><path clip-path="url(#clip5300)" d="M 0 0 M1105.64 6413.32 Q1076.75 6413.32 1062.12 6441.84 Q1047.67 6470.17 1047.67 6527.21 Q1047.67 6584.06 1062.12 6612.58 Q1076.75 6640.91 1105.64 6640.91 Q1134.71 6640.91 1149.15 6612.58 Q1163.78 6584.06 1163.78 6527.21 Q1163.78 6470.17 1149.15 6441.84 Q1134.71 6413.32 1105.64 6413.32 M1105.64 6383.69 Q1152.12 6383.69 1176.56 6420.54 Q1201.19 6457.21 1201.19 6527.21 Q1201.19 6597.02 1176.56 6633.88 Q1152.12 6670.54 1105.64 6670.54 Q1059.16 6670.54 1034.53 6633.88 Q1010.08 6597.02 1010.08 6527.21 Q1010.08 6457.21 1034.53 6420.54 Q1059.16 6383.69 1105.64 6383.69 Z" fill="#000000" fill-rule="evenodd" fill-opacity="1" /><path clip-path="url(#clip5300)" d="M 0 0 M1241.75 6618.14 L1280.82 6618.14 L1280.82 6665.17 L1241.75 6665.17 L1241.75 6618.14 Z" fill="#000000" fill-rule="evenodd" fill-opacity="1" /><path clip-path="url(#clip5300)" d="M 0 0 M1424.15 6421.28 L1329.71 6568.88 L1424.15 6568.88 L1424.15 6421.28 M1414.34 6388.69 L1461.38 6388.69 L1461.38 6568.88 L1500.82 6568.88 L1500.82 6599.99 L1461.38 6599.99 L1461.38 6665.17 L1424.15 6665.17 L1424.15 6599.99 L1299.34 6599.99 L1299.34 6563.88 L1414.34 6388.69 Z" fill="#000000" fill-rule="evenodd" fill-opacity="1" /><path clip-path="url(#clip5300)" d="M 0 0 M1117.49 4441.76 Q1088.6 4441.76 1073.97 4470.27 Q1059.53 4498.61 1059.53 4555.64 Q1059.53 4612.5 1073.97 4641.01 Q1088.6 4669.35 1117.49 4669.35 Q1146.56 4669.35 1161.01 4641.01 Q1175.64 4612.5 1175.64 4555.64 Q1175.64 4498.61 1161.01 4470.27 Q1146.56 4441.76 1117.49 4441.76 M1117.49 4412.13 Q1163.97 4412.13 1188.41 4448.98 Q1213.04 4485.64 1213.04 4555.64 Q1213.04 4625.46 1188.41 4662.31 Q1163.97 4698.98 1117.49 4698.98 Q1071.01 4698.98 1046.38 4662.31 Q1021.93 4625.46 1021.93 4555.64 Q1021.93 4485.64 1046.38 4448.98 Q1071.01 4412.13 1117.49 4412.13 Z" fill="#000000" fill-rule="evenodd" fill-opacity="1" /><path clip-path="url(#clip5300)" d="M 0 0 M1253.6 4646.57 L1292.67 4646.57 L1292.67 4693.61 L1253.6 4693.61 L1253.6 4646.57 Z" fill="#000000" fill-rule="evenodd" fill-opacity="1" /><path clip-path="url(#clip5300)" d="M 0 0 M1333.6 4417.13 L1480.45 4417.13 L1480.45 4448.61 L1367.86 4448.61 L1367.86 4516.38 Q1376.01 4513.61 1384.15 4512.31 Q1392.3 4510.83 1400.45 4510.83 Q1446.75 4510.83 1473.78 4536.2 Q1500.82 4561.57 1500.82 4604.9 Q1500.82 4649.53 1473.04 4674.35 Q1445.26 4698.98 1394.71 4698.98 Q1377.3 4698.98 1359.15 4696.01 Q1341.19 4693.05 1321.93 4687.12 L1321.93 4649.53 Q1338.6 4658.61 1356.38 4663.05 Q1374.15 4667.49 1393.97 4667.49 Q1426 4667.49 1444.71 4650.64 Q1463.41 4633.79 1463.41 4604.9 Q1463.41 4576.01 1444.71 4559.16 Q1426 4542.31 1393.97 4542.31 Q1378.97 4542.31 1363.97 4545.64 Q1349.15 4548.98 1333.6 4556.01 L1333.6 4417.13 Z" fill="#000000" fill-rule="evenodd" fill-opacity="1" /><path clip-path="url(#clip5300)" d="M 0 0 M1108.23 2470.19 Q1079.34 2470.19 1064.71 2498.71 Q1050.27 2527.04 1050.27 2584.08 Q1050.27 2640.93 1064.71 2669.45 Q1079.34 2697.78 1108.23 2697.78 Q1137.3 2697.78 1151.75 2669.45 Q1166.38 2640.93 1166.38 2584.08 Q1166.38 2527.04 1151.75 2498.71 Q1137.3 2470.19 1108.23 2470.19 M1108.23 2440.56 Q1154.71 2440.56 1179.15 2477.41 Q1203.78 2514.08 1203.78 2584.08 Q1203.78 2653.89 1179.15 2690.74 Q1154.71 2727.41 1108.23 2727.41 Q1061.75 2727.41 1037.12 2690.74 Q1012.67 2653.89 1012.67 2584.08 Q1012.67 2514.08 1037.12 2477.41 Q1061.75 2440.56 1108.23 2440.56 Z" fill="#000000" fill-rule="evenodd" fill-opacity="1" /><path clip-path="url(#clip5300)" d="M 0 0 M1244.34 2675 L1283.41 2675 L1283.41 2722.04 L1244.34 2722.04 L1244.34 2675 Z" fill="#000000" fill-rule="evenodd" fill-opacity="1" /><path clip-path="url(#clip5300)" d="M 0 0 M1408.6 2568.89 Q1383.41 2568.89 1368.6 2586.11 Q1353.97 2603.34 1353.97 2633.34 Q1353.97 2663.15 1368.6 2680.56 Q1383.41 2697.78 1408.6 2697.78 Q1433.78 2697.78 1448.41 2680.56 Q1463.23 2663.15 1463.23 2633.34 Q1463.23 2603.34 1448.41 2586.11 Q1433.78 2568.89 1408.6 2568.89 M1482.86 2451.67 L1482.86 2485.74 Q1468.78 2479.08 1454.34 2475.56 Q1440.08 2472.04 1426 2472.04 Q1388.97 2472.04 1369.34 2497.04 Q1349.89 2522.04 1347.12 2572.6 Q1358.04 2556.48 1374.52 2547.97 Q1391.01 2539.26 1410.82 2539.26 Q1452.49 2539.26 1476.56 2564.63 Q1500.82 2589.82 1500.82 2633.34 Q1500.82 2675.93 1475.63 2701.67 Q1450.45 2727.41 1408.6 2727.41 Q1360.63 2727.41 1335.26 2690.74 Q1309.89 2653.89 1309.89 2584.08 Q1309.89 2518.52 1341.01 2479.63 Q1372.12 2440.56 1424.52 2440.56 Q1438.6 2440.56 1452.86 2443.34 Q1467.3 2446.12 1482.86 2451.67 Z" fill="#000000" fill-rule="evenodd" fill-opacity="1" /><path clip-path="url(#clip5300)" d="M 0 0 M5829.15 228.341 L5829.15 284.73 Q5803.87 271.767 5776.65 265.286 Q5749.43 258.804 5720.26 258.804 Q5675.86 258.804 5653.5 272.415 Q5631.46 286.026 5631.46 313.248 Q5631.46 333.989 5647.34 345.98 Q5663.22 357.646 5711.18 368.341 L5731.6 372.878 Q5795.12 386.489 5821.69 411.442 Q5848.59 436.072 5848.59 480.47 Q5848.59 531.025 5808.41 560.516 Q5768.55 590.006 5698.55 590.006 Q5669.38 590.006 5637.62 584.173 Q5606.19 578.664 5571.19 567.321 L5571.19 505.747 Q5604.24 522.923 5636.32 531.673 Q5668.41 540.099 5699.84 540.099 Q5741.97 540.099 5764.66 525.84 Q5787.34 511.257 5787.34 485.007 Q5787.34 460.701 5770.81 447.738 Q5754.61 434.775 5699.19 422.785 L5678.45 417.924 Q5623.04 406.257 5598.41 382.276 Q5573.78 357.97 5573.78 315.841 Q5573.78 264.637 5610.07 236.767 Q5646.37 208.897 5713.13 208.897 Q5746.18 208.897 5775.35 213.758 Q5804.52 218.619 5829.15 228.341 Z" fill="#000000" fill-rule="evenodd" fill-opacity="1" /><path clip-path="url(#clip5300)" d="M 0 0 M5911.14 217.647 L5970.77 217.647 L5970.77 580.608 L5911.14 580.608 L5911.14 217.647 M5911.14 76.3514 L5970.77 76.3514 L5970.77 151.86 L5911.14 151.86 L5911.14 76.3514 Z" fill="#000000" fill-rule="evenodd" fill-opacity="1" /><path clip-path="url(#clip5300)" d="M 0 0 M6007.39 217.647 L6290.63 217.647 L6290.63 272.091 L6066.37 532.969 L6290.63 532.969 L6290.63 580.608 L5999.28 580.608 L5999.28 526.164 L6223.54 265.286 L6007.39 265.286 L6007.39 217.647 Z" fill="#000000" fill-rule="evenodd" fill-opacity="1" /><path clip-path="url(#clip5300)" d="M 0 0 M6663.63 384.22 L6663.63 413.387 L6389.47 413.387 Q6393.36 474.96 6426.41 507.368 Q6459.79 539.451 6519.1 539.451 Q6553.45 539.451 6585.53 531.025 Q6617.94 522.599 6649.7 505.747 L6649.7 562.136 Q6617.61 575.747 6583.91 582.877 Q6550.21 590.006 6515.53 590.006 Q6428.68 590.006 6377.8 539.451 Q6327.25 488.896 6327.25 402.692 Q6327.25 313.572 6375.21 261.397 Q6423.5 208.897 6505.16 208.897 Q6578.4 208.897 6620.86 256.212 Q6663.63 303.202 6663.63 384.22 M6604 366.72 Q6603.36 317.785 6576.46 288.619 Q6549.88 259.452 6505.81 259.452 Q6455.9 259.452 6425.76 287.647 Q6395.95 315.841 6391.41 367.044 L6604 366.72 Z" fill="#000000" fill-rule="evenodd" fill-opacity="1" /><path clip-path="url(#clip5300)" d="M 0 0 M6741.41 498.294 L6809.79 498.294 L6809.79 580.608 L6741.41 580.608 L6741.41 498.294 M6741.41 237.415 L6809.79 237.415 L6809.79 319.73 L6741.41 319.73 L6741.41 237.415 Z" fill="#000000" fill-rule="evenodd" fill-opacity="1" /><path clip-path="url(#clip5300)" d="M 0 0 M7028.86 312.6 Q6984.79 312.6 6958.86 342.739 Q6933.26 372.878 6933.26 425.377 Q6933.26 477.553 6958.86 508.016 Q6984.79 538.155 7028.86 538.155 Q7072.94 538.155 7098.54 508.016 Q7124.46 477.553 7124.46 425.377 Q7124.46 372.878 7098.54 342.739 Q7072.94 312.6 7028.86 312.6 M7158.82 107.462 L7158.82 167.092 Q7134.19 155.425 7108.91 149.268 Q7083.95 143.11 7059.33 143.11 Q6994.51 143.11 6960.16 186.86 Q6926.13 230.61 6921.27 319.082 Q6940.39 290.887 6969.23 275.98 Q6998.08 260.749 7032.75 260.749 Q7105.67 260.749 7147.8 305.147 Q7190.25 349.22 7190.25 425.377 Q7190.25 499.914 7146.18 544.96 Q7102.1 590.006 7028.86 590.006 Q6944.93 590.006 6900.53 525.84 Q6856.13 461.349 6856.13 339.174 Q6856.13 224.453 6910.58 156.397 Q6965.02 88.018 7056.73 88.018 Q7081.36 88.018 7106.32 92.8791 Q7131.59 97.7402 7158.82 107.462 Z" fill="#000000" fill-rule="evenodd" fill-opacity="1" /><path clip-path="url(#clip5300)" d="M 0 0 M7268.03 498.294 L7336.41 498.294 L7336.41 554.034 L7283.26 657.737 L7241.45 657.737 L7268.03 554.034 L7268.03 498.294 Z" fill="#000000" fill-rule="evenodd" fill-opacity="1" /><path clip-path="url(#clip5300)" d="M 0 0 M7547.38 350.841 Q7500.71 350.841 7473.81 375.794 Q7447.24 400.748 7447.24 444.498 Q7447.24 488.247 7473.81 513.201 Q7500.71 538.155 7547.38 538.155 Q7594.04 538.155 7620.94 513.201 Q7647.84 487.923 7647.84 444.498 Q7647.84 400.748 7620.94 375.794 Q7594.37 350.841 7547.38 350.841 M7481.92 322.97 Q7439.79 312.6 7416.13 283.758 Q7392.8 254.915 7392.8 213.434 Q7392.8 155.425 7433.95 121.722 Q7475.43 88.018 7547.38 88.018 Q7619.65 88.018 7660.8 121.722 Q7701.96 155.425 7701.96 213.434 Q7701.96 254.915 7678.3 283.758 Q7654.97 312.6 7613.17 322.97 Q7660.48 333.989 7686.73 366.072 Q7713.3 398.155 7713.3 444.498 Q7713.3 514.821 7670.2 552.414 Q7627.42 590.006 7547.38 590.006 Q7467.33 590.006 7424.23 552.414 Q7381.45 514.821 7381.45 444.498 Q7381.45 398.155 7408.03 366.072 Q7434.6 333.989 7481.92 322.97 M7457.93 219.591 Q7457.93 257.184 7481.27 278.249 Q7504.92 299.313 7547.38 299.313 Q7589.51 299.313 7613.17 278.249 Q7637.15 257.184 7637.15 219.591 Q7637.15 181.999 7613.17 160.934 Q7589.51 139.87 7547.38 139.87 Q7504.92 139.87 7481.27 160.934 Q7457.93 181.999 7457.93 219.591 Z" fill="#000000" fill-rule="evenodd" fill-opacity="1" /><path clip-path="url(#clip5300)" d="M 0 0 M7791.08 498.294 L7859.46 498.294 L7859.46 554.034 L7806.31 657.737 L7764.51 657.737 L7791.08 554.034 L7791.08 498.294 Z" fill="#000000" fill-rule="evenodd" fill-opacity="1" /><path clip-path="url(#clip5300)" d="M 0 0 M7941.77 525.516 L8048.72 525.516 L8048.72 156.397 L7932.38 179.731 L7932.38 120.101 L8048.07 96.768 L8113.53 96.768 L8113.53 525.516 L8220.48 525.516 L8220.48 580.608 L7941.77 580.608 L7941.77 525.516 Z" fill="#000000" fill-rule="evenodd" fill-opacity="1" /><path clip-path="url(#clip5300)" d="M 0 0 M8431.45 139.87 Q8380.89 139.87 8355.29 189.777 Q8330.01 239.36 8330.01 339.174 Q8330.01 438.664 8355.29 488.571 Q8380.89 538.155 8431.45 538.155 Q8482.33 538.155 8507.6 488.571 Q8533.21 438.664 8533.21 339.174 Q8533.21 239.36 8507.6 189.777 Q8482.33 139.87 8431.45 139.87 M8431.45 88.018 Q8512.79 88.018 8555.57 152.508 Q8598.67 216.675 8598.67 339.174 Q8598.67 461.349 8555.57 525.84 Q8512.79 590.006 8431.45 590.006 Q8350.11 590.006 8307 525.84 Q8264.23 461.349 8264.23 339.174 Q8264.23 216.675 8307 152.508 Q8350.11 88.018 8431.45 88.018 Z" fill="#000000" fill-rule="evenodd" fill-opacity="1" /><path clip-path="url(#clip5300)" d="M 0 0 M8676.45 498.294 L8744.83 498.294 L8744.83 554.034 L8691.68 657.737 L8649.87 657.737 L8676.45 554.034 L8676.45 498.294 Z" fill="#000000" fill-rule="evenodd" fill-opacity="1" /><path clip-path="url(#clip5300)" d="M 0 0 M8827.14 525.516 L8934.08 525.516 L8934.08 156.397 L8817.74 179.731 L8817.74 120.101 L8933.44 96.768 L8998.9 96.768 L8998.9 525.516 L9105.84 525.516 L9105.84 580.608 L8827.14 580.608 L8827.14 525.516 Z" fill="#000000" fill-rule="evenodd" fill-opacity="1" /><path clip-path="url(#clip5300)" d="M 0 0 M9233.2 525.516 L9461.67 525.516 L9461.67 580.608 L9154.45 580.608 L9154.45 525.516 Q9191.72 486.951 9255.89 422.137 Q9320.38 356.998 9336.91 338.202 Q9368.34 302.878 9380.66 278.573 Q9393.29 253.943 9393.29 230.286 Q9393.29 191.721 9366.07 167.416 Q9339.17 143.11 9295.75 143.11 Q9264.96 143.11 9230.61 153.805 Q9196.58 164.499 9157.69 186.212 L9157.69 120.101 Q9197.23 104.222 9231.58 96.1199 Q9265.93 88.018 9294.45 88.018 Q9369.64 88.018 9414.36 125.61 Q9459.08 163.203 9459.08 226.073 Q9459.08 255.888 9447.74 282.786 Q9436.72 309.359 9407.23 345.656 Q9399.13 355.054 9355.7 400.1 Q9312.28 444.822 9233.2 525.516 Z" fill="#000000" fill-rule="evenodd" fill-opacity="1" /><path clip-path="url(#clip5300)" d="M 0 0 M9539.45 237.415 L9607.83 237.415 L9607.83 319.73 L9539.45 319.73 L9539.45 237.415 M9539.45 498.294 L9607.83 498.294 L9607.83 554.034 L9554.68 657.737 L9512.88 657.737 L9539.45 554.034 L9539.45 498.294 Z" fill="#000000" fill-rule="evenodd" fill-opacity="1" /><path clip-path="url(#clip5300)" d="M 0 0 M10080.3 141.166 Q10009 141.166 9966.9 194.314 Q9925.1 247.462 9925.1 339.174 Q9925.1 430.563 9966.9 483.71 Q10009 536.858 10080.3 536.858 Q10151.6 536.858 10193.1 483.71 Q10234.9 430.563 10234.9 339.174 Q10234.9 247.462 10193.1 194.314 Q10151.6 141.166 10080.3 141.166 M10172 571.858 L10258.2 666.163 L10179.2 666.163 L10107.5 588.71 Q10096.9 589.358 10091 589.682 Q10085.5 590.006 10080.3 590.006 Q9978.24 590.006 9917 521.951 Q9856.07 453.572 9856.07 339.174 Q9856.07 224.453 9917 156.397 Q9978.24 88.018 10080.3 88.018 Q10182.1 88.018 10243 156.397 Q10303.9 224.453 10303.9 339.174 Q10303.9 423.433 10269.9 483.386 Q10236.2 543.34 10172 571.858 Z" fill="#000000" fill-rule="evenodd" fill-opacity="1" /><path clip-path="url(#clip5300)" d="M 0 0 M10585.2 279.221 L11000.7 279.221 L11000.7 333.665 L10585.2 333.665 L10585.2 279.221 M10585.2 411.442 L11000.7 411.442 L11000.7 466.535 L10585.2 466.535 L10585.2 411.442 Z" fill="#000000" fill-rule="evenodd" fill-opacity="1" /><path clip-path="url(#clip5300)" d="M 0 0 M11294 525.516 L11400.9 525.516 L11400.9 156.397 L11284.6 179.731 L11284.6 120.101 L11400.3 96.768 L11465.7 96.768 L11465.7 525.516 L11572.7 525.516 L11572.7 580.608 L11294 580.608 L11294 525.516 Z" fill="#000000" fill-rule="evenodd" fill-opacity="1" /><path clip-path="url(#clip5300)" d="M 0 0 M11791.8 312.6 Q11747.7 312.6 11721.8 342.739 Q11696.2 372.878 11696.2 425.377 Q11696.2 477.553 11721.8 508.016 Q11747.7 538.155 11791.8 538.155 Q11835.8 538.155 11861.4 508.016 Q11887.4 477.553 11887.4 425.377 Q11887.4 372.878 11861.4 342.739 Q11835.8 312.6 11791.8 312.6 M11921.7 107.462 L11921.7 167.092 Q11897.1 155.425 11871.8 149.268 Q11846.8 143.11 11822.2 143.11 Q11757.4 143.11 11723.1 186.86 Q11689 230.61 11684.2 319.082 Q11703.3 290.887 11732.1 275.98 Q11761 260.749 11795.6 260.749 Q11868.6 260.749 11910.7 305.147 Q11953.1 349.22 11953.1 425.377 Q11953.1 499.914 11909.1 544.96 Q11865 590.006 11791.8 590.006 Q11707.8 590.006 11663.4 525.84 Q11619 461.349 11619 339.174 Q11619 224.453 11673.5 156.397 Q11727.9 88.018 11819.6 88.018 Q11844.3 88.018 11869.2 92.8791 Q11894.5 97.7402 11921.7 107.462 Z" fill="#000000" fill-rule="evenodd" fill-opacity="1" /><path clip-path="url(#clip5300)" d="M 0 0 M12030.9 237.415 L12099.3 237.415 L12099.3 319.73 L12030.9 319.73 L12030.9 237.415 M12030.9 498.294 L12099.3 498.294 L12099.3 554.034 L12046.2 657.737 L12004.3 657.737 L12030.9 554.034 L12030.9 498.294 Z" fill="#000000" fill-rule="evenodd" fill-opacity="1" /><path clip-path="url(#clip5300)" d="M 0 0 M12375.4 96.768 L12440.9 96.768 L12440.9 546.904 Q12440.9 634.404 12407.5 673.941 Q12374.4 713.478 12300.9 713.478 L12275.9 713.478 L12275.9 658.385 L12296.3 658.385 Q12339.8 658.385 12357.6 634.08 Q12375.4 609.775 12375.4 546.904 L12375.4 96.768 Z" fill="#000000" fill-rule="evenodd" fill-opacity="1" /><path clip-path="url(#clip5300)" d="M 0 0 M12779.2 690.793 L12779.2 737.135 L12434.4 737.135 L12434.4 690.793 L12779.2 690.793 Z" fill="#000000" fill-rule="evenodd" fill-opacity="1" /><path clip-path="url(#clip5300)" d="M 0 0 M12861.5 525.516 L12968.5 525.516 L12968.5 156.397 L12852.1 179.731 L12852.1 120.101 L12967.8 96.768 L13033.3 96.768 L13033.3 525.516 L13140.2 525.516 L13140.2 580.608 L12861.5 580.608 L12861.5 525.516 Z" fill="#000000" fill-rule="evenodd" fill-opacity="1" /><path clip-path="url(#clip5300)" d="M 0 0 M13421.5 279.221 L13837 279.221 L13837 333.665 L13421.5 333.665 L13421.5 279.221 M13421.5 411.442 L13837 411.442 L13837 466.535 L13421.5 466.535 L13421.5 411.442 Z" fill="#000000" fill-rule="evenodd" fill-opacity="1" /><path clip-path="url(#clip5300)" d="M 0 0 M14258.9 139.87 Q14208.4 139.87 14182.8 189.777 Q14157.5 239.36 14157.5 339.174 Q14157.5 438.664 14182.8 488.571 Q14208.4 538.155 14258.9 538.155 Q14309.8 538.155 14335.1 488.571 Q14360.7 438.664 14360.7 339.174 Q14360.7 239.36 14335.1 189.777 Q14309.8 139.87 14258.9 139.87 M14258.9 88.018 Q14340.3 88.018 14383 152.508 Q14426.1 216.675 14426.1 339.174 Q14426.1 461.349 14383 525.84 Q14340.3 590.006 14258.9 590.006 Q14177.6 590.006 14134.5 525.84 Q14091.7 461.349 14091.7 339.174 Q14091.7 216.675 14134.5 152.508 Q14177.6 88.018 14258.9 88.018 Z" fill="#000000" fill-rule="evenodd" fill-opacity="1" /><path clip-path="url(#clip5300)" d="M 0 0 M14497.1 498.294 L14565.5 498.294 L14565.5 580.608 L14497.1 580.608 L14497.1 498.294 Z" fill="#000000" fill-rule="evenodd" fill-opacity="1" /><path clip-path="url(#clip5300)" d="M 0 0 M14776.5 139.87 Q14725.9 139.87 14700.3 189.777 Q14675 239.36 14675 339.174 Q14675 438.664 14700.3 488.571 Q14725.9 538.155 14776.5 538.155 Q14827.3 538.155 14852.6 488.571 Q14878.2 438.664 14878.2 339.174 Q14878.2 239.36 14852.6 189.777 Q14827.3 139.87 14776.5 139.87 M14776.5 88.018 Q14857.8 88.018 14900.6 152.508 Q14943.7 216.675 14943.7 339.174 Q14943.7 461.349 14900.6 525.84 Q14857.8 590.006 14776.5 590.006 Q14695.1 590.006 14652 525.84 Q14609.2 461.349 14609.2 339.174 Q14609.2 216.675 14652 152.508 Q14695.1 88.018 14776.5 88.018 Z" fill="#000000" fill-rule="evenodd" fill-opacity="1" /><path clip-path="url(#clip5300)" d="M 0 0 M10096.6 12068.2 L10418.2 12068.2 L10418.2 12111.5 L10283.3 12111.5 L10283.3 12448.4 L10231.6 12448.4 L10231.6 12111.5 L10096.6 12111.5 L10096.6 12068.2 Z" fill="#000000" fill-rule="evenodd" fill-opacity="1" /><path clip-path="url(#clip5300)" d="M 0 0 M522.483 7641.94 L661.765 7641.94 L661.765 7559.44 Q661.765 7517.93 644.705 7498.07 Q627.39 7477.96 591.997 7477.96 Q556.349 7477.96 539.543 7498.07 Q522.483 7517.93 522.483 7559.44 L522.483 7641.94 M366.142 7641.94 L480.724 7641.94 L480.724 7565.8 Q480.724 7528.12 466.72 7509.78 Q452.461 7491.2 423.433 7491.2 Q394.66 7491.2 380.401 7509.78 Q366.142 7528.12 366.142 7565.8 L366.142 7641.94 M323.873 7693.37 L323.873 7561.98 Q323.873 7503.16 348.318 7471.33 Q372.762 7439.51 417.831 7439.51 Q452.715 7439.51 473.34 7455.8 Q493.965 7472.1 499.058 7503.67 Q507.206 7465.73 533.178 7444.85 Q558.895 7423.72 597.599 7423.72 Q648.524 7423.72 676.279 7458.35 Q704.033 7492.98 704.033 7556.89 L704.033 7693.37 L323.873 7693.37 Z" fill="#000000" fill-rule="evenodd" fill-opacity="1" /><path clip-path="url(#clip5300)" d="M 0 0 M418.85 7374.58 L418.85 7327.72 L704.033 7327.72 L704.033 7374.58 L418.85 7374.58 M307.832 7374.58 L307.832 7327.72 L367.16 7327.72 L367.16 7374.58 L307.832 7374.58 Z" fill="#000000" fill-rule="evenodd" fill-opacity="1" /><path clip-path="url(#clip5300)" d="M 0 0 M531.905 7041.52 L704.033 7041.52 L704.033 7088.37 L533.432 7088.37 Q492.946 7088.37 472.831 7104.16 Q452.715 7119.95 452.715 7151.52 Q452.715 7189.46 476.905 7211.36 Q501.095 7233.26 542.854 7233.26 L704.033 7233.26 L704.033 7280.36 L418.85 7280.36 L418.85 7233.26 L463.155 7233.26 Q437.437 7216.45 424.706 7193.79 Q411.975 7170.87 411.975 7141.08 Q411.975 7091.94 442.53 7066.73 Q472.831 7041.52 531.905 7041.52 Z" fill="#000000" fill-rule="evenodd" fill-opacity="1" /><path clip-path="url(#clip5300)" d="M 0 0 M462.136 6804.72 L307.832 6804.72 L307.832 6757.87 L704.033 6757.87 L704.033 6804.72 L661.256 6804.72 Q686.719 6819.49 699.195 6842.15 Q711.417 6864.56 711.417 6896.13 Q711.417 6947.82 670.168 6980.41 Q628.918 7012.75 561.696 7012.75 Q494.474 7012.75 453.224 6980.41 Q411.975 6947.82 411.975 6896.13 Q411.975 6864.56 424.451 6842.15 Q436.674 6819.49 462.136 6804.72 M561.696 6964.37 Q613.386 6964.37 642.922 6943.24 Q672.205 6921.85 672.205 6884.67 Q672.205 6847.5 642.922 6826.11 Q613.386 6804.72 561.696 6804.72 Q510.007 6804.72 480.724 6826.11 Q451.187 6847.5 451.187 6884.67 Q451.187 6921.85 480.724 6943.24 Q510.007 6964.37 561.696 6964.37 Z" fill="#000000" fill-rule="evenodd" fill-opacity="1" /><path clip-path="url(#clip5300)" d="M 0 0 M549.729 6464.79 L572.645 6464.79 L572.645 6680.2 Q621.024 6677.15 646.487 6651.18 Q671.695 6624.95 671.695 6578.35 Q671.695 6551.36 665.075 6526.15 Q658.455 6500.69 645.214 6475.74 L689.519 6475.74 Q700.214 6500.95 705.816 6527.43 Q711.417 6553.91 711.417 6581.15 Q711.417 6649.39 671.695 6689.37 Q631.973 6729.09 564.242 6729.09 Q494.22 6729.09 453.224 6691.41 Q411.975 6653.47 411.975 6589.3 Q411.975 6531.76 449.15 6498.4 Q486.071 6464.79 549.729 6464.79 M535.979 6511.64 Q497.53 6512.15 474.613 6533.28 Q451.697 6554.16 451.697 6588.79 Q451.697 6628.01 473.849 6651.69 Q496.002 6675.11 536.233 6678.68 L535.979 6511.64 Z" fill="#000000" fill-rule="evenodd" fill-opacity="1" /><path clip-path="url(#clip5300)" d="M 0 0 M462.646 6250.39 Q458.062 6258.29 456.025 6267.71 Q453.734 6276.87 453.734 6288.08 Q453.734 6327.8 479.706 6349.19 Q505.423 6370.32 553.803 6370.32 L704.033 6370.32 L704.033 6417.43 L418.85 6417.43 L418.85 6370.32 L463.155 6370.32 Q437.183 6355.55 424.706 6331.87 Q411.975 6308.19 411.975 6274.33 Q411.975 6269.49 412.739 6263.63 Q413.248 6257.78 414.521 6250.65 L462.646 6250.39 Z" fill="#000000" fill-rule="evenodd" fill-opacity="1" /><path clip-path="url(#clip5300)" d="M 0 0 M323.873 6156.94 L465.192 6156.94 L465.192 6200.23 L323.873 6200.23 L323.873 6156.94 Z" fill="#000000" fill-rule="evenodd" fill-opacity="1" /><path clip-path="url(#clip5300)" d="M 0 0 M427.252 5926 L471.558 5926 Q461.373 5945.86 456.28 5967.25 Q451.187 5988.63 451.187 6011.55 Q451.187 6046.44 461.882 6064 Q472.576 6081.32 493.965 6081.32 Q510.261 6081.32 519.682 6068.84 Q528.849 6056.37 537.252 6018.68 L540.817 6002.64 Q551.511 5952.73 571.117 5931.85 Q590.469 5910.72 625.353 5910.72 Q665.075 5910.72 688.246 5942.29 Q711.417 5973.61 711.417 6028.61 Q711.417 6051.53 706.834 6076.48 Q702.505 6101.18 693.594 6128.68 L645.214 6128.68 Q658.709 6102.71 665.584 6077.5 Q672.205 6052.29 672.205 6027.59 Q672.205 5994.49 661.001 5976.67 Q649.543 5958.84 628.918 5958.84 Q609.821 5958.84 599.636 5971.83 Q589.451 5984.56 580.029 6028.1 L576.21 6044.4 Q567.043 6087.94 548.201 6107.29 Q529.104 6126.64 496.002 6126.64 Q455.771 6126.64 433.873 6098.12 Q411.975 6069.61 411.975 6017.15 Q411.975 5991.18 415.794 5968.26 Q419.613 5945.35 427.252 5926 Z" fill="#000000" fill-rule="evenodd" fill-opacity="1" /><path clip-path="url(#clip5300)" d="M 0 0 M462.646 5530.56 Q458.062 5538.45 456.025 5547.87 Q453.734 5557.04 453.734 5568.24 Q453.734 5607.97 479.706 5629.35 Q505.423 5650.49 553.803 5650.49 L704.033 5650.49 L704.033 5697.59 L418.85 5697.59 L418.85 5650.49 L463.155 5650.49 Q437.183 5635.72 424.706 5612.04 Q411.975 5588.36 411.975 5554.49 Q411.975 5549.66 412.739 5543.8 Q413.248 5537.94 414.521 5530.81 L462.646 5530.56 Z" fill="#000000" fill-rule="evenodd" fill-opacity="1" /><path clip-path="url(#clip5300)" d="M 0 0 M560.678 5351.81 Q560.678 5408.59 573.664 5430.49 Q586.65 5452.39 617.969 5452.39 Q642.922 5452.39 657.691 5436.09 Q672.205 5419.54 672.205 5391.28 Q672.205 5352.32 644.705 5328.89 Q616.95 5305.21 571.117 5305.21 L560.678 5305.21 L560.678 5351.81 M541.326 5258.36 L704.033 5258.36 L704.033 5305.21 L660.746 5305.21 Q686.719 5321.25 699.195 5345.19 Q711.417 5369.12 711.417 5403.75 Q711.417 5447.55 686.973 5473.52 Q662.274 5499.24 621.024 5499.24 Q572.9 5499.24 548.455 5467.16 Q524.011 5434.82 524.011 5370.91 L524.011 5305.21 L519.428 5305.21 Q487.09 5305.21 469.521 5326.6 Q451.697 5347.74 451.697 5386.18 Q451.697 5410.63 457.553 5433.8 Q463.41 5456.97 475.122 5478.36 L431.836 5478.36 Q421.905 5452.64 417.067 5428.45 Q411.975 5404.26 411.975 5381.35 Q411.975 5319.47 444.058 5288.92 Q476.141 5258.36 541.326 5258.36 Z" fill="#000000" fill-rule="evenodd" fill-opacity="1" /><path clip-path="url(#clip5300)" d="M 0 0 M337.878 5162.87 L418.85 5162.87 L418.85 5066.37 L455.261 5066.37 L455.261 5162.87 L610.075 5162.87 Q644.96 5162.87 654.89 5153.45 Q664.821 5143.78 664.821 5114.5 L664.821 5066.37 L704.033 5066.37 L704.033 5114.5 Q704.033 5168.73 683.918 5189.36 Q663.547 5209.98 610.075 5209.98 L455.261 5209.98 L455.261 5244.36 L418.85 5244.36 L418.85 5209.98 L337.878 5209.98 L337.878 5162.87 Z" fill="#000000" fill-rule="evenodd" fill-opacity="1" /><path clip-path="url(#clip5300)" d="M 0 0 M418.85 5017.23 L418.85 4970.38 L704.033 4970.38 L704.033 5017.23 L418.85 5017.23 M307.832 5017.23 L307.832 4970.38 L367.16 4970.38 L367.16 5017.23 L307.832 5017.23 Z" fill="#000000" fill-rule="evenodd" fill-opacity="1" /><path clip-path="url(#clip5300)" d="M 0 0 M451.697 4810.72 Q451.697 4848.41 481.234 4870.31 Q510.516 4892.21 561.696 4892.21 Q612.876 4892.21 642.413 4870.56 Q671.695 4848.66 671.695 4810.72 Q671.695 4773.29 642.159 4751.4 Q612.622 4729.5 561.696 4729.5 Q511.025 4729.5 481.488 4751.4 Q451.697 4773.29 451.697 4810.72 M411.975 4810.72 Q411.975 4749.61 451.697 4714.73 Q491.419 4679.85 561.696 4679.85 Q631.719 4679.85 671.695 4714.73 Q711.417 4749.61 711.417 4810.72 Q711.417 4872.09 671.695 4906.97 Q631.719 4941.6 561.696 4941.6 Q491.419 4941.6 451.697 4906.97 Q411.975 4872.09 411.975 4810.72 Z" fill="#000000" fill-rule="evenodd" fill-opacity="1" /><polyline clip-path="url(#clip5302)" style="stroke:#009af9; stroke-width:32; stroke-opacity:1; fill:none" points="
  2177.61,1348.9 3973.13,1371.21 5768.64,1399.3 7564.16,1421.67 9359.68,1491.88 11155.2,1516.62 12950.7,1578.91 14746.2,1665.58 16541.7,1755.83 18337.3,1882.73 
  
  "/>
<polyline clip-path="url(#clip5302)" style="stroke:#e26f46; stroke-width:32; stroke-opacity:1; fill:none" points="
  2177.61,1322.41 3973.13,1337 5768.64,1371.88 7564.16,1423.35 9359.68,1520.61 11155.2,1652.35 12950.7,1776.55 14746.2,2063.07 16541.7,2392.25 18337.3,2812.33 
  
  "/>
<polyline clip-path="url(#clip5302)" style="stroke:#3da44d; stroke-width:32; stroke-opacity:1; fill:none" points="
  2177.61,1289.12 3973.13,1301.52 5768.64,1332.13 7564.16,1457.13 9359.68,1402.56 11155.2,1619.79 12950.7,2016.12 14746.2,2589.32 16541.7,3438.5 18337.3,5332.07 
  
  "/>
<polyline clip-path="url(#clip5302)" style="stroke:#c271d2; stroke-width:32; stroke-opacity:1; fill:none" points="
  2177.61,1283.46 3973.13,1282.05 5768.64,1311.18 7564.16,1364.74 9359.68,1396.46 11155.2,1700.59 12950.7,1889.28 14746.2,3254.42 16541.7,5536.41 18337.3,11091.2 
  
  "/>
<path clip-path="url(#clip5300)" d="
M2268.82 10233.4 L5301.96 10233.4 L5301.96 7814.24 L2268.82 7814.24  Z
  " fill="#ffffff" fill-rule="evenodd" fill-opacity="1"/>
<polyline clip-path="url(#clip5300)" style="stroke:#000000; stroke-width:32; stroke-opacity:1; fill:none" points="
  2268.82,10233.4 5301.96,10233.4 5301.96,7814.24 2268.82,7814.24 2268.82,10233.4 
  "/>
<polyline clip-path="url(#clip5300)" style="stroke:#009af9; stroke-width:32; stroke-opacity:1; fill:none" points="
  2460.82,8298.08 3612.82,8298.08 
  "/>
<path clip-path="url(#clip5300)" d="M 0 0 M3804.82 8159.84 L3842.23 8159.84 L3842.23 8404.84 L3976.86 8404.84 L3976.86 8436.32 L3804.82 8436.32 L3804.82 8159.84 Z" fill="#000000" fill-rule="evenodd" fill-opacity="1" /><path clip-path="url(#clip5300)" d="M 0 0 M4137.6 8264.1 L4375 8264.1 L4375 8295.21 L4137.6 8295.21 L4137.6 8264.1 M4137.6 8339.65 L4375 8339.65 L4375 8371.13 L4137.6 8371.13 L4137.6 8339.65 Z" fill="#000000" fill-rule="evenodd" fill-opacity="1" /><path clip-path="url(#clip5300)" d="M 0 0 M4620.74 8283.17 Q4595.56 8283.17 4580.74 8300.39 Q4566.11 8317.62 4566.11 8347.62 Q4566.11 8377.43 4580.74 8394.84 Q4595.56 8412.06 4620.74 8412.06 Q4645.93 8412.06 4660.56 8394.84 Q4675.37 8377.43 4675.37 8347.62 Q4675.37 8317.62 4660.56 8300.39 Q4645.93 8283.17 4620.74 8283.17 M4695 8165.95 L4695 8200.02 Q4680.93 8193.36 4666.48 8189.84 Q4652.22 8186.32 4638.15 8186.32 Q4601.11 8186.32 4581.48 8211.32 Q4562.04 8236.32 4559.26 8286.88 Q4570.19 8270.76 4586.67 8262.25 Q4603.15 8253.54 4622.96 8253.54 Q4664.63 8253.54 4688.7 8278.91 Q4712.96 8304.1 4712.96 8347.62 Q4712.96 8390.21 4687.78 8415.95 Q4662.59 8441.69 4620.74 8441.69 Q4572.78 8441.69 4547.41 8405.02 Q4522.04 8368.17 4522.04 8298.36 Q4522.04 8232.8 4553.15 8193.91 Q4584.26 8154.84 4636.67 8154.84 Q4650.74 8154.84 4665 8157.62 Q4679.44 8160.39 4695 8165.95 Z" fill="#000000" fill-rule="evenodd" fill-opacity="1" /><polyline clip-path="url(#clip5300)" style="stroke:#e26f46; stroke-width:32; stroke-opacity:1; fill:none" points="
  2460.82,8781.92 3612.82,8781.92 
  "/>
<path clip-path="url(#clip5300)" d="M 0 0 M3804.82 8643.68 L3842.23 8643.68 L3842.23 8888.68 L3976.86 8888.68 L3976.86 8920.16 L3804.82 8920.16 L3804.82 8643.68 Z" fill="#000000" fill-rule="evenodd" fill-opacity="1" /><path clip-path="url(#clip5300)" d="M 0 0 M4137.6 8747.94 L4375 8747.94 L4375 8779.05 L4137.6 8779.05 L4137.6 8747.94 M4137.6 8823.49 L4375 8823.49 L4375 8854.97 L4137.6 8854.97 L4137.6 8823.49 Z" fill="#000000" fill-rule="evenodd" fill-opacity="1" /><path clip-path="url(#clip5300)" d="M 0 0 M4616.11 8788.86 Q4589.44 8788.86 4574.07 8803.12 Q4558.89 8817.38 4558.89 8842.38 Q4558.89 8867.38 4574.07 8881.64 Q4589.44 8895.9 4616.11 8895.9 Q4642.78 8895.9 4658.15 8881.64 Q4673.52 8867.2 4673.52 8842.38 Q4673.52 8817.38 4658.15 8803.12 Q4642.96 8788.86 4616.11 8788.86 M4578.7 8772.94 Q4554.63 8767.01 4541.11 8750.53 Q4527.78 8734.05 4527.78 8710.35 Q4527.78 8677.2 4551.3 8657.94 Q4575 8638.68 4616.11 8638.68 Q4657.41 8638.68 4680.93 8657.94 Q4704.44 8677.2 4704.44 8710.35 Q4704.44 8734.05 4690.93 8750.53 Q4677.59 8767.01 4653.7 8772.94 Q4680.74 8779.23 4695.74 8797.57 Q4710.93 8815.9 4710.93 8842.38 Q4710.93 8882.57 4686.3 8904.05 Q4661.85 8925.53 4616.11 8925.53 Q4570.37 8925.53 4545.74 8904.05 Q4521.3 8882.57 4521.3 8842.38 Q4521.3 8815.9 4536.48 8797.57 Q4551.67 8779.23 4578.7 8772.94 M4565 8713.86 Q4565 8735.34 4578.33 8747.38 Q4591.85 8759.42 4616.11 8759.42 Q4640.19 8759.42 4653.7 8747.38 Q4667.41 8735.34 4667.41 8713.86 Q4667.41 8692.38 4653.7 8680.35 Q4640.19 8668.31 4616.11 8668.31 Q4591.85 8668.31 4578.33 8680.35 Q4565 8692.38 4565 8713.86 Z" fill="#000000" fill-rule="evenodd" fill-opacity="1" /><polyline clip-path="url(#clip5300)" style="stroke:#3da44d; stroke-width:32; stroke-opacity:1; fill:none" points="
  2460.82,9265.76 3612.82,9265.76 
  "/>
<path clip-path="url(#clip5300)" d="M 0 0 M3804.82 9127.52 L3842.23 9127.52 L3842.23 9372.52 L3976.86 9372.52 L3976.86 9404 L3804.82 9404 L3804.82 9127.52 Z" fill="#000000" fill-rule="evenodd" fill-opacity="1" /><path clip-path="url(#clip5300)" d="M 0 0 M4137.6 9231.78 L4375 9231.78 L4375 9262.89 L4137.6 9262.89 L4137.6 9231.78 M4137.6 9307.33 L4375 9307.33 L4375 9338.81 L4137.6 9338.81 L4137.6 9307.33 Z" fill="#000000" fill-rule="evenodd" fill-opacity="1" /><path clip-path="url(#clip5300)" d="M 0 0 M4542.59 9372.52 L4603.7 9372.52 L4603.7 9161.59 L4537.22 9174.93 L4537.22 9140.85 L4603.33 9127.52 L4640.74 9127.52 L4640.74 9372.52 L4701.85 9372.52 L4701.85 9404 L4542.59 9404 L4542.59 9372.52 Z" fill="#000000" fill-rule="evenodd" fill-opacity="1" /><path clip-path="url(#clip5300)" d="M 0 0 M4822.41 9152.15 Q4793.52 9152.15 4778.89 9180.67 Q4764.44 9209 4764.44 9266.04 Q4764.44 9322.89 4778.89 9351.41 Q4793.52 9379.74 4822.41 9379.74 Q4851.48 9379.74 4865.92 9351.41 Q4880.55 9322.89 4880.55 9266.04 Q4880.55 9209 4865.92 9180.67 Q4851.48 9152.15 4822.41 9152.15 M4822.41 9122.52 Q4868.89 9122.52 4893.33 9159.37 Q4917.96 9196.04 4917.96 9266.04 Q4917.96 9335.85 4893.33 9372.7 Q4868.89 9409.37 4822.41 9409.37 Q4775.93 9409.37 4751.3 9372.7 Q4726.85 9335.85 4726.85 9266.04 Q4726.85 9196.04 4751.3 9159.37 Q4775.93 9122.52 4822.41 9122.52 Z" fill="#000000" fill-rule="evenodd" fill-opacity="1" /><polyline clip-path="url(#clip5300)" style="stroke:#c271d2; stroke-width:32; stroke-opacity:1; fill:none" points="
  2460.82,9749.6 3612.82,9749.6 
  "/>
<path clip-path="url(#clip5300)" d="M 0 0 M3804.82 9611.36 L3842.23 9611.36 L3842.23 9856.36 L3976.86 9856.36 L3976.86 9887.84 L3804.82 9887.84 L3804.82 9611.36 Z" fill="#000000" fill-rule="evenodd" fill-opacity="1" /><path clip-path="url(#clip5300)" d="M 0 0 M4137.6 9715.62 L4375 9715.62 L4375 9746.73 L4137.6 9746.73 L4137.6 9715.62 M4137.6 9791.17 L4375 9791.17 L4375 9822.65 L4137.6 9822.65 L4137.6 9791.17 Z" fill="#000000" fill-rule="evenodd" fill-opacity="1" /><path clip-path="url(#clip5300)" d="M 0 0 M4542.59 9856.36 L4603.7 9856.36 L4603.7 9645.43 L4537.22 9658.77 L4537.22 9624.69 L4603.33 9611.36 L4640.74 9611.36 L4640.74 9856.36 L4701.85 9856.36 L4701.85 9887.84 L4542.59 9887.84 L4542.59 9856.36 Z" fill="#000000" fill-rule="evenodd" fill-opacity="1" /><path clip-path="url(#clip5300)" d="M 0 0 M4774.63 9856.36 L4905.18 9856.36 L4905.18 9887.84 L4729.63 9887.84 L4729.63 9856.36 Q4750.93 9834.32 4787.59 9797.28 Q4824.44 9760.06 4833.89 9749.32 Q4851.85 9729.14 4858.89 9715.25 Q4866.11 9701.17 4866.11 9687.65 Q4866.11 9665.62 4850.55 9651.73 Q4835.18 9637.84 4810.37 9637.84 Q4792.78 9637.84 4773.15 9643.95 Q4753.7 9650.06 4731.48 9662.47 L4731.48 9624.69 Q4754.07 9615.62 4773.7 9610.99 Q4793.33 9606.36 4809.63 9606.36 Q4852.59 9606.36 4878.15 9627.84 Q4903.7 9649.32 4903.7 9685.25 Q4903.7 9702.28 4897.22 9717.65 Q4890.92 9732.84 4874.07 9753.58 Q4869.44 9758.95 4844.63 9784.69 Q4819.81 9810.25 4774.63 9856.36 Z" fill="#000000" fill-rule="evenodd" fill-opacity="1" /></svg>
