<?xml version="1.0" encoding="utf-8"?>
<svg xmlns="http://www.w3.org/2000/svg" xmlns:xlink="http://www.w3.org/1999/xlink" width="4800" height="3200" viewBox="0 0 19200 12800">
<defs>
  <clipPath id="clip4200">
    <rect x="0" y="0" width="19200" height="12800"/>
  </clipPath>
</defs>
<path clip-path="url(#clip4200)" d="
M0 12800 L19200 12800 L19200 0 L0 0  Z
  " fill="#ffffff" fill-rule="evenodd" fill-opacity="1"/>
<defs>
  <clipPath id="clip4201">
    <rect x="3840" y="0" width="13441" height="12800"/>
  </clipPath>
</defs>
<path clip-path="url(#clip4200)" d="
M2341.15 11385.4 L18822 11385.4 L18822 987.777 L2341.15 987.777  Z
  " fill="#ffffff" fill-rule="evenodd" fill-opacity="1"/>
<defs>
  <clipPath id="clip4202">
    <rect x="2341" y="987" width="16482" height="10399"/>
  </clipPath>
</defs>
<polyline clip-path="url(#clip4202)" style="stroke:#000000; stroke-width:16; stroke-opacity:0.1; fill:none" points="
  2807.59,11385.4 2807.59,987.777 
  "/>
<polyline clip-path="url(#clip4202)" style="stroke:#000000; stroke-width:16; stroke-opacity:0.1; fill:none" points="
  6341.23,11385.4 6341.23,987.777 
  "/>
<polyline clip-path="url(#clip4202)" style="stroke:#000000; stroke-width:16; stroke-opacity:0.1; fill:none" points="
  9874.87,11385.4 9874.87,987.777 
  "/>
<polyline clip-path="url(#clip4202)" style="stroke:#000000; stroke-width:16; stroke-opacity:0.1; fill:none" points="
  13408.5,11385.4 13408.5,987.777 
  "/>
<polyline clip-path="url(#clip4202)" style="stroke:#000000; stroke-width:16; stroke-opacity:0.1; fill:none" points="
  16942.2,11385.4 16942.2,987.777 
  "/>
<polyline clip-path="url(#clip4202)" style="stroke:#000000; stroke-width:16; stroke-opacity:0.1; fill:none" points="
  2341.15,10391.6 18822,10391.6 
  "/>
<polyline clip-path="url(#clip4202)" style="stroke:#000000; stroke-width:16; stroke-opacity:0.1; fill:none" points="
  2341.15,8454.48 18822,8454.48 
  "/>
<polyline clip-path="url(#clip4202)" style="stroke:#000000; stroke-width:16; stroke-opacity:0.1; fill:none" points="
  2341.15,6517.4 18822,6517.4 
  "/>
<polyline clip-path="url(#clip4202)" style="stroke:#000000; stroke-width:16; stroke-opacity:0.1; fill:none" points="
  2341.15,4580.32 18822,4580.32 
  "/>
<polyline clip-path="url(#clip4202)" style="stroke:#000000; stroke-width:16; stroke-opacity:0.1; fill:none" points="
  2341.15,2643.25 18822,2643.25 
  "/>
<polyline clip-path="url(#clip4200)" style="stroke:#000000; stroke-width:32; stroke-opacity:1; fill:none" points="
  2341.15,11385.4 18822,11385.4 
  "/>
<polyline clip-path="url(#clip4200)" style="stroke:#000000; stroke-width:32; stroke-opacity:1; fill:none" points="
  2341.15,11385.4 2341.15,987.777 
  "/>
<polyline clip-path="url(#clip4200)" style="stroke:#000000; stroke-width:32; stroke-opacity:1; fill:none" points="
  2807.59,11385.4 2807.59,11260.7 
  "/>
<polyline clip-path="url(#clip4200)" style="stroke:#000000; stroke-width:32; stroke-opacity:1; fill:none" points="
  6341.23,11385.4 6341.23,11260.7 
  "/>
<polyline clip-path="url(#clip4200)" style="stroke:#000000; stroke-width:32; stroke-opacity:1; fill:none" points="
  9874.87,11385.4 9874.87,11260.7 
  "/>
<polyline clip-path="url(#clip4200)" style="stroke:#000000; stroke-width:32; stroke-opacity:1; fill:none" points="
  13408.5,11385.4 13408.5,11260.7 
  "/>
<polyline clip-path="url(#clip4200)" style="stroke:#000000; stroke-width:32; stroke-opacity:1; fill:none" points="
  16942.2,11385.4 16942.2,11260.7 
  "/>
<polyline clip-path="url(#clip4200)" style="stroke:#000000; stroke-width:32; stroke-opacity:1; fill:none" points="
  2341.15,10391.6 2538.92,10391.6 
  "/>
<polyline clip-path="url(#clip4200)" style="stroke:#000000; stroke-width:32; stroke-opacity:1; fill:none" points="
  2341.15,8454.48 2538.92,8454.48 
  "/>
<polyline clip-path="url(#clip4200)" style="stroke:#000000; stroke-width:32; stroke-opacity:1; fill:none" points="
  2341.15,6517.4 2538.92,6517.4 
  "/>
<polyline clip-path="url(#clip4200)" style="stroke:#000000; stroke-width:32; stroke-opacity:1; fill:none" points="
  2341.15,4580.32 2538.92,4580.32 
  "/>
<polyline clip-path="url(#clip4200)" style="stroke:#000000; stroke-width:32; stroke-opacity:1; fill:none" points="
  2341.15,2643.25 2538.92,2643.25 
  "/>
<path clip-path="url(#clip4200)" d="M 0 0 M2555 11561.4 Q2526.11 11561.4 2511.48 11589.9 Q2497.04 11618.2 2497.04 11675.3 Q2497.04 11732.1 2511.48 11760.6 Q2526.11 11789 2555 11789 Q2584.07 11789 2598.52 11760.6 Q2613.15 11732.1 2613.15 11675.3 Q2613.15 11618.2 2598.52 11589.9 Q2584.07 11561.4 2555 11561.4 M2555 11531.7 Q2601.48 11531.7 2625.92 11568.6 Q2650.55 11605.3 2650.55 11675.3 Q2650.55 11745.1 2625.92 11781.9 Q2601.48 11818.6 2555 11818.6 Q2508.52 11818.6 2483.89 11781.9 Q2459.44 11745.1 2459.44 11675.3 Q2459.44 11605.3 2483.89 11568.6 Q2508.52 11531.7 2555 11531.7 Z" fill="#000000" fill-rule="evenodd" fill-opacity="1" /><path clip-path="url(#clip4200)" d="M 0 0 M2691.11 11766.2 L2730.18 11766.2 L2730.18 11813.2 L2691.11 11813.2 L2691.11 11766.2 Z" fill="#000000" fill-rule="evenodd" fill-opacity="1" /><path clip-path="url(#clip4200)" d="M 0 0 M2771.11 11536.7 L2917.96 11536.7 L2917.96 11568.2 L2805.37 11568.2 L2805.37 11636 Q2813.52 11633.2 2821.66 11631.9 Q2829.81 11630.4 2837.96 11630.4 Q2884.26 11630.4 2911.29 11655.8 Q2938.33 11681.2 2938.33 11724.5 Q2938.33 11769.1 2910.55 11794 Q2882.77 11818.6 2832.22 11818.6 Q2814.81 11818.6 2796.66 11815.6 Q2778.7 11812.7 2759.44 11806.7 L2759.44 11769.1 Q2776.11 11778.2 2793.89 11782.7 Q2811.66 11787.1 2831.48 11787.1 Q2863.52 11787.1 2882.22 11770.3 Q2900.92 11753.4 2900.92 11724.5 Q2900.92 11695.6 2882.22 11678.8 Q2863.52 11661.9 2831.48 11661.9 Q2816.48 11661.9 2801.48 11665.3 Q2786.66 11668.6 2771.11 11675.6 L2771.11 11536.7 Z" fill="#000000" fill-rule="evenodd" fill-opacity="1" /><path clip-path="url(#clip4200)" d="M 0 0 M3063.51 11660.1 Q3038.33 11660.1 3023.51 11677.3 Q3008.88 11694.5 3008.88 11724.5 Q3008.88 11754.3 3023.51 11771.7 Q3038.33 11789 3063.51 11789 Q3088.7 11789 3103.33 11771.7 Q3118.14 11754.3 3118.14 11724.5 Q3118.14 11694.5 3103.33 11677.3 Q3088.7 11660.1 3063.51 11660.1 M3137.77 11542.8 L3137.77 11576.9 Q3123.7 11570.3 3109.25 11566.7 Q3095 11563.2 3080.92 11563.2 Q3043.88 11563.2 3024.26 11588.2 Q3004.81 11613.2 3002.03 11663.8 Q3012.96 11647.7 3029.44 11639.1 Q3045.92 11630.4 3065.74 11630.4 Q3107.4 11630.4 3131.48 11655.8 Q3155.74 11681 3155.74 11724.5 Q3155.74 11767.1 3130.55 11792.8 Q3105.37 11818.6 3063.51 11818.6 Q3015.55 11818.6 2990.18 11781.9 Q2964.81 11745.1 2964.81 11675.3 Q2964.81 11609.7 2995.92 11570.8 Q3027.03 11531.7 3079.44 11531.7 Q3093.51 11531.7 3107.77 11534.5 Q3122.22 11537.3 3137.77 11542.8 Z" fill="#000000" fill-rule="evenodd" fill-opacity="1" /><path clip-path="url(#clip4200)" d="M 0 0 M6089.66 11561.4 Q6060.77 11561.4 6046.14 11589.9 Q6031.69 11618.2 6031.69 11675.3 Q6031.69 11732.1 6046.14 11760.6 Q6060.77 11789 6089.66 11789 Q6118.73 11789 6133.18 11760.6 Q6147.81 11732.1 6147.81 11675.3 Q6147.81 11618.2 6133.18 11589.9 Q6118.73 11561.4 6089.66 11561.4 M6089.66 11531.7 Q6136.14 11531.7 6160.58 11568.6 Q6185.21 11605.3 6185.21 11675.3 Q6185.21 11745.1 6160.58 11781.9 Q6136.14 11818.6 6089.66 11818.6 Q6043.18 11818.6 6018.55 11781.9 Q5994.1 11745.1 5994.1 11675.3 Q5994.1 11605.3 6018.55 11568.6 Q6043.18 11531.7 6089.66 11531.7 Z" fill="#000000" fill-rule="evenodd" fill-opacity="1" /><path clip-path="url(#clip4200)" d="M 0 0 M6225.77 11766.2 L6264.84 11766.2 L6264.84 11813.2 L6225.77 11813.2 L6225.77 11766.2 Z" fill="#000000" fill-rule="evenodd" fill-opacity="1" /><path clip-path="url(#clip4200)" d="M 0 0 M6305.77 11536.7 L6452.62 11536.7 L6452.62 11568.2 L6340.03 11568.2 L6340.03 11636 Q6348.17 11633.2 6356.32 11631.9 Q6364.47 11630.4 6372.62 11630.4 Q6418.91 11630.4 6445.95 11655.8 Q6472.99 11681.2 6472.99 11724.5 Q6472.99 11769.1 6445.21 11794 Q6417.43 11818.6 6366.88 11818.6 Q6349.47 11818.6 6331.32 11815.6 Q6313.36 11812.7 6294.1 11806.7 L6294.1 11769.1 Q6310.77 11778.2 6328.54 11782.7 Q6346.32 11787.1 6366.14 11787.1 Q6398.17 11787.1 6416.88 11770.3 Q6435.58 11753.4 6435.58 11724.5 Q6435.58 11695.6 6416.88 11678.8 Q6398.17 11661.9 6366.14 11661.9 Q6351.14 11661.9 6336.14 11665.3 Q6321.32 11668.6 6305.77 11675.6 L6305.77 11536.7 Z" fill="#000000" fill-rule="evenodd" fill-opacity="1" /><path clip-path="url(#clip4200)" d="M 0 0 M6593.54 11681.9 Q6566.88 11681.9 6551.51 11696.2 Q6536.32 11710.4 6536.32 11735.4 Q6536.32 11760.4 6551.51 11774.7 Q6566.88 11789 6593.54 11789 Q6620.21 11789 6635.58 11774.7 Q6650.95 11760.3 6650.95 11735.4 Q6650.95 11710.4 6635.58 11696.2 Q6620.4 11681.9 6593.54 11681.9 M6556.14 11666 Q6532.06 11660.1 6518.54 11643.6 Q6505.21 11627.1 6505.21 11603.4 Q6505.21 11570.3 6528.73 11551 Q6552.43 11531.7 6593.54 11531.7 Q6634.84 11531.7 6658.36 11551 Q6681.88 11570.3 6681.88 11603.4 Q6681.88 11627.1 6668.36 11643.6 Q6655.02 11660.1 6631.14 11666 Q6658.17 11672.3 6673.17 11690.6 Q6688.36 11709 6688.36 11735.4 Q6688.36 11775.6 6663.73 11797.1 Q6639.28 11818.6 6593.54 11818.6 Q6547.8 11818.6 6523.17 11797.1 Q6498.73 11775.6 6498.73 11735.4 Q6498.73 11709 6513.91 11690.6 Q6529.1 11672.3 6556.14 11666 M6542.43 11606.9 Q6542.43 11628.4 6555.77 11640.4 Q6569.28 11652.5 6593.54 11652.5 Q6617.62 11652.5 6631.14 11640.4 Q6644.84 11628.4 6644.84 11606.9 Q6644.84 11585.4 6631.14 11573.4 Q6617.62 11561.4 6593.54 11561.4 Q6569.28 11561.4 6555.77 11573.4 Q6542.43 11585.4 6542.43 11606.9 Z" fill="#000000" fill-rule="evenodd" fill-opacity="1" /><path clip-path="url(#clip4200)" d="M 0 0 M9618.3 11561.4 Q9589.41 11561.4 9574.78 11589.9 Q9560.33 11618.2 9560.33 11675.3 Q9560.33 11732.1 9574.78 11760.6 Q9589.41 11789 9618.3 11789 Q9647.37 11789 9661.82 11760.6 Q9676.45 11732.1 9676.45 11675.3 Q9676.45 11618.2 9661.82 11589.9 Q9647.37 11561.4 9618.3 11561.4 M9618.3 11531.7 Q9664.78 11531.7 9689.22 11568.6 Q9713.85 11605.3 9713.85 11675.3 Q9713.85 11745.1 9689.22 11781.9 Q9664.78 11818.6 9618.3 11818.6 Q9571.82 11818.6 9547.19 11781.9 Q9522.74 11745.1 9522.74 11675.3 Q9522.74 11605.3 9547.19 11568.6 Q9571.82 11531.7 9618.3 11531.7 Z" fill="#000000" fill-rule="evenodd" fill-opacity="1" /><path clip-path="url(#clip4200)" d="M 0 0 M9754.41 11766.2 L9793.48 11766.2 L9793.48 11813.2 L9754.41 11813.2 L9754.41 11766.2 Z" fill="#000000" fill-rule="evenodd" fill-opacity="1" /><path clip-path="url(#clip4200)" d="M 0 0 M9918.67 11660.1 Q9893.48 11660.1 9878.67 11677.3 Q9864.04 11694.5 9864.04 11724.5 Q9864.04 11754.3 9878.67 11771.7 Q9893.48 11789 9918.67 11789 Q9943.85 11789 9958.48 11771.7 Q9973.3 11754.3 9973.3 11724.5 Q9973.3 11694.5 9958.48 11677.3 Q9943.85 11660.1 9918.67 11660.1 M9992.93 11542.8 L9992.93 11576.9 Q9978.85 11570.3 9964.41 11566.7 Q9950.15 11563.2 9936.07 11563.2 Q9899.04 11563.2 9879.41 11588.2 Q9859.96 11613.2 9857.19 11663.8 Q9868.11 11647.7 9884.59 11639.1 Q9901.07 11630.4 9920.89 11630.4 Q9962.55 11630.4 9986.63 11655.8 Q10010.9 11681 10010.9 11724.5 Q10010.9 11767.1 9985.7 11792.8 Q9960.52 11818.6 9918.67 11818.6 Q9870.7 11818.6 9845.33 11781.9 Q9819.96 11745.1 9819.96 11675.3 Q9819.96 11609.7 9851.07 11570.8 Q9882.18 11531.7 9934.59 11531.7 Q9948.67 11531.7 9962.93 11534.5 Q9977.37 11537.3 9992.93 11542.8 Z" fill="#000000" fill-rule="evenodd" fill-opacity="1" /><path clip-path="url(#clip4200)" d="M 0 0 M10131.4 11561.4 Q10102.6 11561.4 10087.9 11589.9 Q10073.5 11618.2 10073.5 11675.3 Q10073.5 11732.1 10087.9 11760.6 Q10102.6 11789 10131.4 11789 Q10160.5 11789 10175 11760.6 Q10189.6 11732.1 10189.6 11675.3 Q10189.6 11618.2 10175 11589.9 Q10160.5 11561.4 10131.4 11561.4 M10131.4 11531.7 Q10177.9 11531.7 10202.4 11568.6 Q10227 11605.3 10227 11675.3 Q10227 11745.1 10202.4 11781.9 Q10177.9 11818.6 10131.4 11818.6 Q10085 11818.6 10060.3 11781.9 Q10035.9 11745.1 10035.9 11675.3 Q10035.9 11605.3 10060.3 11568.6 Q10085 11531.7 10131.4 11531.7 Z" fill="#000000" fill-rule="evenodd" fill-opacity="1" /><path clip-path="url(#clip4200)" d="M 0 0 M13158.3 11561.4 Q13129.4 11561.4 13114.8 11589.9 Q13100.4 11618.2 13100.4 11675.3 Q13100.4 11732.1 13114.8 11760.6 Q13129.4 11789 13158.3 11789 Q13187.4 11789 13201.8 11760.6 Q13216.5 11732.1 13216.5 11675.3 Q13216.5 11618.2 13201.8 11589.9 Q13187.4 11561.4 13158.3 11561.4 M13158.3 11531.7 Q13204.8 11531.7 13229.3 11568.6 Q13253.9 11605.3 13253.9 11675.3 Q13253.9 11745.1 13229.3 11781.9 Q13204.8 11818.6 13158.3 11818.6 Q13111.8 11818.6 13087.2 11781.9 Q13062.8 11745.1 13062.8 11675.3 Q13062.8 11605.3 13087.2 11568.6 Q13111.8 11531.7 13158.3 11531.7 Z" fill="#000000" fill-rule="evenodd" fill-opacity="1" /><path clip-path="url(#clip4200)" d="M 0 0 M13294.4 11766.2 L13333.5 11766.2 L13333.5 11813.2 L13294.4 11813.2 L13294.4 11766.2 Z" fill="#000000" fill-rule="evenodd" fill-opacity="1" /><path clip-path="url(#clip4200)" d="M 0 0 M13458.7 11660.1 Q13433.5 11660.1 13418.7 11677.3 Q13404.1 11694.5 13404.1 11724.5 Q13404.1 11754.3 13418.7 11771.7 Q13433.5 11789 13458.7 11789 Q13483.9 11789 13498.5 11771.7 Q13513.3 11754.3 13513.3 11724.5 Q13513.3 11694.5 13498.5 11677.3 Q13483.9 11660.1 13458.7 11660.1 M13533 11542.8 L13533 11576.9 Q13518.9 11570.3 13504.4 11566.7 Q13490.2 11563.2 13476.1 11563.2 Q13439.1 11563.2 13419.4 11588.2 Q13400 11613.2 13397.2 11663.8 Q13408.1 11647.7 13424.6 11639.1 Q13441.1 11630.4 13460.9 11630.4 Q13502.6 11630.4 13526.7 11655.8 Q13550.9 11681 13550.9 11724.5 Q13550.9 11767.1 13525.7 11792.8 Q13500.5 11818.6 13458.7 11818.6 Q13410.7 11818.6 13385.4 11781.9 Q13360 11745.1 13360 11675.3 Q13360 11609.7 13391.1 11570.8 Q13422.2 11531.7 13474.6 11531.7 Q13488.7 11531.7 13503 11534.5 Q13517.4 11537.3 13533 11542.8 Z" fill="#000000" fill-rule="evenodd" fill-opacity="1" /><path clip-path="url(#clip4200)" d="M 0 0 M13623.7 11781.7 L13754.2 11781.7 L13754.2 11813.2 L13578.7 11813.2 L13578.7 11781.7 Q13600 11759.7 13636.7 11722.7 Q13673.5 11685.4 13683 11674.7 Q13700.9 11654.5 13708 11640.6 Q13715.2 11626.5 13715.2 11613 Q13715.2 11591 13699.6 11577.1 Q13684.2 11563.2 13659.4 11563.2 Q13641.8 11563.2 13622.2 11569.3 Q13602.8 11575.4 13580.5 11587.8 L13580.5 11550.1 Q13603.1 11541 13622.8 11536.4 Q13642.4 11531.7 13658.7 11531.7 Q13701.7 11531.7 13727.2 11553.2 Q13752.8 11574.7 13752.8 11610.6 Q13752.8 11627.7 13746.3 11643 Q13740 11658.2 13723.1 11679 Q13718.5 11684.3 13693.7 11710.1 Q13668.9 11735.6 13623.7 11781.7 Z" fill="#000000" fill-rule="evenodd" fill-opacity="1" /><path clip-path="url(#clip4200)" d="M 0 0 M16683.6 11561.4 Q16654.7 11561.4 16640.1 11589.9 Q16625.7 11618.2 16625.7 11675.3 Q16625.7 11732.1 16640.1 11760.6 Q16654.7 11789 16683.6 11789 Q16712.7 11789 16727.2 11760.6 Q16741.8 11732.1 16741.8 11675.3 Q16741.8 11618.2 16727.2 11589.9 Q16712.7 11561.4 16683.6 11561.4 M16683.6 11531.7 Q16730.1 11531.7 16754.6 11568.6 Q16779.2 11605.3 16779.2 11675.3 Q16779.2 11745.1 16754.6 11781.9 Q16730.1 11818.6 16683.6 11818.6 Q16637.2 11818.6 16612.5 11781.9 Q16588.1 11745.1 16588.1 11675.3 Q16588.1 11605.3 16612.5 11568.6 Q16637.2 11531.7 16683.6 11531.7 Z" fill="#000000" fill-rule="evenodd" fill-opacity="1" /><path clip-path="url(#clip4200)" d="M 0 0 M16819.7 11766.2 L16858.8 11766.2 L16858.8 11813.2 L16819.7 11813.2 L16819.7 11766.2 Z" fill="#000000" fill-rule="evenodd" fill-opacity="1" /><path clip-path="url(#clip4200)" d="M 0 0 M16984 11660.1 Q16958.8 11660.1 16944 11677.3 Q16929.4 11694.5 16929.4 11724.5 Q16929.4 11754.3 16944 11771.7 Q16958.8 11789 16984 11789 Q17009.2 11789 17023.8 11771.7 Q17038.6 11754.3 17038.6 11724.5 Q17038.6 11694.5 17023.8 11677.3 Q17009.2 11660.1 16984 11660.1 M17058.3 11542.8 L17058.3 11576.9 Q17044.2 11570.3 17029.7 11566.7 Q17015.5 11563.2 17001.4 11563.2 Q16964.4 11563.2 16944.7 11588.2 Q16925.3 11613.2 16922.5 11663.8 Q16933.4 11647.7 16949.9 11639.1 Q16966.4 11630.4 16986.2 11630.4 Q17027.9 11630.4 17052 11655.8 Q17076.2 11681 17076.2 11724.5 Q17076.2 11767.1 17051 11792.8 Q17025.9 11818.6 16984 11818.6 Q16936 11818.6 16910.7 11781.9 Q16885.3 11745.1 16885.3 11675.3 Q16885.3 11609.7 16916.4 11570.8 Q16947.5 11531.7 16999.9 11531.7 Q17014 11531.7 17028.3 11534.5 Q17042.7 11537.3 17058.3 11542.8 Z" fill="#000000" fill-rule="evenodd" fill-opacity="1" /><path clip-path="url(#clip4200)" d="M 0 0 M17219.6 11569.3 L17125.1 11716.9 L17219.6 11716.9 L17219.6 11569.3 M17209.7 11536.7 L17256.8 11536.7 L17256.8 11716.9 L17296.2 11716.9 L17296.2 11748 L17256.8 11748 L17256.8 11813.2 L17219.6 11813.2 L17219.6 11748 L17094.7 11748 L17094.7 11711.9 L17209.7 11536.7 Z" fill="#000000" fill-rule="evenodd" fill-opacity="1" /><path clip-path="url(#clip4200)" d="M 0 0 M1124.71 10277.9 Q1095.82 10277.9 1081.19 10306.5 Q1066.75 10334.8 1066.75 10391.8 Q1066.75 10448.7 1081.19 10477.2 Q1095.82 10505.5 1124.71 10505.5 Q1153.78 10505.5 1168.23 10477.2 Q1182.86 10448.7 1182.86 10391.8 Q1182.86 10334.8 1168.23 10306.5 Q1153.78 10277.9 1124.71 10277.9 M1124.71 10248.3 Q1171.19 10248.3 1195.64 10285.2 Q1220.27 10321.8 1220.27 10391.8 Q1220.27 10461.6 1195.64 10498.5 Q1171.19 10535.2 1124.71 10535.2 Q1078.23 10535.2 1053.6 10498.5 Q1029.16 10461.6 1029.16 10391.8 Q1029.16 10321.8 1053.6 10285.2 Q1078.23 10248.3 1124.71 10248.3 Z" fill="#000000" fill-rule="evenodd" fill-opacity="1" /><path clip-path="url(#clip4200)" d="M 0 0 M1260.82 10482.8 L1299.89 10482.8 L1299.89 10529.8 L1260.82 10529.8 L1260.82 10482.8 Z" fill="#000000" fill-rule="evenodd" fill-opacity="1" /><path clip-path="url(#clip4200)" d="M 0 0 M1425.08 10376.6 Q1399.89 10376.6 1385.08 10393.9 Q1370.45 10411.1 1370.45 10441.1 Q1370.45 10470.9 1385.08 10488.3 Q1399.89 10505.5 1425.08 10505.5 Q1450.26 10505.5 1464.89 10488.3 Q1479.71 10470.9 1479.71 10441.1 Q1479.71 10411.1 1464.89 10393.9 Q1450.26 10376.6 1425.08 10376.6 M1499.34 10259.4 L1499.34 10293.5 Q1485.26 10286.8 1470.82 10283.3 Q1456.56 10279.8 1442.49 10279.8 Q1405.45 10279.8 1385.82 10304.8 Q1366.38 10329.8 1363.6 10380.4 Q1374.52 10364.2 1391.01 10355.7 Q1407.49 10347 1427.3 10347 Q1468.97 10347 1493.04 10372.4 Q1517.3 10397.6 1517.3 10441.1 Q1517.3 10483.7 1492.12 10509.4 Q1466.93 10535.2 1425.08 10535.2 Q1377.12 10535.2 1351.75 10498.5 Q1326.38 10461.6 1326.38 10391.8 Q1326.38 10326.3 1357.49 10287.4 Q1388.6 10248.3 1441 10248.3 Q1455.08 10248.3 1469.34 10251.1 Q1483.78 10253.9 1499.34 10259.4 Z" fill="#000000" fill-rule="evenodd" fill-opacity="1" /><path clip-path="url(#clip4200)" d="M 0 0 M1642.49 10376.6 Q1617.3 10376.6 1602.49 10393.9 Q1587.86 10411.1 1587.86 10441.1 Q1587.86 10470.9 1602.49 10488.3 Q1617.3 10505.5 1642.49 10505.5 Q1667.67 10505.5 1682.3 10488.3 Q1697.11 10470.9 1697.11 10441.1 Q1697.11 10411.1 1682.3 10393.9 Q1667.67 10376.6 1642.49 10376.6 M1716.74 10259.4 L1716.74 10293.5 Q1702.67 10286.8 1688.23 10283.3 Q1673.97 10279.8 1659.89 10279.8 Q1622.86 10279.8 1603.23 10304.8 Q1583.78 10329.8 1581 10380.4 Q1591.93 10364.2 1608.41 10355.7 Q1624.89 10347 1644.71 10347 Q1686.37 10347 1710.45 10372.4 Q1734.71 10397.6 1734.71 10441.1 Q1734.71 10483.7 1709.52 10509.4 Q1684.34 10535.2 1642.49 10535.2 Q1594.52 10535.2 1569.15 10498.5 Q1543.78 10461.6 1543.78 10391.8 Q1543.78 10326.3 1574.89 10287.4 Q1606 10248.3 1658.41 10248.3 Q1672.49 10248.3 1686.74 10251.1 Q1701.19 10253.9 1716.74 10259.4 Z" fill="#000000" fill-rule="evenodd" fill-opacity="1" /><path clip-path="url(#clip4200)" d="M 0 0 M1775.63 10253.3 L1922.48 10253.3 L1922.48 10284.8 L1809.89 10284.8 L1809.89 10352.6 Q1818.04 10349.8 1826.19 10348.5 Q1834.34 10347 1842.48 10347 Q1888.78 10347 1915.82 10372.4 Q1942.85 10397.8 1942.85 10441.1 Q1942.85 10485.7 1915.08 10510.5 Q1887.3 10535.2 1836.74 10535.2 Q1819.34 10535.2 1801.19 10532.2 Q1783.23 10529.2 1763.97 10523.3 L1763.97 10485.7 Q1780.63 10494.8 1798.41 10499.2 Q1816.19 10503.7 1836 10503.7 Q1868.04 10503.7 1886.74 10486.8 Q1905.45 10470 1905.45 10441.1 Q1905.45 10412.2 1886.74 10395.4 Q1868.04 10378.5 1836 10378.5 Q1821 10378.5 1806 10381.8 Q1791.19 10385.2 1775.63 10392.2 L1775.63 10253.3 Z" fill="#000000" fill-rule="evenodd" fill-opacity="1" /><path clip-path="url(#clip4200)" d="M 0 0 M1989.89 10498.3 L2051 10498.3 L2051 10287.4 L1984.52 10300.7 L1984.52 10266.6 L2050.63 10253.3 L2088.04 10253.3 L2088.04 10498.3 L2149.15 10498.3 L2149.15 10529.8 L1989.89 10529.8 L1989.89 10498.3 Z" fill="#000000" fill-rule="evenodd" fill-opacity="1" /><path clip-path="url(#clip4200)" d="M 0 0 M1111.01 8340.87 Q1082.12 8340.87 1067.49 8369.39 Q1053.04 8397.72 1053.04 8454.76 Q1053.04 8511.61 1067.49 8540.13 Q1082.12 8568.46 1111.01 8568.46 Q1140.08 8568.46 1154.52 8540.13 Q1169.15 8511.61 1169.15 8454.76 Q1169.15 8397.72 1154.52 8369.39 Q1140.08 8340.87 1111.01 8340.87 M1111.01 8311.24 Q1157.49 8311.24 1181.93 8348.09 Q1206.56 8384.76 1206.56 8454.76 Q1206.56 8524.57 1181.93 8561.42 Q1157.49 8598.09 1111.01 8598.09 Q1064.53 8598.09 1039.9 8561.42 Q1015.45 8524.57 1015.45 8454.76 Q1015.45 8384.76 1039.9 8348.09 Q1064.53 8311.24 1111.01 8311.24 Z" fill="#000000" fill-rule="evenodd" fill-opacity="1" /><path clip-path="url(#clip4200)" d="M 0 0 M1247.12 8545.68 L1286.19 8545.68 L1286.19 8592.72 L1247.12 8592.72 L1247.12 8545.68 Z" fill="#000000" fill-rule="evenodd" fill-opacity="1" /><path clip-path="url(#clip4200)" d="M 0 0 M1411.38 8439.57 Q1386.19 8439.57 1371.38 8456.79 Q1356.75 8474.02 1356.75 8504.02 Q1356.75 8533.83 1371.38 8551.24 Q1386.19 8568.46 1411.38 8568.46 Q1436.56 8568.46 1451.19 8551.24 Q1466 8533.83 1466 8504.02 Q1466 8474.02 1451.19 8456.79 Q1436.56 8439.57 1411.38 8439.57 M1485.63 8322.35 L1485.63 8356.42 Q1471.56 8349.76 1457.12 8346.24 Q1442.86 8342.72 1428.78 8342.72 Q1391.75 8342.72 1372.12 8367.72 Q1352.67 8392.72 1349.89 8443.27 Q1360.82 8427.16 1377.3 8418.65 Q1393.78 8409.94 1413.6 8409.94 Q1455.26 8409.94 1479.34 8435.31 Q1503.6 8460.5 1503.6 8504.02 Q1503.6 8546.61 1478.41 8572.35 Q1453.23 8598.09 1411.38 8598.09 Q1363.41 8598.09 1338.04 8561.42 Q1312.67 8524.57 1312.67 8454.76 Q1312.67 8389.2 1343.78 8350.31 Q1374.89 8311.24 1427.3 8311.24 Q1441.38 8311.24 1455.63 8314.02 Q1470.08 8316.79 1485.63 8322.35 Z" fill="#000000" fill-rule="evenodd" fill-opacity="1" /><path clip-path="url(#clip4200)" d="M 0 0 M1628.78 8439.57 Q1603.6 8439.57 1588.78 8456.79 Q1574.15 8474.02 1574.15 8504.02 Q1574.15 8533.83 1588.78 8551.24 Q1603.6 8568.46 1628.78 8568.46 Q1653.97 8568.46 1668.6 8551.24 Q1683.41 8533.83 1683.41 8504.02 Q1683.41 8474.02 1668.6 8456.79 Q1653.97 8439.57 1628.78 8439.57 M1703.04 8322.35 L1703.04 8356.42 Q1688.97 8349.76 1674.52 8346.24 Q1660.26 8342.72 1646.19 8342.72 Q1609.15 8342.72 1589.52 8367.72 Q1570.08 8392.72 1567.3 8443.27 Q1578.23 8427.16 1594.71 8418.65 Q1611.19 8409.94 1631 8409.94 Q1672.67 8409.94 1696.74 8435.31 Q1721 8460.5 1721 8504.02 Q1721 8546.61 1695.82 8572.35 Q1670.63 8598.09 1628.78 8598.09 Q1580.82 8598.09 1555.45 8561.42 Q1530.08 8524.57 1530.08 8454.76 Q1530.08 8389.2 1561.19 8350.31 Q1592.3 8311.24 1644.71 8311.24 Q1658.78 8311.24 1673.04 8314.02 Q1687.49 8316.79 1703.04 8322.35 Z" fill="#000000" fill-rule="evenodd" fill-opacity="1" /><path clip-path="url(#clip4200)" d="M 0 0 M1761.93 8316.24 L1908.78 8316.24 L1908.78 8347.72 L1796.19 8347.72 L1796.19 8415.5 Q1804.34 8412.72 1812.48 8411.42 Q1820.63 8409.94 1828.78 8409.94 Q1875.08 8409.94 1902.11 8435.31 Q1929.15 8460.68 1929.15 8504.02 Q1929.15 8548.64 1901.37 8573.46 Q1873.6 8598.09 1823.04 8598.09 Q1805.63 8598.09 1787.48 8595.13 Q1769.52 8592.16 1750.26 8586.24 L1750.26 8548.64 Q1766.93 8557.72 1784.71 8562.16 Q1802.48 8566.61 1822.3 8566.61 Q1854.34 8566.61 1873.04 8549.76 Q1891.74 8532.9 1891.74 8504.02 Q1891.74 8475.13 1873.04 8458.27 Q1854.34 8441.42 1822.3 8441.42 Q1807.3 8441.42 1792.3 8444.76 Q1777.48 8448.09 1761.93 8455.13 L1761.93 8316.24 Z" fill="#000000" fill-rule="evenodd" fill-opacity="1" /><path clip-path="url(#clip4200)" d="M 0 0 M2072.48 8348.83 L1978.04 8496.42 L2072.48 8496.42 L2072.48 8348.83 M2062.67 8316.24 L2109.7 8316.24 L2109.7 8496.42 L2149.15 8496.42 L2149.15 8527.53 L2109.7 8527.53 L2109.7 8592.72 L2072.48 8592.72 L2072.48 8527.53 L1947.67 8527.53 L1947.67 8491.42 L2062.67 8316.24 Z" fill="#000000" fill-rule="evenodd" fill-opacity="1" /><path clip-path="url(#clip4200)" d="M 0 0 M1122.12 6403.79 Q1093.23 6403.79 1078.6 6432.31 Q1064.16 6460.64 1064.16 6517.68 Q1064.16 6574.53 1078.6 6603.05 Q1093.23 6631.38 1122.12 6631.38 Q1151.19 6631.38 1165.64 6603.05 Q1180.27 6574.53 1180.27 6517.68 Q1180.27 6460.64 1165.64 6432.31 Q1151.19 6403.79 1122.12 6403.79 M1122.12 6374.16 Q1168.6 6374.16 1193.04 6411.01 Q1217.67 6447.68 1217.67 6517.68 Q1217.67 6587.49 1193.04 6624.34 Q1168.6 6661.01 1122.12 6661.01 Q1075.64 6661.01 1051.01 6624.34 Q1026.56 6587.49 1026.56 6517.68 Q1026.56 6447.68 1051.01 6411.01 Q1075.64 6374.16 1122.12 6374.16 Z" fill="#000000" fill-rule="evenodd" fill-opacity="1" /><path clip-path="url(#clip4200)" d="M 0 0 M1258.23 6608.6 L1297.3 6608.6 L1297.3 6655.64 L1258.23 6655.64 L1258.23 6608.6 Z" fill="#000000" fill-rule="evenodd" fill-opacity="1" /><path clip-path="url(#clip4200)" d="M 0 0 M1422.49 6502.49 Q1397.3 6502.49 1382.49 6519.72 Q1367.86 6536.94 1367.86 6566.94 Q1367.86 6596.75 1382.49 6614.16 Q1397.3 6631.38 1422.49 6631.38 Q1447.67 6631.38 1462.3 6614.16 Q1477.12 6596.75 1477.12 6566.94 Q1477.12 6536.94 1462.3 6519.72 Q1447.67 6502.49 1422.49 6502.49 M1496.75 6385.27 L1496.75 6419.35 Q1482.67 6412.68 1468.23 6409.16 Q1453.97 6405.64 1439.89 6405.64 Q1402.86 6405.64 1383.23 6430.64 Q1363.78 6455.64 1361.01 6506.2 Q1371.93 6490.09 1388.41 6481.57 Q1404.89 6472.86 1424.71 6472.86 Q1466.38 6472.86 1490.45 6498.23 Q1514.71 6523.42 1514.71 6566.94 Q1514.71 6609.53 1489.52 6635.27 Q1464.34 6661.01 1422.49 6661.01 Q1374.52 6661.01 1349.15 6624.34 Q1323.78 6587.49 1323.78 6517.68 Q1323.78 6452.12 1354.89 6413.23 Q1386.01 6374.16 1438.41 6374.16 Q1452.49 6374.16 1466.75 6376.94 Q1481.19 6379.72 1496.75 6385.27 Z" fill="#000000" fill-rule="evenodd" fill-opacity="1" /><path clip-path="url(#clip4200)" d="M 0 0 M1639.89 6502.49 Q1614.71 6502.49 1599.89 6519.72 Q1585.26 6536.94 1585.26 6566.94 Q1585.26 6596.75 1599.89 6614.16 Q1614.71 6631.38 1639.89 6631.38 Q1665.08 6631.38 1679.71 6614.16 Q1694.52 6596.75 1694.52 6566.94 Q1694.52 6536.94 1679.71 6519.72 Q1665.08 6502.49 1639.89 6502.49 M1714.15 6385.27 L1714.15 6419.35 Q1700.08 6412.68 1685.63 6409.16 Q1671.37 6405.64 1657.3 6405.64 Q1620.26 6405.64 1600.63 6430.64 Q1581.19 6455.64 1578.41 6506.2 Q1589.34 6490.09 1605.82 6481.57 Q1622.3 6472.86 1642.11 6472.86 Q1683.78 6472.86 1707.86 6498.23 Q1732.11 6523.42 1732.11 6566.94 Q1732.11 6609.53 1706.93 6635.27 Q1681.74 6661.01 1639.89 6661.01 Q1591.93 6661.01 1566.56 6624.34 Q1541.19 6587.49 1541.19 6517.68 Q1541.19 6452.12 1572.3 6413.23 Q1603.41 6374.16 1655.82 6374.16 Q1669.89 6374.16 1684.15 6376.94 Q1698.6 6379.72 1714.15 6385.27 Z" fill="#000000" fill-rule="evenodd" fill-opacity="1" /><path clip-path="url(#clip4200)" d="M 0 0 M1773.04 6379.16 L1919.89 6379.16 L1919.89 6410.64 L1807.3 6410.64 L1807.3 6478.42 Q1815.45 6475.64 1823.6 6474.35 Q1831.74 6472.86 1839.89 6472.86 Q1886.19 6472.86 1913.22 6498.23 Q1940.26 6523.6 1940.26 6566.94 Q1940.26 6611.57 1912.48 6636.38 Q1884.71 6661.01 1834.15 6661.01 Q1816.74 6661.01 1798.6 6658.05 Q1780.63 6655.09 1761.37 6649.16 L1761.37 6611.57 Q1778.04 6620.64 1795.82 6625.09 Q1813.6 6629.53 1833.41 6629.53 Q1865.45 6629.53 1884.15 6612.68 Q1902.85 6595.83 1902.85 6566.94 Q1902.85 6538.05 1884.15 6521.2 Q1865.45 6504.35 1833.41 6504.35 Q1818.41 6504.35 1803.41 6507.68 Q1788.6 6511.01 1773.04 6518.05 L1773.04 6379.16 Z" fill="#000000" fill-rule="evenodd" fill-opacity="1" /><path clip-path="url(#clip4200)" d="M 0 0 M1971.37 6379.16 L2149.15 6379.16 L2149.15 6395.09 L2048.78 6655.64 L2009.71 6655.64 L2104.15 6410.64 L1971.37 6410.64 L1971.37 6379.16 Z" fill="#000000" fill-rule="evenodd" fill-opacity="1" /><path clip-path="url(#clip4200)" d="M 0 0 M1105.64 4466.71 Q1076.75 4466.71 1062.12 4495.23 Q1047.67 4523.56 1047.67 4580.6 Q1047.67 4637.45 1062.12 4665.97 Q1076.75 4694.3 1105.64 4694.3 Q1134.71 4694.3 1149.15 4665.97 Q1163.78 4637.45 1163.78 4580.6 Q1163.78 4523.56 1149.15 4495.23 Q1134.71 4466.71 1105.64 4466.71 M1105.64 4437.08 Q1152.12 4437.08 1176.56 4473.93 Q1201.19 4510.6 1201.19 4580.6 Q1201.19 4650.42 1176.56 4687.27 Q1152.12 4723.93 1105.64 4723.93 Q1059.16 4723.93 1034.53 4687.27 Q1010.08 4650.42 1010.08 4580.6 Q1010.08 4510.6 1034.53 4473.93 Q1059.16 4437.08 1105.64 4437.08 Z" fill="#000000" fill-rule="evenodd" fill-opacity="1" /><path clip-path="url(#clip4200)" d="M 0 0 M1241.75 4671.53 L1280.82 4671.53 L1280.82 4718.56 L1241.75 4718.56 L1241.75 4671.53 Z" fill="#000000" fill-rule="evenodd" fill-opacity="1" /><path clip-path="url(#clip4200)" d="M 0 0 M1406.01 4565.42 Q1380.82 4565.42 1366.01 4582.64 Q1351.38 4599.86 1351.38 4629.86 Q1351.38 4659.67 1366.01 4677.08 Q1380.82 4694.3 1406.01 4694.3 Q1431.19 4694.3 1445.82 4677.08 Q1460.63 4659.67 1460.63 4629.86 Q1460.63 4599.86 1445.82 4582.64 Q1431.19 4565.42 1406.01 4565.42 M1480.26 4448.19 L1480.26 4482.27 Q1466.19 4475.6 1451.75 4472.08 Q1437.49 4468.56 1423.41 4468.56 Q1386.38 4468.56 1366.75 4493.56 Q1347.3 4518.56 1344.52 4569.12 Q1355.45 4553.01 1371.93 4544.49 Q1388.41 4535.79 1408.23 4535.79 Q1449.89 4535.79 1473.97 4561.16 Q1498.23 4586.34 1498.23 4629.86 Q1498.23 4672.45 1473.04 4698.19 Q1447.86 4723.93 1406.01 4723.93 Q1358.04 4723.93 1332.67 4687.27 Q1307.3 4650.42 1307.3 4580.6 Q1307.3 4515.05 1338.41 4476.16 Q1369.52 4437.08 1421.93 4437.08 Q1436 4437.08 1450.26 4439.86 Q1464.71 4442.64 1480.26 4448.19 Z" fill="#000000" fill-rule="evenodd" fill-opacity="1" /><path clip-path="url(#clip4200)" d="M 0 0 M1623.41 4565.42 Q1598.23 4565.42 1583.41 4582.64 Q1568.78 4599.86 1568.78 4629.86 Q1568.78 4659.67 1583.41 4677.08 Q1598.23 4694.3 1623.41 4694.3 Q1648.6 4694.3 1663.23 4677.08 Q1678.04 4659.67 1678.04 4629.86 Q1678.04 4599.86 1663.23 4582.64 Q1648.6 4565.42 1623.41 4565.42 M1697.67 4448.19 L1697.67 4482.27 Q1683.6 4475.6 1669.15 4472.08 Q1654.89 4468.56 1640.82 4468.56 Q1603.78 4468.56 1584.15 4493.56 Q1564.71 4518.56 1561.93 4569.12 Q1572.86 4553.01 1589.34 4544.49 Q1605.82 4535.79 1625.63 4535.79 Q1667.3 4535.79 1691.37 4561.16 Q1715.63 4586.34 1715.63 4629.86 Q1715.63 4672.45 1690.45 4698.19 Q1665.26 4723.93 1623.41 4723.93 Q1575.45 4723.93 1550.08 4687.27 Q1524.71 4650.42 1524.71 4580.6 Q1524.71 4515.05 1555.82 4476.16 Q1586.93 4437.08 1639.34 4437.08 Q1653.41 4437.08 1667.67 4439.86 Q1682.11 4442.64 1697.67 4448.19 Z" fill="#000000" fill-rule="evenodd" fill-opacity="1" /><path clip-path="url(#clip4200)" d="M 0 0 M1840.82 4565.42 Q1815.63 4565.42 1800.82 4582.64 Q1786.19 4599.86 1786.19 4629.86 Q1786.19 4659.67 1800.82 4677.08 Q1815.63 4694.3 1840.82 4694.3 Q1866 4694.3 1880.63 4677.08 Q1895.45 4659.67 1895.45 4629.86 Q1895.45 4599.86 1880.63 4582.64 Q1866 4565.42 1840.82 4565.42 M1915.08 4448.19 L1915.08 4482.27 Q1901 4475.6 1886.56 4472.08 Q1872.3 4468.56 1858.22 4468.56 Q1821.19 4468.56 1801.56 4493.56 Q1782.11 4518.56 1779.34 4569.12 Q1790.26 4553.01 1806.74 4544.49 Q1823.23 4535.79 1843.04 4535.79 Q1884.71 4535.79 1908.78 4561.16 Q1933.04 4586.34 1933.04 4629.86 Q1933.04 4672.45 1907.85 4698.19 Q1882.67 4723.93 1840.82 4723.93 Q1792.85 4723.93 1767.48 4687.27 Q1742.11 4650.42 1742.11 4580.6 Q1742.11 4515.05 1773.23 4476.16 Q1804.34 4437.08 1856.74 4437.08 Q1870.82 4437.08 1885.08 4439.86 Q1899.52 4442.64 1915.08 4448.19 Z" fill="#000000" fill-rule="evenodd" fill-opacity="1" /><path clip-path="url(#clip4200)" d="M 0 0 M2053.59 4466.71 Q2024.71 4466.71 2010.08 4495.23 Q1995.63 4523.56 1995.63 4580.6 Q1995.63 4637.45 2010.08 4665.97 Q2024.71 4694.3 2053.59 4694.3 Q2082.67 4694.3 2097.11 4665.97 Q2111.74 4637.45 2111.74 4580.6 Q2111.74 4523.56 2097.11 4495.23 Q2082.67 4466.71 2053.59 4466.71 M2053.59 4437.08 Q2100.08 4437.08 2124.52 4473.93 Q2149.15 4510.6 2149.15 4580.6 Q2149.15 4650.42 2124.52 4687.27 Q2100.08 4723.93 2053.59 4723.93 Q2007.11 4723.93 1982.48 4687.27 Q1958.04 4650.42 1958.04 4580.6 Q1958.04 4510.6 1982.48 4473.93 Q2007.11 4437.08 2053.59 4437.08 Z" fill="#000000" fill-rule="evenodd" fill-opacity="1" /><path clip-path="url(#clip4200)" d="M 0 0 M1110.82 2529.64 Q1081.93 2529.64 1067.3 2558.15 Q1052.86 2586.49 1052.86 2643.52 Q1052.86 2700.38 1067.3 2728.89 Q1081.93 2757.23 1110.82 2757.23 Q1139.9 2757.23 1154.34 2728.89 Q1168.97 2700.38 1168.97 2643.52 Q1168.97 2586.49 1154.34 2558.15 Q1139.9 2529.64 1110.82 2529.64 M1110.82 2500.01 Q1157.3 2500.01 1181.75 2536.86 Q1206.38 2573.52 1206.38 2643.52 Q1206.38 2713.34 1181.75 2750.19 Q1157.3 2786.86 1110.82 2786.86 Q1064.34 2786.86 1039.71 2750.19 Q1015.27 2713.34 1015.27 2643.52 Q1015.27 2573.52 1039.71 2536.86 Q1064.34 2500.01 1110.82 2500.01 Z" fill="#000000" fill-rule="evenodd" fill-opacity="1" /><path clip-path="url(#clip4200)" d="M 0 0 M1246.93 2734.45 L1286.01 2734.45 L1286.01 2781.49 L1246.93 2781.49 L1246.93 2734.45 Z" fill="#000000" fill-rule="evenodd" fill-opacity="1" /><path clip-path="url(#clip4200)" d="M 0 0 M1411.19 2628.34 Q1386.01 2628.34 1371.19 2645.56 Q1356.56 2662.78 1356.56 2692.78 Q1356.56 2722.6 1371.19 2740 Q1386.01 2757.23 1411.19 2757.23 Q1436.38 2757.23 1451 2740 Q1465.82 2722.6 1465.82 2692.78 Q1465.82 2662.78 1451 2645.56 Q1436.38 2628.34 1411.19 2628.34 M1485.45 2511.12 L1485.45 2545.19 Q1471.38 2538.52 1456.93 2535.01 Q1442.67 2531.49 1428.6 2531.49 Q1391.56 2531.49 1371.93 2556.49 Q1352.49 2581.49 1349.71 2632.04 Q1360.63 2615.93 1377.12 2607.41 Q1393.6 2598.71 1413.41 2598.71 Q1455.08 2598.71 1479.15 2624.08 Q1503.41 2649.26 1503.41 2692.78 Q1503.41 2735.37 1478.23 2761.12 Q1453.04 2786.86 1411.19 2786.86 Q1363.23 2786.86 1337.86 2750.19 Q1312.49 2713.34 1312.49 2643.52 Q1312.49 2577.97 1343.6 2539.08 Q1374.71 2500.01 1427.12 2500.01 Q1441.19 2500.01 1455.45 2502.78 Q1469.89 2505.56 1485.45 2511.12 Z" fill="#000000" fill-rule="evenodd" fill-opacity="1" /><path clip-path="url(#clip4200)" d="M 0 0 M1628.6 2628.34 Q1603.41 2628.34 1588.6 2645.56 Q1573.97 2662.78 1573.97 2692.78 Q1573.97 2722.6 1588.6 2740 Q1603.41 2757.23 1628.6 2757.23 Q1653.78 2757.23 1668.41 2740 Q1683.23 2722.6 1683.23 2692.78 Q1683.23 2662.78 1668.41 2645.56 Q1653.78 2628.34 1628.6 2628.34 M1702.86 2511.12 L1702.86 2545.19 Q1688.78 2538.52 1674.34 2535.01 Q1660.08 2531.49 1646 2531.49 Q1608.97 2531.49 1589.34 2556.49 Q1569.89 2581.49 1567.12 2632.04 Q1578.04 2615.93 1594.52 2607.41 Q1611 2598.71 1630.82 2598.71 Q1672.49 2598.71 1696.56 2624.08 Q1720.82 2649.26 1720.82 2692.78 Q1720.82 2735.37 1695.63 2761.12 Q1670.45 2786.86 1628.6 2786.86 Q1580.63 2786.86 1555.26 2750.19 Q1529.89 2713.34 1529.89 2643.52 Q1529.89 2577.97 1561 2539.08 Q1592.12 2500.01 1644.52 2500.01 Q1658.6 2500.01 1672.86 2502.78 Q1687.3 2505.56 1702.86 2511.12 Z" fill="#000000" fill-rule="evenodd" fill-opacity="1" /><path clip-path="url(#clip4200)" d="M 0 0 M1846 2628.34 Q1820.82 2628.34 1806 2645.56 Q1791.37 2662.78 1791.37 2692.78 Q1791.37 2722.6 1806 2740 Q1820.82 2757.23 1846 2757.23 Q1871.19 2757.23 1885.82 2740 Q1900.63 2722.6 1900.63 2692.78 Q1900.63 2662.78 1885.82 2645.56 Q1871.19 2628.34 1846 2628.34 M1920.26 2511.12 L1920.26 2545.19 Q1906.19 2538.52 1891.74 2535.01 Q1877.48 2531.49 1863.41 2531.49 Q1826.37 2531.49 1806.74 2556.49 Q1787.3 2581.49 1784.52 2632.04 Q1795.45 2615.93 1811.93 2607.41 Q1828.41 2598.71 1848.22 2598.71 Q1889.89 2598.71 1913.97 2624.08 Q1938.22 2649.26 1938.22 2692.78 Q1938.22 2735.37 1913.04 2761.12 Q1887.85 2786.86 1846 2786.86 Q1798.04 2786.86 1772.67 2750.19 Q1747.3 2713.34 1747.3 2643.52 Q1747.3 2577.97 1778.41 2539.08 Q1809.52 2500.01 1861.93 2500.01 Q1876 2500.01 1890.26 2502.78 Q1904.71 2505.56 1920.26 2511.12 Z" fill="#000000" fill-rule="evenodd" fill-opacity="1" /><path clip-path="url(#clip4200)" d="M 0 0 M2092.11 2632.41 Q2118.96 2638.15 2133.96 2656.3 Q2149.15 2674.45 2149.15 2701.12 Q2149.15 2742.04 2121 2764.45 Q2092.85 2786.86 2041 2786.86 Q2023.59 2786.86 2005.08 2783.34 Q1986.74 2780 1967.11 2773.15 L1967.11 2737.04 Q1982.67 2746.12 2001.19 2750.75 Q2019.71 2755.37 2039.89 2755.37 Q2075.08 2755.37 2093.41 2741.49 Q2111.93 2727.6 2111.93 2701.12 Q2111.93 2676.67 2094.71 2662.97 Q2077.67 2649.08 2047.11 2649.08 L2014.89 2649.08 L2014.89 2618.34 L2048.59 2618.34 Q2076.19 2618.34 2090.82 2607.41 Q2105.45 2596.3 2105.45 2575.56 Q2105.45 2554.26 2090.26 2542.97 Q2075.26 2531.49 2047.11 2531.49 Q2031.74 2531.49 2014.15 2534.82 Q1996.56 2538.15 1975.45 2545.19 L1975.45 2511.86 Q1996.74 2505.93 2015.26 2502.97 Q2033.96 2500.01 2050.45 2500.01 Q2093.04 2500.01 2117.85 2519.45 Q2142.67 2538.71 2142.67 2571.67 Q2142.67 2594.63 2129.52 2610.56 Q2116.37 2626.3 2092.11 2632.41 Z" fill="#000000" fill-rule="evenodd" fill-opacity="1" /><path clip-path="url(#clip4200)" d="M 0 0 M5263.41 228.341 L5263.41 284.73 Q5238.13 271.767 5210.91 265.286 Q5183.69 258.804 5154.52 258.804 Q5110.12 258.804 5087.76 272.415 Q5065.73 286.026 5065.73 313.248 Q5065.73 333.989 5081.6 345.98 Q5097.48 357.646 5145.45 368.341 L5165.86 372.878 Q5229.38 386.489 5255.96 411.442 Q5282.85 436.072 5282.85 480.47 Q5282.85 531.025 5242.67 560.516 Q5202.81 590.006 5132.81 590.006 Q5103.64 590.006 5071.88 584.173 Q5040.45 578.664 5005.45 567.321 L5005.45 505.747 Q5038.5 522.923 5070.59 531.673 Q5102.67 540.099 5134.1 540.099 Q5176.23 540.099 5198.92 525.84 Q5221.6 511.257 5221.6 485.007 Q5221.6 460.701 5205.08 447.738 Q5188.87 434.775 5133.46 422.785 L5112.72 417.924 Q5057.3 406.257 5032.67 382.276 Q5008.04 357.97 5008.04 315.841 Q5008.04 264.637 5044.34 236.767 Q5080.63 208.897 5147.39 208.897 Q5180.45 208.897 5209.61 213.758 Q5238.78 218.619 5263.41 228.341 Z" fill="#000000" fill-rule="evenodd" fill-opacity="1" /><path clip-path="url(#clip4200)" d="M 0 0 M5345.4 217.647 L5405.03 217.647 L5405.03 580.608 L5345.4 580.608 L5345.4 217.647 M5345.4 76.3514 L5405.03 76.3514 L5405.03 151.86 L5345.4 151.86 L5345.4 76.3514 Z" fill="#000000" fill-rule="evenodd" fill-opacity="1" /><path clip-path="url(#clip4200)" d="M 0 0 M5441.65 217.647 L5724.89 217.647 L5724.89 272.091 L5500.63 532.969 L5724.89 532.969 L5724.89 580.608 L5433.55 580.608 L5433.55 526.164 L5657.81 265.286 L5441.65 265.286 L5441.65 217.647 Z" fill="#000000" fill-rule="evenodd" fill-opacity="1" /><path clip-path="url(#clip4200)" d="M 0 0 M6097.9 384.22 L6097.9 413.387 L5823.73 413.387 Q5827.62 474.96 5860.67 507.368 Q5894.05 539.451 5953.36 539.451 Q5987.71 539.451 6019.79 531.025 Q6052.2 522.599 6083.96 505.747 L6083.96 562.136 Q6051.88 575.747 6018.17 582.877 Q5984.47 590.006 5949.79 590.006 Q5862.94 590.006 5812.06 539.451 Q5761.51 488.896 5761.51 402.692 Q5761.51 313.572 5809.47 261.397 Q5857.76 208.897 5939.42 208.897 Q6012.66 208.897 6055.12 256.212 Q6097.9 303.202 6097.9 384.22 M6038.27 366.72 Q6037.62 317.785 6010.72 288.619 Q5984.15 259.452 5940.07 259.452 Q5890.17 259.452 5860.03 287.647 Q5830.21 315.841 5825.67 367.044 L6038.27 366.72 Z" fill="#000000" fill-rule="evenodd" fill-opacity="1" /><path clip-path="url(#clip4200)" d="M 0 0 M6175.67 498.294 L6244.05 498.294 L6244.05 580.608 L6175.67 580.608 L6175.67 498.294 M6175.67 237.415 L6244.05 237.415 L6244.05 319.73 L6175.67 319.73 L6175.67 237.415 Z" fill="#000000" fill-rule="evenodd" fill-opacity="1" /><path clip-path="url(#clip4200)" d="M 0 0 M6463.12 312.6 Q6419.05 312.6 6393.13 342.739 Q6367.52 372.878 6367.52 425.377 Q6367.52 477.553 6393.13 508.016 Q6419.05 538.155 6463.12 538.155 Q6507.2 538.155 6532.8 508.016 Q6558.73 477.553 6558.73 425.377 Q6558.73 372.878 6532.8 342.739 Q6507.2 312.6 6463.12 312.6 M6593.08 107.462 L6593.08 167.092 Q6568.45 155.425 6543.17 149.268 Q6518.22 143.11 6493.59 143.11 Q6428.77 143.11 6394.42 186.86 Q6360.39 230.61 6355.53 319.082 Q6374.65 290.887 6403.5 275.98 Q6432.34 260.749 6467.01 260.749 Q6539.93 260.749 6582.06 305.147 Q6624.51 349.22 6624.51 425.377 Q6624.51 499.914 6580.44 544.96 Q6536.37 590.006 6463.12 590.006 Q6379.19 590.006 6334.79 525.84 Q6290.39 461.349 6290.39 339.174 Q6290.39 224.453 6344.84 156.397 Q6399.28 88.018 6491 88.018 Q6515.62 88.018 6540.58 92.8791 Q6565.86 97.7402 6593.08 107.462 Z" fill="#000000" fill-rule="evenodd" fill-opacity="1" /><path clip-path="url(#clip4200)" d="M 0 0 M6702.29 498.294 L6770.67 498.294 L6770.67 554.034 L6717.52 657.737 L6675.72 657.737 L6702.29 554.034 L6702.29 498.294 Z" fill="#000000" fill-rule="evenodd" fill-opacity="1" /><path clip-path="url(#clip4200)" d="M 0 0 M6981.64 350.841 Q6934.97 350.841 6908.08 375.794 Q6881.5 400.748 6881.5 444.498 Q6881.5 488.247 6908.08 513.201 Q6934.97 538.155 6981.64 538.155 Q7028.31 538.155 7055.21 513.201 Q7082.1 487.923 7082.1 444.498 Q7082.1 400.748 7055.21 375.794 Q7028.63 350.841 6981.64 350.841 M6916.18 322.97 Q6874.05 312.6 6850.39 283.758 Q6827.06 254.915 6827.06 213.434 Q6827.06 155.425 6868.22 121.722 Q6909.7 88.018 6981.64 88.018 Q7053.91 88.018 7095.07 121.722 Q7136.22 155.425 7136.22 213.434 Q7136.22 254.915 7112.57 283.758 Q7089.23 312.6 7047.43 322.97 Q7094.74 333.989 7120.99 366.072 Q7147.57 398.155 7147.57 444.498 Q7147.57 514.821 7104.46 552.414 Q7061.69 590.006 6981.64 590.006 Q6901.59 590.006 6858.49 552.414 Q6815.72 514.821 6815.72 444.498 Q6815.72 398.155 6842.29 366.072 Q6868.86 333.989 6916.18 322.97 M6892.2 219.591 Q6892.2 257.184 6915.53 278.249 Q6939.19 299.313 6981.64 299.313 Q7023.77 299.313 7047.43 278.249 Q7071.41 257.184 7071.41 219.591 Q7071.41 181.999 7047.43 160.934 Q7023.77 139.87 6981.64 139.87 Q6939.19 139.87 6915.53 160.934 Q6892.2 181.999 6892.2 219.591 Z" fill="#000000" fill-rule="evenodd" fill-opacity="1" /><path clip-path="url(#clip4200)" d="M 0 0 M7225.34 498.294 L7293.72 498.294 L7293.72 554.034 L7240.57 657.737 L7198.77 657.737 L7225.34 554.034 L7225.34 498.294 Z" fill="#000000" fill-rule="evenodd" fill-opacity="1" /><path clip-path="url(#clip4200)" d="M 0 0 M7376.04 525.516 L7482.98 525.516 L7482.98 156.397 L7366.64 179.731 L7366.64 120.101 L7482.33 96.768 L7547.8 96.768 L7547.8 525.516 L7654.74 525.516 L7654.74 580.608 L7376.04 580.608 L7376.04 525.516 Z" fill="#000000" fill-rule="evenodd" fill-opacity="1" /><path clip-path="url(#clip4200)" d="M 0 0 M7865.71 139.87 Q7815.15 139.87 7789.55 189.777 Q7764.28 239.36 7764.28 339.174 Q7764.28 438.664 7789.55 488.571 Q7815.15 538.155 7865.71 538.155 Q7916.59 538.155 7941.87 488.571 Q7967.47 438.664 7967.47 339.174 Q7967.47 239.36 7941.87 189.777 Q7916.59 139.87 7865.71 139.87 M7865.71 88.018 Q7947.05 88.018 7989.83 152.508 Q8032.93 216.675 8032.93 339.174 Q8032.93 461.349 7989.83 525.84 Q7947.05 590.006 7865.71 590.006 Q7784.37 590.006 7741.27 525.84 Q7698.49 461.349 7698.49 339.174 Q7698.49 216.675 7741.27 152.508 Q7784.37 88.018 7865.71 88.018 Z" fill="#000000" fill-rule="evenodd" fill-opacity="1" /><path clip-path="url(#clip4200)" d="M 0 0 M8110.71 498.294 L8179.09 498.294 L8179.09 554.034 L8125.94 657.737 L8084.13 657.737 L8110.71 554.034 L8110.71 498.294 Z" fill="#000000" fill-rule="evenodd" fill-opacity="1" /><path clip-path="url(#clip4200)" d="M 0 0 M8261.4 525.516 L8368.35 525.516 L8368.35 156.397 L8252 179.731 L8252 120.101 L8367.7 96.768 L8433.16 96.768 L8433.16 525.516 L8540.1 525.516 L8540.1 580.608 L8261.4 580.608 L8261.4 525.516 Z" fill="#000000" fill-rule="evenodd" fill-opacity="1" /><path clip-path="url(#clip4200)" d="M 0 0 M8667.46 525.516 L8895.94 525.516 L8895.94 580.608 L8588.72 580.608 L8588.72 525.516 Q8625.98 486.951 8690.15 422.137 Q8754.64 356.998 8771.17 338.202 Q8802.6 302.878 8814.92 278.573 Q8827.56 253.943 8827.56 230.286 Q8827.56 191.721 8800.33 167.416 Q8773.44 143.11 8730.01 143.11 Q8699.22 143.11 8664.87 153.805 Q8630.84 164.499 8591.96 186.212 L8591.96 120.101 Q8631.49 104.222 8665.84 96.1199 Q8700.2 88.018 8728.71 88.018 Q8803.9 88.018 8848.62 125.61 Q8893.34 163.203 8893.34 226.073 Q8893.34 255.888 8882 282.786 Q8870.98 309.359 8841.49 345.656 Q8833.39 355.054 8789.96 400.1 Q8746.54 444.822 8667.46 525.516 Z" fill="#000000" fill-rule="evenodd" fill-opacity="1" /><path clip-path="url(#clip4200)" d="M 0 0 M8973.71 498.294 L9042.09 498.294 L9042.09 554.034 L8988.94 657.737 L8947.14 657.737 L8973.71 554.034 L8973.71 498.294 Z" fill="#000000" fill-rule="evenodd" fill-opacity="1" /><path clip-path="url(#clip4200)" d="M 0 0 M9124.41 525.516 L9231.35 525.516 L9231.35 156.397 L9115.01 179.731 L9115.01 120.101 L9230.7 96.768 L9296.17 96.768 L9296.17 525.516 L9403.11 525.516 L9403.11 580.608 L9124.41 580.608 L9124.41 525.516 Z" fill="#000000" fill-rule="evenodd" fill-opacity="1" /><path clip-path="url(#clip4200)" d="M 0 0 M9653.94 153.805 L9488.66 412.09 L9653.94 412.09 L9653.94 153.805 M9636.77 96.768 L9719.08 96.768 L9719.08 412.09 L9788.11 412.09 L9788.11 466.535 L9719.08 466.535 L9719.08 580.608 L9653.94 580.608 L9653.94 466.535 L9435.52 466.535 L9435.52 403.34 L9636.77 96.768 Z" fill="#000000" fill-rule="evenodd" fill-opacity="1" /><path clip-path="url(#clip4200)" d="M 0 0 M9865.88 498.294 L9934.26 498.294 L9934.26 554.034 L9881.12 657.737 L9839.31 657.737 L9865.88 554.034 L9865.88 498.294 Z" fill="#000000" fill-rule="evenodd" fill-opacity="1" /><path clip-path="url(#clip4200)" d="M 0 0 M10016.6 525.516 L10123.5 525.516 L10123.5 156.397 L10007.2 179.731 L10007.2 120.101 L10122.9 96.768 L10188.3 96.768 L10188.3 525.516 L10295.3 525.516 L10295.3 580.608 L10016.6 580.608 L10016.6 525.516 Z" fill="#000000" fill-rule="evenodd" fill-opacity="1" /><path clip-path="url(#clip4200)" d="M 0 0 M10514.4 312.6 Q10470.3 312.6 10444.4 342.739 Q10418.8 372.878 10418.8 425.377 Q10418.8 477.553 10444.4 508.016 Q10470.3 538.155 10514.4 538.155 Q10558.4 538.155 10584 508.016 Q10610 477.553 10610 425.377 Q10610 372.878 10584 342.739 Q10558.4 312.6 10514.4 312.6 M10644.3 107.462 L10644.3 167.092 Q10619.7 155.425 10594.4 149.268 Q10569.4 143.11 10544.8 143.11 Q10480 143.11 10445.6 186.86 Q10411.6 230.61 10406.8 319.082 Q10425.9 290.887 10454.7 275.98 Q10483.6 260.749 10518.2 260.749 Q10591.2 260.749 10633.3 305.147 Q10675.7 349.22 10675.7 425.377 Q10675.7 499.914 10631.7 544.96 Q10587.6 590.006 10514.4 590.006 Q10430.4 590.006 10386 525.84 Q10341.6 461.349 10341.6 339.174 Q10341.6 224.453 10396.1 156.397 Q10450.5 88.018 10542.2 88.018 Q10566.9 88.018 10591.8 92.8791 Q10617.1 97.7402 10644.3 107.462 Z" fill="#000000" fill-rule="evenodd" fill-opacity="1" /><path clip-path="url(#clip4200)" d="M 0 0 M10753.5 237.415 L10821.9 237.415 L10821.9 319.73 L10753.5 319.73 L10753.5 237.415 M10753.5 498.294 L10821.9 498.294 L10821.9 554.034 L10768.8 657.737 L10726.9 657.737 L10753.5 554.034 L10753.5 498.294 Z" fill="#000000" fill-rule="evenodd" fill-opacity="1" /><path clip-path="url(#clip4200)" d="M 0 0 M11294.4 141.166 Q11223.1 141.166 11181 194.314 Q11139.2 247.462 11139.2 339.174 Q11139.2 430.563 11181 483.71 Q11223.1 536.858 11294.4 536.858 Q11365.7 536.858 11407.2 483.71 Q11449 430.563 11449 339.174 Q11449 247.462 11407.2 194.314 Q11365.7 141.166 11294.4 141.166 M11386.1 571.858 L11472.3 666.163 L11393.2 666.163 L11321.6 588.71 Q11310.9 589.358 11305.1 589.682 Q11299.6 590.006 11294.4 590.006 Q11192.3 590.006 11131.1 521.951 Q11070.1 453.572 11070.1 339.174 Q11070.1 224.453 11131.1 156.397 Q11192.3 88.018 11294.4 88.018 Q11396.2 88.018 11457.1 156.397 Q11518 224.453 11518 339.174 Q11518 423.433 11484 483.386 Q11450.3 543.34 11386.1 571.858 Z" fill="#000000" fill-rule="evenodd" fill-opacity="1" /><path clip-path="url(#clip4200)" d="M 0 0 M11799.3 279.221 L12214.8 279.221 L12214.8 333.665 L11799.3 333.665 L11799.3 279.221 M11799.3 411.442 L12214.8 411.442 L12214.8 466.535 L11799.3 466.535 L11799.3 411.442 Z" fill="#000000" fill-rule="evenodd" fill-opacity="1" /><path clip-path="url(#clip4200)" d="M 0 0 M12508 525.516 L12615 525.516 L12615 156.397 L12498.6 179.731 L12498.6 120.101 L12614.3 96.768 L12679.8 96.768 L12679.8 525.516 L12786.7 525.516 L12786.7 580.608 L12508 580.608 L12508 525.516 Z" fill="#000000" fill-rule="evenodd" fill-opacity="1" /><path clip-path="url(#clip4200)" d="M 0 0 M13005.8 312.6 Q12961.7 312.6 12935.8 342.739 Q12910.2 372.878 12910.2 425.377 Q12910.2 477.553 12935.8 508.016 Q12961.7 538.155 13005.8 538.155 Q13049.9 538.155 13075.5 508.016 Q13101.4 477.553 13101.4 425.377 Q13101.4 372.878 13075.5 342.739 Q13049.9 312.6 13005.8 312.6 M13135.8 107.462 L13135.8 167.092 Q13111.1 155.425 13085.9 149.268 Q13060.9 143.11 13036.3 143.11 Q12971.5 143.11 12937.1 186.86 Q12903.1 230.61 12898.2 319.082 Q12917.3 290.887 12946.2 275.98 Q12975 260.749 13009.7 260.749 Q13082.6 260.749 13124.8 305.147 Q13167.2 349.22 13167.2 425.377 Q13167.2 499.914 13123.1 544.96 Q13079.1 590.006 13005.8 590.006 Q12921.9 590.006 12877.5 525.84 Q12833.1 461.349 12833.1 339.174 Q12833.1 224.453 12887.5 156.397 Q12942 88.018 13033.7 88.018 Q13058.3 88.018 13083.3 92.8791 Q13108.6 97.7402 13135.8 107.462 Z" fill="#000000" fill-rule="evenodd" fill-opacity="1" /><path clip-path="url(#clip4200)" d="M 0 0 M13245 237.415 L13313.4 237.415 L13313.4 319.73 L13245 319.73 L13245 237.415 M13245 498.294 L13313.4 498.294 L13313.4 554.034 L13260.2 657.737 L13218.4 657.737 L13245 554.034 L13245 498.294 Z" fill="#000000" fill-rule="evenodd" fill-opacity="1" /><path clip-path="url(#clip4200)" d="M 0 0 M13589.5 96.768 L13654.9 96.768 L13654.9 546.904 Q13654.9 634.404 13621.6 673.941 Q13588.5 713.478 13514.9 713.478 L13490 713.478 L13490 658.385 L13510.4 658.385 Q13553.8 658.385 13571.7 634.08 Q13589.5 609.775 13589.5 546.904 L13589.5 96.768 Z" fill="#000000" fill-rule="evenodd" fill-opacity="1" /><path clip-path="url(#clip4200)" d="M 0 0 M13993.3 690.793 L13993.3 737.135 L13648.5 737.135 L13648.5 690.793 L13993.3 690.793 Z" fill="#000000" fill-rule="evenodd" fill-opacity="1" /><path clip-path="url(#clip4200)" d="M 0 0 M14204.2 139.87 Q14153.7 139.87 14128.1 189.777 Q14102.8 239.36 14102.8 339.174 Q14102.8 438.664 14128.1 488.571 Q14153.7 538.155 14204.2 538.155 Q14255.1 538.155 14280.4 488.571 Q14306 438.664 14306 339.174 Q14306 239.36 14280.4 189.777 Q14255.1 139.87 14204.2 139.87 M14204.2 88.018 Q14285.6 88.018 14328.4 152.508 Q14371.5 216.675 14371.5 339.174 Q14371.5 461.349 14328.4 525.84 Q14285.6 590.006 14204.2 590.006 Q14122.9 590.006 14079.8 525.84 Q14037 461.349 14037 339.174 Q14037 216.675 14079.8 152.508 Q14122.9 88.018 14204.2 88.018 Z" fill="#000000" fill-rule="evenodd" fill-opacity="1" /><path clip-path="url(#clip4200)" d="M 0 0 M14652.8 279.221 L15068.2 279.221 L15068.2 333.665 L14652.8 333.665 L14652.8 279.221 M14652.8 411.442 L15068.2 411.442 L15068.2 466.535 L14652.8 466.535 L14652.8 411.442 Z" fill="#000000" fill-rule="evenodd" fill-opacity="1" /><path clip-path="url(#clip4200)" d="M 0 0 M15361.5 525.516 L15468.4 525.516 L15468.4 156.397 L15352.1 179.731 L15352.1 120.101 L15467.8 96.768 L15533.3 96.768 L15533.3 525.516 L15640.2 525.516 L15640.2 580.608 L15361.5 580.608 L15361.5 525.516 Z" fill="#000000" fill-rule="evenodd" fill-opacity="1" /><path clip-path="url(#clip4200)" d="M 0 0 M15711.2 498.294 L15779.6 498.294 L15779.6 580.608 L15711.2 580.608 L15711.2 498.294 Z" fill="#000000" fill-rule="evenodd" fill-opacity="1" /><path clip-path="url(#clip4200)" d="M 0 0 M15990.5 139.87 Q15940 139.87 15914.4 189.777 Q15889.1 239.36 15889.1 339.174 Q15889.1 438.664 15914.4 488.571 Q15940 538.155 15990.5 538.155 Q16041.4 538.155 16066.7 488.571 Q16092.3 438.664 16092.3 339.174 Q16092.3 239.36 16066.7 189.777 Q16041.4 139.87 15990.5 139.87 M15990.5 88.018 Q16071.9 88.018 16114.6 152.508 Q16157.7 216.675 16157.7 339.174 Q16157.7 461.349 16114.6 525.84 Q16071.9 590.006 15990.5 590.006 Q15909.2 590.006 15866.1 525.84 Q15823.3 461.349 15823.3 339.174 Q15823.3 216.675 15866.1 152.508 Q15909.2 88.018 15990.5 88.018 Z" fill="#000000" fill-rule="evenodd" fill-opacity="1" /><path clip-path="url(#clip4200)" d="M 0 0 M10420.8 12068.2 L10742.4 12068.2 L10742.4 12111.5 L10607.4 12111.5 L10607.4 12448.4 L10555.8 12448.4 L10555.8 12111.5 L10420.8 12111.5 L10420.8 12068.2 Z" fill="#000000" fill-rule="evenodd" fill-opacity="1" /><path clip-path="url(#clip4200)" d="M 0 0 M522.483 7641.94 L661.765 7641.94 L661.765 7559.44 Q661.765 7517.93 644.705 7498.07 Q627.39 7477.96 591.997 7477.96 Q556.349 7477.96 539.543 7498.07 Q522.483 7517.93 522.483 7559.44 L522.483 7641.94 M366.142 7641.94 L480.724 7641.94 L480.724 7565.8 Q480.724 7528.12 466.72 7509.78 Q452.461 7491.2 423.433 7491.2 Q394.66 7491.2 380.401 7509.78 Q366.142 7528.12 366.142 7565.8 L366.142 7641.94 M323.873 7693.37 L323.873 7561.98 Q323.873 7503.16 348.318 7471.33 Q372.762 7439.51 417.831 7439.51 Q452.715 7439.51 473.34 7455.8 Q493.965 7472.1 499.058 7503.67 Q507.206 7465.73 533.178 7444.85 Q558.895 7423.72 597.599 7423.72 Q648.524 7423.72 676.279 7458.35 Q704.033 7492.98 704.033 7556.89 L704.033 7693.37 L323.873 7693.37 Z" fill="#000000" fill-rule="evenodd" fill-opacity="1" /><path clip-path="url(#clip4200)" d="M 0 0 M418.85 7374.58 L418.85 7327.72 L704.033 7327.72 L704.033 7374.58 L418.85 7374.58 M307.832 7374.58 L307.832 7327.72 L367.16 7327.72 L367.16 7374.58 L307.832 7374.58 Z" fill="#000000" fill-rule="evenodd" fill-opacity="1" /><path clip-path="url(#clip4200)" d="M 0 0 M531.905 7041.52 L704.033 7041.52 L704.033 7088.37 L533.432 7088.37 Q492.946 7088.37 472.831 7104.16 Q452.715 7119.95 452.715 7151.52 Q452.715 7189.46 476.905 7211.36 Q501.095 7233.26 542.854 7233.26 L704.033 7233.26 L704.033 7280.36 L418.85 7280.36 L418.85 7233.26 L463.155 7233.26 Q437.437 7216.45 424.706 7193.79 Q411.975 7170.87 411.975 7141.08 Q411.975 7091.94 442.53 7066.73 Q472.831 7041.52 531.905 7041.52 Z" fill="#000000" fill-rule="evenodd" fill-opacity="1" /><path clip-path="url(#clip4200)" d="M 0 0 M462.136 6804.72 L307.832 6804.72 L307.832 6757.87 L704.033 6757.87 L704.033 6804.72 L661.256 6804.72 Q686.719 6819.49 699.195 6842.15 Q711.417 6864.56 711.417 6896.13 Q711.417 6947.82 670.168 6980.41 Q628.918 7012.75 561.696 7012.75 Q494.474 7012.75 453.224 6980.41 Q411.975 6947.82 411.975 6896.13 Q411.975 6864.56 424.451 6842.15 Q436.674 6819.49 462.136 6804.72 M561.696 6964.37 Q613.386 6964.37 642.922 6943.24 Q672.205 6921.85 672.205 6884.67 Q672.205 6847.5 642.922 6826.11 Q613.386 6804.72 561.696 6804.72 Q510.007 6804.72 480.724 6826.11 Q451.187 6847.5 451.187 6884.67 Q451.187 6921.85 480.724 6943.24 Q510.007 6964.37 561.696 6964.37 Z" fill="#000000" fill-rule="evenodd" fill-opacity="1" /><path clip-path="url(#clip4200)" d="M 0 0 M549.729 6464.79 L572.645 6464.79 L572.645 6680.2 Q621.024 6677.15 646.487 6651.18 Q671.695 6624.95 671.695 6578.35 Q671.695 6551.36 665.075 6526.15 Q658.455 6500.69 645.214 6475.74 L689.519 6475.74 Q700.214 6500.95 705.816 6527.43 Q711.417 6553.91 711.417 6581.15 Q711.417 6649.39 671.695 6689.37 Q631.973 6729.09 564.242 6729.09 Q494.22 6729.09 453.224 6691.41 Q411.975 6653.47 411.975 6589.3 Q411.975 6531.76 449.15 6498.4 Q486.071 6464.79 549.729 6464.79 M535.979 6511.64 Q497.53 6512.15 474.613 6533.28 Q451.697 6554.16 451.697 6588.79 Q451.697 6628.01 473.849 6651.69 Q496.002 6675.11 536.233 6678.68 L535.979 6511.64 Z" fill="#000000" fill-rule="evenodd" fill-opacity="1" /><path clip-path="url(#clip4200)" d="M 0 0 M462.646 6250.39 Q458.062 6258.29 456.025 6267.71 Q453.734 6276.87 453.734 6288.08 Q453.734 6327.8 479.706 6349.19 Q505.423 6370.32 553.803 6370.32 L704.033 6370.32 L704.033 6417.43 L418.85 6417.43 L418.85 6370.32 L463.155 6370.32 Q437.183 6355.55 424.706 6331.87 Q411.975 6308.19 411.975 6274.33 Q411.975 6269.49 412.739 6263.63 Q413.248 6257.78 414.521 6250.65 L462.646 6250.39 Z" fill="#000000" fill-rule="evenodd" fill-opacity="1" /><path clip-path="url(#clip4200)" d="M 0 0 M323.873 6156.94 L465.192 6156.94 L465.192 6200.23 L323.873 6200.23 L323.873 6156.94 Z" fill="#000000" fill-rule="evenodd" fill-opacity="1" /><path clip-path="url(#clip4200)" d="M 0 0 M427.252 5926 L471.558 5926 Q461.373 5945.86 456.28 5967.25 Q451.187 5988.63 451.187 6011.55 Q451.187 6046.44 461.882 6064 Q472.576 6081.32 493.965 6081.32 Q510.261 6081.32 519.682 6068.84 Q528.849 6056.37 537.252 6018.68 L540.817 6002.64 Q551.511 5952.73 571.117 5931.85 Q590.469 5910.72 625.353 5910.72 Q665.075 5910.72 688.246 5942.29 Q711.417 5973.61 711.417 6028.61 Q711.417 6051.53 706.834 6076.48 Q702.505 6101.18 693.594 6128.68 L645.214 6128.68 Q658.709 6102.71 665.584 6077.5 Q672.205 6052.29 672.205 6027.59 Q672.205 5994.49 661.001 5976.67 Q649.543 5958.84 628.918 5958.84 Q609.821 5958.84 599.636 5971.83 Q589.451 5984.56 580.029 6028.1 L576.21 6044.4 Q567.043 6087.94 548.201 6107.29 Q529.104 6126.64 496.002 6126.64 Q455.771 6126.64 433.873 6098.12 Q411.975 6069.61 411.975 6017.15 Q411.975 5991.18 415.794 5968.26 Q419.613 5945.35 427.252 5926 Z" fill="#000000" fill-rule="evenodd" fill-opacity="1" /><path clip-path="url(#clip4200)" d="M 0 0 M462.646 5530.56 Q458.062 5538.45 456.025 5547.87 Q453.734 5557.04 453.734 5568.24 Q453.734 5607.97 479.706 5629.35 Q505.423 5650.49 553.803 5650.49 L704.033 5650.49 L704.033 5697.59 L418.85 5697.59 L418.85 5650.49 L463.155 5650.49 Q437.183 5635.72 424.706 5612.04 Q411.975 5588.36 411.975 5554.49 Q411.975 5549.66 412.739 5543.8 Q413.248 5537.94 414.521 5530.81 L462.646 5530.56 Z" fill="#000000" fill-rule="evenodd" fill-opacity="1" /><path clip-path="url(#clip4200)" d="M 0 0 M560.678 5351.81 Q560.678 5408.59 573.664 5430.49 Q586.65 5452.39 617.969 5452.39 Q642.922 5452.39 657.691 5436.09 Q672.205 5419.54 672.205 5391.28 Q672.205 5352.32 644.705 5328.89 Q616.95 5305.21 571.117 5305.21 L560.678 5305.21 L560.678 5351.81 M541.326 5258.36 L704.033 5258.36 L704.033 5305.21 L660.746 5305.21 Q686.719 5321.25 699.195 5345.19 Q711.417 5369.12 711.417 5403.75 Q711.417 5447.55 686.973 5473.52 Q662.274 5499.24 621.024 5499.24 Q572.9 5499.24 548.455 5467.16 Q524.011 5434.82 524.011 5370.91 L524.011 5305.21 L519.428 5305.21 Q487.09 5305.21 469.521 5326.6 Q451.697 5347.74 451.697 5386.18 Q451.697 5410.63 457.553 5433.8 Q463.41 5456.97 475.122 5478.36 L431.836 5478.36 Q421.905 5452.64 417.067 5428.45 Q411.975 5404.26 411.975 5381.35 Q411.975 5319.47 444.058 5288.92 Q476.141 5258.36 541.326 5258.36 Z" fill="#000000" fill-rule="evenodd" fill-opacity="1" /><path clip-path="url(#clip4200)" d="M 0 0 M337.878 5162.87 L418.85 5162.87 L418.85 5066.37 L455.261 5066.37 L455.261 5162.87 L610.075 5162.87 Q644.96 5162.87 654.89 5153.45 Q664.821 5143.78 664.821 5114.5 L664.821 5066.37 L704.033 5066.37 L704.033 5114.5 Q704.033 5168.73 683.918 5189.36 Q663.547 5209.98 610.075 5209.98 L455.261 5209.98 L455.261 5244.36 L418.85 5244.36 L418.85 5209.98 L337.878 5209.98 L337.878 5162.87 Z" fill="#000000" fill-rule="evenodd" fill-opacity="1" /><path clip-path="url(#clip4200)" d="M 0 0 M418.85 5017.23 L418.85 4970.38 L704.033 4970.38 L704.033 5017.23 L418.85 5017.23 M307.832 5017.23 L307.832 4970.38 L367.16 4970.38 L367.16 5017.23 L307.832 5017.23 Z" fill="#000000" fill-rule="evenodd" fill-opacity="1" /><path clip-path="url(#clip4200)" d="M 0 0 M451.697 4810.72 Q451.697 4848.41 481.234 4870.31 Q510.516 4892.21 561.696 4892.21 Q612.876 4892.21 642.413 4870.56 Q671.695 4848.66 671.695 4810.72 Q671.695 4773.29 642.159 4751.4 Q612.622 4729.5 561.696 4729.5 Q511.025 4729.5 481.488 4751.4 Q451.697 4773.29 451.697 4810.72 M411.975 4810.72 Q411.975 4749.61 451.697 4714.73 Q491.419 4679.85 561.696 4679.85 Q631.719 4679.85 671.695 4714.73 Q711.417 4749.61 711.417 4810.72 Q711.417 4872.09 671.695 4906.97 Q631.719 4941.6 561.696 4941.6 Q491.419 4941.6 451.697 4906.97 Q411.975 4872.09 411.975 4810.72 Z" fill="#000000" fill-rule="evenodd" fill-opacity="1" /><polyline clip-path="url(#clip4202)" style="stroke:#009af9; stroke-width:32; stroke-opacity:1; fill:none" points="
  2807.59,1474.67 3124.9,1591.6 3442.2,1519.28 3759.51,1540.95 4076.82,1550.81 4394.12,1707.64 4711.43,1649 5028.74,1801.75 5346.04,1715.01 5663.35,1790.74 
  5980.65,1920.79 6297.96,2021.78 6615.27,1957.77 6932.57,2076.57 7249.88,2203.39 7567.19,2215.01 7884.49,2431.22 8201.8,2387.06 8519.11,2540.89 8836.41,2488.19 
  9153.72,3081.68 9471.03,3109.71 9788.33,2897.01 10105.6,2924.95 10422.9,3440.86 10740.3,3402.77 11057.6,3647.77 11374.9,3621.91 11692.2,3666.38 12009.5,3696.77 
  12326.8,4307.73 12644.1,3910.64 12961.4,5074.18 13278.7,4696.95 13596,5336.03 13913.3,4804.26 14230.6,5308.02 14547.9,5756.97 14865.2,6698.77 15182.5,6443.92 
  15499.8,6838.27 15817.2,6680 16134.5,7234.36 16451.8,7301.07 16769.1,7613.47 17086.4,8530.9 17403.7,9076.71 17721,9311.39 18038.3,10050.7 18355.6,11091.2 
  
  "/>
<polyline clip-path="url(#clip4202)" style="stroke:#e26f46; stroke-width:32; stroke-opacity:1; fill:none" points="
  2807.59,1362.34 3124.9,1378.01 3442.2,1339.28 3759.51,1463.54 4076.82,1432.87 4394.12,1533.41 4711.43,1534.88 5028.74,1577.3 5346.04,1572.16 5663.35,1604.68 
  5980.65,1817.51 6297.96,1733.49 6615.27,1763.19 6932.57,1870.23 7249.88,1962.01 7567.19,1942.72 7884.49,2112.49 8201.8,2112.93 8519.11,2178.37 8836.41,2342.62 
  9153.72,2350.06 9471.03,2278.78 9788.33,2957.92 10105.6,2599.35 10422.9,2934.26 10740.3,2638.05 11057.6,2826.76 11374.9,2918.52 11692.2,2982.25 12009.5,3489.15 
  12326.8,3511.71 12644.1,3581.78 12961.4,3612.45 13278.7,3756.41 13596,3866.77 13913.3,4097.77 14230.6,4809.56 14547.9,4563.61 14865.2,4704.18 15182.5,5233.3 
  15499.8,5271.1 15817.2,5147.34 16134.5,5697.77 16451.8,6156.5 16769.1,5959.61 17086.4,6845.11 17403.7,7134.83 17721,7974.29 18038.3,8431.05 18355.6,8660.91 
  
  "/>
<polyline clip-path="url(#clip4202)" style="stroke:#3da44d; stroke-width:32; stroke-opacity:1; fill:none" points="
  2807.59,1290.34 3124.9,1282.05 3442.2,1345.76 3759.51,1315.66 4076.82,1446.77 4394.12,1479.64 4711.43,1548.56 5028.74,1570.5 5346.04,1507.19 5663.35,1650.41 
  5980.65,1683.03 6297.96,1620.89 6615.27,1820.56 6932.57,1902.15 7249.88,1833.57 7567.19,1908.43 7884.49,1890.36 8201.8,2031.92 8519.11,2060.72 8836.41,2091.75 
  9153.72,2314.74 9471.03,2291.69 9788.33,2305.01 10105.6,2369.37 10422.9,2630.71 10740.3,2422.19 11057.6,2735.25 11374.9,2831.27 11692.2,2813.39 12009.5,3023.15 
  12326.8,3215.75 12644.1,3091.43 12961.4,3674.69 13278.7,3654.35 13596,3897.42 13913.3,3906.96 14230.6,3851.45 14547.9,3876.97 14865.2,4591.99 15182.5,4095.83 
  15499.8,4694.13 15817.2,4919.65 16134.5,4868.42 16451.8,5245.44 16769.1,5419.02 17086.4,6549.27 17403.7,6932.38 17721,6177.87 18038.3,6633.64 18355.6,7177.21 
  
  "/>
<polyline clip-path="url(#clip4202)" style="stroke:#c271d2; stroke-width:32; stroke-opacity:1; fill:none" points="
  2807.59,1291.88 3124.9,1285.59 3442.2,1439.35 3759.51,1364.58 4076.82,1418.14 4394.12,1447.75 4711.43,1382.34 5028.74,1449.17 5346.04,1516.57 5663.35,1601.43 
  5980.65,1595.78 6297.96,1650.13 6615.27,1727.24 6932.57,1660.19 7249.88,1684.6 7567.19,1707.95 7884.49,1862.95 8201.8,1797.39 8519.11,1936.41 8836.41,2042.94 
  9153.72,2144.34 9471.03,2084.7 9788.33,2107.64 10105.6,2284.29 10422.9,2373.59 10740.3,2466.36 11057.6,2398.16 11374.9,2476.37 11692.2,2633.73 12009.5,2593.38 
  12326.8,2833.22 12644.1,2855.04 12961.4,3135.61 13278.7,3132.46 13596,3267.3 13913.3,3308.35 14230.6,3402.21 14547.9,3886.85 14865.2,3708.81 15182.5,4308.9 
  15499.8,4398.67 15817.2,4277.77 16134.5,4727.95 16451.8,4652.36 16769.1,5148.2 17086.4,5256.88 17403.7,5437.43 17721,5599.44 18038.3,6355.14 18355.6,6331.01 
  
  "/>
<polyline clip-path="url(#clip4202)" style="stroke:#ac8d18; stroke-width:32; stroke-opacity:1; fill:none" points="
  2807.59,1301.94 3124.9,1314.81 3442.2,1437.47 3759.51,1414.55 4076.82,1419.02 4394.12,1460.87 4711.43,1510.66 5028.74,1440.28 5346.04,1460.19 5663.35,1503.99 
  5980.65,1574.78 6297.96,1577.28 6615.27,1681.9 6932.57,1674.65 7249.88,1756.79 7567.19,1744.39 7884.49,1681.3 8201.8,1910.91 8519.11,1837.57 8836.41,1868.65 
  9153.72,2009.44 9471.03,2001.43 9788.33,2153.98 10105.6,2218.29 10422.9,2126.03 10740.3,2346.67 11057.6,2457.7 11374.9,2514.69 11692.2,2463.18 12009.5,2595.2 
  12326.8,2612.45 12644.1,2802.63 12961.4,2698.48 13278.7,3079.5 13596,3128.66 13913.3,3478.18 14230.6,3195.91 14547.9,3323.21 14865.2,3507.3 15182.5,3757.31 
  15499.8,3825.63 15817.2,4261.22 16134.5,4095.76 16451.8,4302.69 16769.1,4956.9 17086.4,4960.87 17403.7,5473.29 17721,5704.46 18038.3,5789.73 18355.6,6295.63 
  
  "/>
<polyline clip-path="url(#clip4202)" style="stroke:#00a9ad; stroke-width:32; stroke-opacity:1; fill:none" points="
  2807.59,1381.63 3124.9,1320.24 3442.2,1354.46 3759.51,1339.21 4076.82,1427.01 4394.12,1475.06 4711.43,1395.65 5028.74,1407.02 5346.04,1540.05 5663.35,1616.92 
  5980.65,1528.38 6297.96,1496.83 6615.27,1552.69 6932.57,1594.74 7249.88,1753.61 7567.19,1730.54 7884.49,1724.41 8201.8,1873.2 8519.11,1851.58 8836.41,1960.86 
  9153.72,2054.62 9471.03,2030.86 9788.33,2167.44 10105.6,2189.77 10422.9,2282.41 10740.3,2385.02 11057.6,2416.44 11374.9,2382.65 11692.2,2453.5 12009.5,2593.43 
  12326.8,2540.56 12644.1,2665.93 12961.4,3039.88 13278.7,2858.28 13596,3174.02 13913.3,3380.48 14230.6,3034.53 14547.9,3378.21 14865.2,3515.19 15182.5,3371.03 
  15499.8,3826.68 15817.2,4067.3 16134.5,4177.07 16451.8,4665.06 16769.1,4479.11 17086.4,4739.48 17403.7,4650.89 17721,5226.17 18038.3,5593.44 18355.6,5460.28 
  
  "/>
<path clip-path="url(#clip4200)" d="
M2917.15 10233.4 L5954.18 10233.4 L5954.18 6846.56 L2917.15 6846.56  Z
  " fill="#ffffff" fill-rule="evenodd" fill-opacity="1"/>
<polyline clip-path="url(#clip4200)" style="stroke:#000000; stroke-width:32; stroke-opacity:1; fill:none" points="
  2917.15,10233.4 5954.18,10233.4 5954.18,6846.56 2917.15,6846.56 2917.15,10233.4 
  "/>
<polyline clip-path="url(#clip4200)" style="stroke:#009af9; stroke-width:32; stroke-opacity:1; fill:none" points="
  3109.15,7330.4 4261.15,7330.4 
  "/>
<path clip-path="url(#clip4200)" d="M 0 0 M4453.15 7192.16 L4490.56 7192.16 L4490.56 7437.16 L4625.19 7437.16 L4625.19 7468.64 L4453.15 7468.64 L4453.15 7192.16 Z" fill="#000000" fill-rule="evenodd" fill-opacity="1" /><path clip-path="url(#clip4200)" d="M 0 0 M4785.93 7296.42 L5023.33 7296.42 L5023.33 7327.53 L4785.93 7327.53 L4785.93 7296.42 M4785.93 7371.97 L5023.33 7371.97 L5023.33 7403.45 L4785.93 7403.45 L4785.93 7371.97 Z" fill="#000000" fill-rule="evenodd" fill-opacity="1" /><path clip-path="url(#clip4200)" d="M 0 0 M5269.07 7315.49 Q5243.89 7315.49 5229.07 7332.71 Q5214.44 7349.94 5214.44 7379.94 Q5214.44 7409.75 5229.07 7427.16 Q5243.89 7444.38 5269.07 7444.38 Q5294.26 7444.38 5308.89 7427.16 Q5323.7 7409.75 5323.7 7379.94 Q5323.7 7349.94 5308.89 7332.71 Q5294.26 7315.49 5269.07 7315.49 M5343.33 7198.27 L5343.33 7232.34 Q5329.26 7225.68 5314.81 7222.16 Q5300.55 7218.64 5286.48 7218.64 Q5249.44 7218.64 5229.81 7243.64 Q5210.37 7268.64 5207.59 7319.2 Q5218.52 7303.08 5235 7294.57 Q5251.48 7285.86 5271.29 7285.86 Q5312.96 7285.86 5337.03 7311.23 Q5361.29 7336.42 5361.29 7379.94 Q5361.29 7422.53 5336.11 7448.27 Q5310.92 7474.01 5269.07 7474.01 Q5221.11 7474.01 5195.74 7437.34 Q5170.37 7400.49 5170.37 7330.68 Q5170.37 7265.12 5201.48 7226.23 Q5232.59 7187.16 5285 7187.16 Q5299.07 7187.16 5313.33 7189.94 Q5327.77 7192.71 5343.33 7198.27 Z" fill="#000000" fill-rule="evenodd" fill-opacity="1" /><polyline clip-path="url(#clip4200)" style="stroke:#e26f46; stroke-width:32; stroke-opacity:1; fill:none" points="
  3109.15,7814.24 4261.15,7814.24 
  "/>
<path clip-path="url(#clip4200)" d="M 0 0 M4453.15 7676 L4490.56 7676 L4490.56 7921 L4625.19 7921 L4625.19 7952.48 L4453.15 7952.48 L4453.15 7676 Z" fill="#000000" fill-rule="evenodd" fill-opacity="1" /><path clip-path="url(#clip4200)" d="M 0 0 M4785.93 7780.26 L5023.33 7780.26 L5023.33 7811.37 L4785.93 7811.37 L4785.93 7780.26 M4785.93 7855.81 L5023.33 7855.81 L5023.33 7887.29 L4785.93 7887.29 L4785.93 7855.81 Z" fill="#000000" fill-rule="evenodd" fill-opacity="1" /><path clip-path="url(#clip4200)" d="M 0 0 M5264.44 7821.18 Q5237.77 7821.18 5222.4 7835.44 Q5207.22 7849.7 5207.22 7874.7 Q5207.22 7899.7 5222.4 7913.96 Q5237.77 7928.22 5264.44 7928.22 Q5291.11 7928.22 5306.48 7913.96 Q5321.85 7899.52 5321.85 7874.7 Q5321.85 7849.7 5306.48 7835.44 Q5291.29 7821.18 5264.44 7821.18 M5227.03 7805.26 Q5202.96 7799.33 5189.44 7782.85 Q5176.11 7766.37 5176.11 7742.67 Q5176.11 7709.52 5199.63 7690.26 Q5223.33 7671 5264.44 7671 Q5305.74 7671 5329.26 7690.26 Q5352.77 7709.52 5352.77 7742.67 Q5352.77 7766.37 5339.26 7782.85 Q5325.92 7799.33 5302.03 7805.26 Q5329.07 7811.55 5344.07 7829.89 Q5359.26 7848.22 5359.26 7874.7 Q5359.26 7914.89 5334.63 7936.37 Q5310.18 7957.85 5264.44 7957.85 Q5218.7 7957.85 5194.07 7936.37 Q5169.63 7914.89 5169.63 7874.7 Q5169.63 7848.22 5184.81 7829.89 Q5200 7811.55 5227.03 7805.26 M5213.33 7746.18 Q5213.33 7767.66 5226.66 7779.7 Q5240.18 7791.74 5264.44 7791.74 Q5288.52 7791.74 5302.03 7779.7 Q5315.74 7767.66 5315.74 7746.18 Q5315.74 7724.7 5302.03 7712.67 Q5288.52 7700.63 5264.44 7700.63 Q5240.18 7700.63 5226.66 7712.67 Q5213.33 7724.7 5213.33 7746.18 Z" fill="#000000" fill-rule="evenodd" fill-opacity="1" /><polyline clip-path="url(#clip4200)" style="stroke:#3da44d; stroke-width:32; stroke-opacity:1; fill:none" points="
  3109.15,8298.08 4261.15,8298.08 
  "/>
<path clip-path="url(#clip4200)" d="M 0 0 M4453.15 8159.84 L4490.56 8159.84 L4490.56 8404.84 L4625.19 8404.84 L4625.19 8436.32 L4453.15 8436.32 L4453.15 8159.84 Z" fill="#000000" fill-rule="evenodd" fill-opacity="1" /><path clip-path="url(#clip4200)" d="M 0 0 M4785.93 8264.1 L5023.33 8264.1 L5023.33 8295.21 L4785.93 8295.21 L4785.93 8264.1 M4785.93 8339.65 L5023.33 8339.65 L5023.33 8371.13 L4785.93 8371.13 L4785.93 8339.65 Z" fill="#000000" fill-rule="evenodd" fill-opacity="1" /><path clip-path="url(#clip4200)" d="M 0 0 M5190.92 8404.84 L5252.03 8404.84 L5252.03 8193.91 L5185.55 8207.25 L5185.55 8173.17 L5251.66 8159.84 L5289.07 8159.84 L5289.07 8404.84 L5350.18 8404.84 L5350.18 8436.32 L5190.92 8436.32 L5190.92 8404.84 Z" fill="#000000" fill-rule="evenodd" fill-opacity="1" /><path clip-path="url(#clip4200)" d="M 0 0 M5470.74 8184.47 Q5441.85 8184.47 5427.22 8212.99 Q5412.77 8241.32 5412.77 8298.36 Q5412.77 8355.21 5427.22 8383.73 Q5441.85 8412.06 5470.74 8412.06 Q5499.81 8412.06 5514.25 8383.73 Q5528.88 8355.21 5528.88 8298.36 Q5528.88 8241.32 5514.25 8212.99 Q5499.81 8184.47 5470.74 8184.47 M5470.74 8154.84 Q5517.22 8154.84 5541.66 8191.69 Q5566.29 8228.36 5566.29 8298.36 Q5566.29 8368.17 5541.66 8405.02 Q5517.22 8441.69 5470.74 8441.69 Q5424.26 8441.69 5399.63 8405.02 Q5375.18 8368.17 5375.18 8298.36 Q5375.18 8228.36 5399.63 8191.69 Q5424.26 8154.84 5470.74 8154.84 Z" fill="#000000" fill-rule="evenodd" fill-opacity="1" /><polyline clip-path="url(#clip4200)" style="stroke:#c271d2; stroke-width:32; stroke-opacity:1; fill:none" points="
  3109.15,8781.92 4261.15,8781.92 
  "/>
<path clip-path="url(#clip4200)" d="M 0 0 M4453.15 8643.68 L4490.56 8643.68 L4490.56 8888.68 L4625.19 8888.68 L4625.19 8920.16 L4453.15 8920.16 L4453.15 8643.68 Z" fill="#000000" fill-rule="evenodd" fill-opacity="1" /><path clip-path="url(#clip4200)" d="M 0 0 M4785.93 8747.94 L5023.33 8747.94 L5023.33 8779.05 L4785.93 8779.05 L4785.93 8747.94 M4785.93 8823.49 L5023.33 8823.49 L5023.33 8854.97 L4785.93 8854.97 L4785.93 8823.49 Z" fill="#000000" fill-rule="evenodd" fill-opacity="1" /><path clip-path="url(#clip4200)" d="M 0 0 M5190.92 8888.68 L5252.03 8888.68 L5252.03 8677.75 L5185.55 8691.09 L5185.55 8657.01 L5251.66 8643.68 L5289.07 8643.68 L5289.07 8888.68 L5350.18 8888.68 L5350.18 8920.16 L5190.92 8920.16 L5190.92 8888.68 Z" fill="#000000" fill-rule="evenodd" fill-opacity="1" /><path clip-path="url(#clip4200)" d="M 0 0 M5422.96 8888.68 L5553.51 8888.68 L5553.51 8920.16 L5377.96 8920.16 L5377.96 8888.68 Q5399.26 8866.64 5435.92 8829.6 Q5472.77 8792.38 5482.22 8781.64 Q5500.18 8761.46 5507.22 8747.57 Q5514.44 8733.49 5514.44 8719.97 Q5514.44 8697.94 5498.88 8684.05 Q5483.51 8670.16 5458.7 8670.16 Q5441.11 8670.16 5421.48 8676.27 Q5402.03 8682.38 5379.81 8694.79 L5379.81 8657.01 Q5402.4 8647.94 5422.03 8643.31 Q5441.66 8638.68 5457.96 8638.68 Q5500.92 8638.68 5526.48 8660.16 Q5552.03 8681.64 5552.03 8717.57 Q5552.03 8734.6 5545.55 8749.97 Q5539.25 8765.16 5522.4 8785.9 Q5517.77 8791.27 5492.96 8817.01 Q5468.14 8842.57 5422.96 8888.68 Z" fill="#000000" fill-rule="evenodd" fill-opacity="1" /><polyline clip-path="url(#clip4200)" style="stroke:#ac8d18; stroke-width:32; stroke-opacity:1; fill:none" points="
  3109.15,9265.76 4261.15,9265.76 
  "/>
<path clip-path="url(#clip4200)" d="M 0 0 M4453.15 9127.52 L4490.56 9127.52 L4490.56 9372.52 L4625.19 9372.52 L4625.19 9404 L4453.15 9404 L4453.15 9127.52 Z" fill="#000000" fill-rule="evenodd" fill-opacity="1" /><path clip-path="url(#clip4200)" d="M 0 0 M4785.93 9231.78 L5023.33 9231.78 L5023.33 9262.89 L4785.93 9262.89 L4785.93 9231.78 M4785.93 9307.33 L5023.33 9307.33 L5023.33 9338.81 L4785.93 9338.81 L4785.93 9307.33 Z" fill="#000000" fill-rule="evenodd" fill-opacity="1" /><path clip-path="url(#clip4200)" d="M 0 0 M5190.92 9372.52 L5252.03 9372.52 L5252.03 9161.59 L5185.55 9174.93 L5185.55 9140.85 L5251.66 9127.52 L5289.07 9127.52 L5289.07 9372.52 L5350.18 9372.52 L5350.18 9404 L5190.92 9404 L5190.92 9372.52 Z" fill="#000000" fill-rule="evenodd" fill-opacity="1" /><path clip-path="url(#clip4200)" d="M 0 0 M5493.51 9160.11 L5399.07 9307.7 L5493.51 9307.7 L5493.51 9160.11 M5483.7 9127.52 L5530.74 9127.52 L5530.74 9307.7 L5570.18 9307.7 L5570.18 9338.81 L5530.74 9338.81 L5530.74 9404 L5493.51 9404 L5493.51 9338.81 L5368.7 9338.81 L5368.7 9302.7 L5483.7 9127.52 Z" fill="#000000" fill-rule="evenodd" fill-opacity="1" /><polyline clip-path="url(#clip4200)" style="stroke:#00a9ad; stroke-width:32; stroke-opacity:1; fill:none" points="
  3109.15,9749.6 4261.15,9749.6 
  "/>
<path clip-path="url(#clip4200)" d="M 0 0 M4453.15 9611.36 L4490.56 9611.36 L4490.56 9856.36 L4625.19 9856.36 L4625.19 9887.84 L4453.15 9887.84 L4453.15 9611.36 Z" fill="#000000" fill-rule="evenodd" fill-opacity="1" /><path clip-path="url(#clip4200)" d="M 0 0 M4785.93 9715.62 L5023.33 9715.62 L5023.33 9746.73 L4785.93 9746.73 L4785.93 9715.62 M4785.93 9791.17 L5023.33 9791.17 L5023.33 9822.65 L4785.93 9822.65 L4785.93 9791.17 Z" fill="#000000" fill-rule="evenodd" fill-opacity="1" /><path clip-path="url(#clip4200)" d="M 0 0 M5190.92 9856.36 L5252.03 9856.36 L5252.03 9645.43 L5185.55 9658.77 L5185.55 9624.69 L5251.66 9611.36 L5289.07 9611.36 L5289.07 9856.36 L5350.18 9856.36 L5350.18 9887.84 L5190.92 9887.84 L5190.92 9856.36 Z" fill="#000000" fill-rule="evenodd" fill-opacity="1" /><path clip-path="url(#clip4200)" d="M 0 0 M5475.37 9734.69 Q5450.18 9734.69 5435.37 9751.91 Q5420.74 9769.14 5420.74 9799.14 Q5420.74 9828.95 5435.37 9846.36 Q5450.18 9863.58 5475.37 9863.58 Q5500.55 9863.58 5515.18 9846.36 Q5530 9828.95 5530 9799.14 Q5530 9769.14 5515.18 9751.91 Q5500.55 9734.69 5475.37 9734.69 M5549.62 9617.47 L5549.62 9651.54 Q5535.55 9644.88 5521.11 9641.36 Q5506.85 9637.84 5492.77 9637.84 Q5455.74 9637.84 5436.11 9662.84 Q5416.66 9687.84 5413.88 9738.4 Q5424.81 9722.28 5441.29 9713.77 Q5457.77 9705.06 5477.59 9705.06 Q5519.25 9705.06 5543.33 9730.43 Q5567.59 9755.62 5567.59 9799.14 Q5567.59 9841.73 5542.4 9867.47 Q5517.22 9893.21 5475.37 9893.21 Q5427.4 9893.21 5402.03 9856.54 Q5376.66 9819.69 5376.66 9749.88 Q5376.66 9684.32 5407.77 9645.43 Q5438.88 9606.36 5491.29 9606.36 Q5505.37 9606.36 5519.62 9609.14 Q5534.07 9611.91 5549.62 9617.47 Z" fill="#000000" fill-rule="evenodd" fill-opacity="1" /></svg>
