<?xml version="1.0" encoding="utf-8"?>
<svg xmlns="http://www.w3.org/2000/svg" xmlns:xlink="http://www.w3.org/1999/xlink" width="4800" height="3200" viewBox="0 0 19200 12800">
<defs>
  <clipPath id="clip7000">
    <rect x="0" y="0" width="19200" height="12800"/>
  </clipPath>
</defs>
<path clip-path="url(#clip7000)" d="
M0 12800 L19200 12800 L19200 0 L0 0  Z
  " fill="#ffffff" fill-rule="evenodd" fill-opacity="1"/>
<defs>
  <clipPath id="clip7001">
    <rect x="3840" y="0" width="13441" height="12800"/>
  </clipPath>
</defs>
<path clip-path="url(#clip7000)" d="
M2126.34 11385.4 L18822 11385.4 L18822 987.777 L2126.34 987.777  Z
  " fill="#ffffff" fill-rule="evenodd" fill-opacity="1"/>
<defs>
  <clipPath id="clip7002">
    <rect x="2126" y="987" width="16697" height="10399"/>
  </clipPath>
</defs>
<polyline clip-path="url(#clip7002)" style="stroke:#000000; stroke-width:16; stroke-opacity:0.1; fill:none" points="
  2598.86,11385.4 2598.86,987.777 
  "/>
<polyline clip-path="url(#clip7002)" style="stroke:#000000; stroke-width:16; stroke-opacity:0.1; fill:none" points="
  5748.99,11385.4 5748.99,987.777 
  "/>
<polyline clip-path="url(#clip7002)" style="stroke:#000000; stroke-width:16; stroke-opacity:0.1; fill:none" points="
  8899.12,11385.4 8899.12,987.777 
  "/>
<polyline clip-path="url(#clip7002)" style="stroke:#000000; stroke-width:16; stroke-opacity:0.1; fill:none" points="
  12049.3,11385.4 12049.3,987.777 
  "/>
<polyline clip-path="url(#clip7002)" style="stroke:#000000; stroke-width:16; stroke-opacity:0.1; fill:none" points="
  15199.4,11385.4 15199.4,987.777 
  "/>
<polyline clip-path="url(#clip7002)" style="stroke:#000000; stroke-width:16; stroke-opacity:0.1; fill:none" points="
  18349.5,11385.4 18349.5,987.777 
  "/>
<polyline clip-path="url(#clip7002)" style="stroke:#000000; stroke-width:16; stroke-opacity:0.1; fill:none" points="
  18349.5,11385.4 18349.5,987.777 
  "/>
<polyline clip-path="url(#clip7002)" style="stroke:#000000; stroke-width:16; stroke-opacity:0.1; fill:none" points="
  2126.34,10007.2 18822,10007.2 
  "/>
<polyline clip-path="url(#clip7002)" style="stroke:#000000; stroke-width:16; stroke-opacity:0.1; fill:none" points="
  2126.34,7834.09 18822,7834.09 
  "/>
<polyline clip-path="url(#clip7002)" style="stroke:#000000; stroke-width:16; stroke-opacity:0.1; fill:none" points="
  2126.34,5660.97 18822,5660.97 
  "/>
<polyline clip-path="url(#clip7002)" style="stroke:#000000; stroke-width:16; stroke-opacity:0.1; fill:none" points="
  2126.34,3487.85 18822,3487.85 
  "/>
<polyline clip-path="url(#clip7002)" style="stroke:#000000; stroke-width:16; stroke-opacity:0.1; fill:none" points="
  2126.34,1314.72 18822,1314.72 
  "/>
<polyline clip-path="url(#clip7000)" style="stroke:#000000; stroke-width:32; stroke-opacity:1; fill:none" points="
  2126.34,11385.4 18822,11385.4 
  "/>
<polyline clip-path="url(#clip7000)" style="stroke:#000000; stroke-width:32; stroke-opacity:1; fill:none" points="
  2126.34,11385.4 2126.34,987.777 
  "/>
<polyline clip-path="url(#clip7000)" style="stroke:#000000; stroke-width:32; stroke-opacity:1; fill:none" points="
  2598.86,11385.4 2598.86,11260.7 
  "/>
<polyline clip-path="url(#clip7000)" style="stroke:#000000; stroke-width:32; stroke-opacity:1; fill:none" points="
  5748.99,11385.4 5748.99,11260.7 
  "/>
<polyline clip-path="url(#clip7000)" style="stroke:#000000; stroke-width:32; stroke-opacity:1; fill:none" points="
  8899.12,11385.4 8899.12,11260.7 
  "/>
<polyline clip-path="url(#clip7000)" style="stroke:#000000; stroke-width:32; stroke-opacity:1; fill:none" points="
  12049.3,11385.4 12049.3,11260.7 
  "/>
<polyline clip-path="url(#clip7000)" style="stroke:#000000; stroke-width:32; stroke-opacity:1; fill:none" points="
  15199.4,11385.4 15199.4,11260.7 
  "/>
<polyline clip-path="url(#clip7000)" style="stroke:#000000; stroke-width:32; stroke-opacity:1; fill:none" points="
  18349.5,11385.4 18349.5,11260.7 
  "/>
<polyline clip-path="url(#clip7000)" style="stroke:#000000; stroke-width:32; stroke-opacity:1; fill:none" points="
  18349.5,11385.4 18349.5,11260.7 
  "/>
<polyline clip-path="url(#clip7000)" style="stroke:#000000; stroke-width:32; stroke-opacity:1; fill:none" points="
  2126.34,10007.2 2326.68,10007.2 
  "/>
<polyline clip-path="url(#clip7000)" style="stroke:#000000; stroke-width:32; stroke-opacity:1; fill:none" points="
  2126.34,7834.09 2326.68,7834.09 
  "/>
<polyline clip-path="url(#clip7000)" style="stroke:#000000; stroke-width:32; stroke-opacity:1; fill:none" points="
  2126.34,5660.97 2326.68,5660.97 
  "/>
<polyline clip-path="url(#clip7000)" style="stroke:#000000; stroke-width:32; stroke-opacity:1; fill:none" points="
  2126.34,3487.85 2326.68,3487.85 
  "/>
<polyline clip-path="url(#clip7000)" style="stroke:#000000; stroke-width:32; stroke-opacity:1; fill:none" points="
  2126.34,1314.72 2326.68,1314.72 
  "/>
<path clip-path="url(#clip7000)" d="M 0 0 M2242.47 11561.4 Q2213.58 11561.4 2198.95 11589.9 Q2184.51 11618.2 2184.51 11675.3 Q2184.51 11732.1 2198.95 11760.6 Q2213.58 11789 2242.47 11789 Q2271.54 11789 2285.99 11760.6 Q2300.62 11732.1 2300.62 11675.3 Q2300.62 11618.2 2285.99 11589.9 Q2271.54 11561.4 2242.47 11561.4 M2242.47 11531.7 Q2288.95 11531.7 2313.39 11568.6 Q2338.02 11605.3 2338.02 11675.3 Q2338.02 11745.1 2313.39 11781.9 Q2288.95 11818.6 2242.47 11818.6 Q2195.99 11818.6 2171.36 11781.9 Q2146.91 11745.1 2146.91 11675.3 Q2146.91 11605.3 2171.36 11568.6 Q2195.99 11531.7 2242.47 11531.7 Z" fill="#000000" fill-rule="evenodd" fill-opacity="1" /><path clip-path="url(#clip7000)" d="M 0 0 M2378.58 11766.2 L2417.65 11766.2 L2417.65 11813.2 L2378.58 11813.2 L2378.58 11766.2 Z" fill="#000000" fill-rule="evenodd" fill-opacity="1" /><path clip-path="url(#clip7000)" d="M 0 0 M2458.58 11536.7 L2605.43 11536.7 L2605.43 11568.2 L2492.84 11568.2 L2492.84 11636 Q2500.99 11633.2 2509.13 11631.9 Q2517.28 11630.4 2525.43 11630.4 Q2571.73 11630.4 2598.76 11655.8 Q2625.8 11681.2 2625.8 11724.5 Q2625.8 11769.1 2598.02 11794 Q2570.24 11818.6 2519.69 11818.6 Q2502.28 11818.6 2484.13 11815.6 Q2466.17 11812.7 2446.91 11806.7 L2446.91 11769.1 Q2463.58 11778.2 2481.36 11782.7 Q2499.13 11787.1 2518.95 11787.1 Q2550.99 11787.1 2569.69 11770.3 Q2588.39 11753.4 2588.39 11724.5 Q2588.39 11695.6 2569.69 11678.8 Q2550.99 11661.9 2518.95 11661.9 Q2503.95 11661.9 2488.95 11665.3 Q2474.13 11668.6 2458.58 11675.6 L2458.58 11536.7 Z" fill="#000000" fill-rule="evenodd" fill-opacity="1" /><path clip-path="url(#clip7000)" d="M 0 0 M2656.91 11536.7 L2834.69 11536.7 L2834.69 11552.7 L2734.32 11813.2 L2695.24 11813.2 L2789.69 11568.2 L2656.91 11568.2 L2656.91 11536.7 Z" fill="#000000" fill-rule="evenodd" fill-opacity="1" /><path clip-path="url(#clip7000)" d="M 0 0 M2955.24 11561.4 Q2926.35 11561.4 2911.72 11589.9 Q2897.28 11618.2 2897.28 11675.3 Q2897.28 11732.1 2911.72 11760.6 Q2926.35 11789 2955.24 11789 Q2984.32 11789 2998.76 11760.6 Q3013.39 11732.1 3013.39 11675.3 Q3013.39 11618.2 2998.76 11589.9 Q2984.32 11561.4 2955.24 11561.4 M2955.24 11531.7 Q3001.72 11531.7 3026.17 11568.6 Q3050.8 11605.3 3050.8 11675.3 Q3050.8 11745.1 3026.17 11781.9 Q3001.72 11818.6 2955.24 11818.6 Q2908.76 11818.6 2884.13 11781.9 Q2859.69 11745.1 2859.69 11675.3 Q2859.69 11605.3 2884.13 11568.6 Q2908.76 11531.7 2955.24 11531.7 Z" fill="#000000" fill-rule="evenodd" fill-opacity="1" /><path clip-path="url(#clip7000)" d="M 0 0 M5398.99 11561.4 Q5370.1 11561.4 5355.47 11589.9 Q5341.03 11618.2 5341.03 11675.3 Q5341.03 11732.1 5355.47 11760.6 Q5370.1 11789 5398.99 11789 Q5428.07 11789 5442.51 11760.6 Q5457.14 11732.1 5457.14 11675.3 Q5457.14 11618.2 5442.51 11589.9 Q5428.07 11561.4 5398.99 11561.4 M5398.99 11531.7 Q5445.47 11531.7 5469.92 11568.6 Q5494.55 11605.3 5494.55 11675.3 Q5494.55 11745.1 5469.92 11781.9 Q5445.47 11818.6 5398.99 11818.6 Q5352.51 11818.6 5327.88 11781.9 Q5303.44 11745.1 5303.44 11675.3 Q5303.44 11605.3 5327.88 11568.6 Q5352.51 11531.7 5398.99 11531.7 Z" fill="#000000" fill-rule="evenodd" fill-opacity="1" /><path clip-path="url(#clip7000)" d="M 0 0 M5535.1 11766.2 L5574.18 11766.2 L5574.18 11813.2 L5535.1 11813.2 L5535.1 11766.2 Z" fill="#000000" fill-rule="evenodd" fill-opacity="1" /><path clip-path="url(#clip7000)" d="M 0 0 M5615.1 11536.7 L5761.95 11536.7 L5761.95 11568.2 L5649.36 11568.2 L5649.36 11636 Q5657.51 11633.2 5665.66 11631.9 Q5673.81 11630.4 5681.95 11630.4 Q5728.25 11630.4 5755.29 11655.8 Q5782.32 11681.2 5782.32 11724.5 Q5782.32 11769.1 5754.55 11794 Q5726.77 11818.6 5676.21 11818.6 Q5658.81 11818.6 5640.66 11815.6 Q5622.69 11812.7 5603.44 11806.7 L5603.44 11769.1 Q5620.1 11778.2 5637.88 11782.7 Q5655.66 11787.1 5675.47 11787.1 Q5707.51 11787.1 5726.21 11770.3 Q5744.92 11753.4 5744.92 11724.5 Q5744.92 11695.6 5726.21 11678.8 Q5707.51 11661.9 5675.47 11661.9 Q5660.47 11661.9 5645.47 11665.3 Q5630.66 11668.6 5615.1 11675.6 L5615.1 11536.7 Z" fill="#000000" fill-rule="evenodd" fill-opacity="1" /><path clip-path="url(#clip7000)" d="M 0 0 M5813.43 11536.7 L5991.21 11536.7 L5991.21 11552.7 L5890.84 11813.2 L5851.77 11813.2 L5946.21 11568.2 L5813.43 11568.2 L5813.43 11536.7 Z" fill="#000000" fill-rule="evenodd" fill-opacity="1" /><path clip-path="url(#clip7000)" d="M 0 0 M6063.99 11781.7 L6194.54 11781.7 L6194.54 11813.2 L6018.99 11813.2 L6018.99 11781.7 Q6040.28 11759.7 6076.95 11722.7 Q6113.8 11685.4 6123.25 11674.7 Q6141.21 11654.5 6148.25 11640.6 Q6155.47 11626.5 6155.47 11613 Q6155.47 11591 6139.91 11577.1 Q6124.54 11563.2 6099.73 11563.2 Q6082.14 11563.2 6062.51 11569.3 Q6043.06 11575.4 6020.84 11587.8 L6020.84 11550.1 Q6043.43 11541 6063.06 11536.4 Q6082.69 11531.7 6098.99 11531.7 Q6141.95 11531.7 6167.51 11553.2 Q6193.06 11574.7 6193.06 11610.6 Q6193.06 11627.7 6186.58 11643 Q6180.28 11658.2 6163.43 11679 Q6158.8 11684.3 6133.99 11710.1 Q6109.17 11735.6 6063.99 11781.7 Z" fill="#000000" fill-rule="evenodd" fill-opacity="1" /><path clip-path="url(#clip7000)" d="M 0 0 M8540.79 11561.4 Q8511.9 11561.4 8497.27 11589.9 Q8482.83 11618.2 8482.83 11675.3 Q8482.83 11732.1 8497.27 11760.6 Q8511.9 11789 8540.79 11789 Q8569.87 11789 8584.31 11760.6 Q8598.94 11732.1 8598.94 11675.3 Q8598.94 11618.2 8584.31 11589.9 Q8569.87 11561.4 8540.79 11561.4 M8540.79 11531.7 Q8587.27 11531.7 8611.72 11568.6 Q8636.35 11605.3 8636.35 11675.3 Q8636.35 11745.1 8611.72 11781.9 Q8587.27 11818.6 8540.79 11818.6 Q8494.31 11818.6 8469.68 11781.9 Q8445.24 11745.1 8445.24 11675.3 Q8445.24 11605.3 8469.68 11568.6 Q8494.31 11531.7 8540.79 11531.7 Z" fill="#000000" fill-rule="evenodd" fill-opacity="1" /><path clip-path="url(#clip7000)" d="M 0 0 M8676.9 11766.2 L8715.98 11766.2 L8715.98 11813.2 L8676.9 11813.2 L8676.9 11766.2 Z" fill="#000000" fill-rule="evenodd" fill-opacity="1" /><path clip-path="url(#clip7000)" d="M 0 0 M8756.9 11536.7 L8903.75 11536.7 L8903.75 11568.2 L8791.16 11568.2 L8791.16 11636 Q8799.31 11633.2 8807.46 11631.9 Q8815.61 11630.4 8823.75 11630.4 Q8870.05 11630.4 8897.09 11655.8 Q8924.12 11681.2 8924.12 11724.5 Q8924.12 11769.1 8896.35 11794 Q8868.57 11818.6 8818.01 11818.6 Q8800.61 11818.6 8782.46 11815.6 Q8764.5 11812.7 8745.24 11806.7 L8745.24 11769.1 Q8761.9 11778.2 8779.68 11782.7 Q8797.46 11787.1 8817.27 11787.1 Q8849.31 11787.1 8868.01 11770.3 Q8886.72 11753.4 8886.72 11724.5 Q8886.72 11695.6 8868.01 11678.8 Q8849.31 11661.9 8817.27 11661.9 Q8802.27 11661.9 8787.27 11665.3 Q8772.46 11668.6 8756.9 11675.6 L8756.9 11536.7 Z" fill="#000000" fill-rule="evenodd" fill-opacity="1" /><path clip-path="url(#clip7000)" d="M 0 0 M8955.24 11536.7 L9133.01 11536.7 L9133.01 11552.7 L9032.64 11813.2 L8993.57 11813.2 L9088.01 11568.2 L8955.24 11568.2 L8955.24 11536.7 Z" fill="#000000" fill-rule="evenodd" fill-opacity="1" /><path clip-path="url(#clip7000)" d="M 0 0 M9276.34 11569.3 L9181.9 11716.9 L9276.34 11716.9 L9276.34 11569.3 M9266.53 11536.7 L9313.57 11536.7 L9313.57 11716.9 L9353.01 11716.9 L9353.01 11748 L9313.57 11748 L9313.57 11813.2 L9276.34 11813.2 L9276.34 11748 L9151.53 11748 L9151.53 11711.9 L9266.53 11536.7 Z" fill="#000000" fill-rule="evenodd" fill-opacity="1" /><path clip-path="url(#clip7000)" d="M 0 0 M11692.2 11561.4 Q11663.3 11561.4 11648.7 11589.9 Q11634.3 11618.2 11634.3 11675.3 Q11634.3 11732.1 11648.7 11760.6 Q11663.3 11789 11692.2 11789 Q11721.3 11789 11735.7 11760.6 Q11750.4 11732.1 11750.4 11675.3 Q11750.4 11618.2 11735.7 11589.9 Q11721.3 11561.4 11692.2 11561.4 M11692.2 11531.7 Q11738.7 11531.7 11763.1 11568.6 Q11787.8 11605.3 11787.8 11675.3 Q11787.8 11745.1 11763.1 11781.9 Q11738.7 11818.6 11692.2 11818.6 Q11645.7 11818.6 11621.1 11781.9 Q11596.7 11745.1 11596.7 11675.3 Q11596.7 11605.3 11621.1 11568.6 Q11645.7 11531.7 11692.2 11531.7 Z" fill="#000000" fill-rule="evenodd" fill-opacity="1" /><path clip-path="url(#clip7000)" d="M 0 0 M11828.3 11766.2 L11867.4 11766.2 L11867.4 11813.2 L11828.3 11813.2 L11828.3 11766.2 Z" fill="#000000" fill-rule="evenodd" fill-opacity="1" /><path clip-path="url(#clip7000)" d="M 0 0 M11908.3 11536.7 L12055.2 11536.7 L12055.2 11568.2 L11942.6 11568.2 L11942.6 11636 Q11950.7 11633.2 11958.9 11631.9 Q11967 11630.4 11975.2 11630.4 Q12021.5 11630.4 12048.5 11655.8 Q12075.6 11681.2 12075.6 11724.5 Q12075.6 11769.1 12047.8 11794 Q12020 11818.6 11969.4 11818.6 Q11952 11818.6 11933.9 11815.6 Q11915.9 11812.7 11896.7 11806.7 L11896.7 11769.1 Q11913.3 11778.2 11931.1 11782.7 Q11948.9 11787.1 11968.7 11787.1 Q12000.7 11787.1 12019.4 11770.3 Q12038.1 11753.4 12038.1 11724.5 Q12038.1 11695.6 12019.4 11678.8 Q12000.7 11661.9 11968.7 11661.9 Q11953.7 11661.9 11938.7 11665.3 Q11923.9 11668.6 11908.3 11675.6 L11908.3 11536.7 Z" fill="#000000" fill-rule="evenodd" fill-opacity="1" /><path clip-path="url(#clip7000)" d="M 0 0 M12106.7 11536.7 L12284.4 11536.7 L12284.4 11552.7 L12184.1 11813.2 L12145 11813.2 L12239.4 11568.2 L12106.7 11568.2 L12106.7 11536.7 Z" fill="#000000" fill-rule="evenodd" fill-opacity="1" /><path clip-path="url(#clip7000)" d="M 0 0 M12409.6 11660.1 Q12384.4 11660.1 12369.6 11677.3 Q12355 11694.5 12355 11724.5 Q12355 11754.3 12369.6 11771.7 Q12384.4 11789 12409.6 11789 Q12434.8 11789 12449.4 11771.7 Q12464.3 11754.3 12464.3 11724.5 Q12464.3 11694.5 12449.4 11677.3 Q12434.8 11660.1 12409.6 11660.1 M12483.9 11542.8 L12483.9 11576.9 Q12469.8 11570.3 12455.4 11566.7 Q12441.1 11563.2 12427 11563.2 Q12390 11563.2 12370.4 11588.2 Q12350.9 11613.2 12348.1 11663.8 Q12359.1 11647.7 12375.6 11639.1 Q12392 11630.4 12411.8 11630.4 Q12453.5 11630.4 12477.6 11655.8 Q12501.8 11681 12501.8 11724.5 Q12501.8 11767.1 12476.7 11792.8 Q12451.5 11818.6 12409.6 11818.6 Q12361.7 11818.6 12336.3 11781.9 Q12310.9 11745.1 12310.9 11675.3 Q12310.9 11609.7 12342 11570.8 Q12373.1 11531.7 12425.6 11531.7 Q12439.6 11531.7 12453.9 11534.5 Q12468.3 11537.3 12483.9 11542.8 Z" fill="#000000" fill-rule="evenodd" fill-opacity="1" /><path clip-path="url(#clip7000)" d="M 0 0 M14843.4 11561.4 Q14814.5 11561.4 14799.9 11589.9 Q14785.4 11618.2 14785.4 11675.3 Q14785.4 11732.1 14799.9 11760.6 Q14814.5 11789 14843.4 11789 Q14872.5 11789 14886.9 11760.6 Q14901.5 11732.1 14901.5 11675.3 Q14901.5 11618.2 14886.9 11589.9 Q14872.5 11561.4 14843.4 11561.4 M14843.4 11531.7 Q14889.9 11531.7 14914.3 11568.6 Q14938.9 11605.3 14938.9 11675.3 Q14938.9 11745.1 14914.3 11781.9 Q14889.9 11818.6 14843.4 11818.6 Q14796.9 11818.6 14772.3 11781.9 Q14747.8 11745.1 14747.8 11675.3 Q14747.8 11605.3 14772.3 11568.6 Q14796.9 11531.7 14843.4 11531.7 Z" fill="#000000" fill-rule="evenodd" fill-opacity="1" /><path clip-path="url(#clip7000)" d="M 0 0 M14979.5 11766.2 L15018.6 11766.2 L15018.6 11813.2 L14979.5 11813.2 L14979.5 11766.2 Z" fill="#000000" fill-rule="evenodd" fill-opacity="1" /><path clip-path="url(#clip7000)" d="M 0 0 M15059.5 11536.7 L15206.3 11536.7 L15206.3 11568.2 L15093.7 11568.2 L15093.7 11636 Q15101.9 11633.2 15110 11631.9 Q15118.2 11630.4 15126.3 11630.4 Q15172.6 11630.4 15199.7 11655.8 Q15226.7 11681.2 15226.7 11724.5 Q15226.7 11769.1 15198.9 11794 Q15171.2 11818.6 15120.6 11818.6 Q15103.2 11818.6 15085 11815.6 Q15067.1 11812.7 15047.8 11806.7 L15047.8 11769.1 Q15064.5 11778.2 15082.3 11782.7 Q15100 11787.1 15119.9 11787.1 Q15151.9 11787.1 15170.6 11770.3 Q15189.3 11753.4 15189.3 11724.5 Q15189.3 11695.6 15170.6 11678.8 Q15151.9 11661.9 15119.9 11661.9 Q15104.9 11661.9 15089.9 11665.3 Q15075 11668.6 15059.5 11675.6 L15059.5 11536.7 Z" fill="#000000" fill-rule="evenodd" fill-opacity="1" /><path clip-path="url(#clip7000)" d="M 0 0 M15257.8 11536.7 L15435.6 11536.7 L15435.6 11552.7 L15335.2 11813.2 L15296.2 11813.2 L15390.6 11568.2 L15257.8 11568.2 L15257.8 11536.7 Z" fill="#000000" fill-rule="evenodd" fill-opacity="1" /><path clip-path="url(#clip7000)" d="M 0 0 M15556.2 11681.9 Q15529.5 11681.9 15514.1 11696.2 Q15498.9 11710.4 15498.9 11735.4 Q15498.9 11760.4 15514.1 11774.7 Q15529.5 11789 15556.2 11789 Q15582.8 11789 15598.2 11774.7 Q15613.6 11760.3 15613.6 11735.4 Q15613.6 11710.4 15598.2 11696.2 Q15583 11681.9 15556.2 11681.9 M15518.7 11666 Q15494.7 11660.1 15481.2 11643.6 Q15467.8 11627.1 15467.8 11603.4 Q15467.8 11570.3 15491.3 11551 Q15515 11531.7 15556.2 11531.7 Q15597.4 11531.7 15621 11551 Q15644.5 11570.3 15644.5 11603.4 Q15644.5 11627.1 15631 11643.6 Q15617.6 11660.1 15593.7 11666 Q15620.8 11672.3 15635.8 11690.6 Q15651 11709 15651 11735.4 Q15651 11775.6 15626.3 11797.1 Q15601.9 11818.6 15556.2 11818.6 Q15510.4 11818.6 15485.8 11797.1 Q15461.3 11775.6 15461.3 11735.4 Q15461.3 11709 15476.5 11690.6 Q15491.7 11672.3 15518.7 11666 M15505 11606.9 Q15505 11628.4 15518.4 11640.4 Q15531.9 11652.5 15556.2 11652.5 Q15580.2 11652.5 15593.7 11640.4 Q15607.4 11628.4 15607.4 11606.9 Q15607.4 11585.4 15593.7 11573.4 Q15580.2 11561.4 15556.2 11561.4 Q15531.9 11561.4 15518.4 11573.4 Q15505 11585.4 15505 11606.9 Z" fill="#000000" fill-rule="evenodd" fill-opacity="1" /><path clip-path="url(#clip7000)" d="M 0 0 M17989.9 11561.4 Q17961 11561.4 17946.4 11589.9 Q17931.9 11618.2 17931.9 11675.3 Q17931.9 11732.1 17946.4 11760.6 Q17961 11789 17989.9 11789 Q18019 11789 18033.4 11760.6 Q18048 11732.1 18048 11675.3 Q18048 11618.2 18033.4 11589.9 Q18019 11561.4 17989.9 11561.4 M17989.9 11531.7 Q18036.4 11531.7 18060.8 11568.6 Q18085.5 11605.3 18085.5 11675.3 Q18085.5 11745.1 18060.8 11781.9 Q18036.4 11818.6 17989.9 11818.6 Q17943.4 11818.6 17918.8 11781.9 Q17894.3 11745.1 17894.3 11675.3 Q17894.3 11605.3 17918.8 11568.6 Q17943.4 11531.7 17989.9 11531.7 Z" fill="#000000" fill-rule="evenodd" fill-opacity="1" /><path clip-path="url(#clip7000)" d="M 0 0 M18126 11766.2 L18165.1 11766.2 L18165.1 11813.2 L18126 11813.2 L18126 11766.2 Z" fill="#000000" fill-rule="evenodd" fill-opacity="1" /><path clip-path="url(#clip7000)" d="M 0 0 M18206 11536.7 L18352.9 11536.7 L18352.9 11568.2 L18240.3 11568.2 L18240.3 11636 Q18248.4 11633.2 18256.6 11631.9 Q18264.7 11630.4 18272.9 11630.4 Q18319.2 11630.4 18346.2 11655.8 Q18373.2 11681.2 18373.2 11724.5 Q18373.2 11769.1 18345.5 11794 Q18317.7 11818.6 18267.1 11818.6 Q18249.7 11818.6 18231.6 11815.6 Q18213.6 11812.7 18194.3 11806.7 L18194.3 11769.1 Q18211 11778.2 18228.8 11782.7 Q18246.6 11787.1 18266.4 11787.1 Q18298.4 11787.1 18317.1 11770.3 Q18335.8 11753.4 18335.8 11724.5 Q18335.8 11695.6 18317.1 11678.8 Q18298.4 11661.9 18266.4 11661.9 Q18251.4 11661.9 18236.4 11665.3 Q18221.6 11668.6 18206 11675.6 L18206 11536.7 Z" fill="#000000" fill-rule="evenodd" fill-opacity="1" /><path clip-path="url(#clip7000)" d="M 0 0 M18493.8 11681.9 Q18467.1 11681.9 18451.7 11696.2 Q18436.6 11710.4 18436.6 11735.4 Q18436.6 11760.4 18451.7 11774.7 Q18467.1 11789 18493.8 11789 Q18520.5 11789 18535.8 11774.7 Q18551.2 11760.3 18551.2 11735.4 Q18551.2 11710.4 18535.8 11696.2 Q18520.6 11681.9 18493.8 11681.9 M18456.4 11666 Q18432.3 11660.1 18418.8 11643.6 Q18405.5 11627.1 18405.5 11603.4 Q18405.5 11570.3 18429 11551 Q18452.7 11531.7 18493.8 11531.7 Q18535.1 11531.7 18558.6 11551 Q18582.1 11570.3 18582.1 11603.4 Q18582.1 11627.1 18568.6 11643.6 Q18555.3 11660.1 18531.4 11666 Q18558.4 11672.3 18573.4 11690.6 Q18588.6 11709 18588.6 11735.4 Q18588.6 11775.6 18564 11797.1 Q18539.5 11818.6 18493.8 11818.6 Q18448 11818.6 18423.4 11797.1 Q18399 11775.6 18399 11735.4 Q18399 11709 18414.2 11690.6 Q18429.3 11672.3 18456.4 11666 M18442.7 11606.9 Q18442.7 11628.4 18456 11640.4 Q18469.5 11652.5 18493.8 11652.5 Q18517.9 11652.5 18531.4 11640.4 Q18545.1 11628.4 18545.1 11606.9 Q18545.1 11585.4 18531.4 11573.4 Q18517.9 11561.4 18493.8 11561.4 Q18469.5 11561.4 18456 11573.4 Q18442.7 11585.4 18442.7 11606.9 Z" fill="#000000" fill-rule="evenodd" fill-opacity="1" /><path clip-path="url(#clip7000)" d="M 0 0 M18709.2 11561.4 Q18680.3 11561.4 18665.6 11589.9 Q18651.2 11618.2 18651.2 11675.3 Q18651.2 11732.1 18665.6 11760.6 Q18680.3 11789 18709.2 11789 Q18738.2 11789 18752.7 11760.6 Q18767.3 11732.1 18767.3 11675.3 Q18767.3 11618.2 18752.7 11589.9 Q18738.2 11561.4 18709.2 11561.4 M18709.2 11531.7 Q18755.6 11531.7 18780.1 11568.6 Q18804.7 11605.3 18804.7 11675.3 Q18804.7 11745.1 18780.1 11781.9 Q18755.6 11818.6 18709.2 11818.6 Q18662.7 11818.6 18638 11781.9 Q18613.6 11745.1 18613.6 11675.3 Q18613.6 11605.3 18638 11568.6 Q18662.7 11531.7 18709.2 11531.7 Z" fill="#000000" fill-rule="evenodd" fill-opacity="1" /><path clip-path="url(#clip7000)" d="M 0 0 M17989.9 11561.4 Q17961 11561.4 17946.4 11589.9 Q17931.9 11618.2 17931.9 11675.3 Q17931.9 11732.1 17946.4 11760.6 Q17961 11789 17989.9 11789 Q18019 11789 18033.4 11760.6 Q18048 11732.1 18048 11675.3 Q18048 11618.2 18033.4 11589.9 Q18019 11561.4 17989.9 11561.4 M17989.9 11531.7 Q18036.4 11531.7 18060.8 11568.6 Q18085.5 11605.3 18085.5 11675.3 Q18085.5 11745.1 18060.8 11781.9 Q18036.4 11818.6 17989.9 11818.6 Q17943.4 11818.6 17918.8 11781.9 Q17894.3 11745.1 17894.3 11675.3 Q17894.3 11605.3 17918.8 11568.6 Q17943.4 11531.7 17989.9 11531.7 Z" fill="#000000" fill-rule="evenodd" fill-opacity="1" /><path clip-path="url(#clip7000)" d="M 0 0 M18126 11766.2 L18165.1 11766.2 L18165.1 11813.2 L18126 11813.2 L18126 11766.2 Z" fill="#000000" fill-rule="evenodd" fill-opacity="1" /><path clip-path="url(#clip7000)" d="M 0 0 M18206 11536.7 L18352.9 11536.7 L18352.9 11568.2 L18240.3 11568.2 L18240.3 11636 Q18248.4 11633.2 18256.6 11631.9 Q18264.7 11630.4 18272.9 11630.4 Q18319.2 11630.4 18346.2 11655.8 Q18373.2 11681.2 18373.2 11724.5 Q18373.2 11769.1 18345.5 11794 Q18317.7 11818.6 18267.1 11818.6 Q18249.7 11818.6 18231.6 11815.6 Q18213.6 11812.7 18194.3 11806.7 L18194.3 11769.1 Q18211 11778.2 18228.8 11782.7 Q18246.6 11787.1 18266.4 11787.1 Q18298.4 11787.1 18317.1 11770.3 Q18335.8 11753.4 18335.8 11724.5 Q18335.8 11695.6 18317.1 11678.8 Q18298.4 11661.9 18266.4 11661.9 Q18251.4 11661.9 18236.4 11665.3 Q18221.6 11668.6 18206 11675.6 L18206 11536.7 Z" fill="#000000" fill-rule="evenodd" fill-opacity="1" /><path clip-path="url(#clip7000)" d="M 0 0 M18493.8 11681.9 Q18467.1 11681.9 18451.7 11696.2 Q18436.6 11710.4 18436.6 11735.4 Q18436.6 11760.4 18451.7 11774.7 Q18467.1 11789 18493.8 11789 Q18520.5 11789 18535.8 11774.7 Q18551.2 11760.3 18551.2 11735.4 Q18551.2 11710.4 18535.8 11696.2 Q18520.6 11681.9 18493.8 11681.9 M18456.4 11666 Q18432.3 11660.1 18418.8 11643.6 Q18405.5 11627.1 18405.5 11603.4 Q18405.5 11570.3 18429 11551 Q18452.7 11531.7 18493.8 11531.7 Q18535.1 11531.7 18558.6 11551 Q18582.1 11570.3 18582.1 11603.4 Q18582.1 11627.1 18568.6 11643.6 Q18555.3 11660.1 18531.4 11666 Q18558.4 11672.3 18573.4 11690.6 Q18588.6 11709 18588.6 11735.4 Q18588.6 11775.6 18564 11797.1 Q18539.5 11818.6 18493.8 11818.6 Q18448 11818.6 18423.4 11797.1 Q18399 11775.6 18399 11735.4 Q18399 11709 18414.2 11690.6 Q18429.3 11672.3 18456.4 11666 M18442.7 11606.9 Q18442.7 11628.4 18456 11640.4 Q18469.5 11652.5 18493.8 11652.5 Q18517.9 11652.5 18531.4 11640.4 Q18545.1 11628.4 18545.1 11606.9 Q18545.1 11585.4 18531.4 11573.4 Q18517.9 11561.4 18493.8 11561.4 Q18469.5 11561.4 18456 11573.4 Q18442.7 11585.4 18442.7 11606.9 Z" fill="#000000" fill-rule="evenodd" fill-opacity="1" /><path clip-path="url(#clip7000)" d="M 0 0 M18709.2 11561.4 Q18680.3 11561.4 18665.6 11589.9 Q18651.2 11618.2 18651.2 11675.3 Q18651.2 11732.1 18665.6 11760.6 Q18680.3 11789 18709.2 11789 Q18738.2 11789 18752.7 11760.6 Q18767.3 11732.1 18767.3 11675.3 Q18767.3 11618.2 18752.7 11589.9 Q18738.2 11561.4 18709.2 11561.4 M18709.2 11531.7 Q18755.6 11531.7 18780.1 11568.6 Q18804.7 11605.3 18804.7 11675.3 Q18804.7 11745.1 18780.1 11781.9 Q18755.6 11818.6 18709.2 11818.6 Q18662.7 11818.6 18638 11781.9 Q18613.6 11745.1 18613.6 11675.3 Q18613.6 11605.3 18638 11568.6 Q18662.7 11531.7 18709.2 11531.7 Z" fill="#000000" fill-rule="evenodd" fill-opacity="1" /><path clip-path="url(#clip7000)" d="M 0 0 M1105.64 9893.6 Q1076.75 9893.6 1062.12 9922.12 Q1047.67 9950.45 1047.67 10007.5 Q1047.67 10064.3 1062.12 10092.9 Q1076.75 10121.2 1105.64 10121.2 Q1134.71 10121.2 1149.15 10092.9 Q1163.78 10064.3 1163.78 10007.5 Q1163.78 9950.45 1149.15 9922.12 Q1134.71 9893.6 1105.64 9893.6 M1105.64 9863.97 Q1152.12 9863.97 1176.56 9900.82 Q1201.19 9937.49 1201.19 10007.5 Q1201.19 10077.3 1176.56 10114.2 Q1152.12 10150.8 1105.64 10150.8 Q1059.16 10150.8 1034.53 10114.2 Q1010.08 10077.3 1010.08 10007.5 Q1010.08 9937.49 1034.53 9900.82 Q1059.16 9863.97 1105.64 9863.97 Z" fill="#000000" fill-rule="evenodd" fill-opacity="1" /><path clip-path="url(#clip7000)" d="M 0 0 M1241.75 10098.4 L1280.82 10098.4 L1280.82 10145.5 L1241.75 10145.5 L1241.75 10098.4 Z" fill="#000000" fill-rule="evenodd" fill-opacity="1" /><path clip-path="url(#clip7000)" d="M 0 0 M1406.01 9992.3 Q1380.82 9992.3 1366.01 10009.5 Q1351.38 10026.7 1351.38 10056.7 Q1351.38 10086.6 1366.01 10104 Q1380.82 10121.2 1406.01 10121.2 Q1431.19 10121.2 1445.82 10104 Q1460.63 10086.6 1460.63 10056.7 Q1460.63 10026.7 1445.82 10009.5 Q1431.19 9992.3 1406.01 9992.3 M1480.26 9875.08 L1480.26 9909.16 Q1466.19 9902.49 1451.75 9898.97 Q1437.49 9895.45 1423.41 9895.45 Q1386.38 9895.45 1366.75 9920.45 Q1347.3 9945.45 1344.52 9996.01 Q1355.45 9979.9 1371.93 9971.38 Q1388.41 9962.67 1408.23 9962.67 Q1449.89 9962.67 1473.97 9988.04 Q1498.23 10013.2 1498.23 10056.7 Q1498.23 10099.3 1473.04 10125.1 Q1447.86 10150.8 1406.01 10150.8 Q1358.04 10150.8 1332.67 10114.2 Q1307.3 10077.3 1307.3 10007.5 Q1307.3 9941.93 1338.41 9903.04 Q1369.52 9863.97 1421.93 9863.97 Q1436 9863.97 1450.26 9866.75 Q1464.71 9869.53 1480.26 9875.08 Z" fill="#000000" fill-rule="evenodd" fill-opacity="1" /><path clip-path="url(#clip7000)" d="M 0 0 M1641.56 9901.56 L1547.12 10049.2 L1641.56 10049.2 L1641.56 9901.56 M1631.74 9868.97 L1678.78 9868.97 L1678.78 10049.2 L1718.23 10049.2 L1718.23 10080.3 L1678.78 10080.3 L1678.78 10145.5 L1641.56 10145.5 L1641.56 10080.3 L1516.75 10080.3 L1516.75 10044.2 L1631.74 9868.97 Z" fill="#000000" fill-rule="evenodd" fill-opacity="1" /><path clip-path="url(#clip7000)" d="M 0 0 M1838.78 9893.6 Q1809.89 9893.6 1795.26 9922.12 Q1780.82 9950.45 1780.82 10007.5 Q1780.82 10064.3 1795.26 10092.9 Q1809.89 10121.2 1838.78 10121.2 Q1867.85 10121.2 1882.3 10092.9 Q1896.93 10064.3 1896.93 10007.5 Q1896.93 9950.45 1882.3 9922.12 Q1867.85 9893.6 1838.78 9893.6 M1838.78 9863.97 Q1885.26 9863.97 1909.71 9900.82 Q1934.34 9937.49 1934.34 10007.5 Q1934.34 10077.3 1909.71 10114.2 Q1885.26 10150.8 1838.78 10150.8 Q1792.3 10150.8 1767.67 10114.2 Q1743.23 10077.3 1743.23 10007.5 Q1743.23 9937.49 1767.67 9900.82 Q1792.3 9863.97 1838.78 9863.97 Z" fill="#000000" fill-rule="evenodd" fill-opacity="1" /><path clip-path="url(#clip7000)" d="M 0 0 M1113.6 7720.48 Q1084.71 7720.48 1070.08 7749 Q1055.64 7777.33 1055.64 7834.37 Q1055.64 7891.22 1070.08 7919.74 Q1084.71 7948.07 1113.6 7948.07 Q1142.67 7948.07 1157.12 7919.74 Q1171.75 7891.22 1171.75 7834.37 Q1171.75 7777.33 1157.12 7749 Q1142.67 7720.48 1113.6 7720.48 M1113.6 7690.85 Q1160.08 7690.85 1184.52 7727.7 Q1209.15 7764.37 1209.15 7834.37 Q1209.15 7904.18 1184.52 7941.03 Q1160.08 7977.7 1113.6 7977.7 Q1067.12 7977.7 1042.49 7941.03 Q1018.04 7904.18 1018.04 7834.37 Q1018.04 7764.37 1042.49 7727.7 Q1067.12 7690.85 1113.6 7690.85 Z" fill="#000000" fill-rule="evenodd" fill-opacity="1" /><path clip-path="url(#clip7000)" d="M 0 0 M1249.71 7925.29 L1288.78 7925.29 L1288.78 7972.33 L1249.71 7972.33 L1249.71 7925.29 Z" fill="#000000" fill-rule="evenodd" fill-opacity="1" /><path clip-path="url(#clip7000)" d="M 0 0 M1413.97 7819.18 Q1388.78 7819.18 1373.97 7836.4 Q1359.34 7853.63 1359.34 7883.63 Q1359.34 7913.44 1373.97 7930.85 Q1388.78 7948.07 1413.97 7948.07 Q1439.15 7948.07 1453.78 7930.85 Q1468.6 7913.44 1468.6 7883.63 Q1468.6 7853.63 1453.78 7836.4 Q1439.15 7819.18 1413.97 7819.18 M1488.23 7701.96 L1488.23 7736.03 Q1474.15 7729.37 1459.71 7725.85 Q1445.45 7722.33 1431.38 7722.33 Q1394.34 7722.33 1374.71 7747.33 Q1355.26 7772.33 1352.49 7822.89 Q1363.41 7806.77 1379.89 7798.26 Q1396.38 7789.55 1416.19 7789.55 Q1457.86 7789.55 1481.93 7814.92 Q1506.19 7840.11 1506.19 7883.63 Q1506.19 7926.22 1481 7951.96 Q1455.82 7977.7 1413.97 7977.7 Q1366.01 7977.7 1340.64 7941.03 Q1315.26 7904.18 1315.26 7834.37 Q1315.26 7768.81 1346.38 7729.92 Q1377.49 7690.85 1429.89 7690.85 Q1443.97 7690.85 1458.23 7693.63 Q1472.67 7696.4 1488.23 7701.96 Z" fill="#000000" fill-rule="evenodd" fill-opacity="1" /><path clip-path="url(#clip7000)" d="M 0 0 M1649.52 7728.44 L1555.08 7876.03 L1649.52 7876.03 L1649.52 7728.44 M1639.71 7695.85 L1686.74 7695.85 L1686.74 7876.03 L1726.19 7876.03 L1726.19 7907.14 L1686.74 7907.14 L1686.74 7972.33 L1649.52 7972.33 L1649.52 7907.14 L1524.71 7907.14 L1524.71 7871.03 L1639.71 7695.85 Z" fill="#000000" fill-rule="evenodd" fill-opacity="1" /><path clip-path="url(#clip7000)" d="M 0 0 M1767.11 7695.85 L1913.97 7695.85 L1913.97 7727.33 L1801.37 7727.33 L1801.37 7795.11 Q1809.52 7792.33 1817.67 7791.03 Q1825.82 7789.55 1833.97 7789.55 Q1880.26 7789.55 1907.3 7814.92 Q1934.34 7840.29 1934.34 7883.63 Q1934.34 7928.25 1906.56 7953.07 Q1878.78 7977.7 1828.23 7977.7 Q1810.82 7977.7 1792.67 7974.74 Q1774.71 7971.77 1755.45 7965.85 L1755.45 7928.25 Q1772.11 7937.33 1789.89 7941.77 Q1807.67 7946.22 1827.48 7946.22 Q1859.52 7946.22 1878.22 7929.37 Q1896.93 7912.51 1896.93 7883.63 Q1896.93 7854.74 1878.22 7837.88 Q1859.52 7821.03 1827.48 7821.03 Q1812.48 7821.03 1797.48 7824.37 Q1782.67 7827.7 1767.11 7834.74 L1767.11 7695.85 Z" fill="#000000" fill-rule="evenodd" fill-opacity="1" /><path clip-path="url(#clip7000)" d="M 0 0 M1117.49 5547.36 Q1088.6 5547.36 1073.97 5575.87 Q1059.53 5604.21 1059.53 5661.24 Q1059.53 5718.1 1073.97 5746.61 Q1088.6 5774.95 1117.49 5774.95 Q1146.56 5774.95 1161.01 5746.61 Q1175.64 5718.1 1175.64 5661.24 Q1175.64 5604.21 1161.01 5575.87 Q1146.56 5547.36 1117.49 5547.36 M1117.49 5517.73 Q1163.97 5517.73 1188.41 5554.58 Q1213.04 5591.25 1213.04 5661.24 Q1213.04 5731.06 1188.41 5767.91 Q1163.97 5804.58 1117.49 5804.58 Q1071.01 5804.58 1046.38 5767.91 Q1021.93 5731.06 1021.93 5661.24 Q1021.93 5591.25 1046.38 5554.58 Q1071.01 5517.73 1117.49 5517.73 Z" fill="#000000" fill-rule="evenodd" fill-opacity="1" /><path clip-path="url(#clip7000)" d="M 0 0 M1253.6 5752.17 L1292.67 5752.17 L1292.67 5799.21 L1253.6 5799.21 L1253.6 5752.17 Z" fill="#000000" fill-rule="evenodd" fill-opacity="1" /><path clip-path="url(#clip7000)" d="M 0 0 M1417.86 5646.06 Q1392.67 5646.06 1377.86 5663.28 Q1363.23 5680.5 1363.23 5710.5 Q1363.23 5740.32 1377.86 5757.73 Q1392.67 5774.95 1417.86 5774.95 Q1443.04 5774.95 1457.67 5757.73 Q1472.49 5740.32 1472.49 5710.5 Q1472.49 5680.5 1457.67 5663.28 Q1443.04 5646.06 1417.86 5646.06 M1492.12 5528.84 L1492.12 5562.91 Q1478.04 5556.25 1463.6 5552.73 Q1449.34 5549.21 1435.26 5549.21 Q1398.23 5549.21 1378.6 5574.21 Q1359.15 5599.21 1356.38 5649.76 Q1367.3 5633.65 1383.78 5625.13 Q1400.26 5616.43 1420.08 5616.43 Q1461.75 5616.43 1485.82 5641.8 Q1510.08 5666.99 1510.08 5710.5 Q1510.08 5753.1 1484.89 5778.84 Q1459.71 5804.58 1417.86 5804.58 Q1369.89 5804.58 1344.52 5767.91 Q1319.15 5731.06 1319.15 5661.24 Q1319.15 5595.69 1350.26 5556.8 Q1381.38 5517.73 1433.78 5517.73 Q1447.86 5517.73 1462.12 5520.5 Q1476.56 5523.28 1492.12 5528.84 Z" fill="#000000" fill-rule="evenodd" fill-opacity="1" /><path clip-path="url(#clip7000)" d="M 0 0 M1551 5522.73 L1697.86 5522.73 L1697.86 5554.21 L1585.26 5554.21 L1585.26 5621.99 Q1593.41 5619.21 1601.56 5617.91 Q1609.71 5616.43 1617.86 5616.43 Q1664.15 5616.43 1691.19 5641.8 Q1718.23 5667.17 1718.23 5710.5 Q1718.23 5755.13 1690.45 5779.95 Q1662.67 5804.58 1612.12 5804.58 Q1594.71 5804.58 1576.56 5801.61 Q1558.6 5798.65 1539.34 5792.73 L1539.34 5755.13 Q1556 5764.21 1573.78 5768.65 Q1591.56 5773.1 1611.37 5773.1 Q1643.41 5773.1 1662.11 5756.24 Q1680.82 5739.39 1680.82 5710.5 Q1680.82 5681.62 1662.11 5664.76 Q1643.41 5647.91 1611.37 5647.91 Q1596.37 5647.91 1581.37 5651.24 Q1566.56 5654.58 1551 5661.62 L1551 5522.73 Z" fill="#000000" fill-rule="evenodd" fill-opacity="1" /><path clip-path="url(#clip7000)" d="M 0 0 M1838.78 5547.36 Q1809.89 5547.36 1795.26 5575.87 Q1780.82 5604.21 1780.82 5661.24 Q1780.82 5718.1 1795.26 5746.61 Q1809.89 5774.95 1838.78 5774.95 Q1867.85 5774.95 1882.3 5746.61 Q1896.93 5718.1 1896.93 5661.24 Q1896.93 5604.21 1882.3 5575.87 Q1867.85 5547.36 1838.78 5547.36 M1838.78 5517.73 Q1885.26 5517.73 1909.71 5554.58 Q1934.34 5591.25 1934.34 5661.24 Q1934.34 5731.06 1909.71 5767.91 Q1885.26 5804.58 1838.78 5804.58 Q1792.3 5804.58 1767.67 5767.91 Q1743.23 5731.06 1743.23 5661.24 Q1743.23 5591.25 1767.67 5554.58 Q1792.3 5517.73 1838.78 5517.73 Z" fill="#000000" fill-rule="evenodd" fill-opacity="1" /><path clip-path="url(#clip7000)" d="M 0 0 M1125.45 3374.23 Q1096.56 3374.23 1081.93 3402.75 Q1067.49 3431.09 1067.49 3488.12 Q1067.49 3544.97 1081.93 3573.49 Q1096.56 3601.83 1125.45 3601.83 Q1154.52 3601.83 1168.97 3573.49 Q1183.6 3544.97 1183.6 3488.12 Q1183.6 3431.09 1168.97 3402.75 Q1154.52 3374.23 1125.45 3374.23 M1125.45 3344.61 Q1171.93 3344.61 1196.38 3381.46 Q1221.01 3418.12 1221.01 3488.12 Q1221.01 3557.94 1196.38 3594.79 Q1171.93 3631.46 1125.45 3631.46 Q1078.97 3631.46 1054.34 3594.79 Q1029.9 3557.94 1029.9 3488.12 Q1029.9 3418.12 1054.34 3381.46 Q1078.97 3344.61 1125.45 3344.61 Z" fill="#000000" fill-rule="evenodd" fill-opacity="1" /><path clip-path="url(#clip7000)" d="M 0 0 M1261.56 3579.05 L1300.64 3579.05 L1300.64 3626.09 L1261.56 3626.09 L1261.56 3579.05 Z" fill="#000000" fill-rule="evenodd" fill-opacity="1" /><path clip-path="url(#clip7000)" d="M 0 0 M1425.82 3472.94 Q1400.63 3472.94 1385.82 3490.16 Q1371.19 3507.38 1371.19 3537.38 Q1371.19 3567.2 1385.82 3584.6 Q1400.63 3601.83 1425.82 3601.83 Q1451 3601.83 1465.63 3584.6 Q1480.45 3567.2 1480.45 3537.38 Q1480.45 3507.38 1465.63 3490.16 Q1451 3472.94 1425.82 3472.94 M1500.08 3355.72 L1500.08 3389.79 Q1486 3383.12 1471.56 3379.61 Q1457.3 3376.09 1443.23 3376.09 Q1406.19 3376.09 1386.56 3401.09 Q1367.12 3426.09 1364.34 3476.64 Q1375.26 3460.53 1391.75 3452.01 Q1408.23 3443.31 1428.04 3443.31 Q1469.71 3443.31 1493.78 3468.68 Q1518.04 3493.86 1518.04 3537.38 Q1518.04 3579.97 1492.86 3605.72 Q1467.67 3631.46 1425.82 3631.46 Q1377.86 3631.46 1352.49 3594.79 Q1327.12 3557.94 1327.12 3488.12 Q1327.12 3422.57 1358.23 3383.68 Q1389.34 3344.61 1441.75 3344.61 Q1455.82 3344.61 1470.08 3347.38 Q1484.52 3350.16 1500.08 3355.72 Z" fill="#000000" fill-rule="evenodd" fill-opacity="1" /><path clip-path="url(#clip7000)" d="M 0 0 M1558.97 3349.61 L1705.82 3349.61 L1705.82 3381.09 L1593.23 3381.09 L1593.23 3448.86 Q1601.37 3446.09 1609.52 3444.79 Q1617.67 3443.31 1625.82 3443.31 Q1672.11 3443.31 1699.15 3468.68 Q1726.19 3494.05 1726.19 3537.38 Q1726.19 3582.01 1698.41 3606.83 Q1670.63 3631.46 1620.08 3631.46 Q1602.67 3631.46 1584.52 3628.49 Q1566.56 3625.53 1547.3 3619.6 L1547.3 3582.01 Q1563.97 3591.09 1581.74 3595.53 Q1599.52 3599.97 1619.34 3599.97 Q1651.37 3599.97 1670.08 3583.12 Q1688.78 3566.27 1688.78 3537.38 Q1688.78 3508.49 1670.08 3491.64 Q1651.37 3474.79 1619.34 3474.79 Q1604.34 3474.79 1589.34 3478.12 Q1574.52 3481.46 1558.97 3488.49 L1558.97 3349.61 Z" fill="#000000" fill-rule="evenodd" fill-opacity="1" /><path clip-path="url(#clip7000)" d="M 0 0 M1767.11 3349.61 L1913.97 3349.61 L1913.97 3381.09 L1801.37 3381.09 L1801.37 3448.86 Q1809.52 3446.09 1817.67 3444.79 Q1825.82 3443.31 1833.97 3443.31 Q1880.26 3443.31 1907.3 3468.68 Q1934.34 3494.05 1934.34 3537.38 Q1934.34 3582.01 1906.56 3606.83 Q1878.78 3631.46 1828.23 3631.46 Q1810.82 3631.46 1792.67 3628.49 Q1774.71 3625.53 1755.45 3619.6 L1755.45 3582.01 Q1772.11 3591.09 1789.89 3595.53 Q1807.67 3599.97 1827.48 3599.97 Q1859.52 3599.97 1878.22 3583.12 Q1896.93 3566.27 1896.93 3537.38 Q1896.93 3508.49 1878.22 3491.64 Q1859.52 3474.79 1827.48 3474.79 Q1812.48 3474.79 1797.48 3478.12 Q1782.67 3481.46 1767.11 3488.49 L1767.11 3349.61 Z" fill="#000000" fill-rule="evenodd" fill-opacity="1" /><path clip-path="url(#clip7000)" d="M 0 0 M1108.23 1201.11 Q1079.34 1201.11 1064.71 1229.63 Q1050.27 1257.96 1050.27 1315 Q1050.27 1371.85 1064.71 1400.37 Q1079.34 1428.7 1108.23 1428.7 Q1137.3 1428.7 1151.75 1400.37 Q1166.38 1371.85 1166.38 1315 Q1166.38 1257.96 1151.75 1229.63 Q1137.3 1201.11 1108.23 1201.11 M1108.23 1171.48 Q1154.71 1171.48 1179.15 1208.34 Q1203.78 1245 1203.78 1315 Q1203.78 1384.82 1179.15 1421.67 Q1154.71 1458.33 1108.23 1458.33 Q1061.75 1458.33 1037.12 1421.67 Q1012.67 1384.82 1012.67 1315 Q1012.67 1245 1037.12 1208.34 Q1061.75 1171.48 1108.23 1171.48 Z" fill="#000000" fill-rule="evenodd" fill-opacity="1" /><path clip-path="url(#clip7000)" d="M 0 0 M1244.34 1405.93 L1283.41 1405.93 L1283.41 1452.96 L1244.34 1452.96 L1244.34 1405.93 Z" fill="#000000" fill-rule="evenodd" fill-opacity="1" /><path clip-path="url(#clip7000)" d="M 0 0 M1408.6 1299.82 Q1383.41 1299.82 1368.6 1317.04 Q1353.97 1334.26 1353.97 1364.26 Q1353.97 1394.08 1368.6 1411.48 Q1383.41 1428.7 1408.6 1428.7 Q1433.78 1428.7 1448.41 1411.48 Q1463.23 1394.08 1463.23 1364.26 Q1463.23 1334.26 1448.41 1317.04 Q1433.78 1299.82 1408.6 1299.82 M1482.86 1182.59 L1482.86 1216.67 Q1468.78 1210 1454.34 1206.48 Q1440.08 1202.97 1426 1202.97 Q1388.97 1202.97 1369.34 1227.97 Q1349.89 1252.96 1347.12 1303.52 Q1358.04 1287.41 1374.52 1278.89 Q1391.01 1270.19 1410.82 1270.19 Q1452.49 1270.19 1476.56 1295.56 Q1500.82 1320.74 1500.82 1364.26 Q1500.82 1406.85 1475.63 1432.59 Q1450.45 1458.33 1408.6 1458.33 Q1360.63 1458.33 1335.26 1421.67 Q1309.89 1384.82 1309.89 1315 Q1309.89 1249.45 1341.01 1210.56 Q1372.12 1171.48 1424.52 1171.48 Q1438.6 1171.48 1452.86 1174.26 Q1467.3 1177.04 1482.86 1182.59 Z" fill="#000000" fill-rule="evenodd" fill-opacity="1" /><path clip-path="url(#clip7000)" d="M 0 0 M1626 1299.82 Q1600.82 1299.82 1586 1317.04 Q1571.37 1334.26 1571.37 1364.26 Q1571.37 1394.08 1586 1411.48 Q1600.82 1428.7 1626 1428.7 Q1651.19 1428.7 1665.82 1411.48 Q1680.63 1394.08 1680.63 1364.26 Q1680.63 1334.26 1665.82 1317.04 Q1651.19 1299.82 1626 1299.82 M1700.26 1182.59 L1700.26 1216.67 Q1686.19 1210 1671.74 1206.48 Q1657.49 1202.97 1643.41 1202.97 Q1606.37 1202.97 1586.74 1227.97 Q1567.3 1252.96 1564.52 1303.52 Q1575.45 1287.41 1591.93 1278.89 Q1608.41 1270.19 1628.23 1270.19 Q1669.89 1270.19 1693.97 1295.56 Q1718.23 1320.74 1718.23 1364.26 Q1718.23 1406.85 1693.04 1432.59 Q1667.86 1458.33 1626 1458.33 Q1578.04 1458.33 1552.67 1421.67 Q1527.3 1384.82 1527.3 1315 Q1527.3 1249.45 1558.41 1210.56 Q1589.52 1171.48 1641.93 1171.48 Q1656 1171.48 1670.26 1174.26 Q1684.71 1177.04 1700.26 1182.59 Z" fill="#000000" fill-rule="evenodd" fill-opacity="1" /><path clip-path="url(#clip7000)" d="M 0 0 M1838.78 1201.11 Q1809.89 1201.11 1795.26 1229.63 Q1780.82 1257.96 1780.82 1315 Q1780.82 1371.85 1795.26 1400.37 Q1809.89 1428.7 1838.78 1428.7 Q1867.85 1428.7 1882.3 1400.37 Q1896.93 1371.85 1896.93 1315 Q1896.93 1257.96 1882.3 1229.63 Q1867.85 1201.11 1838.78 1201.11 M1838.78 1171.48 Q1885.26 1171.48 1909.71 1208.34 Q1934.34 1245 1934.34 1315 Q1934.34 1384.82 1909.71 1421.67 Q1885.26 1458.33 1838.78 1458.33 Q1792.3 1458.33 1767.67 1421.67 Q1743.23 1384.82 1743.23 1315 Q1743.23 1245 1767.67 1208.34 Q1792.3 1171.48 1838.78 1171.48 Z" fill="#000000" fill-rule="evenodd" fill-opacity="1" /><path clip-path="url(#clip7000)" d="M 0 0 M5860.37 228.341 L5860.37 284.73 Q5835.1 271.767 5807.87 265.286 Q5780.65 258.804 5751.49 258.804 Q5707.09 258.804 5684.73 272.415 Q5662.69 286.026 5662.69 313.248 Q5662.69 333.989 5678.57 345.98 Q5694.45 357.646 5742.41 368.341 L5762.83 372.878 Q5826.35 386.489 5852.92 411.442 Q5879.82 436.072 5879.82 480.47 Q5879.82 531.025 5839.63 560.516 Q5799.77 590.006 5729.77 590.006 Q5700.61 590.006 5668.85 584.173 Q5637.41 578.664 5602.41 567.321 L5602.41 505.747 Q5635.47 522.923 5667.55 531.673 Q5699.63 540.099 5731.07 540.099 Q5773.2 540.099 5795.88 525.84 Q5818.57 511.257 5818.57 485.007 Q5818.57 460.701 5802.04 447.738 Q5785.84 434.775 5730.42 422.785 L5709.68 417.924 Q5654.26 406.257 5629.63 382.276 Q5605 357.97 5605 315.841 Q5605 264.637 5641.3 236.767 Q5677.6 208.897 5744.36 208.897 Q5777.41 208.897 5806.58 213.758 Q5835.74 218.619 5860.37 228.341 Z" fill="#000000" fill-rule="evenodd" fill-opacity="1" /><path clip-path="url(#clip7000)" d="M 0 0 M5942.36 217.647 L6001.99 217.647 L6001.99 580.608 L5942.36 580.608 L5942.36 217.647 M5942.36 76.3514 L6001.99 76.3514 L6001.99 151.86 L5942.36 151.86 L5942.36 76.3514 Z" fill="#000000" fill-rule="evenodd" fill-opacity="1" /><path clip-path="url(#clip7000)" d="M 0 0 M6038.61 217.647 L6321.85 217.647 L6321.85 272.091 L6097.59 532.969 L6321.85 532.969 L6321.85 580.608 L6030.51 580.608 L6030.51 526.164 L6254.77 265.286 L6038.61 265.286 L6038.61 217.647 Z" fill="#000000" fill-rule="evenodd" fill-opacity="1" /><path clip-path="url(#clip7000)" d="M 0 0 M6694.86 384.22 L6694.86 413.387 L6420.69 413.387 Q6424.58 474.96 6457.64 507.368 Q6491.02 539.451 6550.32 539.451 Q6584.68 539.451 6616.76 531.025 Q6649.17 522.599 6680.92 505.747 L6680.92 562.136 Q6648.84 575.747 6615.14 582.877 Q6581.43 590.006 6546.76 590.006 Q6459.91 590.006 6409.03 539.451 Q6358.47 488.896 6358.47 402.692 Q6358.47 313.572 6406.44 261.397 Q6454.72 208.897 6536.39 208.897 Q6609.63 208.897 6652.08 256.212 Q6694.86 303.202 6694.86 384.22 M6635.23 366.72 Q6634.58 317.785 6607.68 288.619 Q6581.11 259.452 6537.04 259.452 Q6487.13 259.452 6456.99 287.647 Q6427.18 315.841 6422.64 367.044 L6635.23 366.72 Z" fill="#000000" fill-rule="evenodd" fill-opacity="1" /><path clip-path="url(#clip7000)" d="M 0 0 M6772.64 498.294 L6841.02 498.294 L6841.02 580.608 L6772.64 580.608 L6772.64 498.294 M6772.64 237.415 L6841.02 237.415 L6841.02 319.73 L6772.64 319.73 L6772.64 237.415 Z" fill="#000000" fill-rule="evenodd" fill-opacity="1" /><path clip-path="url(#clip7000)" d="M 0 0 M7060.09 312.6 Q7016.02 312.6 6990.09 342.739 Q6964.49 372.878 6964.49 425.377 Q6964.49 477.553 6990.09 508.016 Q7016.02 538.155 7060.09 538.155 Q7104.16 538.155 7129.76 508.016 Q7155.69 477.553 7155.69 425.377 Q7155.69 372.878 7129.76 342.739 Q7104.16 312.6 7060.09 312.6 M7190.04 107.462 L7190.04 167.092 Q7165.41 155.425 7140.14 149.268 Q7115.18 143.11 7090.55 143.11 Q7025.74 143.11 6991.39 186.86 Q6957.36 230.61 6952.5 319.082 Q6971.62 290.887 7000.46 275.98 Q7029.3 260.749 7063.98 260.749 Q7136.89 260.749 7179.02 305.147 Q7221.48 349.22 7221.48 425.377 Q7221.48 499.914 7177.4 544.96 Q7133.33 590.006 7060.09 590.006 Q6976.15 590.006 6931.76 525.84 Q6887.36 461.349 6887.36 339.174 Q6887.36 224.453 6941.8 156.397 Q6996.25 88.018 7087.96 88.018 Q7112.59 88.018 7137.54 92.8791 Q7162.82 97.7402 7190.04 107.462 Z" fill="#000000" fill-rule="evenodd" fill-opacity="1" /><path clip-path="url(#clip7000)" d="M 0 0 M7299.25 498.294 L7367.63 498.294 L7367.63 554.034 L7314.49 657.737 L7272.68 657.737 L7299.25 554.034 L7299.25 498.294 Z" fill="#000000" fill-rule="evenodd" fill-opacity="1" /><path clip-path="url(#clip7000)" d="M 0 0 M7578.61 350.841 Q7531.94 350.841 7505.04 375.794 Q7478.47 400.748 7478.47 444.498 Q7478.47 488.247 7505.04 513.201 Q7531.94 538.155 7578.61 538.155 Q7625.27 538.155 7652.17 513.201 Q7679.07 487.923 7679.07 444.498 Q7679.07 400.748 7652.17 375.794 Q7625.6 350.841 7578.61 350.841 M7513.14 322.97 Q7471.01 312.6 7447.36 283.758 Q7424.02 254.915 7424.02 213.434 Q7424.02 155.425 7465.18 121.722 Q7506.66 88.018 7578.61 88.018 Q7650.87 88.018 7692.03 121.722 Q7733.19 155.425 7733.19 213.434 Q7733.19 254.915 7709.53 283.758 Q7686.2 312.6 7644.39 322.97 Q7691.71 333.989 7717.96 366.072 Q7744.53 398.155 7744.53 444.498 Q7744.53 514.821 7701.43 552.414 Q7658.65 590.006 7578.61 590.006 Q7498.56 590.006 7455.46 552.414 Q7412.68 514.821 7412.68 444.498 Q7412.68 398.155 7439.25 366.072 Q7465.83 333.989 7513.14 322.97 M7489.16 219.591 Q7489.16 257.184 7512.49 278.249 Q7536.15 299.313 7578.61 299.313 Q7620.73 299.313 7644.39 278.249 Q7668.37 257.184 7668.37 219.591 Q7668.37 181.999 7644.39 160.934 Q7620.73 139.87 7578.61 139.87 Q7536.15 139.87 7512.49 160.934 Q7489.16 181.999 7489.16 219.591 Z" fill="#000000" fill-rule="evenodd" fill-opacity="1" /><path clip-path="url(#clip7000)" d="M 0 0 M7822.31 498.294 L7890.69 498.294 L7890.69 554.034 L7837.54 657.737 L7795.73 657.737 L7822.31 554.034 L7822.31 498.294 Z" fill="#000000" fill-rule="evenodd" fill-opacity="1" /><path clip-path="url(#clip7000)" d="M 0 0 M7973 525.516 L8079.94 525.516 L8079.94 156.397 L7963.6 179.731 L7963.6 120.101 L8079.3 96.768 L8144.76 96.768 L8144.76 525.516 L8251.7 525.516 L8251.7 580.608 L7973 580.608 L7973 525.516 Z" fill="#000000" fill-rule="evenodd" fill-opacity="1" /><path clip-path="url(#clip7000)" d="M 0 0 M8462.67 139.87 Q8412.12 139.87 8386.52 189.777 Q8361.24 239.36 8361.24 339.174 Q8361.24 438.664 8386.52 488.571 Q8412.12 538.155 8462.67 538.155 Q8513.55 538.155 8538.83 488.571 Q8564.43 438.664 8564.43 339.174 Q8564.43 239.36 8538.83 189.777 Q8513.55 139.87 8462.67 139.87 M8462.67 88.018 Q8544.02 88.018 8586.79 152.508 Q8629.9 216.675 8629.9 339.174 Q8629.9 461.349 8586.79 525.84 Q8544.02 590.006 8462.67 590.006 Q8381.33 590.006 8338.23 525.84 Q8295.45 461.349 8295.45 339.174 Q8295.45 216.675 8338.23 152.508 Q8381.33 88.018 8462.67 88.018 Z" fill="#000000" fill-rule="evenodd" fill-opacity="1" /><path clip-path="url(#clip7000)" d="M 0 0 M8707.67 498.294 L8776.05 498.294 L8776.05 554.034 L8722.9 657.737 L8681.1 657.737 L8707.67 554.034 L8707.67 498.294 Z" fill="#000000" fill-rule="evenodd" fill-opacity="1" /><path clip-path="url(#clip7000)" d="M 0 0 M8858.37 525.516 L8965.31 525.516 L8965.31 156.397 L8848.97 179.731 L8848.97 120.101 L8964.66 96.768 L9030.13 96.768 L9030.13 525.516 L9137.07 525.516 L9137.07 580.608 L8858.37 580.608 L8858.37 525.516 Z" fill="#000000" fill-rule="evenodd" fill-opacity="1" /><path clip-path="url(#clip7000)" d="M 0 0 M9264.43 525.516 L9492.9 525.516 L9492.9 580.608 L9185.68 580.608 L9185.68 525.516 Q9222.95 486.951 9287.11 422.137 Q9351.6 356.998 9368.13 338.202 Q9399.57 302.878 9411.88 278.573 Q9424.52 253.943 9424.52 230.286 Q9424.52 191.721 9397.3 167.416 Q9370.4 143.11 9326.98 143.11 Q9296.19 143.11 9261.84 153.805 Q9227.81 164.499 9188.92 186.212 L9188.92 120.101 Q9228.46 104.222 9262.81 96.1199 Q9297.16 88.018 9325.68 88.018 Q9400.86 88.018 9445.59 125.61 Q9490.31 163.203 9490.31 226.073 Q9490.31 255.888 9478.97 282.786 Q9467.95 309.359 9438.46 345.656 Q9430.35 355.054 9386.93 400.1 Q9343.5 444.822 9264.43 525.516 Z" fill="#000000" fill-rule="evenodd" fill-opacity="1" /><path clip-path="url(#clip7000)" d="M 0 0 M9570.68 237.415 L9639.06 237.415 L9639.06 319.73 L9570.68 319.73 L9570.68 237.415 M9570.68 498.294 L9639.06 498.294 L9639.06 554.034 L9585.91 657.737 L9544.1 657.737 L9570.68 554.034 L9570.68 498.294 Z" fill="#000000" fill-rule="evenodd" fill-opacity="1" /><path clip-path="url(#clip7000)" d="M 0 0 M10111.6 141.166 Q10040.3 141.166 9998.13 194.314 Q9956.32 247.462 9956.32 339.174 Q9956.32 430.563 9998.13 483.71 Q10040.3 536.858 10111.6 536.858 Q10182.9 536.858 10224.3 483.71 Q10266.1 430.563 10266.1 339.174 Q10266.1 247.462 10224.3 194.314 Q10182.9 141.166 10111.6 141.166 M10203.3 571.858 L10289.5 666.163 L10210.4 666.163 L10138.8 588.71 Q10128.1 589.358 10122.2 589.682 Q10116.7 590.006 10111.6 590.006 Q10009.5 590.006 9948.22 521.951 Q9887.3 453.572 9887.3 339.174 Q9887.3 224.453 9948.22 156.397 Q10009.5 88.018 10111.6 88.018 Q10213.3 88.018 10274.2 156.397 Q10335.2 224.453 10335.2 339.174 Q10335.2 423.433 10301.1 483.386 Q10267.4 543.34 10203.3 571.858 Z" fill="#000000" fill-rule="evenodd" fill-opacity="1" /><path clip-path="url(#clip7000)" d="M 0 0 M10616.5 279.221 L11031.9 279.221 L11031.9 333.665 L10616.5 333.665 L10616.5 279.221 M10616.5 411.442 L11031.9 411.442 L11031.9 466.535 L10616.5 466.535 L10616.5 411.442 Z" fill="#000000" fill-rule="evenodd" fill-opacity="1" /><path clip-path="url(#clip7000)" d="M 0 0 M11325.2 525.516 L11432.1 525.516 L11432.1 156.397 L11315.8 179.731 L11315.8 120.101 L11431.5 96.768 L11497 96.768 L11497 525.516 L11603.9 525.516 L11603.9 580.608 L11325.2 580.608 L11325.2 525.516 Z" fill="#000000" fill-rule="evenodd" fill-opacity="1" /><path clip-path="url(#clip7000)" d="M 0 0 M11823 312.6 Q11778.9 312.6 11753 342.739 Q11727.4 372.878 11727.4 425.377 Q11727.4 477.553 11753 508.016 Q11778.9 538.155 11823 538.155 Q11867.1 538.155 11892.7 508.016 Q11918.6 477.553 11918.6 425.377 Q11918.6 372.878 11892.7 342.739 Q11867.1 312.6 11823 312.6 M11952.9 107.462 L11952.9 167.092 Q11928.3 155.425 11903 149.268 Q11878.1 143.11 11853.4 143.11 Q11788.6 143.11 11754.3 186.86 Q11720.2 230.61 11715.4 319.082 Q11734.5 290.887 11763.4 275.98 Q11792.2 260.749 11826.9 260.749 Q11899.8 260.749 11941.9 305.147 Q11984.4 349.22 11984.4 425.377 Q11984.4 499.914 11940.3 544.96 Q11896.2 590.006 11823 590.006 Q11739 590.006 11694.6 525.84 Q11650.2 461.349 11650.2 339.174 Q11650.2 224.453 11704.7 156.397 Q11759.1 88.018 11850.9 88.018 Q11875.5 88.018 11900.4 92.8791 Q11925.7 97.7402 11952.9 107.462 Z" fill="#000000" fill-rule="evenodd" fill-opacity="1" /><path clip-path="url(#clip7000)" d="M 0 0 M12062.1 237.415 L12130.5 237.415 L12130.5 319.73 L12062.1 319.73 L12062.1 237.415 M12062.1 498.294 L12130.5 498.294 L12130.5 554.034 L12077.4 657.737 L12035.6 657.737 L12062.1 554.034 L12062.1 498.294 Z" fill="#000000" fill-rule="evenodd" fill-opacity="1" /><path clip-path="url(#clip7000)" d="M 0 0 M12406.6 96.768 L12472.1 96.768 L12472.1 546.904 Q12472.1 634.404 12438.7 673.941 Q12405.7 713.478 12332.1 713.478 L12307.1 713.478 L12307.1 658.385 L12327.6 658.385 Q12371 658.385 12388.8 634.08 Q12406.6 609.775 12406.6 546.904 L12406.6 96.768 Z" fill="#000000" fill-rule="evenodd" fill-opacity="1" /><path clip-path="url(#clip7000)" d="M 0 0 M12810.4 690.793 L12810.4 737.135 L12465.6 737.135 L12465.6 690.793 L12810.4 690.793 Z" fill="#000000" fill-rule="evenodd" fill-opacity="1" /><path clip-path="url(#clip7000)" d="M 0 0 M12892.7 525.516 L12999.7 525.516 L12999.7 156.397 L12883.3 179.731 L12883.3 120.101 L12999 96.768 L13064.5 96.768 L13064.5 525.516 L13171.4 525.516 L13171.4 580.608 L12892.7 580.608 L12892.7 525.516 Z" fill="#000000" fill-rule="evenodd" fill-opacity="1" /><path clip-path="url(#clip7000)" d="M 0 0 M13452.7 279.221 L13868.2 279.221 L13868.2 333.665 L13452.7 333.665 L13452.7 279.221 M13452.7 411.442 L13868.2 411.442 L13868.2 466.535 L13452.7 466.535 L13452.7 411.442 Z" fill="#000000" fill-rule="evenodd" fill-opacity="1" /><path clip-path="url(#clip7000)" d="M 0 0 M14290.1 139.87 Q14239.6 139.87 14214 189.777 Q14188.7 239.36 14188.7 339.174 Q14188.7 438.664 14214 488.571 Q14239.6 538.155 14290.1 538.155 Q14341 538.155 14366.3 488.571 Q14391.9 438.664 14391.9 339.174 Q14391.9 239.36 14366.3 189.777 Q14341 139.87 14290.1 139.87 M14290.1 88.018 Q14371.5 88.018 14414.3 152.508 Q14457.4 216.675 14457.4 339.174 Q14457.4 461.349 14414.3 525.84 Q14371.5 590.006 14290.1 590.006 Q14208.8 590.006 14165.7 525.84 Q14122.9 461.349 14122.9 339.174 Q14122.9 216.675 14165.7 152.508 Q14208.8 88.018 14290.1 88.018 Z" fill="#000000" fill-rule="evenodd" fill-opacity="1" /><path clip-path="url(#clip7000)" d="M 0 0 M14528.3 498.294 L14596.7 498.294 L14596.7 580.608 L14528.3 580.608 L14528.3 498.294 Z" fill="#000000" fill-rule="evenodd" fill-opacity="1" /><path clip-path="url(#clip7000)" d="M 0 0 M14847.5 153.805 L14682.3 412.09 L14847.5 412.09 L14847.5 153.805 M14830.4 96.768 L14912.7 96.768 L14912.7 412.09 L14981.7 412.09 L14981.7 466.535 L14912.7 466.535 L14912.7 580.608 L14847.5 580.608 L14847.5 466.535 L14629.1 466.535 L14629.1 403.34 L14830.4 96.768 Z" fill="#000000" fill-rule="evenodd" fill-opacity="1" /><path clip-path="url(#clip7000)" d="M 0 0 M15053.3 96.768 L15310.3 96.768 L15310.3 151.86 L15113.3 151.86 L15113.3 270.471 Q15127.5 265.61 15141.8 263.341 Q15156.1 260.749 15170.3 260.749 Q15251.3 260.749 15298.7 305.147 Q15346 349.544 15346 425.377 Q15346 503.479 15297.4 546.904 Q15248.7 590.006 15160.3 590.006 Q15129.8 590.006 15098.1 584.821 Q15066.6 579.636 15032.9 569.265 L15032.9 503.479 Q15062.1 519.358 15093.2 527.136 Q15124.3 534.914 15159 534.914 Q15215 534.914 15247.8 505.423 Q15280.5 475.933 15280.5 425.377 Q15280.5 374.822 15247.8 345.331 Q15215 315.841 15159 315.841 Q15132.7 315.841 15106.5 321.674 Q15080.6 327.508 15053.3 339.822 L15053.3 96.768 Z" fill="#000000" fill-rule="evenodd" fill-opacity="1" /><path clip-path="url(#clip7000)" d="M 0 0 M10313.4 12068.2 L10635 12068.2 L10635 12111.5 L10500 12111.5 L10500 12448.4 L10448.3 12448.4 L10448.3 12111.5 L10313.4 12111.5 L10313.4 12068.2 Z" fill="#000000" fill-rule="evenodd" fill-opacity="1" /><path clip-path="url(#clip7000)" d="M 0 0 M522.483 7641.94 L661.765 7641.94 L661.765 7559.44 Q661.765 7517.93 644.705 7498.07 Q627.39 7477.96 591.997 7477.96 Q556.349 7477.96 539.543 7498.07 Q522.483 7517.93 522.483 7559.44 L522.483 7641.94 M366.142 7641.94 L480.724 7641.94 L480.724 7565.8 Q480.724 7528.12 466.72 7509.78 Q452.461 7491.2 423.433 7491.2 Q394.66 7491.2 380.401 7509.78 Q366.142 7528.12 366.142 7565.8 L366.142 7641.94 M323.873 7693.37 L323.873 7561.98 Q323.873 7503.16 348.318 7471.33 Q372.762 7439.51 417.831 7439.51 Q452.715 7439.51 473.34 7455.8 Q493.965 7472.1 499.058 7503.67 Q507.206 7465.73 533.178 7444.85 Q558.895 7423.72 597.599 7423.72 Q648.524 7423.72 676.279 7458.35 Q704.033 7492.98 704.033 7556.89 L704.033 7693.37 L323.873 7693.37 Z" fill="#000000" fill-rule="evenodd" fill-opacity="1" /><path clip-path="url(#clip7000)" d="M 0 0 M418.85 7374.58 L418.85 7327.72 L704.033 7327.72 L704.033 7374.58 L418.85 7374.58 M307.832 7374.58 L307.832 7327.72 L367.16 7327.72 L367.16 7374.58 L307.832 7374.58 Z" fill="#000000" fill-rule="evenodd" fill-opacity="1" /><path clip-path="url(#clip7000)" d="M 0 0 M531.905 7041.52 L704.033 7041.52 L704.033 7088.37 L533.432 7088.37 Q492.946 7088.37 472.831 7104.16 Q452.715 7119.95 452.715 7151.52 Q452.715 7189.46 476.905 7211.36 Q501.095 7233.26 542.854 7233.26 L704.033 7233.26 L704.033 7280.36 L418.85 7280.36 L418.85 7233.26 L463.155 7233.26 Q437.437 7216.45 424.706 7193.79 Q411.975 7170.87 411.975 7141.08 Q411.975 7091.94 442.53 7066.73 Q472.831 7041.52 531.905 7041.52 Z" fill="#000000" fill-rule="evenodd" fill-opacity="1" /><path clip-path="url(#clip7000)" d="M 0 0 M462.136 6804.72 L307.832 6804.72 L307.832 6757.87 L704.033 6757.87 L704.033 6804.72 L661.256 6804.72 Q686.719 6819.49 699.195 6842.15 Q711.417 6864.56 711.417 6896.13 Q711.417 6947.82 670.168 6980.41 Q628.918 7012.75 561.696 7012.75 Q494.474 7012.75 453.224 6980.41 Q411.975 6947.82 411.975 6896.13 Q411.975 6864.56 424.451 6842.15 Q436.674 6819.49 462.136 6804.72 M561.696 6964.37 Q613.386 6964.37 642.922 6943.24 Q672.205 6921.85 672.205 6884.67 Q672.205 6847.5 642.922 6826.11 Q613.386 6804.72 561.696 6804.72 Q510.007 6804.72 480.724 6826.11 Q451.187 6847.5 451.187 6884.67 Q451.187 6921.85 480.724 6943.24 Q510.007 6964.37 561.696 6964.37 Z" fill="#000000" fill-rule="evenodd" fill-opacity="1" /><path clip-path="url(#clip7000)" d="M 0 0 M549.729 6464.79 L572.645 6464.79 L572.645 6680.2 Q621.024 6677.15 646.487 6651.18 Q671.695 6624.95 671.695 6578.35 Q671.695 6551.36 665.075 6526.15 Q658.455 6500.69 645.214 6475.74 L689.519 6475.74 Q700.214 6500.95 705.816 6527.43 Q711.417 6553.91 711.417 6581.15 Q711.417 6649.39 671.695 6689.37 Q631.973 6729.09 564.242 6729.09 Q494.22 6729.09 453.224 6691.41 Q411.975 6653.47 411.975 6589.3 Q411.975 6531.76 449.15 6498.4 Q486.071 6464.79 549.729 6464.79 M535.979 6511.64 Q497.53 6512.15 474.613 6533.28 Q451.697 6554.16 451.697 6588.79 Q451.697 6628.01 473.849 6651.69 Q496.002 6675.11 536.233 6678.68 L535.979 6511.64 Z" fill="#000000" fill-rule="evenodd" fill-opacity="1" /><path clip-path="url(#clip7000)" d="M 0 0 M462.646 6250.39 Q458.062 6258.29 456.025 6267.71 Q453.734 6276.87 453.734 6288.08 Q453.734 6327.8 479.706 6349.19 Q505.423 6370.32 553.803 6370.32 L704.033 6370.32 L704.033 6417.43 L418.85 6417.43 L418.85 6370.32 L463.155 6370.32 Q437.183 6355.55 424.706 6331.87 Q411.975 6308.19 411.975 6274.33 Q411.975 6269.49 412.739 6263.63 Q413.248 6257.78 414.521 6250.65 L462.646 6250.39 Z" fill="#000000" fill-rule="evenodd" fill-opacity="1" /><path clip-path="url(#clip7000)" d="M 0 0 M323.873 6156.94 L465.192 6156.94 L465.192 6200.23 L323.873 6200.23 L323.873 6156.94 Z" fill="#000000" fill-rule="evenodd" fill-opacity="1" /><path clip-path="url(#clip7000)" d="M 0 0 M427.252 5926 L471.558 5926 Q461.373 5945.86 456.28 5967.25 Q451.187 5988.63 451.187 6011.55 Q451.187 6046.44 461.882 6064 Q472.576 6081.32 493.965 6081.32 Q510.261 6081.32 519.682 6068.84 Q528.849 6056.37 537.252 6018.68 L540.817 6002.64 Q551.511 5952.73 571.117 5931.85 Q590.469 5910.72 625.353 5910.72 Q665.075 5910.72 688.246 5942.29 Q711.417 5973.61 711.417 6028.61 Q711.417 6051.53 706.834 6076.48 Q702.505 6101.18 693.594 6128.68 L645.214 6128.68 Q658.709 6102.71 665.584 6077.5 Q672.205 6052.29 672.205 6027.59 Q672.205 5994.49 661.001 5976.67 Q649.543 5958.84 628.918 5958.84 Q609.821 5958.84 599.636 5971.83 Q589.451 5984.56 580.029 6028.1 L576.21 6044.4 Q567.043 6087.94 548.201 6107.29 Q529.104 6126.64 496.002 6126.64 Q455.771 6126.64 433.873 6098.12 Q411.975 6069.61 411.975 6017.15 Q411.975 5991.18 415.794 5968.26 Q419.613 5945.35 427.252 5926 Z" fill="#000000" fill-rule="evenodd" fill-opacity="1" /><path clip-path="url(#clip7000)" d="M 0 0 M462.646 5530.56 Q458.062 5538.45 456.025 5547.87 Q453.734 5557.04 453.734 5568.24 Q453.734 5607.97 479.706 5629.35 Q505.423 5650.49 553.803 5650.49 L704.033 5650.49 L704.033 5697.59 L418.85 5697.59 L418.85 5650.49 L463.155 5650.49 Q437.183 5635.72 424.706 5612.04 Q411.975 5588.36 411.975 5554.49 Q411.975 5549.66 412.739 5543.8 Q413.248 5537.94 414.521 5530.81 L462.646 5530.56 Z" fill="#000000" fill-rule="evenodd" fill-opacity="1" /><path clip-path="url(#clip7000)" d="M 0 0 M560.678 5351.81 Q560.678 5408.59 573.664 5430.49 Q586.65 5452.39 617.969 5452.39 Q642.922 5452.39 657.691 5436.09 Q672.205 5419.54 672.205 5391.28 Q672.205 5352.32 644.705 5328.89 Q616.95 5305.21 571.117 5305.21 L560.678 5305.21 L560.678 5351.81 M541.326 5258.36 L704.033 5258.36 L704.033 5305.21 L660.746 5305.21 Q686.719 5321.25 699.195 5345.19 Q711.417 5369.12 711.417 5403.75 Q711.417 5447.55 686.973 5473.52 Q662.274 5499.24 621.024 5499.24 Q572.9 5499.24 548.455 5467.16 Q524.011 5434.82 524.011 5370.91 L524.011 5305.21 L519.428 5305.21 Q487.09 5305.21 469.521 5326.6 Q451.697 5347.74 451.697 5386.18 Q451.697 5410.63 457.553 5433.8 Q463.41 5456.97 475.122 5478.36 L431.836 5478.36 Q421.905 5452.64 417.067 5428.45 Q411.975 5404.26 411.975 5381.35 Q411.975 5319.47 444.058 5288.92 Q476.141 5258.36 541.326 5258.36 Z" fill="#000000" fill-rule="evenodd" fill-opacity="1" /><path clip-path="url(#clip7000)" d="M 0 0 M337.878 5162.87 L418.85 5162.87 L418.85 5066.37 L455.261 5066.37 L455.261 5162.87 L610.075 5162.87 Q644.96 5162.87 654.89 5153.45 Q664.821 5143.78 664.821 5114.5 L664.821 5066.37 L704.033 5066.37 L704.033 5114.5 Q704.033 5168.73 683.918 5189.36 Q663.547 5209.98 610.075 5209.98 L455.261 5209.98 L455.261 5244.36 L418.85 5244.36 L418.85 5209.98 L337.878 5209.98 L337.878 5162.87 Z" fill="#000000" fill-rule="evenodd" fill-opacity="1" /><path clip-path="url(#clip7000)" d="M 0 0 M418.85 5017.23 L418.85 4970.38 L704.033 4970.38 L704.033 5017.23 L418.85 5017.23 M307.832 5017.23 L307.832 4970.38 L367.16 4970.38 L367.16 5017.23 L307.832 5017.23 Z" fill="#000000" fill-rule="evenodd" fill-opacity="1" /><path clip-path="url(#clip7000)" d="M 0 0 M451.697 4810.72 Q451.697 4848.41 481.234 4870.31 Q510.516 4892.21 561.696 4892.21 Q612.876 4892.21 642.413 4870.56 Q671.695 4848.66 671.695 4810.72 Q671.695 4773.29 642.159 4751.4 Q612.622 4729.5 561.696 4729.5 Q511.025 4729.5 481.488 4751.4 Q451.697 4773.29 451.697 4810.72 M411.975 4810.72 Q411.975 4749.61 451.697 4714.73 Q491.419 4679.85 561.696 4679.85 Q631.719 4679.85 671.695 4714.73 Q711.417 4749.61 711.417 4810.72 Q711.417 4872.09 671.695 4906.97 Q631.719 4941.6 561.696 4941.6 Q491.419 4941.6 451.697 4906.97 Q411.975 4872.09 411.975 4810.72 Z" fill="#000000" fill-rule="evenodd" fill-opacity="1" /><polyline clip-path="url(#clip7002)" style="stroke:#009af9; stroke-width:32; stroke-opacity:1; fill:none" points="
  2598.86,1282.05 2920.3,1688.35 3241.74,1987.87 3563.18,1995.68 3884.62,1753.1 4206.07,1864.13 4527.51,1342.9 4848.95,2674.27 5170.39,2250.99 5491.84,2144.59 
  5813.28,2239.95 6134.72,2452.41 6456.16,2053.37 6777.61,2563.75 7099.05,2924.73 7420.49,2809.82 7741.93,2489.82 8063.37,3316.3 8384.82,2596.9 8706.26,2683.74 
  9027.7,3063.27 9349.14,2671.56 9670.59,2809.93 9992.03,2621.97 10313.5,3385.11 10634.9,3052.69 10956.4,3323.1 11277.8,3097.86 11599.2,3209.59 11920.7,2972.13 
  12242.1,3562.69 12563.6,3357.51 12885,3807.13 13206.5,3699.1 13527.9,3346.82 13849.3,4246.11 14170.8,3432.07 14492.2,3873.11 14813.7,4752.73 15135.1,3753.76 
  15456.5,3910.21 15778,4210.22 16099.4,4195.56 16420.9,4926.92 16742.3,4453.57 17063.8,4652.36 17385.2,4319.24 17706.6,4951.63 18028.1,4999.57 18349.5,4971.73 
  
  "/>
<polyline clip-path="url(#clip7002)" style="stroke:#e26f46; stroke-width:32; stroke-opacity:1; fill:none" points="
  2598.86,1750.62 2920.3,1953.2 3241.74,2133.41 3563.18,1797.08 3884.62,1921.83 4206.07,2389.59 4527.51,2030.94 4848.95,2352.64 5170.39,2057.19 5491.84,2742.83 
  5813.28,2314.69 6134.72,3149.09 6456.16,3491.72 6777.61,2927.98 7099.05,2720.84 7420.49,3369.74 7741.93,3039.42 8063.37,2843.68 8384.82,3552.12 8706.26,3950.43 
  9027.7,3292.13 9349.14,3068.44 9670.59,5328.14 9992.03,4455.99 10313.5,4086.21 10634.9,3618.82 10956.4,4684.12 11277.8,5078.6 11599.2,4732.08 11920.7,4517.73 
  12242.1,4189.43 12563.6,4508.88 12885,4457.74 13206.5,4775.47 13527.9,5141.7 13849.3,6095.73 14170.8,4854.44 14492.2,5904.43 14813.7,7078.89 15135.1,6726.94 
  15456.5,5102.36 15778,6533.3 16099.4,6338.21 16420.9,6503.28 16742.3,7691.88 17063.8,6469.95 17385.2,6979.41 17706.6,6960.96 18028.1,7961.62 18349.5,7831.24 
  
  "/>
<polyline clip-path="url(#clip7002)" style="stroke:#3da44d; stroke-width:32; stroke-opacity:1; fill:none" points="
  2598.86,2327.47 2920.3,1351.77 3241.74,1397.15 3563.18,1976.7 3884.62,1638.35 4206.07,1996.96 4527.51,2343.38 4848.95,1781.32 5170.39,1867.58 5491.84,2485.42 
  5813.28,2512.93 6134.72,2244.61 6456.16,2635.06 6777.61,2543.48 7099.05,2557.49 7420.49,2778.53 7741.93,3032.58 8063.37,2730.03 8384.82,3447.87 8706.26,3307.15 
  9027.7,4026.93 9349.14,3663.93 9670.59,3712.65 9992.03,3816.37 10313.5,4563.09 10634.9,5099.4 10956.4,5478.59 11277.8,5083.65 11599.2,5158.11 11920.7,5349.13 
  12242.1,5286.25 12563.6,5912.02 12885,5514.78 13206.5,7077.93 13527.9,7247.16 13849.3,5962.62 14170.8,7833.06 14492.2,7962.12 14813.7,6859.36 15135.1,8390.83 
  15456.5,10342.3 15778,8316.34 16099.4,9615.08 16420.9,8427.63 16742.3,8558.75 17063.8,9994.06 17385.2,10762.5 17706.6,8370.13 18028.1,11091.2 18349.5,10991 
  
  "/>
<path clip-path="url(#clip7000)" d="
M2702.34 10233.4 L5735.48 10233.4 L5735.48 8298.08 L2702.34 8298.08  Z
  " fill="#ffffff" fill-rule="evenodd" fill-opacity="1"/>
<polyline clip-path="url(#clip7000)" style="stroke:#000000; stroke-width:32; stroke-opacity:1; fill:none" points="
  2702.34,10233.4 5735.48,10233.4 5735.48,8298.08 2702.34,8298.08 2702.34,10233.4 
  "/>
<polyline clip-path="url(#clip7000)" style="stroke:#009af9; stroke-width:32; stroke-opacity:1; fill:none" points="
  2894.34,8781.92 4046.34,8781.92 
  "/>
<path clip-path="url(#clip7000)" d="M 0 0 M4238.34 8643.68 L4275.74 8643.68 L4275.74 8888.68 L4410.37 8888.68 L4410.37 8920.16 L4238.34 8920.16 L4238.34 8643.68 Z" fill="#000000" fill-rule="evenodd" fill-opacity="1" /><path clip-path="url(#clip7000)" d="M 0 0 M4571.11 8747.94 L4808.52 8747.94 L4808.52 8779.05 L4571.11 8779.05 L4571.11 8747.94 M4571.11 8823.49 L4808.52 8823.49 L4808.52 8854.97 L4571.11 8854.97 L4571.11 8823.49 Z" fill="#000000" fill-rule="evenodd" fill-opacity="1" /><path clip-path="url(#clip7000)" d="M 0 0 M5054.26 8767.01 Q5029.07 8767.01 5014.26 8784.23 Q4999.63 8801.46 4999.63 8831.46 Q4999.63 8861.27 5014.26 8878.68 Q5029.07 8895.9 5054.26 8895.9 Q5079.44 8895.9 5094.07 8878.68 Q5108.89 8861.27 5108.89 8831.46 Q5108.89 8801.46 5094.07 8784.23 Q5079.44 8767.01 5054.26 8767.01 M5128.52 8649.79 L5128.52 8683.86 Q5114.44 8677.2 5100 8673.68 Q5085.74 8670.16 5071.66 8670.16 Q5034.63 8670.16 5015 8695.16 Q4995.55 8720.16 4992.78 8770.72 Q5003.7 8754.6 5020.18 8746.09 Q5036.66 8737.38 5056.48 8737.38 Q5098.15 8737.38 5122.22 8762.75 Q5146.48 8787.94 5146.48 8831.46 Q5146.48 8874.05 5121.29 8899.79 Q5096.11 8925.53 5054.26 8925.53 Q5006.29 8925.53 4980.92 8888.86 Q4955.55 8852.01 4955.55 8782.2 Q4955.55 8716.64 4986.66 8677.75 Q5017.78 8638.68 5070.18 8638.68 Q5084.26 8638.68 5098.52 8641.46 Q5112.96 8644.23 5128.52 8649.79 Z" fill="#000000" fill-rule="evenodd" fill-opacity="1" /><polyline clip-path="url(#clip7000)" style="stroke:#e26f46; stroke-width:32; stroke-opacity:1; fill:none" points="
  2894.34,9265.76 4046.34,9265.76 
  "/>
<path clip-path="url(#clip7000)" d="M 0 0 M4238.34 9127.52 L4275.74 9127.52 L4275.74 9372.52 L4410.37 9372.52 L4410.37 9404 L4238.34 9404 L4238.34 9127.52 Z" fill="#000000" fill-rule="evenodd" fill-opacity="1" /><path clip-path="url(#clip7000)" d="M 0 0 M4571.11 9231.78 L4808.52 9231.78 L4808.52 9262.89 L4571.11 9262.89 L4571.11 9231.78 M4571.11 9307.33 L4808.52 9307.33 L4808.52 9338.81 L4571.11 9338.81 L4571.11 9307.33 Z" fill="#000000" fill-rule="evenodd" fill-opacity="1" /><path clip-path="url(#clip7000)" d="M 0 0 M5049.63 9272.7 Q5022.96 9272.7 5007.59 9286.96 Q4992.41 9301.22 4992.41 9326.22 Q4992.41 9351.22 5007.59 9365.48 Q5022.96 9379.74 5049.63 9379.74 Q5076.29 9379.74 5091.66 9365.48 Q5107.03 9351.04 5107.03 9326.22 Q5107.03 9301.22 5091.66 9286.96 Q5076.48 9272.7 5049.63 9272.7 M5012.22 9256.78 Q4988.15 9250.85 4974.63 9234.37 Q4961.29 9217.89 4961.29 9194.19 Q4961.29 9161.04 4984.81 9141.78 Q5008.52 9122.52 5049.63 9122.52 Q5090.92 9122.52 5114.44 9141.78 Q5137.96 9161.04 5137.96 9194.19 Q5137.96 9217.89 5124.44 9234.37 Q5111.11 9250.85 5087.22 9256.78 Q5114.26 9263.07 5129.26 9281.41 Q5144.44 9299.74 5144.44 9326.22 Q5144.44 9366.41 5119.81 9387.89 Q5095.37 9409.37 5049.63 9409.37 Q5003.89 9409.37 4979.26 9387.89 Q4954.81 9366.41 4954.81 9326.22 Q4954.81 9299.74 4970 9281.41 Q4985.18 9263.07 5012.22 9256.78 M4998.52 9197.7 Q4998.52 9219.18 5011.85 9231.22 Q5025.37 9243.26 5049.63 9243.26 Q5073.7 9243.26 5087.22 9231.22 Q5100.92 9219.18 5100.92 9197.7 Q5100.92 9176.22 5087.22 9164.19 Q5073.7 9152.15 5049.63 9152.15 Q5025.37 9152.15 5011.85 9164.19 Q4998.52 9176.22 4998.52 9197.7 Z" fill="#000000" fill-rule="evenodd" fill-opacity="1" /><polyline clip-path="url(#clip7000)" style="stroke:#3da44d; stroke-width:32; stroke-opacity:1; fill:none" points="
  2894.34,9749.6 4046.34,9749.6 
  "/>
<path clip-path="url(#clip7000)" d="M 0 0 M4238.34 9611.36 L4275.74 9611.36 L4275.74 9856.36 L4410.37 9856.36 L4410.37 9887.84 L4238.34 9887.84 L4238.34 9611.36 Z" fill="#000000" fill-rule="evenodd" fill-opacity="1" /><path clip-path="url(#clip7000)" d="M 0 0 M4571.11 9715.62 L4808.52 9715.62 L4808.52 9746.73 L4571.11 9746.73 L4571.11 9715.62 M4571.11 9791.17 L4808.52 9791.17 L4808.52 9822.65 L4571.11 9822.65 L4571.11 9791.17 Z" fill="#000000" fill-rule="evenodd" fill-opacity="1" /><path clip-path="url(#clip7000)" d="M 0 0 M4976.11 9856.36 L5037.22 9856.36 L5037.22 9645.43 L4970.74 9658.77 L4970.74 9624.69 L5036.85 9611.36 L5074.26 9611.36 L5074.26 9856.36 L5135.37 9856.36 L5135.37 9887.84 L4976.11 9887.84 L4976.11 9856.36 Z" fill="#000000" fill-rule="evenodd" fill-opacity="1" /><path clip-path="url(#clip7000)" d="M 0 0 M5255.92 9635.99 Q5227.03 9635.99 5212.4 9664.51 Q5197.96 9692.84 5197.96 9749.88 Q5197.96 9806.73 5212.4 9835.25 Q5227.03 9863.58 5255.92 9863.58 Q5285 9863.58 5299.44 9835.25 Q5314.07 9806.73 5314.07 9749.88 Q5314.07 9692.84 5299.44 9664.51 Q5285 9635.99 5255.92 9635.99 M5255.92 9606.36 Q5302.4 9606.36 5326.85 9643.21 Q5351.48 9679.88 5351.48 9749.88 Q5351.48 9819.69 5326.85 9856.54 Q5302.4 9893.21 5255.92 9893.21 Q5209.44 9893.21 5184.81 9856.54 Q5160.37 9819.69 5160.37 9749.88 Q5160.37 9679.88 5184.81 9643.21 Q5209.44 9606.36 5255.92 9606.36 Z" fill="#000000" fill-rule="evenodd" fill-opacity="1" /></svg>
