<?xml version="1.0" encoding="utf-8"?>
<svg xmlns="http://www.w3.org/2000/svg" xmlns:xlink="http://www.w3.org/1999/xlink" width="4800" height="3200" viewBox="0 0 19200 12800">
<defs>
  <clipPath id="clip6900">
    <rect x="0" y="0" width="19200" height="12800"/>
  </clipPath>
</defs>
<path clip-path="url(#clip6900)" d="
M0 12800 L19200 12800 L19200 0 L0 0  Z
  " fill="#ffffff" fill-rule="evenodd" fill-opacity="1"/>
<defs>
  <clipPath id="clip6901">
    <rect x="3840" y="0" width="13441" height="12800"/>
  </clipPath>
</defs>
<path clip-path="url(#clip6900)" d="
M2123.74 11385.4 L18822 11385.4 L18822 987.777 L2123.74 987.777  Z
  " fill="#ffffff" fill-rule="evenodd" fill-opacity="1"/>
<defs>
  <clipPath id="clip6902">
    <rect x="2123" y="987" width="16699" height="10399"/>
  </clipPath>
</defs>
<polyline clip-path="url(#clip6902)" style="stroke:#000000; stroke-width:16; stroke-opacity:0.1; fill:none" points="
  2596.34,11385.4 2596.34,987.777 
  "/>
<polyline clip-path="url(#clip6902)" style="stroke:#000000; stroke-width:16; stroke-opacity:0.1; fill:none" points="
  7097.23,11385.4 7097.23,987.777 
  "/>
<polyline clip-path="url(#clip6902)" style="stroke:#000000; stroke-width:16; stroke-opacity:0.1; fill:none" points="
  11598.1,11385.4 11598.1,987.777 
  "/>
<polyline clip-path="url(#clip6902)" style="stroke:#000000; stroke-width:16; stroke-opacity:0.1; fill:none" points="
  16099,11385.4 16099,987.777 
  "/>
<polyline clip-path="url(#clip6902)" style="stroke:#000000; stroke-width:16; stroke-opacity:0.1; fill:none" points="
  2123.74,10474.5 18822,10474.5 
  "/>
<polyline clip-path="url(#clip6902)" style="stroke:#000000; stroke-width:16; stroke-opacity:0.1; fill:none" points="
  2123.74,8287.45 18822,8287.45 
  "/>
<polyline clip-path="url(#clip6902)" style="stroke:#000000; stroke-width:16; stroke-opacity:0.1; fill:none" points="
  2123.74,6100.42 18822,6100.42 
  "/>
<polyline clip-path="url(#clip6902)" style="stroke:#000000; stroke-width:16; stroke-opacity:0.1; fill:none" points="
  2123.74,3913.39 18822,3913.39 
  "/>
<polyline clip-path="url(#clip6902)" style="stroke:#000000; stroke-width:16; stroke-opacity:0.1; fill:none" points="
  2123.74,1726.36 18822,1726.36 
  "/>
<polyline clip-path="url(#clip6900)" style="stroke:#000000; stroke-width:32; stroke-opacity:1; fill:none" points="
  2123.74,11385.4 18822,11385.4 
  "/>
<polyline clip-path="url(#clip6900)" style="stroke:#000000; stroke-width:32; stroke-opacity:1; fill:none" points="
  2123.74,11385.4 2123.74,987.777 
  "/>
<polyline clip-path="url(#clip6900)" style="stroke:#000000; stroke-width:32; stroke-opacity:1; fill:none" points="
  2596.34,11385.4 2596.34,11260.7 
  "/>
<polyline clip-path="url(#clip6900)" style="stroke:#000000; stroke-width:32; stroke-opacity:1; fill:none" points="
  7097.23,11385.4 7097.23,11260.7 
  "/>
<polyline clip-path="url(#clip6900)" style="stroke:#000000; stroke-width:32; stroke-opacity:1; fill:none" points="
  11598.1,11385.4 11598.1,11260.7 
  "/>
<polyline clip-path="url(#clip6900)" style="stroke:#000000; stroke-width:32; stroke-opacity:1; fill:none" points="
  16099,11385.4 16099,11260.7 
  "/>
<polyline clip-path="url(#clip6900)" style="stroke:#000000; stroke-width:32; stroke-opacity:1; fill:none" points="
  2123.74,10474.5 2324.12,10474.5 
  "/>
<polyline clip-path="url(#clip6900)" style="stroke:#000000; stroke-width:32; stroke-opacity:1; fill:none" points="
  2123.74,8287.45 2324.12,8287.45 
  "/>
<polyline clip-path="url(#clip6900)" style="stroke:#000000; stroke-width:32; stroke-opacity:1; fill:none" points="
  2123.74,6100.42 2324.12,6100.42 
  "/>
<polyline clip-path="url(#clip6900)" style="stroke:#000000; stroke-width:32; stroke-opacity:1; fill:none" points="
  2123.74,3913.39 2324.12,3913.39 
  "/>
<polyline clip-path="url(#clip6900)" style="stroke:#000000; stroke-width:32; stroke-opacity:1; fill:none" points="
  2123.74,1726.36 2324.12,1726.36 
  "/>
<path clip-path="url(#clip6900)" d="M 0 0 M2340.13 11561.4 Q2311.25 11561.4 2296.62 11589.9 Q2282.17 11618.2 2282.17 11675.3 Q2282.17 11732.1 2296.62 11760.6 Q2311.25 11789 2340.13 11789 Q2369.21 11789 2383.65 11760.6 Q2398.28 11732.1 2398.28 11675.3 Q2398.28 11618.2 2383.65 11589.9 Q2369.21 11561.4 2340.13 11561.4 M2340.13 11531.7 Q2386.62 11531.7 2411.06 11568.6 Q2435.69 11605.3 2435.69 11675.3 Q2435.69 11745.1 2411.06 11781.9 Q2386.62 11818.6 2340.13 11818.6 Q2293.65 11818.6 2269.02 11781.9 Q2244.58 11745.1 2244.58 11675.3 Q2244.58 11605.3 2269.02 11568.6 Q2293.65 11531.7 2340.13 11531.7 Z" fill="#000000" fill-rule="evenodd" fill-opacity="1" /><path clip-path="url(#clip6900)" d="M 0 0 M2476.24 11766.2 L2515.32 11766.2 L2515.32 11813.2 L2476.24 11813.2 L2476.24 11766.2 Z" fill="#000000" fill-rule="evenodd" fill-opacity="1" /><path clip-path="url(#clip6900)" d="M 0 0 M2640.5 11660.1 Q2615.32 11660.1 2600.5 11677.3 Q2585.87 11694.5 2585.87 11724.5 Q2585.87 11754.3 2600.5 11771.7 Q2615.32 11789 2640.5 11789 Q2665.69 11789 2680.32 11771.7 Q2695.13 11754.3 2695.13 11724.5 Q2695.13 11694.5 2680.32 11677.3 Q2665.69 11660.1 2640.5 11660.1 M2714.76 11542.8 L2714.76 11576.9 Q2700.69 11570.3 2686.24 11566.7 Q2671.98 11563.2 2657.91 11563.2 Q2620.87 11563.2 2601.24 11588.2 Q2581.8 11613.2 2579.02 11663.8 Q2589.95 11647.7 2606.43 11639.1 Q2622.91 11630.4 2642.73 11630.4 Q2684.39 11630.4 2708.47 11655.8 Q2732.72 11681 2732.72 11724.5 Q2732.72 11767.1 2707.54 11792.8 Q2682.35 11818.6 2640.5 11818.6 Q2592.54 11818.6 2567.17 11781.9 Q2541.8 11745.1 2541.8 11675.3 Q2541.8 11609.7 2572.91 11570.8 Q2604.02 11531.7 2656.43 11531.7 Q2670.5 11531.7 2684.76 11534.5 Q2699.21 11537.3 2714.76 11542.8 Z" fill="#000000" fill-rule="evenodd" fill-opacity="1" /><path clip-path="url(#clip6900)" d="M 0 0 M2853.28 11681.9 Q2826.61 11681.9 2811.24 11696.2 Q2796.06 11710.4 2796.06 11735.4 Q2796.06 11760.4 2811.24 11774.7 Q2826.61 11789 2853.28 11789 Q2879.95 11789 2895.32 11774.7 Q2910.69 11760.3 2910.69 11735.4 Q2910.69 11710.4 2895.32 11696.2 Q2880.13 11681.9 2853.28 11681.9 M2815.87 11666 Q2791.8 11660.1 2778.28 11643.6 Q2764.95 11627.1 2764.95 11603.4 Q2764.95 11570.3 2788.47 11551 Q2812.17 11531.7 2853.28 11531.7 Q2894.58 11531.7 2918.09 11551 Q2941.61 11570.3 2941.61 11603.4 Q2941.61 11627.1 2928.09 11643.6 Q2914.76 11660.1 2890.87 11666 Q2917.91 11672.3 2932.91 11690.6 Q2948.09 11709 2948.09 11735.4 Q2948.09 11775.6 2923.46 11797.1 Q2899.02 11818.6 2853.28 11818.6 Q2807.54 11818.6 2782.91 11797.1 Q2758.47 11775.6 2758.47 11735.4 Q2758.47 11709 2773.65 11690.6 Q2788.84 11672.3 2815.87 11666 M2802.17 11606.9 Q2802.17 11628.4 2815.5 11640.4 Q2829.02 11652.5 2853.28 11652.5 Q2877.35 11652.5 2890.87 11640.4 Q2904.58 11628.4 2904.58 11606.9 Q2904.58 11585.4 2890.87 11573.4 Q2877.35 11561.4 2853.28 11561.4 Q2829.02 11561.4 2815.5 11573.4 Q2802.17 11585.4 2802.17 11606.9 Z" fill="#000000" fill-rule="evenodd" fill-opacity="1" /><path clip-path="url(#clip6900)" d="M 0 0 M6844.91 11561.4 Q6816.02 11561.4 6801.4 11589.9 Q6786.95 11618.2 6786.95 11675.3 Q6786.95 11732.1 6801.4 11760.6 Q6816.02 11789 6844.91 11789 Q6873.99 11789 6888.43 11760.6 Q6903.06 11732.1 6903.06 11675.3 Q6903.06 11618.2 6888.43 11589.9 Q6873.99 11561.4 6844.91 11561.4 M6844.91 11531.7 Q6891.39 11531.7 6915.84 11568.6 Q6940.47 11605.3 6940.47 11675.3 Q6940.47 11745.1 6915.84 11781.9 Q6891.39 11818.6 6844.91 11818.6 Q6798.43 11818.6 6773.8 11781.9 Q6749.36 11745.1 6749.36 11675.3 Q6749.36 11605.3 6773.8 11568.6 Q6798.43 11531.7 6844.91 11531.7 Z" fill="#000000" fill-rule="evenodd" fill-opacity="1" /><path clip-path="url(#clip6900)" d="M 0 0 M6981.02 11766.2 L7020.1 11766.2 L7020.1 11813.2 L6981.02 11813.2 L6981.02 11766.2 Z" fill="#000000" fill-rule="evenodd" fill-opacity="1" /><path clip-path="url(#clip6900)" d="M 0 0 M7051.21 11536.7 L7228.99 11536.7 L7228.99 11552.7 L7128.62 11813.2 L7089.54 11813.2 L7183.99 11568.2 L7051.21 11568.2 L7051.21 11536.7 Z" fill="#000000" fill-rule="evenodd" fill-opacity="1" /><path clip-path="url(#clip6900)" d="M 0 0 M7349.54 11561.4 Q7320.65 11561.4 7306.02 11589.9 Q7291.58 11618.2 7291.58 11675.3 Q7291.58 11732.1 7306.02 11760.6 Q7320.65 11789 7349.54 11789 Q7378.61 11789 7393.06 11760.6 Q7407.69 11732.1 7407.69 11675.3 Q7407.69 11618.2 7393.06 11589.9 Q7378.61 11561.4 7349.54 11561.4 M7349.54 11531.7 Q7396.02 11531.7 7420.47 11568.6 Q7445.1 11605.3 7445.1 11675.3 Q7445.1 11745.1 7420.47 11781.9 Q7396.02 11818.6 7349.54 11818.6 Q7303.06 11818.6 7278.43 11781.9 Q7253.99 11745.1 7253.99 11675.3 Q7253.99 11605.3 7278.43 11568.6 Q7303.06 11531.7 7349.54 11531.7 Z" fill="#000000" fill-rule="evenodd" fill-opacity="1" /><path clip-path="url(#clip6900)" d="M 0 0 M11352.2 11561.4 Q11323.3 11561.4 11308.7 11589.9 Q11294.2 11618.2 11294.2 11675.3 Q11294.2 11732.1 11308.7 11760.6 Q11323.3 11789 11352.2 11789 Q11381.3 11789 11395.7 11760.6 Q11410.3 11732.1 11410.3 11675.3 Q11410.3 11618.2 11395.7 11589.9 Q11381.3 11561.4 11352.2 11561.4 M11352.2 11531.7 Q11398.7 11531.7 11423.1 11568.6 Q11447.7 11605.3 11447.7 11675.3 Q11447.7 11745.1 11423.1 11781.9 Q11398.7 11818.6 11352.2 11818.6 Q11305.7 11818.6 11281.1 11781.9 Q11256.6 11745.1 11256.6 11675.3 Q11256.6 11605.3 11281.1 11568.6 Q11305.7 11531.7 11352.2 11531.7 Z" fill="#000000" fill-rule="evenodd" fill-opacity="1" /><path clip-path="url(#clip6900)" d="M 0 0 M11488.3 11766.2 L11527.4 11766.2 L11527.4 11813.2 L11488.3 11813.2 L11488.3 11766.2 Z" fill="#000000" fill-rule="evenodd" fill-opacity="1" /><path clip-path="url(#clip6900)" d="M 0 0 M11558.5 11536.7 L11736.3 11536.7 L11736.3 11552.7 L11635.9 11813.2 L11596.8 11813.2 L11691.3 11568.2 L11558.5 11568.2 L11558.5 11536.7 Z" fill="#000000" fill-rule="evenodd" fill-opacity="1" /><path clip-path="url(#clip6900)" d="M 0 0 M11809 11781.7 L11939.6 11781.7 L11939.6 11813.2 L11764 11813.2 L11764 11781.7 Q11785.3 11759.7 11822 11722.7 Q11858.9 11685.4 11868.3 11674.7 Q11886.3 11654.5 11893.3 11640.6 Q11900.5 11626.5 11900.5 11613 Q11900.5 11591 11885 11577.1 Q11869.6 11563.2 11844.8 11563.2 Q11827.2 11563.2 11807.6 11569.3 Q11788.1 11575.4 11765.9 11587.8 L11765.9 11550.1 Q11788.5 11541 11808.1 11536.4 Q11827.7 11531.7 11844 11531.7 Q11887 11531.7 11912.6 11553.2 Q11938.1 11574.7 11938.1 11610.6 Q11938.1 11627.7 11931.6 11643 Q11925.3 11658.2 11908.5 11679 Q11903.9 11684.3 11879 11710.1 Q11854.2 11735.6 11809 11781.7 Z" fill="#000000" fill-rule="evenodd" fill-opacity="1" /><path clip-path="url(#clip6900)" d="M 0 0 M15844.8 11561.4 Q15815.9 11561.4 15801.2 11589.9 Q15786.8 11618.2 15786.8 11675.3 Q15786.8 11732.1 15801.2 11760.6 Q15815.9 11789 15844.8 11789 Q15873.8 11789 15888.3 11760.6 Q15902.9 11732.1 15902.9 11675.3 Q15902.9 11618.2 15888.3 11589.9 Q15873.8 11561.4 15844.8 11561.4 M15844.8 11531.7 Q15891.2 11531.7 15915.7 11568.6 Q15940.3 11605.3 15940.3 11675.3 Q15940.3 11745.1 15915.7 11781.9 Q15891.2 11818.6 15844.8 11818.6 Q15798.3 11818.6 15773.6 11781.9 Q15749.2 11745.1 15749.2 11675.3 Q15749.2 11605.3 15773.6 11568.6 Q15798.3 11531.7 15844.8 11531.7 Z" fill="#000000" fill-rule="evenodd" fill-opacity="1" /><path clip-path="url(#clip6900)" d="M 0 0 M15980.9 11766.2 L16019.9 11766.2 L16019.9 11813.2 L15980.9 11813.2 L15980.9 11766.2 Z" fill="#000000" fill-rule="evenodd" fill-opacity="1" /><path clip-path="url(#clip6900)" d="M 0 0 M16051 11536.7 L16228.8 11536.7 L16228.8 11552.7 L16128.5 11813.2 L16089.4 11813.2 L16183.8 11568.2 L16051 11568.2 L16051 11536.7 Z" fill="#000000" fill-rule="evenodd" fill-opacity="1" /><path clip-path="url(#clip6900)" d="M 0 0 M16372.2 11569.3 L16277.7 11716.9 L16372.2 11716.9 L16372.2 11569.3 M16362.3 11536.7 L16409.4 11536.7 L16409.4 11716.9 L16448.8 11716.9 L16448.8 11748 L16409.4 11748 L16409.4 11813.2 L16372.2 11813.2 L16372.2 11748 L16247.3 11748 L16247.3 11711.9 L16362.3 11536.7 Z" fill="#000000" fill-rule="evenodd" fill-opacity="1" /><path clip-path="url(#clip6900)" d="M 0 0 M1111.01 10360.9 Q1082.12 10360.9 1067.49 10389.4 Q1053.04 10417.7 1053.04 10474.8 Q1053.04 10531.6 1067.49 10560.1 Q1082.12 10588.5 1111.01 10588.5 Q1140.08 10588.5 1154.52 10560.1 Q1169.15 10531.6 1169.15 10474.8 Q1169.15 10417.7 1154.52 10389.4 Q1140.08 10360.9 1111.01 10360.9 M1111.01 10331.2 Q1157.49 10331.2 1181.93 10368.1 Q1206.56 10404.8 1206.56 10474.8 Q1206.56 10544.6 1181.93 10581.4 Q1157.49 10618.1 1111.01 10618.1 Q1064.53 10618.1 1039.9 10581.4 Q1015.45 10544.6 1015.45 10474.8 Q1015.45 10404.8 1039.9 10368.1 Q1064.53 10331.2 1111.01 10331.2 Z" fill="#000000" fill-rule="evenodd" fill-opacity="1" /><path clip-path="url(#clip6900)" d="M 0 0 M1247.12 10565.7 L1286.19 10565.7 L1286.19 10612.7 L1247.12 10612.7 L1247.12 10565.7 Z" fill="#000000" fill-rule="evenodd" fill-opacity="1" /><path clip-path="url(#clip6900)" d="M 0 0 M1411.38 10459.6 Q1386.19 10459.6 1371.38 10476.8 Q1356.75 10494 1356.75 10524 Q1356.75 10553.8 1371.38 10571.2 Q1386.19 10588.5 1411.38 10588.5 Q1436.56 10588.5 1451.19 10571.2 Q1466 10553.8 1466 10524 Q1466 10494 1451.19 10476.8 Q1436.56 10459.6 1411.38 10459.6 M1485.63 10342.4 L1485.63 10376.4 Q1471.56 10369.8 1457.12 10366.2 Q1442.86 10362.7 1428.78 10362.7 Q1391.75 10362.7 1372.12 10387.7 Q1352.67 10412.7 1349.89 10463.3 Q1360.82 10447.2 1377.3 10438.6 Q1393.78 10429.9 1413.6 10429.9 Q1455.26 10429.9 1479.34 10455.3 Q1503.6 10480.5 1503.6 10524 Q1503.6 10566.6 1478.41 10592.3 Q1453.23 10618.1 1411.38 10618.1 Q1363.41 10618.1 1338.04 10581.4 Q1312.67 10544.6 1312.67 10474.8 Q1312.67 10409.2 1343.78 10370.3 Q1374.89 10331.2 1427.3 10331.2 Q1441.38 10331.2 1455.63 10334 Q1470.08 10336.8 1485.63 10342.4 Z" fill="#000000" fill-rule="evenodd" fill-opacity="1" /><path clip-path="url(#clip6900)" d="M 0 0 M1646.93 10368.8 L1552.49 10516.4 L1646.93 10516.4 L1646.93 10368.8 M1637.11 10336.2 L1684.15 10336.2 L1684.15 10516.4 L1723.6 10516.4 L1723.6 10547.5 L1684.15 10547.5 L1684.15 10612.7 L1646.93 10612.7 L1646.93 10547.5 L1522.12 10547.5 L1522.12 10511.4 L1637.11 10336.2 Z" fill="#000000" fill-rule="evenodd" fill-opacity="1" /><path clip-path="url(#clip6900)" d="M 0 0 M1764.52 10336.2 L1911.37 10336.2 L1911.37 10367.7 L1798.78 10367.7 L1798.78 10435.5 Q1806.93 10432.7 1815.08 10431.4 Q1823.23 10429.9 1831.37 10429.9 Q1877.67 10429.9 1904.71 10455.3 Q1931.74 10480.7 1931.74 10524 Q1931.74 10568.6 1903.97 10593.5 Q1876.19 10618.1 1825.63 10618.1 Q1808.23 10618.1 1790.08 10615.1 Q1772.11 10612.2 1752.86 10606.2 L1752.86 10568.6 Q1769.52 10577.7 1787.3 10582.2 Q1805.08 10586.6 1824.89 10586.6 Q1856.93 10586.6 1875.63 10569.8 Q1894.34 10552.9 1894.34 10524 Q1894.34 10495.1 1875.63 10478.3 Q1856.93 10461.4 1824.89 10461.4 Q1809.89 10461.4 1794.89 10464.8 Q1780.08 10468.1 1764.52 10475.1 L1764.52 10336.2 Z" fill="#000000" fill-rule="evenodd" fill-opacity="1" /><path clip-path="url(#clip6900)" d="M 0 0 M1114.9 8173.84 Q1086.01 8173.84 1071.38 8202.36 Q1056.93 8230.69 1056.93 8287.73 Q1056.93 8344.58 1071.38 8373.1 Q1086.01 8401.43 1114.9 8401.43 Q1143.97 8401.43 1158.41 8373.1 Q1173.04 8344.58 1173.04 8287.73 Q1173.04 8230.69 1158.41 8202.36 Q1143.97 8173.84 1114.9 8173.84 M1114.9 8144.21 Q1161.38 8144.21 1185.82 8181.06 Q1210.45 8217.73 1210.45 8287.73 Q1210.45 8357.54 1185.82 8394.39 Q1161.38 8431.06 1114.9 8431.06 Q1068.41 8431.06 1043.78 8394.39 Q1019.34 8357.54 1019.34 8287.73 Q1019.34 8217.73 1043.78 8181.06 Q1068.41 8144.21 1114.9 8144.21 Z" fill="#000000" fill-rule="evenodd" fill-opacity="1" /><path clip-path="url(#clip6900)" d="M 0 0 M1251.01 8378.65 L1290.08 8378.65 L1290.08 8425.69 L1251.01 8425.69 L1251.01 8378.65 Z" fill="#000000" fill-rule="evenodd" fill-opacity="1" /><path clip-path="url(#clip6900)" d="M 0 0 M1415.26 8272.54 Q1390.08 8272.54 1375.26 8289.77 Q1360.63 8306.99 1360.63 8336.99 Q1360.63 8366.8 1375.26 8384.21 Q1390.08 8401.43 1415.26 8401.43 Q1440.45 8401.43 1455.08 8384.21 Q1469.89 8366.8 1469.89 8336.99 Q1469.89 8306.99 1455.08 8289.77 Q1440.45 8272.54 1415.26 8272.54 M1489.52 8155.32 L1489.52 8189.4 Q1475.45 8182.73 1461 8179.21 Q1446.75 8175.69 1432.67 8175.69 Q1395.63 8175.69 1376.01 8200.69 Q1356.56 8225.69 1353.78 8276.25 Q1364.71 8260.14 1381.19 8251.62 Q1397.67 8242.91 1417.49 8242.91 Q1459.15 8242.91 1483.23 8268.28 Q1507.49 8293.47 1507.49 8336.99 Q1507.49 8379.58 1482.3 8405.32 Q1457.12 8431.06 1415.26 8431.06 Q1367.3 8431.06 1341.93 8394.39 Q1316.56 8357.54 1316.56 8287.73 Q1316.56 8222.17 1347.67 8183.28 Q1378.78 8144.21 1431.19 8144.21 Q1445.26 8144.21 1459.52 8146.99 Q1473.97 8149.77 1489.52 8155.32 Z" fill="#000000" fill-rule="evenodd" fill-opacity="1" /><path clip-path="url(#clip6900)" d="M 0 0 M1548.41 8149.21 L1695.26 8149.21 L1695.26 8180.69 L1582.67 8180.69 L1582.67 8248.47 Q1590.82 8245.69 1598.97 8244.4 Q1607.12 8242.91 1615.26 8242.91 Q1661.56 8242.91 1688.6 8268.28 Q1715.63 8293.65 1715.63 8336.99 Q1715.63 8381.62 1687.86 8406.43 Q1660.08 8431.06 1609.52 8431.06 Q1592.12 8431.06 1573.97 8428.1 Q1556 8425.14 1536.75 8419.21 L1536.75 8381.62 Q1553.41 8390.69 1571.19 8395.14 Q1588.97 8399.58 1608.78 8399.58 Q1640.82 8399.58 1659.52 8382.73 Q1678.23 8365.88 1678.23 8336.99 Q1678.23 8308.1 1659.52 8291.25 Q1640.82 8274.4 1608.78 8274.4 Q1593.78 8274.4 1578.78 8277.73 Q1563.97 8281.06 1548.41 8288.1 L1548.41 8149.21 Z" fill="#000000" fill-rule="evenodd" fill-opacity="1" /><path clip-path="url(#clip6900)" d="M 0 0 M1836.19 8173.84 Q1807.3 8173.84 1792.67 8202.36 Q1778.23 8230.69 1778.23 8287.73 Q1778.23 8344.58 1792.67 8373.1 Q1807.3 8401.43 1836.19 8401.43 Q1865.26 8401.43 1879.71 8373.1 Q1894.34 8344.58 1894.34 8287.73 Q1894.34 8230.69 1879.71 8202.36 Q1865.26 8173.84 1836.19 8173.84 M1836.19 8144.21 Q1882.67 8144.21 1907.11 8181.06 Q1931.74 8217.73 1931.74 8287.73 Q1931.74 8357.54 1907.11 8394.39 Q1882.67 8431.06 1836.19 8431.06 Q1789.71 8431.06 1765.08 8394.39 Q1740.63 8357.54 1740.63 8287.73 Q1740.63 8217.73 1765.08 8181.06 Q1789.71 8144.21 1836.19 8144.21 Z" fill="#000000" fill-rule="evenodd" fill-opacity="1" /><path clip-path="url(#clip6900)" d="M 0 0 M1122.86 5986.81 Q1093.97 5986.81 1079.34 6015.33 Q1064.9 6043.66 1064.9 6100.7 Q1064.9 6157.55 1079.34 6186.07 Q1093.97 6214.4 1122.86 6214.4 Q1151.93 6214.4 1166.38 6186.07 Q1181.01 6157.55 1181.01 6100.7 Q1181.01 6043.66 1166.38 6015.33 Q1151.93 5986.81 1122.86 5986.81 M1122.86 5957.18 Q1169.34 5957.18 1193.78 5994.03 Q1218.41 6030.7 1218.41 6100.7 Q1218.41 6170.51 1193.78 6207.37 Q1169.34 6244.03 1122.86 6244.03 Q1076.38 6244.03 1051.75 6207.37 Q1027.3 6170.51 1027.3 6100.7 Q1027.3 6030.7 1051.75 5994.03 Q1076.38 5957.18 1122.86 5957.18 Z" fill="#000000" fill-rule="evenodd" fill-opacity="1" /><path clip-path="url(#clip6900)" d="M 0 0 M1258.97 6191.63 L1298.04 6191.63 L1298.04 6238.66 L1258.97 6238.66 L1258.97 6191.63 Z" fill="#000000" fill-rule="evenodd" fill-opacity="1" /><path clip-path="url(#clip6900)" d="M 0 0 M1423.23 6085.51 Q1398.04 6085.51 1383.23 6102.74 Q1368.6 6119.96 1368.6 6149.96 Q1368.6 6179.77 1383.23 6197.18 Q1398.04 6214.4 1423.23 6214.4 Q1448.41 6214.4 1463.04 6197.18 Q1477.86 6179.77 1477.86 6149.96 Q1477.86 6119.96 1463.04 6102.74 Q1448.41 6085.51 1423.23 6085.51 M1497.49 5968.29 L1497.49 6002.37 Q1483.41 5995.7 1468.97 5992.18 Q1454.71 5988.66 1440.63 5988.66 Q1403.6 5988.66 1383.97 6013.66 Q1364.52 6038.66 1361.75 6089.22 Q1372.67 6073.11 1389.15 6064.59 Q1405.63 6055.88 1425.45 6055.88 Q1467.12 6055.88 1491.19 6081.26 Q1515.45 6106.44 1515.45 6149.96 Q1515.45 6192.55 1490.26 6218.29 Q1465.08 6244.03 1423.23 6244.03 Q1375.26 6244.03 1349.89 6207.37 Q1324.52 6170.51 1324.52 6100.7 Q1324.52 6035.14 1355.63 5996.26 Q1386.75 5957.18 1439.15 5957.18 Q1453.23 5957.18 1467.49 5959.96 Q1481.93 5962.74 1497.49 5968.29 Z" fill="#000000" fill-rule="evenodd" fill-opacity="1" /><path clip-path="url(#clip6900)" d="M 0 0 M1556.37 5962.18 L1703.23 5962.18 L1703.23 5993.66 L1590.63 5993.66 L1590.63 6061.44 Q1598.78 6058.66 1606.93 6057.37 Q1615.08 6055.88 1623.23 6055.88 Q1669.52 6055.88 1696.56 6081.26 Q1723.6 6106.63 1723.6 6149.96 Q1723.6 6194.59 1695.82 6219.4 Q1668.04 6244.03 1617.49 6244.03 Q1600.08 6244.03 1581.93 6241.07 Q1563.97 6238.11 1544.71 6232.18 L1544.71 6194.59 Q1561.37 6203.66 1579.15 6208.11 Q1596.93 6212.55 1616.74 6212.55 Q1648.78 6212.55 1667.49 6195.7 Q1686.19 6178.85 1686.19 6149.96 Q1686.19 6121.07 1667.49 6104.22 Q1648.78 6087.37 1616.74 6087.37 Q1601.74 6087.37 1586.74 6090.7 Q1571.93 6094.03 1556.37 6101.07 L1556.37 5962.18 Z" fill="#000000" fill-rule="evenodd" fill-opacity="1" /><path clip-path="url(#clip6900)" d="M 0 0 M1764.52 5962.18 L1911.37 5962.18 L1911.37 5993.66 L1798.78 5993.66 L1798.78 6061.44 Q1806.93 6058.66 1815.08 6057.37 Q1823.23 6055.88 1831.37 6055.88 Q1877.67 6055.88 1904.71 6081.26 Q1931.74 6106.63 1931.74 6149.96 Q1931.74 6194.59 1903.97 6219.4 Q1876.19 6244.03 1825.63 6244.03 Q1808.23 6244.03 1790.08 6241.07 Q1772.11 6238.11 1752.86 6232.18 L1752.86 6194.59 Q1769.52 6203.66 1787.3 6208.11 Q1805.08 6212.55 1824.89 6212.55 Q1856.93 6212.55 1875.63 6195.7 Q1894.34 6178.85 1894.34 6149.96 Q1894.34 6121.07 1875.63 6104.22 Q1856.93 6087.37 1824.89 6087.37 Q1809.89 6087.37 1794.89 6090.7 Q1780.08 6094.03 1764.52 6101.07 L1764.52 5962.18 Z" fill="#000000" fill-rule="evenodd" fill-opacity="1" /><path clip-path="url(#clip6900)" d="M 0 0 M1105.64 3799.78 Q1076.75 3799.78 1062.12 3828.3 Q1047.67 3856.63 1047.67 3913.67 Q1047.67 3970.52 1062.12 3999.04 Q1076.75 4027.37 1105.64 4027.37 Q1134.71 4027.37 1149.15 3999.04 Q1163.78 3970.52 1163.78 3913.67 Q1163.78 3856.63 1149.15 3828.3 Q1134.71 3799.78 1105.64 3799.78 M1105.64 3770.15 Q1152.12 3770.15 1176.56 3807 Q1201.19 3843.67 1201.19 3913.67 Q1201.19 3983.48 1176.56 4020.34 Q1152.12 4057 1105.64 4057 Q1059.16 4057 1034.53 4020.34 Q1010.08 3983.48 1010.08 3913.67 Q1010.08 3843.67 1034.53 3807 Q1059.16 3770.15 1105.64 3770.15 Z" fill="#000000" fill-rule="evenodd" fill-opacity="1" /><path clip-path="url(#clip6900)" d="M 0 0 M1241.75 4004.6 L1280.82 4004.6 L1280.82 4051.63 L1241.75 4051.63 L1241.75 4004.6 Z" fill="#000000" fill-rule="evenodd" fill-opacity="1" /><path clip-path="url(#clip6900)" d="M 0 0 M1406.01 3898.49 Q1380.82 3898.49 1366.01 3915.71 Q1351.38 3932.93 1351.38 3962.93 Q1351.38 3992.74 1366.01 4010.15 Q1380.82 4027.37 1406.01 4027.37 Q1431.19 4027.37 1445.82 4010.15 Q1460.63 3992.74 1460.63 3962.93 Q1460.63 3932.93 1445.82 3915.71 Q1431.19 3898.49 1406.01 3898.49 M1480.26 3781.26 L1480.26 3815.34 Q1466.19 3808.67 1451.75 3805.15 Q1437.49 3801.63 1423.41 3801.63 Q1386.38 3801.63 1366.75 3826.63 Q1347.3 3851.63 1344.52 3902.19 Q1355.45 3886.08 1371.93 3877.56 Q1388.41 3868.86 1408.23 3868.86 Q1449.89 3868.86 1473.97 3894.23 Q1498.23 3919.41 1498.23 3962.93 Q1498.23 4005.52 1473.04 4031.26 Q1447.86 4057 1406.01 4057 Q1358.04 4057 1332.67 4020.34 Q1307.3 3983.48 1307.3 3913.67 Q1307.3 3848.12 1338.41 3809.23 Q1369.52 3770.15 1421.93 3770.15 Q1436 3770.15 1450.26 3772.93 Q1464.71 3775.71 1480.26 3781.26 Z" fill="#000000" fill-rule="evenodd" fill-opacity="1" /><path clip-path="url(#clip6900)" d="M 0 0 M1623.41 3898.49 Q1598.23 3898.49 1583.41 3915.71 Q1568.78 3932.93 1568.78 3962.93 Q1568.78 3992.74 1583.41 4010.15 Q1598.23 4027.37 1623.41 4027.37 Q1648.6 4027.37 1663.23 4010.15 Q1678.04 3992.74 1678.04 3962.93 Q1678.04 3932.93 1663.23 3915.71 Q1648.6 3898.49 1623.41 3898.49 M1697.67 3781.26 L1697.67 3815.34 Q1683.6 3808.67 1669.15 3805.15 Q1654.89 3801.63 1640.82 3801.63 Q1603.78 3801.63 1584.15 3826.63 Q1564.71 3851.63 1561.93 3902.19 Q1572.86 3886.08 1589.34 3877.56 Q1605.82 3868.86 1625.63 3868.86 Q1667.3 3868.86 1691.37 3894.23 Q1715.63 3919.41 1715.63 3962.93 Q1715.63 4005.52 1690.45 4031.26 Q1665.26 4057 1623.41 4057 Q1575.45 4057 1550.08 4020.34 Q1524.71 3983.48 1524.71 3913.67 Q1524.71 3848.12 1555.82 3809.23 Q1586.93 3770.15 1639.34 3770.15 Q1653.41 3770.15 1667.67 3772.93 Q1682.11 3775.71 1697.67 3781.26 Z" fill="#000000" fill-rule="evenodd" fill-opacity="1" /><path clip-path="url(#clip6900)" d="M 0 0 M1836.19 3799.78 Q1807.3 3799.78 1792.67 3828.3 Q1778.23 3856.63 1778.23 3913.67 Q1778.23 3970.52 1792.67 3999.04 Q1807.3 4027.37 1836.19 4027.37 Q1865.26 4027.37 1879.71 3999.04 Q1894.34 3970.52 1894.34 3913.67 Q1894.34 3856.63 1879.71 3828.3 Q1865.26 3799.78 1836.19 3799.78 M1836.19 3770.15 Q1882.67 3770.15 1907.11 3807 Q1931.74 3843.67 1931.74 3913.67 Q1931.74 3983.48 1907.11 4020.34 Q1882.67 4057 1836.19 4057 Q1789.71 4057 1765.08 4020.34 Q1740.63 3983.48 1740.63 3913.67 Q1740.63 3843.67 1765.08 3807 Q1789.71 3770.15 1836.19 3770.15 Z" fill="#000000" fill-rule="evenodd" fill-opacity="1" /><path clip-path="url(#clip6900)" d="M 0 0 M1113.6 1612.75 Q1084.71 1612.75 1070.08 1641.27 Q1055.64 1669.6 1055.64 1726.64 Q1055.64 1783.49 1070.08 1812.01 Q1084.71 1840.34 1113.6 1840.34 Q1142.67 1840.34 1157.12 1812.01 Q1171.75 1783.49 1171.75 1726.64 Q1171.75 1669.6 1157.12 1641.27 Q1142.67 1612.75 1113.6 1612.75 M1113.6 1583.12 Q1160.08 1583.12 1184.52 1619.98 Q1209.15 1656.64 1209.15 1726.64 Q1209.15 1796.46 1184.52 1833.31 Q1160.08 1869.97 1113.6 1869.97 Q1067.12 1869.97 1042.49 1833.31 Q1018.04 1796.46 1018.04 1726.64 Q1018.04 1656.64 1042.49 1619.98 Q1067.12 1583.12 1113.6 1583.12 Z" fill="#000000" fill-rule="evenodd" fill-opacity="1" /><path clip-path="url(#clip6900)" d="M 0 0 M1249.71 1817.57 L1288.78 1817.57 L1288.78 1864.6 L1249.71 1864.6 L1249.71 1817.57 Z" fill="#000000" fill-rule="evenodd" fill-opacity="1" /><path clip-path="url(#clip6900)" d="M 0 0 M1413.97 1711.46 Q1388.78 1711.46 1373.97 1728.68 Q1359.34 1745.9 1359.34 1775.9 Q1359.34 1805.71 1373.97 1823.12 Q1388.78 1840.34 1413.97 1840.34 Q1439.15 1840.34 1453.78 1823.12 Q1468.6 1805.71 1468.6 1775.9 Q1468.6 1745.9 1453.78 1728.68 Q1439.15 1711.46 1413.97 1711.46 M1488.23 1594.23 L1488.23 1628.31 Q1474.15 1621.64 1459.71 1618.12 Q1445.45 1614.6 1431.38 1614.6 Q1394.34 1614.6 1374.71 1639.6 Q1355.26 1664.6 1352.49 1715.16 Q1363.41 1699.05 1379.89 1690.53 Q1396.38 1681.83 1416.19 1681.83 Q1457.86 1681.83 1481.93 1707.2 Q1506.19 1732.38 1506.19 1775.9 Q1506.19 1818.49 1481 1844.23 Q1455.82 1869.97 1413.97 1869.97 Q1366.01 1869.97 1340.64 1833.31 Q1315.26 1796.46 1315.26 1726.64 Q1315.26 1661.09 1346.38 1622.2 Q1377.49 1583.12 1429.89 1583.12 Q1443.97 1583.12 1458.23 1585.9 Q1472.67 1588.68 1488.23 1594.23 Z" fill="#000000" fill-rule="evenodd" fill-opacity="1" /><path clip-path="url(#clip6900)" d="M 0 0 M1631.37 1711.46 Q1606.19 1711.46 1591.37 1728.68 Q1576.74 1745.9 1576.74 1775.9 Q1576.74 1805.71 1591.37 1823.12 Q1606.19 1840.34 1631.37 1840.34 Q1656.56 1840.34 1671.19 1823.12 Q1686 1805.71 1686 1775.9 Q1686 1745.9 1671.19 1728.68 Q1656.56 1711.46 1631.37 1711.46 M1705.63 1594.23 L1705.63 1628.31 Q1691.56 1621.64 1677.11 1618.12 Q1662.86 1614.6 1648.78 1614.6 Q1611.74 1614.6 1592.12 1639.6 Q1572.67 1664.6 1569.89 1715.16 Q1580.82 1699.05 1597.3 1690.53 Q1613.78 1681.83 1633.6 1681.83 Q1675.26 1681.83 1699.34 1707.2 Q1723.6 1732.38 1723.6 1775.9 Q1723.6 1818.49 1698.41 1844.23 Q1673.23 1869.97 1631.37 1869.97 Q1583.41 1869.97 1558.04 1833.31 Q1532.67 1796.46 1532.67 1726.64 Q1532.67 1661.09 1563.78 1622.2 Q1594.89 1583.12 1647.3 1583.12 Q1661.37 1583.12 1675.63 1585.9 Q1690.08 1588.68 1705.63 1594.23 Z" fill="#000000" fill-rule="evenodd" fill-opacity="1" /><path clip-path="url(#clip6900)" d="M 0 0 M1764.52 1588.12 L1911.37 1588.12 L1911.37 1619.6 L1798.78 1619.6 L1798.78 1687.38 Q1806.93 1684.6 1815.08 1683.31 Q1823.23 1681.83 1831.37 1681.83 Q1877.67 1681.83 1904.71 1707.2 Q1931.74 1732.57 1931.74 1775.9 Q1931.74 1820.53 1903.97 1845.34 Q1876.19 1869.97 1825.63 1869.97 Q1808.23 1869.97 1790.08 1867.01 Q1772.11 1864.05 1752.86 1858.12 L1752.86 1820.53 Q1769.52 1829.6 1787.3 1834.05 Q1805.08 1838.49 1824.89 1838.49 Q1856.93 1838.49 1875.63 1821.64 Q1894.34 1804.79 1894.34 1775.9 Q1894.34 1747.01 1875.63 1730.16 Q1856.93 1713.31 1824.89 1713.31 Q1809.89 1713.31 1794.89 1716.64 Q1780.08 1719.97 1764.52 1727.01 L1764.52 1588.12 Z" fill="#000000" fill-rule="evenodd" fill-opacity="1" /><path clip-path="url(#clip6900)" d="M 0 0 M6053.2 228.341 L6053.2 284.73 Q6027.92 271.767 6000.7 265.286 Q5973.47 258.804 5944.31 258.804 Q5899.91 258.804 5877.55 272.415 Q5855.51 286.026 5855.51 313.248 Q5855.51 333.989 5871.39 345.98 Q5887.27 357.646 5935.23 368.341 L5955.65 372.878 Q6019.17 386.489 6045.74 411.442 Q6072.64 436.072 6072.64 480.47 Q6072.64 531.025 6032.46 560.516 Q5992.6 590.006 5922.6 590.006 Q5893.43 590.006 5861.67 584.173 Q5830.23 578.664 5795.23 567.321 L5795.23 505.747 Q5828.29 522.923 5860.37 531.673 Q5892.46 540.099 5923.89 540.099 Q5966.02 540.099 5988.71 525.84 Q6011.39 511.257 6011.39 485.007 Q6011.39 460.701 5994.86 447.738 Q5978.66 434.775 5923.24 422.785 L5902.5 417.924 Q5847.09 406.257 5822.46 382.276 Q5797.83 357.97 5797.83 315.841 Q5797.83 264.637 5834.12 236.767 Q5870.42 208.897 5937.18 208.897 Q5970.23 208.897 5999.4 213.758 Q6028.57 218.619 6053.2 228.341 Z" fill="#000000" fill-rule="evenodd" fill-opacity="1" /><path clip-path="url(#clip6900)" d="M 0 0 M6135.19 217.647 L6194.82 217.647 L6194.82 580.608 L6135.19 580.608 L6135.19 217.647 M6135.19 76.3514 L6194.82 76.3514 L6194.82 151.86 L6135.19 151.86 L6135.19 76.3514 Z" fill="#000000" fill-rule="evenodd" fill-opacity="1" /><path clip-path="url(#clip6900)" d="M 0 0 M6231.44 217.647 L6514.68 217.647 L6514.68 272.091 L6290.42 532.969 L6514.68 532.969 L6514.68 580.608 L6223.33 580.608 L6223.33 526.164 L6447.59 265.286 L6231.44 265.286 L6231.44 217.647 Z" fill="#000000" fill-rule="evenodd" fill-opacity="1" /><path clip-path="url(#clip6900)" d="M 0 0 M6887.68 384.22 L6887.68 413.387 L6613.52 413.387 Q6617.41 474.96 6650.46 507.368 Q6683.84 539.451 6743.15 539.451 Q6777.5 539.451 6809.58 531.025 Q6841.99 522.599 6873.75 505.747 L6873.75 562.136 Q6841.66 575.747 6807.96 582.877 Q6774.26 590.006 6739.58 590.006 Q6652.73 590.006 6601.85 539.451 Q6551.3 488.896 6551.3 402.692 Q6551.3 313.572 6599.26 261.397 Q6647.55 208.897 6729.21 208.897 Q6802.45 208.897 6844.91 256.212 Q6887.68 303.202 6887.68 384.22 M6828.05 366.72 Q6827.41 317.785 6800.51 288.619 Q6773.93 259.452 6729.86 259.452 Q6679.95 259.452 6649.81 287.647 Q6620 315.841 6615.46 367.044 L6828.05 366.72 Z" fill="#000000" fill-rule="evenodd" fill-opacity="1" /><path clip-path="url(#clip6900)" d="M 0 0 M6965.46 498.294 L7033.84 498.294 L7033.84 580.608 L6965.46 580.608 L6965.46 498.294 M6965.46 237.415 L7033.84 237.415 L7033.84 319.73 L6965.46 319.73 L6965.46 237.415 Z" fill="#000000" fill-rule="evenodd" fill-opacity="1" /><path clip-path="url(#clip6900)" d="M 0 0 M7252.91 312.6 Q7208.84 312.6 7182.91 342.739 Q7157.31 372.878 7157.31 425.377 Q7157.31 477.553 7182.91 508.016 Q7208.84 538.155 7252.91 538.155 Q7296.99 538.155 7322.59 508.016 Q7348.51 477.553 7348.51 425.377 Q7348.51 372.878 7322.59 342.739 Q7296.99 312.6 7252.91 312.6 M7382.87 107.462 L7382.87 167.092 Q7358.24 155.425 7332.96 149.268 Q7308 143.11 7283.38 143.11 Q7218.56 143.11 7184.21 186.86 Q7150.18 230.61 7145.32 319.082 Q7164.44 290.887 7193.28 275.98 Q7222.13 260.749 7256.8 260.749 Q7329.72 260.749 7371.85 305.147 Q7414.3 349.22 7414.3 425.377 Q7414.3 499.914 7370.23 544.96 Q7326.15 590.006 7252.91 590.006 Q7168.98 590.006 7124.58 525.84 Q7080.18 461.349 7080.18 339.174 Q7080.18 224.453 7134.63 156.397 Q7189.07 88.018 7280.78 88.018 Q7305.41 88.018 7330.37 92.8791 Q7355.64 97.7402 7382.87 107.462 Z" fill="#000000" fill-rule="evenodd" fill-opacity="1" /><path clip-path="url(#clip6900)" d="M 0 0 M7492.08 498.294 L7560.46 498.294 L7560.46 554.034 L7507.31 657.737 L7465.5 657.737 L7492.08 554.034 L7492.08 498.294 Z" fill="#000000" fill-rule="evenodd" fill-opacity="1" /><path clip-path="url(#clip6900)" d="M 0 0 M7771.43 350.841 Q7724.76 350.841 7697.86 375.794 Q7671.29 400.748 7671.29 444.498 Q7671.29 488.247 7697.86 513.201 Q7724.76 538.155 7771.43 538.155 Q7818.09 538.155 7844.99 513.201 Q7871.89 487.923 7871.89 444.498 Q7871.89 400.748 7844.99 375.794 Q7818.42 350.841 7771.43 350.841 M7705.97 322.97 Q7663.84 312.6 7640.18 283.758 Q7616.85 254.915 7616.85 213.434 Q7616.85 155.425 7658 121.722 Q7699.48 88.018 7771.43 88.018 Q7843.7 88.018 7884.85 121.722 Q7926.01 155.425 7926.01 213.434 Q7926.01 254.915 7902.35 283.758 Q7879.02 312.6 7837.21 322.97 Q7884.53 333.989 7910.78 366.072 Q7937.35 398.155 7937.35 444.498 Q7937.35 514.821 7894.25 552.414 Q7851.47 590.006 7771.43 590.006 Q7691.38 590.006 7648.28 552.414 Q7605.5 514.821 7605.5 444.498 Q7605.5 398.155 7632.08 366.072 Q7658.65 333.989 7705.97 322.97 M7681.98 219.591 Q7681.98 257.184 7705.32 278.249 Q7728.97 299.313 7771.43 299.313 Q7813.56 299.313 7837.21 278.249 Q7861.2 257.184 7861.2 219.591 Q7861.2 181.999 7837.21 160.934 Q7813.56 139.87 7771.43 139.87 Q7728.97 139.87 7705.32 160.934 Q7681.98 181.999 7681.98 219.591 Z" fill="#000000" fill-rule="evenodd" fill-opacity="1" /><path clip-path="url(#clip6900)" d="M 0 0 M8015.13 498.294 L8083.51 498.294 L8083.51 554.034 L8030.36 657.737 L7988.56 657.737 L8015.13 554.034 L8015.13 498.294 Z" fill="#000000" fill-rule="evenodd" fill-opacity="1" /><path clip-path="url(#clip6900)" d="M 0 0 M8165.82 525.516 L8272.77 525.516 L8272.77 156.397 L8156.43 179.731 L8156.43 120.101 L8272.12 96.768 L8337.58 96.768 L8337.58 525.516 L8444.53 525.516 L8444.53 580.608 L8165.82 580.608 L8165.82 525.516 Z" fill="#000000" fill-rule="evenodd" fill-opacity="1" /><path clip-path="url(#clip6900)" d="M 0 0 M8655.5 139.87 Q8604.94 139.87 8579.34 189.777 Q8554.06 239.36 8554.06 339.174 Q8554.06 438.664 8579.34 488.571 Q8604.94 538.155 8655.5 538.155 Q8706.38 538.155 8731.65 488.571 Q8757.26 438.664 8757.26 339.174 Q8757.26 239.36 8731.65 189.777 Q8706.38 139.87 8655.5 139.87 M8655.5 88.018 Q8736.84 88.018 8779.62 152.508 Q8822.72 216.675 8822.72 339.174 Q8822.72 461.349 8779.62 525.84 Q8736.84 590.006 8655.5 590.006 Q8574.16 590.006 8531.05 525.84 Q8488.28 461.349 8488.28 339.174 Q8488.28 216.675 8531.05 152.508 Q8574.16 88.018 8655.5 88.018 Z" fill="#000000" fill-rule="evenodd" fill-opacity="1" /><path clip-path="url(#clip6900)" d="M 0 0 M8900.5 498.294 L8968.88 498.294 L8968.88 554.034 L8915.73 657.737 L8873.92 657.737 L8900.5 554.034 L8900.5 498.294 Z" fill="#000000" fill-rule="evenodd" fill-opacity="1" /><path clip-path="url(#clip6900)" d="M 0 0 M9051.19 525.516 L9158.13 525.516 L9158.13 156.397 L9041.79 179.731 L9041.79 120.101 L9157.49 96.768 L9222.95 96.768 L9222.95 525.516 L9329.89 525.516 L9329.89 580.608 L9051.19 580.608 L9051.19 525.516 Z" fill="#000000" fill-rule="evenodd" fill-opacity="1" /><path clip-path="url(#clip6900)" d="M 0 0 M9457.25 525.516 L9685.72 525.516 L9685.72 580.608 L9378.5 580.608 L9378.5 525.516 Q9415.77 486.951 9479.94 422.137 Q9544.43 356.998 9560.96 338.202 Q9592.39 302.878 9604.71 278.573 Q9617.34 253.943 9617.34 230.286 Q9617.34 191.721 9590.12 167.416 Q9563.22 143.11 9519.8 143.11 Q9489.01 143.11 9454.66 153.805 Q9420.63 164.499 9381.74 186.212 L9381.74 120.101 Q9421.28 104.222 9455.63 96.1199 Q9489.98 88.018 9518.5 88.018 Q9593.69 88.018 9638.41 125.61 Q9683.13 163.203 9683.13 226.073 Q9683.13 255.888 9671.79 282.786 Q9660.77 309.359 9631.28 345.656 Q9623.18 355.054 9579.75 400.1 Q9536.33 444.822 9457.25 525.516 Z" fill="#000000" fill-rule="evenodd" fill-opacity="1" /><path clip-path="url(#clip6900)" d="M 0 0 M9763.5 237.415 L9831.88 237.415 L9831.88 319.73 L9763.5 319.73 L9763.5 237.415 M9763.5 498.294 L9831.88 498.294 L9831.88 554.034 L9778.73 657.737 L9736.93 657.737 L9763.5 554.034 L9763.5 498.294 Z" fill="#000000" fill-rule="evenodd" fill-opacity="1" /><path clip-path="url(#clip6900)" d="M 0 0 M10304.4 141.166 Q10233.1 141.166 10191 194.314 Q10149.1 247.462 10149.1 339.174 Q10149.1 430.563 10191 483.71 Q10233.1 536.858 10304.4 536.858 Q10375.7 536.858 10417.2 483.71 Q10459 430.563 10459 339.174 Q10459 247.462 10417.2 194.314 Q10375.7 141.166 10304.4 141.166 M10396.1 571.858 L10482.3 666.163 L10403.2 666.163 L10331.6 588.71 Q10320.9 589.358 10315.1 589.682 Q10309.6 590.006 10304.4 590.006 Q10202.3 590.006 10141 521.951 Q10080.1 453.572 10080.1 339.174 Q10080.1 224.453 10141 156.397 Q10202.3 88.018 10304.4 88.018 Q10406.1 88.018 10467.1 156.397 Q10528 224.453 10528 339.174 Q10528 423.433 10494 483.386 Q10460.3 543.34 10396.1 571.858 Z" fill="#000000" fill-rule="evenodd" fill-opacity="1" /><path clip-path="url(#clip6900)" d="M 0 0 M10809.3 279.221 L11224.7 279.221 L11224.7 333.665 L10809.3 333.665 L10809.3 279.221 M10809.3 411.442 L11224.7 411.442 L11224.7 466.535 L10809.3 466.535 L10809.3 411.442 Z" fill="#000000" fill-rule="evenodd" fill-opacity="1" /><path clip-path="url(#clip6900)" d="M 0 0 M11518 525.516 L11625 525.516 L11625 156.397 L11508.6 179.731 L11508.6 120.101 L11624.3 96.768 L11689.8 96.768 L11689.8 525.516 L11796.7 525.516 L11796.7 580.608 L11518 580.608 L11518 525.516 Z" fill="#000000" fill-rule="evenodd" fill-opacity="1" /><path clip-path="url(#clip6900)" d="M 0 0 M12015.8 312.6 Q11971.7 312.6 11945.8 342.739 Q11920.2 372.878 11920.2 425.377 Q11920.2 477.553 11945.8 508.016 Q11971.7 538.155 12015.8 538.155 Q12059.9 538.155 12085.5 508.016 Q12111.4 477.553 12111.4 425.377 Q12111.4 372.878 12085.5 342.739 Q12059.9 312.6 12015.8 312.6 M12145.8 107.462 L12145.8 167.092 Q12121.1 155.425 12095.8 149.268 Q12070.9 143.11 12046.3 143.11 Q11981.5 143.11 11947.1 186.86 Q11913.1 230.61 11908.2 319.082 Q11927.3 290.887 11956.2 275.98 Q11985 260.749 12019.7 260.749 Q12092.6 260.749 12134.7 305.147 Q12177.2 349.22 12177.2 425.377 Q12177.2 499.914 12133.1 544.96 Q12089 590.006 12015.8 590.006 Q11931.9 590.006 11887.5 525.84 Q11843.1 461.349 11843.1 339.174 Q11843.1 224.453 11897.5 156.397 Q11952 88.018 12043.7 88.018 Q12068.3 88.018 12093.3 92.8791 Q12118.5 97.7402 12145.8 107.462 Z" fill="#000000" fill-rule="evenodd" fill-opacity="1" /><path clip-path="url(#clip6900)" d="M 0 0 M12255 237.415 L12323.3 237.415 L12323.3 319.73 L12255 319.73 L12255 237.415 M12255 498.294 L12323.3 498.294 L12323.3 554.034 L12270.2 657.737 L12228.4 657.737 L12255 554.034 L12255 498.294 Z" fill="#000000" fill-rule="evenodd" fill-opacity="1" /><path clip-path="url(#clip6900)" d="M 0 0 M12599.5 96.768 L12664.9 96.768 L12664.9 546.904 Q12664.9 634.404 12631.5 673.941 Q12598.5 713.478 12524.9 713.478 L12500 713.478 L12500 658.385 L12520.4 658.385 Q12563.8 658.385 12581.6 634.08 Q12599.5 609.775 12599.5 546.904 L12599.5 96.768 Z" fill="#000000" fill-rule="evenodd" fill-opacity="1" /><path clip-path="url(#clip6900)" d="M 0 0 M13003.3 690.793 L13003.3 737.135 L12658.4 737.135 L12658.4 690.793 L13003.3 690.793 Z" fill="#000000" fill-rule="evenodd" fill-opacity="1" /><path clip-path="url(#clip6900)" d="M 0 0 M13085.6 525.516 L13192.5 525.516 L13192.5 156.397 L13076.2 179.731 L13076.2 120.101 L13191.9 96.768 L13257.3 96.768 L13257.3 525.516 L13364.3 525.516 L13364.3 580.608 L13085.6 580.608 L13085.6 525.516 Z" fill="#000000" fill-rule="evenodd" fill-opacity="1" /><path clip-path="url(#clip6900)" d="M 0 0 M13645.6 279.221 L14061 279.221 L14061 333.665 L13645.6 333.665 L13645.6 279.221 M13645.6 411.442 L14061 411.442 L14061 466.535 L13645.6 466.535 L13645.6 411.442 Z" fill="#000000" fill-rule="evenodd" fill-opacity="1" /><path clip-path="url(#clip6900)" d="M 0 0 M14354.3 525.516 L14461.3 525.516 L14461.3 156.397 L14344.9 179.731 L14344.9 120.101 L14460.6 96.768 L14526.1 96.768 L14526.1 525.516 L14633 525.516 L14633 580.608 L14354.3 580.608 L14354.3 525.516 Z" fill="#000000" fill-rule="evenodd" fill-opacity="1" /><path clip-path="url(#clip6900)" d="M 0 0 M14704 498.294 L14772.4 498.294 L14772.4 580.608 L14704 580.608 L14704 498.294 Z" fill="#000000" fill-rule="evenodd" fill-opacity="1" /><path clip-path="url(#clip6900)" d="M 0 0 M14983.3 139.87 Q14932.8 139.87 14907.2 189.777 Q14881.9 239.36 14881.9 339.174 Q14881.9 438.664 14907.2 488.571 Q14932.8 538.155 14983.3 538.155 Q15034.2 538.155 15059.5 488.571 Q15085.1 438.664 15085.1 339.174 Q15085.1 239.36 15059.5 189.777 Q15034.2 139.87 14983.3 139.87 M14983.3 88.018 Q15064.7 88.018 15107.5 152.508 Q15150.6 216.675 15150.6 339.174 Q15150.6 461.349 15107.5 525.84 Q15064.7 590.006 14983.3 590.006 Q14902 590.006 14858.9 525.84 Q14816.1 461.349 14816.1 339.174 Q14816.1 216.675 14858.9 152.508 Q14902 88.018 14983.3 88.018 Z" fill="#000000" fill-rule="evenodd" fill-opacity="1" /><path clip-path="url(#clip6900)" d="M 0 0 M10312.1 12068.2 L10633.7 12068.2 L10633.7 12111.5 L10498.7 12111.5 L10498.7 12448.4 L10447.1 12448.4 L10447.1 12111.5 L10312.1 12111.5 L10312.1 12068.2 Z" fill="#000000" fill-rule="evenodd" fill-opacity="1" /><path clip-path="url(#clip6900)" d="M 0 0 M522.483 7641.94 L661.765 7641.94 L661.765 7559.44 Q661.765 7517.93 644.705 7498.07 Q627.39 7477.96 591.997 7477.96 Q556.349 7477.96 539.543 7498.07 Q522.483 7517.93 522.483 7559.44 L522.483 7641.94 M366.142 7641.94 L480.724 7641.94 L480.724 7565.8 Q480.724 7528.12 466.72 7509.78 Q452.461 7491.2 423.433 7491.2 Q394.66 7491.2 380.401 7509.78 Q366.142 7528.12 366.142 7565.8 L366.142 7641.94 M323.873 7693.37 L323.873 7561.98 Q323.873 7503.16 348.318 7471.33 Q372.762 7439.51 417.831 7439.51 Q452.715 7439.51 473.34 7455.8 Q493.965 7472.1 499.058 7503.67 Q507.206 7465.73 533.178 7444.85 Q558.895 7423.72 597.599 7423.72 Q648.524 7423.72 676.279 7458.35 Q704.033 7492.98 704.033 7556.89 L704.033 7693.37 L323.873 7693.37 Z" fill="#000000" fill-rule="evenodd" fill-opacity="1" /><path clip-path="url(#clip6900)" d="M 0 0 M418.85 7374.58 L418.85 7327.72 L704.033 7327.72 L704.033 7374.58 L418.85 7374.58 M307.832 7374.58 L307.832 7327.72 L367.16 7327.72 L367.16 7374.58 L307.832 7374.58 Z" fill="#000000" fill-rule="evenodd" fill-opacity="1" /><path clip-path="url(#clip6900)" d="M 0 0 M531.905 7041.52 L704.033 7041.52 L704.033 7088.37 L533.432 7088.37 Q492.946 7088.37 472.831 7104.16 Q452.715 7119.95 452.715 7151.52 Q452.715 7189.46 476.905 7211.36 Q501.095 7233.26 542.854 7233.26 L704.033 7233.26 L704.033 7280.36 L418.85 7280.36 L418.85 7233.26 L463.155 7233.26 Q437.437 7216.45 424.706 7193.79 Q411.975 7170.87 411.975 7141.08 Q411.975 7091.94 442.53 7066.73 Q472.831 7041.52 531.905 7041.52 Z" fill="#000000" fill-rule="evenodd" fill-opacity="1" /><path clip-path="url(#clip6900)" d="M 0 0 M462.136 6804.72 L307.832 6804.72 L307.832 6757.87 L704.033 6757.87 L704.033 6804.72 L661.256 6804.72 Q686.719 6819.49 699.195 6842.15 Q711.417 6864.56 711.417 6896.13 Q711.417 6947.82 670.168 6980.41 Q628.918 7012.75 561.696 7012.75 Q494.474 7012.75 453.224 6980.41 Q411.975 6947.82 411.975 6896.13 Q411.975 6864.56 424.451 6842.15 Q436.674 6819.49 462.136 6804.72 M561.696 6964.37 Q613.386 6964.37 642.922 6943.24 Q672.205 6921.85 672.205 6884.67 Q672.205 6847.5 642.922 6826.11 Q613.386 6804.72 561.696 6804.72 Q510.007 6804.72 480.724 6826.11 Q451.187 6847.5 451.187 6884.67 Q451.187 6921.85 480.724 6943.24 Q510.007 6964.37 561.696 6964.37 Z" fill="#000000" fill-rule="evenodd" fill-opacity="1" /><path clip-path="url(#clip6900)" d="M 0 0 M549.729 6464.79 L572.645 6464.79 L572.645 6680.2 Q621.024 6677.15 646.487 6651.18 Q671.695 6624.95 671.695 6578.35 Q671.695 6551.36 665.075 6526.15 Q658.455 6500.69 645.214 6475.74 L689.519 6475.74 Q700.214 6500.95 705.816 6527.43 Q711.417 6553.91 711.417 6581.15 Q711.417 6649.39 671.695 6689.37 Q631.973 6729.09 564.242 6729.09 Q494.22 6729.09 453.224 6691.41 Q411.975 6653.47 411.975 6589.3 Q411.975 6531.76 449.15 6498.4 Q486.071 6464.79 549.729 6464.79 M535.979 6511.64 Q497.53 6512.15 474.613 6533.28 Q451.697 6554.16 451.697 6588.79 Q451.697 6628.01 473.849 6651.69 Q496.002 6675.11 536.233 6678.68 L535.979 6511.64 Z" fill="#000000" fill-rule="evenodd" fill-opacity="1" /><path clip-path="url(#clip6900)" d="M 0 0 M462.646 6250.39 Q458.062 6258.29 456.025 6267.71 Q453.734 6276.87 453.734 6288.08 Q453.734 6327.8 479.706 6349.19 Q505.423 6370.32 553.803 6370.32 L704.033 6370.32 L704.033 6417.43 L418.85 6417.43 L418.85 6370.32 L463.155 6370.32 Q437.183 6355.55 424.706 6331.87 Q411.975 6308.19 411.975 6274.33 Q411.975 6269.49 412.739 6263.63 Q413.248 6257.78 414.521 6250.65 L462.646 6250.39 Z" fill="#000000" fill-rule="evenodd" fill-opacity="1" /><path clip-path="url(#clip6900)" d="M 0 0 M323.873 6156.94 L465.192 6156.94 L465.192 6200.23 L323.873 6200.23 L323.873 6156.94 Z" fill="#000000" fill-rule="evenodd" fill-opacity="1" /><path clip-path="url(#clip6900)" d="M 0 0 M427.252 5926 L471.558 5926 Q461.373 5945.86 456.28 5967.25 Q451.187 5988.63 451.187 6011.55 Q451.187 6046.44 461.882 6064 Q472.576 6081.32 493.965 6081.32 Q510.261 6081.32 519.682 6068.84 Q528.849 6056.37 537.252 6018.68 L540.817 6002.64 Q551.511 5952.73 571.117 5931.85 Q590.469 5910.72 625.353 5910.72 Q665.075 5910.72 688.246 5942.29 Q711.417 5973.61 711.417 6028.61 Q711.417 6051.53 706.834 6076.48 Q702.505 6101.18 693.594 6128.68 L645.214 6128.68 Q658.709 6102.71 665.584 6077.5 Q672.205 6052.29 672.205 6027.59 Q672.205 5994.49 661.001 5976.67 Q649.543 5958.84 628.918 5958.84 Q609.821 5958.84 599.636 5971.83 Q589.451 5984.56 580.029 6028.1 L576.21 6044.4 Q567.043 6087.94 548.201 6107.29 Q529.104 6126.64 496.002 6126.64 Q455.771 6126.64 433.873 6098.12 Q411.975 6069.61 411.975 6017.15 Q411.975 5991.18 415.794 5968.26 Q419.613 5945.35 427.252 5926 Z" fill="#000000" fill-rule="evenodd" fill-opacity="1" /><path clip-path="url(#clip6900)" d="M 0 0 M462.646 5530.56 Q458.062 5538.45 456.025 5547.87 Q453.734 5557.04 453.734 5568.24 Q453.734 5607.97 479.706 5629.35 Q505.423 5650.49 553.803 5650.49 L704.033 5650.49 L704.033 5697.59 L418.85 5697.59 L418.85 5650.49 L463.155 5650.49 Q437.183 5635.72 424.706 5612.04 Q411.975 5588.36 411.975 5554.49 Q411.975 5549.66 412.739 5543.8 Q413.248 5537.94 414.521 5530.81 L462.646 5530.56 Z" fill="#000000" fill-rule="evenodd" fill-opacity="1" /><path clip-path="url(#clip6900)" d="M 0 0 M560.678 5351.81 Q560.678 5408.59 573.664 5430.49 Q586.65 5452.39 617.969 5452.39 Q642.922 5452.39 657.691 5436.09 Q672.205 5419.54 672.205 5391.28 Q672.205 5352.32 644.705 5328.89 Q616.95 5305.21 571.117 5305.21 L560.678 5305.21 L560.678 5351.81 M541.326 5258.36 L704.033 5258.36 L704.033 5305.21 L660.746 5305.21 Q686.719 5321.25 699.195 5345.19 Q711.417 5369.12 711.417 5403.75 Q711.417 5447.55 686.973 5473.52 Q662.274 5499.24 621.024 5499.24 Q572.9 5499.24 548.455 5467.16 Q524.011 5434.82 524.011 5370.91 L524.011 5305.21 L519.428 5305.21 Q487.09 5305.21 469.521 5326.6 Q451.697 5347.74 451.697 5386.18 Q451.697 5410.63 457.553 5433.8 Q463.41 5456.97 475.122 5478.36 L431.836 5478.36 Q421.905 5452.64 417.067 5428.45 Q411.975 5404.26 411.975 5381.35 Q411.975 5319.47 444.058 5288.92 Q476.141 5258.36 541.326 5258.36 Z" fill="#000000" fill-rule="evenodd" fill-opacity="1" /><path clip-path="url(#clip6900)" d="M 0 0 M337.878 5162.87 L418.85 5162.87 L418.85 5066.37 L455.261 5066.37 L455.261 5162.87 L610.075 5162.87 Q644.96 5162.87 654.89 5153.45 Q664.821 5143.78 664.821 5114.5 L664.821 5066.37 L704.033 5066.37 L704.033 5114.5 Q704.033 5168.73 683.918 5189.36 Q663.547 5209.98 610.075 5209.98 L455.261 5209.98 L455.261 5244.36 L418.85 5244.36 L418.85 5209.98 L337.878 5209.98 L337.878 5162.87 Z" fill="#000000" fill-rule="evenodd" fill-opacity="1" /><path clip-path="url(#clip6900)" d="M 0 0 M418.85 5017.23 L418.85 4970.38 L704.033 4970.38 L704.033 5017.23 L418.85 5017.23 M307.832 5017.23 L307.832 4970.38 L367.16 4970.38 L367.16 5017.23 L307.832 5017.23 Z" fill="#000000" fill-rule="evenodd" fill-opacity="1" /><path clip-path="url(#clip6900)" d="M 0 0 M451.697 4810.72 Q451.697 4848.41 481.234 4870.31 Q510.516 4892.21 561.696 4892.21 Q612.876 4892.21 642.413 4870.56 Q671.695 4848.66 671.695 4810.72 Q671.695 4773.29 642.159 4751.4 Q612.622 4729.5 561.696 4729.5 Q511.025 4729.5 481.488 4751.4 Q451.697 4773.29 451.697 4810.72 M411.975 4810.72 Q411.975 4749.61 451.697 4714.73 Q491.419 4679.85 561.696 4679.85 Q631.719 4679.85 671.695 4714.73 Q711.417 4749.61 711.417 4810.72 Q711.417 4872.09 671.695 4906.97 Q631.719 4941.6 561.696 4941.6 Q491.419 4941.6 451.697 4906.97 Q411.975 4872.09 411.975 4810.72 Z" fill="#000000" fill-rule="evenodd" fill-opacity="1" /><polyline clip-path="url(#clip6902)" style="stroke:#009af9; stroke-width:32; stroke-opacity:1; fill:none" points="
  2596.34,1284.22 4346.68,1372.45 6097.03,1457.31 7847.38,1609.86 9597.72,1746.43 11348.1,1996.77 13098.4,2236.82 14848.8,2492.57 16599.1,3025.49 18349.5,3219.25 
  
  "/>
<polyline clip-path="url(#clip6902)" style="stroke:#e26f46; stroke-width:32; stroke-opacity:1; fill:none" points="
  2596.34,1315.9 4346.68,1422.9 6097.03,1593.78 7847.38,1883.29 9597.72,2188.22 11348.1,2729.01 13098.4,3243.11 14848.8,3932 16599.1,4644.45 18349.5,5470.75 
  
  "/>
<polyline clip-path="url(#clip6902)" style="stroke:#3da44d; stroke-width:32; stroke-opacity:1; fill:none" points="
  2596.34,1282.05 4346.68,1488.69 6097.03,1698.55 7847.38,2114.26 9597.72,2513.81 11348.1,3338.96 13098.4,4355.84 14848.8,5556.39 16599.1,6873.22 18349.5,8408.82 
  
  "/>
<polyline clip-path="url(#clip6902)" style="stroke:#c271d2; stroke-width:32; stroke-opacity:1; fill:none" points="
  2596.34,1295.83 4346.68,1464.22 6097.03,1755.31 7847.38,2120.05 9597.72,2943.36 11348.1,4015.93 13098.4,5622.93 14848.8,7107.35 16599.1,9320.23 18349.5,11091.2 
  
  "/>
<path clip-path="url(#clip6900)" d="
M2699.74 10233.4 L5732.89 10233.4 L5732.89 7814.24 L2699.74 7814.24  Z
  " fill="#ffffff" fill-rule="evenodd" fill-opacity="1"/>
<polyline clip-path="url(#clip6900)" style="stroke:#000000; stroke-width:32; stroke-opacity:1; fill:none" points="
  2699.74,10233.4 5732.89,10233.4 5732.89,7814.24 2699.74,7814.24 2699.74,10233.4 
  "/>
<polyline clip-path="url(#clip6900)" style="stroke:#009af9; stroke-width:32; stroke-opacity:1; fill:none" points="
  2891.74,8298.08 4043.74,8298.08 
  "/>
<path clip-path="url(#clip6900)" d="M 0 0 M4235.74 8159.84 L4273.15 8159.84 L4273.15 8404.84 L4407.78 8404.84 L4407.78 8436.32 L4235.74 8436.32 L4235.74 8159.84 Z" fill="#000000" fill-rule="evenodd" fill-opacity="1" /><path clip-path="url(#clip6900)" d="M 0 0 M4568.52 8264.1 L4805.93 8264.1 L4805.93 8295.21 L4568.52 8295.21 L4568.52 8264.1 M4568.52 8339.65 L4805.93 8339.65 L4805.93 8371.13 L4568.52 8371.13 L4568.52 8339.65 Z" fill="#000000" fill-rule="evenodd" fill-opacity="1" /><path clip-path="url(#clip6900)" d="M 0 0 M5051.66 8283.17 Q5026.48 8283.17 5011.66 8300.39 Q4997.04 8317.62 4997.04 8347.62 Q4997.04 8377.43 5011.66 8394.84 Q5026.48 8412.06 5051.66 8412.06 Q5076.85 8412.06 5091.48 8394.84 Q5106.29 8377.43 5106.29 8347.62 Q5106.29 8317.62 5091.48 8300.39 Q5076.85 8283.17 5051.66 8283.17 M5125.92 8165.95 L5125.92 8200.02 Q5111.85 8193.36 5097.41 8189.84 Q5083.15 8186.32 5069.07 8186.32 Q5032.04 8186.32 5012.41 8211.32 Q4992.96 8236.32 4990.18 8286.88 Q5001.11 8270.76 5017.59 8262.25 Q5034.07 8253.54 5053.89 8253.54 Q5095.55 8253.54 5119.63 8278.91 Q5143.89 8304.1 5143.89 8347.62 Q5143.89 8390.21 5118.7 8415.95 Q5093.52 8441.69 5051.66 8441.69 Q5003.7 8441.69 4978.33 8405.02 Q4952.96 8368.17 4952.96 8298.36 Q4952.96 8232.8 4984.07 8193.91 Q5015.18 8154.84 5067.59 8154.84 Q5081.66 8154.84 5095.92 8157.62 Q5110.37 8160.39 5125.92 8165.95 Z" fill="#000000" fill-rule="evenodd" fill-opacity="1" /><polyline clip-path="url(#clip6900)" style="stroke:#e26f46; stroke-width:32; stroke-opacity:1; fill:none" points="
  2891.74,8781.92 4043.74,8781.92 
  "/>
<path clip-path="url(#clip6900)" d="M 0 0 M4235.74 8643.68 L4273.15 8643.68 L4273.15 8888.68 L4407.78 8888.68 L4407.78 8920.16 L4235.74 8920.16 L4235.74 8643.68 Z" fill="#000000" fill-rule="evenodd" fill-opacity="1" /><path clip-path="url(#clip6900)" d="M 0 0 M4568.52 8747.94 L4805.93 8747.94 L4805.93 8779.05 L4568.52 8779.05 L4568.52 8747.94 M4568.52 8823.49 L4805.93 8823.49 L4805.93 8854.97 L4568.52 8854.97 L4568.52 8823.49 Z" fill="#000000" fill-rule="evenodd" fill-opacity="1" /><path clip-path="url(#clip6900)" d="M 0 0 M5047.03 8788.86 Q5020.37 8788.86 5005 8803.12 Q4989.81 8817.38 4989.81 8842.38 Q4989.81 8867.38 5005 8881.64 Q5020.37 8895.9 5047.03 8895.9 Q5073.7 8895.9 5089.07 8881.64 Q5104.44 8867.2 5104.44 8842.38 Q5104.44 8817.38 5089.07 8803.12 Q5073.89 8788.86 5047.03 8788.86 M5009.63 8772.94 Q4985.55 8767.01 4972.04 8750.53 Q4958.7 8734.05 4958.7 8710.35 Q4958.7 8677.2 4982.22 8657.94 Q5005.92 8638.68 5047.03 8638.68 Q5088.33 8638.68 5111.85 8657.94 Q5135.37 8677.2 5135.37 8710.35 Q5135.37 8734.05 5121.85 8750.53 Q5108.52 8767.01 5084.63 8772.94 Q5111.66 8779.23 5126.66 8797.57 Q5141.85 8815.9 5141.85 8842.38 Q5141.85 8882.57 5117.22 8904.05 Q5092.78 8925.53 5047.03 8925.53 Q5001.29 8925.53 4976.66 8904.05 Q4952.22 8882.57 4952.22 8842.38 Q4952.22 8815.9 4967.41 8797.57 Q4982.59 8779.23 5009.63 8772.94 M4995.92 8713.86 Q4995.92 8735.34 5009.26 8747.38 Q5022.78 8759.42 5047.03 8759.42 Q5071.11 8759.42 5084.63 8747.38 Q5098.33 8735.34 5098.33 8713.86 Q5098.33 8692.38 5084.63 8680.35 Q5071.11 8668.31 5047.03 8668.31 Q5022.78 8668.31 5009.26 8680.35 Q4995.92 8692.38 4995.92 8713.86 Z" fill="#000000" fill-rule="evenodd" fill-opacity="1" /><polyline clip-path="url(#clip6900)" style="stroke:#3da44d; stroke-width:32; stroke-opacity:1; fill:none" points="
  2891.74,9265.76 4043.74,9265.76 
  "/>
<path clip-path="url(#clip6900)" d="M 0 0 M4235.74 9127.52 L4273.15 9127.52 L4273.15 9372.52 L4407.78 9372.52 L4407.78 9404 L4235.74 9404 L4235.74 9127.52 Z" fill="#000000" fill-rule="evenodd" fill-opacity="1" /><path clip-path="url(#clip6900)" d="M 0 0 M4568.52 9231.78 L4805.93 9231.78 L4805.93 9262.89 L4568.52 9262.89 L4568.52 9231.78 M4568.52 9307.33 L4805.93 9307.33 L4805.93 9338.81 L4568.52 9338.81 L4568.52 9307.33 Z" fill="#000000" fill-rule="evenodd" fill-opacity="1" /><path clip-path="url(#clip6900)" d="M 0 0 M4973.52 9372.52 L5034.63 9372.52 L5034.63 9161.59 L4968.15 9174.93 L4968.15 9140.85 L5034.26 9127.52 L5071.66 9127.52 L5071.66 9372.52 L5132.78 9372.52 L5132.78 9404 L4973.52 9404 L4973.52 9372.52 Z" fill="#000000" fill-rule="evenodd" fill-opacity="1" /><path clip-path="url(#clip6900)" d="M 0 0 M5253.33 9152.15 Q5224.44 9152.15 5209.81 9180.67 Q5195.37 9209 5195.37 9266.04 Q5195.37 9322.89 5209.81 9351.41 Q5224.44 9379.74 5253.33 9379.74 Q5282.4 9379.74 5296.85 9351.41 Q5311.48 9322.89 5311.48 9266.04 Q5311.48 9209 5296.85 9180.67 Q5282.4 9152.15 5253.33 9152.15 M5253.33 9122.52 Q5299.81 9122.52 5324.26 9159.37 Q5348.89 9196.04 5348.89 9266.04 Q5348.89 9335.85 5324.26 9372.7 Q5299.81 9409.37 5253.33 9409.37 Q5206.85 9409.37 5182.22 9372.7 Q5157.78 9335.85 5157.78 9266.04 Q5157.78 9196.04 5182.22 9159.37 Q5206.85 9122.52 5253.33 9122.52 Z" fill="#000000" fill-rule="evenodd" fill-opacity="1" /><polyline clip-path="url(#clip6900)" style="stroke:#c271d2; stroke-width:32; stroke-opacity:1; fill:none" points="
  2891.74,9749.6 4043.74,9749.6 
  "/>
<path clip-path="url(#clip6900)" d="M 0 0 M4235.74 9611.36 L4273.15 9611.36 L4273.15 9856.36 L4407.78 9856.36 L4407.78 9887.84 L4235.74 9887.84 L4235.74 9611.36 Z" fill="#000000" fill-rule="evenodd" fill-opacity="1" /><path clip-path="url(#clip6900)" d="M 0 0 M4568.52 9715.62 L4805.93 9715.62 L4805.93 9746.73 L4568.52 9746.73 L4568.52 9715.62 M4568.52 9791.17 L4805.93 9791.17 L4805.93 9822.65 L4568.52 9822.65 L4568.52 9791.17 Z" fill="#000000" fill-rule="evenodd" fill-opacity="1" /><path clip-path="url(#clip6900)" d="M 0 0 M4973.52 9856.36 L5034.63 9856.36 L5034.63 9645.43 L4968.15 9658.77 L4968.15 9624.69 L5034.26 9611.36 L5071.66 9611.36 L5071.66 9856.36 L5132.78 9856.36 L5132.78 9887.84 L4973.52 9887.84 L4973.52 9856.36 Z" fill="#000000" fill-rule="evenodd" fill-opacity="1" /><path clip-path="url(#clip6900)" d="M 0 0 M5205.55 9856.36 L5336.11 9856.36 L5336.11 9887.84 L5160.55 9887.84 L5160.55 9856.36 Q5181.85 9834.32 5218.52 9797.28 Q5255.37 9760.06 5264.81 9749.32 Q5282.77 9729.14 5289.81 9715.25 Q5297.03 9701.17 5297.03 9687.65 Q5297.03 9665.62 5281.48 9651.73 Q5266.11 9637.84 5241.29 9637.84 Q5223.7 9637.84 5204.07 9643.95 Q5184.63 9650.06 5162.4 9662.47 L5162.4 9624.69 Q5185 9615.62 5204.63 9610.99 Q5224.26 9606.36 5240.55 9606.36 Q5283.52 9606.36 5309.07 9627.84 Q5334.63 9649.32 5334.63 9685.25 Q5334.63 9702.28 5328.14 9717.65 Q5321.85 9732.84 5305 9753.58 Q5300.37 9758.95 5275.55 9784.69 Q5250.74 9810.25 5205.55 9856.36 Z" fill="#000000" fill-rule="evenodd" fill-opacity="1" /></svg>
