<?xml version="1.0" encoding="utf-8"?>
<svg xmlns="http://www.w3.org/2000/svg" xmlns:xlink="http://www.w3.org/1999/xlink" width="4800" height="3200" viewBox="0 0 19200 12800">
<defs>
  <clipPath id="clip9600">
    <rect x="0" y="0" width="19200" height="12800"/>
  </clipPath>
</defs>
<path clip-path="url(#clip9600)" d="
M0 12800 L19200 12800 L19200 0 L0 0  Z
  " fill="#ffffff" fill-rule="evenodd" fill-opacity="1"/>
<defs>
  <clipPath id="clip9601">
    <rect x="3840" y="0" width="13441" height="12800"/>
  </clipPath>
</defs>
<path clip-path="url(#clip9600)" d="
M1906.34 11385.4 L18822 11385.4 L18822 987.777 L1906.34 987.777  Z
  " fill="#ffffff" fill-rule="evenodd" fill-opacity="1"/>
<defs>
  <clipPath id="clip9602">
    <rect x="1906" y="987" width="16917" height="10399"/>
  </clipPath>
</defs>
<polyline clip-path="url(#clip9602)" style="stroke:#000000; stroke-width:16; stroke-opacity:0.1; fill:none" points="
  2385.08,11385.4 2385.08,987.777 
  "/>
<polyline clip-path="url(#clip9602)" style="stroke:#000000; stroke-width:16; stroke-opacity:0.1; fill:none" points="
  6374.64,11385.4 6374.64,987.777 
  "/>
<polyline clip-path="url(#clip9602)" style="stroke:#000000; stroke-width:16; stroke-opacity:0.1; fill:none" points="
  10364.2,11385.4 10364.2,987.777 
  "/>
<polyline clip-path="url(#clip9602)" style="stroke:#000000; stroke-width:16; stroke-opacity:0.1; fill:none" points="
  14353.7,11385.4 14353.7,987.777 
  "/>
<polyline clip-path="url(#clip9602)" style="stroke:#000000; stroke-width:16; stroke-opacity:0.1; fill:none" points="
  18343.3,11385.4 18343.3,987.777 
  "/>
<polyline clip-path="url(#clip9602)" style="stroke:#000000; stroke-width:16; stroke-opacity:0.1; fill:none" points="
  1906.34,10489.5 18822,10489.5 
  "/>
<polyline clip-path="url(#clip9602)" style="stroke:#000000; stroke-width:16; stroke-opacity:0.1; fill:none" points="
  1906.34,7726.93 18822,7726.93 
  "/>
<polyline clip-path="url(#clip9602)" style="stroke:#000000; stroke-width:16; stroke-opacity:0.1; fill:none" points="
  1906.34,4964.37 18822,4964.37 
  "/>
<polyline clip-path="url(#clip9602)" style="stroke:#000000; stroke-width:16; stroke-opacity:0.1; fill:none" points="
  1906.34,2201.81 18822,2201.81 
  "/>
<polyline clip-path="url(#clip9600)" style="stroke:#000000; stroke-width:32; stroke-opacity:1; fill:none" points="
  1906.34,11385.4 18822,11385.4 
  "/>
<polyline clip-path="url(#clip9600)" style="stroke:#000000; stroke-width:32; stroke-opacity:1; fill:none" points="
  1906.34,11385.4 1906.34,987.777 
  "/>
<polyline clip-path="url(#clip9600)" style="stroke:#000000; stroke-width:32; stroke-opacity:1; fill:none" points="
  2385.08,11385.4 2385.08,11260.7 
  "/>
<polyline clip-path="url(#clip9600)" style="stroke:#000000; stroke-width:32; stroke-opacity:1; fill:none" points="
  6374.64,11385.4 6374.64,11260.7 
  "/>
<polyline clip-path="url(#clip9600)" style="stroke:#000000; stroke-width:32; stroke-opacity:1; fill:none" points="
  10364.2,11385.4 10364.2,11260.7 
  "/>
<polyline clip-path="url(#clip9600)" style="stroke:#000000; stroke-width:32; stroke-opacity:1; fill:none" points="
  14353.7,11385.4 14353.7,11260.7 
  "/>
<polyline clip-path="url(#clip9600)" style="stroke:#000000; stroke-width:32; stroke-opacity:1; fill:none" points="
  18343.3,11385.4 18343.3,11260.7 
  "/>
<polyline clip-path="url(#clip9600)" style="stroke:#000000; stroke-width:32; stroke-opacity:1; fill:none" points="
  1906.34,10489.5 2109.33,10489.5 
  "/>
<polyline clip-path="url(#clip9600)" style="stroke:#000000; stroke-width:32; stroke-opacity:1; fill:none" points="
  1906.34,7726.93 2109.33,7726.93 
  "/>
<polyline clip-path="url(#clip9600)" style="stroke:#000000; stroke-width:32; stroke-opacity:1; fill:none" points="
  1906.34,4964.37 2109.33,4964.37 
  "/>
<polyline clip-path="url(#clip9600)" style="stroke:#000000; stroke-width:32; stroke-opacity:1; fill:none" points="
  1906.34,2201.81 2109.33,2201.81 
  "/>
<path clip-path="url(#clip9600)" d="M 0 0 M2239.81 11561.4 Q2210.92 11561.4 2196.29 11589.9 Q2181.84 11618.2 2181.84 11675.3 Q2181.84 11732.1 2196.29 11760.6 Q2210.92 11789 2239.81 11789 Q2268.88 11789 2283.32 11760.6 Q2297.95 11732.1 2297.95 11675.3 Q2297.95 11618.2 2283.32 11589.9 Q2268.88 11561.4 2239.81 11561.4 M2239.81 11531.7 Q2286.29 11531.7 2310.73 11568.6 Q2335.36 11605.3 2335.36 11675.3 Q2335.36 11745.1 2310.73 11781.9 Q2286.29 11818.6 2239.81 11818.6 Q2193.33 11818.6 2168.7 11781.9 Q2144.25 11745.1 2144.25 11675.3 Q2144.25 11605.3 2168.7 11568.6 Q2193.33 11531.7 2239.81 11531.7 Z" fill="#000000" fill-rule="evenodd" fill-opacity="1" /><path clip-path="url(#clip9600)" d="M 0 0 M2375.92 11766.2 L2414.99 11766.2 L2414.99 11813.2 L2375.92 11813.2 L2375.92 11766.2 Z" fill="#000000" fill-rule="evenodd" fill-opacity="1" /><path clip-path="url(#clip9600)" d="M 0 0 M2568.88 11664.1 Q2595.73 11669.9 2610.73 11688 Q2625.92 11706.2 2625.92 11732.8 Q2625.92 11773.8 2597.77 11796.2 Q2569.62 11818.6 2517.77 11818.6 Q2500.36 11818.6 2481.84 11815.1 Q2463.51 11811.7 2443.88 11804.9 L2443.88 11768.8 Q2459.43 11777.8 2477.95 11782.5 Q2496.47 11787.1 2516.66 11787.1 Q2551.84 11787.1 2570.17 11773.2 Q2588.69 11759.3 2588.69 11732.8 Q2588.69 11708.4 2571.47 11694.7 Q2554.43 11680.8 2523.88 11680.8 L2491.66 11680.8 L2491.66 11650.1 L2525.36 11650.1 Q2552.95 11650.1 2567.58 11639.1 Q2582.21 11628 2582.21 11607.3 Q2582.21 11586 2567.03 11574.7 Q2552.03 11563.2 2523.88 11563.2 Q2508.51 11563.2 2490.92 11566.5 Q2473.32 11569.9 2452.21 11576.9 L2452.21 11543.6 Q2473.51 11537.7 2492.03 11534.7 Q2510.73 11531.7 2527.21 11531.7 Q2569.8 11531.7 2594.62 11551.2 Q2619.43 11570.4 2619.43 11603.4 Q2619.43 11626.4 2606.29 11642.3 Q2593.14 11658 2568.88 11664.1 Z" fill="#000000" fill-rule="evenodd" fill-opacity="1" /><path clip-path="url(#clip9600)" d="M 0 0 M6224.82 11561.4 Q6195.93 11561.4 6181.31 11589.9 Q6166.86 11618.2 6166.86 11675.3 Q6166.86 11732.1 6181.31 11760.6 Q6195.93 11789 6224.82 11789 Q6253.9 11789 6268.34 11760.6 Q6282.97 11732.1 6282.97 11675.3 Q6282.97 11618.2 6268.34 11589.9 Q6253.9 11561.4 6224.82 11561.4 M6224.82 11531.7 Q6271.3 11531.7 6295.75 11568.6 Q6320.38 11605.3 6320.38 11675.3 Q6320.38 11745.1 6295.75 11781.9 Q6271.3 11818.6 6224.82 11818.6 Q6178.34 11818.6 6153.71 11781.9 Q6129.27 11745.1 6129.27 11675.3 Q6129.27 11605.3 6153.71 11568.6 Q6178.34 11531.7 6224.82 11531.7 Z" fill="#000000" fill-rule="evenodd" fill-opacity="1" /><path clip-path="url(#clip9600)" d="M 0 0 M6360.93 11766.2 L6400.01 11766.2 L6400.01 11813.2 L6360.93 11813.2 L6360.93 11766.2 Z" fill="#000000" fill-rule="evenodd" fill-opacity="1" /><path clip-path="url(#clip9600)" d="M 0 0 M6543.34 11569.3 L6448.9 11716.9 L6543.34 11716.9 L6543.34 11569.3 M6533.53 11536.7 L6580.56 11536.7 L6580.56 11716.9 L6620.01 11716.9 L6620.01 11748 L6580.56 11748 L6580.56 11813.2 L6543.34 11813.2 L6543.34 11748 L6418.53 11748 L6418.53 11711.9 L6533.53 11536.7 Z" fill="#000000" fill-rule="evenodd" fill-opacity="1" /><path clip-path="url(#clip9600)" d="M 0 0 M10220.3 11561.4 Q10191.4 11561.4 10176.8 11589.9 Q10162.3 11618.2 10162.3 11675.3 Q10162.3 11732.1 10176.8 11760.6 Q10191.4 11789 10220.3 11789 Q10249.4 11789 10263.8 11760.6 Q10278.5 11732.1 10278.5 11675.3 Q10278.5 11618.2 10263.8 11589.9 Q10249.4 11561.4 10220.3 11561.4 M10220.3 11531.7 Q10266.8 11531.7 10291.2 11568.6 Q10315.9 11605.3 10315.9 11675.3 Q10315.9 11745.1 10291.2 11781.9 Q10266.8 11818.6 10220.3 11818.6 Q10173.8 11818.6 10149.2 11781.9 Q10124.7 11745.1 10124.7 11675.3 Q10124.7 11605.3 10149.2 11568.6 Q10173.8 11531.7 10220.3 11531.7 Z" fill="#000000" fill-rule="evenodd" fill-opacity="1" /><path clip-path="url(#clip9600)" d="M 0 0 M10356.4 11766.2 L10395.5 11766.2 L10395.5 11813.2 L10356.4 11813.2 L10356.4 11766.2 Z" fill="#000000" fill-rule="evenodd" fill-opacity="1" /><path clip-path="url(#clip9600)" d="M 0 0 M10436.4 11536.7 L10583.3 11536.7 L10583.3 11568.2 L10470.7 11568.2 L10470.7 11636 Q10478.8 11633.2 10487 11631.9 Q10495.1 11630.4 10503.3 11630.4 Q10549.6 11630.4 10576.6 11655.8 Q10603.6 11681.2 10603.6 11724.5 Q10603.6 11769.1 10575.9 11794 Q10548.1 11818.6 10497.5 11818.6 Q10480.1 11818.6 10462 11815.6 Q10444 11812.7 10424.7 11806.7 L10424.7 11769.1 Q10441.4 11778.2 10459.2 11782.7 Q10477 11787.1 10496.8 11787.1 Q10528.8 11787.1 10547.5 11770.3 Q10566.2 11753.4 10566.2 11724.5 Q10566.2 11695.6 10547.5 11678.8 Q10528.8 11661.9 10496.8 11661.9 Q10481.8 11661.9 10466.8 11665.3 Q10452 11668.6 10436.4 11675.6 L10436.4 11536.7 Z" fill="#000000" fill-rule="evenodd" fill-opacity="1" /><path clip-path="url(#clip9600)" d="M 0 0 M14205.2 11561.4 Q14176.3 11561.4 14161.7 11589.9 Q14147.3 11618.2 14147.3 11675.3 Q14147.3 11732.1 14161.7 11760.6 Q14176.3 11789 14205.2 11789 Q14234.3 11789 14248.7 11760.6 Q14263.4 11732.1 14263.4 11675.3 Q14263.4 11618.2 14248.7 11589.9 Q14234.3 11561.4 14205.2 11561.4 M14205.2 11531.7 Q14251.7 11531.7 14276.2 11568.6 Q14300.8 11605.3 14300.8 11675.3 Q14300.8 11745.1 14276.2 11781.9 Q14251.7 11818.6 14205.2 11818.6 Q14158.7 11818.6 14134.1 11781.9 Q14109.7 11745.1 14109.7 11675.3 Q14109.7 11605.3 14134.1 11568.6 Q14158.7 11531.7 14205.2 11531.7 Z" fill="#000000" fill-rule="evenodd" fill-opacity="1" /><path clip-path="url(#clip9600)" d="M 0 0 M14341.3 11766.2 L14380.4 11766.2 L14380.4 11813.2 L14341.3 11813.2 L14341.3 11766.2 Z" fill="#000000" fill-rule="evenodd" fill-opacity="1" /><path clip-path="url(#clip9600)" d="M 0 0 M14505.6 11660.1 Q14480.4 11660.1 14465.6 11677.3 Q14451 11694.5 14451 11724.5 Q14451 11754.3 14465.6 11771.7 Q14480.4 11789 14505.6 11789 Q14530.8 11789 14545.4 11771.7 Q14560.2 11754.3 14560.2 11724.5 Q14560.2 11694.5 14545.4 11677.3 Q14530.8 11660.1 14505.6 11660.1 M14579.9 11542.8 L14579.9 11576.9 Q14565.8 11570.3 14551.3 11566.7 Q14537.1 11563.2 14523 11563.2 Q14486 11563.2 14466.3 11588.2 Q14446.9 11613.2 14444.1 11663.8 Q14455 11647.7 14471.5 11639.1 Q14488 11630.4 14507.8 11630.4 Q14549.5 11630.4 14573.6 11655.8 Q14597.8 11681 14597.8 11724.5 Q14597.8 11767.1 14572.6 11792.8 Q14547.4 11818.6 14505.6 11818.6 Q14457.6 11818.6 14432.3 11781.9 Q14406.9 11745.1 14406.9 11675.3 Q14406.9 11609.7 14438 11570.8 Q14469.1 11531.7 14521.5 11531.7 Q14535.6 11531.7 14549.9 11534.5 Q14564.3 11537.3 14579.9 11542.8 Z" fill="#000000" fill-rule="evenodd" fill-opacity="1" /><path clip-path="url(#clip9600)" d="M 0 0 M18199 11561.4 Q18170.2 11561.4 18155.5 11589.9 Q18141.1 11618.2 18141.1 11675.3 Q18141.1 11732.1 18155.5 11760.6 Q18170.2 11789 18199 11789 Q18228.1 11789 18242.6 11760.6 Q18257.2 11732.1 18257.2 11675.3 Q18257.2 11618.2 18242.6 11589.9 Q18228.1 11561.4 18199 11561.4 M18199 11531.7 Q18245.5 11531.7 18270 11568.6 Q18294.6 11605.3 18294.6 11675.3 Q18294.6 11745.1 18270 11781.9 Q18245.5 11818.6 18199 11818.6 Q18152.6 11818.6 18127.9 11781.9 Q18103.5 11745.1 18103.5 11675.3 Q18103.5 11605.3 18127.9 11568.6 Q18152.6 11531.7 18199 11531.7 Z" fill="#000000" fill-rule="evenodd" fill-opacity="1" /><path clip-path="url(#clip9600)" d="M 0 0 M18335.2 11766.2 L18374.2 11766.2 L18374.2 11813.2 L18335.2 11813.2 L18335.2 11766.2 Z" fill="#000000" fill-rule="evenodd" fill-opacity="1" /><path clip-path="url(#clip9600)" d="M 0 0 M18405.3 11536.7 L18583.1 11536.7 L18583.1 11552.7 L18482.7 11813.2 L18443.7 11813.2 L18538.1 11568.2 L18405.3 11568.2 L18405.3 11536.7 Z" fill="#000000" fill-rule="evenodd" fill-opacity="1" /><path clip-path="url(#clip9600)" d="M 0 0 M1114.9 10375.9 Q1086.01 10375.9 1071.38 10404.4 Q1056.93 10432.7 1056.93 10489.8 Q1056.93 10546.6 1071.38 10575.1 Q1086.01 10603.5 1114.9 10603.5 Q1143.97 10603.5 1158.41 10575.1 Q1173.04 10546.6 1173.04 10489.8 Q1173.04 10432.7 1158.41 10404.4 Q1143.97 10375.9 1114.9 10375.9 M1114.9 10346.3 Q1161.38 10346.3 1185.82 10383.1 Q1210.45 10419.8 1210.45 10489.8 Q1210.45 10559.6 1185.82 10596.4 Q1161.38 10633.1 1114.9 10633.1 Q1068.41 10633.1 1043.78 10596.4 Q1019.34 10559.6 1019.34 10489.8 Q1019.34 10419.8 1043.78 10383.1 Q1068.41 10346.3 1114.9 10346.3 Z" fill="#000000" fill-rule="evenodd" fill-opacity="1" /><path clip-path="url(#clip9600)" d="M 0 0 M1251.01 10580.7 L1290.08 10580.7 L1290.08 10627.7 L1251.01 10627.7 L1251.01 10580.7 Z" fill="#000000" fill-rule="evenodd" fill-opacity="1" /><path clip-path="url(#clip9600)" d="M 0 0 M1331.01 10351.3 L1477.86 10351.3 L1477.86 10382.7 L1365.26 10382.7 L1365.26 10450.5 Q1373.41 10447.7 1381.56 10446.4 Q1389.71 10445 1397.86 10445 Q1444.15 10445 1471.19 10470.3 Q1498.23 10495.7 1498.23 10539 Q1498.23 10583.7 1470.45 10608.5 Q1442.67 10633.1 1392.12 10633.1 Q1374.71 10633.1 1356.56 10630.1 Q1338.6 10627.2 1319.34 10621.3 L1319.34 10583.7 Q1336.01 10592.7 1353.78 10597.2 Q1371.56 10601.6 1391.38 10601.6 Q1423.41 10601.6 1442.12 10584.8 Q1460.82 10567.9 1460.82 10539 Q1460.82 10510.1 1442.12 10493.3 Q1423.41 10476.4 1391.38 10476.4 Q1376.38 10476.4 1361.38 10479.8 Q1346.56 10483.1 1331.01 10490.1 L1331.01 10351.3 Z" fill="#000000" fill-rule="evenodd" fill-opacity="1" /><path clip-path="url(#clip9600)" d="M 0 0 M1618.78 10375.9 Q1589.89 10375.9 1575.26 10404.4 Q1560.82 10432.7 1560.82 10489.8 Q1560.82 10546.6 1575.26 10575.1 Q1589.89 10603.5 1618.78 10603.5 Q1647.86 10603.5 1662.3 10575.1 Q1676.93 10546.6 1676.93 10489.8 Q1676.93 10432.7 1662.3 10404.4 Q1647.86 10375.9 1618.78 10375.9 M1618.78 10346.3 Q1665.26 10346.3 1689.71 10383.1 Q1714.34 10419.8 1714.34 10489.8 Q1714.34 10559.6 1689.71 10596.4 Q1665.26 10633.1 1618.78 10633.1 Q1572.3 10633.1 1547.67 10596.4 Q1523.23 10559.6 1523.23 10489.8 Q1523.23 10419.8 1547.67 10383.1 Q1572.3 10346.3 1618.78 10346.3 Z" fill="#000000" fill-rule="evenodd" fill-opacity="1" /><path clip-path="url(#clip9600)" d="M 0 0 M1122.86 7613.32 Q1093.97 7613.32 1079.34 7641.84 Q1064.9 7670.18 1064.9 7727.21 Q1064.9 7784.06 1079.34 7812.58 Q1093.97 7840.92 1122.86 7840.92 Q1151.93 7840.92 1166.38 7812.58 Q1181.01 7784.06 1181.01 7727.21 Q1181.01 7670.18 1166.38 7641.84 Q1151.93 7613.32 1122.86 7613.32 M1122.86 7583.69 Q1169.34 7583.69 1193.78 7620.55 Q1218.41 7657.21 1218.41 7727.21 Q1218.41 7797.03 1193.78 7833.88 Q1169.34 7870.55 1122.86 7870.55 Q1076.38 7870.55 1051.75 7833.88 Q1027.3 7797.03 1027.3 7727.21 Q1027.3 7657.21 1051.75 7620.55 Q1076.38 7583.69 1122.86 7583.69 Z" fill="#000000" fill-rule="evenodd" fill-opacity="1" /><path clip-path="url(#clip9600)" d="M 0 0 M1258.97 7818.14 L1298.04 7818.14 L1298.04 7865.17 L1258.97 7865.17 L1258.97 7818.14 Z" fill="#000000" fill-rule="evenodd" fill-opacity="1" /><path clip-path="url(#clip9600)" d="M 0 0 M1338.97 7588.69 L1485.82 7588.69 L1485.82 7620.18 L1373.23 7620.18 L1373.23 7687.95 Q1381.38 7685.18 1389.52 7683.88 Q1397.67 7682.4 1405.82 7682.4 Q1452.12 7682.4 1479.15 7707.77 Q1506.19 7733.14 1506.19 7776.47 Q1506.19 7821.1 1478.41 7845.92 Q1450.63 7870.55 1400.08 7870.55 Q1382.67 7870.55 1364.52 7867.58 Q1346.56 7864.62 1327.3 7858.69 L1327.3 7821.1 Q1343.97 7830.17 1361.75 7834.62 Q1379.52 7839.06 1399.34 7839.06 Q1431.38 7839.06 1450.08 7822.21 Q1468.78 7805.36 1468.78 7776.47 Q1468.78 7747.58 1450.08 7730.73 Q1431.38 7713.88 1399.34 7713.88 Q1384.34 7713.88 1369.34 7717.21 Q1354.52 7720.55 1338.97 7727.58 L1338.97 7588.69 Z" fill="#000000" fill-rule="evenodd" fill-opacity="1" /><path clip-path="url(#clip9600)" d="M 0 0 M1547.12 7588.69 L1693.97 7588.69 L1693.97 7620.18 L1581.37 7620.18 L1581.37 7687.95 Q1589.52 7685.18 1597.67 7683.88 Q1605.82 7682.4 1613.97 7682.4 Q1660.26 7682.4 1687.3 7707.77 Q1714.34 7733.14 1714.34 7776.47 Q1714.34 7821.1 1686.56 7845.92 Q1658.78 7870.55 1608.23 7870.55 Q1590.82 7870.55 1572.67 7867.58 Q1554.71 7864.62 1535.45 7858.69 L1535.45 7821.1 Q1552.12 7830.17 1569.89 7834.62 Q1587.67 7839.06 1607.49 7839.06 Q1639.52 7839.06 1658.23 7822.21 Q1676.93 7805.36 1676.93 7776.47 Q1676.93 7747.58 1658.23 7730.73 Q1639.52 7713.88 1607.49 7713.88 Q1592.49 7713.88 1577.49 7717.21 Q1562.67 7720.55 1547.12 7727.58 L1547.12 7588.69 Z" fill="#000000" fill-rule="evenodd" fill-opacity="1" /><path clip-path="url(#clip9600)" d="M 0 0 M1105.64 4850.76 Q1076.75 4850.76 1062.12 4879.28 Q1047.67 4907.61 1047.67 4964.65 Q1047.67 5021.5 1062.12 5050.02 Q1076.75 5078.35 1105.64 5078.35 Q1134.71 5078.35 1149.15 5050.02 Q1163.78 5021.5 1163.78 4964.65 Q1163.78 4907.61 1149.15 4879.28 Q1134.71 4850.76 1105.64 4850.76 M1105.64 4821.13 Q1152.12 4821.13 1176.56 4857.98 Q1201.19 4894.65 1201.19 4964.65 Q1201.19 5034.46 1176.56 5071.31 Q1152.12 5107.98 1105.64 5107.98 Q1059.16 5107.98 1034.53 5071.31 Q1010.08 5034.46 1010.08 4964.65 Q1010.08 4894.65 1034.53 4857.98 Q1059.16 4821.13 1105.64 4821.13 Z" fill="#000000" fill-rule="evenodd" fill-opacity="1" /><path clip-path="url(#clip9600)" d="M 0 0 M1241.75 5055.57 L1280.82 5055.57 L1280.82 5102.61 L1241.75 5102.61 L1241.75 5055.57 Z" fill="#000000" fill-rule="evenodd" fill-opacity="1" /><path clip-path="url(#clip9600)" d="M 0 0 M1406.01 4949.46 Q1380.82 4949.46 1366.01 4966.69 Q1351.38 4983.91 1351.38 5013.91 Q1351.38 5043.72 1366.01 5061.13 Q1380.82 5078.35 1406.01 5078.35 Q1431.19 5078.35 1445.82 5061.13 Q1460.63 5043.72 1460.63 5013.91 Q1460.63 4983.91 1445.82 4966.69 Q1431.19 4949.46 1406.01 4949.46 M1480.26 4832.24 L1480.26 4866.32 Q1466.19 4859.65 1451.75 4856.13 Q1437.49 4852.61 1423.41 4852.61 Q1386.38 4852.61 1366.75 4877.61 Q1347.3 4902.61 1344.52 4953.17 Q1355.45 4937.06 1371.93 4928.54 Q1388.41 4919.83 1408.23 4919.83 Q1449.89 4919.83 1473.97 4945.2 Q1498.23 4970.39 1498.23 5013.91 Q1498.23 5056.5 1473.04 5082.24 Q1447.86 5107.98 1406.01 5107.98 Q1358.04 5107.98 1332.67 5071.31 Q1307.3 5034.46 1307.3 4964.65 Q1307.3 4899.09 1338.41 4860.2 Q1369.52 4821.13 1421.93 4821.13 Q1436 4821.13 1450.26 4823.91 Q1464.71 4826.69 1480.26 4832.24 Z" fill="#000000" fill-rule="evenodd" fill-opacity="1" /><path clip-path="url(#clip9600)" d="M 0 0 M1618.78 4850.76 Q1589.89 4850.76 1575.26 4879.28 Q1560.82 4907.61 1560.82 4964.65 Q1560.82 5021.5 1575.26 5050.02 Q1589.89 5078.35 1618.78 5078.35 Q1647.86 5078.35 1662.3 5050.02 Q1676.93 5021.5 1676.93 4964.65 Q1676.93 4907.61 1662.3 4879.28 Q1647.86 4850.76 1618.78 4850.76 M1618.78 4821.13 Q1665.26 4821.13 1689.71 4857.98 Q1714.34 4894.65 1714.34 4964.65 Q1714.34 5034.46 1689.71 5071.31 Q1665.26 5107.98 1618.78 5107.98 Q1572.3 5107.98 1547.67 5071.31 Q1523.23 5034.46 1523.23 4964.65 Q1523.23 4894.65 1547.67 4857.98 Q1572.3 4821.13 1618.78 4821.13 Z" fill="#000000" fill-rule="evenodd" fill-opacity="1" /><path clip-path="url(#clip9600)" d="M 0 0 M1113.6 2088.2 Q1084.71 2088.2 1070.08 2116.71 Q1055.64 2145.05 1055.64 2202.08 Q1055.64 2258.94 1070.08 2287.45 Q1084.71 2315.79 1113.6 2315.79 Q1142.67 2315.79 1157.12 2287.45 Q1171.75 2258.94 1171.75 2202.08 Q1171.75 2145.05 1157.12 2116.71 Q1142.67 2088.2 1113.6 2088.2 M1113.6 2058.57 Q1160.08 2058.57 1184.52 2095.42 Q1209.15 2132.08 1209.15 2202.08 Q1209.15 2271.9 1184.52 2308.75 Q1160.08 2345.42 1113.6 2345.42 Q1067.12 2345.42 1042.49 2308.75 Q1018.04 2271.9 1018.04 2202.08 Q1018.04 2132.08 1042.49 2095.42 Q1067.12 2058.57 1113.6 2058.57 Z" fill="#000000" fill-rule="evenodd" fill-opacity="1" /><path clip-path="url(#clip9600)" d="M 0 0 M1249.71 2293.01 L1288.78 2293.01 L1288.78 2340.05 L1249.71 2340.05 L1249.71 2293.01 Z" fill="#000000" fill-rule="evenodd" fill-opacity="1" /><path clip-path="url(#clip9600)" d="M 0 0 M1413.97 2186.9 Q1388.78 2186.9 1373.97 2204.12 Q1359.34 2221.34 1359.34 2251.34 Q1359.34 2281.16 1373.97 2298.57 Q1388.78 2315.79 1413.97 2315.79 Q1439.15 2315.79 1453.78 2298.57 Q1468.6 2281.16 1468.6 2251.34 Q1468.6 2221.34 1453.78 2204.12 Q1439.15 2186.9 1413.97 2186.9 M1488.23 2069.68 L1488.23 2103.75 Q1474.15 2097.08 1459.71 2093.57 Q1445.45 2090.05 1431.38 2090.05 Q1394.34 2090.05 1374.71 2115.05 Q1355.26 2140.05 1352.49 2190.6 Q1363.41 2174.49 1379.89 2165.97 Q1396.38 2157.27 1416.19 2157.27 Q1457.86 2157.27 1481.93 2182.64 Q1506.19 2207.82 1506.19 2251.34 Q1506.19 2293.94 1481 2319.68 Q1455.82 2345.42 1413.97 2345.42 Q1366.01 2345.42 1340.64 2308.75 Q1315.26 2271.9 1315.26 2202.08 Q1315.26 2136.53 1346.38 2097.64 Q1377.49 2058.57 1429.89 2058.57 Q1443.97 2058.57 1458.23 2061.34 Q1472.67 2064.12 1488.23 2069.68 Z" fill="#000000" fill-rule="evenodd" fill-opacity="1" /><path clip-path="url(#clip9600)" d="M 0 0 M1547.12 2063.57 L1693.97 2063.57 L1693.97 2095.05 L1581.37 2095.05 L1581.37 2162.83 Q1589.52 2160.05 1597.67 2158.75 Q1605.82 2157.27 1613.97 2157.27 Q1660.26 2157.27 1687.3 2182.64 Q1714.34 2208.01 1714.34 2251.34 Q1714.34 2295.97 1686.56 2320.79 Q1658.78 2345.42 1608.23 2345.42 Q1590.82 2345.42 1572.67 2342.45 Q1554.71 2339.49 1535.45 2333.56 L1535.45 2295.97 Q1552.12 2305.05 1569.89 2309.49 Q1587.67 2313.94 1607.49 2313.94 Q1639.52 2313.94 1658.23 2297.08 Q1676.93 2280.23 1676.93 2251.34 Q1676.93 2222.45 1658.23 2205.6 Q1639.52 2188.75 1607.49 2188.75 Q1592.49 2188.75 1577.49 2192.08 Q1562.67 2195.42 1547.12 2202.45 L1547.12 2063.57 Z" fill="#000000" fill-rule="evenodd" fill-opacity="1" /><path clip-path="url(#clip9600)" d="M 0 0 M4861.61 228.341 L4861.61 284.73 Q4836.33 271.767 4809.11 265.286 Q4781.88 258.804 4752.72 258.804 Q4708.32 258.804 4685.96 272.415 Q4663.92 286.026 4663.92 313.248 Q4663.92 333.989 4679.8 345.98 Q4695.68 357.646 4743.64 368.341 L4764.06 372.878 Q4827.58 386.489 4854.15 411.442 Q4881.05 436.072 4881.05 480.47 Q4881.05 531.025 4840.87 560.516 Q4801 590.006 4731 590.006 Q4701.84 590.006 4670.08 584.173 Q4638.64 578.664 4603.64 567.321 L4603.64 505.747 Q4636.7 522.923 4668.78 531.673 Q4700.87 540.099 4732.3 540.099 Q4774.43 540.099 4797.12 525.84 Q4819.8 511.257 4819.8 485.007 Q4819.8 460.701 4803.27 447.738 Q4787.07 434.775 4731.65 422.785 L4710.91 417.924 Q4655.5 406.257 4630.87 382.276 Q4606.24 357.97 4606.24 315.841 Q4606.24 264.637 4642.53 236.767 Q4678.83 208.897 4745.59 208.897 Q4778.64 208.897 4807.81 213.758 Q4836.98 218.619 4861.61 228.341 Z" fill="#000000" fill-rule="evenodd" fill-opacity="1" /><path clip-path="url(#clip9600)" d="M 0 0 M4943.6 217.647 L5003.23 217.647 L5003.23 580.608 L4943.6 580.608 L4943.6 217.647 M4943.6 76.3514 L5003.23 76.3514 L5003.23 151.86 L4943.6 151.86 L4943.6 76.3514 Z" fill="#000000" fill-rule="evenodd" fill-opacity="1" /><path clip-path="url(#clip9600)" d="M 0 0 M5039.85 217.647 L5323.08 217.647 L5323.08 272.091 L5098.83 532.969 L5323.08 532.969 L5323.08 580.608 L5031.74 580.608 L5031.74 526.164 L5256 265.286 L5039.85 265.286 L5039.85 217.647 Z" fill="#000000" fill-rule="evenodd" fill-opacity="1" /><path clip-path="url(#clip9600)" d="M 0 0 M5696.09 384.22 L5696.09 413.387 L5421.93 413.387 Q5425.82 474.96 5458.87 507.368 Q5492.25 539.451 5551.56 539.451 Q5585.91 539.451 5617.99 531.025 Q5650.4 522.599 5682.16 505.747 L5682.16 562.136 Q5650.07 575.747 5616.37 582.877 Q5582.67 590.006 5547.99 590.006 Q5461.14 590.006 5410.26 539.451 Q5359.7 488.896 5359.7 402.692 Q5359.7 313.572 5407.67 261.397 Q5455.95 208.897 5537.62 208.897 Q5610.86 208.897 5653.31 256.212 Q5696.09 303.202 5696.09 384.22 M5636.46 366.72 Q5635.81 317.785 5608.92 288.619 Q5582.34 259.452 5538.27 259.452 Q5488.36 259.452 5458.22 287.647 Q5428.41 315.841 5423.87 367.044 L5636.46 366.72 Z" fill="#000000" fill-rule="evenodd" fill-opacity="1" /><path clip-path="url(#clip9600)" d="M 0 0 M5773.87 498.294 L5842.25 498.294 L5842.25 580.608 L5773.87 580.608 L5773.87 498.294 M5773.87 237.415 L5842.25 237.415 L5842.25 319.73 L5773.87 319.73 L5773.87 237.415 Z" fill="#000000" fill-rule="evenodd" fill-opacity="1" /><path clip-path="url(#clip9600)" d="M 0 0 M6061.32 312.6 Q6017.25 312.6 5991.32 342.739 Q5965.72 372.878 5965.72 425.377 Q5965.72 477.553 5991.32 508.016 Q6017.25 538.155 6061.32 538.155 Q6105.4 538.155 6131 508.016 Q6156.92 477.553 6156.92 425.377 Q6156.92 372.878 6131 342.739 Q6105.4 312.6 6061.32 312.6 M6191.27 107.462 L6191.27 167.092 Q6166.65 155.425 6141.37 149.268 Q6116.41 143.11 6091.78 143.11 Q6026.97 143.11 5992.62 186.86 Q5958.59 230.61 5953.73 319.082 Q5972.85 290.887 6001.69 275.98 Q6030.53 260.749 6065.21 260.749 Q6138.13 260.749 6180.26 305.147 Q6222.71 349.22 6222.71 425.377 Q6222.71 499.914 6178.64 544.96 Q6134.56 590.006 6061.32 590.006 Q5977.39 590.006 5932.99 525.84 Q5888.59 461.349 5888.59 339.174 Q5888.59 224.453 5943.04 156.397 Q5997.48 88.018 6089.19 88.018 Q6113.82 88.018 6138.77 92.8791 Q6164.05 97.7402 6191.27 107.462 Z" fill="#000000" fill-rule="evenodd" fill-opacity="1" /><path clip-path="url(#clip9600)" d="M 0 0 M6300.49 498.294 L6368.87 498.294 L6368.87 554.034 L6315.72 657.737 L6273.91 657.737 L6300.49 554.034 L6300.49 498.294 Z" fill="#000000" fill-rule="evenodd" fill-opacity="1" /><path clip-path="url(#clip9600)" d="M 0 0 M6579.84 350.841 Q6533.17 350.841 6506.27 375.794 Q6479.7 400.748 6479.7 444.498 Q6479.7 488.247 6506.27 513.201 Q6533.17 538.155 6579.84 538.155 Q6626.5 538.155 6653.4 513.201 Q6680.3 487.923 6680.3 444.498 Q6680.3 400.748 6653.4 375.794 Q6626.83 350.841 6579.84 350.841 M6514.37 322.97 Q6472.25 312.6 6448.59 283.758 Q6425.25 254.915 6425.25 213.434 Q6425.25 155.425 6466.41 121.722 Q6507.89 88.018 6579.84 88.018 Q6652.11 88.018 6693.26 121.722 Q6734.42 155.425 6734.42 213.434 Q6734.42 254.915 6710.76 283.758 Q6687.43 312.6 6645.62 322.97 Q6692.94 333.989 6719.19 366.072 Q6745.76 398.155 6745.76 444.498 Q6745.76 514.821 6702.66 552.414 Q6659.88 590.006 6579.84 590.006 Q6499.79 590.006 6456.69 552.414 Q6413.91 514.821 6413.91 444.498 Q6413.91 398.155 6440.49 366.072 Q6467.06 333.989 6514.37 322.97 M6490.39 219.591 Q6490.39 257.184 6513.73 278.249 Q6537.38 299.313 6579.84 299.313 Q6621.97 299.313 6645.62 278.249 Q6669.61 257.184 6669.61 219.591 Q6669.61 181.999 6645.62 160.934 Q6621.97 139.87 6579.84 139.87 Q6537.38 139.87 6513.73 160.934 Q6490.39 181.999 6490.39 219.591 Z" fill="#000000" fill-rule="evenodd" fill-opacity="1" /><path clip-path="url(#clip9600)" d="M 0 0 M6823.54 498.294 L6891.92 498.294 L6891.92 554.034 L6838.77 657.737 L6796.97 657.737 L6823.54 554.034 L6823.54 498.294 Z" fill="#000000" fill-rule="evenodd" fill-opacity="1" /><path clip-path="url(#clip9600)" d="M 0 0 M6974.23 525.516 L7081.18 525.516 L7081.18 156.397 L6964.84 179.731 L6964.84 120.101 L7080.53 96.768 L7145.99 96.768 L7145.99 525.516 L7252.94 525.516 L7252.94 580.608 L6974.23 580.608 L6974.23 525.516 Z" fill="#000000" fill-rule="evenodd" fill-opacity="1" /><path clip-path="url(#clip9600)" d="M 0 0 M7463.91 139.87 Q7413.35 139.87 7387.75 189.777 Q7362.47 239.36 7362.47 339.174 Q7362.47 438.664 7387.75 488.571 Q7413.35 538.155 7463.91 538.155 Q7514.79 538.155 7540.06 488.571 Q7565.67 438.664 7565.67 339.174 Q7565.67 239.36 7540.06 189.777 Q7514.79 139.87 7463.91 139.87 M7463.91 88.018 Q7545.25 88.018 7588.03 152.508 Q7631.13 216.675 7631.13 339.174 Q7631.13 461.349 7588.03 525.84 Q7545.25 590.006 7463.91 590.006 Q7382.56 590.006 7339.46 525.84 Q7296.69 461.349 7296.69 339.174 Q7296.69 216.675 7339.46 152.508 Q7382.56 88.018 7463.91 88.018 Z" fill="#000000" fill-rule="evenodd" fill-opacity="1" /><path clip-path="url(#clip9600)" d="M 0 0 M7708.91 498.294 L7777.28 498.294 L7777.28 554.034 L7724.14 657.737 L7682.33 657.737 L7708.91 554.034 L7708.91 498.294 Z" fill="#000000" fill-rule="evenodd" fill-opacity="1" /><path clip-path="url(#clip9600)" d="M 0 0 M7859.6 525.516 L7966.54 525.516 L7966.54 156.397 L7850.2 179.731 L7850.2 120.101 L7965.89 96.768 L8031.36 96.768 L8031.36 525.516 L8138.3 525.516 L8138.3 580.608 L7859.6 580.608 L7859.6 525.516 Z" fill="#000000" fill-rule="evenodd" fill-opacity="1" /><path clip-path="url(#clip9600)" d="M 0 0 M8265.66 525.516 L8494.13 525.516 L8494.13 580.608 L8186.91 580.608 L8186.91 525.516 Q8224.18 486.951 8288.35 422.137 Q8352.84 356.998 8369.36 338.202 Q8400.8 302.878 8413.11 278.573 Q8425.75 253.943 8425.75 230.286 Q8425.75 191.721 8398.53 167.416 Q8371.63 143.11 8328.21 143.11 Q8297.42 143.11 8263.07 153.805 Q8229.04 164.499 8190.15 186.212 L8190.15 120.101 Q8229.69 104.222 8264.04 96.1199 Q8298.39 88.018 8326.91 88.018 Q8402.1 88.018 8446.82 125.61 Q8491.54 163.203 8491.54 226.073 Q8491.54 255.888 8480.2 282.786 Q8469.18 309.359 8439.69 345.656 Q8431.59 355.054 8388.16 400.1 Q8344.74 444.822 8265.66 525.516 Z" fill="#000000" fill-rule="evenodd" fill-opacity="1" /><path clip-path="url(#clip9600)" d="M 0 0 M8571.91 498.294 L8640.29 498.294 L8640.29 554.034 L8587.14 657.737 L8545.34 657.737 L8571.91 554.034 L8571.91 498.294 Z" fill="#000000" fill-rule="evenodd" fill-opacity="1" /><path clip-path="url(#clip9600)" d="M 0 0 M8722.6 525.516 L8829.55 525.516 L8829.55 156.397 L8713.21 179.731 L8713.21 120.101 L8828.9 96.768 L8894.36 96.768 L8894.36 525.516 L9001.31 525.516 L9001.31 580.608 L8722.6 580.608 L8722.6 525.516 Z" fill="#000000" fill-rule="evenodd" fill-opacity="1" /><path clip-path="url(#clip9600)" d="M 0 0 M9252.14 153.805 L9086.86 412.09 L9252.14 412.09 L9252.14 153.805 M9234.96 96.768 L9317.28 96.768 L9317.28 412.09 L9386.3 412.09 L9386.3 466.535 L9317.28 466.535 L9317.28 580.608 L9252.14 580.608 L9252.14 466.535 L9033.71 466.535 L9033.71 403.34 L9234.96 96.768 Z" fill="#000000" fill-rule="evenodd" fill-opacity="1" /><path clip-path="url(#clip9600)" d="M 0 0 M9464.08 498.294 L9532.46 498.294 L9532.46 554.034 L9479.31 657.737 L9437.51 657.737 L9464.08 554.034 L9464.08 498.294 Z" fill="#000000" fill-rule="evenodd" fill-opacity="1" /><path clip-path="url(#clip9600)" d="M 0 0 M9614.77 525.516 L9721.72 525.516 L9721.72 156.397 L9605.38 179.731 L9605.38 120.101 L9721.07 96.768 L9786.53 96.768 L9786.53 525.516 L9893.48 525.516 L9893.48 580.608 L9614.77 580.608 L9614.77 525.516 Z" fill="#000000" fill-rule="evenodd" fill-opacity="1" /><path clip-path="url(#clip9600)" d="M 0 0 M10112.5 312.6 Q10068.5 312.6 10042.6 342.739 Q10016.9 372.878 10016.9 425.377 Q10016.9 477.553 10042.6 508.016 Q10068.5 538.155 10112.5 538.155 Q10156.6 538.155 10182.2 508.016 Q10208.2 477.553 10208.2 425.377 Q10208.2 372.878 10182.2 342.739 Q10156.6 312.6 10112.5 312.6 M10242.5 107.462 L10242.5 167.092 Q10217.9 155.425 10192.6 149.268 Q10167.6 143.11 10143 143.11 Q10078.2 143.11 10043.8 186.86 Q10009.8 230.61 10005 319.082 Q10024.1 290.887 10052.9 275.98 Q10081.8 260.749 10116.4 260.749 Q10189.4 260.749 10231.5 305.147 Q10273.9 349.22 10273.9 425.377 Q10273.9 499.914 10229.9 544.96 Q10185.8 590.006 10112.5 590.006 Q10028.6 590.006 9984.22 525.84 Q9939.82 461.349 9939.82 339.174 Q9939.82 224.453 9994.26 156.397 Q10048.7 88.018 10140.4 88.018 Q10165 88.018 10190 92.8791 Q10215.3 97.7402 10242.5 107.462 Z" fill="#000000" fill-rule="evenodd" fill-opacity="1" /><path clip-path="url(#clip9600)" d="M 0 0 M10351.7 237.415 L10420.1 237.415 L10420.1 319.73 L10351.7 319.73 L10351.7 237.415 M10351.7 498.294 L10420.1 498.294 L10420.1 554.034 L10366.9 657.737 L10325.1 657.737 L10351.7 554.034 L10351.7 498.294 Z" fill="#000000" fill-rule="evenodd" fill-opacity="1" /><path clip-path="url(#clip9600)" d="M 0 0 M10892.6 141.166 Q10821.3 141.166 10779.2 194.314 Q10737.4 247.462 10737.4 339.174 Q10737.4 430.563 10779.2 483.71 Q10821.3 536.858 10892.6 536.858 Q10963.9 536.858 11005.4 483.71 Q11047.2 430.563 11047.2 339.174 Q11047.2 247.462 11005.4 194.314 Q10963.9 141.166 10892.6 141.166 M10984.3 571.858 L11070.5 666.163 L10991.4 666.163 L10919.8 588.71 Q10909.1 589.358 10903.3 589.682 Q10897.8 590.006 10892.6 590.006 Q10790.5 590.006 10729.3 521.951 Q10668.3 453.572 10668.3 339.174 Q10668.3 224.453 10729.3 156.397 Q10790.5 88.018 10892.6 88.018 Q10994.4 88.018 11055.3 156.397 Q11116.2 224.453 11116.2 339.174 Q11116.2 423.433 11082.2 483.386 Q11048.5 543.34 10984.3 571.858 Z" fill="#000000" fill-rule="evenodd" fill-opacity="1" /><path clip-path="url(#clip9600)" d="M 0 0 M11397.5 279.221 L11813 279.221 L11813 333.665 L11397.5 333.665 L11397.5 279.221 M11397.5 411.442 L11813 411.442 L11813 466.535 L11397.5 466.535 L11397.5 411.442 Z" fill="#000000" fill-rule="evenodd" fill-opacity="1" /><path clip-path="url(#clip9600)" d="M 0 0 M12106.2 525.516 L12213.2 525.516 L12213.2 156.397 L12096.8 179.731 L12096.8 120.101 L12212.5 96.768 L12278 96.768 L12278 525.516 L12384.9 525.516 L12384.9 580.608 L12106.2 580.608 L12106.2 525.516 Z" fill="#000000" fill-rule="evenodd" fill-opacity="1" /><path clip-path="url(#clip9600)" d="M 0 0 M12604 312.6 Q12559.9 312.6 12534 342.739 Q12508.4 372.878 12508.4 425.377 Q12508.4 477.553 12534 508.016 Q12559.9 538.155 12604 538.155 Q12648.1 538.155 12673.7 508.016 Q12699.6 477.553 12699.6 425.377 Q12699.6 372.878 12673.7 342.739 Q12648.1 312.6 12604 312.6 M12734 107.462 L12734 167.092 Q12709.3 155.425 12684.1 149.268 Q12659.1 143.11 12634.5 143.11 Q12569.7 143.11 12535.3 186.86 Q12501.3 230.61 12496.4 319.082 Q12515.5 290.887 12544.4 275.98 Q12573.2 260.749 12607.9 260.749 Q12680.8 260.749 12723 305.147 Q12765.4 349.22 12765.4 425.377 Q12765.4 499.914 12721.3 544.96 Q12677.3 590.006 12604 590.006 Q12520.1 590.006 12475.7 525.84 Q12431.3 461.349 12431.3 339.174 Q12431.3 224.453 12485.7 156.397 Q12540.2 88.018 12631.9 88.018 Q12656.5 88.018 12681.5 92.8791 Q12706.7 97.7402 12734 107.462 Z" fill="#000000" fill-rule="evenodd" fill-opacity="1" /><path clip-path="url(#clip9600)" d="M 0 0 M12843.2 237.415 L12911.6 237.415 L12911.6 319.73 L12843.2 319.73 L12843.2 237.415 M12843.2 498.294 L12911.6 498.294 L12911.6 554.034 L12858.4 657.737 L12816.6 657.737 L12843.2 554.034 L12843.2 498.294 Z" fill="#000000" fill-rule="evenodd" fill-opacity="1" /><path clip-path="url(#clip9600)" d="M 0 0 M13187.7 96.768 L13253.1 96.768 L13253.1 546.904 Q13253.1 634.404 13219.8 673.941 Q13186.7 713.478 13113.1 713.478 L13088.2 713.478 L13088.2 658.385 L13108.6 658.385 Q13152 658.385 13169.8 634.08 Q13187.7 609.775 13187.7 546.904 L13187.7 96.768 Z" fill="#000000" fill-rule="evenodd" fill-opacity="1" /><path clip-path="url(#clip9600)" d="M 0 0 M13591.5 690.793 L13591.5 737.135 L13246.7 737.135 L13246.7 690.793 L13591.5 690.793 Z" fill="#000000" fill-rule="evenodd" fill-opacity="1" /><path clip-path="url(#clip9600)" d="M 0 0 M13802.4 139.87 Q13751.9 139.87 13726.3 189.777 Q13701 239.36 13701 339.174 Q13701 438.664 13726.3 488.571 Q13751.9 538.155 13802.4 538.155 Q13853.3 538.155 13878.6 488.571 Q13904.2 438.664 13904.2 339.174 Q13904.2 239.36 13878.6 189.777 Q13853.3 139.87 13802.4 139.87 M13802.4 88.018 Q13883.8 88.018 13926.6 152.508 Q13969.7 216.675 13969.7 339.174 Q13969.7 461.349 13926.6 525.84 Q13883.8 590.006 13802.4 590.006 Q13721.1 590.006 13678 525.84 Q13635.2 461.349 13635.2 339.174 Q13635.2 216.675 13678 152.508 Q13721.1 88.018 13802.4 88.018 Z" fill="#000000" fill-rule="evenodd" fill-opacity="1" /><path clip-path="url(#clip9600)" d="M 0 0 M14251 279.221 L14666.4 279.221 L14666.4 333.665 L14251 333.665 L14251 279.221 M14251 411.442 L14666.4 411.442 L14666.4 466.535 L14251 466.535 L14251 411.442 Z" fill="#000000" fill-rule="evenodd" fill-opacity="1" /><path clip-path="url(#clip9600)" d="M 0 0 M15088.4 139.87 Q15037.8 139.87 15012.2 189.777 Q14986.9 239.36 14986.9 339.174 Q14986.9 438.664 15012.2 488.571 Q15037.8 538.155 15088.4 538.155 Q15139.2 538.155 15164.5 488.571 Q15190.1 438.664 15190.1 339.174 Q15190.1 239.36 15164.5 189.777 Q15139.2 139.87 15088.4 139.87 M15088.4 88.018 Q15169.7 88.018 15212.5 152.508 Q15255.6 216.675 15255.6 339.174 Q15255.6 461.349 15212.5 525.84 Q15169.7 590.006 15088.4 590.006 Q15007 590.006 14963.9 525.84 Q14921.1 461.349 14921.1 339.174 Q14921.1 216.675 14963.9 152.508 Q15007 88.018 15088.4 88.018 Z" fill="#000000" fill-rule="evenodd" fill-opacity="1" /><path clip-path="url(#clip9600)" d="M 0 0 M15326.5 498.294 L15394.9 498.294 L15394.9 580.608 L15326.5 580.608 L15326.5 498.294 Z" fill="#000000" fill-rule="evenodd" fill-opacity="1" /><path clip-path="url(#clip9600)" d="M 0 0 M15449.4 96.768 L15760.5 96.768 L15760.5 124.638 L15584.8 580.608 L15516.5 580.608 L15681.7 151.86 L15449.4 151.86 L15449.4 96.768 Z" fill="#000000" fill-rule="evenodd" fill-opacity="1" /><path clip-path="url(#clip9600)" d="M 0 0 M15832.1 96.768 L16089.1 96.768 L16089.1 151.86 L15892.1 151.86 L15892.1 270.471 Q15906.3 265.61 15920.6 263.341 Q15934.8 260.749 15949.1 260.749 Q16030.1 260.749 16077.4 305.147 Q16124.7 349.544 16124.7 425.377 Q16124.7 503.479 16076.1 546.904 Q16027.5 590.006 15939 590.006 Q15908.6 590.006 15876.8 584.821 Q15845.4 579.636 15811.7 569.265 L15811.7 503.479 Q15840.9 519.358 15872 527.136 Q15903.1 534.914 15937.8 534.914 Q15993.8 534.914 16026.5 505.423 Q16059.3 475.933 16059.3 425.377 Q16059.3 374.822 16026.5 345.331 Q15993.8 315.841 15937.8 315.841 Q15911.5 315.841 15885.3 321.674 Q15859.3 327.508 15832.1 339.822 L15832.1 96.768 Z" fill="#000000" fill-rule="evenodd" fill-opacity="1" /><path clip-path="url(#clip9600)" d="M 0 0 M10203.4 12068.2 L10525 12068.2 L10525 12111.5 L10390 12111.5 L10390 12448.4 L10338.3 12448.4 L10338.3 12111.5 L10203.4 12111.5 L10203.4 12068.2 Z" fill="#000000" fill-rule="evenodd" fill-opacity="1" /><path clip-path="url(#clip9600)" d="M 0 0 M522.483 7641.94 L661.765 7641.94 L661.765 7559.44 Q661.765 7517.93 644.705 7498.07 Q627.39 7477.96 591.997 7477.96 Q556.349 7477.96 539.543 7498.07 Q522.483 7517.93 522.483 7559.44 L522.483 7641.94 M366.142 7641.94 L480.724 7641.94 L480.724 7565.8 Q480.724 7528.12 466.72 7509.78 Q452.461 7491.2 423.433 7491.2 Q394.66 7491.2 380.401 7509.78 Q366.142 7528.12 366.142 7565.8 L366.142 7641.94 M323.873 7693.37 L323.873 7561.98 Q323.873 7503.16 348.318 7471.33 Q372.762 7439.51 417.831 7439.51 Q452.715 7439.51 473.34 7455.8 Q493.965 7472.1 499.058 7503.67 Q507.206 7465.73 533.178 7444.85 Q558.895 7423.72 597.599 7423.72 Q648.524 7423.72 676.279 7458.35 Q704.033 7492.98 704.033 7556.89 L704.033 7693.37 L323.873 7693.37 Z" fill="#000000" fill-rule="evenodd" fill-opacity="1" /><path clip-path="url(#clip9600)" d="M 0 0 M418.85 7374.58 L418.85 7327.72 L704.033 7327.72 L704.033 7374.58 L418.85 7374.58 M307.832 7374.58 L307.832 7327.72 L367.16 7327.72 L367.16 7374.58 L307.832 7374.58 Z" fill="#000000" fill-rule="evenodd" fill-opacity="1" /><path clip-path="url(#clip9600)" d="M 0 0 M531.905 7041.52 L704.033 7041.52 L704.033 7088.37 L533.432 7088.37 Q492.946 7088.37 472.831 7104.16 Q452.715 7119.95 452.715 7151.52 Q452.715 7189.46 476.905 7211.36 Q501.095 7233.26 542.854 7233.26 L704.033 7233.26 L704.033 7280.36 L418.85 7280.36 L418.85 7233.26 L463.155 7233.26 Q437.437 7216.45 424.706 7193.79 Q411.975 7170.87 411.975 7141.08 Q411.975 7091.94 442.53 7066.73 Q472.831 7041.52 531.905 7041.52 Z" fill="#000000" fill-rule="evenodd" fill-opacity="1" /><path clip-path="url(#clip9600)" d="M 0 0 M462.136 6804.72 L307.832 6804.72 L307.832 6757.87 L704.033 6757.87 L704.033 6804.72 L661.256 6804.72 Q686.719 6819.49 699.195 6842.15 Q711.417 6864.56 711.417 6896.13 Q711.417 6947.82 670.168 6980.41 Q628.918 7012.75 561.696 7012.75 Q494.474 7012.75 453.224 6980.41 Q411.975 6947.82 411.975 6896.13 Q411.975 6864.56 424.451 6842.15 Q436.674 6819.49 462.136 6804.72 M561.696 6964.37 Q613.386 6964.37 642.922 6943.24 Q672.205 6921.85 672.205 6884.67 Q672.205 6847.5 642.922 6826.11 Q613.386 6804.72 561.696 6804.72 Q510.007 6804.72 480.724 6826.11 Q451.187 6847.5 451.187 6884.67 Q451.187 6921.85 480.724 6943.24 Q510.007 6964.37 561.696 6964.37 Z" fill="#000000" fill-rule="evenodd" fill-opacity="1" /><path clip-path="url(#clip9600)" d="M 0 0 M549.729 6464.79 L572.645 6464.79 L572.645 6680.2 Q621.024 6677.15 646.487 6651.18 Q671.695 6624.95 671.695 6578.35 Q671.695 6551.36 665.075 6526.15 Q658.455 6500.69 645.214 6475.74 L689.519 6475.74 Q700.214 6500.95 705.816 6527.43 Q711.417 6553.91 711.417 6581.15 Q711.417 6649.39 671.695 6689.37 Q631.973 6729.09 564.242 6729.09 Q494.22 6729.09 453.224 6691.41 Q411.975 6653.47 411.975 6589.3 Q411.975 6531.76 449.15 6498.4 Q486.071 6464.79 549.729 6464.79 M535.979 6511.64 Q497.53 6512.15 474.613 6533.28 Q451.697 6554.16 451.697 6588.79 Q451.697 6628.01 473.849 6651.69 Q496.002 6675.11 536.233 6678.68 L535.979 6511.64 Z" fill="#000000" fill-rule="evenodd" fill-opacity="1" /><path clip-path="url(#clip9600)" d="M 0 0 M462.646 6250.39 Q458.062 6258.29 456.025 6267.71 Q453.734 6276.87 453.734 6288.08 Q453.734 6327.8 479.706 6349.19 Q505.423 6370.32 553.803 6370.32 L704.033 6370.32 L704.033 6417.43 L418.85 6417.43 L418.85 6370.32 L463.155 6370.32 Q437.183 6355.55 424.706 6331.87 Q411.975 6308.19 411.975 6274.33 Q411.975 6269.49 412.739 6263.63 Q413.248 6257.78 414.521 6250.65 L462.646 6250.39 Z" fill="#000000" fill-rule="evenodd" fill-opacity="1" /><path clip-path="url(#clip9600)" d="M 0 0 M323.873 6156.94 L465.192 6156.94 L465.192 6200.23 L323.873 6200.23 L323.873 6156.94 Z" fill="#000000" fill-rule="evenodd" fill-opacity="1" /><path clip-path="url(#clip9600)" d="M 0 0 M427.252 5926 L471.558 5926 Q461.373 5945.86 456.28 5967.25 Q451.187 5988.63 451.187 6011.55 Q451.187 6046.44 461.882 6064 Q472.576 6081.32 493.965 6081.32 Q510.261 6081.32 519.682 6068.84 Q528.849 6056.37 537.252 6018.68 L540.817 6002.64 Q551.511 5952.73 571.117 5931.85 Q590.469 5910.72 625.353 5910.72 Q665.075 5910.72 688.246 5942.29 Q711.417 5973.61 711.417 6028.61 Q711.417 6051.53 706.834 6076.48 Q702.505 6101.18 693.594 6128.68 L645.214 6128.68 Q658.709 6102.71 665.584 6077.5 Q672.205 6052.29 672.205 6027.59 Q672.205 5994.49 661.001 5976.67 Q649.543 5958.84 628.918 5958.84 Q609.821 5958.84 599.636 5971.83 Q589.451 5984.56 580.029 6028.1 L576.21 6044.4 Q567.043 6087.94 548.201 6107.29 Q529.104 6126.64 496.002 6126.64 Q455.771 6126.64 433.873 6098.12 Q411.975 6069.61 411.975 6017.15 Q411.975 5991.18 415.794 5968.26 Q419.613 5945.35 427.252 5926 Z" fill="#000000" fill-rule="evenodd" fill-opacity="1" /><path clip-path="url(#clip9600)" d="M 0 0 M462.646 5530.56 Q458.062 5538.45 456.025 5547.87 Q453.734 5557.04 453.734 5568.24 Q453.734 5607.97 479.706 5629.35 Q505.423 5650.49 553.803 5650.49 L704.033 5650.49 L704.033 5697.59 L418.85 5697.59 L418.85 5650.49 L463.155 5650.49 Q437.183 5635.72 424.706 5612.04 Q411.975 5588.36 411.975 5554.49 Q411.975 5549.66 412.739 5543.8 Q413.248 5537.94 414.521 5530.81 L462.646 5530.56 Z" fill="#000000" fill-rule="evenodd" fill-opacity="1" /><path clip-path="url(#clip9600)" d="M 0 0 M560.678 5351.81 Q560.678 5408.59 573.664 5430.49 Q586.65 5452.39 617.969 5452.39 Q642.922 5452.39 657.691 5436.09 Q672.205 5419.54 672.205 5391.28 Q672.205 5352.32 644.705 5328.89 Q616.95 5305.21 571.117 5305.21 L560.678 5305.21 L560.678 5351.81 M541.326 5258.36 L704.033 5258.36 L704.033 5305.21 L660.746 5305.21 Q686.719 5321.25 699.195 5345.19 Q711.417 5369.12 711.417 5403.75 Q711.417 5447.55 686.973 5473.52 Q662.274 5499.24 621.024 5499.24 Q572.9 5499.24 548.455 5467.16 Q524.011 5434.82 524.011 5370.91 L524.011 5305.21 L519.428 5305.21 Q487.09 5305.21 469.521 5326.6 Q451.697 5347.74 451.697 5386.18 Q451.697 5410.63 457.553 5433.8 Q463.41 5456.97 475.122 5478.36 L431.836 5478.36 Q421.905 5452.64 417.067 5428.45 Q411.975 5404.26 411.975 5381.35 Q411.975 5319.47 444.058 5288.92 Q476.141 5258.36 541.326 5258.36 Z" fill="#000000" fill-rule="evenodd" fill-opacity="1" /><path clip-path="url(#clip9600)" d="M 0 0 M337.878 5162.87 L418.85 5162.87 L418.85 5066.37 L455.261 5066.37 L455.261 5162.87 L610.075 5162.87 Q644.96 5162.87 654.89 5153.45 Q664.821 5143.78 664.821 5114.5 L664.821 5066.37 L704.033 5066.37 L704.033 5114.5 Q704.033 5168.73 683.918 5189.36 Q663.547 5209.98 610.075 5209.98 L455.261 5209.98 L455.261 5244.36 L418.85 5244.36 L418.85 5209.98 L337.878 5209.98 L337.878 5162.87 Z" fill="#000000" fill-rule="evenodd" fill-opacity="1" /><path clip-path="url(#clip9600)" d="M 0 0 M418.85 5017.23 L418.85 4970.38 L704.033 4970.38 L704.033 5017.23 L418.85 5017.23 M307.832 5017.23 L307.832 4970.38 L367.16 4970.38 L367.16 5017.23 L307.832 5017.23 Z" fill="#000000" fill-rule="evenodd" fill-opacity="1" /><path clip-path="url(#clip9600)" d="M 0 0 M451.697 4810.72 Q451.697 4848.41 481.234 4870.31 Q510.516 4892.21 561.696 4892.21 Q612.876 4892.21 642.413 4870.56 Q671.695 4848.66 671.695 4810.72 Q671.695 4773.29 642.159 4751.4 Q612.622 4729.5 561.696 4729.5 Q511.025 4729.5 481.488 4751.4 Q451.697 4773.29 451.697 4810.72 M411.975 4810.72 Q411.975 4749.61 451.697 4714.73 Q491.419 4679.85 561.696 4679.85 Q631.719 4679.85 671.695 4714.73 Q711.417 4749.61 711.417 4810.72 Q711.417 4872.09 671.695 4906.97 Q631.719 4941.6 561.696 4941.6 Q491.419 4941.6 451.697 4906.97 Q411.975 4872.09 411.975 4810.72 Z" fill="#000000" fill-rule="evenodd" fill-opacity="1" /><polyline clip-path="url(#clip9602)" style="stroke:#009af9; stroke-width:32; stroke-opacity:1; fill:none" points="
  2385.08,1282.52 2546.28,1282.51 2707.47,1282.52 2868.67,1282.6 3029.86,1282.6 3191.05,1282.57 3352.25,1282.58 3513.44,1282.66 3674.64,1282.62 3835.83,1282.58 
  3997.02,1282.59 4158.22,1282.63 4319.41,1282.61 4480.61,1282.64 4641.8,1282.66 4803,1282.62 4964.19,1282.63 5125.38,1282.6 5286.58,1282.66 5447.77,1282.67 
  5608.97,1282.64 5770.16,1282.7 5931.35,1282.74 6092.55,1282.81 6253.74,1282.75 6414.94,1282.84 6576.13,1282.99 6737.32,1282.88 6898.52,1283.05 7059.71,1283.25 
  7220.91,1283.21 7382.1,1283.27 7543.29,1283.46 7704.49,1283.44 7865.68,1283.65 8026.88,1283.88 8188.07,1284.18 8349.27,1284.15 8510.46,1284.35 8671.65,1284.78 
  8832.85,1284.86 8994.04,1285.34 9155.24,1285.39 9316.43,1285.85 9477.62,1286.25 9638.82,1286.56 9800.01,1287.53 9961.21,1287.82 10122.4,1288.63 10283.6,1291.03 
  10444.8,1289.89 10606,1291.27 10767.2,1292.71 10928.4,1293.36 11089.6,1294.35 11250.8,1296.33 11412,1299.37 11573.1,1300.93 11734.3,1302.03 11895.5,1303.35 
  12056.7,1307.99 12217.9,1312.99 12379.1,1320.74 12540.3,1323.22 12701.5,1325.11 12862.7,1329.99 13023.9,1344.23 13185.1,1354.49 13346.3,1364.79 13507.5,1371.91 
  13668.7,1398.74 13829.9,1423.08 13991.1,1440.75 14152.3,1460.1 14313.4,1504.43 14474.6,1543.47 14635.8,1548.99 14797,1622.52 14958.2,1710.57 15119.4,1771.92 
  15280.6,1811.46 15441.8,1940.56 15603,2030.41 15764.2,2136.28 15925.4,2387.84 16086.6,2465.01 16247.8,2645.09 16409,2784.71 16570.2,3062.62 16731.4,3151.98 
  16892.6,3506.54 17053.7,3656.23 17214.9,3963.12 17376.1,4160.87 17537.3,4553.87 17698.5,4602.91 17859.7,5048.93 18020.9,5244.46 18182.1,5414.86 18343.3,5603.36 
  
  "/>
<polyline clip-path="url(#clip9602)" style="stroke:#e26f46; stroke-width:32; stroke-opacity:1; fill:none" points="
  2385.08,1282.55 2546.28,1282.43 2707.47,1282.61 2868.67,1282.65 3029.86,1282.64 3191.05,1282.56 3352.25,1282.73 3513.44,1282.65 3674.64,1282.64 3835.83,1282.64 
  3997.02,1282.69 4158.22,1282.54 4319.41,1282.61 4480.61,1282.58 4641.8,1282.58 4803,1282.69 4964.19,1282.69 5125.38,1282.66 5286.58,1282.6 5447.77,1282.67 
  5608.97,1282.72 5770.16,1282.58 5931.35,1282.79 6092.55,1282.8 6253.74,1282.8 6414.94,1282.81 6576.13,1282.95 6737.32,1282.85 6898.52,1282.94 7059.71,1283.06 
  7220.91,1283.17 7382.1,1283.07 7543.29,1283.31 7704.49,1283.32 7865.68,1283.48 8026.88,1283.55 8188.07,1283.7 8349.27,1283.89 8510.46,1283.92 8671.65,1284.06 
  8832.85,1284.38 8994.04,1284.66 9155.24,1285.03 9316.43,1285.23 9477.62,1285.64 9638.82,1285.69 9800.01,1285.98 9961.21,1286.74 10122.4,1286.84 10283.6,1288.02 
  10444.8,1288.4 10606,1288.57 10767.2,1289.68 10928.4,1290.62 11089.6,1291.5 11250.8,1292.67 11412,1293.73 11573.1,1294.97 11734.3,1297.65 11895.5,1299.2 
  12056.7,1299.8 12217.9,1305.56 12379.1,1305.88 12540.3,1309.48 12701.5,1320.29 12862.7,1320.76 13023.9,1325.48 13185.1,1346.35 13346.3,1349.85 13507.5,1358.46 
  13668.7,1379.94 13829.9,1378.64 13991.1,1406.52 14152.3,1440.54 14313.4,1456.48 14474.6,1501.54 14635.8,1566.26 14797,1625.63 14958.2,1713.8 15119.4,1804.2 
  15280.6,1908.09 15441.8,2158.38 15603,2390.15 15764.2,2427.47 15925.4,2752.77 16086.6,3025.02 16247.8,3341.32 16409,3786.79 16570.2,4086.68 16731.4,4621.86 
  16892.6,4956.89 17053.7,5733.47 17214.9,6087.85 17376.1,6460.4 17537.3,6775.95 17698.5,7329.17 17859.7,7808.97 18020.9,8352.42 18182.1,8473.54 18343.3,8261.38 
  
  "/>
<polyline clip-path="url(#clip9602)" style="stroke:#3da44d; stroke-width:32; stroke-opacity:1; fill:none" points="
  2385.08,1282.46 2546.28,1282.43 2707.47,1282.63 2868.67,1282.5 3029.86,1282.69 3191.05,1282.75 3352.25,1282.67 3513.44,1282.7 3674.64,1282.64 3835.83,1282.66 
  3997.02,1282.69 4158.22,1282.65 4319.41,1282.67 4480.61,1282.6 4641.8,1282.7 4803,1282.6 4964.19,1282.66 5125.38,1282.61 5286.58,1282.71 5447.77,1282.62 
  5608.97,1282.66 5770.16,1282.65 5931.35,1282.72 6092.55,1282.8 6253.74,1282.75 6414.94,1282.85 6576.13,1282.85 6737.32,1282.9 6898.52,1282.97 7059.71,1282.96 
  7220.91,1283.16 7382.1,1283.04 7543.29,1283.16 7704.49,1283.2 7865.68,1283.42 8026.88,1283.49 8188.07,1283.65 8349.27,1283.77 8510.46,1283.83 8671.65,1283.92 
  8832.85,1284.18 8994.04,1284.19 9155.24,1284.32 9316.43,1284.63 9477.62,1285 9638.82,1285.16 9800.01,1285.85 9961.21,1286.01 10122.4,1286.57 10283.6,1286.72 
  10444.8,1287.25 10606,1287.83 10767.2,1288.8 10928.4,1288.98 11089.6,1289.81 11250.8,1290.66 11412,1292.81 11573.1,1293.43 11734.3,1294.36 11895.5,1296.31 
  12056.7,1297.4 12217.9,1300.48 12379.1,1302.07 12540.3,1306.4 12701.5,1311.41 12862.7,1311.94 13023.9,1322.91 13185.1,1324.95 13346.3,1334.8 13507.5,1346.55 
  13668.7,1355.12 13829.9,1372.69 13991.1,1399.17 14152.3,1425.09 14313.4,1464.59 14474.6,1481.67 14635.8,1529.4 14797,1631.73 14958.2,1658.06 15119.4,1807.05 
  15280.6,2088.16 15441.8,2192.78 15603,2436.51 15764.2,2657.27 15925.4,3180.56 16086.6,3596.82 16247.8,4081.68 16409,4745.64 16570.2,5112.37 16731.4,5992.48 
  16892.6,6739.06 17053.7,7178.38 17214.9,8267.03 17376.1,8335.34 17537.3,8676.03 17698.5,9359.44 17859.7,9786.76 18020.9,9932.3 18182.1,9862.15 18343.3,9832.43 
  
  "/>
<polyline clip-path="url(#clip9602)" style="stroke:#c271d2; stroke-width:32; stroke-opacity:1; fill:none" points="
  2385.08,1282.3 2546.28,1282.33 2707.47,1282.48 2868.67,1282.43 3029.86,1282.43 3191.05,1282.72 3352.25,1282.73 3513.44,1282.74 3674.64,1282.67 3835.83,1282.68 
  3997.02,1282.63 4158.22,1282.75 4319.41,1282.67 4480.61,1282.65 4641.8,1282.71 4803,1282.71 4964.19,1282.72 5125.38,1282.68 5286.58,1282.81 5447.77,1282.72 
  5608.97,1282.72 5770.16,1282.76 5931.35,1282.76 6092.55,1282.76 6253.74,1282.79 6414.94,1282.78 6576.13,1282.8 6737.32,1282.88 6898.52,1282.89 7059.71,1283.02 
  7220.91,1283.12 7382.1,1283.12 7543.29,1283.22 7704.49,1283.28 7865.68,1283.37 8026.88,1283.49 8188.07,1283.64 8349.27,1283.74 8510.46,1283.85 8671.65,1283.81 
  8832.85,1284.13 8994.04,1284.25 9155.24,1284.43 9316.43,1284.79 9477.62,1284.95 9638.82,1285.15 9800.01,1285.41 9961.21,1285.68 10122.4,1286.19 10283.6,1286.25 
  10444.8,1287.08 10606,1287.4 10767.2,1288.32 10928.4,1288.73 11089.6,1289.28 11250.8,1290.12 11412,1290.77 11573.1,1291.78 11734.3,1294.24 11895.5,1294.11 
  12056.7,1295.18 12217.9,1297.36 12379.1,1299.73 12540.3,1301.92 12701.5,1305.26 12862.7,1309.89 13023.9,1311.75 13185.1,1316.09 13346.3,1328.81 13507.5,1335.51 
  13668.7,1346.4 13829.9,1353.67 13991.1,1373.79 14152.3,1391.7 14313.4,1419.42 14474.6,1500.79 14635.8,1530.25 14797,1548.76 14958.2,1720.36 15119.4,1851.75 
  15280.6,1954.46 15441.8,2107.14 15603,2555.91 15764.2,3016.89 15925.4,3538.94 16086.6,4143.31 16247.8,4818.26 16409,5729.52 16570.2,6503.67 16731.4,6942.66 
  16892.6,8595.73 17053.7,8571.8 17214.9,9190.63 17376.1,9820.31 17537.3,10144.8 17698.5,10404.3 17859.7,10758.2 18020.9,10458.2 18182.1,10400.8 18343.3,10121.5 
  
  "/>
<polyline clip-path="url(#clip9602)" style="stroke:#ac8d18; stroke-width:32; stroke-opacity:1; fill:none" points="
  2385.08,1282.23 2546.28,1282.37 2707.47,1282.48 2868.67,1282.57 3029.86,1282.44 3191.05,1282.75 3352.25,1282.64 3513.44,1282.68 3674.64,1282.75 3835.83,1282.74 
  3997.02,1282.57 4158.22,1282.78 4319.41,1282.81 4480.61,1282.65 4641.8,1282.7 4803,1282.72 4964.19,1282.77 5125.38,1282.62 5286.58,1282.74 5447.77,1282.63 
  5608.97,1282.77 5770.16,1282.79 5931.35,1282.87 6092.55,1282.7 6253.74,1282.72 6414.94,1282.9 6576.13,1282.71 6737.32,1283 6898.52,1283.1 7059.71,1283.14 
  7220.91,1283.02 7382.1,1283.21 7543.29,1283.2 7704.49,1283.25 7865.68,1283.27 8026.88,1283.28 8188.07,1283.55 8349.27,1283.7 8510.46,1284.03 8671.65,1283.85 
  8832.85,1284.02 8994.04,1284.21 9155.24,1284.4 9316.43,1284.47 9477.62,1284.75 9638.82,1285.06 9800.01,1285.19 9961.21,1285.49 10122.4,1285.67 10283.6,1285.91 
  10444.8,1286.11 10606,1286.99 10767.2,1287.65 10928.4,1287.97 11089.6,1288.34 11250.8,1288.67 11412,1290.66 11573.1,1291.04 11734.3,1292.16 11895.5,1293.39 
  12056.7,1294.16 12217.9,1296.09 12379.1,1299.14 12540.3,1299.85 12701.5,1302.44 12862.7,1305.29 13023.9,1308.45 13185.1,1315.28 13346.3,1320.6 13507.5,1325.27 
  13668.7,1331.24 13829.9,1344.97 13991.1,1364.15 14152.3,1400.68 14313.4,1418.85 14474.6,1439.54 14635.8,1487.32 14797,1539.18 14958.2,1656.2 15119.4,1833.79 
  15280.6,1991.82 15441.8,2235.66 15603,2604.12 15764.2,3046.67 15925.4,3754.33 16086.6,4273.72 16247.8,5059.64 16409,6027.67 16570.2,7358.59 16731.4,7989.7 
  16892.6,8905.01 17053.7,9536.81 17214.9,9875.4 17376.1,11003.5 17537.3,10448.1 17698.5,11091.2 17859.7,10505.7 18020.9,10655.3 18182.1,10753 18343.3,10146.9 
  
  "/>
<polyline clip-path="url(#clip9602)" style="stroke:#00a9ad; stroke-width:32; stroke-opacity:1; fill:none" points="
  2385.08,1282.05 2546.28,1282.13 2707.47,1282.44 2868.67,1282.56 3029.86,1282.67 3191.05,1282.53 3352.25,1282.64 3513.44,1282.72 3674.64,1282.61 3835.83,1282.66 
  3997.02,1282.81 4158.22,1282.65 4319.41,1282.67 4480.61,1282.76 4641.8,1282.74 4803,1282.77 4964.19,1282.66 5125.38,1282.66 5286.58,1282.66 5447.77,1282.81 
  5608.97,1282.77 5770.16,1282.66 5931.35,1282.83 6092.55,1282.78 6253.74,1282.78 6414.94,1282.96 6576.13,1282.89 6737.32,1283.06 6898.52,1282.93 7059.71,1282.9 
  7220.91,1283.16 7382.1,1283.31 7543.29,1283.17 7704.49,1283.37 7865.68,1283.52 8026.88,1283.48 8188.07,1283.74 8349.27,1283.83 8510.46,1283.74 8671.65,1283.86 
  8832.85,1284.15 8994.04,1284.09 9155.24,1284.43 9316.43,1284.56 9477.62,1284.47 9638.82,1284.75 9800.01,1284.81 9961.21,1285.43 10122.4,1285.71 10283.6,1285.87 
  10444.8,1286.59 10606,1286.6 10767.2,1286.61 10928.4,1287.65 11089.6,1288.08 11250.8,1288.62 11412,1289.51 11573.1,1290.05 11734.3,1290.54 11895.5,1291.72 
  12056.7,1292.87 12217.9,1294 12379.1,1296.05 12540.3,1297.63 12701.5,1300.29 12862.7,1302.55 13023.9,1309.23 13185.1,1313.74 13346.3,1315.99 13507.5,1321.23 
  13668.7,1327.14 13829.9,1339.67 13991.1,1351.93 14152.3,1375.81 14313.4,1392.43 14474.6,1421.2 14635.8,1492.1 14797,1518.58 14958.2,1658.79 15119.4,1720.84 
  15280.6,2012.96 15441.8,2459.57 15603,2739.11 15764.2,3320.12 15925.4,3813.95 16086.6,4749.49 16247.8,5977.84 16409,6685.01 16570.2,8059.85 16731.4,8524.1 
  16892.6,9615.35 17053.7,9500.37 17214.9,10384 17376.1,10694.8 17537.3,10287.5 17698.5,10671.4 17859.7,10470 18020.9,10705.7 18182.1,10003 18343.3,10166.5 
  
  "/>
<path clip-path="url(#clip9600)" d="
M2482.34 10233.4 L5519.37 10233.4 L5519.37 6846.56 L2482.34 6846.56  Z
  " fill="#ffffff" fill-rule="evenodd" fill-opacity="1"/>
<polyline clip-path="url(#clip9600)" style="stroke:#000000; stroke-width:32; stroke-opacity:1; fill:none" points="
  2482.34,10233.4 5519.37,10233.4 5519.37,6846.56 2482.34,6846.56 2482.34,10233.4 
  "/>
<polyline clip-path="url(#clip9600)" style="stroke:#009af9; stroke-width:32; stroke-opacity:1; fill:none" points="
  2674.34,7330.4 3826.34,7330.4 
  "/>
<path clip-path="url(#clip9600)" d="M 0 0 M4018.34 7192.16 L4055.74 7192.16 L4055.74 7437.16 L4190.37 7437.16 L4190.37 7468.64 L4018.34 7468.64 L4018.34 7192.16 Z" fill="#000000" fill-rule="evenodd" fill-opacity="1" /><path clip-path="url(#clip9600)" d="M 0 0 M4351.11 7296.42 L4588.52 7296.42 L4588.52 7327.53 L4351.11 7327.53 L4351.11 7296.42 M4351.11 7371.97 L4588.52 7371.97 L4588.52 7403.45 L4351.11 7403.45 L4351.11 7371.97 Z" fill="#000000" fill-rule="evenodd" fill-opacity="1" /><path clip-path="url(#clip9600)" d="M 0 0 M4834.26 7315.49 Q4809.07 7315.49 4794.26 7332.71 Q4779.63 7349.94 4779.63 7379.94 Q4779.63 7409.75 4794.26 7427.16 Q4809.07 7444.38 4834.26 7444.38 Q4859.44 7444.38 4874.07 7427.16 Q4888.89 7409.75 4888.89 7379.94 Q4888.89 7349.94 4874.07 7332.71 Q4859.44 7315.49 4834.26 7315.49 M4908.52 7198.27 L4908.52 7232.34 Q4894.44 7225.68 4880 7222.16 Q4865.74 7218.64 4851.67 7218.64 Q4814.63 7218.64 4795 7243.64 Q4775.55 7268.64 4772.78 7319.2 Q4783.7 7303.08 4800.18 7294.57 Q4816.67 7285.86 4836.48 7285.86 Q4878.15 7285.86 4902.22 7311.23 Q4926.48 7336.42 4926.48 7379.94 Q4926.48 7422.53 4901.29 7448.27 Q4876.11 7474.01 4834.26 7474.01 Q4786.3 7474.01 4760.93 7437.34 Q4735.56 7400.49 4735.56 7330.68 Q4735.56 7265.12 4766.67 7226.23 Q4797.78 7187.16 4850.18 7187.16 Q4864.26 7187.16 4878.52 7189.94 Q4892.96 7192.71 4908.52 7198.27 Z" fill="#000000" fill-rule="evenodd" fill-opacity="1" /><polyline clip-path="url(#clip9600)" style="stroke:#e26f46; stroke-width:32; stroke-opacity:1; fill:none" points="
  2674.34,7814.24 3826.34,7814.24 
  "/>
<path clip-path="url(#clip9600)" d="M 0 0 M4018.34 7676 L4055.74 7676 L4055.74 7921 L4190.37 7921 L4190.37 7952.48 L4018.34 7952.48 L4018.34 7676 Z" fill="#000000" fill-rule="evenodd" fill-opacity="1" /><path clip-path="url(#clip9600)" d="M 0 0 M4351.11 7780.26 L4588.52 7780.26 L4588.52 7811.37 L4351.11 7811.37 L4351.11 7780.26 M4351.11 7855.81 L4588.52 7855.81 L4588.52 7887.29 L4351.11 7887.29 L4351.11 7855.81 Z" fill="#000000" fill-rule="evenodd" fill-opacity="1" /><path clip-path="url(#clip9600)" d="M 0 0 M4829.63 7821.18 Q4802.96 7821.18 4787.59 7835.44 Q4772.41 7849.7 4772.41 7874.7 Q4772.41 7899.7 4787.59 7913.96 Q4802.96 7928.22 4829.63 7928.22 Q4856.3 7928.22 4871.67 7913.96 Q4887.04 7899.52 4887.04 7874.7 Q4887.04 7849.7 4871.67 7835.44 Q4856.48 7821.18 4829.63 7821.18 M4792.22 7805.26 Q4768.15 7799.33 4754.63 7782.85 Q4741.3 7766.37 4741.3 7742.67 Q4741.3 7709.52 4764.81 7690.26 Q4788.52 7671 4829.63 7671 Q4870.92 7671 4894.44 7690.26 Q4917.96 7709.52 4917.96 7742.67 Q4917.96 7766.37 4904.44 7782.85 Q4891.11 7799.33 4867.22 7805.26 Q4894.26 7811.55 4909.26 7829.89 Q4924.44 7848.22 4924.44 7874.7 Q4924.44 7914.89 4899.81 7936.37 Q4875.37 7957.85 4829.63 7957.85 Q4783.89 7957.85 4759.26 7936.37 Q4734.81 7914.89 4734.81 7874.7 Q4734.81 7848.22 4750 7829.89 Q4765.18 7811.55 4792.22 7805.26 M4778.52 7746.18 Q4778.52 7767.66 4791.85 7779.7 Q4805.37 7791.74 4829.63 7791.74 Q4853.7 7791.74 4867.22 7779.7 Q4880.92 7767.66 4880.92 7746.18 Q4880.92 7724.7 4867.22 7712.67 Q4853.7 7700.63 4829.63 7700.63 Q4805.37 7700.63 4791.85 7712.67 Q4778.52 7724.7 4778.52 7746.18 Z" fill="#000000" fill-rule="evenodd" fill-opacity="1" /><polyline clip-path="url(#clip9600)" style="stroke:#3da44d; stroke-width:32; stroke-opacity:1; fill:none" points="
  2674.34,8298.08 3826.34,8298.08 
  "/>
<path clip-path="url(#clip9600)" d="M 0 0 M4018.34 8159.84 L4055.74 8159.84 L4055.74 8404.84 L4190.37 8404.84 L4190.37 8436.32 L4018.34 8436.32 L4018.34 8159.84 Z" fill="#000000" fill-rule="evenodd" fill-opacity="1" /><path clip-path="url(#clip9600)" d="M 0 0 M4351.11 8264.1 L4588.52 8264.1 L4588.52 8295.21 L4351.11 8295.21 L4351.11 8264.1 M4351.11 8339.65 L4588.52 8339.65 L4588.52 8371.13 L4351.11 8371.13 L4351.11 8339.65 Z" fill="#000000" fill-rule="evenodd" fill-opacity="1" /><path clip-path="url(#clip9600)" d="M 0 0 M4756.11 8404.84 L4817.22 8404.84 L4817.22 8193.91 L4750.74 8207.25 L4750.74 8173.17 L4816.85 8159.84 L4854.26 8159.84 L4854.26 8404.84 L4915.37 8404.84 L4915.37 8436.32 L4756.11 8436.32 L4756.11 8404.84 Z" fill="#000000" fill-rule="evenodd" fill-opacity="1" /><path clip-path="url(#clip9600)" d="M 0 0 M5035.92 8184.47 Q5007.04 8184.47 4992.41 8212.99 Q4977.96 8241.32 4977.96 8298.36 Q4977.96 8355.21 4992.41 8383.73 Q5007.04 8412.06 5035.92 8412.06 Q5065 8412.06 5079.44 8383.73 Q5094.07 8355.21 5094.07 8298.36 Q5094.07 8241.32 5079.44 8212.99 Q5065 8184.47 5035.92 8184.47 M5035.92 8154.84 Q5082.41 8154.84 5106.85 8191.69 Q5131.48 8228.36 5131.48 8298.36 Q5131.48 8368.17 5106.85 8405.02 Q5082.41 8441.69 5035.92 8441.69 Q4989.44 8441.69 4964.81 8405.02 Q4940.37 8368.17 4940.37 8298.36 Q4940.37 8228.36 4964.81 8191.69 Q4989.44 8154.84 5035.92 8154.84 Z" fill="#000000" fill-rule="evenodd" fill-opacity="1" /><polyline clip-path="url(#clip9600)" style="stroke:#c271d2; stroke-width:32; stroke-opacity:1; fill:none" points="
  2674.34,8781.92 3826.34,8781.92 
  "/>
<path clip-path="url(#clip9600)" d="M 0 0 M4018.34 8643.68 L4055.74 8643.68 L4055.74 8888.68 L4190.37 8888.68 L4190.37 8920.16 L4018.34 8920.16 L4018.34 8643.68 Z" fill="#000000" fill-rule="evenodd" fill-opacity="1" /><path clip-path="url(#clip9600)" d="M 0 0 M4351.11 8747.94 L4588.52 8747.94 L4588.52 8779.05 L4351.11 8779.05 L4351.11 8747.94 M4351.11 8823.49 L4588.52 8823.49 L4588.52 8854.97 L4351.11 8854.97 L4351.11 8823.49 Z" fill="#000000" fill-rule="evenodd" fill-opacity="1" /><path clip-path="url(#clip9600)" d="M 0 0 M4756.11 8888.68 L4817.22 8888.68 L4817.22 8677.75 L4750.74 8691.09 L4750.74 8657.01 L4816.85 8643.68 L4854.26 8643.68 L4854.26 8888.68 L4915.37 8888.68 L4915.37 8920.16 L4756.11 8920.16 L4756.11 8888.68 Z" fill="#000000" fill-rule="evenodd" fill-opacity="1" /><path clip-path="url(#clip9600)" d="M 0 0 M4988.15 8888.68 L5118.7 8888.68 L5118.7 8920.16 L4943.15 8920.16 L4943.15 8888.68 Q4964.44 8866.64 5001.11 8829.6 Q5037.96 8792.38 5047.41 8781.64 Q5065.37 8761.46 5072.41 8747.57 Q5079.63 8733.49 5079.63 8719.97 Q5079.63 8697.94 5064.07 8684.05 Q5048.7 8670.16 5023.89 8670.16 Q5006.29 8670.16 4986.66 8676.27 Q4967.22 8682.38 4945 8694.79 L4945 8657.01 Q4967.59 8647.94 4987.22 8643.31 Q5006.85 8638.68 5023.15 8638.68 Q5066.11 8638.68 5091.66 8660.16 Q5117.22 8681.64 5117.22 8717.57 Q5117.22 8734.6 5110.74 8749.97 Q5104.44 8765.16 5087.59 8785.9 Q5082.96 8791.27 5058.15 8817.01 Q5033.33 8842.57 4988.15 8888.68 Z" fill="#000000" fill-rule="evenodd" fill-opacity="1" /><polyline clip-path="url(#clip9600)" style="stroke:#ac8d18; stroke-width:32; stroke-opacity:1; fill:none" points="
  2674.34,9265.76 3826.34,9265.76 
  "/>
<path clip-path="url(#clip9600)" d="M 0 0 M4018.34 9127.52 L4055.74 9127.52 L4055.74 9372.52 L4190.37 9372.52 L4190.37 9404 L4018.34 9404 L4018.34 9127.52 Z" fill="#000000" fill-rule="evenodd" fill-opacity="1" /><path clip-path="url(#clip9600)" d="M 0 0 M4351.11 9231.78 L4588.52 9231.78 L4588.52 9262.89 L4351.11 9262.89 L4351.11 9231.78 M4351.11 9307.33 L4588.52 9307.33 L4588.52 9338.81 L4351.11 9338.81 L4351.11 9307.33 Z" fill="#000000" fill-rule="evenodd" fill-opacity="1" /><path clip-path="url(#clip9600)" d="M 0 0 M4756.11 9372.52 L4817.22 9372.52 L4817.22 9161.59 L4750.74 9174.93 L4750.74 9140.85 L4816.85 9127.52 L4854.26 9127.52 L4854.26 9372.52 L4915.37 9372.52 L4915.37 9404 L4756.11 9404 L4756.11 9372.52 Z" fill="#000000" fill-rule="evenodd" fill-opacity="1" /><path clip-path="url(#clip9600)" d="M 0 0 M5058.7 9160.11 L4964.26 9307.7 L5058.7 9307.7 L5058.7 9160.11 M5048.89 9127.52 L5095.92 9127.52 L5095.92 9307.7 L5135.37 9307.7 L5135.37 9338.81 L5095.92 9338.81 L5095.92 9404 L5058.7 9404 L5058.7 9338.81 L4933.89 9338.81 L4933.89 9302.7 L5048.89 9127.52 Z" fill="#000000" fill-rule="evenodd" fill-opacity="1" /><polyline clip-path="url(#clip9600)" style="stroke:#00a9ad; stroke-width:32; stroke-opacity:1; fill:none" points="
  2674.34,9749.6 3826.34,9749.6 
  "/>
<path clip-path="url(#clip9600)" d="M 0 0 M4018.34 9611.36 L4055.74 9611.36 L4055.74 9856.36 L4190.37 9856.36 L4190.37 9887.84 L4018.34 9887.84 L4018.34 9611.36 Z" fill="#000000" fill-rule="evenodd" fill-opacity="1" /><path clip-path="url(#clip9600)" d="M 0 0 M4351.11 9715.62 L4588.52 9715.62 L4588.52 9746.73 L4351.11 9746.73 L4351.11 9715.62 M4351.11 9791.17 L4588.52 9791.17 L4588.52 9822.65 L4351.11 9822.65 L4351.11 9791.17 Z" fill="#000000" fill-rule="evenodd" fill-opacity="1" /><path clip-path="url(#clip9600)" d="M 0 0 M4756.11 9856.36 L4817.22 9856.36 L4817.22 9645.43 L4750.74 9658.77 L4750.74 9624.69 L4816.85 9611.36 L4854.26 9611.36 L4854.26 9856.36 L4915.37 9856.36 L4915.37 9887.84 L4756.11 9887.84 L4756.11 9856.36 Z" fill="#000000" fill-rule="evenodd" fill-opacity="1" /><path clip-path="url(#clip9600)" d="M 0 0 M5040.55 9734.69 Q5015.37 9734.69 5000.55 9751.91 Q4985.92 9769.14 4985.92 9799.14 Q4985.92 9828.95 5000.55 9846.36 Q5015.37 9863.58 5040.55 9863.58 Q5065.74 9863.58 5080.37 9846.36 Q5095.18 9828.95 5095.18 9799.14 Q5095.18 9769.14 5080.37 9751.91 Q5065.74 9734.69 5040.55 9734.69 M5114.81 9617.47 L5114.81 9651.54 Q5100.74 9644.88 5086.29 9641.36 Q5072.03 9637.84 5057.96 9637.84 Q5020.92 9637.84 5001.29 9662.84 Q4981.85 9687.84 4979.07 9738.4 Q4990 9722.28 5006.48 9713.77 Q5022.96 9705.06 5042.78 9705.06 Q5084.44 9705.06 5108.52 9730.43 Q5132.78 9755.62 5132.78 9799.14 Q5132.78 9841.73 5107.59 9867.47 Q5082.41 9893.21 5040.55 9893.21 Q4992.59 9893.21 4967.22 9856.54 Q4941.85 9819.69 4941.85 9749.88 Q4941.85 9684.32 4972.96 9645.43 Q5004.07 9606.36 5056.48 9606.36 Q5070.55 9606.36 5084.81 9609.14 Q5099.26 9611.91 5114.81 9617.47 Z" fill="#000000" fill-rule="evenodd" fill-opacity="1" /></svg>
