<?xml version="1.0" encoding="utf-8"?>
<svg xmlns="http://www.w3.org/2000/svg" xmlns:xlink="http://www.w3.org/1999/xlink" width="4800" height="3200" viewBox="0 0 19200 12800">
<defs>
  <clipPath id="clip4600">
    <rect x="0" y="0" width="19200" height="12800"/>
  </clipPath>
</defs>
<path clip-path="url(#clip4600)" d="
M0 12800 L19200 12800 L19200 0 L0 0  Z
  " fill="#ffffff" fill-rule="evenodd" fill-opacity="1"/>
<defs>
  <clipPath id="clip4601">
    <rect x="3840" y="0" width="13441" height="12800"/>
  </clipPath>
</defs>
<path clip-path="url(#clip4600)" d="
M1910.23 11385.4 L18822 11385.4 L18822 987.777 L1910.23 987.777  Z
  " fill="#ffffff" fill-rule="evenodd" fill-opacity="1"/>
<defs>
  <clipPath id="clip4602">
    <rect x="1910" y="987" width="16913" height="10399"/>
  </clipPath>
</defs>
<polyline clip-path="url(#clip4602)" style="stroke:#000000; stroke-width:16; stroke-opacity:0.1; fill:none" points="
  3984.32,11385.4 3984.32,987.777 
  "/>
<polyline clip-path="url(#clip4602)" style="stroke:#000000; stroke-width:16; stroke-opacity:0.1; fill:none" points="
  7175.23,11385.4 7175.23,987.777 
  "/>
<polyline clip-path="url(#clip4602)" style="stroke:#000000; stroke-width:16; stroke-opacity:0.1; fill:none" points="
  10366.1,11385.4 10366.1,987.777 
  "/>
<polyline clip-path="url(#clip4602)" style="stroke:#000000; stroke-width:16; stroke-opacity:0.1; fill:none" points="
  13557,11385.4 13557,987.777 
  "/>
<polyline clip-path="url(#clip4602)" style="stroke:#000000; stroke-width:16; stroke-opacity:0.1; fill:none" points="
  16748,11385.4 16748,987.777 
  "/>
<polyline clip-path="url(#clip4602)" style="stroke:#000000; stroke-width:16; stroke-opacity:0.1; fill:none" points="
  1910.23,11270.9 18822,11270.9 
  "/>
<polyline clip-path="url(#clip4602)" style="stroke:#000000; stroke-width:16; stroke-opacity:0.1; fill:none" points="
  1910.23,9708.56 18822,9708.56 
  "/>
<polyline clip-path="url(#clip4602)" style="stroke:#000000; stroke-width:16; stroke-opacity:0.1; fill:none" points="
  1910.23,8146.23 18822,8146.23 
  "/>
<polyline clip-path="url(#clip4602)" style="stroke:#000000; stroke-width:16; stroke-opacity:0.1; fill:none" points="
  1910.23,6583.9 18822,6583.9 
  "/>
<polyline clip-path="url(#clip4602)" style="stroke:#000000; stroke-width:16; stroke-opacity:0.1; fill:none" points="
  1910.23,5021.57 18822,5021.57 
  "/>
<polyline clip-path="url(#clip4602)" style="stroke:#000000; stroke-width:16; stroke-opacity:0.1; fill:none" points="
  1910.23,3459.25 18822,3459.25 
  "/>
<polyline clip-path="url(#clip4602)" style="stroke:#000000; stroke-width:16; stroke-opacity:0.1; fill:none" points="
  1910.23,1896.92 18822,1896.92 
  "/>
<polyline clip-path="url(#clip4600)" style="stroke:#000000; stroke-width:32; stroke-opacity:1; fill:none" points="
  1910.23,11385.4 18822,11385.4 
  "/>
<polyline clip-path="url(#clip4600)" style="stroke:#000000; stroke-width:32; stroke-opacity:1; fill:none" points="
  1910.23,11385.4 1910.23,987.777 
  "/>
<polyline clip-path="url(#clip4600)" style="stroke:#000000; stroke-width:32; stroke-opacity:1; fill:none" points="
  3984.32,11385.4 3984.32,11260.7 
  "/>
<polyline clip-path="url(#clip4600)" style="stroke:#000000; stroke-width:32; stroke-opacity:1; fill:none" points="
  7175.23,11385.4 7175.23,11260.7 
  "/>
<polyline clip-path="url(#clip4600)" style="stroke:#000000; stroke-width:32; stroke-opacity:1; fill:none" points="
  10366.1,11385.4 10366.1,11260.7 
  "/>
<polyline clip-path="url(#clip4600)" style="stroke:#000000; stroke-width:32; stroke-opacity:1; fill:none" points="
  13557,11385.4 13557,11260.7 
  "/>
<polyline clip-path="url(#clip4600)" style="stroke:#000000; stroke-width:32; stroke-opacity:1; fill:none" points="
  16748,11385.4 16748,11260.7 
  "/>
<polyline clip-path="url(#clip4600)" style="stroke:#000000; stroke-width:32; stroke-opacity:1; fill:none" points="
  1910.23,11270.9 2113.17,11270.9 
  "/>
<polyline clip-path="url(#clip4600)" style="stroke:#000000; stroke-width:32; stroke-opacity:1; fill:none" points="
  1910.23,9708.56 2113.17,9708.56 
  "/>
<polyline clip-path="url(#clip4600)" style="stroke:#000000; stroke-width:32; stroke-opacity:1; fill:none" points="
  1910.23,8146.23 2113.17,8146.23 
  "/>
<polyline clip-path="url(#clip4600)" style="stroke:#000000; stroke-width:32; stroke-opacity:1; fill:none" points="
  1910.23,6583.9 2113.17,6583.9 
  "/>
<polyline clip-path="url(#clip4600)" style="stroke:#000000; stroke-width:32; stroke-opacity:1; fill:none" points="
  1910.23,5021.57 2113.17,5021.57 
  "/>
<polyline clip-path="url(#clip4600)" style="stroke:#000000; stroke-width:32; stroke-opacity:1; fill:none" points="
  1910.23,3459.25 2113.17,3459.25 
  "/>
<polyline clip-path="url(#clip4600)" style="stroke:#000000; stroke-width:32; stroke-opacity:1; fill:none" points="
  1910.23,1896.92 2113.17,1896.92 
  "/>
<path clip-path="url(#clip4600)" d="M 0 0 M3623.95 11561.4 Q3595.06 11561.4 3580.43 11589.9 Q3565.99 11618.2 3565.99 11675.3 Q3565.99 11732.1 3580.43 11760.6 Q3595.06 11789 3623.95 11789 Q3653.02 11789 3667.47 11760.6 Q3682.1 11732.1 3682.1 11675.3 Q3682.1 11618.2 3667.47 11589.9 Q3653.02 11561.4 3623.95 11561.4 M3623.95 11531.7 Q3670.43 11531.7 3694.87 11568.6 Q3719.5 11605.3 3719.5 11675.3 Q3719.5 11745.1 3694.87 11781.9 Q3670.43 11818.6 3623.95 11818.6 Q3577.47 11818.6 3552.84 11781.9 Q3528.39 11745.1 3528.39 11675.3 Q3528.39 11605.3 3552.84 11568.6 Q3577.47 11531.7 3623.95 11531.7 Z" fill="#000000" fill-rule="evenodd" fill-opacity="1" /><path clip-path="url(#clip4600)" d="M 0 0 M3760.06 11766.2 L3799.13 11766.2 L3799.13 11813.2 L3760.06 11813.2 L3760.06 11766.2 Z" fill="#000000" fill-rule="evenodd" fill-opacity="1" /><path clip-path="url(#clip4600)" d="M 0 0 M3924.32 11660.1 Q3899.13 11660.1 3884.32 11677.3 Q3869.69 11694.5 3869.69 11724.5 Q3869.69 11754.3 3884.32 11771.7 Q3899.13 11789 3924.32 11789 Q3949.5 11789 3964.13 11771.7 Q3978.95 11754.3 3978.95 11724.5 Q3978.95 11694.5 3964.13 11677.3 Q3949.5 11660.1 3924.32 11660.1 M3998.58 11542.8 L3998.58 11576.9 Q3984.5 11570.3 3970.06 11566.7 Q3955.8 11563.2 3941.72 11563.2 Q3904.69 11563.2 3885.06 11588.2 Q3865.61 11613.2 3862.84 11663.8 Q3873.76 11647.7 3890.24 11639.1 Q3906.72 11630.4 3926.54 11630.4 Q3968.21 11630.4 3992.28 11655.8 Q4016.54 11681 4016.54 11724.5 Q4016.54 11767.1 3991.35 11792.8 Q3966.17 11818.6 3924.32 11818.6 Q3876.35 11818.6 3850.98 11781.9 Q3825.61 11745.1 3825.61 11675.3 Q3825.61 11609.7 3856.73 11570.8 Q3887.84 11531.7 3940.24 11531.7 Q3954.32 11531.7 3968.58 11534.5 Q3983.02 11537.3 3998.58 11542.8 Z" fill="#000000" fill-rule="evenodd" fill-opacity="1" /><path clip-path="url(#clip4600)" d="M 0 0 M4063.58 11781.7 L4124.69 11781.7 L4124.69 11570.8 L4058.21 11584.1 L4058.21 11550.1 L4124.32 11536.7 L4161.72 11536.7 L4161.72 11781.7 L4222.83 11781.7 L4222.83 11813.2 L4063.58 11813.2 L4063.58 11781.7 Z" fill="#000000" fill-rule="evenodd" fill-opacity="1" /><path clip-path="url(#clip4600)" d="M 0 0 M4348.02 11660.1 Q4322.83 11660.1 4308.02 11677.3 Q4293.39 11694.5 4293.39 11724.5 Q4293.39 11754.3 4308.02 11771.7 Q4322.83 11789 4348.02 11789 Q4373.2 11789 4387.83 11771.7 Q4402.65 11754.3 4402.65 11724.5 Q4402.65 11694.5 4387.83 11677.3 Q4373.2 11660.1 4348.02 11660.1 M4422.28 11542.8 L4422.28 11576.9 Q4408.2 11570.3 4393.76 11566.7 Q4379.5 11563.2 4365.43 11563.2 Q4328.39 11563.2 4308.76 11588.2 Q4289.32 11613.2 4286.54 11663.8 Q4297.46 11647.7 4313.94 11639.1 Q4330.43 11630.4 4350.24 11630.4 Q4391.91 11630.4 4415.98 11655.8 Q4440.24 11681 4440.24 11724.5 Q4440.24 11767.1 4415.06 11792.8 Q4389.87 11818.6 4348.02 11818.6 Q4300.06 11818.6 4274.69 11781.9 Q4249.32 11745.1 4249.32 11675.3 Q4249.32 11609.7 4280.43 11570.8 Q4311.54 11531.7 4363.94 11531.7 Q4378.02 11531.7 4392.28 11534.5 Q4406.72 11537.3 4422.28 11542.8 Z" fill="#000000" fill-rule="evenodd" fill-opacity="1" /><path clip-path="url(#clip4600)" d="M 0 0 M6815.88 11561.4 Q6786.99 11561.4 6772.36 11589.9 Q6757.91 11618.2 6757.91 11675.3 Q6757.91 11732.1 6772.36 11760.6 Q6786.99 11789 6815.88 11789 Q6844.95 11789 6859.4 11760.6 Q6874.02 11732.1 6874.02 11675.3 Q6874.02 11618.2 6859.4 11589.9 Q6844.95 11561.4 6815.88 11561.4 M6815.88 11531.7 Q6862.36 11531.7 6886.8 11568.6 Q6911.43 11605.3 6911.43 11675.3 Q6911.43 11745.1 6886.8 11781.9 Q6862.36 11818.6 6815.88 11818.6 Q6769.4 11818.6 6744.77 11781.9 Q6720.32 11745.1 6720.32 11675.3 Q6720.32 11605.3 6744.77 11568.6 Q6769.4 11531.7 6815.88 11531.7 Z" fill="#000000" fill-rule="evenodd" fill-opacity="1" /><path clip-path="url(#clip4600)" d="M 0 0 M6951.99 11766.2 L6991.06 11766.2 L6991.06 11813.2 L6951.99 11813.2 L6951.99 11766.2 Z" fill="#000000" fill-rule="evenodd" fill-opacity="1" /><path clip-path="url(#clip4600)" d="M 0 0 M7116.25 11660.1 Q7091.06 11660.1 7076.25 11677.3 Q7061.62 11694.5 7061.62 11724.5 Q7061.62 11754.3 7076.25 11771.7 Q7091.06 11789 7116.25 11789 Q7141.43 11789 7156.06 11771.7 Q7170.87 11754.3 7170.87 11724.5 Q7170.87 11694.5 7156.06 11677.3 Q7141.43 11660.1 7116.25 11660.1 M7190.5 11542.8 L7190.5 11576.9 Q7176.43 11570.3 7161.99 11566.7 Q7147.73 11563.2 7133.65 11563.2 Q7096.62 11563.2 7076.99 11588.2 Q7057.54 11613.2 7054.76 11663.8 Q7065.69 11647.7 7082.17 11639.1 Q7098.65 11630.4 7118.47 11630.4 Q7160.13 11630.4 7184.21 11655.8 Q7208.47 11681 7208.47 11724.5 Q7208.47 11767.1 7183.28 11792.8 Q7158.1 11818.6 7116.25 11818.6 Q7068.28 11818.6 7042.91 11781.9 Q7017.54 11745.1 7017.54 11675.3 Q7017.54 11609.7 7048.65 11570.8 Q7079.76 11531.7 7132.17 11531.7 Q7146.25 11531.7 7160.5 11534.5 Q7174.95 11537.3 7190.5 11542.8 Z" fill="#000000" fill-rule="evenodd" fill-opacity="1" /><path clip-path="url(#clip4600)" d="M 0 0 M7255.5 11781.7 L7316.61 11781.7 L7316.61 11570.8 L7250.13 11584.1 L7250.13 11550.1 L7316.24 11536.7 L7353.65 11536.7 L7353.65 11781.7 L7414.76 11781.7 L7414.76 11813.2 L7255.5 11813.2 L7255.5 11781.7 Z" fill="#000000" fill-rule="evenodd" fill-opacity="1" /><path clip-path="url(#clip4600)" d="M 0 0 M7535.32 11681.9 Q7508.65 11681.9 7493.28 11696.2 Q7478.1 11710.4 7478.1 11735.4 Q7478.1 11760.4 7493.28 11774.7 Q7508.65 11789 7535.32 11789 Q7561.98 11789 7577.35 11774.7 Q7592.72 11760.3 7592.72 11735.4 Q7592.72 11710.4 7577.35 11696.2 Q7562.17 11681.9 7535.32 11681.9 M7497.91 11666 Q7473.84 11660.1 7460.32 11643.6 Q7446.98 11627.1 7446.98 11603.4 Q7446.98 11570.3 7470.5 11551 Q7494.21 11531.7 7535.32 11531.7 Q7576.61 11531.7 7600.13 11551 Q7623.65 11570.3 7623.65 11603.4 Q7623.65 11627.1 7610.13 11643.6 Q7596.8 11660.1 7572.91 11666 Q7599.95 11672.3 7614.95 11690.6 Q7630.13 11709 7630.13 11735.4 Q7630.13 11775.6 7605.5 11797.1 Q7581.06 11818.6 7535.32 11818.6 Q7489.58 11818.6 7464.95 11797.1 Q7440.5 11775.6 7440.5 11735.4 Q7440.5 11709 7455.69 11690.6 Q7470.87 11672.3 7497.91 11666 M7484.21 11606.9 Q7484.21 11628.4 7497.54 11640.4 Q7511.06 11652.5 7535.32 11652.5 Q7559.39 11652.5 7572.91 11640.4 Q7586.61 11628.4 7586.61 11606.9 Q7586.61 11585.4 7572.91 11573.4 Q7559.39 11561.4 7535.32 11561.4 Q7511.06 11561.4 7497.54 11573.4 Q7484.21 11585.4 7484.21 11606.9 Z" fill="#000000" fill-rule="evenodd" fill-opacity="1" /><path clip-path="url(#clip4600)" d="M 0 0 M10007.9 11561.4 Q9979.01 11561.4 9964.38 11589.9 Q9949.93 11618.2 9949.93 11675.3 Q9949.93 11732.1 9964.38 11760.6 Q9979.01 11789 10007.9 11789 Q10037 11789 10051.4 11760.6 Q10066 11732.1 10066 11675.3 Q10066 11618.2 10051.4 11589.9 Q10037 11561.4 10007.9 11561.4 M10007.9 11531.7 Q10054.4 11531.7 10078.8 11568.6 Q10103.5 11605.3 10103.5 11675.3 Q10103.5 11745.1 10078.8 11781.9 Q10054.4 11818.6 10007.9 11818.6 Q9961.42 11818.6 9936.79 11781.9 Q9912.34 11745.1 9912.34 11675.3 Q9912.34 11605.3 9936.79 11568.6 Q9961.42 11531.7 10007.9 11531.7 Z" fill="#000000" fill-rule="evenodd" fill-opacity="1" /><path clip-path="url(#clip4600)" d="M 0 0 M10144 11766.2 L10183.1 11766.2 L10183.1 11813.2 L10144 11813.2 L10144 11766.2 Z" fill="#000000" fill-rule="evenodd" fill-opacity="1" /><path clip-path="url(#clip4600)" d="M 0 0 M10308.3 11660.1 Q10283.1 11660.1 10268.3 11677.3 Q10253.6 11694.5 10253.6 11724.5 Q10253.6 11754.3 10268.3 11771.7 Q10283.1 11789 10308.3 11789 Q10333.5 11789 10348.1 11771.7 Q10362.9 11754.3 10362.9 11724.5 Q10362.9 11694.5 10348.1 11677.3 Q10333.5 11660.1 10308.3 11660.1 M10382.5 11542.8 L10382.5 11576.9 Q10368.5 11570.3 10354 11566.7 Q10339.7 11563.2 10325.7 11563.2 Q10288.6 11563.2 10269 11588.2 Q10249.6 11613.2 10246.8 11663.8 Q10257.7 11647.7 10274.2 11639.1 Q10290.7 11630.4 10310.5 11630.4 Q10352.2 11630.4 10376.2 11655.8 Q10400.5 11681 10400.5 11724.5 Q10400.5 11767.1 10375.3 11792.8 Q10350.1 11818.6 10308.3 11818.6 Q10260.3 11818.6 10234.9 11781.9 Q10209.6 11745.1 10209.6 11675.3 Q10209.6 11609.7 10240.7 11570.8 Q10271.8 11531.7 10324.2 11531.7 Q10338.3 11531.7 10352.5 11534.5 Q10367 11537.3 10382.5 11542.8 Z" fill="#000000" fill-rule="evenodd" fill-opacity="1" /><path clip-path="url(#clip4600)" d="M 0 0 M10473.3 11781.7 L10603.8 11781.7 L10603.8 11813.2 L10428.3 11813.2 L10428.3 11781.7 Q10449.6 11759.7 10486.2 11722.7 Q10523.1 11685.4 10532.5 11674.7 Q10550.5 11654.5 10557.5 11640.6 Q10564.7 11626.5 10564.7 11613 Q10564.7 11591 10549.2 11577.1 Q10533.8 11563.2 10509 11563.2 Q10491.4 11563.2 10471.8 11569.3 Q10452.3 11575.4 10430.1 11587.8 L10430.1 11550.1 Q10452.7 11541 10472.3 11536.4 Q10492 11531.7 10508.3 11531.7 Q10551.2 11531.7 10576.8 11553.2 Q10602.3 11574.7 10602.3 11610.6 Q10602.3 11627.7 10595.9 11643 Q10589.6 11658.2 10572.7 11679 Q10568.1 11684.3 10543.3 11710.1 Q10518.5 11735.6 10473.3 11781.7 Z" fill="#000000" fill-rule="evenodd" fill-opacity="1" /><path clip-path="url(#clip4600)" d="M 0 0 M10724.4 11561.4 Q10695.5 11561.4 10680.9 11589.9 Q10666.4 11618.2 10666.4 11675.3 Q10666.4 11732.1 10680.9 11760.6 Q10695.5 11789 10724.4 11789 Q10753.4 11789 10767.9 11760.6 Q10782.5 11732.1 10782.5 11675.3 Q10782.5 11618.2 10767.9 11589.9 Q10753.4 11561.4 10724.4 11561.4 M10724.4 11531.7 Q10770.9 11531.7 10795.3 11568.6 Q10819.9 11605.3 10819.9 11675.3 Q10819.9 11745.1 10795.3 11781.9 Q10770.9 11818.6 10724.4 11818.6 Q10677.9 11818.6 10653.3 11781.9 Q10628.8 11745.1 10628.8 11675.3 Q10628.8 11605.3 10653.3 11568.6 Q10677.9 11531.7 10724.4 11531.7 Z" fill="#000000" fill-rule="evenodd" fill-opacity="1" /><path clip-path="url(#clip4600)" d="M 0 0 M13205.2 11561.4 Q13176.3 11561.4 13161.7 11589.9 Q13147.2 11618.2 13147.2 11675.3 Q13147.2 11732.1 13161.7 11760.6 Q13176.3 11789 13205.2 11789 Q13234.3 11789 13248.7 11760.6 Q13263.3 11732.1 13263.3 11675.3 Q13263.3 11618.2 13248.7 11589.9 Q13234.3 11561.4 13205.2 11561.4 M13205.2 11531.7 Q13251.7 11531.7 13276.1 11568.6 Q13300.8 11605.3 13300.8 11675.3 Q13300.8 11745.1 13276.1 11781.9 Q13251.7 11818.6 13205.2 11818.6 Q13158.7 11818.6 13134.1 11781.9 Q13109.6 11745.1 13109.6 11675.3 Q13109.6 11605.3 13134.1 11568.6 Q13158.7 11531.7 13205.2 11531.7 Z" fill="#000000" fill-rule="evenodd" fill-opacity="1" /><path clip-path="url(#clip4600)" d="M 0 0 M13341.3 11766.2 L13380.4 11766.2 L13380.4 11813.2 L13341.3 11813.2 L13341.3 11766.2 Z" fill="#000000" fill-rule="evenodd" fill-opacity="1" /><path clip-path="url(#clip4600)" d="M 0 0 M13505.6 11660.1 Q13480.4 11660.1 13465.6 11677.3 Q13450.9 11694.5 13450.9 11724.5 Q13450.9 11754.3 13465.6 11771.7 Q13480.4 11789 13505.6 11789 Q13530.8 11789 13545.4 11771.7 Q13560.2 11754.3 13560.2 11724.5 Q13560.2 11694.5 13545.4 11677.3 Q13530.8 11660.1 13505.6 11660.1 M13579.8 11542.8 L13579.8 11576.9 Q13565.7 11570.3 13551.3 11566.7 Q13537 11563.2 13523 11563.2 Q13485.9 11563.2 13466.3 11588.2 Q13446.9 11613.2 13444.1 11663.8 Q13455 11647.7 13471.5 11639.1 Q13488 11630.4 13507.8 11630.4 Q13549.5 11630.4 13573.5 11655.8 Q13597.8 11681 13597.8 11724.5 Q13597.8 11767.1 13572.6 11792.8 Q13547.4 11818.6 13505.6 11818.6 Q13457.6 11818.6 13432.2 11781.9 Q13406.9 11745.1 13406.9 11675.3 Q13406.9 11609.7 13438 11570.8 Q13469.1 11531.7 13521.5 11531.7 Q13535.6 11531.7 13549.8 11534.5 Q13564.3 11537.3 13579.8 11542.8 Z" fill="#000000" fill-rule="evenodd" fill-opacity="1" /><path clip-path="url(#clip4600)" d="M 0 0 M13670.6 11781.7 L13801.1 11781.7 L13801.1 11813.2 L13625.6 11813.2 L13625.6 11781.7 Q13646.9 11759.7 13683.5 11722.7 Q13720.4 11685.4 13729.8 11674.7 Q13747.8 11654.5 13754.8 11640.6 Q13762 11626.5 13762 11613 Q13762 11591 13746.5 11577.1 Q13731.1 11563.2 13706.3 11563.2 Q13688.7 11563.2 13669.1 11569.3 Q13649.6 11575.4 13627.4 11587.8 L13627.4 11550.1 Q13650 11541 13669.6 11536.4 Q13689.3 11531.7 13705.6 11531.7 Q13748.5 11531.7 13774.1 11553.2 Q13799.6 11574.7 13799.6 11610.6 Q13799.6 11627.7 13793.2 11643 Q13786.9 11658.2 13770 11679 Q13765.4 11684.3 13740.6 11710.1 Q13715.7 11735.6 13670.6 11781.7 Z" fill="#000000" fill-rule="evenodd" fill-opacity="1" /><path clip-path="url(#clip4600)" d="M 0 0 M13873.9 11781.7 L14004.5 11781.7 L14004.5 11813.2 L13828.9 11813.2 L13828.9 11781.7 Q13850.2 11759.7 13886.9 11722.7 Q13923.7 11685.4 13933.2 11674.7 Q13951.1 11654.5 13958.2 11640.6 Q13965.4 11626.5 13965.4 11613 Q13965.4 11591 13949.8 11577.1 Q13934.5 11563.2 13909.6 11563.2 Q13892 11563.2 13872.4 11569.3 Q13853 11575.4 13830.7 11587.8 L13830.7 11550.1 Q13853.3 11541 13873 11536.4 Q13892.6 11531.7 13908.9 11531.7 Q13951.9 11531.7 13977.4 11553.2 Q14003 11574.7 14003 11610.6 Q14003 11627.7 13996.5 11643 Q13990.2 11658.2 13973.3 11679 Q13968.7 11684.3 13943.9 11710.1 Q13919.1 11735.6 13873.9 11781.7 Z" fill="#000000" fill-rule="evenodd" fill-opacity="1" /><path clip-path="url(#clip4600)" d="M 0 0 M16387.8 11561.4 Q16358.9 11561.4 16344.3 11589.9 Q16329.8 11618.2 16329.8 11675.3 Q16329.8 11732.1 16344.3 11760.6 Q16358.9 11789 16387.8 11789 Q16416.8 11789 16431.3 11760.6 Q16445.9 11732.1 16445.9 11675.3 Q16445.9 11618.2 16431.3 11589.9 Q16416.8 11561.4 16387.8 11561.4 M16387.8 11531.7 Q16434.3 11531.7 16458.7 11568.6 Q16483.3 11605.3 16483.3 11675.3 Q16483.3 11745.1 16458.7 11781.9 Q16434.3 11818.6 16387.8 11818.6 Q16341.3 11818.6 16316.7 11781.9 Q16292.2 11745.1 16292.2 11675.3 Q16292.2 11605.3 16316.7 11568.6 Q16341.3 11531.7 16387.8 11531.7 Z" fill="#000000" fill-rule="evenodd" fill-opacity="1" /><path clip-path="url(#clip4600)" d="M 0 0 M16523.9 11766.2 L16563 11766.2 L16563 11813.2 L16523.9 11813.2 L16523.9 11766.2 Z" fill="#000000" fill-rule="evenodd" fill-opacity="1" /><path clip-path="url(#clip4600)" d="M 0 0 M16688.1 11660.1 Q16663 11660.1 16648.1 11677.3 Q16633.5 11694.5 16633.5 11724.5 Q16633.5 11754.3 16648.1 11771.7 Q16663 11789 16688.1 11789 Q16713.3 11789 16728 11771.7 Q16742.8 11754.3 16742.8 11724.5 Q16742.8 11694.5 16728 11677.3 Q16713.3 11660.1 16688.1 11660.1 M16762.4 11542.8 L16762.4 11576.9 Q16748.3 11570.3 16733.9 11566.7 Q16719.6 11563.2 16705.5 11563.2 Q16668.5 11563.2 16648.9 11588.2 Q16629.4 11613.2 16626.7 11663.8 Q16637.6 11647.7 16654.1 11639.1 Q16670.5 11630.4 16690.4 11630.4 Q16732 11630.4 16756.1 11655.8 Q16780.4 11681 16780.4 11724.5 Q16780.4 11767.1 16755.2 11792.8 Q16730 11818.6 16688.1 11818.6 Q16640.2 11818.6 16614.8 11781.9 Q16589.4 11745.1 16589.4 11675.3 Q16589.4 11609.7 16620.5 11570.8 Q16651.7 11531.7 16704.1 11531.7 Q16718.1 11531.7 16732.4 11534.5 Q16746.8 11537.3 16762.4 11542.8 Z" fill="#000000" fill-rule="evenodd" fill-opacity="1" /><path clip-path="url(#clip4600)" d="M 0 0 M16853.1 11781.7 L16983.7 11781.7 L16983.7 11813.2 L16808.1 11813.2 L16808.1 11781.7 Q16829.4 11759.7 16866.1 11722.7 Q16903 11685.4 16912.4 11674.7 Q16930.4 11654.5 16937.4 11640.6 Q16944.6 11626.5 16944.6 11613 Q16944.6 11591 16929.1 11577.1 Q16913.7 11563.2 16888.9 11563.2 Q16871.3 11563.2 16851.7 11569.3 Q16832.2 11575.4 16810 11587.8 L16810 11550.1 Q16832.6 11541 16852.2 11536.4 Q16871.8 11531.7 16888.1 11531.7 Q16931.1 11531.7 16956.7 11553.2 Q16982.2 11574.7 16982.2 11610.6 Q16982.2 11627.7 16975.7 11643 Q16969.4 11658.2 16952.6 11679 Q16948 11684.3 16923.1 11710.1 Q16898.3 11735.6 16853.1 11781.7 Z" fill="#000000" fill-rule="evenodd" fill-opacity="1" /><path clip-path="url(#clip4600)" d="M 0 0 M17127 11569.3 L17032.6 11716.9 L17127 11716.9 L17127 11569.3 M17117.2 11536.7 L17164.2 11536.7 L17164.2 11716.9 L17203.7 11716.9 L17203.7 11748 L17164.2 11748 L17164.2 11813.2 L17127 11813.2 L17127 11748 L17002.2 11748 L17002.2 11711.9 L17117.2 11536.7 Z" fill="#000000" fill-rule="evenodd" fill-opacity="1" /><path clip-path="url(#clip4600)" d="M 0 0 M1109.53 11157.3 Q1080.64 11157.3 1066.01 11185.8 Q1051.56 11214.1 1051.56 11271.2 Q1051.56 11328 1066.01 11356.5 Q1080.64 11384.9 1109.53 11384.9 Q1138.6 11384.9 1153.04 11356.5 Q1167.67 11328 1167.67 11271.2 Q1167.67 11214.1 1153.04 11185.8 Q1138.6 11157.3 1109.53 11157.3 M1109.53 11127.7 Q1156.01 11127.7 1180.45 11164.5 Q1205.08 11201.2 1205.08 11271.2 Q1205.08 11341 1180.45 11377.8 Q1156.01 11414.5 1109.53 11414.5 Q1063.04 11414.5 1038.41 11377.8 Q1013.97 11341 1013.97 11271.2 Q1013.97 11201.2 1038.41 11164.5 Q1063.04 11127.7 1109.53 11127.7 Z" fill="#000000" fill-rule="evenodd" fill-opacity="1" /><path clip-path="url(#clip4600)" d="M 0 0 M1245.64 11362.1 L1284.71 11362.1 L1284.71 11409.1 L1245.64 11409.1 L1245.64 11362.1 Z" fill="#000000" fill-rule="evenodd" fill-opacity="1" /><path clip-path="url(#clip4600)" d="M 0 0 M1409.89 11256 Q1384.71 11256 1369.89 11273.2 Q1355.26 11290.4 1355.26 11320.4 Q1355.26 11350.2 1369.89 11367.7 Q1384.71 11384.9 1409.89 11384.9 Q1435.08 11384.9 1449.71 11367.7 Q1464.52 11350.2 1464.52 11320.4 Q1464.52 11290.4 1449.71 11273.2 Q1435.08 11256 1409.89 11256 M1484.15 11138.8 L1484.15 11172.8 Q1470.08 11166.2 1455.63 11162.7 Q1441.38 11159.1 1427.3 11159.1 Q1390.26 11159.1 1370.63 11184.1 Q1351.19 11209.1 1348.41 11259.7 Q1359.34 11243.6 1375.82 11235.1 Q1392.3 11226.4 1412.12 11226.4 Q1453.78 11226.4 1477.86 11251.7 Q1502.12 11276.9 1502.12 11320.4 Q1502.12 11363 1476.93 11388.8 Q1451.75 11414.5 1409.89 11414.5 Q1361.93 11414.5 1336.56 11377.8 Q1311.19 11341 1311.19 11271.2 Q1311.19 11205.6 1342.3 11166.7 Q1373.41 11127.7 1425.82 11127.7 Q1439.89 11127.7 1454.15 11130.4 Q1468.6 11133.2 1484.15 11138.8 Z" fill="#000000" fill-rule="evenodd" fill-opacity="1" /><path clip-path="url(#clip4600)" d="M 0 0 M1622.67 11157.3 Q1593.78 11157.3 1579.15 11185.8 Q1564.71 11214.1 1564.71 11271.2 Q1564.71 11328 1579.15 11356.5 Q1593.78 11384.9 1622.67 11384.9 Q1651.74 11384.9 1666.19 11356.5 Q1680.82 11328 1680.82 11271.2 Q1680.82 11214.1 1666.19 11185.8 Q1651.74 11157.3 1622.67 11157.3 M1622.67 11127.7 Q1669.15 11127.7 1693.6 11164.5 Q1718.23 11201.2 1718.23 11271.2 Q1718.23 11341 1693.6 11377.8 Q1669.15 11414.5 1622.67 11414.5 Q1576.19 11414.5 1551.56 11377.8 Q1527.12 11341 1527.12 11271.2 Q1527.12 11201.2 1551.56 11164.5 Q1576.19 11127.7 1622.67 11127.7 Z" fill="#000000" fill-rule="evenodd" fill-opacity="1" /><path clip-path="url(#clip4600)" d="M 0 0 M1119.34 9594.95 Q1090.45 9594.95 1075.82 9623.47 Q1061.38 9651.8 1061.38 9708.84 Q1061.38 9765.69 1075.82 9794.21 Q1090.45 9822.54 1119.34 9822.54 Q1148.41 9822.54 1162.86 9794.21 Q1177.49 9765.69 1177.49 9708.84 Q1177.49 9651.8 1162.86 9623.47 Q1148.41 9594.95 1119.34 9594.95 M1119.34 9565.32 Q1165.82 9565.32 1190.27 9602.17 Q1214.89 9638.84 1214.89 9708.84 Q1214.89 9778.65 1190.27 9815.51 Q1165.82 9852.17 1119.34 9852.17 Q1072.86 9852.17 1048.23 9815.51 Q1023.78 9778.65 1023.78 9708.84 Q1023.78 9638.84 1048.23 9602.17 Q1072.86 9565.32 1119.34 9565.32 Z" fill="#000000" fill-rule="evenodd" fill-opacity="1" /><path clip-path="url(#clip4600)" d="M 0 0 M1255.45 9799.77 L1294.52 9799.77 L1294.52 9846.8 L1255.45 9846.8 L1255.45 9799.77 Z" fill="#000000" fill-rule="evenodd" fill-opacity="1" /><path clip-path="url(#clip4600)" d="M 0 0 M1419.71 9693.66 Q1394.52 9693.66 1379.71 9710.88 Q1365.08 9728.1 1365.08 9758.1 Q1365.08 9787.91 1379.71 9805.32 Q1394.52 9822.54 1419.71 9822.54 Q1444.89 9822.54 1459.52 9805.32 Q1474.34 9787.91 1474.34 9758.1 Q1474.34 9728.1 1459.52 9710.88 Q1444.89 9693.66 1419.71 9693.66 M1493.97 9576.43 L1493.97 9610.51 Q1479.89 9603.84 1465.45 9600.32 Q1451.19 9596.8 1437.12 9596.8 Q1400.08 9596.8 1380.45 9621.8 Q1361.01 9646.8 1358.23 9697.36 Q1369.15 9681.25 1385.63 9672.73 Q1402.12 9664.03 1421.93 9664.03 Q1463.6 9664.03 1487.67 9689.4 Q1511.93 9714.58 1511.93 9758.1 Q1511.93 9800.69 1486.75 9826.43 Q1461.56 9852.17 1419.71 9852.17 Q1371.75 9852.17 1346.38 9815.51 Q1321.01 9778.65 1321.01 9708.84 Q1321.01 9643.29 1352.12 9604.4 Q1383.23 9565.32 1435.63 9565.32 Q1449.71 9565.32 1463.97 9568.1 Q1478.41 9570.88 1493.97 9576.43 Z" fill="#000000" fill-rule="evenodd" fill-opacity="1" /><path clip-path="url(#clip4600)" d="M 0 0 M1558.97 9815.32 L1620.08 9815.32 L1620.08 9604.4 L1553.6 9617.73 L1553.6 9583.66 L1619.71 9570.32 L1657.11 9570.32 L1657.11 9815.32 L1718.23 9815.32 L1718.23 9846.8 L1558.97 9846.8 L1558.97 9815.32 Z" fill="#000000" fill-rule="evenodd" fill-opacity="1" /><path clip-path="url(#clip4600)" d="M 0 0 M1122.3 8032.62 Q1093.41 8032.62 1078.78 8061.14 Q1064.34 8089.47 1064.34 8146.51 Q1064.34 8203.36 1078.78 8231.88 Q1093.41 8260.21 1122.3 8260.21 Q1151.38 8260.21 1165.82 8231.88 Q1180.45 8203.36 1180.45 8146.51 Q1180.45 8089.47 1165.82 8061.14 Q1151.38 8032.62 1122.3 8032.62 M1122.3 8002.99 Q1168.78 8002.99 1193.23 8039.84 Q1217.86 8076.51 1217.86 8146.51 Q1217.86 8216.33 1193.23 8253.18 Q1168.78 8289.84 1122.3 8289.84 Q1075.82 8289.84 1051.19 8253.18 Q1026.75 8216.33 1026.75 8146.51 Q1026.75 8076.51 1051.19 8039.84 Q1075.82 8002.99 1122.3 8002.99 Z" fill="#000000" fill-rule="evenodd" fill-opacity="1" /><path clip-path="url(#clip4600)" d="M 0 0 M1258.41 8237.44 L1297.49 8237.44 L1297.49 8284.47 L1258.41 8284.47 L1258.41 8237.44 Z" fill="#000000" fill-rule="evenodd" fill-opacity="1" /><path clip-path="url(#clip4600)" d="M 0 0 M1422.67 8131.33 Q1397.49 8131.33 1382.67 8148.55 Q1368.04 8165.77 1368.04 8195.77 Q1368.04 8225.58 1382.67 8242.99 Q1397.49 8260.21 1422.67 8260.21 Q1447.86 8260.21 1462.49 8242.99 Q1477.3 8225.58 1477.3 8195.77 Q1477.3 8165.77 1462.49 8148.55 Q1447.86 8131.33 1422.67 8131.33 M1496.93 8014.1 L1496.93 8048.18 Q1482.86 8041.51 1468.41 8037.99 Q1454.15 8034.47 1440.08 8034.47 Q1403.04 8034.47 1383.41 8059.47 Q1363.97 8084.47 1361.19 8135.03 Q1372.12 8118.92 1388.6 8110.4 Q1405.08 8101.7 1424.89 8101.7 Q1466.56 8101.7 1490.63 8127.07 Q1514.89 8152.25 1514.89 8195.77 Q1514.89 8238.36 1489.71 8264.1 Q1464.52 8289.84 1422.67 8289.84 Q1374.71 8289.84 1349.34 8253.18 Q1323.97 8216.33 1323.97 8146.51 Q1323.97 8080.96 1355.08 8042.07 Q1386.19 8002.99 1438.6 8002.99 Q1452.67 8002.99 1466.93 8005.77 Q1481.38 8008.55 1496.93 8014.1 Z" fill="#000000" fill-rule="evenodd" fill-opacity="1" /><path clip-path="url(#clip4600)" d="M 0 0 M1587.67 8252.99 L1718.23 8252.99 L1718.23 8284.47 L1542.67 8284.47 L1542.67 8252.99 Q1563.97 8230.95 1600.63 8193.92 Q1637.49 8156.7 1646.93 8145.96 Q1664.89 8125.77 1671.93 8111.88 Q1679.15 8097.81 1679.15 8084.29 Q1679.15 8062.25 1663.6 8048.36 Q1648.23 8034.47 1623.41 8034.47 Q1605.82 8034.47 1586.19 8040.59 Q1566.74 8046.7 1544.52 8059.1 L1544.52 8021.33 Q1567.12 8012.25 1586.74 8007.62 Q1606.37 8002.99 1622.67 8002.99 Q1665.63 8002.99 1691.19 8024.47 Q1716.74 8045.96 1716.74 8081.88 Q1716.74 8098.92 1710.26 8114.29 Q1703.97 8129.47 1687.11 8150.21 Q1682.49 8155.59 1657.67 8181.33 Q1632.86 8206.88 1587.67 8252.99 Z" fill="#000000" fill-rule="evenodd" fill-opacity="1" /><path clip-path="url(#clip4600)" d="M 0 0 M1114.71 6470.29 Q1085.82 6470.29 1071.19 6498.81 Q1056.75 6527.14 1056.75 6584.18 Q1056.75 6641.03 1071.19 6669.55 Q1085.82 6697.88 1114.71 6697.88 Q1143.78 6697.88 1158.23 6669.55 Q1172.86 6641.03 1172.86 6584.18 Q1172.86 6527.14 1158.23 6498.81 Q1143.78 6470.29 1114.71 6470.29 M1114.71 6440.66 Q1161.19 6440.66 1185.64 6477.52 Q1210.27 6514.18 1210.27 6584.18 Q1210.27 6654 1185.64 6690.85 Q1161.19 6727.51 1114.71 6727.51 Q1068.23 6727.51 1043.6 6690.85 Q1019.16 6654 1019.16 6584.18 Q1019.16 6514.18 1043.6 6477.52 Q1068.23 6440.66 1114.71 6440.66 Z" fill="#000000" fill-rule="evenodd" fill-opacity="1" /><path clip-path="url(#clip4600)" d="M 0 0 M1250.82 6675.11 L1289.89 6675.11 L1289.89 6722.14 L1250.82 6722.14 L1250.82 6675.11 Z" fill="#000000" fill-rule="evenodd" fill-opacity="1" /><path clip-path="url(#clip4600)" d="M 0 0 M1415.08 6569 Q1389.89 6569 1375.08 6586.22 Q1360.45 6603.44 1360.45 6633.44 Q1360.45 6663.26 1375.08 6680.66 Q1389.89 6697.88 1415.08 6697.88 Q1440.26 6697.88 1454.89 6680.66 Q1469.71 6663.26 1469.71 6633.44 Q1469.71 6603.44 1454.89 6586.22 Q1440.26 6569 1415.08 6569 M1489.34 6451.77 L1489.34 6485.85 Q1475.26 6479.18 1460.82 6475.66 Q1446.56 6472.15 1432.49 6472.15 Q1395.45 6472.15 1375.82 6497.15 Q1356.38 6522.14 1353.6 6572.7 Q1364.52 6556.59 1381.01 6548.07 Q1397.49 6539.37 1417.3 6539.37 Q1458.97 6539.37 1483.04 6564.74 Q1507.3 6589.92 1507.3 6633.44 Q1507.3 6676.03 1482.12 6701.77 Q1456.93 6727.51 1415.08 6727.51 Q1367.12 6727.51 1341.75 6690.85 Q1316.38 6654 1316.38 6584.18 Q1316.38 6518.63 1347.49 6479.74 Q1378.6 6440.66 1431 6440.66 Q1445.08 6440.66 1459.34 6443.44 Q1473.78 6446.22 1489.34 6451.77 Z" fill="#000000" fill-rule="evenodd" fill-opacity="1" /><path clip-path="url(#clip4600)" d="M 0 0 M1661.19 6573.07 Q1688.04 6578.81 1703.04 6596.96 Q1718.23 6615.11 1718.23 6641.77 Q1718.23 6682.7 1690.08 6705.11 Q1661.93 6727.51 1610.08 6727.51 Q1592.67 6727.51 1574.15 6724 Q1555.82 6720.66 1536.19 6713.81 L1536.19 6677.7 Q1551.75 6686.77 1570.26 6691.4 Q1588.78 6696.03 1608.97 6696.03 Q1644.15 6696.03 1662.49 6682.14 Q1681 6668.26 1681 6641.77 Q1681 6617.33 1663.78 6603.63 Q1646.74 6589.74 1616.19 6589.74 L1583.97 6589.74 L1583.97 6559 L1617.67 6559 Q1645.26 6559 1659.89 6548.07 Q1674.52 6536.96 1674.52 6516.22 Q1674.52 6494.92 1659.34 6483.63 Q1644.34 6472.15 1616.19 6472.15 Q1600.82 6472.15 1583.23 6475.48 Q1565.63 6478.81 1544.52 6485.85 L1544.52 6452.52 Q1565.82 6446.59 1584.34 6443.63 Q1603.04 6440.66 1619.52 6440.66 Q1662.11 6440.66 1686.93 6460.11 Q1711.74 6479.37 1711.74 6512.33 Q1711.74 6535.29 1698.6 6551.22 Q1685.45 6566.96 1661.19 6573.07 Z" fill="#000000" fill-rule="evenodd" fill-opacity="1" /><path clip-path="url(#clip4600)" d="M 0 0 M1105.64 4907.96 Q1076.75 4907.96 1062.12 4936.48 Q1047.67 4964.82 1047.67 5021.85 Q1047.67 5078.7 1062.12 5107.22 Q1076.75 5135.56 1105.64 5135.56 Q1134.71 5135.56 1149.15 5107.22 Q1163.78 5078.7 1163.78 5021.85 Q1163.78 4964.82 1149.15 4936.48 Q1134.71 4907.96 1105.64 4907.96 M1105.64 4878.33 Q1152.12 4878.33 1176.56 4915.19 Q1201.19 4951.85 1201.19 5021.85 Q1201.19 5091.67 1176.56 5128.52 Q1152.12 5165.18 1105.64 5165.18 Q1059.16 5165.18 1034.53 5128.52 Q1010.08 5091.67 1010.08 5021.85 Q1010.08 4951.85 1034.53 4915.19 Q1059.16 4878.33 1105.64 4878.33 Z" fill="#000000" fill-rule="evenodd" fill-opacity="1" /><path clip-path="url(#clip4600)" d="M 0 0 M1241.75 5112.78 L1280.82 5112.78 L1280.82 5159.81 L1241.75 5159.81 L1241.75 5112.78 Z" fill="#000000" fill-rule="evenodd" fill-opacity="1" /><path clip-path="url(#clip4600)" d="M 0 0 M1406.01 5006.67 Q1380.82 5006.67 1366.01 5023.89 Q1351.38 5041.11 1351.38 5071.11 Q1351.38 5100.93 1366.01 5118.33 Q1380.82 5135.56 1406.01 5135.56 Q1431.19 5135.56 1445.82 5118.33 Q1460.63 5100.93 1460.63 5071.11 Q1460.63 5041.11 1445.82 5023.89 Q1431.19 5006.67 1406.01 5006.67 M1480.26 4889.45 L1480.26 4923.52 Q1466.19 4916.85 1451.75 4913.33 Q1437.49 4909.82 1423.41 4909.82 Q1386.38 4909.82 1366.75 4934.82 Q1347.3 4959.82 1344.52 5010.37 Q1355.45 4994.26 1371.93 4985.74 Q1388.41 4977.04 1408.23 4977.04 Q1449.89 4977.04 1473.97 5002.41 Q1498.23 5027.59 1498.23 5071.11 Q1498.23 5113.7 1473.04 5139.44 Q1447.86 5165.18 1406.01 5165.18 Q1358.04 5165.18 1332.67 5128.52 Q1307.3 5091.67 1307.3 5021.85 Q1307.3 4956.3 1338.41 4917.41 Q1369.52 4878.33 1421.93 4878.33 Q1436 4878.33 1450.26 4881.11 Q1464.71 4883.89 1480.26 4889.45 Z" fill="#000000" fill-rule="evenodd" fill-opacity="1" /><path clip-path="url(#clip4600)" d="M 0 0 M1641.56 4915.93 L1547.12 5063.52 L1641.56 5063.52 L1641.56 4915.93 M1631.74 4883.33 L1678.78 4883.33 L1678.78 5063.52 L1718.23 5063.52 L1718.23 5094.63 L1678.78 5094.63 L1678.78 5159.81 L1641.56 5159.81 L1641.56 5094.63 L1516.75 5094.63 L1516.75 5058.52 L1631.74 4883.33 Z" fill="#000000" fill-rule="evenodd" fill-opacity="1" /><path clip-path="url(#clip4600)" d="M 0 0 M1117.49 3345.63 Q1088.6 3345.63 1073.97 3374.15 Q1059.53 3402.49 1059.53 3459.52 Q1059.53 3516.37 1073.97 3544.89 Q1088.6 3573.23 1117.49 3573.23 Q1146.56 3573.23 1161.01 3544.89 Q1175.64 3516.37 1175.64 3459.52 Q1175.64 3402.49 1161.01 3374.15 Q1146.56 3345.63 1117.49 3345.63 M1117.49 3316.01 Q1163.97 3316.01 1188.41 3352.86 Q1213.04 3389.52 1213.04 3459.52 Q1213.04 3529.34 1188.41 3566.19 Q1163.97 3602.86 1117.49 3602.86 Q1071.01 3602.86 1046.38 3566.19 Q1021.93 3529.34 1021.93 3459.52 Q1021.93 3389.52 1046.38 3352.86 Q1071.01 3316.01 1117.49 3316.01 Z" fill="#000000" fill-rule="evenodd" fill-opacity="1" /><path clip-path="url(#clip4600)" d="M 0 0 M1253.6 3550.45 L1292.67 3550.45 L1292.67 3597.49 L1253.6 3597.49 L1253.6 3550.45 Z" fill="#000000" fill-rule="evenodd" fill-opacity="1" /><path clip-path="url(#clip4600)" d="M 0 0 M1417.86 3444.34 Q1392.67 3444.34 1377.86 3461.56 Q1363.23 3478.78 1363.23 3508.78 Q1363.23 3538.6 1377.86 3556 Q1392.67 3573.23 1417.86 3573.23 Q1443.04 3573.23 1457.67 3556 Q1472.49 3538.6 1472.49 3508.78 Q1472.49 3478.78 1457.67 3461.56 Q1443.04 3444.34 1417.86 3444.34 M1492.12 3327.12 L1492.12 3361.19 Q1478.04 3354.52 1463.6 3351 Q1449.34 3347.49 1435.26 3347.49 Q1398.23 3347.49 1378.6 3372.49 Q1359.15 3397.49 1356.38 3448.04 Q1367.3 3431.93 1383.78 3423.41 Q1400.26 3414.71 1420.08 3414.71 Q1461.75 3414.71 1485.82 3440.08 Q1510.08 3465.26 1510.08 3508.78 Q1510.08 3551.37 1484.89 3577.11 Q1459.71 3602.86 1417.86 3602.86 Q1369.89 3602.86 1344.52 3566.19 Q1319.15 3529.34 1319.15 3459.52 Q1319.15 3393.97 1350.26 3355.08 Q1381.38 3316.01 1433.78 3316.01 Q1447.86 3316.01 1462.12 3318.78 Q1476.56 3321.56 1492.12 3327.12 Z" fill="#000000" fill-rule="evenodd" fill-opacity="1" /><path clip-path="url(#clip4600)" d="M 0 0 M1551 3321.01 L1697.86 3321.01 L1697.86 3352.49 L1585.26 3352.49 L1585.26 3420.26 Q1593.41 3417.49 1601.56 3416.19 Q1609.71 3414.71 1617.86 3414.71 Q1664.15 3414.71 1691.19 3440.08 Q1718.23 3465.45 1718.23 3508.78 Q1718.23 3553.41 1690.45 3578.23 Q1662.67 3602.86 1612.12 3602.86 Q1594.71 3602.86 1576.56 3599.89 Q1558.6 3596.93 1539.34 3591 L1539.34 3553.41 Q1556 3562.49 1573.78 3566.93 Q1591.56 3571.37 1611.37 3571.37 Q1643.41 3571.37 1662.11 3554.52 Q1680.82 3537.67 1680.82 3508.78 Q1680.82 3479.89 1662.11 3463.04 Q1643.41 3446.19 1611.37 3446.19 Q1596.37 3446.19 1581.37 3449.52 Q1566.56 3452.86 1551 3459.89 L1551 3321.01 Z" fill="#000000" fill-rule="evenodd" fill-opacity="1" /><path clip-path="url(#clip4600)" d="M 0 0 M1108.23 1783.31 Q1079.34 1783.31 1064.71 1811.82 Q1050.27 1840.16 1050.27 1897.19 Q1050.27 1954.05 1064.71 1982.56 Q1079.34 2010.9 1108.23 2010.9 Q1137.3 2010.9 1151.75 1982.56 Q1166.38 1954.05 1166.38 1897.19 Q1166.38 1840.16 1151.75 1811.82 Q1137.3 1783.31 1108.23 1783.31 M1108.23 1753.68 Q1154.71 1753.68 1179.15 1790.53 Q1203.78 1827.19 1203.78 1897.19 Q1203.78 1967.01 1179.15 2003.86 Q1154.71 2040.53 1108.23 2040.53 Q1061.75 2040.53 1037.12 2003.86 Q1012.67 1967.01 1012.67 1897.19 Q1012.67 1827.19 1037.12 1790.53 Q1061.75 1753.68 1108.23 1753.68 Z" fill="#000000" fill-rule="evenodd" fill-opacity="1" /><path clip-path="url(#clip4600)" d="M 0 0 M1244.34 1988.12 L1283.41 1988.12 L1283.41 2035.16 L1244.34 2035.16 L1244.34 1988.12 Z" fill="#000000" fill-rule="evenodd" fill-opacity="1" /><path clip-path="url(#clip4600)" d="M 0 0 M1408.6 1882.01 Q1383.41 1882.01 1368.6 1899.23 Q1353.97 1916.45 1353.97 1946.45 Q1353.97 1976.27 1368.6 1993.67 Q1383.41 2010.9 1408.6 2010.9 Q1433.78 2010.9 1448.41 1993.67 Q1463.23 1976.27 1463.23 1946.45 Q1463.23 1916.45 1448.41 1899.23 Q1433.78 1882.01 1408.6 1882.01 M1482.86 1764.79 L1482.86 1798.86 Q1468.78 1792.19 1454.34 1788.68 Q1440.08 1785.16 1426 1785.16 Q1388.97 1785.16 1369.34 1810.16 Q1349.89 1835.16 1347.12 1885.71 Q1358.04 1869.6 1374.52 1861.08 Q1391.01 1852.38 1410.82 1852.38 Q1452.49 1852.38 1476.56 1877.75 Q1500.82 1902.93 1500.82 1946.45 Q1500.82 1989.04 1475.63 2014.79 Q1450.45 2040.53 1408.6 2040.53 Q1360.63 2040.53 1335.26 2003.86 Q1309.89 1967.01 1309.89 1897.19 Q1309.89 1831.64 1341.01 1792.75 Q1372.12 1753.68 1424.52 1753.68 Q1438.6 1753.68 1452.86 1756.45 Q1467.3 1759.23 1482.86 1764.79 Z" fill="#000000" fill-rule="evenodd" fill-opacity="1" /><path clip-path="url(#clip4600)" d="M 0 0 M1626 1882.01 Q1600.82 1882.01 1586 1899.23 Q1571.37 1916.45 1571.37 1946.45 Q1571.37 1976.27 1586 1993.67 Q1600.82 2010.9 1626 2010.9 Q1651.19 2010.9 1665.82 1993.67 Q1680.63 1976.27 1680.63 1946.45 Q1680.63 1916.45 1665.82 1899.23 Q1651.19 1882.01 1626 1882.01 M1700.26 1764.79 L1700.26 1798.86 Q1686.19 1792.19 1671.74 1788.68 Q1657.49 1785.16 1643.41 1785.16 Q1606.37 1785.16 1586.74 1810.16 Q1567.3 1835.16 1564.52 1885.71 Q1575.45 1869.6 1591.93 1861.08 Q1608.41 1852.38 1628.23 1852.38 Q1669.89 1852.38 1693.97 1877.75 Q1718.23 1902.93 1718.23 1946.45 Q1718.23 1989.04 1693.04 2014.79 Q1667.86 2040.53 1626 2040.53 Q1578.04 2040.53 1552.67 2003.86 Q1527.3 1967.01 1527.3 1897.19 Q1527.3 1831.64 1558.41 1792.75 Q1589.52 1753.68 1641.93 1753.68 Q1656 1753.68 1670.26 1756.45 Q1684.71 1759.23 1700.26 1764.79 Z" fill="#000000" fill-rule="evenodd" fill-opacity="1" /><path clip-path="url(#clip4600)" d="M 0 0 M5937.85 228.341 L5937.85 284.73 Q5912.57 271.767 5885.35 265.286 Q5858.13 258.804 5828.96 258.804 Q5784.56 258.804 5762.2 272.415 Q5740.17 286.026 5740.17 313.248 Q5740.17 333.989 5756.05 345.98 Q5771.92 357.646 5819.89 368.341 L5840.3 372.878 Q5903.82 386.489 5930.4 411.442 Q5957.29 436.072 5957.29 480.47 Q5957.29 531.025 5917.11 560.516 Q5877.25 590.006 5807.25 590.006 Q5778.08 590.006 5746.32 584.173 Q5714.89 578.664 5679.89 567.321 L5679.89 505.747 Q5712.94 522.923 5745.03 531.673 Q5777.11 540.099 5808.55 540.099 Q5850.67 540.099 5873.36 525.84 Q5896.04 511.257 5896.04 485.007 Q5896.04 460.701 5879.52 447.738 Q5863.31 434.775 5807.9 422.785 L5787.16 417.924 Q5731.74 406.257 5707.11 382.276 Q5682.48 357.97 5682.48 315.841 Q5682.48 264.637 5718.78 236.767 Q5755.07 208.897 5821.83 208.897 Q5854.89 208.897 5884.05 213.758 Q5913.22 218.619 5937.85 228.341 Z" fill="#000000" fill-rule="evenodd" fill-opacity="1" /><path clip-path="url(#clip4600)" d="M 0 0 M6019.84 217.647 L6079.47 217.647 L6079.47 580.608 L6019.84 580.608 L6019.84 217.647 M6019.84 76.3514 L6079.47 76.3514 L6079.47 151.86 L6019.84 151.86 L6019.84 76.3514 Z" fill="#000000" fill-rule="evenodd" fill-opacity="1" /><path clip-path="url(#clip4600)" d="M 0 0 M6116.09 217.647 L6399.33 217.647 L6399.33 272.091 L6175.07 532.969 L6399.33 532.969 L6399.33 580.608 L6107.99 580.608 L6107.99 526.164 L6332.25 265.286 L6116.09 265.286 L6116.09 217.647 Z" fill="#000000" fill-rule="evenodd" fill-opacity="1" /><path clip-path="url(#clip4600)" d="M 0 0 M6772.34 384.22 L6772.34 413.387 L6498.17 413.387 Q6502.06 474.96 6535.12 507.368 Q6568.49 539.451 6627.8 539.451 Q6662.15 539.451 6694.23 531.025 Q6726.64 522.599 6758.4 505.747 L6758.4 562.136 Q6726.32 575.747 6692.61 582.877 Q6658.91 590.006 6624.24 590.006 Q6537.38 590.006 6486.5 539.451 Q6435.95 488.896 6435.95 402.692 Q6435.95 313.572 6483.91 261.397 Q6532.2 208.897 6613.86 208.897 Q6687.11 208.897 6729.56 256.212 Q6772.34 303.202 6772.34 384.22 M6712.71 366.72 Q6712.06 317.785 6685.16 288.619 Q6658.59 259.452 6614.51 259.452 Q6564.61 259.452 6534.47 287.647 Q6504.65 315.841 6500.12 367.044 L6712.71 366.72 Z" fill="#000000" fill-rule="evenodd" fill-opacity="1" /><path clip-path="url(#clip4600)" d="M 0 0 M6850.11 498.294 L6918.49 498.294 L6918.49 580.608 L6850.11 580.608 L6850.11 498.294 M6850.11 237.415 L6918.49 237.415 L6918.49 319.73 L6850.11 319.73 L6850.11 237.415 Z" fill="#000000" fill-rule="evenodd" fill-opacity="1" /><path clip-path="url(#clip4600)" d="M 0 0 M7137.57 312.6 Q7093.49 312.6 7067.57 342.739 Q7041.96 372.878 7041.96 425.377 Q7041.96 477.553 7067.57 508.016 Q7093.49 538.155 7137.57 538.155 Q7181.64 538.155 7207.24 508.016 Q7233.17 477.553 7233.17 425.377 Q7233.17 372.878 7207.24 342.739 Q7181.64 312.6 7137.57 312.6 M7267.52 107.462 L7267.52 167.092 Q7242.89 155.425 7217.61 149.268 Q7192.66 143.11 7168.03 143.11 Q7103.21 143.11 7068.86 186.86 Q7034.83 230.61 7029.97 319.082 Q7049.09 290.887 7077.94 275.98 Q7106.78 260.749 7141.45 260.749 Q7214.37 260.749 7256.5 305.147 Q7298.95 349.22 7298.95 425.377 Q7298.95 499.914 7254.88 544.96 Q7210.81 590.006 7137.57 590.006 Q7053.63 590.006 7009.23 525.84 Q6964.84 461.349 6964.84 339.174 Q6964.84 224.453 7019.28 156.397 Q7073.72 88.018 7165.44 88.018 Q7190.07 88.018 7215.02 92.8791 Q7240.3 97.7402 7267.52 107.462 Z" fill="#000000" fill-rule="evenodd" fill-opacity="1" /><path clip-path="url(#clip4600)" d="M 0 0 M7376.73 498.294 L7445.11 498.294 L7445.11 554.034 L7391.96 657.737 L7350.16 657.737 L7376.73 554.034 L7376.73 498.294 Z" fill="#000000" fill-rule="evenodd" fill-opacity="1" /><path clip-path="url(#clip4600)" d="M 0 0 M7656.08 350.841 Q7609.42 350.841 7582.52 375.794 Q7555.94 400.748 7555.94 444.498 Q7555.94 488.247 7582.52 513.201 Q7609.42 538.155 7656.08 538.155 Q7702.75 538.155 7729.65 513.201 Q7756.54 487.923 7756.54 444.498 Q7756.54 400.748 7729.65 375.794 Q7703.07 350.841 7656.08 350.841 M7590.62 322.97 Q7548.49 312.6 7524.83 283.758 Q7501.5 254.915 7501.5 213.434 Q7501.5 155.425 7542.66 121.722 Q7584.14 88.018 7656.08 88.018 Q7728.35 88.018 7769.51 121.722 Q7810.66 155.425 7810.66 213.434 Q7810.66 254.915 7787.01 283.758 Q7763.67 312.6 7721.87 322.97 Q7769.18 333.989 7795.43 366.072 Q7822.01 398.155 7822.01 444.498 Q7822.01 514.821 7778.9 552.414 Q7736.13 590.006 7656.08 590.006 Q7576.04 590.006 7532.93 552.414 Q7490.16 514.821 7490.16 444.498 Q7490.16 398.155 7516.73 366.072 Q7543.3 333.989 7590.62 322.97 M7566.64 219.591 Q7566.64 257.184 7589.97 278.249 Q7613.63 299.313 7656.08 299.313 Q7698.21 299.313 7721.87 278.249 Q7745.85 257.184 7745.85 219.591 Q7745.85 181.999 7721.87 160.934 Q7698.21 139.87 7656.08 139.87 Q7613.63 139.87 7589.97 160.934 Q7566.64 181.999 7566.64 219.591 Z" fill="#000000" fill-rule="evenodd" fill-opacity="1" /><path clip-path="url(#clip4600)" d="M 0 0 M7899.78 498.294 L7968.16 498.294 L7968.16 554.034 L7915.02 657.737 L7873.21 657.737 L7899.78 554.034 L7899.78 498.294 Z" fill="#000000" fill-rule="evenodd" fill-opacity="1" /><path clip-path="url(#clip4600)" d="M 0 0 M8050.48 525.516 L8157.42 525.516 L8157.42 156.397 L8041.08 179.731 L8041.08 120.101 L8156.77 96.768 L8222.24 96.768 L8222.24 525.516 L8329.18 525.516 L8329.18 580.608 L8050.48 580.608 L8050.48 525.516 Z" fill="#000000" fill-rule="evenodd" fill-opacity="1" /><path clip-path="url(#clip4600)" d="M 0 0 M8540.15 139.87 Q8489.6 139.87 8463.99 189.777 Q8438.72 239.36 8438.72 339.174 Q8438.72 438.664 8463.99 488.571 Q8489.6 538.155 8540.15 538.155 Q8591.03 538.155 8616.31 488.571 Q8641.91 438.664 8641.91 339.174 Q8641.91 239.36 8616.31 189.777 Q8591.03 139.87 8540.15 139.87 M8540.15 88.018 Q8621.49 88.018 8664.27 152.508 Q8707.37 216.675 8707.37 339.174 Q8707.37 461.349 8664.27 525.84 Q8621.49 590.006 8540.15 590.006 Q8458.81 590.006 8415.71 525.84 Q8372.93 461.349 8372.93 339.174 Q8372.93 216.675 8415.71 152.508 Q8458.81 88.018 8540.15 88.018 Z" fill="#000000" fill-rule="evenodd" fill-opacity="1" /><path clip-path="url(#clip4600)" d="M 0 0 M8785.15 498.294 L8853.53 498.294 L8853.53 554.034 L8800.38 657.737 L8758.58 657.737 L8785.15 554.034 L8785.15 498.294 Z" fill="#000000" fill-rule="evenodd" fill-opacity="1" /><path clip-path="url(#clip4600)" d="M 0 0 M8935.84 525.516 L9042.79 525.516 L9042.79 156.397 L8926.45 179.731 L8926.45 120.101 L9042.14 96.768 L9107.6 96.768 L9107.6 525.516 L9214.55 525.516 L9214.55 580.608 L8935.84 580.608 L8935.84 525.516 Z" fill="#000000" fill-rule="evenodd" fill-opacity="1" /><path clip-path="url(#clip4600)" d="M 0 0 M9341.91 525.516 L9570.38 525.516 L9570.38 580.608 L9263.16 580.608 L9263.16 525.516 Q9300.42 486.951 9364.59 422.137 Q9429.08 356.998 9445.61 338.202 Q9477.04 302.878 9489.36 278.573 Q9502 253.943 9502 230.286 Q9502 191.721 9474.78 167.416 Q9447.88 143.11 9404.45 143.11 Q9373.66 143.11 9339.31 153.805 Q9305.29 164.499 9266.4 186.212 L9266.4 120.101 Q9305.93 104.222 9340.29 96.1199 Q9374.64 88.018 9403.16 88.018 Q9478.34 88.018 9523.06 125.61 Q9567.78 163.203 9567.78 226.073 Q9567.78 255.888 9556.44 282.786 Q9545.42 309.359 9515.93 345.656 Q9507.83 355.054 9464.41 400.1 Q9420.98 444.822 9341.91 525.516 Z" fill="#000000" fill-rule="evenodd" fill-opacity="1" /><path clip-path="url(#clip4600)" d="M 0 0 M9648.15 237.415 L9716.53 237.415 L9716.53 319.73 L9648.15 319.73 L9648.15 237.415 M9648.15 498.294 L9716.53 498.294 L9716.53 554.034 L9663.39 657.737 L9621.58 657.737 L9648.15 554.034 L9648.15 498.294 Z" fill="#000000" fill-rule="evenodd" fill-opacity="1" /><path clip-path="url(#clip4600)" d="M 0 0 M10189 141.166 Q10117.7 141.166 10075.6 194.314 Q10033.8 247.462 10033.8 339.174 Q10033.8 430.563 10075.6 483.71 Q10117.7 536.858 10189 536.858 Q10260.3 536.858 10301.8 483.71 Q10343.6 430.563 10343.6 339.174 Q10343.6 247.462 10301.8 194.314 Q10260.3 141.166 10189 141.166 M10280.7 571.858 L10366.9 666.163 L10287.9 666.163 L10216.3 588.71 Q10205.6 589.358 10199.7 589.682 Q10194.2 590.006 10189 590.006 Q10086.9 590.006 10025.7 521.951 Q9964.77 453.572 9964.77 339.174 Q9964.77 224.453 10025.7 156.397 Q10086.9 88.018 10189 88.018 Q10290.8 88.018 10351.7 156.397 Q10412.6 224.453 10412.6 339.174 Q10412.6 423.433 10378.6 483.386 Q10344.9 543.34 10280.7 571.858 Z" fill="#000000" fill-rule="evenodd" fill-opacity="1" /><path clip-path="url(#clip4600)" d="M 0 0 M10693.9 279.221 L11109.4 279.221 L11109.4 333.665 L10693.9 333.665 L10693.9 279.221 M10693.9 411.442 L11109.4 411.442 L11109.4 466.535 L10693.9 466.535 L10693.9 411.442 Z" fill="#000000" fill-rule="evenodd" fill-opacity="1" /><path clip-path="url(#clip4600)" d="M 0 0 M11402.7 525.516 L11509.6 525.516 L11509.6 156.397 L11393.3 179.731 L11393.3 120.101 L11509 96.768 L11574.4 96.768 L11574.4 525.516 L11681.4 525.516 L11681.4 580.608 L11402.7 580.608 L11402.7 525.516 Z" fill="#000000" fill-rule="evenodd" fill-opacity="1" /><path clip-path="url(#clip4600)" d="M 0 0 M11900.5 312.6 Q11856.4 312.6 11830.5 342.739 Q11804.9 372.878 11804.9 425.377 Q11804.9 477.553 11830.5 508.016 Q11856.4 538.155 11900.5 538.155 Q11944.5 538.155 11970.1 508.016 Q11996.1 477.553 11996.1 425.377 Q11996.1 372.878 11970.1 342.739 Q11944.5 312.6 11900.5 312.6 M12030.4 107.462 L12030.4 167.092 Q12005.8 155.425 11980.5 149.268 Q11955.5 143.11 11930.9 143.11 Q11866.1 143.11 11831.8 186.86 Q11797.7 230.61 11792.9 319.082 Q11812 290.887 11840.8 275.98 Q11869.7 260.749 11904.3 260.749 Q11977.3 260.749 12019.4 305.147 Q12061.8 349.22 12061.8 425.377 Q12061.8 499.914 12017.8 544.96 Q11973.7 590.006 11900.5 590.006 Q11816.5 590.006 11772.1 525.84 Q11727.7 461.349 11727.7 339.174 Q11727.7 224.453 11782.2 156.397 Q11836.6 88.018 11928.3 88.018 Q11953 88.018 11977.9 92.8791 Q12003.2 97.7402 12030.4 107.462 Z" fill="#000000" fill-rule="evenodd" fill-opacity="1" /><path clip-path="url(#clip4600)" d="M 0 0 M12139.6 237.415 L12208 237.415 L12208 319.73 L12139.6 319.73 L12139.6 237.415 M12139.6 498.294 L12208 498.294 L12208 554.034 L12154.9 657.737 L12113 657.737 L12139.6 554.034 L12139.6 498.294 Z" fill="#000000" fill-rule="evenodd" fill-opacity="1" /><path clip-path="url(#clip4600)" d="M 0 0 M12484.1 96.768 L12549.6 96.768 L12549.6 546.904 Q12549.6 634.404 12516.2 673.941 Q12483.1 713.478 12409.6 713.478 L12384.6 713.478 L12384.6 658.385 L12405 658.385 Q12448.5 658.385 12466.3 634.08 Q12484.1 609.775 12484.1 546.904 L12484.1 96.768 Z" fill="#000000" fill-rule="evenodd" fill-opacity="1" /><path clip-path="url(#clip4600)" d="M 0 0 M12887.9 690.793 L12887.9 737.135 L12543.1 737.135 L12543.1 690.793 L12887.9 690.793 Z" fill="#000000" fill-rule="evenodd" fill-opacity="1" /><path clip-path="url(#clip4600)" d="M 0 0 M12970.2 525.516 L13077.2 525.516 L13077.2 156.397 L12960.8 179.731 L12960.8 120.101 L13076.5 96.768 L13142 96.768 L13142 525.516 L13248.9 525.516 L13248.9 580.608 L12970.2 580.608 L12970.2 525.516 Z" fill="#000000" fill-rule="evenodd" fill-opacity="1" /><path clip-path="url(#clip4600)" d="M 0 0 M13530.2 279.221 L13945.7 279.221 L13945.7 333.665 L13530.2 333.665 L13530.2 279.221 M13530.2 411.442 L13945.7 411.442 L13945.7 466.535 L13530.2 466.535 L13530.2 411.442 Z" fill="#000000" fill-rule="evenodd" fill-opacity="1" /><path clip-path="url(#clip4600)" d="M 0 0 M14367.6 139.87 Q14317.1 139.87 14291.5 189.777 Q14266.2 239.36 14266.2 339.174 Q14266.2 438.664 14291.5 488.571 Q14317.1 538.155 14367.6 538.155 Q14418.5 538.155 14443.8 488.571 Q14469.4 438.664 14469.4 339.174 Q14469.4 239.36 14443.8 189.777 Q14418.5 139.87 14367.6 139.87 M14367.6 88.018 Q14449 88.018 14491.7 152.508 Q14534.8 216.675 14534.8 339.174 Q14534.8 461.349 14491.7 525.84 Q14449 590.006 14367.6 590.006 Q14286.3 590.006 14243.2 525.84 Q14200.4 461.349 14200.4 339.174 Q14200.4 216.675 14243.2 152.508 Q14286.3 88.018 14367.6 88.018 Z" fill="#000000" fill-rule="evenodd" fill-opacity="1" /><path clip-path="url(#clip4600)" d="M 0 0 M14605.8 498.294 L14674.2 498.294 L14674.2 580.608 L14605.8 580.608 L14605.8 498.294 Z" fill="#000000" fill-rule="evenodd" fill-opacity="1" /><path clip-path="url(#clip4600)" d="M 0 0 M14885.2 139.87 Q14834.6 139.87 14809 189.777 Q14783.7 239.36 14783.7 339.174 Q14783.7 438.664 14809 488.571 Q14834.6 538.155 14885.2 538.155 Q14936 538.155 14961.3 488.571 Q14986.9 438.664 14986.9 339.174 Q14986.9 239.36 14961.3 189.777 Q14936 139.87 14885.2 139.87 M14885.2 88.018 Q14966.5 88.018 15009.3 152.508 Q15052.4 216.675 15052.4 339.174 Q15052.4 461.349 15009.3 525.84 Q14966.5 590.006 14885.2 590.006 Q14803.8 590.006 14760.7 525.84 Q14717.9 461.349 14717.9 339.174 Q14717.9 216.675 14760.7 152.508 Q14803.8 88.018 14885.2 88.018 Z" fill="#000000" fill-rule="evenodd" fill-opacity="1" /><path clip-path="url(#clip4600)" d="M 0 0 M10205.3 12068.2 L10526.9 12068.2 L10526.9 12111.5 L10392 12111.5 L10392 12448.4 L10340.3 12448.4 L10340.3 12111.5 L10205.3 12111.5 L10205.3 12068.2 Z" fill="#000000" fill-rule="evenodd" fill-opacity="1" /><path clip-path="url(#clip4600)" d="M 0 0 M522.483 7641.94 L661.765 7641.94 L661.765 7559.44 Q661.765 7517.93 644.705 7498.07 Q627.39 7477.96 591.997 7477.96 Q556.349 7477.96 539.543 7498.07 Q522.483 7517.93 522.483 7559.44 L522.483 7641.94 M366.142 7641.94 L480.724 7641.94 L480.724 7565.8 Q480.724 7528.12 466.72 7509.78 Q452.461 7491.2 423.433 7491.2 Q394.66 7491.2 380.401 7509.78 Q366.142 7528.12 366.142 7565.8 L366.142 7641.94 M323.873 7693.37 L323.873 7561.98 Q323.873 7503.16 348.318 7471.33 Q372.762 7439.51 417.831 7439.51 Q452.715 7439.51 473.34 7455.8 Q493.965 7472.1 499.058 7503.67 Q507.206 7465.73 533.178 7444.85 Q558.895 7423.72 597.599 7423.72 Q648.524 7423.72 676.279 7458.35 Q704.033 7492.98 704.033 7556.89 L704.033 7693.37 L323.873 7693.37 Z" fill="#000000" fill-rule="evenodd" fill-opacity="1" /><path clip-path="url(#clip4600)" d="M 0 0 M418.85 7374.58 L418.85 7327.72 L704.033 7327.72 L704.033 7374.58 L418.85 7374.58 M307.832 7374.58 L307.832 7327.72 L367.16 7327.72 L367.16 7374.58 L307.832 7374.58 Z" fill="#000000" fill-rule="evenodd" fill-opacity="1" /><path clip-path="url(#clip4600)" d="M 0 0 M531.905 7041.52 L704.033 7041.52 L704.033 7088.37 L533.432 7088.37 Q492.946 7088.37 472.831 7104.16 Q452.715 7119.95 452.715 7151.52 Q452.715 7189.46 476.905 7211.36 Q501.095 7233.26 542.854 7233.26 L704.033 7233.26 L704.033 7280.36 L418.85 7280.36 L418.85 7233.26 L463.155 7233.26 Q437.437 7216.45 424.706 7193.79 Q411.975 7170.87 411.975 7141.08 Q411.975 7091.94 442.53 7066.73 Q472.831 7041.52 531.905 7041.52 Z" fill="#000000" fill-rule="evenodd" fill-opacity="1" /><path clip-path="url(#clip4600)" d="M 0 0 M462.136 6804.72 L307.832 6804.72 L307.832 6757.87 L704.033 6757.87 L704.033 6804.72 L661.256 6804.72 Q686.719 6819.49 699.195 6842.15 Q711.417 6864.56 711.417 6896.13 Q711.417 6947.82 670.168 6980.41 Q628.918 7012.75 561.696 7012.75 Q494.474 7012.75 453.224 6980.41 Q411.975 6947.82 411.975 6896.13 Q411.975 6864.56 424.451 6842.15 Q436.674 6819.49 462.136 6804.72 M561.696 6964.37 Q613.386 6964.37 642.922 6943.24 Q672.205 6921.85 672.205 6884.67 Q672.205 6847.5 642.922 6826.11 Q613.386 6804.72 561.696 6804.72 Q510.007 6804.72 480.724 6826.11 Q451.187 6847.5 451.187 6884.67 Q451.187 6921.85 480.724 6943.24 Q510.007 6964.37 561.696 6964.37 Z" fill="#000000" fill-rule="evenodd" fill-opacity="1" /><path clip-path="url(#clip4600)" d="M 0 0 M549.729 6464.79 L572.645 6464.79 L572.645 6680.2 Q621.024 6677.15 646.487 6651.18 Q671.695 6624.95 671.695 6578.35 Q671.695 6551.36 665.075 6526.15 Q658.455 6500.69 645.214 6475.74 L689.519 6475.74 Q700.214 6500.95 705.816 6527.43 Q711.417 6553.91 711.417 6581.15 Q711.417 6649.39 671.695 6689.37 Q631.973 6729.09 564.242 6729.09 Q494.22 6729.09 453.224 6691.41 Q411.975 6653.47 411.975 6589.3 Q411.975 6531.76 449.15 6498.4 Q486.071 6464.79 549.729 6464.79 M535.979 6511.64 Q497.53 6512.15 474.613 6533.28 Q451.697 6554.16 451.697 6588.79 Q451.697 6628.01 473.849 6651.69 Q496.002 6675.11 536.233 6678.68 L535.979 6511.64 Z" fill="#000000" fill-rule="evenodd" fill-opacity="1" /><path clip-path="url(#clip4600)" d="M 0 0 M462.646 6250.39 Q458.062 6258.29 456.025 6267.71 Q453.734 6276.87 453.734 6288.08 Q453.734 6327.8 479.706 6349.19 Q505.423 6370.32 553.803 6370.32 L704.033 6370.32 L704.033 6417.43 L418.85 6417.43 L418.85 6370.32 L463.155 6370.32 Q437.183 6355.55 424.706 6331.87 Q411.975 6308.19 411.975 6274.33 Q411.975 6269.49 412.739 6263.63 Q413.248 6257.78 414.521 6250.65 L462.646 6250.39 Z" fill="#000000" fill-rule="evenodd" fill-opacity="1" /><path clip-path="url(#clip4600)" d="M 0 0 M323.873 6156.94 L465.192 6156.94 L465.192 6200.23 L323.873 6200.23 L323.873 6156.94 Z" fill="#000000" fill-rule="evenodd" fill-opacity="1" /><path clip-path="url(#clip4600)" d="M 0 0 M427.252 5926 L471.558 5926 Q461.373 5945.86 456.28 5967.25 Q451.187 5988.63 451.187 6011.55 Q451.187 6046.44 461.882 6064 Q472.576 6081.32 493.965 6081.32 Q510.261 6081.32 519.682 6068.84 Q528.849 6056.37 537.252 6018.68 L540.817 6002.64 Q551.511 5952.73 571.117 5931.85 Q590.469 5910.72 625.353 5910.72 Q665.075 5910.72 688.246 5942.29 Q711.417 5973.61 711.417 6028.61 Q711.417 6051.53 706.834 6076.48 Q702.505 6101.18 693.594 6128.68 L645.214 6128.68 Q658.709 6102.71 665.584 6077.5 Q672.205 6052.29 672.205 6027.59 Q672.205 5994.49 661.001 5976.67 Q649.543 5958.84 628.918 5958.84 Q609.821 5958.84 599.636 5971.83 Q589.451 5984.56 580.029 6028.1 L576.21 6044.4 Q567.043 6087.94 548.201 6107.29 Q529.104 6126.64 496.002 6126.64 Q455.771 6126.64 433.873 6098.12 Q411.975 6069.61 411.975 6017.15 Q411.975 5991.18 415.794 5968.26 Q419.613 5945.35 427.252 5926 Z" fill="#000000" fill-rule="evenodd" fill-opacity="1" /><path clip-path="url(#clip4600)" d="M 0 0 M462.646 5530.56 Q458.062 5538.45 456.025 5547.87 Q453.734 5557.04 453.734 5568.24 Q453.734 5607.97 479.706 5629.35 Q505.423 5650.49 553.803 5650.49 L704.033 5650.49 L704.033 5697.59 L418.85 5697.59 L418.85 5650.49 L463.155 5650.49 Q437.183 5635.72 424.706 5612.04 Q411.975 5588.36 411.975 5554.49 Q411.975 5549.66 412.739 5543.8 Q413.248 5537.94 414.521 5530.81 L462.646 5530.56 Z" fill="#000000" fill-rule="evenodd" fill-opacity="1" /><path clip-path="url(#clip4600)" d="M 0 0 M560.678 5351.81 Q560.678 5408.59 573.664 5430.49 Q586.65 5452.39 617.969 5452.39 Q642.922 5452.39 657.691 5436.09 Q672.205 5419.54 672.205 5391.28 Q672.205 5352.32 644.705 5328.89 Q616.95 5305.21 571.117 5305.21 L560.678 5305.21 L560.678 5351.81 M541.326 5258.36 L704.033 5258.36 L704.033 5305.21 L660.746 5305.21 Q686.719 5321.25 699.195 5345.19 Q711.417 5369.12 711.417 5403.75 Q711.417 5447.55 686.973 5473.52 Q662.274 5499.24 621.024 5499.24 Q572.9 5499.24 548.455 5467.16 Q524.011 5434.82 524.011 5370.91 L524.011 5305.21 L519.428 5305.21 Q487.09 5305.21 469.521 5326.6 Q451.697 5347.74 451.697 5386.18 Q451.697 5410.63 457.553 5433.8 Q463.41 5456.97 475.122 5478.36 L431.836 5478.36 Q421.905 5452.64 417.067 5428.45 Q411.975 5404.26 411.975 5381.35 Q411.975 5319.47 444.058 5288.92 Q476.141 5258.36 541.326 5258.36 Z" fill="#000000" fill-rule="evenodd" fill-opacity="1" /><path clip-path="url(#clip4600)" d="M 0 0 M337.878 5162.87 L418.85 5162.87 L418.85 5066.37 L455.261 5066.37 L455.261 5162.87 L610.075 5162.87 Q644.96 5162.87 654.89 5153.45 Q664.821 5143.78 664.821 5114.5 L664.821 5066.37 L704.033 5066.37 L704.033 5114.5 Q704.033 5168.73 683.918 5189.36 Q663.547 5209.98 610.075 5209.98 L455.261 5209.98 L455.261 5244.36 L418.85 5244.36 L418.85 5209.98 L337.878 5209.98 L337.878 5162.87 Z" fill="#000000" fill-rule="evenodd" fill-opacity="1" /><path clip-path="url(#clip4600)" d="M 0 0 M418.85 5017.23 L418.85 4970.38 L704.033 4970.38 L704.033 5017.23 L418.85 5017.23 M307.832 5017.23 L307.832 4970.38 L367.16 4970.38 L367.16 5017.23 L307.832 5017.23 Z" fill="#000000" fill-rule="evenodd" fill-opacity="1" /><path clip-path="url(#clip4600)" d="M 0 0 M451.697 4810.72 Q451.697 4848.41 481.234 4870.31 Q510.516 4892.21 561.696 4892.21 Q612.876 4892.21 642.413 4870.56 Q671.695 4848.66 671.695 4810.72 Q671.695 4773.29 642.159 4751.4 Q612.622 4729.5 561.696 4729.5 Q511.025 4729.5 481.488 4751.4 Q451.697 4773.29 451.697 4810.72 M411.975 4810.72 Q411.975 4749.61 451.697 4714.73 Q491.419 4679.85 561.696 4679.85 Q631.719 4679.85 671.695 4714.73 Q711.417 4749.61 711.417 4810.72 Q711.417 4872.09 671.695 4906.97 Q631.719 4941.6 561.696 4941.6 Q491.419 4941.6 451.697 4906.97 Q411.975 4872.09 411.975 4810.72 Z" fill="#000000" fill-rule="evenodd" fill-opacity="1" /><polyline clip-path="url(#clip4602)" style="stroke:#009af9; stroke-width:32; stroke-opacity:1; fill:none" points="
  2388.86,3110.5 2714.47,2674.87 3040.07,2604.01 3365.67,2946.42 3691.27,3273.17 4016.88,2807.77 4342.48,3116.23 4668.08,3338.03 4993.69,3052.76 5319.29,3571.23 
  5644.89,3618.11 5970.5,3371.64 6296.1,2942.49 6621.7,3037.75 6947.3,2693.55 7272.91,3415.89 7598.51,3703.54 7924.11,3329.79 8249.72,3416.94 8575.32,4109.69 
  8900.92,3143.35 9226.53,3418.71 9552.13,3758.72 9877.73,3715.36 10203.3,3264.7 10528.9,3598.62 10854.5,3760.17 11180.1,4267.62 11505.7,3932.47 11831.4,4065.59 
  12157,3674.04 12482.6,3828.27 12808.2,3921.54 13133.8,4007.94 13459.4,4632.58 13785,5226.07 14110.6,4240.55 14436.2,4367.99 14761.8,4319.73 15087.4,4306.09 
  15413,4664.79 15738.6,4407.56 16064.2,4817.97 16389.8,5217.57 16715.4,5626.82 17041,5839.01 17366.6,5951.83 17692.2,5363.82 18017.8,5779.4 18343.4,4771.83 
  
  "/>
<polyline clip-path="url(#clip4602)" style="stroke:#e26f46; stroke-width:32; stroke-opacity:1; fill:none" points="
  2388.86,2714.47 2714.47,2265.57 3040.07,1894.19 3365.67,2238.3 3691.27,2281.95 4016.88,1606.76 4342.48,3142.73 4668.08,2619.15 4993.69,2712.01 5319.29,3630 
  5644.89,1902.39 5970.5,2059.01 6296.1,3001.45 6621.7,3520.91 6947.3,2935.46 7272.91,2219.93 7598.51,2561.39 7924.11,3055.08 8249.72,3781.8 8575.32,2995.4 
  8900.92,3567.33 9226.53,3949.47 9552.13,2532.92 9877.73,4017.61 10203.3,4704.9 10528.9,2664.2 10854.5,3200.12 11180.1,3398.05 11505.7,3676.46 11831.4,3574.38 
  12157,3046.73 12482.6,4616.96 12808.2,2933.09 13133.8,4361.97 13459.4,5184.66 13785,4255.16 14110.6,4112.26 14436.2,4765.74 14761.8,6416.28 15087.4,5440.32 
  15413,5473.04 15738.6,4901.65 16064.2,5033.65 16389.8,5578.75 16715.4,5457.06 17041,6400.56 17366.6,5632.11 17692.2,6439.49 18017.8,9284.89 18343.4,5230.45 
  
  "/>
<polyline clip-path="url(#clip4602)" style="stroke:#3da44d; stroke-width:32; stroke-opacity:1; fill:none" points="
  2388.86,1526.68 2714.47,1453.91 3040.07,1831.01 3365.67,1692.1 3691.27,1318.9 4016.88,1941.63 4342.48,1844.05 4668.08,1908.47 4993.69,2008.6 5319.29,1857.5 
  5644.89,2300.86 5970.5,1282.05 6296.1,1434.26 6621.7,2523.43 6947.3,2189.34 7272.91,2574.87 7598.51,2841.12 7924.11,2696.1 8249.72,2030.64 8575.32,2132.72 
  8900.92,3679.77 9226.53,4007.1 9552.13,2265.79 9877.73,2944.02 10203.3,3771.35 10528.9,4083.04 10854.5,3370.89 11180.1,4156.08 11505.7,3541.04 11831.4,5075.62 
  12157,5809 12482.6,3554.09 12808.2,2803.53 13133.8,3467.41 13459.4,3536.56 13785,4404.74 14110.6,5300.58 14436.2,5790.36 14761.8,6350.72 15087.4,8892.15 
  15413,6339.65 15738.6,6175.29 16064.2,5911.53 16389.8,6302.43 16715.4,7951.25 17041,7566.09 17366.6,8316.76 17692.2,7176.09 18017.8,11091.2 18343.4,6599.63 
  
  "/>
<path clip-path="url(#clip4600)" d="
M2486.23 10233.4 L5519.37 10233.4 L5519.37 8298.08 L2486.23 8298.08  Z
  " fill="#ffffff" fill-rule="evenodd" fill-opacity="1"/>
<polyline clip-path="url(#clip4600)" style="stroke:#000000; stroke-width:32; stroke-opacity:1; fill:none" points="
  2486.23,10233.4 5519.37,10233.4 5519.37,8298.08 2486.23,8298.08 2486.23,10233.4 
  "/>
<polyline clip-path="url(#clip4600)" style="stroke:#009af9; stroke-width:32; stroke-opacity:1; fill:none" points="
  2678.23,8781.92 3830.23,8781.92 
  "/>
<path clip-path="url(#clip4600)" d="M 0 0 M4022.23 8643.68 L4059.63 8643.68 L4059.63 8888.68 L4194.26 8888.68 L4194.26 8920.16 L4022.23 8920.16 L4022.23 8643.68 Z" fill="#000000" fill-rule="evenodd" fill-opacity="1" /><path clip-path="url(#clip4600)" d="M 0 0 M4355 8747.94 L4592.41 8747.94 L4592.41 8779.05 L4355 8779.05 L4355 8747.94 M4355 8823.49 L4592.41 8823.49 L4592.41 8854.97 L4355 8854.97 L4355 8823.49 Z" fill="#000000" fill-rule="evenodd" fill-opacity="1" /><path clip-path="url(#clip4600)" d="M 0 0 M4838.15 8767.01 Q4812.96 8767.01 4798.15 8784.23 Q4783.52 8801.46 4783.52 8831.46 Q4783.52 8861.27 4798.15 8878.68 Q4812.96 8895.9 4838.15 8895.9 Q4863.33 8895.9 4877.96 8878.68 Q4892.78 8861.27 4892.78 8831.46 Q4892.78 8801.46 4877.96 8784.23 Q4863.33 8767.01 4838.15 8767.01 M4912.41 8649.79 L4912.41 8683.86 Q4898.33 8677.2 4883.89 8673.68 Q4869.63 8670.16 4855.55 8670.16 Q4818.52 8670.16 4798.89 8695.16 Q4779.44 8720.16 4776.67 8770.72 Q4787.59 8754.6 4804.07 8746.09 Q4820.55 8737.38 4840.37 8737.38 Q4882.04 8737.38 4906.11 8762.75 Q4930.37 8787.94 4930.37 8831.46 Q4930.37 8874.05 4905.18 8899.79 Q4880 8925.53 4838.15 8925.53 Q4790.18 8925.53 4764.81 8888.86 Q4739.44 8852.01 4739.44 8782.2 Q4739.44 8716.64 4770.55 8677.75 Q4801.67 8638.68 4854.07 8638.68 Q4868.15 8638.68 4882.41 8641.46 Q4896.85 8644.23 4912.41 8649.79 Z" fill="#000000" fill-rule="evenodd" fill-opacity="1" /><polyline clip-path="url(#clip4600)" style="stroke:#e26f46; stroke-width:32; stroke-opacity:1; fill:none" points="
  2678.23,9265.76 3830.23,9265.76 
  "/>
<path clip-path="url(#clip4600)" d="M 0 0 M4022.23 9127.52 L4059.63 9127.52 L4059.63 9372.52 L4194.26 9372.52 L4194.26 9404 L4022.23 9404 L4022.23 9127.52 Z" fill="#000000" fill-rule="evenodd" fill-opacity="1" /><path clip-path="url(#clip4600)" d="M 0 0 M4355 9231.78 L4592.41 9231.78 L4592.41 9262.89 L4355 9262.89 L4355 9231.78 M4355 9307.33 L4592.41 9307.33 L4592.41 9338.81 L4355 9338.81 L4355 9307.33 Z" fill="#000000" fill-rule="evenodd" fill-opacity="1" /><path clip-path="url(#clip4600)" d="M 0 0 M4833.52 9272.7 Q4806.85 9272.7 4791.48 9286.96 Q4776.3 9301.22 4776.3 9326.22 Q4776.3 9351.22 4791.48 9365.48 Q4806.85 9379.74 4833.52 9379.74 Q4860.18 9379.74 4875.55 9365.48 Q4890.92 9351.04 4890.92 9326.22 Q4890.92 9301.22 4875.55 9286.96 Q4860.37 9272.7 4833.52 9272.7 M4796.11 9256.78 Q4772.04 9250.85 4758.52 9234.37 Q4745.18 9217.89 4745.18 9194.19 Q4745.18 9161.04 4768.7 9141.78 Q4792.41 9122.52 4833.52 9122.52 Q4874.81 9122.52 4898.33 9141.78 Q4921.85 9161.04 4921.85 9194.19 Q4921.85 9217.89 4908.33 9234.37 Q4895 9250.85 4871.11 9256.78 Q4898.15 9263.07 4913.15 9281.41 Q4928.33 9299.74 4928.33 9326.22 Q4928.33 9366.41 4903.7 9387.89 Q4879.26 9409.37 4833.52 9409.37 Q4787.78 9409.37 4763.15 9387.89 Q4738.7 9366.41 4738.7 9326.22 Q4738.7 9299.74 4753.89 9281.41 Q4769.07 9263.07 4796.11 9256.78 M4782.41 9197.7 Q4782.41 9219.18 4795.74 9231.22 Q4809.26 9243.26 4833.52 9243.26 Q4857.59 9243.26 4871.11 9231.22 Q4884.81 9219.18 4884.81 9197.7 Q4884.81 9176.22 4871.11 9164.19 Q4857.59 9152.15 4833.52 9152.15 Q4809.26 9152.15 4795.74 9164.19 Q4782.41 9176.22 4782.41 9197.7 Z" fill="#000000" fill-rule="evenodd" fill-opacity="1" /><polyline clip-path="url(#clip4600)" style="stroke:#3da44d; stroke-width:32; stroke-opacity:1; fill:none" points="
  2678.23,9749.6 3830.23,9749.6 
  "/>
<path clip-path="url(#clip4600)" d="M 0 0 M4022.23 9611.36 L4059.63 9611.36 L4059.63 9856.36 L4194.26 9856.36 L4194.26 9887.84 L4022.23 9887.84 L4022.23 9611.36 Z" fill="#000000" fill-rule="evenodd" fill-opacity="1" /><path clip-path="url(#clip4600)" d="M 0 0 M4355 9715.62 L4592.41 9715.62 L4592.41 9746.73 L4355 9746.73 L4355 9715.62 M4355 9791.17 L4592.41 9791.17 L4592.41 9822.65 L4355 9822.65 L4355 9791.17 Z" fill="#000000" fill-rule="evenodd" fill-opacity="1" /><path clip-path="url(#clip4600)" d="M 0 0 M4760 9856.36 L4821.11 9856.36 L4821.11 9645.43 L4754.63 9658.77 L4754.63 9624.69 L4820.74 9611.36 L4858.15 9611.36 L4858.15 9856.36 L4919.26 9856.36 L4919.26 9887.84 L4760 9887.84 L4760 9856.36 Z" fill="#000000" fill-rule="evenodd" fill-opacity="1" /><path clip-path="url(#clip4600)" d="M 0 0 M5039.81 9635.99 Q5010.92 9635.99 4996.29 9664.51 Q4981.85 9692.84 4981.85 9749.88 Q4981.85 9806.73 4996.29 9835.25 Q5010.92 9863.58 5039.81 9863.58 Q5068.89 9863.58 5083.33 9835.25 Q5097.96 9806.73 5097.96 9749.88 Q5097.96 9692.84 5083.33 9664.51 Q5068.89 9635.99 5039.81 9635.99 M5039.81 9606.36 Q5086.29 9606.36 5110.74 9643.21 Q5135.37 9679.88 5135.37 9749.88 Q5135.37 9819.69 5110.74 9856.54 Q5086.29 9893.21 5039.81 9893.21 Q4993.33 9893.21 4968.7 9856.54 Q4944.26 9819.69 4944.26 9749.88 Q4944.26 9679.88 4968.7 9643.21 Q4993.33 9606.36 5039.81 9606.36 Z" fill="#000000" fill-rule="evenodd" fill-opacity="1" /></svg>
