<?xml version="1.0" encoding="utf-8"?>
<svg xmlns="http://www.w3.org/2000/svg" xmlns:xlink="http://www.w3.org/1999/xlink" width="4800" height="3200" viewBox="0 0 19200 12800">
<defs>
  <clipPath id="clip6100">
    <rect x="0" y="0" width="19200" height="12800"/>
  </clipPath>
</defs>
<path clip-path="url(#clip6100)" d="
M0 12800 L19200 12800 L19200 0 L0 0  Z
  " fill="#ffffff" fill-rule="evenodd" fill-opacity="1"/>
<defs>
  <clipPath id="clip6101">
    <rect x="3840" y="0" width="13441" height="12800"/>
  </clipPath>
</defs>
<path clip-path="url(#clip6100)" d="
M2127.63 11385.4 L18822 11385.4 L18822 987.777 L2127.63 987.777  Z
  " fill="#ffffff" fill-rule="evenodd" fill-opacity="1"/>
<defs>
  <clipPath id="clip6102">
    <rect x="2127" y="987" width="16695" height="10399"/>
  </clipPath>
</defs>
<polyline clip-path="url(#clip6102)" style="stroke:#000000; stroke-width:16; stroke-opacity:0.1; fill:none" points="
  2600.12,11385.4 2600.12,987.777 
  "/>
<polyline clip-path="url(#clip6102)" style="stroke:#000000; stroke-width:16; stroke-opacity:0.1; fill:none" points="
  6537.48,11385.4 6537.48,987.777 
  "/>
<polyline clip-path="url(#clip6102)" style="stroke:#000000; stroke-width:16; stroke-opacity:0.1; fill:none" points="
  10474.8,11385.4 10474.8,987.777 
  "/>
<polyline clip-path="url(#clip6102)" style="stroke:#000000; stroke-width:16; stroke-opacity:0.1; fill:none" points="
  14412.2,11385.4 14412.2,987.777 
  "/>
<polyline clip-path="url(#clip6102)" style="stroke:#000000; stroke-width:16; stroke-opacity:0.1; fill:none" points="
  18349.6,11385.4 18349.6,987.777 
  "/>
<polyline clip-path="url(#clip6102)" style="stroke:#000000; stroke-width:16; stroke-opacity:0.1; fill:none" points="
  2127.63,7182.29 18822,7182.29 
  "/>
<polyline clip-path="url(#clip6102)" style="stroke:#000000; stroke-width:16; stroke-opacity:0.1; fill:none" points="
  2127.63,7182.29 18822,7182.29 
  "/>
<polyline clip-path="url(#clip6102)" style="stroke:#000000; stroke-width:16; stroke-opacity:0.1; fill:none" points="
  2127.63,6199.2 18822,6199.2 
  "/>
<polyline clip-path="url(#clip6102)" style="stroke:#000000; stroke-width:16; stroke-opacity:0.1; fill:none" points="
  2127.63,5216.1 18822,5216.1 
  "/>
<polyline clip-path="url(#clip6102)" style="stroke:#000000; stroke-width:16; stroke-opacity:0.1; fill:none" points="
  2127.63,4233 18822,4233 
  "/>
<polyline clip-path="url(#clip6102)" style="stroke:#000000; stroke-width:16; stroke-opacity:0.1; fill:none" points="
  2127.63,3249.91 18822,3249.91 
  "/>
<polyline clip-path="url(#clip6102)" style="stroke:#000000; stroke-width:16; stroke-opacity:0.1; fill:none" points="
  2127.63,2266.81 18822,2266.81 
  "/>
<polyline clip-path="url(#clip6102)" style="stroke:#000000; stroke-width:16; stroke-opacity:0.1; fill:none" points="
  2127.63,1283.72 18822,1283.72 
  "/>
<polyline clip-path="url(#clip6100)" style="stroke:#000000; stroke-width:32; stroke-opacity:1; fill:none" points="
  2127.63,11385.4 18822,11385.4 
  "/>
<polyline clip-path="url(#clip6100)" style="stroke:#000000; stroke-width:32; stroke-opacity:1; fill:none" points="
  2127.63,11385.4 2127.63,987.777 
  "/>
<polyline clip-path="url(#clip6100)" style="stroke:#000000; stroke-width:32; stroke-opacity:1; fill:none" points="
  2600.12,11385.4 2600.12,11260.7 
  "/>
<polyline clip-path="url(#clip6100)" style="stroke:#000000; stroke-width:32; stroke-opacity:1; fill:none" points="
  6537.48,11385.4 6537.48,11260.7 
  "/>
<polyline clip-path="url(#clip6100)" style="stroke:#000000; stroke-width:32; stroke-opacity:1; fill:none" points="
  10474.8,11385.4 10474.8,11260.7 
  "/>
<polyline clip-path="url(#clip6100)" style="stroke:#000000; stroke-width:32; stroke-opacity:1; fill:none" points="
  14412.2,11385.4 14412.2,11260.7 
  "/>
<polyline clip-path="url(#clip6100)" style="stroke:#000000; stroke-width:32; stroke-opacity:1; fill:none" points="
  18349.6,11385.4 18349.6,11260.7 
  "/>
<polyline clip-path="url(#clip6100)" style="stroke:#000000; stroke-width:32; stroke-opacity:1; fill:none" points="
  2127.63,7182.29 2327.96,7182.29 
  "/>
<polyline clip-path="url(#clip6100)" style="stroke:#000000; stroke-width:32; stroke-opacity:1; fill:none" points="
  2127.63,7182.29 2327.96,7182.29 
  "/>
<polyline clip-path="url(#clip6100)" style="stroke:#000000; stroke-width:32; stroke-opacity:1; fill:none" points="
  2127.63,6199.2 2327.96,6199.2 
  "/>
<polyline clip-path="url(#clip6100)" style="stroke:#000000; stroke-width:32; stroke-opacity:1; fill:none" points="
  2127.63,5216.1 2327.96,5216.1 
  "/>
<polyline clip-path="url(#clip6100)" style="stroke:#000000; stroke-width:32; stroke-opacity:1; fill:none" points="
  2127.63,4233 2327.96,4233 
  "/>
<polyline clip-path="url(#clip6100)" style="stroke:#000000; stroke-width:32; stroke-opacity:1; fill:none" points="
  2127.63,3249.91 2327.96,3249.91 
  "/>
<polyline clip-path="url(#clip6100)" style="stroke:#000000; stroke-width:32; stroke-opacity:1; fill:none" points="
  2127.63,2266.81 2327.96,2266.81 
  "/>
<polyline clip-path="url(#clip6100)" style="stroke:#000000; stroke-width:32; stroke-opacity:1; fill:none" points="
  2127.63,1283.72 2327.96,1283.72 
  "/>
<path clip-path="url(#clip6100)" d="M 0 0 M2239.47 11561.4 Q2210.58 11561.4 2195.95 11589.9 Q2181.51 11618.2 2181.51 11675.3 Q2181.51 11732.1 2195.95 11760.6 Q2210.58 11789 2239.47 11789 Q2268.54 11789 2282.99 11760.6 Q2297.62 11732.1 2297.62 11675.3 Q2297.62 11618.2 2282.99 11589.9 Q2268.54 11561.4 2239.47 11561.4 M2239.47 11531.7 Q2285.95 11531.7 2310.39 11568.6 Q2335.02 11605.3 2335.02 11675.3 Q2335.02 11745.1 2310.39 11781.9 Q2285.95 11818.6 2239.47 11818.6 Q2192.99 11818.6 2168.36 11781.9 Q2143.91 11745.1 2143.91 11675.3 Q2143.91 11605.3 2168.36 11568.6 Q2192.99 11531.7 2239.47 11531.7 Z" fill="#000000" fill-rule="evenodd" fill-opacity="1" /><path clip-path="url(#clip6100)" d="M 0 0 M2375.58 11766.2 L2414.65 11766.2 L2414.65 11813.2 L2375.58 11813.2 L2375.58 11766.2 Z" fill="#000000" fill-rule="evenodd" fill-opacity="1" /><path clip-path="url(#clip6100)" d="M 0 0 M2455.58 11536.7 L2602.43 11536.7 L2602.43 11568.2 L2489.84 11568.2 L2489.84 11636 Q2497.99 11633.2 2506.13 11631.9 Q2514.28 11630.4 2522.43 11630.4 Q2568.73 11630.4 2595.76 11655.8 Q2622.8 11681.2 2622.8 11724.5 Q2622.8 11769.1 2595.02 11794 Q2567.25 11818.6 2516.69 11818.6 Q2499.28 11818.6 2481.13 11815.6 Q2463.17 11812.7 2443.91 11806.7 L2443.91 11769.1 Q2460.58 11778.2 2478.36 11782.7 Q2496.13 11787.1 2515.95 11787.1 Q2547.99 11787.1 2566.69 11770.3 Q2585.39 11753.4 2585.39 11724.5 Q2585.39 11695.6 2566.69 11678.8 Q2547.99 11661.9 2515.95 11661.9 Q2500.95 11661.9 2485.95 11665.3 Q2471.13 11668.6 2455.58 11675.6 L2455.58 11536.7 Z" fill="#000000" fill-rule="evenodd" fill-opacity="1" /><path clip-path="url(#clip6100)" d="M 0 0 M2747.98 11660.1 Q2722.8 11660.1 2707.99 11677.3 Q2693.36 11694.5 2693.36 11724.5 Q2693.36 11754.3 2707.99 11771.7 Q2722.8 11789 2747.98 11789 Q2773.17 11789 2787.8 11771.7 Q2802.61 11754.3 2802.61 11724.5 Q2802.61 11694.5 2787.8 11677.3 Q2773.17 11660.1 2747.98 11660.1 M2822.24 11542.8 L2822.24 11576.9 Q2808.17 11570.3 2793.73 11566.7 Q2779.47 11563.2 2765.39 11563.2 Q2728.36 11563.2 2708.73 11588.2 Q2689.28 11613.2 2686.5 11663.8 Q2697.43 11647.7 2713.91 11639.1 Q2730.39 11630.4 2750.21 11630.4 Q2791.87 11630.4 2815.95 11655.8 Q2840.21 11681 2840.21 11724.5 Q2840.21 11767.1 2815.02 11792.8 Q2789.84 11818.6 2747.98 11818.6 Q2700.02 11818.6 2674.65 11781.9 Q2649.28 11745.1 2649.28 11675.3 Q2649.28 11609.7 2680.39 11570.8 Q2711.5 11531.7 2763.91 11531.7 Q2777.98 11531.7 2792.24 11534.5 Q2806.69 11537.3 2822.24 11542.8 Z" fill="#000000" fill-rule="evenodd" fill-opacity="1" /><path clip-path="url(#clip6100)" d="M 0 0 M2960.76 11561.4 Q2931.87 11561.4 2917.24 11589.9 Q2902.8 11618.2 2902.8 11675.3 Q2902.8 11732.1 2917.24 11760.6 Q2931.87 11789 2960.76 11789 Q2989.84 11789 3004.28 11760.6 Q3018.91 11732.1 3018.91 11675.3 Q3018.91 11618.2 3004.28 11589.9 Q2989.84 11561.4 2960.76 11561.4 M2960.76 11531.7 Q3007.24 11531.7 3031.69 11568.6 Q3056.32 11605.3 3056.32 11675.3 Q3056.32 11745.1 3031.69 11781.9 Q3007.24 11818.6 2960.76 11818.6 Q2914.28 11818.6 2889.65 11781.9 Q2865.21 11745.1 2865.21 11675.3 Q2865.21 11605.3 2889.65 11568.6 Q2914.28 11531.7 2960.76 11531.7 Z" fill="#000000" fill-rule="evenodd" fill-opacity="1" /><path clip-path="url(#clip6100)" d="M 0 0 M6180.81 11561.4 Q6151.92 11561.4 6137.29 11589.9 Q6122.85 11618.2 6122.85 11675.3 Q6122.85 11732.1 6137.29 11760.6 Q6151.92 11789 6180.81 11789 Q6209.89 11789 6224.33 11760.6 Q6238.96 11732.1 6238.96 11675.3 Q6238.96 11618.2 6224.33 11589.9 Q6209.89 11561.4 6180.81 11561.4 M6180.81 11531.7 Q6227.29 11531.7 6251.74 11568.6 Q6276.37 11605.3 6276.37 11675.3 Q6276.37 11745.1 6251.74 11781.9 Q6227.29 11818.6 6180.81 11818.6 Q6134.33 11818.6 6109.7 11781.9 Q6085.26 11745.1 6085.26 11675.3 Q6085.26 11605.3 6109.7 11568.6 Q6134.33 11531.7 6180.81 11531.7 Z" fill="#000000" fill-rule="evenodd" fill-opacity="1" /><path clip-path="url(#clip6100)" d="M 0 0 M6316.92 11766.2 L6356 11766.2 L6356 11813.2 L6316.92 11813.2 L6316.92 11766.2 Z" fill="#000000" fill-rule="evenodd" fill-opacity="1" /><path clip-path="url(#clip6100)" d="M 0 0 M6396.92 11536.7 L6543.77 11536.7 L6543.77 11568.2 L6431.18 11568.2 L6431.18 11636 Q6439.33 11633.2 6447.48 11631.9 Q6455.63 11630.4 6463.77 11630.4 Q6510.07 11630.4 6537.11 11655.8 Q6564.14 11681.2 6564.14 11724.5 Q6564.14 11769.1 6536.37 11794 Q6508.59 11818.6 6458.03 11818.6 Q6440.63 11818.6 6422.48 11815.6 Q6404.52 11812.7 6385.26 11806.7 L6385.26 11769.1 Q6401.92 11778.2 6419.7 11782.7 Q6437.48 11787.1 6457.29 11787.1 Q6489.33 11787.1 6508.03 11770.3 Q6526.74 11753.4 6526.74 11724.5 Q6526.74 11695.6 6508.03 11678.8 Q6489.33 11661.9 6457.29 11661.9 Q6442.29 11661.9 6427.29 11665.3 Q6412.48 11668.6 6396.92 11675.6 L6396.92 11536.7 Z" fill="#000000" fill-rule="evenodd" fill-opacity="1" /><path clip-path="url(#clip6100)" d="M 0 0 M6689.33 11660.1 Q6664.14 11660.1 6649.33 11677.3 Q6634.7 11694.5 6634.7 11724.5 Q6634.7 11754.3 6649.33 11771.7 Q6664.14 11789 6689.33 11789 Q6714.51 11789 6729.14 11771.7 Q6743.96 11754.3 6743.96 11724.5 Q6743.96 11694.5 6729.14 11677.3 Q6714.51 11660.1 6689.33 11660.1 M6763.59 11542.8 L6763.59 11576.9 Q6749.51 11570.3 6735.07 11566.7 Q6720.81 11563.2 6706.74 11563.2 Q6669.7 11563.2 6650.07 11588.2 Q6630.63 11613.2 6627.85 11663.8 Q6638.77 11647.7 6655.25 11639.1 Q6671.74 11630.4 6691.55 11630.4 Q6733.22 11630.4 6757.29 11655.8 Q6781.55 11681 6781.55 11724.5 Q6781.55 11767.1 6756.37 11792.8 Q6731.18 11818.6 6689.33 11818.6 Q6641.37 11818.6 6616 11781.9 Q6590.63 11745.1 6590.63 11675.3 Q6590.63 11609.7 6621.74 11570.8 Q6652.85 11531.7 6705.25 11531.7 Q6719.33 11531.7 6733.59 11534.5 Q6748.03 11537.3 6763.59 11542.8 Z" fill="#000000" fill-rule="evenodd" fill-opacity="1" /><path clip-path="url(#clip6100)" d="M 0 0 M6822.48 11536.7 L6969.33 11536.7 L6969.33 11568.2 L6856.73 11568.2 L6856.73 11636 Q6864.88 11633.2 6873.03 11631.9 Q6881.18 11630.4 6889.33 11630.4 Q6935.62 11630.4 6962.66 11655.8 Q6989.7 11681.2 6989.7 11724.5 Q6989.7 11769.1 6961.92 11794 Q6934.14 11818.6 6883.59 11818.6 Q6866.18 11818.6 6848.03 11815.6 Q6830.07 11812.7 6810.81 11806.7 L6810.81 11769.1 Q6827.48 11778.2 6845.25 11782.7 Q6863.03 11787.1 6882.85 11787.1 Q6914.88 11787.1 6933.59 11770.3 Q6952.29 11753.4 6952.29 11724.5 Q6952.29 11695.6 6933.59 11678.8 Q6914.88 11661.9 6882.85 11661.9 Q6867.85 11661.9 6852.85 11665.3 Q6838.03 11668.6 6822.48 11675.6 L6822.48 11536.7 Z" fill="#000000" fill-rule="evenodd" fill-opacity="1" /><path clip-path="url(#clip6100)" d="M 0 0 M10118.5 11561.4 Q10089.6 11561.4 10074.9 11589.9 Q10060.5 11618.2 10060.5 11675.3 Q10060.5 11732.1 10074.9 11760.6 Q10089.6 11789 10118.5 11789 Q10147.5 11789 10162 11760.6 Q10176.6 11732.1 10176.6 11675.3 Q10176.6 11618.2 10162 11589.9 Q10147.5 11561.4 10118.5 11561.4 M10118.5 11531.7 Q10164.9 11531.7 10189.4 11568.6 Q10214 11605.3 10214 11675.3 Q10214 11745.1 10189.4 11781.9 Q10164.9 11818.6 10118.5 11818.6 Q10072 11818.6 10047.3 11781.9 Q10022.9 11745.1 10022.9 11675.3 Q10022.9 11605.3 10047.3 11568.6 Q10072 11531.7 10118.5 11531.7 Z" fill="#000000" fill-rule="evenodd" fill-opacity="1" /><path clip-path="url(#clip6100)" d="M 0 0 M10254.6 11766.2 L10293.6 11766.2 L10293.6 11813.2 L10254.6 11813.2 L10254.6 11766.2 Z" fill="#000000" fill-rule="evenodd" fill-opacity="1" /><path clip-path="url(#clip6100)" d="M 0 0 M10334.6 11536.7 L10481.4 11536.7 L10481.4 11568.2 L10368.8 11568.2 L10368.8 11636 Q10377 11633.2 10385.1 11631.9 Q10393.3 11630.4 10401.4 11630.4 Q10447.7 11630.4 10474.7 11655.8 Q10501.8 11681.2 10501.8 11724.5 Q10501.8 11769.1 10474 11794 Q10446.2 11818.6 10395.7 11818.6 Q10378.3 11818.6 10360.1 11815.6 Q10342.2 11812.7 10322.9 11806.7 L10322.9 11769.1 Q10339.6 11778.2 10357.3 11782.7 Q10375.1 11787.1 10394.9 11787.1 Q10427 11787.1 10445.7 11770.3 Q10464.4 11753.4 10464.4 11724.5 Q10464.4 11695.6 10445.7 11678.8 Q10427 11661.9 10394.9 11661.9 Q10379.9 11661.9 10364.9 11665.3 Q10350.1 11668.6 10334.6 11675.6 L10334.6 11536.7 Z" fill="#000000" fill-rule="evenodd" fill-opacity="1" /><path clip-path="url(#clip6100)" d="M 0 0 M10532.9 11536.7 L10710.7 11536.7 L10710.7 11552.7 L10610.3 11813.2 L10571.2 11813.2 L10665.7 11568.2 L10532.9 11568.2 L10532.9 11536.7 Z" fill="#000000" fill-rule="evenodd" fill-opacity="1" /><path clip-path="url(#clip6100)" d="M 0 0 M10831.2 11561.4 Q10802.3 11561.4 10787.7 11589.9 Q10773.3 11618.2 10773.3 11675.3 Q10773.3 11732.1 10787.7 11760.6 Q10802.3 11789 10831.2 11789 Q10860.3 11789 10874.7 11760.6 Q10889.4 11732.1 10889.4 11675.3 Q10889.4 11618.2 10874.7 11589.9 Q10860.3 11561.4 10831.2 11561.4 M10831.2 11531.7 Q10877.7 11531.7 10902.2 11568.6 Q10926.8 11605.3 10926.8 11675.3 Q10926.8 11745.1 10902.2 11781.9 Q10877.7 11818.6 10831.2 11818.6 Q10784.7 11818.6 10760.1 11781.9 Q10735.7 11745.1 10735.7 11675.3 Q10735.7 11605.3 10760.1 11568.6 Q10784.7 11531.7 10831.2 11531.7 Z" fill="#000000" fill-rule="evenodd" fill-opacity="1" /><path clip-path="url(#clip6100)" d="M 0 0 M14059.8 11561.4 Q14030.9 11561.4 14016.3 11589.9 Q14001.8 11618.2 14001.8 11675.3 Q14001.8 11732.1 14016.3 11760.6 Q14030.9 11789 14059.8 11789 Q14088.9 11789 14103.3 11760.6 Q14117.9 11732.1 14117.9 11675.3 Q14117.9 11618.2 14103.3 11589.9 Q14088.9 11561.4 14059.8 11561.4 M14059.8 11531.7 Q14106.3 11531.7 14130.7 11568.6 Q14155.4 11605.3 14155.4 11675.3 Q14155.4 11745.1 14130.7 11781.9 Q14106.3 11818.6 14059.8 11818.6 Q14013.3 11818.6 13988.7 11781.9 Q13964.2 11745.1 13964.2 11675.3 Q13964.2 11605.3 13988.7 11568.6 Q14013.3 11531.7 14059.8 11531.7 Z" fill="#000000" fill-rule="evenodd" fill-opacity="1" /><path clip-path="url(#clip6100)" d="M 0 0 M14195.9 11766.2 L14235 11766.2 L14235 11813.2 L14195.9 11813.2 L14195.9 11766.2 Z" fill="#000000" fill-rule="evenodd" fill-opacity="1" /><path clip-path="url(#clip6100)" d="M 0 0 M14275.9 11536.7 L14422.8 11536.7 L14422.8 11568.2 L14310.2 11568.2 L14310.2 11636 Q14318.3 11633.2 14326.5 11631.9 Q14334.6 11630.4 14342.8 11630.4 Q14389.1 11630.4 14416.1 11655.8 Q14443.1 11681.2 14443.1 11724.5 Q14443.1 11769.1 14415.3 11794 Q14387.6 11818.6 14337 11818.6 Q14319.6 11818.6 14301.5 11815.6 Q14283.5 11812.7 14264.2 11806.7 L14264.2 11769.1 Q14280.9 11778.2 14298.7 11782.7 Q14316.5 11787.1 14336.3 11787.1 Q14368.3 11787.1 14387 11770.3 Q14405.7 11753.4 14405.7 11724.5 Q14405.7 11695.6 14387 11678.8 Q14368.3 11661.9 14336.3 11661.9 Q14321.3 11661.9 14306.3 11665.3 Q14291.5 11668.6 14275.9 11675.6 L14275.9 11536.7 Z" fill="#000000" fill-rule="evenodd" fill-opacity="1" /><path clip-path="url(#clip6100)" d="M 0 0 M14474.2 11536.7 L14652 11536.7 L14652 11552.7 L14551.6 11813.2 L14512.6 11813.2 L14607 11568.2 L14474.2 11568.2 L14474.2 11536.7 Z" fill="#000000" fill-rule="evenodd" fill-opacity="1" /><path clip-path="url(#clip6100)" d="M 0 0 M14692.9 11536.7 L14839.8 11536.7 L14839.8 11568.2 L14727.2 11568.2 L14727.2 11636 Q14735.3 11633.2 14743.5 11631.9 Q14751.6 11630.4 14759.8 11630.4 Q14806.1 11630.4 14833.1 11655.8 Q14860.2 11681.2 14860.2 11724.5 Q14860.2 11769.1 14832.4 11794 Q14804.6 11818.6 14754.1 11818.6 Q14736.6 11818.6 14718.5 11815.6 Q14700.5 11812.7 14681.3 11806.7 L14681.3 11769.1 Q14697.9 11778.2 14715.7 11782.7 Q14733.5 11787.1 14753.3 11787.1 Q14785.3 11787.1 14804.1 11770.3 Q14822.8 11753.4 14822.8 11724.5 Q14822.8 11695.6 14804.1 11678.8 Q14785.3 11661.9 14753.3 11661.9 Q14738.3 11661.9 14723.3 11665.3 Q14708.5 11668.6 14692.9 11675.6 L14692.9 11536.7 Z" fill="#000000" fill-rule="evenodd" fill-opacity="1" /><path clip-path="url(#clip6100)" d="M 0 0 M17989.9 11561.4 Q17961 11561.4 17946.4 11589.9 Q17932 11618.2 17932 11675.3 Q17932 11732.1 17946.4 11760.6 Q17961 11789 17989.9 11789 Q18019 11789 18033.5 11760.6 Q18048.1 11732.1 18048.1 11675.3 Q18048.1 11618.2 18033.5 11589.9 Q18019 11561.4 17989.9 11561.4 M17989.9 11531.7 Q18036.4 11531.7 18060.9 11568.6 Q18085.5 11605.3 18085.5 11675.3 Q18085.5 11745.1 18060.9 11781.9 Q18036.4 11818.6 17989.9 11818.6 Q17943.5 11818.6 17918.8 11781.9 Q17894.4 11745.1 17894.4 11675.3 Q17894.4 11605.3 17918.8 11568.6 Q17943.5 11531.7 17989.9 11531.7 Z" fill="#000000" fill-rule="evenodd" fill-opacity="1" /><path clip-path="url(#clip6100)" d="M 0 0 M18126 11766.2 L18165.1 11766.2 L18165.1 11813.2 L18126 11813.2 L18126 11766.2 Z" fill="#000000" fill-rule="evenodd" fill-opacity="1" /><path clip-path="url(#clip6100)" d="M 0 0 M18206 11536.7 L18352.9 11536.7 L18352.9 11568.2 L18240.3 11568.2 L18240.3 11636 Q18248.5 11633.2 18256.6 11631.9 Q18264.7 11630.4 18272.9 11630.4 Q18319.2 11630.4 18346.2 11655.8 Q18373.3 11681.2 18373.3 11724.5 Q18373.3 11769.1 18345.5 11794 Q18317.7 11818.6 18267.2 11818.6 Q18249.7 11818.6 18231.6 11815.6 Q18213.6 11812.7 18194.4 11806.7 L18194.4 11769.1 Q18211 11778.2 18228.8 11782.7 Q18246.6 11787.1 18266.4 11787.1 Q18298.5 11787.1 18317.2 11770.3 Q18335.9 11753.4 18335.9 11724.5 Q18335.9 11695.6 18317.2 11678.8 Q18298.5 11661.9 18266.4 11661.9 Q18251.4 11661.9 18236.4 11665.3 Q18221.6 11668.6 18206 11675.6 L18206 11536.7 Z" fill="#000000" fill-rule="evenodd" fill-opacity="1" /><path clip-path="url(#clip6100)" d="M 0 0 M18493.8 11681.9 Q18467.2 11681.9 18451.8 11696.2 Q18436.6 11710.4 18436.6 11735.4 Q18436.6 11760.4 18451.8 11774.7 Q18467.2 11789 18493.8 11789 Q18520.5 11789 18535.9 11774.7 Q18551.2 11760.3 18551.2 11735.4 Q18551.2 11710.4 18535.9 11696.2 Q18520.7 11681.9 18493.8 11681.9 M18456.4 11666 Q18432.3 11660.1 18418.8 11643.6 Q18405.5 11627.1 18405.5 11603.4 Q18405.5 11570.3 18429 11551 Q18452.7 11531.7 18493.8 11531.7 Q18535.1 11531.7 18558.6 11551 Q18582.2 11570.3 18582.2 11603.4 Q18582.2 11627.1 18568.6 11643.6 Q18555.3 11660.1 18531.4 11666 Q18558.5 11672.3 18573.5 11690.6 Q18588.6 11709 18588.6 11735.4 Q18588.6 11775.6 18564 11797.1 Q18539.6 11818.6 18493.8 11818.6 Q18448.1 11818.6 18423.5 11797.1 Q18399 11775.6 18399 11735.4 Q18399 11709 18414.2 11690.6 Q18429.4 11672.3 18456.4 11666 M18442.7 11606.9 Q18442.7 11628.4 18456 11640.4 Q18469.6 11652.5 18493.8 11652.5 Q18517.9 11652.5 18531.4 11640.4 Q18545.1 11628.4 18545.1 11606.9 Q18545.1 11585.4 18531.4 11573.4 Q18517.9 11561.4 18493.8 11561.4 Q18469.6 11561.4 18456 11573.4 Q18442.7 11585.4 18442.7 11606.9 Z" fill="#000000" fill-rule="evenodd" fill-opacity="1" /><path clip-path="url(#clip6100)" d="M 0 0 M18709.2 11561.4 Q18680.3 11561.4 18665.7 11589.9 Q18651.2 11618.2 18651.2 11675.3 Q18651.2 11732.1 18665.7 11760.6 Q18680.3 11789 18709.2 11789 Q18738.3 11789 18752.7 11760.6 Q18767.3 11732.1 18767.3 11675.3 Q18767.3 11618.2 18752.7 11589.9 Q18738.3 11561.4 18709.2 11561.4 M18709.2 11531.7 Q18755.7 11531.7 18780.1 11568.6 Q18804.7 11605.3 18804.7 11675.3 Q18804.7 11745.1 18780.1 11781.9 Q18755.7 11818.6 18709.2 11818.6 Q18662.7 11818.6 18638.1 11781.9 Q18613.6 11745.1 18613.6 11675.3 Q18613.6 11605.3 18638.1 11568.6 Q18662.7 11531.7 18709.2 11531.7 Z" fill="#000000" fill-rule="evenodd" fill-opacity="1" /><path clip-path="url(#clip6100)" d="M 0 0 M1109.53 7068.68 Q1080.64 7068.68 1066.01 7097.2 Q1051.56 7125.53 1051.56 7182.57 Q1051.56 7239.42 1066.01 7267.94 Q1080.64 7296.27 1109.53 7296.27 Q1138.6 7296.27 1153.04 7267.94 Q1167.67 7239.42 1167.67 7182.57 Q1167.67 7125.53 1153.04 7097.2 Q1138.6 7068.68 1109.53 7068.68 M1109.53 7039.05 Q1156.01 7039.05 1180.45 7075.9 Q1205.08 7112.57 1205.08 7182.57 Q1205.08 7252.38 1180.45 7289.24 Q1156.01 7325.9 1109.53 7325.9 Q1063.04 7325.9 1038.41 7289.24 Q1013.97 7252.38 1013.97 7182.57 Q1013.97 7112.57 1038.41 7075.9 Q1063.04 7039.05 1109.53 7039.05 Z" fill="#000000" fill-rule="evenodd" fill-opacity="1" /><path clip-path="url(#clip6100)" d="M 0 0 M1245.64 7273.49 L1284.71 7273.49 L1284.71 7320.53 L1245.64 7320.53 L1245.64 7273.49 Z" fill="#000000" fill-rule="evenodd" fill-opacity="1" /><path clip-path="url(#clip6100)" d="M 0 0 M1409.89 7167.38 Q1384.71 7167.38 1369.89 7184.61 Q1355.26 7201.83 1355.26 7231.83 Q1355.26 7261.64 1369.89 7279.05 Q1384.71 7296.27 1409.89 7296.27 Q1435.08 7296.27 1449.71 7279.05 Q1464.52 7261.64 1464.52 7231.83 Q1464.52 7201.83 1449.71 7184.61 Q1435.08 7167.38 1409.89 7167.38 M1484.15 7050.16 L1484.15 7084.24 Q1470.08 7077.57 1455.63 7074.05 Q1441.38 7070.53 1427.3 7070.53 Q1390.26 7070.53 1370.63 7095.53 Q1351.19 7120.53 1348.41 7171.09 Q1359.34 7154.98 1375.82 7146.46 Q1392.3 7137.75 1412.12 7137.75 Q1453.78 7137.75 1477.86 7163.12 Q1502.12 7188.31 1502.12 7231.83 Q1502.12 7274.42 1476.93 7300.16 Q1451.75 7325.9 1409.89 7325.9 Q1361.93 7325.9 1336.56 7289.24 Q1311.19 7252.38 1311.19 7182.57 Q1311.19 7117.01 1342.3 7078.13 Q1373.41 7039.05 1425.82 7039.05 Q1439.89 7039.05 1454.15 7041.83 Q1468.6 7044.61 1484.15 7050.16 Z" fill="#000000" fill-rule="evenodd" fill-opacity="1" /><path clip-path="url(#clip6100)" d="M 0 0 M1627.3 7167.38 Q1602.12 7167.38 1587.3 7184.61 Q1572.67 7201.83 1572.67 7231.83 Q1572.67 7261.64 1587.3 7279.05 Q1602.12 7296.27 1627.3 7296.27 Q1652.49 7296.27 1667.11 7279.05 Q1681.93 7261.64 1681.93 7231.83 Q1681.93 7201.83 1667.11 7184.61 Q1652.49 7167.38 1627.3 7167.38 M1701.56 7050.16 L1701.56 7084.24 Q1687.49 7077.57 1673.04 7074.05 Q1658.78 7070.53 1644.71 7070.53 Q1607.67 7070.53 1588.04 7095.53 Q1568.6 7120.53 1565.82 7171.09 Q1576.74 7154.98 1593.23 7146.46 Q1609.71 7137.75 1629.52 7137.75 Q1671.19 7137.75 1695.26 7163.12 Q1719.52 7188.31 1719.52 7231.83 Q1719.52 7274.42 1694.34 7300.16 Q1669.15 7325.9 1627.3 7325.9 Q1579.34 7325.9 1553.97 7289.24 Q1528.6 7252.38 1528.6 7182.57 Q1528.6 7117.01 1559.71 7078.13 Q1590.82 7039.05 1643.23 7039.05 Q1657.3 7039.05 1671.56 7041.83 Q1686 7044.61 1701.56 7050.16 Z" fill="#000000" fill-rule="evenodd" fill-opacity="1" /><path clip-path="url(#clip6100)" d="M 0 0 M1840.08 7068.68 Q1811.19 7068.68 1796.56 7097.2 Q1782.11 7125.53 1782.11 7182.57 Q1782.11 7239.42 1796.56 7267.94 Q1811.19 7296.27 1840.08 7296.27 Q1869.15 7296.27 1883.6 7267.94 Q1898.22 7239.42 1898.22 7182.57 Q1898.22 7125.53 1883.6 7097.2 Q1869.15 7068.68 1840.08 7068.68 M1840.08 7039.05 Q1886.56 7039.05 1911 7075.9 Q1935.63 7112.57 1935.63 7182.57 Q1935.63 7252.38 1911 7289.24 Q1886.56 7325.9 1840.08 7325.9 Q1793.6 7325.9 1768.97 7289.24 Q1744.52 7252.38 1744.52 7182.57 Q1744.52 7112.57 1768.97 7075.9 Q1793.6 7039.05 1840.08 7039.05 Z" fill="#000000" fill-rule="evenodd" fill-opacity="1" /><path clip-path="url(#clip6100)" d="M 0 0 M1109.53 7068.68 Q1080.64 7068.68 1066.01 7097.2 Q1051.56 7125.53 1051.56 7182.57 Q1051.56 7239.42 1066.01 7267.94 Q1080.64 7296.27 1109.53 7296.27 Q1138.6 7296.27 1153.04 7267.94 Q1167.67 7239.42 1167.67 7182.57 Q1167.67 7125.53 1153.04 7097.2 Q1138.6 7068.68 1109.53 7068.68 M1109.53 7039.05 Q1156.01 7039.05 1180.45 7075.9 Q1205.08 7112.57 1205.08 7182.57 Q1205.08 7252.38 1180.45 7289.24 Q1156.01 7325.9 1109.53 7325.9 Q1063.04 7325.9 1038.41 7289.24 Q1013.97 7252.38 1013.97 7182.57 Q1013.97 7112.57 1038.41 7075.9 Q1063.04 7039.05 1109.53 7039.05 Z" fill="#000000" fill-rule="evenodd" fill-opacity="1" /><path clip-path="url(#clip6100)" d="M 0 0 M1245.64 7273.49 L1284.71 7273.49 L1284.71 7320.53 L1245.64 7320.53 L1245.64 7273.49 Z" fill="#000000" fill-rule="evenodd" fill-opacity="1" /><path clip-path="url(#clip6100)" d="M 0 0 M1409.89 7167.38 Q1384.71 7167.38 1369.89 7184.61 Q1355.26 7201.83 1355.26 7231.83 Q1355.26 7261.64 1369.89 7279.05 Q1384.71 7296.27 1409.89 7296.27 Q1435.08 7296.27 1449.71 7279.05 Q1464.52 7261.64 1464.52 7231.83 Q1464.52 7201.83 1449.71 7184.61 Q1435.08 7167.38 1409.89 7167.38 M1484.15 7050.16 L1484.15 7084.24 Q1470.08 7077.57 1455.63 7074.05 Q1441.38 7070.53 1427.3 7070.53 Q1390.26 7070.53 1370.63 7095.53 Q1351.19 7120.53 1348.41 7171.09 Q1359.34 7154.98 1375.82 7146.46 Q1392.3 7137.75 1412.12 7137.75 Q1453.78 7137.75 1477.86 7163.12 Q1502.12 7188.31 1502.12 7231.83 Q1502.12 7274.42 1476.93 7300.16 Q1451.75 7325.9 1409.89 7325.9 Q1361.93 7325.9 1336.56 7289.24 Q1311.19 7252.38 1311.19 7182.57 Q1311.19 7117.01 1342.3 7078.13 Q1373.41 7039.05 1425.82 7039.05 Q1439.89 7039.05 1454.15 7041.83 Q1468.6 7044.61 1484.15 7050.16 Z" fill="#000000" fill-rule="evenodd" fill-opacity="1" /><path clip-path="url(#clip6100)" d="M 0 0 M1627.3 7167.38 Q1602.12 7167.38 1587.3 7184.61 Q1572.67 7201.83 1572.67 7231.83 Q1572.67 7261.64 1587.3 7279.05 Q1602.12 7296.27 1627.3 7296.27 Q1652.49 7296.27 1667.11 7279.05 Q1681.93 7261.64 1681.93 7231.83 Q1681.93 7201.83 1667.11 7184.61 Q1652.49 7167.38 1627.3 7167.38 M1701.56 7050.16 L1701.56 7084.24 Q1687.49 7077.57 1673.04 7074.05 Q1658.78 7070.53 1644.71 7070.53 Q1607.67 7070.53 1588.04 7095.53 Q1568.6 7120.53 1565.82 7171.09 Q1576.74 7154.98 1593.23 7146.46 Q1609.71 7137.75 1629.52 7137.75 Q1671.19 7137.75 1695.26 7163.12 Q1719.52 7188.31 1719.52 7231.83 Q1719.52 7274.42 1694.34 7300.16 Q1669.15 7325.9 1627.3 7325.9 Q1579.34 7325.9 1553.97 7289.24 Q1528.6 7252.38 1528.6 7182.57 Q1528.6 7117.01 1559.71 7078.13 Q1590.82 7039.05 1643.23 7039.05 Q1657.3 7039.05 1671.56 7041.83 Q1686 7044.61 1701.56 7050.16 Z" fill="#000000" fill-rule="evenodd" fill-opacity="1" /><path clip-path="url(#clip6100)" d="M 0 0 M1840.08 7068.68 Q1811.19 7068.68 1796.56 7097.2 Q1782.11 7125.53 1782.11 7182.57 Q1782.11 7239.42 1796.56 7267.94 Q1811.19 7296.27 1840.08 7296.27 Q1869.15 7296.27 1883.6 7267.94 Q1898.22 7239.42 1898.22 7182.57 Q1898.22 7125.53 1883.6 7097.2 Q1869.15 7068.68 1840.08 7068.68 M1840.08 7039.05 Q1886.56 7039.05 1911 7075.9 Q1935.63 7112.57 1935.63 7182.57 Q1935.63 7252.38 1911 7289.24 Q1886.56 7325.9 1840.08 7325.9 Q1793.6 7325.9 1768.97 7289.24 Q1744.52 7252.38 1744.52 7182.57 Q1744.52 7112.57 1768.97 7075.9 Q1793.6 7039.05 1840.08 7039.05 Z" fill="#000000" fill-rule="evenodd" fill-opacity="1" /><path clip-path="url(#clip6100)" d="M 0 0 M1119.34 6085.59 Q1090.45 6085.59 1075.82 6114.1 Q1061.38 6142.44 1061.38 6199.47 Q1061.38 6256.32 1075.82 6284.84 Q1090.45 6313.18 1119.34 6313.18 Q1148.41 6313.18 1162.86 6284.84 Q1177.49 6256.32 1177.49 6199.47 Q1177.49 6142.44 1162.86 6114.1 Q1148.41 6085.59 1119.34 6085.59 M1119.34 6055.96 Q1165.82 6055.96 1190.27 6092.81 Q1214.89 6129.47 1214.89 6199.47 Q1214.89 6269.29 1190.27 6306.14 Q1165.82 6342.81 1119.34 6342.81 Q1072.86 6342.81 1048.23 6306.14 Q1023.78 6269.29 1023.78 6199.47 Q1023.78 6129.47 1048.23 6092.81 Q1072.86 6055.96 1119.34 6055.96 Z" fill="#000000" fill-rule="evenodd" fill-opacity="1" /><path clip-path="url(#clip6100)" d="M 0 0 M1255.45 6290.4 L1294.52 6290.4 L1294.52 6337.44 L1255.45 6337.44 L1255.45 6290.4 Z" fill="#000000" fill-rule="evenodd" fill-opacity="1" /><path clip-path="url(#clip6100)" d="M 0 0 M1419.71 6184.29 Q1394.52 6184.29 1379.71 6201.51 Q1365.08 6218.73 1365.08 6248.73 Q1365.08 6278.55 1379.71 6295.95 Q1394.52 6313.18 1419.71 6313.18 Q1444.89 6313.18 1459.52 6295.95 Q1474.34 6278.55 1474.34 6248.73 Q1474.34 6218.73 1459.52 6201.51 Q1444.89 6184.29 1419.71 6184.29 M1493.97 6067.07 L1493.97 6101.14 Q1479.89 6094.47 1465.45 6090.96 Q1451.19 6087.44 1437.12 6087.44 Q1400.08 6087.44 1380.45 6112.44 Q1361.01 6137.44 1358.23 6187.99 Q1369.15 6171.88 1385.63 6163.36 Q1402.12 6154.66 1421.93 6154.66 Q1463.6 6154.66 1487.67 6180.03 Q1511.93 6205.21 1511.93 6248.73 Q1511.93 6291.32 1486.75 6317.07 Q1461.56 6342.81 1419.71 6342.81 Q1371.75 6342.81 1346.38 6306.14 Q1321.01 6269.29 1321.01 6199.47 Q1321.01 6133.92 1352.12 6095.03 Q1383.23 6055.96 1435.63 6055.96 Q1449.71 6055.96 1463.97 6058.73 Q1478.41 6061.51 1493.97 6067.07 Z" fill="#000000" fill-rule="evenodd" fill-opacity="1" /><path clip-path="url(#clip6100)" d="M 0 0 M1637.11 6184.29 Q1611.93 6184.29 1597.12 6201.51 Q1582.49 6218.73 1582.49 6248.73 Q1582.49 6278.55 1597.12 6295.95 Q1611.93 6313.18 1637.11 6313.18 Q1662.3 6313.18 1676.93 6295.95 Q1691.74 6278.55 1691.74 6248.73 Q1691.74 6218.73 1676.93 6201.51 Q1662.3 6184.29 1637.11 6184.29 M1711.37 6067.07 L1711.37 6101.14 Q1697.3 6094.47 1682.86 6090.96 Q1668.6 6087.44 1654.52 6087.44 Q1617.49 6087.44 1597.86 6112.44 Q1578.41 6137.44 1575.63 6187.99 Q1586.56 6171.88 1603.04 6163.36 Q1619.52 6154.66 1639.34 6154.66 Q1681 6154.66 1705.08 6180.03 Q1729.34 6205.21 1729.34 6248.73 Q1729.34 6291.32 1704.15 6317.07 Q1678.97 6342.81 1637.11 6342.81 Q1589.15 6342.81 1563.78 6306.14 Q1538.41 6269.29 1538.41 6199.47 Q1538.41 6133.92 1569.52 6095.03 Q1600.63 6055.96 1653.04 6055.96 Q1667.11 6055.96 1681.37 6058.73 Q1695.82 6061.51 1711.37 6067.07 Z" fill="#000000" fill-rule="evenodd" fill-opacity="1" /><path clip-path="url(#clip6100)" d="M 0 0 M1776.37 6305.95 L1837.48 6305.95 L1837.48 6095.03 L1771 6108.36 L1771 6074.29 L1837.11 6060.96 L1874.52 6060.96 L1874.52 6305.95 L1935.63 6305.95 L1935.63 6337.44 L1776.37 6337.44 L1776.37 6305.95 Z" fill="#000000" fill-rule="evenodd" fill-opacity="1" /><path clip-path="url(#clip6100)" d="M 0 0 M1122.3 5102.49 Q1093.41 5102.49 1078.78 5131.01 Q1064.34 5159.34 1064.34 5216.38 Q1064.34 5273.23 1078.78 5301.75 Q1093.41 5330.08 1122.3 5330.08 Q1151.38 5330.08 1165.82 5301.75 Q1180.45 5273.23 1180.45 5216.38 Q1180.45 5159.34 1165.82 5131.01 Q1151.38 5102.49 1122.3 5102.49 M1122.3 5072.86 Q1168.78 5072.86 1193.23 5109.71 Q1217.86 5146.38 1217.86 5216.38 Q1217.86 5286.19 1193.23 5323.04 Q1168.78 5359.71 1122.3 5359.71 Q1075.82 5359.71 1051.19 5323.04 Q1026.75 5286.19 1026.75 5216.38 Q1026.75 5146.38 1051.19 5109.71 Q1075.82 5072.86 1122.3 5072.86 Z" fill="#000000" fill-rule="evenodd" fill-opacity="1" /><path clip-path="url(#clip6100)" d="M 0 0 M1258.41 5307.3 L1297.49 5307.3 L1297.49 5354.34 L1258.41 5354.34 L1258.41 5307.3 Z" fill="#000000" fill-rule="evenodd" fill-opacity="1" /><path clip-path="url(#clip6100)" d="M 0 0 M1422.67 5201.19 Q1397.49 5201.19 1382.67 5218.41 Q1368.04 5235.64 1368.04 5265.64 Q1368.04 5295.45 1382.67 5312.86 Q1397.49 5330.08 1422.67 5330.08 Q1447.86 5330.08 1462.49 5312.86 Q1477.3 5295.45 1477.3 5265.64 Q1477.3 5235.64 1462.49 5218.41 Q1447.86 5201.19 1422.67 5201.19 M1496.93 5083.97 L1496.93 5118.05 Q1482.86 5111.38 1468.41 5107.86 Q1454.15 5104.34 1440.08 5104.34 Q1403.04 5104.34 1383.41 5129.34 Q1363.97 5154.34 1361.19 5204.9 Q1372.12 5188.79 1388.6 5180.27 Q1405.08 5171.56 1424.89 5171.56 Q1466.56 5171.56 1490.63 5196.93 Q1514.89 5222.12 1514.89 5265.64 Q1514.89 5308.23 1489.71 5333.97 Q1464.52 5359.71 1422.67 5359.71 Q1374.71 5359.71 1349.34 5323.04 Q1323.97 5286.19 1323.97 5216.38 Q1323.97 5150.82 1355.08 5111.93 Q1386.19 5072.86 1438.6 5072.86 Q1452.67 5072.86 1466.93 5075.64 Q1481.38 5078.42 1496.93 5083.97 Z" fill="#000000" fill-rule="evenodd" fill-opacity="1" /><path clip-path="url(#clip6100)" d="M 0 0 M1640.08 5201.19 Q1614.89 5201.19 1600.08 5218.41 Q1585.45 5235.64 1585.45 5265.64 Q1585.45 5295.45 1600.08 5312.86 Q1614.89 5330.08 1640.08 5330.08 Q1665.26 5330.08 1679.89 5312.86 Q1694.71 5295.45 1694.71 5265.64 Q1694.71 5235.64 1679.89 5218.41 Q1665.26 5201.19 1640.08 5201.19 M1714.34 5083.97 L1714.34 5118.05 Q1700.26 5111.38 1685.82 5107.86 Q1671.56 5104.34 1657.49 5104.34 Q1620.45 5104.34 1600.82 5129.34 Q1581.37 5154.34 1578.6 5204.9 Q1589.52 5188.79 1606 5180.27 Q1622.49 5171.56 1642.3 5171.56 Q1683.97 5171.56 1708.04 5196.93 Q1732.3 5222.12 1732.3 5265.64 Q1732.3 5308.23 1707.11 5333.97 Q1681.93 5359.71 1640.08 5359.71 Q1592.12 5359.71 1566.74 5323.04 Q1541.37 5286.19 1541.37 5216.38 Q1541.37 5150.82 1572.49 5111.93 Q1603.6 5072.86 1656 5072.86 Q1670.08 5072.86 1684.34 5075.64 Q1698.78 5078.42 1714.34 5083.97 Z" fill="#000000" fill-rule="evenodd" fill-opacity="1" /><path clip-path="url(#clip6100)" d="M 0 0 M1805.08 5322.86 L1935.63 5322.86 L1935.63 5354.34 L1760.08 5354.34 L1760.08 5322.86 Q1781.37 5300.82 1818.04 5263.79 Q1854.89 5226.56 1864.34 5215.82 Q1882.3 5195.64 1889.34 5181.75 Q1896.56 5167.67 1896.56 5154.16 Q1896.56 5132.12 1881 5118.23 Q1865.63 5104.34 1840.82 5104.34 Q1823.23 5104.34 1803.6 5110.45 Q1784.15 5116.56 1761.93 5128.97 L1761.93 5091.19 Q1784.52 5082.12 1804.15 5077.49 Q1823.78 5072.86 1840.08 5072.86 Q1883.04 5072.86 1908.59 5094.34 Q1934.15 5115.82 1934.15 5151.75 Q1934.15 5168.79 1927.67 5184.16 Q1921.37 5199.34 1904.52 5220.08 Q1899.89 5225.45 1875.08 5251.19 Q1850.26 5276.75 1805.08 5322.86 Z" fill="#000000" fill-rule="evenodd" fill-opacity="1" /><path clip-path="url(#clip6100)" d="M 0 0 M1114.71 4119.39 Q1085.82 4119.39 1071.19 4147.91 Q1056.75 4176.25 1056.75 4233.28 Q1056.75 4290.13 1071.19 4318.65 Q1085.82 4346.99 1114.71 4346.99 Q1143.78 4346.99 1158.23 4318.65 Q1172.86 4290.13 1172.86 4233.28 Q1172.86 4176.25 1158.23 4147.91 Q1143.78 4119.39 1114.71 4119.39 M1114.71 4089.76 Q1161.19 4089.76 1185.64 4126.62 Q1210.27 4163.28 1210.27 4233.28 Q1210.27 4303.1 1185.64 4339.95 Q1161.19 4376.61 1114.71 4376.61 Q1068.23 4376.61 1043.6 4339.95 Q1019.16 4303.1 1019.16 4233.28 Q1019.16 4163.28 1043.6 4126.62 Q1068.23 4089.76 1114.71 4089.76 Z" fill="#000000" fill-rule="evenodd" fill-opacity="1" /><path clip-path="url(#clip6100)" d="M 0 0 M1250.82 4324.21 L1289.89 4324.21 L1289.89 4371.24 L1250.82 4371.24 L1250.82 4324.21 Z" fill="#000000" fill-rule="evenodd" fill-opacity="1" /><path clip-path="url(#clip6100)" d="M 0 0 M1415.08 4218.1 Q1389.89 4218.1 1375.08 4235.32 Q1360.45 4252.54 1360.45 4282.54 Q1360.45 4312.36 1375.08 4329.76 Q1389.89 4346.99 1415.08 4346.99 Q1440.26 4346.99 1454.89 4329.76 Q1469.71 4312.36 1469.71 4282.54 Q1469.71 4252.54 1454.89 4235.32 Q1440.26 4218.1 1415.08 4218.1 M1489.34 4100.88 L1489.34 4134.95 Q1475.26 4128.28 1460.82 4124.76 Q1446.56 4121.25 1432.49 4121.25 Q1395.45 4121.25 1375.82 4146.25 Q1356.38 4171.25 1353.6 4221.8 Q1364.52 4205.69 1381.01 4197.17 Q1397.49 4188.47 1417.3 4188.47 Q1458.97 4188.47 1483.04 4213.84 Q1507.3 4239.02 1507.3 4282.54 Q1507.3 4325.13 1482.12 4350.87 Q1456.93 4376.61 1415.08 4376.61 Q1367.12 4376.61 1341.75 4339.95 Q1316.38 4303.1 1316.38 4233.28 Q1316.38 4167.73 1347.49 4128.84 Q1378.6 4089.76 1431 4089.76 Q1445.08 4089.76 1459.34 4092.54 Q1473.78 4095.32 1489.34 4100.88 Z" fill="#000000" fill-rule="evenodd" fill-opacity="1" /><path clip-path="url(#clip6100)" d="M 0 0 M1632.49 4218.1 Q1607.3 4218.1 1592.49 4235.32 Q1577.86 4252.54 1577.86 4282.54 Q1577.86 4312.36 1592.49 4329.76 Q1607.3 4346.99 1632.49 4346.99 Q1657.67 4346.99 1672.3 4329.76 Q1687.11 4312.36 1687.11 4282.54 Q1687.11 4252.54 1672.3 4235.32 Q1657.67 4218.1 1632.49 4218.1 M1706.74 4100.88 L1706.74 4134.95 Q1692.67 4128.28 1678.23 4124.76 Q1663.97 4121.25 1649.89 4121.25 Q1612.86 4121.25 1593.23 4146.25 Q1573.78 4171.25 1571 4221.8 Q1581.93 4205.69 1598.41 4197.17 Q1614.89 4188.47 1634.71 4188.47 Q1676.37 4188.47 1700.45 4213.84 Q1724.71 4239.02 1724.71 4282.54 Q1724.71 4325.13 1699.52 4350.87 Q1674.34 4376.61 1632.49 4376.61 Q1584.52 4376.61 1559.15 4339.95 Q1533.78 4303.1 1533.78 4233.28 Q1533.78 4167.73 1564.89 4128.84 Q1596 4089.76 1648.41 4089.76 Q1662.49 4089.76 1676.74 4092.54 Q1691.19 4095.32 1706.74 4100.88 Z" fill="#000000" fill-rule="evenodd" fill-opacity="1" /><path clip-path="url(#clip6100)" d="M 0 0 M1878.6 4222.17 Q1905.45 4227.91 1920.45 4246.06 Q1935.63 4264.21 1935.63 4290.87 Q1935.63 4331.8 1907.48 4354.21 Q1879.34 4376.61 1827.48 4376.61 Q1810.08 4376.61 1791.56 4373.1 Q1773.23 4369.76 1753.6 4362.91 L1753.6 4326.8 Q1769.15 4335.87 1787.67 4340.5 Q1806.19 4345.13 1826.37 4345.13 Q1861.56 4345.13 1879.89 4331.24 Q1898.41 4317.36 1898.41 4290.87 Q1898.41 4266.43 1881.19 4252.73 Q1864.15 4238.84 1833.6 4238.84 L1801.37 4238.84 L1801.37 4208.1 L1835.08 4208.1 Q1862.67 4208.1 1877.3 4197.17 Q1891.93 4186.06 1891.93 4165.32 Q1891.93 4144.02 1876.74 4132.73 Q1861.74 4121.25 1833.6 4121.25 Q1818.23 4121.25 1800.63 4124.58 Q1783.04 4127.91 1761.93 4134.95 L1761.93 4101.62 Q1783.23 4095.69 1801.74 4092.73 Q1820.45 4089.76 1836.93 4089.76 Q1879.52 4089.76 1904.34 4109.21 Q1929.15 4128.47 1929.15 4161.43 Q1929.15 4184.39 1916 4200.32 Q1902.85 4216.06 1878.6 4222.17 Z" fill="#000000" fill-rule="evenodd" fill-opacity="1" /><path clip-path="url(#clip6100)" d="M 0 0 M1105.64 3136.3 Q1076.75 3136.3 1062.12 3164.82 Q1047.67 3193.15 1047.67 3250.19 Q1047.67 3307.04 1062.12 3335.56 Q1076.75 3363.89 1105.64 3363.89 Q1134.71 3363.89 1149.15 3335.56 Q1163.78 3307.04 1163.78 3250.19 Q1163.78 3193.15 1149.15 3164.82 Q1134.71 3136.3 1105.64 3136.3 M1105.64 3106.67 Q1152.12 3106.67 1176.56 3143.52 Q1201.19 3180.19 1201.19 3250.19 Q1201.19 3320 1176.56 3356.85 Q1152.12 3393.52 1105.64 3393.52 Q1059.16 3393.52 1034.53 3356.85 Q1010.08 3320 1010.08 3250.19 Q1010.08 3180.19 1034.53 3143.52 Q1059.16 3106.67 1105.64 3106.67 Z" fill="#000000" fill-rule="evenodd" fill-opacity="1" /><path clip-path="url(#clip6100)" d="M 0 0 M1241.75 3341.11 L1280.82 3341.11 L1280.82 3388.15 L1241.75 3388.15 L1241.75 3341.11 Z" fill="#000000" fill-rule="evenodd" fill-opacity="1" /><path clip-path="url(#clip6100)" d="M 0 0 M1406.01 3235 Q1380.82 3235 1366.01 3252.22 Q1351.38 3269.45 1351.38 3299.45 Q1351.38 3329.26 1366.01 3346.67 Q1380.82 3363.89 1406.01 3363.89 Q1431.19 3363.89 1445.82 3346.67 Q1460.63 3329.26 1460.63 3299.45 Q1460.63 3269.45 1445.82 3252.22 Q1431.19 3235 1406.01 3235 M1480.26 3117.78 L1480.26 3151.85 Q1466.19 3145.19 1451.75 3141.67 Q1437.49 3138.15 1423.41 3138.15 Q1386.38 3138.15 1366.75 3163.15 Q1347.3 3188.15 1344.52 3238.71 Q1355.45 3222.59 1371.93 3214.08 Q1388.41 3205.37 1408.23 3205.37 Q1449.89 3205.37 1473.97 3230.74 Q1498.23 3255.93 1498.23 3299.45 Q1498.23 3342.04 1473.04 3367.78 Q1447.86 3393.52 1406.01 3393.52 Q1358.04 3393.52 1332.67 3356.85 Q1307.3 3320 1307.3 3250.19 Q1307.3 3184.63 1338.41 3145.74 Q1369.52 3106.67 1421.93 3106.67 Q1436 3106.67 1450.26 3109.45 Q1464.71 3112.22 1480.26 3117.78 Z" fill="#000000" fill-rule="evenodd" fill-opacity="1" /><path clip-path="url(#clip6100)" d="M 0 0 M1623.41 3235 Q1598.23 3235 1583.41 3252.22 Q1568.78 3269.45 1568.78 3299.45 Q1568.78 3329.26 1583.41 3346.67 Q1598.23 3363.89 1623.41 3363.89 Q1648.6 3363.89 1663.23 3346.67 Q1678.04 3329.26 1678.04 3299.45 Q1678.04 3269.45 1663.23 3252.22 Q1648.6 3235 1623.41 3235 M1697.67 3117.78 L1697.67 3151.85 Q1683.6 3145.19 1669.15 3141.67 Q1654.89 3138.15 1640.82 3138.15 Q1603.78 3138.15 1584.15 3163.15 Q1564.71 3188.15 1561.93 3238.71 Q1572.86 3222.59 1589.34 3214.08 Q1605.82 3205.37 1625.63 3205.37 Q1667.3 3205.37 1691.37 3230.74 Q1715.63 3255.93 1715.63 3299.45 Q1715.63 3342.04 1690.45 3367.78 Q1665.26 3393.52 1623.41 3393.52 Q1575.45 3393.52 1550.08 3356.85 Q1524.71 3320 1524.71 3250.19 Q1524.71 3184.63 1555.82 3145.74 Q1586.93 3106.67 1639.34 3106.67 Q1653.41 3106.67 1667.67 3109.45 Q1682.11 3112.22 1697.67 3117.78 Z" fill="#000000" fill-rule="evenodd" fill-opacity="1" /><path clip-path="url(#clip6100)" d="M 0 0 M1858.97 3144.26 L1764.52 3291.85 L1858.97 3291.85 L1858.97 3144.26 M1849.15 3111.67 L1896.19 3111.67 L1896.19 3291.85 L1935.63 3291.85 L1935.63 3322.96 L1896.19 3322.96 L1896.19 3388.15 L1858.97 3388.15 L1858.97 3322.96 L1734.15 3322.96 L1734.15 3286.85 L1849.15 3111.67 Z" fill="#000000" fill-rule="evenodd" fill-opacity="1" /><path clip-path="url(#clip6100)" d="M 0 0 M1117.49 2153.2 Q1088.6 2153.2 1073.97 2181.72 Q1059.53 2210.05 1059.53 2267.09 Q1059.53 2323.94 1073.97 2352.46 Q1088.6 2380.79 1117.49 2380.79 Q1146.56 2380.79 1161.01 2352.46 Q1175.64 2323.94 1175.64 2267.09 Q1175.64 2210.05 1161.01 2181.72 Q1146.56 2153.2 1117.49 2153.2 M1117.49 2123.57 Q1163.97 2123.57 1188.41 2160.43 Q1213.04 2197.09 1213.04 2267.09 Q1213.04 2336.91 1188.41 2373.76 Q1163.97 2410.42 1117.49 2410.42 Q1071.01 2410.42 1046.38 2373.76 Q1021.93 2336.91 1021.93 2267.09 Q1021.93 2197.09 1046.38 2160.43 Q1071.01 2123.57 1117.49 2123.57 Z" fill="#000000" fill-rule="evenodd" fill-opacity="1" /><path clip-path="url(#clip6100)" d="M 0 0 M1253.6 2358.02 L1292.67 2358.02 L1292.67 2405.05 L1253.6 2405.05 L1253.6 2358.02 Z" fill="#000000" fill-rule="evenodd" fill-opacity="1" /><path clip-path="url(#clip6100)" d="M 0 0 M1417.86 2251.91 Q1392.67 2251.91 1377.86 2269.13 Q1363.23 2286.35 1363.23 2316.35 Q1363.23 2346.16 1377.86 2363.57 Q1392.67 2380.79 1417.86 2380.79 Q1443.04 2380.79 1457.67 2363.57 Q1472.49 2346.16 1472.49 2316.35 Q1472.49 2286.35 1457.67 2269.13 Q1443.04 2251.91 1417.86 2251.91 M1492.12 2134.68 L1492.12 2168.76 Q1478.04 2162.09 1463.6 2158.57 Q1449.34 2155.05 1435.26 2155.05 Q1398.23 2155.05 1378.6 2180.05 Q1359.15 2205.05 1356.38 2255.61 Q1367.3 2239.5 1383.78 2230.98 Q1400.26 2222.28 1420.08 2222.28 Q1461.75 2222.28 1485.82 2247.65 Q1510.08 2272.83 1510.08 2316.35 Q1510.08 2358.94 1484.89 2384.68 Q1459.71 2410.42 1417.86 2410.42 Q1369.89 2410.42 1344.52 2373.76 Q1319.15 2336.91 1319.15 2267.09 Q1319.15 2201.54 1350.26 2162.65 Q1381.38 2123.57 1433.78 2123.57 Q1447.86 2123.57 1462.12 2126.35 Q1476.56 2129.13 1492.12 2134.68 Z" fill="#000000" fill-rule="evenodd" fill-opacity="1" /><path clip-path="url(#clip6100)" d="M 0 0 M1635.26 2251.91 Q1610.08 2251.91 1595.26 2269.13 Q1580.63 2286.35 1580.63 2316.35 Q1580.63 2346.16 1595.26 2363.57 Q1610.08 2380.79 1635.26 2380.79 Q1660.45 2380.79 1675.08 2363.57 Q1689.89 2346.16 1689.89 2316.35 Q1689.89 2286.35 1675.08 2269.13 Q1660.45 2251.91 1635.26 2251.91 M1709.52 2134.68 L1709.52 2168.76 Q1695.45 2162.09 1681 2158.57 Q1666.74 2155.05 1652.67 2155.05 Q1615.63 2155.05 1596 2180.05 Q1576.56 2205.05 1573.78 2255.61 Q1584.71 2239.5 1601.19 2230.98 Q1617.67 2222.28 1637.49 2222.28 Q1679.15 2222.28 1703.23 2247.65 Q1727.48 2272.83 1727.48 2316.35 Q1727.48 2358.94 1702.3 2384.68 Q1677.11 2410.42 1635.26 2410.42 Q1587.3 2410.42 1561.93 2373.76 Q1536.56 2336.91 1536.56 2267.09 Q1536.56 2201.54 1567.67 2162.65 Q1598.78 2123.57 1651.19 2123.57 Q1665.26 2123.57 1679.52 2126.35 Q1693.97 2129.13 1709.52 2134.68 Z" fill="#000000" fill-rule="evenodd" fill-opacity="1" /><path clip-path="url(#clip6100)" d="M 0 0 M1768.41 2128.57 L1915.26 2128.57 L1915.26 2160.05 L1802.67 2160.05 L1802.67 2227.83 Q1810.82 2225.05 1818.97 2223.76 Q1827.11 2222.28 1835.26 2222.28 Q1881.56 2222.28 1908.59 2247.65 Q1935.63 2273.02 1935.63 2316.35 Q1935.63 2360.98 1907.85 2385.79 Q1880.08 2410.42 1829.52 2410.42 Q1812.11 2410.42 1793.97 2407.46 Q1776 2404.5 1756.74 2398.57 L1756.74 2360.98 Q1773.41 2370.05 1791.19 2374.5 Q1808.97 2378.94 1828.78 2378.94 Q1860.82 2378.94 1879.52 2362.09 Q1898.22 2345.24 1898.22 2316.35 Q1898.22 2287.46 1879.52 2270.61 Q1860.82 2253.76 1828.78 2253.76 Q1813.78 2253.76 1798.78 2257.09 Q1783.97 2260.42 1768.41 2267.46 L1768.41 2128.57 Z" fill="#000000" fill-rule="evenodd" fill-opacity="1" /><path clip-path="url(#clip6100)" d="M 0 0 M1108.23 1170.11 Q1079.34 1170.11 1064.71 1198.63 Q1050.27 1226.96 1050.27 1284 Q1050.27 1340.85 1064.71 1369.37 Q1079.34 1397.7 1108.23 1397.7 Q1137.3 1397.7 1151.75 1369.37 Q1166.38 1340.85 1166.38 1284 Q1166.38 1226.96 1151.75 1198.63 Q1137.3 1170.11 1108.23 1170.11 M1108.23 1140.48 Q1154.71 1140.48 1179.15 1177.33 Q1203.78 1214 1203.78 1284 Q1203.78 1353.81 1179.15 1390.66 Q1154.71 1427.33 1108.23 1427.33 Q1061.75 1427.33 1037.12 1390.66 Q1012.67 1353.81 1012.67 1284 Q1012.67 1214 1037.12 1177.33 Q1061.75 1140.48 1108.23 1140.48 Z" fill="#000000" fill-rule="evenodd" fill-opacity="1" /><path clip-path="url(#clip6100)" d="M 0 0 M1244.34 1374.92 L1283.41 1374.92 L1283.41 1421.96 L1244.34 1421.96 L1244.34 1374.92 Z" fill="#000000" fill-rule="evenodd" fill-opacity="1" /><path clip-path="url(#clip6100)" d="M 0 0 M1408.6 1268.81 Q1383.41 1268.81 1368.6 1286.03 Q1353.97 1303.25 1353.97 1333.25 Q1353.97 1363.07 1368.6 1380.48 Q1383.41 1397.7 1408.6 1397.7 Q1433.78 1397.7 1448.41 1380.48 Q1463.23 1363.07 1463.23 1333.25 Q1463.23 1303.25 1448.41 1286.03 Q1433.78 1268.81 1408.6 1268.81 M1482.86 1151.59 L1482.86 1185.66 Q1468.78 1179 1454.34 1175.48 Q1440.08 1171.96 1426 1171.96 Q1388.97 1171.96 1369.34 1196.96 Q1349.89 1221.96 1347.12 1272.51 Q1358.04 1256.4 1374.52 1247.88 Q1391.01 1239.18 1410.82 1239.18 Q1452.49 1239.18 1476.56 1264.55 Q1500.82 1289.74 1500.82 1333.25 Q1500.82 1375.85 1475.63 1401.59 Q1450.45 1427.33 1408.6 1427.33 Q1360.63 1427.33 1335.26 1390.66 Q1309.89 1353.81 1309.89 1284 Q1309.89 1218.44 1341.01 1179.55 Q1372.12 1140.48 1424.52 1140.48 Q1438.6 1140.48 1452.86 1143.26 Q1467.3 1146.03 1482.86 1151.59 Z" fill="#000000" fill-rule="evenodd" fill-opacity="1" /><path clip-path="url(#clip6100)" d="M 0 0 M1626 1268.81 Q1600.82 1268.81 1586 1286.03 Q1571.37 1303.25 1571.37 1333.25 Q1571.37 1363.07 1586 1380.48 Q1600.82 1397.7 1626 1397.7 Q1651.19 1397.7 1665.82 1380.48 Q1680.63 1363.07 1680.63 1333.25 Q1680.63 1303.25 1665.82 1286.03 Q1651.19 1268.81 1626 1268.81 M1700.26 1151.59 L1700.26 1185.66 Q1686.19 1179 1671.74 1175.48 Q1657.49 1171.96 1643.41 1171.96 Q1606.37 1171.96 1586.74 1196.96 Q1567.3 1221.96 1564.52 1272.51 Q1575.45 1256.4 1591.93 1247.88 Q1608.41 1239.18 1628.23 1239.18 Q1669.89 1239.18 1693.97 1264.55 Q1718.23 1289.74 1718.23 1333.25 Q1718.23 1375.85 1693.04 1401.59 Q1667.86 1427.33 1626 1427.33 Q1578.04 1427.33 1552.67 1390.66 Q1527.3 1353.81 1527.3 1284 Q1527.3 1218.44 1558.41 1179.55 Q1589.52 1140.48 1641.93 1140.48 Q1656 1140.48 1670.26 1143.26 Q1684.71 1146.03 1700.26 1151.59 Z" fill="#000000" fill-rule="evenodd" fill-opacity="1" /><path clip-path="url(#clip6100)" d="M 0 0 M1843.41 1268.81 Q1818.23 1268.81 1803.41 1286.03 Q1788.78 1303.25 1788.78 1333.25 Q1788.78 1363.07 1803.41 1380.48 Q1818.23 1397.7 1843.41 1397.7 Q1868.6 1397.7 1883.22 1380.48 Q1898.04 1363.07 1898.04 1333.25 Q1898.04 1303.25 1883.22 1286.03 Q1868.6 1268.81 1843.41 1268.81 M1917.67 1151.59 L1917.67 1185.66 Q1903.59 1179 1889.15 1175.48 Q1874.89 1171.96 1860.82 1171.96 Q1823.78 1171.96 1804.15 1196.96 Q1784.71 1221.96 1781.93 1272.51 Q1792.85 1256.4 1809.34 1247.88 Q1825.82 1239.18 1845.63 1239.18 Q1887.3 1239.18 1911.37 1264.55 Q1935.63 1289.74 1935.63 1333.25 Q1935.63 1375.85 1910.45 1401.59 Q1885.26 1427.33 1843.41 1427.33 Q1795.45 1427.33 1770.08 1390.66 Q1744.71 1353.81 1744.71 1284 Q1744.71 1218.44 1775.82 1179.55 Q1806.93 1140.48 1859.34 1140.48 Q1873.41 1140.48 1887.67 1143.26 Q1902.11 1146.03 1917.67 1151.59 Z" fill="#000000" fill-rule="evenodd" fill-opacity="1" /><path clip-path="url(#clip6100)" d="M 0 0 M6053.52 228.341 L6053.52 284.73 Q6028.24 271.767 6001.02 265.286 Q5973.8 258.804 5944.63 258.804 Q5900.23 258.804 5877.87 272.415 Q5855.84 286.026 5855.84 313.248 Q5855.84 333.989 5871.72 345.98 Q5887.6 357.646 5935.56 368.341 L5955.97 372.878 Q6019.49 386.489 6046.07 411.442 Q6072.96 436.072 6072.96 480.47 Q6072.96 531.025 6032.78 560.516 Q5992.92 590.006 5922.92 590.006 Q5893.75 590.006 5861.99 584.173 Q5830.56 578.664 5795.56 567.321 L5795.56 505.747 Q5828.61 522.923 5860.7 531.673 Q5892.78 540.099 5924.22 540.099 Q5966.35 540.099 5989.03 525.84 Q6011.72 511.257 6011.72 485.007 Q6011.72 460.701 5995.19 447.738 Q5978.98 434.775 5923.57 422.785 L5902.83 417.924 Q5847.41 406.257 5822.78 382.276 Q5798.15 357.97 5798.15 315.841 Q5798.15 264.637 5834.45 236.767 Q5870.74 208.897 5937.5 208.897 Q5970.56 208.897 5999.72 213.758 Q6028.89 218.619 6053.52 228.341 Z" fill="#000000" fill-rule="evenodd" fill-opacity="1" /><path clip-path="url(#clip6100)" d="M 0 0 M6135.51 217.647 L6195.14 217.647 L6195.14 580.608 L6135.51 580.608 L6135.51 217.647 M6135.51 76.3514 L6195.14 76.3514 L6195.14 151.86 L6135.51 151.86 L6135.51 76.3514 Z" fill="#000000" fill-rule="evenodd" fill-opacity="1" /><path clip-path="url(#clip6100)" d="M 0 0 M6231.76 217.647 L6515 217.647 L6515 272.091 L6290.74 532.969 L6515 532.969 L6515 580.608 L6223.66 580.608 L6223.66 526.164 L6447.92 265.286 L6231.76 265.286 L6231.76 217.647 Z" fill="#000000" fill-rule="evenodd" fill-opacity="1" /><path clip-path="url(#clip6100)" d="M 0 0 M6888.01 384.22 L6888.01 413.387 L6613.84 413.387 Q6617.73 474.96 6650.79 507.368 Q6684.17 539.451 6743.47 539.451 Q6777.82 539.451 6809.91 531.025 Q6842.31 522.599 6874.07 505.747 L6874.07 562.136 Q6841.99 575.747 6808.29 582.877 Q6774.58 590.006 6739.91 590.006 Q6653.05 590.006 6602.18 539.451 Q6551.62 488.896 6551.62 402.692 Q6551.62 313.572 6599.58 261.397 Q6647.87 208.897 6729.54 208.897 Q6802.78 208.897 6845.23 256.212 Q6888.01 303.202 6888.01 384.22 M6828.38 366.72 Q6827.73 317.785 6800.83 288.619 Q6774.26 259.452 6730.18 259.452 Q6680.28 259.452 6650.14 287.647 Q6620.32 315.841 6615.79 367.044 L6828.38 366.72 Z" fill="#000000" fill-rule="evenodd" fill-opacity="1" /><path clip-path="url(#clip6100)" d="M 0 0 M6965.78 498.294 L7034.16 498.294 L7034.16 580.608 L6965.78 580.608 L6965.78 498.294 M6965.78 237.415 L7034.16 237.415 L7034.16 319.73 L6965.78 319.73 L6965.78 237.415 Z" fill="#000000" fill-rule="evenodd" fill-opacity="1" /><path clip-path="url(#clip6100)" d="M 0 0 M7253.24 312.6 Q7209.16 312.6 7183.24 342.739 Q7157.64 372.878 7157.64 425.377 Q7157.64 477.553 7183.24 508.016 Q7209.16 538.155 7253.24 538.155 Q7297.31 538.155 7322.91 508.016 Q7348.84 477.553 7348.84 425.377 Q7348.84 372.878 7322.91 342.739 Q7297.31 312.6 7253.24 312.6 M7383.19 107.462 L7383.19 167.092 Q7358.56 155.425 7333.28 149.268 Q7308.33 143.11 7283.7 143.11 Q7218.88 143.11 7184.53 186.86 Q7150.51 230.61 7145.64 319.082 Q7164.76 290.887 7193.61 275.98 Q7222.45 260.749 7257.13 260.749 Q7330.04 260.749 7372.17 305.147 Q7414.62 349.22 7414.62 425.377 Q7414.62 499.914 7370.55 544.96 Q7326.48 590.006 7253.24 590.006 Q7169.3 590.006 7124.9 525.84 Q7080.51 461.349 7080.51 339.174 Q7080.51 224.453 7134.95 156.397 Q7189.39 88.018 7281.11 88.018 Q7305.74 88.018 7330.69 92.8791 Q7355.97 97.7402 7383.19 107.462 Z" fill="#000000" fill-rule="evenodd" fill-opacity="1" /><path clip-path="url(#clip6100)" d="M 0 0 M7492.4 498.294 L7560.78 498.294 L7560.78 554.034 L7507.63 657.737 L7465.83 657.737 L7492.4 554.034 L7492.4 498.294 Z" fill="#000000" fill-rule="evenodd" fill-opacity="1" /><path clip-path="url(#clip6100)" d="M 0 0 M7771.75 350.841 Q7725.09 350.841 7698.19 375.794 Q7671.61 400.748 7671.61 444.498 Q7671.61 488.247 7698.19 513.201 Q7725.09 538.155 7771.75 538.155 Q7818.42 538.155 7845.32 513.201 Q7872.21 487.923 7872.21 444.498 Q7872.21 400.748 7845.32 375.794 Q7818.74 350.841 7771.75 350.841 M7706.29 322.97 Q7664.16 312.6 7640.5 283.758 Q7617.17 254.915 7617.17 213.434 Q7617.17 155.425 7658.33 121.722 Q7699.81 88.018 7771.75 88.018 Q7844.02 88.018 7885.18 121.722 Q7926.33 155.425 7926.33 213.434 Q7926.33 254.915 7902.68 283.758 Q7879.34 312.6 7837.54 322.97 Q7884.85 333.989 7911.1 366.072 Q7937.68 398.155 7937.68 444.498 Q7937.68 514.821 7894.58 552.414 Q7851.8 590.006 7771.75 590.006 Q7691.71 590.006 7648.6 552.414 Q7605.83 514.821 7605.83 444.498 Q7605.83 398.155 7632.4 366.072 Q7658.98 333.989 7706.29 322.97 M7682.31 219.591 Q7682.31 257.184 7705.64 278.249 Q7729.3 299.313 7771.75 299.313 Q7813.88 299.313 7837.54 278.249 Q7861.52 257.184 7861.52 219.591 Q7861.52 181.999 7837.54 160.934 Q7813.88 139.87 7771.75 139.87 Q7729.3 139.87 7705.64 160.934 Q7682.31 181.999 7682.31 219.591 Z" fill="#000000" fill-rule="evenodd" fill-opacity="1" /><path clip-path="url(#clip6100)" d="M 0 0 M8015.45 498.294 L8083.83 498.294 L8083.83 554.034 L8030.69 657.737 L7988.88 657.737 L8015.45 554.034 L8015.45 498.294 Z" fill="#000000" fill-rule="evenodd" fill-opacity="1" /><path clip-path="url(#clip6100)" d="M 0 0 M8166.15 525.516 L8273.09 525.516 L8273.09 156.397 L8156.75 179.731 L8156.75 120.101 L8272.44 96.768 L8337.91 96.768 L8337.91 525.516 L8444.85 525.516 L8444.85 580.608 L8166.15 580.608 L8166.15 525.516 Z" fill="#000000" fill-rule="evenodd" fill-opacity="1" /><path clip-path="url(#clip6100)" d="M 0 0 M8655.82 139.87 Q8605.27 139.87 8579.66 189.777 Q8554.39 239.36 8554.39 339.174 Q8554.39 438.664 8579.66 488.571 Q8605.27 538.155 8655.82 538.155 Q8706.7 538.155 8731.98 488.571 Q8757.58 438.664 8757.58 339.174 Q8757.58 239.36 8731.98 189.777 Q8706.7 139.87 8655.82 139.87 M8655.82 88.018 Q8737.16 88.018 8779.94 152.508 Q8823.04 216.675 8823.04 339.174 Q8823.04 461.349 8779.94 525.84 Q8737.16 590.006 8655.82 590.006 Q8574.48 590.006 8531.38 525.84 Q8488.6 461.349 8488.6 339.174 Q8488.6 216.675 8531.38 152.508 Q8574.48 88.018 8655.82 88.018 Z" fill="#000000" fill-rule="evenodd" fill-opacity="1" /><path clip-path="url(#clip6100)" d="M 0 0 M8900.82 498.294 L8969.2 498.294 L8969.2 554.034 L8916.05 657.737 L8874.25 657.737 L8900.82 554.034 L8900.82 498.294 Z" fill="#000000" fill-rule="evenodd" fill-opacity="1" /><path clip-path="url(#clip6100)" d="M 0 0 M9051.51 525.516 L9158.46 525.516 L9158.46 156.397 L9042.12 179.731 L9042.12 120.101 L9157.81 96.768 L9223.27 96.768 L9223.27 525.516 L9330.22 525.516 L9330.22 580.608 L9051.51 580.608 L9051.51 525.516 Z" fill="#000000" fill-rule="evenodd" fill-opacity="1" /><path clip-path="url(#clip6100)" d="M 0 0 M9457.58 525.516 L9686.05 525.516 L9686.05 580.608 L9378.83 580.608 L9378.83 525.516 Q9416.1 486.951 9480.26 422.137 Q9544.75 356.998 9561.28 338.202 Q9592.71 302.878 9605.03 278.573 Q9617.67 253.943 9617.67 230.286 Q9617.67 191.721 9590.45 167.416 Q9563.55 143.11 9520.12 143.11 Q9489.34 143.11 9454.98 153.805 Q9420.96 164.499 9382.07 186.212 L9382.07 120.101 Q9421.6 104.222 9455.96 96.1199 Q9490.31 88.018 9518.83 88.018 Q9594.01 88.018 9638.73 125.61 Q9683.45 163.203 9683.45 226.073 Q9683.45 255.888 9672.11 282.786 Q9661.09 309.359 9631.6 345.656 Q9623.5 355.054 9580.08 400.1 Q9536.65 444.822 9457.58 525.516 Z" fill="#000000" fill-rule="evenodd" fill-opacity="1" /><path clip-path="url(#clip6100)" d="M 0 0 M9763.82 237.415 L9832.2 237.415 L9832.2 319.73 L9763.82 319.73 L9763.82 237.415 M9763.82 498.294 L9832.2 498.294 L9832.2 554.034 L9779.06 657.737 L9737.25 657.737 L9763.82 554.034 L9763.82 498.294 Z" fill="#000000" fill-rule="evenodd" fill-opacity="1" /><path clip-path="url(#clip6100)" d="M 0 0 M10304.7 141.166 Q10233.4 141.166 10191.3 194.314 Q10149.5 247.462 10149.5 339.174 Q10149.5 430.563 10191.3 483.71 Q10233.4 536.858 10304.7 536.858 Q10376 536.858 10417.5 483.71 Q10459.3 430.563 10459.3 339.174 Q10459.3 247.462 10417.5 194.314 Q10376 141.166 10304.7 141.166 M10396.4 571.858 L10482.6 666.163 L10403.5 666.163 L10331.9 588.71 Q10321.2 589.358 10315.4 589.682 Q10309.9 590.006 10304.7 590.006 Q10202.6 590.006 10141.4 521.951 Q10080.4 453.572 10080.4 339.174 Q10080.4 224.453 10141.4 156.397 Q10202.6 88.018 10304.7 88.018 Q10406.5 88.018 10467.4 156.397 Q10528.3 224.453 10528.3 339.174 Q10528.3 423.433 10494.3 483.386 Q10460.6 543.34 10396.4 571.858 Z" fill="#000000" fill-rule="evenodd" fill-opacity="1" /><path clip-path="url(#clip6100)" d="M 0 0 M10809.6 279.221 L11225.1 279.221 L11225.1 333.665 L10809.6 333.665 L10809.6 279.221 M10809.6 411.442 L11225.1 411.442 L11225.1 466.535 L10809.6 466.535 L10809.6 411.442 Z" fill="#000000" fill-rule="evenodd" fill-opacity="1" /><path clip-path="url(#clip6100)" d="M 0 0 M11518.4 525.516 L11625.3 525.516 L11625.3 156.397 L11509 179.731 L11509 120.101 L11624.6 96.768 L11690.1 96.768 L11690.1 525.516 L11797.1 525.516 L11797.1 580.608 L11518.4 580.608 L11518.4 525.516 Z" fill="#000000" fill-rule="evenodd" fill-opacity="1" /><path clip-path="url(#clip6100)" d="M 0 0 M12016.1 312.6 Q11972.1 312.6 11946.1 342.739 Q11920.5 372.878 11920.5 425.377 Q11920.5 477.553 11946.1 508.016 Q11972.1 538.155 12016.1 538.155 Q12060.2 538.155 12085.8 508.016 Q12111.7 477.553 12111.7 425.377 Q12111.7 372.878 12085.8 342.739 Q12060.2 312.6 12016.1 312.6 M12146.1 107.462 L12146.1 167.092 Q12121.5 155.425 12096.2 149.268 Q12071.2 143.11 12046.6 143.11 Q11981.8 143.11 11947.4 186.86 Q11913.4 230.61 11908.5 319.082 Q11927.7 290.887 11956.5 275.98 Q11985.3 260.749 12020 260.749 Q12092.9 260.749 12135.1 305.147 Q12177.5 349.22 12177.5 425.377 Q12177.5 499.914 12133.4 544.96 Q12089.4 590.006 12016.1 590.006 Q11932.2 590.006 11887.8 525.84 Q11843.4 461.349 11843.4 339.174 Q11843.4 224.453 11897.8 156.397 Q11952.3 88.018 12044 88.018 Q12068.6 88.018 12093.6 92.8791 Q12118.9 97.7402 12146.1 107.462 Z" fill="#000000" fill-rule="evenodd" fill-opacity="1" /><path clip-path="url(#clip6100)" d="M 0 0 M12255.3 237.415 L12323.7 237.415 L12323.7 319.73 L12255.3 319.73 L12255.3 237.415 M12255.3 498.294 L12323.7 498.294 L12323.7 554.034 L12270.5 657.737 L12228.7 657.737 L12255.3 554.034 L12255.3 498.294 Z" fill="#000000" fill-rule="evenodd" fill-opacity="1" /><path clip-path="url(#clip6100)" d="M 0 0 M12599.8 96.768 L12665.2 96.768 L12665.2 546.904 Q12665.2 634.404 12631.9 673.941 Q12598.8 713.478 12525.2 713.478 L12500.3 713.478 L12500.3 658.385 L12520.7 658.385 Q12564.1 658.385 12582 634.08 Q12599.8 609.775 12599.8 546.904 L12599.8 96.768 Z" fill="#000000" fill-rule="evenodd" fill-opacity="1" /><path clip-path="url(#clip6100)" d="M 0 0 M13003.6 690.793 L13003.6 737.135 L12658.8 737.135 L12658.8 690.793 L13003.6 690.793 Z" fill="#000000" fill-rule="evenodd" fill-opacity="1" /><path clip-path="url(#clip6100)" d="M 0 0 M13085.9 525.516 L13192.8 525.516 L13192.8 156.397 L13076.5 179.731 L13076.5 120.101 L13192.2 96.768 L13257.6 96.768 L13257.6 525.516 L13364.6 525.516 L13364.6 580.608 L13085.9 580.608 L13085.9 525.516 Z" fill="#000000" fill-rule="evenodd" fill-opacity="1" /><path clip-path="url(#clip6100)" d="M 0 0 M13645.9 279.221 L14061.3 279.221 L14061.3 333.665 L13645.9 333.665 L13645.9 279.221 M13645.9 411.442 L14061.3 411.442 L14061.3 466.535 L13645.9 466.535 L13645.9 411.442 Z" fill="#000000" fill-rule="evenodd" fill-opacity="1" /><path clip-path="url(#clip6100)" d="M 0 0 M14483.3 139.87 Q14432.7 139.87 14407.1 189.777 Q14381.9 239.36 14381.9 339.174 Q14381.9 438.664 14407.1 488.571 Q14432.7 538.155 14483.3 538.155 Q14534.2 538.155 14559.4 488.571 Q14585 438.664 14585 339.174 Q14585 239.36 14559.4 189.777 Q14534.2 139.87 14483.3 139.87 M14483.3 88.018 Q14564.6 88.018 14607.4 152.508 Q14650.5 216.675 14650.5 339.174 Q14650.5 461.349 14607.4 525.84 Q14564.6 590.006 14483.3 590.006 Q14401.9 590.006 14358.8 525.84 Q14316.1 461.349 14316.1 339.174 Q14316.1 216.675 14358.8 152.508 Q14401.9 88.018 14483.3 88.018 Z" fill="#000000" fill-rule="evenodd" fill-opacity="1" /><path clip-path="url(#clip6100)" d="M 0 0 M14721.5 498.294 L14789.9 498.294 L14789.9 580.608 L14721.5 580.608 L14721.5 498.294 Z" fill="#000000" fill-rule="evenodd" fill-opacity="1" /><path clip-path="url(#clip6100)" d="M 0 0 M14861.5 96.768 L15118.5 96.768 L15118.5 151.86 L14921.4 151.86 L14921.4 270.471 Q14935.7 265.61 14950 263.341 Q14964.2 260.749 14978.5 260.749 Q15059.5 260.749 15106.8 305.147 Q15154.1 349.544 15154.1 425.377 Q15154.1 503.479 15105.5 546.904 Q15056.9 590.006 14968.4 590.006 Q14938 590.006 14906.2 584.821 Q14874.8 579.636 14841.1 569.265 L14841.1 503.479 Q14870.2 519.358 14901.3 527.136 Q14932.5 534.914 14967.1 534.914 Q15023.2 534.914 15055.9 505.423 Q15088.7 475.933 15088.7 425.377 Q15088.7 374.822 15055.9 345.331 Q15023.2 315.841 14967.1 315.841 Q14940.9 315.841 14914.6 321.674 Q14888.7 327.508 14861.5 339.822 L14861.5 96.768 Z" fill="#000000" fill-rule="evenodd" fill-opacity="1" /><path clip-path="url(#clip6100)" d="M 0 0 M10314 12068.2 L10635.6 12068.2 L10635.6 12111.5 L10500.7 12111.5 L10500.7 12448.4 L10449 12448.4 L10449 12111.5 L10314 12111.5 L10314 12068.2 Z" fill="#000000" fill-rule="evenodd" fill-opacity="1" /><path clip-path="url(#clip6100)" d="M 0 0 M522.483 7641.94 L661.765 7641.94 L661.765 7559.44 Q661.765 7517.93 644.705 7498.07 Q627.39 7477.96 591.997 7477.96 Q556.349 7477.96 539.543 7498.07 Q522.483 7517.93 522.483 7559.44 L522.483 7641.94 M366.142 7641.94 L480.724 7641.94 L480.724 7565.8 Q480.724 7528.12 466.72 7509.78 Q452.461 7491.2 423.433 7491.2 Q394.66 7491.2 380.401 7509.78 Q366.142 7528.12 366.142 7565.8 L366.142 7641.94 M323.873 7693.37 L323.873 7561.98 Q323.873 7503.16 348.318 7471.33 Q372.762 7439.51 417.831 7439.51 Q452.715 7439.51 473.34 7455.8 Q493.965 7472.1 499.058 7503.67 Q507.206 7465.73 533.178 7444.85 Q558.895 7423.72 597.599 7423.72 Q648.524 7423.72 676.279 7458.35 Q704.033 7492.98 704.033 7556.89 L704.033 7693.37 L323.873 7693.37 Z" fill="#000000" fill-rule="evenodd" fill-opacity="1" /><path clip-path="url(#clip6100)" d="M 0 0 M418.85 7374.58 L418.85 7327.72 L704.033 7327.72 L704.033 7374.58 L418.85 7374.58 M307.832 7374.58 L307.832 7327.72 L367.16 7327.72 L367.16 7374.58 L307.832 7374.58 Z" fill="#000000" fill-rule="evenodd" fill-opacity="1" /><path clip-path="url(#clip6100)" d="M 0 0 M531.905 7041.52 L704.033 7041.52 L704.033 7088.37 L533.432 7088.37 Q492.946 7088.37 472.831 7104.16 Q452.715 7119.95 452.715 7151.52 Q452.715 7189.46 476.905 7211.36 Q501.095 7233.26 542.854 7233.26 L704.033 7233.26 L704.033 7280.36 L418.85 7280.36 L418.85 7233.26 L463.155 7233.26 Q437.437 7216.45 424.706 7193.79 Q411.975 7170.87 411.975 7141.08 Q411.975 7091.94 442.53 7066.73 Q472.831 7041.52 531.905 7041.52 Z" fill="#000000" fill-rule="evenodd" fill-opacity="1" /><path clip-path="url(#clip6100)" d="M 0 0 M462.136 6804.72 L307.832 6804.72 L307.832 6757.87 L704.033 6757.87 L704.033 6804.72 L661.256 6804.72 Q686.719 6819.49 699.195 6842.15 Q711.417 6864.56 711.417 6896.13 Q711.417 6947.82 670.168 6980.41 Q628.918 7012.75 561.696 7012.75 Q494.474 7012.75 453.224 6980.41 Q411.975 6947.82 411.975 6896.13 Q411.975 6864.56 424.451 6842.15 Q436.674 6819.49 462.136 6804.72 M561.696 6964.37 Q613.386 6964.37 642.922 6943.24 Q672.205 6921.85 672.205 6884.67 Q672.205 6847.5 642.922 6826.11 Q613.386 6804.72 561.696 6804.72 Q510.007 6804.72 480.724 6826.11 Q451.187 6847.5 451.187 6884.67 Q451.187 6921.85 480.724 6943.24 Q510.007 6964.37 561.696 6964.37 Z" fill="#000000" fill-rule="evenodd" fill-opacity="1" /><path clip-path="url(#clip6100)" d="M 0 0 M549.729 6464.79 L572.645 6464.79 L572.645 6680.2 Q621.024 6677.15 646.487 6651.18 Q671.695 6624.95 671.695 6578.35 Q671.695 6551.36 665.075 6526.15 Q658.455 6500.69 645.214 6475.74 L689.519 6475.74 Q700.214 6500.95 705.816 6527.43 Q711.417 6553.91 711.417 6581.15 Q711.417 6649.39 671.695 6689.37 Q631.973 6729.09 564.242 6729.09 Q494.22 6729.09 453.224 6691.41 Q411.975 6653.47 411.975 6589.3 Q411.975 6531.76 449.15 6498.4 Q486.071 6464.79 549.729 6464.79 M535.979 6511.64 Q497.53 6512.15 474.613 6533.28 Q451.697 6554.16 451.697 6588.79 Q451.697 6628.01 473.849 6651.69 Q496.002 6675.11 536.233 6678.68 L535.979 6511.64 Z" fill="#000000" fill-rule="evenodd" fill-opacity="1" /><path clip-path="url(#clip6100)" d="M 0 0 M462.646 6250.39 Q458.062 6258.29 456.025 6267.71 Q453.734 6276.87 453.734 6288.08 Q453.734 6327.8 479.706 6349.19 Q505.423 6370.32 553.803 6370.32 L704.033 6370.32 L704.033 6417.43 L418.85 6417.43 L418.85 6370.32 L463.155 6370.32 Q437.183 6355.55 424.706 6331.87 Q411.975 6308.19 411.975 6274.33 Q411.975 6269.49 412.739 6263.63 Q413.248 6257.78 414.521 6250.65 L462.646 6250.39 Z" fill="#000000" fill-rule="evenodd" fill-opacity="1" /><path clip-path="url(#clip6100)" d="M 0 0 M323.873 6156.94 L465.192 6156.94 L465.192 6200.23 L323.873 6200.23 L323.873 6156.94 Z" fill="#000000" fill-rule="evenodd" fill-opacity="1" /><path clip-path="url(#clip6100)" d="M 0 0 M427.252 5926 L471.558 5926 Q461.373 5945.86 456.28 5967.25 Q451.187 5988.63 451.187 6011.55 Q451.187 6046.44 461.882 6064 Q472.576 6081.32 493.965 6081.32 Q510.261 6081.32 519.682 6068.84 Q528.849 6056.37 537.252 6018.68 L540.817 6002.64 Q551.511 5952.73 571.117 5931.85 Q590.469 5910.72 625.353 5910.72 Q665.075 5910.72 688.246 5942.29 Q711.417 5973.61 711.417 6028.61 Q711.417 6051.53 706.834 6076.48 Q702.505 6101.18 693.594 6128.68 L645.214 6128.68 Q658.709 6102.71 665.584 6077.5 Q672.205 6052.29 672.205 6027.59 Q672.205 5994.49 661.001 5976.67 Q649.543 5958.84 628.918 5958.84 Q609.821 5958.84 599.636 5971.83 Q589.451 5984.56 580.029 6028.1 L576.21 6044.4 Q567.043 6087.94 548.201 6107.29 Q529.104 6126.64 496.002 6126.64 Q455.771 6126.64 433.873 6098.12 Q411.975 6069.61 411.975 6017.15 Q411.975 5991.18 415.794 5968.26 Q419.613 5945.35 427.252 5926 Z" fill="#000000" fill-rule="evenodd" fill-opacity="1" /><path clip-path="url(#clip6100)" d="M 0 0 M462.646 5530.56 Q458.062 5538.45 456.025 5547.87 Q453.734 5557.04 453.734 5568.24 Q453.734 5607.97 479.706 5629.35 Q505.423 5650.49 553.803 5650.49 L704.033 5650.49 L704.033 5697.59 L418.85 5697.59 L418.85 5650.49 L463.155 5650.49 Q437.183 5635.72 424.706 5612.04 Q411.975 5588.36 411.975 5554.49 Q411.975 5549.66 412.739 5543.8 Q413.248 5537.94 414.521 5530.81 L462.646 5530.56 Z" fill="#000000" fill-rule="evenodd" fill-opacity="1" /><path clip-path="url(#clip6100)" d="M 0 0 M560.678 5351.81 Q560.678 5408.59 573.664 5430.49 Q586.65 5452.39 617.969 5452.39 Q642.922 5452.39 657.691 5436.09 Q672.205 5419.54 672.205 5391.28 Q672.205 5352.32 644.705 5328.89 Q616.95 5305.21 571.117 5305.21 L560.678 5305.21 L560.678 5351.81 M541.326 5258.36 L704.033 5258.36 L704.033 5305.21 L660.746 5305.21 Q686.719 5321.25 699.195 5345.19 Q711.417 5369.12 711.417 5403.75 Q711.417 5447.55 686.973 5473.52 Q662.274 5499.24 621.024 5499.24 Q572.9 5499.24 548.455 5467.16 Q524.011 5434.82 524.011 5370.91 L524.011 5305.21 L519.428 5305.21 Q487.09 5305.21 469.521 5326.6 Q451.697 5347.74 451.697 5386.18 Q451.697 5410.63 457.553 5433.8 Q463.41 5456.97 475.122 5478.36 L431.836 5478.36 Q421.905 5452.64 417.067 5428.45 Q411.975 5404.26 411.975 5381.35 Q411.975 5319.47 444.058 5288.92 Q476.141 5258.36 541.326 5258.36 Z" fill="#000000" fill-rule="evenodd" fill-opacity="1" /><path clip-path="url(#clip6100)" d="M 0 0 M337.878 5162.87 L418.85 5162.87 L418.85 5066.37 L455.261 5066.37 L455.261 5162.87 L610.075 5162.87 Q644.96 5162.87 654.89 5153.45 Q664.821 5143.78 664.821 5114.5 L664.821 5066.37 L704.033 5066.37 L704.033 5114.5 Q704.033 5168.73 683.918 5189.36 Q663.547 5209.98 610.075 5209.98 L455.261 5209.98 L455.261 5244.36 L418.85 5244.36 L418.85 5209.98 L337.878 5209.98 L337.878 5162.87 Z" fill="#000000" fill-rule="evenodd" fill-opacity="1" /><path clip-path="url(#clip6100)" d="M 0 0 M418.85 5017.23 L418.85 4970.38 L704.033 4970.38 L704.033 5017.23 L418.85 5017.23 M307.832 5017.23 L307.832 4970.38 L367.16 4970.38 L367.16 5017.23 L307.832 5017.23 Z" fill="#000000" fill-rule="evenodd" fill-opacity="1" /><path clip-path="url(#clip6100)" d="M 0 0 M451.697 4810.72 Q451.697 4848.41 481.234 4870.31 Q510.516 4892.21 561.696 4892.21 Q612.876 4892.21 642.413 4870.56 Q671.695 4848.66 671.695 4810.72 Q671.695 4773.29 642.159 4751.4 Q612.622 4729.5 561.696 4729.5 Q511.025 4729.5 481.488 4751.4 Q451.697 4773.29 451.697 4810.72 M411.975 4810.72 Q411.975 4749.61 451.697 4714.73 Q491.419 4679.85 561.696 4679.85 Q631.719 4679.85 671.695 4714.73 Q711.417 4749.61 711.417 4810.72 Q711.417 4872.09 671.695 4906.97 Q631.719 4941.6 561.696 4941.6 Q491.419 4941.6 451.697 4906.97 Q411.975 4872.09 411.975 4810.72 Z" fill="#000000" fill-rule="evenodd" fill-opacity="1" /><polyline clip-path="url(#clip6102)" style="stroke:#009af9; stroke-width:32; stroke-opacity:1; fill:none" points="
  2600.12,1528.32 4350.05,1671.45 6099.99,1957.78 7849.93,2122.03 9599.87,2411.16 11349.8,2646.03 13099.7,3105.65 14849.7,3383.99 16599.6,4053.71 18349.6,4465.28 
  
  "/>
<polyline clip-path="url(#clip6102)" style="stroke:#e26f46; stroke-width:32; stroke-opacity:1; fill:none" points="
  2600.12,1527.63 4350.05,1778.49 6099.99,1984.19 7849.93,2272.01 9599.87,2685.87 11349.8,3200.19 13099.7,3865.87 14849.7,4478.56 16599.6,5825.84 18349.6,6601.92 
  
  "/>
<polyline clip-path="url(#clip6102)" style="stroke:#3da44d; stroke-width:32; stroke-opacity:1; fill:none" points="
  2600.12,1362.67 4350.05,1499.38 6099.99,1945.57 7849.93,2369.76 9599.87,2585.36 11349.8,3358.9 13099.7,4367.29 14849.7,5651.09 16599.6,6878.23 18349.6,9101.75 
  
  "/>
<polyline clip-path="url(#clip6102)" style="stroke:#c271d2; stroke-width:32; stroke-opacity:1; fill:none" points="
  2600.12,1282.05 4350.05,1480.6 6099.99,1658.81 7849.93,1981.13 9599.87,2550.59 11349.8,3512.89 13099.7,4151.54 14849.7,6723.17 16599.6,7524.96 18349.6,11091.2 
  
  "/>
<path clip-path="url(#clip6100)" d="
M2703.63 10233.4 L5736.77 10233.4 L5736.77 7814.24 L2703.63 7814.24  Z
  " fill="#ffffff" fill-rule="evenodd" fill-opacity="1"/>
<polyline clip-path="url(#clip6100)" style="stroke:#000000; stroke-width:32; stroke-opacity:1; fill:none" points="
  2703.63,10233.4 5736.77,10233.4 5736.77,7814.24 2703.63,7814.24 2703.63,10233.4 
  "/>
<polyline clip-path="url(#clip6100)" style="stroke:#009af9; stroke-width:32; stroke-opacity:1; fill:none" points="
  2895.63,8298.08 4047.63,8298.08 
  "/>
<path clip-path="url(#clip6100)" d="M 0 0 M4239.63 8159.84 L4277.04 8159.84 L4277.04 8404.84 L4411.67 8404.84 L4411.67 8436.32 L4239.63 8436.32 L4239.63 8159.84 Z" fill="#000000" fill-rule="evenodd" fill-opacity="1" /><path clip-path="url(#clip6100)" d="M 0 0 M4572.41 8264.1 L4809.81 8264.1 L4809.81 8295.21 L4572.41 8295.21 L4572.41 8264.1 M4572.41 8339.65 L4809.81 8339.65 L4809.81 8371.13 L4572.41 8371.13 L4572.41 8339.65 Z" fill="#000000" fill-rule="evenodd" fill-opacity="1" /><path clip-path="url(#clip6100)" d="M 0 0 M5055.55 8283.17 Q5030.37 8283.17 5015.55 8300.39 Q5000.92 8317.62 5000.92 8347.62 Q5000.92 8377.43 5015.55 8394.84 Q5030.37 8412.06 5055.55 8412.06 Q5080.74 8412.06 5095.37 8394.84 Q5110.18 8377.43 5110.18 8347.62 Q5110.18 8317.62 5095.37 8300.39 Q5080.74 8283.17 5055.55 8283.17 M5129.81 8165.95 L5129.81 8200.02 Q5115.74 8193.36 5101.29 8189.84 Q5087.03 8186.32 5072.96 8186.32 Q5035.92 8186.32 5016.29 8211.32 Q4996.85 8236.32 4994.07 8286.88 Q5005 8270.76 5021.48 8262.25 Q5037.96 8253.54 5057.78 8253.54 Q5099.44 8253.54 5123.52 8278.91 Q5147.78 8304.1 5147.78 8347.62 Q5147.78 8390.21 5122.59 8415.95 Q5097.41 8441.69 5055.55 8441.69 Q5007.59 8441.69 4982.22 8405.02 Q4956.85 8368.17 4956.85 8298.36 Q4956.85 8232.8 4987.96 8193.91 Q5019.07 8154.84 5071.48 8154.84 Q5085.55 8154.84 5099.81 8157.62 Q5114.26 8160.39 5129.81 8165.95 Z" fill="#000000" fill-rule="evenodd" fill-opacity="1" /><polyline clip-path="url(#clip6100)" style="stroke:#e26f46; stroke-width:32; stroke-opacity:1; fill:none" points="
  2895.63,8781.92 4047.63,8781.92 
  "/>
<path clip-path="url(#clip6100)" d="M 0 0 M4239.63 8643.68 L4277.04 8643.68 L4277.04 8888.68 L4411.67 8888.68 L4411.67 8920.16 L4239.63 8920.16 L4239.63 8643.68 Z" fill="#000000" fill-rule="evenodd" fill-opacity="1" /><path clip-path="url(#clip6100)" d="M 0 0 M4572.41 8747.94 L4809.81 8747.94 L4809.81 8779.05 L4572.41 8779.05 L4572.41 8747.94 M4572.41 8823.49 L4809.81 8823.49 L4809.81 8854.97 L4572.41 8854.97 L4572.41 8823.49 Z" fill="#000000" fill-rule="evenodd" fill-opacity="1" /><path clip-path="url(#clip6100)" d="M 0 0 M5050.92 8788.86 Q5024.26 8788.86 5008.89 8803.12 Q4993.7 8817.38 4993.7 8842.38 Q4993.7 8867.38 5008.89 8881.64 Q5024.26 8895.9 5050.92 8895.9 Q5077.59 8895.9 5092.96 8881.64 Q5108.33 8867.2 5108.33 8842.38 Q5108.33 8817.38 5092.96 8803.12 Q5077.78 8788.86 5050.92 8788.86 M5013.52 8772.94 Q4989.44 8767.01 4975.92 8750.53 Q4962.59 8734.05 4962.59 8710.35 Q4962.59 8677.2 4986.11 8657.94 Q5009.81 8638.68 5050.92 8638.68 Q5092.22 8638.68 5115.74 8657.94 Q5139.26 8677.2 5139.26 8710.35 Q5139.26 8734.05 5125.74 8750.53 Q5112.4 8767.01 5088.52 8772.94 Q5115.55 8779.23 5130.55 8797.57 Q5145.74 8815.9 5145.74 8842.38 Q5145.74 8882.57 5121.11 8904.05 Q5096.66 8925.53 5050.92 8925.53 Q5005.18 8925.53 4980.55 8904.05 Q4956.11 8882.57 4956.11 8842.38 Q4956.11 8815.9 4971.29 8797.57 Q4986.48 8779.23 5013.52 8772.94 M4999.81 8713.86 Q4999.81 8735.34 5013.15 8747.38 Q5026.66 8759.42 5050.92 8759.42 Q5075 8759.42 5088.52 8747.38 Q5102.22 8735.34 5102.22 8713.86 Q5102.22 8692.38 5088.52 8680.35 Q5075 8668.31 5050.92 8668.31 Q5026.66 8668.31 5013.15 8680.35 Q4999.81 8692.38 4999.81 8713.86 Z" fill="#000000" fill-rule="evenodd" fill-opacity="1" /><polyline clip-path="url(#clip6100)" style="stroke:#3da44d; stroke-width:32; stroke-opacity:1; fill:none" points="
  2895.63,9265.76 4047.63,9265.76 
  "/>
<path clip-path="url(#clip6100)" d="M 0 0 M4239.63 9127.52 L4277.04 9127.52 L4277.04 9372.52 L4411.67 9372.52 L4411.67 9404 L4239.63 9404 L4239.63 9127.52 Z" fill="#000000" fill-rule="evenodd" fill-opacity="1" /><path clip-path="url(#clip6100)" d="M 0 0 M4572.41 9231.78 L4809.81 9231.78 L4809.81 9262.89 L4572.41 9262.89 L4572.41 9231.78 M4572.41 9307.33 L4809.81 9307.33 L4809.81 9338.81 L4572.41 9338.81 L4572.41 9307.33 Z" fill="#000000" fill-rule="evenodd" fill-opacity="1" /><path clip-path="url(#clip6100)" d="M 0 0 M4977.41 9372.52 L5038.52 9372.52 L5038.52 9161.59 L4972.04 9174.93 L4972.04 9140.85 L5038.15 9127.52 L5075.55 9127.52 L5075.55 9372.52 L5136.66 9372.52 L5136.66 9404 L4977.41 9404 L4977.41 9372.52 Z" fill="#000000" fill-rule="evenodd" fill-opacity="1" /><path clip-path="url(#clip6100)" d="M 0 0 M5257.22 9152.15 Q5228.33 9152.15 5213.7 9180.67 Q5199.26 9209 5199.26 9266.04 Q5199.26 9322.89 5213.7 9351.41 Q5228.33 9379.74 5257.22 9379.74 Q5286.29 9379.74 5300.74 9351.41 Q5315.37 9322.89 5315.37 9266.04 Q5315.37 9209 5300.74 9180.67 Q5286.29 9152.15 5257.22 9152.15 M5257.22 9122.52 Q5303.7 9122.52 5328.14 9159.37 Q5352.77 9196.04 5352.77 9266.04 Q5352.77 9335.85 5328.14 9372.7 Q5303.7 9409.37 5257.22 9409.37 Q5210.74 9409.37 5186.11 9372.7 Q5161.66 9335.85 5161.66 9266.04 Q5161.66 9196.04 5186.11 9159.37 Q5210.74 9122.52 5257.22 9122.52 Z" fill="#000000" fill-rule="evenodd" fill-opacity="1" /><polyline clip-path="url(#clip6100)" style="stroke:#c271d2; stroke-width:32; stroke-opacity:1; fill:none" points="
  2895.63,9749.6 4047.63,9749.6 
  "/>
<path clip-path="url(#clip6100)" d="M 0 0 M4239.63 9611.36 L4277.04 9611.36 L4277.04 9856.36 L4411.67 9856.36 L4411.67 9887.84 L4239.63 9887.84 L4239.63 9611.36 Z" fill="#000000" fill-rule="evenodd" fill-opacity="1" /><path clip-path="url(#clip6100)" d="M 0 0 M4572.41 9715.62 L4809.81 9715.62 L4809.81 9746.73 L4572.41 9746.73 L4572.41 9715.62 M4572.41 9791.17 L4809.81 9791.17 L4809.81 9822.65 L4572.41 9822.65 L4572.41 9791.17 Z" fill="#000000" fill-rule="evenodd" fill-opacity="1" /><path clip-path="url(#clip6100)" d="M 0 0 M4977.41 9856.36 L5038.52 9856.36 L5038.52 9645.43 L4972.04 9658.77 L4972.04 9624.69 L5038.15 9611.36 L5075.55 9611.36 L5075.55 9856.36 L5136.66 9856.36 L5136.66 9887.84 L4977.41 9887.84 L4977.41 9856.36 Z" fill="#000000" fill-rule="evenodd" fill-opacity="1" /><path clip-path="url(#clip6100)" d="M 0 0 M5209.44 9856.36 L5340 9856.36 L5340 9887.84 L5164.44 9887.84 L5164.44 9856.36 Q5185.74 9834.32 5222.4 9797.28 Q5259.26 9760.06 5268.7 9749.32 Q5286.66 9729.14 5293.7 9715.25 Q5300.92 9701.17 5300.92 9687.65 Q5300.92 9665.62 5285.37 9651.73 Q5270 9637.84 5245.18 9637.84 Q5227.59 9637.84 5207.96 9643.95 Q5188.52 9650.06 5166.29 9662.47 L5166.29 9624.69 Q5188.89 9615.62 5208.52 9610.99 Q5228.15 9606.36 5244.44 9606.36 Q5287.4 9606.36 5312.96 9627.84 Q5338.51 9649.32 5338.51 9685.25 Q5338.51 9702.28 5332.03 9717.65 Q5325.74 9732.84 5308.89 9753.58 Q5304.26 9758.95 5279.44 9784.69 Q5254.63 9810.25 5209.44 9856.36 Z" fill="#000000" fill-rule="evenodd" fill-opacity="1" /></svg>
