<?xml version="1.0" encoding="utf-8"?>
<svg xmlns="http://www.w3.org/2000/svg" xmlns:xlink="http://www.w3.org/1999/xlink" width="4800" height="3200" viewBox="0 0 19200 12800">
<defs>
  <clipPath id="clip0400">
    <rect x="0" y="0" width="19200" height="12800"/>
  </clipPath>
</defs>
<path clip-path="url(#clip0400)" d="
M0 12800 L19200 12800 L19200 0 L0 0  Z
  " fill="#ffffff" fill-rule="evenodd" fill-opacity="1"/>
<defs>
  <clipPath id="clip0401">
    <rect x="3840" y="0" width="13441" height="12800"/>
  </clipPath>
</defs>
<path clip-path="url(#clip0400)" d="
M1692.82 11385.4 L18822 11385.4 L18822 987.777 L1692.82 987.777  Z
  " fill="#ffffff" fill-rule="evenodd" fill-opacity="1"/>
<defs>
  <clipPath id="clip0402">
    <rect x="1692" y="987" width="17130" height="10399"/>
  </clipPath>
</defs>
<polyline clip-path="url(#clip0402)" style="stroke:#000000; stroke-width:16; stroke-opacity:0.1; fill:none" points="
  2177.61,11385.4 2177.61,987.777 
  "/>
<polyline clip-path="url(#clip0402)" style="stroke:#000000; stroke-width:16; stroke-opacity:0.1; fill:none" points="
  6217.52,11385.4 6217.52,987.777 
  "/>
<polyline clip-path="url(#clip0402)" style="stroke:#000000; stroke-width:16; stroke-opacity:0.1; fill:none" points="
  10257.4,11385.4 10257.4,987.777 
  "/>
<polyline clip-path="url(#clip0402)" style="stroke:#000000; stroke-width:16; stroke-opacity:0.1; fill:none" points="
  14297.3,11385.4 14297.3,987.777 
  "/>
<polyline clip-path="url(#clip0402)" style="stroke:#000000; stroke-width:16; stroke-opacity:0.1; fill:none" points="
  18337.3,11385.4 18337.3,987.777 
  "/>
<polyline clip-path="url(#clip0402)" style="stroke:#000000; stroke-width:16; stroke-opacity:0.1; fill:none" points="
  1692.82,10979 18822,10979 
  "/>
<polyline clip-path="url(#clip0402)" style="stroke:#000000; stroke-width:16; stroke-opacity:0.1; fill:none" points="
  1692.82,8901.11 18822,8901.11 
  "/>
<polyline clip-path="url(#clip0402)" style="stroke:#000000; stroke-width:16; stroke-opacity:0.1; fill:none" points="
  1692.82,6823.18 18822,6823.18 
  "/>
<polyline clip-path="url(#clip0402)" style="stroke:#000000; stroke-width:16; stroke-opacity:0.1; fill:none" points="
  1692.82,4745.26 18822,4745.26 
  "/>
<polyline clip-path="url(#clip0402)" style="stroke:#000000; stroke-width:16; stroke-opacity:0.1; fill:none" points="
  1692.82,2667.33 18822,2667.33 
  "/>
<polyline clip-path="url(#clip0400)" style="stroke:#000000; stroke-width:32; stroke-opacity:1; fill:none" points="
  1692.82,11385.4 18822,11385.4 
  "/>
<polyline clip-path="url(#clip0400)" style="stroke:#000000; stroke-width:32; stroke-opacity:1; fill:none" points="
  1692.82,11385.4 1692.82,987.777 
  "/>
<polyline clip-path="url(#clip0400)" style="stroke:#000000; stroke-width:32; stroke-opacity:1; fill:none" points="
  2177.61,11385.4 2177.61,11260.7 
  "/>
<polyline clip-path="url(#clip0400)" style="stroke:#000000; stroke-width:32; stroke-opacity:1; fill:none" points="
  6217.52,11385.4 6217.52,11260.7 
  "/>
<polyline clip-path="url(#clip0400)" style="stroke:#000000; stroke-width:32; stroke-opacity:1; fill:none" points="
  10257.4,11385.4 10257.4,11260.7 
  "/>
<polyline clip-path="url(#clip0400)" style="stroke:#000000; stroke-width:32; stroke-opacity:1; fill:none" points="
  14297.3,11385.4 14297.3,11260.7 
  "/>
<polyline clip-path="url(#clip0400)" style="stroke:#000000; stroke-width:32; stroke-opacity:1; fill:none" points="
  18337.3,11385.4 18337.3,11260.7 
  "/>
<polyline clip-path="url(#clip0400)" style="stroke:#000000; stroke-width:32; stroke-opacity:1; fill:none" points="
  1692.82,10979 1898.37,10979 
  "/>
<polyline clip-path="url(#clip0400)" style="stroke:#000000; stroke-width:32; stroke-opacity:1; fill:none" points="
  1692.82,8901.11 1898.37,8901.11 
  "/>
<polyline clip-path="url(#clip0400)" style="stroke:#000000; stroke-width:32; stroke-opacity:1; fill:none" points="
  1692.82,6823.18 1898.37,6823.18 
  "/>
<polyline clip-path="url(#clip0400)" style="stroke:#000000; stroke-width:32; stroke-opacity:1; fill:none" points="
  1692.82,4745.26 1898.37,4745.26 
  "/>
<polyline clip-path="url(#clip0400)" style="stroke:#000000; stroke-width:32; stroke-opacity:1; fill:none" points="
  1692.82,2667.33 1898.37,2667.33 
  "/>
<path clip-path="url(#clip0400)" d="M 0 0 M2032.33 11561.4 Q2003.44 11561.4 1988.81 11589.9 Q1974.37 11618.2 1974.37 11675.3 Q1974.37 11732.1 1988.81 11760.6 Q2003.44 11789 2032.33 11789 Q2061.41 11789 2075.85 11760.6 Q2090.48 11732.1 2090.48 11675.3 Q2090.48 11618.2 2075.85 11589.9 Q2061.41 11561.4 2032.33 11561.4 M2032.33 11531.7 Q2078.81 11531.7 2103.26 11568.6 Q2127.89 11605.3 2127.89 11675.3 Q2127.89 11745.1 2103.26 11781.9 Q2078.81 11818.6 2032.33 11818.6 Q1985.85 11818.6 1961.22 11781.9 Q1936.78 11745.1 1936.78 11675.3 Q1936.78 11605.3 1961.22 11568.6 Q1985.85 11531.7 2032.33 11531.7 Z" fill="#000000" fill-rule="evenodd" fill-opacity="1" /><path clip-path="url(#clip0400)" d="M 0 0 M2168.44 11766.2 L2207.52 11766.2 L2207.52 11813.2 L2168.44 11813.2 L2168.44 11766.2 Z" fill="#000000" fill-rule="evenodd" fill-opacity="1" /><path clip-path="url(#clip0400)" d="M 0 0 M2361.4 11664.1 Q2388.26 11669.9 2403.26 11688 Q2418.44 11706.2 2418.44 11732.8 Q2418.44 11773.8 2390.29 11796.2 Q2362.14 11818.6 2310.29 11818.6 Q2292.89 11818.6 2274.37 11815.1 Q2256.03 11811.7 2236.4 11804.9 L2236.4 11768.8 Q2251.96 11777.8 2270.48 11782.5 Q2289 11787.1 2309.18 11787.1 Q2344.37 11787.1 2362.7 11773.2 Q2381.22 11759.3 2381.22 11732.8 Q2381.22 11708.4 2364 11694.7 Q2346.96 11680.8 2316.4 11680.8 L2284.18 11680.8 L2284.18 11650.1 L2317.89 11650.1 Q2345.48 11650.1 2360.11 11639.1 Q2374.74 11628 2374.74 11607.3 Q2374.74 11586 2359.55 11574.7 Q2344.55 11563.2 2316.4 11563.2 Q2301.03 11563.2 2283.44 11566.5 Q2265.85 11569.9 2244.74 11576.9 L2244.74 11543.6 Q2266.03 11537.7 2284.55 11534.7 Q2303.26 11531.7 2319.74 11531.7 Q2362.33 11531.7 2387.14 11551.2 Q2411.96 11570.4 2411.96 11603.4 Q2411.96 11626.4 2398.81 11642.3 Q2385.66 11658 2361.4 11664.1 Z" fill="#000000" fill-rule="evenodd" fill-opacity="1" /><path clip-path="url(#clip0400)" d="M 0 0 M6067.71 11561.4 Q6038.82 11561.4 6024.19 11589.9 Q6009.74 11618.2 6009.74 11675.3 Q6009.74 11732.1 6024.19 11760.6 Q6038.82 11789 6067.71 11789 Q6096.78 11789 6111.23 11760.6 Q6125.85 11732.1 6125.85 11675.3 Q6125.85 11618.2 6111.23 11589.9 Q6096.78 11561.4 6067.71 11561.4 M6067.71 11531.7 Q6114.19 11531.7 6138.63 11568.6 Q6163.26 11605.3 6163.26 11675.3 Q6163.26 11745.1 6138.63 11781.9 Q6114.19 11818.6 6067.71 11818.6 Q6021.23 11818.6 5996.6 11781.9 Q5972.15 11745.1 5972.15 11675.3 Q5972.15 11605.3 5996.6 11568.6 Q6021.23 11531.7 6067.71 11531.7 Z" fill="#000000" fill-rule="evenodd" fill-opacity="1" /><path clip-path="url(#clip0400)" d="M 0 0 M6203.82 11766.2 L6242.89 11766.2 L6242.89 11813.2 L6203.82 11813.2 L6203.82 11766.2 Z" fill="#000000" fill-rule="evenodd" fill-opacity="1" /><path clip-path="url(#clip0400)" d="M 0 0 M6386.22 11569.3 L6291.78 11716.9 L6386.22 11716.9 L6386.22 11569.3 M6376.41 11536.7 L6423.45 11536.7 L6423.45 11716.9 L6462.89 11716.9 L6462.89 11748 L6423.45 11748 L6423.45 11813.2 L6386.22 11813.2 L6386.22 11748 L6261.41 11748 L6261.41 11711.9 L6376.41 11536.7 Z" fill="#000000" fill-rule="evenodd" fill-opacity="1" /><path clip-path="url(#clip0400)" d="M 0 0 M10113.5 11561.4 Q10084.7 11561.4 10070 11589.9 Q10055.6 11618.2 10055.6 11675.3 Q10055.6 11732.1 10070 11760.6 Q10084.7 11789 10113.5 11789 Q10142.6 11789 10157.1 11760.6 Q10171.7 11732.1 10171.7 11675.3 Q10171.7 11618.2 10157.1 11589.9 Q10142.6 11561.4 10113.5 11561.4 M10113.5 11531.7 Q10160 11531.7 10184.5 11568.6 Q10209.1 11605.3 10209.1 11675.3 Q10209.1 11745.1 10184.5 11781.9 Q10160 11818.6 10113.5 11818.6 Q10067.1 11818.6 10042.4 11781.9 Q10018 11745.1 10018 11675.3 Q10018 11605.3 10042.4 11568.6 Q10067.1 11531.7 10113.5 11531.7 Z" fill="#000000" fill-rule="evenodd" fill-opacity="1" /><path clip-path="url(#clip0400)" d="M 0 0 M10249.7 11766.2 L10288.7 11766.2 L10288.7 11813.2 L10249.7 11813.2 L10249.7 11766.2 Z" fill="#000000" fill-rule="evenodd" fill-opacity="1" /><path clip-path="url(#clip0400)" d="M 0 0 M10329.7 11536.7 L10476.5 11536.7 L10476.5 11568.2 L10363.9 11568.2 L10363.9 11636 Q10372.1 11633.2 10380.2 11631.9 Q10388.4 11630.4 10396.5 11630.4 Q10442.8 11630.4 10469.8 11655.8 Q10496.9 11681.2 10496.9 11724.5 Q10496.9 11769.1 10469.1 11794 Q10441.3 11818.6 10390.8 11818.6 Q10373.4 11818.6 10355.2 11815.6 Q10337.2 11812.7 10318 11806.7 L10318 11769.1 Q10334.7 11778.2 10352.4 11782.7 Q10370.2 11787.1 10390 11787.1 Q10422.1 11787.1 10440.8 11770.3 Q10459.5 11753.4 10459.5 11724.5 Q10459.5 11695.6 10440.8 11678.8 Q10422.1 11661.9 10390 11661.9 Q10375 11661.9 10360 11665.3 Q10345.2 11668.6 10329.7 11675.6 L10329.7 11536.7 Z" fill="#000000" fill-rule="evenodd" fill-opacity="1" /><path clip-path="url(#clip0400)" d="M 0 0 M14148.8 11561.4 Q14119.9 11561.4 14105.3 11589.9 Q14090.9 11618.2 14090.9 11675.3 Q14090.9 11732.1 14105.3 11760.6 Q14119.9 11789 14148.8 11789 Q14177.9 11789 14192.3 11760.6 Q14207 11732.1 14207 11675.3 Q14207 11618.2 14192.3 11589.9 Q14177.9 11561.4 14148.8 11561.4 M14148.8 11531.7 Q14195.3 11531.7 14219.8 11568.6 Q14244.4 11605.3 14244.4 11675.3 Q14244.4 11745.1 14219.8 11781.9 Q14195.3 11818.6 14148.8 11818.6 Q14102.3 11818.6 14077.7 11781.9 Q14053.3 11745.1 14053.3 11675.3 Q14053.3 11605.3 14077.7 11568.6 Q14102.3 11531.7 14148.8 11531.7 Z" fill="#000000" fill-rule="evenodd" fill-opacity="1" /><path clip-path="url(#clip0400)" d="M 0 0 M14284.9 11766.2 L14324 11766.2 L14324 11813.2 L14284.9 11813.2 L14284.9 11766.2 Z" fill="#000000" fill-rule="evenodd" fill-opacity="1" /><path clip-path="url(#clip0400)" d="M 0 0 M14449.2 11660.1 Q14424 11660.1 14409.2 11677.3 Q14394.6 11694.5 14394.6 11724.5 Q14394.6 11754.3 14409.2 11771.7 Q14424 11789 14449.2 11789 Q14474.4 11789 14489 11771.7 Q14503.8 11754.3 14503.8 11724.5 Q14503.8 11694.5 14489 11677.3 Q14474.4 11660.1 14449.2 11660.1 M14523.5 11542.8 L14523.5 11576.9 Q14509.4 11570.3 14494.9 11566.7 Q14480.7 11563.2 14466.6 11563.2 Q14429.6 11563.2 14409.9 11588.2 Q14390.5 11613.2 14387.7 11663.8 Q14398.6 11647.7 14415.1 11639.1 Q14431.6 11630.4 14451.4 11630.4 Q14493.1 11630.4 14517.2 11655.8 Q14541.4 11681 14541.4 11724.5 Q14541.4 11767.1 14516.2 11792.8 Q14491 11818.6 14449.2 11818.6 Q14401.2 11818.6 14375.9 11781.9 Q14350.5 11745.1 14350.5 11675.3 Q14350.5 11609.7 14381.6 11570.8 Q14412.7 11531.7 14465.1 11531.7 Q14479.2 11531.7 14493.5 11534.5 Q14507.9 11537.3 14523.5 11542.8 Z" fill="#000000" fill-rule="evenodd" fill-opacity="1" /><path clip-path="url(#clip0400)" d="M 0 0 M18193 11561.4 Q18164.1 11561.4 18149.5 11589.9 Q18135 11618.2 18135 11675.3 Q18135 11732.1 18149.5 11760.6 Q18164.1 11789 18193 11789 Q18222.1 11789 18236.5 11760.6 Q18251.1 11732.1 18251.1 11675.3 Q18251.1 11618.2 18236.5 11589.9 Q18222.1 11561.4 18193 11561.4 M18193 11531.7 Q18239.5 11531.7 18263.9 11568.6 Q18288.6 11605.3 18288.6 11675.3 Q18288.6 11745.1 18263.9 11781.9 Q18239.5 11818.6 18193 11818.6 Q18146.5 11818.6 18121.9 11781.9 Q18097.4 11745.1 18097.4 11675.3 Q18097.4 11605.3 18121.9 11568.6 Q18146.5 11531.7 18193 11531.7 Z" fill="#000000" fill-rule="evenodd" fill-opacity="1" /><path clip-path="url(#clip0400)" d="M 0 0 M18329.1 11766.2 L18368.2 11766.2 L18368.2 11813.2 L18329.1 11813.2 L18329.1 11766.2 Z" fill="#000000" fill-rule="evenodd" fill-opacity="1" /><path clip-path="url(#clip0400)" d="M 0 0 M18399.3 11536.7 L18577.1 11536.7 L18577.1 11552.7 L18476.7 11813.2 L18437.6 11813.2 L18532.1 11568.2 L18399.3 11568.2 L18399.3 11536.7 Z" fill="#000000" fill-rule="evenodd" fill-opacity="1" /><path clip-path="url(#clip0400)" d="M 0 0 M1122.3 10865.4 Q1093.41 10865.4 1078.78 10893.9 Q1064.34 10922.3 1064.34 10979.3 Q1064.34 11036.2 1078.78 11064.7 Q1093.41 11093 1122.3 11093 Q1151.38 11093 1165.82 11064.7 Q1180.45 11036.2 1180.45 10979.3 Q1180.45 10922.3 1165.82 10893.9 Q1151.38 10865.4 1122.3 10865.4 M1122.3 10835.8 Q1168.78 10835.8 1193.23 10872.6 Q1217.86 10909.3 1217.86 10979.3 Q1217.86 11049.1 1193.23 11086 Q1168.78 11122.6 1122.3 11122.6 Q1075.82 11122.6 1051.19 11086 Q1026.75 11049.1 1026.75 10979.3 Q1026.75 10909.3 1051.19 10872.6 Q1075.82 10835.8 1122.3 10835.8 Z" fill="#000000" fill-rule="evenodd" fill-opacity="1" /><path clip-path="url(#clip0400)" d="M 0 0 M1258.41 11070.2 L1297.49 11070.2 L1297.49 11117.3 L1258.41 11117.3 L1258.41 11070.2 Z" fill="#000000" fill-rule="evenodd" fill-opacity="1" /><path clip-path="url(#clip0400)" d="M 0 0 M1370.26 11085.8 L1500.82 11085.8 L1500.82 11117.3 L1325.26 11117.3 L1325.26 11085.8 Q1346.56 11063.8 1383.23 11026.7 Q1420.08 10989.5 1429.52 10978.8 Q1447.49 10958.6 1454.52 10944.7 Q1461.75 10930.6 1461.75 10917.1 Q1461.75 10895.1 1446.19 10881.2 Q1430.82 10867.3 1406.01 10867.3 Q1388.41 10867.3 1368.78 10873.4 Q1349.34 10879.5 1327.12 10891.9 L1327.12 10854.1 Q1349.71 10845.1 1369.34 10840.4 Q1388.97 10835.8 1405.26 10835.8 Q1448.23 10835.8 1473.78 10857.3 Q1499.34 10878.8 1499.34 10914.7 Q1499.34 10931.7 1492.86 10947.1 Q1486.56 10962.3 1469.71 10983 Q1465.08 10988.4 1440.26 11014.1 Q1415.45 11039.7 1370.26 11085.8 Z" fill="#000000" fill-rule="evenodd" fill-opacity="1" /><path clip-path="url(#clip0400)" d="M 0 0 M1114.71 8787.5 Q1085.82 8787.5 1071.19 8816.02 Q1056.75 8844.35 1056.75 8901.39 Q1056.75 8958.24 1071.19 8986.76 Q1085.82 9015.09 1114.71 9015.09 Q1143.78 9015.09 1158.23 8986.76 Q1172.86 8958.24 1172.86 8901.39 Q1172.86 8844.35 1158.23 8816.02 Q1143.78 8787.5 1114.71 8787.5 M1114.71 8757.87 Q1161.19 8757.87 1185.64 8794.72 Q1210.27 8831.39 1210.27 8901.39 Q1210.27 8971.2 1185.64 9008.05 Q1161.19 9044.72 1114.71 9044.72 Q1068.23 9044.72 1043.6 9008.05 Q1019.16 8971.2 1019.16 8901.39 Q1019.16 8831.39 1043.6 8794.72 Q1068.23 8757.87 1114.71 8757.87 Z" fill="#000000" fill-rule="evenodd" fill-opacity="1" /><path clip-path="url(#clip0400)" d="M 0 0 M1250.82 8992.31 L1289.89 8992.31 L1289.89 9039.35 L1250.82 9039.35 L1250.82 8992.31 Z" fill="#000000" fill-rule="evenodd" fill-opacity="1" /><path clip-path="url(#clip0400)" d="M 0 0 M1443.78 8890.28 Q1470.63 8896.02 1485.63 8914.17 Q1500.82 8932.31 1500.82 8958.98 Q1500.82 8999.91 1472.67 9022.31 Q1444.52 9044.72 1392.67 9044.72 Q1375.26 9044.72 1356.75 9041.2 Q1338.41 9037.87 1318.78 9031.02 L1318.78 8994.91 Q1334.34 9003.98 1352.86 9008.61 Q1371.38 9013.24 1391.56 9013.24 Q1426.75 9013.24 1445.08 8999.35 Q1463.6 8985.46 1463.6 8958.98 Q1463.6 8934.54 1446.38 8920.83 Q1429.34 8906.94 1398.78 8906.94 L1366.56 8906.94 L1366.56 8876.2 L1400.26 8876.2 Q1427.86 8876.2 1442.49 8865.28 Q1457.12 8854.17 1457.12 8833.43 Q1457.12 8812.13 1441.93 8800.83 Q1426.93 8789.35 1398.78 8789.35 Q1383.41 8789.35 1365.82 8792.68 Q1348.23 8796.02 1327.12 8803.06 L1327.12 8769.72 Q1348.41 8763.8 1366.93 8760.83 Q1385.63 8757.87 1402.12 8757.87 Q1444.71 8757.87 1469.52 8777.31 Q1494.34 8796.57 1494.34 8829.54 Q1494.34 8852.5 1481.19 8868.43 Q1468.04 8884.17 1443.78 8890.28 Z" fill="#000000" fill-rule="evenodd" fill-opacity="1" /><path clip-path="url(#clip0400)" d="M 0 0 M1105.64 6709.57 Q1076.75 6709.57 1062.12 6738.09 Q1047.67 6766.43 1047.67 6823.46 Q1047.67 6880.31 1062.12 6908.83 Q1076.75 6937.17 1105.64 6937.17 Q1134.71 6937.17 1149.15 6908.83 Q1163.78 6880.31 1163.78 6823.46 Q1163.78 6766.43 1149.15 6738.09 Q1134.71 6709.57 1105.64 6709.57 M1105.64 6679.94 Q1152.12 6679.94 1176.56 6716.8 Q1201.19 6753.46 1201.19 6823.46 Q1201.19 6893.28 1176.56 6930.13 Q1152.12 6966.79 1105.64 6966.79 Q1059.16 6966.79 1034.53 6930.13 Q1010.08 6893.28 1010.08 6823.46 Q1010.08 6753.46 1034.53 6716.8 Q1059.16 6679.94 1105.64 6679.94 Z" fill="#000000" fill-rule="evenodd" fill-opacity="1" /><path clip-path="url(#clip0400)" d="M 0 0 M1241.75 6914.39 L1280.82 6914.39 L1280.82 6961.42 L1241.75 6961.42 L1241.75 6914.39 Z" fill="#000000" fill-rule="evenodd" fill-opacity="1" /><path clip-path="url(#clip0400)" d="M 0 0 M1424.15 6717.54 L1329.71 6865.13 L1424.15 6865.13 L1424.15 6717.54 M1414.34 6684.94 L1461.38 6684.94 L1461.38 6865.13 L1500.82 6865.13 L1500.82 6896.24 L1461.38 6896.24 L1461.38 6961.42 L1424.15 6961.42 L1424.15 6896.24 L1299.34 6896.24 L1299.34 6860.13 L1414.34 6684.94 Z" fill="#000000" fill-rule="evenodd" fill-opacity="1" /><path clip-path="url(#clip0400)" d="M 0 0 M1117.49 4631.65 Q1088.6 4631.65 1073.97 4660.17 Q1059.53 4688.5 1059.53 4745.54 Q1059.53 4802.39 1073.97 4830.91 Q1088.6 4859.24 1117.49 4859.24 Q1146.56 4859.24 1161.01 4830.91 Q1175.64 4802.39 1175.64 4745.54 Q1175.64 4688.5 1161.01 4660.17 Q1146.56 4631.65 1117.49 4631.65 M1117.49 4602.02 Q1163.97 4602.02 1188.41 4638.87 Q1213.04 4675.54 1213.04 4745.54 Q1213.04 4815.35 1188.41 4852.2 Q1163.97 4888.87 1117.49 4888.87 Q1071.01 4888.87 1046.38 4852.2 Q1021.93 4815.35 1021.93 4745.54 Q1021.93 4675.54 1046.38 4638.87 Q1071.01 4602.02 1117.49 4602.02 Z" fill="#000000" fill-rule="evenodd" fill-opacity="1" /><path clip-path="url(#clip0400)" d="M 0 0 M1253.6 4836.46 L1292.67 4836.46 L1292.67 4883.5 L1253.6 4883.5 L1253.6 4836.46 Z" fill="#000000" fill-rule="evenodd" fill-opacity="1" /><path clip-path="url(#clip0400)" d="M 0 0 M1333.6 4607.02 L1480.45 4607.02 L1480.45 4638.5 L1367.86 4638.5 L1367.86 4706.28 Q1376.01 4703.5 1384.15 4702.2 Q1392.3 4700.72 1400.45 4700.72 Q1446.75 4700.72 1473.78 4726.09 Q1500.82 4751.46 1500.82 4794.8 Q1500.82 4839.43 1473.04 4864.24 Q1445.26 4888.87 1394.71 4888.87 Q1377.3 4888.87 1359.15 4885.91 Q1341.19 4882.94 1321.93 4877.02 L1321.93 4839.43 Q1338.6 4848.5 1356.38 4852.94 Q1374.15 4857.39 1393.97 4857.39 Q1426 4857.39 1444.71 4840.54 Q1463.41 4823.68 1463.41 4794.8 Q1463.41 4765.91 1444.71 4749.06 Q1426 4732.2 1393.97 4732.2 Q1378.97 4732.2 1363.97 4735.54 Q1349.15 4738.87 1333.6 4745.91 L1333.6 4607.02 Z" fill="#000000" fill-rule="evenodd" fill-opacity="1" /><path clip-path="url(#clip0400)" d="M 0 0 M1108.23 2553.72 Q1079.34 2553.72 1064.71 2582.24 Q1050.27 2610.57 1050.27 2667.61 Q1050.27 2724.46 1064.71 2752.98 Q1079.34 2781.31 1108.23 2781.31 Q1137.3 2781.31 1151.75 2752.98 Q1166.38 2724.46 1166.38 2667.61 Q1166.38 2610.57 1151.75 2582.24 Q1137.3 2553.72 1108.23 2553.72 M1108.23 2524.09 Q1154.71 2524.09 1179.15 2560.95 Q1203.78 2597.61 1203.78 2667.61 Q1203.78 2737.43 1179.15 2774.28 Q1154.71 2810.94 1108.23 2810.94 Q1061.75 2810.94 1037.12 2774.28 Q1012.67 2737.43 1012.67 2667.61 Q1012.67 2597.61 1037.12 2560.95 Q1061.75 2524.09 1108.23 2524.09 Z" fill="#000000" fill-rule="evenodd" fill-opacity="1" /><path clip-path="url(#clip0400)" d="M 0 0 M1244.34 2758.54 L1283.41 2758.54 L1283.41 2805.57 L1244.34 2805.57 L1244.34 2758.54 Z" fill="#000000" fill-rule="evenodd" fill-opacity="1" /><path clip-path="url(#clip0400)" d="M 0 0 M1408.6 2652.43 Q1383.41 2652.43 1368.6 2669.65 Q1353.97 2686.87 1353.97 2716.87 Q1353.97 2746.69 1368.6 2764.09 Q1383.41 2781.31 1408.6 2781.31 Q1433.78 2781.31 1448.41 2764.09 Q1463.23 2746.69 1463.23 2716.87 Q1463.23 2686.87 1448.41 2669.65 Q1433.78 2652.43 1408.6 2652.43 M1482.86 2535.2 L1482.86 2569.28 Q1468.78 2562.61 1454.34 2559.09 Q1440.08 2555.57 1426 2555.57 Q1388.97 2555.57 1369.34 2580.57 Q1349.89 2605.57 1347.12 2656.13 Q1358.04 2640.02 1374.52 2631.5 Q1391.01 2622.8 1410.82 2622.8 Q1452.49 2622.8 1476.56 2648.17 Q1500.82 2673.35 1500.82 2716.87 Q1500.82 2759.46 1475.63 2785.2 Q1450.45 2810.94 1408.6 2810.94 Q1360.63 2810.94 1335.26 2774.28 Q1309.89 2737.43 1309.89 2667.61 Q1309.89 2602.06 1341.01 2563.17 Q1372.12 2524.09 1424.52 2524.09 Q1438.6 2524.09 1452.86 2526.87 Q1467.3 2529.65 1482.86 2535.2 Z" fill="#000000" fill-rule="evenodd" fill-opacity="1" /><path clip-path="url(#clip0400)" d="M 0 0 M4927.25 228.341 L4927.25 284.73 Q4901.98 271.767 4874.75 265.286 Q4847.53 258.804 4818.37 258.804 Q4773.97 258.804 4751.61 272.415 Q4729.57 286.026 4729.57 313.248 Q4729.57 333.989 4745.45 345.98 Q4761.33 357.646 4809.29 368.341 L4829.71 372.878 Q4893.23 386.489 4919.8 411.442 Q4946.7 436.072 4946.7 480.47 Q4946.7 531.025 4906.51 560.516 Q4866.65 590.006 4796.65 590.006 Q4767.49 590.006 4735.73 584.173 Q4704.29 578.664 4669.29 567.321 L4669.29 505.747 Q4702.35 522.923 4734.43 531.673 Q4766.51 540.099 4797.95 540.099 Q4840.08 540.099 4862.76 525.84 Q4885.45 511.257 4885.45 485.007 Q4885.45 460.701 4868.92 447.738 Q4852.72 434.775 4797.3 422.785 L4776.56 417.924 Q4721.14 406.257 4696.51 382.276 Q4671.88 357.97 4671.88 315.841 Q4671.88 264.637 4708.18 236.767 Q4744.48 208.897 4811.24 208.897 Q4844.29 208.897 4873.46 213.758 Q4902.62 218.619 4927.25 228.341 Z" fill="#000000" fill-rule="evenodd" fill-opacity="1" /><path clip-path="url(#clip0400)" d="M 0 0 M5009.24 217.647 L5068.87 217.647 L5068.87 580.608 L5009.24 580.608 L5009.24 217.647 M5009.24 76.3514 L5068.87 76.3514 L5068.87 151.86 L5009.24 151.86 L5009.24 76.3514 Z" fill="#000000" fill-rule="evenodd" fill-opacity="1" /><path clip-path="url(#clip0400)" d="M 0 0 M5105.49 217.647 L5388.73 217.647 L5388.73 272.091 L5164.47 532.969 L5388.73 532.969 L5388.73 580.608 L5097.39 580.608 L5097.39 526.164 L5321.65 265.286 L5105.49 265.286 L5105.49 217.647 Z" fill="#000000" fill-rule="evenodd" fill-opacity="1" /><path clip-path="url(#clip0400)" d="M 0 0 M5761.74 384.22 L5761.74 413.387 L5487.57 413.387 Q5491.46 474.96 5524.52 507.368 Q5557.9 539.451 5617.2 539.451 Q5651.56 539.451 5683.64 531.025 Q5716.05 522.599 5747.8 505.747 L5747.8 562.136 Q5715.72 575.747 5682.02 582.877 Q5648.31 590.006 5613.64 590.006 Q5526.79 590.006 5475.91 539.451 Q5425.35 488.896 5425.35 402.692 Q5425.35 313.572 5473.32 261.397 Q5521.6 208.897 5603.27 208.897 Q5676.51 208.897 5718.96 256.212 Q5761.74 303.202 5761.74 384.22 M5702.11 366.72 Q5701.46 317.785 5674.56 288.619 Q5647.99 259.452 5603.92 259.452 Q5554.01 259.452 5523.87 287.647 Q5494.06 315.841 5489.52 367.044 L5702.11 366.72 Z" fill="#000000" fill-rule="evenodd" fill-opacity="1" /><path clip-path="url(#clip0400)" d="M 0 0 M5839.52 498.294 L5907.9 498.294 L5907.9 580.608 L5839.52 580.608 L5839.52 498.294 M5839.52 237.415 L5907.9 237.415 L5907.9 319.73 L5839.52 319.73 L5839.52 237.415 Z" fill="#000000" fill-rule="evenodd" fill-opacity="1" /><path clip-path="url(#clip0400)" d="M 0 0 M6126.97 312.6 Q6082.9 312.6 6056.97 342.739 Q6031.37 372.878 6031.37 425.377 Q6031.37 477.553 6056.97 508.016 Q6082.9 538.155 6126.97 538.155 Q6171.04 538.155 6196.64 508.016 Q6222.57 477.553 6222.57 425.377 Q6222.57 372.878 6196.64 342.739 Q6171.04 312.6 6126.97 312.6 M6256.92 107.462 L6256.92 167.092 Q6232.29 155.425 6207.02 149.268 Q6182.06 143.11 6157.43 143.11 Q6092.62 143.11 6058.27 186.86 Q6024.24 230.61 6019.38 319.082 Q6038.5 290.887 6067.34 275.98 Q6096.18 260.749 6130.86 260.749 Q6203.77 260.749 6245.9 305.147 Q6288.36 349.22 6288.36 425.377 Q6288.36 499.914 6244.28 544.96 Q6200.21 590.006 6126.97 590.006 Q6043.03 590.006 5998.64 525.84 Q5954.24 461.349 5954.24 339.174 Q5954.24 224.453 6008.68 156.397 Q6063.13 88.018 6154.84 88.018 Q6179.47 88.018 6204.42 92.8791 Q6229.7 97.7402 6256.92 107.462 Z" fill="#000000" fill-rule="evenodd" fill-opacity="1" /><path clip-path="url(#clip0400)" d="M 0 0 M6366.13 498.294 L6434.51 498.294 L6434.51 554.034 L6381.37 657.737 L6339.56 657.737 L6366.13 554.034 L6366.13 498.294 Z" fill="#000000" fill-rule="evenodd" fill-opacity="1" /><path clip-path="url(#clip0400)" d="M 0 0 M6645.49 350.841 Q6598.82 350.841 6571.92 375.794 Q6545.35 400.748 6545.35 444.498 Q6545.35 488.247 6571.92 513.201 Q6598.82 538.155 6645.49 538.155 Q6692.15 538.155 6719.05 513.201 Q6745.95 487.923 6745.95 444.498 Q6745.95 400.748 6719.05 375.794 Q6692.48 350.841 6645.49 350.841 M6580.02 322.97 Q6537.89 312.6 6514.24 283.758 Q6490.9 254.915 6490.9 213.434 Q6490.9 155.425 6532.06 121.722 Q6573.54 88.018 6645.49 88.018 Q6717.75 88.018 6758.91 121.722 Q6800.07 155.425 6800.07 213.434 Q6800.07 254.915 6776.41 283.758 Q6753.08 312.6 6711.27 322.97 Q6758.59 333.989 6784.84 366.072 Q6811.41 398.155 6811.41 444.498 Q6811.41 514.821 6768.31 552.414 Q6725.53 590.006 6645.49 590.006 Q6565.44 590.006 6522.34 552.414 Q6479.56 514.821 6479.56 444.498 Q6479.56 398.155 6506.13 366.072 Q6532.71 333.989 6580.02 322.97 M6556.04 219.591 Q6556.04 257.184 6579.37 278.249 Q6603.03 299.313 6645.49 299.313 Q6687.61 299.313 6711.27 278.249 Q6735.25 257.184 6735.25 219.591 Q6735.25 181.999 6711.27 160.934 Q6687.61 139.87 6645.49 139.87 Q6603.03 139.87 6579.37 160.934 Q6556.04 181.999 6556.04 219.591 Z" fill="#000000" fill-rule="evenodd" fill-opacity="1" /><path clip-path="url(#clip0400)" d="M 0 0 M6889.19 498.294 L6957.57 498.294 L6957.57 554.034 L6904.42 657.737 L6862.61 657.737 L6889.19 554.034 L6889.19 498.294 Z" fill="#000000" fill-rule="evenodd" fill-opacity="1" /><path clip-path="url(#clip0400)" d="M 0 0 M7039.88 525.516 L7146.82 525.516 L7146.82 156.397 L7030.48 179.731 L7030.48 120.101 L7146.18 96.768 L7211.64 96.768 L7211.64 525.516 L7318.58 525.516 L7318.58 580.608 L7039.88 580.608 L7039.88 525.516 Z" fill="#000000" fill-rule="evenodd" fill-opacity="1" /><path clip-path="url(#clip0400)" d="M 0 0 M7529.55 139.87 Q7479 139.87 7453.4 189.777 Q7428.12 239.36 7428.12 339.174 Q7428.12 438.664 7453.4 488.571 Q7479 538.155 7529.55 538.155 Q7580.43 538.155 7605.71 488.571 Q7631.31 438.664 7631.31 339.174 Q7631.31 239.36 7605.71 189.777 Q7580.43 139.87 7529.55 139.87 M7529.55 88.018 Q7610.9 88.018 7653.67 152.508 Q7696.78 216.675 7696.78 339.174 Q7696.78 461.349 7653.67 525.84 Q7610.9 590.006 7529.55 590.006 Q7448.21 590.006 7405.11 525.84 Q7362.33 461.349 7362.33 339.174 Q7362.33 216.675 7405.11 152.508 Q7448.21 88.018 7529.55 88.018 Z" fill="#000000" fill-rule="evenodd" fill-opacity="1" /><path clip-path="url(#clip0400)" d="M 0 0 M7774.55 498.294 L7842.93 498.294 L7842.93 554.034 L7789.78 657.737 L7747.98 657.737 L7774.55 554.034 L7774.55 498.294 Z" fill="#000000" fill-rule="evenodd" fill-opacity="1" /><path clip-path="url(#clip0400)" d="M 0 0 M7925.25 525.516 L8032.19 525.516 L8032.19 156.397 L7915.85 179.731 L7915.85 120.101 L8031.54 96.768 L8097.01 96.768 L8097.01 525.516 L8203.95 525.516 L8203.95 580.608 L7925.25 580.608 L7925.25 525.516 Z" fill="#000000" fill-rule="evenodd" fill-opacity="1" /><path clip-path="url(#clip0400)" d="M 0 0 M8331.31 525.516 L8559.78 525.516 L8559.78 580.608 L8252.56 580.608 L8252.56 525.516 Q8289.83 486.951 8353.99 422.137 Q8418.48 356.998 8435.01 338.202 Q8466.45 302.878 8478.76 278.573 Q8491.4 253.943 8491.4 230.286 Q8491.4 191.721 8464.18 167.416 Q8437.28 143.11 8393.86 143.11 Q8363.07 143.11 8328.72 153.805 Q8294.69 164.499 8255.8 186.212 L8255.8 120.101 Q8295.34 104.222 8329.69 96.1199 Q8364.04 88.018 8392.56 88.018 Q8467.74 88.018 8512.47 125.61 Q8557.19 163.203 8557.19 226.073 Q8557.19 255.888 8545.85 282.786 Q8534.83 309.359 8505.34 345.656 Q8497.23 355.054 8453.81 400.1 Q8410.38 444.822 8331.31 525.516 Z" fill="#000000" fill-rule="evenodd" fill-opacity="1" /><path clip-path="url(#clip0400)" d="M 0 0 M8637.56 498.294 L8705.94 498.294 L8705.94 554.034 L8652.79 657.737 L8610.98 657.737 L8637.56 554.034 L8637.56 498.294 Z" fill="#000000" fill-rule="evenodd" fill-opacity="1" /><path clip-path="url(#clip0400)" d="M 0 0 M8788.25 525.516 L8895.2 525.516 L8895.2 156.397 L8778.85 179.731 L8778.85 120.101 L8894.55 96.768 L8960.01 96.768 L8960.01 525.516 L9066.95 525.516 L9066.95 580.608 L8788.25 580.608 L8788.25 525.516 Z" fill="#000000" fill-rule="evenodd" fill-opacity="1" /><path clip-path="url(#clip0400)" d="M 0 0 M9317.79 153.805 L9152.51 412.09 L9317.79 412.09 L9317.79 153.805 M9300.61 96.768 L9382.92 96.768 L9382.92 412.09 L9451.95 412.09 L9451.95 466.535 L9382.92 466.535 L9382.92 580.608 L9317.79 580.608 L9317.79 466.535 L9099.36 466.535 L9099.36 403.34 L9300.61 96.768 Z" fill="#000000" fill-rule="evenodd" fill-opacity="1" /><path clip-path="url(#clip0400)" d="M 0 0 M9529.73 498.294 L9598.11 498.294 L9598.11 554.034 L9544.96 657.737 L9503.15 657.737 L9529.73 554.034 L9529.73 498.294 Z" fill="#000000" fill-rule="evenodd" fill-opacity="1" /><path clip-path="url(#clip0400)" d="M 0 0 M9680.42 525.516 L9787.37 525.516 L9787.37 156.397 L9671.02 179.731 L9671.02 120.101 L9786.72 96.768 L9852.18 96.768 L9852.18 525.516 L9959.12 525.516 L9959.12 580.608 L9680.42 580.608 L9680.42 525.516 Z" fill="#000000" fill-rule="evenodd" fill-opacity="1" /><path clip-path="url(#clip0400)" d="M 0 0 M10178.2 312.6 Q10134.1 312.6 10108.2 342.739 Q10082.6 372.878 10082.6 425.377 Q10082.6 477.553 10108.2 508.016 Q10134.1 538.155 10178.2 538.155 Q10222.3 538.155 10247.9 508.016 Q10273.8 477.553 10273.8 425.377 Q10273.8 372.878 10247.9 342.739 Q10222.3 312.6 10178.2 312.6 M10308.2 107.462 L10308.2 167.092 Q10283.5 155.425 10258.2 149.268 Q10233.3 143.11 10208.7 143.11 Q10143.8 143.11 10109.5 186.86 Q10075.5 230.61 10070.6 319.082 Q10089.7 290.887 10118.6 275.98 Q10147.4 260.749 10182.1 260.749 Q10255 260.749 10297.1 305.147 Q10339.6 349.22 10339.6 425.377 Q10339.6 499.914 10295.5 544.96 Q10251.4 590.006 10178.2 590.006 Q10094.3 590.006 10049.9 525.84 Q10005.5 461.349 10005.5 339.174 Q10005.5 224.453 10059.9 156.397 Q10114.4 88.018 10206.1 88.018 Q10230.7 88.018 10255.7 92.8791 Q10280.9 97.7402 10308.2 107.462 Z" fill="#000000" fill-rule="evenodd" fill-opacity="1" /><path clip-path="url(#clip0400)" d="M 0 0 M10417.4 237.415 L10485.7 237.415 L10485.7 319.73 L10417.4 319.73 L10417.4 237.415 M10417.4 498.294 L10485.7 498.294 L10485.7 554.034 L10432.6 657.737 L10390.8 657.737 L10417.4 554.034 L10417.4 498.294 Z" fill="#000000" fill-rule="evenodd" fill-opacity="1" /><path clip-path="url(#clip0400)" d="M 0 0 M10958.2 141.166 Q10886.9 141.166 10844.8 194.314 Q10803 247.462 10803 339.174 Q10803 430.563 10844.8 483.71 Q10886.9 536.858 10958.2 536.858 Q11029.5 536.858 11071 483.71 Q11112.8 430.563 11112.8 339.174 Q11112.8 247.462 11071 194.314 Q11029.5 141.166 10958.2 141.166 M11050 571.858 L11136.2 666.163 L11057.1 666.163 L10985.5 588.71 Q10974.8 589.358 10968.9 589.682 Q10963.4 590.006 10958.2 590.006 Q10856.2 590.006 10794.9 521.951 Q10734 453.572 10734 339.174 Q10734 224.453 10794.9 156.397 Q10856.2 88.018 10958.2 88.018 Q11060 88.018 11120.9 156.397 Q11181.8 224.453 11181.8 339.174 Q11181.8 423.433 11147.8 483.386 Q11114.1 543.34 11050 571.858 Z" fill="#000000" fill-rule="evenodd" fill-opacity="1" /><path clip-path="url(#clip0400)" d="M 0 0 M11463.1 279.221 L11878.6 279.221 L11878.6 333.665 L11463.1 333.665 L11463.1 279.221 M11463.1 411.442 L11878.6 411.442 L11878.6 466.535 L11463.1 466.535 L11463.1 411.442 Z" fill="#000000" fill-rule="evenodd" fill-opacity="1" /><path clip-path="url(#clip0400)" d="M 0 0 M12171.9 525.516 L12278.8 525.516 L12278.8 156.397 L12162.5 179.731 L12162.5 120.101 L12278.2 96.768 L12343.6 96.768 L12343.6 525.516 L12450.6 525.516 L12450.6 580.608 L12171.9 580.608 L12171.9 525.516 Z" fill="#000000" fill-rule="evenodd" fill-opacity="1" /><path clip-path="url(#clip0400)" d="M 0 0 M12669.7 312.6 Q12625.6 312.6 12599.7 342.739 Q12574.1 372.878 12574.1 425.377 Q12574.1 477.553 12599.7 508.016 Q12625.6 538.155 12669.7 538.155 Q12713.7 538.155 12739.3 508.016 Q12765.3 477.553 12765.3 425.377 Q12765.3 372.878 12739.3 342.739 Q12713.7 312.6 12669.7 312.6 M12799.6 107.462 L12799.6 167.092 Q12775 155.425 12749.7 149.268 Q12724.8 143.11 12700.1 143.11 Q12635.3 143.11 12601 186.86 Q12566.9 230.61 12562.1 319.082 Q12581.2 290.887 12610 275.98 Q12638.9 260.749 12673.6 260.749 Q12746.5 260.749 12788.6 305.147 Q12831.1 349.22 12831.1 425.377 Q12831.1 499.914 12787 544.96 Q12742.9 590.006 12669.7 590.006 Q12585.7 590.006 12541.3 525.84 Q12496.9 461.349 12496.9 339.174 Q12496.9 224.453 12551.4 156.397 Q12605.8 88.018 12697.5 88.018 Q12722.2 88.018 12747.1 92.8791 Q12772.4 97.7402 12799.6 107.462 Z" fill="#000000" fill-rule="evenodd" fill-opacity="1" /><path clip-path="url(#clip0400)" d="M 0 0 M12908.8 237.415 L12977.2 237.415 L12977.2 319.73 L12908.8 319.73 L12908.8 237.415 M12908.8 498.294 L12977.2 498.294 L12977.2 554.034 L12924.1 657.737 L12882.3 657.737 L12908.8 554.034 L12908.8 498.294 Z" fill="#000000" fill-rule="evenodd" fill-opacity="1" /><path clip-path="url(#clip0400)" d="M 0 0 M13253.3 96.768 L13318.8 96.768 L13318.8 546.904 Q13318.8 634.404 13285.4 673.941 Q13252.3 713.478 13178.8 713.478 L13153.8 713.478 L13153.8 658.385 L13174.2 658.385 Q13217.7 658.385 13235.5 634.08 Q13253.3 609.775 13253.3 546.904 L13253.3 96.768 Z" fill="#000000" fill-rule="evenodd" fill-opacity="1" /><path clip-path="url(#clip0400)" d="M 0 0 M13657.1 690.793 L13657.1 737.135 L13312.3 737.135 L13312.3 690.793 L13657.1 690.793 Z" fill="#000000" fill-rule="evenodd" fill-opacity="1" /><path clip-path="url(#clip0400)" d="M 0 0 M13868.1 139.87 Q13817.5 139.87 13791.9 189.777 Q13766.7 239.36 13766.7 339.174 Q13766.7 438.664 13791.9 488.571 Q13817.5 538.155 13868.1 538.155 Q13919 538.155 13944.2 488.571 Q13969.8 438.664 13969.8 339.174 Q13969.8 239.36 13944.2 189.777 Q13919 139.87 13868.1 139.87 M13868.1 88.018 Q13949.4 88.018 13992.2 152.508 Q14035.3 216.675 14035.3 339.174 Q14035.3 461.349 13992.2 525.84 Q13949.4 590.006 13868.1 590.006 Q13786.7 590.006 13743.6 525.84 Q13700.9 461.349 13700.9 339.174 Q13700.9 216.675 13743.6 152.508 Q13786.7 88.018 13868.1 88.018 Z" fill="#000000" fill-rule="evenodd" fill-opacity="1" /><path clip-path="url(#clip0400)" d="M 0 0 M14316.6 279.221 L14732.1 279.221 L14732.1 333.665 L14316.6 333.665 L14316.6 279.221 M14316.6 411.442 L14732.1 411.442 L14732.1 466.535 L14316.6 466.535 L14316.6 411.442 Z" fill="#000000" fill-rule="evenodd" fill-opacity="1" /><path clip-path="url(#clip0400)" d="M 0 0 M15154 139.87 Q15103.4 139.87 15077.8 189.777 Q15052.6 239.36 15052.6 339.174 Q15052.6 438.664 15077.8 488.571 Q15103.4 538.155 15154 538.155 Q15204.9 538.155 15230.2 488.571 Q15255.8 438.664 15255.8 339.174 Q15255.8 239.36 15230.2 189.777 Q15204.9 139.87 15154 139.87 M15154 88.018 Q15235.3 88.018 15278.1 152.508 Q15321.2 216.675 15321.2 339.174 Q15321.2 461.349 15278.1 525.84 Q15235.3 590.006 15154 590.006 Q15072.7 590.006 15029.6 525.84 Q14986.8 461.349 14986.8 339.174 Q14986.8 216.675 15029.6 152.508 Q15072.7 88.018 15154 88.018 Z" fill="#000000" fill-rule="evenodd" fill-opacity="1" /><path clip-path="url(#clip0400)" d="M 0 0 M15392.2 498.294 L15460.6 498.294 L15460.6 580.608 L15392.2 580.608 L15392.2 498.294 Z" fill="#000000" fill-rule="evenodd" fill-opacity="1" /><path clip-path="url(#clip0400)" d="M 0 0 M15711.4 153.805 L15546.1 412.09 L15711.4 412.09 L15711.4 153.805 M15694.2 96.768 L15776.5 96.768 L15776.5 412.09 L15845.6 412.09 L15845.6 466.535 L15776.5 466.535 L15776.5 580.608 L15711.4 580.608 L15711.4 466.535 L15493 466.535 L15493 403.34 L15694.2 96.768 Z" fill="#000000" fill-rule="evenodd" fill-opacity="1" /><path clip-path="url(#clip0400)" d="M 0 0 M10096.6 12068.2 L10418.2 12068.2 L10418.2 12111.5 L10283.3 12111.5 L10283.3 12448.4 L10231.6 12448.4 L10231.6 12111.5 L10096.6 12111.5 L10096.6 12068.2 Z" fill="#000000" fill-rule="evenodd" fill-opacity="1" /><path clip-path="url(#clip0400)" d="M 0 0 M522.483 7641.94 L661.765 7641.94 L661.765 7559.44 Q661.765 7517.93 644.705 7498.07 Q627.39 7477.96 591.997 7477.96 Q556.349 7477.96 539.543 7498.07 Q522.483 7517.93 522.483 7559.44 L522.483 7641.94 M366.142 7641.94 L480.724 7641.94 L480.724 7565.8 Q480.724 7528.12 466.72 7509.78 Q452.461 7491.2 423.433 7491.2 Q394.66 7491.2 380.401 7509.78 Q366.142 7528.12 366.142 7565.8 L366.142 7641.94 M323.873 7693.37 L323.873 7561.98 Q323.873 7503.16 348.318 7471.33 Q372.762 7439.51 417.831 7439.51 Q452.715 7439.51 473.34 7455.8 Q493.965 7472.1 499.058 7503.67 Q507.206 7465.73 533.178 7444.85 Q558.895 7423.72 597.599 7423.72 Q648.524 7423.72 676.279 7458.35 Q704.033 7492.98 704.033 7556.89 L704.033 7693.37 L323.873 7693.37 Z" fill="#000000" fill-rule="evenodd" fill-opacity="1" /><path clip-path="url(#clip0400)" d="M 0 0 M418.85 7374.58 L418.85 7327.72 L704.033 7327.72 L704.033 7374.58 L418.85 7374.58 M307.832 7374.58 L307.832 7327.72 L367.16 7327.72 L367.16 7374.58 L307.832 7374.58 Z" fill="#000000" fill-rule="evenodd" fill-opacity="1" /><path clip-path="url(#clip0400)" d="M 0 0 M531.905 7041.52 L704.033 7041.52 L704.033 7088.37 L533.432 7088.37 Q492.946 7088.37 472.831 7104.16 Q452.715 7119.95 452.715 7151.52 Q452.715 7189.46 476.905 7211.36 Q501.095 7233.26 542.854 7233.26 L704.033 7233.26 L704.033 7280.36 L418.85 7280.36 L418.85 7233.26 L463.155 7233.26 Q437.437 7216.45 424.706 7193.79 Q411.975 7170.87 411.975 7141.08 Q411.975 7091.94 442.53 7066.73 Q472.831 7041.52 531.905 7041.52 Z" fill="#000000" fill-rule="evenodd" fill-opacity="1" /><path clip-path="url(#clip0400)" d="M 0 0 M462.136 6804.72 L307.832 6804.72 L307.832 6757.87 L704.033 6757.87 L704.033 6804.72 L661.256 6804.72 Q686.719 6819.49 699.195 6842.15 Q711.417 6864.56 711.417 6896.13 Q711.417 6947.82 670.168 6980.41 Q628.918 7012.75 561.696 7012.75 Q494.474 7012.75 453.224 6980.41 Q411.975 6947.82 411.975 6896.13 Q411.975 6864.56 424.451 6842.15 Q436.674 6819.49 462.136 6804.72 M561.696 6964.37 Q613.386 6964.37 642.922 6943.24 Q672.205 6921.85 672.205 6884.67 Q672.205 6847.5 642.922 6826.11 Q613.386 6804.72 561.696 6804.72 Q510.007 6804.72 480.724 6826.11 Q451.187 6847.5 451.187 6884.67 Q451.187 6921.85 480.724 6943.24 Q510.007 6964.37 561.696 6964.37 Z" fill="#000000" fill-rule="evenodd" fill-opacity="1" /><path clip-path="url(#clip0400)" d="M 0 0 M549.729 6464.79 L572.645 6464.79 L572.645 6680.2 Q621.024 6677.15 646.487 6651.18 Q671.695 6624.95 671.695 6578.35 Q671.695 6551.36 665.075 6526.15 Q658.455 6500.69 645.214 6475.74 L689.519 6475.74 Q700.214 6500.95 705.816 6527.43 Q711.417 6553.91 711.417 6581.15 Q711.417 6649.39 671.695 6689.37 Q631.973 6729.09 564.242 6729.09 Q494.22 6729.09 453.224 6691.41 Q411.975 6653.47 411.975 6589.3 Q411.975 6531.76 449.15 6498.4 Q486.071 6464.79 549.729 6464.79 M535.979 6511.64 Q497.53 6512.15 474.613 6533.28 Q451.697 6554.16 451.697 6588.79 Q451.697 6628.01 473.849 6651.69 Q496.002 6675.11 536.233 6678.68 L535.979 6511.64 Z" fill="#000000" fill-rule="evenodd" fill-opacity="1" /><path clip-path="url(#clip0400)" d="M 0 0 M462.646 6250.39 Q458.062 6258.29 456.025 6267.71 Q453.734 6276.87 453.734 6288.08 Q453.734 6327.8 479.706 6349.19 Q505.423 6370.32 553.803 6370.32 L704.033 6370.32 L704.033 6417.43 L418.85 6417.43 L418.85 6370.32 L463.155 6370.32 Q437.183 6355.55 424.706 6331.87 Q411.975 6308.19 411.975 6274.33 Q411.975 6269.49 412.739 6263.63 Q413.248 6257.78 414.521 6250.65 L462.646 6250.39 Z" fill="#000000" fill-rule="evenodd" fill-opacity="1" /><path clip-path="url(#clip0400)" d="M 0 0 M323.873 6156.94 L465.192 6156.94 L465.192 6200.23 L323.873 6200.23 L323.873 6156.94 Z" fill="#000000" fill-rule="evenodd" fill-opacity="1" /><path clip-path="url(#clip0400)" d="M 0 0 M427.252 5926 L471.558 5926 Q461.373 5945.86 456.28 5967.25 Q451.187 5988.63 451.187 6011.55 Q451.187 6046.44 461.882 6064 Q472.576 6081.32 493.965 6081.32 Q510.261 6081.32 519.682 6068.84 Q528.849 6056.37 537.252 6018.68 L540.817 6002.64 Q551.511 5952.73 571.117 5931.85 Q590.469 5910.72 625.353 5910.72 Q665.075 5910.72 688.246 5942.29 Q711.417 5973.61 711.417 6028.61 Q711.417 6051.53 706.834 6076.48 Q702.505 6101.18 693.594 6128.68 L645.214 6128.68 Q658.709 6102.71 665.584 6077.5 Q672.205 6052.29 672.205 6027.59 Q672.205 5994.49 661.001 5976.67 Q649.543 5958.84 628.918 5958.84 Q609.821 5958.84 599.636 5971.83 Q589.451 5984.56 580.029 6028.1 L576.21 6044.4 Q567.043 6087.94 548.201 6107.29 Q529.104 6126.64 496.002 6126.64 Q455.771 6126.64 433.873 6098.12 Q411.975 6069.61 411.975 6017.15 Q411.975 5991.18 415.794 5968.26 Q419.613 5945.35 427.252 5926 Z" fill="#000000" fill-rule="evenodd" fill-opacity="1" /><path clip-path="url(#clip0400)" d="M 0 0 M462.646 5530.56 Q458.062 5538.45 456.025 5547.87 Q453.734 5557.04 453.734 5568.24 Q453.734 5607.97 479.706 5629.35 Q505.423 5650.49 553.803 5650.49 L704.033 5650.49 L704.033 5697.59 L418.85 5697.59 L418.85 5650.49 L463.155 5650.49 Q437.183 5635.72 424.706 5612.04 Q411.975 5588.36 411.975 5554.49 Q411.975 5549.66 412.739 5543.8 Q413.248 5537.94 414.521 5530.81 L462.646 5530.56 Z" fill="#000000" fill-rule="evenodd" fill-opacity="1" /><path clip-path="url(#clip0400)" d="M 0 0 M560.678 5351.81 Q560.678 5408.59 573.664 5430.49 Q586.65 5452.39 617.969 5452.39 Q642.922 5452.39 657.691 5436.09 Q672.205 5419.54 672.205 5391.28 Q672.205 5352.32 644.705 5328.89 Q616.95 5305.21 571.117 5305.21 L560.678 5305.21 L560.678 5351.81 M541.326 5258.36 L704.033 5258.36 L704.033 5305.21 L660.746 5305.21 Q686.719 5321.25 699.195 5345.19 Q711.417 5369.12 711.417 5403.75 Q711.417 5447.55 686.973 5473.52 Q662.274 5499.24 621.024 5499.24 Q572.9 5499.24 548.455 5467.16 Q524.011 5434.82 524.011 5370.91 L524.011 5305.21 L519.428 5305.21 Q487.09 5305.21 469.521 5326.6 Q451.697 5347.74 451.697 5386.18 Q451.697 5410.63 457.553 5433.8 Q463.41 5456.97 475.122 5478.36 L431.836 5478.36 Q421.905 5452.64 417.067 5428.45 Q411.975 5404.26 411.975 5381.35 Q411.975 5319.47 444.058 5288.92 Q476.141 5258.36 541.326 5258.36 Z" fill="#000000" fill-rule="evenodd" fill-opacity="1" /><path clip-path="url(#clip0400)" d="M 0 0 M337.878 5162.87 L418.85 5162.87 L418.85 5066.37 L455.261 5066.37 L455.261 5162.87 L610.075 5162.87 Q644.96 5162.87 654.89 5153.45 Q664.821 5143.78 664.821 5114.5 L664.821 5066.37 L704.033 5066.37 L704.033 5114.5 Q704.033 5168.73 683.918 5189.36 Q663.547 5209.98 610.075 5209.98 L455.261 5209.98 L455.261 5244.36 L418.85 5244.36 L418.85 5209.98 L337.878 5209.98 L337.878 5162.87 Z" fill="#000000" fill-rule="evenodd" fill-opacity="1" /><path clip-path="url(#clip0400)" d="M 0 0 M418.85 5017.23 L418.85 4970.38 L704.033 4970.38 L704.033 5017.23 L418.85 5017.23 M307.832 5017.23 L307.832 4970.38 L367.16 4970.38 L367.16 5017.23 L307.832 5017.23 Z" fill="#000000" fill-rule="evenodd" fill-opacity="1" /><path clip-path="url(#clip0400)" d="M 0 0 M451.697 4810.72 Q451.697 4848.41 481.234 4870.31 Q510.516 4892.21 561.696 4892.21 Q612.876 4892.21 642.413 4870.56 Q671.695 4848.66 671.695 4810.72 Q671.695 4773.29 642.159 4751.4 Q612.622 4729.5 561.696 4729.5 Q511.025 4729.5 481.488 4751.4 Q451.697 4773.29 451.697 4810.72 M411.975 4810.72 Q411.975 4749.61 451.697 4714.73 Q491.419 4679.85 561.696 4679.85 Q631.719 4679.85 671.695 4714.73 Q711.417 4749.61 711.417 4810.72 Q711.417 4872.09 671.695 4906.97 Q631.719 4941.6 561.696 4941.6 Q491.419 4941.6 451.697 4906.97 Q411.975 4872.09 411.975 4810.72 Z" fill="#000000" fill-rule="evenodd" fill-opacity="1" /><polyline clip-path="url(#clip0402)" style="stroke:#009af9; stroke-width:32; stroke-opacity:1; fill:none" points="
  2177.61,1282.05 2340.84,1282.05 2504.07,1282.06 2667.3,1282.05 2830.52,1282.06 2993.75,1282.06 3156.98,1282.06 3320.21,1282.06 3483.44,1282.06 3646.67,1282.07 
  3809.9,1282.07 3973.13,1282.07 4136.35,1282.07 4299.58,1282.08 4462.81,1282.09 4626.04,1282.09 4789.27,1282.09 4952.5,1282.1 5115.73,1282.1 5278.96,1282.12 
  5442.18,1282.12 5605.41,1282.12 5768.64,1282.13 5931.87,1282.15 6095.1,1282.17 6258.33,1282.17 6421.56,1282.18 6584.79,1282.21 6748.01,1282.24 6911.24,1282.26 
  7074.47,1282.29 7237.7,1282.31 7400.93,1282.35 7564.16,1282.38 7727.39,1282.44 7890.62,1282.43 8053.84,1282.48 8217.07,1282.54 8380.3,1282.63 8543.53,1282.67 
  8706.76,1282.78 8869.99,1282.79 9033.22,1282.98 9196.45,1283.03 9359.68,1283.15 9522.9,1283.35 9686.13,1283.49 9849.36,1284 10012.6,1284.01 10175.8,1284.19 
  10339,1285.25 10502.3,1284.98 10665.5,1285.37 10828.7,1286.89 10992,1286.44 11155.2,1287.58 11318.4,1288.77 11481.6,1292.24 11644.9,1291.19 11808.1,1294.82 
  11971.3,1297.39 12134.6,1301.76 12297.8,1306.28 12461,1321.63 12624.3,1332.81 12787.5,1353.53 12950.7,1378.95 13113.9,1406.84 13277.2,1458.63 13440.4,1506.86 
  13603.6,1604.56 13766.9,1729.08 13930.1,1861.09 14093.3,1992.94 14256.5,2235.59 14419.8,2573.16 14583,2951.86 14746.2,3294.38 14909.5,3628 15072.7,4210.91 
  15235.9,4766.34 15399.1,5049.78 15562.4,5494.32 15725.6,5876.74 15888.8,5882.42 16052.1,5878.47 16215.3,5993.57 16378.5,5551.86 16541.7,5437.95 16705,5534.29 
  16868.2,5147.47 17031.4,5077.76 17194.7,4870.17 17357.9,4272.15 17521.1,4142.25 17684.3,3913.9 17847.6,3709.24 18010.8,3624.38 18174,3388.84 18337.3,3207.81 
  
  "/>
<polyline clip-path="url(#clip0402)" style="stroke:#e26f46; stroke-width:32; stroke-opacity:1; fill:none" points="
  2177.61,1282.05 2340.84,1282.05 2504.07,1282.05 2667.3,1282.05 2830.52,1282.05 2993.75,1282.05 3156.98,1282.06 3320.21,1282.06 3483.44,1282.06 3646.67,1282.06 
  3809.9,1282.06 3973.13,1282.06 4136.35,1282.06 4299.58,1282.07 4462.81,1282.07 4626.04,1282.07 4789.27,1282.07 4952.5,1282.08 5115.73,1282.08 5278.96,1282.08 
  5442.18,1282.09 5605.41,1282.1 5768.64,1282.1 5931.87,1282.11 6095.1,1282.11 6258.33,1282.13 6421.56,1282.13 6584.79,1282.14 6748.01,1282.16 6911.24,1282.16 
  7074.47,1282.19 7237.7,1282.19 7400.93,1282.22 7564.16,1282.24 7727.39,1282.24 7890.62,1282.29 8053.84,1282.35 8217.07,1282.31 8380.3,1282.37 8543.53,1282.4 
  8706.76,1282.46 8869.99,1282.49 9033.22,1282.56 9196.45,1282.6 9359.68,1282.66 9522.9,1282.77 9686.13,1282.91 9849.36,1282.99 10012.6,1283.18 10175.8,1283.54 
  10339,1283.6 10502.3,1283.85 10665.5,1283.98 10828.7,1284.38 10992,1284.77 11155.2,1285.35 11318.4,1285.84 11481.6,1285.9 11644.9,1288.64 11808.1,1289.74 
  11971.3,1291.36 12134.6,1294.5 12297.8,1299.49 12461,1300.8 12624.3,1304.19 12787.5,1317.85 12950.7,1357.47 13113.9,1365.17 13277.2,1422.67 13440.4,1501.8 
  13603.6,1638.81 13766.9,1797.7 13930.1,2177.07 14093.3,2860.81 14256.5,3409.78 14419.8,3923.62 14583,5297.71 14746.2,6433.74 14909.5,7243.11 15072.7,7703.2 
  15235.9,7463.25 15399.1,7819.3 15562.4,6923.62 15725.6,7237.61 15888.8,5703.37 16052.1,5824.75 16215.3,5038.81 16378.5,4964.78 16541.7,4183.92 16705,4099.6 
  16868.2,4164.43 17031.4,3732.98 17194.7,3642.55 17357.9,3405.88 17521.1,3073.68 17684.3,2924.02 17847.6,2988.62 18010.8,2803.16 18174,2724.93 18337.3,2615.61 
  
  "/>
<polyline clip-path="url(#clip0402)" style="stroke:#3da44d; stroke-width:32; stroke-opacity:1; fill:none" points="
  2177.61,1282.05 2340.84,1282.05 2504.07,1282.05 2667.3,1282.05 2830.52,1282.05 2993.75,1282.05 3156.98,1282.05 3320.21,1282.05 3483.44,1282.05 3646.67,1282.06 
  3809.9,1282.06 3973.13,1282.06 4136.35,1282.06 4299.58,1282.06 4462.81,1282.06 4626.04,1282.06 4789.27,1282.06 4952.5,1282.07 5115.73,1282.07 5278.96,1282.07 
  5442.18,1282.08 5605.41,1282.08 5768.64,1282.08 5931.87,1282.08 6095.1,1282.1 6258.33,1282.1 6421.56,1282.1 6584.79,1282.11 6748.01,1282.12 6911.24,1282.12 
  7074.47,1282.13 7237.7,1282.14 7400.93,1282.15 7564.16,1282.17 7727.39,1282.18 7890.62,1282.21 8053.84,1282.22 8217.07,1282.24 8380.3,1282.27 8543.53,1282.29 
  8706.76,1282.32 8869.99,1282.34 9033.22,1282.37 9196.45,1282.41 9359.68,1282.47 9522.9,1282.52 9686.13,1282.59 9849.36,1282.72 10012.6,1282.71 10175.8,1282.81 
  10339,1282.94 10502.3,1283.08 10665.5,1283.18 10828.7,1283.31 10992,1283.41 11155.2,1283.84 11318.4,1284.63 11481.6,1285.14 11644.9,1285.74 11808.1,1286.65 
  11971.3,1287.39 12134.6,1288.81 12297.8,1290.19 12461,1294.39 12624.3,1302.7 12787.5,1303.39 12950.7,1328.97 13113.9,1343.52 13277.2,1390.89 13440.4,1427.25 
  13603.6,1677.1 13766.9,2023.16 13930.1,3008.33 14093.3,3638.98 14256.5,5555.46 14419.8,7487.4 14583,8589.01 14746.2,8599.1 14909.5,9049.79 15072.7,8164.17 
  15235.9,7041.67 15399.1,6687.74 15562.4,5882.78 15725.6,5113.03 15888.8,4984.46 16052.1,4856.84 16215.3,4550.54 16378.5,4013.69 16541.7,3580.38 16705,3623.6 
  16868.2,3419.17 17031.4,3082.7 17194.7,3294.89 17357.9,3203.36 17521.1,2802.83 17684.3,2813.6 17847.6,2633.52 18010.8,2677.94 18174,2516.13 18337.3,2457.2 
  
  "/>
<polyline clip-path="url(#clip0402)" style="stroke:#c271d2; stroke-width:32; stroke-opacity:1; fill:none" points="
  2177.61,1282.05 2340.84,1282.05 2504.07,1282.05 2667.3,1282.05 2830.52,1282.05 2993.75,1282.05 3156.98,1282.05 3320.21,1282.05 3483.44,1282.05 3646.67,1282.05 
  3809.9,1282.05 3973.13,1282.06 4136.35,1282.06 4299.58,1282.06 4462.81,1282.06 4626.04,1282.06 4789.27,1282.06 4952.5,1282.06 5115.73,1282.06 5278.96,1282.07 
  5442.18,1282.07 5605.41,1282.07 5768.64,1282.07 5931.87,1282.08 6095.1,1282.08 6258.33,1282.08 6421.56,1282.09 6584.79,1282.09 6748.01,1282.1 6911.24,1282.1 
  7074.47,1282.11 7237.7,1282.11 7400.93,1282.13 7564.16,1282.13 7727.39,1282.15 7890.62,1282.16 8053.84,1282.17 8217.07,1282.18 8380.3,1282.19 8543.53,1282.21 
  8706.76,1282.23 8869.99,1282.26 9033.22,1282.28 9196.45,1282.29 9359.68,1282.37 9522.9,1282.37 9686.13,1282.4 9849.36,1282.48 10012.6,1282.52 10175.8,1282.57 
  10339,1282.67 10502.3,1282.73 10665.5,1282.84 10828.7,1282.94 10992,1283.08 11155.2,1283.45 11318.4,1283.6 11481.6,1283.74 11644.9,1283.89 11808.1,1285.16 
  11971.3,1285.96 12134.6,1286.64 12297.8,1288.83 12461,1290.82 12624.3,1293.54 12787.5,1299.34 12950.7,1304.27 13113.9,1306.95 13277.2,1355.69 13440.4,1490.61 
  13603.6,1742.58 13766.9,2252.49 13930.1,3387.82 14093.3,6270.36 14256.5,8670.96 14419.8,9140.94 14583,10100.2 14746.2,9584.85 14909.5,6910.19 15072.7,7146.9 
  15235.9,6685.41 15399.1,5332.33 15562.4,4945.03 15725.6,4589.68 15888.8,4500.74 16052.1,4100.54 16215.3,4133.36 16378.5,3752.26 16541.7,3609.51 16705,3345.59 
  16868.2,3391.42 17031.4,3115.59 17194.7,3083.59 17357.9,2880.35 17521.1,2856.53 17684.3,2745.91 17847.6,2631.15 18010.8,2555.97 18174,2585.13 18337.3,2577.43 
  
  "/>
<polyline clip-path="url(#clip0402)" style="stroke:#ac8d18; stroke-width:32; stroke-opacity:1; fill:none" points="
  2177.61,1282.05 2340.84,1282.05 2504.07,1282.05 2667.3,1282.05 2830.52,1282.05 2993.75,1282.05 3156.98,1282.05 3320.21,1282.05 3483.44,1282.05 3646.67,1282.05 
  3809.9,1282.05 3973.13,1282.05 4136.35,1282.05 4299.58,1282.06 4462.81,1282.06 4626.04,1282.06 4789.27,1282.06 4952.5,1282.06 5115.73,1282.06 5278.96,1282.06 
  5442.18,1282.06 5605.41,1282.07 5768.64,1282.07 5931.87,1282.07 6095.1,1282.07 6258.33,1282.07 6421.56,1282.08 6584.79,1282.08 6748.01,1282.08 6911.24,1282.09 
  7074.47,1282.1 7237.7,1282.1 7400.93,1282.1 7564.16,1282.11 7727.39,1282.12 7890.62,1282.13 8053.84,1282.14 8217.07,1282.15 8380.3,1282.16 8543.53,1282.17 
  8706.76,1282.19 8869.99,1282.2 9033.22,1282.22 9196.45,1282.25 9359.68,1282.27 9522.9,1282.3 9686.13,1282.33 9849.36,1282.37 10012.6,1282.39 10175.8,1282.45 
  10339,1282.53 10502.3,1282.55 10665.5,1282.64 10828.7,1282.71 10992,1282.81 11155.2,1282.96 11318.4,1283.15 11481.6,1283.33 11644.9,1283.45 11808.1,1283.99 
  11971.3,1284.26 12134.6,1285.44 12297.8,1286.6 12461,1288.1 12624.3,1289.26 12787.5,1292.71 12950.7,1296.86 13113.9,1308.39 13277.2,1372.16 13440.4,1413.81 
  13603.6,1703.55 13766.9,3054.11 13930.1,4446.53 14093.3,8890.5 14256.5,10302.3 14419.8,10813.5 14583,8471.26 14746.2,7215.56 14909.5,7616.64 15072.7,5812.74 
  15235.9,5317.51 15399.1,5616.19 15562.4,4971.93 15725.6,4550.05 15888.8,4447.33 16052.1,3938.69 16215.3,3903.69 16378.5,3751.89 16541.7,3550.15 16705,3564.18 
  16868.2,3278.03 17031.4,3184.97 17194.7,3061.37 17357.9,2931.03 17521.1,2826.67 17684.3,2711.54 17847.6,2673.18 18010.8,2613.63 18174,2596.84 18337.3,2468.86 
  
  "/>
<polyline clip-path="url(#clip0402)" style="stroke:#00a9ad; stroke-width:32; stroke-opacity:1; fill:none" points="
  2177.61,1282.05 2340.84,1282.05 2504.07,1282.05 2667.3,1282.05 2830.52,1282.05 2993.75,1282.05 3156.98,1282.05 3320.21,1282.05 3483.44,1282.05 3646.67,1282.05 
  3809.9,1282.05 3973.13,1282.05 4136.35,1282.05 4299.58,1282.05 4462.81,1282.05 4626.04,1282.06 4789.27,1282.06 4952.5,1282.06 5115.73,1282.06 5278.96,1282.06 
  5442.18,1282.06 5605.41,1282.06 5768.64,1282.06 5931.87,1282.06 6095.1,1282.07 6258.33,1282.07 6421.56,1282.07 6584.79,1282.07 6748.01,1282.08 6911.24,1282.08 
  7074.47,1282.08 7237.7,1282.09 7400.93,1282.09 7564.16,1282.1 7727.39,1282.1 7890.62,1282.11 8053.84,1282.12 8217.07,1282.12 8380.3,1282.13 8543.53,1282.14 
  8706.76,1282.16 8869.99,1282.16 9033.22,1282.18 9196.45,1282.2 9359.68,1282.22 9522.9,1282.24 9686.13,1282.25 9849.36,1282.29 10012.6,1282.33 10175.8,1282.35 
  10339,1282.39 10502.3,1282.46 10665.5,1282.52 10828.7,1282.56 10992,1282.66 11155.2,1282.76 11318.4,1282.95 11481.6,1282.99 11644.9,1283.19 11808.1,1283.44 
  11971.3,1283.67 12134.6,1284.07 12297.8,1284.34 12461,1285.58 12624.3,1286.28 12787.5,1287.29 12950.7,1294.95 13113.9,1299.18 13277.2,1314.8 13440.4,1368.16 
  13603.6,1877.13 13766.9,4242.27 13930.1,8772.42 14093.3,11091.2 14256.5,8217.33 14419.8,8151.9 14583,7139.8 14746.2,6350.35 14909.5,6478.67 15072.7,5512.12 
  15235.9,4986.11 15399.1,4928.44 15562.4,4666.82 15725.6,4372.17 15888.8,4099.33 16052.1,3881.73 16215.3,3926.25 16378.5,3588.46 16541.7,3440.82 16705,3307.66 
  16868.2,3210.7 17031.4,3212.07 17194.7,2977.36 17357.9,2905.82 17521.1,2825.19 17684.3,2820.28 17847.6,2755.29 18010.8,2621.19 18174,2618.06 18337.3,2500.23 
  
  "/>
<path clip-path="url(#clip0400)" d="
M2268.82 10233.4 L5305.85 10233.4 L5305.85 6846.56 L2268.82 6846.56  Z
  " fill="#ffffff" fill-rule="evenodd" fill-opacity="1"/>
<polyline clip-path="url(#clip0400)" style="stroke:#000000; stroke-width:32; stroke-opacity:1; fill:none" points="
  2268.82,10233.4 5305.85,10233.4 5305.85,6846.56 2268.82,6846.56 2268.82,10233.4 
  "/>
<polyline clip-path="url(#clip0400)" style="stroke:#009af9; stroke-width:32; stroke-opacity:1; fill:none" points="
  2460.82,7330.4 3612.82,7330.4 
  "/>
<path clip-path="url(#clip0400)" d="M 0 0 M3804.82 7192.16 L3842.23 7192.16 L3842.23 7437.16 L3976.86 7437.16 L3976.86 7468.64 L3804.82 7468.64 L3804.82 7192.16 Z" fill="#000000" fill-rule="evenodd" fill-opacity="1" /><path clip-path="url(#clip0400)" d="M 0 0 M4137.6 7296.42 L4375 7296.42 L4375 7327.53 L4137.6 7327.53 L4137.6 7296.42 M4137.6 7371.97 L4375 7371.97 L4375 7403.45 L4137.6 7403.45 L4137.6 7371.97 Z" fill="#000000" fill-rule="evenodd" fill-opacity="1" /><path clip-path="url(#clip0400)" d="M 0 0 M4620.74 7315.49 Q4595.56 7315.49 4580.74 7332.71 Q4566.11 7349.94 4566.11 7379.94 Q4566.11 7409.75 4580.74 7427.16 Q4595.56 7444.38 4620.74 7444.38 Q4645.93 7444.38 4660.56 7427.16 Q4675.37 7409.75 4675.37 7379.94 Q4675.37 7349.94 4660.56 7332.71 Q4645.93 7315.49 4620.74 7315.49 M4695 7198.27 L4695 7232.34 Q4680.93 7225.68 4666.48 7222.16 Q4652.22 7218.64 4638.15 7218.64 Q4601.11 7218.64 4581.48 7243.64 Q4562.04 7268.64 4559.26 7319.2 Q4570.19 7303.08 4586.67 7294.57 Q4603.15 7285.86 4622.96 7285.86 Q4664.63 7285.86 4688.7 7311.23 Q4712.96 7336.42 4712.96 7379.94 Q4712.96 7422.53 4687.78 7448.27 Q4662.59 7474.01 4620.74 7474.01 Q4572.78 7474.01 4547.41 7437.34 Q4522.04 7400.49 4522.04 7330.68 Q4522.04 7265.12 4553.15 7226.23 Q4584.26 7187.16 4636.67 7187.16 Q4650.74 7187.16 4665 7189.94 Q4679.44 7192.71 4695 7198.27 Z" fill="#000000" fill-rule="evenodd" fill-opacity="1" /><polyline clip-path="url(#clip0400)" style="stroke:#e26f46; stroke-width:32; stroke-opacity:1; fill:none" points="
  2460.82,7814.24 3612.82,7814.24 
  "/>
<path clip-path="url(#clip0400)" d="M 0 0 M3804.82 7676 L3842.23 7676 L3842.23 7921 L3976.86 7921 L3976.86 7952.48 L3804.82 7952.48 L3804.82 7676 Z" fill="#000000" fill-rule="evenodd" fill-opacity="1" /><path clip-path="url(#clip0400)" d="M 0 0 M4137.6 7780.26 L4375 7780.26 L4375 7811.37 L4137.6 7811.37 L4137.6 7780.26 M4137.6 7855.81 L4375 7855.81 L4375 7887.29 L4137.6 7887.29 L4137.6 7855.81 Z" fill="#000000" fill-rule="evenodd" fill-opacity="1" /><path clip-path="url(#clip0400)" d="M 0 0 M4616.11 7821.18 Q4589.44 7821.18 4574.07 7835.44 Q4558.89 7849.7 4558.89 7874.7 Q4558.89 7899.7 4574.07 7913.96 Q4589.44 7928.22 4616.11 7928.22 Q4642.78 7928.22 4658.15 7913.96 Q4673.52 7899.52 4673.52 7874.7 Q4673.52 7849.7 4658.15 7835.44 Q4642.96 7821.18 4616.11 7821.18 M4578.7 7805.26 Q4554.63 7799.33 4541.11 7782.85 Q4527.78 7766.37 4527.78 7742.67 Q4527.78 7709.52 4551.3 7690.26 Q4575 7671 4616.11 7671 Q4657.41 7671 4680.93 7690.26 Q4704.44 7709.52 4704.44 7742.67 Q4704.44 7766.37 4690.93 7782.85 Q4677.59 7799.33 4653.7 7805.26 Q4680.74 7811.55 4695.74 7829.89 Q4710.93 7848.22 4710.93 7874.7 Q4710.93 7914.89 4686.3 7936.37 Q4661.85 7957.85 4616.11 7957.85 Q4570.37 7957.85 4545.74 7936.37 Q4521.3 7914.89 4521.3 7874.7 Q4521.3 7848.22 4536.48 7829.89 Q4551.67 7811.55 4578.7 7805.26 M4565 7746.18 Q4565 7767.66 4578.33 7779.7 Q4591.85 7791.74 4616.11 7791.74 Q4640.19 7791.74 4653.7 7779.7 Q4667.41 7767.66 4667.41 7746.18 Q4667.41 7724.7 4653.7 7712.67 Q4640.19 7700.63 4616.11 7700.63 Q4591.85 7700.63 4578.33 7712.67 Q4565 7724.7 4565 7746.18 Z" fill="#000000" fill-rule="evenodd" fill-opacity="1" /><polyline clip-path="url(#clip0400)" style="stroke:#3da44d; stroke-width:32; stroke-opacity:1; fill:none" points="
  2460.82,8298.08 3612.82,8298.08 
  "/>
<path clip-path="url(#clip0400)" d="M 0 0 M3804.82 8159.84 L3842.23 8159.84 L3842.23 8404.84 L3976.86 8404.84 L3976.86 8436.32 L3804.82 8436.32 L3804.82 8159.84 Z" fill="#000000" fill-rule="evenodd" fill-opacity="1" /><path clip-path="url(#clip0400)" d="M 0 0 M4137.6 8264.1 L4375 8264.1 L4375 8295.21 L4137.6 8295.21 L4137.6 8264.1 M4137.6 8339.65 L4375 8339.65 L4375 8371.13 L4137.6 8371.13 L4137.6 8339.65 Z" fill="#000000" fill-rule="evenodd" fill-opacity="1" /><path clip-path="url(#clip0400)" d="M 0 0 M4542.59 8404.84 L4603.7 8404.84 L4603.7 8193.91 L4537.22 8207.25 L4537.22 8173.17 L4603.33 8159.84 L4640.74 8159.84 L4640.74 8404.84 L4701.85 8404.84 L4701.85 8436.32 L4542.59 8436.32 L4542.59 8404.84 Z" fill="#000000" fill-rule="evenodd" fill-opacity="1" /><path clip-path="url(#clip0400)" d="M 0 0 M4822.41 8184.47 Q4793.52 8184.47 4778.89 8212.99 Q4764.44 8241.32 4764.44 8298.36 Q4764.44 8355.21 4778.89 8383.73 Q4793.52 8412.06 4822.41 8412.06 Q4851.48 8412.06 4865.92 8383.73 Q4880.55 8355.21 4880.55 8298.36 Q4880.55 8241.32 4865.92 8212.99 Q4851.48 8184.47 4822.41 8184.47 M4822.41 8154.84 Q4868.89 8154.84 4893.33 8191.69 Q4917.96 8228.36 4917.96 8298.36 Q4917.96 8368.17 4893.33 8405.02 Q4868.89 8441.69 4822.41 8441.69 Q4775.93 8441.69 4751.3 8405.02 Q4726.85 8368.17 4726.85 8298.36 Q4726.85 8228.36 4751.3 8191.69 Q4775.93 8154.84 4822.41 8154.84 Z" fill="#000000" fill-rule="evenodd" fill-opacity="1" /><polyline clip-path="url(#clip0400)" style="stroke:#c271d2; stroke-width:32; stroke-opacity:1; fill:none" points="
  2460.82,8781.92 3612.82,8781.92 
  "/>
<path clip-path="url(#clip0400)" d="M 0 0 M3804.82 8643.68 L3842.23 8643.68 L3842.23 8888.68 L3976.86 8888.68 L3976.86 8920.16 L3804.82 8920.16 L3804.82 8643.68 Z" fill="#000000" fill-rule="evenodd" fill-opacity="1" /><path clip-path="url(#clip0400)" d="M 0 0 M4137.6 8747.94 L4375 8747.94 L4375 8779.05 L4137.6 8779.05 L4137.6 8747.94 M4137.6 8823.49 L4375 8823.49 L4375 8854.97 L4137.6 8854.97 L4137.6 8823.49 Z" fill="#000000" fill-rule="evenodd" fill-opacity="1" /><path clip-path="url(#clip0400)" d="M 0 0 M4542.59 8888.68 L4603.7 8888.68 L4603.7 8677.75 L4537.22 8691.09 L4537.22 8657.01 L4603.33 8643.68 L4640.74 8643.68 L4640.74 8888.68 L4701.85 8888.68 L4701.85 8920.16 L4542.59 8920.16 L4542.59 8888.68 Z" fill="#000000" fill-rule="evenodd" fill-opacity="1" /><path clip-path="url(#clip0400)" d="M 0 0 M4774.63 8888.68 L4905.18 8888.68 L4905.18 8920.16 L4729.63 8920.16 L4729.63 8888.68 Q4750.93 8866.64 4787.59 8829.6 Q4824.44 8792.38 4833.89 8781.64 Q4851.85 8761.46 4858.89 8747.57 Q4866.11 8733.49 4866.11 8719.97 Q4866.11 8697.94 4850.55 8684.05 Q4835.18 8670.16 4810.37 8670.16 Q4792.78 8670.16 4773.15 8676.27 Q4753.7 8682.38 4731.48 8694.79 L4731.48 8657.01 Q4754.07 8647.94 4773.7 8643.31 Q4793.33 8638.68 4809.63 8638.68 Q4852.59 8638.68 4878.15 8660.16 Q4903.7 8681.64 4903.7 8717.57 Q4903.7 8734.6 4897.22 8749.97 Q4890.92 8765.16 4874.07 8785.9 Q4869.44 8791.27 4844.63 8817.01 Q4819.81 8842.57 4774.63 8888.68 Z" fill="#000000" fill-rule="evenodd" fill-opacity="1" /><polyline clip-path="url(#clip0400)" style="stroke:#ac8d18; stroke-width:32; stroke-opacity:1; fill:none" points="
  2460.82,9265.76 3612.82,9265.76 
  "/>
<path clip-path="url(#clip0400)" d="M 0 0 M3804.82 9127.52 L3842.23 9127.52 L3842.23 9372.52 L3976.86 9372.52 L3976.86 9404 L3804.82 9404 L3804.82 9127.52 Z" fill="#000000" fill-rule="evenodd" fill-opacity="1" /><path clip-path="url(#clip0400)" d="M 0 0 M4137.6 9231.78 L4375 9231.78 L4375 9262.89 L4137.6 9262.89 L4137.6 9231.78 M4137.6 9307.33 L4375 9307.33 L4375 9338.81 L4137.6 9338.81 L4137.6 9307.33 Z" fill="#000000" fill-rule="evenodd" fill-opacity="1" /><path clip-path="url(#clip0400)" d="M 0 0 M4542.59 9372.52 L4603.7 9372.52 L4603.7 9161.59 L4537.22 9174.93 L4537.22 9140.85 L4603.33 9127.52 L4640.74 9127.52 L4640.74 9372.52 L4701.85 9372.52 L4701.85 9404 L4542.59 9404 L4542.59 9372.52 Z" fill="#000000" fill-rule="evenodd" fill-opacity="1" /><path clip-path="url(#clip0400)" d="M 0 0 M4845.18 9160.11 L4750.74 9307.7 L4845.18 9307.7 L4845.18 9160.11 M4835.37 9127.52 L4882.41 9127.52 L4882.41 9307.7 L4921.85 9307.7 L4921.85 9338.81 L4882.41 9338.81 L4882.41 9404 L4845.18 9404 L4845.18 9338.81 L4720.37 9338.81 L4720.37 9302.7 L4835.37 9127.52 Z" fill="#000000" fill-rule="evenodd" fill-opacity="1" /><polyline clip-path="url(#clip0400)" style="stroke:#00a9ad; stroke-width:32; stroke-opacity:1; fill:none" points="
  2460.82,9749.6 3612.82,9749.6 
  "/>
<path clip-path="url(#clip0400)" d="M 0 0 M3804.82 9611.36 L3842.23 9611.36 L3842.23 9856.36 L3976.86 9856.36 L3976.86 9887.84 L3804.82 9887.84 L3804.82 9611.36 Z" fill="#000000" fill-rule="evenodd" fill-opacity="1" /><path clip-path="url(#clip0400)" d="M 0 0 M4137.6 9715.62 L4375 9715.62 L4375 9746.73 L4137.6 9746.73 L4137.6 9715.62 M4137.6 9791.17 L4375 9791.17 L4375 9822.65 L4137.6 9822.65 L4137.6 9791.17 Z" fill="#000000" fill-rule="evenodd" fill-opacity="1" /><path clip-path="url(#clip0400)" d="M 0 0 M4542.59 9856.36 L4603.7 9856.36 L4603.7 9645.43 L4537.22 9658.77 L4537.22 9624.69 L4603.33 9611.36 L4640.74 9611.36 L4640.74 9856.36 L4701.85 9856.36 L4701.85 9887.84 L4542.59 9887.84 L4542.59 9856.36 Z" fill="#000000" fill-rule="evenodd" fill-opacity="1" /><path clip-path="url(#clip0400)" d="M 0 0 M4827.04 9734.69 Q4801.85 9734.69 4787.04 9751.91 Q4772.41 9769.14 4772.41 9799.14 Q4772.41 9828.95 4787.04 9846.36 Q4801.85 9863.58 4827.04 9863.58 Q4852.22 9863.58 4866.85 9846.36 Q4881.67 9828.95 4881.67 9799.14 Q4881.67 9769.14 4866.85 9751.91 Q4852.22 9734.69 4827.04 9734.69 M4901.29 9617.47 L4901.29 9651.54 Q4887.22 9644.88 4872.78 9641.36 Q4858.52 9637.84 4844.44 9637.84 Q4807.41 9637.84 4787.78 9662.84 Q4768.33 9687.84 4765.55 9738.4 Q4776.48 9722.28 4792.96 9713.77 Q4809.44 9705.06 4829.26 9705.06 Q4870.92 9705.06 4895 9730.43 Q4919.26 9755.62 4919.26 9799.14 Q4919.26 9841.73 4894.07 9867.47 Q4868.89 9893.21 4827.04 9893.21 Q4779.07 9893.21 4753.7 9856.54 Q4728.33 9819.69 4728.33 9749.88 Q4728.33 9684.32 4759.44 9645.43 Q4790.55 9606.36 4842.96 9606.36 Q4857.04 9606.36 4871.3 9609.14 Q4885.74 9611.91 4901.29 9617.47 Z" fill="#000000" fill-rule="evenodd" fill-opacity="1" /></svg>
