<?xml version="1.0" encoding="utf-8"?>
<svg xmlns="http://www.w3.org/2000/svg" xmlns:xlink="http://www.w3.org/1999/xlink" width="4800" height="3200" viewBox="0 0 19200 12800">
<defs>
  <clipPath id="clip7300">
    <rect x="0" y="0" width="19200" height="12800"/>
  </clipPath>
</defs>
<path clip-path="url(#clip7300)" d="
M0 12800 L19200 12800 L19200 0 L0 0  Z
  " fill="#ffffff" fill-rule="evenodd" fill-opacity="1"/>
<defs>
  <clipPath id="clip7301">
    <rect x="3840" y="0" width="13441" height="12800"/>
  </clipPath>
</defs>
<path clip-path="url(#clip7300)" d="
M1910.23 11385.4 L18822 11385.4 L18822 987.777 L1910.23 987.777  Z
  " fill="#ffffff" fill-rule="evenodd" fill-opacity="1"/>
<defs>
  <clipPath id="clip7302">
    <rect x="1910" y="987" width="16913" height="10399"/>
  </clipPath>
</defs>
<polyline clip-path="url(#clip7302)" style="stroke:#000000; stroke-width:16; stroke-opacity:0.1; fill:none" points="
  2388.86,11385.4 2388.86,987.777 
  "/>
<polyline clip-path="url(#clip7302)" style="stroke:#000000; stroke-width:16; stroke-opacity:0.1; fill:none" points="
  6377.5,11385.4 6377.5,987.777 
  "/>
<polyline clip-path="url(#clip7302)" style="stroke:#000000; stroke-width:16; stroke-opacity:0.1; fill:none" points="
  10366.1,11385.4 10366.1,987.777 
  "/>
<polyline clip-path="url(#clip7302)" style="stroke:#000000; stroke-width:16; stroke-opacity:0.1; fill:none" points="
  14354.8,11385.4 14354.8,987.777 
  "/>
<polyline clip-path="url(#clip7302)" style="stroke:#000000; stroke-width:16; stroke-opacity:0.1; fill:none" points="
  18343.4,11385.4 18343.4,987.777 
  "/>
<polyline clip-path="url(#clip7302)" style="stroke:#000000; stroke-width:16; stroke-opacity:0.1; fill:none" points="
  1910.23,7817.64 18822,7817.64 
  "/>
<polyline clip-path="url(#clip7302)" style="stroke:#000000; stroke-width:16; stroke-opacity:0.1; fill:none" points="
  1910.23,7817.64 18822,7817.64 
  "/>
<polyline clip-path="url(#clip7302)" style="stroke:#000000; stroke-width:16; stroke-opacity:0.1; fill:none" points="
  1910.23,6825.84 18822,6825.84 
  "/>
<polyline clip-path="url(#clip7302)" style="stroke:#000000; stroke-width:16; stroke-opacity:0.1; fill:none" points="
  1910.23,5834.03 18822,5834.03 
  "/>
<polyline clip-path="url(#clip7302)" style="stroke:#000000; stroke-width:16; stroke-opacity:0.1; fill:none" points="
  1910.23,4842.23 18822,4842.23 
  "/>
<polyline clip-path="url(#clip7302)" style="stroke:#000000; stroke-width:16; stroke-opacity:0.1; fill:none" points="
  1910.23,3850.42 18822,3850.42 
  "/>
<polyline clip-path="url(#clip7302)" style="stroke:#000000; stroke-width:16; stroke-opacity:0.1; fill:none" points="
  1910.23,2858.62 18822,2858.62 
  "/>
<polyline clip-path="url(#clip7302)" style="stroke:#000000; stroke-width:16; stroke-opacity:0.1; fill:none" points="
  1910.23,1866.82 18822,1866.82 
  "/>
<polyline clip-path="url(#clip7300)" style="stroke:#000000; stroke-width:32; stroke-opacity:1; fill:none" points="
  1910.23,11385.4 18822,11385.4 
  "/>
<polyline clip-path="url(#clip7300)" style="stroke:#000000; stroke-width:32; stroke-opacity:1; fill:none" points="
  1910.23,11385.4 1910.23,987.777 
  "/>
<polyline clip-path="url(#clip7300)" style="stroke:#000000; stroke-width:32; stroke-opacity:1; fill:none" points="
  2388.86,11385.4 2388.86,11260.7 
  "/>
<polyline clip-path="url(#clip7300)" style="stroke:#000000; stroke-width:32; stroke-opacity:1; fill:none" points="
  6377.5,11385.4 6377.5,11260.7 
  "/>
<polyline clip-path="url(#clip7300)" style="stroke:#000000; stroke-width:32; stroke-opacity:1; fill:none" points="
  10366.1,11385.4 10366.1,11260.7 
  "/>
<polyline clip-path="url(#clip7300)" style="stroke:#000000; stroke-width:32; stroke-opacity:1; fill:none" points="
  14354.8,11385.4 14354.8,11260.7 
  "/>
<polyline clip-path="url(#clip7300)" style="stroke:#000000; stroke-width:32; stroke-opacity:1; fill:none" points="
  18343.4,11385.4 18343.4,11260.7 
  "/>
<polyline clip-path="url(#clip7300)" style="stroke:#000000; stroke-width:32; stroke-opacity:1; fill:none" points="
  1910.23,7817.64 2113.17,7817.64 
  "/>
<polyline clip-path="url(#clip7300)" style="stroke:#000000; stroke-width:32; stroke-opacity:1; fill:none" points="
  1910.23,7817.64 2113.17,7817.64 
  "/>
<polyline clip-path="url(#clip7300)" style="stroke:#000000; stroke-width:32; stroke-opacity:1; fill:none" points="
  1910.23,6825.84 2113.17,6825.84 
  "/>
<polyline clip-path="url(#clip7300)" style="stroke:#000000; stroke-width:32; stroke-opacity:1; fill:none" points="
  1910.23,5834.03 2113.17,5834.03 
  "/>
<polyline clip-path="url(#clip7300)" style="stroke:#000000; stroke-width:32; stroke-opacity:1; fill:none" points="
  1910.23,4842.23 2113.17,4842.23 
  "/>
<polyline clip-path="url(#clip7300)" style="stroke:#000000; stroke-width:32; stroke-opacity:1; fill:none" points="
  1910.23,3850.42 2113.17,3850.42 
  "/>
<polyline clip-path="url(#clip7300)" style="stroke:#000000; stroke-width:32; stroke-opacity:1; fill:none" points="
  1910.23,2858.62 2113.17,2858.62 
  "/>
<polyline clip-path="url(#clip7300)" style="stroke:#000000; stroke-width:32; stroke-opacity:1; fill:none" points="
  1910.23,1866.82 2113.17,1866.82 
  "/>
<path clip-path="url(#clip7300)" d="M 0 0 M2032.48 11561.4 Q2003.59 11561.4 1988.96 11589.9 Q1974.51 11618.2 1974.51 11675.3 Q1974.51 11732.1 1988.96 11760.6 Q2003.59 11789 2032.48 11789 Q2061.55 11789 2075.99 11760.6 Q2090.62 11732.1 2090.62 11675.3 Q2090.62 11618.2 2075.99 11589.9 Q2061.55 11561.4 2032.48 11561.4 M2032.48 11531.7 Q2078.96 11531.7 2103.4 11568.6 Q2128.03 11605.3 2128.03 11675.3 Q2128.03 11745.1 2103.4 11781.9 Q2078.96 11818.6 2032.48 11818.6 Q1985.99 11818.6 1961.36 11781.9 Q1936.92 11745.1 1936.92 11675.3 Q1936.92 11605.3 1961.36 11568.6 Q1985.99 11531.7 2032.48 11531.7 Z" fill="#000000" fill-rule="evenodd" fill-opacity="1" /><path clip-path="url(#clip7300)" d="M 0 0 M2168.59 11766.2 L2207.66 11766.2 L2207.66 11813.2 L2168.59 11813.2 L2168.59 11766.2 Z" fill="#000000" fill-rule="evenodd" fill-opacity="1" /><path clip-path="url(#clip7300)" d="M 0 0 M2248.59 11536.7 L2395.44 11536.7 L2395.44 11568.2 L2282.84 11568.2 L2282.84 11636 Q2290.99 11633.2 2299.14 11631.9 Q2307.29 11630.4 2315.44 11630.4 Q2361.73 11630.4 2388.77 11655.8 Q2415.81 11681.2 2415.81 11724.5 Q2415.81 11769.1 2388.03 11794 Q2360.25 11818.6 2309.7 11818.6 Q2292.29 11818.6 2274.14 11815.6 Q2256.18 11812.7 2236.92 11806.7 L2236.92 11769.1 Q2253.59 11778.2 2271.36 11782.7 Q2289.14 11787.1 2308.96 11787.1 Q2340.99 11787.1 2359.7 11770.3 Q2378.4 11753.4 2378.4 11724.5 Q2378.4 11695.6 2359.7 11678.8 Q2340.99 11661.9 2308.96 11661.9 Q2293.96 11661.9 2278.96 11665.3 Q2264.14 11668.6 2248.59 11675.6 L2248.59 11536.7 Z" fill="#000000" fill-rule="evenodd" fill-opacity="1" /><path clip-path="url(#clip7300)" d="M 0 0 M2446.92 11536.7 L2624.69 11536.7 L2624.69 11552.7 L2524.32 11813.2 L2485.25 11813.2 L2579.69 11568.2 L2446.92 11568.2 L2446.92 11536.7 Z" fill="#000000" fill-rule="evenodd" fill-opacity="1" /><path clip-path="url(#clip7300)" d="M 0 0 M2745.25 11561.4 Q2716.36 11561.4 2701.73 11589.9 Q2687.29 11618.2 2687.29 11675.3 Q2687.29 11732.1 2701.73 11760.6 Q2716.36 11789 2745.25 11789 Q2774.32 11789 2788.77 11760.6 Q2803.4 11732.1 2803.4 11675.3 Q2803.4 11618.2 2788.77 11589.9 Q2774.32 11561.4 2745.25 11561.4 M2745.25 11531.7 Q2791.73 11531.7 2816.17 11568.6 Q2840.8 11605.3 2840.8 11675.3 Q2840.8 11745.1 2816.17 11781.9 Q2791.73 11818.6 2745.25 11818.6 Q2698.77 11818.6 2674.14 11781.9 Q2649.69 11745.1 2649.69 11675.3 Q2649.69 11605.3 2674.14 11568.6 Q2698.77 11531.7 2745.25 11531.7 Z" fill="#000000" fill-rule="evenodd" fill-opacity="1" /><path clip-path="url(#clip7300)" d="M 0 0 M6025.09 11561.4 Q5996.2 11561.4 5981.58 11589.9 Q5967.13 11618.2 5967.13 11675.3 Q5967.13 11732.1 5981.58 11760.6 Q5996.2 11789 6025.09 11789 Q6054.17 11789 6068.61 11760.6 Q6083.24 11732.1 6083.24 11675.3 Q6083.24 11618.2 6068.61 11589.9 Q6054.17 11561.4 6025.09 11561.4 M6025.09 11531.7 Q6071.57 11531.7 6096.02 11568.6 Q6120.65 11605.3 6120.65 11675.3 Q6120.65 11745.1 6096.02 11781.9 Q6071.57 11818.6 6025.09 11818.6 Q5978.61 11818.6 5953.98 11781.9 Q5929.54 11745.1 5929.54 11675.3 Q5929.54 11605.3 5953.98 11568.6 Q5978.61 11531.7 6025.09 11531.7 Z" fill="#000000" fill-rule="evenodd" fill-opacity="1" /><path clip-path="url(#clip7300)" d="M 0 0 M6161.2 11766.2 L6200.28 11766.2 L6200.28 11813.2 L6161.2 11813.2 L6161.2 11766.2 Z" fill="#000000" fill-rule="evenodd" fill-opacity="1" /><path clip-path="url(#clip7300)" d="M 0 0 M6241.2 11536.7 L6388.05 11536.7 L6388.05 11568.2 L6275.46 11568.2 L6275.46 11636 Q6283.61 11633.2 6291.76 11631.9 Q6299.91 11630.4 6308.06 11630.4 Q6354.35 11630.4 6381.39 11655.8 Q6408.43 11681.2 6408.43 11724.5 Q6408.43 11769.1 6380.65 11794 Q6352.87 11818.6 6302.31 11818.6 Q6284.91 11818.6 6266.76 11815.6 Q6248.8 11812.7 6229.54 11806.7 L6229.54 11769.1 Q6246.2 11778.2 6263.98 11782.7 Q6281.76 11787.1 6301.57 11787.1 Q6333.61 11787.1 6352.31 11770.3 Q6371.02 11753.4 6371.02 11724.5 Q6371.02 11695.6 6352.31 11678.8 Q6333.61 11661.9 6301.57 11661.9 Q6286.57 11661.9 6271.57 11665.3 Q6256.76 11668.6 6241.2 11675.6 L6241.2 11536.7 Z" fill="#000000" fill-rule="evenodd" fill-opacity="1" /><path clip-path="url(#clip7300)" d="M 0 0 M6439.54 11536.7 L6617.31 11536.7 L6617.31 11552.7 L6516.94 11813.2 L6477.87 11813.2 L6572.31 11568.2 L6439.54 11568.2 L6439.54 11536.7 Z" fill="#000000" fill-rule="evenodd" fill-opacity="1" /><path clip-path="url(#clip7300)" d="M 0 0 M6658.24 11536.7 L6805.09 11536.7 L6805.09 11568.2 L6692.5 11568.2 L6692.5 11636 Q6700.65 11633.2 6708.79 11631.9 Q6716.94 11630.4 6725.09 11630.4 Q6771.39 11630.4 6798.42 11655.8 Q6825.46 11681.2 6825.46 11724.5 Q6825.46 11769.1 6797.68 11794 Q6769.9 11818.6 6719.35 11818.6 Q6701.94 11818.6 6683.79 11815.6 Q6665.83 11812.7 6646.57 11806.7 L6646.57 11769.1 Q6663.24 11778.2 6681.02 11782.7 Q6698.79 11787.1 6718.61 11787.1 Q6750.65 11787.1 6769.35 11770.3 Q6788.05 11753.4 6788.05 11724.5 Q6788.05 11695.6 6769.35 11678.8 Q6750.65 11661.9 6718.61 11661.9 Q6703.61 11661.9 6688.61 11665.3 Q6673.79 11668.6 6658.24 11675.6 L6658.24 11536.7 Z" fill="#000000" fill-rule="evenodd" fill-opacity="1" /><path clip-path="url(#clip7300)" d="M 0 0 M10006.5 11561.4 Q9977.62 11561.4 9962.99 11589.9 Q9948.55 11618.2 9948.55 11675.3 Q9948.55 11732.1 9962.99 11760.6 Q9977.62 11789 10006.5 11789 Q10035.6 11789 10050 11760.6 Q10064.7 11732.1 10064.7 11675.3 Q10064.7 11618.2 10050 11589.9 Q10035.6 11561.4 10006.5 11561.4 M10006.5 11531.7 Q10053 11531.7 10077.4 11568.6 Q10102.1 11605.3 10102.1 11675.3 Q10102.1 11745.1 10077.4 11781.9 Q10053 11818.6 10006.5 11818.6 Q9960.03 11818.6 9935.4 11781.9 Q9910.95 11745.1 9910.95 11675.3 Q9910.95 11605.3 9935.4 11568.6 Q9960.03 11531.7 10006.5 11531.7 Z" fill="#000000" fill-rule="evenodd" fill-opacity="1" /><path clip-path="url(#clip7300)" d="M 0 0 M10142.6 11766.2 L10181.7 11766.2 L10181.7 11813.2 L10142.6 11813.2 L10142.6 11766.2 Z" fill="#000000" fill-rule="evenodd" fill-opacity="1" /><path clip-path="url(#clip7300)" d="M 0 0 M10222.6 11536.7 L10369.5 11536.7 L10369.5 11568.2 L10256.9 11568.2 L10256.9 11636 Q10265 11633.2 10273.2 11631.9 Q10281.3 11630.4 10289.5 11630.4 Q10335.8 11630.4 10362.8 11655.8 Q10389.8 11681.2 10389.8 11724.5 Q10389.8 11769.1 10362.1 11794 Q10334.3 11818.6 10283.7 11818.6 Q10266.3 11818.6 10248.2 11815.6 Q10230.2 11812.7 10211 11806.7 L10211 11769.1 Q10227.6 11778.2 10245.4 11782.7 Q10263.2 11787.1 10283 11787.1 Q10315 11787.1 10333.7 11770.3 Q10352.4 11753.4 10352.4 11724.5 Q10352.4 11695.6 10333.7 11678.8 Q10315 11661.9 10283 11661.9 Q10268 11661.9 10253 11665.3 Q10238.2 11668.6 10222.6 11675.6 L10222.6 11536.7 Z" fill="#000000" fill-rule="evenodd" fill-opacity="1" /><path clip-path="url(#clip7300)" d="M 0 0 M10510.4 11681.9 Q10483.7 11681.9 10468.4 11696.2 Q10453.2 11710.4 10453.2 11735.4 Q10453.2 11760.4 10468.4 11774.7 Q10483.7 11789 10510.4 11789 Q10537.1 11789 10552.4 11774.7 Q10567.8 11760.3 10567.8 11735.4 Q10567.8 11710.4 10552.4 11696.2 Q10537.2 11681.9 10510.4 11681.9 M10473 11666 Q10448.9 11660.1 10435.4 11643.6 Q10422.1 11627.1 10422.1 11603.4 Q10422.1 11570.3 10445.6 11551 Q10469.3 11531.7 10510.4 11531.7 Q10551.7 11531.7 10575.2 11551 Q10598.7 11570.3 10598.7 11603.4 Q10598.7 11627.1 10585.2 11643.6 Q10571.9 11660.1 10548 11666 Q10575 11672.3 10590 11690.6 Q10605.2 11709 10605.2 11735.4 Q10605.2 11775.6 10580.6 11797.1 Q10556.1 11818.6 10510.4 11818.6 Q10464.7 11818.6 10440 11797.1 Q10415.6 11775.6 10415.6 11735.4 Q10415.6 11709 10430.8 11690.6 Q10446 11672.3 10473 11666 M10459.3 11606.9 Q10459.3 11628.4 10472.6 11640.4 Q10486.1 11652.5 10510.4 11652.5 Q10534.5 11652.5 10548 11640.4 Q10561.7 11628.4 10561.7 11606.9 Q10561.7 11585.4 10548 11573.4 Q10534.5 11561.4 10510.4 11561.4 Q10486.1 11561.4 10472.6 11573.4 Q10459.3 11585.4 10459.3 11606.9 Z" fill="#000000" fill-rule="evenodd" fill-opacity="1" /><path clip-path="url(#clip7300)" d="M 0 0 M10725.8 11561.4 Q10696.9 11561.4 10682.2 11589.9 Q10667.8 11618.2 10667.8 11675.3 Q10667.8 11732.1 10682.2 11760.6 Q10696.9 11789 10725.8 11789 Q10754.8 11789 10769.3 11760.6 Q10783.9 11732.1 10783.9 11675.3 Q10783.9 11618.2 10769.3 11589.9 Q10754.8 11561.4 10725.8 11561.4 M10725.8 11531.7 Q10772.2 11531.7 10796.7 11568.6 Q10821.3 11605.3 10821.3 11675.3 Q10821.3 11745.1 10796.7 11781.9 Q10772.2 11818.6 10725.8 11818.6 Q10679.3 11818.6 10654.7 11781.9 Q10630.2 11745.1 10630.2 11675.3 Q10630.2 11605.3 10654.7 11568.6 Q10679.3 11531.7 10725.8 11531.7 Z" fill="#000000" fill-rule="evenodd" fill-opacity="1" /><path clip-path="url(#clip7300)" d="M 0 0 M13999.1 11561.4 Q13970.2 11561.4 13955.6 11589.9 Q13941.2 11618.2 13941.2 11675.3 Q13941.2 11732.1 13955.6 11760.6 Q13970.2 11789 13999.1 11789 Q14028.2 11789 14042.6 11760.6 Q14057.3 11732.1 14057.3 11675.3 Q14057.3 11618.2 14042.6 11589.9 Q14028.2 11561.4 13999.1 11561.4 M13999.1 11531.7 Q14045.6 11531.7 14070.1 11568.6 Q14094.7 11605.3 14094.7 11675.3 Q14094.7 11745.1 14070.1 11781.9 Q14045.6 11818.6 13999.1 11818.6 Q13952.6 11818.6 13928 11781.9 Q13903.6 11745.1 13903.6 11675.3 Q13903.6 11605.3 13928 11568.6 Q13952.6 11531.7 13999.1 11531.7 Z" fill="#000000" fill-rule="evenodd" fill-opacity="1" /><path clip-path="url(#clip7300)" d="M 0 0 M14135.2 11766.2 L14174.3 11766.2 L14174.3 11813.2 L14135.2 11813.2 L14135.2 11766.2 Z" fill="#000000" fill-rule="evenodd" fill-opacity="1" /><path clip-path="url(#clip7300)" d="M 0 0 M14215.2 11536.7 L14362.1 11536.7 L14362.1 11568.2 L14249.5 11568.2 L14249.5 11636 Q14257.6 11633.2 14265.8 11631.9 Q14273.9 11630.4 14282.1 11630.4 Q14328.4 11630.4 14355.4 11655.8 Q14382.5 11681.2 14382.5 11724.5 Q14382.5 11769.1 14354.7 11794 Q14326.9 11818.6 14276.3 11818.6 Q14258.9 11818.6 14240.8 11815.6 Q14222.8 11812.7 14203.6 11806.7 L14203.6 11769.1 Q14220.2 11778.2 14238 11782.7 Q14255.8 11787.1 14275.6 11787.1 Q14307.6 11787.1 14326.3 11770.3 Q14345.1 11753.4 14345.1 11724.5 Q14345.1 11695.6 14326.3 11678.8 Q14307.6 11661.9 14275.6 11661.9 Q14260.6 11661.9 14245.6 11665.3 Q14230.8 11668.6 14215.2 11675.6 L14215.2 11536.7 Z" fill="#000000" fill-rule="evenodd" fill-opacity="1" /><path clip-path="url(#clip7300)" d="M 0 0 M14503 11681.9 Q14476.3 11681.9 14461 11696.2 Q14445.8 11710.4 14445.8 11735.4 Q14445.8 11760.4 14461 11774.7 Q14476.3 11789 14503 11789 Q14529.7 11789 14545.1 11774.7 Q14560.4 11760.3 14560.4 11735.4 Q14560.4 11710.4 14545.1 11696.2 Q14529.9 11681.9 14503 11681.9 M14465.6 11666 Q14441.5 11660.1 14428 11643.6 Q14414.7 11627.1 14414.7 11603.4 Q14414.7 11570.3 14438.2 11551 Q14461.9 11531.7 14503 11531.7 Q14544.3 11531.7 14567.8 11551 Q14591.3 11570.3 14591.3 11603.4 Q14591.3 11627.1 14577.8 11643.6 Q14564.5 11660.1 14540.6 11666 Q14567.6 11672.3 14582.6 11690.6 Q14597.8 11709 14597.8 11735.4 Q14597.8 11775.6 14573.2 11797.1 Q14548.8 11818.6 14503 11818.6 Q14457.3 11818.6 14432.6 11797.1 Q14408.2 11775.6 14408.2 11735.4 Q14408.2 11709 14423.4 11690.6 Q14438.6 11672.3 14465.6 11666 M14451.9 11606.9 Q14451.9 11628.4 14465.2 11640.4 Q14478.8 11652.5 14503 11652.5 Q14527.1 11652.5 14540.6 11640.4 Q14554.3 11628.4 14554.3 11606.9 Q14554.3 11585.4 14540.6 11573.4 Q14527.1 11561.4 14503 11561.4 Q14478.8 11561.4 14465.2 11573.4 Q14451.9 11585.4 14451.9 11606.9 Z" fill="#000000" fill-rule="evenodd" fill-opacity="1" /><path clip-path="url(#clip7300)" d="M 0 0 M14638.8 11536.7 L14785.6 11536.7 L14785.6 11568.2 L14673 11568.2 L14673 11636 Q14681.2 11633.2 14689.3 11631.9 Q14697.5 11630.4 14705.6 11630.4 Q14751.9 11630.4 14778.9 11655.8 Q14806 11681.2 14806 11724.5 Q14806 11769.1 14778.2 11794 Q14750.4 11818.6 14699.9 11818.6 Q14682.5 11818.6 14664.3 11815.6 Q14646.3 11812.7 14627.1 11806.7 L14627.1 11769.1 Q14643.8 11778.2 14661.5 11782.7 Q14679.3 11787.1 14699.1 11787.1 Q14731.2 11787.1 14749.9 11770.3 Q14768.6 11753.4 14768.6 11724.5 Q14768.6 11695.6 14749.9 11678.8 Q14731.2 11661.9 14699.1 11661.9 Q14684.1 11661.9 14669.1 11665.3 Q14654.3 11668.6 14638.8 11675.6 L14638.8 11536.7 Z" fill="#000000" fill-rule="evenodd" fill-opacity="1" /><path clip-path="url(#clip7300)" d="M 0 0 M17984.2 11561.4 Q17955.3 11561.4 17940.6 11589.9 Q17926.2 11618.2 17926.2 11675.3 Q17926.2 11732.1 17940.6 11760.6 Q17955.3 11789 17984.2 11789 Q18013.2 11789 18027.7 11760.6 Q18042.3 11732.1 18042.3 11675.3 Q18042.3 11618.2 18027.7 11589.9 Q18013.2 11561.4 17984.2 11561.4 M17984.2 11531.7 Q18030.6 11531.7 18055.1 11568.6 Q18079.7 11605.3 18079.7 11675.3 Q18079.7 11745.1 18055.1 11781.9 Q18030.6 11818.6 17984.2 11818.6 Q17937.7 11818.6 17913 11781.9 Q17888.6 11745.1 17888.6 11675.3 Q17888.6 11605.3 17913 11568.6 Q17937.7 11531.7 17984.2 11531.7 Z" fill="#000000" fill-rule="evenodd" fill-opacity="1" /><path clip-path="url(#clip7300)" d="M 0 0 M18120.3 11766.2 L18159.3 11766.2 L18159.3 11813.2 L18120.3 11813.2 L18120.3 11766.2 Z" fill="#000000" fill-rule="evenodd" fill-opacity="1" /><path clip-path="url(#clip7300)" d="M 0 0 M18200.3 11536.7 L18347.1 11536.7 L18347.1 11568.2 L18234.5 11568.2 L18234.5 11636 Q18242.7 11633.2 18250.8 11631.9 Q18259 11630.4 18267.1 11630.4 Q18313.4 11630.4 18340.4 11655.8 Q18367.5 11681.2 18367.5 11724.5 Q18367.5 11769.1 18339.7 11794 Q18311.9 11818.6 18261.4 11818.6 Q18244 11818.6 18225.8 11815.6 Q18207.9 11812.7 18188.6 11806.7 L18188.6 11769.1 Q18205.3 11778.2 18223 11782.7 Q18240.8 11787.1 18260.6 11787.1 Q18292.7 11787.1 18311.4 11770.3 Q18330.1 11753.4 18330.1 11724.5 Q18330.1 11695.6 18311.4 11678.8 Q18292.7 11661.9 18260.6 11661.9 Q18245.6 11661.9 18230.6 11665.3 Q18215.8 11668.6 18200.3 11675.6 L18200.3 11536.7 Z" fill="#000000" fill-rule="evenodd" fill-opacity="1" /><path clip-path="url(#clip7300)" d="M 0 0 M18409.2 11807.5 L18409.2 11773.4 Q18423.2 11780.1 18437.7 11783.6 Q18452.1 11787.1 18466 11787.1 Q18503 11787.1 18522.5 11762.3 Q18542.1 11737.3 18544.9 11686.5 Q18534.2 11702.5 18517.7 11711 Q18501.2 11719.5 18481.2 11719.5 Q18439.7 11719.5 18415.4 11694.5 Q18391.4 11669.3 18391.4 11625.8 Q18391.4 11583.2 18416.6 11557.5 Q18441.7 11531.7 18483.6 11531.7 Q18531.6 11531.7 18556.7 11568.6 Q18582.1 11605.3 18582.1 11675.3 Q18582.1 11740.6 18551 11779.7 Q18520.1 11818.6 18467.7 11818.6 Q18453.6 11818.6 18439.2 11815.8 Q18424.7 11813 18409.2 11807.5 M18483.6 11690.3 Q18508.8 11690.3 18523.4 11673 Q18538.2 11655.8 18538.2 11625.8 Q18538.2 11596 18523.4 11578.8 Q18508.8 11561.4 18483.6 11561.4 Q18458.4 11561.4 18443.6 11578.8 Q18429 11596 18429 11625.8 Q18429 11655.8 18443.6 11673 Q18458.4 11690.3 18483.6 11690.3 Z" fill="#000000" fill-rule="evenodd" fill-opacity="1" /><path clip-path="url(#clip7300)" d="M 0 0 M18702.7 11561.4 Q18673.8 11561.4 18659.1 11589.9 Q18644.7 11618.2 18644.7 11675.3 Q18644.7 11732.1 18659.1 11760.6 Q18673.8 11789 18702.7 11789 Q18731.7 11789 18746.2 11760.6 Q18760.8 11732.1 18760.8 11675.3 Q18760.8 11618.2 18746.2 11589.9 Q18731.7 11561.4 18702.7 11561.4 M18702.7 11531.7 Q18749.1 11531.7 18773.6 11568.6 Q18798.2 11605.3 18798.2 11675.3 Q18798.2 11745.1 18773.6 11781.9 Q18749.1 11818.6 18702.7 11818.6 Q18656.2 11818.6 18631.6 11781.9 Q18607.1 11745.1 18607.1 11675.3 Q18607.1 11605.3 18631.6 11568.6 Q18656.2 11531.7 18702.7 11531.7 Z" fill="#000000" fill-rule="evenodd" fill-opacity="1" /><path clip-path="url(#clip7300)" d="M 0 0 M1109.53 7704.03 Q1080.64 7704.03 1066.01 7732.55 Q1051.56 7760.88 1051.56 7817.92 Q1051.56 7874.77 1066.01 7903.29 Q1080.64 7931.62 1109.53 7931.62 Q1138.6 7931.62 1153.04 7903.29 Q1167.67 7874.77 1167.67 7817.92 Q1167.67 7760.88 1153.04 7732.55 Q1138.6 7704.03 1109.53 7704.03 M1109.53 7674.4 Q1156.01 7674.4 1180.45 7711.25 Q1205.08 7747.92 1205.08 7817.92 Q1205.08 7887.73 1180.45 7924.59 Q1156.01 7961.25 1109.53 7961.25 Q1063.04 7961.25 1038.41 7924.59 Q1013.97 7887.73 1013.97 7817.92 Q1013.97 7747.92 1038.41 7711.25 Q1063.04 7674.4 1109.53 7674.4 Z" fill="#000000" fill-rule="evenodd" fill-opacity="1" /><path clip-path="url(#clip7300)" d="M 0 0 M1245.64 7908.85 L1284.71 7908.85 L1284.71 7955.88 L1245.64 7955.88 L1245.64 7908.85 Z" fill="#000000" fill-rule="evenodd" fill-opacity="1" /><path clip-path="url(#clip7300)" d="M 0 0 M1409.89 7802.74 Q1384.71 7802.74 1369.89 7819.96 Q1355.26 7837.18 1355.26 7867.18 Q1355.26 7896.99 1369.89 7914.4 Q1384.71 7931.62 1409.89 7931.62 Q1435.08 7931.62 1449.71 7914.4 Q1464.52 7896.99 1464.52 7867.18 Q1464.52 7837.18 1449.71 7819.96 Q1435.08 7802.74 1409.89 7802.74 M1484.15 7685.51 L1484.15 7719.59 Q1470.08 7712.92 1455.63 7709.4 Q1441.38 7705.88 1427.3 7705.88 Q1390.26 7705.88 1370.63 7730.88 Q1351.19 7755.88 1348.41 7806.44 Q1359.34 7790.33 1375.82 7781.81 Q1392.3 7773.11 1412.12 7773.11 Q1453.78 7773.11 1477.86 7798.48 Q1502.12 7823.66 1502.12 7867.18 Q1502.12 7909.77 1476.93 7935.51 Q1451.75 7961.25 1409.89 7961.25 Q1361.93 7961.25 1336.56 7924.59 Q1311.19 7887.73 1311.19 7817.92 Q1311.19 7752.37 1342.3 7713.48 Q1373.41 7674.4 1425.82 7674.4 Q1439.89 7674.4 1454.15 7677.18 Q1468.6 7679.96 1484.15 7685.51 Z" fill="#000000" fill-rule="evenodd" fill-opacity="1" /><path clip-path="url(#clip7300)" d="M 0 0 M1622.67 7704.03 Q1593.78 7704.03 1579.15 7732.55 Q1564.71 7760.88 1564.71 7817.92 Q1564.71 7874.77 1579.15 7903.29 Q1593.78 7931.62 1622.67 7931.62 Q1651.74 7931.62 1666.19 7903.29 Q1680.82 7874.77 1680.82 7817.92 Q1680.82 7760.88 1666.19 7732.55 Q1651.74 7704.03 1622.67 7704.03 M1622.67 7674.4 Q1669.15 7674.4 1693.6 7711.25 Q1718.23 7747.92 1718.23 7817.92 Q1718.23 7887.73 1693.6 7924.59 Q1669.15 7961.25 1622.67 7961.25 Q1576.19 7961.25 1551.56 7924.59 Q1527.12 7887.73 1527.12 7817.92 Q1527.12 7747.92 1551.56 7711.25 Q1576.19 7674.4 1622.67 7674.4 Z" fill="#000000" fill-rule="evenodd" fill-opacity="1" /><path clip-path="url(#clip7300)" d="M 0 0 M1109.53 7704.03 Q1080.64 7704.03 1066.01 7732.55 Q1051.56 7760.88 1051.56 7817.92 Q1051.56 7874.77 1066.01 7903.29 Q1080.64 7931.62 1109.53 7931.62 Q1138.6 7931.62 1153.04 7903.29 Q1167.67 7874.77 1167.67 7817.92 Q1167.67 7760.88 1153.04 7732.55 Q1138.6 7704.03 1109.53 7704.03 M1109.53 7674.4 Q1156.01 7674.4 1180.45 7711.25 Q1205.08 7747.92 1205.08 7817.92 Q1205.08 7887.73 1180.45 7924.59 Q1156.01 7961.25 1109.53 7961.25 Q1063.04 7961.25 1038.41 7924.59 Q1013.97 7887.73 1013.97 7817.92 Q1013.97 7747.92 1038.41 7711.25 Q1063.04 7674.4 1109.53 7674.4 Z" fill="#000000" fill-rule="evenodd" fill-opacity="1" /><path clip-path="url(#clip7300)" d="M 0 0 M1245.64 7908.85 L1284.71 7908.85 L1284.71 7955.88 L1245.64 7955.88 L1245.64 7908.85 Z" fill="#000000" fill-rule="evenodd" fill-opacity="1" /><path clip-path="url(#clip7300)" d="M 0 0 M1409.89 7802.74 Q1384.71 7802.74 1369.89 7819.96 Q1355.26 7837.18 1355.26 7867.18 Q1355.26 7896.99 1369.89 7914.4 Q1384.71 7931.62 1409.89 7931.62 Q1435.08 7931.62 1449.71 7914.4 Q1464.52 7896.99 1464.52 7867.18 Q1464.52 7837.18 1449.71 7819.96 Q1435.08 7802.74 1409.89 7802.74 M1484.15 7685.51 L1484.15 7719.59 Q1470.08 7712.92 1455.63 7709.4 Q1441.38 7705.88 1427.3 7705.88 Q1390.26 7705.88 1370.63 7730.88 Q1351.19 7755.88 1348.41 7806.44 Q1359.34 7790.33 1375.82 7781.81 Q1392.3 7773.11 1412.12 7773.11 Q1453.78 7773.11 1477.86 7798.48 Q1502.12 7823.66 1502.12 7867.18 Q1502.12 7909.77 1476.93 7935.51 Q1451.75 7961.25 1409.89 7961.25 Q1361.93 7961.25 1336.56 7924.59 Q1311.19 7887.73 1311.19 7817.92 Q1311.19 7752.37 1342.3 7713.48 Q1373.41 7674.4 1425.82 7674.4 Q1439.89 7674.4 1454.15 7677.18 Q1468.6 7679.96 1484.15 7685.51 Z" fill="#000000" fill-rule="evenodd" fill-opacity="1" /><path clip-path="url(#clip7300)" d="M 0 0 M1622.67 7704.03 Q1593.78 7704.03 1579.15 7732.55 Q1564.71 7760.88 1564.71 7817.92 Q1564.71 7874.77 1579.15 7903.29 Q1593.78 7931.62 1622.67 7931.62 Q1651.74 7931.62 1666.19 7903.29 Q1680.82 7874.77 1680.82 7817.92 Q1680.82 7760.88 1666.19 7732.55 Q1651.74 7704.03 1622.67 7704.03 M1622.67 7674.4 Q1669.15 7674.4 1693.6 7711.25 Q1718.23 7747.92 1718.23 7817.92 Q1718.23 7887.73 1693.6 7924.59 Q1669.15 7961.25 1622.67 7961.25 Q1576.19 7961.25 1551.56 7924.59 Q1527.12 7887.73 1527.12 7817.92 Q1527.12 7747.92 1551.56 7711.25 Q1576.19 7674.4 1622.67 7674.4 Z" fill="#000000" fill-rule="evenodd" fill-opacity="1" /><path clip-path="url(#clip7300)" d="M 0 0 M1119.34 6712.23 Q1090.45 6712.23 1075.82 6740.75 Q1061.38 6769.08 1061.38 6826.12 Q1061.38 6882.97 1075.82 6911.49 Q1090.45 6939.82 1119.34 6939.82 Q1148.41 6939.82 1162.86 6911.49 Q1177.49 6882.97 1177.49 6826.12 Q1177.49 6769.08 1162.86 6740.75 Q1148.41 6712.23 1119.34 6712.23 M1119.34 6682.6 Q1165.82 6682.6 1190.27 6719.45 Q1214.89 6756.12 1214.89 6826.12 Q1214.89 6895.93 1190.27 6932.78 Q1165.82 6969.45 1119.34 6969.45 Q1072.86 6969.45 1048.23 6932.78 Q1023.78 6895.93 1023.78 6826.12 Q1023.78 6756.12 1048.23 6719.45 Q1072.86 6682.6 1119.34 6682.6 Z" fill="#000000" fill-rule="evenodd" fill-opacity="1" /><path clip-path="url(#clip7300)" d="M 0 0 M1255.45 6917.04 L1294.52 6917.04 L1294.52 6964.08 L1255.45 6964.08 L1255.45 6917.04 Z" fill="#000000" fill-rule="evenodd" fill-opacity="1" /><path clip-path="url(#clip7300)" d="M 0 0 M1419.71 6810.93 Q1394.52 6810.93 1379.71 6828.15 Q1365.08 6845.38 1365.08 6875.37 Q1365.08 6905.19 1379.71 6922.6 Q1394.52 6939.82 1419.71 6939.82 Q1444.89 6939.82 1459.52 6922.6 Q1474.34 6905.19 1474.34 6875.37 Q1474.34 6845.38 1459.52 6828.15 Q1444.89 6810.93 1419.71 6810.93 M1493.97 6693.71 L1493.97 6727.78 Q1479.89 6721.12 1465.45 6717.6 Q1451.19 6714.08 1437.12 6714.08 Q1400.08 6714.08 1380.45 6739.08 Q1361.01 6764.08 1358.23 6814.63 Q1369.15 6798.52 1385.63 6790.01 Q1402.12 6781.3 1421.93 6781.3 Q1463.6 6781.3 1487.67 6806.67 Q1511.93 6831.86 1511.93 6875.37 Q1511.93 6917.97 1486.75 6943.71 Q1461.56 6969.45 1419.71 6969.45 Q1371.75 6969.45 1346.38 6932.78 Q1321.01 6895.93 1321.01 6826.12 Q1321.01 6760.56 1352.12 6721.67 Q1383.23 6682.6 1435.63 6682.6 Q1449.71 6682.6 1463.97 6685.38 Q1478.41 6688.15 1493.97 6693.71 Z" fill="#000000" fill-rule="evenodd" fill-opacity="1" /><path clip-path="url(#clip7300)" d="M 0 0 M1558.97 6932.6 L1620.08 6932.6 L1620.08 6721.67 L1553.6 6735.01 L1553.6 6700.93 L1619.71 6687.6 L1657.11 6687.6 L1657.11 6932.6 L1718.23 6932.6 L1718.23 6964.08 L1558.97 6964.08 L1558.97 6932.6 Z" fill="#000000" fill-rule="evenodd" fill-opacity="1" /><path clip-path="url(#clip7300)" d="M 0 0 M1122.3 5720.42 Q1093.41 5720.42 1078.78 5748.94 Q1064.34 5777.27 1064.34 5834.31 Q1064.34 5891.16 1078.78 5919.68 Q1093.41 5948.01 1122.3 5948.01 Q1151.38 5948.01 1165.82 5919.68 Q1180.45 5891.16 1180.45 5834.31 Q1180.45 5777.27 1165.82 5748.94 Q1151.38 5720.42 1122.3 5720.42 M1122.3 5690.79 Q1168.78 5690.79 1193.23 5727.65 Q1217.86 5764.31 1217.86 5834.31 Q1217.86 5904.13 1193.23 5940.98 Q1168.78 5977.64 1122.3 5977.64 Q1075.82 5977.64 1051.19 5940.98 Q1026.75 5904.13 1026.75 5834.31 Q1026.75 5764.31 1051.19 5727.65 Q1075.82 5690.79 1122.3 5690.79 Z" fill="#000000" fill-rule="evenodd" fill-opacity="1" /><path clip-path="url(#clip7300)" d="M 0 0 M1258.41 5925.24 L1297.49 5925.24 L1297.49 5972.27 L1258.41 5972.27 L1258.41 5925.24 Z" fill="#000000" fill-rule="evenodd" fill-opacity="1" /><path clip-path="url(#clip7300)" d="M 0 0 M1422.67 5819.13 Q1397.49 5819.13 1382.67 5836.35 Q1368.04 5853.57 1368.04 5883.57 Q1368.04 5913.39 1382.67 5930.79 Q1397.49 5948.01 1422.67 5948.01 Q1447.86 5948.01 1462.49 5930.79 Q1477.3 5913.39 1477.3 5883.57 Q1477.3 5853.57 1462.49 5836.35 Q1447.86 5819.13 1422.67 5819.13 M1496.93 5701.9 L1496.93 5735.98 Q1482.86 5729.31 1468.41 5725.79 Q1454.15 5722.27 1440.08 5722.27 Q1403.04 5722.27 1383.41 5747.27 Q1363.97 5772.27 1361.19 5822.83 Q1372.12 5806.72 1388.6 5798.2 Q1405.08 5789.5 1424.89 5789.5 Q1466.56 5789.5 1490.63 5814.87 Q1514.89 5840.05 1514.89 5883.57 Q1514.89 5926.16 1489.71 5951.9 Q1464.52 5977.64 1422.67 5977.64 Q1374.71 5977.64 1349.34 5940.98 Q1323.97 5904.13 1323.97 5834.31 Q1323.97 5768.76 1355.08 5729.87 Q1386.19 5690.79 1438.6 5690.79 Q1452.67 5690.79 1466.93 5693.57 Q1481.38 5696.35 1496.93 5701.9 Z" fill="#000000" fill-rule="evenodd" fill-opacity="1" /><path clip-path="url(#clip7300)" d="M 0 0 M1587.67 5940.79 L1718.23 5940.79 L1718.23 5972.27 L1542.67 5972.27 L1542.67 5940.79 Q1563.97 5918.76 1600.63 5881.72 Q1637.49 5844.5 1646.93 5833.76 Q1664.89 5813.57 1671.93 5799.68 Q1679.15 5785.61 1679.15 5772.09 Q1679.15 5750.05 1663.6 5736.16 Q1648.23 5722.27 1623.41 5722.27 Q1605.82 5722.27 1586.19 5728.39 Q1566.74 5734.5 1544.52 5746.9 L1544.52 5709.13 Q1567.12 5700.05 1586.74 5695.42 Q1606.37 5690.79 1622.67 5690.79 Q1665.63 5690.79 1691.19 5712.28 Q1716.74 5733.76 1716.74 5769.68 Q1716.74 5786.72 1710.26 5802.09 Q1703.97 5817.27 1687.11 5838.02 Q1682.49 5843.39 1657.67 5869.13 Q1632.86 5894.68 1587.67 5940.79 Z" fill="#000000" fill-rule="evenodd" fill-opacity="1" /><path clip-path="url(#clip7300)" d="M 0 0 M1114.71 4728.62 Q1085.82 4728.62 1071.19 4757.14 Q1056.75 4785.47 1056.75 4842.51 Q1056.75 4899.36 1071.19 4927.88 Q1085.82 4956.21 1114.71 4956.21 Q1143.78 4956.21 1158.23 4927.88 Q1172.86 4899.36 1172.86 4842.51 Q1172.86 4785.47 1158.23 4757.14 Q1143.78 4728.62 1114.71 4728.62 M1114.71 4698.99 Q1161.19 4698.99 1185.64 4735.84 Q1210.27 4772.51 1210.27 4842.51 Q1210.27 4912.32 1185.64 4949.17 Q1161.19 4985.84 1114.71 4985.84 Q1068.23 4985.84 1043.6 4949.17 Q1019.16 4912.32 1019.16 4842.51 Q1019.16 4772.51 1043.6 4735.84 Q1068.23 4698.99 1114.71 4698.99 Z" fill="#000000" fill-rule="evenodd" fill-opacity="1" /><path clip-path="url(#clip7300)" d="M 0 0 M1250.82 4933.43 L1289.89 4933.43 L1289.89 4980.47 L1250.82 4980.47 L1250.82 4933.43 Z" fill="#000000" fill-rule="evenodd" fill-opacity="1" /><path clip-path="url(#clip7300)" d="M 0 0 M1415.08 4827.32 Q1389.89 4827.32 1375.08 4844.54 Q1360.45 4861.77 1360.45 4891.77 Q1360.45 4921.58 1375.08 4938.99 Q1389.89 4956.21 1415.08 4956.21 Q1440.26 4956.21 1454.89 4938.99 Q1469.71 4921.58 1469.71 4891.77 Q1469.71 4861.77 1454.89 4844.54 Q1440.26 4827.32 1415.08 4827.32 M1489.34 4710.1 L1489.34 4744.17 Q1475.26 4737.51 1460.82 4733.99 Q1446.56 4730.47 1432.49 4730.47 Q1395.45 4730.47 1375.82 4755.47 Q1356.38 4780.47 1353.6 4831.03 Q1364.52 4814.91 1381.01 4806.4 Q1397.49 4797.69 1417.3 4797.69 Q1458.97 4797.69 1483.04 4823.06 Q1507.3 4848.25 1507.3 4891.77 Q1507.3 4934.36 1482.12 4960.1 Q1456.93 4985.84 1415.08 4985.84 Q1367.12 4985.84 1341.75 4949.17 Q1316.38 4912.32 1316.38 4842.51 Q1316.38 4776.95 1347.49 4738.06 Q1378.6 4698.99 1431 4698.99 Q1445.08 4698.99 1459.34 4701.77 Q1473.78 4704.54 1489.34 4710.1 Z" fill="#000000" fill-rule="evenodd" fill-opacity="1" /><path clip-path="url(#clip7300)" d="M 0 0 M1661.19 4831.4 Q1688.04 4837.14 1703.04 4855.28 Q1718.23 4873.43 1718.23 4900.1 Q1718.23 4941.02 1690.08 4963.43 Q1661.93 4985.84 1610.08 4985.84 Q1592.67 4985.84 1574.15 4982.32 Q1555.82 4978.99 1536.19 4972.14 L1536.19 4936.02 Q1551.75 4945.1 1570.26 4949.73 Q1588.78 4954.36 1608.97 4954.36 Q1644.15 4954.36 1662.49 4940.47 Q1681 4926.58 1681 4900.1 Q1681 4875.65 1663.78 4861.95 Q1646.74 4848.06 1616.19 4848.06 L1583.97 4848.06 L1583.97 4817.32 L1617.67 4817.32 Q1645.26 4817.32 1659.89 4806.4 Q1674.52 4795.28 1674.52 4774.54 Q1674.52 4753.25 1659.34 4741.95 Q1644.34 4730.47 1616.19 4730.47 Q1600.82 4730.47 1583.23 4733.8 Q1565.63 4737.14 1544.52 4744.17 L1544.52 4710.84 Q1565.82 4704.92 1584.34 4701.95 Q1603.04 4698.99 1619.52 4698.99 Q1662.11 4698.99 1686.93 4718.43 Q1711.74 4737.69 1711.74 4770.66 Q1711.74 4793.62 1698.6 4809.54 Q1685.45 4825.28 1661.19 4831.4 Z" fill="#000000" fill-rule="evenodd" fill-opacity="1" /><path clip-path="url(#clip7300)" d="M 0 0 M1105.64 3736.81 Q1076.75 3736.81 1062.12 3765.33 Q1047.67 3793.67 1047.67 3850.7 Q1047.67 3907.55 1062.12 3936.07 Q1076.75 3964.41 1105.64 3964.41 Q1134.71 3964.41 1149.15 3936.07 Q1163.78 3907.55 1163.78 3850.7 Q1163.78 3793.67 1149.15 3765.33 Q1134.71 3736.81 1105.64 3736.81 M1105.64 3707.18 Q1152.12 3707.18 1176.56 3744.04 Q1201.19 3780.7 1201.19 3850.7 Q1201.19 3920.52 1176.56 3957.37 Q1152.12 3994.03 1105.64 3994.03 Q1059.16 3994.03 1034.53 3957.37 Q1010.08 3920.52 1010.08 3850.7 Q1010.08 3780.7 1034.53 3744.04 Q1059.16 3707.18 1105.64 3707.18 Z" fill="#000000" fill-rule="evenodd" fill-opacity="1" /><path clip-path="url(#clip7300)" d="M 0 0 M1241.75 3941.63 L1280.82 3941.63 L1280.82 3988.66 L1241.75 3988.66 L1241.75 3941.63 Z" fill="#000000" fill-rule="evenodd" fill-opacity="1" /><path clip-path="url(#clip7300)" d="M 0 0 M1406.01 3835.52 Q1380.82 3835.52 1366.01 3852.74 Q1351.38 3869.96 1351.38 3899.96 Q1351.38 3929.78 1366.01 3947.18 Q1380.82 3964.41 1406.01 3964.41 Q1431.19 3964.41 1445.82 3947.18 Q1460.63 3929.78 1460.63 3899.96 Q1460.63 3869.96 1445.82 3852.74 Q1431.19 3835.52 1406.01 3835.52 M1480.26 3718.3 L1480.26 3752.37 Q1466.19 3745.7 1451.75 3742.18 Q1437.49 3738.67 1423.41 3738.67 Q1386.38 3738.67 1366.75 3763.67 Q1347.3 3788.67 1344.52 3839.22 Q1355.45 3823.11 1371.93 3814.59 Q1388.41 3805.89 1408.23 3805.89 Q1449.89 3805.89 1473.97 3831.26 Q1498.23 3856.44 1498.23 3899.96 Q1498.23 3942.55 1473.04 3968.29 Q1447.86 3994.03 1406.01 3994.03 Q1358.04 3994.03 1332.67 3957.37 Q1307.3 3920.52 1307.3 3850.7 Q1307.3 3785.15 1338.41 3746.26 Q1369.52 3707.18 1421.93 3707.18 Q1436 3707.18 1450.26 3709.96 Q1464.71 3712.74 1480.26 3718.3 Z" fill="#000000" fill-rule="evenodd" fill-opacity="1" /><path clip-path="url(#clip7300)" d="M 0 0 M1641.56 3744.78 L1547.12 3892.37 L1641.56 3892.37 L1641.56 3744.78 M1631.74 3712.18 L1678.78 3712.18 L1678.78 3892.37 L1718.23 3892.37 L1718.23 3923.48 L1678.78 3923.48 L1678.78 3988.66 L1641.56 3988.66 L1641.56 3923.48 L1516.75 3923.48 L1516.75 3887.37 L1631.74 3712.18 Z" fill="#000000" fill-rule="evenodd" fill-opacity="1" /><path clip-path="url(#clip7300)" d="M 0 0 M1117.49 2745.01 Q1088.6 2745.01 1073.97 2773.53 Q1059.53 2801.86 1059.53 2858.9 Q1059.53 2915.75 1073.97 2944.27 Q1088.6 2972.6 1117.49 2972.6 Q1146.56 2972.6 1161.01 2944.27 Q1175.64 2915.75 1175.64 2858.9 Q1175.64 2801.86 1161.01 2773.53 Q1146.56 2745.01 1117.49 2745.01 M1117.49 2715.38 Q1163.97 2715.38 1188.41 2752.23 Q1213.04 2788.9 1213.04 2858.9 Q1213.04 2928.71 1188.41 2965.56 Q1163.97 3002.23 1117.49 3002.23 Q1071.01 3002.23 1046.38 2965.56 Q1021.93 2928.71 1021.93 2858.9 Q1021.93 2788.9 1046.38 2752.23 Q1071.01 2715.38 1117.49 2715.38 Z" fill="#000000" fill-rule="evenodd" fill-opacity="1" /><path clip-path="url(#clip7300)" d="M 0 0 M1253.6 2949.82 L1292.67 2949.82 L1292.67 2996.86 L1253.6 2996.86 L1253.6 2949.82 Z" fill="#000000" fill-rule="evenodd" fill-opacity="1" /><path clip-path="url(#clip7300)" d="M 0 0 M1417.86 2843.71 Q1392.67 2843.71 1377.86 2860.93 Q1363.23 2878.16 1363.23 2908.16 Q1363.23 2937.97 1377.86 2955.38 Q1392.67 2972.6 1417.86 2972.6 Q1443.04 2972.6 1457.67 2955.38 Q1472.49 2937.97 1472.49 2908.16 Q1472.49 2878.16 1457.67 2860.93 Q1443.04 2843.71 1417.86 2843.71 M1492.12 2726.49 L1492.12 2760.56 Q1478.04 2753.9 1463.6 2750.38 Q1449.34 2746.86 1435.26 2746.86 Q1398.23 2746.86 1378.6 2771.86 Q1359.15 2796.86 1356.38 2847.42 Q1367.3 2831.31 1383.78 2822.79 Q1400.26 2814.08 1420.08 2814.08 Q1461.75 2814.08 1485.82 2839.45 Q1510.08 2864.64 1510.08 2908.16 Q1510.08 2950.75 1484.89 2976.49 Q1459.71 3002.23 1417.86 3002.23 Q1369.89 3002.23 1344.52 2965.56 Q1319.15 2928.71 1319.15 2858.9 Q1319.15 2793.34 1350.26 2754.45 Q1381.38 2715.38 1433.78 2715.38 Q1447.86 2715.38 1462.12 2718.16 Q1476.56 2720.94 1492.12 2726.49 Z" fill="#000000" fill-rule="evenodd" fill-opacity="1" /><path clip-path="url(#clip7300)" d="M 0 0 M1551 2720.38 L1697.86 2720.38 L1697.86 2751.86 L1585.26 2751.86 L1585.26 2819.64 Q1593.41 2816.86 1601.56 2815.56 Q1609.71 2814.08 1617.86 2814.08 Q1664.15 2814.08 1691.19 2839.45 Q1718.23 2864.82 1718.23 2908.16 Q1718.23 2952.79 1690.45 2977.6 Q1662.67 3002.23 1612.12 3002.23 Q1594.71 3002.23 1576.56 2999.27 Q1558.6 2996.3 1539.34 2990.38 L1539.34 2952.79 Q1556 2961.86 1573.78 2966.3 Q1591.56 2970.75 1611.37 2970.75 Q1643.41 2970.75 1662.11 2953.9 Q1680.82 2937.05 1680.82 2908.16 Q1680.82 2879.27 1662.11 2862.42 Q1643.41 2845.56 1611.37 2845.56 Q1596.37 2845.56 1581.37 2848.9 Q1566.56 2852.23 1551 2859.27 L1551 2720.38 Z" fill="#000000" fill-rule="evenodd" fill-opacity="1" /><path clip-path="url(#clip7300)" d="M 0 0 M1108.23 1753.2 Q1079.34 1753.2 1064.71 1781.72 Q1050.27 1810.06 1050.27 1867.09 Q1050.27 1923.94 1064.71 1952.46 Q1079.34 1980.8 1108.23 1980.8 Q1137.3 1980.8 1151.75 1952.46 Q1166.38 1923.94 1166.38 1867.09 Q1166.38 1810.06 1151.75 1781.72 Q1137.3 1753.2 1108.23 1753.2 M1108.23 1723.58 Q1154.71 1723.58 1179.15 1760.43 Q1203.78 1797.09 1203.78 1867.09 Q1203.78 1936.91 1179.15 1973.76 Q1154.71 2010.43 1108.23 2010.43 Q1061.75 2010.43 1037.12 1973.76 Q1012.67 1936.91 1012.67 1867.09 Q1012.67 1797.09 1037.12 1760.43 Q1061.75 1723.58 1108.23 1723.58 Z" fill="#000000" fill-rule="evenodd" fill-opacity="1" /><path clip-path="url(#clip7300)" d="M 0 0 M1244.34 1958.02 L1283.41 1958.02 L1283.41 2005.06 L1244.34 2005.06 L1244.34 1958.02 Z" fill="#000000" fill-rule="evenodd" fill-opacity="1" /><path clip-path="url(#clip7300)" d="M 0 0 M1408.6 1851.91 Q1383.41 1851.91 1368.6 1869.13 Q1353.97 1886.35 1353.97 1916.35 Q1353.97 1946.17 1368.6 1963.57 Q1383.41 1980.8 1408.6 1980.8 Q1433.78 1980.8 1448.41 1963.57 Q1463.23 1946.17 1463.23 1916.35 Q1463.23 1886.35 1448.41 1869.13 Q1433.78 1851.91 1408.6 1851.91 M1482.86 1734.69 L1482.86 1768.76 Q1468.78 1762.09 1454.34 1758.58 Q1440.08 1755.06 1426 1755.06 Q1388.97 1755.06 1369.34 1780.06 Q1349.89 1805.06 1347.12 1855.61 Q1358.04 1839.5 1374.52 1830.98 Q1391.01 1822.28 1410.82 1822.28 Q1452.49 1822.28 1476.56 1847.65 Q1500.82 1872.83 1500.82 1916.35 Q1500.82 1958.94 1475.63 1984.69 Q1450.45 2010.43 1408.6 2010.43 Q1360.63 2010.43 1335.26 1973.76 Q1309.89 1936.91 1309.89 1867.09 Q1309.89 1801.54 1341.01 1762.65 Q1372.12 1723.58 1424.52 1723.58 Q1438.6 1723.58 1452.86 1726.35 Q1467.3 1729.13 1482.86 1734.69 Z" fill="#000000" fill-rule="evenodd" fill-opacity="1" /><path clip-path="url(#clip7300)" d="M 0 0 M1626 1851.91 Q1600.82 1851.91 1586 1869.13 Q1571.37 1886.35 1571.37 1916.35 Q1571.37 1946.17 1586 1963.57 Q1600.82 1980.8 1626 1980.8 Q1651.19 1980.8 1665.82 1963.57 Q1680.63 1946.17 1680.63 1916.35 Q1680.63 1886.35 1665.82 1869.13 Q1651.19 1851.91 1626 1851.91 M1700.26 1734.69 L1700.26 1768.76 Q1686.19 1762.09 1671.74 1758.58 Q1657.49 1755.06 1643.41 1755.06 Q1606.37 1755.06 1586.74 1780.06 Q1567.3 1805.06 1564.52 1855.61 Q1575.45 1839.5 1591.93 1830.98 Q1608.41 1822.28 1628.23 1822.28 Q1669.89 1822.28 1693.97 1847.65 Q1718.23 1872.83 1718.23 1916.35 Q1718.23 1958.94 1693.04 1984.69 Q1667.86 2010.43 1626 2010.43 Q1578.04 2010.43 1552.67 1973.76 Q1527.3 1936.91 1527.3 1867.09 Q1527.3 1801.54 1558.41 1762.65 Q1589.52 1723.58 1641.93 1723.58 Q1656 1723.58 1670.26 1726.35 Q1684.71 1729.13 1700.26 1734.69 Z" fill="#000000" fill-rule="evenodd" fill-opacity="1" /><path clip-path="url(#clip7300)" d="M 0 0 M5934.45 228.341 L5934.45 284.73 Q5909.17 271.767 5881.95 265.286 Q5854.73 258.804 5825.56 258.804 Q5781.16 258.804 5758.8 272.415 Q5736.76 286.026 5736.76 313.248 Q5736.76 333.989 5752.64 345.98 Q5768.52 357.646 5816.48 368.341 L5836.9 372.878 Q5900.42 386.489 5926.99 411.442 Q5953.89 436.072 5953.89 480.47 Q5953.89 531.025 5913.71 560.516 Q5873.85 590.006 5803.85 590.006 Q5774.68 590.006 5742.92 584.173 Q5711.49 578.664 5676.49 567.321 L5676.49 505.747 Q5709.54 522.923 5741.62 531.673 Q5773.71 540.099 5805.14 540.099 Q5847.27 540.099 5869.96 525.84 Q5892.64 511.257 5892.64 485.007 Q5892.64 460.701 5876.11 447.738 Q5859.91 434.775 5804.49 422.785 L5783.75 417.924 Q5728.34 406.257 5703.71 382.276 Q5679.08 357.97 5679.08 315.841 Q5679.08 264.637 5715.37 236.767 Q5751.67 208.897 5818.43 208.897 Q5851.48 208.897 5880.65 213.758 Q5909.82 218.619 5934.45 228.341 Z" fill="#000000" fill-rule="evenodd" fill-opacity="1" /><path clip-path="url(#clip7300)" d="M 0 0 M6016.44 217.647 L6076.07 217.647 L6076.07 580.608 L6016.44 580.608 L6016.44 217.647 M6016.44 76.3514 L6076.07 76.3514 L6076.07 151.86 L6016.44 151.86 L6016.44 76.3514 Z" fill="#000000" fill-rule="evenodd" fill-opacity="1" /><path clip-path="url(#clip7300)" d="M 0 0 M6112.69 217.647 L6395.93 217.647 L6395.93 272.091 L6171.67 532.969 L6395.93 532.969 L6395.93 580.608 L6104.59 580.608 L6104.59 526.164 L6328.84 265.286 L6112.69 265.286 L6112.69 217.647 Z" fill="#000000" fill-rule="evenodd" fill-opacity="1" /><path clip-path="url(#clip7300)" d="M 0 0 M6768.93 384.22 L6768.93 413.387 L6494.77 413.387 Q6498.66 474.96 6531.71 507.368 Q6565.09 539.451 6624.4 539.451 Q6658.75 539.451 6690.83 531.025 Q6723.24 522.599 6755 505.747 L6755 562.136 Q6722.92 575.747 6689.21 582.877 Q6655.51 590.006 6620.83 590.006 Q6533.98 590.006 6483.1 539.451 Q6432.55 488.896 6432.55 402.692 Q6432.55 313.572 6480.51 261.397 Q6528.8 208.897 6610.46 208.897 Q6683.7 208.897 6726.16 256.212 Q6768.93 303.202 6768.93 384.22 M6709.3 366.72 Q6708.66 317.785 6681.76 288.619 Q6655.18 259.452 6611.11 259.452 Q6561.2 259.452 6531.06 287.647 Q6501.25 315.841 6496.71 367.044 L6709.3 366.72 Z" fill="#000000" fill-rule="evenodd" fill-opacity="1" /><path clip-path="url(#clip7300)" d="M 0 0 M6846.71 498.294 L6915.09 498.294 L6915.09 580.608 L6846.71 580.608 L6846.71 498.294 M6846.71 237.415 L6915.09 237.415 L6915.09 319.73 L6846.71 319.73 L6846.71 237.415 Z" fill="#000000" fill-rule="evenodd" fill-opacity="1" /><path clip-path="url(#clip7300)" d="M 0 0 M7134.16 312.6 Q7090.09 312.6 7064.16 342.739 Q7038.56 372.878 7038.56 425.377 Q7038.56 477.553 7064.16 508.016 Q7090.09 538.155 7134.16 538.155 Q7178.24 538.155 7203.84 508.016 Q7229.76 477.553 7229.76 425.377 Q7229.76 372.878 7203.84 342.739 Q7178.24 312.6 7134.16 312.6 M7264.12 107.462 L7264.12 167.092 Q7239.49 155.425 7214.21 149.268 Q7189.26 143.11 7164.63 143.11 Q7099.81 143.11 7065.46 186.86 Q7031.43 230.61 7026.57 319.082 Q7045.69 290.887 7074.53 275.98 Q7103.38 260.749 7138.05 260.749 Q7210.97 260.749 7253.1 305.147 Q7295.55 349.22 7295.55 425.377 Q7295.55 499.914 7251.48 544.96 Q7207.4 590.006 7134.16 590.006 Q7050.23 590.006 7005.83 525.84 Q6961.43 461.349 6961.43 339.174 Q6961.43 224.453 7015.88 156.397 Q7070.32 88.018 7162.03 88.018 Q7186.66 88.018 7211.62 92.8791 Q7236.89 97.7402 7264.12 107.462 Z" fill="#000000" fill-rule="evenodd" fill-opacity="1" /><path clip-path="url(#clip7300)" d="M 0 0 M7373.33 498.294 L7441.71 498.294 L7441.71 554.034 L7388.56 657.737 L7346.75 657.737 L7373.33 554.034 L7373.33 498.294 Z" fill="#000000" fill-rule="evenodd" fill-opacity="1" /><path clip-path="url(#clip7300)" d="M 0 0 M7652.68 350.841 Q7606.01 350.841 7579.11 375.794 Q7552.54 400.748 7552.54 444.498 Q7552.54 488.247 7579.11 513.201 Q7606.01 538.155 7652.68 538.155 Q7699.35 538.155 7726.24 513.201 Q7753.14 487.923 7753.14 444.498 Q7753.14 400.748 7726.24 375.794 Q7699.67 350.841 7652.68 350.841 M7587.22 322.97 Q7545.09 312.6 7521.43 283.758 Q7498.1 254.915 7498.1 213.434 Q7498.1 155.425 7539.25 121.722 Q7580.73 88.018 7652.68 88.018 Q7724.95 88.018 7766.1 121.722 Q7807.26 155.425 7807.26 213.434 Q7807.26 254.915 7783.6 283.758 Q7760.27 312.6 7718.47 322.97 Q7765.78 333.989 7792.03 366.072 Q7818.6 398.155 7818.6 444.498 Q7818.6 514.821 7775.5 552.414 Q7732.72 590.006 7652.68 590.006 Q7572.63 590.006 7529.53 552.414 Q7486.75 514.821 7486.75 444.498 Q7486.75 398.155 7513.33 366.072 Q7539.9 333.989 7587.22 322.97 M7563.23 219.591 Q7563.23 257.184 7586.57 278.249 Q7610.23 299.313 7652.68 299.313 Q7694.81 299.313 7718.47 278.249 Q7742.45 257.184 7742.45 219.591 Q7742.45 181.999 7718.47 160.934 Q7694.81 139.87 7652.68 139.87 Q7610.23 139.87 7586.57 160.934 Q7563.23 181.999 7563.23 219.591 Z" fill="#000000" fill-rule="evenodd" fill-opacity="1" /><path clip-path="url(#clip7300)" d="M 0 0 M7896.38 498.294 L7964.76 498.294 L7964.76 554.034 L7911.61 657.737 L7869.81 657.737 L7896.38 554.034 L7896.38 498.294 Z" fill="#000000" fill-rule="evenodd" fill-opacity="1" /><path clip-path="url(#clip7300)" d="M 0 0 M8047.07 525.516 L8154.02 525.516 L8154.02 156.397 L8037.68 179.731 L8037.68 120.101 L8153.37 96.768 L8218.83 96.768 L8218.83 525.516 L8325.78 525.516 L8325.78 580.608 L8047.07 580.608 L8047.07 525.516 Z" fill="#000000" fill-rule="evenodd" fill-opacity="1" /><path clip-path="url(#clip7300)" d="M 0 0 M8536.75 139.87 Q8486.19 139.87 8460.59 189.777 Q8435.31 239.36 8435.31 339.174 Q8435.31 438.664 8460.59 488.571 Q8486.19 538.155 8536.75 538.155 Q8587.63 538.155 8612.91 488.571 Q8638.51 438.664 8638.51 339.174 Q8638.51 239.36 8612.91 189.777 Q8587.63 139.87 8536.75 139.87 M8536.75 88.018 Q8618.09 88.018 8660.87 152.508 Q8703.97 216.675 8703.97 339.174 Q8703.97 461.349 8660.87 525.84 Q8618.09 590.006 8536.75 590.006 Q8455.41 590.006 8412.3 525.84 Q8369.53 461.349 8369.53 339.174 Q8369.53 216.675 8412.3 152.508 Q8455.41 88.018 8536.75 88.018 Z" fill="#000000" fill-rule="evenodd" fill-opacity="1" /><path clip-path="url(#clip7300)" d="M 0 0 M8781.75 498.294 L8850.13 498.294 L8850.13 554.034 L8796.98 657.737 L8755.17 657.737 L8781.75 554.034 L8781.75 498.294 Z" fill="#000000" fill-rule="evenodd" fill-opacity="1" /><path clip-path="url(#clip7300)" d="M 0 0 M8932.44 525.516 L9039.38 525.516 L9039.38 156.397 L8923.04 179.731 L8923.04 120.101 L9038.74 96.768 L9104.2 96.768 L9104.2 525.516 L9211.14 525.516 L9211.14 580.608 L8932.44 580.608 L8932.44 525.516 Z" fill="#000000" fill-rule="evenodd" fill-opacity="1" /><path clip-path="url(#clip7300)" d="M 0 0 M9338.5 525.516 L9566.97 525.516 L9566.97 580.608 L9259.75 580.608 L9259.75 525.516 Q9297.02 486.951 9361.19 422.137 Q9425.68 356.998 9442.21 338.202 Q9473.64 302.878 9485.96 278.573 Q9498.59 253.943 9498.59 230.286 Q9498.59 191.721 9471.37 167.416 Q9444.47 143.11 9401.05 143.11 Q9370.26 143.11 9335.91 153.805 Q9301.88 164.499 9262.99 186.212 L9262.99 120.101 Q9302.53 104.222 9336.88 96.1199 Q9371.23 88.018 9399.75 88.018 Q9474.94 88.018 9519.66 125.61 Q9564.38 163.203 9564.38 226.073 Q9564.38 255.888 9553.04 282.786 Q9542.02 309.359 9512.53 345.656 Q9504.43 355.054 9461 400.1 Q9417.58 444.822 9338.5 525.516 Z" fill="#000000" fill-rule="evenodd" fill-opacity="1" /><path clip-path="url(#clip7300)" d="M 0 0 M9644.75 237.415 L9713.13 237.415 L9713.13 319.73 L9644.75 319.73 L9644.75 237.415 M9644.75 498.294 L9713.13 498.294 L9713.13 554.034 L9659.98 657.737 L9618.18 657.737 L9644.75 554.034 L9644.75 498.294 Z" fill="#000000" fill-rule="evenodd" fill-opacity="1" /><path clip-path="url(#clip7300)" d="M 0 0 M10185.6 141.166 Q10114.3 141.166 10072.2 194.314 Q10030.4 247.462 10030.4 339.174 Q10030.4 430.563 10072.2 483.71 Q10114.3 536.858 10185.6 536.858 Q10256.9 536.858 10298.4 483.71 Q10340.2 430.563 10340.2 339.174 Q10340.2 247.462 10298.4 194.314 Q10256.9 141.166 10185.6 141.166 M10277.3 571.858 L10363.5 666.163 L10284.5 666.163 L10212.9 588.71 Q10202.2 589.358 10196.3 589.682 Q10190.8 590.006 10185.6 590.006 Q10083.5 590.006 10022.3 521.951 Q9961.37 453.572 9961.37 339.174 Q9961.37 224.453 10022.3 156.397 Q10083.5 88.018 10185.6 88.018 Q10287.4 88.018 10348.3 156.397 Q10409.2 224.453 10409.2 339.174 Q10409.2 423.433 10375.2 483.386 Q10341.5 543.34 10277.3 571.858 Z" fill="#000000" fill-rule="evenodd" fill-opacity="1" /><path clip-path="url(#clip7300)" d="M 0 0 M10690.5 279.221 L11106 279.221 L11106 333.665 L10690.5 333.665 L10690.5 279.221 M10690.5 411.442 L11106 411.442 L11106 466.535 L10690.5 466.535 L10690.5 411.442 Z" fill="#000000" fill-rule="evenodd" fill-opacity="1" /><path clip-path="url(#clip7300)" d="M 0 0 M11399.3 525.516 L11506.2 525.516 L11506.2 156.397 L11389.9 179.731 L11389.9 120.101 L11505.6 96.768 L11571 96.768 L11571 525.516 L11678 525.516 L11678 580.608 L11399.3 580.608 L11399.3 525.516 Z" fill="#000000" fill-rule="evenodd" fill-opacity="1" /><path clip-path="url(#clip7300)" d="M 0 0 M11897.1 312.6 Q11853 312.6 11827.1 342.739 Q11801.5 372.878 11801.5 425.377 Q11801.5 477.553 11827.1 508.016 Q11853 538.155 11897.1 538.155 Q11941.1 538.155 11966.7 508.016 Q11992.7 477.553 11992.7 425.377 Q11992.7 372.878 11966.7 342.739 Q11941.1 312.6 11897.1 312.6 M12027 107.462 L12027 167.092 Q12002.4 155.425 11977.1 149.268 Q11952.1 143.11 11927.5 143.11 Q11862.7 143.11 11828.4 186.86 Q11794.3 230.61 11789.5 319.082 Q11808.6 290.887 11837.4 275.98 Q11866.3 260.749 11900.9 260.749 Q11973.9 260.749 12016 305.147 Q12058.4 349.22 12058.4 425.377 Q12058.4 499.914 12014.4 544.96 Q11970.3 590.006 11897.1 590.006 Q11813.1 590.006 11768.7 525.84 Q11724.3 461.349 11724.3 339.174 Q11724.3 224.453 11778.8 156.397 Q11833.2 88.018 11924.9 88.018 Q11949.6 88.018 11974.5 92.8791 Q11999.8 97.7402 12027 107.462 Z" fill="#000000" fill-rule="evenodd" fill-opacity="1" /><path clip-path="url(#clip7300)" d="M 0 0 M12136.2 237.415 L12204.6 237.415 L12204.6 319.73 L12136.2 319.73 L12136.2 237.415 M12136.2 498.294 L12204.6 498.294 L12204.6 554.034 L12151.5 657.737 L12109.6 657.737 L12136.2 554.034 L12136.2 498.294 Z" fill="#000000" fill-rule="evenodd" fill-opacity="1" /><path clip-path="url(#clip7300)" d="M 0 0 M12480.7 96.768 L12546.2 96.768 L12546.2 546.904 Q12546.2 634.404 12512.8 673.941 Q12479.7 713.478 12406.2 713.478 L12381.2 713.478 L12381.2 658.385 L12401.6 658.385 Q12445.1 658.385 12462.9 634.08 Q12480.7 609.775 12480.7 546.904 L12480.7 96.768 Z" fill="#000000" fill-rule="evenodd" fill-opacity="1" /><path clip-path="url(#clip7300)" d="M 0 0 M12884.5 690.793 L12884.5 737.135 L12539.7 737.135 L12539.7 690.793 L12884.5 690.793 Z" fill="#000000" fill-rule="evenodd" fill-opacity="1" /><path clip-path="url(#clip7300)" d="M 0 0 M12966.8 525.516 L13073.8 525.516 L13073.8 156.397 L12957.4 179.731 L12957.4 120.101 L13073.1 96.768 L13138.6 96.768 L13138.6 525.516 L13245.5 525.516 L13245.5 580.608 L12966.8 580.608 L12966.8 525.516 Z" fill="#000000" fill-rule="evenodd" fill-opacity="1" /><path clip-path="url(#clip7300)" d="M 0 0 M13526.8 279.221 L13942.3 279.221 L13942.3 333.665 L13526.8 333.665 L13526.8 279.221 M13526.8 411.442 L13942.3 411.442 L13942.3 466.535 L13526.8 466.535 L13526.8 411.442 Z" fill="#000000" fill-rule="evenodd" fill-opacity="1" /><path clip-path="url(#clip7300)" d="M 0 0 M14364.2 139.87 Q14313.7 139.87 14288.1 189.777 Q14262.8 239.36 14262.8 339.174 Q14262.8 438.664 14288.1 488.571 Q14313.7 538.155 14364.2 538.155 Q14415.1 538.155 14440.4 488.571 Q14466 438.664 14466 339.174 Q14466 239.36 14440.4 189.777 Q14415.1 139.87 14364.2 139.87 M14364.2 88.018 Q14445.6 88.018 14488.3 152.508 Q14531.4 216.675 14531.4 339.174 Q14531.4 461.349 14488.3 525.84 Q14445.6 590.006 14364.2 590.006 Q14282.9 590.006 14239.8 525.84 Q14197 461.349 14197 339.174 Q14197 216.675 14239.8 152.508 Q14282.9 88.018 14364.2 88.018 Z" fill="#000000" fill-rule="evenodd" fill-opacity="1" /><path clip-path="url(#clip7300)" d="M 0 0 M14602.4 498.294 L14670.8 498.294 L14670.8 580.608 L14602.4 580.608 L14602.4 498.294 Z" fill="#000000" fill-rule="evenodd" fill-opacity="1" /><path clip-path="url(#clip7300)" d="M 0 0 M14921.6 153.805 L14756.3 412.09 L14921.6 412.09 L14921.6 153.805 M14904.4 96.768 L14986.8 96.768 L14986.8 412.09 L15055.8 412.09 L15055.8 466.535 L14986.8 466.535 L14986.8 580.608 L14921.6 580.608 L14921.6 466.535 L14703.2 466.535 L14703.2 403.34 L14904.4 96.768 Z" fill="#000000" fill-rule="evenodd" fill-opacity="1" /><path clip-path="url(#clip7300)" d="M 0 0 M10205.3 12068.2 L10526.9 12068.2 L10526.9 12111.5 L10392 12111.5 L10392 12448.4 L10340.3 12448.4 L10340.3 12111.5 L10205.3 12111.5 L10205.3 12068.2 Z" fill="#000000" fill-rule="evenodd" fill-opacity="1" /><path clip-path="url(#clip7300)" d="M 0 0 M522.483 7641.94 L661.765 7641.94 L661.765 7559.44 Q661.765 7517.93 644.705 7498.07 Q627.39 7477.96 591.997 7477.96 Q556.349 7477.96 539.543 7498.07 Q522.483 7517.93 522.483 7559.44 L522.483 7641.94 M366.142 7641.94 L480.724 7641.94 L480.724 7565.8 Q480.724 7528.12 466.72 7509.78 Q452.461 7491.2 423.433 7491.2 Q394.66 7491.2 380.401 7509.78 Q366.142 7528.12 366.142 7565.8 L366.142 7641.94 M323.873 7693.37 L323.873 7561.98 Q323.873 7503.16 348.318 7471.33 Q372.762 7439.51 417.831 7439.51 Q452.715 7439.51 473.34 7455.8 Q493.965 7472.1 499.058 7503.67 Q507.206 7465.73 533.178 7444.85 Q558.895 7423.72 597.599 7423.72 Q648.524 7423.72 676.279 7458.35 Q704.033 7492.98 704.033 7556.89 L704.033 7693.37 L323.873 7693.37 Z" fill="#000000" fill-rule="evenodd" fill-opacity="1" /><path clip-path="url(#clip7300)" d="M 0 0 M418.85 7374.58 L418.85 7327.72 L704.033 7327.72 L704.033 7374.58 L418.85 7374.58 M307.832 7374.58 L307.832 7327.72 L367.16 7327.72 L367.16 7374.58 L307.832 7374.58 Z" fill="#000000" fill-rule="evenodd" fill-opacity="1" /><path clip-path="url(#clip7300)" d="M 0 0 M531.905 7041.52 L704.033 7041.52 L704.033 7088.37 L533.432 7088.37 Q492.946 7088.37 472.831 7104.16 Q452.715 7119.95 452.715 7151.52 Q452.715 7189.46 476.905 7211.36 Q501.095 7233.26 542.854 7233.26 L704.033 7233.26 L704.033 7280.36 L418.85 7280.36 L418.85 7233.26 L463.155 7233.26 Q437.437 7216.45 424.706 7193.79 Q411.975 7170.87 411.975 7141.08 Q411.975 7091.94 442.53 7066.73 Q472.831 7041.52 531.905 7041.52 Z" fill="#000000" fill-rule="evenodd" fill-opacity="1" /><path clip-path="url(#clip7300)" d="M 0 0 M462.136 6804.72 L307.832 6804.72 L307.832 6757.87 L704.033 6757.87 L704.033 6804.72 L661.256 6804.72 Q686.719 6819.49 699.195 6842.15 Q711.417 6864.56 711.417 6896.13 Q711.417 6947.82 670.168 6980.41 Q628.918 7012.75 561.696 7012.75 Q494.474 7012.75 453.224 6980.41 Q411.975 6947.82 411.975 6896.13 Q411.975 6864.56 424.451 6842.15 Q436.674 6819.49 462.136 6804.72 M561.696 6964.37 Q613.386 6964.37 642.922 6943.24 Q672.205 6921.85 672.205 6884.67 Q672.205 6847.5 642.922 6826.11 Q613.386 6804.72 561.696 6804.72 Q510.007 6804.72 480.724 6826.11 Q451.187 6847.5 451.187 6884.67 Q451.187 6921.85 480.724 6943.24 Q510.007 6964.37 561.696 6964.37 Z" fill="#000000" fill-rule="evenodd" fill-opacity="1" /><path clip-path="url(#clip7300)" d="M 0 0 M549.729 6464.79 L572.645 6464.79 L572.645 6680.2 Q621.024 6677.15 646.487 6651.18 Q671.695 6624.95 671.695 6578.35 Q671.695 6551.36 665.075 6526.15 Q658.455 6500.69 645.214 6475.74 L689.519 6475.74 Q700.214 6500.95 705.816 6527.43 Q711.417 6553.91 711.417 6581.15 Q711.417 6649.39 671.695 6689.37 Q631.973 6729.09 564.242 6729.09 Q494.22 6729.09 453.224 6691.41 Q411.975 6653.47 411.975 6589.3 Q411.975 6531.76 449.15 6498.4 Q486.071 6464.79 549.729 6464.79 M535.979 6511.64 Q497.53 6512.15 474.613 6533.28 Q451.697 6554.16 451.697 6588.79 Q451.697 6628.01 473.849 6651.69 Q496.002 6675.11 536.233 6678.68 L535.979 6511.64 Z" fill="#000000" fill-rule="evenodd" fill-opacity="1" /><path clip-path="url(#clip7300)" d="M 0 0 M462.646 6250.39 Q458.062 6258.29 456.025 6267.71 Q453.734 6276.87 453.734 6288.08 Q453.734 6327.8 479.706 6349.19 Q505.423 6370.32 553.803 6370.32 L704.033 6370.32 L704.033 6417.43 L418.85 6417.43 L418.85 6370.32 L463.155 6370.32 Q437.183 6355.55 424.706 6331.87 Q411.975 6308.19 411.975 6274.33 Q411.975 6269.49 412.739 6263.63 Q413.248 6257.78 414.521 6250.65 L462.646 6250.39 Z" fill="#000000" fill-rule="evenodd" fill-opacity="1" /><path clip-path="url(#clip7300)" d="M 0 0 M323.873 6156.94 L465.192 6156.94 L465.192 6200.23 L323.873 6200.23 L323.873 6156.94 Z" fill="#000000" fill-rule="evenodd" fill-opacity="1" /><path clip-path="url(#clip7300)" d="M 0 0 M427.252 5926 L471.558 5926 Q461.373 5945.86 456.28 5967.25 Q451.187 5988.63 451.187 6011.55 Q451.187 6046.44 461.882 6064 Q472.576 6081.32 493.965 6081.32 Q510.261 6081.32 519.682 6068.84 Q528.849 6056.37 537.252 6018.68 L540.817 6002.64 Q551.511 5952.73 571.117 5931.85 Q590.469 5910.72 625.353 5910.72 Q665.075 5910.72 688.246 5942.29 Q711.417 5973.61 711.417 6028.61 Q711.417 6051.53 706.834 6076.48 Q702.505 6101.18 693.594 6128.68 L645.214 6128.68 Q658.709 6102.71 665.584 6077.5 Q672.205 6052.29 672.205 6027.59 Q672.205 5994.49 661.001 5976.67 Q649.543 5958.84 628.918 5958.84 Q609.821 5958.84 599.636 5971.83 Q589.451 5984.56 580.029 6028.1 L576.21 6044.4 Q567.043 6087.94 548.201 6107.29 Q529.104 6126.64 496.002 6126.64 Q455.771 6126.64 433.873 6098.12 Q411.975 6069.61 411.975 6017.15 Q411.975 5991.18 415.794 5968.26 Q419.613 5945.35 427.252 5926 Z" fill="#000000" fill-rule="evenodd" fill-opacity="1" /><path clip-path="url(#clip7300)" d="M 0 0 M462.646 5530.56 Q458.062 5538.45 456.025 5547.87 Q453.734 5557.04 453.734 5568.24 Q453.734 5607.97 479.706 5629.35 Q505.423 5650.49 553.803 5650.49 L704.033 5650.49 L704.033 5697.59 L418.85 5697.59 L418.85 5650.49 L463.155 5650.49 Q437.183 5635.72 424.706 5612.04 Q411.975 5588.36 411.975 5554.49 Q411.975 5549.66 412.739 5543.8 Q413.248 5537.94 414.521 5530.81 L462.646 5530.56 Z" fill="#000000" fill-rule="evenodd" fill-opacity="1" /><path clip-path="url(#clip7300)" d="M 0 0 M560.678 5351.81 Q560.678 5408.59 573.664 5430.49 Q586.65 5452.39 617.969 5452.39 Q642.922 5452.39 657.691 5436.09 Q672.205 5419.54 672.205 5391.28 Q672.205 5352.32 644.705 5328.89 Q616.95 5305.21 571.117 5305.21 L560.678 5305.21 L560.678 5351.81 M541.326 5258.36 L704.033 5258.36 L704.033 5305.21 L660.746 5305.21 Q686.719 5321.25 699.195 5345.19 Q711.417 5369.12 711.417 5403.75 Q711.417 5447.55 686.973 5473.52 Q662.274 5499.24 621.024 5499.24 Q572.9 5499.24 548.455 5467.16 Q524.011 5434.82 524.011 5370.91 L524.011 5305.21 L519.428 5305.21 Q487.09 5305.21 469.521 5326.6 Q451.697 5347.74 451.697 5386.18 Q451.697 5410.63 457.553 5433.8 Q463.41 5456.97 475.122 5478.36 L431.836 5478.36 Q421.905 5452.64 417.067 5428.45 Q411.975 5404.26 411.975 5381.35 Q411.975 5319.47 444.058 5288.92 Q476.141 5258.36 541.326 5258.36 Z" fill="#000000" fill-rule="evenodd" fill-opacity="1" /><path clip-path="url(#clip7300)" d="M 0 0 M337.878 5162.87 L418.85 5162.87 L418.85 5066.37 L455.261 5066.37 L455.261 5162.87 L610.075 5162.87 Q644.96 5162.87 654.89 5153.45 Q664.821 5143.78 664.821 5114.5 L664.821 5066.37 L704.033 5066.37 L704.033 5114.5 Q704.033 5168.73 683.918 5189.36 Q663.547 5209.98 610.075 5209.98 L455.261 5209.98 L455.261 5244.36 L418.85 5244.36 L418.85 5209.98 L337.878 5209.98 L337.878 5162.87 Z" fill="#000000" fill-rule="evenodd" fill-opacity="1" /><path clip-path="url(#clip7300)" d="M 0 0 M418.85 5017.23 L418.85 4970.38 L704.033 4970.38 L704.033 5017.23 L418.85 5017.23 M307.832 5017.23 L307.832 4970.38 L367.16 4970.38 L367.16 5017.23 L307.832 5017.23 Z" fill="#000000" fill-rule="evenodd" fill-opacity="1" /><path clip-path="url(#clip7300)" d="M 0 0 M451.697 4810.72 Q451.697 4848.41 481.234 4870.31 Q510.516 4892.21 561.696 4892.21 Q612.876 4892.21 642.413 4870.56 Q671.695 4848.66 671.695 4810.72 Q671.695 4773.29 642.159 4751.4 Q612.622 4729.5 561.696 4729.5 Q511.025 4729.5 481.488 4751.4 Q451.697 4773.29 451.697 4810.72 M411.975 4810.72 Q411.975 4749.61 451.697 4714.73 Q491.419 4679.85 561.696 4679.85 Q631.719 4679.85 671.695 4714.73 Q711.417 4749.61 711.417 4810.72 Q711.417 4872.09 671.695 4906.97 Q631.719 4941.6 561.696 4941.6 Q491.419 4941.6 451.697 4906.97 Q411.975 4872.09 411.975 4810.72 Z" fill="#000000" fill-rule="evenodd" fill-opacity="1" /><polyline clip-path="url(#clip7302)" style="stroke:#009af9; stroke-width:32; stroke-opacity:1; fill:none" points="
  2388.86,1390.24 4161.59,1432.06 5934.32,1490.82 7707.04,1544.47 9479.77,1618.87 11252.5,1726.2 13025.2,1834.65 14798,1953.9 16570.7,2155.89 18343.4,2293.95 
  
  "/>
<polyline clip-path="url(#clip7302)" style="stroke:#e26f46; stroke-width:32; stroke-opacity:1; fill:none" points="
  2388.86,1363.63 4161.59,1416.75 5934.32,1492.5 7707.04,1654.46 9479.77,1841.75 11252.5,1986.37 13025.2,2275.04 14798,2638.16 16570.7,3138.1 18343.4,3749.6 
  
  "/>
<polyline clip-path="url(#clip7302)" style="stroke:#3da44d; stroke-width:32; stroke-opacity:1; fill:none" points="
  2388.86,1295.6 4161.59,1369.39 5934.32,1456.67 7707.04,1603.9 9479.77,1866.66 11252.5,2202.49 13025.2,2652.45 14798,3635.16 16570.7,4456.92 18343.4,6418.46 
  
  "/>
<polyline clip-path="url(#clip7302)" style="stroke:#c271d2; stroke-width:32; stroke-opacity:1; fill:none" points="
  2388.86,1282.05 4161.59,1321.44 5934.32,1379.92 7707.04,1539.04 9479.77,1805.15 11252.5,2265.65 13025.2,3033.55 14798,4815.41 16570.7,6651.13 18343.4,11091.2 
  
  "/>
<path clip-path="url(#clip7300)" d="
M2486.23 10233.4 L5519.37 10233.4 L5519.37 7814.24 L2486.23 7814.24  Z
  " fill="#ffffff" fill-rule="evenodd" fill-opacity="1"/>
<polyline clip-path="url(#clip7300)" style="stroke:#000000; stroke-width:32; stroke-opacity:1; fill:none" points="
  2486.23,10233.4 5519.37,10233.4 5519.37,7814.24 2486.23,7814.24 2486.23,10233.4 
  "/>
<polyline clip-path="url(#clip7300)" style="stroke:#009af9; stroke-width:32; stroke-opacity:1; fill:none" points="
  2678.23,8298.08 3830.23,8298.08 
  "/>
<path clip-path="url(#clip7300)" d="M 0 0 M4022.23 8159.84 L4059.63 8159.84 L4059.63 8404.84 L4194.26 8404.84 L4194.26 8436.32 L4022.23 8436.32 L4022.23 8159.84 Z" fill="#000000" fill-rule="evenodd" fill-opacity="1" /><path clip-path="url(#clip7300)" d="M 0 0 M4355 8264.1 L4592.41 8264.1 L4592.41 8295.21 L4355 8295.21 L4355 8264.1 M4355 8339.65 L4592.41 8339.65 L4592.41 8371.13 L4355 8371.13 L4355 8339.65 Z" fill="#000000" fill-rule="evenodd" fill-opacity="1" /><path clip-path="url(#clip7300)" d="M 0 0 M4838.15 8283.17 Q4812.96 8283.17 4798.15 8300.39 Q4783.52 8317.62 4783.52 8347.62 Q4783.52 8377.43 4798.15 8394.84 Q4812.96 8412.06 4838.15 8412.06 Q4863.33 8412.06 4877.96 8394.84 Q4892.78 8377.43 4892.78 8347.62 Q4892.78 8317.62 4877.96 8300.39 Q4863.33 8283.17 4838.15 8283.17 M4912.41 8165.95 L4912.41 8200.02 Q4898.33 8193.36 4883.89 8189.84 Q4869.63 8186.32 4855.55 8186.32 Q4818.52 8186.32 4798.89 8211.32 Q4779.44 8236.32 4776.67 8286.88 Q4787.59 8270.76 4804.07 8262.25 Q4820.55 8253.54 4840.37 8253.54 Q4882.04 8253.54 4906.11 8278.91 Q4930.37 8304.1 4930.37 8347.62 Q4930.37 8390.21 4905.18 8415.95 Q4880 8441.69 4838.15 8441.69 Q4790.18 8441.69 4764.81 8405.02 Q4739.44 8368.17 4739.44 8298.36 Q4739.44 8232.8 4770.55 8193.91 Q4801.67 8154.84 4854.07 8154.84 Q4868.15 8154.84 4882.41 8157.62 Q4896.85 8160.39 4912.41 8165.95 Z" fill="#000000" fill-rule="evenodd" fill-opacity="1" /><polyline clip-path="url(#clip7300)" style="stroke:#e26f46; stroke-width:32; stroke-opacity:1; fill:none" points="
  2678.23,8781.92 3830.23,8781.92 
  "/>
<path clip-path="url(#clip7300)" d="M 0 0 M4022.23 8643.68 L4059.63 8643.68 L4059.63 8888.68 L4194.26 8888.68 L4194.26 8920.16 L4022.23 8920.16 L4022.23 8643.68 Z" fill="#000000" fill-rule="evenodd" fill-opacity="1" /><path clip-path="url(#clip7300)" d="M 0 0 M4355 8747.94 L4592.41 8747.94 L4592.41 8779.05 L4355 8779.05 L4355 8747.94 M4355 8823.49 L4592.41 8823.49 L4592.41 8854.97 L4355 8854.97 L4355 8823.49 Z" fill="#000000" fill-rule="evenodd" fill-opacity="1" /><path clip-path="url(#clip7300)" d="M 0 0 M4833.52 8788.86 Q4806.85 8788.86 4791.48 8803.12 Q4776.3 8817.38 4776.3 8842.38 Q4776.3 8867.38 4791.48 8881.64 Q4806.85 8895.9 4833.52 8895.9 Q4860.18 8895.9 4875.55 8881.64 Q4890.92 8867.2 4890.92 8842.38 Q4890.92 8817.38 4875.55 8803.12 Q4860.37 8788.86 4833.52 8788.86 M4796.11 8772.94 Q4772.04 8767.01 4758.52 8750.53 Q4745.18 8734.05 4745.18 8710.35 Q4745.18 8677.2 4768.7 8657.94 Q4792.41 8638.68 4833.52 8638.68 Q4874.81 8638.68 4898.33 8657.94 Q4921.85 8677.2 4921.85 8710.35 Q4921.85 8734.05 4908.33 8750.53 Q4895 8767.01 4871.11 8772.94 Q4898.15 8779.23 4913.15 8797.57 Q4928.33 8815.9 4928.33 8842.38 Q4928.33 8882.57 4903.7 8904.05 Q4879.26 8925.53 4833.52 8925.53 Q4787.78 8925.53 4763.15 8904.05 Q4738.7 8882.57 4738.7 8842.38 Q4738.7 8815.9 4753.89 8797.57 Q4769.07 8779.23 4796.11 8772.94 M4782.41 8713.86 Q4782.41 8735.34 4795.74 8747.38 Q4809.26 8759.42 4833.52 8759.42 Q4857.59 8759.42 4871.11 8747.38 Q4884.81 8735.34 4884.81 8713.86 Q4884.81 8692.38 4871.11 8680.35 Q4857.59 8668.31 4833.52 8668.31 Q4809.26 8668.31 4795.74 8680.35 Q4782.41 8692.38 4782.41 8713.86 Z" fill="#000000" fill-rule="evenodd" fill-opacity="1" /><polyline clip-path="url(#clip7300)" style="stroke:#3da44d; stroke-width:32; stroke-opacity:1; fill:none" points="
  2678.23,9265.76 3830.23,9265.76 
  "/>
<path clip-path="url(#clip7300)" d="M 0 0 M4022.23 9127.52 L4059.63 9127.52 L4059.63 9372.52 L4194.26 9372.52 L4194.26 9404 L4022.23 9404 L4022.23 9127.52 Z" fill="#000000" fill-rule="evenodd" fill-opacity="1" /><path clip-path="url(#clip7300)" d="M 0 0 M4355 9231.78 L4592.41 9231.78 L4592.41 9262.89 L4355 9262.89 L4355 9231.78 M4355 9307.33 L4592.41 9307.33 L4592.41 9338.81 L4355 9338.81 L4355 9307.33 Z" fill="#000000" fill-rule="evenodd" fill-opacity="1" /><path clip-path="url(#clip7300)" d="M 0 0 M4760 9372.52 L4821.11 9372.52 L4821.11 9161.59 L4754.63 9174.93 L4754.63 9140.85 L4820.74 9127.52 L4858.15 9127.52 L4858.15 9372.52 L4919.26 9372.52 L4919.26 9404 L4760 9404 L4760 9372.52 Z" fill="#000000" fill-rule="evenodd" fill-opacity="1" /><path clip-path="url(#clip7300)" d="M 0 0 M5039.81 9152.15 Q5010.92 9152.15 4996.29 9180.67 Q4981.85 9209 4981.85 9266.04 Q4981.85 9322.89 4996.29 9351.41 Q5010.92 9379.74 5039.81 9379.74 Q5068.89 9379.74 5083.33 9351.41 Q5097.96 9322.89 5097.96 9266.04 Q5097.96 9209 5083.33 9180.67 Q5068.89 9152.15 5039.81 9152.15 M5039.81 9122.52 Q5086.29 9122.52 5110.74 9159.37 Q5135.37 9196.04 5135.37 9266.04 Q5135.37 9335.85 5110.74 9372.7 Q5086.29 9409.37 5039.81 9409.37 Q4993.33 9409.37 4968.7 9372.7 Q4944.26 9335.85 4944.26 9266.04 Q4944.26 9196.04 4968.7 9159.37 Q4993.33 9122.52 5039.81 9122.52 Z" fill="#000000" fill-rule="evenodd" fill-opacity="1" /><polyline clip-path="url(#clip7300)" style="stroke:#c271d2; stroke-width:32; stroke-opacity:1; fill:none" points="
  2678.23,9749.6 3830.23,9749.6 
  "/>
<path clip-path="url(#clip7300)" d="M 0 0 M4022.23 9611.36 L4059.63 9611.36 L4059.63 9856.36 L4194.26 9856.36 L4194.26 9887.84 L4022.23 9887.84 L4022.23 9611.36 Z" fill="#000000" fill-rule="evenodd" fill-opacity="1" /><path clip-path="url(#clip7300)" d="M 0 0 M4355 9715.62 L4592.41 9715.62 L4592.41 9746.73 L4355 9746.73 L4355 9715.62 M4355 9791.17 L4592.41 9791.17 L4592.41 9822.65 L4355 9822.65 L4355 9791.17 Z" fill="#000000" fill-rule="evenodd" fill-opacity="1" /><path clip-path="url(#clip7300)" d="M 0 0 M4760 9856.36 L4821.11 9856.36 L4821.11 9645.43 L4754.63 9658.77 L4754.63 9624.69 L4820.74 9611.36 L4858.15 9611.36 L4858.15 9856.36 L4919.26 9856.36 L4919.26 9887.84 L4760 9887.84 L4760 9856.36 Z" fill="#000000" fill-rule="evenodd" fill-opacity="1" /><path clip-path="url(#clip7300)" d="M 0 0 M4992.04 9856.36 L5122.59 9856.36 L5122.59 9887.84 L4947.04 9887.84 L4947.04 9856.36 Q4968.33 9834.32 5005 9797.28 Q5041.85 9760.06 5051.29 9749.32 Q5069.26 9729.14 5076.29 9715.25 Q5083.52 9701.17 5083.52 9687.65 Q5083.52 9665.62 5067.96 9651.73 Q5052.59 9637.84 5027.78 9637.84 Q5010.18 9637.84 4990.55 9643.95 Q4971.11 9650.06 4948.89 9662.47 L4948.89 9624.69 Q4971.48 9615.62 4991.11 9610.99 Q5010.74 9606.36 5027.04 9606.36 Q5070 9606.36 5095.55 9627.84 Q5121.11 9649.32 5121.11 9685.25 Q5121.11 9702.28 5114.63 9717.65 Q5108.33 9732.84 5091.48 9753.58 Q5086.85 9758.95 5062.03 9784.69 Q5037.22 9810.25 4992.04 9856.36 Z" fill="#000000" fill-rule="evenodd" fill-opacity="1" /></svg>
