<?xml version="1.0" encoding="utf-8"?>
<svg xmlns="http://www.w3.org/2000/svg" xmlns:xlink="http://www.w3.org/1999/xlink" width="4800" height="3200" viewBox="0 0 19200 12800">
<defs>
  <clipPath id="clip0000">
    <rect x="0" y="0" width="19200" height="12800"/>
  </clipPath>
</defs>
<path clip-path="url(#clip0000)" d="
M0 12800 L19200 12800 L19200 0 L0 0  Z
  " fill="#ffffff" fill-rule="evenodd" fill-opacity="1"/>
<defs>
  <clipPath id="clip0001">
    <rect x="3840" y="0" width="13441" height="12800"/>
  </clipPath>
</defs>
<path clip-path="url(#clip0000)" d="
M2127.63 11385.4 L18822 11385.4 L18822 987.777 L2127.63 987.777  Z
  " fill="#ffffff" fill-rule="evenodd" fill-opacity="1"/>
<defs>
  <clipPath id="clip0002">
    <rect x="2127" y="987" width="16695" height="10399"/>
  </clipPath>
</defs>
<polyline clip-path="url(#clip0002)" style="stroke:#000000; stroke-width:16; stroke-opacity:0.1; fill:none" points="
  2600.12,11385.4 2600.12,987.777 
  "/>
<polyline clip-path="url(#clip0002)" style="stroke:#000000; stroke-width:16; stroke-opacity:0.1; fill:none" points="
  6537.48,11385.4 6537.48,987.777 
  "/>
<polyline clip-path="url(#clip0002)" style="stroke:#000000; stroke-width:16; stroke-opacity:0.1; fill:none" points="
  10474.8,11385.4 10474.8,987.777 
  "/>
<polyline clip-path="url(#clip0002)" style="stroke:#000000; stroke-width:16; stroke-opacity:0.1; fill:none" points="
  14412.2,11385.4 14412.2,987.777 
  "/>
<polyline clip-path="url(#clip0002)" style="stroke:#000000; stroke-width:16; stroke-opacity:0.1; fill:none" points="
  18349.6,11385.4 18349.6,987.777 
  "/>
<polyline clip-path="url(#clip0002)" style="stroke:#000000; stroke-width:16; stroke-opacity:0.1; fill:none" points="
  2127.63,10807.8 18822,10807.8 
  "/>
<polyline clip-path="url(#clip0002)" style="stroke:#000000; stroke-width:16; stroke-opacity:0.1; fill:none" points="
  2127.63,8604.13 18822,8604.13 
  "/>
<polyline clip-path="url(#clip0002)" style="stroke:#000000; stroke-width:16; stroke-opacity:0.1; fill:none" points="
  2127.63,6400.43 18822,6400.43 
  "/>
<polyline clip-path="url(#clip0002)" style="stroke:#000000; stroke-width:16; stroke-opacity:0.1; fill:none" points="
  2127.63,4196.72 18822,4196.72 
  "/>
<polyline clip-path="url(#clip0002)" style="stroke:#000000; stroke-width:16; stroke-opacity:0.1; fill:none" points="
  2127.63,1993.02 18822,1993.02 
  "/>
<polyline clip-path="url(#clip0000)" style="stroke:#000000; stroke-width:32; stroke-opacity:1; fill:none" points="
  2127.63,11385.4 18822,11385.4 
  "/>
<polyline clip-path="url(#clip0000)" style="stroke:#000000; stroke-width:32; stroke-opacity:1; fill:none" points="
  2127.63,11385.4 2127.63,987.777 
  "/>
<polyline clip-path="url(#clip0000)" style="stroke:#000000; stroke-width:32; stroke-opacity:1; fill:none" points="
  2600.12,11385.4 2600.12,11260.7 
  "/>
<polyline clip-path="url(#clip0000)" style="stroke:#000000; stroke-width:32; stroke-opacity:1; fill:none" points="
  6537.48,11385.4 6537.48,11260.7 
  "/>
<polyline clip-path="url(#clip0000)" style="stroke:#000000; stroke-width:32; stroke-opacity:1; fill:none" points="
  10474.8,11385.4 10474.8,11260.7 
  "/>
<polyline clip-path="url(#clip0000)" style="stroke:#000000; stroke-width:32; stroke-opacity:1; fill:none" points="
  14412.2,11385.4 14412.2,11260.7 
  "/>
<polyline clip-path="url(#clip0000)" style="stroke:#000000; stroke-width:32; stroke-opacity:1; fill:none" points="
  18349.6,11385.4 18349.6,11260.7 
  "/>
<polyline clip-path="url(#clip0000)" style="stroke:#000000; stroke-width:32; stroke-opacity:1; fill:none" points="
  2127.63,10807.8 2327.96,10807.8 
  "/>
<polyline clip-path="url(#clip0000)" style="stroke:#000000; stroke-width:32; stroke-opacity:1; fill:none" points="
  2127.63,8604.13 2327.96,8604.13 
  "/>
<polyline clip-path="url(#clip0000)" style="stroke:#000000; stroke-width:32; stroke-opacity:1; fill:none" points="
  2127.63,6400.43 2327.96,6400.43 
  "/>
<polyline clip-path="url(#clip0000)" style="stroke:#000000; stroke-width:32; stroke-opacity:1; fill:none" points="
  2127.63,4196.72 2327.96,4196.72 
  "/>
<polyline clip-path="url(#clip0000)" style="stroke:#000000; stroke-width:32; stroke-opacity:1; fill:none" points="
  2127.63,1993.02 2327.96,1993.02 
  "/>
<path clip-path="url(#clip0000)" d="M 0 0 M2454.84 11561.4 Q2425.95 11561.4 2411.32 11589.9 Q2396.88 11618.2 2396.88 11675.3 Q2396.88 11732.1 2411.32 11760.6 Q2425.95 11789 2454.84 11789 Q2483.91 11789 2498.36 11760.6 Q2512.99 11732.1 2512.99 11675.3 Q2512.99 11618.2 2498.36 11589.9 Q2483.91 11561.4 2454.84 11561.4 M2454.84 11531.7 Q2501.32 11531.7 2525.76 11568.6 Q2550.39 11605.3 2550.39 11675.3 Q2550.39 11745.1 2525.76 11781.9 Q2501.32 11818.6 2454.84 11818.6 Q2408.36 11818.6 2383.73 11781.9 Q2359.28 11745.1 2359.28 11675.3 Q2359.28 11605.3 2383.73 11568.6 Q2408.36 11531.7 2454.84 11531.7 Z" fill="#000000" fill-rule="evenodd" fill-opacity="1" /><path clip-path="url(#clip0000)" d="M 0 0 M2590.95 11766.2 L2630.02 11766.2 L2630.02 11813.2 L2590.95 11813.2 L2590.95 11766.2 Z" fill="#000000" fill-rule="evenodd" fill-opacity="1" /><path clip-path="url(#clip0000)" d="M 0 0 M2783.91 11664.1 Q2810.76 11669.9 2825.76 11688 Q2840.95 11706.2 2840.95 11732.8 Q2840.95 11773.8 2812.8 11796.2 Q2784.65 11818.6 2732.8 11818.6 Q2715.39 11818.6 2696.87 11815.1 Q2678.54 11811.7 2658.91 11804.9 L2658.91 11768.8 Q2674.47 11777.8 2692.99 11782.5 Q2711.5 11787.1 2731.69 11787.1 Q2766.87 11787.1 2785.21 11773.2 Q2803.73 11759.3 2803.73 11732.8 Q2803.73 11708.4 2786.5 11694.7 Q2769.47 11680.8 2738.91 11680.8 L2706.69 11680.8 L2706.69 11650.1 L2740.39 11650.1 Q2767.98 11650.1 2782.61 11639.1 Q2797.24 11628 2797.24 11607.3 Q2797.24 11586 2782.06 11574.7 Q2767.06 11563.2 2738.91 11563.2 Q2723.54 11563.2 2705.95 11566.5 Q2688.36 11569.9 2667.24 11576.9 L2667.24 11543.6 Q2688.54 11537.7 2707.06 11534.7 Q2725.76 11531.7 2742.24 11531.7 Q2784.84 11531.7 2809.65 11551.2 Q2834.47 11570.4 2834.47 11603.4 Q2834.47 11626.4 2821.32 11642.3 Q2808.17 11658 2783.91 11664.1 Z" fill="#000000" fill-rule="evenodd" fill-opacity="1" /><path clip-path="url(#clip0000)" d="M 0 0 M6387.66 11561.4 Q6358.77 11561.4 6344.15 11589.9 Q6329.7 11618.2 6329.7 11675.3 Q6329.7 11732.1 6344.15 11760.6 Q6358.77 11789 6387.66 11789 Q6416.74 11789 6431.18 11760.6 Q6445.81 11732.1 6445.81 11675.3 Q6445.81 11618.2 6431.18 11589.9 Q6416.74 11561.4 6387.66 11561.4 M6387.66 11531.7 Q6434.14 11531.7 6458.59 11568.6 Q6483.22 11605.3 6483.22 11675.3 Q6483.22 11745.1 6458.59 11781.9 Q6434.14 11818.6 6387.66 11818.6 Q6341.18 11818.6 6316.55 11781.9 Q6292.11 11745.1 6292.11 11675.3 Q6292.11 11605.3 6316.55 11568.6 Q6341.18 11531.7 6387.66 11531.7 Z" fill="#000000" fill-rule="evenodd" fill-opacity="1" /><path clip-path="url(#clip0000)" d="M 0 0 M6523.77 11766.2 L6562.85 11766.2 L6562.85 11813.2 L6523.77 11813.2 L6523.77 11766.2 Z" fill="#000000" fill-rule="evenodd" fill-opacity="1" /><path clip-path="url(#clip0000)" d="M 0 0 M6706.18 11569.3 L6611.74 11716.9 L6706.18 11716.9 L6706.18 11569.3 M6696.37 11536.7 L6743.4 11536.7 L6743.4 11716.9 L6782.85 11716.9 L6782.85 11748 L6743.4 11748 L6743.4 11813.2 L6706.18 11813.2 L6706.18 11748 L6581.37 11748 L6581.37 11711.9 L6696.37 11536.7 Z" fill="#000000" fill-rule="evenodd" fill-opacity="1" /><path clip-path="url(#clip0000)" d="M 0 0 M10331 11561.4 Q10302.1 11561.4 10287.4 11589.9 Q10273 11618.2 10273 11675.3 Q10273 11732.1 10287.4 11760.6 Q10302.1 11789 10331 11789 Q10360 11789 10374.5 11760.6 Q10389.1 11732.1 10389.1 11675.3 Q10389.1 11618.2 10374.5 11589.9 Q10360 11561.4 10331 11561.4 M10331 11531.7 Q10377.4 11531.7 10401.9 11568.6 Q10426.5 11605.3 10426.5 11675.3 Q10426.5 11745.1 10401.9 11781.9 Q10377.4 11818.6 10331 11818.6 Q10284.5 11818.6 10259.8 11781.9 Q10235.4 11745.1 10235.4 11675.3 Q10235.4 11605.3 10259.8 11568.6 Q10284.5 11531.7 10331 11531.7 Z" fill="#000000" fill-rule="evenodd" fill-opacity="1" /><path clip-path="url(#clip0000)" d="M 0 0 M10467.1 11766.2 L10506.1 11766.2 L10506.1 11813.2 L10467.1 11813.2 L10467.1 11766.2 Z" fill="#000000" fill-rule="evenodd" fill-opacity="1" /><path clip-path="url(#clip0000)" d="M 0 0 M10547.1 11536.7 L10693.9 11536.7 L10693.9 11568.2 L10581.3 11568.2 L10581.3 11636 Q10589.5 11633.2 10597.6 11631.9 Q10605.8 11630.4 10613.9 11630.4 Q10660.2 11630.4 10687.2 11655.8 Q10714.3 11681.2 10714.3 11724.5 Q10714.3 11769.1 10686.5 11794 Q10658.7 11818.6 10608.2 11818.6 Q10590.8 11818.6 10572.6 11815.6 Q10554.7 11812.7 10535.4 11806.7 L10535.4 11769.1 Q10552.1 11778.2 10569.8 11782.7 Q10587.6 11787.1 10607.4 11787.1 Q10639.5 11787.1 10658.2 11770.3 Q10676.9 11753.4 10676.9 11724.5 Q10676.9 11695.6 10658.2 11678.8 Q10639.5 11661.9 10607.4 11661.9 Q10592.4 11661.9 10577.4 11665.3 Q10562.6 11668.6 10547.1 11675.6 L10547.1 11536.7 Z" fill="#000000" fill-rule="evenodd" fill-opacity="1" /><path clip-path="url(#clip0000)" d="M 0 0 M14263.7 11561.4 Q14234.8 11561.4 14220.2 11589.9 Q14205.7 11618.2 14205.7 11675.3 Q14205.7 11732.1 14220.2 11760.6 Q14234.8 11789 14263.7 11789 Q14292.8 11789 14307.2 11760.6 Q14321.8 11732.1 14321.8 11675.3 Q14321.8 11618.2 14307.2 11589.9 Q14292.8 11561.4 14263.7 11561.4 M14263.7 11531.7 Q14310.2 11531.7 14334.6 11568.6 Q14359.2 11605.3 14359.2 11675.3 Q14359.2 11745.1 14334.6 11781.9 Q14310.2 11818.6 14263.7 11818.6 Q14217.2 11818.6 14192.6 11781.9 Q14168.1 11745.1 14168.1 11675.3 Q14168.1 11605.3 14192.6 11568.6 Q14217.2 11531.7 14263.7 11531.7 Z" fill="#000000" fill-rule="evenodd" fill-opacity="1" /><path clip-path="url(#clip0000)" d="M 0 0 M14399.8 11766.2 L14438.9 11766.2 L14438.9 11813.2 L14399.8 11813.2 L14399.8 11766.2 Z" fill="#000000" fill-rule="evenodd" fill-opacity="1" /><path clip-path="url(#clip0000)" d="M 0 0 M14564.1 11660.1 Q14538.9 11660.1 14524.1 11677.3 Q14509.4 11694.5 14509.4 11724.5 Q14509.4 11754.3 14524.1 11771.7 Q14538.9 11789 14564.1 11789 Q14589.2 11789 14603.9 11771.7 Q14618.7 11754.3 14618.7 11724.5 Q14618.7 11694.5 14603.9 11677.3 Q14589.2 11660.1 14564.1 11660.1 M14638.3 11542.8 L14638.3 11576.9 Q14624.2 11570.3 14609.8 11566.7 Q14595.5 11563.2 14581.5 11563.2 Q14544.4 11563.2 14524.8 11588.2 Q14505.3 11613.2 14502.6 11663.8 Q14513.5 11647.7 14530 11639.1 Q14546.5 11630.4 14566.3 11630.4 Q14607.9 11630.4 14632 11655.8 Q14656.3 11681 14656.3 11724.5 Q14656.3 11767.1 14631.1 11792.8 Q14605.9 11818.6 14564.1 11818.6 Q14516.1 11818.6 14490.7 11781.9 Q14465.3 11745.1 14465.3 11675.3 Q14465.3 11609.7 14496.5 11570.8 Q14527.6 11531.7 14580 11531.7 Q14594.1 11531.7 14608.3 11534.5 Q14622.8 11537.3 14638.3 11542.8 Z" fill="#000000" fill-rule="evenodd" fill-opacity="1" /><path clip-path="url(#clip0000)" d="M 0 0 M18205.3 11561.4 Q18176.4 11561.4 18161.8 11589.9 Q18147.3 11618.2 18147.3 11675.3 Q18147.3 11732.1 18161.8 11760.6 Q18176.4 11789 18205.3 11789 Q18234.4 11789 18248.8 11760.6 Q18263.5 11732.1 18263.5 11675.3 Q18263.5 11618.2 18248.8 11589.9 Q18234.4 11561.4 18205.3 11561.4 M18205.3 11531.7 Q18251.8 11531.7 18276.2 11568.6 Q18300.9 11605.3 18300.9 11675.3 Q18300.9 11745.1 18276.2 11781.9 Q18251.8 11818.6 18205.3 11818.6 Q18158.8 11818.6 18134.2 11781.9 Q18109.8 11745.1 18109.8 11675.3 Q18109.8 11605.3 18134.2 11568.6 Q18158.8 11531.7 18205.3 11531.7 Z" fill="#000000" fill-rule="evenodd" fill-opacity="1" /><path clip-path="url(#clip0000)" d="M 0 0 M18341.4 11766.2 L18380.5 11766.2 L18380.5 11813.2 L18341.4 11813.2 L18341.4 11766.2 Z" fill="#000000" fill-rule="evenodd" fill-opacity="1" /><path clip-path="url(#clip0000)" d="M 0 0 M18411.6 11536.7 L18589.4 11536.7 L18589.4 11552.7 L18489 11813.2 L18449.9 11813.2 L18544.4 11568.2 L18411.6 11568.2 L18411.6 11536.7 Z" fill="#000000" fill-rule="evenodd" fill-opacity="1" /><path clip-path="url(#clip0000)" d="M 0 0 M1119.53 10694.2 Q1090.64 10694.2 1076.01 10722.7 Q1061.56 10751.1 1061.56 10808.1 Q1061.56 10865 1076.01 10893.5 Q1090.64 10921.8 1119.53 10921.8 Q1148.6 10921.8 1163.04 10893.5 Q1177.67 10865 1177.67 10808.1 Q1177.67 10751.1 1163.04 10722.7 Q1148.6 10694.2 1119.53 10694.2 M1119.53 10664.6 Q1166.01 10664.6 1190.45 10701.4 Q1215.08 10738.1 1215.08 10808.1 Q1215.08 10877.9 1190.45 10914.8 Q1166.01 10951.4 1119.53 10951.4 Q1073.04 10951.4 1048.41 10914.8 Q1023.97 10877.9 1023.97 10808.1 Q1023.97 10738.1 1048.41 10701.4 Q1073.04 10664.6 1119.53 10664.6 Z" fill="#000000" fill-rule="evenodd" fill-opacity="1" /><path clip-path="url(#clip0000)" d="M 0 0 M1255.64 10899 L1294.71 10899 L1294.71 10946.1 L1255.64 10946.1 L1255.64 10899 Z" fill="#000000" fill-rule="evenodd" fill-opacity="1" /><path clip-path="url(#clip0000)" d="M 0 0 M1419.89 10792.9 Q1394.71 10792.9 1379.89 10810.2 Q1365.26 10827.4 1365.26 10857.4 Q1365.26 10887.2 1379.89 10904.6 Q1394.71 10921.8 1419.89 10921.8 Q1445.08 10921.8 1459.71 10904.6 Q1474.52 10887.2 1474.52 10857.4 Q1474.52 10827.4 1459.71 10810.2 Q1445.08 10792.9 1419.89 10792.9 M1494.15 10675.7 L1494.15 10709.8 Q1480.08 10703.1 1465.63 10699.6 Q1451.38 10696.1 1437.3 10696.1 Q1400.26 10696.1 1380.63 10721.1 Q1361.19 10746.1 1358.41 10796.6 Q1369.34 10780.5 1385.82 10772 Q1402.3 10763.3 1422.12 10763.3 Q1463.78 10763.3 1487.86 10788.7 Q1512.12 10813.9 1512.12 10857.4 Q1512.12 10900 1486.93 10925.7 Q1461.75 10951.4 1419.89 10951.4 Q1371.93 10951.4 1346.56 10914.8 Q1321.19 10877.9 1321.19 10808.1 Q1321.19 10742.6 1352.3 10703.7 Q1383.41 10664.6 1435.82 10664.6 Q1449.89 10664.6 1464.15 10667.4 Q1478.6 10670.2 1494.15 10675.7 Z" fill="#000000" fill-rule="evenodd" fill-opacity="1" /><path clip-path="url(#clip0000)" d="M 0 0 M1553.04 10669.6 L1699.89 10669.6 L1699.89 10701.1 L1587.3 10701.1 L1587.3 10768.9 Q1595.45 10766.1 1603.6 10764.8 Q1611.74 10763.3 1619.89 10763.3 Q1666.19 10763.3 1693.23 10788.7 Q1720.26 10814 1720.26 10857.4 Q1720.26 10902 1692.49 10926.8 Q1664.71 10951.4 1614.15 10951.4 Q1596.74 10951.4 1578.6 10948.5 Q1560.63 10945.5 1541.37 10939.6 L1541.37 10902 Q1558.04 10911.1 1575.82 10915.5 Q1593.6 10920 1613.41 10920 Q1645.45 10920 1664.15 10903.1 Q1682.86 10886.3 1682.86 10857.4 Q1682.86 10828.5 1664.15 10811.6 Q1645.45 10794.8 1613.41 10794.8 Q1598.41 10794.8 1583.41 10798.1 Q1568.6 10801.4 1553.04 10808.5 L1553.04 10669.6 Z" fill="#000000" fill-rule="evenodd" fill-opacity="1" /><path clip-path="url(#clip0000)" d="M 0 0 M1840.82 10814.8 Q1814.15 10814.8 1798.78 10829 Q1783.6 10843.3 1783.6 10868.3 Q1783.6 10893.3 1798.78 10907.6 Q1814.15 10921.8 1840.82 10921.8 Q1867.48 10921.8 1882.85 10907.6 Q1898.22 10893.1 1898.22 10868.3 Q1898.22 10843.3 1882.85 10829 Q1867.67 10814.8 1840.82 10814.8 M1803.41 10798.9 Q1779.34 10792.9 1765.82 10776.4 Q1752.48 10760 1752.48 10736.3 Q1752.48 10703.1 1776 10683.9 Q1799.71 10664.6 1840.82 10664.6 Q1882.11 10664.6 1905.63 10683.9 Q1929.15 10703.1 1929.15 10736.3 Q1929.15 10760 1915.63 10776.4 Q1902.3 10792.9 1878.41 10798.9 Q1905.45 10805.2 1920.45 10823.5 Q1935.63 10841.8 1935.63 10868.3 Q1935.63 10908.5 1911 10930 Q1886.56 10951.4 1840.82 10951.4 Q1795.08 10951.4 1770.45 10930 Q1746 10908.5 1746 10868.3 Q1746 10841.8 1761.19 10823.5 Q1776.37 10805.2 1803.41 10798.9 M1789.71 10739.8 Q1789.71 10761.3 1803.04 10773.3 Q1816.56 10785.3 1840.82 10785.3 Q1864.89 10785.3 1878.41 10773.3 Q1892.11 10761.3 1892.11 10739.8 Q1892.11 10718.3 1878.41 10706.3 Q1864.89 10694.2 1840.82 10694.2 Q1816.56 10694.2 1803.04 10706.3 Q1789.71 10718.3 1789.71 10739.8 Z" fill="#000000" fill-rule="evenodd" fill-opacity="1" /><path clip-path="url(#clip0000)" d="M 0 0 M1109.53 8490.52 Q1080.64 8490.52 1066.01 8519.04 Q1051.56 8547.37 1051.56 8604.41 Q1051.56 8661.26 1066.01 8689.78 Q1080.64 8718.11 1109.53 8718.11 Q1138.6 8718.11 1153.04 8689.78 Q1167.67 8661.26 1167.67 8604.41 Q1167.67 8547.37 1153.04 8519.04 Q1138.6 8490.52 1109.53 8490.52 M1109.53 8460.89 Q1156.01 8460.89 1180.45 8497.74 Q1205.08 8534.41 1205.08 8604.41 Q1205.08 8674.22 1180.45 8711.08 Q1156.01 8747.74 1109.53 8747.74 Q1063.04 8747.74 1038.41 8711.08 Q1013.97 8674.22 1013.97 8604.41 Q1013.97 8534.41 1038.41 8497.74 Q1063.04 8460.89 1109.53 8460.89 Z" fill="#000000" fill-rule="evenodd" fill-opacity="1" /><path clip-path="url(#clip0000)" d="M 0 0 M1245.64 8695.33 L1284.71 8695.33 L1284.71 8742.37 L1245.64 8742.37 L1245.64 8695.33 Z" fill="#000000" fill-rule="evenodd" fill-opacity="1" /><path clip-path="url(#clip0000)" d="M 0 0 M1409.89 8589.22 Q1384.71 8589.22 1369.89 8606.45 Q1355.26 8623.67 1355.26 8653.67 Q1355.26 8683.48 1369.89 8700.89 Q1384.71 8718.11 1409.89 8718.11 Q1435.08 8718.11 1449.71 8700.89 Q1464.52 8683.48 1464.52 8653.67 Q1464.52 8623.67 1449.71 8606.45 Q1435.08 8589.22 1409.89 8589.22 M1484.15 8472 L1484.15 8506.08 Q1470.08 8499.41 1455.63 8495.89 Q1441.38 8492.37 1427.3 8492.37 Q1390.26 8492.37 1370.63 8517.37 Q1351.19 8542.37 1348.41 8592.93 Q1359.34 8576.82 1375.82 8568.3 Q1392.3 8559.59 1412.12 8559.59 Q1453.78 8559.59 1477.86 8584.97 Q1502.12 8610.15 1502.12 8653.67 Q1502.12 8696.26 1476.93 8722 Q1451.75 8747.74 1409.89 8747.74 Q1361.93 8747.74 1336.56 8711.08 Q1311.19 8674.22 1311.19 8604.41 Q1311.19 8538.85 1342.3 8499.97 Q1373.41 8460.89 1425.82 8460.89 Q1439.89 8460.89 1454.15 8463.67 Q1468.6 8466.45 1484.15 8472 Z" fill="#000000" fill-rule="evenodd" fill-opacity="1" /><path clip-path="url(#clip0000)" d="M 0 0 M1627.3 8589.22 Q1602.12 8589.22 1587.3 8606.45 Q1572.67 8623.67 1572.67 8653.67 Q1572.67 8683.48 1587.3 8700.89 Q1602.12 8718.11 1627.3 8718.11 Q1652.49 8718.11 1667.11 8700.89 Q1681.93 8683.48 1681.93 8653.67 Q1681.93 8623.67 1667.11 8606.45 Q1652.49 8589.22 1627.3 8589.22 M1701.56 8472 L1701.56 8506.08 Q1687.49 8499.41 1673.04 8495.89 Q1658.78 8492.37 1644.71 8492.37 Q1607.67 8492.37 1588.04 8517.37 Q1568.6 8542.37 1565.82 8592.93 Q1576.74 8576.82 1593.23 8568.3 Q1609.71 8559.59 1629.52 8559.59 Q1671.19 8559.59 1695.26 8584.97 Q1719.52 8610.15 1719.52 8653.67 Q1719.52 8696.26 1694.34 8722 Q1669.15 8747.74 1627.3 8747.74 Q1579.34 8747.74 1553.97 8711.08 Q1528.6 8674.22 1528.6 8604.41 Q1528.6 8538.85 1559.71 8499.97 Q1590.82 8460.89 1643.23 8460.89 Q1657.3 8460.89 1671.56 8463.67 Q1686 8466.45 1701.56 8472 Z" fill="#000000" fill-rule="evenodd" fill-opacity="1" /><path clip-path="url(#clip0000)" d="M 0 0 M1840.08 8490.52 Q1811.19 8490.52 1796.56 8519.04 Q1782.11 8547.37 1782.11 8604.41 Q1782.11 8661.26 1796.56 8689.78 Q1811.19 8718.11 1840.08 8718.11 Q1869.15 8718.11 1883.6 8689.78 Q1898.22 8661.26 1898.22 8604.41 Q1898.22 8547.37 1883.6 8519.04 Q1869.15 8490.52 1840.08 8490.52 M1840.08 8460.89 Q1886.56 8460.89 1911 8497.74 Q1935.63 8534.41 1935.63 8604.41 Q1935.63 8674.22 1911 8711.08 Q1886.56 8747.74 1840.08 8747.74 Q1793.6 8747.74 1768.97 8711.08 Q1744.52 8674.22 1744.52 8604.41 Q1744.52 8534.41 1768.97 8497.74 Q1793.6 8460.89 1840.08 8460.89 Z" fill="#000000" fill-rule="evenodd" fill-opacity="1" /><path clip-path="url(#clip0000)" d="M 0 0 M1122.3 6286.82 Q1093.41 6286.82 1078.78 6315.33 Q1064.34 6343.67 1064.34 6400.7 Q1064.34 6457.56 1078.78 6486.07 Q1093.41 6514.41 1122.3 6514.41 Q1151.38 6514.41 1165.82 6486.07 Q1180.45 6457.56 1180.45 6400.7 Q1180.45 6343.67 1165.82 6315.33 Q1151.38 6286.82 1122.3 6286.82 M1122.3 6257.19 Q1168.78 6257.19 1193.23 6294.04 Q1217.86 6330.71 1217.86 6400.7 Q1217.86 6470.52 1193.23 6507.37 Q1168.78 6544.04 1122.3 6544.04 Q1075.82 6544.04 1051.19 6507.37 Q1026.75 6470.52 1026.75 6400.7 Q1026.75 6330.71 1051.19 6294.04 Q1075.82 6257.19 1122.3 6257.19 Z" fill="#000000" fill-rule="evenodd" fill-opacity="1" /><path clip-path="url(#clip0000)" d="M 0 0 M1258.41 6491.63 L1297.49 6491.63 L1297.49 6538.67 L1258.41 6538.67 L1258.41 6491.63 Z" fill="#000000" fill-rule="evenodd" fill-opacity="1" /><path clip-path="url(#clip0000)" d="M 0 0 M1422.67 6385.52 Q1397.49 6385.52 1382.67 6402.74 Q1368.04 6419.96 1368.04 6449.96 Q1368.04 6479.78 1382.67 6497.19 Q1397.49 6514.41 1422.67 6514.41 Q1447.86 6514.41 1462.49 6497.19 Q1477.3 6479.78 1477.3 6449.96 Q1477.3 6419.96 1462.49 6402.74 Q1447.86 6385.52 1422.67 6385.52 M1496.93 6268.3 L1496.93 6302.37 Q1482.86 6295.71 1468.41 6292.19 Q1454.15 6288.67 1440.08 6288.67 Q1403.04 6288.67 1383.41 6313.67 Q1363.97 6338.67 1361.19 6389.22 Q1372.12 6373.11 1388.6 6364.59 Q1405.08 6355.89 1424.89 6355.89 Q1466.56 6355.89 1490.63 6381.26 Q1514.89 6406.45 1514.89 6449.96 Q1514.89 6492.56 1489.71 6518.3 Q1464.52 6544.04 1422.67 6544.04 Q1374.71 6544.04 1349.34 6507.37 Q1323.97 6470.52 1323.97 6400.7 Q1323.97 6335.15 1355.08 6296.26 Q1386.19 6257.19 1438.6 6257.19 Q1452.67 6257.19 1466.93 6259.96 Q1481.38 6262.74 1496.93 6268.3 Z" fill="#000000" fill-rule="evenodd" fill-opacity="1" /><path clip-path="url(#clip0000)" d="M 0 0 M1640.08 6385.52 Q1614.89 6385.52 1600.08 6402.74 Q1585.45 6419.96 1585.45 6449.96 Q1585.45 6479.78 1600.08 6497.19 Q1614.89 6514.41 1640.08 6514.41 Q1665.26 6514.41 1679.89 6497.19 Q1694.71 6479.78 1694.71 6449.96 Q1694.71 6419.96 1679.89 6402.74 Q1665.26 6385.52 1640.08 6385.52 M1714.34 6268.3 L1714.34 6302.37 Q1700.26 6295.71 1685.82 6292.19 Q1671.56 6288.67 1657.49 6288.67 Q1620.45 6288.67 1600.82 6313.67 Q1581.37 6338.67 1578.6 6389.22 Q1589.52 6373.11 1606 6364.59 Q1622.49 6355.89 1642.3 6355.89 Q1683.97 6355.89 1708.04 6381.26 Q1732.3 6406.45 1732.3 6449.96 Q1732.3 6492.56 1707.11 6518.3 Q1681.93 6544.04 1640.08 6544.04 Q1592.12 6544.04 1566.74 6507.37 Q1541.37 6470.52 1541.37 6400.7 Q1541.37 6335.15 1572.49 6296.26 Q1603.6 6257.19 1656 6257.19 Q1670.08 6257.19 1684.34 6259.96 Q1698.78 6262.74 1714.34 6268.3 Z" fill="#000000" fill-rule="evenodd" fill-opacity="1" /><path clip-path="url(#clip0000)" d="M 0 0 M1805.08 6507.19 L1935.63 6507.19 L1935.63 6538.67 L1760.08 6538.67 L1760.08 6507.19 Q1781.37 6485.15 1818.04 6448.11 Q1854.89 6410.89 1864.34 6400.15 Q1882.3 6379.96 1889.34 6366.08 Q1896.56 6352 1896.56 6338.48 Q1896.56 6316.45 1881 6302.56 Q1865.63 6288.67 1840.82 6288.67 Q1823.23 6288.67 1803.6 6294.78 Q1784.15 6300.89 1761.93 6313.3 L1761.93 6275.52 Q1784.52 6266.45 1804.15 6261.82 Q1823.78 6257.19 1840.08 6257.19 Q1883.04 6257.19 1908.59 6278.67 Q1934.15 6300.15 1934.15 6336.08 Q1934.15 6353.11 1927.67 6368.48 Q1921.37 6383.67 1904.52 6404.41 Q1899.89 6409.78 1875.08 6435.52 Q1850.26 6461.07 1805.08 6507.19 Z" fill="#000000" fill-rule="evenodd" fill-opacity="1" /><path clip-path="url(#clip0000)" d="M 0 0 M1105.64 4083.11 Q1076.75 4083.11 1062.12 4111.63 Q1047.67 4139.96 1047.67 4197 Q1047.67 4253.85 1062.12 4282.37 Q1076.75 4310.7 1105.64 4310.7 Q1134.71 4310.7 1149.15 4282.37 Q1163.78 4253.85 1163.78 4197 Q1163.78 4139.96 1149.15 4111.63 Q1134.71 4083.11 1105.64 4083.11 M1105.64 4053.48 Q1152.12 4053.48 1176.56 4090.33 Q1201.19 4127 1201.19 4197 Q1201.19 4266.81 1176.56 4303.67 Q1152.12 4340.33 1105.64 4340.33 Q1059.16 4340.33 1034.53 4303.67 Q1010.08 4266.81 1010.08 4197 Q1010.08 4127 1034.53 4090.33 Q1059.16 4053.48 1105.64 4053.48 Z" fill="#000000" fill-rule="evenodd" fill-opacity="1" /><path clip-path="url(#clip0000)" d="M 0 0 M1241.75 4287.93 L1280.82 4287.93 L1280.82 4334.96 L1241.75 4334.96 L1241.75 4287.93 Z" fill="#000000" fill-rule="evenodd" fill-opacity="1" /><path clip-path="url(#clip0000)" d="M 0 0 M1406.01 4181.82 Q1380.82 4181.82 1366.01 4199.04 Q1351.38 4216.26 1351.38 4246.26 Q1351.38 4276.07 1366.01 4293.48 Q1380.82 4310.7 1406.01 4310.7 Q1431.19 4310.7 1445.82 4293.48 Q1460.63 4276.07 1460.63 4246.26 Q1460.63 4216.26 1445.82 4199.04 Q1431.19 4181.82 1406.01 4181.82 M1480.26 4064.59 L1480.26 4098.67 Q1466.19 4092 1451.75 4088.48 Q1437.49 4084.96 1423.41 4084.96 Q1386.38 4084.96 1366.75 4109.96 Q1347.3 4134.96 1344.52 4185.52 Q1355.45 4169.41 1371.93 4160.89 Q1388.41 4152.19 1408.23 4152.19 Q1449.89 4152.19 1473.97 4177.56 Q1498.23 4202.74 1498.23 4246.26 Q1498.23 4288.85 1473.04 4314.59 Q1447.86 4340.33 1406.01 4340.33 Q1358.04 4340.33 1332.67 4303.67 Q1307.3 4266.81 1307.3 4197 Q1307.3 4131.44 1338.41 4092.56 Q1369.52 4053.48 1421.93 4053.48 Q1436 4053.48 1450.26 4056.26 Q1464.71 4059.04 1480.26 4064.59 Z" fill="#000000" fill-rule="evenodd" fill-opacity="1" /><path clip-path="url(#clip0000)" d="M 0 0 M1623.41 4181.82 Q1598.23 4181.82 1583.41 4199.04 Q1568.78 4216.26 1568.78 4246.26 Q1568.78 4276.07 1583.41 4293.48 Q1598.23 4310.7 1623.41 4310.7 Q1648.6 4310.7 1663.23 4293.48 Q1678.04 4276.07 1678.04 4246.26 Q1678.04 4216.26 1663.23 4199.04 Q1648.6 4181.82 1623.41 4181.82 M1697.67 4064.59 L1697.67 4098.67 Q1683.6 4092 1669.15 4088.48 Q1654.89 4084.96 1640.82 4084.96 Q1603.78 4084.96 1584.15 4109.96 Q1564.71 4134.96 1561.93 4185.52 Q1572.86 4169.41 1589.34 4160.89 Q1605.82 4152.19 1625.63 4152.19 Q1667.3 4152.19 1691.37 4177.56 Q1715.63 4202.74 1715.63 4246.26 Q1715.63 4288.85 1690.45 4314.59 Q1665.26 4340.33 1623.41 4340.33 Q1575.45 4340.33 1550.08 4303.67 Q1524.71 4266.81 1524.71 4197 Q1524.71 4131.44 1555.82 4092.56 Q1586.93 4053.48 1639.34 4053.48 Q1653.41 4053.48 1667.67 4056.26 Q1682.11 4059.04 1697.67 4064.59 Z" fill="#000000" fill-rule="evenodd" fill-opacity="1" /><path clip-path="url(#clip0000)" d="M 0 0 M1858.97 4091.07 L1764.52 4238.67 L1858.97 4238.67 L1858.97 4091.07 M1849.15 4058.48 L1896.19 4058.48 L1896.19 4238.67 L1935.63 4238.67 L1935.63 4269.78 L1896.19 4269.78 L1896.19 4334.96 L1858.97 4334.96 L1858.97 4269.78 L1734.15 4269.78 L1734.15 4233.67 L1849.15 4058.48 Z" fill="#000000" fill-rule="evenodd" fill-opacity="1" /><path clip-path="url(#clip0000)" d="M 0 0 M1108.23 1879.41 Q1079.34 1879.41 1064.71 1907.93 Q1050.27 1936.26 1050.27 1993.3 Q1050.27 2050.15 1064.71 2078.67 Q1079.34 2107 1108.23 2107 Q1137.3 2107 1151.75 2078.67 Q1166.38 2050.15 1166.38 1993.3 Q1166.38 1936.26 1151.75 1907.93 Q1137.3 1879.41 1108.23 1879.41 M1108.23 1849.78 Q1154.71 1849.78 1179.15 1886.63 Q1203.78 1923.3 1203.78 1993.3 Q1203.78 2063.11 1179.15 2099.96 Q1154.71 2136.63 1108.23 2136.63 Q1061.75 2136.63 1037.12 2099.96 Q1012.67 2063.11 1012.67 1993.3 Q1012.67 1923.3 1037.12 1886.63 Q1061.75 1849.78 1108.23 1849.78 Z" fill="#000000" fill-rule="evenodd" fill-opacity="1" /><path clip-path="url(#clip0000)" d="M 0 0 M1244.34 2084.22 L1283.41 2084.22 L1283.41 2131.26 L1244.34 2131.26 L1244.34 2084.22 Z" fill="#000000" fill-rule="evenodd" fill-opacity="1" /><path clip-path="url(#clip0000)" d="M 0 0 M1408.6 1978.11 Q1383.41 1978.11 1368.6 1995.33 Q1353.97 2012.55 1353.97 2042.55 Q1353.97 2072.37 1368.6 2089.78 Q1383.41 2107 1408.6 2107 Q1433.78 2107 1448.41 2089.78 Q1463.23 2072.37 1463.23 2042.55 Q1463.23 2012.55 1448.41 1995.33 Q1433.78 1978.11 1408.6 1978.11 M1482.86 1860.89 L1482.86 1894.96 Q1468.78 1888.3 1454.34 1884.78 Q1440.08 1881.26 1426 1881.26 Q1388.97 1881.26 1369.34 1906.26 Q1349.89 1931.26 1347.12 1981.81 Q1358.04 1965.7 1374.52 1957.18 Q1391.01 1948.48 1410.82 1948.48 Q1452.49 1948.48 1476.56 1973.85 Q1500.82 1999.04 1500.82 2042.55 Q1500.82 2085.15 1475.63 2110.89 Q1450.45 2136.63 1408.6 2136.63 Q1360.63 2136.63 1335.26 2099.96 Q1309.89 2063.11 1309.89 1993.3 Q1309.89 1927.74 1341.01 1888.85 Q1372.12 1849.78 1424.52 1849.78 Q1438.6 1849.78 1452.86 1852.56 Q1467.3 1855.33 1482.86 1860.89 Z" fill="#000000" fill-rule="evenodd" fill-opacity="1" /><path clip-path="url(#clip0000)" d="M 0 0 M1626 1978.11 Q1600.82 1978.11 1586 1995.33 Q1571.37 2012.55 1571.37 2042.55 Q1571.37 2072.37 1586 2089.78 Q1600.82 2107 1626 2107 Q1651.19 2107 1665.82 2089.78 Q1680.63 2072.37 1680.63 2042.55 Q1680.63 2012.55 1665.82 1995.33 Q1651.19 1978.11 1626 1978.11 M1700.26 1860.89 L1700.26 1894.96 Q1686.19 1888.3 1671.74 1884.78 Q1657.49 1881.26 1643.41 1881.26 Q1606.37 1881.26 1586.74 1906.26 Q1567.3 1931.26 1564.52 1981.81 Q1575.45 1965.7 1591.93 1957.18 Q1608.41 1948.48 1628.23 1948.48 Q1669.89 1948.48 1693.97 1973.85 Q1718.23 1999.04 1718.23 2042.55 Q1718.23 2085.15 1693.04 2110.89 Q1667.86 2136.63 1626 2136.63 Q1578.04 2136.63 1552.67 2099.96 Q1527.3 2063.11 1527.3 1993.3 Q1527.3 1927.74 1558.41 1888.85 Q1589.52 1849.78 1641.93 1849.78 Q1656 1849.78 1670.26 1852.56 Q1684.71 1855.33 1700.26 1860.89 Z" fill="#000000" fill-rule="evenodd" fill-opacity="1" /><path clip-path="url(#clip0000)" d="M 0 0 M1843.41 1978.11 Q1818.23 1978.11 1803.41 1995.33 Q1788.78 2012.55 1788.78 2042.55 Q1788.78 2072.37 1803.41 2089.78 Q1818.23 2107 1843.41 2107 Q1868.6 2107 1883.22 2089.78 Q1898.04 2072.37 1898.04 2042.55 Q1898.04 2012.55 1883.22 1995.33 Q1868.6 1978.11 1843.41 1978.11 M1917.67 1860.89 L1917.67 1894.96 Q1903.59 1888.3 1889.15 1884.78 Q1874.89 1881.26 1860.82 1881.26 Q1823.78 1881.26 1804.15 1906.26 Q1784.71 1931.26 1781.93 1981.81 Q1792.85 1965.7 1809.34 1957.18 Q1825.82 1948.48 1845.63 1948.48 Q1887.3 1948.48 1911.37 1973.85 Q1935.63 1999.04 1935.63 2042.55 Q1935.63 2085.15 1910.45 2110.89 Q1885.26 2136.63 1843.41 2136.63 Q1795.45 2136.63 1770.08 2099.96 Q1744.71 2063.11 1744.71 1993.3 Q1744.71 1927.74 1775.82 1888.85 Q1806.93 1849.78 1859.34 1849.78 Q1873.41 1849.78 1887.67 1852.56 Q1902.11 1855.33 1917.67 1860.89 Z" fill="#000000" fill-rule="evenodd" fill-opacity="1" /><path clip-path="url(#clip0000)" d="M 0 0 M5156.65 228.341 L5156.65 284.73 Q5131.37 271.767 5104.15 265.286 Q5076.93 258.804 5047.76 258.804 Q5003.36 258.804 4981 272.415 Q4958.97 286.026 4958.97 313.248 Q4958.97 333.989 4974.85 345.98 Q4990.73 357.646 5038.69 368.341 L5059.1 372.878 Q5122.62 386.489 5149.2 411.442 Q5176.09 436.072 5176.09 480.47 Q5176.09 531.025 5135.91 560.516 Q5096.05 590.006 5026.05 590.006 Q4996.88 590.006 4965.12 584.173 Q4933.69 578.664 4898.69 567.321 L4898.69 505.747 Q4931.74 522.923 4963.83 531.673 Q4995.91 540.099 5027.35 540.099 Q5069.47 540.099 5092.16 525.84 Q5114.85 511.257 5114.85 485.007 Q5114.85 460.701 5098.32 447.738 Q5082.11 434.775 5026.7 422.785 L5005.96 417.924 Q4950.54 406.257 4925.91 382.276 Q4901.28 357.97 4901.28 315.841 Q4901.28 264.637 4937.58 236.767 Q4973.87 208.897 5040.63 208.897 Q5073.69 208.897 5102.85 213.758 Q5132.02 218.619 5156.65 228.341 Z" fill="#000000" fill-rule="evenodd" fill-opacity="1" /><path clip-path="url(#clip0000)" d="M 0 0 M5238.64 217.647 L5298.27 217.647 L5298.27 580.608 L5238.64 580.608 L5238.64 217.647 M5238.64 76.3514 L5298.27 76.3514 L5298.27 151.86 L5238.64 151.86 L5238.64 76.3514 Z" fill="#000000" fill-rule="evenodd" fill-opacity="1" /><path clip-path="url(#clip0000)" d="M 0 0 M5334.89 217.647 L5618.13 217.647 L5618.13 272.091 L5393.87 532.969 L5618.13 532.969 L5618.13 580.608 L5326.79 580.608 L5326.79 526.164 L5551.05 265.286 L5334.89 265.286 L5334.89 217.647 Z" fill="#000000" fill-rule="evenodd" fill-opacity="1" /><path clip-path="url(#clip0000)" d="M 0 0 M5991.14 384.22 L5991.14 413.387 L5716.97 413.387 Q5720.86 474.96 5753.92 507.368 Q5787.3 539.451 5846.6 539.451 Q5880.95 539.451 5913.04 531.025 Q5945.44 522.599 5977.2 505.747 L5977.2 562.136 Q5945.12 575.747 5911.41 582.877 Q5877.71 590.006 5843.04 590.006 Q5756.18 590.006 5705.3 539.451 Q5654.75 488.896 5654.75 402.692 Q5654.75 313.572 5702.71 261.397 Q5751 208.897 5832.67 208.897 Q5905.91 208.897 5948.36 256.212 Q5991.14 303.202 5991.14 384.22 M5931.51 366.72 Q5930.86 317.785 5903.96 288.619 Q5877.39 259.452 5833.31 259.452 Q5783.41 259.452 5753.27 287.647 Q5723.45 315.841 5718.92 367.044 L5931.51 366.72 Z" fill="#000000" fill-rule="evenodd" fill-opacity="1" /><path clip-path="url(#clip0000)" d="M 0 0 M6068.91 498.294 L6137.29 498.294 L6137.29 580.608 L6068.91 580.608 L6068.91 498.294 M6068.91 237.415 L6137.29 237.415 L6137.29 319.73 L6068.91 319.73 L6068.91 237.415 Z" fill="#000000" fill-rule="evenodd" fill-opacity="1" /><path clip-path="url(#clip0000)" d="M 0 0 M6356.37 312.6 Q6312.29 312.6 6286.37 342.739 Q6260.76 372.878 6260.76 425.377 Q6260.76 477.553 6286.37 508.016 Q6312.29 538.155 6356.37 538.155 Q6400.44 538.155 6426.04 508.016 Q6451.97 477.553 6451.97 425.377 Q6451.97 372.878 6426.04 342.739 Q6400.44 312.6 6356.37 312.6 M6486.32 107.462 L6486.32 167.092 Q6461.69 155.425 6436.41 149.268 Q6411.46 143.11 6386.83 143.11 Q6322.01 143.11 6287.66 186.86 Q6253.64 230.61 6248.77 319.082 Q6267.89 290.887 6296.74 275.98 Q6325.58 260.749 6360.26 260.749 Q6433.17 260.749 6475.3 305.147 Q6517.75 349.22 6517.75 425.377 Q6517.75 499.914 6473.68 544.96 Q6429.61 590.006 6356.37 590.006 Q6272.43 590.006 6228.03 525.84 Q6183.64 461.349 6183.64 339.174 Q6183.64 224.453 6238.08 156.397 Q6292.52 88.018 6384.24 88.018 Q6408.87 88.018 6433.82 92.8791 Q6459.1 97.7402 6486.32 107.462 Z" fill="#000000" fill-rule="evenodd" fill-opacity="1" /><path clip-path="url(#clip0000)" d="M 0 0 M6595.53 498.294 L6663.91 498.294 L6663.91 554.034 L6610.76 657.737 L6568.96 657.737 L6595.53 554.034 L6595.53 498.294 Z" fill="#000000" fill-rule="evenodd" fill-opacity="1" /><path clip-path="url(#clip0000)" d="M 0 0 M6874.88 350.841 Q6828.22 350.841 6801.32 375.794 Q6774.74 400.748 6774.74 444.498 Q6774.74 488.247 6801.32 513.201 Q6828.22 538.155 6874.88 538.155 Q6921.55 538.155 6948.45 513.201 Q6975.34 487.923 6975.34 444.498 Q6975.34 400.748 6948.45 375.794 Q6921.87 350.841 6874.88 350.841 M6809.42 322.97 Q6767.29 312.6 6743.63 283.758 Q6720.3 254.915 6720.3 213.434 Q6720.3 155.425 6761.46 121.722 Q6802.94 88.018 6874.88 88.018 Q6947.15 88.018 6988.31 121.722 Q7029.46 155.425 7029.46 213.434 Q7029.46 254.915 7005.81 283.758 Q6982.47 312.6 6940.67 322.97 Q6987.98 333.989 7014.23 366.072 Q7040.81 398.155 7040.81 444.498 Q7040.81 514.821 6997.71 552.414 Q6954.93 590.006 6874.88 590.006 Q6794.84 590.006 6751.73 552.414 Q6708.96 514.821 6708.96 444.498 Q6708.96 398.155 6735.53 366.072 Q6762.1 333.989 6809.42 322.97 M6785.44 219.591 Q6785.44 257.184 6808.77 278.249 Q6832.43 299.313 6874.88 299.313 Q6917.01 299.313 6940.67 278.249 Q6964.65 257.184 6964.65 219.591 Q6964.65 181.999 6940.67 160.934 Q6917.01 139.87 6874.88 139.87 Q6832.43 139.87 6808.77 160.934 Q6785.44 181.999 6785.44 219.591 Z" fill="#000000" fill-rule="evenodd" fill-opacity="1" /><path clip-path="url(#clip0000)" d="M 0 0 M7118.58 498.294 L7186.96 498.294 L7186.96 554.034 L7133.82 657.737 L7092.01 657.737 L7118.58 554.034 L7118.58 498.294 Z" fill="#000000" fill-rule="evenodd" fill-opacity="1" /><path clip-path="url(#clip0000)" d="M 0 0 M7269.28 525.516 L7376.22 525.516 L7376.22 156.397 L7259.88 179.731 L7259.88 120.101 L7375.57 96.768 L7441.04 96.768 L7441.04 525.516 L7547.98 525.516 L7547.98 580.608 L7269.28 580.608 L7269.28 525.516 Z" fill="#000000" fill-rule="evenodd" fill-opacity="1" /><path clip-path="url(#clip0000)" d="M 0 0 M7758.95 139.87 Q7708.4 139.87 7682.79 189.777 Q7657.52 239.36 7657.52 339.174 Q7657.52 438.664 7682.79 488.571 Q7708.4 538.155 7758.95 538.155 Q7809.83 538.155 7835.11 488.571 Q7860.71 438.664 7860.71 339.174 Q7860.71 239.36 7835.11 189.777 Q7809.83 139.87 7758.95 139.87 M7758.95 88.018 Q7840.29 88.018 7883.07 152.508 Q7926.17 216.675 7926.17 339.174 Q7926.17 461.349 7883.07 525.84 Q7840.29 590.006 7758.95 590.006 Q7677.61 590.006 7634.51 525.84 Q7591.73 461.349 7591.73 339.174 Q7591.73 216.675 7634.51 152.508 Q7677.61 88.018 7758.95 88.018 Z" fill="#000000" fill-rule="evenodd" fill-opacity="1" /><path clip-path="url(#clip0000)" d="M 0 0 M8003.95 498.294 L8072.33 498.294 L8072.33 554.034 L8019.18 657.737 L7977.38 657.737 L8003.95 554.034 L8003.95 498.294 Z" fill="#000000" fill-rule="evenodd" fill-opacity="1" /><path clip-path="url(#clip0000)" d="M 0 0 M8154.64 525.516 L8261.59 525.516 L8261.59 156.397 L8145.25 179.731 L8145.25 120.101 L8260.94 96.768 L8326.4 96.768 L8326.4 525.516 L8433.35 525.516 L8433.35 580.608 L8154.64 580.608 L8154.64 525.516 Z" fill="#000000" fill-rule="evenodd" fill-opacity="1" /><path clip-path="url(#clip0000)" d="M 0 0 M8560.71 525.516 L8789.18 525.516 L8789.18 580.608 L8481.96 580.608 L8481.96 525.516 Q8519.23 486.951 8583.39 422.137 Q8647.88 356.998 8664.41 338.202 Q8695.84 302.878 8708.16 278.573 Q8720.8 253.943 8720.8 230.286 Q8720.8 191.721 8693.58 167.416 Q8666.68 143.11 8623.25 143.11 Q8592.47 143.11 8558.11 153.805 Q8524.09 164.499 8485.2 186.212 L8485.2 120.101 Q8524.73 104.222 8559.09 96.1199 Q8593.44 88.018 8621.96 88.018 Q8697.14 88.018 8741.86 125.61 Q8786.58 163.203 8786.58 226.073 Q8786.58 255.888 8775.24 282.786 Q8764.22 309.359 8734.73 345.656 Q8726.63 355.054 8683.21 400.1 Q8639.78 444.822 8560.71 525.516 Z" fill="#000000" fill-rule="evenodd" fill-opacity="1" /><path clip-path="url(#clip0000)" d="M 0 0 M8866.95 498.294 L8935.33 498.294 L8935.33 554.034 L8882.19 657.737 L8840.38 657.737 L8866.95 554.034 L8866.95 498.294 Z" fill="#000000" fill-rule="evenodd" fill-opacity="1" /><path clip-path="url(#clip0000)" d="M 0 0 M9017.65 525.516 L9124.59 525.516 L9124.59 156.397 L9008.25 179.731 L9008.25 120.101 L9123.94 96.768 L9189.41 96.768 L9189.41 525.516 L9296.35 525.516 L9296.35 580.608 L9017.65 580.608 L9017.65 525.516 Z" fill="#000000" fill-rule="evenodd" fill-opacity="1" /><path clip-path="url(#clip0000)" d="M 0 0 M9547.18 153.805 L9381.91 412.09 L9547.18 412.09 L9547.18 153.805 M9530.01 96.768 L9612.32 96.768 L9612.32 412.09 L9681.35 412.09 L9681.35 466.535 L9612.32 466.535 L9612.32 580.608 L9547.18 580.608 L9547.18 466.535 L9328.76 466.535 L9328.76 403.34 L9530.01 96.768 Z" fill="#000000" fill-rule="evenodd" fill-opacity="1" /><path clip-path="url(#clip0000)" d="M 0 0 M9759.13 498.294 L9827.51 498.294 L9827.51 554.034 L9774.36 657.737 L9732.55 657.737 L9759.13 554.034 L9759.13 498.294 Z" fill="#000000" fill-rule="evenodd" fill-opacity="1" /><path clip-path="url(#clip0000)" d="M 0 0 M9909.82 525.516 L10016.8 525.516 L10016.8 156.397 L9900.42 179.731 L9900.42 120.101 L10016.1 96.768 L10081.6 96.768 L10081.6 525.516 L10188.5 525.516 L10188.5 580.608 L9909.82 580.608 L9909.82 525.516 Z" fill="#000000" fill-rule="evenodd" fill-opacity="1" /><path clip-path="url(#clip0000)" d="M 0 0 M10407.6 312.6 Q10363.5 312.6 10337.6 342.739 Q10312 372.878 10312 425.377 Q10312 477.553 10337.6 508.016 Q10363.5 538.155 10407.6 538.155 Q10451.7 538.155 10477.3 508.016 Q10503.2 477.553 10503.2 425.377 Q10503.2 372.878 10477.3 342.739 Q10451.7 312.6 10407.6 312.6 M10537.5 107.462 L10537.5 167.092 Q10512.9 155.425 10487.6 149.268 Q10462.7 143.11 10438.1 143.11 Q10373.2 143.11 10338.9 186.86 Q10304.9 230.61 10300 319.082 Q10319.1 290.887 10348 275.98 Q10376.8 260.749 10411.5 260.749 Q10484.4 260.749 10526.5 305.147 Q10569 349.22 10569 425.377 Q10569 499.914 10524.9 544.96 Q10480.8 590.006 10407.6 590.006 Q10323.7 590.006 10279.3 525.84 Q10234.9 461.349 10234.9 339.174 Q10234.9 224.453 10289.3 156.397 Q10343.8 88.018 10435.5 88.018 Q10460.1 88.018 10485 92.8791 Q10510.3 97.7402 10537.5 107.462 Z" fill="#000000" fill-rule="evenodd" fill-opacity="1" /><path clip-path="url(#clip0000)" d="M 0 0 M10646.8 237.415 L10715.1 237.415 L10715.1 319.73 L10646.8 319.73 L10646.8 237.415 M10646.8 498.294 L10715.1 498.294 L10715.1 554.034 L10662 657.737 L10620.2 657.737 L10646.8 554.034 L10646.8 498.294 Z" fill="#000000" fill-rule="evenodd" fill-opacity="1" /><path clip-path="url(#clip0000)" d="M 0 0 M11187.6 141.166 Q11116.3 141.166 11074.2 194.314 Q11032.4 247.462 11032.4 339.174 Q11032.4 430.563 11074.2 483.71 Q11116.3 536.858 11187.6 536.858 Q11258.9 536.858 11300.4 483.71 Q11342.2 430.563 11342.2 339.174 Q11342.2 247.462 11300.4 194.314 Q11258.9 141.166 11187.6 141.166 M11279.3 571.858 L11365.6 666.163 L11286.5 666.163 L11214.9 588.71 Q11204.2 589.358 11198.3 589.682 Q11192.8 590.006 11187.6 590.006 Q11085.6 590.006 11024.3 521.951 Q10963.4 453.572 10963.4 339.174 Q10963.4 224.453 11024.3 156.397 Q11085.6 88.018 11187.6 88.018 Q11289.4 88.018 11350.3 156.397 Q11411.2 224.453 11411.2 339.174 Q11411.2 423.433 11377.2 483.386 Q11343.5 543.34 11279.3 571.858 Z" fill="#000000" fill-rule="evenodd" fill-opacity="1" /><path clip-path="url(#clip0000)" d="M 0 0 M11692.5 279.221 L12108 279.221 L12108 333.665 L11692.5 333.665 L11692.5 279.221 M11692.5 411.442 L12108 411.442 L12108 466.535 L11692.5 466.535 L11692.5 411.442 Z" fill="#000000" fill-rule="evenodd" fill-opacity="1" /><path clip-path="url(#clip0000)" d="M 0 0 M12401.3 525.516 L12508.2 525.516 L12508.2 156.397 L12391.9 179.731 L12391.9 120.101 L12507.6 96.768 L12573 96.768 L12573 525.516 L12680 525.516 L12680 580.608 L12401.3 580.608 L12401.3 525.516 Z" fill="#000000" fill-rule="evenodd" fill-opacity="1" /><path clip-path="url(#clip0000)" d="M 0 0 M12899.1 312.6 Q12855 312.6 12829.1 342.739 Q12803.5 372.878 12803.5 425.377 Q12803.5 477.553 12829.1 508.016 Q12855 538.155 12899.1 538.155 Q12943.1 538.155 12968.7 508.016 Q12994.7 477.553 12994.7 425.377 Q12994.7 372.878 12968.7 342.739 Q12943.1 312.6 12899.1 312.6 M13029 107.462 L13029 167.092 Q13004.4 155.425 12979.1 149.268 Q12954.2 143.11 12929.5 143.11 Q12864.7 143.11 12830.4 186.86 Q12796.3 230.61 12791.5 319.082 Q12810.6 290.887 12839.4 275.98 Q12868.3 260.749 12903 260.749 Q12975.9 260.749 13018 305.147 Q13060.5 349.22 13060.5 425.377 Q13060.5 499.914 13016.4 544.96 Q12972.3 590.006 12899.1 590.006 Q12815.1 590.006 12770.7 525.84 Q12726.3 461.349 12726.3 339.174 Q12726.3 224.453 12780.8 156.397 Q12835.2 88.018 12926.9 88.018 Q12951.6 88.018 12976.5 92.8791 Q13001.8 97.7402 13029 107.462 Z" fill="#000000" fill-rule="evenodd" fill-opacity="1" /><path clip-path="url(#clip0000)" d="M 0 0 M13138.2 237.415 L13206.6 237.415 L13206.6 319.73 L13138.2 319.73 L13138.2 237.415 M13138.2 498.294 L13206.6 498.294 L13206.6 554.034 L13153.5 657.737 L13111.7 657.737 L13138.2 554.034 L13138.2 498.294 Z" fill="#000000" fill-rule="evenodd" fill-opacity="1" /><path clip-path="url(#clip0000)" d="M 0 0 M13482.7 96.768 L13548.2 96.768 L13548.2 546.904 Q13548.2 634.404 13514.8 673.941 Q13481.7 713.478 13408.2 713.478 L13383.2 713.478 L13383.2 658.385 L13403.6 658.385 Q13447.1 658.385 13464.9 634.08 Q13482.7 609.775 13482.7 546.904 L13482.7 96.768 Z" fill="#000000" fill-rule="evenodd" fill-opacity="1" /><path clip-path="url(#clip0000)" d="M 0 0 M13886.5 690.793 L13886.5 737.135 L13541.7 737.135 L13541.7 690.793 L13886.5 690.793 Z" fill="#000000" fill-rule="evenodd" fill-opacity="1" /><path clip-path="url(#clip0000)" d="M 0 0 M14097.5 139.87 Q14046.9 139.87 14021.3 189.777 Q13996 239.36 13996 339.174 Q13996 438.664 14021.3 488.571 Q14046.9 538.155 14097.5 538.155 Q14148.4 538.155 14173.6 488.571 Q14199.2 438.664 14199.2 339.174 Q14199.2 239.36 14173.6 189.777 Q14148.4 139.87 14097.5 139.87 M14097.5 88.018 Q14178.8 88.018 14221.6 152.508 Q14264.7 216.675 14264.7 339.174 Q14264.7 461.349 14221.6 525.84 Q14178.8 590.006 14097.5 590.006 Q14016.1 590.006 13973 525.84 Q13930.3 461.349 13930.3 339.174 Q13930.3 216.675 13973 152.508 Q14016.1 88.018 14097.5 88.018 Z" fill="#000000" fill-rule="evenodd" fill-opacity="1" /><path clip-path="url(#clip0000)" d="M 0 0 M14546 279.221 L14961.5 279.221 L14961.5 333.665 L14546 333.665 L14546 279.221 M14546 411.442 L14961.5 411.442 L14961.5 466.535 L14546 466.535 L14546 411.442 Z" fill="#000000" fill-rule="evenodd" fill-opacity="1" /><path clip-path="url(#clip0000)" d="M 0 0 M15254.7 525.516 L15361.7 525.516 L15361.7 156.397 L15245.3 179.731 L15245.3 120.101 L15361 96.768 L15426.5 96.768 L15426.5 525.516 L15533.4 525.516 L15533.4 580.608 L15254.7 580.608 L15254.7 525.516 Z" fill="#000000" fill-rule="evenodd" fill-opacity="1" /><path clip-path="url(#clip0000)" d="M 0 0 M15604.4 498.294 L15672.8 498.294 L15672.8 580.608 L15604.4 580.608 L15604.4 498.294 Z" fill="#000000" fill-rule="evenodd" fill-opacity="1" /><path clip-path="url(#clip0000)" d="M 0 0 M15883.8 139.87 Q15833.2 139.87 15807.6 189.777 Q15782.3 239.36 15782.3 339.174 Q15782.3 438.664 15807.6 488.571 Q15833.2 538.155 15883.8 538.155 Q15934.6 538.155 15959.9 488.571 Q15985.5 438.664 15985.5 339.174 Q15985.5 239.36 15959.9 189.777 Q15934.6 139.87 15883.8 139.87 M15883.8 88.018 Q15965.1 88.018 16007.9 152.508 Q16051 216.675 16051 339.174 Q16051 461.349 16007.9 525.84 Q15965.1 590.006 15883.8 590.006 Q15802.4 590.006 15759.3 525.84 Q15716.5 461.349 15716.5 339.174 Q15716.5 216.675 15759.3 152.508 Q15802.4 88.018 15883.8 88.018 Z" fill="#000000" fill-rule="evenodd" fill-opacity="1" /><path clip-path="url(#clip0000)" d="M 0 0 M10314 12068.2 L10635.6 12068.2 L10635.6 12111.5 L10500.7 12111.5 L10500.7 12448.4 L10449 12448.4 L10449 12111.5 L10314 12111.5 L10314 12068.2 Z" fill="#000000" fill-rule="evenodd" fill-opacity="1" /><path clip-path="url(#clip0000)" d="M 0 0 M522.483 7641.94 L661.765 7641.94 L661.765 7559.44 Q661.765 7517.93 644.705 7498.07 Q627.39 7477.96 591.997 7477.96 Q556.349 7477.96 539.543 7498.07 Q522.483 7517.93 522.483 7559.44 L522.483 7641.94 M366.142 7641.94 L480.724 7641.94 L480.724 7565.8 Q480.724 7528.12 466.72 7509.78 Q452.461 7491.2 423.433 7491.2 Q394.66 7491.2 380.401 7509.78 Q366.142 7528.12 366.142 7565.8 L366.142 7641.94 M323.873 7693.37 L323.873 7561.98 Q323.873 7503.16 348.318 7471.33 Q372.762 7439.51 417.831 7439.51 Q452.715 7439.51 473.34 7455.8 Q493.965 7472.1 499.058 7503.67 Q507.206 7465.73 533.178 7444.85 Q558.895 7423.72 597.599 7423.72 Q648.524 7423.72 676.279 7458.35 Q704.033 7492.98 704.033 7556.89 L704.033 7693.37 L323.873 7693.37 Z" fill="#000000" fill-rule="evenodd" fill-opacity="1" /><path clip-path="url(#clip0000)" d="M 0 0 M418.85 7374.58 L418.85 7327.72 L704.033 7327.72 L704.033 7374.58 L418.85 7374.58 M307.832 7374.58 L307.832 7327.72 L367.16 7327.72 L367.16 7374.58 L307.832 7374.58 Z" fill="#000000" fill-rule="evenodd" fill-opacity="1" /><path clip-path="url(#clip0000)" d="M 0 0 M531.905 7041.52 L704.033 7041.52 L704.033 7088.37 L533.432 7088.37 Q492.946 7088.37 472.831 7104.16 Q452.715 7119.95 452.715 7151.52 Q452.715 7189.46 476.905 7211.36 Q501.095 7233.26 542.854 7233.26 L704.033 7233.26 L704.033 7280.36 L418.85 7280.36 L418.85 7233.26 L463.155 7233.26 Q437.437 7216.45 424.706 7193.79 Q411.975 7170.87 411.975 7141.08 Q411.975 7091.94 442.53 7066.73 Q472.831 7041.52 531.905 7041.52 Z" fill="#000000" fill-rule="evenodd" fill-opacity="1" /><path clip-path="url(#clip0000)" d="M 0 0 M462.136 6804.72 L307.832 6804.72 L307.832 6757.87 L704.033 6757.87 L704.033 6804.72 L661.256 6804.72 Q686.719 6819.49 699.195 6842.15 Q711.417 6864.56 711.417 6896.13 Q711.417 6947.82 670.168 6980.41 Q628.918 7012.75 561.696 7012.75 Q494.474 7012.75 453.224 6980.41 Q411.975 6947.82 411.975 6896.13 Q411.975 6864.56 424.451 6842.15 Q436.674 6819.49 462.136 6804.72 M561.696 6964.37 Q613.386 6964.37 642.922 6943.24 Q672.205 6921.85 672.205 6884.67 Q672.205 6847.5 642.922 6826.11 Q613.386 6804.72 561.696 6804.72 Q510.007 6804.72 480.724 6826.11 Q451.187 6847.5 451.187 6884.67 Q451.187 6921.85 480.724 6943.24 Q510.007 6964.37 561.696 6964.37 Z" fill="#000000" fill-rule="evenodd" fill-opacity="1" /><path clip-path="url(#clip0000)" d="M 0 0 M549.729 6464.79 L572.645 6464.79 L572.645 6680.2 Q621.024 6677.15 646.487 6651.18 Q671.695 6624.95 671.695 6578.35 Q671.695 6551.36 665.075 6526.15 Q658.455 6500.69 645.214 6475.74 L689.519 6475.74 Q700.214 6500.95 705.816 6527.43 Q711.417 6553.91 711.417 6581.15 Q711.417 6649.39 671.695 6689.37 Q631.973 6729.09 564.242 6729.09 Q494.22 6729.09 453.224 6691.41 Q411.975 6653.47 411.975 6589.3 Q411.975 6531.76 449.15 6498.4 Q486.071 6464.79 549.729 6464.79 M535.979 6511.64 Q497.53 6512.15 474.613 6533.28 Q451.697 6554.16 451.697 6588.79 Q451.697 6628.01 473.849 6651.69 Q496.002 6675.11 536.233 6678.68 L535.979 6511.64 Z" fill="#000000" fill-rule="evenodd" fill-opacity="1" /><path clip-path="url(#clip0000)" d="M 0 0 M462.646 6250.39 Q458.062 6258.29 456.025 6267.71 Q453.734 6276.87 453.734 6288.08 Q453.734 6327.8 479.706 6349.19 Q505.423 6370.32 553.803 6370.32 L704.033 6370.32 L704.033 6417.43 L418.85 6417.43 L418.85 6370.32 L463.155 6370.32 Q437.183 6355.55 424.706 6331.87 Q411.975 6308.19 411.975 6274.33 Q411.975 6269.49 412.739 6263.63 Q413.248 6257.78 414.521 6250.65 L462.646 6250.39 Z" fill="#000000" fill-rule="evenodd" fill-opacity="1" /><path clip-path="url(#clip0000)" d="M 0 0 M323.873 6156.94 L465.192 6156.94 L465.192 6200.23 L323.873 6200.23 L323.873 6156.94 Z" fill="#000000" fill-rule="evenodd" fill-opacity="1" /><path clip-path="url(#clip0000)" d="M 0 0 M427.252 5926 L471.558 5926 Q461.373 5945.86 456.28 5967.25 Q451.187 5988.63 451.187 6011.55 Q451.187 6046.44 461.882 6064 Q472.576 6081.32 493.965 6081.32 Q510.261 6081.32 519.682 6068.84 Q528.849 6056.37 537.252 6018.68 L540.817 6002.64 Q551.511 5952.73 571.117 5931.85 Q590.469 5910.72 625.353 5910.72 Q665.075 5910.72 688.246 5942.29 Q711.417 5973.61 711.417 6028.61 Q711.417 6051.53 706.834 6076.48 Q702.505 6101.18 693.594 6128.68 L645.214 6128.68 Q658.709 6102.71 665.584 6077.5 Q672.205 6052.29 672.205 6027.59 Q672.205 5994.49 661.001 5976.67 Q649.543 5958.84 628.918 5958.84 Q609.821 5958.84 599.636 5971.83 Q589.451 5984.56 580.029 6028.1 L576.21 6044.4 Q567.043 6087.94 548.201 6107.29 Q529.104 6126.64 496.002 6126.64 Q455.771 6126.64 433.873 6098.12 Q411.975 6069.61 411.975 6017.15 Q411.975 5991.18 415.794 5968.26 Q419.613 5945.35 427.252 5926 Z" fill="#000000" fill-rule="evenodd" fill-opacity="1" /><path clip-path="url(#clip0000)" d="M 0 0 M462.646 5530.56 Q458.062 5538.45 456.025 5547.87 Q453.734 5557.04 453.734 5568.24 Q453.734 5607.97 479.706 5629.35 Q505.423 5650.49 553.803 5650.49 L704.033 5650.49 L704.033 5697.59 L418.85 5697.59 L418.85 5650.49 L463.155 5650.49 Q437.183 5635.72 424.706 5612.04 Q411.975 5588.36 411.975 5554.49 Q411.975 5549.66 412.739 5543.8 Q413.248 5537.94 414.521 5530.81 L462.646 5530.56 Z" fill="#000000" fill-rule="evenodd" fill-opacity="1" /><path clip-path="url(#clip0000)" d="M 0 0 M560.678 5351.81 Q560.678 5408.59 573.664 5430.49 Q586.65 5452.39 617.969 5452.39 Q642.922 5452.39 657.691 5436.09 Q672.205 5419.54 672.205 5391.28 Q672.205 5352.32 644.705 5328.89 Q616.95 5305.21 571.117 5305.21 L560.678 5305.21 L560.678 5351.81 M541.326 5258.36 L704.033 5258.36 L704.033 5305.21 L660.746 5305.21 Q686.719 5321.25 699.195 5345.19 Q711.417 5369.12 711.417 5403.75 Q711.417 5447.55 686.973 5473.52 Q662.274 5499.24 621.024 5499.24 Q572.9 5499.24 548.455 5467.16 Q524.011 5434.82 524.011 5370.91 L524.011 5305.21 L519.428 5305.21 Q487.09 5305.21 469.521 5326.6 Q451.697 5347.74 451.697 5386.18 Q451.697 5410.63 457.553 5433.8 Q463.41 5456.97 475.122 5478.36 L431.836 5478.36 Q421.905 5452.64 417.067 5428.45 Q411.975 5404.26 411.975 5381.35 Q411.975 5319.47 444.058 5288.92 Q476.141 5258.36 541.326 5258.36 Z" fill="#000000" fill-rule="evenodd" fill-opacity="1" /><path clip-path="url(#clip0000)" d="M 0 0 M337.878 5162.87 L418.85 5162.87 L418.85 5066.37 L455.261 5066.37 L455.261 5162.87 L610.075 5162.87 Q644.96 5162.87 654.89 5153.45 Q664.821 5143.78 664.821 5114.5 L664.821 5066.37 L704.033 5066.37 L704.033 5114.5 Q704.033 5168.73 683.918 5189.36 Q663.547 5209.98 610.075 5209.98 L455.261 5209.98 L455.261 5244.36 L418.85 5244.36 L418.85 5209.98 L337.878 5209.98 L337.878 5162.87 Z" fill="#000000" fill-rule="evenodd" fill-opacity="1" /><path clip-path="url(#clip0000)" d="M 0 0 M418.85 5017.23 L418.85 4970.38 L704.033 4970.38 L704.033 5017.23 L418.85 5017.23 M307.832 5017.23 L307.832 4970.38 L367.16 4970.38 L367.16 5017.23 L307.832 5017.23 Z" fill="#000000" fill-rule="evenodd" fill-opacity="1" /><path clip-path="url(#clip0000)" d="M 0 0 M451.697 4810.72 Q451.697 4848.41 481.234 4870.31 Q510.516 4892.21 561.696 4892.21 Q612.876 4892.21 642.413 4870.56 Q671.695 4848.66 671.695 4810.72 Q671.695 4773.29 642.159 4751.4 Q612.622 4729.5 561.696 4729.5 Q511.025 4729.5 481.488 4751.4 Q451.697 4773.29 451.697 4810.72 M411.975 4810.72 Q411.975 4749.61 451.697 4714.73 Q491.419 4679.85 561.696 4679.85 Q631.719 4679.85 671.695 4714.73 Q711.417 4749.61 711.417 4810.72 Q711.417 4872.09 671.695 4906.97 Q631.719 4941.6 561.696 4941.6 Q491.419 4941.6 451.697 4906.97 Q411.975 4872.09 411.975 4810.72 Z" fill="#000000" fill-rule="evenodd" fill-opacity="1" /><polyline clip-path="url(#clip0002)" style="stroke:#009af9; stroke-width:32; stroke-opacity:1; fill:none" points="
  2600.12,1282.59 2759.2,1282.05 2918.29,1282.58 3077.37,1284.46 3236.46,1282.93 3395.54,1283.15 3554.63,1283.39 3713.71,1283.04 3872.8,1283.14 4031.88,1284.14 
  4190.97,1285.06 4350.05,1283.76 4509.14,1285.21 4668.22,1284.37 4827.31,1284.46 4986.4,1286.05 5145.48,1286.02 5304.57,1285.64 5463.65,1285.75 5622.74,1287.26 
  5781.82,1287.26 5940.91,1288.53 6099.99,1289.48 6259.08,1288.91 6418.16,1289.78 6577.25,1291.05 6736.33,1291.01 6895.42,1289.34 7054.5,1292.28 7213.59,1294.09 
  7372.68,1294.85 7531.76,1296.46 7690.85,1296.56 7849.93,1298.13 8009.02,1298.1 8168.1,1300.75 8327.19,1299.7 8486.27,1303.23 8645.36,1306.87 8804.44,1305.16 
  8963.53,1310.79 9122.61,1309.64 9281.7,1312.22 9440.78,1314.45 9599.87,1317.37 9758.96,1320.48 9918.04,1322.53 10077.1,1328.26 10236.2,1331.92 10395.3,1336.01 
  10554.4,1338.03 10713.5,1340.54 10872.6,1342.71 11031.6,1352.93 11190.7,1355.9 11349.8,1357.54 11508.9,1376.56 11668,1381.69 11827.1,1381.79 11986.2,1390.5 
  12145.2,1397.03 12304.3,1408.33 12463.4,1421.18 12622.5,1438.31 12781.6,1442.82 12940.7,1468.54 13099.7,1465.24 13258.8,1503.04 13417.9,1519.36 13577,1543.5 
  13736.1,1574.27 13895.2,1627.43 14054.3,1609.11 14213.3,1646.84 14372.4,1664.64 14531.5,1750.05 14690.6,1839.2 14849.7,1810.38 15008.8,1902.48 15167.9,1961.89 
  15326.9,2031.17 15486,2213.17 15645.1,2349.48 15804.2,2435.09 15963.3,2452.26 16122.4,2670.92 16281.5,2788.41 16440.5,2950.16 16599.6,3150.7 16758.7,3514.81 
  16917.8,4017.21 17076.9,4010.24 17236,4561.19 17395.1,5394.88 17554.1,5838.25 17713.2,6354.52 17872.3,7575.22 18031.4,7550.03 18190.5,8890.64 18349.6,9360.57 
  
  "/>
<polyline clip-path="url(#clip0002)" style="stroke:#e26f46; stroke-width:32; stroke-opacity:1; fill:none" points="
  2600.12,1293.43 2759.2,1291.29 2918.29,1292.01 3077.37,1291.48 3236.46,1290.55 3395.54,1292.37 3554.63,1292.1 3713.71,1293 3872.8,1292.07 4031.88,1293.49 
  4190.97,1292.18 4350.05,1293 4509.14,1295.59 4668.22,1295.52 4827.31,1294.28 4986.4,1295.52 5145.48,1296.17 5304.57,1295.85 5463.65,1297.33 5622.74,1298.78 
  5781.82,1297.16 5940.91,1295.89 6099.99,1297.33 6259.08,1299.73 6418.16,1300.26 6577.25,1300.86 6736.33,1303.36 6895.42,1302.61 7054.5,1301.76 7213.59,1301.96 
  7372.68,1304.21 7531.76,1306.07 7690.85,1309.09 7849.93,1306.7 8009.02,1306.57 8168.1,1309.18 8327.19,1308.48 8486.27,1313.99 8645.36,1311.55 8804.44,1313.47 
  8963.53,1316.45 9122.61,1317.61 9281.7,1321.04 9440.78,1320.32 9599.87,1328.52 9758.96,1328.2 9918.04,1326.28 10077.1,1333.57 10236.2,1341.62 10395.3,1341.36 
  10554.4,1342.92 10713.5,1351.14 10872.6,1350.91 11031.6,1355.89 11190.7,1358.11 11349.8,1360.46 11508.9,1364.54 11668,1374.39 11827.1,1381.34 11986.2,1389.68 
  12145.2,1399.52 12304.3,1408.71 12463.4,1409.92 12622.5,1426.59 12781.6,1428.31 12940.7,1441.9 13099.7,1465.26 13258.8,1466.73 13417.9,1497.45 13577,1528.32 
  13736.1,1532.18 13895.2,1536.74 14054.3,1582.1 14213.3,1602.77 14372.4,1629.75 14531.5,1677.22 14690.6,1685.7 14849.7,1737.14 15008.8,1800.39 15167.9,1868.74 
  15326.9,1929.67 15486,2008.73 15645.1,2067.53 15804.2,2178.24 15963.3,2392.04 16122.4,2447.29 16281.5,2557.2 16440.5,2852.87 16599.6,2983.35 16758.7,3153.84 
  16917.8,3378.42 17076.9,4064.34 17236,4236.47 17395.1,4458.7 17554.1,5162.89 17713.2,6019.97 17872.3,6827.76 18031.4,8661.11 18190.5,8807.94 18349.6,11091.2 
  
  "/>
<polyline clip-path="url(#clip0002)" style="stroke:#3da44d; stroke-width:32; stroke-opacity:1; fill:none" points="
  2600.12,1300.79 2759.2,1298.9 2918.29,1300.68 3077.37,1302.03 3236.46,1302.39 3395.54,1302.59 3554.63,1301.27 3713.71,1304.12 3872.8,1302.62 4031.88,1307.7 
  4190.97,1303.93 4350.05,1303.17 4509.14,1301.83 4668.22,1305.22 4827.31,1304.72 4986.4,1306.18 5145.48,1303.96 5304.57,1304.91 5463.65,1307.11 5622.74,1306.79 
  5781.82,1307.37 5940.91,1306.94 6099.99,1308.8 6259.08,1307.01 6418.16,1307.66 6577.25,1310.96 6736.33,1309.29 6895.42,1312.39 7054.5,1313.54 7213.59,1313.49 
  7372.68,1315.73 7531.76,1314.87 7690.85,1318.71 7849.93,1317.27 8009.02,1312.22 8168.1,1322.34 8327.19,1322.29 8486.27,1320.77 8645.36,1320.97 8804.44,1324.89 
  8963.53,1329.45 9122.61,1327.51 9281.7,1328.79 9440.78,1331.79 9599.87,1331.84 9758.96,1337.26 9918.04,1337.16 10077.1,1341.09 10236.2,1342.73 10395.3,1341.33 
  10554.4,1349 10713.5,1349.39 10872.6,1357.78 11031.6,1361.66 11190.7,1364.02 11349.8,1364.38 11508.9,1366.69 11668,1377.02 11827.1,1382.58 11986.2,1391.92 
  12145.2,1388.92 12304.3,1407.78 12463.4,1403.99 12622.5,1429.35 12781.6,1439.75 12940.7,1438.66 13099.7,1463.63 13258.8,1468.98 13417.9,1478.94 13577,1492.23 
  13736.1,1527.39 13895.2,1511.71 14054.3,1541.76 14213.3,1569.69 14372.4,1594.6 14531.5,1627.79 14690.6,1688.62 14849.7,1703.69 15008.8,1757.2 15167.9,1765.09 
  15326.9,1910.99 15486,1857.28 15645.1,1977.65 15804.2,2105.79 15963.3,2138.83 16122.4,2365.52 16281.5,2450.16 16440.5,2626.79 16599.6,2813.42 16758.7,2871.89 
  16917.8,3213.77 17076.9,3717.07 17236,4348.35 17395.1,4452.62 17554.1,5152.1 17713.2,5851.68 17872.3,6612.49 18031.4,7237.01 18190.5,8813.65 18349.6,9894.09 
  
  "/>
<polyline clip-path="url(#clip0002)" style="stroke:#c271d2; stroke-width:32; stroke-opacity:1; fill:none" points="
  2600.12,1305.52 2759.2,1306.98 2918.29,1307.51 3077.37,1306.23 3236.46,1309.24 3395.54,1308.25 3554.63,1307.73 3713.71,1313.97 3872.8,1309.84 4031.88,1311.93 
  4190.97,1307.77 4350.05,1311.53 4509.14,1310.06 4668.22,1308.94 4827.31,1315.99 4986.4,1314.32 5145.48,1313.55 5304.57,1313.37 5463.65,1314.07 5622.74,1312.96 
  5781.82,1314.55 5940.91,1314.52 6099.99,1316.09 6259.08,1318.49 6418.16,1317.78 6577.25,1317.32 6736.33,1320.63 6895.42,1317.65 7054.5,1326.47 7213.59,1321.75 
  7372.68,1319.7 7531.76,1322.13 7690.85,1324.3 7849.93,1328.8 8009.02,1328.65 8168.1,1329.17 8327.19,1328.92 8486.27,1331.17 8645.36,1331.59 8804.44,1332.11 
  8963.53,1336.64 9122.61,1341.71 9281.7,1336.38 9440.78,1343.31 9599.87,1345.86 9758.96,1347.26 9918.04,1341.15 10077.1,1345.2 10236.2,1352.11 10395.3,1350.12 
  10554.4,1356.6 10713.5,1359.31 10872.6,1358.45 11031.6,1359.22 11190.7,1373.9 11349.8,1373 11508.9,1381.05 11668,1383.08 11827.1,1387.48 11986.2,1395.74 
  12145.2,1395.44 12304.3,1402.05 12463.4,1410.24 12622.5,1430.34 12781.6,1431.51 12940.7,1443.68 13099.7,1445.04 13258.8,1452.03 13417.9,1473.28 13577,1479.57 
  13736.1,1504.71 13895.2,1519.69 14054.3,1530.28 14213.3,1550.86 14372.4,1594.6 14531.5,1621.27 14690.6,1673.54 14849.7,1696.71 15008.8,1688.16 15167.9,1759.76 
  15326.9,1832.13 15486,1862.64 15645.1,1908 15804.2,1954.92 15963.3,2091.74 16122.4,2171.6 16281.5,2328.87 16440.5,2497.13 16599.6,2652.05 16758.7,2861.98 
  16917.8,2980.44 17076.9,3451.05 17236,3739.85 17395.1,4241.03 17554.1,4702.69 17713.2,5371.18 17872.3,6099.36 18031.4,7091.66 18190.5,8467.57 18349.6,10526.7 
  
  "/>
<polyline clip-path="url(#clip0002)" style="stroke:#ac8d18; stroke-width:32; stroke-opacity:1; fill:none" points="
  2600.12,1311.8 2759.2,1314 2918.29,1309.62 3077.37,1313.85 3236.46,1316.67 3395.54,1313.55 3554.63,1312.2 3713.71,1315.84 3872.8,1317.17 4031.88,1312.73 
  4190.97,1314.96 4350.05,1314.25 4509.14,1318.5 4668.22,1316.27 4827.31,1319.23 4986.4,1321.4 5145.48,1321.33 5304.57,1320.14 5463.65,1317.16 5622.74,1320.98 
  5781.82,1320.39 5940.91,1328.98 6099.99,1320.41 6259.08,1329.28 6418.16,1323.92 6577.25,1325.18 6736.33,1328.84 6895.42,1327.27 7054.5,1330.41 7213.59,1324.72 
  7372.68,1328.75 7531.76,1331.83 7690.85,1329.62 7849.93,1334.17 8009.02,1337.1 8168.1,1340.57 8327.19,1336.4 8486.27,1342.21 8645.36,1336.39 8804.44,1340.36 
  8963.53,1342.24 9122.61,1344.64 9281.7,1347.47 9440.78,1344.59 9599.87,1346.16 9758.96,1345.34 9918.04,1354.42 10077.1,1355.54 10236.2,1362.02 10395.3,1357.62 
  10554.4,1356.98 10713.5,1365.2 10872.6,1367.1 11031.6,1365.46 11190.7,1374.23 11349.8,1374.44 11508.9,1380.93 11668,1383.56 11827.1,1391.87 11986.2,1401.76 
  12145.2,1399.34 12304.3,1408.65 12463.4,1416.74 12622.5,1419.03 12781.6,1431.85 12940.7,1433.15 13099.7,1443.37 13258.8,1447.79 13417.9,1475.59 13577,1479.59 
  13736.1,1485.48 13895.2,1510.08 14054.3,1535.74 14213.3,1536.37 14372.4,1589.52 14531.5,1588.49 14690.6,1614.93 14849.7,1652.72 15008.8,1684.63 15167.9,1742.28 
  15326.9,1768.4 15486,1849.6 15645.1,1903.61 15804.2,1951.6 15963.3,2005.97 16122.4,2102.72 16281.5,2245.25 16440.5,2321.84 16599.6,2536.9 16758.7,2692.04 
  16917.8,3044.88 17076.9,3068.06 17236,3764.26 17395.1,4101.12 17554.1,4397.76 17713.2,5194.91 17872.3,5554.42 18031.4,6278.8 18190.5,7681.27 18349.6,10182.7 
  
  "/>
<polyline clip-path="url(#clip0002)" style="stroke:#00a9ad; stroke-width:32; stroke-opacity:1; fill:none" points="
  2600.12,1318.95 2759.2,1314.03 2918.29,1322.17 3077.37,1323.56 3236.46,1319.93 3395.54,1322.72 3554.63,1322.81 3713.71,1320.36 3872.8,1315.11 4031.88,1322.37 
  4190.97,1323.33 4350.05,1322.78 4509.14,1321.55 4668.22,1324.71 4827.31,1323.01 4986.4,1325.32 5145.48,1325.25 5304.57,1323.09 5463.65,1325.31 5622.74,1328.87 
  5781.82,1325.52 5940.91,1321.19 6099.99,1327.13 6259.08,1325.68 6418.16,1331.92 6577.25,1334.16 6736.33,1337.65 6895.42,1335.25 7054.5,1331.91 7213.59,1338.06 
  7372.68,1333.67 7531.76,1336.17 7690.85,1333.88 7849.93,1337.45 8009.02,1339.66 8168.1,1337.49 8327.19,1341.86 8486.27,1338.53 8645.36,1346.82 8804.44,1339.29 
  8963.53,1346.68 9122.61,1346.75 9281.7,1351.73 9440.78,1346.91 9599.87,1365.35 9758.96,1365.57 9918.04,1356.01 10077.1,1360.54 10236.2,1358.49 10395.3,1367.83 
  10554.4,1372.01 10713.5,1360.3 10872.6,1383.29 11031.6,1372.92 11190.7,1375.46 11349.8,1389.97 11508.9,1386.61 11668,1392.08 11827.1,1401.88 11986.2,1412.9 
  12145.2,1407.12 12304.3,1413.63 12463.4,1415.94 12622.5,1423.56 12781.6,1417.67 12940.7,1423.87 13099.7,1446.01 13258.8,1447.33 13417.9,1466.25 13577,1480.02 
  13736.1,1497.2 13895.2,1503.5 14054.3,1519.41 14213.3,1535.63 14372.4,1564.25 14531.5,1583.78 14690.6,1575.17 14849.7,1642.76 15008.8,1703.9 15167.9,1718.93 
  15326.9,1750.65 15486,1802.12 15645.1,1830.63 15804.2,1932.64 15963.3,1969.5 16122.4,2125.56 16281.5,2151.43 16440.5,2298.59 16599.6,2310.57 16758.7,2592.13 
  16917.8,2740.74 17076.9,3093.25 17236,3341.85 17395.1,3998.37 17554.1,4297.26 17713.2,4743.26 17872.3,5502.59 18031.4,6606.81 18190.5,7901.65 18349.6,9707.4 
  
  "/>
<path clip-path="url(#clip0000)" d="
M2703.63 10233.4 L5740.66 10233.4 L5740.66 6846.56 L2703.63 6846.56  Z
  " fill="#ffffff" fill-rule="evenodd" fill-opacity="1"/>
<polyline clip-path="url(#clip0000)" style="stroke:#000000; stroke-width:32; stroke-opacity:1; fill:none" points="
  2703.63,10233.4 5740.66,10233.4 5740.66,6846.56 2703.63,6846.56 2703.63,10233.4 
  "/>
<polyline clip-path="url(#clip0000)" style="stroke:#009af9; stroke-width:32; stroke-opacity:1; fill:none" points="
  2895.63,7330.4 4047.63,7330.4 
  "/>
<path clip-path="url(#clip0000)" d="M 0 0 M4239.63 7192.16 L4277.04 7192.16 L4277.04 7437.16 L4411.67 7437.16 L4411.67 7468.64 L4239.63 7468.64 L4239.63 7192.16 Z" fill="#000000" fill-rule="evenodd" fill-opacity="1" /><path clip-path="url(#clip0000)" d="M 0 0 M4572.41 7296.42 L4809.81 7296.42 L4809.81 7327.53 L4572.41 7327.53 L4572.41 7296.42 M4572.41 7371.97 L4809.81 7371.97 L4809.81 7403.45 L4572.41 7403.45 L4572.41 7371.97 Z" fill="#000000" fill-rule="evenodd" fill-opacity="1" /><path clip-path="url(#clip0000)" d="M 0 0 M5055.55 7315.49 Q5030.37 7315.49 5015.55 7332.71 Q5000.92 7349.94 5000.92 7379.94 Q5000.92 7409.75 5015.55 7427.16 Q5030.37 7444.38 5055.55 7444.38 Q5080.74 7444.38 5095.37 7427.16 Q5110.18 7409.75 5110.18 7379.94 Q5110.18 7349.94 5095.37 7332.71 Q5080.74 7315.49 5055.55 7315.49 M5129.81 7198.27 L5129.81 7232.34 Q5115.74 7225.68 5101.29 7222.16 Q5087.03 7218.64 5072.96 7218.64 Q5035.92 7218.64 5016.29 7243.64 Q4996.85 7268.64 4994.07 7319.2 Q5005 7303.08 5021.48 7294.57 Q5037.96 7285.86 5057.78 7285.86 Q5099.44 7285.86 5123.52 7311.23 Q5147.78 7336.42 5147.78 7379.94 Q5147.78 7422.53 5122.59 7448.27 Q5097.41 7474.01 5055.55 7474.01 Q5007.59 7474.01 4982.22 7437.34 Q4956.85 7400.49 4956.85 7330.68 Q4956.85 7265.12 4987.96 7226.23 Q5019.07 7187.16 5071.48 7187.16 Q5085.55 7187.16 5099.81 7189.94 Q5114.26 7192.71 5129.81 7198.27 Z" fill="#000000" fill-rule="evenodd" fill-opacity="1" /><polyline clip-path="url(#clip0000)" style="stroke:#e26f46; stroke-width:32; stroke-opacity:1; fill:none" points="
  2895.63,7814.24 4047.63,7814.24 
  "/>
<path clip-path="url(#clip0000)" d="M 0 0 M4239.63 7676 L4277.04 7676 L4277.04 7921 L4411.67 7921 L4411.67 7952.48 L4239.63 7952.48 L4239.63 7676 Z" fill="#000000" fill-rule="evenodd" fill-opacity="1" /><path clip-path="url(#clip0000)" d="M 0 0 M4572.41 7780.26 L4809.81 7780.26 L4809.81 7811.37 L4572.41 7811.37 L4572.41 7780.26 M4572.41 7855.81 L4809.81 7855.81 L4809.81 7887.29 L4572.41 7887.29 L4572.41 7855.81 Z" fill="#000000" fill-rule="evenodd" fill-opacity="1" /><path clip-path="url(#clip0000)" d="M 0 0 M5050.92 7821.18 Q5024.26 7821.18 5008.89 7835.44 Q4993.7 7849.7 4993.7 7874.7 Q4993.7 7899.7 5008.89 7913.96 Q5024.26 7928.22 5050.92 7928.22 Q5077.59 7928.22 5092.96 7913.96 Q5108.33 7899.52 5108.33 7874.7 Q5108.33 7849.7 5092.96 7835.44 Q5077.78 7821.18 5050.92 7821.18 M5013.52 7805.26 Q4989.44 7799.33 4975.92 7782.85 Q4962.59 7766.37 4962.59 7742.67 Q4962.59 7709.52 4986.11 7690.26 Q5009.81 7671 5050.92 7671 Q5092.22 7671 5115.74 7690.26 Q5139.26 7709.52 5139.26 7742.67 Q5139.26 7766.37 5125.74 7782.85 Q5112.4 7799.33 5088.52 7805.26 Q5115.55 7811.55 5130.55 7829.89 Q5145.74 7848.22 5145.74 7874.7 Q5145.74 7914.89 5121.11 7936.37 Q5096.66 7957.85 5050.92 7957.85 Q5005.18 7957.85 4980.55 7936.37 Q4956.11 7914.89 4956.11 7874.7 Q4956.11 7848.22 4971.29 7829.89 Q4986.48 7811.55 5013.52 7805.26 M4999.81 7746.18 Q4999.81 7767.66 5013.15 7779.7 Q5026.66 7791.74 5050.92 7791.74 Q5075 7791.74 5088.52 7779.7 Q5102.22 7767.66 5102.22 7746.18 Q5102.22 7724.7 5088.52 7712.67 Q5075 7700.63 5050.92 7700.63 Q5026.66 7700.63 5013.15 7712.67 Q4999.81 7724.7 4999.81 7746.18 Z" fill="#000000" fill-rule="evenodd" fill-opacity="1" /><polyline clip-path="url(#clip0000)" style="stroke:#3da44d; stroke-width:32; stroke-opacity:1; fill:none" points="
  2895.63,8298.08 4047.63,8298.08 
  "/>
<path clip-path="url(#clip0000)" d="M 0 0 M4239.63 8159.84 L4277.04 8159.84 L4277.04 8404.84 L4411.67 8404.84 L4411.67 8436.32 L4239.63 8436.32 L4239.63 8159.84 Z" fill="#000000" fill-rule="evenodd" fill-opacity="1" /><path clip-path="url(#clip0000)" d="M 0 0 M4572.41 8264.1 L4809.81 8264.1 L4809.81 8295.21 L4572.41 8295.21 L4572.41 8264.1 M4572.41 8339.65 L4809.81 8339.65 L4809.81 8371.13 L4572.41 8371.13 L4572.41 8339.65 Z" fill="#000000" fill-rule="evenodd" fill-opacity="1" /><path clip-path="url(#clip0000)" d="M 0 0 M4977.41 8404.84 L5038.52 8404.84 L5038.52 8193.91 L4972.04 8207.25 L4972.04 8173.17 L5038.15 8159.84 L5075.55 8159.84 L5075.55 8404.84 L5136.66 8404.84 L5136.66 8436.32 L4977.41 8436.32 L4977.41 8404.84 Z" fill="#000000" fill-rule="evenodd" fill-opacity="1" /><path clip-path="url(#clip0000)" d="M 0 0 M5257.22 8184.47 Q5228.33 8184.47 5213.7 8212.99 Q5199.26 8241.32 5199.26 8298.36 Q5199.26 8355.21 5213.7 8383.73 Q5228.33 8412.06 5257.22 8412.06 Q5286.29 8412.06 5300.74 8383.73 Q5315.37 8355.21 5315.37 8298.36 Q5315.37 8241.32 5300.74 8212.99 Q5286.29 8184.47 5257.22 8184.47 M5257.22 8154.84 Q5303.7 8154.84 5328.14 8191.69 Q5352.77 8228.36 5352.77 8298.36 Q5352.77 8368.17 5328.14 8405.02 Q5303.7 8441.69 5257.22 8441.69 Q5210.74 8441.69 5186.11 8405.02 Q5161.66 8368.17 5161.66 8298.36 Q5161.66 8228.36 5186.11 8191.69 Q5210.74 8154.84 5257.22 8154.84 Z" fill="#000000" fill-rule="evenodd" fill-opacity="1" /><polyline clip-path="url(#clip0000)" style="stroke:#c271d2; stroke-width:32; stroke-opacity:1; fill:none" points="
  2895.63,8781.92 4047.63,8781.92 
  "/>
<path clip-path="url(#clip0000)" d="M 0 0 M4239.63 8643.68 L4277.04 8643.68 L4277.04 8888.68 L4411.67 8888.68 L4411.67 8920.16 L4239.63 8920.16 L4239.63 8643.68 Z" fill="#000000" fill-rule="evenodd" fill-opacity="1" /><path clip-path="url(#clip0000)" d="M 0 0 M4572.41 8747.94 L4809.81 8747.94 L4809.81 8779.05 L4572.41 8779.05 L4572.41 8747.94 M4572.41 8823.49 L4809.81 8823.49 L4809.81 8854.97 L4572.41 8854.97 L4572.41 8823.49 Z" fill="#000000" fill-rule="evenodd" fill-opacity="1" /><path clip-path="url(#clip0000)" d="M 0 0 M4977.41 8888.68 L5038.52 8888.68 L5038.52 8677.75 L4972.04 8691.09 L4972.04 8657.01 L5038.15 8643.68 L5075.55 8643.68 L5075.55 8888.68 L5136.66 8888.68 L5136.66 8920.16 L4977.41 8920.16 L4977.41 8888.68 Z" fill="#000000" fill-rule="evenodd" fill-opacity="1" /><path clip-path="url(#clip0000)" d="M 0 0 M5209.44 8888.68 L5340 8888.68 L5340 8920.16 L5164.44 8920.16 L5164.44 8888.68 Q5185.74 8866.64 5222.4 8829.6 Q5259.26 8792.38 5268.7 8781.64 Q5286.66 8761.46 5293.7 8747.57 Q5300.92 8733.49 5300.92 8719.97 Q5300.92 8697.94 5285.37 8684.05 Q5270 8670.16 5245.18 8670.16 Q5227.59 8670.16 5207.96 8676.27 Q5188.52 8682.38 5166.29 8694.79 L5166.29 8657.01 Q5188.89 8647.94 5208.52 8643.31 Q5228.15 8638.68 5244.44 8638.68 Q5287.4 8638.68 5312.96 8660.16 Q5338.51 8681.64 5338.51 8717.57 Q5338.51 8734.6 5332.03 8749.97 Q5325.74 8765.16 5308.89 8785.9 Q5304.26 8791.27 5279.44 8817.01 Q5254.63 8842.57 5209.44 8888.68 Z" fill="#000000" fill-rule="evenodd" fill-opacity="1" /><polyline clip-path="url(#clip0000)" style="stroke:#ac8d18; stroke-width:32; stroke-opacity:1; fill:none" points="
  2895.63,9265.76 4047.63,9265.76 
  "/>
<path clip-path="url(#clip0000)" d="M 0 0 M4239.63 9127.52 L4277.04 9127.52 L4277.04 9372.52 L4411.67 9372.52 L4411.67 9404 L4239.63 9404 L4239.63 9127.52 Z" fill="#000000" fill-rule="evenodd" fill-opacity="1" /><path clip-path="url(#clip0000)" d="M 0 0 M4572.41 9231.78 L4809.81 9231.78 L4809.81 9262.89 L4572.41 9262.89 L4572.41 9231.78 M4572.41 9307.33 L4809.81 9307.33 L4809.81 9338.81 L4572.41 9338.81 L4572.41 9307.33 Z" fill="#000000" fill-rule="evenodd" fill-opacity="1" /><path clip-path="url(#clip0000)" d="M 0 0 M4977.41 9372.52 L5038.52 9372.52 L5038.52 9161.59 L4972.04 9174.93 L4972.04 9140.85 L5038.15 9127.52 L5075.55 9127.52 L5075.55 9372.52 L5136.66 9372.52 L5136.66 9404 L4977.41 9404 L4977.41 9372.52 Z" fill="#000000" fill-rule="evenodd" fill-opacity="1" /><path clip-path="url(#clip0000)" d="M 0 0 M5280 9160.11 L5185.55 9307.7 L5280 9307.7 L5280 9160.11 M5270.18 9127.52 L5317.22 9127.52 L5317.22 9307.7 L5356.66 9307.7 L5356.66 9338.81 L5317.22 9338.81 L5317.22 9404 L5280 9404 L5280 9338.81 L5155.18 9338.81 L5155.18 9302.7 L5270.18 9127.52 Z" fill="#000000" fill-rule="evenodd" fill-opacity="1" /><polyline clip-path="url(#clip0000)" style="stroke:#00a9ad; stroke-width:32; stroke-opacity:1; fill:none" points="
  2895.63,9749.6 4047.63,9749.6 
  "/>
<path clip-path="url(#clip0000)" d="M 0 0 M4239.63 9611.36 L4277.04 9611.36 L4277.04 9856.36 L4411.67 9856.36 L4411.67 9887.84 L4239.63 9887.84 L4239.63 9611.36 Z" fill="#000000" fill-rule="evenodd" fill-opacity="1" /><path clip-path="url(#clip0000)" d="M 0 0 M4572.41 9715.62 L4809.81 9715.62 L4809.81 9746.73 L4572.41 9746.73 L4572.41 9715.62 M4572.41 9791.17 L4809.81 9791.17 L4809.81 9822.65 L4572.41 9822.65 L4572.41 9791.17 Z" fill="#000000" fill-rule="evenodd" fill-opacity="1" /><path clip-path="url(#clip0000)" d="M 0 0 M4977.41 9856.36 L5038.52 9856.36 L5038.52 9645.43 L4972.04 9658.77 L4972.04 9624.69 L5038.15 9611.36 L5075.55 9611.36 L5075.55 9856.36 L5136.66 9856.36 L5136.66 9887.84 L4977.41 9887.84 L4977.41 9856.36 Z" fill="#000000" fill-rule="evenodd" fill-opacity="1" /><path clip-path="url(#clip0000)" d="M 0 0 M5261.85 9734.69 Q5236.66 9734.69 5221.85 9751.91 Q5207.22 9769.14 5207.22 9799.14 Q5207.22 9828.95 5221.85 9846.36 Q5236.66 9863.58 5261.85 9863.58 Q5287.03 9863.58 5301.66 9846.36 Q5316.48 9828.95 5316.48 9799.14 Q5316.48 9769.14 5301.66 9751.91 Q5287.03 9734.69 5261.85 9734.69 M5336.11 9617.47 L5336.11 9651.54 Q5322.03 9644.88 5307.59 9641.36 Q5293.33 9637.84 5279.26 9637.84 Q5242.22 9637.84 5222.59 9662.84 Q5203.15 9687.84 5200.37 9738.4 Q5211.29 9722.28 5227.77 9713.77 Q5244.26 9705.06 5264.07 9705.06 Q5305.74 9705.06 5329.81 9730.43 Q5354.07 9755.62 5354.07 9799.14 Q5354.07 9841.73 5328.89 9867.47 Q5303.7 9893.21 5261.85 9893.21 Q5213.89 9893.21 5188.52 9856.54 Q5163.15 9819.69 5163.15 9749.88 Q5163.15 9684.32 5194.26 9645.43 Q5225.37 9606.36 5277.77 9606.36 Q5291.85 9606.36 5306.11 9609.14 Q5320.55 9611.91 5336.11 9617.47 Z" fill="#000000" fill-rule="evenodd" fill-opacity="1" /></svg>
