<?xml version="1.0" encoding="utf-8"?>
<svg xmlns="http://www.w3.org/2000/svg" xmlns:xlink="http://www.w3.org/1999/xlink" width="4800" height="3200" viewBox="0 0 19200 12800">
<defs>
  <clipPath id="clip6500">
    <rect x="0" y="0" width="19200" height="12800"/>
  </clipPath>
</defs>
<path clip-path="url(#clip6500)" d="
M0 12800 L19200 12800 L19200 0 L0 0  Z
  " fill="#ffffff" fill-rule="evenodd" fill-opacity="1"/>
<defs>
  <clipPath id="clip6501">
    <rect x="3840" y="0" width="13441" height="12800"/>
  </clipPath>
</defs>
<path clip-path="url(#clip6500)" d="
M2127.63 11385.4 L18822 11385.4 L18822 987.777 L2127.63 987.777  Z
  " fill="#ffffff" fill-rule="evenodd" fill-opacity="1"/>
<defs>
  <clipPath id="clip6502">
    <rect x="2127" y="987" width="16695" height="10399"/>
  </clipPath>
</defs>
<polyline clip-path="url(#clip6502)" style="stroke:#000000; stroke-width:16; stroke-opacity:0.1; fill:none" points="
  2600.12,11385.4 2600.12,987.777 
  "/>
<polyline clip-path="url(#clip6502)" style="stroke:#000000; stroke-width:16; stroke-opacity:0.1; fill:none" points="
  6537.48,11385.4 6537.48,987.777 
  "/>
<polyline clip-path="url(#clip6502)" style="stroke:#000000; stroke-width:16; stroke-opacity:0.1; fill:none" points="
  10474.8,11385.4 10474.8,987.777 
  "/>
<polyline clip-path="url(#clip6502)" style="stroke:#000000; stroke-width:16; stroke-opacity:0.1; fill:none" points="
  14412.2,11385.4 14412.2,987.777 
  "/>
<polyline clip-path="url(#clip6502)" style="stroke:#000000; stroke-width:16; stroke-opacity:0.1; fill:none" points="
  18349.6,11385.4 18349.6,987.777 
  "/>
<polyline clip-path="url(#clip6502)" style="stroke:#000000; stroke-width:16; stroke-opacity:0.1; fill:none" points="
  2127.63,10889.5 18822,10889.5 
  "/>
<polyline clip-path="url(#clip6502)" style="stroke:#000000; stroke-width:16; stroke-opacity:0.1; fill:none" points="
  2127.63,9431.5 18822,9431.5 
  "/>
<polyline clip-path="url(#clip6502)" style="stroke:#000000; stroke-width:16; stroke-opacity:0.1; fill:none" points="
  2127.63,7973.55 18822,7973.55 
  "/>
<polyline clip-path="url(#clip6502)" style="stroke:#000000; stroke-width:16; stroke-opacity:0.1; fill:none" points="
  2127.63,6515.59 18822,6515.59 
  "/>
<polyline clip-path="url(#clip6502)" style="stroke:#000000; stroke-width:16; stroke-opacity:0.1; fill:none" points="
  2127.63,5057.64 18822,5057.64 
  "/>
<polyline clip-path="url(#clip6502)" style="stroke:#000000; stroke-width:16; stroke-opacity:0.1; fill:none" points="
  2127.63,3599.68 18822,3599.68 
  "/>
<polyline clip-path="url(#clip6502)" style="stroke:#000000; stroke-width:16; stroke-opacity:0.1; fill:none" points="
  2127.63,2141.72 18822,2141.72 
  "/>
<polyline clip-path="url(#clip6500)" style="stroke:#000000; stroke-width:32; stroke-opacity:1; fill:none" points="
  2127.63,11385.4 18822,11385.4 
  "/>
<polyline clip-path="url(#clip6500)" style="stroke:#000000; stroke-width:32; stroke-opacity:1; fill:none" points="
  2127.63,11385.4 2127.63,987.777 
  "/>
<polyline clip-path="url(#clip6500)" style="stroke:#000000; stroke-width:32; stroke-opacity:1; fill:none" points="
  2600.12,11385.4 2600.12,11260.7 
  "/>
<polyline clip-path="url(#clip6500)" style="stroke:#000000; stroke-width:32; stroke-opacity:1; fill:none" points="
  6537.48,11385.4 6537.48,11260.7 
  "/>
<polyline clip-path="url(#clip6500)" style="stroke:#000000; stroke-width:32; stroke-opacity:1; fill:none" points="
  10474.8,11385.4 10474.8,11260.7 
  "/>
<polyline clip-path="url(#clip6500)" style="stroke:#000000; stroke-width:32; stroke-opacity:1; fill:none" points="
  14412.2,11385.4 14412.2,11260.7 
  "/>
<polyline clip-path="url(#clip6500)" style="stroke:#000000; stroke-width:32; stroke-opacity:1; fill:none" points="
  18349.6,11385.4 18349.6,11260.7 
  "/>
<polyline clip-path="url(#clip6500)" style="stroke:#000000; stroke-width:32; stroke-opacity:1; fill:none" points="
  2127.63,10889.5 2327.96,10889.5 
  "/>
<polyline clip-path="url(#clip6500)" style="stroke:#000000; stroke-width:32; stroke-opacity:1; fill:none" points="
  2127.63,9431.5 2327.96,9431.5 
  "/>
<polyline clip-path="url(#clip6500)" style="stroke:#000000; stroke-width:32; stroke-opacity:1; fill:none" points="
  2127.63,7973.55 2327.96,7973.55 
  "/>
<polyline clip-path="url(#clip6500)" style="stroke:#000000; stroke-width:32; stroke-opacity:1; fill:none" points="
  2127.63,6515.59 2327.96,6515.59 
  "/>
<polyline clip-path="url(#clip6500)" style="stroke:#000000; stroke-width:32; stroke-opacity:1; fill:none" points="
  2127.63,5057.64 2327.96,5057.64 
  "/>
<polyline clip-path="url(#clip6500)" style="stroke:#000000; stroke-width:32; stroke-opacity:1; fill:none" points="
  2127.63,3599.68 2327.96,3599.68 
  "/>
<polyline clip-path="url(#clip6500)" style="stroke:#000000; stroke-width:32; stroke-opacity:1; fill:none" points="
  2127.63,2141.72 2327.96,2141.72 
  "/>
<path clip-path="url(#clip6500)" d="M 0 0 M2240.4 11561.4 Q2211.51 11561.4 2196.88 11589.9 Q2182.43 11618.2 2182.43 11675.3 Q2182.43 11732.1 2196.88 11760.6 Q2211.51 11789 2240.4 11789 Q2269.47 11789 2283.91 11760.6 Q2298.54 11732.1 2298.54 11675.3 Q2298.54 11618.2 2283.91 11589.9 Q2269.47 11561.4 2240.4 11561.4 M2240.4 11531.7 Q2286.88 11531.7 2311.32 11568.6 Q2335.95 11605.3 2335.95 11675.3 Q2335.95 11745.1 2311.32 11781.9 Q2286.88 11818.6 2240.4 11818.6 Q2193.91 11818.6 2169.28 11781.9 Q2144.84 11745.1 2144.84 11675.3 Q2144.84 11605.3 2169.28 11568.6 Q2193.91 11531.7 2240.4 11531.7 Z" fill="#000000" fill-rule="evenodd" fill-opacity="1" /><path clip-path="url(#clip6500)" d="M 0 0 M2376.51 11766.2 L2415.58 11766.2 L2415.58 11813.2 L2376.51 11813.2 L2376.51 11766.2 Z" fill="#000000" fill-rule="evenodd" fill-opacity="1" /><path clip-path="url(#clip6500)" d="M 0 0 M2540.76 11660.1 Q2515.58 11660.1 2500.76 11677.3 Q2486.13 11694.5 2486.13 11724.5 Q2486.13 11754.3 2500.76 11771.7 Q2515.58 11789 2540.76 11789 Q2565.95 11789 2580.58 11771.7 Q2595.39 11754.3 2595.39 11724.5 Q2595.39 11694.5 2580.58 11677.3 Q2565.95 11660.1 2540.76 11660.1 M2615.02 11542.8 L2615.02 11576.9 Q2600.95 11570.3 2586.5 11566.7 Q2572.25 11563.2 2558.17 11563.2 Q2521.13 11563.2 2501.5 11588.2 Q2482.06 11613.2 2479.28 11663.8 Q2490.21 11647.7 2506.69 11639.1 Q2523.17 11630.4 2542.99 11630.4 Q2584.65 11630.4 2608.73 11655.8 Q2632.99 11681 2632.99 11724.5 Q2632.99 11767.1 2607.8 11792.8 Q2582.62 11818.6 2540.76 11818.6 Q2492.8 11818.6 2467.43 11781.9 Q2442.06 11745.1 2442.06 11675.3 Q2442.06 11609.7 2473.17 11570.8 Q2504.28 11531.7 2556.69 11531.7 Q2570.76 11531.7 2585.02 11534.5 Q2599.47 11537.3 2615.02 11542.8 Z" fill="#000000" fill-rule="evenodd" fill-opacity="1" /><path clip-path="url(#clip6500)" d="M 0 0 M2680.02 11781.7 L2741.13 11781.7 L2741.13 11570.8 L2674.65 11584.1 L2674.65 11550.1 L2740.76 11536.7 L2778.17 11536.7 L2778.17 11781.7 L2839.28 11781.7 L2839.28 11813.2 L2680.02 11813.2 L2680.02 11781.7 Z" fill="#000000" fill-rule="evenodd" fill-opacity="1" /><path clip-path="url(#clip6500)" d="M 0 0 M2959.84 11561.4 Q2930.95 11561.4 2916.32 11589.9 Q2901.87 11618.2 2901.87 11675.3 Q2901.87 11732.1 2916.32 11760.6 Q2930.95 11789 2959.84 11789 Q2988.91 11789 3003.35 11760.6 Q3017.98 11732.1 3017.98 11675.3 Q3017.98 11618.2 3003.35 11589.9 Q2988.91 11561.4 2959.84 11561.4 M2959.84 11531.7 Q3006.32 11531.7 3030.76 11568.6 Q3055.39 11605.3 3055.39 11675.3 Q3055.39 11745.1 3030.76 11781.9 Q3006.32 11818.6 2959.84 11818.6 Q2913.35 11818.6 2888.72 11781.9 Q2864.28 11745.1 2864.28 11675.3 Q2864.28 11605.3 2888.72 11568.6 Q2913.35 11531.7 2959.84 11531.7 Z" fill="#000000" fill-rule="evenodd" fill-opacity="1" /><path clip-path="url(#clip6500)" d="M 0 0 M6181.74 11561.4 Q6152.85 11561.4 6138.22 11589.9 Q6123.78 11618.2 6123.78 11675.3 Q6123.78 11732.1 6138.22 11760.6 Q6152.85 11789 6181.74 11789 Q6210.81 11789 6225.26 11760.6 Q6239.89 11732.1 6239.89 11675.3 Q6239.89 11618.2 6225.26 11589.9 Q6210.81 11561.4 6181.74 11561.4 M6181.74 11531.7 Q6228.22 11531.7 6252.66 11568.6 Q6277.29 11605.3 6277.29 11675.3 Q6277.29 11745.1 6252.66 11781.9 Q6228.22 11818.6 6181.74 11818.6 Q6135.26 11818.6 6110.63 11781.9 Q6086.18 11745.1 6086.18 11675.3 Q6086.18 11605.3 6110.63 11568.6 Q6135.26 11531.7 6181.74 11531.7 Z" fill="#000000" fill-rule="evenodd" fill-opacity="1" /><path clip-path="url(#clip6500)" d="M 0 0 M6317.85 11766.2 L6356.92 11766.2 L6356.92 11813.2 L6317.85 11813.2 L6317.85 11766.2 Z" fill="#000000" fill-rule="evenodd" fill-opacity="1" /><path clip-path="url(#clip6500)" d="M 0 0 M6482.11 11660.1 Q6456.92 11660.1 6442.11 11677.3 Q6427.48 11694.5 6427.48 11724.5 Q6427.48 11754.3 6442.11 11771.7 Q6456.92 11789 6482.11 11789 Q6507.29 11789 6521.92 11771.7 Q6536.74 11754.3 6536.74 11724.5 Q6536.74 11694.5 6521.92 11677.3 Q6507.29 11660.1 6482.11 11660.1 M6556.37 11542.8 L6556.37 11576.9 Q6542.29 11570.3 6527.85 11566.7 Q6513.59 11563.2 6499.51 11563.2 Q6462.48 11563.2 6442.85 11588.2 Q6423.4 11613.2 6420.63 11663.8 Q6431.55 11647.7 6448.03 11639.1 Q6464.51 11630.4 6484.33 11630.4 Q6526 11630.4 6550.07 11655.8 Q6574.33 11681 6574.33 11724.5 Q6574.33 11767.1 6549.14 11792.8 Q6523.96 11818.6 6482.11 11818.6 Q6434.14 11818.6 6408.77 11781.9 Q6383.4 11745.1 6383.4 11675.3 Q6383.4 11609.7 6414.52 11570.8 Q6445.63 11531.7 6498.03 11531.7 Q6512.11 11531.7 6526.37 11534.5 Q6540.81 11537.3 6556.37 11542.8 Z" fill="#000000" fill-rule="evenodd" fill-opacity="1" /><path clip-path="url(#clip6500)" d="M 0 0 M6621.37 11781.7 L6682.48 11781.7 L6682.48 11570.8 L6616 11584.1 L6616 11550.1 L6682.11 11536.7 L6719.51 11536.7 L6719.51 11781.7 L6780.62 11781.7 L6780.62 11813.2 L6621.37 11813.2 L6621.37 11781.7 Z" fill="#000000" fill-rule="evenodd" fill-opacity="1" /><path clip-path="url(#clip6500)" d="M 0 0 M6821.55 11536.7 L6968.4 11536.7 L6968.4 11568.2 L6855.81 11568.2 L6855.81 11636 Q6863.96 11633.2 6872.11 11631.9 Q6880.25 11630.4 6888.4 11630.4 Q6934.7 11630.4 6961.73 11655.8 Q6988.77 11681.2 6988.77 11724.5 Q6988.77 11769.1 6960.99 11794 Q6933.22 11818.6 6882.66 11818.6 Q6865.25 11818.6 6847.11 11815.6 Q6829.14 11812.7 6809.88 11806.7 L6809.88 11769.1 Q6826.55 11778.2 6844.33 11782.7 Q6862.11 11787.1 6881.92 11787.1 Q6913.96 11787.1 6932.66 11770.3 Q6951.36 11753.4 6951.36 11724.5 Q6951.36 11695.6 6932.66 11678.8 Q6913.96 11661.9 6881.92 11661.9 Q6866.92 11661.9 6851.92 11665.3 Q6837.11 11668.6 6821.55 11675.6 L6821.55 11536.7 Z" fill="#000000" fill-rule="evenodd" fill-opacity="1" /><path clip-path="url(#clip6500)" d="M 0 0 M10116.6 11561.4 Q10087.7 11561.4 10073.1 11589.9 Q10058.6 11618.2 10058.6 11675.3 Q10058.6 11732.1 10073.1 11760.6 Q10087.7 11789 10116.6 11789 Q10145.7 11789 10160.1 11760.6 Q10174.7 11732.1 10174.7 11675.3 Q10174.7 11618.2 10160.1 11589.9 Q10145.7 11561.4 10116.6 11561.4 M10116.6 11531.7 Q10163.1 11531.7 10187.5 11568.6 Q10212.2 11605.3 10212.2 11675.3 Q10212.2 11745.1 10187.5 11781.9 Q10163.1 11818.6 10116.6 11818.6 Q10070.1 11818.6 10045.5 11781.9 Q10021 11745.1 10021 11675.3 Q10021 11605.3 10045.5 11568.6 Q10070.1 11531.7 10116.6 11531.7 Z" fill="#000000" fill-rule="evenodd" fill-opacity="1" /><path clip-path="url(#clip6500)" d="M 0 0 M10252.7 11766.2 L10291.8 11766.2 L10291.8 11813.2 L10252.7 11813.2 L10252.7 11766.2 Z" fill="#000000" fill-rule="evenodd" fill-opacity="1" /><path clip-path="url(#clip6500)" d="M 0 0 M10417 11660.1 Q10391.8 11660.1 10377 11677.3 Q10362.3 11694.5 10362.3 11724.5 Q10362.3 11754.3 10377 11771.7 Q10391.8 11789 10417 11789 Q10442.2 11789 10456.8 11771.7 Q10471.6 11754.3 10471.6 11724.5 Q10471.6 11694.5 10456.8 11677.3 Q10442.2 11660.1 10417 11660.1 M10491.2 11542.8 L10491.2 11576.9 Q10477.2 11570.3 10462.7 11566.7 Q10448.5 11563.2 10434.4 11563.2 Q10397.3 11563.2 10377.7 11588.2 Q10358.3 11613.2 10355.5 11663.8 Q10366.4 11647.7 10382.9 11639.1 Q10399.4 11630.4 10419.2 11630.4 Q10460.9 11630.4 10484.9 11655.8 Q10509.2 11681 10509.2 11724.5 Q10509.2 11767.1 10484 11792.8 Q10458.8 11818.6 10417 11818.6 Q10369 11818.6 10343.6 11781.9 Q10318.3 11745.1 10318.3 11675.3 Q10318.3 11609.7 10349.4 11570.8 Q10380.5 11531.7 10432.9 11531.7 Q10447 11531.7 10461.2 11534.5 Q10475.7 11537.3 10491.2 11542.8 Z" fill="#000000" fill-rule="evenodd" fill-opacity="1" /><path clip-path="url(#clip6500)" d="M 0 0 M10582 11781.7 L10712.5 11781.7 L10712.5 11813.2 L10537 11813.2 L10537 11781.7 Q10558.3 11759.7 10594.9 11722.7 Q10631.8 11685.4 10641.2 11674.7 Q10659.2 11654.5 10666.2 11640.6 Q10673.4 11626.5 10673.4 11613 Q10673.4 11591 10657.9 11577.1 Q10642.5 11563.2 10617.7 11563.2 Q10600.1 11563.2 10580.5 11569.3 Q10561 11575.4 10538.8 11587.8 L10538.8 11550.1 Q10561.4 11541 10581 11536.4 Q10600.7 11531.7 10617 11531.7 Q10659.9 11531.7 10685.5 11553.2 Q10711 11574.7 10711 11610.6 Q10711 11627.7 10704.6 11643 Q10698.3 11658.2 10681.4 11679 Q10676.8 11684.3 10652 11710.1 Q10627.2 11735.6 10582 11781.7 Z" fill="#000000" fill-rule="evenodd" fill-opacity="1" /><path clip-path="url(#clip6500)" d="M 0 0 M10833.1 11561.4 Q10804.2 11561.4 10789.6 11589.9 Q10775.1 11618.2 10775.1 11675.3 Q10775.1 11732.1 10789.6 11760.6 Q10804.2 11789 10833.1 11789 Q10862.2 11789 10876.6 11760.6 Q10891.2 11732.1 10891.2 11675.3 Q10891.2 11618.2 10876.6 11589.9 Q10862.2 11561.4 10833.1 11561.4 M10833.1 11531.7 Q10879.6 11531.7 10904 11568.6 Q10928.6 11605.3 10928.6 11675.3 Q10928.6 11745.1 10904 11781.9 Q10879.6 11818.6 10833.1 11818.6 Q10786.6 11818.6 10762 11781.9 Q10737.5 11745.1 10737.5 11675.3 Q10737.5 11605.3 10762 11568.6 Q10786.6 11531.7 10833.1 11531.7 Z" fill="#000000" fill-rule="evenodd" fill-opacity="1" /><path clip-path="url(#clip6500)" d="M 0 0 M14057.9 11561.4 Q14029.1 11561.4 14014.4 11589.9 Q14000 11618.2 14000 11675.3 Q14000 11732.1 14014.4 11760.6 Q14029.1 11789 14057.9 11789 Q14087 11789 14101.5 11760.6 Q14116.1 11732.1 14116.1 11675.3 Q14116.1 11618.2 14101.5 11589.9 Q14087 11561.4 14057.9 11561.4 M14057.9 11531.7 Q14104.4 11531.7 14128.9 11568.6 Q14153.5 11605.3 14153.5 11675.3 Q14153.5 11745.1 14128.9 11781.9 Q14104.4 11818.6 14057.9 11818.6 Q14011.5 11818.6 13986.8 11781.9 Q13962.4 11745.1 13962.4 11675.3 Q13962.4 11605.3 13986.8 11568.6 Q14011.5 11531.7 14057.9 11531.7 Z" fill="#000000" fill-rule="evenodd" fill-opacity="1" /><path clip-path="url(#clip6500)" d="M 0 0 M14194.1 11766.2 L14233.1 11766.2 L14233.1 11813.2 L14194.1 11813.2 L14194.1 11766.2 Z" fill="#000000" fill-rule="evenodd" fill-opacity="1" /><path clip-path="url(#clip6500)" d="M 0 0 M14358.3 11660.1 Q14333.1 11660.1 14318.3 11677.3 Q14303.7 11694.5 14303.7 11724.5 Q14303.7 11754.3 14318.3 11771.7 Q14333.1 11789 14358.3 11789 Q14383.5 11789 14398.1 11771.7 Q14412.9 11754.3 14412.9 11724.5 Q14412.9 11694.5 14398.1 11677.3 Q14383.5 11660.1 14358.3 11660.1 M14432.6 11542.8 L14432.6 11576.9 Q14418.5 11570.3 14404.1 11566.7 Q14389.8 11563.2 14375.7 11563.2 Q14338.7 11563.2 14319.1 11588.2 Q14299.6 11613.2 14296.8 11663.8 Q14307.8 11647.7 14324.2 11639.1 Q14340.7 11630.4 14360.5 11630.4 Q14402.2 11630.4 14426.3 11655.8 Q14450.5 11681 14450.5 11724.5 Q14450.5 11767.1 14425.3 11792.8 Q14400.2 11818.6 14358.3 11818.6 Q14310.4 11818.6 14285 11781.9 Q14259.6 11745.1 14259.6 11675.3 Q14259.6 11609.7 14290.7 11570.8 Q14321.8 11531.7 14374.2 11531.7 Q14388.3 11531.7 14402.6 11534.5 Q14417 11537.3 14432.6 11542.8 Z" fill="#000000" fill-rule="evenodd" fill-opacity="1" /><path clip-path="url(#clip6500)" d="M 0 0 M14523.3 11781.7 L14653.9 11781.7 L14653.9 11813.2 L14478.3 11813.2 L14478.3 11781.7 Q14499.6 11759.7 14536.3 11722.7 Q14573.1 11685.4 14582.6 11674.7 Q14600.5 11654.5 14607.6 11640.6 Q14614.8 11626.5 14614.8 11613 Q14614.8 11591 14599.2 11577.1 Q14583.9 11563.2 14559.1 11563.2 Q14541.5 11563.2 14521.8 11569.3 Q14502.4 11575.4 14480.2 11587.8 L14480.2 11550.1 Q14502.8 11541 14522.4 11536.4 Q14542 11531.7 14558.3 11531.7 Q14601.3 11531.7 14626.8 11553.2 Q14652.4 11574.7 14652.4 11610.6 Q14652.4 11627.7 14645.9 11643 Q14639.6 11658.2 14622.8 11679 Q14618.1 11684.3 14593.3 11710.1 Q14568.5 11735.6 14523.3 11781.7 Z" fill="#000000" fill-rule="evenodd" fill-opacity="1" /><path clip-path="url(#clip6500)" d="M 0 0 M14694.8 11536.7 L14841.6 11536.7 L14841.6 11568.2 L14729.1 11568.2 L14729.1 11636 Q14737.2 11633.2 14745.3 11631.9 Q14753.5 11630.4 14761.6 11630.4 Q14807.9 11630.4 14835 11655.8 Q14862 11681.2 14862 11724.5 Q14862 11769.1 14834.2 11794 Q14806.5 11818.6 14755.9 11818.6 Q14738.5 11818.6 14720.3 11815.6 Q14702.4 11812.7 14683.1 11806.7 L14683.1 11769.1 Q14699.8 11778.2 14717.6 11782.7 Q14735.3 11787.1 14755.2 11787.1 Q14787.2 11787.1 14805.9 11770.3 Q14824.6 11753.4 14824.6 11724.5 Q14824.6 11695.6 14805.9 11678.8 Q14787.2 11661.9 14755.2 11661.9 Q14740.2 11661.9 14725.2 11665.3 Q14710.3 11668.6 14694.8 11675.6 L14694.8 11536.7 Z" fill="#000000" fill-rule="evenodd" fill-opacity="1" /><path clip-path="url(#clip6500)" d="M 0 0 M17987.5 11561.4 Q17958.6 11561.4 17944 11589.9 Q17929.6 11618.2 17929.6 11675.3 Q17929.6 11732.1 17944 11760.6 Q17958.6 11789 17987.5 11789 Q18016.6 11789 18031 11760.6 Q18045.7 11732.1 18045.7 11675.3 Q18045.7 11618.2 18031 11589.9 Q18016.6 11561.4 17987.5 11561.4 M17987.5 11531.7 Q18034 11531.7 18058.5 11568.6 Q18083.1 11605.3 18083.1 11675.3 Q18083.1 11745.1 18058.5 11781.9 Q18034 11818.6 17987.5 11818.6 Q17941 11818.6 17916.4 11781.9 Q17892 11745.1 17892 11675.3 Q17892 11605.3 17916.4 11568.6 Q17941 11531.7 17987.5 11531.7 Z" fill="#000000" fill-rule="evenodd" fill-opacity="1" /><path clip-path="url(#clip6500)" d="M 0 0 M18123.6 11766.2 L18162.7 11766.2 L18162.7 11813.2 L18123.6 11813.2 L18123.6 11766.2 Z" fill="#000000" fill-rule="evenodd" fill-opacity="1" /><path clip-path="url(#clip6500)" d="M 0 0 M18287.9 11660.1 Q18262.7 11660.1 18247.9 11677.3 Q18233.3 11694.5 18233.3 11724.5 Q18233.3 11754.3 18247.9 11771.7 Q18262.7 11789 18287.9 11789 Q18313.1 11789 18327.7 11771.7 Q18342.5 11754.3 18342.5 11724.5 Q18342.5 11694.5 18327.7 11677.3 Q18313.1 11660.1 18287.9 11660.1 M18362.2 11542.8 L18362.2 11576.9 Q18348.1 11570.3 18333.6 11566.7 Q18319.4 11563.2 18305.3 11563.2 Q18268.3 11563.2 18248.6 11588.2 Q18229.2 11613.2 18226.4 11663.8 Q18237.3 11647.7 18253.8 11639.1 Q18270.3 11630.4 18290.1 11630.4 Q18331.8 11630.4 18355.9 11655.8 Q18380.1 11681 18380.1 11724.5 Q18380.1 11767.1 18354.9 11792.8 Q18329.7 11818.6 18287.9 11818.6 Q18239.9 11818.6 18214.6 11781.9 Q18189.2 11745.1 18189.2 11675.3 Q18189.2 11609.7 18220.3 11570.8 Q18251.4 11531.7 18303.8 11531.7 Q18317.9 11531.7 18332.2 11534.5 Q18346.6 11537.3 18362.2 11542.8 Z" fill="#000000" fill-rule="evenodd" fill-opacity="1" /><path clip-path="url(#clip6500)" d="M 0 0 M18534 11664.1 Q18560.9 11669.9 18575.9 11688 Q18591 11706.2 18591 11732.8 Q18591 11773.8 18562.9 11796.2 Q18534.7 11818.6 18482.9 11818.6 Q18465.5 11818.6 18447 11815.1 Q18428.6 11811.7 18409 11804.9 L18409 11768.8 Q18424.6 11777.8 18443.1 11782.5 Q18461.6 11787.1 18481.8 11787.1 Q18517 11787.1 18535.3 11773.2 Q18553.8 11759.3 18553.8 11732.8 Q18553.8 11708.4 18536.6 11694.7 Q18519.6 11680.8 18489 11680.8 L18456.8 11680.8 L18456.8 11650.1 L18490.5 11650.1 Q18518.1 11650.1 18532.7 11639.1 Q18547.3 11628 18547.3 11607.3 Q18547.3 11586 18532.2 11574.7 Q18517.2 11563.2 18489 11563.2 Q18473.6 11563.2 18456 11566.5 Q18438.5 11569.9 18417.3 11576.9 L18417.3 11543.6 Q18438.6 11537.7 18457.2 11534.7 Q18475.9 11531.7 18492.3 11531.7 Q18534.9 11531.7 18559.7 11551.2 Q18584.6 11570.4 18584.6 11603.4 Q18584.6 11626.4 18571.4 11642.3 Q18558.3 11658 18534 11664.1 Z" fill="#000000" fill-rule="evenodd" fill-opacity="1" /><path clip-path="url(#clip6500)" d="M 0 0 M18711.6 11561.4 Q18682.7 11561.4 18668.1 11589.9 Q18653.6 11618.2 18653.6 11675.3 Q18653.6 11732.1 18668.1 11760.6 Q18682.7 11789 18711.6 11789 Q18740.7 11789 18755.1 11760.6 Q18769.7 11732.1 18769.7 11675.3 Q18769.7 11618.2 18755.1 11589.9 Q18740.7 11561.4 18711.6 11561.4 M18711.6 11531.7 Q18758.1 11531.7 18782.5 11568.6 Q18807.2 11605.3 18807.2 11675.3 Q18807.2 11745.1 18782.5 11781.9 Q18758.1 11818.6 18711.6 11818.6 Q18665.1 11818.6 18640.5 11781.9 Q18616 11745.1 18616 11675.3 Q18616 11605.3 18640.5 11568.6 Q18665.1 11531.7 18711.6 11531.7 Z" fill="#000000" fill-rule="evenodd" fill-opacity="1" /><path clip-path="url(#clip6500)" d="M 0 0 M1120.27 10775.8 Q1091.38 10775.8 1076.75 10804.4 Q1062.3 10832.7 1062.3 10889.7 Q1062.3 10946.6 1076.75 10975.1 Q1091.38 11003.4 1120.27 11003.4 Q1149.34 11003.4 1163.78 10975.1 Q1178.41 10946.6 1178.41 10889.7 Q1178.41 10832.7 1163.78 10804.4 Q1149.34 10775.8 1120.27 10775.8 M1120.27 10746.2 Q1166.75 10746.2 1191.19 10783.1 Q1215.82 10819.7 1215.82 10889.7 Q1215.82 10959.5 1191.19 10996.4 Q1166.75 11033.1 1120.27 11033.1 Q1073.78 11033.1 1049.16 10996.4 Q1024.71 10959.5 1024.71 10889.7 Q1024.71 10819.7 1049.16 10783.1 Q1073.78 10746.2 1120.27 10746.2 Z" fill="#000000" fill-rule="evenodd" fill-opacity="1" /><path clip-path="url(#clip6500)" d="M 0 0 M1256.38 10980.7 L1295.45 10980.7 L1295.45 11027.7 L1256.38 11027.7 L1256.38 10980.7 Z" fill="#000000" fill-rule="evenodd" fill-opacity="1" /><path clip-path="url(#clip6500)" d="M 0 0 M1420.63 10874.5 Q1395.45 10874.5 1380.63 10891.8 Q1366.01 10909 1366.01 10939 Q1366.01 10968.8 1380.63 10986.2 Q1395.45 11003.4 1420.63 11003.4 Q1445.82 11003.4 1460.45 10986.2 Q1475.26 10968.8 1475.26 10939 Q1475.26 10909 1460.45 10891.8 Q1445.82 10874.5 1420.63 10874.5 M1494.89 10757.3 L1494.89 10791.4 Q1480.82 10784.7 1466.38 10781.2 Q1452.12 10777.7 1438.04 10777.7 Q1401.01 10777.7 1381.38 10802.7 Q1361.93 10827.7 1359.15 10878.3 Q1370.08 10862.1 1386.56 10853.6 Q1403.04 10844.9 1422.86 10844.9 Q1464.52 10844.9 1488.6 10870.3 Q1512.86 10895.5 1512.86 10939 Q1512.86 10981.6 1487.67 11007.3 Q1462.49 11033.1 1420.63 11033.1 Q1372.67 11033.1 1347.3 10996.4 Q1321.93 10959.5 1321.93 10889.7 Q1321.93 10824.2 1353.04 10785.3 Q1384.15 10746.2 1436.56 10746.2 Q1450.63 10746.2 1464.89 10749 Q1479.34 10751.8 1494.89 10757.3 Z" fill="#000000" fill-rule="evenodd" fill-opacity="1" /><path clip-path="url(#clip6500)" d="M 0 0 M1553.78 10751.2 L1700.63 10751.2 L1700.63 10782.7 L1588.04 10782.7 L1588.04 10850.5 Q1596.19 10847.7 1604.34 10846.4 Q1612.49 10844.9 1620.63 10844.9 Q1666.93 10844.9 1693.97 10870.3 Q1721 10895.7 1721 10939 Q1721 10983.6 1693.23 11008.4 Q1665.45 11033.1 1614.89 11033.1 Q1597.49 11033.1 1579.34 11030.1 Q1561.37 11027.1 1542.12 11021.2 L1542.12 10983.6 Q1558.78 10992.7 1576.56 10997.1 Q1594.34 11001.6 1614.15 11001.6 Q1646.19 11001.6 1664.89 10984.7 Q1683.6 10967.9 1683.6 10939 Q1683.6 10910.1 1664.89 10893.3 Q1646.19 10876.4 1614.15 10876.4 Q1599.15 10876.4 1584.15 10879.7 Q1569.34 10883.1 1553.78 10890.1 L1553.78 10751.2 Z" fill="#000000" fill-rule="evenodd" fill-opacity="1" /><path clip-path="url(#clip6500)" d="M 0 0 M1762.67 11022 L1762.67 10987.9 Q1776.74 10994.5 1791.19 10998.1 Q1805.63 11001.6 1819.52 11001.6 Q1856.56 11001.6 1876 10976.8 Q1895.63 10951.8 1898.41 10901 Q1887.67 10917 1871.19 10925.5 Q1854.71 10934 1834.71 10934 Q1793.23 10934 1768.97 10909 Q1744.89 10883.8 1744.89 10840.3 Q1744.89 10797.7 1770.08 10772 Q1795.26 10746.2 1837.11 10746.2 Q1885.08 10746.2 1910.26 10783.1 Q1935.63 10819.7 1935.63 10889.7 Q1935.63 10955.1 1904.52 10994.2 Q1873.6 11033.1 1821.19 11033.1 Q1807.11 11033.1 1792.67 11030.3 Q1778.23 11027.5 1762.67 11022 M1837.11 10904.7 Q1862.3 10904.7 1876.93 10887.5 Q1891.74 10870.3 1891.74 10840.3 Q1891.74 10810.5 1876.93 10793.3 Q1862.3 10775.8 1837.11 10775.8 Q1811.93 10775.8 1797.11 10793.3 Q1782.48 10810.5 1782.48 10840.3 Q1782.48 10870.3 1797.11 10887.5 Q1811.93 10904.7 1837.11 10904.7 Z" fill="#000000" fill-rule="evenodd" fill-opacity="1" /><path clip-path="url(#clip6500)" d="M 0 0 M1109.53 9317.89 Q1080.64 9317.89 1066.01 9346.41 Q1051.56 9374.74 1051.56 9431.78 Q1051.56 9488.63 1066.01 9517.15 Q1080.64 9545.48 1109.53 9545.48 Q1138.6 9545.48 1153.04 9517.15 Q1167.67 9488.63 1167.67 9431.78 Q1167.67 9374.74 1153.04 9346.41 Q1138.6 9317.89 1109.53 9317.89 M1109.53 9288.26 Q1156.01 9288.26 1180.45 9325.11 Q1205.08 9361.78 1205.08 9431.78 Q1205.08 9501.59 1180.45 9538.45 Q1156.01 9575.11 1109.53 9575.11 Q1063.04 9575.11 1038.41 9538.45 Q1013.97 9501.59 1013.97 9431.78 Q1013.97 9361.78 1038.41 9325.11 Q1063.04 9288.26 1109.53 9288.26 Z" fill="#000000" fill-rule="evenodd" fill-opacity="1" /><path clip-path="url(#clip6500)" d="M 0 0 M1245.64 9522.7 L1284.71 9522.7 L1284.71 9569.74 L1245.64 9569.74 L1245.64 9522.7 Z" fill="#000000" fill-rule="evenodd" fill-opacity="1" /><path clip-path="url(#clip6500)" d="M 0 0 M1409.89 9416.59 Q1384.71 9416.59 1369.89 9433.82 Q1355.26 9451.04 1355.26 9481.04 Q1355.26 9510.85 1369.89 9528.26 Q1384.71 9545.48 1409.89 9545.48 Q1435.08 9545.48 1449.71 9528.26 Q1464.52 9510.85 1464.52 9481.04 Q1464.52 9451.04 1449.71 9433.82 Q1435.08 9416.59 1409.89 9416.59 M1484.15 9299.37 L1484.15 9333.45 Q1470.08 9326.78 1455.63 9323.26 Q1441.38 9319.74 1427.3 9319.74 Q1390.26 9319.74 1370.63 9344.74 Q1351.19 9369.74 1348.41 9420.3 Q1359.34 9404.19 1375.82 9395.67 Q1392.3 9386.96 1412.12 9386.96 Q1453.78 9386.96 1477.86 9412.34 Q1502.12 9437.52 1502.12 9481.04 Q1502.12 9523.63 1476.93 9549.37 Q1451.75 9575.11 1409.89 9575.11 Q1361.93 9575.11 1336.56 9538.45 Q1311.19 9501.59 1311.19 9431.78 Q1311.19 9366.22 1342.3 9327.34 Q1373.41 9288.26 1425.82 9288.26 Q1439.89 9288.26 1454.15 9291.04 Q1468.6 9293.82 1484.15 9299.37 Z" fill="#000000" fill-rule="evenodd" fill-opacity="1" /><path clip-path="url(#clip6500)" d="M 0 0 M1627.3 9416.59 Q1602.12 9416.59 1587.3 9433.82 Q1572.67 9451.04 1572.67 9481.04 Q1572.67 9510.85 1587.3 9528.26 Q1602.12 9545.48 1627.3 9545.48 Q1652.49 9545.48 1667.11 9528.26 Q1681.93 9510.85 1681.93 9481.04 Q1681.93 9451.04 1667.11 9433.82 Q1652.49 9416.59 1627.3 9416.59 M1701.56 9299.37 L1701.56 9333.45 Q1687.49 9326.78 1673.04 9323.26 Q1658.78 9319.74 1644.71 9319.74 Q1607.67 9319.74 1588.04 9344.74 Q1568.6 9369.74 1565.82 9420.3 Q1576.74 9404.19 1593.23 9395.67 Q1609.71 9386.96 1629.52 9386.96 Q1671.19 9386.96 1695.26 9412.34 Q1719.52 9437.52 1719.52 9481.04 Q1719.52 9523.63 1694.34 9549.37 Q1669.15 9575.11 1627.3 9575.11 Q1579.34 9575.11 1553.97 9538.45 Q1528.6 9501.59 1528.6 9431.78 Q1528.6 9366.22 1559.71 9327.34 Q1590.82 9288.26 1643.23 9288.26 Q1657.3 9288.26 1671.56 9291.04 Q1686 9293.82 1701.56 9299.37 Z" fill="#000000" fill-rule="evenodd" fill-opacity="1" /><path clip-path="url(#clip6500)" d="M 0 0 M1840.08 9317.89 Q1811.19 9317.89 1796.56 9346.41 Q1782.11 9374.74 1782.11 9431.78 Q1782.11 9488.63 1796.56 9517.15 Q1811.19 9545.48 1840.08 9545.48 Q1869.15 9545.48 1883.6 9517.15 Q1898.22 9488.63 1898.22 9431.78 Q1898.22 9374.74 1883.6 9346.41 Q1869.15 9317.89 1840.08 9317.89 M1840.08 9288.26 Q1886.56 9288.26 1911 9325.11 Q1935.63 9361.78 1935.63 9431.78 Q1935.63 9501.59 1911 9538.45 Q1886.56 9575.11 1840.08 9575.11 Q1793.6 9575.11 1768.97 9538.45 Q1744.52 9501.59 1744.52 9431.78 Q1744.52 9361.78 1768.97 9325.11 Q1793.6 9288.26 1840.08 9288.26 Z" fill="#000000" fill-rule="evenodd" fill-opacity="1" /><path clip-path="url(#clip6500)" d="M 0 0 M1119.34 7859.94 Q1090.45 7859.94 1075.82 7888.45 Q1061.38 7916.79 1061.38 7973.82 Q1061.38 8030.68 1075.82 8059.19 Q1090.45 8087.53 1119.34 8087.53 Q1148.41 8087.53 1162.86 8059.19 Q1177.49 8030.68 1177.49 7973.82 Q1177.49 7916.79 1162.86 7888.45 Q1148.41 7859.94 1119.34 7859.94 M1119.34 7830.31 Q1165.82 7830.31 1190.27 7867.16 Q1214.89 7903.82 1214.89 7973.82 Q1214.89 8043.64 1190.27 8080.49 Q1165.82 8117.16 1119.34 8117.16 Q1072.86 8117.16 1048.23 8080.49 Q1023.78 8043.64 1023.78 7973.82 Q1023.78 7903.82 1048.23 7867.16 Q1072.86 7830.31 1119.34 7830.31 Z" fill="#000000" fill-rule="evenodd" fill-opacity="1" /><path clip-path="url(#clip6500)" d="M 0 0 M1255.45 8064.75 L1294.52 8064.75 L1294.52 8111.79 L1255.45 8111.79 L1255.45 8064.75 Z" fill="#000000" fill-rule="evenodd" fill-opacity="1" /><path clip-path="url(#clip6500)" d="M 0 0 M1419.71 7958.64 Q1394.52 7958.64 1379.71 7975.86 Q1365.08 7993.08 1365.08 8023.08 Q1365.08 8052.9 1379.71 8070.31 Q1394.52 8087.53 1419.71 8087.53 Q1444.89 8087.53 1459.52 8070.31 Q1474.34 8052.9 1474.34 8023.08 Q1474.34 7993.08 1459.52 7975.86 Q1444.89 7958.64 1419.71 7958.64 M1493.97 7841.42 L1493.97 7875.49 Q1479.89 7868.82 1465.45 7865.31 Q1451.19 7861.79 1437.12 7861.79 Q1400.08 7861.79 1380.45 7886.79 Q1361.01 7911.79 1358.23 7962.34 Q1369.15 7946.23 1385.63 7937.71 Q1402.12 7929.01 1421.93 7929.01 Q1463.6 7929.01 1487.67 7954.38 Q1511.93 7979.56 1511.93 8023.08 Q1511.93 8065.68 1486.75 8091.42 Q1461.56 8117.16 1419.71 8117.16 Q1371.75 8117.16 1346.38 8080.49 Q1321.01 8043.64 1321.01 7973.82 Q1321.01 7908.27 1352.12 7869.38 Q1383.23 7830.31 1435.63 7830.31 Q1449.71 7830.31 1463.97 7833.08 Q1478.41 7835.86 1493.97 7841.42 Z" fill="#000000" fill-rule="evenodd" fill-opacity="1" /><path clip-path="url(#clip6500)" d="M 0 0 M1637.11 7958.64 Q1611.93 7958.64 1597.12 7975.86 Q1582.49 7993.08 1582.49 8023.08 Q1582.49 8052.9 1597.12 8070.31 Q1611.93 8087.53 1637.11 8087.53 Q1662.3 8087.53 1676.93 8070.31 Q1691.74 8052.9 1691.74 8023.08 Q1691.74 7993.08 1676.93 7975.86 Q1662.3 7958.64 1637.11 7958.64 M1711.37 7841.42 L1711.37 7875.49 Q1697.3 7868.82 1682.86 7865.31 Q1668.6 7861.79 1654.52 7861.79 Q1617.49 7861.79 1597.86 7886.79 Q1578.41 7911.79 1575.63 7962.34 Q1586.56 7946.23 1603.04 7937.71 Q1619.52 7929.01 1639.34 7929.01 Q1681 7929.01 1705.08 7954.38 Q1729.34 7979.56 1729.34 8023.08 Q1729.34 8065.68 1704.15 8091.42 Q1678.97 8117.16 1637.11 8117.16 Q1589.15 8117.16 1563.78 8080.49 Q1538.41 8043.64 1538.41 7973.82 Q1538.41 7908.27 1569.52 7869.38 Q1600.63 7830.31 1653.04 7830.31 Q1667.11 7830.31 1681.37 7833.08 Q1695.82 7835.86 1711.37 7841.42 Z" fill="#000000" fill-rule="evenodd" fill-opacity="1" /><path clip-path="url(#clip6500)" d="M 0 0 M1776.37 8080.3 L1837.48 8080.3 L1837.48 7869.38 L1771 7882.71 L1771 7848.64 L1837.11 7835.31 L1874.52 7835.31 L1874.52 8080.3 L1935.63 8080.3 L1935.63 8111.79 L1776.37 8111.79 L1776.37 8080.3 Z" fill="#000000" fill-rule="evenodd" fill-opacity="1" /><path clip-path="url(#clip6500)" d="M 0 0 M1122.3 6401.98 Q1093.41 6401.98 1078.78 6430.5 Q1064.34 6458.83 1064.34 6515.87 Q1064.34 6572.72 1078.78 6601.24 Q1093.41 6629.57 1122.3 6629.57 Q1151.38 6629.57 1165.82 6601.24 Q1180.45 6572.72 1180.45 6515.87 Q1180.45 6458.83 1165.82 6430.5 Q1151.38 6401.98 1122.3 6401.98 M1122.3 6372.35 Q1168.78 6372.35 1193.23 6409.2 Q1217.86 6445.87 1217.86 6515.87 Q1217.86 6585.68 1193.23 6622.53 Q1168.78 6659.2 1122.3 6659.2 Q1075.82 6659.2 1051.19 6622.53 Q1026.75 6585.68 1026.75 6515.87 Q1026.75 6445.87 1051.19 6409.2 Q1075.82 6372.35 1122.3 6372.35 Z" fill="#000000" fill-rule="evenodd" fill-opacity="1" /><path clip-path="url(#clip6500)" d="M 0 0 M1258.41 6606.79 L1297.49 6606.79 L1297.49 6653.83 L1258.41 6653.83 L1258.41 6606.79 Z" fill="#000000" fill-rule="evenodd" fill-opacity="1" /><path clip-path="url(#clip6500)" d="M 0 0 M1422.67 6500.68 Q1397.49 6500.68 1382.67 6517.91 Q1368.04 6535.13 1368.04 6565.13 Q1368.04 6594.94 1382.67 6612.35 Q1397.49 6629.57 1422.67 6629.57 Q1447.86 6629.57 1462.49 6612.35 Q1477.3 6594.94 1477.3 6565.13 Q1477.3 6535.13 1462.49 6517.91 Q1447.86 6500.68 1422.67 6500.68 M1496.93 6383.46 L1496.93 6417.54 Q1482.86 6410.87 1468.41 6407.35 Q1454.15 6403.83 1440.08 6403.83 Q1403.04 6403.83 1383.41 6428.83 Q1363.97 6453.83 1361.19 6504.39 Q1372.12 6488.28 1388.6 6479.76 Q1405.08 6471.05 1424.89 6471.05 Q1466.56 6471.05 1490.63 6496.42 Q1514.89 6521.61 1514.89 6565.13 Q1514.89 6607.72 1489.71 6633.46 Q1464.52 6659.2 1422.67 6659.2 Q1374.71 6659.2 1349.34 6622.53 Q1323.97 6585.68 1323.97 6515.87 Q1323.97 6450.31 1355.08 6411.42 Q1386.19 6372.35 1438.6 6372.35 Q1452.67 6372.35 1466.93 6375.13 Q1481.38 6377.91 1496.93 6383.46 Z" fill="#000000" fill-rule="evenodd" fill-opacity="1" /><path clip-path="url(#clip6500)" d="M 0 0 M1640.08 6500.68 Q1614.89 6500.68 1600.08 6517.91 Q1585.45 6535.13 1585.45 6565.13 Q1585.45 6594.94 1600.08 6612.35 Q1614.89 6629.57 1640.08 6629.57 Q1665.26 6629.57 1679.89 6612.35 Q1694.71 6594.94 1694.71 6565.13 Q1694.71 6535.13 1679.89 6517.91 Q1665.26 6500.68 1640.08 6500.68 M1714.34 6383.46 L1714.34 6417.54 Q1700.26 6410.87 1685.82 6407.35 Q1671.56 6403.83 1657.49 6403.83 Q1620.45 6403.83 1600.82 6428.83 Q1581.37 6453.83 1578.6 6504.39 Q1589.52 6488.28 1606 6479.76 Q1622.49 6471.05 1642.3 6471.05 Q1683.97 6471.05 1708.04 6496.42 Q1732.3 6521.61 1732.3 6565.13 Q1732.3 6607.72 1707.11 6633.46 Q1681.93 6659.2 1640.08 6659.2 Q1592.12 6659.2 1566.74 6622.53 Q1541.37 6585.68 1541.37 6515.87 Q1541.37 6450.31 1572.49 6411.42 Q1603.6 6372.35 1656 6372.35 Q1670.08 6372.35 1684.34 6375.13 Q1698.78 6377.91 1714.34 6383.46 Z" fill="#000000" fill-rule="evenodd" fill-opacity="1" /><path clip-path="url(#clip6500)" d="M 0 0 M1805.08 6622.35 L1935.63 6622.35 L1935.63 6653.83 L1760.08 6653.83 L1760.08 6622.35 Q1781.37 6600.31 1818.04 6563.28 Q1854.89 6526.05 1864.34 6515.31 Q1882.3 6495.13 1889.34 6481.24 Q1896.56 6467.17 1896.56 6453.65 Q1896.56 6431.61 1881 6417.72 Q1865.63 6403.83 1840.82 6403.83 Q1823.23 6403.83 1803.6 6409.94 Q1784.15 6416.05 1761.93 6428.46 L1761.93 6390.68 Q1784.52 6381.61 1804.15 6376.98 Q1823.78 6372.35 1840.08 6372.35 Q1883.04 6372.35 1908.59 6393.83 Q1934.15 6415.31 1934.15 6451.24 Q1934.15 6468.28 1927.67 6483.65 Q1921.37 6498.83 1904.52 6519.57 Q1899.89 6524.94 1875.08 6550.68 Q1850.26 6576.24 1805.08 6622.35 Z" fill="#000000" fill-rule="evenodd" fill-opacity="1" /><path clip-path="url(#clip6500)" d="M 0 0 M1114.71 4944.02 Q1085.82 4944.02 1071.19 4972.54 Q1056.75 5000.88 1056.75 5057.91 Q1056.75 5114.76 1071.19 5143.28 Q1085.82 5171.62 1114.71 5171.62 Q1143.78 5171.62 1158.23 5143.28 Q1172.86 5114.76 1172.86 5057.91 Q1172.86 5000.88 1158.23 4972.54 Q1143.78 4944.02 1114.71 4944.02 M1114.71 4914.4 Q1161.19 4914.4 1185.64 4951.25 Q1210.27 4987.91 1210.27 5057.91 Q1210.27 5127.73 1185.64 5164.58 Q1161.19 5201.25 1114.71 5201.25 Q1068.23 5201.25 1043.6 5164.58 Q1019.16 5127.73 1019.16 5057.91 Q1019.16 4987.91 1043.6 4951.25 Q1068.23 4914.4 1114.71 4914.4 Z" fill="#000000" fill-rule="evenodd" fill-opacity="1" /><path clip-path="url(#clip6500)" d="M 0 0 M1250.82 5148.84 L1289.89 5148.84 L1289.89 5195.88 L1250.82 5195.88 L1250.82 5148.84 Z" fill="#000000" fill-rule="evenodd" fill-opacity="1" /><path clip-path="url(#clip6500)" d="M 0 0 M1415.08 5042.73 Q1389.89 5042.73 1375.08 5059.95 Q1360.45 5077.17 1360.45 5107.17 Q1360.45 5136.99 1375.08 5154.39 Q1389.89 5171.62 1415.08 5171.62 Q1440.26 5171.62 1454.89 5154.39 Q1469.71 5136.99 1469.71 5107.17 Q1469.71 5077.17 1454.89 5059.95 Q1440.26 5042.73 1415.08 5042.73 M1489.34 4925.51 L1489.34 4959.58 Q1475.26 4952.91 1460.82 4949.4 Q1446.56 4945.88 1432.49 4945.88 Q1395.45 4945.88 1375.82 4970.88 Q1356.38 4995.88 1353.6 5046.43 Q1364.52 5030.32 1381.01 5021.8 Q1397.49 5013.1 1417.3 5013.1 Q1458.97 5013.1 1483.04 5038.47 Q1507.3 5063.65 1507.3 5107.17 Q1507.3 5149.76 1482.12 5175.51 Q1456.93 5201.25 1415.08 5201.25 Q1367.12 5201.25 1341.75 5164.58 Q1316.38 5127.73 1316.38 5057.91 Q1316.38 4992.36 1347.49 4953.47 Q1378.6 4914.4 1431 4914.4 Q1445.08 4914.4 1459.34 4917.17 Q1473.78 4919.95 1489.34 4925.51 Z" fill="#000000" fill-rule="evenodd" fill-opacity="1" /><path clip-path="url(#clip6500)" d="M 0 0 M1632.49 5042.73 Q1607.3 5042.73 1592.49 5059.95 Q1577.86 5077.17 1577.86 5107.17 Q1577.86 5136.99 1592.49 5154.39 Q1607.3 5171.62 1632.49 5171.62 Q1657.67 5171.62 1672.3 5154.39 Q1687.11 5136.99 1687.11 5107.17 Q1687.11 5077.17 1672.3 5059.95 Q1657.67 5042.73 1632.49 5042.73 M1706.74 4925.51 L1706.74 4959.58 Q1692.67 4952.91 1678.23 4949.4 Q1663.97 4945.88 1649.89 4945.88 Q1612.86 4945.88 1593.23 4970.88 Q1573.78 4995.88 1571 5046.43 Q1581.93 5030.32 1598.41 5021.8 Q1614.89 5013.1 1634.71 5013.1 Q1676.37 5013.1 1700.45 5038.47 Q1724.71 5063.65 1724.71 5107.17 Q1724.71 5149.76 1699.52 5175.51 Q1674.34 5201.25 1632.49 5201.25 Q1584.52 5201.25 1559.15 5164.58 Q1533.78 5127.73 1533.78 5057.91 Q1533.78 4992.36 1564.89 4953.47 Q1596 4914.4 1648.41 4914.4 Q1662.49 4914.4 1676.74 4917.17 Q1691.19 4919.95 1706.74 4925.51 Z" fill="#000000" fill-rule="evenodd" fill-opacity="1" /><path clip-path="url(#clip6500)" d="M 0 0 M1878.6 5046.8 Q1905.45 5052.54 1920.45 5070.69 Q1935.63 5088.84 1935.63 5115.51 Q1935.63 5156.43 1907.48 5178.84 Q1879.34 5201.25 1827.48 5201.25 Q1810.08 5201.25 1791.56 5197.73 Q1773.23 5194.39 1753.6 5187.54 L1753.6 5151.43 Q1769.15 5160.51 1787.67 5165.13 Q1806.19 5169.76 1826.37 5169.76 Q1861.56 5169.76 1879.89 5155.88 Q1898.41 5141.99 1898.41 5115.51 Q1898.41 5091.06 1881.19 5077.36 Q1864.15 5063.47 1833.6 5063.47 L1801.37 5063.47 L1801.37 5032.73 L1835.08 5032.73 Q1862.67 5032.73 1877.3 5021.8 Q1891.93 5010.69 1891.93 4989.95 Q1891.93 4968.65 1876.74 4957.36 Q1861.74 4945.88 1833.6 4945.88 Q1818.23 4945.88 1800.63 4949.21 Q1783.04 4952.54 1761.93 4959.58 L1761.93 4926.25 Q1783.23 4920.32 1801.74 4917.36 Q1820.45 4914.4 1836.93 4914.4 Q1879.52 4914.4 1904.34 4933.84 Q1929.15 4953.1 1929.15 4986.06 Q1929.15 5009.02 1916 5024.95 Q1902.85 5040.69 1878.6 5046.8 Z" fill="#000000" fill-rule="evenodd" fill-opacity="1" /><path clip-path="url(#clip6500)" d="M 0 0 M1105.64 3486.07 Q1076.75 3486.07 1062.12 3514.59 Q1047.67 3542.92 1047.67 3599.96 Q1047.67 3656.81 1062.12 3685.33 Q1076.75 3713.66 1105.64 3713.66 Q1134.71 3713.66 1149.15 3685.33 Q1163.78 3656.81 1163.78 3599.96 Q1163.78 3542.92 1149.15 3514.59 Q1134.71 3486.07 1105.64 3486.07 M1105.64 3456.44 Q1152.12 3456.44 1176.56 3493.29 Q1201.19 3529.96 1201.19 3599.96 Q1201.19 3669.77 1176.56 3706.62 Q1152.12 3743.29 1105.64 3743.29 Q1059.16 3743.29 1034.53 3706.62 Q1010.08 3669.77 1010.08 3599.96 Q1010.08 3529.96 1034.53 3493.29 Q1059.16 3456.44 1105.64 3456.44 Z" fill="#000000" fill-rule="evenodd" fill-opacity="1" /><path clip-path="url(#clip6500)" d="M 0 0 M1241.75 3690.88 L1280.82 3690.88 L1280.82 3737.92 L1241.75 3737.92 L1241.75 3690.88 Z" fill="#000000" fill-rule="evenodd" fill-opacity="1" /><path clip-path="url(#clip6500)" d="M 0 0 M1406.01 3584.77 Q1380.82 3584.77 1366.01 3601.99 Q1351.38 3619.22 1351.38 3649.22 Q1351.38 3679.03 1366.01 3696.44 Q1380.82 3713.66 1406.01 3713.66 Q1431.19 3713.66 1445.82 3696.44 Q1460.63 3679.03 1460.63 3649.22 Q1460.63 3619.22 1445.82 3601.99 Q1431.19 3584.77 1406.01 3584.77 M1480.26 3467.55 L1480.26 3501.62 Q1466.19 3494.96 1451.75 3491.44 Q1437.49 3487.92 1423.41 3487.92 Q1386.38 3487.92 1366.75 3512.92 Q1347.3 3537.92 1344.52 3588.48 Q1355.45 3572.37 1371.93 3563.85 Q1388.41 3555.14 1408.23 3555.14 Q1449.89 3555.14 1473.97 3580.51 Q1498.23 3605.7 1498.23 3649.22 Q1498.23 3691.81 1473.04 3717.55 Q1447.86 3743.29 1406.01 3743.29 Q1358.04 3743.29 1332.67 3706.62 Q1307.3 3669.77 1307.3 3599.96 Q1307.3 3534.4 1338.41 3495.51 Q1369.52 3456.44 1421.93 3456.44 Q1436 3456.44 1450.26 3459.22 Q1464.71 3462 1480.26 3467.55 Z" fill="#000000" fill-rule="evenodd" fill-opacity="1" /><path clip-path="url(#clip6500)" d="M 0 0 M1623.41 3584.77 Q1598.23 3584.77 1583.41 3601.99 Q1568.78 3619.22 1568.78 3649.22 Q1568.78 3679.03 1583.41 3696.44 Q1598.23 3713.66 1623.41 3713.66 Q1648.6 3713.66 1663.23 3696.44 Q1678.04 3679.03 1678.04 3649.22 Q1678.04 3619.22 1663.23 3601.99 Q1648.6 3584.77 1623.41 3584.77 M1697.67 3467.55 L1697.67 3501.62 Q1683.6 3494.96 1669.15 3491.44 Q1654.89 3487.92 1640.82 3487.92 Q1603.78 3487.92 1584.15 3512.92 Q1564.71 3537.92 1561.93 3588.48 Q1572.86 3572.37 1589.34 3563.85 Q1605.82 3555.14 1625.63 3555.14 Q1667.3 3555.14 1691.37 3580.51 Q1715.63 3605.7 1715.63 3649.22 Q1715.63 3691.81 1690.45 3717.55 Q1665.26 3743.29 1623.41 3743.29 Q1575.45 3743.29 1550.08 3706.62 Q1524.71 3669.77 1524.71 3599.96 Q1524.71 3534.4 1555.82 3495.51 Q1586.93 3456.44 1639.34 3456.44 Q1653.41 3456.44 1667.67 3459.22 Q1682.11 3462 1697.67 3467.55 Z" fill="#000000" fill-rule="evenodd" fill-opacity="1" /><path clip-path="url(#clip6500)" d="M 0 0 M1858.97 3494.03 L1764.52 3641.62 L1858.97 3641.62 L1858.97 3494.03 M1849.15 3461.44 L1896.19 3461.44 L1896.19 3641.62 L1935.63 3641.62 L1935.63 3672.73 L1896.19 3672.73 L1896.19 3737.92 L1858.97 3737.92 L1858.97 3672.73 L1734.15 3672.73 L1734.15 3636.62 L1849.15 3461.44 Z" fill="#000000" fill-rule="evenodd" fill-opacity="1" /><path clip-path="url(#clip6500)" d="M 0 0 M1117.49 2028.11 Q1088.6 2028.11 1073.97 2056.63 Q1059.53 2084.97 1059.53 2142 Q1059.53 2198.85 1073.97 2227.37 Q1088.6 2255.71 1117.49 2255.71 Q1146.56 2255.71 1161.01 2227.37 Q1175.64 2198.85 1175.64 2142 Q1175.64 2084.97 1161.01 2056.63 Q1146.56 2028.11 1117.49 2028.11 M1117.49 1998.48 Q1163.97 1998.48 1188.41 2035.34 Q1213.04 2072 1213.04 2142 Q1213.04 2211.82 1188.41 2248.67 Q1163.97 2285.33 1117.49 2285.33 Q1071.01 2285.33 1046.38 2248.67 Q1021.93 2211.82 1021.93 2142 Q1021.93 2072 1046.38 2035.34 Q1071.01 1998.48 1117.49 1998.48 Z" fill="#000000" fill-rule="evenodd" fill-opacity="1" /><path clip-path="url(#clip6500)" d="M 0 0 M1253.6 2232.93 L1292.67 2232.93 L1292.67 2279.96 L1253.6 2279.96 L1253.6 2232.93 Z" fill="#000000" fill-rule="evenodd" fill-opacity="1" /><path clip-path="url(#clip6500)" d="M 0 0 M1417.86 2126.82 Q1392.67 2126.82 1377.86 2144.04 Q1363.23 2161.26 1363.23 2191.26 Q1363.23 2221.08 1377.86 2238.48 Q1392.67 2255.71 1417.86 2255.71 Q1443.04 2255.71 1457.67 2238.48 Q1472.49 2221.08 1472.49 2191.26 Q1472.49 2161.26 1457.67 2144.04 Q1443.04 2126.82 1417.86 2126.82 M1492.12 2009.6 L1492.12 2043.67 Q1478.04 2037 1463.6 2033.48 Q1449.34 2029.97 1435.26 2029.97 Q1398.23 2029.97 1378.6 2054.97 Q1359.15 2079.97 1356.38 2130.52 Q1367.3 2114.41 1383.78 2105.89 Q1400.26 2097.19 1420.08 2097.19 Q1461.75 2097.19 1485.82 2122.56 Q1510.08 2147.74 1510.08 2191.26 Q1510.08 2233.85 1484.89 2259.59 Q1459.71 2285.33 1417.86 2285.33 Q1369.89 2285.33 1344.52 2248.67 Q1319.15 2211.82 1319.15 2142 Q1319.15 2076.45 1350.26 2037.56 Q1381.38 1998.48 1433.78 1998.48 Q1447.86 1998.48 1462.12 2001.26 Q1476.56 2004.04 1492.12 2009.6 Z" fill="#000000" fill-rule="evenodd" fill-opacity="1" /><path clip-path="url(#clip6500)" d="M 0 0 M1635.26 2126.82 Q1610.08 2126.82 1595.26 2144.04 Q1580.63 2161.26 1580.63 2191.26 Q1580.63 2221.08 1595.26 2238.48 Q1610.08 2255.71 1635.26 2255.71 Q1660.45 2255.71 1675.08 2238.48 Q1689.89 2221.08 1689.89 2191.26 Q1689.89 2161.26 1675.08 2144.04 Q1660.45 2126.82 1635.26 2126.82 M1709.52 2009.6 L1709.52 2043.67 Q1695.45 2037 1681 2033.48 Q1666.74 2029.97 1652.67 2029.97 Q1615.63 2029.97 1596 2054.97 Q1576.56 2079.97 1573.78 2130.52 Q1584.71 2114.41 1601.19 2105.89 Q1617.67 2097.19 1637.49 2097.19 Q1679.15 2097.19 1703.23 2122.56 Q1727.48 2147.74 1727.48 2191.26 Q1727.48 2233.85 1702.3 2259.59 Q1677.11 2285.33 1635.26 2285.33 Q1587.3 2285.33 1561.93 2248.67 Q1536.56 2211.82 1536.56 2142 Q1536.56 2076.45 1567.67 2037.56 Q1598.78 1998.48 1651.19 1998.48 Q1665.26 1998.48 1679.52 2001.26 Q1693.97 2004.04 1709.52 2009.6 Z" fill="#000000" fill-rule="evenodd" fill-opacity="1" /><path clip-path="url(#clip6500)" d="M 0 0 M1768.41 2003.48 L1915.26 2003.48 L1915.26 2034.97 L1802.67 2034.97 L1802.67 2102.74 Q1810.82 2099.97 1818.97 2098.67 Q1827.11 2097.19 1835.26 2097.19 Q1881.56 2097.19 1908.59 2122.56 Q1935.63 2147.93 1935.63 2191.26 Q1935.63 2235.89 1907.85 2260.71 Q1880.08 2285.33 1829.52 2285.33 Q1812.11 2285.33 1793.97 2282.37 Q1776 2279.41 1756.74 2273.48 L1756.74 2235.89 Q1773.41 2244.96 1791.19 2249.41 Q1808.97 2253.85 1828.78 2253.85 Q1860.82 2253.85 1879.52 2237 Q1898.22 2220.15 1898.22 2191.26 Q1898.22 2162.37 1879.52 2145.52 Q1860.82 2128.67 1828.78 2128.67 Q1813.78 2128.67 1798.78 2132 Q1783.97 2135.34 1768.41 2142.37 L1768.41 2003.48 Z" fill="#000000" fill-rule="evenodd" fill-opacity="1" /><path clip-path="url(#clip6500)" d="M 0 0 M5870.74 228.341 L5870.74 284.73 Q5845.47 271.767 5818.24 265.286 Q5791.02 258.804 5761.86 258.804 Q5717.46 258.804 5695.1 272.415 Q5673.06 286.026 5673.06 313.248 Q5673.06 333.989 5688.94 345.98 Q5704.82 357.646 5752.78 368.341 L5773.2 372.878 Q5836.72 386.489 5863.29 411.442 Q5890.19 436.072 5890.19 480.47 Q5890.19 531.025 5850 560.516 Q5810.14 590.006 5740.14 590.006 Q5710.98 590.006 5679.22 584.173 Q5647.78 578.664 5612.78 567.321 L5612.78 505.747 Q5645.84 522.923 5677.92 531.673 Q5710 540.099 5741.44 540.099 Q5783.57 540.099 5806.25 525.84 Q5828.94 511.257 5828.94 485.007 Q5828.94 460.701 5812.41 447.738 Q5796.21 434.775 5740.79 422.785 L5720.05 417.924 Q5664.63 406.257 5640 382.276 Q5615.37 357.97 5615.37 315.841 Q5615.37 264.637 5651.67 236.767 Q5687.97 208.897 5754.73 208.897 Q5787.78 208.897 5816.95 213.758 Q5846.11 218.619 5870.74 228.341 Z" fill="#000000" fill-rule="evenodd" fill-opacity="1" /><path clip-path="url(#clip6500)" d="M 0 0 M5952.73 217.647 L6012.36 217.647 L6012.36 580.608 L5952.73 580.608 L5952.73 217.647 M5952.73 76.3514 L6012.36 76.3514 L6012.36 151.86 L5952.73 151.86 L5952.73 76.3514 Z" fill="#000000" fill-rule="evenodd" fill-opacity="1" /><path clip-path="url(#clip6500)" d="M 0 0 M6048.98 217.647 L6332.22 217.647 L6332.22 272.091 L6107.96 532.969 L6332.22 532.969 L6332.22 580.608 L6040.88 580.608 L6040.88 526.164 L6265.14 265.286 L6048.98 265.286 L6048.98 217.647 Z" fill="#000000" fill-rule="evenodd" fill-opacity="1" /><path clip-path="url(#clip6500)" d="M 0 0 M6705.23 384.22 L6705.23 413.387 L6431.06 413.387 Q6434.95 474.96 6468.01 507.368 Q6501.39 539.451 6560.69 539.451 Q6595.05 539.451 6627.13 531.025 Q6659.54 522.599 6691.3 505.747 L6691.3 562.136 Q6659.21 575.747 6625.51 582.877 Q6591.8 590.006 6557.13 590.006 Q6470.28 590.006 6419.4 539.451 Q6368.84 488.896 6368.84 402.692 Q6368.84 313.572 6416.81 261.397 Q6465.09 208.897 6546.76 208.897 Q6620 208.897 6662.45 256.212 Q6705.23 303.202 6705.23 384.22 M6645.6 366.72 Q6644.95 317.785 6618.05 288.619 Q6591.48 259.452 6547.41 259.452 Q6497.5 259.452 6467.36 287.647 Q6437.55 315.841 6433.01 367.044 L6645.6 366.72 Z" fill="#000000" fill-rule="evenodd" fill-opacity="1" /><path clip-path="url(#clip6500)" d="M 0 0 M6783.01 498.294 L6851.39 498.294 L6851.39 580.608 L6783.01 580.608 L6783.01 498.294 M6783.01 237.415 L6851.39 237.415 L6851.39 319.73 L6783.01 319.73 L6783.01 237.415 Z" fill="#000000" fill-rule="evenodd" fill-opacity="1" /><path clip-path="url(#clip6500)" d="M 0 0 M7070.46 312.6 Q7026.39 312.6 7000.46 342.739 Q6974.86 372.878 6974.86 425.377 Q6974.86 477.553 7000.46 508.016 Q7026.39 538.155 7070.46 538.155 Q7114.53 538.155 7140.14 508.016 Q7166.06 477.553 7166.06 425.377 Q7166.06 372.878 7140.14 342.739 Q7114.53 312.6 7070.46 312.6 M7200.41 107.462 L7200.41 167.092 Q7175.78 155.425 7150.51 149.268 Q7125.55 143.11 7100.92 143.11 Q7036.11 143.11 7001.76 186.86 Q6967.73 230.61 6962.87 319.082 Q6981.99 290.887 7010.83 275.98 Q7039.67 260.749 7074.35 260.749 Q7147.26 260.749 7189.39 305.147 Q7231.85 349.22 7231.85 425.377 Q7231.85 499.914 7187.77 544.96 Q7143.7 590.006 7070.46 590.006 Q6986.52 590.006 6942.13 525.84 Q6897.73 461.349 6897.73 339.174 Q6897.73 224.453 6952.17 156.397 Q7006.62 88.018 7098.33 88.018 Q7122.96 88.018 7147.91 92.8791 Q7173.19 97.7402 7200.41 107.462 Z" fill="#000000" fill-rule="evenodd" fill-opacity="1" /><path clip-path="url(#clip6500)" d="M 0 0 M7309.63 498.294 L7378 498.294 L7378 554.034 L7324.86 657.737 L7283.05 657.737 L7309.63 554.034 L7309.63 498.294 Z" fill="#000000" fill-rule="evenodd" fill-opacity="1" /><path clip-path="url(#clip6500)" d="M 0 0 M7588.98 350.841 Q7542.31 350.841 7515.41 375.794 Q7488.84 400.748 7488.84 444.498 Q7488.84 488.247 7515.41 513.201 Q7542.31 538.155 7588.98 538.155 Q7635.64 538.155 7662.54 513.201 Q7689.44 487.923 7689.44 444.498 Q7689.44 400.748 7662.54 375.794 Q7635.97 350.841 7588.98 350.841 M7523.51 322.97 Q7481.38 312.6 7457.73 283.758 Q7434.39 254.915 7434.39 213.434 Q7434.39 155.425 7475.55 121.722 Q7517.03 88.018 7588.98 88.018 Q7661.24 88.018 7702.4 121.722 Q7743.56 155.425 7743.56 213.434 Q7743.56 254.915 7719.9 283.758 Q7696.57 312.6 7654.76 322.97 Q7702.08 333.989 7728.33 366.072 Q7754.9 398.155 7754.9 444.498 Q7754.9 514.821 7711.8 552.414 Q7669.02 590.006 7588.98 590.006 Q7508.93 590.006 7465.83 552.414 Q7423.05 514.821 7423.05 444.498 Q7423.05 398.155 7449.62 366.072 Q7476.2 333.989 7523.51 322.97 M7499.53 219.591 Q7499.53 257.184 7522.86 278.249 Q7546.52 299.313 7588.98 299.313 Q7631.1 299.313 7654.76 278.249 Q7678.74 257.184 7678.74 219.591 Q7678.74 181.999 7654.76 160.934 Q7631.1 139.87 7588.98 139.87 Q7546.52 139.87 7522.86 160.934 Q7499.53 181.999 7499.53 219.591 Z" fill="#000000" fill-rule="evenodd" fill-opacity="1" /><path clip-path="url(#clip6500)" d="M 0 0 M7832.68 498.294 L7901.06 498.294 L7901.06 554.034 L7847.91 657.737 L7806.1 657.737 L7832.68 554.034 L7832.68 498.294 Z" fill="#000000" fill-rule="evenodd" fill-opacity="1" /><path clip-path="url(#clip6500)" d="M 0 0 M7983.37 525.516 L8090.32 525.516 L8090.32 156.397 L7973.97 179.731 L7973.97 120.101 L8089.67 96.768 L8155.13 96.768 L8155.13 525.516 L8262.07 525.516 L8262.07 580.608 L7983.37 580.608 L7983.37 525.516 Z" fill="#000000" fill-rule="evenodd" fill-opacity="1" /><path clip-path="url(#clip6500)" d="M 0 0 M8473.04 139.87 Q8422.49 139.87 8396.89 189.777 Q8371.61 239.36 8371.61 339.174 Q8371.61 438.664 8396.89 488.571 Q8422.49 538.155 8473.04 538.155 Q8523.92 538.155 8549.2 488.571 Q8574.8 438.664 8574.8 339.174 Q8574.8 239.36 8549.2 189.777 Q8523.92 139.87 8473.04 139.87 M8473.04 88.018 Q8554.39 88.018 8597.16 152.508 Q8640.27 216.675 8640.27 339.174 Q8640.27 461.349 8597.16 525.84 Q8554.39 590.006 8473.04 590.006 Q8391.7 590.006 8348.6 525.84 Q8305.82 461.349 8305.82 339.174 Q8305.82 216.675 8348.6 152.508 Q8391.7 88.018 8473.04 88.018 Z" fill="#000000" fill-rule="evenodd" fill-opacity="1" /><path clip-path="url(#clip6500)" d="M 0 0 M8718.04 498.294 L8786.42 498.294 L8786.42 554.034 L8733.27 657.737 L8691.47 657.737 L8718.04 554.034 L8718.04 498.294 Z" fill="#000000" fill-rule="evenodd" fill-opacity="1" /><path clip-path="url(#clip6500)" d="M 0 0 M8868.74 525.516 L8975.68 525.516 L8975.68 156.397 L8859.34 179.731 L8859.34 120.101 L8975.03 96.768 L9040.5 96.768 L9040.5 525.516 L9147.44 525.516 L9147.44 580.608 L8868.74 580.608 L8868.74 525.516 Z" fill="#000000" fill-rule="evenodd" fill-opacity="1" /><path clip-path="url(#clip6500)" d="M 0 0 M9274.8 525.516 L9503.27 525.516 L9503.27 580.608 L9196.05 580.608 L9196.05 525.516 Q9233.32 486.951 9297.48 422.137 Q9361.98 356.998 9378.5 338.202 Q9409.94 302.878 9422.25 278.573 Q9434.89 253.943 9434.89 230.286 Q9434.89 191.721 9407.67 167.416 Q9380.77 143.11 9337.35 143.11 Q9306.56 143.11 9272.21 153.805 Q9238.18 164.499 9199.29 186.212 L9199.29 120.101 Q9238.83 104.222 9273.18 96.1199 Q9307.53 88.018 9336.05 88.018 Q9411.23 88.018 9455.96 125.61 Q9500.68 163.203 9500.68 226.073 Q9500.68 255.888 9489.34 282.786 Q9478.32 309.359 9448.83 345.656 Q9440.72 355.054 9397.3 400.1 Q9353.87 444.822 9274.8 525.516 Z" fill="#000000" fill-rule="evenodd" fill-opacity="1" /><path clip-path="url(#clip6500)" d="M 0 0 M9581.05 237.415 L9649.43 237.415 L9649.43 319.73 L9581.05 319.73 L9581.05 237.415 M9581.05 498.294 L9649.43 498.294 L9649.43 554.034 L9596.28 657.737 L9554.47 657.737 L9581.05 554.034 L9581.05 498.294 Z" fill="#000000" fill-rule="evenodd" fill-opacity="1" /><path clip-path="url(#clip6500)" d="M 0 0 M10121.9 141.166 Q10050.6 141.166 10008.5 194.314 Q9966.69 247.462 9966.69 339.174 Q9966.69 430.563 10008.5 483.71 Q10050.6 536.858 10121.9 536.858 Q10193.2 536.858 10234.7 483.71 Q10276.5 430.563 10276.5 339.174 Q10276.5 247.462 10234.7 194.314 Q10193.2 141.166 10121.9 141.166 M10213.6 571.858 L10299.8 666.163 L10220.8 666.163 L10149.1 588.71 Q10138.5 589.358 10132.6 589.682 Q10127.1 590.006 10121.9 590.006 Q10019.8 590.006 9958.59 521.951 Q9897.67 453.572 9897.67 339.174 Q9897.67 224.453 9958.59 156.397 Q10019.8 88.018 10121.9 88.018 Q10223.7 88.018 10284.6 156.397 Q10345.5 224.453 10345.5 339.174 Q10345.5 423.433 10311.5 483.386 Q10277.8 543.34 10213.6 571.858 Z" fill="#000000" fill-rule="evenodd" fill-opacity="1" /><path clip-path="url(#clip6500)" d="M 0 0 M10626.8 279.221 L11042.3 279.221 L11042.3 333.665 L10626.8 333.665 L10626.8 279.221 M10626.8 411.442 L11042.3 411.442 L11042.3 466.535 L10626.8 466.535 L10626.8 411.442 Z" fill="#000000" fill-rule="evenodd" fill-opacity="1" /><path clip-path="url(#clip6500)" d="M 0 0 M11335.6 525.516 L11442.5 525.516 L11442.5 156.397 L11326.2 179.731 L11326.2 120.101 L11441.9 96.768 L11507.3 96.768 L11507.3 525.516 L11614.3 525.516 L11614.3 580.608 L11335.6 580.608 L11335.6 525.516 Z" fill="#000000" fill-rule="evenodd" fill-opacity="1" /><path clip-path="url(#clip6500)" d="M 0 0 M11833.4 312.6 Q11789.3 312.6 11763.4 342.739 Q11737.7 372.878 11737.7 425.377 Q11737.7 477.553 11763.4 508.016 Q11789.3 538.155 11833.4 538.155 Q11877.4 538.155 11903 508.016 Q11929 477.553 11929 425.377 Q11929 372.878 11903 342.739 Q11877.4 312.6 11833.4 312.6 M11963.3 107.462 L11963.3 167.092 Q11938.7 155.425 11913.4 149.268 Q11888.4 143.11 11863.8 143.11 Q11799 143.11 11764.6 186.86 Q11730.6 230.61 11725.8 319.082 Q11744.9 290.887 11773.7 275.98 Q11802.6 260.749 11837.2 260.749 Q11910.2 260.749 11952.3 305.147 Q11994.7 349.22 11994.7 425.377 Q11994.7 499.914 11950.7 544.96 Q11906.6 590.006 11833.4 590.006 Q11749.4 590.006 11705 525.84 Q11660.6 461.349 11660.6 339.174 Q11660.6 224.453 11715.1 156.397 Q11769.5 88.018 11861.2 88.018 Q11885.9 88.018 11910.8 92.8791 Q11936.1 97.7402 11963.3 107.462 Z" fill="#000000" fill-rule="evenodd" fill-opacity="1" /><path clip-path="url(#clip6500)" d="M 0 0 M12072.5 237.415 L12140.9 237.415 L12140.9 319.73 L12072.5 319.73 L12072.5 237.415 M12072.5 498.294 L12140.9 498.294 L12140.9 554.034 L12087.7 657.737 L12045.9 657.737 L12072.5 554.034 L12072.5 498.294 Z" fill="#000000" fill-rule="evenodd" fill-opacity="1" /><path clip-path="url(#clip6500)" d="M 0 0 M12417 96.768 L12482.5 96.768 L12482.5 546.904 Q12482.5 634.404 12449.1 673.941 Q12416 713.478 12342.5 713.478 L12317.5 713.478 L12317.5 658.385 L12337.9 658.385 Q12381.4 658.385 12399.2 634.08 Q12417 609.775 12417 546.904 L12417 96.768 Z" fill="#000000" fill-rule="evenodd" fill-opacity="1" /><path clip-path="url(#clip6500)" d="M 0 0 M12820.8 690.793 L12820.8 737.135 L12476 737.135 L12476 690.793 L12820.8 690.793 Z" fill="#000000" fill-rule="evenodd" fill-opacity="1" /><path clip-path="url(#clip6500)" d="M 0 0 M12903.1 525.516 L13010.1 525.516 L13010.1 156.397 L12893.7 179.731 L12893.7 120.101 L13009.4 96.768 L13074.9 96.768 L13074.9 525.516 L13181.8 525.516 L13181.8 580.608 L12903.1 580.608 L12903.1 525.516 Z" fill="#000000" fill-rule="evenodd" fill-opacity="1" /><path clip-path="url(#clip6500)" d="M 0 0 M13463.1 279.221 L13878.6 279.221 L13878.6 333.665 L13463.1 333.665 L13463.1 279.221 M13463.1 411.442 L13878.6 411.442 L13878.6 466.535 L13463.1 466.535 L13463.1 411.442 Z" fill="#000000" fill-rule="evenodd" fill-opacity="1" /><path clip-path="url(#clip6500)" d="M 0 0 M14300.5 139.87 Q14250 139.87 14224.4 189.777 Q14199.1 239.36 14199.1 339.174 Q14199.1 438.664 14224.4 488.571 Q14250 538.155 14300.5 538.155 Q14351.4 538.155 14376.7 488.571 Q14402.3 438.664 14402.3 339.174 Q14402.3 239.36 14376.7 189.777 Q14351.4 139.87 14300.5 139.87 M14300.5 88.018 Q14381.9 88.018 14424.6 152.508 Q14467.7 216.675 14467.7 339.174 Q14467.7 461.349 14424.6 525.84 Q14381.9 590.006 14300.5 590.006 Q14219.2 590.006 14176.1 525.84 Q14133.3 461.349 14133.3 339.174 Q14133.3 216.675 14176.1 152.508 Q14219.2 88.018 14300.5 88.018 Z" fill="#000000" fill-rule="evenodd" fill-opacity="1" /><path clip-path="url(#clip6500)" d="M 0 0 M14538.7 498.294 L14607.1 498.294 L14607.1 580.608 L14538.7 580.608 L14538.7 498.294 Z" fill="#000000" fill-rule="evenodd" fill-opacity="1" /><path clip-path="url(#clip6500)" d="M 0 0 M14661.5 96.768 L14972.6 96.768 L14972.6 124.638 L14797 580.608 L14728.6 580.608 L14893.9 151.86 L14661.5 151.86 L14661.5 96.768 Z" fill="#000000" fill-rule="evenodd" fill-opacity="1" /><path clip-path="url(#clip6500)" d="M 0 0 M15044.3 96.768 L15301.2 96.768 L15301.2 151.86 L15104.2 151.86 L15104.2 270.471 Q15118.5 265.61 15132.7 263.341 Q15147 260.749 15161.2 260.749 Q15242.3 260.749 15289.6 305.147 Q15336.9 349.544 15336.9 425.377 Q15336.9 503.479 15288.3 546.904 Q15239.7 590.006 15151.2 590.006 Q15120.7 590.006 15089 584.821 Q15057.5 579.636 15023.8 569.265 L15023.8 503.479 Q15053 519.358 15084.1 527.136 Q15115.2 534.914 15149.9 534.914 Q15206 534.914 15238.7 505.423 Q15271.4 475.933 15271.4 425.377 Q15271.4 374.822 15238.7 345.331 Q15206 315.841 15149.9 315.841 Q15123.7 315.841 15097.4 321.674 Q15071.5 327.508 15044.3 339.822 L15044.3 96.768 Z" fill="#000000" fill-rule="evenodd" fill-opacity="1" /><path clip-path="url(#clip6500)" d="M 0 0 M10314 12068.2 L10635.6 12068.2 L10635.6 12111.5 L10500.7 12111.5 L10500.7 12448.4 L10449 12448.4 L10449 12111.5 L10314 12111.5 L10314 12068.2 Z" fill="#000000" fill-rule="evenodd" fill-opacity="1" /><path clip-path="url(#clip6500)" d="M 0 0 M522.483 7641.94 L661.765 7641.94 L661.765 7559.44 Q661.765 7517.93 644.705 7498.07 Q627.39 7477.96 591.997 7477.96 Q556.349 7477.96 539.543 7498.07 Q522.483 7517.93 522.483 7559.44 L522.483 7641.94 M366.142 7641.94 L480.724 7641.94 L480.724 7565.8 Q480.724 7528.12 466.72 7509.78 Q452.461 7491.2 423.433 7491.2 Q394.66 7491.2 380.401 7509.78 Q366.142 7528.12 366.142 7565.8 L366.142 7641.94 M323.873 7693.37 L323.873 7561.98 Q323.873 7503.16 348.318 7471.33 Q372.762 7439.51 417.831 7439.51 Q452.715 7439.51 473.34 7455.8 Q493.965 7472.1 499.058 7503.67 Q507.206 7465.73 533.178 7444.85 Q558.895 7423.72 597.599 7423.72 Q648.524 7423.72 676.279 7458.35 Q704.033 7492.98 704.033 7556.89 L704.033 7693.37 L323.873 7693.37 Z" fill="#000000" fill-rule="evenodd" fill-opacity="1" /><path clip-path="url(#clip6500)" d="M 0 0 M418.85 7374.58 L418.85 7327.72 L704.033 7327.72 L704.033 7374.58 L418.85 7374.58 M307.832 7374.58 L307.832 7327.72 L367.16 7327.72 L367.16 7374.58 L307.832 7374.58 Z" fill="#000000" fill-rule="evenodd" fill-opacity="1" /><path clip-path="url(#clip6500)" d="M 0 0 M531.905 7041.52 L704.033 7041.52 L704.033 7088.37 L533.432 7088.37 Q492.946 7088.37 472.831 7104.16 Q452.715 7119.95 452.715 7151.52 Q452.715 7189.46 476.905 7211.36 Q501.095 7233.26 542.854 7233.26 L704.033 7233.26 L704.033 7280.36 L418.85 7280.36 L418.85 7233.26 L463.155 7233.26 Q437.437 7216.45 424.706 7193.79 Q411.975 7170.87 411.975 7141.08 Q411.975 7091.94 442.53 7066.73 Q472.831 7041.52 531.905 7041.52 Z" fill="#000000" fill-rule="evenodd" fill-opacity="1" /><path clip-path="url(#clip6500)" d="M 0 0 M462.136 6804.72 L307.832 6804.72 L307.832 6757.87 L704.033 6757.87 L704.033 6804.72 L661.256 6804.72 Q686.719 6819.49 699.195 6842.15 Q711.417 6864.56 711.417 6896.13 Q711.417 6947.82 670.168 6980.41 Q628.918 7012.75 561.696 7012.75 Q494.474 7012.75 453.224 6980.41 Q411.975 6947.82 411.975 6896.13 Q411.975 6864.56 424.451 6842.15 Q436.674 6819.49 462.136 6804.72 M561.696 6964.37 Q613.386 6964.37 642.922 6943.24 Q672.205 6921.85 672.205 6884.67 Q672.205 6847.5 642.922 6826.11 Q613.386 6804.72 561.696 6804.72 Q510.007 6804.72 480.724 6826.11 Q451.187 6847.5 451.187 6884.67 Q451.187 6921.85 480.724 6943.24 Q510.007 6964.37 561.696 6964.37 Z" fill="#000000" fill-rule="evenodd" fill-opacity="1" /><path clip-path="url(#clip6500)" d="M 0 0 M549.729 6464.79 L572.645 6464.79 L572.645 6680.2 Q621.024 6677.15 646.487 6651.18 Q671.695 6624.95 671.695 6578.35 Q671.695 6551.36 665.075 6526.15 Q658.455 6500.69 645.214 6475.74 L689.519 6475.74 Q700.214 6500.95 705.816 6527.43 Q711.417 6553.91 711.417 6581.15 Q711.417 6649.39 671.695 6689.37 Q631.973 6729.09 564.242 6729.09 Q494.22 6729.09 453.224 6691.41 Q411.975 6653.47 411.975 6589.3 Q411.975 6531.76 449.15 6498.4 Q486.071 6464.79 549.729 6464.79 M535.979 6511.64 Q497.53 6512.15 474.613 6533.28 Q451.697 6554.16 451.697 6588.79 Q451.697 6628.01 473.849 6651.69 Q496.002 6675.11 536.233 6678.68 L535.979 6511.64 Z" fill="#000000" fill-rule="evenodd" fill-opacity="1" /><path clip-path="url(#clip6500)" d="M 0 0 M462.646 6250.39 Q458.062 6258.29 456.025 6267.71 Q453.734 6276.87 453.734 6288.08 Q453.734 6327.8 479.706 6349.19 Q505.423 6370.32 553.803 6370.32 L704.033 6370.32 L704.033 6417.43 L418.85 6417.43 L418.85 6370.32 L463.155 6370.32 Q437.183 6355.55 424.706 6331.87 Q411.975 6308.19 411.975 6274.33 Q411.975 6269.49 412.739 6263.63 Q413.248 6257.78 414.521 6250.65 L462.646 6250.39 Z" fill="#000000" fill-rule="evenodd" fill-opacity="1" /><path clip-path="url(#clip6500)" d="M 0 0 M323.873 6156.94 L465.192 6156.94 L465.192 6200.23 L323.873 6200.23 L323.873 6156.94 Z" fill="#000000" fill-rule="evenodd" fill-opacity="1" /><path clip-path="url(#clip6500)" d="M 0 0 M427.252 5926 L471.558 5926 Q461.373 5945.86 456.28 5967.25 Q451.187 5988.63 451.187 6011.55 Q451.187 6046.44 461.882 6064 Q472.576 6081.32 493.965 6081.32 Q510.261 6081.32 519.682 6068.84 Q528.849 6056.37 537.252 6018.68 L540.817 6002.64 Q551.511 5952.73 571.117 5931.85 Q590.469 5910.72 625.353 5910.72 Q665.075 5910.72 688.246 5942.29 Q711.417 5973.61 711.417 6028.61 Q711.417 6051.53 706.834 6076.48 Q702.505 6101.18 693.594 6128.68 L645.214 6128.68 Q658.709 6102.71 665.584 6077.5 Q672.205 6052.29 672.205 6027.59 Q672.205 5994.49 661.001 5976.67 Q649.543 5958.84 628.918 5958.84 Q609.821 5958.84 599.636 5971.83 Q589.451 5984.56 580.029 6028.1 L576.21 6044.4 Q567.043 6087.94 548.201 6107.29 Q529.104 6126.64 496.002 6126.64 Q455.771 6126.64 433.873 6098.12 Q411.975 6069.61 411.975 6017.15 Q411.975 5991.18 415.794 5968.26 Q419.613 5945.35 427.252 5926 Z" fill="#000000" fill-rule="evenodd" fill-opacity="1" /><path clip-path="url(#clip6500)" d="M 0 0 M462.646 5530.56 Q458.062 5538.45 456.025 5547.87 Q453.734 5557.04 453.734 5568.24 Q453.734 5607.97 479.706 5629.35 Q505.423 5650.49 553.803 5650.49 L704.033 5650.49 L704.033 5697.59 L418.85 5697.59 L418.85 5650.49 L463.155 5650.49 Q437.183 5635.72 424.706 5612.04 Q411.975 5588.36 411.975 5554.49 Q411.975 5549.66 412.739 5543.8 Q413.248 5537.94 414.521 5530.81 L462.646 5530.56 Z" fill="#000000" fill-rule="evenodd" fill-opacity="1" /><path clip-path="url(#clip6500)" d="M 0 0 M560.678 5351.81 Q560.678 5408.59 573.664 5430.49 Q586.65 5452.39 617.969 5452.39 Q642.922 5452.39 657.691 5436.09 Q672.205 5419.54 672.205 5391.28 Q672.205 5352.32 644.705 5328.89 Q616.95 5305.21 571.117 5305.21 L560.678 5305.21 L560.678 5351.81 M541.326 5258.36 L704.033 5258.36 L704.033 5305.21 L660.746 5305.21 Q686.719 5321.25 699.195 5345.19 Q711.417 5369.12 711.417 5403.75 Q711.417 5447.55 686.973 5473.52 Q662.274 5499.24 621.024 5499.24 Q572.9 5499.24 548.455 5467.16 Q524.011 5434.82 524.011 5370.91 L524.011 5305.21 L519.428 5305.21 Q487.09 5305.21 469.521 5326.6 Q451.697 5347.74 451.697 5386.18 Q451.697 5410.63 457.553 5433.8 Q463.41 5456.97 475.122 5478.36 L431.836 5478.36 Q421.905 5452.64 417.067 5428.45 Q411.975 5404.26 411.975 5381.35 Q411.975 5319.47 444.058 5288.92 Q476.141 5258.36 541.326 5258.36 Z" fill="#000000" fill-rule="evenodd" fill-opacity="1" /><path clip-path="url(#clip6500)" d="M 0 0 M337.878 5162.87 L418.85 5162.87 L418.85 5066.37 L455.261 5066.37 L455.261 5162.87 L610.075 5162.87 Q644.96 5162.87 654.89 5153.45 Q664.821 5143.78 664.821 5114.5 L664.821 5066.37 L704.033 5066.37 L704.033 5114.5 Q704.033 5168.73 683.918 5189.36 Q663.547 5209.98 610.075 5209.98 L455.261 5209.98 L455.261 5244.36 L418.85 5244.36 L418.85 5209.98 L337.878 5209.98 L337.878 5162.87 Z" fill="#000000" fill-rule="evenodd" fill-opacity="1" /><path clip-path="url(#clip6500)" d="M 0 0 M418.85 5017.23 L418.85 4970.38 L704.033 4970.38 L704.033 5017.23 L418.85 5017.23 M307.832 5017.23 L307.832 4970.38 L367.16 4970.38 L367.16 5017.23 L307.832 5017.23 Z" fill="#000000" fill-rule="evenodd" fill-opacity="1" /><path clip-path="url(#clip6500)" d="M 0 0 M451.697 4810.72 Q451.697 4848.41 481.234 4870.31 Q510.516 4892.21 561.696 4892.21 Q612.876 4892.21 642.413 4870.56 Q671.695 4848.66 671.695 4810.72 Q671.695 4773.29 642.159 4751.4 Q612.622 4729.5 561.696 4729.5 Q511.025 4729.5 481.488 4751.4 Q451.697 4773.29 451.697 4810.72 M411.975 4810.72 Q411.975 4749.61 451.697 4714.73 Q491.419 4679.85 561.696 4679.85 Q631.719 4679.85 671.695 4714.73 Q711.417 4749.61 711.417 4810.72 Q711.417 4872.09 671.695 4906.97 Q631.719 4941.6 561.696 4941.6 Q491.419 4941.6 451.697 4906.97 Q411.975 4872.09 411.975 4810.72 Z" fill="#000000" fill-rule="evenodd" fill-opacity="1" /><polyline clip-path="url(#clip6502)" style="stroke:#009af9; stroke-width:32; stroke-opacity:1; fill:none" points="
  2600.12,1282.05 4350.05,1457.44 6099.99,1678.79 7849.93,1786.26 9599.87,2121.89 11349.8,2265.11 13099.7,2660.01 14849.7,2901.99 16599.6,3274.59 18349.6,3352.21 
  
  "/>
<polyline clip-path="url(#clip6502)" style="stroke:#e26f46; stroke-width:32; stroke-opacity:1; fill:none" points="
  2600.12,1712.56 4350.05,1974.21 6099.99,2219.66 7849.93,2766.2 9599.87,2874.96 11349.8,3567.16 13099.7,3958.71 14849.7,4803.8 16599.6,5229.25 18349.6,5764.18 
  
  "/>
<polyline clip-path="url(#clip6502)" style="stroke:#3da44d; stroke-width:32; stroke-opacity:1; fill:none" points="
  2600.12,1875.68 4350.05,2362.11 6099.99,2815.48 7849.93,3005.15 9599.87,3735.2 11349.8,4379.15 13099.7,5328.78 14849.7,6208.96 16599.6,7449 18349.6,8227.76 
  
  "/>
<polyline clip-path="url(#clip6502)" style="stroke:#c271d2; stroke-width:32; stroke-opacity:1; fill:none" points="
  2600.12,1712.12 4350.05,2194.56 6099.99,2837.72 7849.93,3360.6 9599.87,4015.49 11349.8,4773.56 13099.7,6022.49 14849.7,7504.69 16599.6,9293.88 18349.6,11091.2 
  
  "/>
<path clip-path="url(#clip6500)" d="
M2703.63 10233.4 L5736.77 10233.4 L5736.77 7814.24 L2703.63 7814.24  Z
  " fill="#ffffff" fill-rule="evenodd" fill-opacity="1"/>
<polyline clip-path="url(#clip6500)" style="stroke:#000000; stroke-width:32; stroke-opacity:1; fill:none" points="
  2703.63,10233.4 5736.77,10233.4 5736.77,7814.24 2703.63,7814.24 2703.63,10233.4 
  "/>
<polyline clip-path="url(#clip6500)" style="stroke:#009af9; stroke-width:32; stroke-opacity:1; fill:none" points="
  2895.63,8298.08 4047.63,8298.08 
  "/>
<path clip-path="url(#clip6500)" d="M 0 0 M4239.63 8159.84 L4277.04 8159.84 L4277.04 8404.84 L4411.67 8404.84 L4411.67 8436.32 L4239.63 8436.32 L4239.63 8159.84 Z" fill="#000000" fill-rule="evenodd" fill-opacity="1" /><path clip-path="url(#clip6500)" d="M 0 0 M4572.41 8264.1 L4809.81 8264.1 L4809.81 8295.21 L4572.41 8295.21 L4572.41 8264.1 M4572.41 8339.65 L4809.81 8339.65 L4809.81 8371.13 L4572.41 8371.13 L4572.41 8339.65 Z" fill="#000000" fill-rule="evenodd" fill-opacity="1" /><path clip-path="url(#clip6500)" d="M 0 0 M5055.55 8283.17 Q5030.37 8283.17 5015.55 8300.39 Q5000.92 8317.62 5000.92 8347.62 Q5000.92 8377.43 5015.55 8394.84 Q5030.37 8412.06 5055.55 8412.06 Q5080.74 8412.06 5095.37 8394.84 Q5110.18 8377.43 5110.18 8347.62 Q5110.18 8317.62 5095.37 8300.39 Q5080.74 8283.17 5055.55 8283.17 M5129.81 8165.95 L5129.81 8200.02 Q5115.74 8193.36 5101.29 8189.84 Q5087.03 8186.32 5072.96 8186.32 Q5035.92 8186.32 5016.29 8211.32 Q4996.85 8236.32 4994.07 8286.88 Q5005 8270.76 5021.48 8262.25 Q5037.96 8253.54 5057.78 8253.54 Q5099.44 8253.54 5123.52 8278.91 Q5147.78 8304.1 5147.78 8347.62 Q5147.78 8390.21 5122.59 8415.95 Q5097.41 8441.69 5055.55 8441.69 Q5007.59 8441.69 4982.22 8405.02 Q4956.85 8368.17 4956.85 8298.36 Q4956.85 8232.8 4987.96 8193.91 Q5019.07 8154.84 5071.48 8154.84 Q5085.55 8154.84 5099.81 8157.62 Q5114.26 8160.39 5129.81 8165.95 Z" fill="#000000" fill-rule="evenodd" fill-opacity="1" /><polyline clip-path="url(#clip6500)" style="stroke:#e26f46; stroke-width:32; stroke-opacity:1; fill:none" points="
  2895.63,8781.92 4047.63,8781.92 
  "/>
<path clip-path="url(#clip6500)" d="M 0 0 M4239.63 8643.68 L4277.04 8643.68 L4277.04 8888.68 L4411.67 8888.68 L4411.67 8920.16 L4239.63 8920.16 L4239.63 8643.68 Z" fill="#000000" fill-rule="evenodd" fill-opacity="1" /><path clip-path="url(#clip6500)" d="M 0 0 M4572.41 8747.94 L4809.81 8747.94 L4809.81 8779.05 L4572.41 8779.05 L4572.41 8747.94 M4572.41 8823.49 L4809.81 8823.49 L4809.81 8854.97 L4572.41 8854.97 L4572.41 8823.49 Z" fill="#000000" fill-rule="evenodd" fill-opacity="1" /><path clip-path="url(#clip6500)" d="M 0 0 M5050.92 8788.86 Q5024.26 8788.86 5008.89 8803.12 Q4993.7 8817.38 4993.7 8842.38 Q4993.7 8867.38 5008.89 8881.64 Q5024.26 8895.9 5050.92 8895.9 Q5077.59 8895.9 5092.96 8881.64 Q5108.33 8867.2 5108.33 8842.38 Q5108.33 8817.38 5092.96 8803.12 Q5077.78 8788.86 5050.92 8788.86 M5013.52 8772.94 Q4989.44 8767.01 4975.92 8750.53 Q4962.59 8734.05 4962.59 8710.35 Q4962.59 8677.2 4986.11 8657.94 Q5009.81 8638.68 5050.92 8638.68 Q5092.22 8638.68 5115.74 8657.94 Q5139.26 8677.2 5139.26 8710.35 Q5139.26 8734.05 5125.74 8750.53 Q5112.4 8767.01 5088.52 8772.94 Q5115.55 8779.23 5130.55 8797.57 Q5145.74 8815.9 5145.74 8842.38 Q5145.74 8882.57 5121.11 8904.05 Q5096.66 8925.53 5050.92 8925.53 Q5005.18 8925.53 4980.55 8904.05 Q4956.11 8882.57 4956.11 8842.38 Q4956.11 8815.9 4971.29 8797.57 Q4986.48 8779.23 5013.52 8772.94 M4999.81 8713.86 Q4999.81 8735.34 5013.15 8747.38 Q5026.66 8759.42 5050.92 8759.42 Q5075 8759.42 5088.52 8747.38 Q5102.22 8735.34 5102.22 8713.86 Q5102.22 8692.38 5088.52 8680.35 Q5075 8668.31 5050.92 8668.31 Q5026.66 8668.31 5013.15 8680.35 Q4999.81 8692.38 4999.81 8713.86 Z" fill="#000000" fill-rule="evenodd" fill-opacity="1" /><polyline clip-path="url(#clip6500)" style="stroke:#3da44d; stroke-width:32; stroke-opacity:1; fill:none" points="
  2895.63,9265.76 4047.63,9265.76 
  "/>
<path clip-path="url(#clip6500)" d="M 0 0 M4239.63 9127.52 L4277.04 9127.52 L4277.04 9372.52 L4411.67 9372.52 L4411.67 9404 L4239.63 9404 L4239.63 9127.52 Z" fill="#000000" fill-rule="evenodd" fill-opacity="1" /><path clip-path="url(#clip6500)" d="M 0 0 M4572.41 9231.78 L4809.81 9231.78 L4809.81 9262.89 L4572.41 9262.89 L4572.41 9231.78 M4572.41 9307.33 L4809.81 9307.33 L4809.81 9338.81 L4572.41 9338.81 L4572.41 9307.33 Z" fill="#000000" fill-rule="evenodd" fill-opacity="1" /><path clip-path="url(#clip6500)" d="M 0 0 M4977.41 9372.52 L5038.52 9372.52 L5038.52 9161.59 L4972.04 9174.93 L4972.04 9140.85 L5038.15 9127.52 L5075.55 9127.52 L5075.55 9372.52 L5136.66 9372.52 L5136.66 9404 L4977.41 9404 L4977.41 9372.52 Z" fill="#000000" fill-rule="evenodd" fill-opacity="1" /><path clip-path="url(#clip6500)" d="M 0 0 M5257.22 9152.15 Q5228.33 9152.15 5213.7 9180.67 Q5199.26 9209 5199.26 9266.04 Q5199.26 9322.89 5213.7 9351.41 Q5228.33 9379.74 5257.22 9379.74 Q5286.29 9379.74 5300.74 9351.41 Q5315.37 9322.89 5315.37 9266.04 Q5315.37 9209 5300.74 9180.67 Q5286.29 9152.15 5257.22 9152.15 M5257.22 9122.52 Q5303.7 9122.52 5328.14 9159.37 Q5352.77 9196.04 5352.77 9266.04 Q5352.77 9335.85 5328.14 9372.7 Q5303.7 9409.37 5257.22 9409.37 Q5210.74 9409.37 5186.11 9372.7 Q5161.66 9335.85 5161.66 9266.04 Q5161.66 9196.04 5186.11 9159.37 Q5210.74 9122.52 5257.22 9122.52 Z" fill="#000000" fill-rule="evenodd" fill-opacity="1" /><polyline clip-path="url(#clip6500)" style="stroke:#c271d2; stroke-width:32; stroke-opacity:1; fill:none" points="
  2895.63,9749.6 4047.63,9749.6 
  "/>
<path clip-path="url(#clip6500)" d="M 0 0 M4239.63 9611.36 L4277.04 9611.36 L4277.04 9856.36 L4411.67 9856.36 L4411.67 9887.84 L4239.63 9887.84 L4239.63 9611.36 Z" fill="#000000" fill-rule="evenodd" fill-opacity="1" /><path clip-path="url(#clip6500)" d="M 0 0 M4572.41 9715.62 L4809.81 9715.62 L4809.81 9746.73 L4572.41 9746.73 L4572.41 9715.62 M4572.41 9791.17 L4809.81 9791.17 L4809.81 9822.65 L4572.41 9822.65 L4572.41 9791.17 Z" fill="#000000" fill-rule="evenodd" fill-opacity="1" /><path clip-path="url(#clip6500)" d="M 0 0 M4977.41 9856.36 L5038.52 9856.36 L5038.52 9645.43 L4972.04 9658.77 L4972.04 9624.69 L5038.15 9611.36 L5075.55 9611.36 L5075.55 9856.36 L5136.66 9856.36 L5136.66 9887.84 L4977.41 9887.84 L4977.41 9856.36 Z" fill="#000000" fill-rule="evenodd" fill-opacity="1" /><path clip-path="url(#clip6500)" d="M 0 0 M5209.44 9856.36 L5340 9856.36 L5340 9887.84 L5164.44 9887.84 L5164.44 9856.36 Q5185.74 9834.32 5222.4 9797.28 Q5259.26 9760.06 5268.7 9749.32 Q5286.66 9729.14 5293.7 9715.25 Q5300.92 9701.17 5300.92 9687.65 Q5300.92 9665.62 5285.37 9651.73 Q5270 9637.84 5245.18 9637.84 Q5227.59 9637.84 5207.96 9643.95 Q5188.52 9650.06 5166.29 9662.47 L5166.29 9624.69 Q5188.89 9615.62 5208.52 9610.99 Q5228.15 9606.36 5244.44 9606.36 Q5287.4 9606.36 5312.96 9627.84 Q5338.51 9649.32 5338.51 9685.25 Q5338.51 9702.28 5332.03 9717.65 Q5325.74 9732.84 5308.89 9753.58 Q5304.26 9758.95 5279.44 9784.69 Q5254.63 9810.25 5209.44 9856.36 Z" fill="#000000" fill-rule="evenodd" fill-opacity="1" /></svg>
