<?xml version="1.0" encoding="utf-8"?>
<svg xmlns="http://www.w3.org/2000/svg" xmlns:xlink="http://www.w3.org/1999/xlink" width="4800" height="3200" viewBox="0 0 19200 12800">
<defs>
  <clipPath id="clip3800">
    <rect x="0" y="0" width="19200" height="12800"/>
  </clipPath>
</defs>
<path clip-path="url(#clip3800)" d="
M0 12800 L19200 12800 L19200 0 L0 0  Z
  " fill="#ffffff" fill-rule="evenodd" fill-opacity="1"/>
<defs>
  <clipPath id="clip3801">
    <rect x="3840" y="0" width="13441" height="12800"/>
  </clipPath>
</defs>
<path clip-path="url(#clip3800)" d="
M1910.23 11385.4 L18822 11385.4 L18822 987.777 L1910.23 987.777  Z
  " fill="#ffffff" fill-rule="evenodd" fill-opacity="1"/>
<defs>
  <clipPath id="clip3802">
    <rect x="1910" y="987" width="16913" height="10399"/>
  </clipPath>
</defs>
<polyline clip-path="url(#clip3802)" style="stroke:#000000; stroke-width:16; stroke-opacity:0.1; fill:none" points="
  2388.86,11385.4 2388.86,987.777 
  "/>
<polyline clip-path="url(#clip3802)" style="stroke:#000000; stroke-width:16; stroke-opacity:0.1; fill:none" points="
  6014.9,11385.4 6014.9,987.777 
  "/>
<polyline clip-path="url(#clip3802)" style="stroke:#000000; stroke-width:16; stroke-opacity:0.1; fill:none" points="
  9640.93,11385.4 9640.93,987.777 
  "/>
<polyline clip-path="url(#clip3802)" style="stroke:#000000; stroke-width:16; stroke-opacity:0.1; fill:none" points="
  13267,11385.4 13267,987.777 
  "/>
<polyline clip-path="url(#clip3802)" style="stroke:#000000; stroke-width:16; stroke-opacity:0.1; fill:none" points="
  16893,11385.4 16893,987.777 
  "/>
<polyline clip-path="url(#clip3802)" style="stroke:#000000; stroke-width:16; stroke-opacity:0.1; fill:none" points="
  1910.23,9713.79 18822,9713.79 
  "/>
<polyline clip-path="url(#clip3802)" style="stroke:#000000; stroke-width:16; stroke-opacity:0.1; fill:none" points="
  1910.23,7170.12 18822,7170.12 
  "/>
<polyline clip-path="url(#clip3802)" style="stroke:#000000; stroke-width:16; stroke-opacity:0.1; fill:none" points="
  1910.23,4626.45 18822,4626.45 
  "/>
<polyline clip-path="url(#clip3802)" style="stroke:#000000; stroke-width:16; stroke-opacity:0.1; fill:none" points="
  1910.23,2082.79 18822,2082.79 
  "/>
<polyline clip-path="url(#clip3800)" style="stroke:#000000; stroke-width:32; stroke-opacity:1; fill:none" points="
  1910.23,11385.4 18822,11385.4 
  "/>
<polyline clip-path="url(#clip3800)" style="stroke:#000000; stroke-width:32; stroke-opacity:1; fill:none" points="
  1910.23,11385.4 1910.23,987.777 
  "/>
<polyline clip-path="url(#clip3800)" style="stroke:#000000; stroke-width:32; stroke-opacity:1; fill:none" points="
  2388.86,11385.4 2388.86,11260.7 
  "/>
<polyline clip-path="url(#clip3800)" style="stroke:#000000; stroke-width:32; stroke-opacity:1; fill:none" points="
  6014.9,11385.4 6014.9,11260.7 
  "/>
<polyline clip-path="url(#clip3800)" style="stroke:#000000; stroke-width:32; stroke-opacity:1; fill:none" points="
  9640.93,11385.4 9640.93,11260.7 
  "/>
<polyline clip-path="url(#clip3800)" style="stroke:#000000; stroke-width:32; stroke-opacity:1; fill:none" points="
  13267,11385.4 13267,11260.7 
  "/>
<polyline clip-path="url(#clip3800)" style="stroke:#000000; stroke-width:32; stroke-opacity:1; fill:none" points="
  16893,11385.4 16893,11260.7 
  "/>
<polyline clip-path="url(#clip3800)" style="stroke:#000000; stroke-width:32; stroke-opacity:1; fill:none" points="
  1910.23,9713.79 2113.17,9713.79 
  "/>
<polyline clip-path="url(#clip3800)" style="stroke:#000000; stroke-width:32; stroke-opacity:1; fill:none" points="
  1910.23,7170.12 2113.17,7170.12 
  "/>
<polyline clip-path="url(#clip3800)" style="stroke:#000000; stroke-width:32; stroke-opacity:1; fill:none" points="
  1910.23,4626.45 2113.17,4626.45 
  "/>
<polyline clip-path="url(#clip3800)" style="stroke:#000000; stroke-width:32; stroke-opacity:1; fill:none" points="
  1910.23,2082.79 2113.17,2082.79 
  "/>
<path clip-path="url(#clip3800)" d="M 0 0 M2136.27 11561.4 Q2107.38 11561.4 2092.75 11589.9 Q2078.31 11618.2 2078.31 11675.3 Q2078.31 11732.1 2092.75 11760.6 Q2107.38 11789 2136.27 11789 Q2165.34 11789 2179.79 11760.6 Q2194.42 11732.1 2194.42 11675.3 Q2194.42 11618.2 2179.79 11589.9 Q2165.34 11561.4 2136.27 11561.4 M2136.27 11531.7 Q2182.75 11531.7 2207.2 11568.6 Q2231.83 11605.3 2231.83 11675.3 Q2231.83 11745.1 2207.2 11781.9 Q2182.75 11818.6 2136.27 11818.6 Q2089.79 11818.6 2065.16 11781.9 Q2040.72 11745.1 2040.72 11675.3 Q2040.72 11605.3 2065.16 11568.6 Q2089.79 11531.7 2136.27 11531.7 Z" fill="#000000" fill-rule="evenodd" fill-opacity="1" /><path clip-path="url(#clip3800)" d="M 0 0 M2272.38 11766.2 L2311.46 11766.2 L2311.46 11813.2 L2272.38 11813.2 L2272.38 11766.2 Z" fill="#000000" fill-rule="evenodd" fill-opacity="1" /><path clip-path="url(#clip3800)" d="M 0 0 M2352.38 11536.7 L2499.23 11536.7 L2499.23 11568.2 L2386.64 11568.2 L2386.64 11636 Q2394.79 11633.2 2402.94 11631.9 Q2411.08 11630.4 2419.23 11630.4 Q2465.53 11630.4 2492.57 11655.8 Q2519.6 11681.2 2519.6 11724.5 Q2519.6 11769.1 2491.82 11794 Q2464.05 11818.6 2413.49 11818.6 Q2396.08 11818.6 2377.94 11815.6 Q2359.97 11812.7 2340.71 11806.7 L2340.71 11769.1 Q2357.38 11778.2 2375.16 11782.7 Q2392.94 11787.1 2412.75 11787.1 Q2444.79 11787.1 2463.49 11770.3 Q2482.19 11753.4 2482.19 11724.5 Q2482.19 11695.6 2463.49 11678.8 Q2444.79 11661.9 2412.75 11661.9 Q2397.75 11661.9 2382.75 11665.3 Q2367.94 11668.6 2352.38 11675.6 L2352.38 11536.7 Z" fill="#000000" fill-rule="evenodd" fill-opacity="1" /><path clip-path="url(#clip3800)" d="M 0 0 M2644.79 11660.1 Q2619.6 11660.1 2604.79 11677.3 Q2590.16 11694.5 2590.16 11724.5 Q2590.16 11754.3 2604.79 11771.7 Q2619.6 11789 2644.79 11789 Q2669.97 11789 2684.6 11771.7 Q2699.42 11754.3 2699.42 11724.5 Q2699.42 11694.5 2684.6 11677.3 Q2669.97 11660.1 2644.79 11660.1 M2719.05 11542.8 L2719.05 11576.9 Q2704.97 11570.3 2690.53 11566.7 Q2676.27 11563.2 2662.19 11563.2 Q2625.16 11563.2 2605.53 11588.2 Q2586.08 11613.2 2583.31 11663.8 Q2594.23 11647.7 2610.71 11639.1 Q2627.19 11630.4 2647.01 11630.4 Q2688.68 11630.4 2712.75 11655.8 Q2737.01 11681 2737.01 11724.5 Q2737.01 11767.1 2711.82 11792.8 Q2686.64 11818.6 2644.79 11818.6 Q2596.82 11818.6 2571.45 11781.9 Q2546.08 11745.1 2546.08 11675.3 Q2546.08 11609.7 2577.19 11570.8 Q2608.31 11531.7 2660.71 11531.7 Q2674.79 11531.7 2689.05 11534.5 Q2703.49 11537.3 2719.05 11542.8 Z" fill="#000000" fill-rule="evenodd" fill-opacity="1" /><path clip-path="url(#clip3800)" d="M 0 0 M5763.32 11561.4 Q5734.43 11561.4 5719.8 11589.9 Q5705.36 11618.2 5705.36 11675.3 Q5705.36 11732.1 5719.8 11760.6 Q5734.43 11789 5763.32 11789 Q5792.4 11789 5806.84 11760.6 Q5821.47 11732.1 5821.47 11675.3 Q5821.47 11618.2 5806.84 11589.9 Q5792.4 11561.4 5763.32 11561.4 M5763.32 11531.7 Q5809.8 11531.7 5834.25 11568.6 Q5858.88 11605.3 5858.88 11675.3 Q5858.88 11745.1 5834.25 11781.9 Q5809.8 11818.6 5763.32 11818.6 Q5716.84 11818.6 5692.21 11781.9 Q5667.77 11745.1 5667.77 11675.3 Q5667.77 11605.3 5692.21 11568.6 Q5716.84 11531.7 5763.32 11531.7 Z" fill="#000000" fill-rule="evenodd" fill-opacity="1" /><path clip-path="url(#clip3800)" d="M 0 0 M5899.43 11766.2 L5938.51 11766.2 L5938.51 11813.2 L5899.43 11813.2 L5899.43 11766.2 Z" fill="#000000" fill-rule="evenodd" fill-opacity="1" /><path clip-path="url(#clip3800)" d="M 0 0 M5979.43 11536.7 L6126.28 11536.7 L6126.28 11568.2 L6013.69 11568.2 L6013.69 11636 Q6021.84 11633.2 6029.99 11631.9 Q6038.14 11630.4 6046.28 11630.4 Q6092.58 11630.4 6119.62 11655.8 Q6146.65 11681.2 6146.65 11724.5 Q6146.65 11769.1 6118.88 11794 Q6091.1 11818.6 6040.54 11818.6 Q6023.14 11818.6 6004.99 11815.6 Q5987.03 11812.7 5967.77 11806.7 L5967.77 11769.1 Q5984.43 11778.2 6002.21 11782.7 Q6019.99 11787.1 6039.8 11787.1 Q6071.84 11787.1 6090.54 11770.3 Q6109.25 11753.4 6109.25 11724.5 Q6109.25 11695.6 6090.54 11678.8 Q6071.84 11661.9 6039.8 11661.9 Q6024.8 11661.9 6009.8 11665.3 Q5994.99 11668.6 5979.43 11675.6 L5979.43 11536.7 Z" fill="#000000" fill-rule="evenodd" fill-opacity="1" /><path clip-path="url(#clip3800)" d="M 0 0 M6267.21 11681.9 Q6240.54 11681.9 6225.17 11696.2 Q6209.99 11710.4 6209.99 11735.4 Q6209.99 11760.4 6225.17 11774.7 Q6240.54 11789 6267.21 11789 Q6293.88 11789 6309.25 11774.7 Q6324.62 11760.3 6324.62 11735.4 Q6324.62 11710.4 6309.25 11696.2 Q6294.06 11681.9 6267.21 11681.9 M6229.8 11666 Q6205.73 11660.1 6192.21 11643.6 Q6178.88 11627.1 6178.88 11603.4 Q6178.88 11570.3 6202.39 11551 Q6226.1 11531.7 6267.21 11531.7 Q6308.51 11531.7 6332.02 11551 Q6355.54 11570.3 6355.54 11603.4 Q6355.54 11627.1 6342.02 11643.6 Q6328.69 11660.1 6304.8 11666 Q6331.84 11672.3 6346.84 11690.6 Q6362.02 11709 6362.02 11735.4 Q6362.02 11775.6 6337.39 11797.1 Q6312.95 11818.6 6267.21 11818.6 Q6221.47 11818.6 6196.84 11797.1 Q6172.4 11775.6 6172.4 11735.4 Q6172.4 11709 6187.58 11690.6 Q6202.77 11672.3 6229.8 11666 M6216.1 11606.9 Q6216.1 11628.4 6229.43 11640.4 Q6242.95 11652.5 6267.21 11652.5 Q6291.28 11652.5 6304.8 11640.4 Q6318.51 11628.4 6318.51 11606.9 Q6318.51 11585.4 6304.8 11573.4 Q6291.28 11561.4 6267.21 11561.4 Q6242.95 11561.4 6229.43 11573.4 Q6216.1 11585.4 6216.1 11606.9 Z" fill="#000000" fill-rule="evenodd" fill-opacity="1" /><path clip-path="url(#clip3800)" d="M 0 0 M9384.36 11561.4 Q9355.47 11561.4 9340.84 11589.9 Q9326.39 11618.2 9326.39 11675.3 Q9326.39 11732.1 9340.84 11760.6 Q9355.47 11789 9384.36 11789 Q9413.43 11789 9427.88 11760.6 Q9442.5 11732.1 9442.5 11675.3 Q9442.5 11618.2 9427.88 11589.9 Q9413.43 11561.4 9384.36 11561.4 M9384.36 11531.7 Q9430.84 11531.7 9455.28 11568.6 Q9479.91 11605.3 9479.91 11675.3 Q9479.91 11745.1 9455.28 11781.9 Q9430.84 11818.6 9384.36 11818.6 Q9337.88 11818.6 9313.25 11781.9 Q9288.8 11745.1 9288.8 11675.3 Q9288.8 11605.3 9313.25 11568.6 Q9337.88 11531.7 9384.36 11531.7 Z" fill="#000000" fill-rule="evenodd" fill-opacity="1" /><path clip-path="url(#clip3800)" d="M 0 0 M9520.47 11766.2 L9559.54 11766.2 L9559.54 11813.2 L9520.47 11813.2 L9520.47 11766.2 Z" fill="#000000" fill-rule="evenodd" fill-opacity="1" /><path clip-path="url(#clip3800)" d="M 0 0 M9684.73 11660.1 Q9659.54 11660.1 9644.73 11677.3 Q9630.1 11694.5 9630.1 11724.5 Q9630.1 11754.3 9644.73 11771.7 Q9659.54 11789 9684.73 11789 Q9709.91 11789 9724.54 11771.7 Q9739.36 11754.3 9739.36 11724.5 Q9739.36 11694.5 9724.54 11677.3 Q9709.91 11660.1 9684.73 11660.1 M9758.98 11542.8 L9758.98 11576.9 Q9744.91 11570.3 9730.47 11566.7 Q9716.21 11563.2 9702.13 11563.2 Q9665.1 11563.2 9645.47 11588.2 Q9626.02 11613.2 9623.24 11663.8 Q9634.17 11647.7 9650.65 11639.1 Q9667.13 11630.4 9686.95 11630.4 Q9728.61 11630.4 9752.69 11655.8 Q9776.95 11681 9776.95 11724.5 Q9776.95 11767.1 9751.76 11792.8 Q9726.58 11818.6 9684.73 11818.6 Q9636.76 11818.6 9611.39 11781.9 Q9586.02 11745.1 9586.02 11675.3 Q9586.02 11609.7 9617.13 11570.8 Q9648.24 11531.7 9700.65 11531.7 Q9714.73 11531.7 9728.98 11534.5 Q9743.43 11537.3 9758.98 11542.8 Z" fill="#000000" fill-rule="evenodd" fill-opacity="1" /><path clip-path="url(#clip3800)" d="M 0 0 M9897.5 11561.4 Q9868.61 11561.4 9853.98 11589.9 Q9839.54 11618.2 9839.54 11675.3 Q9839.54 11732.1 9853.98 11760.6 Q9868.61 11789 9897.5 11789 Q9926.58 11789 9941.02 11760.6 Q9955.65 11732.1 9955.65 11675.3 Q9955.65 11618.2 9941.02 11589.9 Q9926.58 11561.4 9897.5 11561.4 M9897.5 11531.7 Q9943.98 11531.7 9968.43 11568.6 Q9993.06 11605.3 9993.06 11675.3 Q9993.06 11745.1 9968.43 11781.9 Q9943.98 11818.6 9897.5 11818.6 Q9851.02 11818.6 9826.39 11781.9 Q9801.95 11745.1 9801.95 11675.3 Q9801.95 11605.3 9826.39 11568.6 Q9851.02 11531.7 9897.5 11531.7 Z" fill="#000000" fill-rule="evenodd" fill-opacity="1" /><path clip-path="url(#clip3800)" d="M 0 0 M13016.8 11561.4 Q12987.9 11561.4 12973.3 11589.9 Q12958.8 11618.2 12958.8 11675.3 Q12958.8 11732.1 12973.3 11760.6 Q12987.9 11789 13016.8 11789 Q13045.9 11789 13060.3 11760.6 Q13074.9 11732.1 13074.9 11675.3 Q13074.9 11618.2 13060.3 11589.9 Q13045.9 11561.4 13016.8 11561.4 M13016.8 11531.7 Q13063.3 11531.7 13087.7 11568.6 Q13112.3 11605.3 13112.3 11675.3 Q13112.3 11745.1 13087.7 11781.9 Q13063.3 11818.6 13016.8 11818.6 Q12970.3 11818.6 12945.7 11781.9 Q12921.2 11745.1 12921.2 11675.3 Q12921.2 11605.3 12945.7 11568.6 Q12970.3 11531.7 13016.8 11531.7 Z" fill="#000000" fill-rule="evenodd" fill-opacity="1" /><path clip-path="url(#clip3800)" d="M 0 0 M13152.9 11766.2 L13192 11766.2 L13192 11813.2 L13152.9 11813.2 L13152.9 11766.2 Z" fill="#000000" fill-rule="evenodd" fill-opacity="1" /><path clip-path="url(#clip3800)" d="M 0 0 M13317.1 11660.1 Q13292 11660.1 13277.1 11677.3 Q13262.5 11694.5 13262.5 11724.5 Q13262.5 11754.3 13277.1 11771.7 Q13292 11789 13317.1 11789 Q13342.3 11789 13357 11771.7 Q13371.8 11754.3 13371.8 11724.5 Q13371.8 11694.5 13357 11677.3 Q13342.3 11660.1 13317.1 11660.1 M13391.4 11542.8 L13391.4 11576.9 Q13377.3 11570.3 13362.9 11566.7 Q13348.6 11563.2 13334.6 11563.2 Q13297.5 11563.2 13277.9 11588.2 Q13258.4 11613.2 13255.7 11663.8 Q13266.6 11647.7 13283.1 11639.1 Q13299.6 11630.4 13319.4 11630.4 Q13361 11630.4 13385.1 11655.8 Q13409.4 11681 13409.4 11724.5 Q13409.4 11767.1 13384.2 11792.8 Q13359 11818.6 13317.1 11818.6 Q13269.2 11818.6 13243.8 11781.9 Q13218.4 11745.1 13218.4 11675.3 Q13218.4 11609.7 13249.6 11570.8 Q13280.7 11531.7 13333.1 11531.7 Q13347.1 11531.7 13361.4 11534.5 Q13375.9 11537.3 13391.4 11542.8 Z" fill="#000000" fill-rule="evenodd" fill-opacity="1" /><path clip-path="url(#clip3800)" d="M 0 0 M13482.1 11781.7 L13612.7 11781.7 L13612.7 11813.2 L13437.1 11813.2 L13437.1 11781.7 Q13458.4 11759.7 13495.1 11722.7 Q13532 11685.4 13541.4 11674.7 Q13559.4 11654.5 13566.4 11640.6 Q13573.6 11626.5 13573.6 11613 Q13573.6 11591 13558.1 11577.1 Q13542.7 11563.2 13517.9 11563.2 Q13500.3 11563.2 13480.7 11569.3 Q13461.2 11575.4 13439 11587.8 L13439 11550.1 Q13461.6 11541 13481.2 11536.4 Q13500.9 11531.7 13517.1 11531.7 Q13560.1 11531.7 13585.7 11553.2 Q13611.2 11574.7 13611.2 11610.6 Q13611.2 11627.7 13604.7 11643 Q13598.4 11658.2 13581.6 11679 Q13577 11684.3 13552.1 11710.1 Q13527.3 11735.6 13482.1 11781.7 Z" fill="#000000" fill-rule="evenodd" fill-opacity="1" /><path clip-path="url(#clip3800)" d="M 0 0 M16634.5 11561.4 Q16605.6 11561.4 16591 11589.9 Q16576.5 11618.2 16576.5 11675.3 Q16576.5 11732.1 16591 11760.6 Q16605.6 11789 16634.5 11789 Q16663.6 11789 16678 11760.6 Q16692.6 11732.1 16692.6 11675.3 Q16692.6 11618.2 16678 11589.9 Q16663.6 11561.4 16634.5 11561.4 M16634.5 11531.7 Q16681 11531.7 16705.4 11568.6 Q16730 11605.3 16730 11675.3 Q16730 11745.1 16705.4 11781.9 Q16681 11818.6 16634.5 11818.6 Q16588 11818.6 16563.4 11781.9 Q16538.9 11745.1 16538.9 11675.3 Q16538.9 11605.3 16563.4 11568.6 Q16588 11531.7 16634.5 11531.7 Z" fill="#000000" fill-rule="evenodd" fill-opacity="1" /><path clip-path="url(#clip3800)" d="M 0 0 M16770.6 11766.2 L16809.7 11766.2 L16809.7 11813.2 L16770.6 11813.2 L16770.6 11766.2 Z" fill="#000000" fill-rule="evenodd" fill-opacity="1" /><path clip-path="url(#clip3800)" d="M 0 0 M16934.8 11660.1 Q16909.7 11660.1 16894.8 11677.3 Q16880.2 11694.5 16880.2 11724.5 Q16880.2 11754.3 16894.8 11771.7 Q16909.7 11789 16934.8 11789 Q16960 11789 16974.7 11771.7 Q16989.5 11754.3 16989.5 11724.5 Q16989.5 11694.5 16974.7 11677.3 Q16960 11660.1 16934.8 11660.1 M17009.1 11542.8 L17009.1 11576.9 Q16995 11570.3 16980.6 11566.7 Q16966.3 11563.2 16952.3 11563.2 Q16915.2 11563.2 16895.6 11588.2 Q16876.1 11613.2 16873.4 11663.8 Q16884.3 11647.7 16900.8 11639.1 Q16917.3 11630.4 16937.1 11630.4 Q16978.7 11630.4 17002.8 11655.8 Q17027.1 11681 17027.1 11724.5 Q17027.1 11767.1 17001.9 11792.8 Q16976.7 11818.6 16934.8 11818.6 Q16886.9 11818.6 16861.5 11781.9 Q16836.1 11745.1 16836.1 11675.3 Q16836.1 11609.7 16867.3 11570.8 Q16898.4 11531.7 16950.8 11531.7 Q16964.8 11531.7 16979.1 11534.5 Q16993.6 11537.3 17009.1 11542.8 Z" fill="#000000" fill-rule="evenodd" fill-opacity="1" /><path clip-path="url(#clip3800)" d="M 0 0 M17170.4 11569.3 L17076 11716.9 L17170.4 11716.9 L17170.4 11569.3 M17160.6 11536.7 L17207.6 11536.7 L17207.6 11716.9 L17247.1 11716.9 L17247.1 11748 L17207.6 11748 L17207.6 11813.2 L17170.4 11813.2 L17170.4 11748 L17045.6 11748 L17045.6 11711.9 L17160.6 11536.7 Z" fill="#000000" fill-rule="evenodd" fill-opacity="1" /><path clip-path="url(#clip3800)" d="M 0 0 M1109.53 9600.18 Q1080.64 9600.18 1066.01 9628.7 Q1051.56 9657.03 1051.56 9714.07 Q1051.56 9770.92 1066.01 9799.44 Q1080.64 9827.77 1109.53 9827.77 Q1138.6 9827.77 1153.04 9799.44 Q1167.67 9770.92 1167.67 9714.07 Q1167.67 9657.03 1153.04 9628.7 Q1138.6 9600.18 1109.53 9600.18 M1109.53 9570.55 Q1156.01 9570.55 1180.45 9607.4 Q1205.08 9644.07 1205.08 9714.07 Q1205.08 9783.88 1180.45 9820.74 Q1156.01 9857.4 1109.53 9857.4 Q1063.04 9857.4 1038.41 9820.74 Q1013.97 9783.88 1013.97 9714.07 Q1013.97 9644.07 1038.41 9607.4 Q1063.04 9570.55 1109.53 9570.55 Z" fill="#000000" fill-rule="evenodd" fill-opacity="1" /><path clip-path="url(#clip3800)" d="M 0 0 M1245.64 9805 L1284.71 9805 L1284.71 9852.03 L1245.64 9852.03 L1245.64 9805 Z" fill="#000000" fill-rule="evenodd" fill-opacity="1" /><path clip-path="url(#clip3800)" d="M 0 0 M1409.89 9698.88 Q1384.71 9698.88 1369.89 9716.11 Q1355.26 9733.33 1355.26 9763.33 Q1355.26 9793.14 1369.89 9810.55 Q1384.71 9827.77 1409.89 9827.77 Q1435.08 9827.77 1449.71 9810.55 Q1464.52 9793.14 1464.52 9763.33 Q1464.52 9733.33 1449.71 9716.11 Q1435.08 9698.88 1409.89 9698.88 M1484.15 9581.66 L1484.15 9615.74 Q1470.08 9609.07 1455.63 9605.55 Q1441.38 9602.03 1427.3 9602.03 Q1390.26 9602.03 1370.63 9627.03 Q1351.19 9652.03 1348.41 9702.59 Q1359.34 9686.48 1375.82 9677.96 Q1392.3 9669.26 1412.12 9669.26 Q1453.78 9669.26 1477.86 9694.63 Q1502.12 9719.81 1502.12 9763.33 Q1502.12 9805.92 1476.93 9831.66 Q1451.75 9857.4 1409.89 9857.4 Q1361.93 9857.4 1336.56 9820.74 Q1311.19 9783.88 1311.19 9714.07 Q1311.19 9648.51 1342.3 9609.63 Q1373.41 9570.55 1425.82 9570.55 Q1439.89 9570.55 1454.15 9573.33 Q1468.6 9576.11 1484.15 9581.66 Z" fill="#000000" fill-rule="evenodd" fill-opacity="1" /><path clip-path="url(#clip3800)" d="M 0 0 M1622.67 9600.18 Q1593.78 9600.18 1579.15 9628.7 Q1564.71 9657.03 1564.71 9714.07 Q1564.71 9770.92 1579.15 9799.44 Q1593.78 9827.77 1622.67 9827.77 Q1651.74 9827.77 1666.19 9799.44 Q1680.82 9770.92 1680.82 9714.07 Q1680.82 9657.03 1666.19 9628.7 Q1651.74 9600.18 1622.67 9600.18 M1622.67 9570.55 Q1669.15 9570.55 1693.6 9607.4 Q1718.23 9644.07 1718.23 9714.07 Q1718.23 9783.88 1693.6 9820.74 Q1669.15 9857.4 1622.67 9857.4 Q1576.19 9857.4 1551.56 9820.74 Q1527.12 9783.88 1527.12 9714.07 Q1527.12 9644.07 1551.56 9607.4 Q1576.19 9570.55 1622.67 9570.55 Z" fill="#000000" fill-rule="evenodd" fill-opacity="1" /><path clip-path="url(#clip3800)" d="M 0 0 M1122.3 7056.51 Q1093.41 7056.51 1078.78 7085.03 Q1064.34 7113.36 1064.34 7170.4 Q1064.34 7227.25 1078.78 7255.77 Q1093.41 7284.1 1122.3 7284.1 Q1151.38 7284.1 1165.82 7255.77 Q1180.45 7227.25 1180.45 7170.4 Q1180.45 7113.36 1165.82 7085.03 Q1151.38 7056.51 1122.3 7056.51 M1122.3 7026.88 Q1168.78 7026.88 1193.23 7063.74 Q1217.86 7100.4 1217.86 7170.4 Q1217.86 7240.22 1193.23 7277.07 Q1168.78 7313.73 1122.3 7313.73 Q1075.82 7313.73 1051.19 7277.07 Q1026.75 7240.22 1026.75 7170.4 Q1026.75 7100.4 1051.19 7063.74 Q1075.82 7026.88 1122.3 7026.88 Z" fill="#000000" fill-rule="evenodd" fill-opacity="1" /><path clip-path="url(#clip3800)" d="M 0 0 M1258.41 7261.33 L1297.49 7261.33 L1297.49 7308.36 L1258.41 7308.36 L1258.41 7261.33 Z" fill="#000000" fill-rule="evenodd" fill-opacity="1" /><path clip-path="url(#clip3800)" d="M 0 0 M1422.67 7155.22 Q1397.49 7155.22 1382.67 7172.44 Q1368.04 7189.66 1368.04 7219.66 Q1368.04 7249.47 1382.67 7266.88 Q1397.49 7284.1 1422.67 7284.1 Q1447.86 7284.1 1462.49 7266.88 Q1477.3 7249.47 1477.3 7219.66 Q1477.3 7189.66 1462.49 7172.44 Q1447.86 7155.22 1422.67 7155.22 M1496.93 7037.99 L1496.93 7072.07 Q1482.86 7065.4 1468.41 7061.88 Q1454.15 7058.36 1440.08 7058.36 Q1403.04 7058.36 1383.41 7083.36 Q1363.97 7108.36 1361.19 7158.92 Q1372.12 7142.81 1388.6 7134.29 Q1405.08 7125.59 1424.89 7125.59 Q1466.56 7125.59 1490.63 7150.96 Q1514.89 7176.14 1514.89 7219.66 Q1514.89 7262.25 1489.71 7287.99 Q1464.52 7313.73 1422.67 7313.73 Q1374.71 7313.73 1349.34 7277.07 Q1323.97 7240.22 1323.97 7170.4 Q1323.97 7104.85 1355.08 7065.96 Q1386.19 7026.88 1438.6 7026.88 Q1452.67 7026.88 1466.93 7029.66 Q1481.38 7032.44 1496.93 7037.99 Z" fill="#000000" fill-rule="evenodd" fill-opacity="1" /><path clip-path="url(#clip3800)" d="M 0 0 M1587.67 7276.88 L1718.23 7276.88 L1718.23 7308.36 L1542.67 7308.36 L1542.67 7276.88 Q1563.97 7254.85 1600.63 7217.81 Q1637.49 7180.59 1646.93 7169.85 Q1664.89 7149.66 1671.93 7135.77 Q1679.15 7121.7 1679.15 7108.18 Q1679.15 7086.14 1663.6 7072.25 Q1648.23 7058.36 1623.41 7058.36 Q1605.82 7058.36 1586.19 7064.48 Q1566.74 7070.59 1544.52 7082.99 L1544.52 7045.22 Q1567.12 7036.14 1586.74 7031.51 Q1606.37 7026.88 1622.67 7026.88 Q1665.63 7026.88 1691.19 7048.36 Q1716.74 7069.85 1716.74 7105.77 Q1716.74 7122.81 1710.26 7138.18 Q1703.97 7153.36 1687.11 7174.1 Q1682.49 7179.48 1657.67 7205.22 Q1632.86 7230.77 1587.67 7276.88 Z" fill="#000000" fill-rule="evenodd" fill-opacity="1" /><path clip-path="url(#clip3800)" d="M 0 0 M1105.64 4512.84 Q1076.75 4512.84 1062.12 4541.36 Q1047.67 4569.7 1047.67 4626.73 Q1047.67 4683.58 1062.12 4712.1 Q1076.75 4740.44 1105.64 4740.44 Q1134.71 4740.44 1149.15 4712.1 Q1163.78 4683.58 1163.78 4626.73 Q1163.78 4569.7 1149.15 4541.36 Q1134.71 4512.84 1105.64 4512.84 M1105.64 4483.21 Q1152.12 4483.21 1176.56 4520.07 Q1201.19 4556.73 1201.19 4626.73 Q1201.19 4696.55 1176.56 4733.4 Q1152.12 4770.07 1105.64 4770.07 Q1059.16 4770.07 1034.53 4733.4 Q1010.08 4696.55 1010.08 4626.73 Q1010.08 4556.73 1034.53 4520.07 Q1059.16 4483.21 1105.64 4483.21 Z" fill="#000000" fill-rule="evenodd" fill-opacity="1" /><path clip-path="url(#clip3800)" d="M 0 0 M1241.75 4717.66 L1280.82 4717.66 L1280.82 4764.69 L1241.75 4764.69 L1241.75 4717.66 Z" fill="#000000" fill-rule="evenodd" fill-opacity="1" /><path clip-path="url(#clip3800)" d="M 0 0 M1406.01 4611.55 Q1380.82 4611.55 1366.01 4628.77 Q1351.38 4645.99 1351.38 4675.99 Q1351.38 4705.81 1366.01 4723.21 Q1380.82 4740.44 1406.01 4740.44 Q1431.19 4740.44 1445.82 4723.21 Q1460.63 4705.81 1460.63 4675.99 Q1460.63 4645.99 1445.82 4628.77 Q1431.19 4611.55 1406.01 4611.55 M1480.26 4494.33 L1480.26 4528.4 Q1466.19 4521.73 1451.75 4518.21 Q1437.49 4514.7 1423.41 4514.7 Q1386.38 4514.7 1366.75 4539.7 Q1347.3 4564.7 1344.52 4615.25 Q1355.45 4599.14 1371.93 4590.62 Q1388.41 4581.92 1408.23 4581.92 Q1449.89 4581.92 1473.97 4607.29 Q1498.23 4632.47 1498.23 4675.99 Q1498.23 4718.58 1473.04 4744.32 Q1447.86 4770.07 1406.01 4770.07 Q1358.04 4770.07 1332.67 4733.4 Q1307.3 4696.55 1307.3 4626.73 Q1307.3 4561.18 1338.41 4522.29 Q1369.52 4483.21 1421.93 4483.21 Q1436 4483.21 1450.26 4485.99 Q1464.71 4488.77 1480.26 4494.33 Z" fill="#000000" fill-rule="evenodd" fill-opacity="1" /><path clip-path="url(#clip3800)" d="M 0 0 M1641.56 4520.81 L1547.12 4668.4 L1641.56 4668.4 L1641.56 4520.81 M1631.74 4488.21 L1678.78 4488.21 L1678.78 4668.4 L1718.23 4668.4 L1718.23 4699.51 L1678.78 4699.51 L1678.78 4764.69 L1641.56 4764.69 L1641.56 4699.51 L1516.75 4699.51 L1516.75 4663.4 L1631.74 4488.21 Z" fill="#000000" fill-rule="evenodd" fill-opacity="1" /><path clip-path="url(#clip3800)" d="M 0 0 M1108.23 1969.18 Q1079.34 1969.18 1064.71 1997.69 Q1050.27 2026.03 1050.27 2083.06 Q1050.27 2139.92 1064.71 2168.43 Q1079.34 2196.77 1108.23 2196.77 Q1137.3 2196.77 1151.75 2168.43 Q1166.38 2139.92 1166.38 2083.06 Q1166.38 2026.03 1151.75 1997.69 Q1137.3 1969.18 1108.23 1969.18 M1108.23 1939.55 Q1154.71 1939.55 1179.15 1976.4 Q1203.78 2013.06 1203.78 2083.06 Q1203.78 2152.88 1179.15 2189.73 Q1154.71 2226.4 1108.23 2226.4 Q1061.75 2226.4 1037.12 2189.73 Q1012.67 2152.88 1012.67 2083.06 Q1012.67 2013.06 1037.12 1976.4 Q1061.75 1939.55 1108.23 1939.55 Z" fill="#000000" fill-rule="evenodd" fill-opacity="1" /><path clip-path="url(#clip3800)" d="M 0 0 M1244.34 2173.99 L1283.41 2173.99 L1283.41 2221.03 L1244.34 2221.03 L1244.34 2173.99 Z" fill="#000000" fill-rule="evenodd" fill-opacity="1" /><path clip-path="url(#clip3800)" d="M 0 0 M1408.6 2067.88 Q1383.41 2067.88 1368.6 2085.1 Q1353.97 2102.32 1353.97 2132.32 Q1353.97 2162.14 1368.6 2179.54 Q1383.41 2196.77 1408.6 2196.77 Q1433.78 2196.77 1448.41 2179.54 Q1463.23 2162.14 1463.23 2132.32 Q1463.23 2102.32 1448.41 2085.1 Q1433.78 2067.88 1408.6 2067.88 M1482.86 1950.66 L1482.86 1984.73 Q1468.78 1978.06 1454.34 1974.55 Q1440.08 1971.03 1426 1971.03 Q1388.97 1971.03 1369.34 1996.03 Q1349.89 2021.03 1347.12 2071.58 Q1358.04 2055.47 1374.52 2046.95 Q1391.01 2038.25 1410.82 2038.25 Q1452.49 2038.25 1476.56 2063.62 Q1500.82 2088.8 1500.82 2132.32 Q1500.82 2174.92 1475.63 2200.66 Q1450.45 2226.4 1408.6 2226.4 Q1360.63 2226.4 1335.26 2189.73 Q1309.89 2152.88 1309.89 2083.06 Q1309.89 2017.51 1341.01 1978.62 Q1372.12 1939.55 1424.52 1939.55 Q1438.6 1939.55 1452.86 1942.32 Q1467.3 1945.1 1482.86 1950.66 Z" fill="#000000" fill-rule="evenodd" fill-opacity="1" /><path clip-path="url(#clip3800)" d="M 0 0 M1626 2067.88 Q1600.82 2067.88 1586 2085.1 Q1571.37 2102.32 1571.37 2132.32 Q1571.37 2162.14 1586 2179.54 Q1600.82 2196.77 1626 2196.77 Q1651.19 2196.77 1665.82 2179.54 Q1680.63 2162.14 1680.63 2132.32 Q1680.63 2102.32 1665.82 2085.1 Q1651.19 2067.88 1626 2067.88 M1700.26 1950.66 L1700.26 1984.73 Q1686.19 1978.06 1671.74 1974.55 Q1657.49 1971.03 1643.41 1971.03 Q1606.37 1971.03 1586.74 1996.03 Q1567.3 2021.03 1564.52 2071.58 Q1575.45 2055.47 1591.93 2046.95 Q1608.41 2038.25 1628.23 2038.25 Q1669.89 2038.25 1693.97 2063.62 Q1718.23 2088.8 1718.23 2132.32 Q1718.23 2174.92 1693.04 2200.66 Q1667.86 2226.4 1626 2226.4 Q1578.04 2226.4 1552.67 2189.73 Q1527.3 2152.88 1527.3 2083.06 Q1527.3 2017.51 1558.41 1978.62 Q1589.52 1939.55 1641.93 1939.55 Q1656 1939.55 1670.26 1942.32 Q1684.71 1945.1 1700.26 1950.66 Z" fill="#000000" fill-rule="evenodd" fill-opacity="1" /><path clip-path="url(#clip3800)" d="M 0 0 M4863.55 228.341 L4863.55 284.73 Q4838.27 271.767 4811.05 265.286 Q4783.83 258.804 4754.66 258.804 Q4710.26 258.804 4687.9 272.415 Q4665.87 286.026 4665.87 313.248 Q4665.87 333.989 4681.75 345.98 Q4697.63 357.646 4745.59 368.341 L4766 372.878 Q4829.52 386.489 4856.1 411.442 Q4882.99 436.072 4882.99 480.47 Q4882.99 531.025 4842.81 560.516 Q4802.95 590.006 4732.95 590.006 Q4703.78 590.006 4672.02 584.173 Q4640.59 578.664 4605.59 567.321 L4605.59 505.747 Q4638.64 522.923 4670.73 531.673 Q4702.81 540.099 4734.25 540.099 Q4776.37 540.099 4799.06 525.84 Q4821.74 511.257 4821.74 485.007 Q4821.74 460.701 4805.22 447.738 Q4789.01 434.775 4733.6 422.785 L4712.86 417.924 Q4657.44 406.257 4632.81 382.276 Q4608.18 357.97 4608.18 315.841 Q4608.18 264.637 4644.48 236.767 Q4680.77 208.897 4747.53 208.897 Q4780.59 208.897 4809.75 213.758 Q4838.92 218.619 4863.55 228.341 Z" fill="#000000" fill-rule="evenodd" fill-opacity="1" /><path clip-path="url(#clip3800)" d="M 0 0 M4945.54 217.647 L5005.17 217.647 L5005.17 580.608 L4945.54 580.608 L4945.54 217.647 M4945.54 76.3514 L5005.17 76.3514 L5005.17 151.86 L4945.54 151.86 L4945.54 76.3514 Z" fill="#000000" fill-rule="evenodd" fill-opacity="1" /><path clip-path="url(#clip3800)" d="M 0 0 M5041.79 217.647 L5325.03 217.647 L5325.03 272.091 L5100.77 532.969 L5325.03 532.969 L5325.03 580.608 L5033.69 580.608 L5033.69 526.164 L5257.95 265.286 L5041.79 265.286 L5041.79 217.647 Z" fill="#000000" fill-rule="evenodd" fill-opacity="1" /><path clip-path="url(#clip3800)" d="M 0 0 M5698.04 384.22 L5698.04 413.387 L5423.87 413.387 Q5427.76 474.96 5460.82 507.368 Q5494.19 539.451 5553.5 539.451 Q5587.85 539.451 5619.94 531.025 Q5652.34 522.599 5684.1 505.747 L5684.1 562.136 Q5652.02 575.747 5618.31 582.877 Q5584.61 590.006 5549.94 590.006 Q5463.08 590.006 5412.2 539.451 Q5361.65 488.896 5361.65 402.692 Q5361.65 313.572 5409.61 261.397 Q5457.9 208.897 5539.57 208.897 Q5612.81 208.897 5655.26 256.212 Q5698.04 303.202 5698.04 384.22 M5638.41 366.72 Q5637.76 317.785 5610.86 288.619 Q5584.29 259.452 5540.21 259.452 Q5490.31 259.452 5460.17 287.647 Q5430.35 315.841 5425.82 367.044 L5638.41 366.72 Z" fill="#000000" fill-rule="evenodd" fill-opacity="1" /><path clip-path="url(#clip3800)" d="M 0 0 M5775.81 498.294 L5844.19 498.294 L5844.19 580.608 L5775.81 580.608 L5775.81 498.294 M5775.81 237.415 L5844.19 237.415 L5844.19 319.73 L5775.81 319.73 L5775.81 237.415 Z" fill="#000000" fill-rule="evenodd" fill-opacity="1" /><path clip-path="url(#clip3800)" d="M 0 0 M6063.27 312.6 Q6019.19 312.6 5993.27 342.739 Q5967.66 372.878 5967.66 425.377 Q5967.66 477.553 5993.27 508.016 Q6019.19 538.155 6063.27 538.155 Q6107.34 538.155 6132.94 508.016 Q6158.87 477.553 6158.87 425.377 Q6158.87 372.878 6132.94 342.739 Q6107.34 312.6 6063.27 312.6 M6193.22 107.462 L6193.22 167.092 Q6168.59 155.425 6143.31 149.268 Q6118.36 143.11 6093.73 143.11 Q6028.91 143.11 5994.56 186.86 Q5960.54 230.61 5955.67 319.082 Q5974.79 290.887 6003.64 275.98 Q6032.48 260.749 6067.15 260.749 Q6140.07 260.749 6182.2 305.147 Q6224.65 349.22 6224.65 425.377 Q6224.65 499.914 6180.58 544.96 Q6136.51 590.006 6063.27 590.006 Q5979.33 590.006 5934.93 525.84 Q5890.54 461.349 5890.54 339.174 Q5890.54 224.453 5944.98 156.397 Q5999.42 88.018 6091.14 88.018 Q6115.77 88.018 6140.72 92.8791 Q6166 97.7402 6193.22 107.462 Z" fill="#000000" fill-rule="evenodd" fill-opacity="1" /><path clip-path="url(#clip3800)" d="M 0 0 M6302.43 498.294 L6370.81 498.294 L6370.81 554.034 L6317.66 657.737 L6275.86 657.737 L6302.43 554.034 L6302.43 498.294 Z" fill="#000000" fill-rule="evenodd" fill-opacity="1" /><path clip-path="url(#clip3800)" d="M 0 0 M6581.78 350.841 Q6535.12 350.841 6508.22 375.794 Q6481.64 400.748 6481.64 444.498 Q6481.64 488.247 6508.22 513.201 Q6535.12 538.155 6581.78 538.155 Q6628.45 538.155 6655.35 513.201 Q6682.24 487.923 6682.24 444.498 Q6682.24 400.748 6655.35 375.794 Q6628.77 350.841 6581.78 350.841 M6516.32 322.97 Q6474.19 312.6 6450.53 283.758 Q6427.2 254.915 6427.2 213.434 Q6427.2 155.425 6468.36 121.722 Q6509.84 88.018 6581.78 88.018 Q6654.05 88.018 6695.21 121.722 Q6736.36 155.425 6736.36 213.434 Q6736.36 254.915 6712.71 283.758 Q6689.37 312.6 6647.57 322.97 Q6694.88 333.989 6721.13 366.072 Q6747.71 398.155 6747.71 444.498 Q6747.71 514.821 6704.61 552.414 Q6661.83 590.006 6581.78 590.006 Q6501.74 590.006 6458.63 552.414 Q6415.86 514.821 6415.86 444.498 Q6415.86 398.155 6442.43 366.072 Q6469 333.989 6516.32 322.97 M6492.34 219.591 Q6492.34 257.184 6515.67 278.249 Q6539.33 299.313 6581.78 299.313 Q6623.91 299.313 6647.57 278.249 Q6671.55 257.184 6671.55 219.591 Q6671.55 181.999 6647.57 160.934 Q6623.91 139.87 6581.78 139.87 Q6539.33 139.87 6515.67 160.934 Q6492.34 181.999 6492.34 219.591 Z" fill="#000000" fill-rule="evenodd" fill-opacity="1" /><path clip-path="url(#clip3800)" d="M 0 0 M6825.48 498.294 L6893.86 498.294 L6893.86 554.034 L6840.72 657.737 L6798.91 657.737 L6825.48 554.034 L6825.48 498.294 Z" fill="#000000" fill-rule="evenodd" fill-opacity="1" /><path clip-path="url(#clip3800)" d="M 0 0 M6976.18 525.516 L7083.12 525.516 L7083.12 156.397 L6966.78 179.731 L6966.78 120.101 L7082.47 96.768 L7147.94 96.768 L7147.94 525.516 L7254.88 525.516 L7254.88 580.608 L6976.18 580.608 L6976.18 525.516 Z" fill="#000000" fill-rule="evenodd" fill-opacity="1" /><path clip-path="url(#clip3800)" d="M 0 0 M7465.85 139.87 Q7415.3 139.87 7389.69 189.777 Q7364.42 239.36 7364.42 339.174 Q7364.42 438.664 7389.69 488.571 Q7415.3 538.155 7465.85 538.155 Q7516.73 538.155 7542.01 488.571 Q7567.61 438.664 7567.61 339.174 Q7567.61 239.36 7542.01 189.777 Q7516.73 139.87 7465.85 139.87 M7465.85 88.018 Q7547.19 88.018 7589.97 152.508 Q7633.07 216.675 7633.07 339.174 Q7633.07 461.349 7589.97 525.84 Q7547.19 590.006 7465.85 590.006 Q7384.51 590.006 7341.41 525.84 Q7298.63 461.349 7298.63 339.174 Q7298.63 216.675 7341.41 152.508 Q7384.51 88.018 7465.85 88.018 Z" fill="#000000" fill-rule="evenodd" fill-opacity="1" /><path clip-path="url(#clip3800)" d="M 0 0 M7710.85 498.294 L7779.23 498.294 L7779.23 554.034 L7726.08 657.737 L7684.28 657.737 L7710.85 554.034 L7710.85 498.294 Z" fill="#000000" fill-rule="evenodd" fill-opacity="1" /><path clip-path="url(#clip3800)" d="M 0 0 M7861.54 525.516 L7968.49 525.516 L7968.49 156.397 L7852.15 179.731 L7852.15 120.101 L7967.84 96.768 L8033.3 96.768 L8033.3 525.516 L8140.25 525.516 L8140.25 580.608 L7861.54 580.608 L7861.54 525.516 Z" fill="#000000" fill-rule="evenodd" fill-opacity="1" /><path clip-path="url(#clip3800)" d="M 0 0 M8267.61 525.516 L8496.08 525.516 L8496.08 580.608 L8188.86 580.608 L8188.86 525.516 Q8226.12 486.951 8290.29 422.137 Q8354.78 356.998 8371.31 338.202 Q8402.74 302.878 8415.06 278.573 Q8427.7 253.943 8427.7 230.286 Q8427.7 191.721 8400.48 167.416 Q8373.58 143.11 8330.15 143.11 Q8299.37 143.11 8265.01 153.805 Q8230.99 164.499 8192.1 186.212 L8192.1 120.101 Q8231.63 104.222 8265.99 96.1199 Q8300.34 88.018 8328.86 88.018 Q8404.04 88.018 8448.76 125.61 Q8493.48 163.203 8493.48 226.073 Q8493.48 255.888 8482.14 282.786 Q8471.12 309.359 8441.63 345.656 Q8433.53 355.054 8390.11 400.1 Q8346.68 444.822 8267.61 525.516 Z" fill="#000000" fill-rule="evenodd" fill-opacity="1" /><path clip-path="url(#clip3800)" d="M 0 0 M8573.85 498.294 L8642.23 498.294 L8642.23 554.034 L8589.09 657.737 L8547.28 657.737 L8573.85 554.034 L8573.85 498.294 Z" fill="#000000" fill-rule="evenodd" fill-opacity="1" /><path clip-path="url(#clip3800)" d="M 0 0 M8724.55 525.516 L8831.49 525.516 L8831.49 156.397 L8715.15 179.731 L8715.15 120.101 L8830.84 96.768 L8896.31 96.768 L8896.31 525.516 L9003.25 525.516 L9003.25 580.608 L8724.55 580.608 L8724.55 525.516 Z" fill="#000000" fill-rule="evenodd" fill-opacity="1" /><path clip-path="url(#clip3800)" d="M 0 0 M9254.08 153.805 L9088.81 412.09 L9254.08 412.09 L9254.08 153.805 M9236.91 96.768 L9319.22 96.768 L9319.22 412.09 L9388.25 412.09 L9388.25 466.535 L9319.22 466.535 L9319.22 580.608 L9254.08 580.608 L9254.08 466.535 L9035.66 466.535 L9035.66 403.34 L9236.91 96.768 Z" fill="#000000" fill-rule="evenodd" fill-opacity="1" /><path clip-path="url(#clip3800)" d="M 0 0 M9466.03 498.294 L9534.4 498.294 L9534.4 554.034 L9481.26 657.737 L9439.45 657.737 L9466.03 554.034 L9466.03 498.294 Z" fill="#000000" fill-rule="evenodd" fill-opacity="1" /><path clip-path="url(#clip3800)" d="M 0 0 M9616.72 525.516 L9723.66 525.516 L9723.66 156.397 L9607.32 179.731 L9607.32 120.101 L9723.01 96.768 L9788.48 96.768 L9788.48 525.516 L9895.42 525.516 L9895.42 580.608 L9616.72 580.608 L9616.72 525.516 Z" fill="#000000" fill-rule="evenodd" fill-opacity="1" /><path clip-path="url(#clip3800)" d="M 0 0 M10114.5 312.6 Q10070.4 312.6 10044.5 342.739 Q10018.9 372.878 10018.9 425.377 Q10018.9 477.553 10044.5 508.016 Q10070.4 538.155 10114.5 538.155 Q10158.6 538.155 10184.2 508.016 Q10210.1 477.553 10210.1 425.377 Q10210.1 372.878 10184.2 342.739 Q10158.6 312.6 10114.5 312.6 M10244.4 107.462 L10244.4 167.092 Q10219.8 155.425 10194.5 149.268 Q10169.6 143.11 10145 143.11 Q10080.1 143.11 10045.8 186.86 Q10011.8 230.61 10006.9 319.082 Q10026 290.887 10054.9 275.98 Q10083.7 260.749 10118.4 260.749 Q10191.3 260.749 10233.4 305.147 Q10275.9 349.22 10275.9 425.377 Q10275.9 499.914 10231.8 544.96 Q10187.7 590.006 10114.5 590.006 Q10030.6 590.006 9986.16 525.84 Q9941.76 461.349 9941.76 339.174 Q9941.76 224.453 9996.21 156.397 Q10050.7 88.018 10142.4 88.018 Q10167 88.018 10191.9 92.8791 Q10217.2 97.7402 10244.4 107.462 Z" fill="#000000" fill-rule="evenodd" fill-opacity="1" /><path clip-path="url(#clip3800)" d="M 0 0 M10353.7 237.415 L10422 237.415 L10422 319.73 L10353.7 319.73 L10353.7 237.415 M10353.7 498.294 L10422 498.294 L10422 554.034 L10368.9 657.737 L10327.1 657.737 L10353.7 554.034 L10353.7 498.294 Z" fill="#000000" fill-rule="evenodd" fill-opacity="1" /><path clip-path="url(#clip3800)" d="M 0 0 M10894.5 141.166 Q10823.2 141.166 10781.1 194.314 Q10739.3 247.462 10739.3 339.174 Q10739.3 430.563 10781.1 483.71 Q10823.2 536.858 10894.5 536.858 Q10965.8 536.858 11007.3 483.71 Q11049.1 430.563 11049.1 339.174 Q11049.1 247.462 11007.3 194.314 Q10965.8 141.166 10894.5 141.166 M10986.2 571.858 L11072.5 666.163 L10993.4 666.163 L10921.8 588.71 Q10911.1 589.358 10905.2 589.682 Q10899.7 590.006 10894.5 590.006 Q10792.5 590.006 10731.2 521.951 Q10670.3 453.572 10670.3 339.174 Q10670.3 224.453 10731.2 156.397 Q10792.5 88.018 10894.5 88.018 Q10996.3 88.018 11057.2 156.397 Q11118.1 224.453 11118.1 339.174 Q11118.1 423.433 11084.1 483.386 Q11050.4 543.34 10986.2 571.858 Z" fill="#000000" fill-rule="evenodd" fill-opacity="1" /><path clip-path="url(#clip3800)" d="M 0 0 M11399.4 279.221 L11814.9 279.221 L11814.9 333.665 L11399.4 333.665 L11399.4 279.221 M11399.4 411.442 L11814.9 411.442 L11814.9 466.535 L11399.4 466.535 L11399.4 411.442 Z" fill="#000000" fill-rule="evenodd" fill-opacity="1" /><path clip-path="url(#clip3800)" d="M 0 0 M12108.2 525.516 L12215.1 525.516 L12215.1 156.397 L12098.8 179.731 L12098.8 120.101 L12214.5 96.768 L12279.9 96.768 L12279.9 525.516 L12386.9 525.516 L12386.9 580.608 L12108.2 580.608 L12108.2 525.516 Z" fill="#000000" fill-rule="evenodd" fill-opacity="1" /><path clip-path="url(#clip3800)" d="M 0 0 M12606 312.6 Q12561.9 312.6 12536 342.739 Q12510.4 372.878 12510.4 425.377 Q12510.4 477.553 12536 508.016 Q12561.9 538.155 12606 538.155 Q12650 538.155 12675.6 508.016 Q12701.6 477.553 12701.6 425.377 Q12701.6 372.878 12675.6 342.739 Q12650 312.6 12606 312.6 M12735.9 107.462 L12735.9 167.092 Q12711.3 155.425 12686 149.268 Q12661.1 143.11 12636.4 143.11 Q12571.6 143.11 12537.3 186.86 Q12503.2 230.61 12498.4 319.082 Q12517.5 290.887 12546.3 275.98 Q12575.2 260.749 12609.9 260.749 Q12682.8 260.749 12724.9 305.147 Q12767.4 349.22 12767.4 425.377 Q12767.4 499.914 12723.3 544.96 Q12679.2 590.006 12606 590.006 Q12522 590.006 12477.6 525.84 Q12433.2 461.349 12433.2 339.174 Q12433.2 224.453 12487.7 156.397 Q12542.1 88.018 12633.8 88.018 Q12658.5 88.018 12683.4 92.8791 Q12708.7 97.7402 12735.9 107.462 Z" fill="#000000" fill-rule="evenodd" fill-opacity="1" /><path clip-path="url(#clip3800)" d="M 0 0 M12845.1 237.415 L12913.5 237.415 L12913.5 319.73 L12845.1 319.73 L12845.1 237.415 M12845.1 498.294 L12913.5 498.294 L12913.5 554.034 L12860.4 657.737 L12818.6 657.737 L12845.1 554.034 L12845.1 498.294 Z" fill="#000000" fill-rule="evenodd" fill-opacity="1" /><path clip-path="url(#clip3800)" d="M 0 0 M13189.6 96.768 L13255.1 96.768 L13255.1 546.904 Q13255.1 634.404 13221.7 673.941 Q13188.6 713.478 13115.1 713.478 L13090.1 713.478 L13090.1 658.385 L13110.5 658.385 Q13154 658.385 13171.8 634.08 Q13189.6 609.775 13189.6 546.904 L13189.6 96.768 Z" fill="#000000" fill-rule="evenodd" fill-opacity="1" /><path clip-path="url(#clip3800)" d="M 0 0 M13593.4 690.793 L13593.4 737.135 L13248.6 737.135 L13248.6 690.793 L13593.4 690.793 Z" fill="#000000" fill-rule="evenodd" fill-opacity="1" /><path clip-path="url(#clip3800)" d="M 0 0 M13804.4 139.87 Q13753.8 139.87 13728.2 189.777 Q13702.9 239.36 13702.9 339.174 Q13702.9 438.664 13728.2 488.571 Q13753.8 538.155 13804.4 538.155 Q13855.3 538.155 13880.5 488.571 Q13906.1 438.664 13906.1 339.174 Q13906.1 239.36 13880.5 189.777 Q13855.3 139.87 13804.4 139.87 M13804.4 88.018 Q13885.7 88.018 13928.5 152.508 Q13971.6 216.675 13971.6 339.174 Q13971.6 461.349 13928.5 525.84 Q13885.7 590.006 13804.4 590.006 Q13723 590.006 13679.9 525.84 Q13637.2 461.349 13637.2 339.174 Q13637.2 216.675 13679.9 152.508 Q13723 88.018 13804.4 88.018 Z" fill="#000000" fill-rule="evenodd" fill-opacity="1" /><path clip-path="url(#clip3800)" d="M 0 0 M14252.9 279.221 L14668.4 279.221 L14668.4 333.665 L14252.9 333.665 L14252.9 279.221 M14252.9 411.442 L14668.4 411.442 L14668.4 466.535 L14252.9 466.535 L14252.9 411.442 Z" fill="#000000" fill-rule="evenodd" fill-opacity="1" /><path clip-path="url(#clip3800)" d="M 0 0 M15090.3 139.87 Q15039.7 139.87 15014.1 189.777 Q14988.9 239.36 14988.9 339.174 Q14988.9 438.664 15014.1 488.571 Q15039.7 538.155 15090.3 538.155 Q15141.2 538.155 15166.5 488.571 Q15192.1 438.664 15192.1 339.174 Q15192.1 239.36 15166.5 189.777 Q15141.2 139.87 15090.3 139.87 M15090.3 88.018 Q15171.6 88.018 15214.4 152.508 Q15257.5 216.675 15257.5 339.174 Q15257.5 461.349 15214.4 525.84 Q15171.6 590.006 15090.3 590.006 Q15009 590.006 14965.9 525.84 Q14923.1 461.349 14923.1 339.174 Q14923.1 216.675 14965.9 152.508 Q15009 88.018 15090.3 88.018 Z" fill="#000000" fill-rule="evenodd" fill-opacity="1" /><path clip-path="url(#clip3800)" d="M 0 0 M15328.5 498.294 L15396.9 498.294 L15396.9 580.608 L15328.5 580.608 L15328.5 498.294 Z" fill="#000000" fill-rule="evenodd" fill-opacity="1" /><path clip-path="url(#clip3800)" d="M 0 0 M15451.3 96.768 L15762.4 96.768 L15762.4 124.638 L15586.8 580.608 L15518.4 580.608 L15683.7 151.86 L15451.3 151.86 L15451.3 96.768 Z" fill="#000000" fill-rule="evenodd" fill-opacity="1" /><path clip-path="url(#clip3800)" d="M 0 0 M15834 96.768 L16091 96.768 L16091 151.86 L15894 151.86 L15894 270.471 Q15908.3 265.61 15922.5 263.341 Q15936.8 260.749 15951 260.749 Q16032.1 260.749 16079.4 305.147 Q16126.7 349.544 16126.7 425.377 Q16126.7 503.479 16078.1 546.904 Q16029.5 590.006 15941 590.006 Q15910.5 590.006 15878.8 584.821 Q15847.3 579.636 15813.6 569.265 L15813.6 503.479 Q15842.8 519.358 15873.9 527.136 Q15905 534.914 15939.7 534.914 Q15995.8 534.914 16028.5 505.423 Q16061.2 475.933 16061.2 425.377 Q16061.2 374.822 16028.5 345.331 Q15995.8 315.841 15939.7 315.841 Q15913.4 315.841 15887.2 321.674 Q15861.3 327.508 15834 339.822 L15834 96.768 Z" fill="#000000" fill-rule="evenodd" fill-opacity="1" /><path clip-path="url(#clip3800)" d="M 0 0 M10205.3 12068.2 L10526.9 12068.2 L10526.9 12111.5 L10392 12111.5 L10392 12448.4 L10340.3 12448.4 L10340.3 12111.5 L10205.3 12111.5 L10205.3 12068.2 Z" fill="#000000" fill-rule="evenodd" fill-opacity="1" /><path clip-path="url(#clip3800)" d="M 0 0 M522.483 7641.94 L661.765 7641.94 L661.765 7559.44 Q661.765 7517.93 644.705 7498.07 Q627.39 7477.96 591.997 7477.96 Q556.349 7477.96 539.543 7498.07 Q522.483 7517.93 522.483 7559.44 L522.483 7641.94 M366.142 7641.94 L480.724 7641.94 L480.724 7565.8 Q480.724 7528.12 466.72 7509.78 Q452.461 7491.2 423.433 7491.2 Q394.66 7491.2 380.401 7509.78 Q366.142 7528.12 366.142 7565.8 L366.142 7641.94 M323.873 7693.37 L323.873 7561.98 Q323.873 7503.16 348.318 7471.33 Q372.762 7439.51 417.831 7439.51 Q452.715 7439.51 473.34 7455.8 Q493.965 7472.1 499.058 7503.67 Q507.206 7465.73 533.178 7444.85 Q558.895 7423.72 597.599 7423.72 Q648.524 7423.72 676.279 7458.35 Q704.033 7492.98 704.033 7556.89 L704.033 7693.37 L323.873 7693.37 Z" fill="#000000" fill-rule="evenodd" fill-opacity="1" /><path clip-path="url(#clip3800)" d="M 0 0 M418.85 7374.58 L418.85 7327.72 L704.033 7327.72 L704.033 7374.58 L418.85 7374.58 M307.832 7374.58 L307.832 7327.72 L367.16 7327.72 L367.16 7374.58 L307.832 7374.58 Z" fill="#000000" fill-rule="evenodd" fill-opacity="1" /><path clip-path="url(#clip3800)" d="M 0 0 M531.905 7041.52 L704.033 7041.52 L704.033 7088.37 L533.432 7088.37 Q492.946 7088.37 472.831 7104.16 Q452.715 7119.95 452.715 7151.52 Q452.715 7189.46 476.905 7211.36 Q501.095 7233.26 542.854 7233.26 L704.033 7233.26 L704.033 7280.36 L418.85 7280.36 L418.85 7233.26 L463.155 7233.26 Q437.437 7216.45 424.706 7193.79 Q411.975 7170.87 411.975 7141.08 Q411.975 7091.94 442.53 7066.73 Q472.831 7041.52 531.905 7041.52 Z" fill="#000000" fill-rule="evenodd" fill-opacity="1" /><path clip-path="url(#clip3800)" d="M 0 0 M462.136 6804.72 L307.832 6804.72 L307.832 6757.87 L704.033 6757.87 L704.033 6804.72 L661.256 6804.72 Q686.719 6819.49 699.195 6842.15 Q711.417 6864.56 711.417 6896.13 Q711.417 6947.82 670.168 6980.41 Q628.918 7012.75 561.696 7012.75 Q494.474 7012.75 453.224 6980.41 Q411.975 6947.82 411.975 6896.13 Q411.975 6864.56 424.451 6842.15 Q436.674 6819.49 462.136 6804.72 M561.696 6964.37 Q613.386 6964.37 642.922 6943.24 Q672.205 6921.85 672.205 6884.67 Q672.205 6847.5 642.922 6826.11 Q613.386 6804.72 561.696 6804.72 Q510.007 6804.72 480.724 6826.11 Q451.187 6847.5 451.187 6884.67 Q451.187 6921.85 480.724 6943.24 Q510.007 6964.37 561.696 6964.37 Z" fill="#000000" fill-rule="evenodd" fill-opacity="1" /><path clip-path="url(#clip3800)" d="M 0 0 M549.729 6464.79 L572.645 6464.79 L572.645 6680.2 Q621.024 6677.15 646.487 6651.18 Q671.695 6624.95 671.695 6578.35 Q671.695 6551.36 665.075 6526.15 Q658.455 6500.69 645.214 6475.74 L689.519 6475.74 Q700.214 6500.95 705.816 6527.43 Q711.417 6553.91 711.417 6581.15 Q711.417 6649.39 671.695 6689.37 Q631.973 6729.09 564.242 6729.09 Q494.22 6729.09 453.224 6691.41 Q411.975 6653.47 411.975 6589.3 Q411.975 6531.76 449.15 6498.4 Q486.071 6464.79 549.729 6464.79 M535.979 6511.64 Q497.53 6512.15 474.613 6533.28 Q451.697 6554.16 451.697 6588.79 Q451.697 6628.01 473.849 6651.69 Q496.002 6675.11 536.233 6678.68 L535.979 6511.64 Z" fill="#000000" fill-rule="evenodd" fill-opacity="1" /><path clip-path="url(#clip3800)" d="M 0 0 M462.646 6250.39 Q458.062 6258.29 456.025 6267.71 Q453.734 6276.87 453.734 6288.08 Q453.734 6327.8 479.706 6349.19 Q505.423 6370.32 553.803 6370.32 L704.033 6370.32 L704.033 6417.43 L418.85 6417.43 L418.85 6370.32 L463.155 6370.32 Q437.183 6355.55 424.706 6331.87 Q411.975 6308.19 411.975 6274.33 Q411.975 6269.49 412.739 6263.63 Q413.248 6257.78 414.521 6250.65 L462.646 6250.39 Z" fill="#000000" fill-rule="evenodd" fill-opacity="1" /><path clip-path="url(#clip3800)" d="M 0 0 M323.873 6156.94 L465.192 6156.94 L465.192 6200.23 L323.873 6200.23 L323.873 6156.94 Z" fill="#000000" fill-rule="evenodd" fill-opacity="1" /><path clip-path="url(#clip3800)" d="M 0 0 M427.252 5926 L471.558 5926 Q461.373 5945.86 456.28 5967.25 Q451.187 5988.63 451.187 6011.55 Q451.187 6046.44 461.882 6064 Q472.576 6081.32 493.965 6081.32 Q510.261 6081.32 519.682 6068.84 Q528.849 6056.37 537.252 6018.68 L540.817 6002.64 Q551.511 5952.73 571.117 5931.85 Q590.469 5910.72 625.353 5910.72 Q665.075 5910.72 688.246 5942.29 Q711.417 5973.61 711.417 6028.61 Q711.417 6051.53 706.834 6076.48 Q702.505 6101.18 693.594 6128.68 L645.214 6128.68 Q658.709 6102.71 665.584 6077.5 Q672.205 6052.29 672.205 6027.59 Q672.205 5994.49 661.001 5976.67 Q649.543 5958.84 628.918 5958.84 Q609.821 5958.84 599.636 5971.83 Q589.451 5984.56 580.029 6028.1 L576.21 6044.4 Q567.043 6087.94 548.201 6107.29 Q529.104 6126.64 496.002 6126.64 Q455.771 6126.64 433.873 6098.12 Q411.975 6069.61 411.975 6017.15 Q411.975 5991.18 415.794 5968.26 Q419.613 5945.35 427.252 5926 Z" fill="#000000" fill-rule="evenodd" fill-opacity="1" /><path clip-path="url(#clip3800)" d="M 0 0 M462.646 5530.56 Q458.062 5538.45 456.025 5547.87 Q453.734 5557.04 453.734 5568.24 Q453.734 5607.97 479.706 5629.35 Q505.423 5650.49 553.803 5650.49 L704.033 5650.49 L704.033 5697.59 L418.85 5697.59 L418.85 5650.49 L463.155 5650.49 Q437.183 5635.72 424.706 5612.04 Q411.975 5588.36 411.975 5554.49 Q411.975 5549.66 412.739 5543.8 Q413.248 5537.94 414.521 5530.81 L462.646 5530.56 Z" fill="#000000" fill-rule="evenodd" fill-opacity="1" /><path clip-path="url(#clip3800)" d="M 0 0 M560.678 5351.81 Q560.678 5408.59 573.664 5430.49 Q586.65 5452.39 617.969 5452.39 Q642.922 5452.39 657.691 5436.09 Q672.205 5419.54 672.205 5391.28 Q672.205 5352.32 644.705 5328.89 Q616.95 5305.21 571.117 5305.21 L560.678 5305.21 L560.678 5351.81 M541.326 5258.36 L704.033 5258.36 L704.033 5305.21 L660.746 5305.21 Q686.719 5321.25 699.195 5345.19 Q711.417 5369.12 711.417 5403.75 Q711.417 5447.55 686.973 5473.52 Q662.274 5499.24 621.024 5499.24 Q572.9 5499.24 548.455 5467.16 Q524.011 5434.82 524.011 5370.91 L524.011 5305.21 L519.428 5305.21 Q487.09 5305.21 469.521 5326.6 Q451.697 5347.74 451.697 5386.18 Q451.697 5410.63 457.553 5433.8 Q463.41 5456.97 475.122 5478.36 L431.836 5478.36 Q421.905 5452.64 417.067 5428.45 Q411.975 5404.26 411.975 5381.35 Q411.975 5319.47 444.058 5288.92 Q476.141 5258.36 541.326 5258.36 Z" fill="#000000" fill-rule="evenodd" fill-opacity="1" /><path clip-path="url(#clip3800)" d="M 0 0 M337.878 5162.87 L418.85 5162.87 L418.85 5066.37 L455.261 5066.37 L455.261 5162.87 L610.075 5162.87 Q644.96 5162.87 654.89 5153.45 Q664.821 5143.78 664.821 5114.5 L664.821 5066.37 L704.033 5066.37 L704.033 5114.5 Q704.033 5168.73 683.918 5189.36 Q663.547 5209.98 610.075 5209.98 L455.261 5209.98 L455.261 5244.36 L418.85 5244.36 L418.85 5209.98 L337.878 5209.98 L337.878 5162.87 Z" fill="#000000" fill-rule="evenodd" fill-opacity="1" /><path clip-path="url(#clip3800)" d="M 0 0 M418.85 5017.23 L418.85 4970.38 L704.033 4970.38 L704.033 5017.23 L418.85 5017.23 M307.832 5017.23 L307.832 4970.38 L367.16 4970.38 L367.16 5017.23 L307.832 5017.23 Z" fill="#000000" fill-rule="evenodd" fill-opacity="1" /><path clip-path="url(#clip3800)" d="M 0 0 M451.697 4810.72 Q451.697 4848.41 481.234 4870.31 Q510.516 4892.21 561.696 4892.21 Q612.876 4892.21 642.413 4870.56 Q671.695 4848.66 671.695 4810.72 Q671.695 4773.29 642.159 4751.4 Q612.622 4729.5 561.696 4729.5 Q511.025 4729.5 481.488 4751.4 Q451.697 4773.29 451.697 4810.72 M411.975 4810.72 Q411.975 4749.61 451.697 4714.73 Q491.419 4679.85 561.696 4679.85 Q631.719 4679.85 671.695 4714.73 Q711.417 4749.61 711.417 4810.72 Q711.417 4872.09 671.695 4906.97 Q631.719 4941.6 561.696 4941.6 Q491.419 4941.6 451.697 4906.97 Q411.975 4872.09 411.975 4810.72 Z" fill="#000000" fill-rule="evenodd" fill-opacity="1" /><polyline clip-path="url(#clip3802)" style="stroke:#009af9; stroke-width:32; stroke-opacity:1; fill:none" points="
  2388.86,1345.42 2714.47,1364.35 3040.07,1363.16 3365.67,1372.61 3691.27,1375.61 4016.88,1371.25 4342.48,1400.18 4668.08,1432.22 4993.69,1411.34 5319.29,1451.57 
  5644.89,1449.36 5970.5,1491 6296.1,1483.91 6621.7,1501.73 6947.3,1540.28 7272.91,1524.16 7598.51,1635.83 7924.11,1575.32 8249.72,1629.72 8575.32,1672.84 
  8900.92,1627.87 9226.53,1702.86 9552.13,1766.19 9877.73,1763.95 10203.3,1844.15 10528.9,1861.02 10854.5,1837.41 11180.1,1998.45 11505.7,2070.65 11831.4,2150.95 
  12157,2113.06 12482.6,2196.85 12808.2,2340.4 13133.8,2348.57 13459.4,2544.6 13785,2553.92 14110.6,2539.62 14436.2,2805.16 14761.8,2840.83 15087.4,2945.39 
  15413,3103.14 15738.6,3186.82 16064.2,3234.91 16389.8,3495.28 16715.4,3511.72 17041,3784.07 17366.6,3749.09 17692.2,3988.43 18017.8,4182.25 18343.4,4333.15 
  
  "/>
<polyline clip-path="url(#clip3802)" style="stroke:#e26f46; stroke-width:32; stroke-opacity:1; fill:none" points="
  2388.86,1322.1 2714.47,1320.27 3040.07,1324.37 3365.67,1333.65 3691.27,1349.62 4016.88,1364.15 4342.48,1370.44 4668.08,1359.69 4993.69,1397.73 5319.29,1376.75 
  5644.89,1431.01 5970.5,1416.76 6296.1,1436.77 6621.7,1459.37 6947.3,1447.56 7272.91,1488.33 7598.51,1519.21 7924.11,1533.25 8249.72,1527.46 8575.32,1604.48 
  8900.92,1624.96 9226.53,1700.66 9552.13,1654.91 9877.73,1729.74 10203.3,1772.11 10528.9,1828.56 10854.5,1944.16 11180.1,1975.32 11505.7,2046.85 11831.4,2188.56 
  12157,2078.37 12482.6,2187.63 12808.2,2422.86 13133.8,2427.17 13459.4,2546.1 13785,2735.33 14110.6,2969.75 14436.2,3031 14761.8,3043.46 15087.4,3399.28 
  15413,3746.67 15738.6,3671.54 16064.2,3892.57 16389.8,4403.25 16715.4,4625.75 17041,4674.6 17366.6,4927.93 17692.2,5689.11 18017.8,5739.54 18343.4,6145.56 
  
  "/>
<polyline clip-path="url(#clip3802)" style="stroke:#3da44d; stroke-width:32; stroke-opacity:1; fill:none" points="
  2388.86,1307.78 2714.47,1308.5 3040.07,1313.21 3365.67,1319.05 3691.27,1324.95 4016.88,1323.97 4342.48,1347.88 4668.08,1351.81 4993.69,1366.67 5319.29,1366.53 
  5644.89,1370.6 5970.5,1379.35 6296.1,1381.85 6621.7,1410.65 6947.3,1437.13 7272.91,1442.82 7598.51,1460.32 7924.11,1505.32 8249.72,1521.26 8575.32,1557.54 
  8900.92,1567.86 9226.53,1530.59 9552.13,1601.85 9877.73,1661.29 10203.3,1733.67 10528.9,1790.88 10854.5,1815.65 11180.1,1955.87 11505.7,1928.55 11831.4,2118.27 
  12157,2285.91 12482.6,2314.12 12808.2,2443.39 13133.8,2528.04 13459.4,2785.82 13785,2811 14110.6,3053.45 14436.2,3408.75 14761.8,3456.87 15087.4,3579.46 
  15413,3885.17 15738.6,4516.27 16064.2,4891.7 16389.8,5283.2 16715.4,5518.6 17041,5977.66 17366.6,6757.64 17692.2,6737.77 18017.8,7114.62 18343.4,7555.46 
  
  "/>
<polyline clip-path="url(#clip3802)" style="stroke:#c271d2; stroke-width:32; stroke-opacity:1; fill:none" points="
  2388.86,1297.16 2714.47,1296.71 3040.07,1300.08 3365.67,1304.03 3691.27,1314.46 4016.88,1313.24 4342.48,1335.95 4668.08,1323.89 4993.69,1345.42 5319.29,1345.66 
  5644.89,1354.65 5970.5,1372.63 6296.1,1387.05 6621.7,1406.37 6947.3,1403.46 7272.91,1424.76 7598.51,1462.29 7924.11,1440.85 8249.72,1473.39 8575.32,1523.12 
  8900.92,1505.17 9226.53,1583.53 9552.13,1598.66 9877.73,1646.87 10203.3,1675.66 10528.9,1783.12 10854.5,1779.78 11180.1,1890.16 11505.7,1965.57 11831.4,1988.97 
  12157,2109.63 12482.6,2192.24 12808.2,2313.35 13133.8,2469.4 13459.4,2747.56 13785,2977.18 14110.6,3183.24 14436.2,3502.84 14761.8,3569.85 15087.4,3812.96 
  15413,4201.69 15738.6,4494.97 16064.2,4887.27 16389.8,5641.72 16715.4,6081.79 17041,6233.17 17366.6,7238.29 17692.2,7880.47 18017.8,8527.42 18343.4,10002.2 
  
  "/>
<polyline clip-path="url(#clip3802)" style="stroke:#ac8d18; stroke-width:32; stroke-opacity:1; fill:none" points="
  2388.86,1286.76 2714.47,1291.11 3040.07,1297.82 3365.67,1294.99 3691.27,1302.44 4016.88,1306.76 4342.48,1308.76 4668.08,1315.98 4993.69,1318.8 5319.29,1326.58 
  5644.89,1347.71 5970.5,1354.85 6296.1,1355.87 6621.7,1366.2 6947.3,1388.84 7272.91,1399.19 7598.51,1408.16 7924.11,1419.72 8249.72,1437.68 8575.32,1483.43 
  8900.92,1469.93 9226.53,1506.2 9552.13,1514.13 9877.73,1616.01 10203.3,1609.12 10528.9,1710.07 10854.5,1726.79 11180.1,1823.01 11505.7,1912.49 11831.4,2016.14 
  12157,2008.24 12482.6,2083.18 12808.2,2212.99 13133.8,2489.33 13459.4,2717.44 13785,3366.44 14110.6,3014.08 14436.2,3306.88 14761.8,3506.53 15087.4,4155.33 
  15413,4316.5 15738.6,5055.52 16064.2,5364.07 16389.8,6536.43 16715.4,6683.75 17041,7522.53 17366.6,8418.43 17692.2,8369.87 18017.8,10305.9 18343.4,10171.4 
  
  "/>
<polyline clip-path="url(#clip3802)" style="stroke:#00a9ad; stroke-width:32; stroke-opacity:1; fill:none" points="
  2388.86,1285.17 2714.47,1282.05 3040.07,1283.85 3365.67,1292.66 3691.27,1297.05 4016.88,1302.69 4342.48,1307.07 4668.08,1306.66 4993.69,1313.2 5319.29,1319.12 
  5644.89,1320.61 5970.5,1337.67 6296.1,1343.08 6621.7,1344.47 6947.3,1362.31 7272.91,1370.32 7598.51,1383.88 7924.11,1394.13 8249.72,1410.7 8575.32,1425.48 
  8900.92,1470.88 9226.53,1514.35 9552.13,1515.41 9877.73,1550.38 10203.3,1586.28 10528.9,1636.58 10854.5,1728.42 11180.1,1719.28 11505.7,1738.71 11831.4,1900.98 
  12157,2037.02 12482.6,2071.58 12808.2,2176.23 13133.8,2414.42 13459.4,2622.05 13785,2702.29 14110.6,3110.95 14436.2,3424.22 14761.8,3865.53 15087.4,4153.67 
  15413,4571.64 15738.6,5297.48 16064.2,5655.6 16389.8,6279.1 16715.4,6906.33 17041,8078.72 17366.6,8935.8 17692.2,9778.32 18017.8,10517.8 18343.4,11091.2 
  
  "/>
<path clip-path="url(#clip3800)" d="
M2486.23 10233.4 L5523.26 10233.4 L5523.26 6846.56 L2486.23 6846.56  Z
  " fill="#ffffff" fill-rule="evenodd" fill-opacity="1"/>
<polyline clip-path="url(#clip3800)" style="stroke:#000000; stroke-width:32; stroke-opacity:1; fill:none" points="
  2486.23,10233.4 5523.26,10233.4 5523.26,6846.56 2486.23,6846.56 2486.23,10233.4 
  "/>
<polyline clip-path="url(#clip3800)" style="stroke:#009af9; stroke-width:32; stroke-opacity:1; fill:none" points="
  2678.23,7330.4 3830.23,7330.4 
  "/>
<path clip-path="url(#clip3800)" d="M 0 0 M4022.23 7192.16 L4059.63 7192.16 L4059.63 7437.16 L4194.26 7437.16 L4194.26 7468.64 L4022.23 7468.64 L4022.23 7192.16 Z" fill="#000000" fill-rule="evenodd" fill-opacity="1" /><path clip-path="url(#clip3800)" d="M 0 0 M4355 7296.42 L4592.41 7296.42 L4592.41 7327.53 L4355 7327.53 L4355 7296.42 M4355 7371.97 L4592.41 7371.97 L4592.41 7403.45 L4355 7403.45 L4355 7371.97 Z" fill="#000000" fill-rule="evenodd" fill-opacity="1" /><path clip-path="url(#clip3800)" d="M 0 0 M4838.15 7315.49 Q4812.96 7315.49 4798.15 7332.71 Q4783.52 7349.94 4783.52 7379.94 Q4783.52 7409.75 4798.15 7427.16 Q4812.96 7444.38 4838.15 7444.38 Q4863.33 7444.38 4877.96 7427.16 Q4892.78 7409.75 4892.78 7379.94 Q4892.78 7349.94 4877.96 7332.71 Q4863.33 7315.49 4838.15 7315.49 M4912.41 7198.27 L4912.41 7232.34 Q4898.33 7225.68 4883.89 7222.16 Q4869.63 7218.64 4855.55 7218.64 Q4818.52 7218.64 4798.89 7243.64 Q4779.44 7268.64 4776.67 7319.2 Q4787.59 7303.08 4804.07 7294.57 Q4820.55 7285.86 4840.37 7285.86 Q4882.04 7285.86 4906.11 7311.23 Q4930.37 7336.42 4930.37 7379.94 Q4930.37 7422.53 4905.18 7448.27 Q4880 7474.01 4838.15 7474.01 Q4790.18 7474.01 4764.81 7437.34 Q4739.44 7400.49 4739.44 7330.68 Q4739.44 7265.12 4770.55 7226.23 Q4801.67 7187.16 4854.07 7187.16 Q4868.15 7187.16 4882.41 7189.94 Q4896.85 7192.71 4912.41 7198.27 Z" fill="#000000" fill-rule="evenodd" fill-opacity="1" /><polyline clip-path="url(#clip3800)" style="stroke:#e26f46; stroke-width:32; stroke-opacity:1; fill:none" points="
  2678.23,7814.24 3830.23,7814.24 
  "/>
<path clip-path="url(#clip3800)" d="M 0 0 M4022.23 7676 L4059.63 7676 L4059.63 7921 L4194.26 7921 L4194.26 7952.48 L4022.23 7952.48 L4022.23 7676 Z" fill="#000000" fill-rule="evenodd" fill-opacity="1" /><path clip-path="url(#clip3800)" d="M 0 0 M4355 7780.26 L4592.41 7780.26 L4592.41 7811.37 L4355 7811.37 L4355 7780.26 M4355 7855.81 L4592.41 7855.81 L4592.41 7887.29 L4355 7887.29 L4355 7855.81 Z" fill="#000000" fill-rule="evenodd" fill-opacity="1" /><path clip-path="url(#clip3800)" d="M 0 0 M4833.52 7821.18 Q4806.85 7821.18 4791.48 7835.44 Q4776.3 7849.7 4776.3 7874.7 Q4776.3 7899.7 4791.48 7913.96 Q4806.85 7928.22 4833.52 7928.22 Q4860.18 7928.22 4875.55 7913.96 Q4890.92 7899.52 4890.92 7874.7 Q4890.92 7849.7 4875.55 7835.44 Q4860.37 7821.18 4833.52 7821.18 M4796.11 7805.26 Q4772.04 7799.33 4758.52 7782.85 Q4745.18 7766.37 4745.18 7742.67 Q4745.18 7709.52 4768.7 7690.26 Q4792.41 7671 4833.52 7671 Q4874.81 7671 4898.33 7690.26 Q4921.85 7709.52 4921.85 7742.67 Q4921.85 7766.37 4908.33 7782.85 Q4895 7799.33 4871.11 7805.26 Q4898.15 7811.55 4913.15 7829.89 Q4928.33 7848.22 4928.33 7874.7 Q4928.33 7914.89 4903.7 7936.37 Q4879.26 7957.85 4833.52 7957.85 Q4787.78 7957.85 4763.15 7936.37 Q4738.7 7914.89 4738.7 7874.7 Q4738.7 7848.22 4753.89 7829.89 Q4769.07 7811.55 4796.11 7805.26 M4782.41 7746.18 Q4782.41 7767.66 4795.74 7779.7 Q4809.26 7791.74 4833.52 7791.74 Q4857.59 7791.74 4871.11 7779.7 Q4884.81 7767.66 4884.81 7746.18 Q4884.81 7724.7 4871.11 7712.67 Q4857.59 7700.63 4833.52 7700.63 Q4809.26 7700.63 4795.74 7712.67 Q4782.41 7724.7 4782.41 7746.18 Z" fill="#000000" fill-rule="evenodd" fill-opacity="1" /><polyline clip-path="url(#clip3800)" style="stroke:#3da44d; stroke-width:32; stroke-opacity:1; fill:none" points="
  2678.23,8298.08 3830.23,8298.08 
  "/>
<path clip-path="url(#clip3800)" d="M 0 0 M4022.23 8159.84 L4059.63 8159.84 L4059.63 8404.84 L4194.26 8404.84 L4194.26 8436.32 L4022.23 8436.32 L4022.23 8159.84 Z" fill="#000000" fill-rule="evenodd" fill-opacity="1" /><path clip-path="url(#clip3800)" d="M 0 0 M4355 8264.1 L4592.41 8264.1 L4592.41 8295.21 L4355 8295.21 L4355 8264.1 M4355 8339.65 L4592.41 8339.65 L4592.41 8371.13 L4355 8371.13 L4355 8339.65 Z" fill="#000000" fill-rule="evenodd" fill-opacity="1" /><path clip-path="url(#clip3800)" d="M 0 0 M4760 8404.84 L4821.11 8404.84 L4821.11 8193.91 L4754.63 8207.25 L4754.63 8173.17 L4820.74 8159.84 L4858.15 8159.84 L4858.15 8404.84 L4919.26 8404.84 L4919.26 8436.32 L4760 8436.32 L4760 8404.84 Z" fill="#000000" fill-rule="evenodd" fill-opacity="1" /><path clip-path="url(#clip3800)" d="M 0 0 M5039.81 8184.47 Q5010.92 8184.47 4996.29 8212.99 Q4981.85 8241.32 4981.85 8298.36 Q4981.85 8355.21 4996.29 8383.73 Q5010.92 8412.06 5039.81 8412.06 Q5068.89 8412.06 5083.33 8383.73 Q5097.96 8355.21 5097.96 8298.36 Q5097.96 8241.32 5083.33 8212.99 Q5068.89 8184.47 5039.81 8184.47 M5039.81 8154.84 Q5086.29 8154.84 5110.74 8191.69 Q5135.37 8228.36 5135.37 8298.36 Q5135.37 8368.17 5110.74 8405.02 Q5086.29 8441.69 5039.81 8441.69 Q4993.33 8441.69 4968.7 8405.02 Q4944.26 8368.17 4944.26 8298.36 Q4944.26 8228.36 4968.7 8191.69 Q4993.33 8154.84 5039.81 8154.84 Z" fill="#000000" fill-rule="evenodd" fill-opacity="1" /><polyline clip-path="url(#clip3800)" style="stroke:#c271d2; stroke-width:32; stroke-opacity:1; fill:none" points="
  2678.23,8781.92 3830.23,8781.92 
  "/>
<path clip-path="url(#clip3800)" d="M 0 0 M4022.23 8643.68 L4059.63 8643.68 L4059.63 8888.68 L4194.26 8888.68 L4194.26 8920.16 L4022.23 8920.16 L4022.23 8643.68 Z" fill="#000000" fill-rule="evenodd" fill-opacity="1" /><path clip-path="url(#clip3800)" d="M 0 0 M4355 8747.94 L4592.41 8747.94 L4592.41 8779.05 L4355 8779.05 L4355 8747.94 M4355 8823.49 L4592.41 8823.49 L4592.41 8854.97 L4355 8854.97 L4355 8823.49 Z" fill="#000000" fill-rule="evenodd" fill-opacity="1" /><path clip-path="url(#clip3800)" d="M 0 0 M4760 8888.68 L4821.11 8888.68 L4821.11 8677.75 L4754.63 8691.09 L4754.63 8657.01 L4820.74 8643.68 L4858.15 8643.68 L4858.15 8888.68 L4919.26 8888.68 L4919.26 8920.16 L4760 8920.16 L4760 8888.68 Z" fill="#000000" fill-rule="evenodd" fill-opacity="1" /><path clip-path="url(#clip3800)" d="M 0 0 M4992.04 8888.68 L5122.59 8888.68 L5122.59 8920.16 L4947.04 8920.16 L4947.04 8888.68 Q4968.33 8866.64 5005 8829.6 Q5041.85 8792.38 5051.29 8781.64 Q5069.26 8761.46 5076.29 8747.57 Q5083.52 8733.49 5083.52 8719.97 Q5083.52 8697.94 5067.96 8684.05 Q5052.59 8670.16 5027.78 8670.16 Q5010.18 8670.16 4990.55 8676.27 Q4971.11 8682.38 4948.89 8694.79 L4948.89 8657.01 Q4971.48 8647.94 4991.11 8643.31 Q5010.74 8638.68 5027.04 8638.68 Q5070 8638.68 5095.55 8660.16 Q5121.11 8681.64 5121.11 8717.57 Q5121.11 8734.6 5114.63 8749.97 Q5108.33 8765.16 5091.48 8785.9 Q5086.85 8791.27 5062.03 8817.01 Q5037.22 8842.57 4992.04 8888.68 Z" fill="#000000" fill-rule="evenodd" fill-opacity="1" /><polyline clip-path="url(#clip3800)" style="stroke:#ac8d18; stroke-width:32; stroke-opacity:1; fill:none" points="
  2678.23,9265.76 3830.23,9265.76 
  "/>
<path clip-path="url(#clip3800)" d="M 0 0 M4022.23 9127.52 L4059.63 9127.52 L4059.63 9372.52 L4194.26 9372.52 L4194.26 9404 L4022.23 9404 L4022.23 9127.52 Z" fill="#000000" fill-rule="evenodd" fill-opacity="1" /><path clip-path="url(#clip3800)" d="M 0 0 M4355 9231.78 L4592.41 9231.78 L4592.41 9262.89 L4355 9262.89 L4355 9231.78 M4355 9307.33 L4592.41 9307.33 L4592.41 9338.81 L4355 9338.81 L4355 9307.33 Z" fill="#000000" fill-rule="evenodd" fill-opacity="1" /><path clip-path="url(#clip3800)" d="M 0 0 M4760 9372.52 L4821.11 9372.52 L4821.11 9161.59 L4754.63 9174.93 L4754.63 9140.85 L4820.74 9127.52 L4858.15 9127.52 L4858.15 9372.52 L4919.26 9372.52 L4919.26 9404 L4760 9404 L4760 9372.52 Z" fill="#000000" fill-rule="evenodd" fill-opacity="1" /><path clip-path="url(#clip3800)" d="M 0 0 M5062.59 9160.11 L4968.15 9307.7 L5062.59 9307.7 L5062.59 9160.11 M5052.78 9127.52 L5099.81 9127.52 L5099.81 9307.7 L5139.26 9307.7 L5139.26 9338.81 L5099.81 9338.81 L5099.81 9404 L5062.59 9404 L5062.59 9338.81 L4937.78 9338.81 L4937.78 9302.7 L5052.78 9127.52 Z" fill="#000000" fill-rule="evenodd" fill-opacity="1" /><polyline clip-path="url(#clip3800)" style="stroke:#00a9ad; stroke-width:32; stroke-opacity:1; fill:none" points="
  2678.23,9749.6 3830.23,9749.6 
  "/>
<path clip-path="url(#clip3800)" d="M 0 0 M4022.23 9611.36 L4059.63 9611.36 L4059.63 9856.36 L4194.26 9856.36 L4194.26 9887.84 L4022.23 9887.84 L4022.23 9611.36 Z" fill="#000000" fill-rule="evenodd" fill-opacity="1" /><path clip-path="url(#clip3800)" d="M 0 0 M4355 9715.62 L4592.41 9715.62 L4592.41 9746.73 L4355 9746.73 L4355 9715.62 M4355 9791.17 L4592.41 9791.17 L4592.41 9822.65 L4355 9822.65 L4355 9791.17 Z" fill="#000000" fill-rule="evenodd" fill-opacity="1" /><path clip-path="url(#clip3800)" d="M 0 0 M4760 9856.36 L4821.11 9856.36 L4821.11 9645.43 L4754.63 9658.77 L4754.63 9624.69 L4820.74 9611.36 L4858.15 9611.36 L4858.15 9856.36 L4919.26 9856.36 L4919.26 9887.84 L4760 9887.84 L4760 9856.36 Z" fill="#000000" fill-rule="evenodd" fill-opacity="1" /><path clip-path="url(#clip3800)" d="M 0 0 M5044.44 9734.69 Q5019.26 9734.69 5004.44 9751.91 Q4989.81 9769.14 4989.81 9799.14 Q4989.81 9828.95 5004.44 9846.36 Q5019.26 9863.58 5044.44 9863.58 Q5069.63 9863.58 5084.26 9846.36 Q5099.07 9828.95 5099.07 9799.14 Q5099.07 9769.14 5084.26 9751.91 Q5069.63 9734.69 5044.44 9734.69 M5118.7 9617.47 L5118.7 9651.54 Q5104.63 9644.88 5090.18 9641.36 Q5075.92 9637.84 5061.85 9637.84 Q5024.81 9637.84 5005.18 9662.84 Q4985.74 9687.84 4982.96 9738.4 Q4993.89 9722.28 5010.37 9713.77 Q5026.85 9705.06 5046.66 9705.06 Q5088.33 9705.06 5112.4 9730.43 Q5136.66 9755.62 5136.66 9799.14 Q5136.66 9841.73 5111.48 9867.47 Q5086.29 9893.21 5044.44 9893.21 Q4996.48 9893.21 4971.11 9856.54 Q4945.74 9819.69 4945.74 9749.88 Q4945.74 9684.32 4976.85 9645.43 Q5007.96 9606.36 5060.37 9606.36 Q5074.44 9606.36 5088.7 9609.14 Q5103.15 9611.91 5118.7 9617.47 Z" fill="#000000" fill-rule="evenodd" fill-opacity="1" /></svg>
