<?xml version="1.0" encoding="utf-8"?>
<svg xmlns="http://www.w3.org/2000/svg" xmlns:xlink="http://www.w3.org/1999/xlink" width="4800" height="3200" viewBox="0 0 19200 12800">
<defs>
  <clipPath id="clip3000">
    <rect x="0" y="0" width="19200" height="12800"/>
  </clipPath>
</defs>
<path clip-path="url(#clip3000)" d="
M0 12800 L19200 12800 L19200 0 L0 0  Z
  " fill="#ffffff" fill-rule="evenodd" fill-opacity="1"/>
<defs>
  <clipPath id="clip3001">
    <rect x="3840" y="0" width="13441" height="12800"/>
  </clipPath>
</defs>
<path clip-path="url(#clip3000)" d="
M2021.89 11385.4 L18822 11385.4 L18822 987.777 L2021.89 987.777  Z
  " fill="#ffffff" fill-rule="evenodd" fill-opacity="1"/>
<defs>
  <clipPath id="clip3002">
    <rect x="2021" y="987" width="16801" height="10399"/>
  </clipPath>
</defs>
<polyline clip-path="url(#clip3002)" style="stroke:#000000; stroke-width:16; stroke-opacity:0.1; fill:none" points="
  2497.37,11385.4 2497.37,987.777 
  "/>
<polyline clip-path="url(#clip3002)" style="stroke:#000000; stroke-width:16; stroke-opacity:0.1; fill:none" points="
  6099.46,11385.4 6099.46,987.777 
  "/>
<polyline clip-path="url(#clip3002)" style="stroke:#000000; stroke-width:16; stroke-opacity:0.1; fill:none" points="
  9701.55,11385.4 9701.55,987.777 
  "/>
<polyline clip-path="url(#clip3002)" style="stroke:#000000; stroke-width:16; stroke-opacity:0.1; fill:none" points="
  13303.6,11385.4 13303.6,987.777 
  "/>
<polyline clip-path="url(#clip3002)" style="stroke:#000000; stroke-width:16; stroke-opacity:0.1; fill:none" points="
  16905.7,11385.4 16905.7,987.777 
  "/>
<polyline clip-path="url(#clip3002)" style="stroke:#000000; stroke-width:16; stroke-opacity:0.1; fill:none" points="
  2021.89,9627.41 18822,9627.41 
  "/>
<polyline clip-path="url(#clip3002)" style="stroke:#000000; stroke-width:16; stroke-opacity:0.1; fill:none" points="
  2021.89,7838.96 18822,7838.96 
  "/>
<polyline clip-path="url(#clip3002)" style="stroke:#000000; stroke-width:16; stroke-opacity:0.1; fill:none" points="
  2021.89,6050.52 18822,6050.52 
  "/>
<polyline clip-path="url(#clip3002)" style="stroke:#000000; stroke-width:16; stroke-opacity:0.1; fill:none" points="
  2021.89,4262.07 18822,4262.07 
  "/>
<polyline clip-path="url(#clip3002)" style="stroke:#000000; stroke-width:16; stroke-opacity:0.1; fill:none" points="
  2021.89,2473.63 18822,2473.63 
  "/>
<polyline clip-path="url(#clip3000)" style="stroke:#000000; stroke-width:32; stroke-opacity:1; fill:none" points="
  2021.89,11385.4 18822,11385.4 
  "/>
<polyline clip-path="url(#clip3000)" style="stroke:#000000; stroke-width:32; stroke-opacity:1; fill:none" points="
  2021.89,11385.4 2021.89,987.777 
  "/>
<polyline clip-path="url(#clip3000)" style="stroke:#000000; stroke-width:32; stroke-opacity:1; fill:none" points="
  2497.37,11385.4 2497.37,11260.7 
  "/>
<polyline clip-path="url(#clip3000)" style="stroke:#000000; stroke-width:32; stroke-opacity:1; fill:none" points="
  6099.46,11385.4 6099.46,11260.7 
  "/>
<polyline clip-path="url(#clip3000)" style="stroke:#000000; stroke-width:32; stroke-opacity:1; fill:none" points="
  9701.55,11385.4 9701.55,11260.7 
  "/>
<polyline clip-path="url(#clip3000)" style="stroke:#000000; stroke-width:32; stroke-opacity:1; fill:none" points="
  13303.6,11385.4 13303.6,11260.7 
  "/>
<polyline clip-path="url(#clip3000)" style="stroke:#000000; stroke-width:32; stroke-opacity:1; fill:none" points="
  16905.7,11385.4 16905.7,11260.7 
  "/>
<polyline clip-path="url(#clip3000)" style="stroke:#000000; stroke-width:32; stroke-opacity:1; fill:none" points="
  2021.89,9627.41 2223.49,9627.41 
  "/>
<polyline clip-path="url(#clip3000)" style="stroke:#000000; stroke-width:32; stroke-opacity:1; fill:none" points="
  2021.89,7838.96 2223.49,7838.96 
  "/>
<polyline clip-path="url(#clip3000)" style="stroke:#000000; stroke-width:32; stroke-opacity:1; fill:none" points="
  2021.89,6050.52 2223.49,6050.52 
  "/>
<polyline clip-path="url(#clip3000)" style="stroke:#000000; stroke-width:32; stroke-opacity:1; fill:none" points="
  2021.89,4262.07 2223.49,4262.07 
  "/>
<polyline clip-path="url(#clip3000)" style="stroke:#000000; stroke-width:32; stroke-opacity:1; fill:none" points="
  2021.89,2473.63 2223.49,2473.63 
  "/>
<path clip-path="url(#clip3000)" d="M 0 0 M2244.78 11561.4 Q2215.89 11561.4 2201.26 11589.9 Q2186.81 11618.2 2186.81 11675.3 Q2186.81 11732.1 2201.26 11760.6 Q2215.89 11789 2244.78 11789 Q2273.85 11789 2288.29 11760.6 Q2302.92 11732.1 2302.92 11675.3 Q2302.92 11618.2 2288.29 11589.9 Q2273.85 11561.4 2244.78 11561.4 M2244.78 11531.7 Q2291.26 11531.7 2315.7 11568.6 Q2340.33 11605.3 2340.33 11675.3 Q2340.33 11745.1 2315.7 11781.9 Q2291.26 11818.6 2244.78 11818.6 Q2198.3 11818.6 2173.67 11781.9 Q2149.22 11745.1 2149.22 11675.3 Q2149.22 11605.3 2173.67 11568.6 Q2198.3 11531.7 2244.78 11531.7 Z" fill="#000000" fill-rule="evenodd" fill-opacity="1" /><path clip-path="url(#clip3000)" d="M 0 0 M2380.89 11766.2 L2419.96 11766.2 L2419.96 11813.2 L2380.89 11813.2 L2380.89 11766.2 Z" fill="#000000" fill-rule="evenodd" fill-opacity="1" /><path clip-path="url(#clip3000)" d="M 0 0 M2460.89 11536.7 L2607.74 11536.7 L2607.74 11568.2 L2495.15 11568.2 L2495.15 11636 Q2503.29 11633.2 2511.44 11631.9 Q2519.59 11630.4 2527.74 11630.4 Q2574.03 11630.4 2601.07 11655.8 Q2628.11 11681.2 2628.11 11724.5 Q2628.11 11769.1 2600.33 11794 Q2572.55 11818.6 2522 11818.6 Q2504.59 11818.6 2486.44 11815.6 Q2468.48 11812.7 2449.22 11806.7 L2449.22 11769.1 Q2465.89 11778.2 2483.66 11782.7 Q2501.44 11787.1 2521.26 11787.1 Q2553.29 11787.1 2572 11770.3 Q2590.7 11753.4 2590.7 11724.5 Q2590.7 11695.6 2572 11678.8 Q2553.29 11661.9 2521.26 11661.9 Q2506.26 11661.9 2491.26 11665.3 Q2476.44 11668.6 2460.89 11675.6 L2460.89 11536.7 Z" fill="#000000" fill-rule="evenodd" fill-opacity="1" /><path clip-path="url(#clip3000)" d="M 0 0 M2753.29 11660.1 Q2728.11 11660.1 2713.29 11677.3 Q2698.66 11694.5 2698.66 11724.5 Q2698.66 11754.3 2713.29 11771.7 Q2728.11 11789 2753.29 11789 Q2778.48 11789 2793.11 11771.7 Q2807.92 11754.3 2807.92 11724.5 Q2807.92 11694.5 2793.11 11677.3 Q2778.48 11660.1 2753.29 11660.1 M2827.55 11542.8 L2827.55 11576.9 Q2813.48 11570.3 2799.03 11566.7 Q2784.77 11563.2 2770.7 11563.2 Q2733.66 11563.2 2714.03 11588.2 Q2694.59 11613.2 2691.81 11663.8 Q2702.74 11647.7 2719.22 11639.1 Q2735.7 11630.4 2755.51 11630.4 Q2797.18 11630.4 2821.25 11655.8 Q2845.51 11681 2845.51 11724.5 Q2845.51 11767.1 2820.33 11792.8 Q2795.14 11818.6 2753.29 11818.6 Q2705.33 11818.6 2679.96 11781.9 Q2654.59 11745.1 2654.59 11675.3 Q2654.59 11609.7 2685.7 11570.8 Q2716.81 11531.7 2769.22 11531.7 Q2783.29 11531.7 2797.55 11534.5 Q2812 11537.3 2827.55 11542.8 Z" fill="#000000" fill-rule="evenodd" fill-opacity="1" /><path clip-path="url(#clip3000)" d="M 0 0 M5847.89 11561.4 Q5819 11561.4 5804.37 11589.9 Q5789.92 11618.2 5789.92 11675.3 Q5789.92 11732.1 5804.37 11760.6 Q5819 11789 5847.89 11789 Q5876.96 11789 5891.41 11760.6 Q5906.03 11732.1 5906.03 11675.3 Q5906.03 11618.2 5891.41 11589.9 Q5876.96 11561.4 5847.89 11561.4 M5847.89 11531.7 Q5894.37 11531.7 5918.81 11568.6 Q5943.44 11605.3 5943.44 11675.3 Q5943.44 11745.1 5918.81 11781.9 Q5894.37 11818.6 5847.89 11818.6 Q5801.41 11818.6 5776.78 11781.9 Q5752.33 11745.1 5752.33 11675.3 Q5752.33 11605.3 5776.78 11568.6 Q5801.41 11531.7 5847.89 11531.7 Z" fill="#000000" fill-rule="evenodd" fill-opacity="1" /><path clip-path="url(#clip3000)" d="M 0 0 M5984 11766.2 L6023.07 11766.2 L6023.07 11813.2 L5984 11813.2 L5984 11766.2 Z" fill="#000000" fill-rule="evenodd" fill-opacity="1" /><path clip-path="url(#clip3000)" d="M 0 0 M6064 11536.7 L6210.85 11536.7 L6210.85 11568.2 L6098.26 11568.2 L6098.26 11636 Q6106.4 11633.2 6114.55 11631.9 Q6122.7 11630.4 6130.85 11630.4 Q6177.14 11630.4 6204.18 11655.8 Q6231.22 11681.2 6231.22 11724.5 Q6231.22 11769.1 6203.44 11794 Q6175.66 11818.6 6125.11 11818.6 Q6107.7 11818.6 6089.55 11815.6 Q6071.59 11812.7 6052.33 11806.7 L6052.33 11769.1 Q6069 11778.2 6086.77 11782.7 Q6104.55 11787.1 6124.37 11787.1 Q6156.4 11787.1 6175.11 11770.3 Q6193.81 11753.4 6193.81 11724.5 Q6193.81 11695.6 6175.11 11678.8 Q6156.4 11661.9 6124.37 11661.9 Q6109.37 11661.9 6094.37 11665.3 Q6079.55 11668.6 6064 11675.6 L6064 11536.7 Z" fill="#000000" fill-rule="evenodd" fill-opacity="1" /><path clip-path="url(#clip3000)" d="M 0 0 M6351.77 11681.9 Q6325.11 11681.9 6309.74 11696.2 Q6294.55 11710.4 6294.55 11735.4 Q6294.55 11760.4 6309.74 11774.7 Q6325.11 11789 6351.77 11789 Q6378.44 11789 6393.81 11774.7 Q6409.18 11760.3 6409.18 11735.4 Q6409.18 11710.4 6393.81 11696.2 Q6378.62 11681.9 6351.77 11681.9 M6314.37 11666 Q6290.29 11660.1 6276.77 11643.6 Q6263.44 11627.1 6263.44 11603.4 Q6263.44 11570.3 6286.96 11551 Q6310.66 11531.7 6351.77 11531.7 Q6393.07 11531.7 6416.59 11551 Q6440.11 11570.3 6440.11 11603.4 Q6440.11 11627.1 6426.59 11643.6 Q6413.25 11660.1 6389.37 11666 Q6416.4 11672.3 6431.4 11690.6 Q6446.59 11709 6446.59 11735.4 Q6446.59 11775.6 6421.96 11797.1 Q6397.51 11818.6 6351.77 11818.6 Q6306.03 11818.6 6281.4 11797.1 Q6256.96 11775.6 6256.96 11735.4 Q6256.96 11709 6272.14 11690.6 Q6287.33 11672.3 6314.37 11666 M6300.66 11606.9 Q6300.66 11628.4 6314 11640.4 Q6327.51 11652.5 6351.77 11652.5 Q6375.85 11652.5 6389.37 11640.4 Q6403.07 11628.4 6403.07 11606.9 Q6403.07 11585.4 6389.37 11573.4 Q6375.85 11561.4 6351.77 11561.4 Q6327.51 11561.4 6314 11573.4 Q6300.66 11585.4 6300.66 11606.9 Z" fill="#000000" fill-rule="evenodd" fill-opacity="1" /><path clip-path="url(#clip3000)" d="M 0 0 M9444.98 11561.4 Q9416.09 11561.4 9401.46 11589.9 Q9387.02 11618.2 9387.02 11675.3 Q9387.02 11732.1 9401.46 11760.6 Q9416.09 11789 9444.98 11789 Q9474.05 11789 9488.5 11760.6 Q9503.13 11732.1 9503.13 11675.3 Q9503.13 11618.2 9488.5 11589.9 Q9474.05 11561.4 9444.98 11561.4 M9444.98 11531.7 Q9491.46 11531.7 9515.9 11568.6 Q9540.53 11605.3 9540.53 11675.3 Q9540.53 11745.1 9515.9 11781.9 Q9491.46 11818.6 9444.98 11818.6 Q9398.5 11818.6 9373.87 11781.9 Q9349.42 11745.1 9349.42 11675.3 Q9349.42 11605.3 9373.87 11568.6 Q9398.5 11531.7 9444.98 11531.7 Z" fill="#000000" fill-rule="evenodd" fill-opacity="1" /><path clip-path="url(#clip3000)" d="M 0 0 M9581.09 11766.2 L9620.16 11766.2 L9620.16 11813.2 L9581.09 11813.2 L9581.09 11766.2 Z" fill="#000000" fill-rule="evenodd" fill-opacity="1" /><path clip-path="url(#clip3000)" d="M 0 0 M9745.35 11660.1 Q9720.16 11660.1 9705.35 11677.3 Q9690.72 11694.5 9690.72 11724.5 Q9690.72 11754.3 9705.35 11771.7 Q9720.16 11789 9745.35 11789 Q9770.53 11789 9785.16 11771.7 Q9799.98 11754.3 9799.98 11724.5 Q9799.98 11694.5 9785.16 11677.3 Q9770.53 11660.1 9745.35 11660.1 M9819.61 11542.8 L9819.61 11576.9 Q9805.53 11570.3 9791.09 11566.7 Q9776.83 11563.2 9762.75 11563.2 Q9725.72 11563.2 9706.09 11588.2 Q9686.64 11613.2 9683.87 11663.8 Q9694.79 11647.7 9711.27 11639.1 Q9727.75 11630.4 9747.57 11630.4 Q9789.24 11630.4 9813.31 11655.8 Q9837.57 11681 9837.57 11724.5 Q9837.57 11767.1 9812.38 11792.8 Q9787.2 11818.6 9745.35 11818.6 Q9697.38 11818.6 9672.01 11781.9 Q9646.64 11745.1 9646.64 11675.3 Q9646.64 11609.7 9677.75 11570.8 Q9708.87 11531.7 9761.27 11531.7 Q9775.35 11531.7 9789.61 11534.5 Q9804.05 11537.3 9819.61 11542.8 Z" fill="#000000" fill-rule="evenodd" fill-opacity="1" /><path clip-path="url(#clip3000)" d="M 0 0 M9958.12 11561.4 Q9929.24 11561.4 9914.61 11589.9 Q9900.16 11618.2 9900.16 11675.3 Q9900.16 11732.1 9914.61 11760.6 Q9929.24 11789 9958.12 11789 Q9987.2 11789 10001.6 11760.6 Q10016.3 11732.1 10016.3 11675.3 Q10016.3 11618.2 10001.6 11589.9 Q9987.2 11561.4 9958.12 11561.4 M9958.12 11531.7 Q10004.6 11531.7 10029 11568.6 Q10053.7 11605.3 10053.7 11675.3 Q10053.7 11745.1 10029 11781.9 Q10004.6 11818.6 9958.12 11818.6 Q9911.64 11818.6 9887.01 11781.9 Q9862.57 11745.1 9862.57 11675.3 Q9862.57 11605.3 9887.01 11568.6 Q9911.64 11531.7 9958.12 11531.7 Z" fill="#000000" fill-rule="evenodd" fill-opacity="1" /><path clip-path="url(#clip3000)" d="M 0 0 M13053.5 11561.4 Q13024.6 11561.4 13009.9 11589.9 Q12995.5 11618.2 12995.5 11675.3 Q12995.5 11732.1 13009.9 11760.6 Q13024.6 11789 13053.5 11789 Q13082.5 11789 13097 11760.6 Q13111.6 11732.1 13111.6 11675.3 Q13111.6 11618.2 13097 11589.9 Q13082.5 11561.4 13053.5 11561.4 M13053.5 11531.7 Q13099.9 11531.7 13124.4 11568.6 Q13149 11605.3 13149 11675.3 Q13149 11745.1 13124.4 11781.9 Q13099.9 11818.6 13053.5 11818.6 Q13007 11818.6 12982.3 11781.9 Q12957.9 11745.1 12957.9 11675.3 Q12957.9 11605.3 12982.3 11568.6 Q13007 11531.7 13053.5 11531.7 Z" fill="#000000" fill-rule="evenodd" fill-opacity="1" /><path clip-path="url(#clip3000)" d="M 0 0 M13189.6 11766.2 L13228.6 11766.2 L13228.6 11813.2 L13189.6 11813.2 L13189.6 11766.2 Z" fill="#000000" fill-rule="evenodd" fill-opacity="1" /><path clip-path="url(#clip3000)" d="M 0 0 M13353.8 11660.1 Q13328.6 11660.1 13313.8 11677.3 Q13299.2 11694.5 13299.2 11724.5 Q13299.2 11754.3 13313.8 11771.7 Q13328.6 11789 13353.8 11789 Q13379 11789 13393.6 11771.7 Q13408.5 11754.3 13408.5 11724.5 Q13408.5 11694.5 13393.6 11677.3 Q13379 11660.1 13353.8 11660.1 M13428.1 11542.8 L13428.1 11576.9 Q13414 11570.3 13399.6 11566.7 Q13385.3 11563.2 13371.2 11563.2 Q13334.2 11563.2 13314.6 11588.2 Q13295.1 11613.2 13292.3 11663.8 Q13303.3 11647.7 13319.8 11639.1 Q13336.2 11630.4 13356 11630.4 Q13397.7 11630.4 13421.8 11655.8 Q13446 11681 13446 11724.5 Q13446 11767.1 13420.9 11792.8 Q13395.7 11818.6 13353.8 11818.6 Q13305.9 11818.6 13280.5 11781.9 Q13255.1 11745.1 13255.1 11675.3 Q13255.1 11609.7 13286.2 11570.8 Q13317.3 11531.7 13369.8 11531.7 Q13383.8 11531.7 13398.1 11534.5 Q13412.5 11537.3 13428.1 11542.8 Z" fill="#000000" fill-rule="evenodd" fill-opacity="1" /><path clip-path="url(#clip3000)" d="M 0 0 M13518.8 11781.7 L13649.4 11781.7 L13649.4 11813.2 L13473.8 11813.2 L13473.8 11781.7 Q13495.1 11759.7 13531.8 11722.7 Q13568.6 11685.4 13578.1 11674.7 Q13596 11654.5 13603.1 11640.6 Q13610.3 11626.5 13610.3 11613 Q13610.3 11591 13594.8 11577.1 Q13579.4 11563.2 13554.6 11563.2 Q13537 11563.2 13517.3 11569.3 Q13497.9 11575.4 13475.7 11587.8 L13475.7 11550.1 Q13498.3 11541 13517.9 11536.4 Q13537.5 11531.7 13553.8 11531.7 Q13596.8 11531.7 13622.3 11553.2 Q13647.9 11574.7 13647.9 11610.6 Q13647.9 11627.7 13641.4 11643 Q13635.1 11658.2 13618.3 11679 Q13613.6 11684.3 13588.8 11710.1 Q13564 11735.6 13518.8 11781.7 Z" fill="#000000" fill-rule="evenodd" fill-opacity="1" /><path clip-path="url(#clip3000)" d="M 0 0 M16647.2 11561.4 Q16618.3 11561.4 16603.7 11589.9 Q16589.3 11618.2 16589.3 11675.3 Q16589.3 11732.1 16603.7 11760.6 Q16618.3 11789 16647.2 11789 Q16676.3 11789 16690.7 11760.6 Q16705.4 11732.1 16705.4 11675.3 Q16705.4 11618.2 16690.7 11589.9 Q16676.3 11561.4 16647.2 11561.4 M16647.2 11531.7 Q16693.7 11531.7 16718.1 11568.6 Q16742.8 11605.3 16742.8 11675.3 Q16742.8 11745.1 16718.1 11781.9 Q16693.7 11818.6 16647.2 11818.6 Q16600.7 11818.6 16576.1 11781.9 Q16551.7 11745.1 16551.7 11675.3 Q16551.7 11605.3 16576.1 11568.6 Q16600.7 11531.7 16647.2 11531.7 Z" fill="#000000" fill-rule="evenodd" fill-opacity="1" /><path clip-path="url(#clip3000)" d="M 0 0 M16783.3 11766.2 L16822.4 11766.2 L16822.4 11813.2 L16783.3 11813.2 L16783.3 11766.2 Z" fill="#000000" fill-rule="evenodd" fill-opacity="1" /><path clip-path="url(#clip3000)" d="M 0 0 M16947.6 11660.1 Q16922.4 11660.1 16907.6 11677.3 Q16893 11694.5 16893 11724.5 Q16893 11754.3 16907.6 11771.7 Q16922.4 11789 16947.6 11789 Q16972.8 11789 16987.4 11771.7 Q17002.2 11754.3 17002.2 11724.5 Q17002.2 11694.5 16987.4 11677.3 Q16972.8 11660.1 16947.6 11660.1 M17021.8 11542.8 L17021.8 11576.9 Q17007.8 11570.3 16993.3 11566.7 Q16979.1 11563.2 16965 11563.2 Q16928 11563.2 16908.3 11588.2 Q16888.9 11613.2 16886.1 11663.8 Q16897 11647.7 16913.5 11639.1 Q16930 11630.4 16949.8 11630.4 Q16991.5 11630.4 17015.5 11655.8 Q17039.8 11681 17039.8 11724.5 Q17039.8 11767.1 17014.6 11792.8 Q16989.4 11818.6 16947.6 11818.6 Q16899.6 11818.6 16874.3 11781.9 Q16848.9 11745.1 16848.9 11675.3 Q16848.9 11609.7 16880 11570.8 Q16911.1 11531.7 16963.5 11531.7 Q16977.6 11531.7 16991.8 11534.5 Q17006.3 11537.3 17021.8 11542.8 Z" fill="#000000" fill-rule="evenodd" fill-opacity="1" /><path clip-path="url(#clip3000)" d="M 0 0 M17183.1 11569.3 L17088.7 11716.9 L17183.1 11716.9 L17183.1 11569.3 M17173.3 11536.7 L17220.4 11536.7 L17220.4 11716.9 L17259.8 11716.9 L17259.8 11748 L17220.4 11748 L17220.4 11813.2 L17183.1 11813.2 L17183.1 11748 L17058.3 11748 L17058.3 11711.9 L17173.3 11536.7 Z" fill="#000000" fill-rule="evenodd" fill-opacity="1" /><path clip-path="url(#clip3000)" d="M 0 0 M1010.08 9646.57 L1109.9 9646.57 L1109.9 9676.94 L1010.08 9676.94 L1010.08 9646.57 Z" fill="#000000" fill-rule="evenodd" fill-opacity="1" /><path clip-path="url(#clip3000)" d="M 0 0 M1230.45 9513.8 Q1201.56 9513.8 1186.93 9542.32 Q1172.49 9570.65 1172.49 9627.69 Q1172.49 9684.54 1186.93 9713.06 Q1201.56 9741.39 1230.45 9741.39 Q1259.52 9741.39 1273.97 9713.06 Q1288.6 9684.54 1288.6 9627.69 Q1288.6 9570.65 1273.97 9542.32 Q1259.52 9513.8 1230.45 9513.8 M1230.45 9484.17 Q1276.93 9484.17 1301.38 9521.02 Q1326.01 9557.69 1326.01 9627.69 Q1326.01 9697.5 1301.38 9734.35 Q1276.93 9771.02 1230.45 9771.02 Q1183.97 9771.02 1159.34 9734.35 Q1134.9 9697.5 1134.9 9627.69 Q1134.9 9557.69 1159.34 9521.02 Q1183.97 9484.17 1230.45 9484.17 Z" fill="#000000" fill-rule="evenodd" fill-opacity="1" /><path clip-path="url(#clip3000)" d="M 0 0 M1366.56 9718.61 L1405.63 9718.61 L1405.63 9765.65 L1366.56 9765.65 L1366.56 9718.61 Z" fill="#000000" fill-rule="evenodd" fill-opacity="1" /><path clip-path="url(#clip3000)" d="M 0 0 M1446.56 9489.17 L1593.41 9489.17 L1593.41 9520.65 L1480.82 9520.65 L1480.82 9588.43 Q1488.97 9585.65 1497.12 9584.35 Q1505.26 9582.87 1513.41 9582.87 Q1559.71 9582.87 1586.74 9608.24 Q1613.78 9633.61 1613.78 9676.94 Q1613.78 9721.57 1586 9746.39 Q1558.23 9771.02 1507.67 9771.02 Q1490.26 9771.02 1472.12 9768.06 Q1454.15 9765.09 1434.89 9759.17 L1434.89 9721.57 Q1451.56 9730.65 1469.34 9735.09 Q1487.12 9739.54 1506.93 9739.54 Q1538.97 9739.54 1557.67 9722.69 Q1576.37 9705.83 1576.37 9676.94 Q1576.37 9648.06 1557.67 9631.2 Q1538.97 9614.35 1506.93 9614.35 Q1491.93 9614.35 1476.93 9617.69 Q1462.12 9621.02 1446.56 9628.06 L1446.56 9489.17 Z" fill="#000000" fill-rule="evenodd" fill-opacity="1" /><path clip-path="url(#clip3000)" d="M 0 0 M1734.34 9513.8 Q1705.45 9513.8 1690.82 9542.32 Q1676.37 9570.65 1676.37 9627.69 Q1676.37 9684.54 1690.82 9713.06 Q1705.45 9741.39 1734.34 9741.39 Q1763.41 9741.39 1777.85 9713.06 Q1792.48 9684.54 1792.48 9627.69 Q1792.48 9570.65 1777.85 9542.32 Q1763.41 9513.8 1734.34 9513.8 M1734.34 9484.17 Q1780.82 9484.17 1805.26 9521.02 Q1829.89 9557.69 1829.89 9627.69 Q1829.89 9697.5 1805.26 9734.35 Q1780.82 9771.02 1734.34 9771.02 Q1687.86 9771.02 1663.23 9734.35 Q1638.78 9697.5 1638.78 9627.69 Q1638.78 9557.69 1663.23 9521.02 Q1687.86 9484.17 1734.34 9484.17 Z" fill="#000000" fill-rule="evenodd" fill-opacity="1" /><path clip-path="url(#clip3000)" d="M 0 0 M1022.86 7858.13 L1122.67 7858.13 L1122.67 7888.5 L1022.86 7888.5 L1022.86 7858.13 Z" fill="#000000" fill-rule="evenodd" fill-opacity="1" /><path clip-path="url(#clip3000)" d="M 0 0 M1243.23 7725.35 Q1214.34 7725.35 1199.71 7753.87 Q1185.27 7782.2 1185.27 7839.24 Q1185.27 7896.09 1199.71 7924.61 Q1214.34 7952.94 1243.23 7952.94 Q1272.3 7952.94 1286.75 7924.61 Q1301.38 7896.09 1301.38 7839.24 Q1301.38 7782.2 1286.75 7753.87 Q1272.3 7725.35 1243.23 7725.35 M1243.23 7695.72 Q1289.71 7695.72 1314.15 7732.57 Q1338.78 7769.24 1338.78 7839.24 Q1338.78 7909.06 1314.15 7945.91 Q1289.71 7982.57 1243.23 7982.57 Q1196.75 7982.57 1172.12 7945.91 Q1147.67 7909.06 1147.67 7839.24 Q1147.67 7769.24 1172.12 7732.57 Q1196.75 7695.72 1243.23 7695.72 Z" fill="#000000" fill-rule="evenodd" fill-opacity="1" /><path clip-path="url(#clip3000)" d="M 0 0 M1379.34 7930.17 L1418.41 7930.17 L1418.41 7977.2 L1379.34 7977.2 L1379.34 7930.17 Z" fill="#000000" fill-rule="evenodd" fill-opacity="1" /><path clip-path="url(#clip3000)" d="M 0 0 M1491.19 7945.72 L1621.74 7945.72 L1621.74 7977.2 L1446.19 7977.2 L1446.19 7945.72 Q1467.49 7923.68 1504.15 7886.65 Q1541 7849.43 1550.45 7838.69 Q1568.41 7818.5 1575.45 7804.61 Q1582.67 7790.54 1582.67 7777.02 Q1582.67 7754.98 1567.12 7741.09 Q1551.75 7727.2 1526.93 7727.2 Q1509.34 7727.2 1489.71 7733.32 Q1470.26 7739.43 1448.04 7751.83 L1448.04 7714.06 Q1470.63 7704.98 1490.26 7700.35 Q1509.89 7695.72 1526.19 7695.72 Q1569.15 7695.72 1594.71 7717.2 Q1620.26 7738.69 1620.26 7774.61 Q1620.26 7791.65 1613.78 7807.02 Q1607.49 7822.2 1590.63 7842.94 Q1586 7848.31 1561.19 7874.06 Q1536.37 7899.61 1491.19 7945.72 Z" fill="#000000" fill-rule="evenodd" fill-opacity="1" /><path clip-path="url(#clip3000)" d="M 0 0 M1662.67 7700.72 L1809.52 7700.72 L1809.52 7732.2 L1696.93 7732.2 L1696.93 7799.98 Q1705.08 7797.2 1713.23 7795.91 Q1721.37 7794.43 1729.52 7794.43 Q1775.82 7794.43 1802.85 7819.8 Q1829.89 7845.17 1829.89 7888.5 Q1829.89 7933.13 1802.11 7957.94 Q1774.34 7982.57 1723.78 7982.57 Q1706.37 7982.57 1688.23 7979.61 Q1670.26 7976.65 1651 7970.72 L1651 7933.13 Q1667.67 7942.2 1685.45 7946.65 Q1703.23 7951.09 1723.04 7951.09 Q1755.08 7951.09 1773.78 7934.24 Q1792.48 7917.39 1792.48 7888.5 Q1792.48 7859.61 1773.78 7842.76 Q1755.08 7825.91 1723.04 7825.91 Q1708.04 7825.91 1693.04 7829.24 Q1678.23 7832.57 1662.67 7839.61 L1662.67 7700.72 Z" fill="#000000" fill-rule="evenodd" fill-opacity="1" /><path clip-path="url(#clip3000)" d="M 0 0 M1222.49 5936.91 Q1193.6 5936.91 1178.97 5965.43 Q1164.52 5993.76 1164.52 6050.8 Q1164.52 6107.65 1178.97 6136.17 Q1193.6 6164.5 1222.49 6164.5 Q1251.56 6164.5 1266.01 6136.17 Q1280.64 6107.65 1280.64 6050.8 Q1280.64 5993.76 1266.01 5965.43 Q1251.56 5936.91 1222.49 5936.91 M1222.49 5907.28 Q1268.97 5907.28 1293.41 5944.13 Q1318.04 5980.8 1318.04 6050.8 Q1318.04 6120.61 1293.41 6157.46 Q1268.97 6194.13 1222.49 6194.13 Q1176.01 6194.13 1151.38 6157.46 Q1126.93 6120.61 1126.93 6050.8 Q1126.93 5980.8 1151.38 5944.13 Q1176.01 5907.28 1222.49 5907.28 Z" fill="#000000" fill-rule="evenodd" fill-opacity="1" /><path clip-path="url(#clip3000)" d="M 0 0 M1358.6 6141.72 L1397.67 6141.72 L1397.67 6188.76 L1358.6 6188.76 L1358.6 6141.72 Z" fill="#000000" fill-rule="evenodd" fill-opacity="1" /><path clip-path="url(#clip3000)" d="M 0 0 M1518.23 5936.91 Q1489.34 5936.91 1474.71 5965.43 Q1460.26 5993.76 1460.26 6050.8 Q1460.26 6107.65 1474.71 6136.17 Q1489.34 6164.5 1518.23 6164.5 Q1547.3 6164.5 1561.74 6136.17 Q1576.37 6107.65 1576.37 6050.8 Q1576.37 5993.76 1561.74 5965.43 Q1547.3 5936.91 1518.23 5936.91 M1518.23 5907.28 Q1564.71 5907.28 1589.15 5944.13 Q1613.78 5980.8 1613.78 6050.8 Q1613.78 6120.61 1589.15 6157.46 Q1564.71 6194.13 1518.23 6194.13 Q1471.75 6194.13 1447.12 6157.46 Q1422.67 6120.61 1422.67 6050.8 Q1422.67 5980.8 1447.12 5944.13 Q1471.75 5907.28 1518.23 5907.28 Z" fill="#000000" fill-rule="evenodd" fill-opacity="1" /><path clip-path="url(#clip3000)" d="M 0 0 M1734.34 5936.91 Q1705.45 5936.91 1690.82 5965.43 Q1676.37 5993.76 1676.37 6050.8 Q1676.37 6107.65 1690.82 6136.17 Q1705.45 6164.5 1734.34 6164.5 Q1763.41 6164.5 1777.85 6136.17 Q1792.48 6107.65 1792.48 6050.8 Q1792.48 5993.76 1777.85 5965.43 Q1763.41 5936.91 1734.34 5936.91 M1734.34 5907.28 Q1780.82 5907.28 1805.26 5944.13 Q1829.89 5980.8 1829.89 6050.8 Q1829.89 6120.61 1805.26 6157.46 Q1780.82 6194.13 1734.34 6194.13 Q1687.86 6194.13 1663.23 6157.46 Q1638.78 6120.61 1638.78 6050.8 Q1638.78 5980.8 1663.23 5944.13 Q1687.86 5907.28 1734.34 5907.28 Z" fill="#000000" fill-rule="evenodd" fill-opacity="1" /><path clip-path="url(#clip3000)" d="M 0 0 M1243.23 4148.46 Q1214.34 4148.46 1199.71 4176.98 Q1185.27 4205.31 1185.27 4262.35 Q1185.27 4319.2 1199.71 4347.72 Q1214.34 4376.05 1243.23 4376.05 Q1272.3 4376.05 1286.75 4347.72 Q1301.38 4319.2 1301.38 4262.35 Q1301.38 4205.31 1286.75 4176.98 Q1272.3 4148.46 1243.23 4148.46 M1243.23 4118.83 Q1289.71 4118.83 1314.15 4155.68 Q1338.78 4192.35 1338.78 4262.35 Q1338.78 4332.16 1314.15 4369.02 Q1289.71 4405.68 1243.23 4405.68 Q1196.75 4405.68 1172.12 4369.02 Q1147.67 4332.16 1147.67 4262.35 Q1147.67 4192.35 1172.12 4155.68 Q1196.75 4118.83 1243.23 4118.83 Z" fill="#000000" fill-rule="evenodd" fill-opacity="1" /><path clip-path="url(#clip3000)" d="M 0 0 M1379.34 4353.28 L1418.41 4353.28 L1418.41 4400.31 L1379.34 4400.31 L1379.34 4353.28 Z" fill="#000000" fill-rule="evenodd" fill-opacity="1" /><path clip-path="url(#clip3000)" d="M 0 0 M1491.19 4368.83 L1621.74 4368.83 L1621.74 4400.31 L1446.19 4400.31 L1446.19 4368.83 Q1467.49 4346.79 1504.15 4309.76 Q1541 4272.54 1550.45 4261.79 Q1568.41 4241.61 1575.45 4227.72 Q1582.67 4213.65 1582.67 4200.13 Q1582.67 4178.09 1567.12 4164.2 Q1551.75 4150.31 1526.93 4150.31 Q1509.34 4150.31 1489.71 4156.43 Q1470.26 4162.54 1448.04 4174.94 L1448.04 4137.17 Q1470.63 4128.09 1490.26 4123.46 Q1509.89 4118.83 1526.19 4118.83 Q1569.15 4118.83 1594.71 4140.31 Q1620.26 4161.8 1620.26 4197.72 Q1620.26 4214.76 1613.78 4230.13 Q1607.49 4245.31 1590.63 4266.05 Q1586 4271.42 1561.19 4297.17 Q1536.37 4322.72 1491.19 4368.83 Z" fill="#000000" fill-rule="evenodd" fill-opacity="1" /><path clip-path="url(#clip3000)" d="M 0 0 M1662.67 4123.83 L1809.52 4123.83 L1809.52 4155.31 L1696.93 4155.31 L1696.93 4223.09 Q1705.08 4220.31 1713.23 4219.02 Q1721.37 4217.54 1729.52 4217.54 Q1775.82 4217.54 1802.85 4242.91 Q1829.89 4268.28 1829.89 4311.61 Q1829.89 4356.24 1802.11 4381.05 Q1774.34 4405.68 1723.78 4405.68 Q1706.37 4405.68 1688.23 4402.72 Q1670.26 4399.76 1651 4393.83 L1651 4356.24 Q1667.67 4365.31 1685.45 4369.76 Q1703.23 4374.2 1723.04 4374.2 Q1755.08 4374.2 1773.78 4357.35 Q1792.48 4340.5 1792.48 4311.61 Q1792.48 4282.72 1773.78 4265.87 Q1755.08 4249.02 1723.04 4249.02 Q1708.04 4249.02 1693.04 4252.35 Q1678.23 4255.68 1662.67 4262.72 L1662.67 4123.83 Z" fill="#000000" fill-rule="evenodd" fill-opacity="1" /><path clip-path="url(#clip3000)" d="M 0 0 M1230.45 2360.02 Q1201.56 2360.02 1186.93 2388.54 Q1172.49 2416.87 1172.49 2473.91 Q1172.49 2530.76 1186.93 2559.28 Q1201.56 2587.61 1230.45 2587.61 Q1259.52 2587.61 1273.97 2559.28 Q1288.6 2530.76 1288.6 2473.91 Q1288.6 2416.87 1273.97 2388.54 Q1259.52 2360.02 1230.45 2360.02 M1230.45 2330.39 Q1276.93 2330.39 1301.38 2367.24 Q1326.01 2403.91 1326.01 2473.91 Q1326.01 2543.72 1301.38 2580.57 Q1276.93 2617.24 1230.45 2617.24 Q1183.97 2617.24 1159.34 2580.57 Q1134.9 2543.72 1134.9 2473.91 Q1134.9 2403.91 1159.34 2367.24 Q1183.97 2330.39 1230.45 2330.39 Z" fill="#000000" fill-rule="evenodd" fill-opacity="1" /><path clip-path="url(#clip3000)" d="M 0 0 M1366.56 2564.83 L1405.63 2564.83 L1405.63 2611.87 L1366.56 2611.87 L1366.56 2564.83 Z" fill="#000000" fill-rule="evenodd" fill-opacity="1" /><path clip-path="url(#clip3000)" d="M 0 0 M1446.56 2335.39 L1593.41 2335.39 L1593.41 2366.87 L1480.82 2366.87 L1480.82 2434.65 Q1488.97 2431.87 1497.12 2430.57 Q1505.26 2429.09 1513.41 2429.09 Q1559.71 2429.09 1586.74 2454.46 Q1613.78 2479.83 1613.78 2523.16 Q1613.78 2567.79 1586 2592.61 Q1558.23 2617.24 1507.67 2617.24 Q1490.26 2617.24 1472.12 2614.27 Q1454.15 2611.31 1434.89 2605.39 L1434.89 2567.79 Q1451.56 2576.87 1469.34 2581.31 Q1487.12 2585.76 1506.93 2585.76 Q1538.97 2585.76 1557.67 2568.9 Q1576.37 2552.05 1576.37 2523.16 Q1576.37 2494.28 1557.67 2477.42 Q1538.97 2460.57 1506.93 2460.57 Q1491.93 2460.57 1476.93 2463.91 Q1462.12 2467.24 1446.56 2474.28 L1446.56 2335.39 Z" fill="#000000" fill-rule="evenodd" fill-opacity="1" /><path clip-path="url(#clip3000)" d="M 0 0 M1734.34 2360.02 Q1705.45 2360.02 1690.82 2388.54 Q1676.37 2416.87 1676.37 2473.91 Q1676.37 2530.76 1690.82 2559.28 Q1705.45 2587.61 1734.34 2587.61 Q1763.41 2587.61 1777.85 2559.28 Q1792.48 2530.76 1792.48 2473.91 Q1792.48 2416.87 1777.85 2388.54 Q1763.41 2360.02 1734.34 2360.02 M1734.34 2330.39 Q1780.82 2330.39 1805.26 2367.24 Q1829.89 2403.91 1829.89 2473.91 Q1829.89 2543.72 1805.26 2580.57 Q1780.82 2617.24 1734.34 2617.24 Q1687.86 2617.24 1663.23 2580.57 Q1638.78 2543.72 1638.78 2473.91 Q1638.78 2403.91 1663.23 2367.24 Q1687.86 2330.39 1734.34 2330.39 Z" fill="#000000" fill-rule="evenodd" fill-opacity="1" /><path clip-path="url(#clip3000)" d="M 0 0 M4924.24 228.341 L4924.24 284.73 Q4898.97 271.767 4871.74 265.286 Q4844.52 258.804 4815.36 258.804 Q4770.96 258.804 4748.6 272.415 Q4726.56 286.026 4726.56 313.248 Q4726.56 333.989 4742.44 345.98 Q4758.32 357.646 4806.28 368.341 L4826.7 372.878 Q4890.22 386.489 4916.79 411.442 Q4943.69 436.072 4943.69 480.47 Q4943.69 531.025 4903.5 560.516 Q4863.64 590.006 4793.64 590.006 Q4764.48 590.006 4732.72 584.173 Q4701.28 578.664 4666.28 567.321 L4666.28 505.747 Q4699.34 522.923 4731.42 531.673 Q4763.5 540.099 4794.94 540.099 Q4837.07 540.099 4859.75 525.84 Q4882.44 511.257 4882.44 485.007 Q4882.44 460.701 4865.91 447.738 Q4849.71 434.775 4794.29 422.785 L4773.55 417.924 Q4718.13 406.257 4693.5 382.276 Q4668.88 357.97 4668.88 315.841 Q4668.88 264.637 4705.17 236.767 Q4741.47 208.897 4808.23 208.897 Q4841.28 208.897 4870.45 213.758 Q4899.61 218.619 4924.24 228.341 Z" fill="#000000" fill-rule="evenodd" fill-opacity="1" /><path clip-path="url(#clip3000)" d="M 0 0 M5006.23 217.647 L5065.86 217.647 L5065.86 580.608 L5006.23 580.608 L5006.23 217.647 M5006.23 76.3514 L5065.86 76.3514 L5065.86 151.86 L5006.23 151.86 L5006.23 76.3514 Z" fill="#000000" fill-rule="evenodd" fill-opacity="1" /><path clip-path="url(#clip3000)" d="M 0 0 M5102.48 217.647 L5385.72 217.647 L5385.72 272.091 L5161.47 532.969 L5385.72 532.969 L5385.72 580.608 L5094.38 580.608 L5094.38 526.164 L5318.64 265.286 L5102.48 265.286 L5102.48 217.647 Z" fill="#000000" fill-rule="evenodd" fill-opacity="1" /><path clip-path="url(#clip3000)" d="M 0 0 M5758.73 384.22 L5758.73 413.387 L5484.57 413.387 Q5488.45 474.96 5521.51 507.368 Q5554.89 539.451 5614.19 539.451 Q5648.55 539.451 5680.63 531.025 Q5713.04 522.599 5744.8 505.747 L5744.8 562.136 Q5712.71 575.747 5679.01 582.877 Q5645.31 590.006 5610.63 590.006 Q5523.78 590.006 5472.9 539.451 Q5422.34 488.896 5422.34 402.692 Q5422.34 313.572 5470.31 261.397 Q5518.59 208.897 5600.26 208.897 Q5673.5 208.897 5715.95 256.212 Q5758.73 303.202 5758.73 384.22 M5699.1 366.72 Q5698.45 317.785 5671.56 288.619 Q5644.98 259.452 5600.91 259.452 Q5551 259.452 5520.86 287.647 Q5491.05 315.841 5486.51 367.044 L5699.1 366.72 Z" fill="#000000" fill-rule="evenodd" fill-opacity="1" /><path clip-path="url(#clip3000)" d="M 0 0 M5836.51 498.294 L5904.89 498.294 L5904.89 580.608 L5836.51 580.608 L5836.51 498.294 M5836.51 237.415 L5904.89 237.415 L5904.89 319.73 L5836.51 319.73 L5836.51 237.415 Z" fill="#000000" fill-rule="evenodd" fill-opacity="1" /><path clip-path="url(#clip3000)" d="M 0 0 M6123.96 312.6 Q6079.89 312.6 6053.96 342.739 Q6028.36 372.878 6028.36 425.377 Q6028.36 477.553 6053.96 508.016 Q6079.89 538.155 6123.96 538.155 Q6168.03 538.155 6193.64 508.016 Q6219.56 477.553 6219.56 425.377 Q6219.56 372.878 6193.64 342.739 Q6168.03 312.6 6123.96 312.6 M6253.91 107.462 L6253.91 167.092 Q6229.28 155.425 6204.01 149.268 Q6179.05 143.11 6154.42 143.11 Q6089.61 143.11 6055.26 186.86 Q6021.23 230.61 6016.37 319.082 Q6035.49 290.887 6064.33 275.98 Q6093.17 260.749 6127.85 260.749 Q6200.77 260.749 6242.89 305.147 Q6285.35 349.22 6285.35 425.377 Q6285.35 499.914 6241.27 544.96 Q6197.2 590.006 6123.96 590.006 Q6040.03 590.006 5995.63 525.84 Q5951.23 461.349 5951.23 339.174 Q5951.23 224.453 6005.67 156.397 Q6060.12 88.018 6151.83 88.018 Q6176.46 88.018 6201.41 92.8791 Q6226.69 97.7402 6253.91 107.462 Z" fill="#000000" fill-rule="evenodd" fill-opacity="1" /><path clip-path="url(#clip3000)" d="M 0 0 M6363.13 498.294 L6431.5 498.294 L6431.5 554.034 L6378.36 657.737 L6336.55 657.737 L6363.13 554.034 L6363.13 498.294 Z" fill="#000000" fill-rule="evenodd" fill-opacity="1" /><path clip-path="url(#clip3000)" d="M 0 0 M6642.48 350.841 Q6595.81 350.841 6568.91 375.794 Q6542.34 400.748 6542.34 444.498 Q6542.34 488.247 6568.91 513.201 Q6595.81 538.155 6642.48 538.155 Q6689.14 538.155 6716.04 513.201 Q6742.94 487.923 6742.94 444.498 Q6742.94 400.748 6716.04 375.794 Q6689.47 350.841 6642.48 350.841 M6577.01 322.97 Q6534.88 312.6 6511.23 283.758 Q6487.89 254.915 6487.89 213.434 Q6487.89 155.425 6529.05 121.722 Q6570.53 88.018 6642.48 88.018 Q6714.74 88.018 6755.9 121.722 Q6797.06 155.425 6797.06 213.434 Q6797.06 254.915 6773.4 283.758 Q6750.07 312.6 6708.26 322.97 Q6755.58 333.989 6781.83 366.072 Q6808.4 398.155 6808.4 444.498 Q6808.4 514.821 6765.3 552.414 Q6722.52 590.006 6642.48 590.006 Q6562.43 590.006 6519.33 552.414 Q6476.55 514.821 6476.55 444.498 Q6476.55 398.155 6503.12 366.072 Q6529.7 333.989 6577.01 322.97 M6553.03 219.591 Q6553.03 257.184 6576.37 278.249 Q6600.02 299.313 6642.48 299.313 Q6684.61 299.313 6708.26 278.249 Q6732.24 257.184 6732.24 219.591 Q6732.24 181.999 6708.26 160.934 Q6684.61 139.87 6642.48 139.87 Q6600.02 139.87 6576.37 160.934 Q6553.03 181.999 6553.03 219.591 Z" fill="#000000" fill-rule="evenodd" fill-opacity="1" /><path clip-path="url(#clip3000)" d="M 0 0 M6886.18 498.294 L6954.56 498.294 L6954.56 554.034 L6901.41 657.737 L6859.6 657.737 L6886.18 554.034 L6886.18 498.294 Z" fill="#000000" fill-rule="evenodd" fill-opacity="1" /><path clip-path="url(#clip3000)" d="M 0 0 M7036.87 525.516 L7143.82 525.516 L7143.82 156.397 L7027.47 179.731 L7027.47 120.101 L7143.17 96.768 L7208.63 96.768 L7208.63 525.516 L7315.57 525.516 L7315.57 580.608 L7036.87 580.608 L7036.87 525.516 Z" fill="#000000" fill-rule="evenodd" fill-opacity="1" /><path clip-path="url(#clip3000)" d="M 0 0 M7526.55 139.87 Q7475.99 139.87 7450.39 189.777 Q7425.11 239.36 7425.11 339.174 Q7425.11 438.664 7450.39 488.571 Q7475.99 538.155 7526.55 538.155 Q7577.42 538.155 7602.7 488.571 Q7628.3 438.664 7628.3 339.174 Q7628.3 239.36 7602.7 189.777 Q7577.42 139.87 7526.55 139.87 M7526.55 88.018 Q7607.89 88.018 7650.66 152.508 Q7693.77 216.675 7693.77 339.174 Q7693.77 461.349 7650.66 525.84 Q7607.89 590.006 7526.55 590.006 Q7445.2 590.006 7402.1 525.84 Q7359.32 461.349 7359.32 339.174 Q7359.32 216.675 7402.1 152.508 Q7445.2 88.018 7526.55 88.018 Z" fill="#000000" fill-rule="evenodd" fill-opacity="1" /><path clip-path="url(#clip3000)" d="M 0 0 M7771.54 498.294 L7839.92 498.294 L7839.92 554.034 L7786.78 657.737 L7744.97 657.737 L7771.54 554.034 L7771.54 498.294 Z" fill="#000000" fill-rule="evenodd" fill-opacity="1" /><path clip-path="url(#clip3000)" d="M 0 0 M7922.24 525.516 L8029.18 525.516 L8029.18 156.397 L7912.84 179.731 L7912.84 120.101 L8028.53 96.768 L8094 96.768 L8094 525.516 L8200.94 525.516 L8200.94 580.608 L7922.24 580.608 L7922.24 525.516 Z" fill="#000000" fill-rule="evenodd" fill-opacity="1" /><path clip-path="url(#clip3000)" d="M 0 0 M8328.3 525.516 L8556.77 525.516 L8556.77 580.608 L8249.55 580.608 L8249.55 525.516 Q8286.82 486.951 8350.99 422.137 Q8415.48 356.998 8432 338.202 Q8463.44 302.878 8475.75 278.573 Q8488.39 253.943 8488.39 230.286 Q8488.39 191.721 8461.17 167.416 Q8434.27 143.11 8390.85 143.11 Q8360.06 143.11 8325.71 153.805 Q8291.68 164.499 8252.79 186.212 L8252.79 120.101 Q8292.33 104.222 8326.68 96.1199 Q8361.03 88.018 8389.55 88.018 Q8464.73 88.018 8509.46 125.61 Q8554.18 163.203 8554.18 226.073 Q8554.18 255.888 8542.84 282.786 Q8531.82 309.359 8502.33 345.656 Q8494.23 355.054 8450.8 400.1 Q8407.37 444.822 8328.3 525.516 Z" fill="#000000" fill-rule="evenodd" fill-opacity="1" /><path clip-path="url(#clip3000)" d="M 0 0 M8634.55 498.294 L8702.93 498.294 L8702.93 554.034 L8649.78 657.737 L8607.97 657.737 L8634.55 554.034 L8634.55 498.294 Z" fill="#000000" fill-rule="evenodd" fill-opacity="1" /><path clip-path="url(#clip3000)" d="M 0 0 M8785.24 525.516 L8892.19 525.516 L8892.19 156.397 L8775.84 179.731 L8775.84 120.101 L8891.54 96.768 L8957 96.768 L8957 525.516 L9063.94 525.516 L9063.94 580.608 L8785.24 580.608 L8785.24 525.516 Z" fill="#000000" fill-rule="evenodd" fill-opacity="1" /><path clip-path="url(#clip3000)" d="M 0 0 M9314.78 153.805 L9149.5 412.09 L9314.78 412.09 L9314.78 153.805 M9297.6 96.768 L9379.91 96.768 L9379.91 412.09 L9448.94 412.09 L9448.94 466.535 L9379.91 466.535 L9379.91 580.608 L9314.78 580.608 L9314.78 466.535 L9096.35 466.535 L9096.35 403.34 L9297.6 96.768 Z" fill="#000000" fill-rule="evenodd" fill-opacity="1" /><path clip-path="url(#clip3000)" d="M 0 0 M9526.72 498.294 L9595.1 498.294 L9595.1 554.034 L9541.95 657.737 L9500.15 657.737 L9526.72 554.034 L9526.72 498.294 Z" fill="#000000" fill-rule="evenodd" fill-opacity="1" /><path clip-path="url(#clip3000)" d="M 0 0 M9677.41 525.516 L9784.36 525.516 L9784.36 156.397 L9668.02 179.731 L9668.02 120.101 L9783.71 96.768 L9849.17 96.768 L9849.17 525.516 L9956.12 525.516 L9956.12 580.608 L9677.41 580.608 L9677.41 525.516 Z" fill="#000000" fill-rule="evenodd" fill-opacity="1" /><path clip-path="url(#clip3000)" d="M 0 0 M10175.2 312.6 Q10131.1 312.6 10105.2 342.739 Q10079.6 372.878 10079.6 425.377 Q10079.6 477.553 10105.2 508.016 Q10131.1 538.155 10175.2 538.155 Q10219.3 538.155 10244.9 508.016 Q10270.8 477.553 10270.8 425.377 Q10270.8 372.878 10244.9 342.739 Q10219.3 312.6 10175.2 312.6 M10305.1 107.462 L10305.1 167.092 Q10280.5 155.425 10255.2 149.268 Q10230.3 143.11 10205.7 143.11 Q10140.8 143.11 10106.5 186.86 Q10072.5 230.61 10067.6 319.082 Q10086.7 290.887 10115.6 275.98 Q10144.4 260.749 10179.1 260.749 Q10252 260.749 10294.1 305.147 Q10336.6 349.22 10336.6 425.377 Q10336.6 499.914 10292.5 544.96 Q10248.4 590.006 10175.2 590.006 Q10091.3 590.006 10046.9 525.84 Q10002.5 461.349 10002.5 339.174 Q10002.5 224.453 10056.9 156.397 Q10111.3 88.018 10203.1 88.018 Q10227.7 88.018 10252.6 92.8791 Q10277.9 97.7402 10305.1 107.462 Z" fill="#000000" fill-rule="evenodd" fill-opacity="1" /><path clip-path="url(#clip3000)" d="M 0 0 M10414.4 237.415 L10482.7 237.415 L10482.7 319.73 L10414.4 319.73 L10414.4 237.415 M10414.4 498.294 L10482.7 498.294 L10482.7 554.034 L10429.6 657.737 L10387.8 657.737 L10414.4 554.034 L10414.4 498.294 Z" fill="#000000" fill-rule="evenodd" fill-opacity="1" /><path clip-path="url(#clip3000)" d="M 0 0 M10955.2 141.166 Q10883.9 141.166 10841.8 194.314 Q10800 247.462 10800 339.174 Q10800 430.563 10841.8 483.71 Q10883.9 536.858 10955.2 536.858 Q11026.5 536.858 11068 483.71 Q11109.8 430.563 11109.8 339.174 Q11109.8 247.462 11068 194.314 Q11026.5 141.166 10955.2 141.166 M11046.9 571.858 L11133.1 666.163 L11054.1 666.163 L10982.5 588.71 Q10971.8 589.358 10965.9 589.682 Q10960.4 590.006 10955.2 590.006 Q10853.1 590.006 10791.9 521.951 Q10731 453.572 10731 339.174 Q10731 224.453 10791.9 156.397 Q10853.1 88.018 10955.2 88.018 Q11057 88.018 11117.9 156.397 Q11178.8 224.453 11178.8 339.174 Q11178.8 423.433 11144.8 483.386 Q11111.1 543.34 11046.9 571.858 Z" fill="#000000" fill-rule="evenodd" fill-opacity="1" /><path clip-path="url(#clip3000)" d="M 0 0 M11460.1 279.221 L11875.6 279.221 L11875.6 333.665 L11460.1 333.665 L11460.1 279.221 M11460.1 411.442 L11875.6 411.442 L11875.6 466.535 L11460.1 466.535 L11460.1 411.442 Z" fill="#000000" fill-rule="evenodd" fill-opacity="1" /><path clip-path="url(#clip3000)" d="M 0 0 M12168.9 525.516 L12275.8 525.516 L12275.8 156.397 L12159.5 179.731 L12159.5 120.101 L12275.2 96.768 L12340.6 96.768 L12340.6 525.516 L12447.6 525.516 L12447.6 580.608 L12168.9 580.608 L12168.9 525.516 Z" fill="#000000" fill-rule="evenodd" fill-opacity="1" /><path clip-path="url(#clip3000)" d="M 0 0 M12666.7 312.6 Q12622.6 312.6 12596.7 342.739 Q12571.1 372.878 12571.1 425.377 Q12571.1 477.553 12596.7 508.016 Q12622.6 538.155 12666.7 538.155 Q12710.7 538.155 12736.3 508.016 Q12762.3 477.553 12762.3 425.377 Q12762.3 372.878 12736.3 342.739 Q12710.7 312.6 12666.7 312.6 M12796.6 107.462 L12796.6 167.092 Q12772 155.425 12746.7 149.268 Q12721.7 143.11 12697.1 143.11 Q12632.3 143.11 12598 186.86 Q12563.9 230.61 12559.1 319.082 Q12578.2 290.887 12607 275.98 Q12635.9 260.749 12670.5 260.749 Q12743.5 260.749 12785.6 305.147 Q12828 349.22 12828 425.377 Q12828 499.914 12784 544.96 Q12739.9 590.006 12666.7 590.006 Q12582.7 590.006 12538.3 525.84 Q12493.9 461.349 12493.9 339.174 Q12493.9 224.453 12548.4 156.397 Q12602.8 88.018 12694.5 88.018 Q12719.2 88.018 12744.1 92.8791 Q12769.4 97.7402 12796.6 107.462 Z" fill="#000000" fill-rule="evenodd" fill-opacity="1" /><path clip-path="url(#clip3000)" d="M 0 0 M12905.8 237.415 L12974.2 237.415 L12974.2 319.73 L12905.8 319.73 L12905.8 237.415 M12905.8 498.294 L12974.2 498.294 L12974.2 554.034 L12921.1 657.737 L12879.2 657.737 L12905.8 554.034 L12905.8 498.294 Z" fill="#000000" fill-rule="evenodd" fill-opacity="1" /><path clip-path="url(#clip3000)" d="M 0 0 M13250.3 96.768 L13315.8 96.768 L13315.8 546.904 Q13315.8 634.404 13282.4 673.941 Q13249.3 713.478 13175.8 713.478 L13150.8 713.478 L13150.8 658.385 L13171.2 658.385 Q13214.7 658.385 13232.5 634.08 Q13250.3 609.775 13250.3 546.904 L13250.3 96.768 Z" fill="#000000" fill-rule="evenodd" fill-opacity="1" /><path clip-path="url(#clip3000)" d="M 0 0 M13654.1 690.793 L13654.1 737.135 L13309.3 737.135 L13309.3 690.793 L13654.1 690.793 Z" fill="#000000" fill-rule="evenodd" fill-opacity="1" /><path clip-path="url(#clip3000)" d="M 0 0 M13865.1 139.87 Q13814.5 139.87 13788.9 189.777 Q13763.6 239.36 13763.6 339.174 Q13763.6 438.664 13788.9 488.571 Q13814.5 538.155 13865.1 538.155 Q13916 538.155 13941.2 488.571 Q13966.8 438.664 13966.8 339.174 Q13966.8 239.36 13941.2 189.777 Q13916 139.87 13865.1 139.87 M13865.1 88.018 Q13946.4 88.018 13989.2 152.508 Q14032.3 216.675 14032.3 339.174 Q14032.3 461.349 13989.2 525.84 Q13946.4 590.006 13865.1 590.006 Q13783.7 590.006 13740.6 525.84 Q13697.9 461.349 13697.9 339.174 Q13697.9 216.675 13740.6 152.508 Q13783.7 88.018 13865.1 88.018 Z" fill="#000000" fill-rule="evenodd" fill-opacity="1" /><path clip-path="url(#clip3000)" d="M 0 0 M14313.6 279.221 L14729.1 279.221 L14729.1 333.665 L14313.6 333.665 L14313.6 279.221 M14313.6 411.442 L14729.1 411.442 L14729.1 466.535 L14313.6 466.535 L14313.6 411.442 Z" fill="#000000" fill-rule="evenodd" fill-opacity="1" /><path clip-path="url(#clip3000)" d="M 0 0 M15151 139.87 Q15100.4 139.87 15074.8 189.777 Q15049.6 239.36 15049.6 339.174 Q15049.6 438.664 15074.8 488.571 Q15100.4 538.155 15151 538.155 Q15201.9 538.155 15227.2 488.571 Q15252.8 438.664 15252.8 339.174 Q15252.8 239.36 15227.2 189.777 Q15201.9 139.87 15151 139.87 M15151 88.018 Q15232.3 88.018 15275.1 152.508 Q15318.2 216.675 15318.2 339.174 Q15318.2 461.349 15275.1 525.84 Q15232.3 590.006 15151 590.006 Q15069.7 590.006 15026.6 525.84 Q14983.8 461.349 14983.8 339.174 Q14983.8 216.675 15026.6 152.508 Q15069.7 88.018 15151 88.018 Z" fill="#000000" fill-rule="evenodd" fill-opacity="1" /><path clip-path="url(#clip3000)" d="M 0 0 M15389.2 498.294 L15457.6 498.294 L15457.6 580.608 L15389.2 580.608 L15389.2 498.294 Z" fill="#000000" fill-rule="evenodd" fill-opacity="1" /><path clip-path="url(#clip3000)" d="M 0 0 M15584.9 525.516 L15813.4 525.516 L15813.4 580.608 L15506.2 580.608 L15506.2 525.516 Q15543.4 486.951 15607.6 422.137 Q15672.1 356.998 15688.6 338.202 Q15720.1 302.878 15732.4 278.573 Q15745 253.943 15745 230.286 Q15745 191.721 15717.8 167.416 Q15690.9 143.11 15647.5 143.11 Q15616.7 143.11 15582.3 153.805 Q15548.3 164.499 15509.4 186.212 L15509.4 120.101 Q15549 104.222 15583.3 96.1199 Q15617.7 88.018 15646.2 88.018 Q15721.4 88.018 15766.1 125.61 Q15810.8 163.203 15810.8 226.073 Q15810.8 255.888 15799.5 282.786 Q15788.4 309.359 15759 345.656 Q15750.9 355.054 15707.4 400.1 Q15664 444.822 15584.9 525.516 Z" fill="#000000" fill-rule="evenodd" fill-opacity="1" /><path clip-path="url(#clip3000)" d="M 0 0 M15885 96.768 L16142 96.768 L16142 151.86 L15945 151.86 L15945 270.471 Q15959.2 265.61 15973.5 263.341 Q15987.7 260.749 16002 260.749 Q16083 260.749 16130.3 305.147 Q16177.7 349.544 16177.7 425.377 Q16177.7 503.479 16129 546.904 Q16080.4 590.006 15992 590.006 Q15961.5 590.006 15929.7 584.821 Q15898.3 579.636 15864.6 569.265 L15864.6 503.479 Q15893.8 519.358 15924.9 527.136 Q15956 534.914 15990.7 534.914 Q16046.7 534.914 16079.5 505.423 Q16112.2 475.933 16112.2 425.377 Q16112.2 374.822 16079.5 345.331 Q16046.7 315.841 15990.7 315.841 Q15964.4 315.841 15938.2 321.674 Q15912.2 327.508 15885 339.822 L15885 96.768 Z" fill="#000000" fill-rule="evenodd" fill-opacity="1" /><path clip-path="url(#clip3000)" d="M 0 0 M10261.2 12068.2 L10582.8 12068.2 L10582.8 12111.5 L10447.8 12111.5 L10447.8 12448.4 L10396.1 12448.4 L10396.1 12111.5 L10261.2 12111.5 L10261.2 12068.2 Z" fill="#000000" fill-rule="evenodd" fill-opacity="1" /><path clip-path="url(#clip3000)" d="M 0 0 M522.483 7641.94 L661.765 7641.94 L661.765 7559.44 Q661.765 7517.93 644.705 7498.07 Q627.39 7477.96 591.997 7477.96 Q556.349 7477.96 539.543 7498.07 Q522.483 7517.93 522.483 7559.44 L522.483 7641.94 M366.142 7641.94 L480.724 7641.94 L480.724 7565.8 Q480.724 7528.12 466.72 7509.78 Q452.461 7491.2 423.433 7491.2 Q394.66 7491.2 380.401 7509.78 Q366.142 7528.12 366.142 7565.8 L366.142 7641.94 M323.873 7693.37 L323.873 7561.98 Q323.873 7503.16 348.318 7471.33 Q372.762 7439.51 417.831 7439.51 Q452.715 7439.51 473.34 7455.8 Q493.965 7472.1 499.058 7503.67 Q507.206 7465.73 533.178 7444.85 Q558.895 7423.72 597.599 7423.72 Q648.524 7423.72 676.279 7458.35 Q704.033 7492.98 704.033 7556.89 L704.033 7693.37 L323.873 7693.37 Z" fill="#000000" fill-rule="evenodd" fill-opacity="1" /><path clip-path="url(#clip3000)" d="M 0 0 M418.85 7374.58 L418.85 7327.72 L704.033 7327.72 L704.033 7374.58 L418.85 7374.58 M307.832 7374.58 L307.832 7327.72 L367.16 7327.72 L367.16 7374.58 L307.832 7374.58 Z" fill="#000000" fill-rule="evenodd" fill-opacity="1" /><path clip-path="url(#clip3000)" d="M 0 0 M531.905 7041.52 L704.033 7041.52 L704.033 7088.37 L533.432 7088.37 Q492.946 7088.37 472.831 7104.16 Q452.715 7119.95 452.715 7151.52 Q452.715 7189.46 476.905 7211.36 Q501.095 7233.26 542.854 7233.26 L704.033 7233.26 L704.033 7280.36 L418.85 7280.36 L418.85 7233.26 L463.155 7233.26 Q437.437 7216.45 424.706 7193.79 Q411.975 7170.87 411.975 7141.08 Q411.975 7091.94 442.53 7066.73 Q472.831 7041.52 531.905 7041.52 Z" fill="#000000" fill-rule="evenodd" fill-opacity="1" /><path clip-path="url(#clip3000)" d="M 0 0 M462.136 6804.72 L307.832 6804.72 L307.832 6757.87 L704.033 6757.87 L704.033 6804.72 L661.256 6804.72 Q686.719 6819.49 699.195 6842.15 Q711.417 6864.56 711.417 6896.13 Q711.417 6947.82 670.168 6980.41 Q628.918 7012.75 561.696 7012.75 Q494.474 7012.75 453.224 6980.41 Q411.975 6947.82 411.975 6896.13 Q411.975 6864.56 424.451 6842.15 Q436.674 6819.49 462.136 6804.72 M561.696 6964.37 Q613.386 6964.37 642.922 6943.24 Q672.205 6921.85 672.205 6884.67 Q672.205 6847.5 642.922 6826.11 Q613.386 6804.72 561.696 6804.72 Q510.007 6804.72 480.724 6826.11 Q451.187 6847.5 451.187 6884.67 Q451.187 6921.85 480.724 6943.24 Q510.007 6964.37 561.696 6964.37 Z" fill="#000000" fill-rule="evenodd" fill-opacity="1" /><path clip-path="url(#clip3000)" d="M 0 0 M549.729 6464.79 L572.645 6464.79 L572.645 6680.2 Q621.024 6677.15 646.487 6651.18 Q671.695 6624.95 671.695 6578.35 Q671.695 6551.36 665.075 6526.15 Q658.455 6500.69 645.214 6475.74 L689.519 6475.74 Q700.214 6500.95 705.816 6527.43 Q711.417 6553.91 711.417 6581.15 Q711.417 6649.39 671.695 6689.37 Q631.973 6729.09 564.242 6729.09 Q494.22 6729.09 453.224 6691.41 Q411.975 6653.47 411.975 6589.3 Q411.975 6531.76 449.15 6498.4 Q486.071 6464.79 549.729 6464.79 M535.979 6511.64 Q497.53 6512.15 474.613 6533.28 Q451.697 6554.16 451.697 6588.79 Q451.697 6628.01 473.849 6651.69 Q496.002 6675.11 536.233 6678.68 L535.979 6511.64 Z" fill="#000000" fill-rule="evenodd" fill-opacity="1" /><path clip-path="url(#clip3000)" d="M 0 0 M462.646 6250.39 Q458.062 6258.29 456.025 6267.71 Q453.734 6276.87 453.734 6288.08 Q453.734 6327.8 479.706 6349.19 Q505.423 6370.32 553.803 6370.32 L704.033 6370.32 L704.033 6417.43 L418.85 6417.43 L418.85 6370.32 L463.155 6370.32 Q437.183 6355.55 424.706 6331.87 Q411.975 6308.19 411.975 6274.33 Q411.975 6269.49 412.739 6263.63 Q413.248 6257.78 414.521 6250.65 L462.646 6250.39 Z" fill="#000000" fill-rule="evenodd" fill-opacity="1" /><path clip-path="url(#clip3000)" d="M 0 0 M323.873 6156.94 L465.192 6156.94 L465.192 6200.23 L323.873 6200.23 L323.873 6156.94 Z" fill="#000000" fill-rule="evenodd" fill-opacity="1" /><path clip-path="url(#clip3000)" d="M 0 0 M427.252 5926 L471.558 5926 Q461.373 5945.86 456.28 5967.25 Q451.187 5988.63 451.187 6011.55 Q451.187 6046.44 461.882 6064 Q472.576 6081.32 493.965 6081.32 Q510.261 6081.32 519.682 6068.84 Q528.849 6056.37 537.252 6018.68 L540.817 6002.64 Q551.511 5952.73 571.117 5931.85 Q590.469 5910.72 625.353 5910.72 Q665.075 5910.72 688.246 5942.29 Q711.417 5973.61 711.417 6028.61 Q711.417 6051.53 706.834 6076.48 Q702.505 6101.18 693.594 6128.68 L645.214 6128.68 Q658.709 6102.71 665.584 6077.5 Q672.205 6052.29 672.205 6027.59 Q672.205 5994.49 661.001 5976.67 Q649.543 5958.84 628.918 5958.84 Q609.821 5958.84 599.636 5971.83 Q589.451 5984.56 580.029 6028.1 L576.21 6044.4 Q567.043 6087.94 548.201 6107.29 Q529.104 6126.64 496.002 6126.64 Q455.771 6126.64 433.873 6098.12 Q411.975 6069.61 411.975 6017.15 Q411.975 5991.18 415.794 5968.26 Q419.613 5945.35 427.252 5926 Z" fill="#000000" fill-rule="evenodd" fill-opacity="1" /><path clip-path="url(#clip3000)" d="M 0 0 M462.646 5530.56 Q458.062 5538.45 456.025 5547.87 Q453.734 5557.04 453.734 5568.24 Q453.734 5607.97 479.706 5629.35 Q505.423 5650.49 553.803 5650.49 L704.033 5650.49 L704.033 5697.59 L418.85 5697.59 L418.85 5650.49 L463.155 5650.49 Q437.183 5635.72 424.706 5612.04 Q411.975 5588.36 411.975 5554.49 Q411.975 5549.66 412.739 5543.8 Q413.248 5537.94 414.521 5530.81 L462.646 5530.56 Z" fill="#000000" fill-rule="evenodd" fill-opacity="1" /><path clip-path="url(#clip3000)" d="M 0 0 M560.678 5351.81 Q560.678 5408.59 573.664 5430.49 Q586.65 5452.39 617.969 5452.39 Q642.922 5452.39 657.691 5436.09 Q672.205 5419.54 672.205 5391.28 Q672.205 5352.32 644.705 5328.89 Q616.95 5305.21 571.117 5305.21 L560.678 5305.21 L560.678 5351.81 M541.326 5258.36 L704.033 5258.36 L704.033 5305.21 L660.746 5305.21 Q686.719 5321.25 699.195 5345.19 Q711.417 5369.12 711.417 5403.75 Q711.417 5447.55 686.973 5473.52 Q662.274 5499.24 621.024 5499.24 Q572.9 5499.24 548.455 5467.16 Q524.011 5434.82 524.011 5370.91 L524.011 5305.21 L519.428 5305.21 Q487.09 5305.21 469.521 5326.6 Q451.697 5347.74 451.697 5386.18 Q451.697 5410.63 457.553 5433.8 Q463.41 5456.97 475.122 5478.36 L431.836 5478.36 Q421.905 5452.64 417.067 5428.45 Q411.975 5404.26 411.975 5381.35 Q411.975 5319.47 444.058 5288.92 Q476.141 5258.36 541.326 5258.36 Z" fill="#000000" fill-rule="evenodd" fill-opacity="1" /><path clip-path="url(#clip3000)" d="M 0 0 M337.878 5162.87 L418.85 5162.87 L418.85 5066.37 L455.261 5066.37 L455.261 5162.87 L610.075 5162.87 Q644.96 5162.87 654.89 5153.45 Q664.821 5143.78 664.821 5114.5 L664.821 5066.37 L704.033 5066.37 L704.033 5114.5 Q704.033 5168.73 683.918 5189.36 Q663.547 5209.98 610.075 5209.98 L455.261 5209.98 L455.261 5244.36 L418.85 5244.36 L418.85 5209.98 L337.878 5209.98 L337.878 5162.87 Z" fill="#000000" fill-rule="evenodd" fill-opacity="1" /><path clip-path="url(#clip3000)" d="M 0 0 M418.85 5017.23 L418.85 4970.38 L704.033 4970.38 L704.033 5017.23 L418.85 5017.23 M307.832 5017.23 L307.832 4970.38 L367.16 4970.38 L367.16 5017.23 L307.832 5017.23 Z" fill="#000000" fill-rule="evenodd" fill-opacity="1" /><path clip-path="url(#clip3000)" d="M 0 0 M451.697 4810.72 Q451.697 4848.41 481.234 4870.31 Q510.516 4892.21 561.696 4892.21 Q612.876 4892.21 642.413 4870.56 Q671.695 4848.66 671.695 4810.72 Q671.695 4773.29 642.159 4751.4 Q612.622 4729.5 561.696 4729.5 Q511.025 4729.5 481.488 4751.4 Q451.697 4773.29 451.697 4810.72 M411.975 4810.72 Q411.975 4749.61 451.697 4714.73 Q491.419 4679.85 561.696 4679.85 Q631.719 4679.85 671.695 4714.73 Q711.417 4749.61 711.417 4810.72 Q711.417 4872.09 671.695 4906.97 Q631.719 4941.6 561.696 4941.6 Q491.419 4941.6 451.697 4906.97 Q411.975 4872.09 411.975 4810.72 Z" fill="#000000" fill-rule="evenodd" fill-opacity="1" /><polyline clip-path="url(#clip3002)" style="stroke:#009af9; stroke-width:32; stroke-opacity:1; fill:none" points="
  2497.37,1286.72 2820.82,1288.81 3144.27,1288.02 3467.73,1290.24 3791.18,1293.25 4114.63,1292.22 4438.09,1293.91 4761.54,1297 5084.99,1300.49 5408.45,1297.24 
  5731.9,1301.78 6055.35,1303.74 6378.81,1302.55 6702.26,1312.47 7025.71,1321.41 7349.16,1328.11 7672.62,1333.43 7996.07,1333.5 8319.52,1357.89 8642.98,1386.05 
  8966.43,1369.93 9289.88,1418.86 9613.34,1417.12 9936.79,1448.6 10260.2,1502.11 10583.7,1488.4 10907.1,1510.99 11230.6,1569.98 11554.1,1612.97 11877.5,1698.13 
  12201,1777.8 12524.4,1878.6 12847.9,1906.3 13171.3,2070.81 13494.8,2165.13 13818.2,2206.03 14141.7,2397.82 14465.1,2548.88 14788.6,2718.38 15112,2717.38 
  15435.5,2953.84 15758.9,3029.15 16082.4,3125.32 16405.9,3533.34 16729.3,3573.15 17052.8,3655.61 17376.2,3835.74 17699.7,3949.75 18023.1,4000.48 18346.6,4001.33 
  
  "/>
<polyline clip-path="url(#clip3002)" style="stroke:#e26f46; stroke-width:32; stroke-opacity:1; fill:none" points="
  2497.37,1283.83 2820.82,1284.04 3144.27,1284.66 3467.73,1285.56 3791.18,1286.38 4114.63,1285.55 4438.09,1287.98 4761.54,1287.19 5084.99,1290.19 5408.45,1289.03 
  5731.9,1292.26 6055.35,1291.33 6378.81,1311.64 6702.26,1300.47 7025.71,1301.7 7349.16,1301.58 7672.62,1315.79 7996.07,1314.77 8319.52,1330.57 8642.98,1374.66 
  8966.43,1355.66 9289.88,1408.24 9613.34,1497.62 9936.79,1500.51 10260.2,1574.46 10583.7,1661.18 10907.1,1762.16 11230.6,1837.7 11554.1,2105.54 11877.5,2524.66 
  12201,3007.5 12524.4,2997.59 12847.9,3494.95 13171.3,3719.94 13494.8,4231.52 13818.2,4384.94 14141.7,5224.43 14465.1,5383.15 14788.6,5636.59 15112,5727.01 
  15435.5,5609.68 15758.9,5565.36 16082.4,5396.23 16405.9,4592.6 16729.3,4515.95 17052.8,4356.39 17376.2,3893.04 17699.7,3707.64 18023.1,3260.21 18346.6,3504.4 
  
  "/>
<polyline clip-path="url(#clip3002)" style="stroke:#3da44d; stroke-width:32; stroke-opacity:1; fill:none" points="
  2497.37,1283.11 2820.82,1283.32 3144.27,1283.4 3467.73,1283.53 3791.18,1283.88 4114.63,1284.12 4438.09,1285.61 4761.54,1285.47 5084.99,1285.94 5408.45,1286.99 
  5731.9,1286.69 6055.35,1287.9 6378.81,1288.1 6702.26,1291.65 7025.71,1291.32 7349.16,1300.63 7672.62,1294.16 7996.07,1308.03 8319.52,1333.81 8642.98,1334.49 
  8966.43,1332.77 9289.88,1412.72 9613.34,1455.96 9936.79,1624.53 10260.2,1793.32 10583.7,2098.37 10907.1,2260.86 11230.6,3174.18 11554.1,3395.75 11877.5,3473 
  12201,5586.73 12524.4,5895.08 12847.9,6182.19 13171.3,6629.37 13494.8,6979.37 13818.2,6259.69 14141.7,5482.62 14465.1,4912.31 14788.6,5764.92 15112,3604.23 
  15435.5,2895.51 15758.9,3164.11 16082.4,4037.22 16405.9,3069.44 16729.3,2737.13 17052.8,2715.72 17376.2,2284.72 17699.7,2402.31 18023.1,2224.6 18346.6,2573.87 
  
  "/>
<polyline clip-path="url(#clip3002)" style="stroke:#c271d2; stroke-width:32; stroke-opacity:1; fill:none" points="
  2497.37,1282.61 2820.82,1282.71 3144.27,1282.78 3467.73,1282.94 3791.18,1282.98 4114.63,1283.18 4438.09,1283.48 4761.54,1283.65 5084.99,1283.55 5408.45,1284.18 
  5731.9,1284.55 6055.35,1284.83 6378.81,1285.15 6702.26,1285.99 7025.71,1285.85 7349.16,1290.26 7672.62,1290.09 7996.07,1290.43 8319.52,1295.76 8642.98,1319.37 
  8966.43,1313.04 9289.88,1497.46 9613.34,1518.44 9936.79,1507.13 10260.2,1751.13 10583.7,2331.46 10907.1,4341.05 11230.6,5423.29 11554.1,7308.22 11877.5,8380.03 
  12201,8847.43 12524.4,8893.06 12847.9,5705.29 13171.3,6466.61 13494.8,4551.7 13818.2,4441.32 14141.7,3060.96 14465.1,3325.7 14788.6,2612.6 15112,2826.17 
  15435.5,2402.98 15758.9,2566.94 16082.4,2343.94 16405.9,2315.67 16729.3,2452.21 17052.8,2337.09 17376.2,2168.39 17699.7,2245.01 18023.1,1999.36 18346.6,2077.02 
  
  "/>
<polyline clip-path="url(#clip3002)" style="stroke:#ac8d18; stroke-width:32; stroke-opacity:1; fill:none" points="
  2497.37,1282.25 2820.82,1282.33 3144.27,1282.47 3467.73,1282.47 3791.18,1282.59 4114.63,1282.78 4438.09,1282.85 4761.54,1283.01 5084.99,1283.36 5408.45,1283.26 
  5731.9,1283.78 6055.35,1284.21 6378.81,1284.5 6702.26,1284.44 7025.71,1284.93 7349.16,1285.2 7672.62,1286.7 7996.07,1287.7 8319.52,1287.48 8642.98,1291.24 
  8966.43,1314.53 9289.88,1638.61 9613.34,1724.06 9936.79,1484.57 10260.2,4383.15 10583.7,3937.14 10907.1,8933.77 11230.6,10271.5 11554.1,7211.92 11877.5,10966.6 
  12201,4114.75 12524.4,10455.6 12847.9,3175.11 13171.3,3161.76 13494.8,5136.61 13818.2,2867.8 14141.7,2700.65 14465.1,2523.49 14788.6,2531.72 15112,2681.16 
  15435.5,2301.79 15758.9,2266.29 16082.4,2212.47 16405.9,2231.29 16729.3,2204.12 17052.8,2156.56 17376.2,2091.64 17699.7,2044.71 18023.1,2079.75 18346.6,1995.5 
  
  "/>
<polyline clip-path="url(#clip3002)" style="stroke:#00a9ad; stroke-width:32; stroke-opacity:1; fill:none" points="
  2497.37,1282.06 2820.82,1282.05 3144.27,1282.25 3467.73,1282.18 3791.18,1282.35 4114.63,1282.5 4438.09,1282.67 4761.54,1282.63 5084.99,1282.67 5408.45,1282.9 
  5731.9,1283.23 6055.35,1283.17 6378.81,1283.46 6702.26,1283.52 7025.71,1284.2 7349.16,1284.26 7672.62,1285.29 7996.07,1285.98 8319.52,1286.12 8642.98,1298.18 
  8966.43,1294.28 9289.88,1348.53 9613.34,1428.82 9936.79,2045.07 10260.2,4277.51 10583.7,10271.6 10907.1,9272.83 11230.6,11091.2 11554.1,9518.15 11877.5,3158.05 
  12201,3274.03 12524.4,3164.2 12847.9,2763.89 13171.3,2780.85 13494.8,2588.58 13818.2,2503.49 14141.7,2411.17 14465.1,2406.67 14788.6,2419.92 15112,2331.9 
  15435.5,2255.23 15758.9,2207.43 16082.4,2177.66 16405.9,2215.21 16729.3,2126.12 17052.8,2067.14 17376.2,2066.68 17699.7,2051.01 18023.1,2040.66 18346.6,2011.59 
  
  "/>
<path clip-path="url(#clip3000)" d="
M2597.89 10233.4 L5634.92 10233.4 L5634.92 6846.56 L2597.89 6846.56  Z
  " fill="#ffffff" fill-rule="evenodd" fill-opacity="1"/>
<polyline clip-path="url(#clip3000)" style="stroke:#000000; stroke-width:32; stroke-opacity:1; fill:none" points="
  2597.89,10233.4 5634.92,10233.4 5634.92,6846.56 2597.89,6846.56 2597.89,10233.4 
  "/>
<polyline clip-path="url(#clip3000)" style="stroke:#009af9; stroke-width:32; stroke-opacity:1; fill:none" points="
  2789.89,7330.4 3941.89,7330.4 
  "/>
<path clip-path="url(#clip3000)" d="M 0 0 M4133.89 7192.16 L4171.3 7192.16 L4171.3 7437.16 L4305.93 7437.16 L4305.93 7468.64 L4133.89 7468.64 L4133.89 7192.16 Z" fill="#000000" fill-rule="evenodd" fill-opacity="1" /><path clip-path="url(#clip3000)" d="M 0 0 M4466.67 7296.42 L4704.07 7296.42 L4704.07 7327.53 L4466.67 7327.53 L4466.67 7296.42 M4466.67 7371.97 L4704.07 7371.97 L4704.07 7403.45 L4466.67 7403.45 L4466.67 7371.97 Z" fill="#000000" fill-rule="evenodd" fill-opacity="1" /><path clip-path="url(#clip3000)" d="M 0 0 M4949.81 7315.49 Q4924.63 7315.49 4909.81 7332.71 Q4895.18 7349.94 4895.18 7379.94 Q4895.18 7409.75 4909.81 7427.16 Q4924.63 7444.38 4949.81 7444.38 Q4975 7444.38 4989.63 7427.16 Q5004.44 7409.75 5004.44 7379.94 Q5004.44 7349.94 4989.63 7332.71 Q4975 7315.49 4949.81 7315.49 M5024.07 7198.27 L5024.07 7232.34 Q5010 7225.68 4995.55 7222.16 Q4981.29 7218.64 4967.22 7218.64 Q4930.18 7218.64 4910.55 7243.64 Q4891.11 7268.64 4888.33 7319.2 Q4899.26 7303.08 4915.74 7294.57 Q4932.22 7285.86 4952.04 7285.86 Q4993.7 7285.86 5017.78 7311.23 Q5042.03 7336.42 5042.03 7379.94 Q5042.03 7422.53 5016.85 7448.27 Q4991.66 7474.01 4949.81 7474.01 Q4901.85 7474.01 4876.48 7437.34 Q4851.11 7400.49 4851.11 7330.68 Q4851.11 7265.12 4882.22 7226.23 Q4913.33 7187.16 4965.74 7187.16 Q4979.81 7187.16 4994.07 7189.94 Q5008.52 7192.71 5024.07 7198.27 Z" fill="#000000" fill-rule="evenodd" fill-opacity="1" /><polyline clip-path="url(#clip3000)" style="stroke:#e26f46; stroke-width:32; stroke-opacity:1; fill:none" points="
  2789.89,7814.24 3941.89,7814.24 
  "/>
<path clip-path="url(#clip3000)" d="M 0 0 M4133.89 7676 L4171.3 7676 L4171.3 7921 L4305.93 7921 L4305.93 7952.48 L4133.89 7952.48 L4133.89 7676 Z" fill="#000000" fill-rule="evenodd" fill-opacity="1" /><path clip-path="url(#clip3000)" d="M 0 0 M4466.67 7780.26 L4704.07 7780.26 L4704.07 7811.37 L4466.67 7811.37 L4466.67 7780.26 M4466.67 7855.81 L4704.07 7855.81 L4704.07 7887.29 L4466.67 7887.29 L4466.67 7855.81 Z" fill="#000000" fill-rule="evenodd" fill-opacity="1" /><path clip-path="url(#clip3000)" d="M 0 0 M4945.18 7821.18 Q4918.52 7821.18 4903.15 7835.44 Q4887.96 7849.7 4887.96 7874.7 Q4887.96 7899.7 4903.15 7913.96 Q4918.52 7928.22 4945.18 7928.22 Q4971.85 7928.22 4987.22 7913.96 Q5002.59 7899.52 5002.59 7874.7 Q5002.59 7849.7 4987.22 7835.44 Q4972.04 7821.18 4945.18 7821.18 M4907.78 7805.26 Q4883.7 7799.33 4870.18 7782.85 Q4856.85 7766.37 4856.85 7742.67 Q4856.85 7709.52 4880.37 7690.26 Q4904.07 7671 4945.18 7671 Q4986.48 7671 5010 7690.26 Q5033.52 7709.52 5033.52 7742.67 Q5033.52 7766.37 5020 7782.85 Q5006.66 7799.33 4982.78 7805.26 Q5009.81 7811.55 5024.81 7829.89 Q5040 7848.22 5040 7874.7 Q5040 7914.89 5015.37 7936.37 Q4990.92 7957.85 4945.18 7957.85 Q4899.44 7957.85 4874.81 7936.37 Q4850.37 7914.89 4850.37 7874.7 Q4850.37 7848.22 4865.55 7829.89 Q4880.74 7811.55 4907.78 7805.26 M4894.07 7746.18 Q4894.07 7767.66 4907.41 7779.7 Q4920.92 7791.74 4945.18 7791.74 Q4969.26 7791.74 4982.78 7779.7 Q4996.48 7767.66 4996.48 7746.18 Q4996.48 7724.7 4982.78 7712.67 Q4969.26 7700.63 4945.18 7700.63 Q4920.92 7700.63 4907.41 7712.67 Q4894.07 7724.7 4894.07 7746.18 Z" fill="#000000" fill-rule="evenodd" fill-opacity="1" /><polyline clip-path="url(#clip3000)" style="stroke:#3da44d; stroke-width:32; stroke-opacity:1; fill:none" points="
  2789.89,8298.08 3941.89,8298.08 
  "/>
<path clip-path="url(#clip3000)" d="M 0 0 M4133.89 8159.84 L4171.3 8159.84 L4171.3 8404.84 L4305.93 8404.84 L4305.93 8436.32 L4133.89 8436.32 L4133.89 8159.84 Z" fill="#000000" fill-rule="evenodd" fill-opacity="1" /><path clip-path="url(#clip3000)" d="M 0 0 M4466.67 8264.1 L4704.07 8264.1 L4704.07 8295.21 L4466.67 8295.21 L4466.67 8264.1 M4466.67 8339.65 L4704.07 8339.65 L4704.07 8371.13 L4466.67 8371.13 L4466.67 8339.65 Z" fill="#000000" fill-rule="evenodd" fill-opacity="1" /><path clip-path="url(#clip3000)" d="M 0 0 M4871.67 8404.84 L4932.78 8404.84 L4932.78 8193.91 L4866.3 8207.25 L4866.3 8173.17 L4932.41 8159.84 L4969.81 8159.84 L4969.81 8404.84 L5030.92 8404.84 L5030.92 8436.32 L4871.67 8436.32 L4871.67 8404.84 Z" fill="#000000" fill-rule="evenodd" fill-opacity="1" /><path clip-path="url(#clip3000)" d="M 0 0 M5151.48 8184.47 Q5122.59 8184.47 5107.96 8212.99 Q5093.52 8241.32 5093.52 8298.36 Q5093.52 8355.21 5107.96 8383.73 Q5122.59 8412.06 5151.48 8412.06 Q5180.55 8412.06 5195 8383.73 Q5209.63 8355.21 5209.63 8298.36 Q5209.63 8241.32 5195 8212.99 Q5180.55 8184.47 5151.48 8184.47 M5151.48 8154.84 Q5197.96 8154.84 5222.4 8191.69 Q5247.03 8228.36 5247.03 8298.36 Q5247.03 8368.17 5222.4 8405.02 Q5197.96 8441.69 5151.48 8441.69 Q5105 8441.69 5080.37 8405.02 Q5055.92 8368.17 5055.92 8298.36 Q5055.92 8228.36 5080.37 8191.69 Q5105 8154.84 5151.48 8154.84 Z" fill="#000000" fill-rule="evenodd" fill-opacity="1" /><polyline clip-path="url(#clip3000)" style="stroke:#c271d2; stroke-width:32; stroke-opacity:1; fill:none" points="
  2789.89,8781.92 3941.89,8781.92 
  "/>
<path clip-path="url(#clip3000)" d="M 0 0 M4133.89 8643.68 L4171.3 8643.68 L4171.3 8888.68 L4305.93 8888.68 L4305.93 8920.16 L4133.89 8920.16 L4133.89 8643.68 Z" fill="#000000" fill-rule="evenodd" fill-opacity="1" /><path clip-path="url(#clip3000)" d="M 0 0 M4466.67 8747.94 L4704.07 8747.94 L4704.07 8779.05 L4466.67 8779.05 L4466.67 8747.94 M4466.67 8823.49 L4704.07 8823.49 L4704.07 8854.97 L4466.67 8854.97 L4466.67 8823.49 Z" fill="#000000" fill-rule="evenodd" fill-opacity="1" /><path clip-path="url(#clip3000)" d="M 0 0 M4871.67 8888.68 L4932.78 8888.68 L4932.78 8677.75 L4866.3 8691.09 L4866.3 8657.01 L4932.41 8643.68 L4969.81 8643.68 L4969.81 8888.68 L5030.92 8888.68 L5030.92 8920.16 L4871.67 8920.16 L4871.67 8888.68 Z" fill="#000000" fill-rule="evenodd" fill-opacity="1" /><path clip-path="url(#clip3000)" d="M 0 0 M5103.7 8888.68 L5234.26 8888.68 L5234.26 8920.16 L5058.7 8920.16 L5058.7 8888.68 Q5080 8866.64 5116.66 8829.6 Q5153.52 8792.38 5162.96 8781.64 Q5180.92 8761.46 5187.96 8747.57 Q5195.18 8733.49 5195.18 8719.97 Q5195.18 8697.94 5179.63 8684.05 Q5164.26 8670.16 5139.44 8670.16 Q5121.85 8670.16 5102.22 8676.27 Q5082.78 8682.38 5060.55 8694.79 L5060.55 8657.01 Q5083.15 8647.94 5102.78 8643.31 Q5122.4 8638.68 5138.7 8638.68 Q5181.66 8638.68 5207.22 8660.16 Q5232.77 8681.64 5232.77 8717.57 Q5232.77 8734.6 5226.29 8749.97 Q5220 8765.16 5203.15 8785.9 Q5198.52 8791.27 5173.7 8817.01 Q5148.89 8842.57 5103.7 8888.68 Z" fill="#000000" fill-rule="evenodd" fill-opacity="1" /><polyline clip-path="url(#clip3000)" style="stroke:#ac8d18; stroke-width:32; stroke-opacity:1; fill:none" points="
  2789.89,9265.76 3941.89,9265.76 
  "/>
<path clip-path="url(#clip3000)" d="M 0 0 M4133.89 9127.52 L4171.3 9127.52 L4171.3 9372.52 L4305.93 9372.52 L4305.93 9404 L4133.89 9404 L4133.89 9127.52 Z" fill="#000000" fill-rule="evenodd" fill-opacity="1" /><path clip-path="url(#clip3000)" d="M 0 0 M4466.67 9231.78 L4704.07 9231.78 L4704.07 9262.89 L4466.67 9262.89 L4466.67 9231.78 M4466.67 9307.33 L4704.07 9307.33 L4704.07 9338.81 L4466.67 9338.81 L4466.67 9307.33 Z" fill="#000000" fill-rule="evenodd" fill-opacity="1" /><path clip-path="url(#clip3000)" d="M 0 0 M4871.67 9372.52 L4932.78 9372.52 L4932.78 9161.59 L4866.3 9174.93 L4866.3 9140.85 L4932.41 9127.52 L4969.81 9127.52 L4969.81 9372.52 L5030.92 9372.52 L5030.92 9404 L4871.67 9404 L4871.67 9372.52 Z" fill="#000000" fill-rule="evenodd" fill-opacity="1" /><path clip-path="url(#clip3000)" d="M 0 0 M5174.26 9160.11 L5079.81 9307.7 L5174.26 9307.7 L5174.26 9160.11 M5164.44 9127.52 L5211.48 9127.52 L5211.48 9307.7 L5250.92 9307.7 L5250.92 9338.81 L5211.48 9338.81 L5211.48 9404 L5174.26 9404 L5174.26 9338.81 L5049.44 9338.81 L5049.44 9302.7 L5164.44 9127.52 Z" fill="#000000" fill-rule="evenodd" fill-opacity="1" /><polyline clip-path="url(#clip3000)" style="stroke:#00a9ad; stroke-width:32; stroke-opacity:1; fill:none" points="
  2789.89,9749.6 3941.89,9749.6 
  "/>
<path clip-path="url(#clip3000)" d="M 0 0 M4133.89 9611.36 L4171.3 9611.36 L4171.3 9856.36 L4305.93 9856.36 L4305.93 9887.84 L4133.89 9887.84 L4133.89 9611.36 Z" fill="#000000" fill-rule="evenodd" fill-opacity="1" /><path clip-path="url(#clip3000)" d="M 0 0 M4466.67 9715.62 L4704.07 9715.62 L4704.07 9746.73 L4466.67 9746.73 L4466.67 9715.62 M4466.67 9791.17 L4704.07 9791.17 L4704.07 9822.65 L4466.67 9822.65 L4466.67 9791.17 Z" fill="#000000" fill-rule="evenodd" fill-opacity="1" /><path clip-path="url(#clip3000)" d="M 0 0 M4871.67 9856.36 L4932.78 9856.36 L4932.78 9645.43 L4866.3 9658.77 L4866.3 9624.69 L4932.41 9611.36 L4969.81 9611.36 L4969.81 9856.36 L5030.92 9856.36 L5030.92 9887.84 L4871.67 9887.84 L4871.67 9856.36 Z" fill="#000000" fill-rule="evenodd" fill-opacity="1" /><path clip-path="url(#clip3000)" d="M 0 0 M5156.11 9734.69 Q5130.92 9734.69 5116.11 9751.91 Q5101.48 9769.14 5101.48 9799.14 Q5101.48 9828.95 5116.11 9846.36 Q5130.92 9863.58 5156.11 9863.58 Q5181.29 9863.58 5195.92 9846.36 Q5210.74 9828.95 5210.74 9799.14 Q5210.74 9769.14 5195.92 9751.91 Q5181.29 9734.69 5156.11 9734.69 M5230.37 9617.47 L5230.37 9651.54 Q5216.29 9644.88 5201.85 9641.36 Q5187.59 9637.84 5173.52 9637.84 Q5136.48 9637.84 5116.85 9662.84 Q5097.41 9687.84 5094.63 9738.4 Q5105.55 9722.28 5122.03 9713.77 Q5138.52 9705.06 5158.33 9705.06 Q5200 9705.06 5224.07 9730.43 Q5248.33 9755.62 5248.33 9799.14 Q5248.33 9841.73 5223.15 9867.47 Q5197.96 9893.21 5156.11 9893.21 Q5108.15 9893.21 5082.78 9856.54 Q5057.41 9819.69 5057.41 9749.88 Q5057.41 9684.32 5088.52 9645.43 Q5119.63 9606.36 5172.03 9606.36 Q5186.11 9606.36 5200.37 9609.14 Q5214.81 9611.91 5230.37 9617.47 Z" fill="#000000" fill-rule="evenodd" fill-opacity="1" /></svg>
