<?xml version="1.0" encoding="utf-8"?>
<svg xmlns="http://www.w3.org/2000/svg" xmlns:xlink="http://www.w3.org/1999/xlink" width="4800" height="3200" viewBox="0 0 19200 12800">
<defs>
  <clipPath id="clip0800">
    <rect x="0" y="0" width="19200" height="12800"/>
  </clipPath>
</defs>
<path clip-path="url(#clip0800)" d="
M0 12800 L19200 12800 L19200 0 L0 0  Z
  " fill="#ffffff" fill-rule="evenodd" fill-opacity="1"/>
<defs>
  <clipPath id="clip0801">
    <rect x="3840" y="0" width="13441" height="12800"/>
  </clipPath>
</defs>
<path clip-path="url(#clip0800)" d="
M1908.93 11385.4 L18822 11385.4 L18822 987.777 L1908.93 987.777  Z
  " fill="#ffffff" fill-rule="evenodd" fill-opacity="1"/>
<defs>
  <clipPath id="clip0802">
    <rect x="1908" y="987" width="16914" height="10399"/>
  </clipPath>
</defs>
<polyline clip-path="url(#clip0802)" style="stroke:#000000; stroke-width:16; stroke-opacity:0.1; fill:none" points="
  2387.6,11385.4 2387.6,987.777 
  "/>
<polyline clip-path="url(#clip0802)" style="stroke:#000000; stroke-width:16; stroke-opacity:0.1; fill:none" points="
  6376.55,11385.4 6376.55,987.777 
  "/>
<polyline clip-path="url(#clip0802)" style="stroke:#000000; stroke-width:16; stroke-opacity:0.1; fill:none" points="
  10365.5,11385.4 10365.5,987.777 
  "/>
<polyline clip-path="url(#clip0802)" style="stroke:#000000; stroke-width:16; stroke-opacity:0.1; fill:none" points="
  14354.4,11385.4 14354.4,987.777 
  "/>
<polyline clip-path="url(#clip0802)" style="stroke:#000000; stroke-width:16; stroke-opacity:0.1; fill:none" points="
  18343.4,11385.4 18343.4,987.777 
  "/>
<polyline clip-path="url(#clip0802)" style="stroke:#000000; stroke-width:16; stroke-opacity:0.1; fill:none" points="
  1908.93,10384.3 18822,10384.3 
  "/>
<polyline clip-path="url(#clip0802)" style="stroke:#000000; stroke-width:16; stroke-opacity:0.1; fill:none" points="
  1908.93,8947.11 18822,8947.11 
  "/>
<polyline clip-path="url(#clip0802)" style="stroke:#000000; stroke-width:16; stroke-opacity:0.1; fill:none" points="
  1908.93,7509.91 18822,7509.91 
  "/>
<polyline clip-path="url(#clip0802)" style="stroke:#000000; stroke-width:16; stroke-opacity:0.1; fill:none" points="
  1908.93,6072.71 18822,6072.71 
  "/>
<polyline clip-path="url(#clip0802)" style="stroke:#000000; stroke-width:16; stroke-opacity:0.1; fill:none" points="
  1908.93,4635.51 18822,4635.51 
  "/>
<polyline clip-path="url(#clip0802)" style="stroke:#000000; stroke-width:16; stroke-opacity:0.1; fill:none" points="
  1908.93,3198.31 18822,3198.31 
  "/>
<polyline clip-path="url(#clip0802)" style="stroke:#000000; stroke-width:16; stroke-opacity:0.1; fill:none" points="
  1908.93,1761.12 18822,1761.12 
  "/>
<polyline clip-path="url(#clip0800)" style="stroke:#000000; stroke-width:32; stroke-opacity:1; fill:none" points="
  1908.93,11385.4 18822,11385.4 
  "/>
<polyline clip-path="url(#clip0800)" style="stroke:#000000; stroke-width:32; stroke-opacity:1; fill:none" points="
  1908.93,11385.4 1908.93,987.777 
  "/>
<polyline clip-path="url(#clip0800)" style="stroke:#000000; stroke-width:32; stroke-opacity:1; fill:none" points="
  2387.6,11385.4 2387.6,11260.7 
  "/>
<polyline clip-path="url(#clip0800)" style="stroke:#000000; stroke-width:32; stroke-opacity:1; fill:none" points="
  6376.55,11385.4 6376.55,11260.7 
  "/>
<polyline clip-path="url(#clip0800)" style="stroke:#000000; stroke-width:32; stroke-opacity:1; fill:none" points="
  10365.5,11385.4 10365.5,11260.7 
  "/>
<polyline clip-path="url(#clip0800)" style="stroke:#000000; stroke-width:32; stroke-opacity:1; fill:none" points="
  14354.4,11385.4 14354.4,11260.7 
  "/>
<polyline clip-path="url(#clip0800)" style="stroke:#000000; stroke-width:32; stroke-opacity:1; fill:none" points="
  18343.4,11385.4 18343.4,11260.7 
  "/>
<polyline clip-path="url(#clip0800)" style="stroke:#000000; stroke-width:32; stroke-opacity:1; fill:none" points="
  1908.93,10384.3 2111.89,10384.3 
  "/>
<polyline clip-path="url(#clip0800)" style="stroke:#000000; stroke-width:32; stroke-opacity:1; fill:none" points="
  1908.93,8947.11 2111.89,8947.11 
  "/>
<polyline clip-path="url(#clip0800)" style="stroke:#000000; stroke-width:32; stroke-opacity:1; fill:none" points="
  1908.93,7509.91 2111.89,7509.91 
  "/>
<polyline clip-path="url(#clip0800)" style="stroke:#000000; stroke-width:32; stroke-opacity:1; fill:none" points="
  1908.93,6072.71 2111.89,6072.71 
  "/>
<polyline clip-path="url(#clip0800)" style="stroke:#000000; stroke-width:32; stroke-opacity:1; fill:none" points="
  1908.93,4635.51 2111.89,4635.51 
  "/>
<polyline clip-path="url(#clip0800)" style="stroke:#000000; stroke-width:32; stroke-opacity:1; fill:none" points="
  1908.93,3198.31 2111.89,3198.31 
  "/>
<polyline clip-path="url(#clip0800)" style="stroke:#000000; stroke-width:32; stroke-opacity:1; fill:none" points="
  1908.93,1761.12 2111.89,1761.12 
  "/>
<path clip-path="url(#clip0800)" d="M 0 0 M2242.33 11561.4 Q2213.44 11561.4 2198.81 11589.9 Q2184.36 11618.2 2184.36 11675.3 Q2184.36 11732.1 2198.81 11760.6 Q2213.44 11789 2242.33 11789 Q2271.4 11789 2285.84 11760.6 Q2300.47 11732.1 2300.47 11675.3 Q2300.47 11618.2 2285.84 11589.9 Q2271.4 11561.4 2242.33 11561.4 M2242.33 11531.7 Q2288.81 11531.7 2313.25 11568.6 Q2337.88 11605.3 2337.88 11675.3 Q2337.88 11745.1 2313.25 11781.9 Q2288.81 11818.6 2242.33 11818.6 Q2195.84 11818.6 2171.21 11781.9 Q2146.77 11745.1 2146.77 11675.3 Q2146.77 11605.3 2171.21 11568.6 Q2195.84 11531.7 2242.33 11531.7 Z" fill="#000000" fill-rule="evenodd" fill-opacity="1" /><path clip-path="url(#clip0800)" d="M 0 0 M2378.44 11766.2 L2417.51 11766.2 L2417.51 11813.2 L2378.44 11813.2 L2378.44 11766.2 Z" fill="#000000" fill-rule="evenodd" fill-opacity="1" /><path clip-path="url(#clip0800)" d="M 0 0 M2571.4 11664.1 Q2598.25 11669.9 2613.25 11688 Q2628.43 11706.2 2628.43 11732.8 Q2628.43 11773.8 2600.29 11796.2 Q2572.14 11818.6 2520.29 11818.6 Q2502.88 11818.6 2484.36 11815.1 Q2466.03 11811.7 2446.4 11804.9 L2446.4 11768.8 Q2461.95 11777.8 2480.47 11782.5 Q2498.99 11787.1 2519.18 11787.1 Q2554.36 11787.1 2572.69 11773.2 Q2591.21 11759.3 2591.21 11732.8 Q2591.21 11708.4 2573.99 11694.7 Q2556.95 11680.8 2526.4 11680.8 L2494.18 11680.8 L2494.18 11650.1 L2527.88 11650.1 Q2555.47 11650.1 2570.1 11639.1 Q2584.73 11628 2584.73 11607.3 Q2584.73 11586 2569.55 11574.7 Q2554.55 11563.2 2526.4 11563.2 Q2511.03 11563.2 2493.44 11566.5 Q2475.84 11569.9 2454.73 11576.9 L2454.73 11543.6 Q2476.03 11537.7 2494.55 11534.7 Q2513.25 11531.7 2529.73 11531.7 Q2572.32 11531.7 2597.14 11551.2 Q2621.95 11570.4 2621.95 11603.4 Q2621.95 11626.4 2608.8 11642.3 Q2595.66 11658 2571.4 11664.1 Z" fill="#000000" fill-rule="evenodd" fill-opacity="1" /><path clip-path="url(#clip0800)" d="M 0 0 M6226.73 11561.4 Q6197.84 11561.4 6183.21 11589.9 Q6168.77 11618.2 6168.77 11675.3 Q6168.77 11732.1 6183.21 11760.6 Q6197.84 11789 6226.73 11789 Q6255.81 11789 6270.25 11760.6 Q6284.88 11732.1 6284.88 11675.3 Q6284.88 11618.2 6270.25 11589.9 Q6255.81 11561.4 6226.73 11561.4 M6226.73 11531.7 Q6273.21 11531.7 6297.66 11568.6 Q6322.29 11605.3 6322.29 11675.3 Q6322.29 11745.1 6297.66 11781.9 Q6273.21 11818.6 6226.73 11818.6 Q6180.25 11818.6 6155.62 11781.9 Q6131.18 11745.1 6131.18 11675.3 Q6131.18 11605.3 6155.62 11568.6 Q6180.25 11531.7 6226.73 11531.7 Z" fill="#000000" fill-rule="evenodd" fill-opacity="1" /><path clip-path="url(#clip0800)" d="M 0 0 M6362.84 11766.2 L6401.92 11766.2 L6401.92 11813.2 L6362.84 11813.2 L6362.84 11766.2 Z" fill="#000000" fill-rule="evenodd" fill-opacity="1" /><path clip-path="url(#clip0800)" d="M 0 0 M6545.25 11569.3 L6450.8 11716.9 L6545.25 11716.9 L6545.25 11569.3 M6535.43 11536.7 L6582.47 11536.7 L6582.47 11716.9 L6621.91 11716.9 L6621.91 11748 L6582.47 11748 L6582.47 11813.2 L6545.25 11813.2 L6545.25 11748 L6420.43 11748 L6420.43 11711.9 L6535.43 11536.7 Z" fill="#000000" fill-rule="evenodd" fill-opacity="1" /><path clip-path="url(#clip0800)" d="M 0 0 M10221.6 11561.4 Q10192.7 11561.4 10178.1 11589.9 Q10163.6 11618.2 10163.6 11675.3 Q10163.6 11732.1 10178.1 11760.6 Q10192.7 11789 10221.6 11789 Q10250.7 11789 10265.1 11760.6 Q10279.7 11732.1 10279.7 11675.3 Q10279.7 11618.2 10265.1 11589.9 Q10250.7 11561.4 10221.6 11561.4 M10221.6 11531.7 Q10268.1 11531.7 10292.5 11568.6 Q10317.2 11605.3 10317.2 11675.3 Q10317.2 11745.1 10292.5 11781.9 Q10268.1 11818.6 10221.6 11818.6 Q10175.1 11818.6 10150.5 11781.9 Q10126 11745.1 10126 11675.3 Q10126 11605.3 10150.5 11568.6 Q10175.1 11531.7 10221.6 11531.7 Z" fill="#000000" fill-rule="evenodd" fill-opacity="1" /><path clip-path="url(#clip0800)" d="M 0 0 M10357.7 11766.2 L10396.8 11766.2 L10396.8 11813.2 L10357.7 11813.2 L10357.7 11766.2 Z" fill="#000000" fill-rule="evenodd" fill-opacity="1" /><path clip-path="url(#clip0800)" d="M 0 0 M10437.7 11536.7 L10584.6 11536.7 L10584.6 11568.2 L10472 11568.2 L10472 11636 Q10480.1 11633.2 10488.3 11631.9 Q10496.4 11630.4 10504.6 11630.4 Q10550.9 11630.4 10577.9 11655.8 Q10604.9 11681.2 10604.9 11724.5 Q10604.9 11769.1 10577.2 11794 Q10549.4 11818.6 10498.8 11818.6 Q10481.4 11818.6 10463.3 11815.6 Q10445.3 11812.7 10426 11806.7 L10426 11769.1 Q10442.7 11778.2 10460.5 11782.7 Q10478.3 11787.1 10498.1 11787.1 Q10530.1 11787.1 10548.8 11770.3 Q10567.5 11753.4 10567.5 11724.5 Q10567.5 11695.6 10548.8 11678.8 Q10530.1 11661.9 10498.1 11661.9 Q10483.1 11661.9 10468.1 11665.3 Q10453.3 11668.6 10437.7 11675.6 L10437.7 11536.7 Z" fill="#000000" fill-rule="evenodd" fill-opacity="1" /><path clip-path="url(#clip0800)" d="M 0 0 M14205.9 11561.4 Q14177 11561.4 14162.4 11589.9 Q14148 11618.2 14148 11675.3 Q14148 11732.1 14162.4 11760.6 Q14177 11789 14205.9 11789 Q14235 11789 14249.4 11760.6 Q14264.1 11732.1 14264.1 11675.3 Q14264.1 11618.2 14249.4 11589.9 Q14235 11561.4 14205.9 11561.4 M14205.9 11531.7 Q14252.4 11531.7 14276.8 11568.6 Q14301.5 11605.3 14301.5 11675.3 Q14301.5 11745.1 14276.8 11781.9 Q14252.4 11818.6 14205.9 11818.6 Q14159.4 11818.6 14134.8 11781.9 Q14110.4 11745.1 14110.4 11675.3 Q14110.4 11605.3 14134.8 11568.6 Q14159.4 11531.7 14205.9 11531.7 Z" fill="#000000" fill-rule="evenodd" fill-opacity="1" /><path clip-path="url(#clip0800)" d="M 0 0 M14342 11766.2 L14381.1 11766.2 L14381.1 11813.2 L14342 11813.2 L14342 11766.2 Z" fill="#000000" fill-rule="evenodd" fill-opacity="1" /><path clip-path="url(#clip0800)" d="M 0 0 M14506.3 11660.1 Q14481.1 11660.1 14466.3 11677.3 Q14451.7 11694.5 14451.7 11724.5 Q14451.7 11754.3 14466.3 11771.7 Q14481.1 11789 14506.3 11789 Q14531.5 11789 14546.1 11771.7 Q14560.9 11754.3 14560.9 11724.5 Q14560.9 11694.5 14546.1 11677.3 Q14531.5 11660.1 14506.3 11660.1 M14580.5 11542.8 L14580.5 11576.9 Q14566.5 11570.3 14552 11566.7 Q14537.8 11563.2 14523.7 11563.2 Q14486.7 11563.2 14467 11588.2 Q14447.6 11613.2 14444.8 11663.8 Q14455.7 11647.7 14472.2 11639.1 Q14488.7 11630.4 14508.5 11630.4 Q14550.2 11630.4 14574.2 11655.8 Q14598.5 11681 14598.5 11724.5 Q14598.5 11767.1 14573.3 11792.8 Q14548.1 11818.6 14506.3 11818.6 Q14458.3 11818.6 14432.9 11781.9 Q14407.6 11745.1 14407.6 11675.3 Q14407.6 11609.7 14438.7 11570.8 Q14469.8 11531.7 14522.2 11531.7 Q14536.3 11531.7 14550.5 11534.5 Q14565 11537.3 14580.5 11542.8 Z" fill="#000000" fill-rule="evenodd" fill-opacity="1" /><path clip-path="url(#clip0800)" d="M 0 0 M18199.1 11561.4 Q18170.2 11561.4 18155.6 11589.9 Q18141.2 11618.2 18141.2 11675.3 Q18141.2 11732.1 18155.6 11760.6 Q18170.2 11789 18199.1 11789 Q18228.2 11789 18242.6 11760.6 Q18257.3 11732.1 18257.3 11675.3 Q18257.3 11618.2 18242.6 11589.9 Q18228.2 11561.4 18199.1 11561.4 M18199.1 11531.7 Q18245.6 11531.7 18270 11568.6 Q18294.7 11605.3 18294.7 11675.3 Q18294.7 11745.1 18270 11781.9 Q18245.6 11818.6 18199.1 11818.6 Q18152.6 11818.6 18128 11781.9 Q18103.6 11745.1 18103.6 11675.3 Q18103.6 11605.3 18128 11568.6 Q18152.6 11531.7 18199.1 11531.7 Z" fill="#000000" fill-rule="evenodd" fill-opacity="1" /><path clip-path="url(#clip0800)" d="M 0 0 M18335.2 11766.2 L18374.3 11766.2 L18374.3 11813.2 L18335.2 11813.2 L18335.2 11766.2 Z" fill="#000000" fill-rule="evenodd" fill-opacity="1" /><path clip-path="url(#clip0800)" d="M 0 0 M18405.4 11536.7 L18583.2 11536.7 L18583.2 11552.7 L18482.8 11813.2 L18443.7 11813.2 L18538.2 11568.2 L18405.4 11568.2 L18405.4 11536.7 Z" fill="#000000" fill-rule="evenodd" fill-opacity="1" /><path clip-path="url(#clip0800)" d="M 0 0 M1122.67 10270.7 Q1093.78 10270.7 1079.15 10299.2 Q1064.71 10327.5 1064.71 10384.6 Q1064.71 10441.4 1079.15 10470 Q1093.78 10498.3 1122.67 10498.3 Q1151.75 10498.3 1166.19 10470 Q1180.82 10441.4 1180.82 10384.6 Q1180.82 10327.5 1166.19 10299.2 Q1151.75 10270.7 1122.67 10270.7 M1122.67 10241.1 Q1169.15 10241.1 1193.6 10277.9 Q1218.23 10314.6 1218.23 10384.6 Q1218.23 10454.4 1193.6 10491.2 Q1169.15 10527.9 1122.67 10527.9 Q1076.19 10527.9 1051.56 10491.2 Q1027.12 10454.4 1027.12 10384.6 Q1027.12 10314.6 1051.56 10277.9 Q1076.19 10241.1 1122.67 10241.1 Z" fill="#000000" fill-rule="evenodd" fill-opacity="1" /><path clip-path="url(#clip0800)" d="M 0 0 M1258.78 10475.5 L1297.86 10475.5 L1297.86 10522.5 L1258.78 10522.5 L1258.78 10475.5 Z" fill="#000000" fill-rule="evenodd" fill-opacity="1" /><path clip-path="url(#clip0800)" d="M 0 0 M1451.75 10373.5 Q1478.6 10379.2 1493.6 10397.4 Q1508.78 10415.5 1508.78 10442.2 Q1508.78 10483.1 1480.63 10505.5 Q1452.49 10527.9 1400.63 10527.9 Q1383.23 10527.9 1364.71 10524.4 Q1346.38 10521.1 1326.75 10514.2 L1326.75 10478.1 Q1342.3 10487.2 1360.82 10491.8 Q1379.34 10496.4 1399.52 10496.4 Q1434.71 10496.4 1453.04 10482.5 Q1471.56 10468.7 1471.56 10442.2 Q1471.56 10417.7 1454.34 10404 Q1437.3 10390.1 1406.75 10390.1 L1374.52 10390.1 L1374.52 10359.4 L1408.23 10359.4 Q1435.82 10359.4 1450.45 10348.5 Q1465.08 10337.4 1465.08 10316.6 Q1465.08 10295.3 1449.89 10284 Q1434.89 10272.5 1406.75 10272.5 Q1391.38 10272.5 1373.78 10275.9 Q1356.19 10279.2 1335.08 10286.2 L1335.08 10252.9 Q1356.38 10247 1374.89 10244 Q1393.6 10241.1 1410.08 10241.1 Q1452.67 10241.1 1477.49 10260.5 Q1502.3 10279.8 1502.3 10312.7 Q1502.3 10335.7 1489.15 10351.6 Q1476 10367.4 1451.75 10373.5 Z" fill="#000000" fill-rule="evenodd" fill-opacity="1" /><path clip-path="url(#clip0800)" d="M 0 0 M1549.71 10246.1 L1696.56 10246.1 L1696.56 10277.5 L1583.97 10277.5 L1583.97 10345.3 Q1592.12 10342.5 1600.26 10341.2 Q1608.41 10339.8 1616.56 10339.8 Q1662.86 10339.8 1689.89 10365.1 Q1716.93 10390.5 1716.93 10433.8 Q1716.93 10478.5 1689.15 10503.3 Q1661.37 10527.9 1610.82 10527.9 Q1593.41 10527.9 1575.26 10525 Q1557.3 10522 1538.04 10516.1 L1538.04 10478.5 Q1554.71 10487.5 1572.49 10492 Q1590.26 10496.4 1610.08 10496.4 Q1642.11 10496.4 1660.82 10479.6 Q1679.52 10462.7 1679.52 10433.8 Q1679.52 10405 1660.82 10388.1 Q1642.11 10371.2 1610.08 10371.2 Q1595.08 10371.2 1580.08 10374.6 Q1565.26 10377.9 1549.71 10385 L1549.71 10246.1 Z" fill="#000000" fill-rule="evenodd" fill-opacity="1" /><path clip-path="url(#clip0800)" d="M 0 0 M1105.64 8833.5 Q1076.75 8833.5 1062.12 8862.01 Q1047.67 8890.35 1047.67 8947.38 Q1047.67 9004.24 1062.12 9032.75 Q1076.75 9061.09 1105.64 9061.09 Q1134.71 9061.09 1149.15 9032.75 Q1163.78 9004.24 1163.78 8947.38 Q1163.78 8890.35 1149.15 8862.01 Q1134.71 8833.5 1105.64 8833.5 M1105.64 8803.87 Q1152.12 8803.87 1176.56 8840.72 Q1201.19 8877.38 1201.19 8947.38 Q1201.19 9017.2 1176.56 9054.05 Q1152.12 9090.72 1105.64 9090.72 Q1059.16 9090.72 1034.53 9054.05 Q1010.08 9017.2 1010.08 8947.38 Q1010.08 8877.38 1034.53 8840.72 Q1059.16 8803.87 1105.64 8803.87 Z" fill="#000000" fill-rule="evenodd" fill-opacity="1" /><path clip-path="url(#clip0800)" d="M 0 0 M1241.75 9038.31 L1280.82 9038.31 L1280.82 9085.35 L1241.75 9085.35 L1241.75 9038.31 Z" fill="#000000" fill-rule="evenodd" fill-opacity="1" /><path clip-path="url(#clip0800)" d="M 0 0 M1424.15 8841.46 L1329.71 8989.05 L1424.15 8989.05 L1424.15 8841.46 M1414.34 8808.87 L1461.38 8808.87 L1461.38 8989.05 L1500.82 8989.05 L1500.82 9020.16 L1461.38 9020.16 L1461.38 9085.35 L1424.15 9085.35 L1424.15 9020.16 L1299.34 9020.16 L1299.34 8984.05 L1414.34 8808.87 Z" fill="#000000" fill-rule="evenodd" fill-opacity="1" /><path clip-path="url(#clip0800)" d="M 0 0 M1621.37 8833.5 Q1592.49 8833.5 1577.86 8862.01 Q1563.41 8890.35 1563.41 8947.38 Q1563.41 9004.24 1577.86 9032.75 Q1592.49 9061.09 1621.37 9061.09 Q1650.45 9061.09 1664.89 9032.75 Q1679.52 9004.24 1679.52 8947.38 Q1679.52 8890.35 1664.89 8862.01 Q1650.45 8833.5 1621.37 8833.5 M1621.37 8803.87 Q1667.86 8803.87 1692.3 8840.72 Q1716.93 8877.38 1716.93 8947.38 Q1716.93 9017.2 1692.3 9054.05 Q1667.86 9090.72 1621.37 9090.72 Q1574.89 9090.72 1550.26 9054.05 Q1525.82 9017.2 1525.82 8947.38 Q1525.82 8877.38 1550.26 8840.72 Q1574.89 8803.87 1621.37 8803.87 Z" fill="#000000" fill-rule="evenodd" fill-opacity="1" /><path clip-path="url(#clip0800)" d="M 0 0 M1113.6 7396.3 Q1084.71 7396.3 1070.08 7424.82 Q1055.64 7453.15 1055.64 7510.19 Q1055.64 7567.04 1070.08 7595.56 Q1084.71 7623.89 1113.6 7623.89 Q1142.67 7623.89 1157.12 7595.56 Q1171.75 7567.04 1171.75 7510.19 Q1171.75 7453.15 1157.12 7424.82 Q1142.67 7396.3 1113.6 7396.3 M1113.6 7366.67 Q1160.08 7366.67 1184.52 7403.52 Q1209.15 7440.19 1209.15 7510.19 Q1209.15 7580 1184.52 7616.85 Q1160.08 7653.52 1113.6 7653.52 Q1067.12 7653.52 1042.49 7616.85 Q1018.04 7580 1018.04 7510.19 Q1018.04 7440.19 1042.49 7403.52 Q1067.12 7366.67 1113.6 7366.67 Z" fill="#000000" fill-rule="evenodd" fill-opacity="1" /><path clip-path="url(#clip0800)" d="M 0 0 M1249.71 7601.11 L1288.78 7601.11 L1288.78 7648.15 L1249.71 7648.15 L1249.71 7601.11 Z" fill="#000000" fill-rule="evenodd" fill-opacity="1" /><path clip-path="url(#clip0800)" d="M 0 0 M1432.12 7404.26 L1337.67 7551.85 L1432.12 7551.85 L1432.12 7404.26 M1422.3 7371.67 L1469.34 7371.67 L1469.34 7551.85 L1508.78 7551.85 L1508.78 7582.96 L1469.34 7582.96 L1469.34 7648.15 L1432.12 7648.15 L1432.12 7582.96 L1307.3 7582.96 L1307.3 7546.85 L1422.3 7371.67 Z" fill="#000000" fill-rule="evenodd" fill-opacity="1" /><path clip-path="url(#clip0800)" d="M 0 0 M1549.71 7371.67 L1696.56 7371.67 L1696.56 7403.15 L1583.97 7403.15 L1583.97 7470.93 Q1592.12 7468.15 1600.26 7466.85 Q1608.41 7465.37 1616.56 7465.37 Q1662.86 7465.37 1689.89 7490.74 Q1716.93 7516.11 1716.93 7559.44 Q1716.93 7604.07 1689.15 7628.89 Q1661.37 7653.52 1610.82 7653.52 Q1593.41 7653.52 1575.26 7650.56 Q1557.3 7647.59 1538.04 7641.67 L1538.04 7604.07 Q1554.71 7613.15 1572.49 7617.59 Q1590.26 7622.04 1610.08 7622.04 Q1642.11 7622.04 1660.82 7605.19 Q1679.52 7588.33 1679.52 7559.44 Q1679.52 7530.56 1660.82 7513.7 Q1642.11 7496.85 1610.08 7496.85 Q1595.08 7496.85 1580.08 7500.19 Q1565.26 7503.52 1549.71 7510.56 L1549.71 7371.67 Z" fill="#000000" fill-rule="evenodd" fill-opacity="1" /><path clip-path="url(#clip0800)" d="M 0 0 M1117.49 5959.1 Q1088.6 5959.1 1073.97 5987.62 Q1059.53 6015.95 1059.53 6072.99 Q1059.53 6129.84 1073.97 6158.36 Q1088.6 6186.69 1117.49 6186.69 Q1146.56 6186.69 1161.01 6158.36 Q1175.64 6129.84 1175.64 6072.99 Q1175.64 6015.95 1161.01 5987.62 Q1146.56 5959.1 1117.49 5959.1 M1117.49 5929.47 Q1163.97 5929.47 1188.41 5966.32 Q1213.04 6002.99 1213.04 6072.99 Q1213.04 6142.8 1188.41 6179.65 Q1163.97 6216.32 1117.49 6216.32 Q1071.01 6216.32 1046.38 6179.65 Q1021.93 6142.8 1021.93 6072.99 Q1021.93 6002.99 1046.38 5966.32 Q1071.01 5929.47 1117.49 5929.47 Z" fill="#000000" fill-rule="evenodd" fill-opacity="1" /><path clip-path="url(#clip0800)" d="M 0 0 M1253.6 6163.91 L1292.67 6163.91 L1292.67 6210.95 L1253.6 6210.95 L1253.6 6163.91 Z" fill="#000000" fill-rule="evenodd" fill-opacity="1" /><path clip-path="url(#clip0800)" d="M 0 0 M1333.6 5934.47 L1480.45 5934.47 L1480.45 5965.95 L1367.86 5965.95 L1367.86 6033.73 Q1376.01 6030.95 1384.15 6029.65 Q1392.3 6028.17 1400.45 6028.17 Q1446.75 6028.17 1473.78 6053.54 Q1500.82 6078.91 1500.82 6122.25 Q1500.82 6166.88 1473.04 6191.69 Q1445.26 6216.32 1394.71 6216.32 Q1377.3 6216.32 1359.15 6213.36 Q1341.19 6210.39 1321.93 6204.47 L1321.93 6166.88 Q1338.6 6175.95 1356.38 6180.39 Q1374.15 6184.84 1393.97 6184.84 Q1426 6184.84 1444.71 6167.99 Q1463.41 6151.14 1463.41 6122.25 Q1463.41 6093.36 1444.71 6076.51 Q1426 6059.65 1393.97 6059.65 Q1378.97 6059.65 1363.97 6062.99 Q1349.15 6066.32 1333.6 6073.36 L1333.6 5934.47 Z" fill="#000000" fill-rule="evenodd" fill-opacity="1" /><path clip-path="url(#clip0800)" d="M 0 0 M1621.37 5959.1 Q1592.49 5959.1 1577.86 5987.62 Q1563.41 6015.95 1563.41 6072.99 Q1563.41 6129.84 1577.86 6158.36 Q1592.49 6186.69 1621.37 6186.69 Q1650.45 6186.69 1664.89 6158.36 Q1679.52 6129.84 1679.52 6072.99 Q1679.52 6015.95 1664.89 5987.62 Q1650.45 5959.1 1621.37 5959.1 M1621.37 5929.47 Q1667.86 5929.47 1692.3 5966.32 Q1716.93 6002.99 1716.93 6072.99 Q1716.93 6142.8 1692.3 6179.65 Q1667.86 6216.32 1621.37 6216.32 Q1574.89 6216.32 1550.26 6179.65 Q1525.82 6142.8 1525.82 6072.99 Q1525.82 6002.99 1550.26 5966.32 Q1574.89 5929.47 1621.37 5929.47 Z" fill="#000000" fill-rule="evenodd" fill-opacity="1" /><path clip-path="url(#clip0800)" d="M 0 0 M1125.45 4521.9 Q1096.56 4521.9 1081.93 4550.42 Q1067.49 4578.75 1067.49 4635.79 Q1067.49 4692.64 1081.93 4721.16 Q1096.56 4749.49 1125.45 4749.49 Q1154.52 4749.49 1168.97 4721.16 Q1183.6 4692.64 1183.6 4635.79 Q1183.6 4578.75 1168.97 4550.42 Q1154.52 4521.9 1125.45 4521.9 M1125.45 4492.27 Q1171.93 4492.27 1196.38 4529.12 Q1221.01 4565.79 1221.01 4635.79 Q1221.01 4705.6 1196.38 4742.46 Q1171.93 4779.12 1125.45 4779.12 Q1078.97 4779.12 1054.34 4742.46 Q1029.9 4705.6 1029.9 4635.79 Q1029.9 4565.79 1054.34 4529.12 Q1078.97 4492.27 1125.45 4492.27 Z" fill="#000000" fill-rule="evenodd" fill-opacity="1" /><path clip-path="url(#clip0800)" d="M 0 0 M1261.56 4726.71 L1300.64 4726.71 L1300.64 4773.75 L1261.56 4773.75 L1261.56 4726.71 Z" fill="#000000" fill-rule="evenodd" fill-opacity="1" /><path clip-path="url(#clip0800)" d="M 0 0 M1341.56 4497.27 L1488.41 4497.27 L1488.41 4528.75 L1375.82 4528.75 L1375.82 4596.53 Q1383.97 4593.75 1392.12 4592.46 Q1400.26 4590.97 1408.41 4590.97 Q1454.71 4590.97 1481.75 4616.35 Q1508.78 4641.72 1508.78 4685.05 Q1508.78 4729.68 1481 4754.49 Q1453.23 4779.12 1402.67 4779.12 Q1385.26 4779.12 1367.12 4776.16 Q1349.15 4773.2 1329.89 4767.27 L1329.89 4729.68 Q1346.56 4738.75 1364.34 4743.2 Q1382.12 4747.64 1401.93 4747.64 Q1433.97 4747.64 1452.67 4730.79 Q1471.38 4713.94 1471.38 4685.05 Q1471.38 4656.16 1452.67 4639.31 Q1433.97 4622.46 1401.93 4622.46 Q1386.93 4622.46 1371.93 4625.79 Q1357.12 4629.12 1341.56 4636.16 L1341.56 4497.27 Z" fill="#000000" fill-rule="evenodd" fill-opacity="1" /><path clip-path="url(#clip0800)" d="M 0 0 M1549.71 4497.27 L1696.56 4497.27 L1696.56 4528.75 L1583.97 4528.75 L1583.97 4596.53 Q1592.12 4593.75 1600.26 4592.46 Q1608.41 4590.97 1616.56 4590.97 Q1662.86 4590.97 1689.89 4616.35 Q1716.93 4641.72 1716.93 4685.05 Q1716.93 4729.68 1689.15 4754.49 Q1661.37 4779.12 1610.82 4779.12 Q1593.41 4779.12 1575.26 4776.16 Q1557.3 4773.2 1538.04 4767.27 L1538.04 4729.68 Q1554.71 4738.75 1572.49 4743.2 Q1590.26 4747.64 1610.08 4747.64 Q1642.11 4747.64 1660.82 4730.79 Q1679.52 4713.94 1679.52 4685.05 Q1679.52 4656.16 1660.82 4639.31 Q1642.11 4622.46 1610.08 4622.46 Q1595.08 4622.46 1580.08 4625.79 Q1565.26 4629.12 1549.71 4636.16 L1549.71 4497.27 Z" fill="#000000" fill-rule="evenodd" fill-opacity="1" /><path clip-path="url(#clip0800)" d="M 0 0 M1108.23 3084.7 Q1079.34 3084.7 1064.71 3113.22 Q1050.27 3141.55 1050.27 3198.59 Q1050.27 3255.44 1064.71 3283.96 Q1079.34 3312.29 1108.23 3312.29 Q1137.3 3312.29 1151.75 3283.96 Q1166.38 3255.44 1166.38 3198.59 Q1166.38 3141.55 1151.75 3113.22 Q1137.3 3084.7 1108.23 3084.7 M1108.23 3055.07 Q1154.71 3055.07 1179.15 3091.93 Q1203.78 3128.59 1203.78 3198.59 Q1203.78 3268.41 1179.15 3305.26 Q1154.71 3341.92 1108.23 3341.92 Q1061.75 3341.92 1037.12 3305.26 Q1012.67 3268.41 1012.67 3198.59 Q1012.67 3128.59 1037.12 3091.93 Q1061.75 3055.07 1108.23 3055.07 Z" fill="#000000" fill-rule="evenodd" fill-opacity="1" /><path clip-path="url(#clip0800)" d="M 0 0 M1244.34 3289.52 L1283.41 3289.52 L1283.41 3336.55 L1244.34 3336.55 L1244.34 3289.52 Z" fill="#000000" fill-rule="evenodd" fill-opacity="1" /><path clip-path="url(#clip0800)" d="M 0 0 M1408.6 3183.41 Q1383.41 3183.41 1368.6 3200.63 Q1353.97 3217.85 1353.97 3247.85 Q1353.97 3277.67 1368.6 3295.07 Q1383.41 3312.29 1408.6 3312.29 Q1433.78 3312.29 1448.41 3295.07 Q1463.23 3277.67 1463.23 3247.85 Q1463.23 3217.85 1448.41 3200.63 Q1433.78 3183.41 1408.6 3183.41 M1482.86 3066.18 L1482.86 3100.26 Q1468.78 3093.59 1454.34 3090.07 Q1440.08 3086.56 1426 3086.56 Q1388.97 3086.56 1369.34 3111.55 Q1349.89 3136.55 1347.12 3187.11 Q1358.04 3171 1374.52 3162.48 Q1391.01 3153.78 1410.82 3153.78 Q1452.49 3153.78 1476.56 3179.15 Q1500.82 3204.33 1500.82 3247.85 Q1500.82 3290.44 1475.63 3316.18 Q1450.45 3341.92 1408.6 3341.92 Q1360.63 3341.92 1335.26 3305.26 Q1309.89 3268.41 1309.89 3198.59 Q1309.89 3133.04 1341.01 3094.15 Q1372.12 3055.07 1424.52 3055.07 Q1438.6 3055.07 1452.86 3057.85 Q1467.3 3060.63 1482.86 3066.18 Z" fill="#000000" fill-rule="evenodd" fill-opacity="1" /><path clip-path="url(#clip0800)" d="M 0 0 M1621.37 3084.7 Q1592.49 3084.7 1577.86 3113.22 Q1563.41 3141.55 1563.41 3198.59 Q1563.41 3255.44 1577.86 3283.96 Q1592.49 3312.29 1621.37 3312.29 Q1650.45 3312.29 1664.89 3283.96 Q1679.52 3255.44 1679.52 3198.59 Q1679.52 3141.55 1664.89 3113.22 Q1650.45 3084.7 1621.37 3084.7 M1621.37 3055.07 Q1667.86 3055.07 1692.3 3091.93 Q1716.93 3128.59 1716.93 3198.59 Q1716.93 3268.41 1692.3 3305.26 Q1667.86 3341.92 1621.37 3341.92 Q1574.89 3341.92 1550.26 3305.26 Q1525.82 3268.41 1525.82 3198.59 Q1525.82 3128.59 1550.26 3091.93 Q1574.89 3055.07 1621.37 3055.07 Z" fill="#000000" fill-rule="evenodd" fill-opacity="1" /><path clip-path="url(#clip0800)" d="M 0 0 M1116.19 1647.51 Q1087.3 1647.51 1072.67 1676.02 Q1058.23 1704.36 1058.23 1761.39 Q1058.23 1818.25 1072.67 1846.76 Q1087.3 1875.1 1116.19 1875.1 Q1145.27 1875.1 1159.71 1846.76 Q1174.34 1818.25 1174.34 1761.39 Q1174.34 1704.36 1159.71 1676.02 Q1145.27 1647.51 1116.19 1647.51 M1116.19 1617.88 Q1162.67 1617.88 1187.12 1654.73 Q1211.75 1691.39 1211.75 1761.39 Q1211.75 1831.21 1187.12 1868.06 Q1162.67 1904.73 1116.19 1904.73 Q1069.71 1904.73 1045.08 1868.06 Q1020.64 1831.21 1020.64 1761.39 Q1020.64 1691.39 1045.08 1654.73 Q1069.71 1617.88 1116.19 1617.88 Z" fill="#000000" fill-rule="evenodd" fill-opacity="1" /><path clip-path="url(#clip0800)" d="M 0 0 M1252.3 1852.32 L1291.38 1852.32 L1291.38 1899.36 L1252.3 1899.36 L1252.3 1852.32 Z" fill="#000000" fill-rule="evenodd" fill-opacity="1" /><path clip-path="url(#clip0800)" d="M 0 0 M1416.56 1746.21 Q1391.38 1746.21 1376.56 1763.43 Q1361.93 1780.65 1361.93 1810.65 Q1361.93 1840.47 1376.56 1857.87 Q1391.38 1875.1 1416.56 1875.1 Q1441.75 1875.1 1456.38 1857.87 Q1471.19 1840.47 1471.19 1810.65 Q1471.19 1780.65 1456.38 1763.43 Q1441.75 1746.21 1416.56 1746.21 M1490.82 1628.99 L1490.82 1663.06 Q1476.75 1656.39 1462.3 1652.88 Q1448.04 1649.36 1433.97 1649.36 Q1396.93 1649.36 1377.3 1674.36 Q1357.86 1699.36 1355.08 1749.91 Q1366.01 1733.8 1382.49 1725.28 Q1398.97 1716.58 1418.78 1716.58 Q1460.45 1716.58 1484.52 1741.95 Q1508.78 1767.13 1508.78 1810.65 Q1508.78 1853.24 1483.6 1878.99 Q1458.41 1904.73 1416.56 1904.73 Q1368.6 1904.73 1343.23 1868.06 Q1317.86 1831.21 1317.86 1761.39 Q1317.86 1695.84 1348.97 1656.95 Q1380.08 1617.88 1432.49 1617.88 Q1446.56 1617.88 1460.82 1620.65 Q1475.26 1623.43 1490.82 1628.99 Z" fill="#000000" fill-rule="evenodd" fill-opacity="1" /><path clip-path="url(#clip0800)" d="M 0 0 M1549.71 1622.88 L1696.56 1622.88 L1696.56 1654.36 L1583.97 1654.36 L1583.97 1722.13 Q1592.12 1719.36 1600.26 1718.06 Q1608.41 1716.58 1616.56 1716.58 Q1662.86 1716.58 1689.89 1741.95 Q1716.93 1767.32 1716.93 1810.65 Q1716.93 1855.28 1689.15 1880.1 Q1661.37 1904.73 1610.82 1904.73 Q1593.41 1904.73 1575.26 1901.76 Q1557.3 1898.8 1538.04 1892.87 L1538.04 1855.28 Q1554.71 1864.36 1572.49 1868.8 Q1590.26 1873.24 1610.08 1873.24 Q1642.11 1873.24 1660.82 1856.39 Q1679.52 1839.54 1679.52 1810.65 Q1679.52 1781.76 1660.82 1764.91 Q1642.11 1748.06 1610.08 1748.06 Q1595.08 1748.06 1580.08 1751.39 Q1565.26 1754.73 1549.71 1761.76 L1549.71 1622.88 Z" fill="#000000" fill-rule="evenodd" fill-opacity="1" /><path clip-path="url(#clip0800)" d="M 0 0 M4853.18 228.341 L4853.18 284.73 Q4827.9 271.767 4800.68 265.286 Q4773.46 258.804 4744.29 258.804 Q4699.89 258.804 4677.53 272.415 Q4655.5 286.026 4655.5 313.248 Q4655.5 333.989 4671.38 345.98 Q4687.25 357.646 4735.22 368.341 L4755.63 372.878 Q4819.15 386.489 4845.73 411.442 Q4872.62 436.072 4872.62 480.47 Q4872.62 531.025 4832.44 560.516 Q4792.58 590.006 4722.58 590.006 Q4693.41 590.006 4661.65 584.173 Q4630.22 578.664 4595.22 567.321 L4595.22 505.747 Q4628.27 522.923 4660.36 531.673 Q4692.44 540.099 4723.87 540.099 Q4766 540.099 4788.69 525.84 Q4811.37 511.257 4811.37 485.007 Q4811.37 460.701 4794.85 447.738 Q4778.64 434.775 4723.23 422.785 L4702.49 417.924 Q4647.07 406.257 4622.44 382.276 Q4597.81 357.97 4597.81 315.841 Q4597.81 264.637 4634.11 236.767 Q4670.4 208.897 4737.16 208.897 Q4770.22 208.897 4799.38 213.758 Q4828.55 218.619 4853.18 228.341 Z" fill="#000000" fill-rule="evenodd" fill-opacity="1" /><path clip-path="url(#clip0800)" d="M 0 0 M4935.17 217.647 L4994.8 217.647 L4994.8 580.608 L4935.17 580.608 L4935.17 217.647 M4935.17 76.3514 L4994.8 76.3514 L4994.8 151.86 L4935.17 151.86 L4935.17 76.3514 Z" fill="#000000" fill-rule="evenodd" fill-opacity="1" /><path clip-path="url(#clip0800)" d="M 0 0 M5031.42 217.647 L5314.66 217.647 L5314.66 272.091 L5090.4 532.969 L5314.66 532.969 L5314.66 580.608 L5023.32 580.608 L5023.32 526.164 L5247.58 265.286 L5031.42 265.286 L5031.42 217.647 Z" fill="#000000" fill-rule="evenodd" fill-opacity="1" /><path clip-path="url(#clip0800)" d="M 0 0 M5687.67 384.22 L5687.67 413.387 L5413.5 413.387 Q5417.39 474.96 5450.45 507.368 Q5483.82 539.451 5543.13 539.451 Q5577.48 539.451 5609.56 531.025 Q5641.97 522.599 5673.73 505.747 L5673.73 562.136 Q5641.65 575.747 5607.94 582.877 Q5574.24 590.006 5539.57 590.006 Q5452.71 590.006 5401.83 539.451 Q5351.28 488.896 5351.28 402.692 Q5351.28 313.572 5399.24 261.397 Q5447.53 208.897 5529.19 208.897 Q5602.44 208.897 5644.89 256.212 Q5687.67 303.202 5687.67 384.22 M5628.04 366.72 Q5627.39 317.785 5600.49 288.619 Q5573.92 259.452 5529.84 259.452 Q5479.94 259.452 5449.8 287.647 Q5419.98 315.841 5415.45 367.044 L5628.04 366.72 Z" fill="#000000" fill-rule="evenodd" fill-opacity="1" /><path clip-path="url(#clip0800)" d="M 0 0 M5765.44 498.294 L5833.82 498.294 L5833.82 580.608 L5765.44 580.608 L5765.44 498.294 M5765.44 237.415 L5833.82 237.415 L5833.82 319.73 L5765.44 319.73 L5765.44 237.415 Z" fill="#000000" fill-rule="evenodd" fill-opacity="1" /><path clip-path="url(#clip0800)" d="M 0 0 M6052.9 312.6 Q6008.82 312.6 5982.9 342.739 Q5957.29 372.878 5957.29 425.377 Q5957.29 477.553 5982.9 508.016 Q6008.82 538.155 6052.9 538.155 Q6096.97 538.155 6122.57 508.016 Q6148.5 477.553 6148.5 425.377 Q6148.5 372.878 6122.57 342.739 Q6096.97 312.6 6052.9 312.6 M6182.85 107.462 L6182.85 167.092 Q6158.22 155.425 6132.94 149.268 Q6107.99 143.11 6083.36 143.11 Q6018.54 143.11 5984.19 186.86 Q5950.16 230.61 5945.3 319.082 Q5964.42 290.887 5993.27 275.98 Q6022.11 260.749 6056.78 260.749 Q6129.7 260.749 6171.83 305.147 Q6214.28 349.22 6214.28 425.377 Q6214.28 499.914 6170.21 544.96 Q6126.14 590.006 6052.9 590.006 Q5968.96 590.006 5924.56 525.84 Q5880.17 461.349 5880.17 339.174 Q5880.17 224.453 5934.61 156.397 Q5989.05 88.018 6080.77 88.018 Q6105.4 88.018 6130.35 92.8791 Q6155.63 97.7402 6182.85 107.462 Z" fill="#000000" fill-rule="evenodd" fill-opacity="1" /><path clip-path="url(#clip0800)" d="M 0 0 M6292.06 498.294 L6360.44 498.294 L6360.44 554.034 L6307.29 657.737 L6265.49 657.737 L6292.06 554.034 L6292.06 498.294 Z" fill="#000000" fill-rule="evenodd" fill-opacity="1" /><path clip-path="url(#clip0800)" d="M 0 0 M6571.41 350.841 Q6524.74 350.841 6497.85 375.794 Q6471.27 400.748 6471.27 444.498 Q6471.27 488.247 6497.85 513.201 Q6524.74 538.155 6571.41 538.155 Q6618.08 538.155 6644.98 513.201 Q6671.87 487.923 6671.87 444.498 Q6671.87 400.748 6644.98 375.794 Q6618.4 350.841 6571.41 350.841 M6505.95 322.97 Q6463.82 312.6 6440.16 283.758 Q6416.83 254.915 6416.83 213.434 Q6416.83 155.425 6457.99 121.722 Q6499.47 88.018 6571.41 88.018 Q6643.68 88.018 6684.84 121.722 Q6725.99 155.425 6725.99 213.434 Q6725.99 254.915 6702.34 283.758 Q6679 312.6 6637.2 322.97 Q6684.51 333.989 6710.76 366.072 Q6737.34 398.155 6737.34 444.498 Q6737.34 514.821 6694.23 552.414 Q6651.46 590.006 6571.41 590.006 Q6491.37 590.006 6448.26 552.414 Q6405.49 514.821 6405.49 444.498 Q6405.49 398.155 6432.06 366.072 Q6458.63 333.989 6505.95 322.97 M6481.97 219.591 Q6481.97 257.184 6505.3 278.249 Q6528.96 299.313 6571.41 299.313 Q6613.54 299.313 6637.2 278.249 Q6661.18 257.184 6661.18 219.591 Q6661.18 181.999 6637.2 160.934 Q6613.54 139.87 6571.41 139.87 Q6528.96 139.87 6505.3 160.934 Q6481.97 181.999 6481.97 219.591 Z" fill="#000000" fill-rule="evenodd" fill-opacity="1" /><path clip-path="url(#clip0800)" d="M 0 0 M6815.11 498.294 L6883.49 498.294 L6883.49 554.034 L6830.35 657.737 L6788.54 657.737 L6815.11 554.034 L6815.11 498.294 Z" fill="#000000" fill-rule="evenodd" fill-opacity="1" /><path clip-path="url(#clip0800)" d="M 0 0 M6965.81 525.516 L7072.75 525.516 L7072.75 156.397 L6956.41 179.731 L6956.41 120.101 L7072.1 96.768 L7137.57 96.768 L7137.57 525.516 L7244.51 525.516 L7244.51 580.608 L6965.81 580.608 L6965.81 525.516 Z" fill="#000000" fill-rule="evenodd" fill-opacity="1" /><path clip-path="url(#clip0800)" d="M 0 0 M7455.48 139.87 Q7404.93 139.87 7379.32 189.777 Q7354.05 239.36 7354.05 339.174 Q7354.05 438.664 7379.32 488.571 Q7404.93 538.155 7455.48 538.155 Q7506.36 538.155 7531.64 488.571 Q7557.24 438.664 7557.24 339.174 Q7557.24 239.36 7531.64 189.777 Q7506.36 139.87 7455.48 139.87 M7455.48 88.018 Q7536.82 88.018 7579.6 152.508 Q7622.7 216.675 7622.7 339.174 Q7622.7 461.349 7579.6 525.84 Q7536.82 590.006 7455.48 590.006 Q7374.14 590.006 7331.04 525.84 Q7288.26 461.349 7288.26 339.174 Q7288.26 216.675 7331.04 152.508 Q7374.14 88.018 7455.48 88.018 Z" fill="#000000" fill-rule="evenodd" fill-opacity="1" /><path clip-path="url(#clip0800)" d="M 0 0 M7700.48 498.294 L7768.86 498.294 L7768.86 554.034 L7715.71 657.737 L7673.91 657.737 L7700.48 554.034 L7700.48 498.294 Z" fill="#000000" fill-rule="evenodd" fill-opacity="1" /><path clip-path="url(#clip0800)" d="M 0 0 M7851.17 525.516 L7958.12 525.516 L7958.12 156.397 L7841.77 179.731 L7841.77 120.101 L7957.47 96.768 L8022.93 96.768 L8022.93 525.516 L8129.88 525.516 L8129.88 580.608 L7851.17 580.608 L7851.17 525.516 Z" fill="#000000" fill-rule="evenodd" fill-opacity="1" /><path clip-path="url(#clip0800)" d="M 0 0 M8257.24 525.516 L8485.71 525.516 L8485.71 580.608 L8178.49 580.608 L8178.49 525.516 Q8215.75 486.951 8279.92 422.137 Q8344.41 356.998 8360.94 338.202 Q8392.37 302.878 8404.69 278.573 Q8417.33 253.943 8417.33 230.286 Q8417.33 191.721 8390.11 167.416 Q8363.21 143.11 8319.78 143.11 Q8288.99 143.11 8254.64 153.805 Q8220.62 164.499 8181.73 186.212 L8181.73 120.101 Q8221.26 104.222 8255.62 96.1199 Q8289.97 88.018 8318.49 88.018 Q8393.67 88.018 8438.39 125.61 Q8483.11 163.203 8483.11 226.073 Q8483.11 255.888 8471.77 282.786 Q8460.75 309.359 8431.26 345.656 Q8423.16 355.054 8379.74 400.1 Q8336.31 444.822 8257.24 525.516 Z" fill="#000000" fill-rule="evenodd" fill-opacity="1" /><path clip-path="url(#clip0800)" d="M 0 0 M8563.48 498.294 L8631.86 498.294 L8631.86 554.034 L8578.72 657.737 L8536.91 657.737 L8563.48 554.034 L8563.48 498.294 Z" fill="#000000" fill-rule="evenodd" fill-opacity="1" /><path clip-path="url(#clip0800)" d="M 0 0 M8714.18 525.516 L8821.12 525.516 L8821.12 156.397 L8704.78 179.731 L8704.78 120.101 L8820.47 96.768 L8885.94 96.768 L8885.94 525.516 L8992.88 525.516 L8992.88 580.608 L8714.18 580.608 L8714.18 525.516 Z" fill="#000000" fill-rule="evenodd" fill-opacity="1" /><path clip-path="url(#clip0800)" d="M 0 0 M9243.71 153.805 L9078.43 412.09 L9243.71 412.09 L9243.71 153.805 M9226.54 96.768 L9308.85 96.768 L9308.85 412.09 L9377.88 412.09 L9377.88 466.535 L9308.85 466.535 L9308.85 580.608 L9243.71 580.608 L9243.71 466.535 L9025.29 466.535 L9025.29 403.34 L9226.54 96.768 Z" fill="#000000" fill-rule="evenodd" fill-opacity="1" /><path clip-path="url(#clip0800)" d="M 0 0 M9455.66 498.294 L9524.03 498.294 L9524.03 554.034 L9470.89 657.737 L9429.08 657.737 L9455.66 554.034 L9455.66 498.294 Z" fill="#000000" fill-rule="evenodd" fill-opacity="1" /><path clip-path="url(#clip0800)" d="M 0 0 M9606.35 525.516 L9713.29 525.516 L9713.29 156.397 L9596.95 179.731 L9596.95 120.101 L9712.64 96.768 L9778.11 96.768 L9778.11 525.516 L9885.05 525.516 L9885.05 580.608 L9606.35 580.608 L9606.35 525.516 Z" fill="#000000" fill-rule="evenodd" fill-opacity="1" /><path clip-path="url(#clip0800)" d="M 0 0 M10104.1 312.6 Q10060.1 312.6 10034.1 342.739 Q10008.5 372.878 10008.5 425.377 Q10008.5 477.553 10034.1 508.016 Q10060.1 538.155 10104.1 538.155 Q10148.2 538.155 10173.8 508.016 Q10199.7 477.553 10199.7 425.377 Q10199.7 372.878 10173.8 342.739 Q10148.2 312.6 10104.1 312.6 M10234.1 107.462 L10234.1 167.092 Q10209.4 155.425 10184.2 149.268 Q10159.2 143.11 10134.6 143.11 Q10069.8 143.11 10035.4 186.86 Q10001.4 230.61 9996.53 319.082 Q10015.7 290.887 10044.5 275.98 Q10073.3 260.749 10108 260.749 Q10180.9 260.749 10223.1 305.147 Q10265.5 349.22 10265.5 425.377 Q10265.5 499.914 10221.4 544.96 Q10177.4 590.006 10104.1 590.006 Q10020.2 590.006 9975.79 525.84 Q9931.39 461.349 9931.39 339.174 Q9931.39 224.453 9985.84 156.397 Q10040.3 88.018 10132 88.018 Q10156.6 88.018 10181.6 92.8791 Q10206.9 97.7402 10234.1 107.462 Z" fill="#000000" fill-rule="evenodd" fill-opacity="1" /><path clip-path="url(#clip0800)" d="M 0 0 M10343.3 237.415 L10411.7 237.415 L10411.7 319.73 L10343.3 319.73 L10343.3 237.415 M10343.3 498.294 L10411.7 498.294 L10411.7 554.034 L10358.5 657.737 L10316.7 657.737 L10343.3 554.034 L10343.3 498.294 Z" fill="#000000" fill-rule="evenodd" fill-opacity="1" /><path clip-path="url(#clip0800)" d="M 0 0 M10884.2 141.166 Q10812.9 141.166 10770.7 194.314 Q10728.9 247.462 10728.9 339.174 Q10728.9 430.563 10770.7 483.71 Q10812.9 536.858 10884.2 536.858 Q10955.5 536.858 10996.9 483.71 Q11038.7 430.563 11038.7 339.174 Q11038.7 247.462 10996.9 194.314 Q10955.5 141.166 10884.2 141.166 M10975.9 571.858 L11062.1 666.163 L10983 666.163 L10911.4 588.71 Q10900.7 589.358 10894.9 589.682 Q10889.4 590.006 10884.2 590.006 Q10782.1 590.006 10720.8 521.951 Q10659.9 453.572 10659.9 339.174 Q10659.9 224.453 10720.8 156.397 Q10782.1 88.018 10884.2 88.018 Q10985.9 88.018 11046.9 156.397 Q11107.8 224.453 11107.8 339.174 Q11107.8 423.433 11073.7 483.386 Q11040 543.34 10975.9 571.858 Z" fill="#000000" fill-rule="evenodd" fill-opacity="1" /><path clip-path="url(#clip0800)" d="M 0 0 M11389.1 279.221 L11804.5 279.221 L11804.5 333.665 L11389.1 333.665 L11389.1 279.221 M11389.1 411.442 L11804.5 411.442 L11804.5 466.535 L11389.1 466.535 L11389.1 411.442 Z" fill="#000000" fill-rule="evenodd" fill-opacity="1" /><path clip-path="url(#clip0800)" d="M 0 0 M12097.8 525.516 L12204.8 525.516 L12204.8 156.397 L12088.4 179.731 L12088.4 120.101 L12204.1 96.768 L12269.6 96.768 L12269.6 525.516 L12376.5 525.516 L12376.5 580.608 L12097.8 580.608 L12097.8 525.516 Z" fill="#000000" fill-rule="evenodd" fill-opacity="1" /><path clip-path="url(#clip0800)" d="M 0 0 M12595.6 312.6 Q12551.5 312.6 12525.6 342.739 Q12500 372.878 12500 425.377 Q12500 477.553 12525.6 508.016 Q12551.5 538.155 12595.6 538.155 Q12639.7 538.155 12665.3 508.016 Q12691.2 477.553 12691.2 425.377 Q12691.2 372.878 12665.3 342.739 Q12639.7 312.6 12595.6 312.6 M12725.5 107.462 L12725.5 167.092 Q12700.9 155.425 12675.6 149.268 Q12650.7 143.11 12626.1 143.11 Q12561.2 143.11 12526.9 186.86 Q12492.9 230.61 12488 319.082 Q12507.1 290.887 12536 275.98 Q12564.8 260.749 12599.5 260.749 Q12672.4 260.749 12714.5 305.147 Q12757 349.22 12757 425.377 Q12757 499.914 12712.9 544.96 Q12668.8 590.006 12595.6 590.006 Q12511.7 590.006 12467.3 525.84 Q12422.9 461.349 12422.9 339.174 Q12422.9 224.453 12477.3 156.397 Q12531.7 88.018 12623.5 88.018 Q12648.1 88.018 12673 92.8791 Q12698.3 97.7402 12725.5 107.462 Z" fill="#000000" fill-rule="evenodd" fill-opacity="1" /><path clip-path="url(#clip0800)" d="M 0 0 M12834.8 237.415 L12903.1 237.415 L12903.1 319.73 L12834.8 319.73 L12834.8 237.415 M12834.8 498.294 L12903.1 498.294 L12903.1 554.034 L12850 657.737 L12808.2 657.737 L12834.8 554.034 L12834.8 498.294 Z" fill="#000000" fill-rule="evenodd" fill-opacity="1" /><path clip-path="url(#clip0800)" d="M 0 0 M13179.2 96.768 L13244.7 96.768 L13244.7 546.904 Q13244.7 634.404 13211.3 673.941 Q13178.3 713.478 13104.7 713.478 L13079.8 713.478 L13079.8 658.385 L13100.2 658.385 Q13143.6 658.385 13161.4 634.08 Q13179.2 609.775 13179.2 546.904 L13179.2 96.768 Z" fill="#000000" fill-rule="evenodd" fill-opacity="1" /><path clip-path="url(#clip0800)" d="M 0 0 M13583 690.793 L13583 737.135 L13238.2 737.135 L13238.2 690.793 L13583 690.793 Z" fill="#000000" fill-rule="evenodd" fill-opacity="1" /><path clip-path="url(#clip0800)" d="M 0 0 M13794 139.87 Q13743.5 139.87 13717.9 189.777 Q13692.6 239.36 13692.6 339.174 Q13692.6 438.664 13717.9 488.571 Q13743.5 538.155 13794 538.155 Q13844.9 538.155 13870.2 488.571 Q13895.8 438.664 13895.8 339.174 Q13895.8 239.36 13870.2 189.777 Q13844.9 139.87 13794 139.87 M13794 88.018 Q13875.4 88.018 13918.1 152.508 Q13961.2 216.675 13961.2 339.174 Q13961.2 461.349 13918.1 525.84 Q13875.4 590.006 13794 590.006 Q13712.7 590.006 13669.6 525.84 Q13626.8 461.349 13626.8 339.174 Q13626.8 216.675 13669.6 152.508 Q13712.7 88.018 13794 88.018 Z" fill="#000000" fill-rule="evenodd" fill-opacity="1" /><path clip-path="url(#clip0800)" d="M 0 0 M14242.5 279.221 L14658 279.221 L14658 333.665 L14242.5 333.665 L14242.5 279.221 M14242.5 411.442 L14658 411.442 L14658 466.535 L14242.5 466.535 L14242.5 411.442 Z" fill="#000000" fill-rule="evenodd" fill-opacity="1" /><path clip-path="url(#clip0800)" d="M 0 0 M15079.9 139.87 Q15029.4 139.87 15003.8 189.777 Q14978.5 239.36 14978.5 339.174 Q14978.5 438.664 15003.8 488.571 Q15029.4 538.155 15079.9 538.155 Q15130.8 538.155 15156.1 488.571 Q15181.7 438.664 15181.7 339.174 Q15181.7 239.36 15156.1 189.777 Q15130.8 139.87 15079.9 139.87 M15079.9 88.018 Q15161.3 88.018 15204.1 152.508 Q15247.2 216.675 15247.2 339.174 Q15247.2 461.349 15204.1 525.84 Q15161.3 590.006 15079.9 590.006 Q14998.6 590.006 14955.5 525.84 Q14912.7 461.349 14912.7 339.174 Q14912.7 216.675 14955.5 152.508 Q14998.6 88.018 15079.9 88.018 Z" fill="#000000" fill-rule="evenodd" fill-opacity="1" /><path clip-path="url(#clip0800)" d="M 0 0 M15318.1 498.294 L15386.5 498.294 L15386.5 580.608 L15318.1 580.608 L15318.1 498.294 Z" fill="#000000" fill-rule="evenodd" fill-opacity="1" /><path clip-path="url(#clip0800)" d="M 0 0 M15637.3 153.805 L15472.1 412.09 L15637.3 412.09 L15637.3 153.805 M15620.2 96.768 L15702.5 96.768 L15702.5 412.09 L15771.5 412.09 L15771.5 466.535 L15702.5 466.535 L15702.5 580.608 L15637.3 580.608 L15637.3 466.535 L15418.9 466.535 L15418.9 403.34 L15620.2 96.768 Z" fill="#000000" fill-rule="evenodd" fill-opacity="1" /><path clip-path="url(#clip0800)" d="M 0 0 M15843.1 96.768 L16100.1 96.768 L16100.1 151.86 L15903.1 151.86 L15903.1 270.471 Q15917.3 265.61 15931.6 263.341 Q15945.9 260.749 15960.1 260.749 Q16041.1 260.749 16088.4 305.147 Q16135.8 349.544 16135.8 425.377 Q16135.8 503.479 16087.1 546.904 Q16038.5 590.006 15950.1 590.006 Q15919.6 590.006 15887.8 584.821 Q15856.4 579.636 15822.7 569.265 L15822.7 503.479 Q15851.9 519.358 15883 527.136 Q15914.1 534.914 15948.8 534.914 Q16004.8 534.914 16037.6 505.423 Q16070.3 475.933 16070.3 425.377 Q16070.3 374.822 16037.6 345.331 Q16004.8 315.841 15948.8 315.841 Q15922.5 315.841 15896.3 321.674 Q15870.3 327.508 15843.1 339.822 L15843.1 96.768 Z" fill="#000000" fill-rule="evenodd" fill-opacity="1" /><path clip-path="url(#clip0800)" d="M 0 0 M10204.7 12068.2 L10526.3 12068.2 L10526.3 12111.5 L10391.3 12111.5 L10391.3 12448.4 L10339.6 12448.4 L10339.6 12111.5 L10204.7 12111.5 L10204.7 12068.2 Z" fill="#000000" fill-rule="evenodd" fill-opacity="1" /><path clip-path="url(#clip0800)" d="M 0 0 M522.483 7641.94 L661.765 7641.94 L661.765 7559.44 Q661.765 7517.93 644.705 7498.07 Q627.39 7477.96 591.997 7477.96 Q556.349 7477.96 539.543 7498.07 Q522.483 7517.93 522.483 7559.44 L522.483 7641.94 M366.142 7641.94 L480.724 7641.94 L480.724 7565.8 Q480.724 7528.12 466.72 7509.78 Q452.461 7491.2 423.433 7491.2 Q394.66 7491.2 380.401 7509.78 Q366.142 7528.12 366.142 7565.8 L366.142 7641.94 M323.873 7693.37 L323.873 7561.98 Q323.873 7503.16 348.318 7471.33 Q372.762 7439.51 417.831 7439.51 Q452.715 7439.51 473.34 7455.8 Q493.965 7472.1 499.058 7503.67 Q507.206 7465.73 533.178 7444.85 Q558.895 7423.72 597.599 7423.72 Q648.524 7423.72 676.279 7458.35 Q704.033 7492.98 704.033 7556.89 L704.033 7693.37 L323.873 7693.37 Z" fill="#000000" fill-rule="evenodd" fill-opacity="1" /><path clip-path="url(#clip0800)" d="M 0 0 M418.85 7374.58 L418.85 7327.72 L704.033 7327.72 L704.033 7374.58 L418.85 7374.58 M307.832 7374.58 L307.832 7327.72 L367.16 7327.72 L367.16 7374.58 L307.832 7374.58 Z" fill="#000000" fill-rule="evenodd" fill-opacity="1" /><path clip-path="url(#clip0800)" d="M 0 0 M531.905 7041.52 L704.033 7041.52 L704.033 7088.37 L533.432 7088.37 Q492.946 7088.37 472.831 7104.16 Q452.715 7119.95 452.715 7151.52 Q452.715 7189.46 476.905 7211.36 Q501.095 7233.26 542.854 7233.26 L704.033 7233.26 L704.033 7280.36 L418.85 7280.36 L418.85 7233.26 L463.155 7233.26 Q437.437 7216.45 424.706 7193.79 Q411.975 7170.87 411.975 7141.08 Q411.975 7091.94 442.53 7066.73 Q472.831 7041.52 531.905 7041.52 Z" fill="#000000" fill-rule="evenodd" fill-opacity="1" /><path clip-path="url(#clip0800)" d="M 0 0 M462.136 6804.72 L307.832 6804.72 L307.832 6757.87 L704.033 6757.87 L704.033 6804.72 L661.256 6804.72 Q686.719 6819.49 699.195 6842.15 Q711.417 6864.56 711.417 6896.13 Q711.417 6947.82 670.168 6980.41 Q628.918 7012.75 561.696 7012.75 Q494.474 7012.75 453.224 6980.41 Q411.975 6947.82 411.975 6896.13 Q411.975 6864.56 424.451 6842.15 Q436.674 6819.49 462.136 6804.72 M561.696 6964.37 Q613.386 6964.37 642.922 6943.24 Q672.205 6921.85 672.205 6884.67 Q672.205 6847.5 642.922 6826.11 Q613.386 6804.72 561.696 6804.72 Q510.007 6804.72 480.724 6826.11 Q451.187 6847.5 451.187 6884.67 Q451.187 6921.85 480.724 6943.24 Q510.007 6964.37 561.696 6964.37 Z" fill="#000000" fill-rule="evenodd" fill-opacity="1" /><path clip-path="url(#clip0800)" d="M 0 0 M549.729 6464.79 L572.645 6464.79 L572.645 6680.2 Q621.024 6677.15 646.487 6651.18 Q671.695 6624.95 671.695 6578.35 Q671.695 6551.36 665.075 6526.15 Q658.455 6500.69 645.214 6475.74 L689.519 6475.74 Q700.214 6500.95 705.816 6527.43 Q711.417 6553.91 711.417 6581.15 Q711.417 6649.39 671.695 6689.37 Q631.973 6729.09 564.242 6729.09 Q494.22 6729.09 453.224 6691.41 Q411.975 6653.47 411.975 6589.3 Q411.975 6531.76 449.15 6498.4 Q486.071 6464.79 549.729 6464.79 M535.979 6511.64 Q497.53 6512.15 474.613 6533.28 Q451.697 6554.16 451.697 6588.79 Q451.697 6628.01 473.849 6651.69 Q496.002 6675.11 536.233 6678.68 L535.979 6511.64 Z" fill="#000000" fill-rule="evenodd" fill-opacity="1" /><path clip-path="url(#clip0800)" d="M 0 0 M462.646 6250.39 Q458.062 6258.29 456.025 6267.71 Q453.734 6276.87 453.734 6288.08 Q453.734 6327.8 479.706 6349.19 Q505.423 6370.32 553.803 6370.32 L704.033 6370.32 L704.033 6417.43 L418.85 6417.43 L418.85 6370.32 L463.155 6370.32 Q437.183 6355.55 424.706 6331.87 Q411.975 6308.19 411.975 6274.33 Q411.975 6269.49 412.739 6263.63 Q413.248 6257.78 414.521 6250.65 L462.646 6250.39 Z" fill="#000000" fill-rule="evenodd" fill-opacity="1" /><path clip-path="url(#clip0800)" d="M 0 0 M323.873 6156.94 L465.192 6156.94 L465.192 6200.23 L323.873 6200.23 L323.873 6156.94 Z" fill="#000000" fill-rule="evenodd" fill-opacity="1" /><path clip-path="url(#clip0800)" d="M 0 0 M427.252 5926 L471.558 5926 Q461.373 5945.86 456.28 5967.25 Q451.187 5988.63 451.187 6011.55 Q451.187 6046.44 461.882 6064 Q472.576 6081.32 493.965 6081.32 Q510.261 6081.32 519.682 6068.84 Q528.849 6056.37 537.252 6018.68 L540.817 6002.64 Q551.511 5952.73 571.117 5931.85 Q590.469 5910.72 625.353 5910.72 Q665.075 5910.72 688.246 5942.29 Q711.417 5973.61 711.417 6028.61 Q711.417 6051.53 706.834 6076.48 Q702.505 6101.18 693.594 6128.68 L645.214 6128.68 Q658.709 6102.71 665.584 6077.5 Q672.205 6052.29 672.205 6027.59 Q672.205 5994.49 661.001 5976.67 Q649.543 5958.84 628.918 5958.84 Q609.821 5958.84 599.636 5971.83 Q589.451 5984.56 580.029 6028.1 L576.21 6044.4 Q567.043 6087.94 548.201 6107.29 Q529.104 6126.64 496.002 6126.64 Q455.771 6126.64 433.873 6098.12 Q411.975 6069.61 411.975 6017.15 Q411.975 5991.18 415.794 5968.26 Q419.613 5945.35 427.252 5926 Z" fill="#000000" fill-rule="evenodd" fill-opacity="1" /><path clip-path="url(#clip0800)" d="M 0 0 M462.646 5530.56 Q458.062 5538.45 456.025 5547.87 Q453.734 5557.04 453.734 5568.24 Q453.734 5607.97 479.706 5629.35 Q505.423 5650.49 553.803 5650.49 L704.033 5650.49 L704.033 5697.59 L418.85 5697.59 L418.85 5650.49 L463.155 5650.49 Q437.183 5635.72 424.706 5612.04 Q411.975 5588.36 411.975 5554.49 Q411.975 5549.66 412.739 5543.8 Q413.248 5537.94 414.521 5530.81 L462.646 5530.56 Z" fill="#000000" fill-rule="evenodd" fill-opacity="1" /><path clip-path="url(#clip0800)" d="M 0 0 M560.678 5351.81 Q560.678 5408.59 573.664 5430.49 Q586.65 5452.39 617.969 5452.39 Q642.922 5452.39 657.691 5436.09 Q672.205 5419.54 672.205 5391.28 Q672.205 5352.32 644.705 5328.89 Q616.95 5305.21 571.117 5305.21 L560.678 5305.21 L560.678 5351.81 M541.326 5258.36 L704.033 5258.36 L704.033 5305.21 L660.746 5305.21 Q686.719 5321.25 699.195 5345.19 Q711.417 5369.12 711.417 5403.75 Q711.417 5447.55 686.973 5473.52 Q662.274 5499.24 621.024 5499.24 Q572.9 5499.24 548.455 5467.16 Q524.011 5434.82 524.011 5370.91 L524.011 5305.21 L519.428 5305.21 Q487.09 5305.21 469.521 5326.6 Q451.697 5347.74 451.697 5386.18 Q451.697 5410.63 457.553 5433.8 Q463.41 5456.97 475.122 5478.36 L431.836 5478.36 Q421.905 5452.64 417.067 5428.45 Q411.975 5404.26 411.975 5381.35 Q411.975 5319.47 444.058 5288.92 Q476.141 5258.36 541.326 5258.36 Z" fill="#000000" fill-rule="evenodd" fill-opacity="1" /><path clip-path="url(#clip0800)" d="M 0 0 M337.878 5162.87 L418.85 5162.87 L418.85 5066.37 L455.261 5066.37 L455.261 5162.87 L610.075 5162.87 Q644.96 5162.87 654.89 5153.45 Q664.821 5143.78 664.821 5114.5 L664.821 5066.37 L704.033 5066.37 L704.033 5114.5 Q704.033 5168.73 683.918 5189.36 Q663.547 5209.98 610.075 5209.98 L455.261 5209.98 L455.261 5244.36 L418.85 5244.36 L418.85 5209.98 L337.878 5209.98 L337.878 5162.87 Z" fill="#000000" fill-rule="evenodd" fill-opacity="1" /><path clip-path="url(#clip0800)" d="M 0 0 M418.85 5017.23 L418.85 4970.38 L704.033 4970.38 L704.033 5017.23 L418.85 5017.23 M307.832 5017.23 L307.832 4970.38 L367.16 4970.38 L367.16 5017.23 L307.832 5017.23 Z" fill="#000000" fill-rule="evenodd" fill-opacity="1" /><path clip-path="url(#clip0800)" d="M 0 0 M451.697 4810.72 Q451.697 4848.41 481.234 4870.31 Q510.516 4892.21 561.696 4892.21 Q612.876 4892.21 642.413 4870.56 Q671.695 4848.66 671.695 4810.72 Q671.695 4773.29 642.159 4751.4 Q612.622 4729.5 561.696 4729.5 Q511.025 4729.5 481.488 4751.4 Q451.697 4773.29 451.697 4810.72 M411.975 4810.72 Q411.975 4749.61 451.697 4714.73 Q491.419 4679.85 561.696 4679.85 Q631.719 4679.85 671.695 4714.73 Q711.417 4749.61 711.417 4810.72 Q711.417 4872.09 671.695 4906.97 Q631.719 4941.6 561.696 4941.6 Q491.419 4941.6 451.697 4906.97 Q411.975 4872.09 411.975 4810.72 Z" fill="#000000" fill-rule="evenodd" fill-opacity="1" /><polyline clip-path="url(#clip0802)" style="stroke:#009af9; stroke-width:32; stroke-opacity:1; fill:none" points="
  2387.6,1282.06 2548.77,1282.06 2709.94,1282.06 2871.11,1282.06 3032.28,1282.06 3193.45,1282.06 3354.62,1282.07 3515.79,1282.07 3676.96,1282.08 3838.13,1282.07 
  3999.3,1282.08 4160.47,1282.08 4321.64,1282.08 4482.8,1282.09 4643.97,1282.1 4805.14,1282.1 4966.31,1282.1 5127.48,1282.11 5288.65,1282.12 5449.82,1282.15 
  5610.99,1282.15 5772.16,1282.17 5933.33,1282.16 6094.5,1282.19 6255.67,1282.21 6416.84,1282.24 6578.01,1282.28 6739.18,1282.32 6900.35,1282.31 7061.52,1282.37 
  7222.68,1282.36 7383.85,1282.43 7545.02,1282.47 7706.19,1282.49 7867.36,1282.56 8028.53,1282.69 8189.7,1282.73 8350.87,1282.78 8512.04,1282.91 8673.21,1283.03 
  8834.38,1283.27 8995.55,1283.37 9156.72,1283.5 9317.89,1283.65 9479.06,1284.04 9640.23,1284.52 9801.4,1284.58 9962.56,1284.83 10123.7,1285.23 10284.9,1286.29 
  10446.1,1286.86 10607.2,1287.18 10768.4,1287.85 10929.6,1290.48 11090.8,1290.98 11251.9,1293.92 11413.1,1295.86 11574.3,1298.76 11735.4,1301.55 11896.6,1305.83 
  12057.8,1318.83 12218.9,1330.52 12380.1,1340.58 12541.3,1351.11 12702.4,1363.26 12863.6,1418.4 13024.8,1430.97 13186,1486.6 13347.1,1539.19 13508.3,1670.51 
  13669.5,1780.65 13830.6,1887.98 13991.8,2121.34 14153,2375.55 14314.1,2554.34 14475.3,2828.82 14636.5,3350.4 14797.6,3566.8 14958.8,4140.22 15120,4635.83 
  15281.2,5132 15442.3,5499.37 15603.5,5785.49 15764.7,6147.51 15925.8,6451.7 16087,6553.57 16248.2,6569.62 16409.3,6462.16 16570.5,6518.51 16731.7,6408.14 
  16892.8,6183.76 17054,5953.54 17215.2,5527.27 17376.4,5423.36 17537.5,5092.59 17698.7,4940.82 17859.9,4908.8 18021,4456.04 18182.2,4149.86 18343.4,4168.22 
  
  "/>
<polyline clip-path="url(#clip0802)" style="stroke:#e26f46; stroke-width:32; stroke-opacity:1; fill:none" points="
  2387.6,1282.05 2548.77,1282.05 2709.94,1282.05 2871.11,1282.06 3032.28,1282.06 3193.45,1282.06 3354.62,1282.06 3515.79,1282.06 3676.96,1282.06 3838.13,1282.06 
  3999.3,1282.06 4160.47,1282.07 4321.64,1282.07 4482.8,1282.08 4643.97,1282.08 4805.14,1282.08 4966.31,1282.08 5127.48,1282.09 5288.65,1282.09 5449.82,1282.1 
  5610.99,1282.11 5772.16,1282.12 5933.33,1282.12 6094.5,1282.14 6255.67,1282.15 6416.84,1282.15 6578.01,1282.16 6739.18,1282.19 6900.35,1282.2 7061.52,1282.22 
  7222.68,1282.24 7383.85,1282.26 7545.02,1282.29 7706.19,1282.32 7867.36,1282.37 8028.53,1282.4 8189.7,1282.44 8350.87,1282.5 8512.04,1282.51 8673.21,1282.6 
  8834.38,1282.65 8995.55,1282.82 9156.72,1282.83 9317.89,1282.97 9479.06,1283.17 9640.23,1283.37 9801.4,1283.57 9962.56,1283.74 10123.7,1283.81 10284.9,1284.23 
  10446.1,1284.69 10607.2,1285.35 10768.4,1285.44 10929.6,1286.48 11090.8,1287.31 11251.9,1288.11 11413.1,1289.52 11574.3,1291.35 11735.4,1294.52 11896.6,1299.13 
  12057.8,1302.92 12218.9,1308.14 12380.1,1315.75 12541.3,1323.44 12702.4,1334.46 12863.6,1374.04 13024.8,1405.38 13186,1458.8 13347.1,1597.34 13508.3,1668.1 
  13669.5,1968.63 13830.6,2095.51 13991.8,2688.67 14153,3438.95 14314.1,3926.04 14475.3,5017.27 14636.5,5604.93 14797.6,6626.17 14958.8,7397.7 15120,8033.15 
  15281.2,8213.64 15442.3,8300.95 15603.5,8452.7 15764.7,7824.26 15925.8,7823.03 16087,7340.88 16248.2,7163.01 16409.3,6956.38 16570.5,5680.65 16731.7,5323.78 
  16892.8,5370.73 17054,5184.81 17215.2,4758.66 17376.4,4522.26 17537.5,4314.94 17698.7,3884.95 17859.9,3825.69 18021,3639.42 18182.2,3588.27 18343.4,3540.17 
  
  "/>
<polyline clip-path="url(#clip0802)" style="stroke:#3da44d; stroke-width:32; stroke-opacity:1; fill:none" points="
  2387.6,1282.05 2548.77,1282.05 2709.94,1282.05 2871.11,1282.05 3032.28,1282.05 3193.45,1282.05 3354.62,1282.06 3515.79,1282.06 3676.96,1282.06 3838.13,1282.06 
  3999.3,1282.06 4160.47,1282.06 4321.64,1282.06 4482.8,1282.07 4643.97,1282.07 4805.14,1282.07 4966.31,1282.07 5127.48,1282.08 5288.65,1282.08 5449.82,1282.09 
  5610.99,1282.09 5772.16,1282.09 5933.33,1282.1 6094.5,1282.1 6255.67,1282.11 6416.84,1282.12 6578.01,1282.13 6739.18,1282.15 6900.35,1282.16 7061.52,1282.16 
  7222.68,1282.18 7383.85,1282.18 7545.02,1282.2 7706.19,1282.24 7867.36,1282.24 8028.53,1282.27 8189.7,1282.31 8350.87,1282.31 8512.04,1282.37 8673.21,1282.38 
  8834.38,1282.46 8995.55,1282.5 9156.72,1282.56 9317.89,1282.64 9479.06,1282.72 9640.23,1282.79 9801.4,1282.86 9962.56,1283.17 10123.7,1283.33 10284.9,1283.53 
  10446.1,1283.87 10607.2,1284.08 10768.4,1284.41 10929.6,1284.97 11090.8,1285.2 11251.9,1285.45 11413.1,1286.78 11574.3,1288.23 11735.4,1289.07 11896.6,1292.55 
  12057.8,1294.95 12218.9,1297.46 12380.1,1303.84 12541.3,1310.83 12702.4,1330.56 12863.6,1338.09 13024.8,1376.07 13186,1493.27 13347.1,1537.71 13508.3,1703.16 
  13669.5,2213.1 13830.6,2681.91 13991.8,3518.32 14153,4972.81 14314.1,6478.44 14475.3,7801.75 14636.5,8694.28 14797.6,9540.86 14958.8,9160.41 15120,8816.25 
  15281.2,9413.11 15442.3,8106.71 15603.5,8242.75 15764.7,7189.4 15925.8,6907.57 16087,6254.86 16248.2,5453.76 16409.3,5880.2 16570.5,5082.77 16731.7,4945.69 
  16892.8,4564.84 17054,4363.82 17215.2,4119.58 17376.4,4048.14 17537.5,3764.38 17698.7,3545.7 17859.9,3454.55 18021,3384.04 18182.2,3373.91 18343.4,3169.43 
  
  "/>
<polyline clip-path="url(#clip0802)" style="stroke:#c271d2; stroke-width:32; stroke-opacity:1; fill:none" points="
  2387.6,1282.05 2548.77,1282.05 2709.94,1282.05 2871.11,1282.05 3032.28,1282.05 3193.45,1282.05 3354.62,1282.05 3515.79,1282.05 3676.96,1282.06 3838.13,1282.06 
  3999.3,1282.06 4160.47,1282.06 4321.64,1282.06 4482.8,1282.06 4643.97,1282.06 4805.14,1282.06 4966.31,1282.07 5127.48,1282.07 5288.65,1282.07 5449.82,1282.07 
  5610.99,1282.08 5772.16,1282.08 5933.33,1282.08 6094.5,1282.09 6255.67,1282.09 6416.84,1282.1 6578.01,1282.1 6739.18,1282.11 6900.35,1282.12 7061.52,1282.13 
  7222.68,1282.14 7383.85,1282.15 7545.02,1282.15 7706.19,1282.18 7867.36,1282.19 8028.53,1282.21 8189.7,1282.23 8350.87,1282.25 8512.04,1282.28 8673.21,1282.3 
  8834.38,1282.34 8995.55,1282.37 9156.72,1282.41 9317.89,1282.46 9479.06,1282.5 9640.23,1282.59 9801.4,1282.62 9962.56,1282.7 10123.7,1282.84 10284.9,1282.9 
  10446.1,1283.12 10607.2,1283.26 10768.4,1283.84 10929.6,1283.93 11090.8,1284.53 11251.9,1285.02 11413.1,1285.67 11574.3,1286.51 11735.4,1288.23 11896.6,1289.17 
  12057.8,1291.07 12218.9,1293.92 12380.1,1297.66 12541.3,1302.99 12702.4,1317.37 12863.6,1316.25 13024.8,1349.85 13186,1402.69 13347.1,1456.22 13508.3,1742.81 
  13669.5,2380.24 13830.6,3478.22 13991.8,5029.3 14153,6841.54 14314.1,8591.48 14475.3,9875.42 14636.5,10173.6 14797.6,9991.57 14958.8,10373 15120,8405.05 
  15281.2,7760.44 15442.3,7430.62 15603.5,6909.14 15764.7,6723.11 15925.8,6033.53 16087,5630.71 16248.2,5500.36 16409.3,5312.01 16570.5,4814.02 16731.7,4765.48 
  16892.8,4477.06 17054,4239.83 17215.2,4124.5 17376.4,3868.94 17537.5,3698.44 17698.7,3683.64 17859.9,3445.41 18021,3471.05 18182.2,3211.21 18343.4,3194.39 
  
  "/>
<polyline clip-path="url(#clip0802)" style="stroke:#ac8d18; stroke-width:32; stroke-opacity:1; fill:none" points="
  2387.6,1282.05 2548.77,1282.05 2709.94,1282.05 2871.11,1282.05 3032.28,1282.05 3193.45,1282.05 3354.62,1282.05 3515.79,1282.05 3676.96,1282.05 3838.13,1282.05 
  3999.3,1282.05 4160.47,1282.06 4321.64,1282.06 4482.8,1282.06 4643.97,1282.06 4805.14,1282.06 4966.31,1282.06 5127.48,1282.06 5288.65,1282.07 5449.82,1282.07 
  5610.99,1282.07 5772.16,1282.07 5933.33,1282.07 6094.5,1282.08 6255.67,1282.08 6416.84,1282.08 6578.01,1282.09 6739.18,1282.1 6900.35,1282.1 7061.52,1282.11 
  7222.68,1282.12 7383.85,1282.12 7545.02,1282.13 7706.19,1282.14 7867.36,1282.15 8028.53,1282.17 8189.7,1282.18 8350.87,1282.2 8512.04,1282.21 8673.21,1282.25 
  8834.38,1282.26 8995.55,1282.29 9156.72,1282.34 9317.89,1282.35 9479.06,1282.38 9640.23,1282.44 9801.4,1282.51 9962.56,1282.53 10123.7,1282.61 10284.9,1282.73 
  10446.1,1282.82 10607.2,1282.93 10768.4,1283.02 10929.6,1283.25 11090.8,1283.92 11251.9,1284.23 11413.1,1284.48 11574.3,1285.27 11735.4,1286.96 11896.6,1287.25 
  12057.8,1289.26 12218.9,1289.99 12380.1,1295.04 12541.3,1297.52 12702.4,1304.63 12863.6,1320.27 13024.8,1339.89 13186,1386.12 13347.1,1499.22 13508.3,1826.99 
  13669.5,2355.99 13830.6,4041.9 13991.8,5921.08 14153,8803.08 14314.1,10275.7 14475.3,9986.93 14636.5,10450.2 14797.6,9709.9 14958.8,8208.22 15120,7616.94 
  15281.2,7700.16 15442.3,7193.51 15603.5,6764.08 15764.7,6427.29 15925.8,5977.75 16087,5803.96 16248.2,5524.91 16409.3,5155.9 16570.5,4913 16731.7,4428.05 
  16892.8,4297.66 17054,4213.74 17215.2,4018.36 17376.4,3666.52 17537.5,3786.01 17698.7,3574.02 17859.9,3594.07 18021,3524.99 18182.2,3323.27 18343.4,3151.24 
  
  "/>
<polyline clip-path="url(#clip0802)" style="stroke:#00a9ad; stroke-width:32; stroke-opacity:1; fill:none" points="
  2387.6,1282.05 2548.77,1282.05 2709.94,1282.05 2871.11,1282.05 3032.28,1282.05 3193.45,1282.05 3354.62,1282.05 3515.79,1282.05 3676.96,1282.05 3838.13,1282.05 
  3999.3,1282.05 4160.47,1282.05 4321.64,1282.05 4482.8,1282.06 4643.97,1282.06 4805.14,1282.06 4966.31,1282.06 5127.48,1282.06 5288.65,1282.06 5449.82,1282.06 
  5610.99,1282.06 5772.16,1282.07 5933.33,1282.07 6094.5,1282.07 6255.67,1282.07 6416.84,1282.08 6578.01,1282.08 6739.18,1282.08 6900.35,1282.09 7061.52,1282.1 
  7222.68,1282.1 7383.85,1282.11 7545.02,1282.11 7706.19,1282.12 7867.36,1282.13 8028.53,1282.14 8189.7,1282.15 8350.87,1282.17 8512.04,1282.17 8673.21,1282.19 
  8834.38,1282.22 8995.55,1282.23 9156.72,1282.25 9317.89,1282.28 9479.06,1282.31 9640.23,1282.35 9801.4,1282.38 9962.56,1282.43 10123.7,1282.48 10284.9,1282.55 
  10446.1,1282.61 10607.2,1282.74 10768.4,1282.89 10929.6,1282.94 11090.8,1283.14 11251.9,1283.68 11413.1,1284.05 11574.3,1284.25 11735.4,1284.88 11896.6,1285.41 
  12057.8,1287.26 12218.9,1289.93 12380.1,1289.38 12541.3,1294.59 12702.4,1301.82 12863.6,1313.5 13024.8,1333.93 13186,1375.03 13347.1,1445.77 13508.3,1796.35 
  13669.5,2730.1 13830.6,5116.82 13991.8,7588.12 14153,10458.3 14314.1,11091.2 14475.3,10482.6 14636.5,10763.1 14797.6,8712.85 14958.8,8519.5 15120,8227.12 
  15281.2,7292.93 15442.3,6645.57 15603.5,6072.13 15764.7,5999.24 15925.8,5658.96 16087,5556.12 16248.2,5444.23 16409.3,4969.73 16570.5,4734.92 16731.7,4463.66 
  16892.8,4354.83 17054,4086.73 17215.2,4046.47 17376.4,3847.92 17537.5,3694.58 17698.7,3674.15 17859.9,3461.68 18021,3362.64 18182.2,3411.08 18343.4,3258.05 
  
  "/>
<path clip-path="url(#clip0800)" d="
M2484.93 10233.4 L5521.96 10233.4 L5521.96 6846.56 L2484.93 6846.56  Z
  " fill="#ffffff" fill-rule="evenodd" fill-opacity="1"/>
<polyline clip-path="url(#clip0800)" style="stroke:#000000; stroke-width:32; stroke-opacity:1; fill:none" points="
  2484.93,10233.4 5521.96,10233.4 5521.96,6846.56 2484.93,6846.56 2484.93,10233.4 
  "/>
<polyline clip-path="url(#clip0800)" style="stroke:#009af9; stroke-width:32; stroke-opacity:1; fill:none" points="
  2676.93,7330.4 3828.93,7330.4 
  "/>
<path clip-path="url(#clip0800)" d="M 0 0 M4020.93 7192.16 L4058.34 7192.16 L4058.34 7437.16 L4192.97 7437.16 L4192.97 7468.64 L4020.93 7468.64 L4020.93 7192.16 Z" fill="#000000" fill-rule="evenodd" fill-opacity="1" /><path clip-path="url(#clip0800)" d="M 0 0 M4353.71 7296.42 L4591.11 7296.42 L4591.11 7327.53 L4353.71 7327.53 L4353.71 7296.42 M4353.71 7371.97 L4591.11 7371.97 L4591.11 7403.45 L4353.71 7403.45 L4353.71 7371.97 Z" fill="#000000" fill-rule="evenodd" fill-opacity="1" /><path clip-path="url(#clip0800)" d="M 0 0 M4836.85 7315.49 Q4811.67 7315.49 4796.85 7332.71 Q4782.22 7349.94 4782.22 7379.94 Q4782.22 7409.75 4796.85 7427.16 Q4811.67 7444.38 4836.85 7444.38 Q4862.04 7444.38 4876.67 7427.16 Q4891.48 7409.75 4891.48 7379.94 Q4891.48 7349.94 4876.67 7332.71 Q4862.04 7315.49 4836.85 7315.49 M4911.11 7198.27 L4911.11 7232.34 Q4897.04 7225.68 4882.59 7222.16 Q4868.33 7218.64 4854.26 7218.64 Q4817.22 7218.64 4797.59 7243.64 Q4778.15 7268.64 4775.37 7319.2 Q4786.3 7303.08 4802.78 7294.57 Q4819.26 7285.86 4839.07 7285.86 Q4880.74 7285.86 4904.81 7311.23 Q4929.07 7336.42 4929.07 7379.94 Q4929.07 7422.53 4903.89 7448.27 Q4878.7 7474.01 4836.85 7474.01 Q4788.89 7474.01 4763.52 7437.34 Q4738.15 7400.49 4738.15 7330.68 Q4738.15 7265.12 4769.26 7226.23 Q4800.37 7187.16 4852.78 7187.16 Q4866.85 7187.16 4881.11 7189.94 Q4895.55 7192.71 4911.11 7198.27 Z" fill="#000000" fill-rule="evenodd" fill-opacity="1" /><polyline clip-path="url(#clip0800)" style="stroke:#e26f46; stroke-width:32; stroke-opacity:1; fill:none" points="
  2676.93,7814.24 3828.93,7814.24 
  "/>
<path clip-path="url(#clip0800)" d="M 0 0 M4020.93 7676 L4058.34 7676 L4058.34 7921 L4192.97 7921 L4192.97 7952.48 L4020.93 7952.48 L4020.93 7676 Z" fill="#000000" fill-rule="evenodd" fill-opacity="1" /><path clip-path="url(#clip0800)" d="M 0 0 M4353.71 7780.26 L4591.11 7780.26 L4591.11 7811.37 L4353.71 7811.37 L4353.71 7780.26 M4353.71 7855.81 L4591.11 7855.81 L4591.11 7887.29 L4353.71 7887.29 L4353.71 7855.81 Z" fill="#000000" fill-rule="evenodd" fill-opacity="1" /><path clip-path="url(#clip0800)" d="M 0 0 M4832.22 7821.18 Q4805.55 7821.18 4790.18 7835.44 Q4775 7849.7 4775 7874.7 Q4775 7899.7 4790.18 7913.96 Q4805.55 7928.22 4832.22 7928.22 Q4858.89 7928.22 4874.26 7913.96 Q4889.63 7899.52 4889.63 7874.7 Q4889.63 7849.7 4874.26 7835.44 Q4859.07 7821.18 4832.22 7821.18 M4794.81 7805.26 Q4770.74 7799.33 4757.22 7782.85 Q4743.89 7766.37 4743.89 7742.67 Q4743.89 7709.52 4767.41 7690.26 Q4791.11 7671 4832.22 7671 Q4873.52 7671 4897.04 7690.26 Q4920.55 7709.52 4920.55 7742.67 Q4920.55 7766.37 4907.04 7782.85 Q4893.7 7799.33 4869.81 7805.26 Q4896.85 7811.55 4911.85 7829.89 Q4927.04 7848.22 4927.04 7874.7 Q4927.04 7914.89 4902.41 7936.37 Q4877.96 7957.85 4832.22 7957.85 Q4786.48 7957.85 4761.85 7936.37 Q4737.41 7914.89 4737.41 7874.7 Q4737.41 7848.22 4752.59 7829.89 Q4767.78 7811.55 4794.81 7805.26 M4781.11 7746.18 Q4781.11 7767.66 4794.44 7779.7 Q4807.96 7791.74 4832.22 7791.74 Q4856.3 7791.74 4869.81 7779.7 Q4883.52 7767.66 4883.52 7746.18 Q4883.52 7724.7 4869.81 7712.67 Q4856.3 7700.63 4832.22 7700.63 Q4807.96 7700.63 4794.44 7712.67 Q4781.11 7724.7 4781.11 7746.18 Z" fill="#000000" fill-rule="evenodd" fill-opacity="1" /><polyline clip-path="url(#clip0800)" style="stroke:#3da44d; stroke-width:32; stroke-opacity:1; fill:none" points="
  2676.93,8298.08 3828.93,8298.08 
  "/>
<path clip-path="url(#clip0800)" d="M 0 0 M4020.93 8159.84 L4058.34 8159.84 L4058.34 8404.84 L4192.97 8404.84 L4192.97 8436.32 L4020.93 8436.32 L4020.93 8159.84 Z" fill="#000000" fill-rule="evenodd" fill-opacity="1" /><path clip-path="url(#clip0800)" d="M 0 0 M4353.71 8264.1 L4591.11 8264.1 L4591.11 8295.21 L4353.71 8295.21 L4353.71 8264.1 M4353.71 8339.65 L4591.11 8339.65 L4591.11 8371.13 L4353.71 8371.13 L4353.71 8339.65 Z" fill="#000000" fill-rule="evenodd" fill-opacity="1" /><path clip-path="url(#clip0800)" d="M 0 0 M4758.7 8404.84 L4819.81 8404.84 L4819.81 8193.91 L4753.33 8207.25 L4753.33 8173.17 L4819.44 8159.84 L4856.85 8159.84 L4856.85 8404.84 L4917.96 8404.84 L4917.96 8436.32 L4758.7 8436.32 L4758.7 8404.84 Z" fill="#000000" fill-rule="evenodd" fill-opacity="1" /><path clip-path="url(#clip0800)" d="M 0 0 M5038.52 8184.47 Q5009.63 8184.47 4995 8212.99 Q4980.55 8241.32 4980.55 8298.36 Q4980.55 8355.21 4995 8383.73 Q5009.63 8412.06 5038.52 8412.06 Q5067.59 8412.06 5082.03 8383.73 Q5096.66 8355.21 5096.66 8298.36 Q5096.66 8241.32 5082.03 8212.99 Q5067.59 8184.47 5038.52 8184.47 M5038.52 8154.84 Q5085 8154.84 5109.44 8191.69 Q5134.07 8228.36 5134.07 8298.36 Q5134.07 8368.17 5109.44 8405.02 Q5085 8441.69 5038.52 8441.69 Q4992.04 8441.69 4967.41 8405.02 Q4942.96 8368.17 4942.96 8298.36 Q4942.96 8228.36 4967.41 8191.69 Q4992.04 8154.84 5038.52 8154.84 Z" fill="#000000" fill-rule="evenodd" fill-opacity="1" /><polyline clip-path="url(#clip0800)" style="stroke:#c271d2; stroke-width:32; stroke-opacity:1; fill:none" points="
  2676.93,8781.92 3828.93,8781.92 
  "/>
<path clip-path="url(#clip0800)" d="M 0 0 M4020.93 8643.68 L4058.34 8643.68 L4058.34 8888.68 L4192.97 8888.68 L4192.97 8920.16 L4020.93 8920.16 L4020.93 8643.68 Z" fill="#000000" fill-rule="evenodd" fill-opacity="1" /><path clip-path="url(#clip0800)" d="M 0 0 M4353.71 8747.94 L4591.11 8747.94 L4591.11 8779.05 L4353.71 8779.05 L4353.71 8747.94 M4353.71 8823.49 L4591.11 8823.49 L4591.11 8854.97 L4353.71 8854.97 L4353.71 8823.49 Z" fill="#000000" fill-rule="evenodd" fill-opacity="1" /><path clip-path="url(#clip0800)" d="M 0 0 M4758.7 8888.68 L4819.81 8888.68 L4819.81 8677.75 L4753.33 8691.09 L4753.33 8657.01 L4819.44 8643.68 L4856.85 8643.68 L4856.85 8888.68 L4917.96 8888.68 L4917.96 8920.16 L4758.7 8920.16 L4758.7 8888.68 Z" fill="#000000" fill-rule="evenodd" fill-opacity="1" /><path clip-path="url(#clip0800)" d="M 0 0 M4990.74 8888.68 L5121.29 8888.68 L5121.29 8920.16 L4945.74 8920.16 L4945.74 8888.68 Q4967.04 8866.64 5003.7 8829.6 Q5040.55 8792.38 5050 8781.64 Q5067.96 8761.46 5075 8747.57 Q5082.22 8733.49 5082.22 8719.97 Q5082.22 8697.94 5066.66 8684.05 Q5051.29 8670.16 5026.48 8670.16 Q5008.89 8670.16 4989.26 8676.27 Q4969.81 8682.38 4947.59 8694.79 L4947.59 8657.01 Q4970.18 8647.94 4989.81 8643.31 Q5009.44 8638.68 5025.74 8638.68 Q5068.7 8638.68 5094.26 8660.16 Q5119.81 8681.64 5119.81 8717.57 Q5119.81 8734.6 5113.33 8749.97 Q5107.03 8765.16 5090.18 8785.9 Q5085.55 8791.27 5060.74 8817.01 Q5035.92 8842.57 4990.74 8888.68 Z" fill="#000000" fill-rule="evenodd" fill-opacity="1" /><polyline clip-path="url(#clip0800)" style="stroke:#ac8d18; stroke-width:32; stroke-opacity:1; fill:none" points="
  2676.93,9265.76 3828.93,9265.76 
  "/>
<path clip-path="url(#clip0800)" d="M 0 0 M4020.93 9127.52 L4058.34 9127.52 L4058.34 9372.52 L4192.97 9372.52 L4192.97 9404 L4020.93 9404 L4020.93 9127.52 Z" fill="#000000" fill-rule="evenodd" fill-opacity="1" /><path clip-path="url(#clip0800)" d="M 0 0 M4353.71 9231.78 L4591.11 9231.78 L4591.11 9262.89 L4353.71 9262.89 L4353.71 9231.78 M4353.71 9307.33 L4591.11 9307.33 L4591.11 9338.81 L4353.71 9338.81 L4353.71 9307.33 Z" fill="#000000" fill-rule="evenodd" fill-opacity="1" /><path clip-path="url(#clip0800)" d="M 0 0 M4758.7 9372.52 L4819.81 9372.52 L4819.81 9161.59 L4753.33 9174.93 L4753.33 9140.85 L4819.44 9127.52 L4856.85 9127.52 L4856.85 9372.52 L4917.96 9372.52 L4917.96 9404 L4758.7 9404 L4758.7 9372.52 Z" fill="#000000" fill-rule="evenodd" fill-opacity="1" /><path clip-path="url(#clip0800)" d="M 0 0 M5061.29 9160.11 L4966.85 9307.7 L5061.29 9307.7 L5061.29 9160.11 M5051.48 9127.52 L5098.52 9127.52 L5098.52 9307.7 L5137.96 9307.7 L5137.96 9338.81 L5098.52 9338.81 L5098.52 9404 L5061.29 9404 L5061.29 9338.81 L4936.48 9338.81 L4936.48 9302.7 L5051.48 9127.52 Z" fill="#000000" fill-rule="evenodd" fill-opacity="1" /><polyline clip-path="url(#clip0800)" style="stroke:#00a9ad; stroke-width:32; stroke-opacity:1; fill:none" points="
  2676.93,9749.6 3828.93,9749.6 
  "/>
<path clip-path="url(#clip0800)" d="M 0 0 M4020.93 9611.36 L4058.34 9611.36 L4058.34 9856.36 L4192.97 9856.36 L4192.97 9887.84 L4020.93 9887.84 L4020.93 9611.36 Z" fill="#000000" fill-rule="evenodd" fill-opacity="1" /><path clip-path="url(#clip0800)" d="M 0 0 M4353.71 9715.62 L4591.11 9715.62 L4591.11 9746.73 L4353.71 9746.73 L4353.71 9715.62 M4353.71 9791.17 L4591.11 9791.17 L4591.11 9822.65 L4353.71 9822.65 L4353.71 9791.17 Z" fill="#000000" fill-rule="evenodd" fill-opacity="1" /><path clip-path="url(#clip0800)" d="M 0 0 M4758.7 9856.36 L4819.81 9856.36 L4819.81 9645.43 L4753.33 9658.77 L4753.33 9624.69 L4819.44 9611.36 L4856.85 9611.36 L4856.85 9856.36 L4917.96 9856.36 L4917.96 9887.84 L4758.7 9887.84 L4758.7 9856.36 Z" fill="#000000" fill-rule="evenodd" fill-opacity="1" /><path clip-path="url(#clip0800)" d="M 0 0 M5043.15 9734.69 Q5017.96 9734.69 5003.15 9751.91 Q4988.52 9769.14 4988.52 9799.14 Q4988.52 9828.95 5003.15 9846.36 Q5017.96 9863.58 5043.15 9863.58 Q5068.33 9863.58 5082.96 9846.36 Q5097.78 9828.95 5097.78 9799.14 Q5097.78 9769.14 5082.96 9751.91 Q5068.33 9734.69 5043.15 9734.69 M5117.4 9617.47 L5117.4 9651.54 Q5103.33 9644.88 5088.89 9641.36 Q5074.63 9637.84 5060.55 9637.84 Q5023.52 9637.84 5003.89 9662.84 Q4984.44 9687.84 4981.66 9738.4 Q4992.59 9722.28 5009.07 9713.77 Q5025.55 9705.06 5045.37 9705.06 Q5087.03 9705.06 5111.11 9730.43 Q5135.37 9755.62 5135.37 9799.14 Q5135.37 9841.73 5110.18 9867.47 Q5085 9893.21 5043.15 9893.21 Q4995.18 9893.21 4969.81 9856.54 Q4944.44 9819.69 4944.44 9749.88 Q4944.44 9684.32 4975.55 9645.43 Q5006.66 9606.36 5059.07 9606.36 Q5073.15 9606.36 5087.41 9609.14 Q5101.85 9611.91 5117.4 9617.47 Z" fill="#000000" fill-rule="evenodd" fill-opacity="1" /></svg>
