<?xml version="1.0" encoding="utf-8"?>
<svg xmlns="http://www.w3.org/2000/svg" xmlns:xlink="http://www.w3.org/1999/xlink" width="4800" height="3200" viewBox="0 0 19200 12800">
<defs>
  <clipPath id="clip6200">
    <rect x="0" y="0" width="19200" height="12800"/>
  </clipPath>
</defs>
<path clip-path="url(#clip6200)" d="
M0 12800 L19200 12800 L19200 0 L0 0  Z
  " fill="#ffffff" fill-rule="evenodd" fill-opacity="1"/>
<defs>
  <clipPath id="clip6201">
    <rect x="3840" y="0" width="13441" height="12800"/>
  </clipPath>
</defs>
<path clip-path="url(#clip6200)" d="
M3232.26 11385.4 L18822 11385.4 L18822 987.777 L3232.26 987.777  Z
  " fill="#ffffff" fill-rule="evenodd" fill-opacity="1"/>
<defs>
  <clipPath id="clip6202">
    <rect x="3232" y="987" width="15591" height="10399"/>
  </clipPath>
</defs>
<polyline clip-path="url(#clip6202)" style="stroke:#000000; stroke-width:16; stroke-opacity:0.1; fill:none" points="
  3673.48,11385.4 3673.48,987.777 
  "/>
<polyline clip-path="url(#clip6202)" style="stroke:#000000; stroke-width:16; stroke-opacity:0.1; fill:none" points="
  7350.31,11385.4 7350.31,987.777 
  "/>
<polyline clip-path="url(#clip6202)" style="stroke:#000000; stroke-width:16; stroke-opacity:0.1; fill:none" points="
  11027.2,11385.4 11027.2,987.777 
  "/>
<polyline clip-path="url(#clip6202)" style="stroke:#000000; stroke-width:16; stroke-opacity:0.1; fill:none" points="
  14704,11385.4 14704,987.777 
  "/>
<polyline clip-path="url(#clip6202)" style="stroke:#000000; stroke-width:16; stroke-opacity:0.1; fill:none" points="
  18380.8,11385.4 18380.8,987.777 
  "/>
<polyline clip-path="url(#clip6202)" style="stroke:#000000; stroke-width:16; stroke-opacity:0.1; fill:none" points="
  3232.26,10580.9 18822,10580.9 
  "/>
<polyline clip-path="url(#clip6202)" style="stroke:#000000; stroke-width:16; stroke-opacity:0.1; fill:none" points="
  3232.26,8650.3 18822,8650.3 
  "/>
<polyline clip-path="url(#clip6202)" style="stroke:#000000; stroke-width:16; stroke-opacity:0.1; fill:none" points="
  3232.26,6719.75 18822,6719.75 
  "/>
<polyline clip-path="url(#clip6202)" style="stroke:#000000; stroke-width:16; stroke-opacity:0.1; fill:none" points="
  3232.26,4789.19 18822,4789.19 
  "/>
<polyline clip-path="url(#clip6202)" style="stroke:#000000; stroke-width:16; stroke-opacity:0.1; fill:none" points="
  3232.26,2858.64 18822,2858.64 
  "/>
<polyline clip-path="url(#clip6200)" style="stroke:#000000; stroke-width:32; stroke-opacity:1; fill:none" points="
  3232.26,11385.4 18822,11385.4 
  "/>
<polyline clip-path="url(#clip6200)" style="stroke:#000000; stroke-width:32; stroke-opacity:1; fill:none" points="
  3232.26,11385.4 3232.26,987.777 
  "/>
<polyline clip-path="url(#clip6200)" style="stroke:#000000; stroke-width:32; stroke-opacity:1; fill:none" points="
  3673.48,11385.4 3673.48,11260.7 
  "/>
<polyline clip-path="url(#clip6200)" style="stroke:#000000; stroke-width:32; stroke-opacity:1; fill:none" points="
  7350.31,11385.4 7350.31,11260.7 
  "/>
<polyline clip-path="url(#clip6200)" style="stroke:#000000; stroke-width:32; stroke-opacity:1; fill:none" points="
  11027.2,11385.4 11027.2,11260.7 
  "/>
<polyline clip-path="url(#clip6200)" style="stroke:#000000; stroke-width:32; stroke-opacity:1; fill:none" points="
  14704,11385.4 14704,11260.7 
  "/>
<polyline clip-path="url(#clip6200)" style="stroke:#000000; stroke-width:32; stroke-opacity:1; fill:none" points="
  18380.8,11385.4 18380.8,11260.7 
  "/>
<polyline clip-path="url(#clip6200)" style="stroke:#000000; stroke-width:32; stroke-opacity:1; fill:none" points="
  3232.26,10580.9 3419.33,10580.9 
  "/>
<polyline clip-path="url(#clip6200)" style="stroke:#000000; stroke-width:32; stroke-opacity:1; fill:none" points="
  3232.26,8650.3 3419.33,8650.3 
  "/>
<polyline clip-path="url(#clip6200)" style="stroke:#000000; stroke-width:32; stroke-opacity:1; fill:none" points="
  3232.26,6719.75 3419.33,6719.75 
  "/>
<polyline clip-path="url(#clip6200)" style="stroke:#000000; stroke-width:32; stroke-opacity:1; fill:none" points="
  3232.26,4789.19 3419.33,4789.19 
  "/>
<polyline clip-path="url(#clip6200)" style="stroke:#000000; stroke-width:32; stroke-opacity:1; fill:none" points="
  3232.26,2858.64 3419.33,2858.64 
  "/>
<path clip-path="url(#clip6200)" d="M 0 0 M3311.53 11561.4 Q3282.64 11561.4 3268.02 11589.9 Q3253.57 11618.2 3253.57 11675.3 Q3253.57 11732.1 3268.02 11760.6 Q3282.64 11789 3311.53 11789 Q3340.61 11789 3355.05 11760.6 Q3369.68 11732.1 3369.68 11675.3 Q3369.68 11618.2 3355.05 11589.9 Q3340.61 11561.4 3311.53 11561.4 M3311.53 11531.7 Q3358.01 11531.7 3382.46 11568.6 Q3407.09 11605.3 3407.09 11675.3 Q3407.09 11745.1 3382.46 11781.9 Q3358.01 11818.6 3311.53 11818.6 Q3265.05 11818.6 3240.42 11781.9 Q3215.98 11745.1 3215.98 11675.3 Q3215.98 11605.3 3240.42 11568.6 Q3265.05 11531.7 3311.53 11531.7 Z" fill="#000000" fill-rule="evenodd" fill-opacity="1" /><path clip-path="url(#clip6200)" d="M 0 0 M3447.64 11766.2 L3486.72 11766.2 L3486.72 11813.2 L3447.64 11813.2 L3447.64 11766.2 Z" fill="#000000" fill-rule="evenodd" fill-opacity="1" /><path clip-path="url(#clip6200)" d="M 0 0 M3527.64 11536.7 L3674.49 11536.7 L3674.49 11568.2 L3561.9 11568.2 L3561.9 11636 Q3570.05 11633.2 3578.2 11631.9 Q3586.35 11630.4 3594.5 11630.4 Q3640.79 11630.4 3667.83 11655.8 Q3694.86 11681.2 3694.86 11724.5 Q3694.86 11769.1 3667.09 11794 Q3639.31 11818.6 3588.75 11818.6 Q3571.35 11818.6 3553.2 11815.6 Q3535.24 11812.7 3515.98 11806.7 L3515.98 11769.1 Q3532.64 11778.2 3550.42 11782.7 Q3568.2 11787.1 3588.01 11787.1 Q3620.05 11787.1 3638.75 11770.3 Q3657.46 11753.4 3657.46 11724.5 Q3657.46 11695.6 3638.75 11678.8 Q3620.05 11661.9 3588.01 11661.9 Q3573.01 11661.9 3558.01 11665.3 Q3543.2 11668.6 3527.64 11675.6 L3527.64 11536.7 Z" fill="#000000" fill-rule="evenodd" fill-opacity="1" /><path clip-path="url(#clip6200)" d="M 0 0 M3838.2 11569.3 L3743.75 11716.9 L3838.2 11716.9 L3838.2 11569.3 M3828.38 11536.7 L3875.42 11536.7 L3875.42 11716.9 L3914.86 11716.9 L3914.86 11748 L3875.42 11748 L3875.42 11813.2 L3838.2 11813.2 L3838.2 11748 L3713.38 11748 L3713.38 11711.9 L3828.38 11536.7 Z" fill="#000000" fill-rule="evenodd" fill-opacity="1" /><path clip-path="url(#clip6200)" d="M 0 0 M4035.42 11561.4 Q4006.53 11561.4 3991.9 11589.9 Q3977.46 11618.2 3977.46 11675.3 Q3977.46 11732.1 3991.9 11760.6 Q4006.53 11789 4035.42 11789 Q4064.49 11789 4078.94 11760.6 Q4093.57 11732.1 4093.57 11675.3 Q4093.57 11618.2 4078.94 11589.9 Q4064.49 11561.4 4035.42 11561.4 M4035.42 11531.7 Q4081.9 11531.7 4106.34 11568.6 Q4130.97 11605.3 4130.97 11675.3 Q4130.97 11745.1 4106.34 11781.9 Q4081.9 11818.6 4035.42 11818.6 Q3988.94 11818.6 3964.31 11781.9 Q3939.86 11745.1 3939.86 11675.3 Q3939.86 11605.3 3964.31 11568.6 Q3988.94 11531.7 4035.42 11531.7 Z" fill="#000000" fill-rule="evenodd" fill-opacity="1" /><path clip-path="url(#clip6200)" d="M 0 0 M6992.35 11561.4 Q6963.46 11561.4 6948.83 11589.9 Q6934.39 11618.2 6934.39 11675.3 Q6934.39 11732.1 6948.83 11760.6 Q6963.46 11789 6992.35 11789 Q7021.43 11789 7035.87 11760.6 Q7050.5 11732.1 7050.5 11675.3 Q7050.5 11618.2 7035.87 11589.9 Q7021.43 11561.4 6992.35 11561.4 M6992.35 11531.7 Q7038.83 11531.7 7063.28 11568.6 Q7087.91 11605.3 7087.91 11675.3 Q7087.91 11745.1 7063.28 11781.9 Q7038.83 11818.6 6992.35 11818.6 Q6945.87 11818.6 6921.24 11781.9 Q6896.8 11745.1 6896.8 11675.3 Q6896.8 11605.3 6921.24 11568.6 Q6945.87 11531.7 6992.35 11531.7 Z" fill="#000000" fill-rule="evenodd" fill-opacity="1" /><path clip-path="url(#clip6200)" d="M 0 0 M7128.46 11766.2 L7167.54 11766.2 L7167.54 11813.2 L7128.46 11813.2 L7128.46 11766.2 Z" fill="#000000" fill-rule="evenodd" fill-opacity="1" /><path clip-path="url(#clip6200)" d="M 0 0 M7208.46 11536.7 L7355.31 11536.7 L7355.31 11568.2 L7242.72 11568.2 L7242.72 11636 Q7250.87 11633.2 7259.02 11631.9 Q7267.17 11630.4 7275.31 11630.4 Q7321.61 11630.4 7348.65 11655.8 Q7375.68 11681.2 7375.68 11724.5 Q7375.68 11769.1 7347.91 11794 Q7320.13 11818.6 7269.57 11818.6 Q7252.17 11818.6 7234.02 11815.6 Q7216.06 11812.7 7196.8 11806.7 L7196.8 11769.1 Q7213.46 11778.2 7231.24 11782.7 Q7249.02 11787.1 7268.83 11787.1 Q7300.87 11787.1 7319.57 11770.3 Q7338.28 11753.4 7338.28 11724.5 Q7338.28 11695.6 7319.57 11678.8 Q7300.87 11661.9 7268.83 11661.9 Q7253.83 11661.9 7238.83 11665.3 Q7224.02 11668.6 7208.46 11675.6 L7208.46 11536.7 Z" fill="#000000" fill-rule="evenodd" fill-opacity="1" /><path clip-path="url(#clip6200)" d="M 0 0 M7519.02 11569.3 L7424.57 11716.9 L7519.02 11716.9 L7519.02 11569.3 M7509.2 11536.7 L7556.24 11536.7 L7556.24 11716.9 L7595.68 11716.9 L7595.68 11748 L7556.24 11748 L7556.24 11813.2 L7519.02 11813.2 L7519.02 11748 L7394.2 11748 L7394.2 11711.9 L7509.2 11536.7 Z" fill="#000000" fill-rule="evenodd" fill-opacity="1" /><path clip-path="url(#clip6200)" d="M 0 0 M7636.61 11536.7 L7783.46 11536.7 L7783.46 11568.2 L7670.87 11568.2 L7670.87 11636 Q7679.02 11633.2 7687.16 11631.9 Q7695.31 11630.4 7703.46 11630.4 Q7749.76 11630.4 7776.79 11655.8 Q7803.83 11681.2 7803.83 11724.5 Q7803.83 11769.1 7776.05 11794 Q7748.27 11818.6 7697.72 11818.6 Q7680.31 11818.6 7662.16 11815.6 Q7644.2 11812.7 7624.94 11806.7 L7624.94 11769.1 Q7641.61 11778.2 7659.39 11782.7 Q7677.16 11787.1 7696.98 11787.1 Q7729.02 11787.1 7747.72 11770.3 Q7766.42 11753.4 7766.42 11724.5 Q7766.42 11695.6 7747.72 11678.8 Q7729.02 11661.9 7696.98 11661.9 Q7681.98 11661.9 7666.98 11665.3 Q7652.16 11668.6 7636.61 11675.6 L7636.61 11536.7 Z" fill="#000000" fill-rule="evenodd" fill-opacity="1" /><path clip-path="url(#clip6200)" d="M 0 0 M10671.1 11561.4 Q10642.2 11561.4 10627.6 11589.9 Q10613.2 11618.2 10613.2 11675.3 Q10613.2 11732.1 10627.6 11760.6 Q10642.2 11789 10671.1 11789 Q10700.2 11789 10714.7 11760.6 Q10729.3 11732.1 10729.3 11675.3 Q10729.3 11618.2 10714.7 11589.9 Q10700.2 11561.4 10671.1 11561.4 M10671.1 11531.7 Q10717.6 11531.7 10742.1 11568.6 Q10766.7 11605.3 10766.7 11675.3 Q10766.7 11745.1 10742.1 11781.9 Q10717.6 11818.6 10671.1 11818.6 Q10624.7 11818.6 10600 11781.9 Q10575.6 11745.1 10575.6 11675.3 Q10575.6 11605.3 10600 11568.6 Q10624.7 11531.7 10671.1 11531.7 Z" fill="#000000" fill-rule="evenodd" fill-opacity="1" /><path clip-path="url(#clip6200)" d="M 0 0 M10807.2 11766.2 L10846.3 11766.2 L10846.3 11813.2 L10807.2 11813.2 L10807.2 11766.2 Z" fill="#000000" fill-rule="evenodd" fill-opacity="1" /><path clip-path="url(#clip6200)" d="M 0 0 M10887.2 11536.7 L11034.1 11536.7 L11034.1 11568.2 L10921.5 11568.2 L10921.5 11636 Q10929.7 11633.2 10937.8 11631.9 Q10945.9 11630.4 10954.1 11630.4 Q11000.4 11630.4 11027.4 11655.8 Q11054.5 11681.2 11054.5 11724.5 Q11054.5 11769.1 11026.7 11794 Q10998.9 11818.6 10948.4 11818.6 Q10930.9 11818.6 10912.8 11815.6 Q10894.8 11812.7 10875.6 11806.7 L10875.6 11769.1 Q10892.2 11778.2 10910 11782.7 Q10927.8 11787.1 10947.6 11787.1 Q10979.7 11787.1 10998.4 11770.3 Q11017.1 11753.4 11017.1 11724.5 Q11017.1 11695.6 10998.4 11678.8 Q10979.7 11661.9 10947.6 11661.9 Q10932.6 11661.9 10917.6 11665.3 Q10902.8 11668.6 10887.2 11675.6 L10887.2 11536.7 Z" fill="#000000" fill-rule="evenodd" fill-opacity="1" /><path clip-path="url(#clip6200)" d="M 0 0 M11095.4 11536.7 L11242.2 11536.7 L11242.2 11568.2 L11129.7 11568.2 L11129.7 11636 Q11137.8 11633.2 11145.9 11631.9 Q11154.1 11630.4 11162.2 11630.4 Q11208.5 11630.4 11235.6 11655.8 Q11262.6 11681.2 11262.6 11724.5 Q11262.6 11769.1 11234.8 11794 Q11207.1 11818.6 11156.5 11818.6 Q11139.1 11818.6 11120.9 11815.6 Q11103 11812.7 11083.7 11806.7 L11083.7 11769.1 Q11100.4 11778.2 11118.2 11782.7 Q11135.9 11787.1 11155.8 11787.1 Q11187.8 11787.1 11206.5 11770.3 Q11225.2 11753.4 11225.2 11724.5 Q11225.2 11695.6 11206.5 11678.8 Q11187.8 11661.9 11155.8 11661.9 Q11140.8 11661.9 11125.8 11665.3 Q11110.9 11668.6 11095.4 11675.6 L11095.4 11536.7 Z" fill="#000000" fill-rule="evenodd" fill-opacity="1" /><path clip-path="url(#clip6200)" d="M 0 0 M11383.2 11561.4 Q11354.3 11561.4 11339.6 11589.9 Q11325.2 11618.2 11325.2 11675.3 Q11325.2 11732.1 11339.6 11760.6 Q11354.3 11789 11383.2 11789 Q11412.2 11789 11426.7 11760.6 Q11441.3 11732.1 11441.3 11675.3 Q11441.3 11618.2 11426.7 11589.9 Q11412.2 11561.4 11383.2 11561.4 M11383.2 11531.7 Q11429.6 11531.7 11454.1 11568.6 Q11478.7 11605.3 11478.7 11675.3 Q11478.7 11745.1 11454.1 11781.9 Q11429.6 11818.6 11383.2 11818.6 Q11336.7 11818.6 11312.1 11781.9 Q11287.6 11745.1 11287.6 11675.3 Q11287.6 11605.3 11312.1 11568.6 Q11336.7 11531.7 11383.2 11531.7 Z" fill="#000000" fill-rule="evenodd" fill-opacity="1" /><path clip-path="url(#clip6200)" d="M 0 0 M14352 11561.4 Q14323.1 11561.4 14308.4 11589.9 Q14294 11618.2 14294 11675.3 Q14294 11732.1 14308.4 11760.6 Q14323.1 11789 14352 11789 Q14381 11789 14395.5 11760.6 Q14410.1 11732.1 14410.1 11675.3 Q14410.1 11618.2 14395.5 11589.9 Q14381 11561.4 14352 11561.4 M14352 11531.7 Q14398.4 11531.7 14422.9 11568.6 Q14447.5 11605.3 14447.5 11675.3 Q14447.5 11745.1 14422.9 11781.9 Q14398.4 11818.6 14352 11818.6 Q14305.5 11818.6 14280.8 11781.9 Q14256.4 11745.1 14256.4 11675.3 Q14256.4 11605.3 14280.8 11568.6 Q14305.5 11531.7 14352 11531.7 Z" fill="#000000" fill-rule="evenodd" fill-opacity="1" /><path clip-path="url(#clip6200)" d="M 0 0 M14488.1 11766.2 L14527.1 11766.2 L14527.1 11813.2 L14488.1 11813.2 L14488.1 11766.2 Z" fill="#000000" fill-rule="evenodd" fill-opacity="1" /><path clip-path="url(#clip6200)" d="M 0 0 M14568.1 11536.7 L14714.9 11536.7 L14714.9 11568.2 L14602.3 11568.2 L14602.3 11636 Q14610.5 11633.2 14618.6 11631.9 Q14626.8 11630.4 14634.9 11630.4 Q14681.2 11630.4 14708.2 11655.8 Q14735.3 11681.2 14735.3 11724.5 Q14735.3 11769.1 14707.5 11794 Q14679.7 11818.6 14629.2 11818.6 Q14611.8 11818.6 14593.6 11815.6 Q14575.7 11812.7 14556.4 11806.7 L14556.4 11769.1 Q14573.1 11778.2 14590.8 11782.7 Q14608.6 11787.1 14628.4 11787.1 Q14660.5 11787.1 14679.2 11770.3 Q14697.9 11753.4 14697.9 11724.5 Q14697.9 11695.6 14679.2 11678.8 Q14660.5 11661.9 14628.4 11661.9 Q14613.4 11661.9 14598.4 11665.3 Q14583.6 11668.6 14568.1 11675.6 L14568.1 11536.7 Z" fill="#000000" fill-rule="evenodd" fill-opacity="1" /><path clip-path="url(#clip6200)" d="M 0 0 M14776.2 11536.7 L14923.1 11536.7 L14923.1 11568.2 L14810.5 11568.2 L14810.5 11636 Q14818.6 11633.2 14826.8 11631.9 Q14834.9 11630.4 14843.1 11630.4 Q14889.4 11630.4 14916.4 11655.8 Q14943.4 11681.2 14943.4 11724.5 Q14943.4 11769.1 14915.7 11794 Q14887.9 11818.6 14837.3 11818.6 Q14819.9 11818.6 14801.8 11815.6 Q14783.8 11812.7 14764.5 11806.7 L14764.5 11769.1 Q14781.2 11778.2 14799 11782.7 Q14816.8 11787.1 14836.6 11787.1 Q14868.6 11787.1 14887.3 11770.3 Q14906 11753.4 14906 11724.5 Q14906 11695.6 14887.3 11678.8 Q14868.6 11661.9 14836.6 11661.9 Q14821.6 11661.9 14806.6 11665.3 Q14791.8 11668.6 14776.2 11675.6 L14776.2 11536.7 Z" fill="#000000" fill-rule="evenodd" fill-opacity="1" /><path clip-path="url(#clip6200)" d="M 0 0 M14984.4 11536.7 L15131.2 11536.7 L15131.2 11568.2 L15018.6 11568.2 L15018.6 11636 Q15026.8 11633.2 15034.9 11631.9 Q15043.1 11630.4 15051.2 11630.4 Q15097.5 11630.4 15124.5 11655.8 Q15151.6 11681.2 15151.6 11724.5 Q15151.6 11769.1 15123.8 11794 Q15096 11818.6 15045.5 11818.6 Q15028.1 11818.6 15009.9 11815.6 Q14992 11812.7 14972.7 11806.7 L14972.7 11769.1 Q14989.4 11778.2 15007.1 11782.7 Q15024.9 11787.1 15044.7 11787.1 Q15076.8 11787.1 15095.5 11770.3 Q15114.2 11753.4 15114.2 11724.5 Q15114.2 11695.6 15095.5 11678.8 Q15076.8 11661.9 15044.7 11661.9 Q15029.7 11661.9 15014.7 11665.3 Q14999.9 11668.6 14984.4 11675.6 L14984.4 11536.7 Z" fill="#000000" fill-rule="evenodd" fill-opacity="1" /><path clip-path="url(#clip6200)" d="M 0 0 M18020.2 11561.4 Q17991.3 11561.4 17976.7 11589.9 Q17962.2 11618.2 17962.2 11675.3 Q17962.2 11732.1 17976.7 11760.6 Q17991.3 11789 18020.2 11789 Q18049.3 11789 18063.7 11760.6 Q18078.3 11732.1 18078.3 11675.3 Q18078.3 11618.2 18063.7 11589.9 Q18049.3 11561.4 18020.2 11561.4 M18020.2 11531.7 Q18066.7 11531.7 18091.1 11568.6 Q18115.7 11605.3 18115.7 11675.3 Q18115.7 11745.1 18091.1 11781.9 Q18066.7 11818.6 18020.2 11818.6 Q17973.7 11818.6 17949.1 11781.9 Q17924.6 11745.1 17924.6 11675.3 Q17924.6 11605.3 17949.1 11568.6 Q17973.7 11531.7 18020.2 11531.7 Z" fill="#000000" fill-rule="evenodd" fill-opacity="1" /><path clip-path="url(#clip6200)" d="M 0 0 M18156.3 11766.2 L18195.4 11766.2 L18195.4 11813.2 L18156.3 11813.2 L18156.3 11766.2 Z" fill="#000000" fill-rule="evenodd" fill-opacity="1" /><path clip-path="url(#clip6200)" d="M 0 0 M18236.3 11536.7 L18383.1 11536.7 L18383.1 11568.2 L18270.5 11568.2 L18270.5 11636 Q18278.7 11633.2 18286.8 11631.9 Q18295 11630.4 18303.1 11630.4 Q18349.4 11630.4 18376.5 11655.8 Q18403.5 11681.2 18403.5 11724.5 Q18403.5 11769.1 18375.7 11794 Q18348 11818.6 18297.4 11818.6 Q18280 11818.6 18261.8 11815.6 Q18243.9 11812.7 18224.6 11806.7 L18224.6 11769.1 Q18241.3 11778.2 18259.1 11782.7 Q18276.8 11787.1 18296.7 11787.1 Q18328.7 11787.1 18347.4 11770.3 Q18366.1 11753.4 18366.1 11724.5 Q18366.1 11695.6 18347.4 11678.8 Q18328.7 11661.9 18296.7 11661.9 Q18281.7 11661.9 18266.7 11665.3 Q18251.8 11668.6 18236.3 11675.6 L18236.3 11536.7 Z" fill="#000000" fill-rule="evenodd" fill-opacity="1" /><path clip-path="url(#clip6200)" d="M 0 0 M18528.7 11660.1 Q18503.5 11660.1 18488.7 11677.3 Q18474.1 11694.5 18474.1 11724.5 Q18474.1 11754.3 18488.7 11771.7 Q18503.5 11789 18528.7 11789 Q18553.9 11789 18568.5 11771.7 Q18583.3 11754.3 18583.3 11724.5 Q18583.3 11694.5 18568.5 11677.3 Q18553.9 11660.1 18528.7 11660.1 M18603 11542.8 L18603 11576.9 Q18588.9 11570.3 18574.4 11566.7 Q18560.2 11563.2 18546.1 11563.2 Q18509.1 11563.2 18489.4 11588.2 Q18470 11613.2 18467.2 11663.8 Q18478.1 11647.7 18494.6 11639.1 Q18511.1 11630.4 18530.9 11630.4 Q18572.6 11630.4 18596.7 11655.8 Q18620.9 11681 18620.9 11724.5 Q18620.9 11767.1 18595.7 11792.8 Q18570.5 11818.6 18528.7 11818.6 Q18480.7 11818.6 18455.4 11781.9 Q18430 11745.1 18430 11675.3 Q18430 11609.7 18461.1 11570.8 Q18492.2 11531.7 18544.6 11531.7 Q18558.7 11531.7 18573 11534.5 Q18587.4 11537.3 18603 11542.8 Z" fill="#000000" fill-rule="evenodd" fill-opacity="1" /><path clip-path="url(#clip6200)" d="M 0 0 M18741.5 11561.4 Q18712.6 11561.4 18698 11589.9 Q18683.5 11618.2 18683.5 11675.3 Q18683.5 11732.1 18698 11760.6 Q18712.6 11789 18741.5 11789 Q18770.5 11789 18785 11760.6 Q18799.6 11732.1 18799.6 11675.3 Q18799.6 11618.2 18785 11589.9 Q18770.5 11561.4 18741.5 11561.4 M18741.5 11531.7 Q18788 11531.7 18812.4 11568.6 Q18837 11605.3 18837 11675.3 Q18837 11745.1 18812.4 11781.9 Q18788 11818.6 18741.5 11818.6 Q18695 11818.6 18670.4 11781.9 Q18645.9 11745.1 18645.9 11675.3 Q18645.9 11605.3 18670.4 11568.6 Q18695 11531.7 18741.5 11531.7 Z" fill="#000000" fill-rule="evenodd" fill-opacity="1" /><path clip-path="url(#clip6200)" d="M 0 0 M1189.72 10617.5 Q1164.54 10617.5 1149.72 10634.8 Q1135.09 10652 1135.09 10682 Q1135.09 10711.8 1149.72 10729.2 Q1164.54 10746.4 1189.72 10746.4 Q1214.91 10746.4 1229.54 10729.2 Q1244.35 10711.8 1244.35 10682 Q1244.35 10652 1229.54 10634.8 Q1214.91 10617.5 1189.72 10617.5 M1263.98 10500.3 L1263.98 10534.4 Q1249.91 10527.7 1235.46 10524.2 Q1221.2 10520.7 1207.13 10520.7 Q1170.09 10520.7 1150.46 10545.7 Q1131.02 10570.7 1128.24 10621.2 Q1139.17 10605.1 1155.65 10596.6 Q1172.13 10587.9 1191.94 10587.9 Q1233.61 10587.9 1257.68 10613.3 Q1281.94 10638.5 1281.94 10682 Q1281.94 10724.6 1256.76 10750.3 Q1231.57 10776.1 1189.72 10776.1 Q1141.76 10776.1 1116.39 10739.4 Q1091.02 10702.5 1091.02 10632.7 Q1091.02 10567.2 1122.13 10528.3 Q1153.24 10489.2 1205.65 10489.2 Q1219.72 10489.2 1233.98 10492 Q1248.42 10494.8 1263.98 10500.3 Z" fill="#000000" fill-rule="evenodd" fill-opacity="1" /><path clip-path="url(#clip6200)" d="M 0 0 M1322.5 10723.6 L1361.57 10723.6 L1361.57 10770.7 L1322.5 10770.7 L1322.5 10723.6 Z" fill="#000000" fill-rule="evenodd" fill-opacity="1" /><path clip-path="url(#clip6200)" d="M 0 0 M1486.76 10617.5 Q1461.57 10617.5 1446.76 10634.8 Q1432.13 10652 1432.13 10682 Q1432.13 10711.8 1446.76 10729.2 Q1461.57 10746.4 1486.76 10746.4 Q1511.94 10746.4 1526.57 10729.2 Q1541.39 10711.8 1541.39 10682 Q1541.39 10652 1526.57 10634.8 Q1511.94 10617.5 1486.76 10617.5 M1561.02 10500.3 L1561.02 10534.4 Q1546.94 10527.7 1532.5 10524.2 Q1518.24 10520.7 1504.16 10520.7 Q1467.13 10520.7 1447.5 10545.7 Q1428.05 10570.7 1425.28 10621.2 Q1436.2 10605.1 1452.68 10596.6 Q1469.16 10587.9 1488.98 10587.9 Q1530.65 10587.9 1554.72 10613.3 Q1578.98 10638.5 1578.98 10682 Q1578.98 10724.6 1553.79 10750.3 Q1528.61 10776.1 1486.76 10776.1 Q1438.79 10776.1 1413.42 10739.4 Q1388.05 10702.5 1388.05 10632.7 Q1388.05 10567.2 1419.16 10528.3 Q1450.28 10489.2 1502.68 10489.2 Q1516.76 10489.2 1531.02 10492 Q1545.46 10494.8 1561.02 10500.3 Z" fill="#000000" fill-rule="evenodd" fill-opacity="1" /><path clip-path="url(#clip6200)" d="M 0 0 M1704.16 10617.5 Q1678.98 10617.5 1664.16 10634.8 Q1649.53 10652 1649.53 10682 Q1649.53 10711.8 1664.16 10729.2 Q1678.98 10746.4 1704.16 10746.4 Q1729.35 10746.4 1743.98 10729.2 Q1758.79 10711.8 1758.79 10682 Q1758.79 10652 1743.98 10634.8 Q1729.35 10617.5 1704.16 10617.5 M1778.42 10500.3 L1778.42 10534.4 Q1764.35 10527.7 1749.9 10524.2 Q1735.64 10520.7 1721.57 10520.7 Q1684.53 10520.7 1664.9 10545.7 Q1645.46 10570.7 1642.68 10621.2 Q1653.61 10605.1 1670.09 10596.6 Q1686.57 10587.9 1706.39 10587.9 Q1748.05 10587.9 1772.13 10613.3 Q1796.38 10638.5 1796.38 10682 Q1796.38 10724.6 1771.2 10750.3 Q1746.01 10776.1 1704.16 10776.1 Q1656.2 10776.1 1630.83 10739.4 Q1605.46 10702.5 1605.46 10632.7 Q1605.46 10567.2 1636.57 10528.3 Q1667.68 10489.2 1720.09 10489.2 Q1734.16 10489.2 1748.42 10492 Q1762.87 10494.8 1778.42 10500.3 Z" fill="#000000" fill-rule="evenodd" fill-opacity="1" /><path clip-path="url(#clip6200)" d="M 0 0 M1950.27 10621.6 Q1977.12 10627.3 1992.12 10645.5 Q2007.31 10663.6 2007.31 10690.3 Q2007.31 10731.2 1979.16 10753.6 Q1951.01 10776.1 1899.16 10776.1 Q1881.75 10776.1 1863.24 10772.5 Q1844.9 10769.2 1825.27 10762.3 L1825.27 10726.2 Q1840.83 10735.3 1859.35 10739.9 Q1877.87 10744.6 1898.05 10744.6 Q1933.24 10744.6 1951.57 10730.7 Q1970.09 10716.8 1970.09 10690.3 Q1970.09 10665.9 1952.87 10652.2 Q1935.83 10638.3 1905.27 10638.3 L1873.05 10638.3 L1873.05 10607.5 L1906.75 10607.5 Q1934.35 10607.5 1948.98 10596.6 Q1963.61 10585.5 1963.61 10564.8 Q1963.61 10543.5 1948.42 10532.2 Q1933.42 10520.7 1905.27 10520.7 Q1889.9 10520.7 1872.31 10524 Q1854.72 10527.3 1833.61 10534.4 L1833.61 10501.1 Q1854.9 10495.1 1873.42 10492.2 Q1892.13 10489.2 1908.61 10489.2 Q1951.2 10489.2 1976.01 10508.6 Q2000.83 10527.9 2000.83 10560.9 Q2000.83 10583.8 1987.68 10599.8 Q1974.53 10615.5 1950.27 10621.6 Z" fill="#000000" fill-rule="evenodd" fill-opacity="1" /><path clip-path="url(#clip6200)" d="M 0 0 M2038.42 10494.2 L2216.2 10494.2 L2216.2 10510.1 L2115.83 10770.7 L2076.75 10770.7 L2171.2 10525.7 L2038.42 10525.7 L2038.42 10494.2 Z" fill="#000000" fill-rule="evenodd" fill-opacity="1" /><path clip-path="url(#clip6200)" d="M 0 0 M2257.12 10494.2 L2403.97 10494.2 L2403.97 10525.7 L2291.38 10525.7 L2291.38 10593.5 Q2299.53 10590.7 2307.68 10589.4 Q2315.83 10587.9 2323.97 10587.9 Q2370.27 10587.9 2397.31 10613.3 Q2424.34 10638.6 2424.34 10682 Q2424.34 10726.6 2396.57 10751.4 Q2368.79 10776.1 2318.23 10776.1 Q2300.83 10776.1 2282.68 10773.1 Q2264.72 10770.1 2245.46 10764.2 L2245.46 10726.6 Q2262.12 10735.7 2279.9 10740.1 Q2297.68 10744.6 2317.49 10744.6 Q2349.53 10744.6 2368.23 10727.7 Q2386.94 10710.9 2386.94 10682 Q2386.94 10653.1 2368.23 10636.2 Q2349.53 10619.4 2317.49 10619.4 Q2302.49 10619.4 2287.49 10622.7 Q2272.68 10626.1 2257.12 10633.1 L2257.12 10494.2 Z" fill="#000000" fill-rule="evenodd" fill-opacity="1" /><path clip-path="url(#clip6200)" d="M 0 0 M2463.05 10526.2 L2497.49 10526.2 L2497.49 10807.7 L2463.05 10807.7 L2463.05 10526.2 Z" fill="#000000" fill-rule="evenodd" fill-opacity="1" /><path clip-path="url(#clip6200)" d="M 0 0 M2618.05 10518.8 Q2589.16 10518.8 2574.53 10547.3 Q2560.08 10575.7 2560.08 10632.7 Q2560.08 10689.6 2574.53 10718.1 Q2589.16 10746.4 2618.05 10746.4 Q2647.12 10746.4 2661.57 10718.1 Q2676.2 10689.6 2676.2 10632.7 Q2676.2 10575.7 2661.57 10547.3 Q2647.12 10518.8 2618.05 10518.8 M2618.05 10489.2 Q2664.53 10489.2 2688.97 10526.1 Q2713.6 10562.7 2713.6 10632.7 Q2713.6 10702.5 2688.97 10739.4 Q2664.53 10776.1 2618.05 10776.1 Q2571.57 10776.1 2546.94 10739.4 Q2522.49 10702.5 2522.49 10632.7 Q2522.49 10562.7 2546.94 10526.1 Q2571.57 10489.2 2618.05 10489.2 Z" fill="#000000" fill-rule="evenodd" fill-opacity="1" /><path clip-path="url(#clip6200)" d="M 0 0 M2713.6 10454.6 L2794.7 10454.6 L2794.7 10479.3 L2713.6 10479.3 L2713.6 10454.6 Z" fill="#000000" fill-rule="evenodd" fill-opacity="1" /><path clip-path="url(#clip6200)" d="M 0 0 M2910.86 10525.8 L2960.51 10525.8 L2960.51 10354.4 L2906.49 10365.3 L2906.49 10337.6 L2960.21 10326.8 L2990.6 10326.8 L2990.6 10525.8 L3040.26 10525.8 L3040.26 10551.4 L2910.86 10551.4 L2910.86 10525.8 Z" fill="#000000" fill-rule="evenodd" fill-opacity="1" /><path clip-path="url(#clip6200)" d="M 0 0 M1165.46 8686.98 Q1140.28 8686.98 1125.46 8704.2 Q1110.83 8721.42 1110.83 8751.42 Q1110.83 8781.24 1125.46 8798.64 Q1140.28 8815.86 1165.46 8815.86 Q1190.65 8815.86 1205.28 8798.64 Q1220.09 8781.24 1220.09 8751.42 Q1220.09 8721.42 1205.28 8704.2 Q1190.65 8686.98 1165.46 8686.98 M1239.72 8569.75 L1239.72 8603.83 Q1225.65 8597.16 1211.2 8593.64 Q1196.94 8590.13 1182.87 8590.13 Q1145.83 8590.13 1126.2 8615.13 Q1106.76 8640.12 1103.98 8690.68 Q1114.91 8674.57 1131.39 8666.05 Q1147.87 8657.35 1167.68 8657.35 Q1209.35 8657.35 1233.42 8682.72 Q1257.68 8707.9 1257.68 8751.42 Q1257.68 8794.01 1232.5 8819.75 Q1207.31 8845.49 1165.46 8845.49 Q1117.5 8845.49 1092.13 8808.83 Q1066.76 8771.98 1066.76 8702.16 Q1066.76 8636.61 1097.87 8597.72 Q1128.98 8558.64 1181.39 8558.64 Q1195.46 8558.64 1209.72 8561.42 Q1224.17 8564.2 1239.72 8569.75 Z" fill="#000000" fill-rule="evenodd" fill-opacity="1" /><path clip-path="url(#clip6200)" d="M 0 0 M1298.24 8793.09 L1337.31 8793.09 L1337.31 8840.12 L1298.24 8840.12 L1298.24 8793.09 Z" fill="#000000" fill-rule="evenodd" fill-opacity="1" /><path clip-path="url(#clip6200)" d="M 0 0 M1462.5 8686.98 Q1437.31 8686.98 1422.5 8704.2 Q1407.87 8721.42 1407.87 8751.42 Q1407.87 8781.24 1422.5 8798.64 Q1437.31 8815.86 1462.5 8815.86 Q1487.68 8815.86 1502.31 8798.64 Q1517.13 8781.24 1517.13 8751.42 Q1517.13 8721.42 1502.31 8704.2 Q1487.68 8686.98 1462.5 8686.98 M1536.76 8569.75 L1536.76 8603.83 Q1522.68 8597.16 1508.24 8593.64 Q1493.98 8590.13 1479.91 8590.13 Q1442.87 8590.13 1423.24 8615.13 Q1403.79 8640.12 1401.02 8690.68 Q1411.94 8674.57 1428.42 8666.05 Q1444.91 8657.35 1464.72 8657.35 Q1506.39 8657.35 1530.46 8682.72 Q1554.72 8707.9 1554.72 8751.42 Q1554.72 8794.01 1529.53 8819.75 Q1504.35 8845.49 1462.5 8845.49 Q1414.54 8845.49 1389.16 8808.83 Q1363.79 8771.98 1363.79 8702.16 Q1363.79 8636.61 1394.91 8597.72 Q1426.02 8558.64 1478.42 8558.64 Q1492.5 8558.64 1506.76 8561.42 Q1521.2 8564.2 1536.76 8569.75 Z" fill="#000000" fill-rule="evenodd" fill-opacity="1" /><path clip-path="url(#clip6200)" d="M 0 0 M1679.9 8686.98 Q1654.72 8686.98 1639.9 8704.2 Q1625.27 8721.42 1625.27 8751.42 Q1625.27 8781.24 1639.9 8798.64 Q1654.72 8815.86 1679.9 8815.86 Q1705.09 8815.86 1719.72 8798.64 Q1734.53 8781.24 1734.53 8751.42 Q1734.53 8721.42 1719.72 8704.2 Q1705.09 8686.98 1679.9 8686.98 M1754.16 8569.75 L1754.16 8603.83 Q1740.09 8597.16 1725.64 8593.64 Q1711.39 8590.13 1697.31 8590.13 Q1660.27 8590.13 1640.65 8615.13 Q1621.2 8640.12 1618.42 8690.68 Q1629.35 8674.57 1645.83 8666.05 Q1662.31 8657.35 1682.13 8657.35 Q1723.79 8657.35 1747.87 8682.72 Q1772.13 8707.9 1772.13 8751.42 Q1772.13 8794.01 1746.94 8819.75 Q1721.76 8845.49 1679.9 8845.49 Q1631.94 8845.49 1606.57 8808.83 Q1581.2 8771.98 1581.2 8702.16 Q1581.2 8636.61 1612.31 8597.72 Q1643.42 8558.64 1695.83 8558.64 Q1709.9 8558.64 1724.16 8561.42 Q1738.61 8564.2 1754.16 8569.75 Z" fill="#000000" fill-rule="evenodd" fill-opacity="1" /><path clip-path="url(#clip6200)" d="M 0 0 M1915.46 8596.24 L1821.01 8743.83 L1915.46 8743.83 L1915.46 8596.24 M1905.64 8563.64 L1952.68 8563.64 L1952.68 8743.83 L1992.12 8743.83 L1992.12 8774.94 L1952.68 8774.94 L1952.68 8840.12 L1915.46 8840.12 L1915.46 8774.94 L1790.64 8774.94 L1790.64 8738.83 L1905.64 8563.64 Z" fill="#000000" fill-rule="evenodd" fill-opacity="1" /><path clip-path="url(#clip6200)" d="M 0 0 M2112.68 8588.27 Q2083.79 8588.27 2069.16 8616.79 Q2054.72 8645.12 2054.72 8702.16 Q2054.72 8759.01 2069.16 8787.53 Q2083.79 8815.86 2112.68 8815.86 Q2141.75 8815.86 2156.2 8787.53 Q2170.83 8759.01 2170.83 8702.16 Q2170.83 8645.12 2156.2 8616.79 Q2141.75 8588.27 2112.68 8588.27 M2112.68 8558.64 Q2159.16 8558.64 2183.61 8595.5 Q2208.23 8632.16 2208.23 8702.16 Q2208.23 8771.98 2183.61 8808.83 Q2159.16 8845.49 2112.68 8845.49 Q2066.2 8845.49 2041.57 8808.83 Q2017.12 8771.98 2017.12 8702.16 Q2017.12 8632.16 2041.57 8595.5 Q2066.2 8558.64 2112.68 8558.64 Z" fill="#000000" fill-rule="evenodd" fill-opacity="1" /><path clip-path="url(#clip6200)" d="M 0 0 M2328.79 8588.27 Q2299.9 8588.27 2285.27 8616.79 Q2270.83 8645.12 2270.83 8702.16 Q2270.83 8759.01 2285.27 8787.53 Q2299.9 8815.86 2328.79 8815.86 Q2357.86 8815.86 2372.31 8787.53 Q2386.94 8759.01 2386.94 8702.16 Q2386.94 8645.12 2372.31 8616.79 Q2357.86 8588.27 2328.79 8588.27 M2328.79 8558.64 Q2375.27 8558.64 2399.72 8595.5 Q2424.34 8632.16 2424.34 8702.16 Q2424.34 8771.98 2399.72 8808.83 Q2375.27 8845.49 2328.79 8845.49 Q2282.31 8845.49 2257.68 8808.83 Q2233.23 8771.98 2233.23 8702.16 Q2233.23 8632.16 2257.68 8595.5 Q2282.31 8558.64 2328.79 8558.64 Z" fill="#000000" fill-rule="evenodd" fill-opacity="1" /><path clip-path="url(#clip6200)" d="M 0 0 M2463.05 8595.68 L2497.49 8595.68 L2497.49 8877.16 L2463.05 8877.16 L2463.05 8595.68 Z" fill="#000000" fill-rule="evenodd" fill-opacity="1" /><path clip-path="url(#clip6200)" d="M 0 0 M2618.05 8588.27 Q2589.16 8588.27 2574.53 8616.79 Q2560.08 8645.12 2560.08 8702.16 Q2560.08 8759.01 2574.53 8787.53 Q2589.16 8815.86 2618.05 8815.86 Q2647.12 8815.86 2661.57 8787.53 Q2676.2 8759.01 2676.2 8702.16 Q2676.2 8645.12 2661.57 8616.79 Q2647.12 8588.27 2618.05 8588.27 M2618.05 8558.64 Q2664.53 8558.64 2688.97 8595.5 Q2713.6 8632.16 2713.6 8702.16 Q2713.6 8771.98 2688.97 8808.83 Q2664.53 8845.49 2618.05 8845.49 Q2571.57 8845.49 2546.94 8808.83 Q2522.49 8771.98 2522.49 8702.16 Q2522.49 8632.16 2546.94 8595.5 Q2571.57 8558.64 2618.05 8558.64 Z" fill="#000000" fill-rule="evenodd" fill-opacity="1" /><path clip-path="url(#clip6200)" d="M 0 0 M2713.6 8524.09 L2794.7 8524.09 L2794.7 8548.77 L2713.6 8548.77 L2713.6 8524.09 Z" fill="#000000" fill-rule="evenodd" fill-opacity="1" /><path clip-path="url(#clip6200)" d="M 0 0 M2910.86 8595.26 L2960.51 8595.26 L2960.51 8423.89 L2906.49 8434.72 L2906.49 8407.03 L2960.21 8396.2 L2990.6 8396.2 L2990.6 8595.26 L3040.26 8595.26 L3040.26 8620.84 L2910.86 8620.84 L2910.86 8595.26 Z" fill="#000000" fill-rule="evenodd" fill-opacity="1" /><path clip-path="url(#clip6200)" d="M 0 0 M1186.2 6756.42 Q1161.02 6756.42 1146.2 6773.64 Q1131.57 6790.86 1131.57 6820.86 Q1131.57 6850.68 1146.2 6868.09 Q1161.02 6885.31 1186.2 6885.31 Q1211.39 6885.31 1226.02 6868.09 Q1240.83 6850.68 1240.83 6820.86 Q1240.83 6790.86 1226.02 6773.64 Q1211.39 6756.42 1186.2 6756.42 M1260.46 6639.2 L1260.46 6673.27 Q1246.39 6666.61 1231.94 6663.09 Q1217.68 6659.57 1203.61 6659.57 Q1166.57 6659.57 1146.94 6684.57 Q1127.5 6709.57 1124.72 6760.12 Q1135.65 6744.01 1152.13 6735.49 Q1168.61 6726.79 1188.43 6726.79 Q1230.09 6726.79 1254.17 6752.16 Q1278.42 6777.35 1278.42 6820.86 Q1278.42 6863.46 1253.24 6889.2 Q1228.05 6914.94 1186.2 6914.94 Q1138.24 6914.94 1112.87 6878.27 Q1087.5 6841.42 1087.5 6771.61 Q1087.5 6706.05 1118.61 6667.16 Q1149.72 6628.09 1202.13 6628.09 Q1216.2 6628.09 1230.46 6630.87 Q1244.91 6633.64 1260.46 6639.2 Z" fill="#000000" fill-rule="evenodd" fill-opacity="1" /><path clip-path="url(#clip6200)" d="M 0 0 M1318.98 6862.53 L1358.05 6862.53 L1358.05 6909.57 L1318.98 6909.57 L1318.98 6862.53 Z" fill="#000000" fill-rule="evenodd" fill-opacity="1" /><path clip-path="url(#clip6200)" d="M 0 0 M1483.24 6756.42 Q1458.05 6756.42 1443.24 6773.64 Q1428.61 6790.86 1428.61 6820.86 Q1428.61 6850.68 1443.24 6868.09 Q1458.05 6885.31 1483.24 6885.31 Q1508.42 6885.31 1523.05 6868.09 Q1537.87 6850.68 1537.87 6820.86 Q1537.87 6790.86 1523.05 6773.64 Q1508.42 6756.42 1483.24 6756.42 M1557.5 6639.2 L1557.5 6673.27 Q1543.42 6666.61 1528.98 6663.09 Q1514.72 6659.57 1500.65 6659.57 Q1463.61 6659.57 1443.98 6684.57 Q1424.54 6709.57 1421.76 6760.12 Q1432.68 6744.01 1449.16 6735.49 Q1465.65 6726.79 1485.46 6726.79 Q1527.13 6726.79 1551.2 6752.16 Q1575.46 6777.35 1575.46 6820.86 Q1575.46 6863.46 1550.28 6889.2 Q1525.09 6914.94 1483.24 6914.94 Q1435.28 6914.94 1409.91 6878.27 Q1384.54 6841.42 1384.54 6771.61 Q1384.54 6706.05 1415.65 6667.16 Q1446.76 6628.09 1499.16 6628.09 Q1513.24 6628.09 1527.5 6630.87 Q1541.94 6633.64 1557.5 6639.2 Z" fill="#000000" fill-rule="evenodd" fill-opacity="1" /><path clip-path="url(#clip6200)" d="M 0 0 M1700.64 6756.42 Q1675.46 6756.42 1660.64 6773.64 Q1646.02 6790.86 1646.02 6820.86 Q1646.02 6850.68 1660.64 6868.09 Q1675.46 6885.31 1700.64 6885.31 Q1725.83 6885.31 1740.46 6868.09 Q1755.27 6850.68 1755.27 6820.86 Q1755.27 6790.86 1740.46 6773.64 Q1725.83 6756.42 1700.64 6756.42 M1774.9 6639.2 L1774.9 6673.27 Q1760.83 6666.61 1746.39 6663.09 Q1732.13 6659.57 1718.05 6659.57 Q1681.02 6659.57 1661.39 6684.57 Q1641.94 6709.57 1639.16 6760.12 Q1650.09 6744.01 1666.57 6735.49 Q1683.05 6726.79 1702.87 6726.79 Q1744.53 6726.79 1768.61 6752.16 Q1792.87 6777.35 1792.87 6820.86 Q1792.87 6863.46 1767.68 6889.2 Q1742.5 6914.94 1700.64 6914.94 Q1652.68 6914.94 1627.31 6878.27 Q1601.94 6841.42 1601.94 6771.61 Q1601.94 6706.05 1633.05 6667.16 Q1664.16 6628.09 1716.57 6628.09 Q1730.64 6628.09 1744.9 6630.87 Q1759.35 6633.64 1774.9 6639.2 Z" fill="#000000" fill-rule="evenodd" fill-opacity="1" /><path clip-path="url(#clip6200)" d="M 0 0 M1936.2 6665.68 L1841.76 6813.27 L1936.2 6813.27 L1936.2 6665.68 M1926.38 6633.09 L1973.42 6633.09 L1973.42 6813.27 L2012.87 6813.27 L2012.87 6844.38 L1973.42 6844.38 L1973.42 6909.57 L1936.2 6909.57 L1936.2 6844.38 L1811.38 6844.38 L1811.38 6808.27 L1926.38 6633.09 Z" fill="#000000" fill-rule="evenodd" fill-opacity="1" /><path clip-path="url(#clip6200)" d="M 0 0 M2085.64 6878.09 L2216.2 6878.09 L2216.2 6909.57 L2040.64 6909.57 L2040.64 6878.09 Q2061.94 6856.05 2098.61 6819.01 Q2135.46 6781.79 2144.9 6771.05 Q2162.86 6750.87 2169.9 6736.98 Q2177.12 6722.9 2177.12 6709.38 Q2177.12 6687.35 2161.57 6673.46 Q2146.2 6659.57 2121.38 6659.57 Q2103.79 6659.57 2084.16 6665.68 Q2064.72 6671.79 2042.49 6684.2 L2042.49 6646.42 Q2065.09 6637.35 2084.72 6632.72 Q2104.35 6628.09 2120.64 6628.09 Q2163.61 6628.09 2189.16 6649.57 Q2214.72 6671.05 2214.72 6706.98 Q2214.72 6724.01 2208.23 6739.38 Q2201.94 6754.57 2185.09 6775.31 Q2180.46 6780.68 2155.64 6806.42 Q2130.83 6831.98 2085.64 6878.09 Z" fill="#000000" fill-rule="evenodd" fill-opacity="1" /><path clip-path="url(#clip6200)" d="M 0 0 M2257.12 6633.09 L2403.97 6633.09 L2403.97 6664.57 L2291.38 6664.57 L2291.38 6732.35 Q2299.53 6729.57 2307.68 6728.27 Q2315.83 6726.79 2323.97 6726.79 Q2370.27 6726.79 2397.31 6752.16 Q2424.34 6777.53 2424.34 6820.86 Q2424.34 6865.49 2396.57 6890.31 Q2368.79 6914.94 2318.23 6914.94 Q2300.83 6914.94 2282.68 6911.98 Q2264.72 6909.01 2245.46 6903.09 L2245.46 6865.49 Q2262.12 6874.57 2279.9 6879.01 Q2297.68 6883.46 2317.49 6883.46 Q2349.53 6883.46 2368.23 6866.61 Q2386.94 6849.75 2386.94 6820.86 Q2386.94 6791.98 2368.23 6775.12 Q2349.53 6758.27 2317.49 6758.27 Q2302.49 6758.27 2287.49 6761.61 Q2272.68 6764.94 2257.12 6771.98 L2257.12 6633.09 Z" fill="#000000" fill-rule="evenodd" fill-opacity="1" /><path clip-path="url(#clip6200)" d="M 0 0 M2463.05 6665.12 L2497.49 6665.12 L2497.49 6946.6 L2463.05 6946.6 L2463.05 6665.12 Z" fill="#000000" fill-rule="evenodd" fill-opacity="1" /><path clip-path="url(#clip6200)" d="M 0 0 M2618.05 6657.72 Q2589.16 6657.72 2574.53 6686.24 Q2560.08 6714.57 2560.08 6771.61 Q2560.08 6828.46 2574.53 6856.98 Q2589.16 6885.31 2618.05 6885.31 Q2647.12 6885.31 2661.57 6856.98 Q2676.2 6828.46 2676.2 6771.61 Q2676.2 6714.57 2661.57 6686.24 Q2647.12 6657.72 2618.05 6657.72 M2618.05 6628.09 Q2664.53 6628.09 2688.97 6664.94 Q2713.6 6701.61 2713.6 6771.61 Q2713.6 6841.42 2688.97 6878.27 Q2664.53 6914.94 2618.05 6914.94 Q2571.57 6914.94 2546.94 6878.27 Q2522.49 6841.42 2522.49 6771.61 Q2522.49 6701.61 2546.94 6664.94 Q2571.57 6628.09 2618.05 6628.09 Z" fill="#000000" fill-rule="evenodd" fill-opacity="1" /><path clip-path="url(#clip6200)" d="M 0 0 M2713.6 6593.54 L2794.7 6593.54 L2794.7 6618.21 L2713.6 6618.21 L2713.6 6593.54 Z" fill="#000000" fill-rule="evenodd" fill-opacity="1" /><path clip-path="url(#clip6200)" d="M 0 0 M2910.86 6664.71 L2960.51 6664.71 L2960.51 6493.33 L2906.49 6504.16 L2906.49 6476.48 L2960.21 6465.64 L2990.6 6465.64 L2990.6 6664.71 L3040.26 6664.71 L3040.26 6690.28 L2910.86 6690.28 L2910.86 6664.71 Z" fill="#000000" fill-rule="evenodd" fill-opacity="1" /><path clip-path="url(#clip6200)" d="M 0 0 M1173.43 4825.86 Q1148.24 4825.86 1133.43 4843.09 Q1118.8 4860.31 1118.8 4890.31 Q1118.8 4920.12 1133.43 4937.53 Q1148.24 4954.75 1173.43 4954.75 Q1198.61 4954.75 1213.24 4937.53 Q1228.05 4920.12 1228.05 4890.31 Q1228.05 4860.31 1213.24 4843.09 Q1198.61 4825.86 1173.43 4825.86 M1247.68 4708.64 L1247.68 4742.72 Q1233.61 4736.05 1219.17 4732.53 Q1204.91 4729.01 1190.83 4729.01 Q1153.8 4729.01 1134.17 4754.01 Q1114.72 4779.01 1111.94 4829.57 Q1122.87 4813.46 1139.35 4804.94 Q1155.83 4796.24 1175.65 4796.24 Q1217.31 4796.24 1241.39 4821.61 Q1265.65 4846.79 1265.65 4890.31 Q1265.65 4932.9 1240.46 4958.64 Q1215.28 4984.38 1173.43 4984.38 Q1125.46 4984.38 1100.09 4947.72 Q1074.72 4910.86 1074.72 4841.05 Q1074.72 4775.49 1105.83 4736.61 Q1136.94 4697.53 1189.35 4697.53 Q1203.43 4697.53 1217.68 4700.31 Q1232.13 4703.09 1247.68 4708.64 Z" fill="#000000" fill-rule="evenodd" fill-opacity="1" /><path clip-path="url(#clip6200)" d="M 0 0 M1306.2 4931.98 L1345.28 4931.98 L1345.28 4979.01 L1306.2 4979.01 L1306.2 4931.98 Z" fill="#000000" fill-rule="evenodd" fill-opacity="1" /><path clip-path="url(#clip6200)" d="M 0 0 M1470.46 4825.86 Q1445.28 4825.86 1430.46 4843.09 Q1415.83 4860.31 1415.83 4890.31 Q1415.83 4920.12 1430.46 4937.53 Q1445.28 4954.75 1470.46 4954.75 Q1495.65 4954.75 1510.28 4937.53 Q1525.09 4920.12 1525.09 4890.31 Q1525.09 4860.31 1510.28 4843.09 Q1495.65 4825.86 1470.46 4825.86 M1544.72 4708.64 L1544.72 4742.72 Q1530.65 4736.05 1516.2 4732.53 Q1501.94 4729.01 1487.87 4729.01 Q1450.83 4729.01 1431.2 4754.01 Q1411.76 4779.01 1408.98 4829.57 Q1419.91 4813.46 1436.39 4804.94 Q1452.87 4796.24 1472.68 4796.24 Q1514.35 4796.24 1538.42 4821.61 Q1562.68 4846.79 1562.68 4890.31 Q1562.68 4932.9 1537.5 4958.64 Q1512.31 4984.38 1470.46 4984.38 Q1422.5 4984.38 1397.13 4947.72 Q1371.76 4910.86 1371.76 4841.05 Q1371.76 4775.49 1402.87 4736.61 Q1433.98 4697.53 1486.39 4697.53 Q1500.46 4697.53 1514.72 4700.31 Q1529.16 4703.09 1544.72 4708.64 Z" fill="#000000" fill-rule="evenodd" fill-opacity="1" /><path clip-path="url(#clip6200)" d="M 0 0 M1687.87 4825.86 Q1662.68 4825.86 1647.87 4843.09 Q1633.24 4860.31 1633.24 4890.31 Q1633.24 4920.12 1647.87 4937.53 Q1662.68 4954.75 1687.87 4954.75 Q1713.05 4954.75 1727.68 4937.53 Q1742.5 4920.12 1742.5 4890.31 Q1742.5 4860.31 1727.68 4843.09 Q1713.05 4825.86 1687.87 4825.86 M1762.13 4708.64 L1762.13 4742.72 Q1748.05 4736.05 1733.61 4732.53 Q1719.35 4729.01 1705.27 4729.01 Q1668.24 4729.01 1648.61 4754.01 Q1629.16 4779.01 1626.39 4829.57 Q1637.31 4813.46 1653.79 4804.94 Q1670.27 4796.24 1690.09 4796.24 Q1731.76 4796.24 1755.83 4821.61 Q1780.09 4846.79 1780.09 4890.31 Q1780.09 4932.9 1754.9 4958.64 Q1729.72 4984.38 1687.87 4984.38 Q1639.9 4984.38 1614.53 4947.72 Q1589.16 4910.86 1589.16 4841.05 Q1589.16 4775.49 1620.27 4736.61 Q1651.39 4697.53 1703.79 4697.53 Q1717.87 4697.53 1732.13 4700.31 Q1746.57 4703.09 1762.13 4708.64 Z" fill="#000000" fill-rule="evenodd" fill-opacity="1" /><path clip-path="url(#clip6200)" d="M 0 0 M1923.42 4735.12 L1828.98 4882.72 L1923.42 4882.72 L1923.42 4735.12 M1913.61 4702.53 L1960.64 4702.53 L1960.64 4882.72 L2000.09 4882.72 L2000.09 4913.83 L1960.64 4913.83 L1960.64 4979.01 L1923.42 4979.01 L1923.42 4913.83 L1798.61 4913.83 L1798.61 4877.72 L1913.61 4702.53 Z" fill="#000000" fill-rule="evenodd" fill-opacity="1" /><path clip-path="url(#clip6200)" d="M 0 0 M2041.01 4702.53 L2187.86 4702.53 L2187.86 4734.01 L2075.27 4734.01 L2075.27 4801.79 Q2083.42 4799.01 2091.57 4797.72 Q2099.72 4796.24 2107.86 4796.24 Q2154.16 4796.24 2181.2 4821.61 Q2208.23 4846.98 2208.23 4890.31 Q2208.23 4934.94 2180.46 4959.75 Q2152.68 4984.38 2102.12 4984.38 Q2084.72 4984.38 2066.57 4981.42 Q2048.61 4978.46 2029.35 4972.53 L2029.35 4934.94 Q2046.01 4944.01 2063.79 4948.46 Q2081.57 4952.9 2101.38 4952.9 Q2133.42 4952.9 2152.12 4936.05 Q2170.83 4919.2 2170.83 4890.31 Q2170.83 4861.42 2152.12 4844.57 Q2133.42 4827.72 2101.38 4827.72 Q2086.38 4827.72 2071.38 4831.05 Q2056.57 4834.38 2041.01 4841.42 L2041.01 4702.53 Z" fill="#000000" fill-rule="evenodd" fill-opacity="1" /><path clip-path="url(#clip6200)" d="M 0 0 M2328.79 4727.16 Q2299.9 4727.16 2285.27 4755.68 Q2270.83 4784.01 2270.83 4841.05 Q2270.83 4897.9 2285.27 4926.42 Q2299.9 4954.75 2328.79 4954.75 Q2357.86 4954.75 2372.31 4926.42 Q2386.94 4897.9 2386.94 4841.05 Q2386.94 4784.01 2372.31 4755.68 Q2357.86 4727.16 2328.79 4727.16 M2328.79 4697.53 Q2375.27 4697.53 2399.72 4734.38 Q2424.34 4771.05 2424.34 4841.05 Q2424.34 4910.86 2399.72 4947.72 Q2375.27 4984.38 2328.79 4984.38 Q2282.31 4984.38 2257.68 4947.72 Q2233.23 4910.86 2233.23 4841.05 Q2233.23 4771.05 2257.68 4734.38 Q2282.31 4697.53 2328.79 4697.53 Z" fill="#000000" fill-rule="evenodd" fill-opacity="1" /><path clip-path="url(#clip6200)" d="M 0 0 M2463.05 4734.57 L2497.49 4734.57 L2497.49 5016.05 L2463.05 5016.05 L2463.05 4734.57 Z" fill="#000000" fill-rule="evenodd" fill-opacity="1" /><path clip-path="url(#clip6200)" d="M 0 0 M2618.05 4727.16 Q2589.16 4727.16 2574.53 4755.68 Q2560.08 4784.01 2560.08 4841.05 Q2560.08 4897.9 2574.53 4926.42 Q2589.16 4954.75 2618.05 4954.75 Q2647.12 4954.75 2661.57 4926.42 Q2676.2 4897.9 2676.2 4841.05 Q2676.2 4784.01 2661.57 4755.68 Q2647.12 4727.16 2618.05 4727.16 M2618.05 4697.53 Q2664.53 4697.53 2688.97 4734.38 Q2713.6 4771.05 2713.6 4841.05 Q2713.6 4910.86 2688.97 4947.72 Q2664.53 4984.38 2618.05 4984.38 Q2571.57 4984.38 2546.94 4947.72 Q2522.49 4910.86 2522.49 4841.05 Q2522.49 4771.05 2546.94 4734.38 Q2571.57 4697.53 2618.05 4697.53 Z" fill="#000000" fill-rule="evenodd" fill-opacity="1" /><path clip-path="url(#clip6200)" d="M 0 0 M2713.6 4662.98 L2794.7 4662.98 L2794.7 4687.66 L2713.6 4687.66 L2713.6 4662.98 Z" fill="#000000" fill-rule="evenodd" fill-opacity="1" /><path clip-path="url(#clip6200)" d="M 0 0 M2910.86 4734.15 L2960.51 4734.15 L2960.51 4562.77 L2906.49 4573.61 L2906.49 4545.92 L2960.21 4535.09 L2990.6 4535.09 L2990.6 4734.15 L3040.26 4734.15 L3040.26 4759.73 L2910.86 4759.73 L2910.86 4734.15 Z" fill="#000000" fill-rule="evenodd" fill-opacity="1" /><path clip-path="url(#clip6200)" d="M 0 0 M1180.65 2895.31 Q1155.46 2895.31 1140.65 2912.53 Q1126.02 2929.75 1126.02 2959.75 Q1126.02 2989.57 1140.65 3006.97 Q1155.46 3024.2 1180.65 3024.2 Q1205.83 3024.2 1220.46 3006.97 Q1235.28 2989.57 1235.28 2959.75 Q1235.28 2929.75 1220.46 2912.53 Q1205.83 2895.31 1180.65 2895.31 M1254.91 2778.09 L1254.91 2812.16 Q1240.83 2805.49 1226.39 2801.98 Q1212.13 2798.46 1198.05 2798.46 Q1161.02 2798.46 1141.39 2823.46 Q1121.94 2848.46 1119.17 2899.01 Q1130.09 2882.9 1146.57 2874.38 Q1163.05 2865.68 1182.87 2865.68 Q1224.54 2865.68 1248.61 2891.05 Q1272.87 2916.23 1272.87 2959.75 Q1272.87 3002.35 1247.68 3028.09 Q1222.5 3053.83 1180.65 3053.83 Q1132.68 3053.83 1107.31 3017.16 Q1081.94 2980.31 1081.94 2910.49 Q1081.94 2844.94 1113.06 2806.05 Q1144.17 2766.98 1196.57 2766.98 Q1210.65 2766.98 1224.91 2769.75 Q1239.35 2772.53 1254.91 2778.09 Z" fill="#000000" fill-rule="evenodd" fill-opacity="1" /><path clip-path="url(#clip6200)" d="M 0 0 M1313.42 3001.42 L1352.5 3001.42 L1352.5 3048.46 L1313.42 3048.46 L1313.42 3001.42 Z" fill="#000000" fill-rule="evenodd" fill-opacity="1" /><path clip-path="url(#clip6200)" d="M 0 0 M1477.68 2895.31 Q1452.5 2895.31 1437.68 2912.53 Q1423.05 2929.75 1423.05 2959.75 Q1423.05 2989.57 1437.68 3006.97 Q1452.5 3024.2 1477.68 3024.2 Q1502.87 3024.2 1517.5 3006.97 Q1532.31 2989.57 1532.31 2959.75 Q1532.31 2929.75 1517.5 2912.53 Q1502.87 2895.31 1477.68 2895.31 M1551.94 2778.09 L1551.94 2812.16 Q1537.87 2805.49 1523.42 2801.98 Q1509.16 2798.46 1495.09 2798.46 Q1458.05 2798.46 1438.42 2823.46 Q1418.98 2848.46 1416.2 2899.01 Q1427.13 2882.9 1443.61 2874.38 Q1460.09 2865.68 1479.91 2865.68 Q1521.57 2865.68 1545.65 2891.05 Q1569.9 2916.23 1569.9 2959.75 Q1569.9 3002.35 1544.72 3028.09 Q1519.53 3053.83 1477.68 3053.83 Q1429.72 3053.83 1404.35 3017.16 Q1378.98 2980.31 1378.98 2910.49 Q1378.98 2844.94 1410.09 2806.05 Q1441.2 2766.98 1493.61 2766.98 Q1507.68 2766.98 1521.94 2769.75 Q1536.39 2772.53 1551.94 2778.09 Z" fill="#000000" fill-rule="evenodd" fill-opacity="1" /><path clip-path="url(#clip6200)" d="M 0 0 M1695.09 2895.31 Q1669.9 2895.31 1655.09 2912.53 Q1640.46 2929.75 1640.46 2959.75 Q1640.46 2989.57 1655.09 3006.97 Q1669.9 3024.2 1695.09 3024.2 Q1720.27 3024.2 1734.9 3006.97 Q1749.72 2989.57 1749.72 2959.75 Q1749.72 2929.75 1734.9 2912.53 Q1720.27 2895.31 1695.09 2895.31 M1769.35 2778.09 L1769.35 2812.16 Q1755.27 2805.49 1740.83 2801.98 Q1726.57 2798.46 1712.5 2798.46 Q1675.46 2798.46 1655.83 2823.46 Q1636.39 2848.46 1633.61 2899.01 Q1644.53 2882.9 1661.02 2874.38 Q1677.5 2865.68 1697.31 2865.68 Q1738.98 2865.68 1763.05 2891.05 Q1787.31 2916.23 1787.31 2959.75 Q1787.31 3002.35 1762.13 3028.09 Q1736.94 3053.83 1695.09 3053.83 Q1647.13 3053.83 1621.76 3017.16 Q1596.39 2980.31 1596.39 2910.49 Q1596.39 2844.94 1627.5 2806.05 Q1658.61 2766.98 1711.02 2766.98 Q1725.09 2766.98 1739.35 2769.75 Q1753.79 2772.53 1769.35 2778.09 Z" fill="#000000" fill-rule="evenodd" fill-opacity="1" /><path clip-path="url(#clip6200)" d="M 0 0 M1930.64 2804.57 L1836.2 2952.16 L1930.64 2952.16 L1930.64 2804.57 M1920.83 2771.98 L1967.87 2771.98 L1967.87 2952.16 L2007.31 2952.16 L2007.31 2983.27 L1967.87 2983.27 L1967.87 3048.46 L1930.64 3048.46 L1930.64 2983.27 L1805.83 2983.27 L1805.83 2947.16 L1920.83 2771.98 Z" fill="#000000" fill-rule="evenodd" fill-opacity="1" /><path clip-path="url(#clip6200)" d="M 0 0 M2038.42 2771.98 L2216.2 2771.98 L2216.2 2787.9 L2115.83 3048.46 L2076.75 3048.46 L2171.2 2803.46 L2038.42 2803.46 L2038.42 2771.98 Z" fill="#000000" fill-rule="evenodd" fill-opacity="1" /><path clip-path="url(#clip6200)" d="M 0 0 M2257.12 2771.98 L2403.97 2771.98 L2403.97 2803.46 L2291.38 2803.46 L2291.38 2871.23 Q2299.53 2868.46 2307.68 2867.16 Q2315.83 2865.68 2323.97 2865.68 Q2370.27 2865.68 2397.31 2891.05 Q2424.34 2916.42 2424.34 2959.75 Q2424.34 3004.38 2396.57 3029.2 Q2368.79 3053.83 2318.23 3053.83 Q2300.83 3053.83 2282.68 3050.86 Q2264.72 3047.9 2245.46 3041.97 L2245.46 3004.38 Q2262.12 3013.46 2279.9 3017.9 Q2297.68 3022.35 2317.49 3022.35 Q2349.53 3022.35 2368.23 3005.49 Q2386.94 2988.64 2386.94 2959.75 Q2386.94 2930.86 2368.23 2914.01 Q2349.53 2897.16 2317.49 2897.16 Q2302.49 2897.16 2287.49 2900.49 Q2272.68 2903.83 2257.12 2910.86 L2257.12 2771.98 Z" fill="#000000" fill-rule="evenodd" fill-opacity="1" /><path clip-path="url(#clip6200)" d="M 0 0 M2463.05 2804.01 L2497.49 2804.01 L2497.49 3085.49 L2463.05 3085.49 L2463.05 2804.01 Z" fill="#000000" fill-rule="evenodd" fill-opacity="1" /><path clip-path="url(#clip6200)" d="M 0 0 M2618.05 2796.61 Q2589.16 2796.61 2574.53 2825.12 Q2560.08 2853.46 2560.08 2910.49 Q2560.08 2967.35 2574.53 2995.86 Q2589.16 3024.2 2618.05 3024.2 Q2647.12 3024.2 2661.57 2995.86 Q2676.2 2967.35 2676.2 2910.49 Q2676.2 2853.46 2661.57 2825.12 Q2647.12 2796.61 2618.05 2796.61 M2618.05 2766.98 Q2664.53 2766.98 2688.97 2803.83 Q2713.6 2840.49 2713.6 2910.49 Q2713.6 2980.31 2688.97 3017.16 Q2664.53 3053.83 2618.05 3053.83 Q2571.57 3053.83 2546.94 3017.16 Q2522.49 2980.31 2522.49 2910.49 Q2522.49 2840.49 2546.94 2803.83 Q2571.57 2766.98 2618.05 2766.98 Z" fill="#000000" fill-rule="evenodd" fill-opacity="1" /><path clip-path="url(#clip6200)" d="M 0 0 M2713.6 2732.43 L2794.7 2732.43 L2794.7 2757.1 L2713.6 2757.1 L2713.6 2732.43 Z" fill="#000000" fill-rule="evenodd" fill-opacity="1" /><path clip-path="url(#clip6200)" d="M 0 0 M2910.86 2803.59 L2960.51 2803.59 L2960.51 2632.22 L2906.49 2643.05 L2906.49 2615.37 L2960.21 2604.53 L2990.6 2604.53 L2990.6 2803.59 L3040.26 2803.59 L3040.26 2829.17 L2910.86 2829.17 L2910.86 2803.59 Z" fill="#000000" fill-rule="evenodd" fill-opacity="1" /><path clip-path="url(#clip6200)" d="M 0 0 M6607.45 228.341 L6607.45 284.73 Q6582.18 271.767 6554.95 265.286 Q6527.73 258.804 6498.56 258.804 Q6454.17 258.804 6431.81 272.415 Q6409.77 286.026 6409.77 313.248 Q6409.77 333.989 6425.65 345.98 Q6441.53 357.646 6489.49 368.341 L6509.91 372.878 Q6573.43 386.489 6600 411.442 Q6626.9 436.072 6626.9 480.47 Q6626.9 531.025 6586.71 560.516 Q6546.85 590.006 6476.85 590.006 Q6447.69 590.006 6415.93 584.173 Q6384.49 578.664 6349.49 567.321 L6349.49 505.747 Q6382.55 522.923 6414.63 531.673 Q6446.71 540.099 6478.15 540.099 Q6520.28 540.099 6542.96 525.84 Q6565.65 511.257 6565.65 485.007 Q6565.65 460.701 6549.12 447.738 Q6532.92 434.775 6477.5 422.785 L6456.76 417.924 Q6401.34 406.257 6376.71 382.276 Q6352.08 357.97 6352.08 315.841 Q6352.08 264.637 6388.38 236.767 Q6424.68 208.897 6491.43 208.897 Q6524.49 208.897 6553.66 213.758 Q6582.82 218.619 6607.45 228.341 Z" fill="#000000" fill-rule="evenodd" fill-opacity="1" /><path clip-path="url(#clip6200)" d="M 0 0 M6689.44 217.647 L6749.07 217.647 L6749.07 580.608 L6689.44 580.608 L6689.44 217.647 M6689.44 76.3514 L6749.07 76.3514 L6749.07 151.86 L6689.44 151.86 L6689.44 76.3514 Z" fill="#000000" fill-rule="evenodd" fill-opacity="1" /><path clip-path="url(#clip6200)" d="M 0 0 M6785.69 217.647 L7068.93 217.647 L7068.93 272.091 L6844.67 532.969 L7068.93 532.969 L7068.93 580.608 L6777.59 580.608 L6777.59 526.164 L7001.85 265.286 L6785.69 265.286 L6785.69 217.647 Z" fill="#000000" fill-rule="evenodd" fill-opacity="1" /><path clip-path="url(#clip6200)" d="M 0 0 M7441.94 384.22 L7441.94 413.387 L7167.77 413.387 Q7171.66 474.96 7204.72 507.368 Q7238.1 539.451 7297.4 539.451 Q7331.75 539.451 7363.84 531.025 Q7396.24 522.599 7428 505.747 L7428 562.136 Q7395.92 575.747 7362.22 582.877 Q7328.51 590.006 7293.84 590.006 Q7206.99 590.006 7156.11 539.451 Q7105.55 488.896 7105.55 402.692 Q7105.55 313.572 7153.51 261.397 Q7201.8 208.897 7283.47 208.897 Q7356.71 208.897 7399.16 256.212 Q7441.94 303.202 7441.94 384.22 M7382.31 366.72 Q7381.66 317.785 7354.76 288.619 Q7328.19 259.452 7284.12 259.452 Q7234.21 259.452 7204.07 287.647 Q7174.26 315.841 7169.72 367.044 L7382.31 366.72 Z" fill="#000000" fill-rule="evenodd" fill-opacity="1" /><path clip-path="url(#clip6200)" d="M 0 0 M7519.72 498.294 L7588.1 498.294 L7588.1 580.608 L7519.72 580.608 L7519.72 498.294 M7519.72 237.415 L7588.1 237.415 L7588.1 319.73 L7519.72 319.73 L7519.72 237.415 Z" fill="#000000" fill-rule="evenodd" fill-opacity="1" /><path clip-path="url(#clip6200)" d="M 0 0 M7807.17 312.6 Q7763.09 312.6 7737.17 342.739 Q7711.57 372.878 7711.57 425.377 Q7711.57 477.553 7737.17 508.016 Q7763.09 538.155 7807.17 538.155 Q7851.24 538.155 7876.84 508.016 Q7902.77 477.553 7902.77 425.377 Q7902.77 372.878 7876.84 342.739 Q7851.24 312.6 7807.17 312.6 M7937.12 107.462 L7937.12 167.092 Q7912.49 155.425 7887.21 149.268 Q7862.26 143.11 7837.63 143.11 Q7772.82 143.11 7738.47 186.86 Q7704.44 230.61 7699.58 319.082 Q7718.7 290.887 7747.54 275.98 Q7776.38 260.749 7811.06 260.749 Q7883.97 260.749 7926.1 305.147 Q7968.56 349.22 7968.56 425.377 Q7968.56 499.914 7924.48 544.96 Q7880.41 590.006 7807.17 590.006 Q7723.23 590.006 7678.84 525.84 Q7634.44 461.349 7634.44 339.174 Q7634.44 224.453 7688.88 156.397 Q7743.33 88.018 7835.04 88.018 Q7859.67 88.018 7884.62 92.8791 Q7909.9 97.7402 7937.12 107.462 Z" fill="#000000" fill-rule="evenodd" fill-opacity="1" /><path clip-path="url(#clip6200)" d="M 0 0 M8046.33 498.294 L8114.71 498.294 L8114.71 554.034 L8061.57 657.737 L8019.76 657.737 L8046.33 554.034 L8046.33 498.294 Z" fill="#000000" fill-rule="evenodd" fill-opacity="1" /><path clip-path="url(#clip6200)" d="M 0 0 M8325.68 350.841 Q8279.02 350.841 8252.12 375.794 Q8225.55 400.748 8225.55 444.498 Q8225.55 488.247 8252.12 513.201 Q8279.02 538.155 8325.68 538.155 Q8372.35 538.155 8399.25 513.201 Q8426.15 487.923 8426.15 444.498 Q8426.15 400.748 8399.25 375.794 Q8372.67 350.841 8325.68 350.841 M8260.22 322.97 Q8218.09 312.6 8194.44 283.758 Q8171.1 254.915 8171.1 213.434 Q8171.1 155.425 8212.26 121.722 Q8253.74 88.018 8325.68 88.018 Q8397.95 88.018 8439.11 121.722 Q8480.27 155.425 8480.27 213.434 Q8480.27 254.915 8456.61 283.758 Q8433.28 312.6 8391.47 322.97 Q8438.79 333.989 8465.04 366.072 Q8491.61 398.155 8491.61 444.498 Q8491.61 514.821 8448.51 552.414 Q8405.73 590.006 8325.68 590.006 Q8245.64 590.006 8202.54 552.414 Q8159.76 514.821 8159.76 444.498 Q8159.76 398.155 8186.33 366.072 Q8212.91 333.989 8260.22 322.97 M8236.24 219.591 Q8236.24 257.184 8259.57 278.249 Q8283.23 299.313 8325.68 299.313 Q8367.81 299.313 8391.47 278.249 Q8415.45 257.184 8415.45 219.591 Q8415.45 181.999 8391.47 160.934 Q8367.81 139.87 8325.68 139.87 Q8283.23 139.87 8259.57 160.934 Q8236.24 181.999 8236.24 219.591 Z" fill="#000000" fill-rule="evenodd" fill-opacity="1" /><path clip-path="url(#clip6200)" d="M 0 0 M8569.39 498.294 L8637.77 498.294 L8637.77 554.034 L8584.62 657.737 L8542.81 657.737 L8569.39 554.034 L8569.39 498.294 Z" fill="#000000" fill-rule="evenodd" fill-opacity="1" /><path clip-path="url(#clip6200)" d="M 0 0 M8720.08 525.516 L8827.02 525.516 L8827.02 156.397 L8710.68 179.731 L8710.68 120.101 L8826.38 96.768 L8891.84 96.768 L8891.84 525.516 L8998.78 525.516 L8998.78 580.608 L8720.08 580.608 L8720.08 525.516 Z" fill="#000000" fill-rule="evenodd" fill-opacity="1" /><path clip-path="url(#clip6200)" d="M 0 0 M9209.75 139.87 Q9159.2 139.87 9133.6 189.777 Q9108.32 239.36 9108.32 339.174 Q9108.32 438.664 9133.6 488.571 Q9159.2 538.155 9209.75 538.155 Q9260.63 538.155 9285.91 488.571 Q9311.51 438.664 9311.51 339.174 Q9311.51 239.36 9285.91 189.777 Q9260.63 139.87 9209.75 139.87 M9209.75 88.018 Q9291.1 88.018 9333.87 152.508 Q9376.98 216.675 9376.98 339.174 Q9376.98 461.349 9333.87 525.84 Q9291.1 590.006 9209.75 590.006 Q9128.41 590.006 9085.31 525.84 Q9042.53 461.349 9042.53 339.174 Q9042.53 216.675 9085.31 152.508 Q9128.41 88.018 9209.75 88.018 Z" fill="#000000" fill-rule="evenodd" fill-opacity="1" /><path clip-path="url(#clip6200)" d="M 0 0 M9454.75 498.294 L9523.13 498.294 L9523.13 554.034 L9469.98 657.737 L9428.18 657.737 L9454.75 554.034 L9454.75 498.294 Z" fill="#000000" fill-rule="evenodd" fill-opacity="1" /><path clip-path="url(#clip6200)" d="M 0 0 M9605.45 525.516 L9712.39 525.516 L9712.39 156.397 L9596.05 179.731 L9596.05 120.101 L9711.74 96.768 L9777.2 96.768 L9777.2 525.516 L9884.15 525.516 L9884.15 580.608 L9605.45 580.608 L9605.45 525.516 Z" fill="#000000" fill-rule="evenodd" fill-opacity="1" /><path clip-path="url(#clip6200)" d="M 0 0 M10011.5 525.516 L10240 525.516 L10240 580.608 L9932.76 580.608 L9932.76 525.516 Q9970.03 486.951 10034.2 422.137 Q10098.7 356.998 10115.2 338.202 Q10146.6 302.878 10159 278.573 Q10171.6 253.943 10171.6 230.286 Q10171.6 191.721 10144.4 167.416 Q10117.5 143.11 10074.1 143.11 Q10043.3 143.11 10008.9 153.805 Q9974.89 164.499 9936 186.212 L9936 120.101 Q9975.54 104.222 10009.9 96.1199 Q10044.2 88.018 10072.8 88.018 Q10147.9 88.018 10192.7 125.61 Q10237.4 163.203 10237.4 226.073 Q10237.4 255.888 10226 282.786 Q10215 309.359 10185.5 345.656 Q10177.4 355.054 10134 400.1 Q10090.6 444.822 10011.5 525.516 Z" fill="#000000" fill-rule="evenodd" fill-opacity="1" /><path clip-path="url(#clip6200)" d="M 0 0 M10317.8 237.415 L10386.1 237.415 L10386.1 319.73 L10317.8 319.73 L10317.8 237.415 M10317.8 498.294 L10386.1 498.294 L10386.1 554.034 L10333 657.737 L10291.2 657.737 L10317.8 554.034 L10317.8 498.294 Z" fill="#000000" fill-rule="evenodd" fill-opacity="1" /><path clip-path="url(#clip6200)" d="M 0 0 M10858.6 141.166 Q10787.3 141.166 10745.2 194.314 Q10703.4 247.462 10703.4 339.174 Q10703.4 430.563 10745.2 483.71 Q10787.3 536.858 10858.6 536.858 Q10929.9 536.858 10971.4 483.71 Q11013.2 430.563 11013.2 339.174 Q11013.2 247.462 10971.4 194.314 Q10929.9 141.166 10858.6 141.166 M10950.3 571.858 L11036.5 666.163 L10957.5 666.163 L10885.9 588.71 Q10875.2 589.358 10869.3 589.682 Q10863.8 590.006 10858.6 590.006 Q10756.6 590.006 10695.3 521.951 Q10634.4 453.572 10634.4 339.174 Q10634.4 224.453 10695.3 156.397 Q10756.6 88.018 10858.6 88.018 Q10960.4 88.018 11021.3 156.397 Q11082.2 224.453 11082.2 339.174 Q11082.2 423.433 11048.2 483.386 Q11014.5 543.34 10950.3 571.858 Z" fill="#000000" fill-rule="evenodd" fill-opacity="1" /><path clip-path="url(#clip6200)" d="M 0 0 M11363.5 279.221 L11779 279.221 L11779 333.665 L11363.5 333.665 L11363.5 279.221 M11363.5 411.442 L11779 411.442 L11779 466.535 L11363.5 466.535 L11363.5 411.442 Z" fill="#000000" fill-rule="evenodd" fill-opacity="1" /><path clip-path="url(#clip6200)" d="M 0 0 M12072.3 525.516 L12179.2 525.516 L12179.2 156.397 L12062.9 179.731 L12062.9 120.101 L12178.6 96.768 L12244 96.768 L12244 525.516 L12351 525.516 L12351 580.608 L12072.3 580.608 L12072.3 525.516 Z" fill="#000000" fill-rule="evenodd" fill-opacity="1" /><path clip-path="url(#clip6200)" d="M 0 0 M12570.1 312.6 Q12526 312.6 12500.1 342.739 Q12474.5 372.878 12474.5 425.377 Q12474.5 477.553 12500.1 508.016 Q12526 538.155 12570.1 538.155 Q12614.1 538.155 12639.7 508.016 Q12665.7 477.553 12665.7 425.377 Q12665.7 372.878 12639.7 342.739 Q12614.1 312.6 12570.1 312.6 M12700 107.462 L12700 167.092 Q12675.4 155.425 12650.1 149.268 Q12625.2 143.11 12600.5 143.11 Q12535.7 143.11 12501.4 186.86 Q12467.3 230.61 12462.5 319.082 Q12481.6 290.887 12510.4 275.98 Q12539.3 260.749 12573.9 260.749 Q12646.9 260.749 12689 305.147 Q12731.4 349.22 12731.4 425.377 Q12731.4 499.914 12687.4 544.96 Q12643.3 590.006 12570.1 590.006 Q12486.1 590.006 12441.7 525.84 Q12397.3 461.349 12397.3 339.174 Q12397.3 224.453 12451.8 156.397 Q12506.2 88.018 12597.9 88.018 Q12622.6 88.018 12647.5 92.8791 Q12672.8 97.7402 12700 107.462 Z" fill="#000000" fill-rule="evenodd" fill-opacity="1" /><path clip-path="url(#clip6200)" d="M 0 0 M12809.2 237.415 L12877.6 237.415 L12877.6 319.73 L12809.2 319.73 L12809.2 237.415 M12809.2 498.294 L12877.6 498.294 L12877.6 554.034 L12824.5 657.737 L12782.7 657.737 L12809.2 554.034 L12809.2 498.294 Z" fill="#000000" fill-rule="evenodd" fill-opacity="1" /><path clip-path="url(#clip6200)" d="M 0 0 M13153.7 96.768 L13219.2 96.768 L13219.2 546.904 Q13219.2 634.404 13185.8 673.941 Q13152.7 713.478 13079.2 713.478 L13054.2 713.478 L13054.2 658.385 L13074.6 658.385 Q13118.1 658.385 13135.9 634.08 Q13153.7 609.775 13153.7 546.904 L13153.7 96.768 Z" fill="#000000" fill-rule="evenodd" fill-opacity="1" /><path clip-path="url(#clip6200)" d="M 0 0 M13557.5 690.793 L13557.5 737.135 L13212.7 737.135 L13212.7 690.793 L13557.5 690.793 Z" fill="#000000" fill-rule="evenodd" fill-opacity="1" /><path clip-path="url(#clip6200)" d="M 0 0 M13639.8 525.516 L13746.8 525.516 L13746.8 156.397 L13630.4 179.731 L13630.4 120.101 L13746.1 96.768 L13811.6 96.768 L13811.6 525.516 L13918.5 525.516 L13918.5 580.608 L13639.8 580.608 L13639.8 525.516 Z" fill="#000000" fill-rule="evenodd" fill-opacity="1" /><path clip-path="url(#clip6200)" d="M 0 0 M14199.8 279.221 L14615.3 279.221 L14615.3 333.665 L14199.8 333.665 L14199.8 279.221 M14199.8 411.442 L14615.3 411.442 L14615.3 466.535 L14199.8 466.535 L14199.8 411.442 Z" fill="#000000" fill-rule="evenodd" fill-opacity="1" /><path clip-path="url(#clip6200)" d="M 0 0 M14908.6 525.516 L15015.5 525.516 L15015.5 156.397 L14899.2 179.731 L14899.2 120.101 L15014.9 96.768 L15080.3 96.768 L15080.3 525.516 L15187.3 525.516 L15187.3 580.608 L14908.6 580.608 L14908.6 525.516 Z" fill="#000000" fill-rule="evenodd" fill-opacity="1" /><path clip-path="url(#clip6200)" d="M 0 0 M15258.2 498.294 L15326.6 498.294 L15326.6 580.608 L15258.2 580.608 L15258.2 498.294 Z" fill="#000000" fill-rule="evenodd" fill-opacity="1" /><path clip-path="url(#clip6200)" d="M 0 0 M15537.6 139.87 Q15487 139.87 15461.4 189.777 Q15436.2 239.36 15436.2 339.174 Q15436.2 438.664 15461.4 488.571 Q15487 538.155 15537.6 538.155 Q15588.5 538.155 15613.7 488.571 Q15639.3 438.664 15639.3 339.174 Q15639.3 239.36 15613.7 189.777 Q15588.5 139.87 15537.6 139.87 M15537.6 88.018 Q15618.9 88.018 15661.7 152.508 Q15704.8 216.675 15704.8 339.174 Q15704.8 461.349 15661.7 525.84 Q15618.9 590.006 15537.6 590.006 Q15456.2 590.006 15413.1 525.84 Q15370.4 461.349 15370.4 339.174 Q15370.4 216.675 15413.1 152.508 Q15456.2 88.018 15537.6 88.018 Z" fill="#000000" fill-rule="evenodd" fill-opacity="1" /><path clip-path="url(#clip6200)" d="M 0 0 M10866.4 12068.2 L11187.9 12068.2 L11187.9 12111.5 L11053 12111.5 L11053 12448.4 L11001.3 12448.4 L11001.3 12111.5 L10866.4 12111.5 L10866.4 12068.2 Z" fill="#000000" fill-rule="evenodd" fill-opacity="1" /><path clip-path="url(#clip6200)" d="M 0 0 M522.483 7641.94 L661.765 7641.94 L661.765 7559.44 Q661.765 7517.93 644.705 7498.07 Q627.39 7477.96 591.997 7477.96 Q556.349 7477.96 539.543 7498.07 Q522.483 7517.93 522.483 7559.44 L522.483 7641.94 M366.142 7641.94 L480.724 7641.94 L480.724 7565.8 Q480.724 7528.12 466.72 7509.78 Q452.461 7491.2 423.433 7491.2 Q394.66 7491.2 380.401 7509.78 Q366.142 7528.12 366.142 7565.8 L366.142 7641.94 M323.873 7693.37 L323.873 7561.98 Q323.873 7503.16 348.318 7471.33 Q372.762 7439.51 417.831 7439.51 Q452.715 7439.51 473.34 7455.8 Q493.965 7472.1 499.058 7503.67 Q507.206 7465.73 533.178 7444.85 Q558.895 7423.72 597.599 7423.72 Q648.524 7423.72 676.279 7458.35 Q704.033 7492.98 704.033 7556.89 L704.033 7693.37 L323.873 7693.37 Z" fill="#000000" fill-rule="evenodd" fill-opacity="1" /><path clip-path="url(#clip6200)" d="M 0 0 M418.85 7374.58 L418.85 7327.72 L704.033 7327.72 L704.033 7374.58 L418.85 7374.58 M307.832 7374.58 L307.832 7327.72 L367.16 7327.72 L367.16 7374.58 L307.832 7374.58 Z" fill="#000000" fill-rule="evenodd" fill-opacity="1" /><path clip-path="url(#clip6200)" d="M 0 0 M531.905 7041.52 L704.033 7041.52 L704.033 7088.37 L533.432 7088.37 Q492.946 7088.37 472.831 7104.16 Q452.715 7119.95 452.715 7151.52 Q452.715 7189.46 476.905 7211.36 Q501.095 7233.26 542.854 7233.26 L704.033 7233.26 L704.033 7280.36 L418.85 7280.36 L418.85 7233.26 L463.155 7233.26 Q437.437 7216.45 424.706 7193.79 Q411.975 7170.87 411.975 7141.08 Q411.975 7091.94 442.53 7066.73 Q472.831 7041.52 531.905 7041.52 Z" fill="#000000" fill-rule="evenodd" fill-opacity="1" /><path clip-path="url(#clip6200)" d="M 0 0 M462.136 6804.72 L307.832 6804.72 L307.832 6757.87 L704.033 6757.87 L704.033 6804.72 L661.256 6804.72 Q686.719 6819.49 699.195 6842.15 Q711.417 6864.56 711.417 6896.13 Q711.417 6947.82 670.168 6980.41 Q628.918 7012.75 561.696 7012.75 Q494.474 7012.75 453.224 6980.41 Q411.975 6947.82 411.975 6896.13 Q411.975 6864.56 424.451 6842.15 Q436.674 6819.49 462.136 6804.72 M561.696 6964.37 Q613.386 6964.37 642.922 6943.24 Q672.205 6921.85 672.205 6884.67 Q672.205 6847.5 642.922 6826.11 Q613.386 6804.72 561.696 6804.72 Q510.007 6804.72 480.724 6826.11 Q451.187 6847.5 451.187 6884.67 Q451.187 6921.85 480.724 6943.24 Q510.007 6964.37 561.696 6964.37 Z" fill="#000000" fill-rule="evenodd" fill-opacity="1" /><path clip-path="url(#clip6200)" d="M 0 0 M549.729 6464.79 L572.645 6464.79 L572.645 6680.2 Q621.024 6677.15 646.487 6651.18 Q671.695 6624.95 671.695 6578.35 Q671.695 6551.36 665.075 6526.15 Q658.455 6500.69 645.214 6475.74 L689.519 6475.74 Q700.214 6500.95 705.816 6527.43 Q711.417 6553.91 711.417 6581.15 Q711.417 6649.39 671.695 6689.37 Q631.973 6729.09 564.242 6729.09 Q494.22 6729.09 453.224 6691.41 Q411.975 6653.47 411.975 6589.3 Q411.975 6531.76 449.15 6498.4 Q486.071 6464.79 549.729 6464.79 M535.979 6511.64 Q497.53 6512.15 474.613 6533.28 Q451.697 6554.16 451.697 6588.79 Q451.697 6628.01 473.849 6651.69 Q496.002 6675.11 536.233 6678.68 L535.979 6511.64 Z" fill="#000000" fill-rule="evenodd" fill-opacity="1" /><path clip-path="url(#clip6200)" d="M 0 0 M462.646 6250.39 Q458.062 6258.29 456.025 6267.71 Q453.734 6276.87 453.734 6288.08 Q453.734 6327.8 479.706 6349.19 Q505.423 6370.32 553.803 6370.32 L704.033 6370.32 L704.033 6417.43 L418.85 6417.43 L418.85 6370.32 L463.155 6370.32 Q437.183 6355.55 424.706 6331.87 Q411.975 6308.19 411.975 6274.33 Q411.975 6269.49 412.739 6263.63 Q413.248 6257.78 414.521 6250.65 L462.646 6250.39 Z" fill="#000000" fill-rule="evenodd" fill-opacity="1" /><path clip-path="url(#clip6200)" d="M 0 0 M323.873 6156.94 L465.192 6156.94 L465.192 6200.23 L323.873 6200.23 L323.873 6156.94 Z" fill="#000000" fill-rule="evenodd" fill-opacity="1" /><path clip-path="url(#clip6200)" d="M 0 0 M427.252 5926 L471.558 5926 Q461.373 5945.86 456.28 5967.25 Q451.187 5988.63 451.187 6011.55 Q451.187 6046.44 461.882 6064 Q472.576 6081.32 493.965 6081.32 Q510.261 6081.32 519.682 6068.84 Q528.849 6056.37 537.252 6018.68 L540.817 6002.64 Q551.511 5952.73 571.117 5931.85 Q590.469 5910.72 625.353 5910.72 Q665.075 5910.72 688.246 5942.29 Q711.417 5973.61 711.417 6028.61 Q711.417 6051.53 706.834 6076.48 Q702.505 6101.18 693.594 6128.68 L645.214 6128.68 Q658.709 6102.71 665.584 6077.5 Q672.205 6052.29 672.205 6027.59 Q672.205 5994.49 661.001 5976.67 Q649.543 5958.84 628.918 5958.84 Q609.821 5958.84 599.636 5971.83 Q589.451 5984.56 580.029 6028.1 L576.21 6044.4 Q567.043 6087.94 548.201 6107.29 Q529.104 6126.64 496.002 6126.64 Q455.771 6126.64 433.873 6098.12 Q411.975 6069.61 411.975 6017.15 Q411.975 5991.18 415.794 5968.26 Q419.613 5945.35 427.252 5926 Z" fill="#000000" fill-rule="evenodd" fill-opacity="1" /><path clip-path="url(#clip6200)" d="M 0 0 M462.646 5530.56 Q458.062 5538.45 456.025 5547.87 Q453.734 5557.04 453.734 5568.24 Q453.734 5607.97 479.706 5629.35 Q505.423 5650.49 553.803 5650.49 L704.033 5650.49 L704.033 5697.59 L418.85 5697.59 L418.85 5650.49 L463.155 5650.49 Q437.183 5635.72 424.706 5612.04 Q411.975 5588.36 411.975 5554.49 Q411.975 5549.66 412.739 5543.8 Q413.248 5537.94 414.521 5530.81 L462.646 5530.56 Z" fill="#000000" fill-rule="evenodd" fill-opacity="1" /><path clip-path="url(#clip6200)" d="M 0 0 M560.678 5351.81 Q560.678 5408.59 573.664 5430.49 Q586.65 5452.39 617.969 5452.39 Q642.922 5452.39 657.691 5436.09 Q672.205 5419.54 672.205 5391.28 Q672.205 5352.32 644.705 5328.89 Q616.95 5305.21 571.117 5305.21 L560.678 5305.21 L560.678 5351.81 M541.326 5258.36 L704.033 5258.36 L704.033 5305.21 L660.746 5305.21 Q686.719 5321.25 699.195 5345.19 Q711.417 5369.12 711.417 5403.75 Q711.417 5447.55 686.973 5473.52 Q662.274 5499.24 621.024 5499.24 Q572.9 5499.24 548.455 5467.16 Q524.011 5434.82 524.011 5370.91 L524.011 5305.21 L519.428 5305.21 Q487.09 5305.21 469.521 5326.6 Q451.697 5347.74 451.697 5386.18 Q451.697 5410.63 457.553 5433.8 Q463.41 5456.97 475.122 5478.36 L431.836 5478.36 Q421.905 5452.64 417.067 5428.45 Q411.975 5404.26 411.975 5381.35 Q411.975 5319.47 444.058 5288.92 Q476.141 5258.36 541.326 5258.36 Z" fill="#000000" fill-rule="evenodd" fill-opacity="1" /><path clip-path="url(#clip6200)" d="M 0 0 M337.878 5162.87 L418.85 5162.87 L418.85 5066.37 L455.261 5066.37 L455.261 5162.87 L610.075 5162.87 Q644.96 5162.87 654.89 5153.45 Q664.821 5143.78 664.821 5114.5 L664.821 5066.37 L704.033 5066.37 L704.033 5114.5 Q704.033 5168.73 683.918 5189.36 Q663.547 5209.98 610.075 5209.98 L455.261 5209.98 L455.261 5244.36 L418.85 5244.36 L418.85 5209.98 L337.878 5209.98 L337.878 5162.87 Z" fill="#000000" fill-rule="evenodd" fill-opacity="1" /><path clip-path="url(#clip6200)" d="M 0 0 M418.85 5017.23 L418.85 4970.38 L704.033 4970.38 L704.033 5017.23 L418.85 5017.23 M307.832 5017.23 L307.832 4970.38 L367.16 4970.38 L367.16 5017.23 L307.832 5017.23 Z" fill="#000000" fill-rule="evenodd" fill-opacity="1" /><path clip-path="url(#clip6200)" d="M 0 0 M451.697 4810.72 Q451.697 4848.41 481.234 4870.31 Q510.516 4892.21 561.696 4892.21 Q612.876 4892.21 642.413 4870.56 Q671.695 4848.66 671.695 4810.72 Q671.695 4773.29 642.159 4751.4 Q612.622 4729.5 561.696 4729.5 Q511.025 4729.5 481.488 4751.4 Q451.697 4773.29 451.697 4810.72 M411.975 4810.72 Q411.975 4749.61 451.697 4714.73 Q491.419 4679.85 561.696 4679.85 Q631.719 4679.85 671.695 4714.73 Q711.417 4749.61 711.417 4810.72 Q711.417 4872.09 671.695 4906.97 Q631.719 4941.6 561.696 4941.6 Q491.419 4941.6 451.697 4906.97 Q411.975 4872.09 411.975 4810.72 Z" fill="#000000" fill-rule="evenodd" fill-opacity="1" /><polyline clip-path="url(#clip6202)" style="stroke:#009af9; stroke-width:32; stroke-opacity:1; fill:none" points="
  3673.48,2587.79 3973.63,2183.76 4273.78,2678.08 4573.93,4254.04 4874.08,3525.49 5174.23,3626.88 5474.38,3973.58 5774.53,3586.79 6074.68,3598.03 6374.83,4013.82 
  6674.98,4359.39 6975.13,4027.63 7275.28,3278.58 7575.43,3592.33 7875.58,4701.16 8175.73,5683.05 8475.88,4713.34 8776.03,3576.96 9076.18,3954.43 9376.33,6534.19 
  9676.48,5530.93 9976.63,5392.96 10276.8,4759.72 10576.9,5605.81 10877.1,4434.96 11177.2,6061.72 11477.4,4838.07 11777.5,6691.22 12077.7,5599.88 12377.8,6900.31 
  12678,4667.13 12978.1,6699.03 13278.3,7181.48 13578.4,7955.2 13878.6,6343.86 14178.7,8352.46 14478.9,8564.34 14779,8579.12 15079.2,10546.6 15379.3,7914.11 
  15679.5,9293.44 15979.6,6910.45 16279.8,9857.42 16579.9,8023.19 16880.1,9720.94 17180.2,8720.95 17480.4,11091.2 17780.5,9098.38 18080.7,9292.97 18380.8,8676.69 
  
  "/>
<polyline clip-path="url(#clip6202)" style="stroke:#e26f46; stroke-width:32; stroke-opacity:1; fill:none" points="
  3673.48,1711.31 3973.63,1282.05 4273.78,1734.69 4573.93,1972.62 4874.08,1935.93 5174.23,2317.8 5474.38,1961.16 5774.53,1845.53 6074.68,1871.39 6374.83,3455.35 
  6674.98,1991.43 6975.13,2892.84 7275.28,2677.13 7575.43,1629.56 7875.58,3364.12 8175.73,3610.55 8475.88,2506.35 8776.03,3235.93 9076.18,2886.6 9376.33,2673.14 
  9676.48,3808.3 9976.63,4018.63 10276.8,4517.65 10576.9,4259.2 10877.1,3988.35 11177.2,3376.91 11477.4,4823.25 11777.5,4175.72 12077.7,4983.25 12377.8,4938.98 
  12678,5283.99 12978.1,5249.26 13278.3,4634.16 13578.4,5086.57 13878.6,5144.42 14178.7,6914.68 14478.9,5817.68 14779,5132.08 15079.2,5254.23 15379.3,5560.37 
  15679.5,5379.46 15979.6,7315.9 16279.8,6666.97 16579.9,7019.76 16880.1,7037.45 17180.2,5891.88 17480.4,6922.3 17780.5,5951.1 18080.7,7933.06 18380.8,7268.79 
  
  "/>
<polyline clip-path="url(#clip6202)" style="stroke:#3da44d; stroke-width:32; stroke-opacity:1; fill:none" points="
  3673.48,2694.08 3973.63,2268.46 4273.78,2681.99 4573.93,3037.93 4874.08,2903.82 5174.23,3066.7 5474.38,2836.86 5774.53,3373 6074.68,3091.29 6374.83,3496.73 
  6674.98,3950.5 6975.13,4520.7 7275.28,3433.27 7575.43,2566.46 7875.58,3709.13 8175.73,4376.11 8475.88,4123.94 8776.03,4397.88 9076.18,5211.87 9376.33,4943.6 
  9676.48,5837.63 9976.63,3767.14 10276.8,5488.97 10576.9,6250.66 10877.1,5555.45 11177.2,5568.01 11477.4,5787.57 11777.5,5515.27 12077.7,6186.06 12377.8,5990.05 
  12678,5639.18 12978.1,6608.98 13278.3,6273.3 13578.4,6063.18 13878.6,6132.38 14178.7,6918.17 14478.9,6529.98 14779,6168.46 15079.2,6385.65 15379.3,6379.8 
  15679.5,7123.7 15979.6,7170.33 16279.8,7351.21 16579.9,7753.15 16880.1,7373.87 17180.2,7352.55 17480.4,7817.71 17780.5,9032.06 18080.7,8851.64 18380.8,8474.43 
  
  "/>
<path clip-path="url(#clip6200)" d="
M3808.26 10233.4 L6841.4 10233.4 L6841.4 8298.08 L3808.26 8298.08  Z
  " fill="#ffffff" fill-rule="evenodd" fill-opacity="1"/>
<polyline clip-path="url(#clip6200)" style="stroke:#000000; stroke-width:32; stroke-opacity:1; fill:none" points="
  3808.26,10233.4 6841.4,10233.4 6841.4,8298.08 3808.26,8298.08 3808.26,10233.4 
  "/>
<polyline clip-path="url(#clip6200)" style="stroke:#009af9; stroke-width:32; stroke-opacity:1; fill:none" points="
  4000.26,8781.92 5152.26,8781.92 
  "/>
<path clip-path="url(#clip6200)" d="M 0 0 M5344.26 8643.68 L5381.66 8643.68 L5381.66 8888.68 L5516.29 8888.68 L5516.29 8920.16 L5344.26 8920.16 L5344.26 8643.68 Z" fill="#000000" fill-rule="evenodd" fill-opacity="1" /><path clip-path="url(#clip6200)" d="M 0 0 M5677.03 8747.94 L5914.44 8747.94 L5914.44 8779.05 L5677.03 8779.05 L5677.03 8747.94 M5677.03 8823.49 L5914.44 8823.49 L5914.44 8854.97 L5677.03 8854.97 L5677.03 8823.49 Z" fill="#000000" fill-rule="evenodd" fill-opacity="1" /><path clip-path="url(#clip6200)" d="M 0 0 M6160.18 8767.01 Q6134.99 8767.01 6120.18 8784.23 Q6105.55 8801.46 6105.55 8831.46 Q6105.55 8861.27 6120.18 8878.68 Q6134.99 8895.9 6160.18 8895.9 Q6185.36 8895.9 6199.99 8878.68 Q6214.81 8861.27 6214.81 8831.46 Q6214.81 8801.46 6199.99 8784.23 Q6185.36 8767.01 6160.18 8767.01 M6234.44 8649.79 L6234.44 8683.86 Q6220.36 8677.2 6205.92 8673.68 Q6191.66 8670.16 6177.58 8670.16 Q6140.55 8670.16 6120.92 8695.16 Q6101.47 8720.16 6098.7 8770.72 Q6109.62 8754.6 6126.1 8746.09 Q6142.58 8737.38 6162.4 8737.38 Q6204.07 8737.38 6228.14 8762.75 Q6252.4 8787.94 6252.4 8831.46 Q6252.4 8874.05 6227.21 8899.79 Q6202.03 8925.53 6160.18 8925.53 Q6112.21 8925.53 6086.84 8888.86 Q6061.47 8852.01 6061.47 8782.2 Q6061.47 8716.64 6092.58 8677.75 Q6123.7 8638.68 6176.1 8638.68 Q6190.18 8638.68 6204.44 8641.46 Q6218.88 8644.23 6234.44 8649.79 Z" fill="#000000" fill-rule="evenodd" fill-opacity="1" /><polyline clip-path="url(#clip6200)" style="stroke:#e26f46; stroke-width:32; stroke-opacity:1; fill:none" points="
  4000.26,9265.76 5152.26,9265.76 
  "/>
<path clip-path="url(#clip6200)" d="M 0 0 M5344.26 9127.52 L5381.66 9127.52 L5381.66 9372.52 L5516.29 9372.52 L5516.29 9404 L5344.26 9404 L5344.26 9127.52 Z" fill="#000000" fill-rule="evenodd" fill-opacity="1" /><path clip-path="url(#clip6200)" d="M 0 0 M5677.03 9231.78 L5914.44 9231.78 L5914.44 9262.89 L5677.03 9262.89 L5677.03 9231.78 M5677.03 9307.33 L5914.44 9307.33 L5914.44 9338.81 L5677.03 9338.81 L5677.03 9307.33 Z" fill="#000000" fill-rule="evenodd" fill-opacity="1" /><path clip-path="url(#clip6200)" d="M 0 0 M6155.55 9272.7 Q6128.88 9272.7 6113.51 9286.96 Q6098.33 9301.22 6098.33 9326.22 Q6098.33 9351.22 6113.51 9365.48 Q6128.88 9379.74 6155.55 9379.74 Q6182.21 9379.74 6197.58 9365.48 Q6212.95 9351.04 6212.95 9326.22 Q6212.95 9301.22 6197.58 9286.96 Q6182.4 9272.7 6155.55 9272.7 M6118.14 9256.78 Q6094.07 9250.85 6080.55 9234.37 Q6067.21 9217.89 6067.21 9194.19 Q6067.21 9161.04 6090.73 9141.78 Q6114.44 9122.52 6155.55 9122.52 Q6196.84 9122.52 6220.36 9141.78 Q6243.88 9161.04 6243.88 9194.19 Q6243.88 9217.89 6230.36 9234.37 Q6217.03 9250.85 6193.14 9256.78 Q6220.18 9263.07 6235.18 9281.41 Q6250.36 9299.74 6250.36 9326.22 Q6250.36 9366.41 6225.73 9387.89 Q6201.29 9409.37 6155.55 9409.37 Q6109.81 9409.37 6085.18 9387.89 Q6060.73 9366.41 6060.73 9326.22 Q6060.73 9299.74 6075.92 9281.41 Q6091.1 9263.07 6118.14 9256.78 M6104.44 9197.7 Q6104.44 9219.18 6117.77 9231.22 Q6131.29 9243.26 6155.55 9243.26 Q6179.62 9243.26 6193.14 9231.22 Q6206.84 9219.18 6206.84 9197.7 Q6206.84 9176.22 6193.14 9164.19 Q6179.62 9152.15 6155.55 9152.15 Q6131.29 9152.15 6117.77 9164.19 Q6104.44 9176.22 6104.44 9197.7 Z" fill="#000000" fill-rule="evenodd" fill-opacity="1" /><polyline clip-path="url(#clip6200)" style="stroke:#3da44d; stroke-width:32; stroke-opacity:1; fill:none" points="
  4000.26,9749.6 5152.26,9749.6 
  "/>
<path clip-path="url(#clip6200)" d="M 0 0 M5344.26 9611.36 L5381.66 9611.36 L5381.66 9856.36 L5516.29 9856.36 L5516.29 9887.84 L5344.26 9887.84 L5344.26 9611.36 Z" fill="#000000" fill-rule="evenodd" fill-opacity="1" /><path clip-path="url(#clip6200)" d="M 0 0 M5677.03 9715.62 L5914.44 9715.62 L5914.44 9746.73 L5677.03 9746.73 L5677.03 9715.62 M5677.03 9791.17 L5914.44 9791.17 L5914.44 9822.65 L5677.03 9822.65 L5677.03 9791.17 Z" fill="#000000" fill-rule="evenodd" fill-opacity="1" /><path clip-path="url(#clip6200)" d="M 0 0 M6082.03 9856.36 L6143.14 9856.36 L6143.14 9645.43 L6076.66 9658.77 L6076.66 9624.69 L6142.77 9611.36 L6180.18 9611.36 L6180.18 9856.36 L6241.29 9856.36 L6241.29 9887.84 L6082.03 9887.84 L6082.03 9856.36 Z" fill="#000000" fill-rule="evenodd" fill-opacity="1" /><path clip-path="url(#clip6200)" d="M 0 0 M6361.84 9635.99 Q6332.95 9635.99 6318.32 9664.51 Q6303.88 9692.84 6303.88 9749.88 Q6303.88 9806.73 6318.32 9835.25 Q6332.95 9863.58 6361.84 9863.58 Q6390.92 9863.58 6405.36 9835.25 Q6419.99 9806.73 6419.99 9749.88 Q6419.99 9692.84 6405.36 9664.51 Q6390.92 9635.99 6361.84 9635.99 M6361.84 9606.36 Q6408.32 9606.36 6432.77 9643.21 Q6457.4 9679.88 6457.4 9749.88 Q6457.4 9819.69 6432.77 9856.54 Q6408.32 9893.21 6361.84 9893.21 Q6315.36 9893.21 6290.73 9856.54 Q6266.29 9819.69 6266.29 9749.88 Q6266.29 9679.88 6290.73 9643.21 Q6315.36 9606.36 6361.84 9606.36 Z" fill="#000000" fill-rule="evenodd" fill-opacity="1" /></svg>
