<?xml version="1.0" encoding="utf-8"?>
<svg xmlns="http://www.w3.org/2000/svg" xmlns:xlink="http://www.w3.org/1999/xlink" width="4800" height="3200" viewBox="0 0 19200 12800">
<defs>
  <clipPath id="clip9200">
    <rect x="0" y="0" width="19200" height="12800"/>
  </clipPath>
</defs>
<path clip-path="url(#clip9200)" d="
M0 12800 L19200 12800 L19200 0 L0 0  Z
  " fill="#ffffff" fill-rule="evenodd" fill-opacity="1"/>
<defs>
  <clipPath id="clip9201">
    <rect x="3840" y="0" width="13441" height="12800"/>
  </clipPath>
</defs>
<path clip-path="url(#clip9200)" d="
M1908.93 11385.4 L18822 11385.4 L18822 987.777 L1908.93 987.777  Z
  " fill="#ffffff" fill-rule="evenodd" fill-opacity="1"/>
<defs>
  <clipPath id="clip9202">
    <rect x="1908" y="987" width="16914" height="10399"/>
  </clipPath>
</defs>
<polyline clip-path="url(#clip9202)" style="stroke:#000000; stroke-width:16; stroke-opacity:0.1; fill:none" points="
  2387.6,11385.4 2387.6,987.777 
  "/>
<polyline clip-path="url(#clip9202)" style="stroke:#000000; stroke-width:16; stroke-opacity:0.1; fill:none" points="
  6376.55,11385.4 6376.55,987.777 
  "/>
<polyline clip-path="url(#clip9202)" style="stroke:#000000; stroke-width:16; stroke-opacity:0.1; fill:none" points="
  10365.5,11385.4 10365.5,987.777 
  "/>
<polyline clip-path="url(#clip9202)" style="stroke:#000000; stroke-width:16; stroke-opacity:0.1; fill:none" points="
  14354.4,11385.4 14354.4,987.777 
  "/>
<polyline clip-path="url(#clip9202)" style="stroke:#000000; stroke-width:16; stroke-opacity:0.1; fill:none" points="
  18343.4,11385.4 18343.4,987.777 
  "/>
<polyline clip-path="url(#clip9202)" style="stroke:#000000; stroke-width:16; stroke-opacity:0.1; fill:none" points="
  1908.93,10864.4 18822,10864.4 
  "/>
<polyline clip-path="url(#clip9202)" style="stroke:#000000; stroke-width:16; stroke-opacity:0.1; fill:none" points="
  1908.93,9067.72 18822,9067.72 
  "/>
<polyline clip-path="url(#clip9202)" style="stroke:#000000; stroke-width:16; stroke-opacity:0.1; fill:none" points="
  1908.93,7271.03 18822,7271.03 
  "/>
<polyline clip-path="url(#clip9202)" style="stroke:#000000; stroke-width:16; stroke-opacity:0.1; fill:none" points="
  1908.93,5474.33 18822,5474.33 
  "/>
<polyline clip-path="url(#clip9202)" style="stroke:#000000; stroke-width:16; stroke-opacity:0.1; fill:none" points="
  1908.93,3677.64 18822,3677.64 
  "/>
<polyline clip-path="url(#clip9202)" style="stroke:#000000; stroke-width:16; stroke-opacity:0.1; fill:none" points="
  1908.93,1880.95 18822,1880.95 
  "/>
<polyline clip-path="url(#clip9200)" style="stroke:#000000; stroke-width:32; stroke-opacity:1; fill:none" points="
  1908.93,11385.4 18822,11385.4 
  "/>
<polyline clip-path="url(#clip9200)" style="stroke:#000000; stroke-width:32; stroke-opacity:1; fill:none" points="
  1908.93,11385.4 1908.93,987.777 
  "/>
<polyline clip-path="url(#clip9200)" style="stroke:#000000; stroke-width:32; stroke-opacity:1; fill:none" points="
  2387.6,11385.4 2387.6,11260.7 
  "/>
<polyline clip-path="url(#clip9200)" style="stroke:#000000; stroke-width:32; stroke-opacity:1; fill:none" points="
  6376.55,11385.4 6376.55,11260.7 
  "/>
<polyline clip-path="url(#clip9200)" style="stroke:#000000; stroke-width:32; stroke-opacity:1; fill:none" points="
  10365.5,11385.4 10365.5,11260.7 
  "/>
<polyline clip-path="url(#clip9200)" style="stroke:#000000; stroke-width:32; stroke-opacity:1; fill:none" points="
  14354.4,11385.4 14354.4,11260.7 
  "/>
<polyline clip-path="url(#clip9200)" style="stroke:#000000; stroke-width:32; stroke-opacity:1; fill:none" points="
  18343.4,11385.4 18343.4,11260.7 
  "/>
<polyline clip-path="url(#clip9200)" style="stroke:#000000; stroke-width:32; stroke-opacity:1; fill:none" points="
  1908.93,10864.4 2111.89,10864.4 
  "/>
<polyline clip-path="url(#clip9200)" style="stroke:#000000; stroke-width:32; stroke-opacity:1; fill:none" points="
  1908.93,9067.72 2111.89,9067.72 
  "/>
<polyline clip-path="url(#clip9200)" style="stroke:#000000; stroke-width:32; stroke-opacity:1; fill:none" points="
  1908.93,7271.03 2111.89,7271.03 
  "/>
<polyline clip-path="url(#clip9200)" style="stroke:#000000; stroke-width:32; stroke-opacity:1; fill:none" points="
  1908.93,5474.33 2111.89,5474.33 
  "/>
<polyline clip-path="url(#clip9200)" style="stroke:#000000; stroke-width:32; stroke-opacity:1; fill:none" points="
  1908.93,3677.64 2111.89,3677.64 
  "/>
<polyline clip-path="url(#clip9200)" style="stroke:#000000; stroke-width:32; stroke-opacity:1; fill:none" points="
  1908.93,1880.95 2111.89,1880.95 
  "/>
<path clip-path="url(#clip9200)" d="M 0 0 M2242.33 11561.4 Q2213.44 11561.4 2198.81 11589.9 Q2184.36 11618.2 2184.36 11675.3 Q2184.36 11732.1 2198.81 11760.6 Q2213.44 11789 2242.33 11789 Q2271.4 11789 2285.84 11760.6 Q2300.47 11732.1 2300.47 11675.3 Q2300.47 11618.2 2285.84 11589.9 Q2271.4 11561.4 2242.33 11561.4 M2242.33 11531.7 Q2288.81 11531.7 2313.25 11568.6 Q2337.88 11605.3 2337.88 11675.3 Q2337.88 11745.1 2313.25 11781.9 Q2288.81 11818.6 2242.33 11818.6 Q2195.84 11818.6 2171.21 11781.9 Q2146.77 11745.1 2146.77 11675.3 Q2146.77 11605.3 2171.21 11568.6 Q2195.84 11531.7 2242.33 11531.7 Z" fill="#000000" fill-rule="evenodd" fill-opacity="1" /><path clip-path="url(#clip9200)" d="M 0 0 M2378.44 11766.2 L2417.51 11766.2 L2417.51 11813.2 L2378.44 11813.2 L2378.44 11766.2 Z" fill="#000000" fill-rule="evenodd" fill-opacity="1" /><path clip-path="url(#clip9200)" d="M 0 0 M2571.4 11664.1 Q2598.25 11669.9 2613.25 11688 Q2628.43 11706.2 2628.43 11732.8 Q2628.43 11773.8 2600.29 11796.2 Q2572.14 11818.6 2520.29 11818.6 Q2502.88 11818.6 2484.36 11815.1 Q2466.03 11811.7 2446.4 11804.9 L2446.4 11768.8 Q2461.95 11777.8 2480.47 11782.5 Q2498.99 11787.1 2519.18 11787.1 Q2554.36 11787.1 2572.69 11773.2 Q2591.21 11759.3 2591.21 11732.8 Q2591.21 11708.4 2573.99 11694.7 Q2556.95 11680.8 2526.4 11680.8 L2494.18 11680.8 L2494.18 11650.1 L2527.88 11650.1 Q2555.47 11650.1 2570.1 11639.1 Q2584.73 11628 2584.73 11607.3 Q2584.73 11586 2569.55 11574.7 Q2554.55 11563.2 2526.4 11563.2 Q2511.03 11563.2 2493.44 11566.5 Q2475.84 11569.9 2454.73 11576.9 L2454.73 11543.6 Q2476.03 11537.7 2494.55 11534.7 Q2513.25 11531.7 2529.73 11531.7 Q2572.32 11531.7 2597.14 11551.2 Q2621.95 11570.4 2621.95 11603.4 Q2621.95 11626.4 2608.8 11642.3 Q2595.66 11658 2571.4 11664.1 Z" fill="#000000" fill-rule="evenodd" fill-opacity="1" /><path clip-path="url(#clip9200)" d="M 0 0 M6226.73 11561.4 Q6197.84 11561.4 6183.21 11589.9 Q6168.77 11618.2 6168.77 11675.3 Q6168.77 11732.1 6183.21 11760.6 Q6197.84 11789 6226.73 11789 Q6255.81 11789 6270.25 11760.6 Q6284.88 11732.1 6284.88 11675.3 Q6284.88 11618.2 6270.25 11589.9 Q6255.81 11561.4 6226.73 11561.4 M6226.73 11531.7 Q6273.21 11531.7 6297.66 11568.6 Q6322.29 11605.3 6322.29 11675.3 Q6322.29 11745.1 6297.66 11781.9 Q6273.21 11818.6 6226.73 11818.6 Q6180.25 11818.6 6155.62 11781.9 Q6131.18 11745.1 6131.18 11675.3 Q6131.18 11605.3 6155.62 11568.6 Q6180.25 11531.7 6226.73 11531.7 Z" fill="#000000" fill-rule="evenodd" fill-opacity="1" /><path clip-path="url(#clip9200)" d="M 0 0 M6362.84 11766.2 L6401.92 11766.2 L6401.92 11813.2 L6362.84 11813.2 L6362.84 11766.2 Z" fill="#000000" fill-rule="evenodd" fill-opacity="1" /><path clip-path="url(#clip9200)" d="M 0 0 M6545.25 11569.3 L6450.8 11716.9 L6545.25 11716.9 L6545.25 11569.3 M6535.43 11536.7 L6582.47 11536.7 L6582.47 11716.9 L6621.91 11716.9 L6621.91 11748 L6582.47 11748 L6582.47 11813.2 L6545.25 11813.2 L6545.25 11748 L6420.43 11748 L6420.43 11711.9 L6535.43 11536.7 Z" fill="#000000" fill-rule="evenodd" fill-opacity="1" /><path clip-path="url(#clip9200)" d="M 0 0 M10221.6 11561.4 Q10192.7 11561.4 10178.1 11589.9 Q10163.6 11618.2 10163.6 11675.3 Q10163.6 11732.1 10178.1 11760.6 Q10192.7 11789 10221.6 11789 Q10250.7 11789 10265.1 11760.6 Q10279.7 11732.1 10279.7 11675.3 Q10279.7 11618.2 10265.1 11589.9 Q10250.7 11561.4 10221.6 11561.4 M10221.6 11531.7 Q10268.1 11531.7 10292.5 11568.6 Q10317.2 11605.3 10317.2 11675.3 Q10317.2 11745.1 10292.5 11781.9 Q10268.1 11818.6 10221.6 11818.6 Q10175.1 11818.6 10150.5 11781.9 Q10126 11745.1 10126 11675.3 Q10126 11605.3 10150.5 11568.6 Q10175.1 11531.7 10221.6 11531.7 Z" fill="#000000" fill-rule="evenodd" fill-opacity="1" /><path clip-path="url(#clip9200)" d="M 0 0 M10357.7 11766.2 L10396.8 11766.2 L10396.8 11813.2 L10357.7 11813.2 L10357.7 11766.2 Z" fill="#000000" fill-rule="evenodd" fill-opacity="1" /><path clip-path="url(#clip9200)" d="M 0 0 M10437.7 11536.7 L10584.6 11536.7 L10584.6 11568.2 L10472 11568.2 L10472 11636 Q10480.1 11633.2 10488.3 11631.9 Q10496.4 11630.4 10504.6 11630.4 Q10550.9 11630.4 10577.9 11655.8 Q10604.9 11681.2 10604.9 11724.5 Q10604.9 11769.1 10577.2 11794 Q10549.4 11818.6 10498.8 11818.6 Q10481.4 11818.6 10463.3 11815.6 Q10445.3 11812.7 10426 11806.7 L10426 11769.1 Q10442.7 11778.2 10460.5 11782.7 Q10478.3 11787.1 10498.1 11787.1 Q10530.1 11787.1 10548.8 11770.3 Q10567.5 11753.4 10567.5 11724.5 Q10567.5 11695.6 10548.8 11678.8 Q10530.1 11661.9 10498.1 11661.9 Q10483.1 11661.9 10468.1 11665.3 Q10453.3 11668.6 10437.7 11675.6 L10437.7 11536.7 Z" fill="#000000" fill-rule="evenodd" fill-opacity="1" /><path clip-path="url(#clip9200)" d="M 0 0 M14205.9 11561.4 Q14177 11561.4 14162.4 11589.9 Q14148 11618.2 14148 11675.3 Q14148 11732.1 14162.4 11760.6 Q14177 11789 14205.9 11789 Q14235 11789 14249.4 11760.6 Q14264.1 11732.1 14264.1 11675.3 Q14264.1 11618.2 14249.4 11589.9 Q14235 11561.4 14205.9 11561.4 M14205.9 11531.7 Q14252.4 11531.7 14276.8 11568.6 Q14301.5 11605.3 14301.5 11675.3 Q14301.5 11745.1 14276.8 11781.9 Q14252.4 11818.6 14205.9 11818.6 Q14159.4 11818.6 14134.8 11781.9 Q14110.4 11745.1 14110.4 11675.3 Q14110.4 11605.3 14134.8 11568.6 Q14159.4 11531.7 14205.9 11531.7 Z" fill="#000000" fill-rule="evenodd" fill-opacity="1" /><path clip-path="url(#clip9200)" d="M 0 0 M14342 11766.2 L14381.1 11766.2 L14381.1 11813.2 L14342 11813.2 L14342 11766.2 Z" fill="#000000" fill-rule="evenodd" fill-opacity="1" /><path clip-path="url(#clip9200)" d="M 0 0 M14506.3 11660.1 Q14481.1 11660.1 14466.3 11677.3 Q14451.7 11694.5 14451.7 11724.5 Q14451.7 11754.3 14466.3 11771.7 Q14481.1 11789 14506.3 11789 Q14531.5 11789 14546.1 11771.7 Q14560.9 11754.3 14560.9 11724.5 Q14560.9 11694.5 14546.1 11677.3 Q14531.5 11660.1 14506.3 11660.1 M14580.5 11542.8 L14580.5 11576.9 Q14566.5 11570.3 14552 11566.7 Q14537.8 11563.2 14523.7 11563.2 Q14486.7 11563.2 14467 11588.2 Q14447.6 11613.2 14444.8 11663.8 Q14455.7 11647.7 14472.2 11639.1 Q14488.7 11630.4 14508.5 11630.4 Q14550.2 11630.4 14574.2 11655.8 Q14598.5 11681 14598.5 11724.5 Q14598.5 11767.1 14573.3 11792.8 Q14548.1 11818.6 14506.3 11818.6 Q14458.3 11818.6 14432.9 11781.9 Q14407.6 11745.1 14407.6 11675.3 Q14407.6 11609.7 14438.7 11570.8 Q14469.8 11531.7 14522.2 11531.7 Q14536.3 11531.7 14550.5 11534.5 Q14565 11537.3 14580.5 11542.8 Z" fill="#000000" fill-rule="evenodd" fill-opacity="1" /><path clip-path="url(#clip9200)" d="M 0 0 M18199.1 11561.4 Q18170.2 11561.4 18155.6 11589.9 Q18141.2 11618.2 18141.2 11675.3 Q18141.2 11732.1 18155.6 11760.6 Q18170.2 11789 18199.1 11789 Q18228.2 11789 18242.6 11760.6 Q18257.3 11732.1 18257.3 11675.3 Q18257.3 11618.2 18242.6 11589.9 Q18228.2 11561.4 18199.1 11561.4 M18199.1 11531.7 Q18245.6 11531.7 18270 11568.6 Q18294.7 11605.3 18294.7 11675.3 Q18294.7 11745.1 18270 11781.9 Q18245.6 11818.6 18199.1 11818.6 Q18152.6 11818.6 18128 11781.9 Q18103.6 11745.1 18103.6 11675.3 Q18103.6 11605.3 18128 11568.6 Q18152.6 11531.7 18199.1 11531.7 Z" fill="#000000" fill-rule="evenodd" fill-opacity="1" /><path clip-path="url(#clip9200)" d="M 0 0 M18335.2 11766.2 L18374.3 11766.2 L18374.3 11813.2 L18335.2 11813.2 L18335.2 11766.2 Z" fill="#000000" fill-rule="evenodd" fill-opacity="1" /><path clip-path="url(#clip9200)" d="M 0 0 M18405.4 11536.7 L18583.2 11536.7 L18583.2 11552.7 L18482.8 11813.2 L18443.7 11813.2 L18538.2 11568.2 L18405.4 11568.2 L18405.4 11536.7 Z" fill="#000000" fill-rule="evenodd" fill-opacity="1" /><path clip-path="url(#clip9200)" d="M 0 0 M1105.64 10750.8 Q1076.75 10750.8 1062.12 10779.3 Q1047.67 10807.7 1047.67 10864.7 Q1047.67 10921.5 1062.12 10950.1 Q1076.75 10978.4 1105.64 10978.4 Q1134.71 10978.4 1149.15 10950.1 Q1163.78 10921.5 1163.78 10864.7 Q1163.78 10807.7 1149.15 10779.3 Q1134.71 10750.8 1105.64 10750.8 M1105.64 10721.2 Q1152.12 10721.2 1176.56 10758 Q1201.19 10794.7 1201.19 10864.7 Q1201.19 10934.5 1176.56 10971.4 Q1152.12 11008 1105.64 11008 Q1059.16 11008 1034.53 10971.4 Q1010.08 10934.5 1010.08 10864.7 Q1010.08 10794.7 1034.53 10758 Q1059.16 10721.2 1105.64 10721.2 Z" fill="#000000" fill-rule="evenodd" fill-opacity="1" /><path clip-path="url(#clip9200)" d="M 0 0 M1241.75 10955.6 L1280.82 10955.6 L1280.82 11002.7 L1241.75 11002.7 L1241.75 10955.6 Z" fill="#000000" fill-rule="evenodd" fill-opacity="1" /><path clip-path="url(#clip9200)" d="M 0 0 M1424.15 10758.8 L1329.71 10906.4 L1424.15 10906.4 L1424.15 10758.8 M1414.34 10726.2 L1461.38 10726.2 L1461.38 10906.4 L1500.82 10906.4 L1500.82 10937.5 L1461.38 10937.5 L1461.38 11002.7 L1424.15 11002.7 L1424.15 10937.5 L1299.34 10937.5 L1299.34 10901.4 L1414.34 10726.2 Z" fill="#000000" fill-rule="evenodd" fill-opacity="1" /><path clip-path="url(#clip9200)" d="M 0 0 M1621.37 10750.8 Q1592.49 10750.8 1577.86 10779.3 Q1563.41 10807.7 1563.41 10864.7 Q1563.41 10921.5 1577.86 10950.1 Q1592.49 10978.4 1621.37 10978.4 Q1650.45 10978.4 1664.89 10950.1 Q1679.52 10921.5 1679.52 10864.7 Q1679.52 10807.7 1664.89 10779.3 Q1650.45 10750.8 1621.37 10750.8 M1621.37 10721.2 Q1667.86 10721.2 1692.3 10758 Q1716.93 10794.7 1716.93 10864.7 Q1716.93 10934.5 1692.3 10971.4 Q1667.86 11008 1621.37 11008 Q1574.89 11008 1550.26 10971.4 Q1525.82 10934.5 1525.82 10864.7 Q1525.82 10794.7 1550.26 10758 Q1574.89 10721.2 1621.37 10721.2 Z" fill="#000000" fill-rule="evenodd" fill-opacity="1" /><path clip-path="url(#clip9200)" d="M 0 0 M1113.6 8954.11 Q1084.71 8954.11 1070.08 8982.63 Q1055.64 9010.96 1055.64 9068 Q1055.64 9124.85 1070.08 9153.37 Q1084.71 9181.7 1113.6 9181.7 Q1142.67 9181.7 1157.12 9153.37 Q1171.75 9124.85 1171.75 9068 Q1171.75 9010.96 1157.12 8982.63 Q1142.67 8954.11 1113.6 8954.11 M1113.6 8924.48 Q1160.08 8924.48 1184.52 8961.33 Q1209.15 8998 1209.15 9068 Q1209.15 9137.81 1184.52 9174.67 Q1160.08 9211.33 1113.6 9211.33 Q1067.12 9211.33 1042.49 9174.67 Q1018.04 9137.81 1018.04 9068 Q1018.04 8998 1042.49 8961.33 Q1067.12 8924.48 1113.6 8924.48 Z" fill="#000000" fill-rule="evenodd" fill-opacity="1" /><path clip-path="url(#clip9200)" d="M 0 0 M1249.71 9158.93 L1288.78 9158.93 L1288.78 9205.96 L1249.71 9205.96 L1249.71 9158.93 Z" fill="#000000" fill-rule="evenodd" fill-opacity="1" /><path clip-path="url(#clip9200)" d="M 0 0 M1432.12 8962.07 L1337.67 9109.67 L1432.12 9109.67 L1432.12 8962.07 M1422.3 8929.48 L1469.34 8929.48 L1469.34 9109.67 L1508.78 9109.67 L1508.78 9140.78 L1469.34 9140.78 L1469.34 9205.96 L1432.12 9205.96 L1432.12 9140.78 L1307.3 9140.78 L1307.3 9104.67 L1422.3 8929.48 Z" fill="#000000" fill-rule="evenodd" fill-opacity="1" /><path clip-path="url(#clip9200)" d="M 0 0 M1549.71 8929.48 L1696.56 8929.48 L1696.56 8960.96 L1583.97 8960.96 L1583.97 9028.74 Q1592.12 9025.96 1600.26 9024.67 Q1608.41 9023.19 1616.56 9023.19 Q1662.86 9023.19 1689.89 9048.56 Q1716.93 9073.93 1716.93 9117.26 Q1716.93 9161.89 1689.15 9186.7 Q1661.37 9211.33 1610.82 9211.33 Q1593.41 9211.33 1575.26 9208.37 Q1557.3 9205.41 1538.04 9199.48 L1538.04 9161.89 Q1554.71 9170.96 1572.49 9175.41 Q1590.26 9179.85 1610.08 9179.85 Q1642.11 9179.85 1660.82 9163 Q1679.52 9146.15 1679.52 9117.26 Q1679.52 9088.37 1660.82 9071.52 Q1642.11 9054.67 1610.08 9054.67 Q1595.08 9054.67 1580.08 9058 Q1565.26 9061.33 1549.71 9068.37 L1549.71 8929.48 Z" fill="#000000" fill-rule="evenodd" fill-opacity="1" /><path clip-path="url(#clip9200)" d="M 0 0 M1117.49 7157.42 Q1088.6 7157.42 1073.97 7185.94 Q1059.53 7214.27 1059.53 7271.31 Q1059.53 7328.16 1073.97 7356.68 Q1088.6 7385.01 1117.49 7385.01 Q1146.56 7385.01 1161.01 7356.68 Q1175.64 7328.16 1175.64 7271.31 Q1175.64 7214.27 1161.01 7185.94 Q1146.56 7157.42 1117.49 7157.42 M1117.49 7127.79 Q1163.97 7127.79 1188.41 7164.64 Q1213.04 7201.31 1213.04 7271.31 Q1213.04 7341.12 1188.41 7377.97 Q1163.97 7414.64 1117.49 7414.64 Q1071.01 7414.64 1046.38 7377.97 Q1021.93 7341.12 1021.93 7271.31 Q1021.93 7201.31 1046.38 7164.64 Q1071.01 7127.79 1117.49 7127.79 Z" fill="#000000" fill-rule="evenodd" fill-opacity="1" /><path clip-path="url(#clip9200)" d="M 0 0 M1253.6 7362.23 L1292.67 7362.23 L1292.67 7409.27 L1253.6 7409.27 L1253.6 7362.23 Z" fill="#000000" fill-rule="evenodd" fill-opacity="1" /><path clip-path="url(#clip9200)" d="M 0 0 M1333.6 7132.79 L1480.45 7132.79 L1480.45 7164.27 L1367.86 7164.27 L1367.86 7232.05 Q1376.01 7229.27 1384.15 7227.97 Q1392.3 7226.49 1400.45 7226.49 Q1446.75 7226.49 1473.78 7251.86 Q1500.82 7277.23 1500.82 7320.57 Q1500.82 7365.19 1473.04 7390.01 Q1445.26 7414.64 1394.71 7414.64 Q1377.3 7414.64 1359.15 7411.68 Q1341.19 7408.71 1321.93 7402.79 L1321.93 7365.19 Q1338.6 7374.27 1356.38 7378.71 Q1374.15 7383.16 1393.97 7383.16 Q1426 7383.16 1444.71 7366.31 Q1463.41 7349.45 1463.41 7320.57 Q1463.41 7291.68 1444.71 7274.82 Q1426 7257.97 1393.97 7257.97 Q1378.97 7257.97 1363.97 7261.31 Q1349.15 7264.64 1333.6 7271.68 L1333.6 7132.79 Z" fill="#000000" fill-rule="evenodd" fill-opacity="1" /><path clip-path="url(#clip9200)" d="M 0 0 M1621.37 7157.42 Q1592.49 7157.42 1577.86 7185.94 Q1563.41 7214.27 1563.41 7271.31 Q1563.41 7328.16 1577.86 7356.68 Q1592.49 7385.01 1621.37 7385.01 Q1650.45 7385.01 1664.89 7356.68 Q1679.52 7328.16 1679.52 7271.31 Q1679.52 7214.27 1664.89 7185.94 Q1650.45 7157.42 1621.37 7157.42 M1621.37 7127.79 Q1667.86 7127.79 1692.3 7164.64 Q1716.93 7201.31 1716.93 7271.31 Q1716.93 7341.12 1692.3 7377.97 Q1667.86 7414.64 1621.37 7414.64 Q1574.89 7414.64 1550.26 7377.97 Q1525.82 7341.12 1525.82 7271.31 Q1525.82 7201.31 1550.26 7164.64 Q1574.89 7127.79 1621.37 7127.79 Z" fill="#000000" fill-rule="evenodd" fill-opacity="1" /><path clip-path="url(#clip9200)" d="M 0 0 M1125.45 5360.72 Q1096.56 5360.72 1081.93 5389.24 Q1067.49 5417.58 1067.49 5474.61 Q1067.49 5531.46 1081.93 5559.98 Q1096.56 5588.32 1125.45 5588.32 Q1154.52 5588.32 1168.97 5559.98 Q1183.6 5531.46 1183.6 5474.61 Q1183.6 5417.58 1168.97 5389.24 Q1154.52 5360.72 1125.45 5360.72 M1125.45 5331.09 Q1171.93 5331.09 1196.38 5367.95 Q1221.01 5404.61 1221.01 5474.61 Q1221.01 5544.43 1196.38 5581.28 Q1171.93 5617.94 1125.45 5617.94 Q1078.97 5617.94 1054.34 5581.28 Q1029.9 5544.43 1029.9 5474.61 Q1029.9 5404.61 1054.34 5367.95 Q1078.97 5331.09 1125.45 5331.09 Z" fill="#000000" fill-rule="evenodd" fill-opacity="1" /><path clip-path="url(#clip9200)" d="M 0 0 M1261.56 5565.54 L1300.64 5565.54 L1300.64 5612.57 L1261.56 5612.57 L1261.56 5565.54 Z" fill="#000000" fill-rule="evenodd" fill-opacity="1" /><path clip-path="url(#clip9200)" d="M 0 0 M1341.56 5336.09 L1488.41 5336.09 L1488.41 5367.58 L1375.82 5367.58 L1375.82 5435.35 Q1383.97 5432.58 1392.12 5431.28 Q1400.26 5429.8 1408.41 5429.8 Q1454.71 5429.8 1481.75 5455.17 Q1508.78 5480.54 1508.78 5523.87 Q1508.78 5568.5 1481 5593.32 Q1453.23 5617.94 1402.67 5617.94 Q1385.26 5617.94 1367.12 5614.98 Q1349.15 5612.02 1329.89 5606.09 L1329.89 5568.5 Q1346.56 5577.57 1364.34 5582.02 Q1382.12 5586.46 1401.93 5586.46 Q1433.97 5586.46 1452.67 5569.61 Q1471.38 5552.76 1471.38 5523.87 Q1471.38 5494.98 1452.67 5478.13 Q1433.97 5461.28 1401.93 5461.28 Q1386.93 5461.28 1371.93 5464.61 Q1357.12 5467.95 1341.56 5474.98 L1341.56 5336.09 Z" fill="#000000" fill-rule="evenodd" fill-opacity="1" /><path clip-path="url(#clip9200)" d="M 0 0 M1549.71 5336.09 L1696.56 5336.09 L1696.56 5367.58 L1583.97 5367.58 L1583.97 5435.35 Q1592.12 5432.58 1600.26 5431.28 Q1608.41 5429.8 1616.56 5429.8 Q1662.86 5429.8 1689.89 5455.17 Q1716.93 5480.54 1716.93 5523.87 Q1716.93 5568.5 1689.15 5593.32 Q1661.37 5617.94 1610.82 5617.94 Q1593.41 5617.94 1575.26 5614.98 Q1557.3 5612.02 1538.04 5606.09 L1538.04 5568.5 Q1554.71 5577.57 1572.49 5582.02 Q1590.26 5586.46 1610.08 5586.46 Q1642.11 5586.46 1660.82 5569.61 Q1679.52 5552.76 1679.52 5523.87 Q1679.52 5494.98 1660.82 5478.13 Q1642.11 5461.28 1610.08 5461.28 Q1595.08 5461.28 1580.08 5464.61 Q1565.26 5467.95 1549.71 5474.98 L1549.71 5336.09 Z" fill="#000000" fill-rule="evenodd" fill-opacity="1" /><path clip-path="url(#clip9200)" d="M 0 0 M1108.23 3564.03 Q1079.34 3564.03 1064.71 3592.55 Q1050.27 3620.88 1050.27 3677.92 Q1050.27 3734.77 1064.71 3763.29 Q1079.34 3791.62 1108.23 3791.62 Q1137.3 3791.62 1151.75 3763.29 Q1166.38 3734.77 1166.38 3677.92 Q1166.38 3620.88 1151.75 3592.55 Q1137.3 3564.03 1108.23 3564.03 M1108.23 3534.4 Q1154.71 3534.4 1179.15 3571.25 Q1203.78 3607.92 1203.78 3677.92 Q1203.78 3747.73 1179.15 3784.58 Q1154.71 3821.25 1108.23 3821.25 Q1061.75 3821.25 1037.12 3784.58 Q1012.67 3747.73 1012.67 3677.92 Q1012.67 3607.92 1037.12 3571.25 Q1061.75 3534.4 1108.23 3534.4 Z" fill="#000000" fill-rule="evenodd" fill-opacity="1" /><path clip-path="url(#clip9200)" d="M 0 0 M1244.34 3768.84 L1283.41 3768.84 L1283.41 3815.88 L1244.34 3815.88 L1244.34 3768.84 Z" fill="#000000" fill-rule="evenodd" fill-opacity="1" /><path clip-path="url(#clip9200)" d="M 0 0 M1408.6 3662.73 Q1383.41 3662.73 1368.6 3679.96 Q1353.97 3697.18 1353.97 3727.18 Q1353.97 3756.99 1368.6 3774.4 Q1383.41 3791.62 1408.6 3791.62 Q1433.78 3791.62 1448.41 3774.4 Q1463.23 3756.99 1463.23 3727.18 Q1463.23 3697.18 1448.41 3679.96 Q1433.78 3662.73 1408.6 3662.73 M1482.86 3545.51 L1482.86 3579.59 Q1468.78 3572.92 1454.34 3569.4 Q1440.08 3565.88 1426 3565.88 Q1388.97 3565.88 1369.34 3590.88 Q1349.89 3615.88 1347.12 3666.44 Q1358.04 3650.33 1374.52 3641.81 Q1391.01 3633.1 1410.82 3633.1 Q1452.49 3633.1 1476.56 3658.47 Q1500.82 3683.66 1500.82 3727.18 Q1500.82 3769.77 1475.63 3795.51 Q1450.45 3821.25 1408.6 3821.25 Q1360.63 3821.25 1335.26 3784.58 Q1309.89 3747.73 1309.89 3677.92 Q1309.89 3612.36 1341.01 3573.47 Q1372.12 3534.4 1424.52 3534.4 Q1438.6 3534.4 1452.86 3537.18 Q1467.3 3539.96 1482.86 3545.51 Z" fill="#000000" fill-rule="evenodd" fill-opacity="1" /><path clip-path="url(#clip9200)" d="M 0 0 M1621.37 3564.03 Q1592.49 3564.03 1577.86 3592.55 Q1563.41 3620.88 1563.41 3677.92 Q1563.41 3734.77 1577.86 3763.29 Q1592.49 3791.62 1621.37 3791.62 Q1650.45 3791.62 1664.89 3763.29 Q1679.52 3734.77 1679.52 3677.92 Q1679.52 3620.88 1664.89 3592.55 Q1650.45 3564.03 1621.37 3564.03 M1621.37 3534.4 Q1667.86 3534.4 1692.3 3571.25 Q1716.93 3607.92 1716.93 3677.92 Q1716.93 3747.73 1692.3 3784.58 Q1667.86 3821.25 1621.37 3821.25 Q1574.89 3821.25 1550.26 3784.58 Q1525.82 3747.73 1525.82 3677.92 Q1525.82 3607.92 1550.26 3571.25 Q1574.89 3534.4 1621.37 3534.4 Z" fill="#000000" fill-rule="evenodd" fill-opacity="1" /><path clip-path="url(#clip9200)" d="M 0 0 M1116.19 1767.34 Q1087.3 1767.34 1072.67 1795.85 Q1058.23 1824.19 1058.23 1881.22 Q1058.23 1938.08 1072.67 1966.59 Q1087.3 1994.93 1116.19 1994.93 Q1145.27 1994.93 1159.71 1966.59 Q1174.34 1938.08 1174.34 1881.22 Q1174.34 1824.19 1159.71 1795.85 Q1145.27 1767.34 1116.19 1767.34 M1116.19 1737.71 Q1162.67 1737.71 1187.12 1774.56 Q1211.75 1811.23 1211.75 1881.22 Q1211.75 1951.04 1187.12 1987.89 Q1162.67 2024.56 1116.19 2024.56 Q1069.71 2024.56 1045.08 1987.89 Q1020.64 1951.04 1020.64 1881.22 Q1020.64 1811.23 1045.08 1774.56 Q1069.71 1737.71 1116.19 1737.71 Z" fill="#000000" fill-rule="evenodd" fill-opacity="1" /><path clip-path="url(#clip9200)" d="M 0 0 M1252.3 1972.15 L1291.38 1972.15 L1291.38 2019.19 L1252.3 2019.19 L1252.3 1972.15 Z" fill="#000000" fill-rule="evenodd" fill-opacity="1" /><path clip-path="url(#clip9200)" d="M 0 0 M1416.56 1866.04 Q1391.38 1866.04 1376.56 1883.26 Q1361.93 1900.48 1361.93 1930.48 Q1361.93 1960.3 1376.56 1977.71 Q1391.38 1994.93 1416.56 1994.93 Q1441.75 1994.93 1456.38 1977.71 Q1471.19 1960.3 1471.19 1930.48 Q1471.19 1900.48 1456.38 1883.26 Q1441.75 1866.04 1416.56 1866.04 M1490.82 1748.82 L1490.82 1782.89 Q1476.75 1776.23 1462.3 1772.71 Q1448.04 1769.19 1433.97 1769.19 Q1396.93 1769.19 1377.3 1794.19 Q1357.86 1819.19 1355.08 1869.74 Q1366.01 1853.63 1382.49 1845.11 Q1398.97 1836.41 1418.78 1836.41 Q1460.45 1836.41 1484.52 1861.78 Q1508.78 1886.97 1508.78 1930.48 Q1508.78 1973.08 1483.6 1998.82 Q1458.41 2024.56 1416.56 2024.56 Q1368.6 2024.56 1343.23 1987.89 Q1317.86 1951.04 1317.86 1881.22 Q1317.86 1815.67 1348.97 1776.78 Q1380.08 1737.71 1432.49 1737.71 Q1446.56 1737.71 1460.82 1740.48 Q1475.26 1743.26 1490.82 1748.82 Z" fill="#000000" fill-rule="evenodd" fill-opacity="1" /><path clip-path="url(#clip9200)" d="M 0 0 M1549.71 1742.71 L1696.56 1742.71 L1696.56 1774.19 L1583.97 1774.19 L1583.97 1841.97 Q1592.12 1839.19 1600.26 1837.89 Q1608.41 1836.41 1616.56 1836.41 Q1662.86 1836.41 1689.89 1861.78 Q1716.93 1887.15 1716.93 1930.48 Q1716.93 1975.11 1689.15 1999.93 Q1661.37 2024.56 1610.82 2024.56 Q1593.41 2024.56 1575.26 2021.59 Q1557.3 2018.63 1538.04 2012.71 L1538.04 1975.11 Q1554.71 1984.19 1572.49 1988.63 Q1590.26 1993.08 1610.08 1993.08 Q1642.11 1993.08 1660.82 1976.22 Q1679.52 1959.37 1679.52 1930.48 Q1679.52 1901.6 1660.82 1884.74 Q1642.11 1867.89 1610.08 1867.89 Q1595.08 1867.89 1580.08 1871.22 Q1565.26 1874.56 1549.71 1881.6 L1549.71 1742.71 Z" fill="#000000" fill-rule="evenodd" fill-opacity="1" /><path clip-path="url(#clip9200)" d="M 0 0 M5045.68 228.341 L5045.68 284.73 Q5020.4 271.767 4993.18 265.286 Q4965.96 258.804 4936.79 258.804 Q4892.39 258.804 4870.03 272.415 Q4847.99 286.026 4847.99 313.248 Q4847.99 333.989 4863.87 345.98 Q4879.75 357.646 4927.72 368.341 L4948.13 372.878 Q5011.65 386.489 5038.23 411.442 Q5065.12 436.072 5065.12 480.47 Q5065.12 531.025 5024.94 560.516 Q4985.08 590.006 4915.08 590.006 Q4885.91 590.006 4854.15 584.173 Q4822.72 578.664 4787.72 567.321 L4787.72 505.747 Q4820.77 522.923 4852.86 531.673 Q4884.94 540.099 4916.37 540.099 Q4958.5 540.099 4981.19 525.84 Q5003.87 511.257 5003.87 485.007 Q5003.87 460.701 4987.35 447.738 Q4971.14 434.775 4915.73 422.785 L4894.99 417.924 Q4839.57 406.257 4814.94 382.276 Q4790.31 357.97 4790.31 315.841 Q4790.31 264.637 4826.61 236.767 Q4862.9 208.897 4929.66 208.897 Q4962.72 208.897 4991.88 213.758 Q5021.05 218.619 5045.68 228.341 Z" fill="#000000" fill-rule="evenodd" fill-opacity="1" /><path clip-path="url(#clip9200)" d="M 0 0 M5127.67 217.647 L5187.3 217.647 L5187.3 580.608 L5127.67 580.608 L5127.67 217.647 M5127.67 76.3514 L5187.3 76.3514 L5187.3 151.86 L5127.67 151.86 L5127.67 76.3514 Z" fill="#000000" fill-rule="evenodd" fill-opacity="1" /><path clip-path="url(#clip9200)" d="M 0 0 M5223.92 217.647 L5507.16 217.647 L5507.16 272.091 L5282.9 532.969 L5507.16 532.969 L5507.16 580.608 L5215.82 580.608 L5215.82 526.164 L5440.07 265.286 L5223.92 265.286 L5223.92 217.647 Z" fill="#000000" fill-rule="evenodd" fill-opacity="1" /><path clip-path="url(#clip9200)" d="M 0 0 M5880.17 384.22 L5880.17 413.387 L5606 413.387 Q5609.89 474.96 5642.94 507.368 Q5676.32 539.451 5735.63 539.451 Q5769.98 539.451 5802.06 531.025 Q5834.47 522.599 5866.23 505.747 L5866.23 562.136 Q5834.15 575.747 5800.44 582.877 Q5766.74 590.006 5732.06 590.006 Q5645.21 590.006 5594.33 539.451 Q5543.78 488.896 5543.78 402.692 Q5543.78 313.572 5591.74 261.397 Q5640.03 208.897 5721.69 208.897 Q5794.93 208.897 5837.39 256.212 Q5880.17 303.202 5880.17 384.22 M5820.54 366.72 Q5819.89 317.785 5792.99 288.619 Q5766.42 259.452 5722.34 259.452 Q5672.43 259.452 5642.3 287.647 Q5612.48 315.841 5607.94 367.044 L5820.54 366.72 Z" fill="#000000" fill-rule="evenodd" fill-opacity="1" /><path clip-path="url(#clip9200)" d="M 0 0 M5957.94 498.294 L6026.32 498.294 L6026.32 580.608 L5957.94 580.608 L5957.94 498.294 M5957.94 237.415 L6026.32 237.415 L6026.32 319.73 L5957.94 319.73 L5957.94 237.415 Z" fill="#000000" fill-rule="evenodd" fill-opacity="1" /><path clip-path="url(#clip9200)" d="M 0 0 M6245.39 312.6 Q6201.32 312.6 6175.39 342.739 Q6149.79 372.878 6149.79 425.377 Q6149.79 477.553 6175.39 508.016 Q6201.32 538.155 6245.39 538.155 Q6289.47 538.155 6315.07 508.016 Q6341 477.553 6341 425.377 Q6341 372.878 6315.07 342.739 Q6289.47 312.6 6245.39 312.6 M6375.35 107.462 L6375.35 167.092 Q6350.72 155.425 6325.44 149.268 Q6300.49 143.11 6275.86 143.11 Q6211.04 143.11 6176.69 186.86 Q6142.66 230.61 6137.8 319.082 Q6156.92 290.887 6185.77 275.98 Q6214.61 260.749 6249.28 260.749 Q6322.2 260.749 6364.33 305.147 Q6406.78 349.22 6406.78 425.377 Q6406.78 499.914 6362.71 544.96 Q6318.63 590.006 6245.39 590.006 Q6161.46 590.006 6117.06 525.84 Q6072.66 461.349 6072.66 339.174 Q6072.66 224.453 6127.11 156.397 Q6181.55 88.018 6273.26 88.018 Q6297.89 88.018 6322.85 92.8791 Q6348.13 97.7402 6375.35 107.462 Z" fill="#000000" fill-rule="evenodd" fill-opacity="1" /><path clip-path="url(#clip9200)" d="M 0 0 M6484.56 498.294 L6552.94 498.294 L6552.94 554.034 L6499.79 657.737 L6457.99 657.737 L6484.56 554.034 L6484.56 498.294 Z" fill="#000000" fill-rule="evenodd" fill-opacity="1" /><path clip-path="url(#clip9200)" d="M 0 0 M6763.91 350.841 Q6717.24 350.841 6690.35 375.794 Q6663.77 400.748 6663.77 444.498 Q6663.77 488.247 6690.35 513.201 Q6717.24 538.155 6763.91 538.155 Q6810.58 538.155 6837.47 513.201 Q6864.37 487.923 6864.37 444.498 Q6864.37 400.748 6837.47 375.794 Q6810.9 350.841 6763.91 350.841 M6698.45 322.97 Q6656.32 312.6 6632.66 283.758 Q6609.33 254.915 6609.33 213.434 Q6609.33 155.425 6650.49 121.722 Q6691.97 88.018 6763.91 88.018 Q6836.18 88.018 6877.34 121.722 Q6918.49 155.425 6918.49 213.434 Q6918.49 254.915 6894.84 283.758 Q6871.5 312.6 6829.7 322.97 Q6877.01 333.989 6903.26 366.072 Q6929.84 398.155 6929.84 444.498 Q6929.84 514.821 6886.73 552.414 Q6843.96 590.006 6763.91 590.006 Q6683.86 590.006 6640.76 552.414 Q6597.99 514.821 6597.99 444.498 Q6597.99 398.155 6624.56 366.072 Q6651.13 333.989 6698.45 322.97 M6674.47 219.591 Q6674.47 257.184 6697.8 278.249 Q6721.46 299.313 6763.91 299.313 Q6806.04 299.313 6829.7 278.249 Q6853.68 257.184 6853.68 219.591 Q6853.68 181.999 6829.7 160.934 Q6806.04 139.87 6763.91 139.87 Q6721.46 139.87 6697.8 160.934 Q6674.47 181.999 6674.47 219.591 Z" fill="#000000" fill-rule="evenodd" fill-opacity="1" /><path clip-path="url(#clip9200)" d="M 0 0 M7007.61 498.294 L7075.99 498.294 L7075.99 554.034 L7022.84 657.737 L6981.04 657.737 L7007.61 554.034 L7007.61 498.294 Z" fill="#000000" fill-rule="evenodd" fill-opacity="1" /><path clip-path="url(#clip9200)" d="M 0 0 M7158.31 525.516 L7265.25 525.516 L7265.25 156.397 L7148.91 179.731 L7148.91 120.101 L7264.6 96.768 L7330.06 96.768 L7330.06 525.516 L7437.01 525.516 L7437.01 580.608 L7158.31 580.608 L7158.31 525.516 Z" fill="#000000" fill-rule="evenodd" fill-opacity="1" /><path clip-path="url(#clip9200)" d="M 0 0 M7647.98 139.87 Q7597.42 139.87 7571.82 189.777 Q7546.55 239.36 7546.55 339.174 Q7546.55 438.664 7571.82 488.571 Q7597.42 538.155 7647.98 538.155 Q7698.86 538.155 7724.14 488.571 Q7749.74 438.664 7749.74 339.174 Q7749.74 239.36 7724.14 189.777 Q7698.86 139.87 7647.98 139.87 M7647.98 88.018 Q7729.32 88.018 7772.1 152.508 Q7815.2 216.675 7815.2 339.174 Q7815.2 461.349 7772.1 525.84 Q7729.32 590.006 7647.98 590.006 Q7566.64 590.006 7523.54 525.84 Q7480.76 461.349 7480.76 339.174 Q7480.76 216.675 7523.54 152.508 Q7566.64 88.018 7647.98 88.018 Z" fill="#000000" fill-rule="evenodd" fill-opacity="1" /><path clip-path="url(#clip9200)" d="M 0 0 M7892.98 498.294 L7961.36 498.294 L7961.36 554.034 L7908.21 657.737 L7866.4 657.737 L7892.98 554.034 L7892.98 498.294 Z" fill="#000000" fill-rule="evenodd" fill-opacity="1" /><path clip-path="url(#clip9200)" d="M 0 0 M8043.67 525.516 L8150.62 525.516 L8150.62 156.397 L8034.27 179.731 L8034.27 120.101 L8149.97 96.768 L8215.43 96.768 L8215.43 525.516 L8322.37 525.516 L8322.37 580.608 L8043.67 580.608 L8043.67 525.516 Z" fill="#000000" fill-rule="evenodd" fill-opacity="1" /><path clip-path="url(#clip9200)" d="M 0 0 M8449.73 525.516 L8678.21 525.516 L8678.21 580.608 L8370.99 580.608 L8370.99 525.516 Q8408.25 486.951 8472.42 422.137 Q8536.91 356.998 8553.44 338.202 Q8584.87 302.878 8597.19 278.573 Q8609.83 253.943 8609.83 230.286 Q8609.83 191.721 8582.6 167.416 Q8555.71 143.11 8512.28 143.11 Q8481.49 143.11 8447.14 153.805 Q8413.11 164.499 8374.23 186.212 L8374.23 120.101 Q8413.76 104.222 8448.11 96.1199 Q8482.47 88.018 8510.98 88.018 Q8586.17 88.018 8630.89 125.61 Q8675.61 163.203 8675.61 226.073 Q8675.61 255.888 8664.27 282.786 Q8653.25 309.359 8623.76 345.656 Q8615.66 355.054 8572.23 400.1 Q8528.81 444.822 8449.73 525.516 Z" fill="#000000" fill-rule="evenodd" fill-opacity="1" /><path clip-path="url(#clip9200)" d="M 0 0 M8755.98 498.294 L8824.36 498.294 L8824.36 554.034 L8771.21 657.737 L8729.41 657.737 L8755.98 554.034 L8755.98 498.294 Z" fill="#000000" fill-rule="evenodd" fill-opacity="1" /><path clip-path="url(#clip9200)" d="M 0 0 M8906.68 525.516 L9013.62 525.516 L9013.62 156.397 L8897.28 179.731 L8897.28 120.101 L9012.97 96.768 L9078.43 96.768 L9078.43 525.516 L9185.38 525.516 L9185.38 580.608 L8906.68 580.608 L8906.68 525.516 Z" fill="#000000" fill-rule="evenodd" fill-opacity="1" /><path clip-path="url(#clip9200)" d="M 0 0 M9436.21 153.805 L9270.93 412.09 L9436.21 412.09 L9436.21 153.805 M9419.04 96.768 L9501.35 96.768 L9501.35 412.09 L9570.38 412.09 L9570.38 466.535 L9501.35 466.535 L9501.35 580.608 L9436.21 580.608 L9436.21 466.535 L9217.79 466.535 L9217.79 403.34 L9419.04 96.768 Z" fill="#000000" fill-rule="evenodd" fill-opacity="1" /><path clip-path="url(#clip9200)" d="M 0 0 M9648.15 498.294 L9716.53 498.294 L9716.53 554.034 L9663.39 657.737 L9621.58 657.737 L9648.15 554.034 L9648.15 498.294 Z" fill="#000000" fill-rule="evenodd" fill-opacity="1" /><path clip-path="url(#clip9200)" d="M 0 0 M9798.85 525.516 L9905.79 525.516 L9905.79 156.397 L9789.45 179.731 L9789.45 120.101 L9905.14 96.768 L9970.61 96.768 L9970.61 525.516 L10077.6 525.516 L10077.6 580.608 L9798.85 580.608 L9798.85 525.516 Z" fill="#000000" fill-rule="evenodd" fill-opacity="1" /><path clip-path="url(#clip9200)" d="M 0 0 M10296.6 312.6 Q10252.5 312.6 10226.6 342.739 Q10201 372.878 10201 425.377 Q10201 477.553 10226.6 508.016 Q10252.5 538.155 10296.6 538.155 Q10340.7 538.155 10366.3 508.016 Q10392.2 477.553 10392.2 425.377 Q10392.2 372.878 10366.3 342.739 Q10340.7 312.6 10296.6 312.6 M10426.6 107.462 L10426.6 167.092 Q10401.9 155.425 10376.7 149.268 Q10351.7 143.11 10327.1 143.11 Q10262.3 143.11 10227.9 186.86 Q10193.9 230.61 10189 319.082 Q10208.2 290.887 10237 275.98 Q10265.8 260.749 10300.5 260.749 Q10373.4 260.749 10415.6 305.147 Q10458 349.22 10458 425.377 Q10458 499.914 10413.9 544.96 Q10369.9 590.006 10296.6 590.006 Q10212.7 590.006 10168.3 525.84 Q10123.9 461.349 10123.9 339.174 Q10123.9 224.453 10178.3 156.397 Q10232.8 88.018 10324.5 88.018 Q10349.1 88.018 10374.1 92.8791 Q10399.4 97.7402 10426.6 107.462 Z" fill="#000000" fill-rule="evenodd" fill-opacity="1" /><path clip-path="url(#clip9200)" d="M 0 0 M10535.8 237.415 L10604.2 237.415 L10604.2 319.73 L10535.8 319.73 L10535.8 237.415 M10535.8 498.294 L10604.2 498.294 L10604.2 554.034 L10551 657.737 L10509.2 657.737 L10535.8 554.034 L10535.8 498.294 Z" fill="#000000" fill-rule="evenodd" fill-opacity="1" /><path clip-path="url(#clip9200)" d="M 0 0 M11076.7 141.166 Q11005.4 141.166 10963.2 194.314 Q10921.4 247.462 10921.4 339.174 Q10921.4 430.563 10963.2 483.71 Q11005.4 536.858 11076.7 536.858 Q11148 536.858 11189.4 483.71 Q11231.2 430.563 11231.2 339.174 Q11231.2 247.462 11189.4 194.314 Q11148 141.166 11076.7 141.166 M11168.4 571.858 L11254.6 666.163 L11175.5 666.163 L11103.9 588.71 Q11093.2 589.358 11087.4 589.682 Q11081.9 590.006 11076.7 590.006 Q10974.6 590.006 10913.3 521.951 Q10852.4 453.572 10852.4 339.174 Q10852.4 224.453 10913.3 156.397 Q10974.6 88.018 11076.7 88.018 Q11178.4 88.018 11239.3 156.397 Q11300.3 224.453 11300.3 339.174 Q11300.3 423.433 11266.2 483.386 Q11232.5 543.34 11168.4 571.858 Z" fill="#000000" fill-rule="evenodd" fill-opacity="1" /><path clip-path="url(#clip9200)" d="M 0 0 M11581.6 279.221 L11997 279.221 L11997 333.665 L11581.6 333.665 L11581.6 279.221 M11581.6 411.442 L11997 411.442 L11997 466.535 L11581.6 466.535 L11581.6 411.442 Z" fill="#000000" fill-rule="evenodd" fill-opacity="1" /><path clip-path="url(#clip9200)" d="M 0 0 M12290.3 525.516 L12397.3 525.516 L12397.3 156.397 L12280.9 179.731 L12280.9 120.101 L12396.6 96.768 L12462.1 96.768 L12462.1 525.516 L12569 525.516 L12569 580.608 L12290.3 580.608 L12290.3 525.516 Z" fill="#000000" fill-rule="evenodd" fill-opacity="1" /><path clip-path="url(#clip9200)" d="M 0 0 M12788.1 312.6 Q12744 312.6 12718.1 342.739 Q12692.5 372.878 12692.5 425.377 Q12692.5 477.553 12718.1 508.016 Q12744 538.155 12788.1 538.155 Q12832.2 538.155 12857.8 508.016 Q12883.7 477.553 12883.7 425.377 Q12883.7 372.878 12857.8 342.739 Q12832.2 312.6 12788.1 312.6 M12918 107.462 L12918 167.092 Q12893.4 155.425 12868.1 149.268 Q12843.2 143.11 12818.6 143.11 Q12753.7 143.11 12719.4 186.86 Q12685.4 230.61 12680.5 319.082 Q12699.6 290.887 12728.5 275.98 Q12757.3 260.749 12792 260.749 Q12864.9 260.749 12907 305.147 Q12949.5 349.22 12949.5 425.377 Q12949.5 499.914 12905.4 544.96 Q12861.3 590.006 12788.1 590.006 Q12704.2 590.006 12659.8 525.84 Q12615.4 461.349 12615.4 339.174 Q12615.4 224.453 12669.8 156.397 Q12724.2 88.018 12816 88.018 Q12840.6 88.018 12865.5 92.8791 Q12890.8 97.7402 12918 107.462 Z" fill="#000000" fill-rule="evenodd" fill-opacity="1" /><path clip-path="url(#clip9200)" d="M 0 0 M13027.3 237.415 L13095.6 237.415 L13095.6 319.73 L13027.3 319.73 L13027.3 237.415 M13027.3 498.294 L13095.6 498.294 L13095.6 554.034 L13042.5 657.737 L13000.7 657.737 L13027.3 554.034 L13027.3 498.294 Z" fill="#000000" fill-rule="evenodd" fill-opacity="1" /><path clip-path="url(#clip9200)" d="M 0 0 M13371.7 96.768 L13437.2 96.768 L13437.2 546.904 Q13437.2 634.404 13403.8 673.941 Q13370.8 713.478 13297.2 713.478 L13272.3 713.478 L13272.3 658.385 L13292.7 658.385 Q13336.1 658.385 13353.9 634.08 Q13371.7 609.775 13371.7 546.904 L13371.7 96.768 Z" fill="#000000" fill-rule="evenodd" fill-opacity="1" /><path clip-path="url(#clip9200)" d="M 0 0 M13775.5 690.793 L13775.5 737.135 L13430.7 737.135 L13430.7 690.793 L13775.5 690.793 Z" fill="#000000" fill-rule="evenodd" fill-opacity="1" /><path clip-path="url(#clip9200)" d="M 0 0 M13986.5 139.87 Q13936 139.87 13910.4 189.777 Q13885.1 239.36 13885.1 339.174 Q13885.1 438.664 13910.4 488.571 Q13936 538.155 13986.5 538.155 Q14037.4 538.155 14062.7 488.571 Q14088.3 438.664 14088.3 339.174 Q14088.3 239.36 14062.7 189.777 Q14037.4 139.87 13986.5 139.87 M13986.5 88.018 Q14067.9 88.018 14110.6 152.508 Q14153.7 216.675 14153.7 339.174 Q14153.7 461.349 14110.6 525.84 Q14067.9 590.006 13986.5 590.006 Q13905.2 590.006 13862.1 525.84 Q13819.3 461.349 13819.3 339.174 Q13819.3 216.675 13862.1 152.508 Q13905.2 88.018 13986.5 88.018 Z" fill="#000000" fill-rule="evenodd" fill-opacity="1" /><path clip-path="url(#clip9200)" d="M 0 0 M14435 279.221 L14850.5 279.221 L14850.5 333.665 L14435 333.665 L14435 279.221 M14435 411.442 L14850.5 411.442 L14850.5 466.535 L14435 466.535 L14435 411.442 Z" fill="#000000" fill-rule="evenodd" fill-opacity="1" /><path clip-path="url(#clip9200)" d="M 0 0 M15272.4 139.87 Q15221.9 139.87 15196.3 189.777 Q15171 239.36 15171 339.174 Q15171 438.664 15196.3 488.571 Q15221.9 538.155 15272.4 538.155 Q15323.3 538.155 15348.6 488.571 Q15374.2 438.664 15374.2 339.174 Q15374.2 239.36 15348.6 189.777 Q15323.3 139.87 15272.4 139.87 M15272.4 88.018 Q15353.8 88.018 15396.5 152.508 Q15439.7 216.675 15439.7 339.174 Q15439.7 461.349 15396.5 525.84 Q15353.8 590.006 15272.4 590.006 Q15191.1 590.006 15148 525.84 Q15105.2 461.349 15105.2 339.174 Q15105.2 216.675 15148 152.508 Q15191.1 88.018 15272.4 88.018 Z" fill="#000000" fill-rule="evenodd" fill-opacity="1" /><path clip-path="url(#clip9200)" d="M 0 0 M15510.6 498.294 L15579 498.294 L15579 580.608 L15510.6 580.608 L15510.6 498.294 Z" fill="#000000" fill-rule="evenodd" fill-opacity="1" /><path clip-path="url(#clip9200)" d="M 0 0 M15650.6 96.768 L15907.6 96.768 L15907.6 151.86 L15710.6 151.86 L15710.6 270.471 Q15724.8 265.61 15739.1 263.341 Q15753.4 260.749 15767.6 260.749 Q15848.6 260.749 15895.9 305.147 Q15943.3 349.544 15943.3 425.377 Q15943.3 503.479 15894.6 546.904 Q15846 590.006 15757.6 590.006 Q15727.1 590.006 15695.3 584.821 Q15663.9 579.636 15630.2 569.265 L15630.2 503.479 Q15659.4 519.358 15690.5 527.136 Q15721.6 534.914 15756.3 534.914 Q15812.3 534.914 15845.1 505.423 Q15877.8 475.933 15877.8 425.377 Q15877.8 374.822 15845.1 345.331 Q15812.3 315.841 15756.3 315.841 Q15730 315.841 15703.8 321.674 Q15677.8 327.508 15650.6 339.822 L15650.6 96.768 Z" fill="#000000" fill-rule="evenodd" fill-opacity="1" /><path clip-path="url(#clip9200)" d="M 0 0 M10204.7 12068.2 L10526.3 12068.2 L10526.3 12111.5 L10391.3 12111.5 L10391.3 12448.4 L10339.6 12448.4 L10339.6 12111.5 L10204.7 12111.5 L10204.7 12068.2 Z" fill="#000000" fill-rule="evenodd" fill-opacity="1" /><path clip-path="url(#clip9200)" d="M 0 0 M522.483 7641.94 L661.765 7641.94 L661.765 7559.44 Q661.765 7517.93 644.705 7498.07 Q627.39 7477.96 591.997 7477.96 Q556.349 7477.96 539.543 7498.07 Q522.483 7517.93 522.483 7559.44 L522.483 7641.94 M366.142 7641.94 L480.724 7641.94 L480.724 7565.8 Q480.724 7528.12 466.72 7509.78 Q452.461 7491.2 423.433 7491.2 Q394.66 7491.2 380.401 7509.78 Q366.142 7528.12 366.142 7565.8 L366.142 7641.94 M323.873 7693.37 L323.873 7561.98 Q323.873 7503.16 348.318 7471.33 Q372.762 7439.51 417.831 7439.51 Q452.715 7439.51 473.34 7455.8 Q493.965 7472.1 499.058 7503.67 Q507.206 7465.73 533.178 7444.85 Q558.895 7423.72 597.599 7423.72 Q648.524 7423.72 676.279 7458.35 Q704.033 7492.98 704.033 7556.89 L704.033 7693.37 L323.873 7693.37 Z" fill="#000000" fill-rule="evenodd" fill-opacity="1" /><path clip-path="url(#clip9200)" d="M 0 0 M418.85 7374.58 L418.85 7327.72 L704.033 7327.72 L704.033 7374.58 L418.85 7374.58 M307.832 7374.58 L307.832 7327.72 L367.16 7327.72 L367.16 7374.58 L307.832 7374.58 Z" fill="#000000" fill-rule="evenodd" fill-opacity="1" /><path clip-path="url(#clip9200)" d="M 0 0 M531.905 7041.52 L704.033 7041.52 L704.033 7088.37 L533.432 7088.37 Q492.946 7088.37 472.831 7104.16 Q452.715 7119.95 452.715 7151.52 Q452.715 7189.46 476.905 7211.36 Q501.095 7233.26 542.854 7233.26 L704.033 7233.26 L704.033 7280.36 L418.85 7280.36 L418.85 7233.26 L463.155 7233.26 Q437.437 7216.45 424.706 7193.79 Q411.975 7170.87 411.975 7141.08 Q411.975 7091.94 442.53 7066.73 Q472.831 7041.52 531.905 7041.52 Z" fill="#000000" fill-rule="evenodd" fill-opacity="1" /><path clip-path="url(#clip9200)" d="M 0 0 M462.136 6804.72 L307.832 6804.72 L307.832 6757.87 L704.033 6757.87 L704.033 6804.72 L661.256 6804.72 Q686.719 6819.49 699.195 6842.15 Q711.417 6864.56 711.417 6896.13 Q711.417 6947.82 670.168 6980.41 Q628.918 7012.75 561.696 7012.75 Q494.474 7012.75 453.224 6980.41 Q411.975 6947.82 411.975 6896.13 Q411.975 6864.56 424.451 6842.15 Q436.674 6819.49 462.136 6804.72 M561.696 6964.37 Q613.386 6964.37 642.922 6943.24 Q672.205 6921.85 672.205 6884.67 Q672.205 6847.5 642.922 6826.11 Q613.386 6804.72 561.696 6804.72 Q510.007 6804.72 480.724 6826.11 Q451.187 6847.5 451.187 6884.67 Q451.187 6921.85 480.724 6943.24 Q510.007 6964.37 561.696 6964.37 Z" fill="#000000" fill-rule="evenodd" fill-opacity="1" /><path clip-path="url(#clip9200)" d="M 0 0 M549.729 6464.79 L572.645 6464.79 L572.645 6680.2 Q621.024 6677.15 646.487 6651.18 Q671.695 6624.95 671.695 6578.35 Q671.695 6551.36 665.075 6526.15 Q658.455 6500.69 645.214 6475.74 L689.519 6475.74 Q700.214 6500.95 705.816 6527.43 Q711.417 6553.91 711.417 6581.15 Q711.417 6649.39 671.695 6689.37 Q631.973 6729.09 564.242 6729.09 Q494.22 6729.09 453.224 6691.41 Q411.975 6653.47 411.975 6589.3 Q411.975 6531.76 449.15 6498.4 Q486.071 6464.79 549.729 6464.79 M535.979 6511.64 Q497.53 6512.15 474.613 6533.28 Q451.697 6554.16 451.697 6588.79 Q451.697 6628.01 473.849 6651.69 Q496.002 6675.11 536.233 6678.68 L535.979 6511.64 Z" fill="#000000" fill-rule="evenodd" fill-opacity="1" /><path clip-path="url(#clip9200)" d="M 0 0 M462.646 6250.39 Q458.062 6258.29 456.025 6267.71 Q453.734 6276.87 453.734 6288.08 Q453.734 6327.8 479.706 6349.19 Q505.423 6370.32 553.803 6370.32 L704.033 6370.32 L704.033 6417.43 L418.85 6417.43 L418.85 6370.32 L463.155 6370.32 Q437.183 6355.55 424.706 6331.87 Q411.975 6308.19 411.975 6274.33 Q411.975 6269.49 412.739 6263.63 Q413.248 6257.78 414.521 6250.65 L462.646 6250.39 Z" fill="#000000" fill-rule="evenodd" fill-opacity="1" /><path clip-path="url(#clip9200)" d="M 0 0 M323.873 6156.94 L465.192 6156.94 L465.192 6200.23 L323.873 6200.23 L323.873 6156.94 Z" fill="#000000" fill-rule="evenodd" fill-opacity="1" /><path clip-path="url(#clip9200)" d="M 0 0 M427.252 5926 L471.558 5926 Q461.373 5945.86 456.28 5967.25 Q451.187 5988.63 451.187 6011.55 Q451.187 6046.44 461.882 6064 Q472.576 6081.32 493.965 6081.32 Q510.261 6081.32 519.682 6068.84 Q528.849 6056.37 537.252 6018.68 L540.817 6002.64 Q551.511 5952.73 571.117 5931.85 Q590.469 5910.72 625.353 5910.72 Q665.075 5910.72 688.246 5942.29 Q711.417 5973.61 711.417 6028.61 Q711.417 6051.53 706.834 6076.48 Q702.505 6101.18 693.594 6128.68 L645.214 6128.68 Q658.709 6102.71 665.584 6077.5 Q672.205 6052.29 672.205 6027.59 Q672.205 5994.49 661.001 5976.67 Q649.543 5958.84 628.918 5958.84 Q609.821 5958.84 599.636 5971.83 Q589.451 5984.56 580.029 6028.1 L576.21 6044.4 Q567.043 6087.94 548.201 6107.29 Q529.104 6126.64 496.002 6126.64 Q455.771 6126.64 433.873 6098.12 Q411.975 6069.61 411.975 6017.15 Q411.975 5991.18 415.794 5968.26 Q419.613 5945.35 427.252 5926 Z" fill="#000000" fill-rule="evenodd" fill-opacity="1" /><path clip-path="url(#clip9200)" d="M 0 0 M462.646 5530.56 Q458.062 5538.45 456.025 5547.87 Q453.734 5557.04 453.734 5568.24 Q453.734 5607.97 479.706 5629.35 Q505.423 5650.49 553.803 5650.49 L704.033 5650.49 L704.033 5697.59 L418.85 5697.59 L418.85 5650.49 L463.155 5650.49 Q437.183 5635.72 424.706 5612.04 Q411.975 5588.36 411.975 5554.49 Q411.975 5549.66 412.739 5543.8 Q413.248 5537.94 414.521 5530.81 L462.646 5530.56 Z" fill="#000000" fill-rule="evenodd" fill-opacity="1" /><path clip-path="url(#clip9200)" d="M 0 0 M560.678 5351.81 Q560.678 5408.59 573.664 5430.49 Q586.65 5452.39 617.969 5452.39 Q642.922 5452.39 657.691 5436.09 Q672.205 5419.54 672.205 5391.28 Q672.205 5352.32 644.705 5328.89 Q616.95 5305.21 571.117 5305.21 L560.678 5305.21 L560.678 5351.81 M541.326 5258.36 L704.033 5258.36 L704.033 5305.21 L660.746 5305.21 Q686.719 5321.25 699.195 5345.19 Q711.417 5369.12 711.417 5403.75 Q711.417 5447.55 686.973 5473.52 Q662.274 5499.24 621.024 5499.24 Q572.9 5499.24 548.455 5467.16 Q524.011 5434.82 524.011 5370.91 L524.011 5305.21 L519.428 5305.21 Q487.09 5305.21 469.521 5326.6 Q451.697 5347.74 451.697 5386.18 Q451.697 5410.63 457.553 5433.8 Q463.41 5456.97 475.122 5478.36 L431.836 5478.36 Q421.905 5452.64 417.067 5428.45 Q411.975 5404.26 411.975 5381.35 Q411.975 5319.47 444.058 5288.92 Q476.141 5258.36 541.326 5258.36 Z" fill="#000000" fill-rule="evenodd" fill-opacity="1" /><path clip-path="url(#clip9200)" d="M 0 0 M337.878 5162.87 L418.85 5162.87 L418.85 5066.37 L455.261 5066.37 L455.261 5162.87 L610.075 5162.87 Q644.96 5162.87 654.89 5153.45 Q664.821 5143.78 664.821 5114.5 L664.821 5066.37 L704.033 5066.37 L704.033 5114.5 Q704.033 5168.73 683.918 5189.36 Q663.547 5209.98 610.075 5209.98 L455.261 5209.98 L455.261 5244.36 L418.85 5244.36 L418.85 5209.98 L337.878 5209.98 L337.878 5162.87 Z" fill="#000000" fill-rule="evenodd" fill-opacity="1" /><path clip-path="url(#clip9200)" d="M 0 0 M418.85 5017.23 L418.85 4970.38 L704.033 4970.38 L704.033 5017.23 L418.85 5017.23 M307.832 5017.23 L307.832 4970.38 L367.16 4970.38 L367.16 5017.23 L307.832 5017.23 Z" fill="#000000" fill-rule="evenodd" fill-opacity="1" /><path clip-path="url(#clip9200)" d="M 0 0 M451.697 4810.72 Q451.697 4848.41 481.234 4870.31 Q510.516 4892.21 561.696 4892.21 Q612.876 4892.21 642.413 4870.56 Q671.695 4848.66 671.695 4810.72 Q671.695 4773.29 642.159 4751.4 Q612.622 4729.5 561.696 4729.5 Q511.025 4729.5 481.488 4751.4 Q451.697 4773.29 451.697 4810.72 M411.975 4810.72 Q411.975 4749.61 451.697 4714.73 Q491.419 4679.85 561.696 4679.85 Q631.719 4679.85 671.695 4714.73 Q711.417 4749.61 711.417 4810.72 Q711.417 4872.09 671.695 4906.97 Q631.719 4941.6 561.696 4941.6 Q491.419 4941.6 451.697 4906.97 Q411.975 4872.09 411.975 4810.72 Z" fill="#000000" fill-rule="evenodd" fill-opacity="1" /><polyline clip-path="url(#clip9202)" style="stroke:#009af9; stroke-width:32; stroke-opacity:1; fill:none" points="
  2387.6,1282.06 2548.77,1282.06 2709.94,1282.06 2871.11,1282.06 3032.28,1282.06 3193.45,1282.07 3354.62,1282.07 3515.79,1282.07 3676.96,1282.08 3838.13,1282.08 
  3999.3,1282.09 4160.47,1282.1 4321.64,1282.1 4482.8,1282.11 4643.97,1282.11 4805.14,1282.13 4966.31,1282.13 5127.48,1282.14 5288.65,1282.16 5449.82,1282.19 
  5610.99,1282.22 5772.16,1282.23 5933.33,1282.26 6094.5,1282.28 6255.67,1282.31 6416.84,1282.34 6578.01,1282.37 6739.18,1282.44 6900.35,1282.46 7061.52,1282.55 
  7222.68,1282.61 7383.85,1282.72 7545.02,1282.74 7706.19,1282.87 7867.36,1283.1 8028.53,1283.09 8189.7,1283.23 8350.87,1283.5 8512.04,1283.49 8673.21,1283.79 
  8834.38,1284 8995.55,1284.57 9156.72,1284.45 9317.89,1285.04 9479.06,1285.46 9640.23,1285.85 9801.4,1286.11 9962.56,1286.8 10123.7,1287.91 10284.9,1288.83 
  10446.1,1290.33 10607.2,1291.28 10768.4,1293.37 10929.6,1295.34 11090.8,1295.81 11251.9,1301.24 11413.1,1305.89 11574.3,1313.15 11735.4,1322.26 11896.6,1328.61 
  12057.8,1326.67 12218.9,1351.72 12380.1,1370.54 12541.3,1377.36 12702.4,1408.5 12863.6,1435.89 13024.8,1465.31 13186,1562.27 13347.1,1628.11 13508.3,1735.14 
  13669.5,1860.73 13830.6,2002.6 13991.8,2191.39 14153,2432.97 14314.1,2634.24 14475.3,2849.51 14636.5,3264.48 14797.6,3630.17 14958.8,3952.54 15120,4427.65 
  15281.2,4948.28 15442.3,5273.31 15603.5,5575.21 15764.7,5806.93 15925.8,6224.33 16087,6491.6 16248.2,6688.16 16409.3,6936.56 16570.5,6907.4 16731.7,6795.19 
  16892.8,6753.51 17054,6804.84 17215.2,6334.1 17376.4,6279.97 17537.5,5877.25 17698.7,5964.64 17859.9,5730.3 18021,5390.95 18182.2,5202.97 18343.4,5264.74 
  
  "/>
<polyline clip-path="url(#clip9202)" style="stroke:#e26f46; stroke-width:32; stroke-opacity:1; fill:none" points="
  2387.6,1282.05 2548.77,1282.06 2709.94,1282.06 2871.11,1282.06 3032.28,1282.06 3193.45,1282.06 3354.62,1282.06 3515.79,1282.06 3676.96,1282.07 3838.13,1282.07 
  3999.3,1282.07 4160.47,1282.08 4321.64,1282.07 4482.8,1282.08 4643.97,1282.09 4805.14,1282.09 4966.31,1282.1 5127.48,1282.11 5288.65,1282.11 5449.82,1282.12 
  5610.99,1282.13 5772.16,1282.14 5933.33,1282.16 6094.5,1282.16 6255.67,1282.2 6416.84,1282.21 6578.01,1282.22 6739.18,1282.26 6900.35,1282.29 7061.52,1282.3 
  7222.68,1282.36 7383.85,1282.34 7545.02,1282.43 7706.19,1282.5 7867.36,1282.58 8028.53,1282.64 8189.7,1282.79 8350.87,1282.86 8512.04,1282.95 8673.21,1283.02 
  8834.38,1283.33 8995.55,1283.45 9156.72,1283.55 9317.89,1283.75 9479.06,1284.16 9640.23,1284.46 9801.4,1284.87 9962.56,1285.25 10123.7,1285.7 10284.9,1286.69 
  10446.1,1287.14 10607.2,1287.53 10768.4,1288.74 10929.6,1290.53 11090.8,1292.23 11251.9,1293.29 11413.1,1294.23 11574.3,1299.75 11735.4,1306.45 11896.6,1311.18 
  12057.8,1316.02 12218.9,1322.21 12380.1,1338.12 12541.3,1358.98 12702.4,1396.06 12863.6,1434.23 13024.8,1485.45 13186,1527.06 13347.1,1673.96 13508.3,1785.65 
  13669.5,2013.83 13830.6,2307.94 13991.8,2690.98 14153,3138.75 14314.1,3605.45 14475.3,4376.84 14636.5,5230.71 14797.6,6116.55 14958.8,6993.58 15120,7403.7 
  15281.2,8149.42 15442.3,8632.97 15603.5,8710.85 15764.7,8725 15925.8,8991.15 16087,8515.33 16248.2,7833.85 16409.3,7759.86 16570.5,7791.83 16731.7,7306.44 
  16892.8,6757.12 17054,6264.34 17215.2,6208.31 17376.4,5366.66 17537.5,5445.16 17698.7,5258.21 17859.9,4679.93 18021,4967.16 18182.2,4391.82 18343.4,4283.08 
  
  "/>
<polyline clip-path="url(#clip9202)" style="stroke:#3da44d; stroke-width:32; stroke-opacity:1; fill:none" points="
  2387.6,1282.05 2548.77,1282.05 2709.94,1282.05 2871.11,1282.05 3032.28,1282.06 3193.45,1282.06 3354.62,1282.06 3515.79,1282.06 3676.96,1282.06 3838.13,1282.06 
  3999.3,1282.06 4160.47,1282.06 4321.64,1282.07 4482.8,1282.07 4643.97,1282.07 4805.14,1282.08 4966.31,1282.08 5127.48,1282.09 5288.65,1282.09 5449.82,1282.09 
  5610.99,1282.1 5772.16,1282.11 5933.33,1282.13 6094.5,1282.13 6255.67,1282.14 6416.84,1282.16 6578.01,1282.17 6739.18,1282.18 6900.35,1282.19 7061.52,1282.2 
  7222.68,1282.23 7383.85,1282.26 7545.02,1282.28 7706.19,1282.33 7867.36,1282.35 8028.53,1282.41 8189.7,1282.45 8350.87,1282.49 8512.04,1282.54 8673.21,1282.61 
  8834.38,1282.74 8995.55,1282.98 9156.72,1283.03 9317.89,1283.25 9479.06,1283.36 9640.23,1283.51 9801.4,1283.87 9962.56,1284.17 10123.7,1284.92 10284.9,1284.98 
  10446.1,1285.06 10607.2,1286.21 10768.4,1287.74 10929.6,1287.8 11090.8,1289.15 11251.9,1290.86 11413.1,1292.06 11574.3,1295.94 11735.4,1298.69 11896.6,1304.35 
  12057.8,1307.52 12218.9,1315.69 12380.1,1329.19 12541.3,1346.67 12702.4,1359.92 12863.6,1390.52 13024.8,1442.53 13186,1533.7 13347.1,1645.4 13508.3,1824.55 
  13669.5,2247.18 13830.6,2528.48 13991.8,3215.82 14153,4127.4 14314.1,5013.31 14475.3,6809.17 14636.5,7821.04 14797.6,8756.25 14958.8,9211.33 15120,10033.2 
  15281.2,9789.06 15442.3,10231.9 15603.5,9636.67 15764.7,9145.5 15925.8,8606.02 16087,8195.87 16248.2,7368.74 16409.3,7076.81 16570.5,6644.92 16731.7,6747 
  16892.8,6106.67 17054,5768.46 17215.2,5621.65 17376.4,5184.87 17537.5,4899.94 17698.7,4571.85 17859.9,4587.06 18021,4444.84 18182.2,4376.63 18343.4,3974.74 
  
  "/>
<polyline clip-path="url(#clip9202)" style="stroke:#c271d2; stroke-width:32; stroke-opacity:1; fill:none" points="
  2387.6,1282.05 2548.77,1282.05 2709.94,1282.05 2871.11,1282.05 3032.28,1282.05 3193.45,1282.05 3354.62,1282.06 3515.79,1282.06 3676.96,1282.06 3838.13,1282.06 
  3999.3,1282.06 4160.47,1282.06 4321.64,1282.06 4482.8,1282.06 4643.97,1282.07 4805.14,1282.07 4966.31,1282.07 5127.48,1282.07 5288.65,1282.08 5449.82,1282.08 
  5610.99,1282.09 5772.16,1282.09 5933.33,1282.1 6094.5,1282.1 6255.67,1282.11 6416.84,1282.12 6578.01,1282.13 6739.18,1282.14 6900.35,1282.15 7061.52,1282.17 
  7222.68,1282.18 7383.85,1282.21 7545.02,1282.22 7706.19,1282.23 7867.36,1282.28 8028.53,1282.3 8189.7,1282.34 8350.87,1282.35 8512.04,1282.41 8673.21,1282.45 
  8834.38,1282.49 8995.55,1282.59 9156.72,1282.61 9317.89,1282.7 9479.06,1282.95 9640.23,1283.22 9801.4,1283.53 9962.56,1283.79 10123.7,1283.98 10284.9,1284.31 
  10446.1,1284.89 10607.2,1285.44 10768.4,1286.03 10929.6,1286.85 11090.8,1287.88 11251.9,1288.22 11413.1,1290.22 11574.3,1292.23 11735.4,1292.75 11896.6,1299 
  12057.8,1302.46 12218.9,1306.82 12380.1,1313.32 12541.3,1325.86 12702.4,1348.33 12863.6,1367.9 13024.8,1417.98 13186,1465.28 13347.1,1612.29 13508.3,1888.67 
  13669.5,2251.96 13830.6,3200.85 13991.8,4052.01 14153,5344.66 14314.1,7190.98 14475.3,8508.66 14636.5,9799.58 14797.6,10585.9 14958.8,10501 15120,10982.3 
  15281.2,10213.9 15442.3,9705.2 15603.5,9252.57 15764.7,8334.18 15925.8,8015.83 16087,7745.15 16248.2,7475.67 16409.3,6631.41 16570.5,6652.27 16731.7,6300.38 
  16892.8,5768.77 17054,5597.37 17215.2,5244.87 17376.4,5268.73 17537.5,4966.21 17698.7,4746.52 17859.9,4478.26 18021,4224.87 18182.2,4203.12 18343.4,3998.47 
  
  "/>
<polyline clip-path="url(#clip9202)" style="stroke:#ac8d18; stroke-width:32; stroke-opacity:1; fill:none" points="
  2387.6,1282.05 2548.77,1282.05 2709.94,1282.05 2871.11,1282.05 3032.28,1282.05 3193.45,1282.05 3354.62,1282.05 3515.79,1282.05 3676.96,1282.05 3838.13,1282.06 
  3999.3,1282.06 4160.47,1282.06 4321.64,1282.06 4482.8,1282.06 4643.97,1282.06 4805.14,1282.06 4966.31,1282.07 5127.48,1282.07 5288.65,1282.07 5449.82,1282.07 
  5610.99,1282.08 5772.16,1282.08 5933.33,1282.09 6094.5,1282.09 6255.67,1282.1 6416.84,1282.1 6578.01,1282.11 6739.18,1282.12 6900.35,1282.13 7061.52,1282.13 
  7222.68,1282.15 7383.85,1282.16 7545.02,1282.17 7706.19,1282.19 7867.36,1282.2 8028.53,1282.23 8189.7,1282.25 8350.87,1282.28 8512.04,1282.31 8673.21,1282.33 
  8834.38,1282.39 8995.55,1282.44 9156.72,1282.5 9317.89,1282.7 9479.06,1282.73 9640.23,1282.84 9801.4,1283.07 9962.56,1283.19 10123.7,1283.32 10284.9,1283.45 
  10446.1,1283.9 10607.2,1284.32 10768.4,1285.36 10929.6,1285.22 11090.8,1286.25 11251.9,1286.81 11413.1,1289.03 11574.3,1290.41 11735.4,1291.33 11896.6,1296.04 
  12057.8,1296.5 12218.9,1301.92 12380.1,1311.6 12541.3,1321.8 12702.4,1336.94 12863.6,1355.33 13024.8,1390.76 13186,1538.09 13347.1,1613.88 13508.3,1919.63 
  13669.5,2483.14 13830.6,3374.69 13991.8,4637.72 14153,6508.3 14314.1,9077.23 14475.3,10327.9 14636.5,10617.7 14797.6,10755.2 14958.8,10592 15120,9705.45 
  15281.2,9522.03 15442.3,9316.46 15603.5,9178.47 15764.7,8431.62 15925.8,7758.21 16087,7792.38 16248.2,7264.38 16409.3,6547.66 16570.5,6526.06 16731.7,5917.31 
  16892.8,5778.95 17054,5481.83 17215.2,5220.68 17376.4,4925.13 17537.5,5069.22 17698.7,4474.65 17859.9,4479.32 18021,4194.63 18182.2,4209.79 18343.4,4056.66 
  
  "/>
<polyline clip-path="url(#clip9202)" style="stroke:#00a9ad; stroke-width:32; stroke-opacity:1; fill:none" points="
  2387.6,1282.05 2548.77,1282.05 2709.94,1282.05 2871.11,1282.05 3032.28,1282.05 3193.45,1282.05 3354.62,1282.05 3515.79,1282.05 3676.96,1282.05 3838.13,1282.05 
  3999.3,1282.05 4160.47,1282.06 4321.64,1282.06 4482.8,1282.06 4643.97,1282.06 4805.14,1282.06 4966.31,1282.06 5127.48,1282.06 5288.65,1282.07 5449.82,1282.07 
  5610.99,1282.07 5772.16,1282.08 5933.33,1282.08 6094.5,1282.08 6255.67,1282.08 6416.84,1282.09 6578.01,1282.09 6739.18,1282.1 6900.35,1282.11 7061.52,1282.11 
  7222.68,1282.13 7383.85,1282.13 7545.02,1282.14 7706.19,1282.16 7867.36,1282.17 8028.53,1282.19 8189.7,1282.2 8350.87,1282.22 8512.04,1282.25 8673.21,1282.27 
  8834.38,1282.29 8995.55,1282.33 9156.72,1282.38 9317.89,1282.46 9479.06,1282.62 9640.23,1282.65 9801.4,1282.77 9962.56,1283.05 10123.7,1283.19 10284.9,1283.37 
  10446.1,1283.67 10607.2,1283.88 10768.4,1284.43 10929.6,1284.94 11090.8,1285.21 11251.9,1286.29 11413.1,1288.46 11574.3,1289.09 11735.4,1289.62 11896.6,1292.76 
  12057.8,1297.36 12218.9,1299.13 12380.1,1309.56 12541.3,1308.93 12702.4,1324.36 12863.6,1340.65 13024.8,1373.69 13186,1427.93 13347.1,1607.17 13508.3,1853.65 
  13669.5,2764.81 13830.6,3895.2 13991.8,5436.49 14153,7954.11 14314.1,9496.71 14475.3,10195.4 14636.5,11091.2 14797.6,10527.1 14958.8,9680.91 15120,9724.94 
  15281.2,9193.82 15442.3,8645.8 15603.5,8038.16 15764.7,8081.31 15925.8,7550.55 16087,6919.43 16248.2,6613.27 16409.3,6264.19 16570.5,6187.5 16731.7,5870.97 
  16892.8,5635.94 17054,5563.11 17215.2,5251.4 17376.4,5059.2 17537.5,5032.02 17698.7,4425.5 17859.9,4326.94 18021,4264.11 18182.2,4221.61 18343.4,4005.47 
  
  "/>
<path clip-path="url(#clip9200)" d="
M2484.93 10233.4 L5521.96 10233.4 L5521.96 6846.56 L2484.93 6846.56  Z
  " fill="#ffffff" fill-rule="evenodd" fill-opacity="1"/>
<polyline clip-path="url(#clip9200)" style="stroke:#000000; stroke-width:32; stroke-opacity:1; fill:none" points="
  2484.93,10233.4 5521.96,10233.4 5521.96,6846.56 2484.93,6846.56 2484.93,10233.4 
  "/>
<polyline clip-path="url(#clip9200)" style="stroke:#009af9; stroke-width:32; stroke-opacity:1; fill:none" points="
  2676.93,7330.4 3828.93,7330.4 
  "/>
<path clip-path="url(#clip9200)" d="M 0 0 M4020.93 7192.16 L4058.34 7192.16 L4058.34 7437.16 L4192.97 7437.16 L4192.97 7468.64 L4020.93 7468.64 L4020.93 7192.16 Z" fill="#000000" fill-rule="evenodd" fill-opacity="1" /><path clip-path="url(#clip9200)" d="M 0 0 M4353.71 7296.42 L4591.11 7296.42 L4591.11 7327.53 L4353.71 7327.53 L4353.71 7296.42 M4353.71 7371.97 L4591.11 7371.97 L4591.11 7403.45 L4353.71 7403.45 L4353.71 7371.97 Z" fill="#000000" fill-rule="evenodd" fill-opacity="1" /><path clip-path="url(#clip9200)" d="M 0 0 M4836.85 7315.49 Q4811.67 7315.49 4796.85 7332.71 Q4782.22 7349.94 4782.22 7379.94 Q4782.22 7409.75 4796.85 7427.16 Q4811.67 7444.38 4836.85 7444.38 Q4862.04 7444.38 4876.67 7427.16 Q4891.48 7409.75 4891.48 7379.94 Q4891.48 7349.94 4876.67 7332.71 Q4862.04 7315.49 4836.85 7315.49 M4911.11 7198.27 L4911.11 7232.34 Q4897.04 7225.68 4882.59 7222.16 Q4868.33 7218.64 4854.26 7218.64 Q4817.22 7218.64 4797.59 7243.64 Q4778.15 7268.64 4775.37 7319.2 Q4786.3 7303.08 4802.78 7294.57 Q4819.26 7285.86 4839.07 7285.86 Q4880.74 7285.86 4904.81 7311.23 Q4929.07 7336.42 4929.07 7379.94 Q4929.07 7422.53 4903.89 7448.27 Q4878.7 7474.01 4836.85 7474.01 Q4788.89 7474.01 4763.52 7437.34 Q4738.15 7400.49 4738.15 7330.68 Q4738.15 7265.12 4769.26 7226.23 Q4800.37 7187.16 4852.78 7187.16 Q4866.85 7187.16 4881.11 7189.94 Q4895.55 7192.71 4911.11 7198.27 Z" fill="#000000" fill-rule="evenodd" fill-opacity="1" /><polyline clip-path="url(#clip9200)" style="stroke:#e26f46; stroke-width:32; stroke-opacity:1; fill:none" points="
  2676.93,7814.24 3828.93,7814.24 
  "/>
<path clip-path="url(#clip9200)" d="M 0 0 M4020.93 7676 L4058.34 7676 L4058.34 7921 L4192.97 7921 L4192.97 7952.48 L4020.93 7952.48 L4020.93 7676 Z" fill="#000000" fill-rule="evenodd" fill-opacity="1" /><path clip-path="url(#clip9200)" d="M 0 0 M4353.71 7780.26 L4591.11 7780.26 L4591.11 7811.37 L4353.71 7811.37 L4353.71 7780.26 M4353.71 7855.81 L4591.11 7855.81 L4591.11 7887.29 L4353.71 7887.29 L4353.71 7855.81 Z" fill="#000000" fill-rule="evenodd" fill-opacity="1" /><path clip-path="url(#clip9200)" d="M 0 0 M4832.22 7821.18 Q4805.55 7821.18 4790.18 7835.44 Q4775 7849.7 4775 7874.7 Q4775 7899.7 4790.18 7913.96 Q4805.55 7928.22 4832.22 7928.22 Q4858.89 7928.22 4874.26 7913.96 Q4889.63 7899.52 4889.63 7874.7 Q4889.63 7849.7 4874.26 7835.44 Q4859.07 7821.18 4832.22 7821.18 M4794.81 7805.26 Q4770.74 7799.33 4757.22 7782.85 Q4743.89 7766.37 4743.89 7742.67 Q4743.89 7709.52 4767.41 7690.26 Q4791.11 7671 4832.22 7671 Q4873.52 7671 4897.04 7690.26 Q4920.55 7709.52 4920.55 7742.67 Q4920.55 7766.37 4907.04 7782.85 Q4893.7 7799.33 4869.81 7805.26 Q4896.85 7811.55 4911.85 7829.89 Q4927.04 7848.22 4927.04 7874.7 Q4927.04 7914.89 4902.41 7936.37 Q4877.96 7957.85 4832.22 7957.85 Q4786.48 7957.85 4761.85 7936.37 Q4737.41 7914.89 4737.41 7874.7 Q4737.41 7848.22 4752.59 7829.89 Q4767.78 7811.55 4794.81 7805.26 M4781.11 7746.18 Q4781.11 7767.66 4794.44 7779.7 Q4807.96 7791.74 4832.22 7791.74 Q4856.3 7791.74 4869.81 7779.7 Q4883.52 7767.66 4883.52 7746.18 Q4883.52 7724.7 4869.81 7712.67 Q4856.3 7700.63 4832.22 7700.63 Q4807.96 7700.63 4794.44 7712.67 Q4781.11 7724.7 4781.11 7746.18 Z" fill="#000000" fill-rule="evenodd" fill-opacity="1" /><polyline clip-path="url(#clip9200)" style="stroke:#3da44d; stroke-width:32; stroke-opacity:1; fill:none" points="
  2676.93,8298.08 3828.93,8298.08 
  "/>
<path clip-path="url(#clip9200)" d="M 0 0 M4020.93 8159.84 L4058.34 8159.84 L4058.34 8404.84 L4192.97 8404.84 L4192.97 8436.32 L4020.93 8436.32 L4020.93 8159.84 Z" fill="#000000" fill-rule="evenodd" fill-opacity="1" /><path clip-path="url(#clip9200)" d="M 0 0 M4353.71 8264.1 L4591.11 8264.1 L4591.11 8295.21 L4353.71 8295.21 L4353.71 8264.1 M4353.71 8339.65 L4591.11 8339.65 L4591.11 8371.13 L4353.71 8371.13 L4353.71 8339.65 Z" fill="#000000" fill-rule="evenodd" fill-opacity="1" /><path clip-path="url(#clip9200)" d="M 0 0 M4758.7 8404.84 L4819.81 8404.84 L4819.81 8193.91 L4753.33 8207.25 L4753.33 8173.17 L4819.44 8159.84 L4856.85 8159.84 L4856.85 8404.84 L4917.96 8404.84 L4917.96 8436.32 L4758.7 8436.32 L4758.7 8404.84 Z" fill="#000000" fill-rule="evenodd" fill-opacity="1" /><path clip-path="url(#clip9200)" d="M 0 0 M5038.52 8184.47 Q5009.63 8184.47 4995 8212.99 Q4980.55 8241.32 4980.55 8298.36 Q4980.55 8355.21 4995 8383.73 Q5009.63 8412.06 5038.52 8412.06 Q5067.59 8412.06 5082.03 8383.73 Q5096.66 8355.21 5096.66 8298.36 Q5096.66 8241.32 5082.03 8212.99 Q5067.59 8184.47 5038.52 8184.47 M5038.52 8154.84 Q5085 8154.84 5109.44 8191.69 Q5134.07 8228.36 5134.07 8298.36 Q5134.07 8368.17 5109.44 8405.02 Q5085 8441.69 5038.52 8441.69 Q4992.04 8441.69 4967.41 8405.02 Q4942.96 8368.17 4942.96 8298.36 Q4942.96 8228.36 4967.41 8191.69 Q4992.04 8154.84 5038.52 8154.84 Z" fill="#000000" fill-rule="evenodd" fill-opacity="1" /><polyline clip-path="url(#clip9200)" style="stroke:#c271d2; stroke-width:32; stroke-opacity:1; fill:none" points="
  2676.93,8781.92 3828.93,8781.92 
  "/>
<path clip-path="url(#clip9200)" d="M 0 0 M4020.93 8643.68 L4058.34 8643.68 L4058.34 8888.68 L4192.97 8888.68 L4192.97 8920.16 L4020.93 8920.16 L4020.93 8643.68 Z" fill="#000000" fill-rule="evenodd" fill-opacity="1" /><path clip-path="url(#clip9200)" d="M 0 0 M4353.71 8747.94 L4591.11 8747.94 L4591.11 8779.05 L4353.71 8779.05 L4353.71 8747.94 M4353.71 8823.49 L4591.11 8823.49 L4591.11 8854.97 L4353.71 8854.97 L4353.71 8823.49 Z" fill="#000000" fill-rule="evenodd" fill-opacity="1" /><path clip-path="url(#clip9200)" d="M 0 0 M4758.7 8888.68 L4819.81 8888.68 L4819.81 8677.75 L4753.33 8691.09 L4753.33 8657.01 L4819.44 8643.68 L4856.85 8643.68 L4856.85 8888.68 L4917.96 8888.68 L4917.96 8920.16 L4758.7 8920.16 L4758.7 8888.68 Z" fill="#000000" fill-rule="evenodd" fill-opacity="1" /><path clip-path="url(#clip9200)" d="M 0 0 M4990.74 8888.68 L5121.29 8888.68 L5121.29 8920.16 L4945.74 8920.16 L4945.74 8888.68 Q4967.04 8866.64 5003.7 8829.6 Q5040.55 8792.38 5050 8781.64 Q5067.96 8761.46 5075 8747.57 Q5082.22 8733.49 5082.22 8719.97 Q5082.22 8697.94 5066.66 8684.05 Q5051.29 8670.16 5026.48 8670.16 Q5008.89 8670.16 4989.26 8676.27 Q4969.81 8682.38 4947.59 8694.79 L4947.59 8657.01 Q4970.18 8647.94 4989.81 8643.31 Q5009.44 8638.68 5025.74 8638.68 Q5068.7 8638.68 5094.26 8660.16 Q5119.81 8681.64 5119.81 8717.57 Q5119.81 8734.6 5113.33 8749.97 Q5107.03 8765.16 5090.18 8785.9 Q5085.55 8791.27 5060.74 8817.01 Q5035.92 8842.57 4990.74 8888.68 Z" fill="#000000" fill-rule="evenodd" fill-opacity="1" /><polyline clip-path="url(#clip9200)" style="stroke:#ac8d18; stroke-width:32; stroke-opacity:1; fill:none" points="
  2676.93,9265.76 3828.93,9265.76 
  "/>
<path clip-path="url(#clip9200)" d="M 0 0 M4020.93 9127.52 L4058.34 9127.52 L4058.34 9372.52 L4192.97 9372.52 L4192.97 9404 L4020.93 9404 L4020.93 9127.52 Z" fill="#000000" fill-rule="evenodd" fill-opacity="1" /><path clip-path="url(#clip9200)" d="M 0 0 M4353.71 9231.78 L4591.11 9231.78 L4591.11 9262.89 L4353.71 9262.89 L4353.71 9231.78 M4353.71 9307.33 L4591.11 9307.33 L4591.11 9338.81 L4353.71 9338.81 L4353.71 9307.33 Z" fill="#000000" fill-rule="evenodd" fill-opacity="1" /><path clip-path="url(#clip9200)" d="M 0 0 M4758.7 9372.52 L4819.81 9372.52 L4819.81 9161.59 L4753.33 9174.93 L4753.33 9140.85 L4819.44 9127.52 L4856.85 9127.52 L4856.85 9372.52 L4917.96 9372.52 L4917.96 9404 L4758.7 9404 L4758.7 9372.52 Z" fill="#000000" fill-rule="evenodd" fill-opacity="1" /><path clip-path="url(#clip9200)" d="M 0 0 M5061.29 9160.11 L4966.85 9307.7 L5061.29 9307.7 L5061.29 9160.11 M5051.48 9127.52 L5098.52 9127.52 L5098.52 9307.7 L5137.96 9307.7 L5137.96 9338.81 L5098.52 9338.81 L5098.52 9404 L5061.29 9404 L5061.29 9338.81 L4936.48 9338.81 L4936.48 9302.7 L5051.48 9127.52 Z" fill="#000000" fill-rule="evenodd" fill-opacity="1" /><polyline clip-path="url(#clip9200)" style="stroke:#00a9ad; stroke-width:32; stroke-opacity:1; fill:none" points="
  2676.93,9749.6 3828.93,9749.6 
  "/>
<path clip-path="url(#clip9200)" d="M 0 0 M4020.93 9611.36 L4058.34 9611.36 L4058.34 9856.36 L4192.97 9856.36 L4192.97 9887.84 L4020.93 9887.84 L4020.93 9611.36 Z" fill="#000000" fill-rule="evenodd" fill-opacity="1" /><path clip-path="url(#clip9200)" d="M 0 0 M4353.71 9715.62 L4591.11 9715.62 L4591.11 9746.73 L4353.71 9746.73 L4353.71 9715.62 M4353.71 9791.17 L4591.11 9791.17 L4591.11 9822.65 L4353.71 9822.65 L4353.71 9791.17 Z" fill="#000000" fill-rule="evenodd" fill-opacity="1" /><path clip-path="url(#clip9200)" d="M 0 0 M4758.7 9856.36 L4819.81 9856.36 L4819.81 9645.43 L4753.33 9658.77 L4753.33 9624.69 L4819.44 9611.36 L4856.85 9611.36 L4856.85 9856.36 L4917.96 9856.36 L4917.96 9887.84 L4758.7 9887.84 L4758.7 9856.36 Z" fill="#000000" fill-rule="evenodd" fill-opacity="1" /><path clip-path="url(#clip9200)" d="M 0 0 M5043.15 9734.69 Q5017.96 9734.69 5003.15 9751.91 Q4988.52 9769.14 4988.52 9799.14 Q4988.52 9828.95 5003.15 9846.36 Q5017.96 9863.58 5043.15 9863.58 Q5068.33 9863.58 5082.96 9846.36 Q5097.78 9828.95 5097.78 9799.14 Q5097.78 9769.14 5082.96 9751.91 Q5068.33 9734.69 5043.15 9734.69 M5117.4 9617.47 L5117.4 9651.54 Q5103.33 9644.88 5088.89 9641.36 Q5074.63 9637.84 5060.55 9637.84 Q5023.52 9637.84 5003.89 9662.84 Q4984.44 9687.84 4981.66 9738.4 Q4992.59 9722.28 5009.07 9713.77 Q5025.55 9705.06 5045.37 9705.06 Q5087.03 9705.06 5111.11 9730.43 Q5135.37 9755.62 5135.37 9799.14 Q5135.37 9841.73 5110.18 9867.47 Q5085 9893.21 5043.15 9893.21 Q4995.18 9893.21 4969.81 9856.54 Q4944.44 9819.69 4944.44 9749.88 Q4944.44 9684.32 4975.55 9645.43 Q5006.66 9606.36 5059.07 9606.36 Q5073.15 9606.36 5087.41 9609.14 Q5101.85 9611.91 5117.4 9617.47 Z" fill="#000000" fill-rule="evenodd" fill-opacity="1" /></svg>
