<?xml version="1.0" encoding="utf-8"?>
<svg xmlns="http://www.w3.org/2000/svg" xmlns:xlink="http://www.w3.org/1999/xlink" width="4800" height="3200" viewBox="0 0 19200 12800">
<defs>
  <clipPath id="clip1000">
    <rect x="0" y="0" width="19200" height="12800"/>
  </clipPath>
</defs>
<path clip-path="url(#clip1000)" d="
M0 12800 L19200 12800 L19200 0 L0 0  Z
  " fill="#ffffff" fill-rule="evenodd" fill-opacity="1"/>
<defs>
  <clipPath id="clip1001">
    <rect x="3840" y="0" width="13441" height="12800"/>
  </clipPath>
</defs>
<path clip-path="url(#clip1000)" d="
M1832.82 11385.4 L18822 11385.4 L18822 987.777 L1832.82 987.777  Z
  " fill="#ffffff" fill-rule="evenodd" fill-opacity="1"/>
<defs>
  <clipPath id="clip1002">
    <rect x="1832" y="987" width="16990" height="10399"/>
  </clipPath>
</defs>
<polyline clip-path="url(#clip1002)" style="stroke:#000000; stroke-width:16; stroke-opacity:0.1; fill:none" points="
  2206.08,11385.4 2206.08,987.777 
  "/>
<polyline clip-path="url(#clip1002)" style="stroke:#000000; stroke-width:16; stroke-opacity:0.1; fill:none" points="
  7584.46,11385.4 7584.46,987.777 
  "/>
<polyline clip-path="url(#clip1002)" style="stroke:#000000; stroke-width:16; stroke-opacity:0.1; fill:none" points="
  12962.8,11385.4 12962.8,987.777 
  "/>
<polyline clip-path="url(#clip1002)" style="stroke:#000000; stroke-width:16; stroke-opacity:0.1; fill:none" points="
  18341.2,11385.4 18341.2,987.777 
  "/>
<polyline clip-path="url(#clip1002)" style="stroke:#000000; stroke-width:16; stroke-opacity:0.1; fill:none" points="
  1832.82,11091.2 18822,11091.2 
  "/>
<polyline clip-path="url(#clip1002)" style="stroke:#000000; stroke-width:16; stroke-opacity:0.1; fill:none" points="
  1832.82,8674.23 18822,8674.23 
  "/>
<polyline clip-path="url(#clip1002)" style="stroke:#000000; stroke-width:16; stroke-opacity:0.1; fill:none" points="
  1832.82,6257.29 18822,6257.29 
  "/>
<polyline clip-path="url(#clip1002)" style="stroke:#000000; stroke-width:16; stroke-opacity:0.1; fill:none" points="
  1832.82,3840.36 18822,3840.36 
  "/>
<polyline clip-path="url(#clip1002)" style="stroke:#000000; stroke-width:16; stroke-opacity:0.1; fill:none" points="
  1832.82,1423.42 18822,1423.42 
  "/>
<polyline clip-path="url(#clip1000)" style="stroke:#000000; stroke-width:32; stroke-opacity:1; fill:none" points="
  1832.82,11385.4 18822,11385.4 
  "/>
<polyline clip-path="url(#clip1000)" style="stroke:#000000; stroke-width:32; stroke-opacity:1; fill:none" points="
  1832.82,11385.4 1832.82,987.777 
  "/>
<polyline clip-path="url(#clip1000)" style="stroke:#000000; stroke-width:32; stroke-opacity:1; fill:none" points="
  2206.08,11385.4 2206.08,11260.7 
  "/>
<polyline clip-path="url(#clip1000)" style="stroke:#000000; stroke-width:32; stroke-opacity:1; fill:none" points="
  7584.46,11385.4 7584.46,11260.7 
  "/>
<polyline clip-path="url(#clip1000)" style="stroke:#000000; stroke-width:32; stroke-opacity:1; fill:none" points="
  12962.8,11385.4 12962.8,11260.7 
  "/>
<polyline clip-path="url(#clip1000)" style="stroke:#000000; stroke-width:32; stroke-opacity:1; fill:none" points="
  18341.2,11385.4 18341.2,11260.7 
  "/>
<polyline clip-path="url(#clip1000)" style="stroke:#000000; stroke-width:32; stroke-opacity:1; fill:none" points="
  1832.82,11091.2 2036.69,11091.2 
  "/>
<polyline clip-path="url(#clip1000)" style="stroke:#000000; stroke-width:32; stroke-opacity:1; fill:none" points="
  1832.82,8674.23 2036.69,8674.23 
  "/>
<polyline clip-path="url(#clip1000)" style="stroke:#000000; stroke-width:32; stroke-opacity:1; fill:none" points="
  1832.82,6257.29 2036.69,6257.29 
  "/>
<polyline clip-path="url(#clip1000)" style="stroke:#000000; stroke-width:32; stroke-opacity:1; fill:none" points="
  1832.82,3840.36 2036.69,3840.36 
  "/>
<polyline clip-path="url(#clip1000)" style="stroke:#000000; stroke-width:32; stroke-opacity:1; fill:none" points="
  1832.82,1423.42 2036.69,1423.42 
  "/>
<path clip-path="url(#clip1000)" d="M 0 0 M2058.21 11561.4 Q2029.32 11561.4 2014.69 11589.9 Q2000.25 11618.2 2000.25 11675.3 Q2000.25 11732.1 2014.69 11760.6 Q2029.32 11789 2058.21 11789 Q2087.28 11789 2101.73 11760.6 Q2116.36 11732.1 2116.36 11675.3 Q2116.36 11618.2 2101.73 11589.9 Q2087.28 11561.4 2058.21 11561.4 M2058.21 11531.7 Q2104.69 11531.7 2129.13 11568.6 Q2153.76 11605.3 2153.76 11675.3 Q2153.76 11745.1 2129.13 11781.9 Q2104.69 11818.6 2058.21 11818.6 Q2011.73 11818.6 1987.1 11781.9 Q1962.65 11745.1 1962.65 11675.3 Q1962.65 11605.3 1987.1 11568.6 Q2011.73 11531.7 2058.21 11531.7 Z" fill="#000000" fill-rule="evenodd" fill-opacity="1" /><path clip-path="url(#clip1000)" d="M 0 0 M2194.32 11766.2 L2233.39 11766.2 L2233.39 11813.2 L2194.32 11813.2 L2194.32 11766.2 Z" fill="#000000" fill-rule="evenodd" fill-opacity="1" /><path clip-path="url(#clip1000)" d="M 0 0 M2353.95 11561.4 Q2325.06 11561.4 2310.43 11589.9 Q2295.99 11618.2 2295.99 11675.3 Q2295.99 11732.1 2310.43 11760.6 Q2325.06 11789 2353.95 11789 Q2383.02 11789 2397.47 11760.6 Q2412.1 11732.1 2412.1 11675.3 Q2412.1 11618.2 2397.47 11589.9 Q2383.02 11561.4 2353.95 11561.4 M2353.95 11531.7 Q2400.43 11531.7 2424.87 11568.6 Q2449.5 11605.3 2449.5 11675.3 Q2449.5 11745.1 2424.87 11781.9 Q2400.43 11818.6 2353.95 11818.6 Q2307.47 11818.6 2282.84 11781.9 Q2258.39 11745.1 2258.39 11675.3 Q2258.39 11605.3 2282.84 11568.6 Q2307.47 11531.7 2353.95 11531.7 Z" fill="#000000" fill-rule="evenodd" fill-opacity="1" /><path clip-path="url(#clip1000)" d="M 0 0 M7440.57 11561.4 Q7411.68 11561.4 7397.05 11589.9 Q7382.61 11618.2 7382.61 11675.3 Q7382.61 11732.1 7397.05 11760.6 Q7411.68 11789 7440.57 11789 Q7469.64 11789 7484.09 11760.6 Q7498.72 11732.1 7498.72 11675.3 Q7498.72 11618.2 7484.09 11589.9 Q7469.64 11561.4 7440.57 11561.4 M7440.57 11531.7 Q7487.05 11531.7 7511.5 11568.6 Q7536.13 11605.3 7536.13 11675.3 Q7536.13 11745.1 7511.5 11781.9 Q7487.05 11818.6 7440.57 11818.6 Q7394.09 11818.6 7369.46 11781.9 Q7345.02 11745.1 7345.02 11675.3 Q7345.02 11605.3 7369.46 11568.6 Q7394.09 11531.7 7440.57 11531.7 Z" fill="#000000" fill-rule="evenodd" fill-opacity="1" /><path clip-path="url(#clip1000)" d="M 0 0 M7576.68 11766.2 L7615.75 11766.2 L7615.75 11813.2 L7576.68 11813.2 L7576.68 11766.2 Z" fill="#000000" fill-rule="evenodd" fill-opacity="1" /><path clip-path="url(#clip1000)" d="M 0 0 M7656.68 11536.7 L7803.53 11536.7 L7803.53 11568.2 L7690.94 11568.2 L7690.94 11636 Q7699.09 11633.2 7707.24 11631.9 Q7715.38 11630.4 7723.53 11630.4 Q7769.83 11630.4 7796.87 11655.8 Q7823.9 11681.2 7823.9 11724.5 Q7823.9 11769.1 7796.12 11794 Q7768.35 11818.6 7717.79 11818.6 Q7700.38 11818.6 7682.24 11815.6 Q7664.27 11812.7 7645.01 11806.7 L7645.01 11769.1 Q7661.68 11778.2 7679.46 11782.7 Q7697.24 11787.1 7717.05 11787.1 Q7749.09 11787.1 7767.79 11770.3 Q7786.49 11753.4 7786.49 11724.5 Q7786.49 11695.6 7767.79 11678.8 Q7749.09 11661.9 7717.05 11661.9 Q7702.05 11661.9 7687.05 11665.3 Q7672.24 11668.6 7656.68 11675.6 L7656.68 11536.7 Z" fill="#000000" fill-rule="evenodd" fill-opacity="1" /><path clip-path="url(#clip1000)" d="M 0 0 M12738 11781.7 L12799.1 11781.7 L12799.1 11570.8 L12732.7 11584.1 L12732.7 11550.1 L12798.8 11536.7 L12836.2 11536.7 L12836.2 11781.7 L12897.3 11781.7 L12897.3 11813.2 L12738 11813.2 L12738 11781.7 Z" fill="#000000" fill-rule="evenodd" fill-opacity="1" /><path clip-path="url(#clip1000)" d="M 0 0 M12937.8 11766.2 L12976.9 11766.2 L12976.9 11813.2 L12937.8 11813.2 L12937.8 11766.2 Z" fill="#000000" fill-rule="evenodd" fill-opacity="1" /><path clip-path="url(#clip1000)" d="M 0 0 M13097.5 11561.4 Q13068.6 11561.4 13054 11589.9 Q13039.5 11618.2 13039.5 11675.3 Q13039.5 11732.1 13054 11760.6 Q13068.6 11789 13097.5 11789 Q13126.5 11789 13141 11760.6 Q13155.6 11732.1 13155.6 11675.3 Q13155.6 11618.2 13141 11589.9 Q13126.5 11561.4 13097.5 11561.4 M13097.5 11531.7 Q13143.9 11531.7 13168.4 11568.6 Q13193 11605.3 13193 11675.3 Q13193 11745.1 13168.4 11781.9 Q13143.9 11818.6 13097.5 11818.6 Q13051 11818.6 13026.4 11781.9 Q13001.9 11745.1 13001.9 11675.3 Q13001.9 11605.3 13026.4 11568.6 Q13051 11531.7 13097.5 11531.7 Z" fill="#000000" fill-rule="evenodd" fill-opacity="1" /><path clip-path="url(#clip1000)" d="M 0 0 M18120.4 11781.7 L18181.5 11781.7 L18181.5 11570.8 L18115 11584.1 L18115 11550.1 L18181.1 11536.7 L18218.5 11536.7 L18218.5 11781.7 L18279.6 11781.7 L18279.6 11813.2 L18120.4 11813.2 L18120.4 11781.7 Z" fill="#000000" fill-rule="evenodd" fill-opacity="1" /><path clip-path="url(#clip1000)" d="M 0 0 M18320.2 11766.2 L18359.3 11766.2 L18359.3 11813.2 L18320.2 11813.2 L18320.2 11766.2 Z" fill="#000000" fill-rule="evenodd" fill-opacity="1" /><path clip-path="url(#clip1000)" d="M 0 0 M18400.2 11536.7 L18547.1 11536.7 L18547.1 11568.2 L18434.5 11568.2 L18434.5 11636 Q18442.6 11633.2 18450.8 11631.9 Q18458.9 11630.4 18467.1 11630.4 Q18513.3 11630.4 18540.4 11655.8 Q18567.4 11681.2 18567.4 11724.5 Q18567.4 11769.1 18539.6 11794 Q18511.9 11818.6 18461.3 11818.6 Q18443.9 11818.6 18425.8 11815.6 Q18407.8 11812.7 18388.5 11806.7 L18388.5 11769.1 Q18405.2 11778.2 18423 11782.7 Q18440.8 11787.1 18460.6 11787.1 Q18492.6 11787.1 18511.3 11770.3 Q18530 11753.4 18530 11724.5 Q18530 11695.6 18511.3 11678.8 Q18492.6 11661.9 18460.6 11661.9 Q18445.6 11661.9 18430.6 11665.3 Q18415.8 11668.6 18400.2 11675.6 L18400.2 11536.7 Z" fill="#000000" fill-rule="evenodd" fill-opacity="1" /><path clip-path="url(#clip1000)" d="M 0 0 M1545.26 10977.6 Q1516.37 10977.6 1501.75 11006.1 Q1487.3 11034.4 1487.3 11091.4 Q1487.3 11148.3 1501.75 11176.8 Q1516.37 11205.1 1545.26 11205.1 Q1574.34 11205.1 1588.78 11176.8 Q1603.41 11148.3 1603.41 11091.4 Q1603.41 11034.4 1588.78 11006.1 Q1574.34 10977.6 1545.26 10977.6 M1545.26 10947.9 Q1591.74 10947.9 1616.19 10984.8 Q1640.82 11021.4 1640.82 11091.4 Q1640.82 11161.3 1616.19 11198.1 Q1591.74 11234.8 1545.26 11234.8 Q1498.78 11234.8 1474.15 11198.1 Q1449.71 11161.3 1449.71 11091.4 Q1449.71 11021.4 1474.15 10984.8 Q1498.78 10947.9 1545.26 10947.9 Z" fill="#000000" fill-rule="evenodd" fill-opacity="1" /><path clip-path="url(#clip1000)" d="M 0 0 M1057.3 8832.57 L1187.86 8832.57 L1187.86 8864.05 L1012.3 8864.05 L1012.3 8832.57 Q1033.6 8810.53 1070.27 8773.49 Q1107.12 8736.27 1116.56 8725.53 Q1134.53 8705.35 1141.56 8691.46 Q1148.78 8677.38 1148.78 8663.87 Q1148.78 8641.83 1133.23 8627.94 Q1117.86 8614.05 1093.04 8614.05 Q1075.45 8614.05 1055.82 8620.16 Q1036.38 8626.27 1014.16 8638.68 L1014.16 8600.9 Q1036.75 8591.83 1056.38 8587.2 Q1076.01 8582.57 1092.3 8582.57 Q1135.27 8582.57 1160.82 8604.05 Q1186.38 8625.53 1186.38 8661.46 Q1186.38 8678.49 1179.9 8693.87 Q1173.6 8709.05 1156.75 8729.79 Q1152.12 8735.16 1127.3 8760.9 Q1102.49 8786.46 1057.3 8832.57 Z" fill="#000000" fill-rule="evenodd" fill-opacity="1" /><path clip-path="url(#clip1000)" d="M 0 0 M1226.56 8619.61 L1261.01 8619.61 L1261.01 8901.09 L1226.56 8901.09 L1226.56 8619.61 Z" fill="#000000" fill-rule="evenodd" fill-opacity="1" /><path clip-path="url(#clip1000)" d="M 0 0 M1381.56 8612.2 Q1352.67 8612.2 1338.04 8640.72 Q1323.6 8669.05 1323.6 8726.09 Q1323.6 8782.94 1338.04 8811.46 Q1352.67 8839.79 1381.56 8839.79 Q1410.63 8839.79 1425.08 8811.46 Q1439.71 8782.94 1439.71 8726.09 Q1439.71 8669.05 1425.08 8640.72 Q1410.63 8612.2 1381.56 8612.2 M1381.56 8582.57 Q1428.04 8582.57 1452.49 8619.42 Q1477.12 8656.09 1477.12 8726.09 Q1477.12 8795.9 1452.49 8832.75 Q1428.04 8869.42 1381.56 8869.42 Q1335.08 8869.42 1310.45 8832.75 Q1286.01 8795.9 1286.01 8726.09 Q1286.01 8656.09 1310.45 8619.42 Q1335.08 8582.57 1381.56 8582.57 Z" fill="#000000" fill-rule="evenodd" fill-opacity="1" /><path clip-path="url(#clip1000)" d="M 0 0 M1578.53 8446.61 L1501.79 8566.53 L1578.53 8566.53 L1578.53 8446.61 M1570.55 8420.13 L1608.77 8420.13 L1608.77 8566.53 L1640.82 8566.53 L1640.82 8591.8 L1608.77 8591.8 L1608.77 8644.77 L1578.53 8644.77 L1578.53 8591.8 L1477.12 8591.8 L1477.12 8562.46 L1570.55 8420.13 Z" fill="#000000" fill-rule="evenodd" fill-opacity="1" /><path clip-path="url(#clip1000)" d="M 0 0 M1111.19 6203.23 L1016.75 6350.82 L1111.19 6350.82 L1111.19 6203.23 M1101.38 6170.63 L1148.41 6170.63 L1148.41 6350.82 L1187.86 6350.82 L1187.86 6381.93 L1148.41 6381.93 L1148.41 6447.11 L1111.19 6447.11 L1111.19 6381.93 L986.378 6381.93 L986.378 6345.82 L1101.38 6170.63 Z" fill="#000000" fill-rule="evenodd" fill-opacity="1" /><path clip-path="url(#clip1000)" d="M 0 0 M1226.56 6202.67 L1261.01 6202.67 L1261.01 6484.15 L1226.56 6484.15 L1226.56 6202.67 Z" fill="#000000" fill-rule="evenodd" fill-opacity="1" /><path clip-path="url(#clip1000)" d="M 0 0 M1381.56 6195.26 Q1352.67 6195.26 1338.04 6223.78 Q1323.6 6252.11 1323.6 6309.15 Q1323.6 6366 1338.04 6394.52 Q1352.67 6422.85 1381.56 6422.85 Q1410.63 6422.85 1425.08 6394.52 Q1439.71 6366 1439.71 6309.15 Q1439.71 6252.11 1425.08 6223.78 Q1410.63 6195.26 1381.56 6195.26 M1381.56 6165.63 Q1428.04 6165.63 1452.49 6202.48 Q1477.12 6239.15 1477.12 6309.15 Q1477.12 6378.96 1452.49 6415.82 Q1428.04 6452.48 1381.56 6452.48 Q1335.08 6452.48 1310.45 6415.82 Q1286.01 6378.96 1286.01 6309.15 Q1286.01 6239.15 1310.45 6202.48 Q1335.08 6165.63 1381.56 6165.63 Z" fill="#000000" fill-rule="evenodd" fill-opacity="1" /><path clip-path="url(#clip1000)" d="M 0 0 M1578.53 6029.67 L1501.79 6149.59 L1578.53 6149.59 L1578.53 6029.67 M1570.55 6003.19 L1608.77 6003.19 L1608.77 6149.59 L1640.82 6149.59 L1640.82 6174.87 L1608.77 6174.87 L1608.77 6227.83 L1578.53 6227.83 L1578.53 6174.87 L1477.12 6174.87 L1477.12 6145.53 L1570.55 6003.19 Z" fill="#000000" fill-rule="evenodd" fill-opacity="1" /><path clip-path="url(#clip1000)" d="M 0 0 M1095.64 3877.03 Q1070.45 3877.03 1055.64 3894.25 Q1041.01 3911.47 1041.01 3941.47 Q1041.01 3971.29 1055.64 3988.69 Q1070.45 4005.92 1095.64 4005.92 Q1120.82 4005.92 1135.45 3988.69 Q1150.27 3971.29 1150.27 3941.47 Q1150.27 3911.47 1135.45 3894.25 Q1120.82 3877.03 1095.64 3877.03 M1169.9 3759.81 L1169.9 3793.88 Q1155.82 3787.21 1141.38 3783.7 Q1127.12 3780.18 1113.04 3780.18 Q1076.01 3780.18 1056.38 3805.18 Q1036.93 3830.18 1034.16 3880.73 Q1045.08 3864.62 1061.56 3856.1 Q1078.04 3847.4 1097.86 3847.4 Q1139.53 3847.4 1163.6 3872.77 Q1187.86 3897.95 1187.86 3941.47 Q1187.86 3984.07 1162.67 4009.81 Q1137.49 4035.55 1095.64 4035.55 Q1047.67 4035.55 1022.3 3998.88 Q996.933 3962.03 996.933 3892.21 Q996.933 3826.66 1028.04 3787.77 Q1059.16 3748.7 1111.56 3748.7 Q1125.64 3748.7 1139.9 3751.47 Q1154.34 3754.25 1169.9 3759.81 Z" fill="#000000" fill-rule="evenodd" fill-opacity="1" /><path clip-path="url(#clip1000)" d="M 0 0 M1226.56 3785.73 L1261.01 3785.73 L1261.01 4067.21 L1226.56 4067.21 L1226.56 3785.73 Z" fill="#000000" fill-rule="evenodd" fill-opacity="1" /><path clip-path="url(#clip1000)" d="M 0 0 M1381.56 3778.33 Q1352.67 3778.33 1338.04 3806.84 Q1323.6 3835.18 1323.6 3892.21 Q1323.6 3949.07 1338.04 3977.58 Q1352.67 4005.92 1381.56 4005.92 Q1410.63 4005.92 1425.08 3977.58 Q1439.71 3949.07 1439.71 3892.21 Q1439.71 3835.18 1425.08 3806.84 Q1410.63 3778.33 1381.56 3778.33 M1381.56 3748.7 Q1428.04 3748.7 1452.49 3785.55 Q1477.12 3822.21 1477.12 3892.21 Q1477.12 3962.03 1452.49 3998.88 Q1428.04 4035.55 1381.56 4035.55 Q1335.08 4035.55 1310.45 3998.88 Q1286.01 3962.03 1286.01 3892.21 Q1286.01 3822.21 1310.45 3785.55 Q1335.08 3748.7 1381.56 3748.7 Z" fill="#000000" fill-rule="evenodd" fill-opacity="1" /><path clip-path="url(#clip1000)" d="M 0 0 M1578.53 3612.73 L1501.79 3732.65 L1578.53 3732.65 L1578.53 3612.73 M1570.55 3586.25 L1608.77 3586.25 L1608.77 3732.65 L1640.82 3732.65 L1640.82 3757.93 L1608.77 3757.93 L1608.77 3810.89 L1578.53 3810.89 L1578.53 3757.93 L1477.12 3757.93 L1477.12 3728.59 L1570.55 3586.25 Z" fill="#000000" fill-rule="evenodd" fill-opacity="1" /><path clip-path="url(#clip1000)" d="M 0 0 M1093.04 1481.94 Q1066.38 1481.94 1051.01 1496.2 Q1035.82 1510.46 1035.82 1535.46 Q1035.82 1560.46 1051.01 1574.72 Q1066.38 1588.98 1093.04 1588.98 Q1119.71 1588.98 1135.08 1574.72 Q1150.45 1560.28 1150.45 1535.46 Q1150.45 1510.46 1135.08 1496.2 Q1119.9 1481.94 1093.04 1481.94 M1055.64 1466.02 Q1031.56 1460.09 1018.04 1443.61 Q1004.71 1427.13 1004.71 1403.43 Q1004.71 1370.28 1028.23 1351.02 Q1051.93 1331.76 1093.04 1331.76 Q1134.34 1331.76 1157.86 1351.02 Q1181.38 1370.28 1181.38 1403.43 Q1181.38 1427.13 1167.86 1443.61 Q1154.52 1460.09 1130.64 1466.02 Q1157.67 1472.31 1172.67 1490.65 Q1187.86 1508.98 1187.86 1535.46 Q1187.86 1575.65 1163.23 1597.13 Q1138.78 1618.61 1093.04 1618.61 Q1047.3 1618.61 1022.67 1597.13 Q998.229 1575.65 998.229 1535.46 Q998.229 1508.98 1013.41 1490.65 Q1028.6 1472.31 1055.64 1466.02 M1041.93 1406.94 Q1041.93 1428.43 1055.27 1440.46 Q1068.78 1452.5 1093.04 1452.5 Q1117.12 1452.5 1130.64 1440.46 Q1144.34 1428.43 1144.34 1406.94 Q1144.34 1385.46 1130.64 1373.43 Q1117.12 1361.39 1093.04 1361.39 Q1068.78 1361.39 1055.27 1373.43 Q1041.93 1385.46 1041.93 1406.94 Z" fill="#000000" fill-rule="evenodd" fill-opacity="1" /><path clip-path="url(#clip1000)" d="M 0 0 M1226.56 1368.8 L1261.01 1368.8 L1261.01 1650.28 L1226.56 1650.28 L1226.56 1368.8 Z" fill="#000000" fill-rule="evenodd" fill-opacity="1" /><path clip-path="url(#clip1000)" d="M 0 0 M1381.56 1361.39 Q1352.67 1361.39 1338.04 1389.91 Q1323.6 1418.24 1323.6 1475.28 Q1323.6 1532.13 1338.04 1560.65 Q1352.67 1588.98 1381.56 1588.98 Q1410.63 1588.98 1425.08 1560.65 Q1439.71 1532.13 1439.71 1475.28 Q1439.71 1418.24 1425.08 1389.91 Q1410.63 1361.39 1381.56 1361.39 M1381.56 1331.76 Q1428.04 1331.76 1452.49 1368.61 Q1477.12 1405.28 1477.12 1475.28 Q1477.12 1545.09 1452.49 1581.94 Q1428.04 1618.61 1381.56 1618.61 Q1335.08 1618.61 1310.45 1581.94 Q1286.01 1545.09 1286.01 1475.28 Q1286.01 1405.28 1310.45 1368.61 Q1335.08 1331.76 1381.56 1331.76 Z" fill="#000000" fill-rule="evenodd" fill-opacity="1" /><path clip-path="url(#clip1000)" d="M 0 0 M1578.53 1195.8 L1501.79 1315.72 L1578.53 1315.72 L1578.53 1195.8 M1570.55 1169.32 L1608.77 1169.32 L1608.77 1315.72 L1640.82 1315.72 L1640.82 1340.99 L1608.77 1340.99 L1608.77 1393.96 L1578.53 1393.96 L1578.53 1340.99 L1477.12 1340.99 L1477.12 1311.65 L1570.55 1169.32 Z" fill="#000000" fill-rule="evenodd" fill-opacity="1" /><path clip-path="url(#clip1000)" d="M 0 0 M5701.62 134.036 L5701.62 203.064 Q5668.57 172.277 5630.98 157.045 Q5593.71 141.814 5551.58 141.814 Q5468.62 141.814 5424.54 192.693 Q5380.47 243.249 5380.47 339.174 Q5380.47 434.775 5424.54 485.655 Q5468.62 536.21 5551.58 536.21 Q5593.71 536.21 5630.98 520.979 Q5668.57 505.747 5701.62 474.96 L5701.62 543.34 Q5667.27 566.673 5628.71 578.339 Q5590.47 590.006 5547.69 590.006 Q5437.83 590.006 5374.64 522.923 Q5311.44 455.516 5311.44 339.174 Q5311.44 222.508 5374.64 155.425 Q5437.83 88.018 5547.69 88.018 Q5591.12 88.018 5629.36 99.6847 Q5667.92 111.027 5701.62 134.036 Z" fill="#000000" fill-rule="evenodd" fill-opacity="1" /><path clip-path="url(#clip1000)" d="M 0 0 M6039.96 690.793 L6039.96 737.135 L5695.14 737.135 L5695.14 690.793 L6039.96 690.793 Z" fill="#000000" fill-rule="evenodd" fill-opacity="1" /><path clip-path="url(#clip1000)" d="M 0 0 M6333.89 228.341 L6333.89 284.73 Q6308.61 271.767 6281.39 265.286 Q6254.17 258.804 6225 258.804 Q6180.6 258.804 6158.24 272.415 Q6136.21 286.026 6136.21 313.248 Q6136.21 333.989 6152.08 345.98 Q6167.96 357.646 6215.93 368.341 L6236.34 372.878 Q6299.86 386.489 6326.44 411.442 Q6353.33 436.072 6353.33 480.47 Q6353.33 531.025 6313.15 560.516 Q6273.29 590.006 6203.29 590.006 Q6174.12 590.006 6142.36 584.173 Q6110.93 578.664 6075.93 567.321 L6075.93 505.747 Q6108.98 522.923 6141.07 531.673 Q6173.15 540.099 6204.58 540.099 Q6246.71 540.099 6269.4 525.84 Q6292.08 511.257 6292.08 485.007 Q6292.08 460.701 6275.56 447.738 Q6259.35 434.775 6203.94 422.785 L6183.2 417.924 Q6127.78 406.257 6103.15 382.276 Q6078.52 357.97 6078.52 315.841 Q6078.52 264.637 6114.82 236.767 Q6151.11 208.897 6217.87 208.897 Q6250.93 208.897 6280.09 213.758 Q6309.26 218.619 6333.89 228.341 Z" fill="#000000" fill-rule="evenodd" fill-opacity="1" /><path clip-path="url(#clip1000)" d="M 0 0 M6415.88 217.647 L6475.51 217.647 L6475.51 580.608 L6415.88 580.608 L6415.88 217.647 M6415.88 76.3514 L6475.51 76.3514 L6475.51 151.86 L6415.88 151.86 L6415.88 76.3514 Z" fill="#000000" fill-rule="evenodd" fill-opacity="1" /><path clip-path="url(#clip1000)" d="M 0 0 M6597.04 114.592 L6597.04 217.647 L6719.86 217.647 L6719.86 263.989 L6597.04 263.989 L6597.04 461.025 Q6597.04 505.423 6609.03 518.062 Q6621.34 530.701 6658.61 530.701 L6719.86 530.701 L6719.86 580.608 L6658.61 580.608 Q6589.58 580.608 6563.33 555.006 Q6537.08 529.08 6537.08 461.025 L6537.08 263.989 L6493.33 263.989 L6493.33 217.647 L6537.08 217.647 L6537.08 114.592 L6597.04 114.592 Z" fill="#000000" fill-rule="evenodd" fill-opacity="1" /><path clip-path="url(#clip1000)" d="M 0 0 M7092.87 384.22 L7092.87 413.387 L6818.7 413.387 Q6822.59 474.96 6855.65 507.368 Q6889.03 539.451 6948.33 539.451 Q6982.68 539.451 7014.77 531.025 Q7047.17 522.599 7078.93 505.747 L7078.93 562.136 Q7046.85 575.747 7013.15 582.877 Q6979.44 590.006 6944.77 590.006 Q6857.91 590.006 6807.04 539.451 Q6756.48 488.896 6756.48 402.692 Q6756.48 313.572 6804.44 261.397 Q6852.73 208.897 6934.4 208.897 Q7007.64 208.897 7050.09 256.212 Q7092.87 303.202 7092.87 384.22 M7033.24 366.72 Q7032.59 317.785 7005.69 288.619 Q6979.12 259.452 6935.04 259.452 Q6885.14 259.452 6855 287.647 Q6825.18 315.841 6820.65 367.044 L7033.24 366.72 Z" fill="#000000" fill-rule="evenodd" fill-opacity="1" /><path clip-path="url(#clip1000)" d="M 0 0 M7381.62 498.294 L7449.99 498.294 L7449.99 580.608 L7381.62 580.608 L7381.62 498.294 M7381.62 237.415 L7449.99 237.415 L7449.99 319.73 L7381.62 319.73 L7381.62 237.415 Z" fill="#000000" fill-rule="evenodd" fill-opacity="1" /><path clip-path="url(#clip1000)" d="M 0 0 M7743.28 525.516 L7850.22 525.516 L7850.22 156.397 L7733.88 179.731 L7733.88 120.101 L7849.58 96.768 L7915.04 96.768 L7915.04 525.516 L8021.98 525.516 L8021.98 580.608 L7743.28 580.608 L7743.28 525.516 Z" fill="#000000" fill-rule="evenodd" fill-opacity="1" /><path clip-path="url(#clip1000)" d="M 0 0 M8241.06 312.6 Q8196.98 312.6 8171.06 342.739 Q8145.45 372.878 8145.45 425.377 Q8145.45 477.553 8171.06 508.016 Q8196.98 538.155 8241.06 538.155 Q8285.13 538.155 8310.73 508.016 Q8336.66 477.553 8336.66 425.377 Q8336.66 372.878 8310.73 342.739 Q8285.13 312.6 8241.06 312.6 M8371.01 107.462 L8371.01 167.092 Q8346.38 155.425 8321.1 149.268 Q8296.15 143.11 8271.52 143.11 Q8206.7 143.11 8172.35 186.86 Q8138.32 230.61 8133.46 319.082 Q8152.58 290.887 8181.43 275.98 Q8210.27 260.749 8244.94 260.749 Q8317.86 260.749 8359.99 305.147 Q8402.44 349.22 8402.44 425.377 Q8402.44 499.914 8358.37 544.96 Q8314.3 590.006 8241.06 590.006 Q8157.12 590.006 8112.72 525.84 Q8068.32 461.349 8068.32 339.174 Q8068.32 224.453 8122.77 156.397 Q8177.21 88.018 8268.93 88.018 Q8293.55 88.018 8318.51 92.8791 Q8343.79 97.7402 8371.01 107.462 Z" fill="#000000" fill-rule="evenodd" fill-opacity="1" /><path clip-path="url(#clip1000)" d="M 0 0 M8925.5 176.49 L8809.15 239.36 L8925.5 302.554 L8906.7 334.313 L8797.81 268.526 L8797.81 390.702 L8760.87 390.702 L8760.87 268.526 L8651.98 334.313 L8633.18 302.554 L8749.52 239.36 L8633.18 176.49 L8651.98 144.407 L8760.87 210.193 L8760.87 88.018 L8797.81 88.018 L8797.81 210.193 L8906.7 144.407 L8925.5 176.49 Z" fill="#000000" fill-rule="evenodd" fill-opacity="1" /><path clip-path="url(#clip1000)" d="M 0 0 M9218.78 525.516 L9325.73 525.516 L9325.73 156.397 L9209.38 179.731 L9209.38 120.101 L9325.08 96.768 L9390.54 96.768 L9390.54 525.516 L9497.48 525.516 L9497.48 580.608 L9218.78 580.608 L9218.78 525.516 Z" fill="#000000" fill-rule="evenodd" fill-opacity="1" /><path clip-path="url(#clip1000)" d="M 0 0 M9716.56 312.6 Q9672.48 312.6 9646.56 342.739 Q9620.96 372.878 9620.96 425.377 Q9620.96 477.553 9646.56 508.016 Q9672.48 538.155 9716.56 538.155 Q9760.63 538.155 9786.23 508.016 Q9812.16 477.553 9812.16 425.377 Q9812.16 372.878 9786.23 342.739 Q9760.63 312.6 9716.56 312.6 M9846.51 107.462 L9846.51 167.092 Q9821.88 155.425 9796.6 149.268 Q9771.65 143.11 9747.02 143.11 Q9682.2 143.11 9647.85 186.86 Q9613.83 230.61 9608.96 319.082 Q9628.08 290.887 9656.93 275.98 Q9685.77 260.749 9720.45 260.749 Q9793.36 260.749 9835.49 305.147 Q9877.94 349.22 9877.94 425.377 Q9877.94 499.914 9833.87 544.96 Q9789.8 590.006 9716.56 590.006 Q9632.62 590.006 9588.22 525.84 Q9543.83 461.349 9543.83 339.174 Q9543.83 224.453 9598.27 156.397 Q9652.71 88.018 9744.43 88.018 Q9769.06 88.018 9794.01 92.8791 Q9819.29 97.7402 9846.51 107.462 Z" fill="#000000" fill-rule="evenodd" fill-opacity="1" /><path clip-path="url(#clip1000)" d="M 0 0 M9955.72 498.294 L10024.1 498.294 L10024.1 554.034 L9970.95 657.737 L9929.15 657.737 L9955.72 554.034 L9955.72 498.294 Z" fill="#000000" fill-rule="evenodd" fill-opacity="1" /><path clip-path="url(#clip1000)" d="M 0 0 M10496.6 141.166 Q10425.3 141.166 10383.2 194.314 Q10341.4 247.462 10341.4 339.174 Q10341.4 430.563 10383.2 483.71 Q10425.3 536.858 10496.6 536.858 Q10567.9 536.858 10609.4 483.71 Q10651.2 430.563 10651.2 339.174 Q10651.2 247.462 10609.4 194.314 Q10567.9 141.166 10496.6 141.166 M10588.3 571.858 L10674.5 666.163 L10595.4 666.163 L10523.8 588.71 Q10513.1 589.358 10507.3 589.682 Q10501.8 590.006 10496.6 590.006 Q10394.5 590.006 10333.3 521.951 Q10272.3 453.572 10272.3 339.174 Q10272.3 224.453 10333.3 156.397 Q10394.5 88.018 10496.6 88.018 Q10598.4 88.018 10659.3 156.397 Q10720.2 224.453 10720.2 339.174 Q10720.2 423.433 10686.2 483.386 Q10652.5 543.34 10588.3 571.858 Z" fill="#000000" fill-rule="evenodd" fill-opacity="1" /><path clip-path="url(#clip1000)" d="M 0 0 M11001.5 279.221 L11417 279.221 L11417 333.665 L11001.5 333.665 L11001.5 279.221 M11001.5 411.442 L11417 411.442 L11417 466.535 L11001.5 466.535 L11001.5 411.442 Z" fill="#000000" fill-rule="evenodd" fill-opacity="1" /><path clip-path="url(#clip1000)" d="M 0 0 M11897.2 319.73 Q11944.2 329.776 11970.5 361.535 Q11997.1 393.294 11997.1 439.961 Q11997.1 511.581 11947.8 550.793 Q11898.5 590.006 11807.8 590.006 Q11777.3 590.006 11744.9 583.849 Q11712.8 578.015 11678.5 566.025 L11678.5 502.831 Q11705.7 518.71 11738.1 526.812 Q11770.5 534.914 11805.9 534.914 Q11867.4 534.914 11899.5 510.608 Q11931.9 486.303 11931.9 439.961 Q11931.9 397.183 11901.8 373.202 Q11872 348.896 11818.5 348.896 L11762.1 348.896 L11762.1 295.1 L11821.1 295.1 Q11869.4 295.1 11895 275.98 Q11920.6 256.536 11920.6 220.24 Q11920.6 182.971 11894 163.203 Q11867.7 143.11 11818.5 143.11 Q11791.6 143.11 11760.8 148.944 Q11730 154.777 11693.1 167.092 L11693.1 108.759 Q11730.3 98.3884 11762.7 93.2032 Q11795.5 88.018 11824.3 88.018 Q11898.9 88.018 11942.3 122.046 Q11985.7 155.749 11985.7 213.434 Q11985.7 253.619 11962.7 281.489 Q11939.7 309.035 11897.2 319.73 Z" fill="#000000" fill-rule="evenodd" fill-opacity="1" /><path clip-path="url(#clip1000)" d="M 0 0 M12124.4 525.516 L12352.9 525.516 L12352.9 580.608 L12045.7 580.608 L12045.7 525.516 Q12082.9 486.951 12147.1 422.137 Q12211.6 356.998 12228.1 338.202 Q12259.6 302.878 12271.9 278.573 Q12284.5 253.943 12284.5 230.286 Q12284.5 191.721 12257.3 167.416 Q12230.4 143.11 12187 143.11 Q12156.2 143.11 12121.8 153.805 Q12087.8 164.499 12048.9 186.212 L12048.9 120.101 Q12088.4 104.222 12122.8 96.1199 Q12157.1 88.018 12185.7 88.018 Q12260.8 88.018 12305.6 125.61 Q12350.3 163.203 12350.3 226.073 Q12350.3 255.888 12338.9 282.786 Q12327.9 309.359 12298.4 345.656 Q12290.3 355.054 12246.9 400.1 Q12203.5 444.822 12124.4 525.516 Z" fill="#000000" fill-rule="evenodd" fill-opacity="1" /><path clip-path="url(#clip1000)" d="M 0 0 M12430.7 498.294 L12499 498.294 L12499 554.034 L12445.9 657.737 L12404.1 657.737 L12430.7 554.034 L12430.7 498.294 Z" fill="#000000" fill-rule="evenodd" fill-opacity="1" /><path clip-path="url(#clip1000)" d="M 0 0 M12775.2 96.768 L12840.6 96.768 L12840.6 546.904 Q12840.6 634.404 12807.2 673.941 Q12774.2 713.478 12700.6 713.478 L12675.7 713.478 L12675.7 658.385 L12696.1 658.385 Q12739.5 658.385 12757.3 634.08 Q12775.2 609.775 12775.2 546.904 L12775.2 96.768 Z" fill="#000000" fill-rule="evenodd" fill-opacity="1" /><path clip-path="url(#clip1000)" d="M 0 0 M13178.9 690.793 L13178.9 737.135 L12834.1 737.135 L12834.1 690.793 L13178.9 690.793 Z" fill="#000000" fill-rule="evenodd" fill-opacity="1" /><path clip-path="url(#clip1000)" d="M 0 0 M13389.9 139.87 Q13339.4 139.87 13313.8 189.777 Q13288.5 239.36 13288.5 339.174 Q13288.5 438.664 13313.8 488.571 Q13339.4 538.155 13389.9 538.155 Q13440.8 538.155 13466.1 488.571 Q13491.7 438.664 13491.7 339.174 Q13491.7 239.36 13466.1 189.777 Q13440.8 139.87 13389.9 139.87 M13389.9 88.018 Q13471.3 88.018 13514 152.508 Q13557.1 216.675 13557.1 339.174 Q13557.1 461.349 13514 525.84 Q13471.3 590.006 13389.9 590.006 Q13308.6 590.006 13265.5 525.84 Q13222.7 461.349 13222.7 339.174 Q13222.7 216.675 13265.5 152.508 Q13308.6 88.018 13389.9 88.018 Z" fill="#000000" fill-rule="evenodd" fill-opacity="1" /><path clip-path="url(#clip1000)" d="M 0 0 M13838.4 279.221 L14253.9 279.221 L14253.9 333.665 L13838.4 333.665 L13838.4 279.221 M13838.4 411.442 L14253.9 411.442 L14253.9 466.535 L13838.4 466.535 L13838.4 411.442 Z" fill="#000000" fill-rule="evenodd" fill-opacity="1" /><path clip-path="url(#clip1000)" d="M 0 0 M14547.2 525.516 L14654.1 525.516 L14654.1 156.397 L14537.8 179.731 L14537.8 120.101 L14653.5 96.768 L14718.9 96.768 L14718.9 525.516 L14825.9 525.516 L14825.9 580.608 L14547.2 580.608 L14547.2 525.516 Z" fill="#000000" fill-rule="evenodd" fill-opacity="1" /><path clip-path="url(#clip1000)" d="M 0 0 M14896.9 498.294 L14965.2 498.294 L14965.2 580.608 L14896.9 580.608 L14896.9 498.294 Z" fill="#000000" fill-rule="evenodd" fill-opacity="1" /><path clip-path="url(#clip1000)" d="M 0 0 M15176.2 139.87 Q15125.6 139.87 15100 189.777 Q15074.8 239.36 15074.8 339.174 Q15074.8 438.664 15100 488.571 Q15125.6 538.155 15176.2 538.155 Q15227.1 538.155 15252.4 488.571 Q15278 438.664 15278 339.174 Q15278 239.36 15252.4 189.777 Q15227.1 139.87 15176.2 139.87 M15176.2 88.018 Q15257.5 88.018 15300.3 152.508 Q15343.4 216.675 15343.4 339.174 Q15343.4 461.349 15300.3 525.84 Q15257.5 590.006 15176.2 590.006 Q15094.9 590.006 15051.8 525.84 Q15009 461.349 15009 339.174 Q15009 216.675 15051.8 152.508 Q15094.9 88.018 15176.2 88.018 Z" fill="#000000" fill-rule="evenodd" fill-opacity="1" /><path clip-path="url(#clip1000)" d="M 0 0 M10166.6 12068.2 L10488.2 12068.2 L10488.2 12111.5 L10353.3 12111.5 L10353.3 12448.4 L10301.6 12448.4 L10301.6 12111.5 L10166.6 12111.5 L10166.6 12068.2 Z" fill="#000000" fill-rule="evenodd" fill-opacity="1" /><path clip-path="url(#clip1000)" d="M 0 0 M353.156 6579.88 L407.391 6579.88 Q383.202 6605.85 371.234 6635.39 Q359.267 6664.67 359.267 6697.77 Q359.267 6762.96 399.243 6797.59 Q438.965 6832.22 514.335 6832.22 Q589.451 6832.22 629.427 6797.59 Q669.149 6762.96 669.149 6697.77 Q669.149 6664.67 657.182 6635.39 Q645.214 6605.85 621.024 6579.88 L674.751 6579.88 Q693.084 6606.87 702.251 6637.17 Q711.417 6667.22 711.417 6700.83 Q711.417 6787.15 658.709 6836.8 Q605.747 6886.45 514.335 6886.45 Q422.669 6886.45 369.961 6836.8 Q316.998 6787.15 316.998 6700.83 Q316.998 6666.71 326.165 6636.66 Q335.077 6606.36 353.156 6579.88 Z" fill="#000000" fill-rule="evenodd" fill-opacity="1" /><path clip-path="url(#clip1000)" d="M 0 0 M790.607 6314.05 L827.019 6314.05 L827.019 6584.97 L790.607 6584.97 L790.607 6314.05 Z" fill="#000000" fill-rule="evenodd" fill-opacity="1" /><path clip-path="url(#clip1000)" d="M 0 0 M427.252 6083.1 L471.558 6083.1 Q461.373 6102.96 456.28 6124.35 Q451.187 6145.74 451.187 6168.66 Q451.187 6203.54 461.882 6221.11 Q472.576 6238.42 493.965 6238.42 Q510.261 6238.42 519.682 6225.95 Q528.849 6213.47 537.252 6175.79 L540.817 6159.74 Q551.511 6109.84 571.117 6088.96 Q590.469 6067.82 625.353 6067.82 Q665.075 6067.82 688.246 6099.4 Q711.417 6130.72 711.417 6185.72 Q711.417 6208.63 706.834 6233.59 Q702.505 6258.29 693.594 6285.79 L645.214 6285.79 Q658.709 6259.81 665.584 6234.61 Q672.205 6209.4 672.205 6184.7 Q672.205 6151.6 661.001 6133.77 Q649.543 6115.95 628.918 6115.95 Q609.821 6115.95 599.636 6128.93 Q589.451 6141.67 580.029 6185.21 L576.21 6201.5 Q567.043 6245.05 548.201 6264.4 Q529.104 6283.75 496.002 6283.75 Q455.771 6283.75 433.873 6255.23 Q411.975 6226.71 411.975 6174.26 Q411.975 6148.29 415.794 6125.37 Q419.613 6102.45 427.252 6083.1 Z" fill="#000000" fill-rule="evenodd" fill-opacity="1" /><path clip-path="url(#clip1000)" d="M 0 0 M418.85 6018.68 L418.85 5971.83 L704.033 5971.83 L704.033 6018.68 L418.85 6018.68 M307.832 6018.68 L307.832 5971.83 L367.16 5971.83 L367.16 6018.68 L307.832 6018.68 Z" fill="#000000" fill-rule="evenodd" fill-opacity="1" /><path clip-path="url(#clip1000)" d="M 0 0 M337.878 5876.34 L418.85 5876.34 L418.85 5779.84 L455.261 5779.84 L455.261 5876.34 L610.075 5876.34 Q644.96 5876.34 654.89 5866.92 Q664.821 5857.25 664.821 5827.96 L664.821 5779.84 L704.033 5779.84 L704.033 5827.96 Q704.033 5882.2 683.918 5902.82 Q663.547 5923.45 610.075 5923.45 L455.261 5923.45 L455.261 5957.82 L418.85 5957.82 L418.85 5923.45 L337.878 5923.45 L337.878 5876.34 Z" fill="#000000" fill-rule="evenodd" fill-opacity="1" /><path clip-path="url(#clip1000)" d="M 0 0 M549.729 5486.76 L572.645 5486.76 L572.645 5702.18 Q621.024 5699.12 646.487 5673.15 Q671.695 5646.92 671.695 5600.33 Q671.695 5573.34 665.075 5548.13 Q658.455 5522.66 645.214 5497.71 L689.519 5497.71 Q700.214 5522.92 705.816 5549.4 Q711.417 5575.88 711.417 5603.13 Q711.417 5671.37 671.695 5711.34 Q631.973 5751.07 564.242 5751.07 Q494.22 5751.07 453.224 5713.38 Q411.975 5675.44 411.975 5611.28 Q411.975 5553.73 449.15 5520.37 Q486.071 5486.76 549.729 5486.76 M535.979 5533.61 Q497.53 5534.12 474.613 5555.26 Q451.697 5576.14 451.697 5610.77 Q451.697 5649.98 473.849 5673.66 Q496.002 5697.09 536.233 5700.65 L535.979 5533.61 Z" fill="#000000" fill-rule="evenodd" fill-opacity="1" /><polyline clip-path="url(#clip1002)" style="stroke:#009af9; stroke-width:32; stroke-opacity:1; fill:none" points="
  2313.65,11091.2 2475.54,11091.2 2637.44,11091.2 2799.33,11091.2 2961.22,11091.2 3123.12,11091.2 3285.01,11091.2 3446.91,11091.2 3608.8,11091.2 3770.7,11091.2 
  3932.59,11091.2 4094.49,11091.2 4256.38,11091.2 4418.28,11091.2 4580.17,11091.2 4742.07,11091.2 4903.96,11091.2 5065.86,11091.2 5227.75,11091.2 5389.64,11090.1 
  5551.54,11091.2 5713.43,11091.1 5875.33,11091.2 6037.22,11090.5 6199.12,11086.9 6361.01,11085.7 6522.91,11087 6684.8,11079.4 6846.7,11082.7 7008.59,11068.4 
  7170.49,11078.5 7332.38,11042.3 7494.28,11017.2 7656.17,6244.33 7818.07,8163.83 7979.96,11043.4 8141.85,11048.1 8303.75,11045.2 8465.64,11060.8 8627.54,11050.1 
  8789.43,11062.9 8951.33,11066.5 9113.22,11068.3 9275.12,11074.3 9437.01,11076.1 9598.91,11074.1 9760.8,11073.1 9922.7,11076.3 10084.6,11076.4 10246.5,11079.1 
  10408.4,11081.3 10570.3,11081.2 10732.2,11080.7 10894.1,11081.5 11056,11083.4 11217.9,11083.4 11379.7,11083.7 11541.6,11083.5 11703.5,11083.1 11865.4,11084.1 
  12027.3,11083.8 12189.2,11086.1 12351.1,11085.7 12513,11084.9 12674.9,11085.8 12836.8,11086.2 12998.7,11086.7 13160.6,11086.5 13322.5,11087 13484.4,11087.1 
  13646.3,11086.8 13808.2,11086.7 13970.1,11086.8 14132,11087.3 14293.9,11087.9 14455.7,11088.1 14617.6,11087.9 14779.5,11088.2 14941.4,11088.1 15103.3,11088.2 
  15265.2,11088.4 15427.1,11088.8 15589,11088.6 15750.9,11088.9 15912.8,11088.7 16074.7,11088.8 16236.6,11089.1 16398.5,11088.8 16560.4,11088.9 16722.3,11089 
  16884.2,11089.3 17046.1,11089.2 17208,11089.4 17369.9,11089.2 17531.7,11089.4 17693.6,11089.3 17855.5,11089.4 18017.4,11089.5 18179.3,11089.6 18341.2,11089.5 
  
  "/>
<polyline clip-path="url(#clip1002)" style="stroke:#e26f46; stroke-width:32; stroke-opacity:1; fill:none" points="
  2313.65,11091.2 2475.54,11091.2 2637.44,11091.2 2799.33,11091.2 2961.22,11091.2 3123.12,11091.2 3285.01,11091.2 3446.91,11091.2 3608.8,11091.2 3770.7,11091.2 
  3932.59,11091.2 4094.49,11091.2 4256.38,11091.1 4418.28,11091 4580.17,11090.9 4742.07,11090.8 4903.96,11090.1 5065.86,11089.2 5227.75,11090.2 5389.64,11087.7 
  5551.54,11087.2 5713.43,11087.5 5875.33,11069.7 6037.22,11068.5 6199.12,10991.7 6361.01,10589.2 6522.91,7895.57 6684.8,1282.05 6846.7,3541.57 7008.59,3326.35 
  7170.49,8612.71 7332.38,10771.6 7494.28,10723.1 7656.17,10970.6 7818.07,11017.7 7979.96,11039.9 8141.85,11045.4 8303.75,11055.8 8465.64,11060.1 8627.54,11061.8 
  8789.43,11058.5 8951.33,11068 9113.22,11067.5 9275.12,11068.7 9437.01,11073.4 9598.91,11074.7 9760.8,11074.7 9922.7,11077 10084.6,11078.9 10246.5,11078.4 
  10408.4,11080.3 10570.3,11080.2 10732.2,11081 10894.1,11079.5 11056,11078.3 11217.9,11083.1 11379.7,11083.8 11541.6,11082.5 11703.5,11084.9 11865.4,11084.6 
  12027.3,11084.6 12189.2,11083.2 12351.1,11085.5 12513,11085.4 12674.9,11085 12836.8,11086 12998.7,11086.2 13160.6,11085.7 13322.5,11085.6 13484.4,11086.7 
  13646.3,11087.1 13808.2,11087 13970.1,11086.6 14132,11087.8 14293.9,11087.4 14455.7,11087.7 14617.6,11088 14779.5,11088.4 14941.4,11088.3 15103.3,11088.1 
  15265.2,11087.8 15427.1,11088.7 15589,11088.4 15750.9,11088.6 15912.8,11088.2 16074.7,11088.4 16236.6,11088.3 16398.5,11088.4 16560.4,11088.7 16722.3,11088.8 
  16884.2,11088.9 17046.1,11089.2 17208,11089 17369.9,11089.1 17531.7,11089.2 17693.6,11089.2 17855.5,11089.4 18017.4,11089.1 18179.3,11089.3 18341.2,11089.4 
  
  "/>
<polyline clip-path="url(#clip1002)" style="stroke:#3da44d; stroke-width:32; stroke-opacity:1; fill:none" points="
  2313.65,11091.2 2475.54,11091.2 2637.44,11091.2 2799.33,11091.2 2961.22,11091.1 3123.12,11090.2 3285.01,11088.9 3446.91,11085.5 3608.8,10959.6 3770.7,10981.6 
  3932.59,11021 4094.49,10836.2 4256.38,10904.1 4418.28,11070.6 4580.17,11085.4 4742.07,11085.5 4903.96,11085.3 5065.86,11084.5 5227.75,11084.5 5389.64,11083.2 
  5551.54,11083.8 5713.43,11081.3 5875.33,11078.8 6037.22,11082.6 6199.12,11079.4 6361.01,11077.2 6522.91,11080.4 6684.8,11078.6 6846.7,11069.3 7008.59,11047.8 
  7170.49,11063.5 7332.38,11011.4 7494.28,10900.8 7656.17,10681.7 7818.07,7671.24 7979.96,10341.4 8141.85,10993.5 8303.75,11046.5 8465.64,11040.2 8627.54,11034.6 
  8789.43,11062.1 8951.33,11043.9 9113.22,11054.4 9275.12,11059.4 9437.01,11064 9598.91,11063.8 9760.8,11066.6 9922.7,11071.3 10084.6,11068.1 10246.5,11072.7 
  10408.4,11068 10570.3,11073.2 10732.2,11073.4 10894.1,11074.5 11056,11075.6 11217.9,11077.2 11379.7,11073.3 11541.6,11076.7 11703.5,11080.2 11865.4,11079.8 
  12027.3,11079.8 12189.2,11081.8 12351.1,11080.3 12513,11083.4 12674.9,11082 12836.8,11084.3 12998.7,11084 13160.6,11084.4 13322.5,11083.8 13484.4,11084 
  13646.3,11084.6 13808.2,11084.8 13970.1,11084.2 14132,11083.6 14293.9,11084.6 14455.7,11084.7 14617.6,11086.1 14779.5,11085.9 14941.4,11086.6 15103.3,11086.3 
  15265.2,11087.1 15427.1,11087.1 15589,11085.1 15750.9,11086.9 15912.8,11086.9 16074.7,11086.9 16236.6,11086.9 16398.5,11087.4 16560.4,11087.3 16722.3,11087.3 
  16884.2,11087.9 17046.1,11088 17208,11087.7 17369.9,11087.7 17531.7,11087.7 17693.6,11088.1 17855.5,11088.3 18017.4,11088.1 18179.3,11088.1 18341.2,11088.8 
  
  "/>
<polyline clip-path="url(#clip1002)" style="stroke:#c271d2; stroke-width:32; stroke-opacity:1; fill:none" points="
  2313.65,11091.2 2475.54,11091.2 2637.44,11091.2 2799.33,11091.2 2961.22,11091.2 3123.12,11091.2 3285.01,11091.2 3446.91,11091.2 3608.8,11091.2 3770.7,11091.2 
  3932.59,11091.2 4094.49,11091.1 4256.38,11091.1 4418.28,11091.1 4580.17,11091.1 4742.07,11091.1 4903.96,11091.1 5065.86,11091 5227.75,11091 5389.64,11091 
  5551.54,11090.5 5713.43,11091 5875.33,11089.9 6037.22,11090.8 6199.12,11087.2 6361.01,11089.4 6522.91,11088.1 6684.8,11086.6 6846.7,11085 7008.59,11082.8 
  7170.49,11068.7 7332.38,11052 7494.28,11064 7656.17,10948.1 7818.07,11041.2 7979.96,10674.8 8141.85,10581.1 8303.75,10963.6 8465.64,10899.3 8627.54,10981.8 
  8789.43,11013.2 8951.33,10975.4 9113.22,11008.5 9275.12,11045.1 9437.01,11032.5 9598.91,11049.8 9760.8,11049.4 9922.7,11057 10084.6,11064.9 10246.5,11068.1 
  10408.4,11064.9 10570.3,11065.9 10732.2,11060 10894.1,11060.1 11056,11064.1 11217.9,11065.5 11379.7,11067.9 11541.6,11070.9 11703.5,11072.4 11865.4,11073.5 
  12027.3,11078.8 12189.2,11076.6 12351.1,11078.3 12513,11078 12674.9,11078.2 12836.8,11077.2 12998.7,11079.6 13160.6,11080.2 13322.5,11081 13484.4,11079.9 
  13646.3,11082.7 13808.2,11082.8 13970.1,11082.3 14132,11081.5 14293.9,11081.3 14455.7,11083 14617.6,11081.6 14779.5,11083.9 14941.4,11084 15103.3,11082.9 
  15265.2,11084.5 15427.1,11084.3 15589,11084.8 15750.9,11085.3 15912.8,11084.7 16074.7,11085.6 16236.6,11085.5 16398.5,11084.6 16560.4,11086.7 16722.3,11085.6 
  16884.2,11085.7 17046.1,11085.3 17208,11086.8 17369.9,11086.2 17531.7,11086.9 17693.6,11086.4 17855.5,11087.1 18017.4,11086.5 18179.3,11086.6 18341.2,11088 
  
  "/>
<path clip-path="url(#clip1000)" d="
M2408.82 4075.14 L5663.81 4075.14 L5663.81 1655.94 L2408.82 1655.94  Z
  " fill="#ffffff" fill-rule="evenodd" fill-opacity="1"/>
<polyline clip-path="url(#clip1000)" style="stroke:#000000; stroke-width:32; stroke-opacity:1; fill:none" points="
  2408.82,4075.14 5663.81,4075.14 5663.81,1655.94 2408.82,1655.94 2408.82,4075.14 
  "/>
<polyline clip-path="url(#clip1000)" style="stroke:#009af9; stroke-width:32; stroke-opacity:1; fill:none" points="
  2600.82,2139.78 3752.82,2139.78 
  "/>
<path clip-path="url(#clip1000)" d="M 0 0 M4001.67 2001.54 L4039.08 2001.54 L4039.08 2258.76 Q4039.08 2308.76 4020 2331.35 Q4001.11 2353.94 3959.08 2353.94 L3944.82 2353.94 L3944.82 2322.46 L3956.49 2322.46 Q3981.3 2322.46 3991.49 2308.57 Q4001.67 2294.68 4001.67 2258.76 L4001.67 2001.54 Z" fill="#000000" fill-rule="evenodd" fill-opacity="1" /><path clip-path="url(#clip1000)" d="M 0 0 M4086.11 2246.54 L4147.22 2246.54 L4147.22 2035.61 L4080.74 2048.94 L4080.74 2014.87 L4146.85 2001.54 L4184.26 2001.54 L4184.26 2246.54 L4245.37 2246.54 L4245.37 2278.02 L4086.11 2278.02 L4086.11 2246.54 Z" fill="#000000" fill-rule="evenodd" fill-opacity="1" /><path clip-path="url(#clip1000)" d="M 0 0 M4406.11 2105.8 L4643.52 2105.8 L4643.52 2136.91 L4406.11 2136.91 L4406.11 2105.8 M4406.11 2181.35 L4643.52 2181.35 L4643.52 2212.83 L4406.11 2212.83 L4406.11 2181.35 Z" fill="#000000" fill-rule="evenodd" fill-opacity="1" /><path clip-path="url(#clip1000)" d="M 0 0 M4884.63 2026.17 Q4855.74 2026.17 4841.11 2054.68 Q4826.67 2083.02 4826.67 2140.05 Q4826.67 2196.91 4841.11 2225.42 Q4855.74 2253.76 4884.63 2253.76 Q4913.7 2253.76 4928.15 2225.42 Q4942.78 2196.91 4942.78 2140.05 Q4942.78 2083.02 4928.15 2054.68 Q4913.7 2026.17 4884.63 2026.17 M4884.63 1996.54 Q4931.11 1996.54 4955.55 2033.39 Q4980.18 2070.06 4980.18 2140.05 Q4980.18 2209.87 4955.55 2246.72 Q4931.11 2283.39 4884.63 2283.39 Q4838.15 2283.39 4813.52 2246.72 Q4789.07 2209.87 4789.07 2140.05 Q4789.07 2070.06 4813.52 2033.39 Q4838.15 1996.54 4884.63 1996.54 Z" fill="#000000" fill-rule="evenodd" fill-opacity="1" /><path clip-path="url(#clip1000)" d="M 0 0 M5020.74 2230.98 L5059.81 2230.98 L5059.81 2278.02 L5020.74 2278.02 L5020.74 2230.98 Z" fill="#000000" fill-rule="evenodd" fill-opacity="1" /><path clip-path="url(#clip1000)" d="M 0 0 M5180.37 2026.17 Q5151.48 2026.17 5136.85 2054.68 Q5122.4 2083.02 5122.4 2140.05 Q5122.4 2196.91 5136.85 2225.42 Q5151.48 2253.76 5180.37 2253.76 Q5209.44 2253.76 5223.89 2225.42 Q5238.52 2196.91 5238.52 2140.05 Q5238.52 2083.02 5223.89 2054.68 Q5209.44 2026.17 5180.37 2026.17 M5180.37 1996.54 Q5226.85 1996.54 5251.29 2033.39 Q5275.92 2070.06 5275.92 2140.05 Q5275.92 2209.87 5251.29 2246.72 Q5226.85 2283.39 5180.37 2283.39 Q5133.89 2283.39 5109.26 2246.72 Q5084.81 2209.87 5084.81 2140.05 Q5084.81 2070.06 5109.26 2033.39 Q5133.89 1996.54 5180.37 1996.54 Z" fill="#000000" fill-rule="evenodd" fill-opacity="1" /><polyline clip-path="url(#clip1000)" style="stroke:#e26f46; stroke-width:32; stroke-opacity:1; fill:none" points="
  2600.82,2623.62 3752.82,2623.62 
  "/>
<path clip-path="url(#clip1000)" d="M 0 0 M4001.67 2485.38 L4039.08 2485.38 L4039.08 2742.6 Q4039.08 2792.6 4020 2815.19 Q4001.11 2837.78 3959.08 2837.78 L3944.82 2837.78 L3944.82 2806.3 L3956.49 2806.3 Q3981.3 2806.3 3991.49 2792.41 Q4001.67 2778.52 4001.67 2742.6 L4001.67 2485.38 Z" fill="#000000" fill-rule="evenodd" fill-opacity="1" /><path clip-path="url(#clip1000)" d="M 0 0 M4086.11 2730.38 L4147.22 2730.38 L4147.22 2519.45 L4080.74 2532.78 L4080.74 2498.71 L4146.85 2485.38 L4184.26 2485.38 L4184.26 2730.38 L4245.37 2730.38 L4245.37 2761.86 L4086.11 2761.86 L4086.11 2730.38 Z" fill="#000000" fill-rule="evenodd" fill-opacity="1" /><path clip-path="url(#clip1000)" d="M 0 0 M4406.11 2589.64 L4643.52 2589.64 L4643.52 2620.75 L4406.11 2620.75 L4406.11 2589.64 M4406.11 2665.19 L4643.52 2665.19 L4643.52 2696.67 L4406.11 2696.67 L4406.11 2665.19 Z" fill="#000000" fill-rule="evenodd" fill-opacity="1" /><path clip-path="url(#clip1000)" d="M 0 0 M4884.63 2510.01 Q4855.74 2510.01 4841.11 2538.52 Q4826.67 2566.86 4826.67 2623.89 Q4826.67 2680.75 4841.11 2709.26 Q4855.74 2737.6 4884.63 2737.6 Q4913.7 2737.6 4928.15 2709.26 Q4942.78 2680.75 4942.78 2623.89 Q4942.78 2566.86 4928.15 2538.52 Q4913.7 2510.01 4884.63 2510.01 M4884.63 2480.38 Q4931.11 2480.38 4955.55 2517.23 Q4980.18 2553.9 4980.18 2623.89 Q4980.18 2693.71 4955.55 2730.56 Q4931.11 2767.23 4884.63 2767.23 Q4838.15 2767.23 4813.52 2730.56 Q4789.07 2693.71 4789.07 2623.89 Q4789.07 2553.9 4813.52 2517.23 Q4838.15 2480.38 4884.63 2480.38 Z" fill="#000000" fill-rule="evenodd" fill-opacity="1" /><path clip-path="url(#clip1000)" d="M 0 0 M5020.74 2714.82 L5059.81 2714.82 L5059.81 2761.86 L5020.74 2761.86 L5020.74 2714.82 Z" fill="#000000" fill-rule="evenodd" fill-opacity="1" /><path clip-path="url(#clip1000)" d="M 0 0 M5203.15 2517.97 L5108.7 2665.56 L5203.15 2665.56 L5203.15 2517.97 M5193.33 2485.38 L5240.37 2485.38 L5240.37 2665.56 L5279.81 2665.56 L5279.81 2696.67 L5240.37 2696.67 L5240.37 2761.86 L5203.15 2761.86 L5203.15 2696.67 L5078.33 2696.67 L5078.33 2660.56 L5193.33 2485.38 Z" fill="#000000" fill-rule="evenodd" fill-opacity="1" /><polyline clip-path="url(#clip1000)" style="stroke:#3da44d; stroke-width:32; stroke-opacity:1; fill:none" points="
  2600.82,3107.46 3752.82,3107.46 
  "/>
<path clip-path="url(#clip1000)" d="M 0 0 M4001.67 2969.22 L4039.08 2969.22 L4039.08 3226.44 Q4039.08 3276.44 4020 3299.03 Q4001.11 3321.62 3959.08 3321.62 L3944.82 3321.62 L3944.82 3290.14 L3956.49 3290.14 Q3981.3 3290.14 3991.49 3276.25 Q4001.67 3262.36 4001.67 3226.44 L4001.67 2969.22 Z" fill="#000000" fill-rule="evenodd" fill-opacity="1" /><path clip-path="url(#clip1000)" d="M 0 0 M4086.11 3214.22 L4147.22 3214.22 L4147.22 3003.29 L4080.74 3016.62 L4080.74 2982.55 L4146.85 2969.22 L4184.26 2969.22 L4184.26 3214.22 L4245.37 3214.22 L4245.37 3245.7 L4086.11 3245.7 L4086.11 3214.22 Z" fill="#000000" fill-rule="evenodd" fill-opacity="1" /><path clip-path="url(#clip1000)" d="M 0 0 M4406.11 3073.48 L4643.52 3073.48 L4643.52 3104.59 L4406.11 3104.59 L4406.11 3073.48 M4406.11 3149.03 L4643.52 3149.03 L4643.52 3180.51 L4406.11 3180.51 L4406.11 3149.03 Z" fill="#000000" fill-rule="evenodd" fill-opacity="1" /><path clip-path="url(#clip1000)" d="M 0 0 M4884.63 2993.85 Q4855.74 2993.85 4841.11 3022.36 Q4826.67 3050.7 4826.67 3107.73 Q4826.67 3164.59 4841.11 3193.1 Q4855.74 3221.44 4884.63 3221.44 Q4913.7 3221.44 4928.15 3193.1 Q4942.78 3164.59 4942.78 3107.73 Q4942.78 3050.7 4928.15 3022.36 Q4913.7 2993.85 4884.63 2993.85 M4884.63 2964.22 Q4931.11 2964.22 4955.55 3001.07 Q4980.18 3037.74 4980.18 3107.73 Q4980.18 3177.55 4955.55 3214.4 Q4931.11 3251.07 4884.63 3251.07 Q4838.15 3251.07 4813.52 3214.4 Q4789.07 3177.55 4789.07 3107.73 Q4789.07 3037.74 4813.52 3001.07 Q4838.15 2964.22 4884.63 2964.22 Z" fill="#000000" fill-rule="evenodd" fill-opacity="1" /><path clip-path="url(#clip1000)" d="M 0 0 M5020.74 3198.66 L5059.81 3198.66 L5059.81 3245.7 L5020.74 3245.7 L5020.74 3198.66 Z" fill="#000000" fill-rule="evenodd" fill-opacity="1" /><path clip-path="url(#clip1000)" d="M 0 0 M5180.37 3114.4 Q5153.7 3114.4 5138.33 3128.66 Q5123.15 3142.92 5123.15 3167.92 Q5123.15 3192.92 5138.33 3207.18 Q5153.7 3221.44 5180.37 3221.44 Q5207.03 3221.44 5222.4 3207.18 Q5237.77 3192.73 5237.77 3167.92 Q5237.77 3142.92 5222.4 3128.66 Q5207.22 3114.4 5180.37 3114.4 M5142.96 3098.48 Q5118.89 3092.55 5105.37 3076.07 Q5092.03 3059.59 5092.03 3035.88 Q5092.03 3002.74 5115.55 2983.48 Q5139.26 2964.22 5180.37 2964.22 Q5221.66 2964.22 5245.18 2983.48 Q5268.7 3002.74 5268.7 3035.88 Q5268.7 3059.59 5255.18 3076.07 Q5241.85 3092.55 5217.96 3098.48 Q5245 3104.77 5260 3123.11 Q5275.18 3141.44 5275.18 3167.92 Q5275.18 3208.1 5250.55 3229.59 Q5226.11 3251.07 5180.37 3251.07 Q5134.63 3251.07 5110 3229.59 Q5085.55 3208.1 5085.55 3167.92 Q5085.55 3141.44 5100.74 3123.11 Q5115.92 3104.77 5142.96 3098.48 M5129.26 3039.4 Q5129.26 3060.88 5142.59 3072.92 Q5156.11 3084.96 5180.37 3084.96 Q5204.44 3084.96 5217.96 3072.92 Q5231.66 3060.88 5231.66 3039.4 Q5231.66 3017.92 5217.96 3005.88 Q5204.44 2993.85 5180.37 2993.85 Q5156.11 2993.85 5142.59 3005.88 Q5129.26 3017.92 5129.26 3039.4 Z" fill="#000000" fill-rule="evenodd" fill-opacity="1" /><polyline clip-path="url(#clip1000)" style="stroke:#c271d2; stroke-width:32; stroke-opacity:1; fill:none" points="
  2600.82,3591.3 3752.82,3591.3 
  "/>
<path clip-path="url(#clip1000)" d="M 0 0 M4001.67 3453.06 L4039.08 3453.06 L4039.08 3710.28 Q4039.08 3760.28 4020 3782.87 Q4001.11 3805.46 3959.08 3805.46 L3944.82 3805.46 L3944.82 3773.98 L3956.49 3773.98 Q3981.3 3773.98 3991.49 3760.09 Q4001.67 3746.2 4001.67 3710.28 L4001.67 3453.06 Z" fill="#000000" fill-rule="evenodd" fill-opacity="1" /><path clip-path="url(#clip1000)" d="M 0 0 M4086.11 3698.06 L4147.22 3698.06 L4147.22 3487.13 L4080.74 3500.46 L4080.74 3466.39 L4146.85 3453.06 L4184.26 3453.06 L4184.26 3698.06 L4245.37 3698.06 L4245.37 3729.54 L4086.11 3729.54 L4086.11 3698.06 Z" fill="#000000" fill-rule="evenodd" fill-opacity="1" /><path clip-path="url(#clip1000)" d="M 0 0 M4406.11 3557.32 L4643.52 3557.32 L4643.52 3588.43 L4406.11 3588.43 L4406.11 3557.32 M4406.11 3632.87 L4643.52 3632.87 L4643.52 3664.35 L4406.11 3664.35 L4406.11 3632.87 Z" fill="#000000" fill-rule="evenodd" fill-opacity="1" /><path clip-path="url(#clip1000)" d="M 0 0 M4811.11 3698.06 L4872.22 3698.06 L4872.22 3487.13 L4805.74 3500.46 L4805.74 3466.39 L4871.85 3453.06 L4909.26 3453.06 L4909.26 3698.06 L4970.37 3698.06 L4970.37 3729.54 L4811.11 3729.54 L4811.11 3698.06 Z" fill="#000000" fill-rule="evenodd" fill-opacity="1" /><path clip-path="url(#clip1000)" d="M 0 0 M5010.92 3682.5 L5050 3682.5 L5050 3729.54 L5010.92 3729.54 L5010.92 3682.5 Z" fill="#000000" fill-rule="evenodd" fill-opacity="1" /><path clip-path="url(#clip1000)" d="M 0 0 M5170.55 3477.69 Q5141.66 3477.69 5127.03 3506.2 Q5112.59 3534.54 5112.59 3591.57 Q5112.59 3648.43 5127.03 3676.94 Q5141.66 3705.28 5170.55 3705.28 Q5199.63 3705.28 5214.07 3676.94 Q5228.7 3648.43 5228.7 3591.57 Q5228.7 3534.54 5214.07 3506.2 Q5199.63 3477.69 5170.55 3477.69 M5170.55 3448.06 Q5217.03 3448.06 5241.48 3484.91 Q5266.11 3521.58 5266.11 3591.57 Q5266.11 3661.39 5241.48 3698.24 Q5217.03 3734.91 5170.55 3734.91 Q5124.07 3734.91 5099.44 3698.24 Q5075 3661.39 5075 3591.57 Q5075 3521.58 5099.44 3484.91 Q5124.07 3448.06 5170.55 3448.06 Z" fill="#000000" fill-rule="evenodd" fill-opacity="1" /></svg>
