<?xml version="1.0" encoding="utf-8"?>
<svg xmlns="http://www.w3.org/2000/svg" xmlns:xlink="http://www.w3.org/1999/xlink" width="4800" height="3200" viewBox="0 0 19200 12800">
<defs>
  <clipPath id="clip0600">
    <rect x="0" y="0" width="19200" height="12800"/>
  </clipPath>
</defs>
<path clip-path="url(#clip0600)" d="
M0 12800 L19200 12800 L19200 0 L0 0  Z
  " fill="#ffffff" fill-rule="evenodd" fill-opacity="1"/>
<defs>
  <clipPath id="clip0601">
    <rect x="3840" y="0" width="13441" height="12800"/>
  </clipPath>
</defs>
<path clip-path="url(#clip0600)" d="
M1805.78 11385.4 L18822 11385.4 L18822 987.777 L1805.78 987.777  Z
  " fill="#ffffff" fill-rule="evenodd" fill-opacity="1"/>
<defs>
  <clipPath id="clip0602">
    <rect x="1805" y="987" width="17017" height="10399"/>
  </clipPath>
</defs>
<polyline clip-path="url(#clip0602)" style="stroke:#000000; stroke-width:16; stroke-opacity:0.1; fill:none" points="
  2179.64,11385.4 2179.64,987.777 
  "/>
<polyline clip-path="url(#clip0602)" style="stroke:#000000; stroke-width:16; stroke-opacity:0.1; fill:none" points="
  7566.58,11385.4 7566.58,987.777 
  "/>
<polyline clip-path="url(#clip0602)" style="stroke:#000000; stroke-width:16; stroke-opacity:0.1; fill:none" points="
  12953.5,11385.4 12953.5,987.777 
  "/>
<polyline clip-path="url(#clip0602)" style="stroke:#000000; stroke-width:16; stroke-opacity:0.1; fill:none" points="
  18340.5,11385.4 18340.5,987.777 
  "/>
<polyline clip-path="url(#clip0602)" style="stroke:#000000; stroke-width:16; stroke-opacity:0.1; fill:none" points="
  1805.78,11091.2 18822,11091.2 
  "/>
<polyline clip-path="url(#clip0602)" style="stroke:#000000; stroke-width:16; stroke-opacity:0.1; fill:none" points="
  1805.78,8483.13 18822,8483.13 
  "/>
<polyline clip-path="url(#clip0602)" style="stroke:#000000; stroke-width:16; stroke-opacity:0.1; fill:none" points="
  1805.78,5875.09 18822,5875.09 
  "/>
<polyline clip-path="url(#clip0602)" style="stroke:#000000; stroke-width:16; stroke-opacity:0.1; fill:none" points="
  1805.78,3267.06 18822,3267.06 
  "/>
<polyline clip-path="url(#clip0600)" style="stroke:#000000; stroke-width:32; stroke-opacity:1; fill:none" points="
  1805.78,11385.4 18822,11385.4 
  "/>
<polyline clip-path="url(#clip0600)" style="stroke:#000000; stroke-width:32; stroke-opacity:1; fill:none" points="
  1805.78,11385.4 1805.78,987.777 
  "/>
<polyline clip-path="url(#clip0600)" style="stroke:#000000; stroke-width:32; stroke-opacity:1; fill:none" points="
  2179.64,11385.4 2179.64,11260.7 
  "/>
<polyline clip-path="url(#clip0600)" style="stroke:#000000; stroke-width:32; stroke-opacity:1; fill:none" points="
  7566.58,11385.4 7566.58,11260.7 
  "/>
<polyline clip-path="url(#clip0600)" style="stroke:#000000; stroke-width:32; stroke-opacity:1; fill:none" points="
  12953.5,11385.4 12953.5,11260.7 
  "/>
<polyline clip-path="url(#clip0600)" style="stroke:#000000; stroke-width:32; stroke-opacity:1; fill:none" points="
  18340.5,11385.4 18340.5,11260.7 
  "/>
<polyline clip-path="url(#clip0600)" style="stroke:#000000; stroke-width:32; stroke-opacity:1; fill:none" points="
  1805.78,11091.2 2009.98,11091.2 
  "/>
<polyline clip-path="url(#clip0600)" style="stroke:#000000; stroke-width:32; stroke-opacity:1; fill:none" points="
  1805.78,8483.13 2009.98,8483.13 
  "/>
<polyline clip-path="url(#clip0600)" style="stroke:#000000; stroke-width:32; stroke-opacity:1; fill:none" points="
  1805.78,5875.09 2009.98,5875.09 
  "/>
<polyline clip-path="url(#clip0600)" style="stroke:#000000; stroke-width:32; stroke-opacity:1; fill:none" points="
  1805.78,3267.06 2009.98,3267.06 
  "/>
<path clip-path="url(#clip0600)" d="M 0 0 M2031.77 11561.4 Q2002.88 11561.4 1988.25 11589.9 Q1973.8 11618.2 1973.8 11675.3 Q1973.8 11732.1 1988.25 11760.6 Q2002.88 11789 2031.77 11789 Q2060.84 11789 2075.28 11760.6 Q2089.91 11732.1 2089.91 11675.3 Q2089.91 11618.2 2075.28 11589.9 Q2060.84 11561.4 2031.77 11561.4 M2031.77 11531.7 Q2078.25 11531.7 2102.69 11568.6 Q2127.32 11605.3 2127.32 11675.3 Q2127.32 11745.1 2102.69 11781.9 Q2078.25 11818.6 2031.77 11818.6 Q1985.28 11818.6 1960.66 11781.9 Q1936.21 11745.1 1936.21 11675.3 Q1936.21 11605.3 1960.66 11568.6 Q1985.28 11531.7 2031.77 11531.7 Z" fill="#000000" fill-rule="evenodd" fill-opacity="1" /><path clip-path="url(#clip0600)" d="M 0 0 M2167.88 11766.2 L2206.95 11766.2 L2206.95 11813.2 L2167.88 11813.2 L2167.88 11766.2 Z" fill="#000000" fill-rule="evenodd" fill-opacity="1" /><path clip-path="url(#clip0600)" d="M 0 0 M2327.5 11561.4 Q2298.62 11561.4 2283.99 11589.9 Q2269.54 11618.2 2269.54 11675.3 Q2269.54 11732.1 2283.99 11760.6 Q2298.62 11789 2327.5 11789 Q2356.58 11789 2371.02 11760.6 Q2385.65 11732.1 2385.65 11675.3 Q2385.65 11618.2 2371.02 11589.9 Q2356.58 11561.4 2327.5 11561.4 M2327.5 11531.7 Q2373.99 11531.7 2398.43 11568.6 Q2423.06 11605.3 2423.06 11675.3 Q2423.06 11745.1 2398.43 11781.9 Q2373.99 11818.6 2327.5 11818.6 Q2281.02 11818.6 2256.39 11781.9 Q2231.95 11745.1 2231.95 11675.3 Q2231.95 11605.3 2256.39 11568.6 Q2281.02 11531.7 2327.5 11531.7 Z" fill="#000000" fill-rule="evenodd" fill-opacity="1" /><path clip-path="url(#clip0600)" d="M 0 0 M7422.69 11561.4 Q7393.8 11561.4 7379.17 11589.9 Q7364.72 11618.2 7364.72 11675.3 Q7364.72 11732.1 7379.17 11760.6 Q7393.8 11789 7422.69 11789 Q7451.76 11789 7466.21 11760.6 Q7480.83 11732.1 7480.83 11675.3 Q7480.83 11618.2 7466.21 11589.9 Q7451.76 11561.4 7422.69 11561.4 M7422.69 11531.7 Q7469.17 11531.7 7493.61 11568.6 Q7518.24 11605.3 7518.24 11675.3 Q7518.24 11745.1 7493.61 11781.9 Q7469.17 11818.6 7422.69 11818.6 Q7376.21 11818.6 7351.58 11781.9 Q7327.13 11745.1 7327.13 11675.3 Q7327.13 11605.3 7351.58 11568.6 Q7376.21 11531.7 7422.69 11531.7 Z" fill="#000000" fill-rule="evenodd" fill-opacity="1" /><path clip-path="url(#clip0600)" d="M 0 0 M7558.8 11766.2 L7597.87 11766.2 L7597.87 11813.2 L7558.8 11813.2 L7558.8 11766.2 Z" fill="#000000" fill-rule="evenodd" fill-opacity="1" /><path clip-path="url(#clip0600)" d="M 0 0 M7638.8 11536.7 L7785.65 11536.7 L7785.65 11568.2 L7673.06 11568.2 L7673.06 11636 Q7681.2 11633.2 7689.35 11631.9 Q7697.5 11630.4 7705.65 11630.4 Q7751.94 11630.4 7778.98 11655.8 Q7806.02 11681.2 7806.02 11724.5 Q7806.02 11769.1 7778.24 11794 Q7750.46 11818.6 7699.91 11818.6 Q7682.5 11818.6 7664.35 11815.6 Q7646.39 11812.7 7627.13 11806.7 L7627.13 11769.1 Q7643.8 11778.2 7661.57 11782.7 Q7679.35 11787.1 7699.17 11787.1 Q7731.2 11787.1 7749.91 11770.3 Q7768.61 11753.4 7768.61 11724.5 Q7768.61 11695.6 7749.91 11678.8 Q7731.2 11661.9 7699.17 11661.9 Q7684.17 11661.9 7669.17 11665.3 Q7654.35 11668.6 7638.8 11675.6 L7638.8 11536.7 Z" fill="#000000" fill-rule="evenodd" fill-opacity="1" /><path clip-path="url(#clip0600)" d="M 0 0 M12728.7 11781.7 L12789.8 11781.7 L12789.8 11570.8 L12723.3 11584.1 L12723.3 11550.1 L12789.4 11536.7 L12826.8 11536.7 L12826.8 11781.7 L12888 11781.7 L12888 11813.2 L12728.7 11813.2 L12728.7 11781.7 Z" fill="#000000" fill-rule="evenodd" fill-opacity="1" /><path clip-path="url(#clip0600)" d="M 0 0 M12928.5 11766.2 L12967.6 11766.2 L12967.6 11813.2 L12928.5 11813.2 L12928.5 11766.2 Z" fill="#000000" fill-rule="evenodd" fill-opacity="1" /><path clip-path="url(#clip0600)" d="M 0 0 M13088.1 11561.4 Q13059.3 11561.4 13044.6 11589.9 Q13030.2 11618.2 13030.2 11675.3 Q13030.2 11732.1 13044.6 11760.6 Q13059.3 11789 13088.1 11789 Q13117.2 11789 13131.7 11760.6 Q13146.3 11732.1 13146.3 11675.3 Q13146.3 11618.2 13131.7 11589.9 Q13117.2 11561.4 13088.1 11561.4 M13088.1 11531.7 Q13134.6 11531.7 13159.1 11568.6 Q13183.7 11605.3 13183.7 11675.3 Q13183.7 11745.1 13159.1 11781.9 Q13134.6 11818.6 13088.1 11818.6 Q13041.7 11818.6 13017 11781.9 Q12992.6 11745.1 12992.6 11675.3 Q12992.6 11605.3 13017 11568.6 Q13041.7 11531.7 13088.1 11531.7 Z" fill="#000000" fill-rule="evenodd" fill-opacity="1" /><path clip-path="url(#clip0600)" d="M 0 0 M18119.6 11781.7 L18180.7 11781.7 L18180.7 11570.8 L18114.3 11584.1 L18114.3 11550.1 L18180.4 11536.7 L18217.8 11536.7 L18217.8 11781.7 L18278.9 11781.7 L18278.9 11813.2 L18119.6 11813.2 L18119.6 11781.7 Z" fill="#000000" fill-rule="evenodd" fill-opacity="1" /><path clip-path="url(#clip0600)" d="M 0 0 M18319.4 11766.2 L18358.5 11766.2 L18358.5 11813.2 L18319.4 11813.2 L18319.4 11766.2 Z" fill="#000000" fill-rule="evenodd" fill-opacity="1" /><path clip-path="url(#clip0600)" d="M 0 0 M18399.4 11536.7 L18546.3 11536.7 L18546.3 11568.2 L18433.7 11568.2 L18433.7 11636 Q18441.8 11633.2 18450 11631.9 Q18458.1 11630.4 18466.3 11630.4 Q18512.6 11630.4 18539.6 11655.8 Q18566.7 11681.2 18566.7 11724.5 Q18566.7 11769.1 18538.9 11794 Q18511.1 11818.6 18460.5 11818.6 Q18443.1 11818.6 18425 11815.6 Q18407 11812.7 18387.8 11806.7 L18387.8 11769.1 Q18404.4 11778.2 18422.2 11782.7 Q18440 11787.1 18459.8 11787.1 Q18491.8 11787.1 18510.5 11770.3 Q18529.3 11753.4 18529.3 11724.5 Q18529.3 11695.6 18510.5 11678.8 Q18491.8 11661.9 18459.8 11661.9 Q18444.8 11661.9 18429.8 11665.3 Q18415 11668.6 18399.4 11675.6 L18399.4 11536.7 Z" fill="#000000" fill-rule="evenodd" fill-opacity="1" /><path clip-path="url(#clip0600)" d="M 0 0 M1014.9 11110.3 L1114.71 11110.3 L1114.71 11140.7 L1014.9 11140.7 L1014.9 11110.3 Z" fill="#000000" fill-rule="evenodd" fill-opacity="1" /><path clip-path="url(#clip0600)" d="M 0 0 M1187.49 11197.9 L1318.04 11197.9 L1318.04 11229.4 L1142.49 11229.4 L1142.49 11197.9 Q1163.78 11175.9 1200.45 11138.9 Q1237.3 11101.6 1246.75 11090.9 Q1264.71 11070.7 1271.75 11056.8 Q1278.97 11042.7 1278.97 11029.2 Q1278.97 11007.2 1263.41 10993.3 Q1248.04 10979.4 1223.23 10979.4 Q1205.64 10979.4 1186.01 10985.5 Q1166.56 10991.6 1144.34 11004 L1144.34 10966.3 Q1166.93 10957.2 1186.56 10952.6 Q1206.19 10947.9 1222.49 10947.9 Q1265.45 10947.9 1291.01 10969.4 Q1316.56 10990.9 1316.56 11026.8 Q1316.56 11043.9 1310.08 11059.2 Q1303.78 11074.4 1286.93 11095.1 Q1282.3 11100.5 1257.49 11126.3 Q1232.67 11151.8 1187.49 11197.9 Z" fill="#000000" fill-rule="evenodd" fill-opacity="1" /><path clip-path="url(#clip0600)" d="M 0 0 M1358.6 11182.4 L1397.67 11182.4 L1397.67 11229.4 L1358.6 11229.4 L1358.6 11182.4 Z" fill="#000000" fill-rule="evenodd" fill-opacity="1" /><path clip-path="url(#clip0600)" d="M 0 0 M1518.23 10977.6 Q1489.34 10977.6 1474.71 11006.1 Q1460.26 11034.4 1460.26 11091.4 Q1460.26 11148.3 1474.71 11176.8 Q1489.34 11205.1 1518.23 11205.1 Q1547.3 11205.1 1561.74 11176.8 Q1576.37 11148.3 1576.37 11091.4 Q1576.37 11034.4 1561.74 11006.1 Q1547.3 10977.6 1518.23 10977.6 M1518.23 10947.9 Q1564.71 10947.9 1589.15 10984.8 Q1613.78 11021.4 1613.78 11091.4 Q1613.78 11161.3 1589.15 11198.1 Q1564.71 11234.8 1518.23 11234.8 Q1471.75 11234.8 1447.12 11198.1 Q1422.67 11161.3 1422.67 11091.4 Q1422.67 11021.4 1447.12 10984.8 Q1471.75 10947.9 1518.23 10947.9 Z" fill="#000000" fill-rule="evenodd" fill-opacity="1" /><path clip-path="url(#clip0600)" d="M 0 0 M1019.9 8502.3 L1119.71 8502.3 L1119.71 8532.67 L1019.9 8532.67 L1019.9 8502.3 Z" fill="#000000" fill-rule="evenodd" fill-opacity="1" /><path clip-path="url(#clip0600)" d="M 0 0 M1166.75 8589.89 L1227.86 8589.89 L1227.86 8378.96 L1161.38 8392.3 L1161.38 8358.22 L1227.49 8344.89 L1264.89 8344.89 L1264.89 8589.89 L1326.01 8589.89 L1326.01 8621.37 L1166.75 8621.37 L1166.75 8589.89 Z" fill="#000000" fill-rule="evenodd" fill-opacity="1" /><path clip-path="url(#clip0600)" d="M 0 0 M1366.56 8574.33 L1405.63 8574.33 L1405.63 8621.37 L1366.56 8621.37 L1366.56 8574.33 Z" fill="#000000" fill-rule="evenodd" fill-opacity="1" /><path clip-path="url(#clip0600)" d="M 0 0 M1446.56 8344.89 L1593.41 8344.89 L1593.41 8376.37 L1480.82 8376.37 L1480.82 8444.15 Q1488.97 8441.37 1497.12 8440.07 Q1505.26 8438.59 1513.41 8438.59 Q1559.71 8438.59 1586.74 8463.96 Q1613.78 8489.33 1613.78 8532.67 Q1613.78 8577.29 1586 8602.11 Q1558.23 8626.74 1507.67 8626.74 Q1490.26 8626.74 1472.12 8623.78 Q1454.15 8620.81 1434.89 8614.89 L1434.89 8577.29 Q1451.56 8586.37 1469.34 8590.81 Q1487.12 8595.26 1506.93 8595.26 Q1538.97 8595.26 1557.67 8578.41 Q1576.37 8561.55 1576.37 8532.67 Q1576.37 8503.78 1557.67 8486.92 Q1538.97 8470.07 1506.93 8470.07 Q1491.93 8470.07 1476.93 8473.41 Q1462.12 8476.74 1446.56 8483.78 L1446.56 8344.89 Z" fill="#000000" fill-rule="evenodd" fill-opacity="1" /><path clip-path="url(#clip0600)" d="M 0 0 M1011.93 5894.26 L1111.75 5894.26 L1111.75 5924.63 L1011.93 5924.63 L1011.93 5894.26 Z" fill="#000000" fill-rule="evenodd" fill-opacity="1" /><path clip-path="url(#clip0600)" d="M 0 0 M1158.78 5981.85 L1219.89 5981.85 L1219.89 5770.93 L1153.41 5784.26 L1153.41 5750.19 L1219.52 5736.85 L1256.93 5736.85 L1256.93 5981.85 L1318.04 5981.85 L1318.04 6013.33 L1158.78 6013.33 L1158.78 5981.85 Z" fill="#000000" fill-rule="evenodd" fill-opacity="1" /><path clip-path="url(#clip0600)" d="M 0 0 M1358.6 5966.3 L1397.67 5966.3 L1397.67 6013.33 L1358.6 6013.33 L1358.6 5966.3 Z" fill="#000000" fill-rule="evenodd" fill-opacity="1" /><path clip-path="url(#clip0600)" d="M 0 0 M1518.23 5761.48 Q1489.34 5761.48 1474.71 5790 Q1460.26 5818.33 1460.26 5875.37 Q1460.26 5932.22 1474.71 5960.74 Q1489.34 5989.07 1518.23 5989.07 Q1547.3 5989.07 1561.74 5960.74 Q1576.37 5932.22 1576.37 5875.37 Q1576.37 5818.33 1561.74 5790 Q1547.3 5761.48 1518.23 5761.48 M1518.23 5731.85 Q1564.71 5731.85 1589.15 5768.7 Q1613.78 5805.37 1613.78 5875.37 Q1613.78 5945.18 1589.15 5982.04 Q1564.71 6018.7 1518.23 6018.7 Q1471.75 6018.7 1447.12 5982.04 Q1422.67 5945.18 1422.67 5875.37 Q1422.67 5805.37 1447.12 5768.7 Q1471.75 5731.85 1518.23 5731.85 Z" fill="#000000" fill-rule="evenodd" fill-opacity="1" /><path clip-path="url(#clip0600)" d="M 0 0 M1010.08 3286.22 L1109.9 3286.22 L1109.9 3316.59 L1010.08 3316.59 L1010.08 3286.22 Z" fill="#000000" fill-rule="evenodd" fill-opacity="1" /><path clip-path="url(#clip0600)" d="M 0 0 M1230.45 3153.44 Q1201.56 3153.44 1186.93 3181.96 Q1172.49 3210.3 1172.49 3267.33 Q1172.49 3324.18 1186.93 3352.7 Q1201.56 3381.04 1230.45 3381.04 Q1259.52 3381.04 1273.97 3352.7 Q1288.6 3324.18 1288.6 3267.33 Q1288.6 3210.3 1273.97 3181.96 Q1259.52 3153.44 1230.45 3153.44 M1230.45 3123.82 Q1276.93 3123.82 1301.38 3160.67 Q1326.01 3197.33 1326.01 3267.33 Q1326.01 3337.15 1301.38 3374 Q1276.93 3410.67 1230.45 3410.67 Q1183.97 3410.67 1159.34 3374 Q1134.9 3337.15 1134.9 3267.33 Q1134.9 3197.33 1159.34 3160.67 Q1183.97 3123.82 1230.45 3123.82 Z" fill="#000000" fill-rule="evenodd" fill-opacity="1" /><path clip-path="url(#clip0600)" d="M 0 0 M1366.56 3358.26 L1405.63 3358.26 L1405.63 3405.3 L1366.56 3405.3 L1366.56 3358.26 Z" fill="#000000" fill-rule="evenodd" fill-opacity="1" /><path clip-path="url(#clip0600)" d="M 0 0 M1446.56 3128.82 L1593.41 3128.82 L1593.41 3160.3 L1480.82 3160.3 L1480.82 3228.07 Q1488.97 3225.3 1497.12 3224 Q1505.26 3222.52 1513.41 3222.52 Q1559.71 3222.52 1586.74 3247.89 Q1613.78 3273.26 1613.78 3316.59 Q1613.78 3361.22 1586 3386.04 Q1558.23 3410.67 1507.67 3410.67 Q1490.26 3410.67 1472.12 3407.7 Q1454.15 3404.74 1434.89 3398.81 L1434.89 3361.22 Q1451.56 3370.3 1469.34 3374.74 Q1487.12 3379.18 1506.93 3379.18 Q1538.97 3379.18 1557.67 3362.33 Q1576.37 3345.48 1576.37 3316.59 Q1576.37 3287.7 1557.67 3270.85 Q1538.97 3254 1506.93 3254 Q1491.93 3254 1476.93 3257.33 Q1462.12 3260.67 1446.56 3267.7 L1446.56 3128.82 Z" fill="#000000" fill-rule="evenodd" fill-opacity="1" /><path clip-path="url(#clip0600)" d="M 0 0 M5337.14 96.768 L5643.06 96.768 L5643.06 151.86 L5402.6 151.86 L5402.6 295.1 L5633.01 295.1 L5633.01 350.193 L5402.6 350.193 L5402.6 525.516 L5648.89 525.516 L5648.89 580.608 L5337.14 580.608 L5337.14 96.768 Z" fill="#000000" fill-rule="evenodd" fill-opacity="1" /><path clip-path="url(#clip0600)" d="M 0 0 M5987.22 690.793 L5987.22 737.135 L5642.41 737.135 L5642.41 690.793 L5987.22 690.793 Z" fill="#000000" fill-rule="evenodd" fill-opacity="1" /><path clip-path="url(#clip0600)" d="M 0 0 M6281.16 228.341 L6281.16 284.73 Q6255.88 271.767 6228.66 265.286 Q6201.44 258.804 6172.27 258.804 Q6127.87 258.804 6105.51 272.415 Q6083.47 286.026 6083.47 313.248 Q6083.47 333.989 6099.35 345.98 Q6115.23 357.646 6163.2 368.341 L6183.61 372.878 Q6247.13 386.489 6273.7 411.442 Q6300.6 436.072 6300.6 480.47 Q6300.6 531.025 6260.42 560.516 Q6220.56 590.006 6150.56 590.006 Q6121.39 590.006 6089.63 584.173 Q6058.2 578.664 6023.2 567.321 L6023.2 505.747 Q6056.25 522.923 6088.34 531.673 Q6120.42 540.099 6151.85 540.099 Q6193.98 540.099 6216.67 525.84 Q6239.35 511.257 6239.35 485.007 Q6239.35 460.701 6222.83 447.738 Q6206.62 434.775 6151.21 422.785 L6130.46 417.924 Q6075.05 406.257 6050.42 382.276 Q6025.79 357.97 6025.79 315.841 Q6025.79 264.637 6062.09 236.767 Q6098.38 208.897 6165.14 208.897 Q6198.2 208.897 6227.36 213.758 Q6256.53 218.619 6281.16 228.341 Z" fill="#000000" fill-rule="evenodd" fill-opacity="1" /><path clip-path="url(#clip0600)" d="M 0 0 M6363.15 217.647 L6422.78 217.647 L6422.78 580.608 L6363.15 580.608 L6363.15 217.647 M6363.15 76.3514 L6422.78 76.3514 L6422.78 151.86 L6363.15 151.86 L6363.15 76.3514 Z" fill="#000000" fill-rule="evenodd" fill-opacity="1" /><path clip-path="url(#clip0600)" d="M 0 0 M6544.31 114.592 L6544.31 217.647 L6667.13 217.647 L6667.13 263.989 L6544.31 263.989 L6544.31 461.025 Q6544.31 505.423 6556.3 518.062 Q6568.61 530.701 6605.88 530.701 L6667.13 530.701 L6667.13 580.608 L6605.88 580.608 Q6536.85 580.608 6510.6 555.006 Q6484.35 529.08 6484.35 461.025 L6484.35 263.989 L6440.6 263.989 L6440.6 217.647 L6484.35 217.647 L6484.35 114.592 L6544.31 114.592 Z" fill="#000000" fill-rule="evenodd" fill-opacity="1" /><path clip-path="url(#clip0600)" d="M 0 0 M7040.14 384.22 L7040.14 413.387 L6765.97 413.387 Q6769.86 474.96 6802.91 507.368 Q6836.29 539.451 6895.6 539.451 Q6929.95 539.451 6962.03 531.025 Q6994.44 522.599 7026.2 505.747 L7026.2 562.136 Q6994.12 575.747 6960.41 582.877 Q6926.71 590.006 6892.03 590.006 Q6805.18 590.006 6754.3 539.451 Q6703.75 488.896 6703.75 402.692 Q6703.75 313.572 6751.71 261.397 Q6800 208.897 6881.66 208.897 Q6954.9 208.897 6997.36 256.212 Q7040.14 303.202 7040.14 384.22 M6980.51 366.72 Q6979.86 317.785 6952.96 288.619 Q6926.39 259.452 6882.31 259.452 Q6832.41 259.452 6802.27 287.647 Q6772.45 315.841 6767.91 367.044 L6980.51 366.72 Z" fill="#000000" fill-rule="evenodd" fill-opacity="1" /><path clip-path="url(#clip0600)" d="M 0 0 M7328.88 498.294 L7397.26 498.294 L7397.26 580.608 L7328.88 580.608 L7328.88 498.294 M7328.88 237.415 L7397.26 237.415 L7397.26 319.73 L7328.88 319.73 L7328.88 237.415 Z" fill="#000000" fill-rule="evenodd" fill-opacity="1" /><path clip-path="url(#clip0600)" d="M 0 0 M7690.55 525.516 L7797.49 525.516 L7797.49 156.397 L7681.15 179.731 L7681.15 120.101 L7796.84 96.768 L7862.31 96.768 L7862.31 525.516 L7969.25 525.516 L7969.25 580.608 L7690.55 580.608 L7690.55 525.516 Z" fill="#000000" fill-rule="evenodd" fill-opacity="1" /><path clip-path="url(#clip0600)" d="M 0 0 M8188.32 312.6 Q8144.25 312.6 8118.32 342.739 Q8092.72 372.878 8092.72 425.377 Q8092.72 477.553 8118.32 508.016 Q8144.25 538.155 8188.32 538.155 Q8232.4 538.155 8258 508.016 Q8283.93 477.553 8283.93 425.377 Q8283.93 372.878 8258 342.739 Q8232.4 312.6 8188.32 312.6 M8318.28 107.462 L8318.28 167.092 Q8293.65 155.425 8268.37 149.268 Q8243.42 143.11 8218.79 143.11 Q8153.97 143.11 8119.62 186.86 Q8085.59 230.61 8080.73 319.082 Q8099.85 290.887 8128.69 275.98 Q8157.54 260.749 8192.21 260.749 Q8265.13 260.749 8307.26 305.147 Q8349.71 349.22 8349.71 425.377 Q8349.71 499.914 8305.64 544.96 Q8261.56 590.006 8188.32 590.006 Q8104.39 590.006 8059.99 525.84 Q8015.59 461.349 8015.59 339.174 Q8015.59 224.453 8070.04 156.397 Q8124.48 88.018 8216.19 88.018 Q8240.82 88.018 8265.78 92.8791 Q8291.05 97.7402 8318.28 107.462 Z" fill="#000000" fill-rule="evenodd" fill-opacity="1" /><path clip-path="url(#clip0600)" d="M 0 0 M8872.76 176.49 L8756.42 239.36 L8872.76 302.554 L8853.97 334.313 L8745.08 268.526 L8745.08 390.702 L8708.14 390.702 L8708.14 268.526 L8599.25 334.313 L8580.45 302.554 L8696.79 239.36 L8580.45 176.49 L8599.25 144.407 L8708.14 210.193 L8708.14 88.018 L8745.08 88.018 L8745.08 210.193 L8853.97 144.407 L8872.76 176.49 Z" fill="#000000" fill-rule="evenodd" fill-opacity="1" /><path clip-path="url(#clip0600)" d="M 0 0 M9166.05 525.516 L9272.99 525.516 L9272.99 156.397 L9156.65 179.731 L9156.65 120.101 L9272.35 96.768 L9337.81 96.768 L9337.81 525.516 L9444.75 525.516 L9444.75 580.608 L9166.05 580.608 L9166.05 525.516 Z" fill="#000000" fill-rule="evenodd" fill-opacity="1" /><path clip-path="url(#clip0600)" d="M 0 0 M9663.83 312.6 Q9619.75 312.6 9593.83 342.739 Q9568.22 372.878 9568.22 425.377 Q9568.22 477.553 9593.83 508.016 Q9619.75 538.155 9663.83 538.155 Q9707.9 538.155 9733.5 508.016 Q9759.43 477.553 9759.43 425.377 Q9759.43 372.878 9733.5 342.739 Q9707.9 312.6 9663.83 312.6 M9793.78 107.462 L9793.78 167.092 Q9769.15 155.425 9743.87 149.268 Q9718.92 143.11 9694.29 143.11 Q9629.47 143.11 9595.12 186.86 Q9561.09 230.61 9556.23 319.082 Q9575.35 290.887 9604.2 275.98 Q9633.04 260.749 9667.71 260.749 Q9740.63 260.749 9782.76 305.147 Q9825.21 349.22 9825.21 425.377 Q9825.21 499.914 9781.14 544.96 Q9737.07 590.006 9663.83 590.006 Q9579.89 590.006 9535.49 525.84 Q9491.09 461.349 9491.09 339.174 Q9491.09 224.453 9545.54 156.397 Q9599.98 88.018 9691.7 88.018 Q9716.33 88.018 9741.28 92.8791 Q9766.56 97.7402 9793.78 107.462 Z" fill="#000000" fill-rule="evenodd" fill-opacity="1" /><path clip-path="url(#clip0600)" d="M 0 0 M9902.99 498.294 L9971.37 498.294 L9971.37 554.034 L9918.22 657.737 L9876.42 657.737 L9902.99 554.034 L9902.99 498.294 Z" fill="#000000" fill-rule="evenodd" fill-opacity="1" /><path clip-path="url(#clip0600)" d="M 0 0 M10443.9 141.166 Q10372.6 141.166 10330.4 194.314 Q10288.6 247.462 10288.6 339.174 Q10288.6 430.563 10330.4 483.71 Q10372.6 536.858 10443.9 536.858 Q10515.2 536.858 10556.6 483.71 Q10598.4 430.563 10598.4 339.174 Q10598.4 247.462 10556.6 194.314 Q10515.2 141.166 10443.9 141.166 M10535.6 571.858 L10621.8 666.163 L10542.7 666.163 L10471.1 588.71 Q10460.4 589.358 10454.6 589.682 Q10449.1 590.006 10443.9 590.006 Q10341.8 590.006 10280.5 521.951 Q10219.6 453.572 10219.6 339.174 Q10219.6 224.453 10280.5 156.397 Q10341.8 88.018 10443.9 88.018 Q10545.6 88.018 10606.6 156.397 Q10667.5 224.453 10667.5 339.174 Q10667.5 423.433 10633.4 483.386 Q10599.7 543.34 10535.6 571.858 Z" fill="#000000" fill-rule="evenodd" fill-opacity="1" /><path clip-path="url(#clip0600)" d="M 0 0 M10948.8 279.221 L11364.2 279.221 L11364.2 333.665 L10948.8 333.665 L10948.8 279.221 M10948.8 411.442 L11364.2 411.442 L11364.2 466.535 L10948.8 466.535 L10948.8 411.442 Z" fill="#000000" fill-rule="evenodd" fill-opacity="1" /><path clip-path="url(#clip0600)" d="M 0 0 M11844.5 319.73 Q11891.5 329.776 11917.7 361.535 Q11944.3 393.294 11944.3 439.961 Q11944.3 511.581 11895.1 550.793 Q11845.8 590.006 11755.1 590.006 Q11724.6 590.006 11692.2 583.849 Q11660.1 578.015 11625.8 566.025 L11625.8 502.831 Q11653 518.71 11685.4 526.812 Q11717.8 534.914 11753.1 534.914 Q11814.7 534.914 11846.8 510.608 Q11879.2 486.303 11879.2 439.961 Q11879.2 397.183 11849 373.202 Q11819.2 348.896 11765.8 348.896 L11709.4 348.896 L11709.4 295.1 L11768.4 295.1 Q11816.6 295.1 11842.2 275.98 Q11867.8 256.536 11867.8 220.24 Q11867.8 182.971 11841.3 163.203 Q11815 143.11 11765.8 143.11 Q11738.9 143.11 11708.1 148.944 Q11677.3 154.777 11640.3 167.092 L11640.3 108.759 Q11677.6 98.3884 11710 93.2032 Q11742.7 88.018 11771.6 88.018 Q11846.1 88.018 11889.6 122.046 Q11933 155.749 11933 213.434 Q11933 253.619 11910 281.489 Q11887 309.035 11844.5 319.73 Z" fill="#000000" fill-rule="evenodd" fill-opacity="1" /><path clip-path="url(#clip0600)" d="M 0 0 M12071.7 525.516 L12300.2 525.516 L12300.2 580.608 L11992.9 580.608 L11992.9 525.516 Q12030.2 486.951 12094.4 422.137 Q12158.9 356.998 12175.4 338.202 Q12206.8 302.878 12219.1 278.573 Q12231.8 253.943 12231.8 230.286 Q12231.8 191.721 12204.6 167.416 Q12177.7 143.11 12134.2 143.11 Q12103.4 143.11 12069.1 153.805 Q12035.1 164.499 11996.2 186.212 L11996.2 120.101 Q12035.7 104.222 12070.1 96.1199 Q12104.4 88.018 12132.9 88.018 Q12208.1 88.018 12252.8 125.61 Q12297.6 163.203 12297.6 226.073 Q12297.6 255.888 12286.2 282.786 Q12275.2 309.359 12245.7 345.656 Q12237.6 355.054 12194.2 400.1 Q12150.8 444.822 12071.7 525.516 Z" fill="#000000" fill-rule="evenodd" fill-opacity="1" /><path clip-path="url(#clip0600)" d="M 0 0 M12377.9 498.294 L12446.3 498.294 L12446.3 554.034 L12393.2 657.737 L12351.4 657.737 L12377.9 554.034 L12377.9 498.294 Z" fill="#000000" fill-rule="evenodd" fill-opacity="1" /><path clip-path="url(#clip0600)" d="M 0 0 M12722.4 96.768 L12787.9 96.768 L12787.9 546.904 Q12787.9 634.404 12754.5 673.941 Q12721.4 713.478 12647.9 713.478 L12622.9 713.478 L12622.9 658.385 L12643.3 658.385 Q12686.8 658.385 12704.6 634.08 Q12722.4 609.775 12722.4 546.904 L12722.4 96.768 Z" fill="#000000" fill-rule="evenodd" fill-opacity="1" /><path clip-path="url(#clip0600)" d="M 0 0 M13126.2 690.793 L13126.2 737.135 L12781.4 737.135 L12781.4 690.793 L13126.2 690.793 Z" fill="#000000" fill-rule="evenodd" fill-opacity="1" /><path clip-path="url(#clip0600)" d="M 0 0 M13337.2 139.87 Q13286.6 139.87 13261 189.777 Q13235.8 239.36 13235.8 339.174 Q13235.8 438.664 13261 488.571 Q13286.6 538.155 13337.2 538.155 Q13388.1 538.155 13413.3 488.571 Q13438.9 438.664 13438.9 339.174 Q13438.9 239.36 13413.3 189.777 Q13388.1 139.87 13337.2 139.87 M13337.2 88.018 Q13418.5 88.018 13461.3 152.508 Q13504.4 216.675 13504.4 339.174 Q13504.4 461.349 13461.3 525.84 Q13418.5 590.006 13337.2 590.006 Q13255.8 590.006 13212.7 525.84 Q13170 461.349 13170 339.174 Q13170 216.675 13212.7 152.508 Q13255.8 88.018 13337.2 88.018 Z" fill="#000000" fill-rule="evenodd" fill-opacity="1" /><path clip-path="url(#clip0600)" d="M 0 0 M13785.7 279.221 L14201.2 279.221 L14201.2 333.665 L13785.7 333.665 L13785.7 279.221 M13785.7 411.442 L14201.2 411.442 L14201.2 466.535 L13785.7 466.535 L13785.7 411.442 Z" fill="#000000" fill-rule="evenodd" fill-opacity="1" /><path clip-path="url(#clip0600)" d="M 0 0 M14494.4 525.516 L14601.4 525.516 L14601.4 156.397 L14485 179.731 L14485 120.101 L14600.7 96.768 L14666.2 96.768 L14666.2 525.516 L14773.1 525.516 L14773.1 580.608 L14494.4 580.608 L14494.4 525.516 Z" fill="#000000" fill-rule="evenodd" fill-opacity="1" /><path clip-path="url(#clip0600)" d="M 0 0 M14844.1 498.294 L14912.5 498.294 L14912.5 580.608 L14844.1 580.608 L14844.1 498.294 Z" fill="#000000" fill-rule="evenodd" fill-opacity="1" /><path clip-path="url(#clip0600)" d="M 0 0 M15123.5 139.87 Q15072.9 139.87 15047.3 189.777 Q15022 239.36 15022 339.174 Q15022 438.664 15047.3 488.571 Q15072.9 538.155 15123.5 538.155 Q15174.4 538.155 15199.6 488.571 Q15225.2 438.664 15225.2 339.174 Q15225.2 239.36 15199.6 189.777 Q15174.4 139.87 15123.5 139.87 M15123.5 88.018 Q15204.8 88.018 15247.6 152.508 Q15290.7 216.675 15290.7 339.174 Q15290.7 461.349 15247.6 525.84 Q15204.8 590.006 15123.5 590.006 Q15042.1 590.006 14999 525.84 Q14956.3 461.349 14956.3 339.174 Q14956.3 216.675 14999 152.508 Q15042.1 88.018 15123.5 88.018 Z" fill="#000000" fill-rule="evenodd" fill-opacity="1" /><path clip-path="url(#clip0600)" d="M 0 0 M10153.1 12068.2 L10474.7 12068.2 L10474.7 12111.5 L10339.8 12111.5 L10339.8 12448.4 L10288.1 12448.4 L10288.1 12111.5 L10153.1 12111.5 L10153.1 12068.2 Z" fill="#000000" fill-rule="evenodd" fill-opacity="1" /><path clip-path="url(#clip0600)" d="M 0 0 M323.873 6855.64 L323.873 6615.27 L367.16 6615.27 L367.16 6804.21 L479.706 6804.21 L479.706 6623.17 L522.993 6623.17 L522.993 6804.21 L660.746 6804.21 L660.746 6610.69 L704.033 6610.69 L704.033 6855.64 L323.873 6855.64 Z" fill="#000000" fill-rule="evenodd" fill-opacity="1" /><path clip-path="url(#clip0600)" d="M 0 0 M790.607 6344.86 L827.019 6344.86 L827.019 6615.78 L790.607 6615.78 L790.607 6344.86 Z" fill="#000000" fill-rule="evenodd" fill-opacity="1" /><path clip-path="url(#clip0600)" d="M 0 0 M427.252 6113.91 L471.558 6113.91 Q461.373 6133.77 456.28 6155.16 Q451.187 6176.55 451.187 6199.47 Q451.187 6234.35 461.882 6251.92 Q472.576 6269.23 493.965 6269.23 Q510.261 6269.23 519.682 6256.76 Q528.849 6244.28 537.252 6206.6 L540.817 6190.55 Q551.511 6140.65 571.117 6119.77 Q590.469 6098.63 625.353 6098.63 Q665.075 6098.63 688.246 6130.21 Q711.417 6161.53 711.417 6216.53 Q711.417 6239.44 706.834 6264.4 Q702.505 6289.1 693.594 6316.6 L645.214 6316.6 Q658.709 6290.62 665.584 6265.42 Q672.205 6240.21 672.205 6215.51 Q672.205 6182.41 661.001 6164.58 Q649.543 6146.76 628.918 6146.76 Q609.821 6146.76 599.636 6159.74 Q589.451 6172.48 580.029 6216.02 L576.21 6232.31 Q567.043 6275.86 548.201 6295.21 Q529.104 6314.56 496.002 6314.56 Q455.771 6314.56 433.873 6286.04 Q411.975 6257.52 411.975 6205.07 Q411.975 6179.1 415.794 6156.18 Q419.613 6133.26 427.252 6113.91 Z" fill="#000000" fill-rule="evenodd" fill-opacity="1" /><path clip-path="url(#clip0600)" d="M 0 0 M418.85 6049.49 L418.85 6002.64 L704.033 6002.64 L704.033 6049.49 L418.85 6049.49 M307.832 6049.49 L307.832 6002.64 L367.16 6002.64 L367.16 6049.49 L307.832 6049.49 Z" fill="#000000" fill-rule="evenodd" fill-opacity="1" /><path clip-path="url(#clip0600)" d="M 0 0 M337.878 5907.15 L418.85 5907.15 L418.85 5810.65 L455.261 5810.65 L455.261 5907.15 L610.075 5907.15 Q644.96 5907.15 654.89 5897.73 Q664.821 5888.06 664.821 5858.77 L664.821 5810.65 L704.033 5810.65 L704.033 5858.77 Q704.033 5913.01 683.918 5933.63 Q663.547 5954.26 610.075 5954.26 L455.261 5954.26 L455.261 5988.63 L418.85 5988.63 L418.85 5954.26 L337.878 5954.26 L337.878 5907.15 Z" fill="#000000" fill-rule="evenodd" fill-opacity="1" /><path clip-path="url(#clip0600)" d="M 0 0 M549.729 5517.57 L572.645 5517.57 L572.645 5732.99 Q621.024 5729.93 646.487 5703.96 Q671.695 5677.73 671.695 5631.14 Q671.695 5604.15 665.075 5578.94 Q658.455 5553.47 645.214 5528.52 L689.519 5528.52 Q700.214 5553.73 705.816 5580.21 Q711.417 5606.69 711.417 5633.94 Q711.417 5702.18 671.695 5742.15 Q631.973 5781.88 564.242 5781.88 Q494.22 5781.88 453.224 5744.19 Q411.975 5706.25 411.975 5642.09 Q411.975 5584.54 449.15 5551.18 Q486.071 5517.57 549.729 5517.57 M535.979 5564.42 Q497.53 5564.93 474.613 5586.07 Q451.697 5606.95 451.697 5641.58 Q451.697 5680.79 473.849 5704.47 Q496.002 5727.9 536.233 5731.46 L535.979 5564.42 Z" fill="#000000" fill-rule="evenodd" fill-opacity="1" /><polyline clip-path="url(#clip0602)" style="stroke:#009af9; stroke-width:32; stroke-opacity:1; fill:none" points="
  2287.37,11091.2 2449.53,11091.2 2611.68,11091.2 2773.83,11091.2 2935.98,11091.2 3098.14,11091.2 3260.29,11091.2 3422.44,11091.2 3584.59,11091.2 3746.75,11091.2 
  3908.9,11091.2 4071.05,11091.2 4233.2,11091.2 4395.35,11091.2 4557.51,11091.2 4719.66,11091.2 4881.81,11091.2 5043.96,11091.2 5206.12,11091.2 5368.27,11087.1 
  5530.42,11091.2 5692.57,11091.1 5854.73,11091.1 6016.88,11087.7 6179.03,11057.5 6341.18,11053.7 6503.33,11064.4 6665.49,11038.1 6827.64,11038.6 6989.79,10900.2 
  7151.94,10959.4 7314.1,10736.7 7476.25,10504.6 7638.4,8458.86 7800.55,7849.73 7962.71,2728.13 8124.86,2683.7 8287.01,2586.29 8449.16,2435.46 8611.32,2292.08 
  8773.47,2258.05 8935.62,2261.54 9097.77,2118.92 9259.92,2020.14 9422.08,2002.88 9584.23,1976.09 9746.38,1942.28 9908.53,1888.75 10070.7,1863.66 10232.8,1888.36 
  10395,1799.48 10557.1,1752.9 10719.3,1726.02 10881.4,1704.56 11043.6,1721.19 11205.8,1666.89 11367.9,1660.47 11530.1,1653.46 11692.2,1614.33 11854.4,1603.56 
  12016.5,1599.77 12178.7,1557.94 12340.8,1561.84 12503,1556.17 12665.1,1555.42 12827.3,1506.43 12989.4,1496.13 13151.6,1501.92 13313.7,1464.16 13475.9,1472.43 
  13638,1472.29 13800.2,1457.97 13962.3,1467.58 14124.5,1431.68 14286.6,1405.39 14448.8,1437.46 14611,1402.86 14773.1,1382.27 14935.3,1399.44 15097.4,1375.77 
  15259.6,1383.56 15421.7,1354.98 15583.9,1365.62 15746,1344.23 15908.2,1362.5 16070.3,1332.96 16232.5,1338 16394.6,1345.71 16556.8,1321.06 16718.9,1319.75 
  16881.1,1320.24 17043.2,1322.42 17205.4,1303.75 17367.5,1312.17 17529.7,1300.42 17691.8,1295.63 17854,1286.98 18016.2,1291.91 18178.3,1290.27 18340.5,1282.05 
  
  "/>
<polyline clip-path="url(#clip0602)" style="stroke:#e26f46; stroke-width:32; stroke-opacity:1; fill:none" points="
  2287.37,11091.2 2449.53,11091.2 2611.68,11091.2 2773.83,11091.2 2935.98,11091.2 3098.14,11091.2 3260.29,11091.2 3422.44,11091.2 3584.59,11091.2 3746.75,11091.2 
  3908.9,11091.2 4071.05,11091.2 4233.2,11091.1 4395.35,11090.7 4557.51,11090.4 4719.66,11089.6 4881.81,11087.3 5043.96,11084.3 5206.12,11086.2 5368.27,11075.2 
  5530.42,11068.9 5692.57,11069 5854.73,11007.4 6016.88,10997.8 6179.03,10886.5 6341.18,10451.3 6503.33,10227.5 6665.49,7961 6827.64,8063.54 6989.79,7644.14 
  7151.94,9874.23 7314.1,4269.96 7476.25,3654.62 7638.4,3584.32 7800.55,3103.36 7962.71,3034.42 8124.86,2941.86 8287.01,2815.78 8449.16,2717.36 8611.32,2612.82 
  8773.47,2581.4 8935.62,2518.06 9097.77,2496.31 9259.92,2396.63 9422.08,2387.38 9584.23,2344.63 9746.38,2266.2 9908.53,2228.91 10070.7,2216.44 10232.8,2180.59 
  10395,2120.15 10557.1,2100.34 10719.3,2134.92 10881.4,2130.64 11043.6,2027.2 11205.8,2021.19 11367.9,1987.16 11530.1,1957.79 11692.2,1949.07 11854.4,1926.48 
  12016.5,1944.19 12178.7,1893.99 12340.8,1894.22 12503,1877.66 12665.1,1857.96 12827.3,1824.45 12989.4,1852.21 13151.6,1820 13313.7,1842.62 13475.9,1811.27 
  13638,1776.2 13800.2,1775.91 13962.3,1772.08 14124.5,1737.82 14286.6,1710.99 14448.8,1707.48 14611,1737.66 14773.1,1712.77 14935.3,1678.98 15097.4,1686.13 
  15259.6,1707.67 15421.7,1694 15583.9,1663.53 15746,1661.97 15908.2,1661.77 16070.3,1653.24 16232.5,1661.49 16394.6,1674.84 16556.8,1649.58 16718.9,1632.79 
  16881.1,1608.74 17043.2,1622.17 17205.4,1625.51 17367.5,1587.58 17529.7,1597.9 17691.8,1603.34 17854,1585.53 18016.2,1595.86 18178.3,1585.01 18340.5,1584.51 
  
  "/>
<polyline clip-path="url(#clip0602)" style="stroke:#3da44d; stroke-width:32; stroke-opacity:1; fill:none" points="
  2287.37,11091.2 2449.53,11091.2 2611.68,11091.2 2773.83,11091.2 2935.98,11091.1 3098.14,11089.8 3260.29,11086.7 3422.44,11076.8 3584.59,10967.8 3746.75,10900.6 
  3908.9,10807 4071.05,10936.8 4233.2,10989.7 4395.35,11044.4 4557.51,11039.1 4719.66,11025.3 4881.81,11008.6 5043.96,10994.1 5206.12,10973.7 5368.27,10950.8 
  5530.42,10934.9 5692.57,10900.4 5854.73,10877.5 6016.88,10868.8 6179.03,10825.9 6341.18,10785.6 6503.33,10780.9 6665.49,10759.8 6827.64,10659.5 6989.79,10571.5 
  7151.94,10506.8 7314.1,10389.8 7476.25,10090.7 7638.4,8687.46 7800.55,6293.24 7962.71,4763.13 8124.86,4431.68 8287.01,4131.04 8449.16,4045.47 8611.32,3939.06 
  8773.47,3682.37 8935.62,3639.27 9097.77,3569.92 9259.92,3400.81 9422.08,3314.32 9584.23,3335.96 9746.38,3188.04 9908.53,3158.46 10070.7,3037.73 10232.8,3071.3 
  10395,2931.88 10557.1,2889.65 10719.3,2890.3 10881.4,2864.08 11043.6,2821.18 11205.8,2766.11 11367.9,2751.46 11530.1,2644.13 11692.2,2629.35 11854.4,2619.15 
  12016.5,2584.62 12178.7,2520.23 12340.8,2592.5 12503,2542.11 12665.1,2498.02 12827.3,2520.48 12989.4,2457.04 13151.6,2420.46 13313.7,2424.85 13475.9,2454.64 
  13638,2365.5 13800.2,2349.29 13962.3,2372.93 14124.5,2344.15 14286.6,2343.84 14448.8,2317.21 14611,2252.33 14773.1,2259.08 14935.3,2250.3 15097.4,2240.13 
  15259.6,2236.38 15421.7,2231.08 15583.9,2223.04 15746,2216.64 15908.2,2211.82 16070.3,2242.1 16232.5,2184.87 16394.6,2213.11 16556.8,2178.69 16718.9,2136.02 
  16881.1,2159.02 17043.2,2103.4 17205.4,2094.38 17367.5,2099.14 17529.7,2114.6 17691.8,2110.1 17854,2065.98 18016.2,2077.34 18178.3,2085.74 18340.5,2056.67 
  
  "/>
<polyline clip-path="url(#clip0602)" style="stroke:#c271d2; stroke-width:32; stroke-opacity:1; fill:none" points="
  2287.37,11091.2 2449.53,11091.2 2611.68,11091.2 2773.83,11091.2 2935.98,11091.2 3098.14,11091.2 3260.29,11091.2 3422.44,11091.2 3584.59,11091.1 3746.75,11091.1 
  3908.9,11091.1 4071.05,11091 4233.2,11090.9 4395.35,11090.9 4557.51,11090.9 4719.66,11090.6 4881.81,11090.3 5043.96,11089.9 5206.12,11089.8 5368.27,11089.5 
  5530.42,11086.7 5692.57,11088.3 5854.73,11082.4 6016.88,11086.6 6179.03,11073.5 6341.18,11075.1 6503.33,11064 6665.49,11040.8 6827.64,11012.7 6989.79,11010.3 
  7151.94,10955.1 7314.1,10772.1 7476.25,10820 7638.4,10476.5 7800.55,10699.9 7962.71,9727.59 8124.86,6261.98 8287.01,5599.75 8449.16,5556.95 8611.32,5209.75 
  8773.47,4946.62 8935.62,4772.42 9097.77,4598.95 9259.92,4332.06 9422.08,4340.68 9584.23,4205.78 9746.38,4127.08 9908.53,3952.79 10070.7,3924.72 10232.8,3802.4 
  10395,3559.39 10557.1,3613.75 10719.3,3700.01 10881.4,3496.32 11043.6,3414.26 11205.8,3373.27 11367.9,3371.91 11530.1,3356.49 11692.2,3172.23 11854.4,3288.18 
  12016.5,3208.27 12178.7,3158.52 12340.8,3038.32 12503,3106.56 12665.1,3062.25 12827.3,2988.06 12989.4,2985.21 13151.6,2921.4 13313.7,2895.73 13475.9,2914.53 
  13638,2826.47 13800.2,2849.88 13962.3,2832.61 14124.5,2789.82 14286.6,2715.23 14448.8,2702.37 14611,2809.67 14773.1,2714.08 14935.3,2668.75 15097.4,2656.33 
  15259.6,2653.1 15421.7,2612.26 15583.9,2577.1 15746,2557.96 15908.2,2537.73 16070.3,2554.29 16232.5,2544.9 16394.6,2548.2 16556.8,2564.09 16718.9,2528.56 
  16881.1,2499.07 17043.2,2475.66 17205.4,2466.1 17367.5,2498.63 17529.7,2417.71 17691.8,2437.98 17854,2439.06 18016.2,2417.61 18178.3,2426.69 18340.5,2436.33 
  
  "/>
<path clip-path="url(#clip0600)" d="
M2381.78 4075.14 L5636.77 4075.14 L5636.77 1655.94 L2381.78 1655.94  Z
  " fill="#ffffff" fill-rule="evenodd" fill-opacity="1"/>
<polyline clip-path="url(#clip0600)" style="stroke:#000000; stroke-width:32; stroke-opacity:1; fill:none" points="
  2381.78,4075.14 5636.77,4075.14 5636.77,1655.94 2381.78,1655.94 2381.78,4075.14 
  "/>
<polyline clip-path="url(#clip0600)" style="stroke:#009af9; stroke-width:32; stroke-opacity:1; fill:none" points="
  2573.78,2139.78 3725.78,2139.78 
  "/>
<path clip-path="url(#clip0600)" d="M 0 0 M3974.63 2001.54 L4012.04 2001.54 L4012.04 2258.76 Q4012.04 2308.76 3992.97 2331.35 Q3974.08 2353.94 3932.04 2353.94 L3917.78 2353.94 L3917.78 2322.46 L3929.45 2322.46 Q3954.26 2322.46 3964.45 2308.57 Q3974.63 2294.68 3974.63 2258.76 L3974.63 2001.54 Z" fill="#000000" fill-rule="evenodd" fill-opacity="1" /><path clip-path="url(#clip0600)" d="M 0 0 M4059.08 2246.54 L4120.19 2246.54 L4120.19 2035.61 L4053.71 2048.94 L4053.71 2014.87 L4119.82 2001.54 L4157.22 2001.54 L4157.22 2246.54 L4218.34 2246.54 L4218.34 2278.02 L4059.08 2278.02 L4059.08 2246.54 Z" fill="#000000" fill-rule="evenodd" fill-opacity="1" /><path clip-path="url(#clip0600)" d="M 0 0 M4379.08 2105.8 L4616.48 2105.8 L4616.48 2136.91 L4379.08 2136.91 L4379.08 2105.8 M4379.08 2181.35 L4616.48 2181.35 L4616.48 2212.83 L4379.08 2212.83 L4379.08 2181.35 Z" fill="#000000" fill-rule="evenodd" fill-opacity="1" /><path clip-path="url(#clip0600)" d="M 0 0 M4857.59 2026.17 Q4828.7 2026.17 4814.07 2054.68 Q4799.63 2083.02 4799.63 2140.05 Q4799.63 2196.91 4814.07 2225.42 Q4828.7 2253.76 4857.59 2253.76 Q4886.67 2253.76 4901.11 2225.42 Q4915.74 2196.91 4915.74 2140.05 Q4915.74 2083.02 4901.11 2054.68 Q4886.67 2026.17 4857.59 2026.17 M4857.59 1996.54 Q4904.07 1996.54 4928.52 2033.39 Q4953.15 2070.06 4953.15 2140.05 Q4953.15 2209.87 4928.52 2246.72 Q4904.07 2283.39 4857.59 2283.39 Q4811.11 2283.39 4786.48 2246.72 Q4762.04 2209.87 4762.04 2140.05 Q4762.04 2070.06 4786.48 2033.39 Q4811.11 1996.54 4857.59 1996.54 Z" fill="#000000" fill-rule="evenodd" fill-opacity="1" /><path clip-path="url(#clip0600)" d="M 0 0 M4993.7 2230.98 L5032.78 2230.98 L5032.78 2278.02 L4993.7 2278.02 L4993.7 2230.98 Z" fill="#000000" fill-rule="evenodd" fill-opacity="1" /><path clip-path="url(#clip0600)" d="M 0 0 M5153.33 2026.17 Q5124.44 2026.17 5109.81 2054.68 Q5095.37 2083.02 5095.37 2140.05 Q5095.37 2196.91 5109.81 2225.42 Q5124.44 2253.76 5153.33 2253.76 Q5182.4 2253.76 5196.85 2225.42 Q5211.48 2196.91 5211.48 2140.05 Q5211.48 2083.02 5196.85 2054.68 Q5182.4 2026.17 5153.33 2026.17 M5153.33 1996.54 Q5199.81 1996.54 5224.26 2033.39 Q5248.89 2070.06 5248.89 2140.05 Q5248.89 2209.87 5224.26 2246.72 Q5199.81 2283.39 5153.33 2283.39 Q5106.85 2283.39 5082.22 2246.72 Q5057.78 2209.87 5057.78 2140.05 Q5057.78 2070.06 5082.22 2033.39 Q5106.85 1996.54 5153.33 1996.54 Z" fill="#000000" fill-rule="evenodd" fill-opacity="1" /><polyline clip-path="url(#clip0600)" style="stroke:#e26f46; stroke-width:32; stroke-opacity:1; fill:none" points="
  2573.78,2623.62 3725.78,2623.62 
  "/>
<path clip-path="url(#clip0600)" d="M 0 0 M3974.63 2485.38 L4012.04 2485.38 L4012.04 2742.6 Q4012.04 2792.6 3992.97 2815.19 Q3974.08 2837.78 3932.04 2837.78 L3917.78 2837.78 L3917.78 2806.3 L3929.45 2806.3 Q3954.26 2806.3 3964.45 2792.41 Q3974.63 2778.52 3974.63 2742.6 L3974.63 2485.38 Z" fill="#000000" fill-rule="evenodd" fill-opacity="1" /><path clip-path="url(#clip0600)" d="M 0 0 M4059.08 2730.38 L4120.19 2730.38 L4120.19 2519.45 L4053.71 2532.78 L4053.71 2498.71 L4119.82 2485.38 L4157.22 2485.38 L4157.22 2730.38 L4218.34 2730.38 L4218.34 2761.86 L4059.08 2761.86 L4059.08 2730.38 Z" fill="#000000" fill-rule="evenodd" fill-opacity="1" /><path clip-path="url(#clip0600)" d="M 0 0 M4379.08 2589.64 L4616.48 2589.64 L4616.48 2620.75 L4379.08 2620.75 L4379.08 2589.64 M4379.08 2665.19 L4616.48 2665.19 L4616.48 2696.67 L4379.08 2696.67 L4379.08 2665.19 Z" fill="#000000" fill-rule="evenodd" fill-opacity="1" /><path clip-path="url(#clip0600)" d="M 0 0 M4857.59 2510.01 Q4828.7 2510.01 4814.07 2538.52 Q4799.63 2566.86 4799.63 2623.89 Q4799.63 2680.75 4814.07 2709.26 Q4828.7 2737.6 4857.59 2737.6 Q4886.67 2737.6 4901.11 2709.26 Q4915.74 2680.75 4915.74 2623.89 Q4915.74 2566.86 4901.11 2538.52 Q4886.67 2510.01 4857.59 2510.01 M4857.59 2480.38 Q4904.07 2480.38 4928.52 2517.23 Q4953.15 2553.9 4953.15 2623.89 Q4953.15 2693.71 4928.52 2730.56 Q4904.07 2767.23 4857.59 2767.23 Q4811.11 2767.23 4786.48 2730.56 Q4762.04 2693.71 4762.04 2623.89 Q4762.04 2553.9 4786.48 2517.23 Q4811.11 2480.38 4857.59 2480.38 Z" fill="#000000" fill-rule="evenodd" fill-opacity="1" /><path clip-path="url(#clip0600)" d="M 0 0 M4993.7 2714.82 L5032.78 2714.82 L5032.78 2761.86 L4993.7 2761.86 L4993.7 2714.82 Z" fill="#000000" fill-rule="evenodd" fill-opacity="1" /><path clip-path="url(#clip0600)" d="M 0 0 M5176.11 2517.97 L5081.66 2665.56 L5176.11 2665.56 L5176.11 2517.97 M5166.29 2485.38 L5213.33 2485.38 L5213.33 2665.56 L5252.77 2665.56 L5252.77 2696.67 L5213.33 2696.67 L5213.33 2761.86 L5176.11 2761.86 L5176.11 2696.67 L5051.29 2696.67 L5051.29 2660.56 L5166.29 2485.38 Z" fill="#000000" fill-rule="evenodd" fill-opacity="1" /><polyline clip-path="url(#clip0600)" style="stroke:#3da44d; stroke-width:32; stroke-opacity:1; fill:none" points="
  2573.78,3107.46 3725.78,3107.46 
  "/>
<path clip-path="url(#clip0600)" d="M 0 0 M3974.63 2969.22 L4012.04 2969.22 L4012.04 3226.44 Q4012.04 3276.44 3992.97 3299.03 Q3974.08 3321.62 3932.04 3321.62 L3917.78 3321.62 L3917.78 3290.14 L3929.45 3290.14 Q3954.26 3290.14 3964.45 3276.25 Q3974.63 3262.36 3974.63 3226.44 L3974.63 2969.22 Z" fill="#000000" fill-rule="evenodd" fill-opacity="1" /><path clip-path="url(#clip0600)" d="M 0 0 M4059.08 3214.22 L4120.19 3214.22 L4120.19 3003.29 L4053.71 3016.62 L4053.71 2982.55 L4119.82 2969.22 L4157.22 2969.22 L4157.22 3214.22 L4218.34 3214.22 L4218.34 3245.7 L4059.08 3245.7 L4059.08 3214.22 Z" fill="#000000" fill-rule="evenodd" fill-opacity="1" /><path clip-path="url(#clip0600)" d="M 0 0 M4379.08 3073.48 L4616.48 3073.48 L4616.48 3104.59 L4379.08 3104.59 L4379.08 3073.48 M4379.08 3149.03 L4616.48 3149.03 L4616.48 3180.51 L4379.08 3180.51 L4379.08 3149.03 Z" fill="#000000" fill-rule="evenodd" fill-opacity="1" /><path clip-path="url(#clip0600)" d="M 0 0 M4857.59 2993.85 Q4828.7 2993.85 4814.07 3022.36 Q4799.63 3050.7 4799.63 3107.73 Q4799.63 3164.59 4814.07 3193.1 Q4828.7 3221.44 4857.59 3221.44 Q4886.67 3221.44 4901.11 3193.1 Q4915.74 3164.59 4915.74 3107.73 Q4915.74 3050.7 4901.11 3022.36 Q4886.67 2993.85 4857.59 2993.85 M4857.59 2964.22 Q4904.07 2964.22 4928.52 3001.07 Q4953.15 3037.74 4953.15 3107.73 Q4953.15 3177.55 4928.52 3214.4 Q4904.07 3251.07 4857.59 3251.07 Q4811.11 3251.07 4786.48 3214.4 Q4762.04 3177.55 4762.04 3107.73 Q4762.04 3037.74 4786.48 3001.07 Q4811.11 2964.22 4857.59 2964.22 Z" fill="#000000" fill-rule="evenodd" fill-opacity="1" /><path clip-path="url(#clip0600)" d="M 0 0 M4993.7 3198.66 L5032.78 3198.66 L5032.78 3245.7 L4993.7 3245.7 L4993.7 3198.66 Z" fill="#000000" fill-rule="evenodd" fill-opacity="1" /><path clip-path="url(#clip0600)" d="M 0 0 M5153.33 3114.4 Q5126.66 3114.4 5111.29 3128.66 Q5096.11 3142.92 5096.11 3167.92 Q5096.11 3192.92 5111.29 3207.18 Q5126.66 3221.44 5153.33 3221.44 Q5180 3221.44 5195.37 3207.18 Q5210.74 3192.73 5210.74 3167.92 Q5210.74 3142.92 5195.37 3128.66 Q5180.18 3114.4 5153.33 3114.4 M5115.92 3098.48 Q5091.85 3092.55 5078.33 3076.07 Q5065 3059.59 5065 3035.88 Q5065 3002.74 5088.52 2983.48 Q5112.22 2964.22 5153.33 2964.22 Q5194.63 2964.22 5218.15 2983.48 Q5241.66 3002.74 5241.66 3035.88 Q5241.66 3059.59 5228.15 3076.07 Q5214.81 3092.55 5190.92 3098.48 Q5217.96 3104.77 5232.96 3123.11 Q5248.14 3141.44 5248.14 3167.92 Q5248.14 3208.1 5223.52 3229.59 Q5199.07 3251.07 5153.33 3251.07 Q5107.59 3251.07 5082.96 3229.59 Q5058.52 3208.1 5058.52 3167.92 Q5058.52 3141.44 5073.7 3123.11 Q5088.89 3104.77 5115.92 3098.48 M5102.22 3039.4 Q5102.22 3060.88 5115.55 3072.92 Q5129.07 3084.96 5153.33 3084.96 Q5177.4 3084.96 5190.92 3072.92 Q5204.63 3060.88 5204.63 3039.4 Q5204.63 3017.92 5190.92 3005.88 Q5177.4 2993.85 5153.33 2993.85 Q5129.07 2993.85 5115.55 3005.88 Q5102.22 3017.92 5102.22 3039.4 Z" fill="#000000" fill-rule="evenodd" fill-opacity="1" /><polyline clip-path="url(#clip0600)" style="stroke:#c271d2; stroke-width:32; stroke-opacity:1; fill:none" points="
  2573.78,3591.3 3725.78,3591.3 
  "/>
<path clip-path="url(#clip0600)" d="M 0 0 M3974.63 3453.06 L4012.04 3453.06 L4012.04 3710.28 Q4012.04 3760.28 3992.97 3782.87 Q3974.08 3805.46 3932.04 3805.46 L3917.78 3805.46 L3917.78 3773.98 L3929.45 3773.98 Q3954.26 3773.98 3964.45 3760.09 Q3974.63 3746.2 3974.63 3710.28 L3974.63 3453.06 Z" fill="#000000" fill-rule="evenodd" fill-opacity="1" /><path clip-path="url(#clip0600)" d="M 0 0 M4059.08 3698.06 L4120.19 3698.06 L4120.19 3487.13 L4053.71 3500.46 L4053.71 3466.39 L4119.82 3453.06 L4157.22 3453.06 L4157.22 3698.06 L4218.34 3698.06 L4218.34 3729.54 L4059.08 3729.54 L4059.08 3698.06 Z" fill="#000000" fill-rule="evenodd" fill-opacity="1" /><path clip-path="url(#clip0600)" d="M 0 0 M4379.08 3557.32 L4616.48 3557.32 L4616.48 3588.43 L4379.08 3588.43 L4379.08 3557.32 M4379.08 3632.87 L4616.48 3632.87 L4616.48 3664.35 L4379.08 3664.35 L4379.08 3632.87 Z" fill="#000000" fill-rule="evenodd" fill-opacity="1" /><path clip-path="url(#clip0600)" d="M 0 0 M4784.07 3698.06 L4845.18 3698.06 L4845.18 3487.13 L4778.7 3500.46 L4778.7 3466.39 L4844.81 3453.06 L4882.22 3453.06 L4882.22 3698.06 L4943.33 3698.06 L4943.33 3729.54 L4784.07 3729.54 L4784.07 3698.06 Z" fill="#000000" fill-rule="evenodd" fill-opacity="1" /><path clip-path="url(#clip0600)" d="M 0 0 M4983.89 3682.5 L5022.96 3682.5 L5022.96 3729.54 L4983.89 3729.54 L4983.89 3682.5 Z" fill="#000000" fill-rule="evenodd" fill-opacity="1" /><path clip-path="url(#clip0600)" d="M 0 0 M5143.52 3477.69 Q5114.63 3477.69 5100 3506.2 Q5085.55 3534.54 5085.55 3591.57 Q5085.55 3648.43 5100 3676.94 Q5114.63 3705.28 5143.52 3705.28 Q5172.59 3705.28 5187.03 3676.94 Q5201.66 3648.43 5201.66 3591.57 Q5201.66 3534.54 5187.03 3506.2 Q5172.59 3477.69 5143.52 3477.69 M5143.52 3448.06 Q5190 3448.06 5214.44 3484.91 Q5239.07 3521.58 5239.07 3591.57 Q5239.07 3661.39 5214.44 3698.24 Q5190 3734.91 5143.52 3734.91 Q5097.03 3734.91 5072.41 3698.24 Q5047.96 3661.39 5047.96 3591.57 Q5047.96 3521.58 5072.41 3484.91 Q5097.03 3448.06 5143.52 3448.06 Z" fill="#000000" fill-rule="evenodd" fill-opacity="1" /></svg>
